<?xml version="1.0" standalone="no"?>
<!DOCTYPE svg PUBLIC "-//W3C//DTD SVG 1.1//EN"
 "http://www.w3.org/Graphics/SVG/1.1/DTD/svg11.dtd">
<!-- Created with svg_stack (http://github.com/astraw/svg_stack) -->
<svg xmlns="http://www.w3.org/2000/svg" xmlns:sodipodi="http://sodipodi.sourceforge.net/DTD/sodipodi-0.dtd" xmlns:xlink="http://www.w3.org/1999/xlink" version="1.1" width="468.4765625" height="239.16015625">
  <defs><g>
<symbol overflow="visible" id="id0:glyph0-0">
<path style="stroke:none;" d="M 8.90625 29.8125 L 8.90625 -116.15625 L 62.046875 -116.15625 L 62.046875 29.8125 Z M 16.828125 21.890625 L 54.125 21.890625 L 54.125 -108.234375 L 16.828125 -108.234375 Z M 16.828125 21.890625 "/>
</symbol>
<symbol overflow="visible" id="id0:glyph0-1">
<path style="stroke:none;" d="M 50.59375 0 C 46.195312 0 42.625 -0.84375 39.875 -2.53125 C 37.125 -4.21875 35.53125 -6.5625 35.09375 -9.5625 L 34.65625 -11.875 L 30.6875 -4.296875 C 28.050781 -4.585938 25.976562 -4.820312 24.46875 -5 C 22.96875 -5.1875 21.738281 -5.425781 20.78125 -5.71875 C 19.832031 -6.007812 18.804688 -6.375 17.703125 -6.8125 C 16.390625 -7.332031 14.941406 -8.015625 13.359375 -8.859375 C 11.785156 -9.703125 10.410156 -10.617188 9.234375 -11.609375 C 8.066406 -12.597656 7.484375 -13.53125 7.484375 -14.40625 C 7.484375 -15.070312 7.71875 -16.082031 8.1875 -17.4375 C 8.664062 -18.789062 9.21875 -20.144531 9.84375 -21.5 C 10.46875 -22.863281 11 -23.910156 11.4375 -24.640625 C 12.019531 -25.671875 12.9375 -26.804688 14.1875 -28.046875 C 16.09375 -29.878906 18.507812 -31.726562 21.4375 -33.59375 C 24.375 -35.46875 27.421875 -37.03125 30.578125 -38.28125 L 30.140625 -41.25 C 32.703125 -43.519531 35.378906 -45.425781 38.171875 -46.96875 C 38.316406 -41.03125 38.5 -35.085938 38.71875 -29.140625 C 38.9375 -23.203125 39.082031 -17.265625 39.15625 -11.328125 C 42.601562 -9.347656 46.414062 -8.359375 50.59375 -8.359375 C 51.257812 -8.359375 51.59375 -8.066406 51.59375 -7.484375 L 51.59375 -0.875 C 51.59375 -0.289062 51.257812 0 50.59375 0 Z M 34.4375 -13.203125 C 33.988281 -16.054688 33.523438 -19.003906 33.046875 -22.046875 C 32.578125 -25.097656 32.082031 -28.125 31.5625 -31.125 C 22.84375 -28.195312 16.613281 -24.347656 12.875 -19.578125 C 14.851562 -17.816406 16.992188 -16.492188 19.296875 -15.609375 C 21.609375 -14.734375 24.050781 -14.113281 26.625 -13.75 C 27.863281 -13.601562 29.144531 -13.492188 30.46875 -13.421875 C 31.789062 -13.347656 33.113281 -13.273438 34.4375 -13.203125 Z M 34.4375 -13.203125 "/>
</symbol>
<symbol overflow="visible" id="id0:glyph0-2">
<path style="stroke:none;" d="M 0 0 C -0.582031 0 -0.875 -0.289062 -0.875 -0.875 L -0.875 -7.484375 C -0.875 -8.066406 -0.582031 -8.359375 0 -8.359375 C 4.03125 -8.359375 8.023438 -9.3125 11.984375 -11.21875 C 11.546875 -15.101562 11.03125 -20.53125 10.4375 -27.5 C 9.851562 -34.46875 9.234375 -42.972656 8.578125 -53.015625 C 8.359375 -55.441406 8.15625 -57.878906 7.96875 -60.328125 C 7.789062 -62.785156 7.628906 -65.226562 7.484375 -67.65625 C 8.578125 -68.820312 9.726562 -69.898438 10.9375 -70.890625 C 12.15625 -71.878906 13.457031 -72.851562 14.84375 -73.8125 C 15.070312 -68.75 15.296875 -62.273438 15.515625 -54.390625 C 15.734375 -46.503906 15.914062 -37.175781 16.0625 -26.40625 C 16.0625 -23.90625 16.097656 -21.390625 16.171875 -18.859375 C 16.242188 -16.328125 16.316406 -13.816406 16.390625 -11.328125 C 19.691406 -9.347656 23.503906 -8.359375 27.828125 -8.359375 C 28.484375 -8.359375 28.8125 -8.066406 28.8125 -7.484375 L 28.8125 -0.875 C 28.8125 -0.289062 28.484375 0 27.828125 0 C 22.472656 0 18.257812 -1.316406 15.1875 -3.953125 C 12.46875 -2.421875 10.046875 -1.378906 7.921875 -0.828125 C 5.796875 -0.273438 3.15625 0 0 0 Z M 0 0 "/>
</symbol>
<symbol overflow="visible" id="id0:glyph0-3">
<path style="stroke:none;" d="M -0.109375 0 C -0.765625 0 -1.09375 -0.289062 -1.09375 -0.875 L -1.09375 -7.484375 C -1.09375 -8.066406 -0.765625 -8.359375 -0.109375 -8.359375 C 4.285156 -8.359375 8.351562 -9.347656 12.09375 -11.328125 C 11.875 -14.117188 11.65625 -16.867188 11.4375 -19.578125 C 11.21875 -22.296875 11 -24.972656 10.78125 -27.609375 C 10.125 -34.503906 9.460938 -41.285156 8.796875 -47.953125 C 8.140625 -54.628906 7.40625 -61.195312 6.59375 -67.65625 C 7.625 -68.75 8.742188 -69.804688 9.953125 -70.828125 C 11.160156 -71.859375 12.460938 -72.851562 13.859375 -73.8125 C 14.078125 -69.851562 14.332031 -65.285156 14.625 -60.109375 C 14.914062 -54.941406 15.285156 -49.132812 15.734375 -42.6875 C 16.097656 -37.332031 16.351562 -32.328125 16.5 -27.671875 C 16.644531 -23.015625 16.753906 -18.738281 16.828125 -14.84375 C 16.828125 -13.601562 16.457031 -11.9375 15.71875 -9.84375 C 14.988281 -7.75 14.078125 -5.75 12.984375 -3.84375 C 11.660156 -1.28125 7.296875 0 -0.109375 0 Z M -0.109375 0 "/>
</symbol>
</g>
<g>
<symbol overflow="visible" id="id1:glyph0-0">
<path style="stroke:none;" d="M 5.375 -96.6875 L 69.828125 -96.6875 L 69.828125 0 L 5.375 0 Z M 8.0625 -2.6875 L 67.140625 -2.6875 L 67.140625 -94 L 8.0625 -94 Z M 8.0625 -2.6875 "/>
</symbol>
<symbol overflow="visible" id="id1:glyph0-1">
<path style="stroke:none;" d="M 68.15625 -13.75 L 66.28125 -18.640625 L 88.09375 -27.390625 L 6.984375 -27.390625 L 6.984375 -34 L 88.09375 -34 L 66.28125 -42.75 L 68.15625 -47.640625 L 99.09375 -34.265625 L 99.09375 -27.125 Z M 68.15625 -13.75 "/>
</symbol>
</g>
<g>
<symbol overflow="visible" id="id2:glyph0-0">
<path style="stroke:none;" d="M 8.90625 29.8125 L 8.90625 -116.15625 L 62.046875 -116.15625 L 62.046875 29.8125 Z M 16.828125 21.890625 L 54.125 21.890625 L 54.125 -108.234375 L 16.828125 -108.234375 Z M 16.828125 21.890625 "/>
</symbol>
<symbol overflow="visible" id="id2:glyph0-1">
<path style="stroke:none;" d="M 50.59375 0 C 46.195312 0 42.640625 -0.84375 39.921875 -2.53125 C 37.210938 -4.21875 35.601562 -6.5625 35.09375 -9.5625 L 34.4375 -13.53125 L 30.6875 -6.484375 C 28.050781 -6.703125 25.976562 -6.921875 24.46875 -7.140625 C 22.96875 -7.367188 21.738281 -7.628906 20.78125 -7.921875 C 19.832031 -8.210938 18.804688 -8.539062 17.703125 -8.90625 C 16.390625 -9.425781 14.941406 -10.101562 13.359375 -10.9375 C 11.785156 -11.78125 10.410156 -12.695312 9.234375 -13.6875 C 8.066406 -14.6875 7.484375 -15.660156 7.484375 -16.609375 C 7.484375 -17.410156 7.789062 -18.65625 8.40625 -20.34375 C 9.03125 -22.03125 9.820312 -23.789062 10.78125 -25.625 C 11.800781 -27.675781 13.375 -29.617188 15.5 -31.453125 C 17.632812 -33.285156 20.019531 -34.953125 22.65625 -36.453125 C 25.300781 -37.960938 27.832031 -39.234375 30.25 -40.265625 L 29.703125 -44.875 C 30.796875 -45.90625 32.039062 -46.929688 33.4375 -47.953125 C 34.832031 -48.984375 36.375 -50.015625 38.0625 -51.046875 L 39.15625 -11.328125 C 42.382812 -9.347656 46.269531 -8.359375 50.8125 -8.359375 C 54.78125 -8.359375 58.742188 -9.3125 62.703125 -11.21875 C 61.523438 -21.34375 60.585938 -29.648438 59.890625 -36.140625 C 59.191406 -42.628906 58.660156 -47.226562 58.296875 -49.9375 C 59.328125 -50.96875 60.445312 -51.992188 61.65625 -53.015625 C 62.863281 -54.046875 64.238281 -55.070312 65.78125 -56.09375 L 66.984375 -11.328125 C 70.429688 -9.347656 74.320312 -8.359375 78.65625 -8.359375 C 82.976562 -8.359375 87.007812 -9.347656 90.75 -11.328125 C 90.53125 -13.972656 90.3125 -16.648438 90.09375 -19.359375 C 89.875 -22.078125 89.613281 -24.789062 89.3125 -27.5 C 88.800781 -34.03125 88.175781 -40.628906 87.4375 -47.296875 C 86.707031 -53.972656 85.941406 -60.757812 85.140625 -67.65625 C 86.242188 -68.820312 87.414062 -69.898438 88.65625 -70.890625 C 89.90625 -71.878906 91.226562 -72.851562 92.625 -73.8125 C 93.132812 -65.445312 93.550781 -58.296875 93.875 -52.359375 C 94.207031 -46.421875 94.46875 -41.414062 94.65625 -37.34375 C 94.84375 -33.269531 94.988281 -29.859375 95.09375 -27.109375 C 95.207031 -24.359375 95.300781 -22.046875 95.375 -20.171875 C 95.445312 -18.304688 95.484375 -16.53125 95.484375 -14.84375 C 95.484375 -12.425781 94.195312 -8.757812 91.625 -3.84375 C 90.894531 -2.53125 89.410156 -1.5625 87.171875 -0.9375 C 84.929688 -0.3125 81.976562 0 78.3125 0 C 73.039062 0 68.898438 -1.316406 65.890625 -3.953125 C 63.097656 -2.421875 60.617188 -1.378906 58.453125 -0.828125 C 56.296875 -0.273438 53.675781 0 50.59375 0 Z M 34.203125 -15.40625 C 33.691406 -18.40625 33.179688 -21.390625 32.671875 -24.359375 C 32.160156 -27.328125 31.679688 -30.28125 31.234375 -33.21875 C 27.128906 -31.820312 23.460938 -30.113281 20.234375 -28.09375 C 17.015625 -26.082031 14.5625 -23.941406 12.875 -21.671875 C 15.726562 -19.179688 18.929688 -17.53125 22.484375 -16.71875 C 26.046875 -15.914062 29.953125 -15.476562 34.203125 -15.40625 Z M 34.203125 -15.40625 "/>
</symbol>
</g>
</defs>
  <g id="id0:id0" transform="matrix(1.25,0,0,1.25,0.0,0.0)"><g id="id0:surface1">
<g style="fill:rgb(0%,0%,0%);fill-opacity:1;">
  <use xlink:href="#id0:glyph0-1" x="16" y="119.59375"/>
  <use xlink:href="#id0:glyph0-2" x="65.71875" y="119.59375"/>
  <use xlink:href="#id0:glyph0-3" x="92.671875" y="119.59375"/>
</g>
</g>
</g>
  <g id="id1:id1" transform="matrix(1.25,0,0,1.25,164.98046875,18.876953125)"><g id="id1:surface1">
<g style="fill:rgb(0%,0%,0%);fill-opacity:1;">
  <use xlink:href="#id1:glyph0-1" x="0" y="120.84375"/>
</g>
</g>
</g>
  <g id="id2:id2" transform="matrix(1.25,0,0,1.25,297.578125,0.0)"><g id="id2:surface1">
<g style="fill:rgb(0%,0%,0%);fill-opacity:1;">
  <use xlink:href="#id2:glyph0-1" x="16" y="119.59375"/>
</g>
</g>
</g>
</svg>
