<!DOCTYPE svg PUBLIC "-//W3C//DTD SVG 1.1//EN" "http://www.w3.org/Graphics/SVG/1.1/DTD/svg11.dtd">
<!-- Created with svg_stack (http://github.com/astraw/svg_stack) --><svg xmlns="http://www.w3.org/2000/svg" xmlns:sodipodi="http://sodipodi.sourceforge.net/DTD/sodipodi-0.dtd" xmlns:xlink="http://www.w3.org/1999/xlink" version="1.1" width="100%" id="arabic-medi" viewBox="0 0 680.37109375 239.16015625">
  <defs><g>
<symbol overflow="visible" id="arabic-medi:id0:glyph0-0">
<path style="stroke:none;" d="M 8.90625 29.8125 L 8.90625 -116.15625 L 62.046875 -116.15625 L 62.046875 29.8125 Z M 16.828125 21.890625 L 54.125 21.890625 L 54.125 -108.234375 L 16.828125 -108.234375 Z M 16.828125 21.890625 "/>
</symbol>
<symbol overflow="visible" id="arabic-medi:id0:glyph0-1">
<path style="stroke:none;" d="M 43.5625 0 C 40.625 0 37.648438 -0.0703125 34.640625 -0.21875 C 31.640625 -0.363281 28.945312 -0.523438 26.5625 -0.703125 C 24.175781 -0.890625 22.363281 -1.09375 21.125 -1.3125 C 19.875 -1.613281 18.222656 -2.203125 16.171875 -3.078125 C 14.117188 -3.960938 12.046875 -4.988281 9.953125 -6.15625 C 7.859375 -7.332031 6.082031 -8.429688 4.625 -9.453125 L 5.828125 -13.3125 C 9.710938 -12.5 12.203125 -11.960938 13.296875 -11.703125 C 14.398438 -11.453125 15.03125 -11.289062 15.1875 -11.21875 C 15.257812 -11.21875 15.273438 -11.21875 15.234375 -11.21875 C 15.203125 -11.21875 15.644531 -11.144531 16.5625 -11 C 17.476562 -10.851562 19.4375 -10.488281 22.4375 -9.90625 C 23.539062 -11.289062 24.625 -12.644531 25.6875 -13.96875 C 26.75 -15.289062 27.789062 -16.570312 28.8125 -17.8125 C 28.300781 -20.96875 27.789062 -24.101562 27.28125 -27.21875 C 26.769531 -30.34375 26.21875 -33.476562 25.625 -36.625 C 25.113281 -39.269531 24.597656 -42.164062 24.078125 -45.3125 C 23.566406 -48.46875 23.128906 -51.53125 22.765625 -54.5 C 22.398438 -57.46875 22.109375 -59.984375 21.890625 -62.046875 C 21.816406 -62.628906 21.78125 -63.15625 21.78125 -63.625 C 21.78125 -64.101562 21.78125 -64.53125 21.78125 -64.90625 C 21.78125 -67.394531 22.3125 -69.351562 23.375 -70.78125 C 24.4375 -72.21875 26.328125 -73.226562 29.046875 -73.8125 C 29.484375 -72.050781 29.992188 -70.179688 30.578125 -68.203125 C 31.160156 -66.222656 31.929688 -63.726562 32.890625 -60.71875 L 29.921875 -58.1875 C 30.648438 -51.664062 31.195312 -46.625 31.5625 -43.0625 C 31.9375 -39.507812 32.160156 -37.363281 32.234375 -36.625 C 32.597656 -34.351562 32.851562 -32.082031 33 -29.8125 C 33.144531 -27.539062 33.253906 -25.226562 33.328125 -22.875 C 43.597656 -33.800781 52.363281 -39.265625 59.625 -39.265625 C 61.675781 -39.265625 64.222656 -38.421875 67.265625 -36.734375 C 70.304688 -35.046875 73.035156 -32.882812 75.453125 -30.25 C 77.804688 -27.539062 78.984375 -25.191406 78.984375 -23.203125 C 78.984375 -20.929688 78.613281 -18.785156 77.875 -16.765625 C 77.144531 -14.753906 76.117188 -12.90625 74.796875 -11.21875 C 78.171875 -9.3125 81.984375 -8.359375 86.234375 -8.359375 C 86.828125 -8.359375 87.125 -8.066406 87.125 -7.484375 L 87.125 -0.875 C 87.125 -0.289062 86.828125 0 86.234375 0 C 83.085938 0 79.972656 -0.640625 76.890625 -1.921875 C 73.804688 -3.203125 71.3125 -4.796875 69.40625 -6.703125 C 66.175781 -4.648438 62.25 -3.019531 57.625 -1.8125 C 53.007812 -0.601562 48.320312 0 43.5625 0 Z M 44.65625 -8.359375 C 54.1875 -8.359375 63.976562 -11.507812 74.03125 -17.8125 C 71.832031 -21.707031 69.171875 -24.71875 66.046875 -26.84375 C 62.929688 -28.96875 59.875 -30.03125 56.875 -30.03125 C 53.28125 -30.03125 48.929688 -28.195312 43.828125 -24.53125 C 38.734375 -20.863281 33.472656 -15.726562 28.046875 -9.125 C 30.835938 -8.832031 33.625 -8.628906 36.40625 -8.515625 C 39.195312 -8.410156 41.945312 -8.359375 44.65625 -8.359375 Z M 44.65625 -8.359375 "/>
</symbol>
<symbol overflow="visible" id="arabic-medi:id0:glyph0-2">
<path style="stroke:none;" d=""/>
</symbol>
<symbol overflow="visible" id="arabic-medi:id0:glyph0-3">
<path style="stroke:none;" d="M 7.921875 -82.28125 C 4.691406 -84.695312 2.050781 -87.082031 0 -89.4375 C 3.738281 -93.175781 6.304688 -95.847656 7.703125 -97.453125 C 8.867188 -96.210938 10.054688 -94.984375 11.265625 -93.765625 C 12.484375 -92.554688 13.710938 -91.40625 14.953125 -90.3125 C 13.273438 -87.894531 10.929688 -85.21875 7.921875 -82.28125 Z M 7.921875 -82.28125 "/>
</symbol>
<symbol overflow="visible" id="arabic-medi:id0:glyph0-4">
<path style="stroke:none;" d="M 39.59375 31.5625 C 30.5 31.5625 23.476562 29.25 18.53125 24.625 C 13.582031 20.007812 11.109375 13.34375 11.109375 4.625 C 11.109375 0.0703125 12.222656 -4.457031 14.453125 -8.96875 C 16.691406 -13.476562 19.796875 -17.457031 23.765625 -20.90625 C 27.796875 -24.34375 32.082031 -26.941406 36.625 -28.703125 C 35.75 -29.078125 34.375 -29.570312 32.5 -30.1875 C 30.632812 -30.8125 28.675781 -31.378906 26.625 -31.890625 C 24.570312 -32.410156 22.738281 -32.671875 21.125 -32.671875 C 18.914062 -32.671875 17.023438 -32.394531 15.453125 -31.84375 C 13.878906 -31.289062 11.769531 -30.171875 9.125 -28.484375 C 8.6875 -28.859375 8.300781 -29.425781 7.96875 -30.1875 C 7.644531 -30.957031 7.484375 -31.785156 7.484375 -32.671875 C 7.484375 -35.453125 8.707031 -37.6875 11.15625 -39.375 C 13.613281 -41.0625 16.828125 -41.90625 20.796875 -41.90625 C 23.941406 -41.90625 27.035156 -41.5 30.078125 -40.6875 C 33.128906 -39.882812 36.191406 -39.007812 39.265625 -38.0625 C 42.347656 -37.101562 45.460938 -36.21875 48.609375 -35.40625 C 51.765625 -34.601562 55.03125 -34.203125 58.40625 -34.203125 L 65.671875 -34.4375 L 62.484375 -25.953125 C 61.453125 -25.804688 60.421875 -25.695312 59.390625 -25.625 C 58.367188 -25.550781 57.34375 -25.515625 56.3125 -25.515625 C 53.3125 -25.296875 50.085938 -24.726562 46.640625 -23.8125 C 43.191406 -22.894531 39.835938 -21.703125 36.578125 -20.234375 C 33.316406 -18.773438 30.328125 -17.09375 27.609375 -15.1875 C 23.578125 -12.394531 20.457031 -9.3125 18.25 -5.9375 C 16.050781 -2.5625 14.953125 0.957031 14.953125 4.625 C 14.953125 10.414062 17.003906 14.847656 21.109375 17.921875 C 25.222656 21.003906 31.5 22.546875 39.9375 22.546875 C 44.476562 22.546875 48.984375 22.269531 53.453125 21.71875 C 57.929688 21.175781 62.367188 20.425781 66.765625 19.46875 L 68.09375 23.09375 C 62.738281 26.03125 57.734375 28.175781 53.078125 29.53125 C 48.421875 30.882812 43.925781 31.5625 39.59375 31.5625 Z M 39.59375 31.5625 "/>
</symbol>
<symbol overflow="visible" id="arabic-medi:id0:glyph0-5">
<path style="stroke:none;" d="M 0.328125 -82.28125 L 0 -86.5625 L 4.40625 -88.984375 C 1.6875 -89.429688 0.328125 -90.898438 0.328125 -93.390625 C 0.328125 -94.785156 0.726562 -96.140625 1.53125 -97.453125 C 2.34375 -98.773438 3.367188 -99.875 4.609375 -100.75 C 5.859375 -101.632812 7.144531 -102.078125 8.46875 -102.078125 C 11.332031 -102.078125 12.765625 -100.722656 12.765625 -98.015625 C 12.765625 -96.984375 12.503906 -95.992188 11.984375 -95.046875 L 9.90625 -95.59375 L 10.015625 -96.03125 C 10.015625 -96.394531 9.863281 -96.722656 9.5625 -97.015625 C 9.269531 -97.304688 8.941406 -97.453125 8.578125 -97.453125 C 7.398438 -97.453125 6.351562 -97.03125 5.4375 -96.1875 C 4.519531 -95.351562 3.84375 -94.382812 3.40625 -93.28125 C 4.65625 -91.8125 6.414062 -91.078125 8.6875 -91.078125 C 10.007812 -91.078125 11.804688 -91.296875 14.078125 -91.734375 L 13.859375 -87.5625 C 10.847656 -86.820312 8.367188 -86.050781 6.421875 -85.25 C 4.484375 -84.445312 2.453125 -83.457031 0.328125 -82.28125 Z M 0.328125 -82.28125 "/>
</symbol>
<symbol overflow="visible" id="arabic-medi:id0:glyph0-6">
<path style="stroke:none;" d="M 0 0 C -0.582031 0 -0.875 -0.289062 -0.875 -0.875 L -0.875 -7.484375 C -0.875 -8.066406 -0.582031 -8.359375 0 -8.359375 C 3.375 -8.359375 6.800781 -8.742188 10.28125 -9.515625 C 13.769531 -10.285156 16.832031 -11.257812 19.46875 -12.4375 C 18.957031 -14.113281 18.367188 -15.960938 17.703125 -17.984375 C 17.046875 -20.003906 16.316406 -22.1875 15.515625 -24.53125 C 14.117188 -28.195312 13.421875 -30.65625 13.421875 -31.90625 C 13.421875 -33.507812 14.0625 -35.15625 15.34375 -36.84375 C 16.625 -38.53125 18.363281 -39.960938 20.5625 -41.140625 C 20.71875 -40.109375 21.015625 -38.546875 21.453125 -36.453125 C 21.890625 -34.367188 22.4375 -31.710938 23.09375 -28.484375 C 24.195312 -23.648438 24.75 -19.910156 24.75 -17.265625 C 24.75 -16.171875 24.398438 -14.613281 23.703125 -12.59375 C 23.003906 -10.570312 22.035156 -8.390625 20.796875 -6.046875 C 14.117188 -2.015625 7.1875 0 0 0 Z M 0 0 "/>
</symbol>
</g>
<g>
<symbol overflow="visible" id="arabic-medi:id1:glyph0-0">
<path style="stroke:none;" d="M 5.375 -96.6875 L 69.828125 -96.6875 L 69.828125 0 L 5.375 0 Z M 8.0625 -2.6875 L 67.140625 -2.6875 L 67.140625 -94 L 8.0625 -94 Z M 8.0625 -2.6875 "/>
</symbol>
<symbol overflow="visible" id="arabic-medi:id1:glyph0-1">
<path style="stroke:none;" d="M 68.15625 -13.75 L 66.28125 -18.640625 L 88.09375 -27.390625 L 6.984375 -27.390625 L 6.984375 -34 L 88.09375 -34 L 66.28125 -42.75 L 68.15625 -47.640625 L 99.09375 -34.265625 L 99.09375 -27.125 Z M 68.15625 -13.75 "/>
</symbol>
</g>
<g>
<symbol overflow="visible" id="arabic-medi:id2:glyph0-0">
<path style="stroke:none;" d="M 8.90625 29.8125 L 8.90625 -116.15625 L 62.046875 -116.15625 L 62.046875 29.8125 Z M 16.828125 21.890625 L 54.125 21.890625 L 54.125 -108.234375 L 16.828125 -108.234375 Z M 16.828125 21.890625 "/>
</symbol>
<symbol overflow="visible" id="arabic-medi:id2:glyph0-1">
<path style="stroke:none;" d="M 43.5625 0 C 40.625 0 37.648438 -0.0703125 34.640625 -0.21875 C 31.640625 -0.363281 28.945312 -0.523438 26.5625 -0.703125 C 24.175781 -0.890625 22.363281 -1.09375 21.125 -1.3125 C 19.875 -1.613281 18.222656 -2.203125 16.171875 -3.078125 C 14.117188 -3.960938 12.046875 -4.988281 9.953125 -6.15625 C 7.859375 -7.332031 6.082031 -8.429688 4.625 -9.453125 L 5.828125 -13.3125 C 9.710938 -12.5 12.203125 -11.960938 13.296875 -11.703125 C 14.398438 -11.453125 15.03125 -11.289062 15.1875 -11.21875 C 15.257812 -11.21875 15.273438 -11.21875 15.234375 -11.21875 C 15.203125 -11.21875 15.644531 -11.144531 16.5625 -11 C 17.476562 -10.851562 19.4375 -10.488281 22.4375 -9.90625 C 23.539062 -11.289062 24.625 -12.644531 25.6875 -13.96875 C 26.75 -15.289062 27.789062 -16.570312 28.8125 -17.8125 C 28.300781 -20.96875 27.789062 -24.101562 27.28125 -27.21875 C 26.769531 -30.34375 26.21875 -33.476562 25.625 -36.625 C 25.113281 -39.269531 24.597656 -42.164062 24.078125 -45.3125 C 23.566406 -48.46875 23.128906 -51.53125 22.765625 -54.5 C 22.398438 -57.46875 22.109375 -59.984375 21.890625 -62.046875 C 21.816406 -62.628906 21.78125 -63.15625 21.78125 -63.625 C 21.78125 -64.101562 21.78125 -64.53125 21.78125 -64.90625 C 21.78125 -67.394531 22.3125 -69.351562 23.375 -70.78125 C 24.4375 -72.21875 26.328125 -73.226562 29.046875 -73.8125 C 29.484375 -72.050781 29.992188 -70.179688 30.578125 -68.203125 C 31.160156 -66.222656 31.929688 -63.726562 32.890625 -60.71875 L 29.921875 -58.1875 C 30.648438 -51.664062 31.195312 -46.625 31.5625 -43.0625 C 31.9375 -39.507812 32.160156 -37.363281 32.234375 -36.625 C 32.597656 -34.351562 32.851562 -32.082031 33 -29.8125 C 33.144531 -27.539062 33.253906 -25.226562 33.328125 -22.875 C 43.597656 -33.800781 52.363281 -39.265625 59.625 -39.265625 C 61.675781 -39.265625 64.222656 -38.421875 67.265625 -36.734375 C 70.304688 -35.046875 73.035156 -32.882812 75.453125 -30.25 C 77.804688 -27.539062 78.984375 -25.191406 78.984375 -23.203125 C 78.984375 -20.929688 78.613281 -18.785156 77.875 -16.765625 C 77.144531 -14.753906 76.117188 -12.90625 74.796875 -11.21875 C 78.171875 -9.3125 81.984375 -8.359375 86.234375 -8.359375 C 86.828125 -8.359375 87.125 -8.066406 87.125 -7.484375 L 87.125 -0.875 C 87.125 -0.289062 86.828125 0 86.234375 0 C 83.085938 0 79.972656 -0.640625 76.890625 -1.921875 C 73.804688 -3.203125 71.3125 -4.796875 69.40625 -6.703125 C 66.175781 -4.648438 62.25 -3.019531 57.625 -1.8125 C 53.007812 -0.601562 48.320312 0 43.5625 0 Z M 44.65625 -8.359375 C 54.1875 -8.359375 63.976562 -11.507812 74.03125 -17.8125 C 71.832031 -21.707031 69.171875 -24.71875 66.046875 -26.84375 C 62.929688 -28.96875 59.875 -30.03125 56.875 -30.03125 C 53.28125 -30.03125 48.929688 -28.195312 43.828125 -24.53125 C 38.734375 -20.863281 33.472656 -15.726562 28.046875 -9.125 C 30.835938 -8.832031 33.625 -8.628906 36.40625 -8.515625 C 39.195312 -8.410156 41.945312 -8.359375 44.65625 -8.359375 Z M 44.65625 -8.359375 "/>
</symbol>
<symbol overflow="visible" id="arabic-medi:id2:glyph0-2">
<path style="stroke:none;" d="M 7.921875 -82.28125 C 4.691406 -84.695312 2.050781 -87.082031 0 -89.4375 C 3.738281 -93.175781 6.304688 -95.847656 7.703125 -97.453125 C 8.867188 -96.210938 10.054688 -94.984375 11.265625 -93.765625 C 12.484375 -92.554688 13.710938 -91.40625 14.953125 -90.3125 C 13.273438 -87.894531 10.929688 -85.21875 7.921875 -82.28125 Z M 7.921875 -82.28125 "/>
</symbol>
<symbol overflow="visible" id="arabic-medi:id2:glyph0-3">
<path style="stroke:none;" d="M 0 0 C -0.582031 0 -0.875 -0.289062 -0.875 -0.875 L -0.875 -7.484375 C -0.875 -8.066406 -0.582031 -8.359375 0 -8.359375 C 6.894531 -8.359375 12.867188 -8.742188 17.921875 -9.515625 C 22.984375 -10.285156 27.53125 -11.585938 31.5625 -13.421875 C 36.332031 -15.546875 40 -16.863281 42.5625 -17.375 C 41.175781 -18.039062 39.765625 -18.796875 38.328125 -19.640625 C 36.898438 -20.484375 35.488281 -21.414062 34.09375 -22.4375 C 31.238281 -24.5625 28.859375 -26.046875 26.953125 -26.890625 C 25.046875 -27.734375 23.140625 -28.15625 21.234375 -28.15625 C 18.953125 -28.15625 17.039062 -27.863281 15.5 -27.28125 C 13.96875 -26.695312 11.84375 -25.5625 9.125 -23.875 C 8.101562 -25.039062 7.59375 -26.46875 7.59375 -28.15625 C 7.59375 -30.945312 8.800781 -33.1875 11.21875 -34.875 C 13.632812 -36.5625 16.828125 -37.40625 20.796875 -37.40625 C 23.140625 -37.40625 25.5 -36.945312 27.875 -36.03125 C 30.257812 -35.113281 33.03125 -33.550781 36.1875 -31.34375 C 40 -28.78125 43.242188 -26.820312 45.921875 -25.46875 C 48.597656 -24.113281 51.296875 -23.140625 54.015625 -22.546875 C 56.796875 -21.890625 60.863281 -21.5625 66.21875 -21.5625 L 61.9375 -13.421875 C 61.34375 -13.492188 60.40625 -13.566406 59.125 -13.640625 C 57.84375 -13.710938 56.539062 -13.820312 55.21875 -13.96875 C 53.894531 -14.113281 52.796875 -14.222656 51.921875 -14.296875 C 52.722656 -12.972656 53.582031 -11.910156 54.5 -11.109375 C 55.414062 -10.304688 56.609375 -9.71875 58.078125 -9.34375 C 60.722656 -8.6875 66.078125 -8.359375 74.140625 -8.359375 C 74.796875 -8.359375 75.125 -8.066406 75.125 -7.484375 L 75.125 -0.875 C 75.125 -0.289062 74.796875 0 74.140625 0 C 68.710938 -0.0703125 64.328125 -0.492188 60.984375 -1.265625 C 57.648438 -2.035156 54.921875 -3.265625 52.796875 -4.953125 C 51.773438 -5.828125 50.769531 -6.941406 49.78125 -8.296875 C 48.789062 -9.660156 47.851562 -11.257812 46.96875 -13.09375 C 44.988281 -12.351562 43.007812 -11.414062 41.03125 -10.28125 C 39.050781 -9.144531 37.070312 -8.066406 35.09375 -7.046875 C 32.375 -5.648438 29.859375 -4.492188 27.546875 -3.578125 C 25.242188 -2.660156 22.828125 -1.941406 20.296875 -1.421875 C 17.765625 -0.910156 14.882812 -0.546875 11.65625 -0.328125 C 8.425781 -0.109375 4.539062 0 0 0 Z M 0 0 "/>
</symbol>
<symbol overflow="visible" id="arabic-medi:id2:glyph0-4">
<path style="stroke:none;" d="M 0.328125 -82.28125 L 0 -86.5625 L 4.40625 -88.984375 C 1.6875 -89.429688 0.328125 -90.898438 0.328125 -93.390625 C 0.328125 -94.785156 0.726562 -96.140625 1.53125 -97.453125 C 2.34375 -98.773438 3.367188 -99.875 4.609375 -100.75 C 5.859375 -101.632812 7.144531 -102.078125 8.46875 -102.078125 C 11.332031 -102.078125 12.765625 -100.722656 12.765625 -98.015625 C 12.765625 -96.984375 12.503906 -95.992188 11.984375 -95.046875 L 9.90625 -95.59375 L 10.015625 -96.03125 C 10.015625 -96.394531 9.863281 -96.722656 9.5625 -97.015625 C 9.269531 -97.304688 8.941406 -97.453125 8.578125 -97.453125 C 7.398438 -97.453125 6.351562 -97.03125 5.4375 -96.1875 C 4.519531 -95.351562 3.84375 -94.382812 3.40625 -93.28125 C 4.65625 -91.8125 6.414062 -91.078125 8.6875 -91.078125 C 10.007812 -91.078125 11.804688 -91.296875 14.078125 -91.734375 L 13.859375 -87.5625 C 10.847656 -86.820312 8.367188 -86.050781 6.421875 -85.25 C 4.484375 -84.445312 2.453125 -83.457031 0.328125 -82.28125 Z M 0.328125 -82.28125 "/>
</symbol>
<symbol overflow="visible" id="arabic-medi:id2:glyph0-5">
<path style="stroke:none;" d="M 0 0 C -0.582031 0 -0.875 -0.289062 -0.875 -0.875 L -0.875 -7.484375 C -0.875 -8.066406 -0.582031 -8.359375 0 -8.359375 C 3.375 -8.359375 6.800781 -8.742188 10.28125 -9.515625 C 13.769531 -10.285156 16.832031 -11.257812 19.46875 -12.4375 C 18.957031 -14.113281 18.367188 -15.960938 17.703125 -17.984375 C 17.046875 -20.003906 16.316406 -22.1875 15.515625 -24.53125 C 14.117188 -28.195312 13.421875 -30.65625 13.421875 -31.90625 C 13.421875 -33.507812 14.0625 -35.15625 15.34375 -36.84375 C 16.625 -38.53125 18.363281 -39.960938 20.5625 -41.140625 C 20.71875 -40.109375 21.015625 -38.546875 21.453125 -36.453125 C 21.890625 -34.367188 22.4375 -31.710938 23.09375 -28.484375 C 24.195312 -23.648438 24.75 -19.910156 24.75 -17.265625 C 24.75 -16.171875 24.398438 -14.613281 23.703125 -12.59375 C 23.003906 -10.570312 22.035156 -8.390625 20.796875 -6.046875 C 14.117188 -2.015625 7.1875 0 0 0 Z M 0 0 "/>
</symbol>
</g>
</defs>
  <g id="arabic-medi:id0:id0" transform="matrix(1.25,0,0,1.25,0.0,0.0)"><g id="arabic-medi:id0:surface1">
<g style="fill:rgb(0%,0%,0%);fill-opacity:1;">
  <use xlink:href="#arabic-medi:id0:glyph0-1" x="16" y="119.59375" class="c4"/>
  <use xlink:href="#arabic-medi:id0:glyph0-2" x="101.25" y="119.59375" class="dc"/>
  <use xlink:href="#arabic-medi:id0:glyph0-3" x="130.734375" y="153.140625" class="c3"/>
  <use xlink:href="#arabic-medi:id0:glyph0-4" x="101.25" y="119.59375" class="c2"/>
  <use xlink:href="#arabic-medi:id0:glyph0-2" x="171.203125" y="119.59375" class="dc"/>
  <use xlink:href="#arabic-medi:id0:glyph0-5" x="178.46875" y="157.21875" class="c1"/>
  <use xlink:href="#arabic-medi:id0:glyph0-6" x="171.203125" y="119.59375" class="c0"/>
</g>
</g>
</g>
  <g id="arabic-medi:id1:id1" transform="matrix(1.25,0,0,1.25,271.81640625,18.876953125)"><g id="arabic-medi:id1:surface1">
<g style="fill:rgb(0%,0%,0%);fill-opacity:1;">
  <use xlink:href="#arabic-medi:id1:glyph0-1" x="0" y="120.84375" class="arrow"/>
</g>
</g>
</g>
  <g id="arabic-medi:id2:id2" transform="matrix(1.25,0,0,1.25,404.4140625,0.0)"><g id="arabic-medi:id2:surface1">
<g style="fill:rgb(0%,0%,0%);fill-opacity:1;">
  <use xlink:href="#arabic-medi:id2:glyph0-1" x="16" y="119.59375" class="c4"/>
  <use xlink:href="#arabic-medi:id2:glyph0-2" x="125.890625" y="155.890625" class="c3"/>
  <use xlink:href="#arabic-medi:id2:glyph0-3" x="101.25" y="119.59375" class="c2"/>
  <use xlink:href="#arabic-medi:id2:glyph0-4" x="181.78125" y="157.21875" class="c1"/>
  <use xlink:href="#arabic-medi:id2:glyph0-5" x="174.515625" y="119.59375" class="c0"/>
</g>
</g>
</g>
</svg>
