<?xml version="1.0" standalone="no"?>
<!DOCTYPE svg PUBLIC "-//W3C//DTD SVG 1.1//EN"
 "http://www.w3.org/Graphics/SVG/1.1/DTD/svg11.dtd">
<!-- Created with svg_stack (http://github.com/astraw/svg_stack) -->
<svg xmlns="http://www.w3.org/2000/svg" xmlns:sodipodi="http://sodipodi.sourceforge.net/DTD/sodipodi-0.dtd" xmlns:xlink="http://www.w3.org/1999/xlink" version="1.1" width="585.390625" height="348.75">
  <defs><g>
<symbol overflow="visible" id="id0:glyph0-0">
<path style="stroke:none;" d="M 7.8125 0 L 7.8125 -131.671875 L 91.1875 -131.671875 L 91.1875 0 Z M 17.046875 -9.234375 L 81.953125 -9.234375 L 81.953125 -122.4375 L 17.046875 -122.4375 Z M 17.046875 -9.234375 "/>
</symbol>
<symbol overflow="visible" id="id0:glyph0-1">
<path style="stroke:none;" d="M 3.40625 65.78125 C 3.1875 60.5 3.078125 53.09375 3.078125 43.5625 C 3.078125 35.125 3.148438 27.660156 3.296875 21.171875 C 3.441406 14.679688 3.828125 8.832031 4.453125 3.625 C 5.078125 -1.582031 6.015625 -6.457031 7.265625 -11 C 9.972656 -20.601562 14.332031 -29 20.34375 -36.1875 C 26.363281 -43.375 34.175781 -48.984375 43.78125 -53.015625 C 45.757812 -58.367188 47.644531 -62.398438 49.4375 -65.109375 C 51.238281 -67.828125 53.238281 -69.1875 55.4375 -69.1875 C 56.320312 -69.1875 57.566406 -69.019531 59.171875 -68.6875 C 60.785156 -68.363281 62.4375 -67.890625 64.125 -67.265625 C 65.8125 -66.640625 67.257812 -65.882812 68.46875 -65 C 69.6875 -64.125 70.296875 -63.140625 70.296875 -62.046875 C 70.296875 -60.941406 69.945312 -59.414062 69.25 -57.46875 C 68.550781 -55.53125 67.671875 -53.515625 66.609375 -51.421875 C 65.546875 -49.335938 64.390625 -47.488281 63.140625 -45.875 C 62.253906 -44.695312 61.257812 -43.796875 60.15625 -43.171875 C 59.0625 -42.546875 57.859375 -42.085938 56.546875 -41.796875 C 48.835938 -40.328125 42.398438 -38.640625 37.234375 -36.734375 C 32.066406 -34.828125 27.867188 -32.609375 24.640625 -30.078125 C 21.410156 -27.554688 18.914062 -24.625 17.15625 -21.28125 C 15.394531 -17.945312 14.113281 -14.15625 13.3125 -9.90625 C 12.726562 -6.96875 12.210938 -3.410156 11.765625 0.765625 C 11.328125 4.953125 10.925781 9.425781 10.5625 14.1875 C 10.195312 18.957031 9.863281 23.78125 9.5625 28.65625 C 9.269531 33.53125 9.015625 38.128906 8.796875 42.453125 C 8.503906 47.585938 8.226562 52.078125 7.96875 55.921875 C 7.71875 59.773438 7.484375 63.0625 7.265625 65.78125 Z M 3.40625 65.78125 "/>
</symbol>
<symbol overflow="visible" id="id0:glyph0-2">
<path style="stroke:none;" d="M 1.875 4.0625 C 0.1875 4.0625 -0.65625 3.441406 -0.65625 2.203125 C -0.65625 1.691406 -0.179688 0.484375 0.765625 -1.421875 C 1.722656 -3.335938 2.988281 -5.554688 4.5625 -8.078125 C 6.144531 -10.609375 7.90625 -13.140625 9.84375 -15.671875 C 11.789062 -18.203125 13.753906 -20.382812 15.734375 -22.21875 C 18.734375 -25.007812 22.082031 -27.429688 25.78125 -29.484375 C 29.488281 -31.535156 33.101562 -32.5625 36.625 -32.5625 C 38.90625 -32.5625 40.882812 -31.9375 42.5625 -30.6875 C 43.300781 -30.175781 44 -29.71875 44.65625 -29.3125 C 45.320312 -28.90625 46.09375 -28.703125 46.96875 -28.703125 C 51.363281 -28.703125 54.519531 -31.160156 56.4375 -36.078125 L 58.40625 -36.1875 C 59.875 -34.207031 61.78125 -33.21875 64.125 -33.21875 C 67.425781 -33.21875 69.59375 -35.34375 70.625 -39.59375 L 72.9375 -39.703125 C 73.15625 -39.410156 73.265625 -39.046875 73.265625 -38.609375 C 74.285156 -37.734375 75.492188 -37.296875 76.890625 -37.296875 C 77.765625 -37.296875 78.515625 -36.890625 79.140625 -36.078125 C 79.765625 -35.273438 80.078125 -34.285156 80.078125 -33.109375 C 80.078125 -30.617188 79.285156 -28.75 77.703125 -27.5 C 76.128906 -26.25 74.648438 -25.625 73.265625 -25.625 C 71.867188 -25.625 70.546875 -26.066406 69.296875 -26.953125 C 68.203125 -25.335938 66.9375 -24.050781 65.5 -23.09375 C 64.070312 -22.144531 62.441406 -21.671875 60.609375 -21.671875 C 58.335938 -21.671875 56.359375 -22.476562 54.671875 -24.09375 C 51.296875 -19.394531 47.554688 -17.046875 43.453125 -17.046875 C 42.273438 -17.046875 41.207031 -17.191406 40.25 -17.484375 C 39.300781 -17.785156 38.460938 -18.300781 37.734375 -19.03125 C 36.484375 -20.28125 35.015625 -20.90625 33.328125 -20.90625 C 27.097656 -20.90625 22.035156 -19.269531 18.140625 -16 C 14.253906 -12.738281 10.738281 -8.359375 7.59375 -2.859375 C 5.90625 0.078125 4.726562 1.960938 4.0625 2.796875 C 3.40625 3.640625 2.675781 4.0625 1.875 4.0625 Z M 1.875 4.0625 "/>
</symbol>
<symbol overflow="visible" id="id0:glyph0-3">
<path style="stroke:none;" d="M -8.46875 -90.640625 C -10.082031 -92.253906 -11.640625 -93.71875 -13.140625 -95.03125 C -14.648438 -96.351562 -16.132812 -97.601562 -17.59375 -98.78125 L -17.59375 -99.765625 C -16.863281 -100.796875 -15.859375 -102.0625 -14.578125 -103.5625 C -13.296875 -105.0625 -12.03125 -106.472656 -10.78125 -107.796875 C -9.53125 -109.117188 -8.613281 -109.960938 -8.03125 -110.328125 L -7.046875 -110.328125 C -5.285156 -109.234375 -3.757812 -108.1875 -2.46875 -107.1875 C -1.1875 -106.195312 -0.21875 -105.191406 0.4375 -104.171875 C 1.25 -105.191406 2.164062 -106.269531 3.1875 -107.40625 C 4.21875 -108.550781 5.207031 -109.582031 6.15625 -110.5 C 7.113281 -111.414062 7.8125 -112.019531 8.25 -112.3125 L 9.125 -112.3125 C 12.0625 -110.476562 14.242188 -108.84375 15.671875 -107.40625 C 17.097656 -105.976562 17.8125 -104.53125 17.8125 -103.0625 C 17.8125 -100.28125 14.878906 -96.800781 9.015625 -92.625 L 8.03125 -92.625 C 6.78125 -93.863281 5.566406 -95.015625 4.390625 -96.078125 C 3.222656 -97.148438 2.125 -98.125 1.09375 -99 C -0.0703125 -96.65625 -2.929688 -93.867188 -7.484375 -90.640625 Z M -8.46875 -90.640625 "/>
</symbol>
<symbol overflow="visible" id="id0:glyph0-4">
<path style="stroke:none;" d=""/>
</symbol>
<symbol overflow="visible" id="id0:glyph0-5">
<path style="stroke:none;" d="M 0.4375 0 C -1.976562 0 -3.1875 -1.429688 -3.1875 -4.296875 C -3.1875 -6.566406 -2.472656 -8.359375 -1.046875 -9.671875 C 0.378906 -10.992188 1.9375 -11.65625 3.625 -11.65625 C 5.382812 -11.65625 7.144531 -11.984375 8.90625 -12.640625 C 10.664062 -13.304688 12.128906 -14.425781 13.296875 -16 C 14.472656 -17.582031 15.0625 -19.726562 15.0625 -22.4375 C 15.0625 -24.78125 14.625 -26.613281 13.75 -27.9375 C 11.625 -26.539062 9.3125 -25.84375 6.8125 -25.84375 C 4.6875 -25.84375 2.648438 -26.519531 0.703125 -27.875 C -1.234375 -29.238281 -2.203125 -31.128906 -2.203125 -33.546875 C -2.203125 -35.742188 -1.46875 -38.238281 0 -41.03125 L 3.296875 -47.625 C 4.835938 -50.851562 7.113281 -52.46875 10.125 -52.46875 C 12.6875 -52.46875 14.8125 -51.601562 16.5 -49.875 C 18.1875 -48.15625 19.46875 -45.847656 20.34375 -42.953125 C 21.226562 -40.054688 21.671875 -36.8125 21.671875 -33.21875 C 21.671875 -28.96875 21.117188 -24.859375 20.015625 -20.890625 C 18.921875 -16.929688 17.421875 -13.375 15.515625 -10.21875 C 13.609375 -7.070312 11.367188 -4.582031 8.796875 -2.75 C 6.234375 -0.914062 3.445312 0 0.4375 0 Z M 0.4375 0 "/>
</symbol>
</g>
<g>
<symbol overflow="visible" id="id1:glyph0-0">
<path style="stroke:none;" d="M 5.375 -96.6875 L 69.828125 -96.6875 L 69.828125 0 L 5.375 0 Z M 8.0625 -2.6875 L 67.140625 -2.6875 L 67.140625 -94 L 8.0625 -94 Z M 8.0625 -2.6875 "/>
</symbol>
<symbol overflow="visible" id="id1:glyph0-1">
<path style="stroke:none;" d="M 68.15625 -13.75 L 66.28125 -18.640625 L 88.09375 -27.390625 L 6.984375 -27.390625 L 6.984375 -34 L 88.09375 -34 L 66.28125 -42.75 L 68.15625 -47.640625 L 99.09375 -34.265625 L 99.09375 -27.125 Z M 68.15625 -13.75 "/>
</symbol>
</g>
<g>
<symbol overflow="visible" id="id2:glyph0-0">
<path style="stroke:none;" d="M 7.8125 0 L 7.8125 -131.671875 L 91.1875 -131.671875 L 91.1875 0 Z M 17.046875 -9.234375 L 81.953125 -9.234375 L 81.953125 -122.4375 L 17.046875 -122.4375 Z M 17.046875 -9.234375 "/>
</symbol>
<symbol overflow="visible" id="id2:glyph0-1">
<path style="stroke:none;" d="M 3.40625 65.78125 C 3.1875 60.5 3.078125 53.09375 3.078125 43.5625 C 3.078125 35.125 3.148438 27.660156 3.296875 21.171875 C 3.441406 14.679688 3.828125 8.832031 4.453125 3.625 C 5.078125 -1.582031 6.015625 -6.457031 7.265625 -11 C 9.972656 -20.601562 14.332031 -29 20.34375 -36.1875 C 26.363281 -43.375 34.175781 -48.984375 43.78125 -53.015625 C 45.757812 -58.367188 47.644531 -62.398438 49.4375 -65.109375 C 51.238281 -67.828125 53.238281 -69.1875 55.4375 -69.1875 C 56.320312 -69.1875 57.566406 -69.019531 59.171875 -68.6875 C 60.785156 -68.363281 62.4375 -67.890625 64.125 -67.265625 C 65.8125 -66.640625 67.257812 -65.882812 68.46875 -65 C 69.6875 -64.125 70.296875 -63.140625 70.296875 -62.046875 C 70.296875 -60.941406 69.945312 -59.414062 69.25 -57.46875 C 68.550781 -55.53125 67.671875 -53.515625 66.609375 -51.421875 C 65.546875 -49.335938 64.390625 -47.488281 63.140625 -45.875 C 62.253906 -44.695312 61.257812 -43.796875 60.15625 -43.171875 C 59.0625 -42.546875 57.859375 -42.085938 56.546875 -41.796875 C 48.835938 -40.328125 42.398438 -38.640625 37.234375 -36.734375 C 32.066406 -34.828125 27.867188 -32.609375 24.640625 -30.078125 C 21.410156 -27.554688 18.914062 -24.625 17.15625 -21.28125 C 15.394531 -17.945312 14.113281 -14.15625 13.3125 -9.90625 C 12.726562 -6.96875 12.210938 -3.410156 11.765625 0.765625 C 11.328125 4.953125 10.925781 9.425781 10.5625 14.1875 C 10.195312 18.957031 9.863281 23.78125 9.5625 28.65625 C 9.269531 33.53125 9.015625 38.128906 8.796875 42.453125 C 8.503906 47.585938 8.226562 52.078125 7.96875 55.921875 C 7.71875 59.773438 7.484375 63.0625 7.265625 65.78125 Z M 3.40625 65.78125 "/>
</symbol>
<symbol overflow="visible" id="id2:glyph0-2">
<path style="stroke:none;" d="M 1.875 4.0625 C 0.1875 4.0625 -0.65625 3.441406 -0.65625 2.203125 C -0.65625 1.691406 -0.179688 0.484375 0.765625 -1.421875 C 1.722656 -3.335938 2.988281 -5.554688 4.5625 -8.078125 C 6.144531 -10.609375 7.90625 -13.140625 9.84375 -15.671875 C 11.789062 -18.203125 13.753906 -20.382812 15.734375 -22.21875 C 18.734375 -25.007812 22.082031 -27.429688 25.78125 -29.484375 C 29.488281 -31.535156 33.101562 -32.5625 36.625 -32.5625 C 38.90625 -32.5625 40.882812 -31.9375 42.5625 -30.6875 C 43.300781 -30.175781 44 -29.71875 44.65625 -29.3125 C 45.320312 -28.90625 46.09375 -28.703125 46.96875 -28.703125 C 51.363281 -28.703125 54.519531 -31.160156 56.4375 -36.078125 L 58.40625 -36.1875 C 59.875 -34.207031 61.78125 -33.21875 64.125 -33.21875 C 67.425781 -33.21875 69.59375 -35.34375 70.625 -39.59375 L 72.9375 -39.703125 C 73.15625 -39.410156 73.265625 -39.046875 73.265625 -38.609375 C 74.285156 -37.734375 75.492188 -37.296875 76.890625 -37.296875 C 77.765625 -37.296875 78.515625 -36.890625 79.140625 -36.078125 C 79.765625 -35.273438 80.078125 -34.285156 80.078125 -33.109375 C 80.078125 -30.617188 79.285156 -28.75 77.703125 -27.5 C 76.128906 -26.25 74.648438 -25.625 73.265625 -25.625 C 71.867188 -25.625 70.546875 -26.066406 69.296875 -26.953125 C 68.203125 -25.335938 66.9375 -24.050781 65.5 -23.09375 C 64.070312 -22.144531 62.441406 -21.671875 60.609375 -21.671875 C 58.335938 -21.671875 56.359375 -22.476562 54.671875 -24.09375 C 51.296875 -19.394531 47.554688 -17.046875 43.453125 -17.046875 C 42.273438 -17.046875 41.207031 -17.191406 40.25 -17.484375 C 39.300781 -17.785156 38.460938 -18.300781 37.734375 -19.03125 C 36.484375 -20.28125 35.015625 -20.90625 33.328125 -20.90625 C 27.097656 -20.90625 22.035156 -19.269531 18.140625 -16 C 14.253906 -12.738281 10.738281 -8.359375 7.59375 -2.859375 C 5.90625 0.078125 4.726562 1.960938 4.0625 2.796875 C 3.40625 3.640625 2.675781 4.0625 1.875 4.0625 Z M 1.875 4.0625 "/>
</symbol>
<symbol overflow="visible" id="id2:glyph0-3">
<path style="stroke:none;" d="M -8.46875 -90.640625 C -10.082031 -92.253906 -11.640625 -93.71875 -13.140625 -95.03125 C -14.648438 -96.351562 -16.132812 -97.601562 -17.59375 -98.78125 L -17.59375 -99.765625 C -16.863281 -100.796875 -15.859375 -102.0625 -14.578125 -103.5625 C -13.296875 -105.0625 -12.03125 -106.472656 -10.78125 -107.796875 C -9.53125 -109.117188 -8.613281 -109.960938 -8.03125 -110.328125 L -7.046875 -110.328125 C -5.285156 -109.234375 -3.757812 -108.1875 -2.46875 -107.1875 C -1.1875 -106.195312 -0.21875 -105.191406 0.4375 -104.171875 C 1.25 -105.191406 2.164062 -106.269531 3.1875 -107.40625 C 4.21875 -108.550781 5.207031 -109.582031 6.15625 -110.5 C 7.113281 -111.414062 7.8125 -112.019531 8.25 -112.3125 L 9.125 -112.3125 C 12.0625 -110.476562 14.242188 -108.84375 15.671875 -107.40625 C 17.097656 -105.976562 17.8125 -104.53125 17.8125 -103.0625 C 17.8125 -100.28125 14.878906 -96.800781 9.015625 -92.625 L 8.03125 -92.625 C 6.78125 -93.863281 5.566406 -95.015625 4.390625 -96.078125 C 3.222656 -97.148438 2.125 -98.125 1.09375 -99 C -0.0703125 -96.65625 -2.929688 -93.867188 -7.484375 -90.640625 Z M -8.46875 -90.640625 "/>
</symbol>
<symbol overflow="visible" id="id2:glyph0-4">
<path style="stroke:none;" d=""/>
</symbol>
<symbol overflow="visible" id="id2:glyph0-5">
<path style="stroke:none;" d="M 0.4375 0 C -1.976562 0 -3.1875 -1.429688 -3.1875 -4.296875 C -3.1875 -6.566406 -2.472656 -8.359375 -1.046875 -9.671875 C 0.378906 -10.992188 1.9375 -11.65625 3.625 -11.65625 C 5.382812 -11.65625 7.144531 -11.984375 8.90625 -12.640625 C 10.664062 -13.304688 12.128906 -14.425781 13.296875 -16 C 14.472656 -17.582031 15.0625 -19.726562 15.0625 -22.4375 C 15.0625 -24.78125 14.625 -26.613281 13.75 -27.9375 C 11.625 -26.539062 9.3125 -25.84375 6.8125 -25.84375 C 4.6875 -25.84375 2.648438 -26.519531 0.703125 -27.875 C -1.234375 -29.238281 -2.203125 -31.128906 -2.203125 -33.546875 C -2.203125 -35.742188 -1.46875 -38.238281 0 -41.03125 L 3.296875 -47.625 C 4.835938 -50.851562 7.113281 -52.46875 10.125 -52.46875 C 12.6875 -52.46875 14.8125 -51.601562 16.5 -49.875 C 18.1875 -48.15625 19.46875 -45.847656 20.34375 -42.953125 C 21.226562 -40.054688 21.671875 -36.8125 21.671875 -33.21875 C 21.671875 -28.96875 21.117188 -24.859375 20.015625 -20.890625 C 18.921875 -16.929688 17.421875 -13.375 15.515625 -10.21875 C 13.609375 -7.070312 11.367188 -4.582031 8.796875 -2.75 C 6.234375 -0.914062 3.445312 0 0.4375 0 Z M 0.4375 0 "/>
</symbol>
</g>
</defs>
  <g id="id0:id0" transform="matrix(1.25,0,0,1.25,0.0,0.0)"><g id="id0:surface1">
<g style="fill:rgb(0%,0%,0%);fill-opacity:1;">
  <use xlink:href="#id0:glyph0-1" x="16" y="211.4375"/>
  <use xlink:href="#id0:glyph0-2" x="64.1875" y="211.4375"/>
  <use xlink:href="#id0:glyph0-3" x="147.140625" y="236.734375"/>
  <use xlink:href="#id0:glyph0-4" x="137.453125" y="211.4375"/>
  <use xlink:href="#id0:glyph0-5" x="137.453125" y="211.4375"/>
</g>
</g>
</g>
  <g id="id1:id1" transform="matrix(1.25,0,0,1.25,226.46484375,73.671875)"><g id="id1:surface1">
<g style="fill:rgb(0%,0%,0%);fill-opacity:1;">
  <use xlink:href="#id1:glyph0-1" x="0" y="120.84375"/>
</g>
</g>
</g>
  <g id="id2:id2" transform="matrix(1.25,0,0,1.25,359.0625,0.0)"><g id="id2:surface1">
<g style="fill:rgb(0%,0%,0%);fill-opacity:1;">
  <use xlink:href="#id2:glyph0-1" x="16" y="211.4375"/>
  <use xlink:href="#id2:glyph0-2" x="64.1875" y="148.421875"/>
  <use xlink:href="#id2:glyph0-3" x="147.03125" y="148.203125"/>
  <use xlink:href="#id2:glyph0-4" x="137.34375" y="211.4375"/>
  <use xlink:href="#id2:glyph0-5" x="137.34375" y="122.90625"/>
</g>
</g>
</g>
</svg>
