<!DOCTYPE svg PUBLIC "-//W3C//DTD SVG 1.1//EN" "http://www.w3.org/Graphics/SVG/1.1/DTD/svg11.dtd">
<!-- Created with svg_stack (http://github.com/astraw/svg_stack) --><svg xmlns="http://www.w3.org/2000/svg" xmlns:sodipodi="http://sodipodi.sourceforge.net/DTD/sodipodi-0.dtd" xmlns:xlink="http://www.w3.org/1999/xlink" version="1.1" width="100%" id="arabic-locl" viewBox="0 0 340.625 239.16015625">
  <defs><g>
<symbol overflow="visible" id="arabic-locl:id0:glyph0-0">
<path style="stroke:none;" d="M 8.90625 29.8125 L 8.90625 -116.15625 L 62.046875 -116.15625 L 62.046875 29.8125 Z M 16.828125 21.890625 L 54.125 21.890625 L 54.125 -108.234375 L 16.828125 -108.234375 Z M 16.828125 21.890625 "/>
</symbol>
<symbol overflow="visible" id="arabic-locl:id0:glyph0-1">
<path style="stroke:none;" d="M 24.859375 0 L 20.6875 -0.984375 C 20.601562 -7.515625 20.34375 -12.90625 19.90625 -17.15625 C 19.46875 -21.414062 18.769531 -25.34375 17.8125 -28.9375 C 17.300781 -31.351562 16.695312 -33.640625 16 -35.796875 C 15.300781 -37.960938 14.421875 -40.273438 13.359375 -42.734375 C 12.296875 -45.191406 10.957031 -48.035156 9.34375 -51.265625 C 8.757812 -52.359375 8.46875 -53.457031 8.46875 -54.5625 C 8.46875 -57.644531 10.445312 -60.285156 14.40625 -62.484375 C 17.195312 -57.421875 19.472656 -52.285156 21.234375 -47.078125 C 22.109375 -46.566406 23.078125 -46.164062 24.140625 -45.875 C 25.203125 -45.582031 26.320312 -45.359375 27.5 -45.203125 C 25.738281 -46.523438 24.859375 -48.320312 24.859375 -50.59375 C 24.859375 -52.5 25.367188 -54.476562 26.390625 -56.53125 C 27.421875 -58.59375 28.742188 -60.242188 30.359375 -61.484375 C 32.191406 -62.734375 34.023438 -63.359375 35.859375 -63.359375 C 38.867188 -63.359375 42.0625 -60.972656 45.4375 -56.203125 L 42.90625 -53.6875 C 40.550781 -55.289062 38.273438 -56.09375 36.078125 -56.09375 C 35.128906 -56.09375 34.210938 -55.925781 33.328125 -55.59375 C 32.453125 -55.269531 31.316406 -54.742188 29.921875 -54.015625 C 29.921875 -49.316406 32.925781 -46.675781 38.9375 -46.09375 C 40.40625 -46.53125 41.875 -47.039062 43.34375 -47.625 C 44.8125 -48.21875 46.238281 -48.878906 47.625 -49.609375 C 48.070312 -48.285156 48.296875 -47.113281 48.296875 -46.09375 C 48.296875 -44.257812 47.539062 -42.660156 46.03125 -41.296875 C 44.53125 -39.941406 42.550781 -38.914062 40.09375 -38.21875 C 37.632812 -37.53125 34.941406 -37.1875 32.015625 -37.1875 C 29.296875 -37.1875 26.546875 -37.625 23.765625 -38.5 C 25.453125 -31.601562 26.296875 -25.8125 26.296875 -21.125 C 26.296875 -17.75 26.179688 -14.300781 25.953125 -10.78125 C 25.734375 -7.257812 25.367188 -3.664062 24.859375 0 Z M 24.859375 0 "/>
</symbol>
</g>
<g>
<symbol overflow="visible" id="arabic-locl:id1:glyph0-0">
<path style="stroke:none;" d="M 5.375 -96.6875 L 69.828125 -96.6875 L 69.828125 0 L 5.375 0 Z M 8.0625 -2.6875 L 67.140625 -2.6875 L 67.140625 -94 L 8.0625 -94 Z M 8.0625 -2.6875 "/>
</symbol>
<symbol overflow="visible" id="arabic-locl:id1:glyph0-1">
<path style="stroke:none;" d="M 68.15625 -13.75 L 66.28125 -18.640625 L 88.09375 -27.390625 L 6.984375 -27.390625 L 6.984375 -34 L 88.09375 -34 L 66.28125 -42.75 L 68.15625 -47.640625 L 99.09375 -34.265625 L 99.09375 -27.125 Z M 68.15625 -13.75 "/>
</symbol>
</g>
<g>
<symbol overflow="visible" id="arabic-locl:id2:glyph0-0">
<path style="stroke:none;" d="M 8.90625 29.8125 L 8.90625 -116.15625 L 62.046875 -116.15625 L 62.046875 29.8125 Z M 16.828125 21.890625 L 54.125 21.890625 L 54.125 -108.234375 L 16.828125 -108.234375 Z M 16.828125 21.890625 "/>
</symbol>
<symbol overflow="visible" id="arabic-locl:id2:glyph0-1">
<path style="stroke:none;" d="M 25.515625 0.21875 C 24.640625 -5.425781 22.695312 -11.144531 19.6875 -16.9375 C 17.488281 -21.039062 15.65625 -24.597656 14.1875 -27.609375 C 12.71875 -30.617188 11.65625 -33.039062 11 -34.875 C 9.675781 -38.613281 9.015625 -41.582031 9.015625 -43.78125 C 9.015625 -46.488281 9.507812 -49.398438 10.5 -52.515625 C 11.488281 -55.640625 13.007812 -58.117188 15.0625 -59.953125 C 15.875 -60.753906 16.8125 -61.375 17.875 -61.8125 C 18.9375 -62.257812 20.09375 -62.484375 21.34375 -62.484375 C 23.46875 -62.484375 25.679688 -61.160156 27.984375 -58.515625 C 30.296875 -55.878906 32.257812 -52.507812 33.875 -48.40625 C 34.976562 -50.894531 36.132812 -53.019531 37.34375 -54.78125 C 38.550781 -56.539062 40 -58.191406 41.6875 -59.734375 C 43.375 -61.273438 45.460938 -62.960938 47.953125 -64.796875 C 48.109375 -64.273438 48.1875 -63.703125 48.1875 -63.078125 C 48.1875 -62.460938 48.1875 -61.785156 48.1875 -61.046875 C 48.1875 -56.429688 47.082031 -53.019531 44.875 -50.8125 C 43.332031 -49.425781 42.082031 -48.179688 41.125 -47.078125 C 40.175781 -45.984375 39.300781 -44.703125 38.5 -43.234375 C 37.695312 -41.765625 36.742188 -39.707031 35.640625 -37.0625 L 30.6875 -35.09375 C 29.957031 -38.539062 28.929688 -41.617188 27.609375 -44.328125 C 26.285156 -47.046875 24.800781 -49.191406 23.15625 -50.765625 C 21.507812 -52.335938 19.804688 -53.125 18.046875 -53.125 C 16.867188 -53.125 15.929688 -52.773438 15.234375 -52.078125 C 14.535156 -51.390625 14.1875 -50.566406 14.1875 -49.609375 C 14.1875 -48.429688 14.519531 -46.742188 15.1875 -44.546875 C 15.695312 -43.003906 16.390625 -41.242188 17.265625 -39.265625 C 18.148438 -37.285156 19.175781 -35.085938 20.34375 -32.671875 C 22.40625 -28.640625 23.96875 -25.300781 25.03125 -22.65625 C 26.09375 -20.019531 26.894531 -17.726562 27.4375 -15.78125 C 27.988281 -13.84375 28.445312 -11.8125 28.8125 -9.6875 C 29.113281 -8.144531 29.335938 -6.640625 29.484375 -5.171875 C 29.628906 -3.703125 29.703125 -2.234375 29.703125 -0.765625 Z M 25.515625 0.21875 "/>
</symbol>
</g>
</defs>
  <g id="arabic-locl:id0:id0" transform="matrix(1.25,0,0,1.25,0.0,0.0)"><g id="arabic-locl:id0:surface1">
<g style="fill:rgb(0%,0%,0%);fill-opacity:1;">
  <use xlink:href="#arabic-locl:id0:glyph0-1" x="16" y="119.59375" class="c0"/>
</g>
</g>
</g>
  <g id="arabic-locl:id1:id1" transform="matrix(1.25,0,0,1.25,104.08203125,18.876953125)"><g id="arabic-locl:id1:surface1">
<g style="fill:rgb(0%,0%,0%);fill-opacity:1;">
  <use xlink:href="#arabic-locl:id1:glyph0-1" x="0" y="120.84375" class="arrow"/>
</g>
</g>
</g>
  <g id="arabic-locl:id2:id2" transform="matrix(1.25,0,0,1.25,236.6796875,0.0)"><g id="arabic-locl:id2:surface1">
<g style="fill:rgb(0%,0%,0%);fill-opacity:1;">
  <use xlink:href="#arabic-locl:id2:glyph0-1" x="16" y="119.59375" class="c0"/>
</g>
</g>
</g>
</svg>