<!DOCTYPE svg PUBLIC "-//W3C//DTD SVG 1.1//EN" "http://www.w3.org/Graphics/SVG/1.1/DTD/svg11.dtd">
<!-- Created with svg_stack (http://github.com/astraw/svg_stack) --><svg xmlns="http://www.w3.org/2000/svg" xmlns:sodipodi="http://sodipodi.sourceforge.net/DTD/sodipodi-0.dtd" xmlns:xlink="http://www.w3.org/1999/xlink" version="1.1" width="100%" id="arabic-fina" viewBox="0 0 506.71875 239.16015625">
  <defs><g>
<symbol overflow="visible" id="arabic-fina:id0:glyph0-0">
<path style="stroke:none;" d="M 8.90625 29.8125 L 8.90625 -116.15625 L 62.046875 -116.15625 L 62.046875 29.8125 Z M 16.828125 21.890625 L 54.125 21.890625 L 54.125 -108.234375 L 16.828125 -108.234375 Z M 16.828125 21.890625 "/>
</symbol>
<symbol overflow="visible" id="arabic-fina:id0:glyph0-1">
<path style="stroke:none;" d="M 7.921875 19.25 C 4.691406 16.832031 2.050781 14.445312 0 12.09375 C 3.738281 8.351562 6.304688 5.679688 7.703125 4.078125 C 8.867188 5.316406 10.054688 6.539062 11.265625 7.75 C 12.484375 8.96875 13.710938 10.125 14.953125 11.21875 C 13.273438 13.632812 10.929688 16.3125 7.921875 19.25 Z M 7.921875 19.25 "/>
</symbol>
<symbol overflow="visible" id="arabic-fina:id0:glyph0-2">
<path style="stroke:none;" d="M 34.546875 0 C 25.890625 0 19.25 -1.554688 14.625 -4.671875 C 10.007812 -7.785156 7.703125 -12.460938 7.703125 -18.703125 C 7.703125 -23.390625 8.175781 -27.421875 9.125 -30.796875 L 13.09375 -30.796875 C 13.019531 -30.503906 12.945312 -29.753906 12.875 -28.546875 C 12.800781 -27.335938 12.765625 -26.289062 12.765625 -25.40625 C 12.765625 -21.15625 13.566406 -17.875 15.171875 -15.5625 C 16.785156 -13.25 19.351562 -11.472656 22.875 -10.234375 C 26.46875 -8.984375 31.125 -8.359375 36.84375 -8.359375 C 43.664062 -8.359375 50.335938 -9.054688 56.859375 -10.453125 C 63.390625 -11.847656 69.1875 -13.753906 74.25 -16.171875 C 73.882812 -17.710938 73.367188 -19.488281 72.703125 -21.5 C 72.046875 -23.519531 71.242188 -25.773438 70.296875 -28.265625 C 68.898438 -31.929688 68.203125 -34.390625 68.203125 -35.640625 C 68.203125 -37.179688 68.820312 -38.773438 70.0625 -40.421875 C 71.3125 -42.078125 73.109375 -43.5625 75.453125 -44.875 C 76.628906 -39.445312 77.601562 -34.769531 78.375 -30.84375 C 79.144531 -26.925781 79.53125 -23.648438 79.53125 -21.015625 C 79.53125 -18.515625 78.25 -14.773438 75.6875 -9.796875 C 70.84375 -6.710938 64.953125 -4.304688 58.015625 -2.578125 C 51.085938 -0.859375 43.265625 0 34.546875 0 Z M 34.546875 0 "/>
</symbol>
<symbol overflow="visible" id="arabic-fina:id0:glyph0-3">
<path style="stroke:none;" d=""/>
</symbol>
<symbol overflow="visible" id="arabic-fina:id0:glyph0-4">
<path style="stroke:none;" d="M 0.328125 -82.28125 L 0 -86.5625 L 4.40625 -88.984375 C 1.6875 -89.429688 0.328125 -90.898438 0.328125 -93.390625 C 0.328125 -94.785156 0.726562 -96.140625 1.53125 -97.453125 C 2.34375 -98.773438 3.367188 -99.875 4.609375 -100.75 C 5.859375 -101.632812 7.144531 -102.078125 8.46875 -102.078125 C 11.332031 -102.078125 12.765625 -100.722656 12.765625 -98.015625 C 12.765625 -96.984375 12.503906 -95.992188 11.984375 -95.046875 L 9.90625 -95.59375 L 10.015625 -96.03125 C 10.015625 -96.394531 9.863281 -96.722656 9.5625 -97.015625 C 9.269531 -97.304688 8.941406 -97.453125 8.578125 -97.453125 C 7.398438 -97.453125 6.351562 -97.03125 5.4375 -96.1875 C 4.519531 -95.351562 3.84375 -94.382812 3.40625 -93.28125 C 4.65625 -91.8125 6.414062 -91.078125 8.6875 -91.078125 C 10.007812 -91.078125 11.804688 -91.296875 14.078125 -91.734375 L 13.859375 -87.5625 C 10.847656 -86.820312 8.367188 -86.050781 6.421875 -85.25 C 4.484375 -84.445312 2.453125 -83.457031 0.328125 -82.28125 Z M 0.328125 -82.28125 "/>
</symbol>
<symbol overflow="visible" id="arabic-fina:id0:glyph0-5">
<path style="stroke:none;" d="M 0 0 C -0.582031 0 -0.875 -0.289062 -0.875 -0.875 L -0.875 -7.484375 C -0.875 -8.066406 -0.582031 -8.359375 0 -8.359375 C 3.375 -8.359375 6.800781 -8.742188 10.28125 -9.515625 C 13.769531 -10.285156 16.832031 -11.257812 19.46875 -12.4375 C 18.957031 -14.113281 18.367188 -15.960938 17.703125 -17.984375 C 17.046875 -20.003906 16.316406 -22.1875 15.515625 -24.53125 C 14.117188 -28.195312 13.421875 -30.65625 13.421875 -31.90625 C 13.421875 -33.507812 14.0625 -35.15625 15.34375 -36.84375 C 16.625 -38.53125 18.363281 -39.960938 20.5625 -41.140625 C 20.71875 -40.109375 21.015625 -38.546875 21.453125 -36.453125 C 21.890625 -34.367188 22.4375 -31.710938 23.09375 -28.484375 C 24.195312 -23.648438 24.75 -19.910156 24.75 -17.265625 C 24.75 -16.171875 24.398438 -14.613281 23.703125 -12.59375 C 23.003906 -10.570312 22.035156 -8.390625 20.796875 -6.046875 C 14.117188 -2.015625 7.1875 0 0 0 Z M 0 0 "/>
</symbol>
</g>
<g>
<symbol overflow="visible" id="arabic-fina:id1:glyph0-0">
<path style="stroke:none;" d="M 5.375 -96.6875 L 69.828125 -96.6875 L 69.828125 0 L 5.375 0 Z M 8.0625 -2.6875 L 67.140625 -2.6875 L 67.140625 -94 L 8.0625 -94 Z M 8.0625 -2.6875 "/>
</symbol>
<symbol overflow="visible" id="arabic-fina:id1:glyph0-1">
<path style="stroke:none;" d="M 68.15625 -13.75 L 66.28125 -18.640625 L 88.09375 -27.390625 L 6.984375 -27.390625 L 6.984375 -34 L 88.09375 -34 L 66.28125 -42.75 L 68.15625 -47.640625 L 99.09375 -34.265625 L 99.09375 -27.125 Z M 68.15625 -13.75 "/>
</symbol>
</g>
<g>
<symbol overflow="visible" id="arabic-fina:id2:glyph0-0">
<path style="stroke:none;" d="M 8.90625 29.8125 L 8.90625 -116.15625 L 62.046875 -116.15625 L 62.046875 29.8125 Z M 16.828125 21.890625 L 54.125 21.890625 L 54.125 -108.234375 L 16.828125 -108.234375 Z M 16.828125 21.890625 "/>
</symbol>
<symbol overflow="visible" id="arabic-fina:id2:glyph0-1">
<path style="stroke:none;" d="M 7.921875 19.25 C 4.691406 16.832031 2.050781 14.445312 0 12.09375 C 3.738281 8.351562 6.304688 5.679688 7.703125 4.078125 C 8.867188 5.316406 10.054688 6.539062 11.265625 7.75 C 12.484375 8.96875 13.710938 10.125 14.953125 11.21875 C 13.273438 13.632812 10.929688 16.3125 7.921875 19.25 Z M 7.921875 19.25 "/>
</symbol>
<symbol overflow="visible" id="arabic-fina:id2:glyph0-2">
<path style="stroke:none;" d="M 34.546875 0 C 25.890625 0 19.25 -1.554688 14.625 -4.671875 C 10.007812 -7.785156 7.703125 -12.460938 7.703125 -18.703125 C 7.703125 -23.390625 8.175781 -27.421875 9.125 -30.796875 L 13.09375 -30.796875 C 13.019531 -30.503906 12.945312 -29.753906 12.875 -28.546875 C 12.800781 -27.335938 12.765625 -26.289062 12.765625 -25.40625 C 12.765625 -21.15625 13.566406 -17.875 15.171875 -15.5625 C 16.785156 -13.25 19.351562 -11.472656 22.875 -10.234375 C 26.46875 -8.984375 31.125 -8.359375 36.84375 -8.359375 C 39.925781 -8.359375 43.171875 -8.539062 46.578125 -8.90625 C 49.992188 -9.269531 53.273438 -9.765625 56.421875 -10.390625 C 59.578125 -11.015625 62.328125 -11.675781 64.671875 -12.375 C 67.023438 -13.070312 68.675781 -13.75 69.625 -14.40625 C 70.875 -15.363281 71.8125 -16.375 72.4375 -17.4375 C 73.0625 -18.5 73.957031 -20.054688 75.125 -22.109375 C 75.789062 -23.210938 76.929688 -23.765625 78.546875 -23.765625 C 79.710938 -23.765625 80.59375 -23.503906 81.1875 -22.984375 C 80.226562 -20.566406 79.363281 -18.515625 78.59375 -16.828125 C 77.820312 -15.140625 77.144531 -13.859375 76.5625 -12.984375 C 79.050781 -11.367188 81.394531 -10.191406 83.59375 -9.453125 C 85.800781 -8.722656 88.257812 -8.359375 90.96875 -8.359375 C 91.550781 -8.359375 91.84375 -8.066406 91.84375 -7.484375 L 91.84375 -0.875 C 91.84375 -0.289062 91.550781 0 90.96875 0 C 83.632812 0 77.363281 -2.601562 72.15625 -7.8125 C 67.6875 -5.394531 62.207031 -3.488281 55.71875 -2.09375 C 49.226562 -0.695312 42.171875 0 34.546875 0 Z M 34.546875 0 "/>
</symbol>
<symbol overflow="visible" id="arabic-fina:id2:glyph0-3">
<path style="stroke:none;" d="M 0.328125 -82.28125 L 0 -86.5625 L 4.40625 -88.984375 C 1.6875 -89.429688 0.328125 -90.898438 0.328125 -93.390625 C 0.328125 -94.785156 0.726562 -96.140625 1.53125 -97.453125 C 2.34375 -98.773438 3.367188 -99.875 4.609375 -100.75 C 5.859375 -101.632812 7.144531 -102.078125 8.46875 -102.078125 C 11.332031 -102.078125 12.765625 -100.722656 12.765625 -98.015625 C 12.765625 -96.984375 12.503906 -95.992188 11.984375 -95.046875 L 9.90625 -95.59375 L 10.015625 -96.03125 C 10.015625 -96.394531 9.863281 -96.722656 9.5625 -97.015625 C 9.269531 -97.304688 8.941406 -97.453125 8.578125 -97.453125 C 7.398438 -97.453125 6.351562 -97.03125 5.4375 -96.1875 C 4.519531 -95.351562 3.84375 -94.382812 3.40625 -93.28125 C 4.65625 -91.8125 6.414062 -91.078125 8.6875 -91.078125 C 10.007812 -91.078125 11.804688 -91.296875 14.078125 -91.734375 L 13.859375 -87.5625 C 10.847656 -86.820312 8.367188 -86.050781 6.421875 -85.25 C 4.484375 -84.445312 2.453125 -83.457031 0.328125 -82.28125 Z M 0.328125 -82.28125 "/>
</symbol>
<symbol overflow="visible" id="arabic-fina:id2:glyph0-4">
<path style="stroke:none;" d="M 0 0 C -0.582031 0 -0.875 -0.289062 -0.875 -0.875 L -0.875 -7.484375 C -0.875 -8.066406 -0.582031 -8.359375 0 -8.359375 C 3.375 -8.359375 6.800781 -8.742188 10.28125 -9.515625 C 13.769531 -10.285156 16.832031 -11.257812 19.46875 -12.4375 C 18.957031 -14.113281 18.367188 -15.960938 17.703125 -17.984375 C 17.046875 -20.003906 16.316406 -22.1875 15.515625 -24.53125 C 14.117188 -28.195312 13.421875 -30.65625 13.421875 -31.90625 C 13.421875 -33.507812 14.0625 -35.15625 15.34375 -36.84375 C 16.625 -38.53125 18.363281 -39.960938 20.5625 -41.140625 C 20.71875 -40.109375 21.015625 -38.546875 21.453125 -36.453125 C 21.890625 -34.367188 22.4375 -31.710938 23.09375 -28.484375 C 24.195312 -23.648438 24.75 -19.910156 24.75 -17.265625 C 24.75 -16.171875 24.398438 -14.613281 23.703125 -12.59375 C 23.003906 -10.570312 22.035156 -8.390625 20.796875 -6.046875 C 14.117188 -2.015625 7.1875 0 0 0 Z M 0 0 "/>
</symbol>
</g>
</defs>
  <g id="arabic-fina:id0:id0" transform="matrix(1.25,0,0,1.25,0.0,0.0)"><g id="arabic-fina:id0:surface1">
<g style="fill:rgb(0%,0%,0%);fill-opacity:1;">
  <use xlink:href="#arabic-fina:id0:glyph0-1" x="49.875" y="123" class="c3"/>
  <use xlink:href="#arabic-fina:id0:glyph0-2" x="16" y="119.59375" class="c2"/>
  <use xlink:href="#arabic-fina:id0:glyph0-3" x="100.921875" y="119.59375" class="dc"/>
  <use xlink:href="#arabic-fina:id0:glyph0-4" x="108.1875" y="157.21875" class="c1"/>
  <use xlink:href="#arabic-fina:id0:glyph0-5" x="100.921875" y="119.59375" class="c0"/>
</g>
</g>
</g>
  <g id="arabic-fina:id1:id1" transform="matrix(1.25,0,0,1.25,183.96484375,18.876953125)"><g id="arabic-fina:id1:surface1">
<g style="fill:rgb(0%,0%,0%);fill-opacity:1;">
  <use xlink:href="#arabic-fina:id1:glyph0-1" x="0" y="120.84375" class="arrow"/>
</g>
</g>
</g>
  <g id="arabic-fina:id2:id2" transform="matrix(1.25,0,0,1.25,316.5625,0.0)"><g id="arabic-fina:id2:surface1">
<g style="fill:rgb(0%,0%,0%);fill-opacity:1;">
  <use xlink:href="#arabic-fina:id2:glyph0-1" x="53.1875" y="123" class="c3"/>
  <use xlink:href="#arabic-fina:id2:glyph0-2" x="16" y="119.59375" class="c2"/>
  <use xlink:href="#arabic-fina:id2:glyph0-3" x="113.140625" y="157.21875" class="c1"/>
  <use xlink:href="#arabic-fina:id2:glyph0-4" x="105.875" y="119.59375" class="c0"/>
</g>
</g>
</g>
</svg>
