<?xml version="1.0" standalone="no"?>
<!DOCTYPE svg PUBLIC "-//W3C//DTD SVG 1.1//EN"
 "http://www.w3.org/Graphics/SVG/1.1/DTD/svg11.dtd">
<!-- Created with svg_stack (http://github.com/astraw/svg_stack) -->
<svg xmlns="http://www.w3.org/2000/svg" xmlns:sodipodi="http://sodipodi.sourceforge.net/DTD/sodipodi-0.dtd" xmlns:xlink="http://www.w3.org/1999/xlink" version="1.1" width="530.8984375" height="239.16015625">
  <defs><g>
<symbol overflow="visible" id="id0:glyph0-0">
<path style="stroke:none;" d="M 8.90625 29.8125 L 8.90625 -116.15625 L 62.046875 -116.15625 L 62.046875 29.8125 Z M 16.828125 21.890625 L 54.125 21.890625 L 54.125 -108.234375 L 16.828125 -108.234375 Z M 16.828125 21.890625 "/>
</symbol>
<symbol overflow="visible" id="id0:glyph0-1">
<path style="stroke:none;" d="M 32.671875 -39.484375 C 30.765625 -39.484375 29.8125 -40.472656 29.8125 -42.453125 C 29.8125 -44.359375 30.765625 -45.3125 32.671875 -45.3125 C 34.578125 -45.3125 35.53125 -44.359375 35.53125 -42.453125 C 35.53125 -40.472656 34.578125 -39.484375 32.671875 -39.484375 Z M 23.3125 -37.625 C 21.40625 -37.625 20.453125 -38.578125 20.453125 -40.484375 C 20.453125 -42.460938 21.40625 -43.453125 23.3125 -43.453125 C 25.300781 -43.453125 26.296875 -42.460938 26.296875 -40.484375 C 26.296875 -38.578125 25.300781 -37.625 23.3125 -37.625 Z M 42.125 -37.625 C 40.070312 -37.625 39.046875 -38.578125 39.046875 -40.484375 C 39.046875 -42.460938 40.070312 -43.453125 42.125 -43.453125 C 43.957031 -43.453125 44.875 -42.460938 44.875 -40.484375 C 44.875 -38.578125 43.957031 -37.625 42.125 -37.625 Z M 15.40625 -32.34375 C 13.5 -32.34375 12.546875 -33.257812 12.546875 -35.09375 C 12.546875 -37.144531 13.5 -38.171875 15.40625 -38.171875 C 17.382812 -38.171875 18.375 -37.179688 18.375 -35.203125 C 18.375 -33.296875 17.382812 -32.34375 15.40625 -32.34375 Z M 50.046875 -32.34375 C 48.066406 -32.34375 47.078125 -33.296875 47.078125 -35.203125 C 47.078125 -37.179688 48.066406 -38.171875 50.046875 -38.171875 C 51.878906 -38.171875 52.796875 -37.179688 52.796875 -35.203125 C 52.796875 -33.296875 51.878906 -32.34375 50.046875 -32.34375 Z M 10.234375 -24.3125 C 8.179688 -24.3125 7.15625 -25.300781 7.15625 -27.28125 C 7.15625 -29.1875 8.144531 -30.140625 10.125 -30.140625 C 12.03125 -30.140625 12.984375 -29.1875 12.984375 -27.28125 C 12.984375 -25.300781 12.066406 -24.3125 10.234375 -24.3125 Z M 55.21875 -24.3125 C 53.3125 -24.3125 52.359375 -25.300781 52.359375 -27.28125 C 52.359375 -29.1875 53.347656 -30.140625 55.328125 -30.140625 C 57.234375 -30.140625 58.1875 -29.1875 58.1875 -27.28125 C 58.1875 -25.300781 57.195312 -24.3125 55.21875 -24.3125 Z M 8.25 -15.0625 C 6.269531 -15.0625 5.28125 -16.019531 5.28125 -17.9375 C 5.28125 -19.84375 6.269531 -20.796875 8.25 -20.796875 C 10.15625 -20.796875 11.109375 -19.84375 11.109375 -17.9375 C 11.109375 -16.019531 10.15625 -15.0625 8.25 -15.0625 Z M 57.3125 -15.0625 C 55.332031 -15.0625 54.34375 -16.019531 54.34375 -17.9375 C 54.34375 -19.84375 55.332031 -20.796875 57.3125 -20.796875 C 59.144531 -20.796875 60.0625 -19.84375 60.0625 -17.9375 C 60.0625 -16.019531 59.144531 -15.0625 57.3125 -15.0625 Z M 10.125 -5.71875 C 8.144531 -5.71875 7.15625 -6.671875 7.15625 -8.578125 C 7.15625 -10.554688 8.144531 -11.546875 10.125 -11.546875 C 12.03125 -11.546875 12.984375 -10.554688 12.984375 -8.578125 C 12.984375 -6.671875 12.03125 -5.71875 10.125 -5.71875 Z M 55.21875 -5.71875 C 53.3125 -5.71875 52.359375 -6.671875 52.359375 -8.578125 C 52.359375 -10.554688 53.3125 -11.546875 55.21875 -11.546875 C 57.195312 -11.546875 58.1875 -10.554688 58.1875 -8.578125 C 58.1875 -6.671875 57.195312 -5.71875 55.21875 -5.71875 Z M 15.40625 2.3125 C 13.5 2.3125 12.546875 1.359375 12.546875 -0.546875 C 12.546875 -2.523438 13.5 -3.515625 15.40625 -3.515625 C 17.382812 -3.515625 18.375 -2.523438 18.375 -0.546875 C 18.375 1.359375 17.382812 2.3125 15.40625 2.3125 Z M 50.046875 2.3125 C 48.066406 2.3125 47.078125 1.359375 47.078125 -0.546875 C 47.078125 -2.523438 48.066406 -3.515625 50.046875 -3.515625 C 51.878906 -3.515625 52.796875 -2.523438 52.796875 -0.546875 C 52.796875 1.359375 51.878906 2.3125 50.046875 2.3125 Z M 23.3125 7.484375 C 21.40625 7.484375 20.453125 6.566406 20.453125 4.734375 C 20.453125 2.753906 21.40625 1.765625 23.3125 1.765625 C 25.300781 1.765625 26.296875 2.679688 26.296875 4.515625 C 26.296875 6.492188 25.300781 7.484375 23.3125 7.484375 Z M 42.125 7.484375 C 40.070312 7.484375 39.046875 6.566406 39.046875 4.734375 C 39.046875 2.753906 40.070312 1.765625 42.125 1.765625 C 43.957031 1.765625 44.875 2.753906 44.875 4.734375 C 44.875 6.566406 43.957031 7.484375 42.125 7.484375 Z M 32.671875 9.453125 C 30.765625 9.453125 29.8125 8.460938 29.8125 6.484375 C 29.8125 4.578125 30.765625 3.625 32.671875 3.625 C 34.578125 3.625 35.53125 4.578125 35.53125 6.484375 C 35.53125 8.460938 34.578125 9.453125 32.671875 9.453125 Z M 32.671875 9.453125 "/>
</symbol>
<symbol overflow="visible" id="id0:glyph0-2">
<path style="stroke:none;" d="M 40.921875 31.453125 C 35.203125 31.453125 30.210938 30.476562 25.953125 28.53125 C 21.703125 26.59375 18.40625 23.828125 16.0625 20.234375 C 13.71875 16.640625 12.546875 12.460938 12.546875 7.703125 C 12.546875 -0.515625 15.515625 -7.8125 21.453125 -14.1875 C 19.179688 -14.851562 17 -15.988281 14.90625 -17.59375 C 12.8125 -19.207031 11.144531 -21.039062 9.90625 -23.09375 C 8.65625 -25.070312 8.03125 -27.3125 8.03125 -29.8125 C 8.03125 -32.96875 8.875 -36.25 10.5625 -39.65625 C 12.25 -43.0625 14.445312 -45.789062 17.15625 -47.84375 C 19.726562 -49.976562 22.550781 -51.046875 25.625 -51.046875 C 28.195312 -51.046875 30.546875 -50.492188 32.671875 -49.390625 C 34.796875 -48.285156 37.472656 -46.414062 40.703125 -43.78125 L 38.828125 -40.265625 C 34.429688 -41.578125 30.945312 -42.234375 28.375 -42.234375 C 23.832031 -42.234375 19.140625 -40.914062 14.296875 -38.28125 C 14.296875 -33.957031 15.796875 -30.363281 18.796875 -27.5 C 21.804688 -24.632812 25.988281 -22.765625 31.34375 -21.890625 C 36.769531 -25.191406 43.1875 -28.050781 50.59375 -30.46875 C 51.40625 -29.289062 51.8125 -28.15625 51.8125 -27.0625 C 51.8125 -26.101562 51.585938 -25.21875 51.140625 -24.40625 C 50.703125 -23.601562 49.9375 -22.800781 48.84375 -22 C 47.8125 -21.269531 46.488281 -20.535156 44.875 -19.796875 C 43.257812 -19.066406 41.5 -18.332031 39.59375 -17.59375 C 34.09375 -15.25 29.75 -12.90625 26.5625 -10.5625 C 23.375 -8.21875 20.9375 -5.757812 19.25 -3.1875 C 18.375 -1.71875 17.695312 -0.234375 17.21875 1.265625 C 16.738281 2.765625 16.5 4.320312 16.5 5.9375 C 16.5 11.144531 18.585938 15.175781 22.765625 18.03125 C 26.953125 20.894531 33.113281 22.328125 41.25 22.328125 C 43.082031 22.328125 44.84375 22.289062 46.53125 22.21875 C 48.21875 22.144531 49.867188 22.035156 51.484375 21.890625 C 54.335938 21.671875 57.101562 21.335938 59.78125 20.890625 C 62.457031 20.453125 65.191406 19.90625 67.984375 19.25 L 69.1875 22.984375 C 59 28.628906 49.578125 31.453125 40.921875 31.453125 Z M 24.96875 -59.078125 C 21.738281 -61.492188 19.097656 -63.878906 17.046875 -66.234375 C 20.785156 -69.972656 23.351562 -72.644531 24.75 -74.25 C 25.925781 -73.007812 27.117188 -71.78125 28.328125 -70.5625 C 29.535156 -69.351562 30.765625 -68.203125 32.015625 -67.109375 C 30.328125 -64.691406 27.976562 -62.015625 24.96875 -59.078125 Z M 24.96875 -59.078125 "/>
</symbol>
</g>
<g>
<symbol overflow="visible" id="id1:glyph0-0">
<path style="stroke:none;" d="M 5.375 -96.6875 L 69.828125 -96.6875 L 69.828125 0 L 5.375 0 Z M 8.0625 -2.6875 L 67.140625 -2.6875 L 67.140625 -94 L 8.0625 -94 Z M 8.0625 -2.6875 "/>
</symbol>
<symbol overflow="visible" id="id1:glyph0-1">
<path style="stroke:none;" d="M 68.15625 -13.75 L 66.28125 -18.640625 L 88.09375 -27.390625 L 6.984375 -27.390625 L 6.984375 -34 L 88.09375 -34 L 66.28125 -42.75 L 68.15625 -47.640625 L 99.09375 -34.265625 L 99.09375 -27.125 Z M 68.15625 -13.75 "/>
</symbol>
</g>
<g>
<symbol overflow="visible" id="id2:glyph0-0">
<path style="stroke:none;" d="M 8.90625 29.8125 L 8.90625 -116.15625 L 62.046875 -116.15625 L 62.046875 29.8125 Z M 16.828125 21.890625 L 54.125 21.890625 L 54.125 -108.234375 L 16.828125 -108.234375 Z M 16.828125 21.890625 "/>
</symbol>
<symbol overflow="visible" id="id2:glyph0-1">
<path style="stroke:none;" d="M 32.671875 -39.484375 C 30.765625 -39.484375 29.8125 -40.472656 29.8125 -42.453125 C 29.8125 -44.359375 30.765625 -45.3125 32.671875 -45.3125 C 34.578125 -45.3125 35.53125 -44.359375 35.53125 -42.453125 C 35.53125 -40.472656 34.578125 -39.484375 32.671875 -39.484375 Z M 23.3125 -37.625 C 21.40625 -37.625 20.453125 -38.578125 20.453125 -40.484375 C 20.453125 -42.460938 21.40625 -43.453125 23.3125 -43.453125 C 25.300781 -43.453125 26.296875 -42.460938 26.296875 -40.484375 C 26.296875 -38.578125 25.300781 -37.625 23.3125 -37.625 Z M 42.125 -37.625 C 40.070312 -37.625 39.046875 -38.578125 39.046875 -40.484375 C 39.046875 -42.460938 40.070312 -43.453125 42.125 -43.453125 C 43.957031 -43.453125 44.875 -42.460938 44.875 -40.484375 C 44.875 -38.578125 43.957031 -37.625 42.125 -37.625 Z M 15.40625 -32.34375 C 13.5 -32.34375 12.546875 -33.257812 12.546875 -35.09375 C 12.546875 -37.144531 13.5 -38.171875 15.40625 -38.171875 C 17.382812 -38.171875 18.375 -37.179688 18.375 -35.203125 C 18.375 -33.296875 17.382812 -32.34375 15.40625 -32.34375 Z M 50.046875 -32.34375 C 48.066406 -32.34375 47.078125 -33.296875 47.078125 -35.203125 C 47.078125 -37.179688 48.066406 -38.171875 50.046875 -38.171875 C 51.878906 -38.171875 52.796875 -37.179688 52.796875 -35.203125 C 52.796875 -33.296875 51.878906 -32.34375 50.046875 -32.34375 Z M 10.234375 -24.3125 C 8.179688 -24.3125 7.15625 -25.300781 7.15625 -27.28125 C 7.15625 -29.1875 8.144531 -30.140625 10.125 -30.140625 C 12.03125 -30.140625 12.984375 -29.1875 12.984375 -27.28125 C 12.984375 -25.300781 12.066406 -24.3125 10.234375 -24.3125 Z M 55.21875 -24.3125 C 53.3125 -24.3125 52.359375 -25.300781 52.359375 -27.28125 C 52.359375 -29.1875 53.347656 -30.140625 55.328125 -30.140625 C 57.234375 -30.140625 58.1875 -29.1875 58.1875 -27.28125 C 58.1875 -25.300781 57.195312 -24.3125 55.21875 -24.3125 Z M 8.25 -15.0625 C 6.269531 -15.0625 5.28125 -16.019531 5.28125 -17.9375 C 5.28125 -19.84375 6.269531 -20.796875 8.25 -20.796875 C 10.15625 -20.796875 11.109375 -19.84375 11.109375 -17.9375 C 11.109375 -16.019531 10.15625 -15.0625 8.25 -15.0625 Z M 57.3125 -15.0625 C 55.332031 -15.0625 54.34375 -16.019531 54.34375 -17.9375 C 54.34375 -19.84375 55.332031 -20.796875 57.3125 -20.796875 C 59.144531 -20.796875 60.0625 -19.84375 60.0625 -17.9375 C 60.0625 -16.019531 59.144531 -15.0625 57.3125 -15.0625 Z M 10.125 -5.71875 C 8.144531 -5.71875 7.15625 -6.671875 7.15625 -8.578125 C 7.15625 -10.554688 8.144531 -11.546875 10.125 -11.546875 C 12.03125 -11.546875 12.984375 -10.554688 12.984375 -8.578125 C 12.984375 -6.671875 12.03125 -5.71875 10.125 -5.71875 Z M 55.21875 -5.71875 C 53.3125 -5.71875 52.359375 -6.671875 52.359375 -8.578125 C 52.359375 -10.554688 53.3125 -11.546875 55.21875 -11.546875 C 57.195312 -11.546875 58.1875 -10.554688 58.1875 -8.578125 C 58.1875 -6.671875 57.195312 -5.71875 55.21875 -5.71875 Z M 15.40625 2.3125 C 13.5 2.3125 12.546875 1.359375 12.546875 -0.546875 C 12.546875 -2.523438 13.5 -3.515625 15.40625 -3.515625 C 17.382812 -3.515625 18.375 -2.523438 18.375 -0.546875 C 18.375 1.359375 17.382812 2.3125 15.40625 2.3125 Z M 50.046875 2.3125 C 48.066406 2.3125 47.078125 1.359375 47.078125 -0.546875 C 47.078125 -2.523438 48.066406 -3.515625 50.046875 -3.515625 C 51.878906 -3.515625 52.796875 -2.523438 52.796875 -0.546875 C 52.796875 1.359375 51.878906 2.3125 50.046875 2.3125 Z M 23.3125 7.484375 C 21.40625 7.484375 20.453125 6.566406 20.453125 4.734375 C 20.453125 2.753906 21.40625 1.765625 23.3125 1.765625 C 25.300781 1.765625 26.296875 2.679688 26.296875 4.515625 C 26.296875 6.492188 25.300781 7.484375 23.3125 7.484375 Z M 42.125 7.484375 C 40.070312 7.484375 39.046875 6.566406 39.046875 4.734375 C 39.046875 2.753906 40.070312 1.765625 42.125 1.765625 C 43.957031 1.765625 44.875 2.753906 44.875 4.734375 C 44.875 6.566406 43.957031 7.484375 42.125 7.484375 Z M 32.671875 9.453125 C 30.765625 9.453125 29.8125 8.460938 29.8125 6.484375 C 29.8125 4.578125 30.765625 3.625 32.671875 3.625 C 34.578125 3.625 35.53125 4.578125 35.53125 6.484375 C 35.53125 8.460938 34.578125 9.453125 32.671875 9.453125 Z M 32.671875 9.453125 "/>
</symbol>
<symbol overflow="visible" id="id2:glyph0-2">
<path style="stroke:none;" d="M 0 0 C -0.582031 0 -0.875 -0.289062 -0.875 -0.875 L -0.875 -7.484375 C -0.875 -8.066406 -0.582031 -8.359375 0 -8.359375 C 4.695312 -8.359375 9.28125 -8.46875 13.75 -8.6875 C 11.988281 -9.863281 10.445312 -11.441406 9.125 -13.421875 C 7.8125 -15.398438 7.15625 -17.523438 7.15625 -19.796875 C 7.15625 -22.953125 7.992188 -26.253906 9.671875 -29.703125 C 11.359375 -33.148438 13.5625 -35.898438 16.28125 -37.953125 C 18.988281 -40.078125 21.8125 -41.140625 24.75 -41.140625 C 27.3125 -41.140625 29.75 -40.515625 32.0625 -39.265625 C 34.375 -38.023438 37.070312 -36.046875 40.15625 -33.328125 L 38.171875 -29.8125 C 35.234375 -30.90625 33.125 -31.597656 31.84375 -31.890625 C 30.5625 -32.191406 29.113281 -32.34375 27.5 -32.34375 C 22.875 -32.34375 18.179688 -30.984375 13.421875 -28.265625 C 13.421875 -25.117188 14.171875 -22.257812 15.671875 -19.6875 C 17.179688 -17.125 19.398438 -15.035156 22.328125 -13.421875 C 25.191406 -11.878906 28.601562 -11 32.5625 -10.78125 C 34.46875 -11.144531 36.242188 -11.546875 37.890625 -11.984375 C 39.546875 -12.429688 41.414062 -13.035156 43.5 -13.796875 C 45.59375 -14.566406 48.179688 -15.539062 51.265625 -16.71875 C 52.210938 -15.84375 52.6875 -14.523438 52.6875 -12.765625 C 52.6875 -10.335938 51.878906 -8.648438 50.265625 -7.703125 C 49.972656 -7.554688 49.054688 -7.28125 47.515625 -6.875 C 45.972656 -6.46875 44.285156 -6.046875 42.453125 -5.609375 C 34.898438 -3.703125 27.820312 -2.289062 21.21875 -1.375 C 14.625 -0.457031 7.550781 0 0 0 Z M 23.875 -48.515625 C 20.644531 -50.929688 18.003906 -53.316406 15.953125 -55.671875 C 19.691406 -59.410156 22.257812 -62.082031 23.65625 -63.6875 C 24.832031 -62.445312 26.023438 -61.21875 27.234375 -60 C 28.441406 -58.789062 29.671875 -57.640625 30.921875 -56.546875 C 29.234375 -54.128906 26.882812 -51.453125 23.875 -48.515625 Z M 23.875 -48.515625 "/>
</symbol>
</g>
</defs>
  <g id="id0:id0" transform="matrix(1.25,0,0,1.25,0.0,0.0)"><g id="id0:surface1">
<g style="fill:rgb(0%,0%,0%);fill-opacity:1;">
  <use xlink:href="#id0:glyph0-1" x="16" y="119.59375"/>
  <use xlink:href="#id0:glyph0-2" x="82.328125" y="119.59375"/>
</g>
</g>
</g>
  <g id="id1:id1" transform="matrix(1.25,0,0,1.25,205.95703125,18.876953125)"><g id="id1:surface1">
<g style="fill:rgb(0%,0%,0%);fill-opacity:1;">
  <use xlink:href="#id1:glyph0-1" x="0" y="120.84375"/>
</g>
</g>
</g>
  <g id="id2:id2" transform="matrix(1.25,0,0,1.25,338.5546875,0.0)"><g id="id2:surface1">
<g style="fill:rgb(0%,0%,0%);fill-opacity:1;">
  <use xlink:href="#id2:glyph0-1" x="16" y="119.59375"/>
  <use xlink:href="#id2:glyph0-2" x="82.328125" y="119.59375"/>
</g>
</g>
</g>
</svg>
