<!DOCTYPE svg PUBLIC "-//W3C//DTD SVG 1.1//EN" "http://www.w3.org/Graphics/SVG/1.1/DTD/svg11.dtd">
<!-- Created with svg_stack (http://github.com/astraw/svg_stack) --><svg xmlns="http://www.w3.org/2000/svg" xmlns:sodipodi="http://sodipodi.sourceforge.net/DTD/sodipodi-0.dtd" xmlns:xlink="http://www.w3.org/1999/xlink" version="1.1" width="740.87890625" height="265.83984375" id="arabic-liga">
  <defs><g>
<symbol overflow="visible" id="arabic-liga:id0:glyph0-0">
<path style="stroke:none;" d="M 5.5 19.46875 L 5.5 -77.546875 L 60.5 -77.546875 L 60.5 19.46875 Z M 11.65625 13.3125 L 54.34375 13.3125 L 54.34375 -71.390625 L 11.65625 -71.390625 Z M 11.65625 13.3125 "/>
</symbol>
<symbol overflow="visible" id="arabic-liga:id0:glyph0-1">
<path style="stroke:none;" d="M 29.265625 26.40625 C 22.441406 26.40625 17.050781 23.910156 13.09375 18.921875 C 9.132812 13.929688 7.15625 7.035156 7.15625 -1.765625 C 7.15625 -6.304688 7.535156 -10.882812 8.296875 -15.5 C 9.066406 -20.125 10.1875 -24.195312 11.65625 -27.71875 L 20.796875 -27.71875 C 18.296875 -21.414062 17.046875 -12.765625 17.046875 -1.765625 C 17.046875 4.472656 18.289062 9.296875 20.78125 12.703125 C 23.28125 16.109375 26.800781 17.8125 31.34375 17.8125 L 36.734375 17.8125 C 43.117188 17.8125 47.796875 16.363281 50.765625 13.46875 C 53.734375 10.570312 55.21875 6.191406 55.21875 0.328125 L 55.21875 -83.59375 L 64.5625 -83.59375 L 64.5625 -0.4375 C 64.5625 8.4375 62.363281 15.128906 57.96875 19.640625 C 53.570312 24.148438 46.644531 26.40625 37.1875 26.40625 Z M 29.265625 26.40625 "/>
</symbol>
<symbol overflow="visible" id="arabic-liga:id0:glyph0-2">
<path style="stroke:none;" d="M 11 -83.59375 L 20.796875 -83.59375 L 20.796875 0 L 11 0 Z M 11 -83.59375 "/>
</symbol>
<symbol overflow="visible" id="arabic-liga:id0:glyph0-3">
<path style="stroke:none;" d="M 29.265625 26.40625 C 22.367188 26.40625 16.957031 24.019531 13.03125 19.25 C 9.113281 14.476562 7.15625 8.023438 7.15625 -0.109375 C 7.15625 -3.921875 7.460938 -7.363281 8.078125 -10.4375 C 8.703125 -13.519531 9.675781 -16.675781 11 -19.90625 L 20.125 -19.90625 C 18.957031 -16.832031 18.148438 -13.84375 17.703125 -10.9375 C 17.265625 -8.039062 17.046875 -4.648438 17.046875 -0.765625 C 17.046875 5.171875 18.273438 9.75 20.734375 12.96875 C 23.191406 16.195312 26.726562 17.8125 31.34375 17.8125 L 52.90625 17.8125 C 58.550781 17.8125 63.003906 16.785156 66.265625 14.734375 C 69.535156 12.679688 71.171875 9.96875 71.171875 6.59375 C 71.171875 4.90625 70.507812 3.289062 69.1875 1.75 C 67.863281 0.21875 66.191406 -1.222656 64.171875 -2.578125 C 62.160156 -3.941406 60.09375 -5.242188 57.96875 -6.484375 C 53.570312 -9.128906 50.492188 -11.222656 48.734375 -12.765625 C 45.140625 -15.765625 43.34375 -19.097656 43.34375 -22.765625 C 43.34375 -27.171875 44.957031 -31.789062 48.1875 -36.625 C 50.3125 -39.851562 52.835938 -42.734375 55.765625 -45.265625 C 58.703125 -47.796875 61.765625 -49.773438 64.953125 -51.203125 C 68.140625 -52.628906 71.238281 -53.34375 74.25 -53.34375 C 75.9375 -53.34375 77.695312 -53.101562 79.53125 -52.625 C 81.363281 -52.15625 83.066406 -51.585938 84.640625 -50.921875 C 86.222656 -50.265625 87.488281 -49.609375 88.4375 -48.953125 L 84.484375 -41.578125 C 83.523438 -42.015625 82.054688 -42.4375 80.078125 -42.84375 C 78.097656 -43.25 76.484375 -43.453125 75.234375 -43.453125 C 73.703125 -43.453125 72.144531 -43.15625 70.5625 -42.5625 C 68.988281 -41.976562 67.46875 -41.285156 66 -40.484375 C 62.695312 -38.429688 59.910156 -35.9375 57.640625 -33 C 55.367188 -30.0625 54.234375 -27.273438 54.234375 -24.640625 C 54.234375 -22.148438 56.984375 -19.253906 62.484375 -15.953125 C 67.910156 -12.648438 71.757812 -9.9375 74.03125 -7.8125 C 76.300781 -5.6875 78.0625 -3.375 79.3125 -0.875 C 80.5625 1.613281 81.1875 4.175781 81.1875 6.8125 C 81.1875 12.976562 78.726562 17.785156 73.8125 21.234375 C 68.894531 24.679688 61.925781 26.40625 52.90625 26.40625 Z M 32.671875 48.40625 C 30.984375 48.40625 29.535156 47.890625 28.328125 46.859375 C 27.117188 45.828125 26.515625 44.140625 26.515625 41.796875 C 26.515625 39.453125 27.117188 37.765625 28.328125 36.734375 C 29.535156 35.710938 30.984375 35.203125 32.671875 35.203125 C 34.578125 35.203125 36.078125 35.769531 37.171875 36.90625 C 38.273438 38.039062 38.828125 39.671875 38.828125 41.796875 C 38.828125 43.921875 38.273438 45.550781 37.171875 46.6875 C 36.078125 47.832031 34.578125 48.40625 32.671875 48.40625 Z M 51.703125 48.40625 C 49.796875 48.40625 48.289062 47.832031 47.1875 46.6875 C 46.09375 45.550781 45.546875 43.921875 45.546875 41.796875 C 45.546875 39.671875 46.09375 38.039062 47.1875 36.90625 C 48.289062 35.769531 49.796875 35.203125 51.703125 35.203125 C 53.679688 35.203125 55.203125 35.804688 56.265625 37.015625 C 57.328125 38.222656 57.859375 39.816406 57.859375 41.796875 C 57.859375 43.773438 57.328125 45.367188 56.265625 46.578125 C 55.203125 47.796875 53.679688 48.40625 51.703125 48.40625 Z M 51.703125 48.40625 "/>
</symbol>
<symbol overflow="visible" id="arabic-liga:id0:glyph0-4">
<path style="stroke:none;" d="M 6.8125 26.40625 C 3.300781 26.40625 -0.4375 25.375 -4.40625 23.3125 L -1.546875 15.953125 C 0.210938 16.753906 1.679688 17.265625 2.859375 17.484375 C 4.035156 17.703125 5.28125 17.8125 6.59375 17.8125 C 9.894531 17.8125 12.476562 16.472656 14.34375 13.796875 C 16.21875 11.128906 17.15625 7.59375 17.15625 3.1875 L 17.15625 -53.34375 L 26.40625 -53.34375 L 26.40625 2.640625 C 26.40625 10.046875 24.71875 15.859375 21.34375 20.078125 C 17.96875 24.296875 13.125 26.40625 6.8125 26.40625 Z M 6.8125 26.40625 "/>
</symbol>
</g>
<g>
<symbol overflow="visible" id="arabic-liga:id1:glyph0-0">
<path style="stroke:none;" d="M 5.375 -96.6875 L 69.828125 -96.6875 L 69.828125 0 L 5.375 0 Z M 8.0625 -2.6875 L 67.140625 -2.6875 L 67.140625 -94 L 8.0625 -94 Z M 8.0625 -2.6875 "/>
</symbol>
<symbol overflow="visible" id="arabic-liga:id1:glyph0-1">
<path style="stroke:none;" d="M 68.15625 -13.75 L 66.28125 -18.640625 L 88.09375 -27.390625 L 6.984375 -27.390625 L 6.984375 -34 L 88.09375 -34 L 66.28125 -42.75 L 68.15625 -47.640625 L 99.09375 -34.265625 L 99.09375 -27.125 Z M 68.15625 -13.75 "/>
</symbol>
</g>
<g>
<symbol overflow="visible" id="arabic-liga:id2:glyph0-0">
<path style="stroke:none;" d="M 5.5 19.46875 L 5.5 -77.546875 L 60.5 -77.546875 L 60.5 19.46875 Z M 11.65625 13.3125 L 54.34375 13.3125 L 54.34375 -71.390625 L 11.65625 -71.390625 Z M 11.65625 13.3125 "/>
</symbol>
<symbol overflow="visible" id="arabic-liga:id2:glyph0-1">
<path style="stroke:none;" d="M 29.265625 26.40625 C 22.441406 26.40625 17.050781 23.910156 13.09375 18.921875 C 9.132812 13.929688 7.15625 7.035156 7.15625 -1.765625 C 7.15625 -6.304688 7.535156 -10.882812 8.296875 -15.5 C 9.066406 -20.125 10.1875 -24.195312 11.65625 -27.71875 L 20.796875 -27.71875 C 18.296875 -21.414062 17.046875 -12.765625 17.046875 -1.765625 C 17.046875 4.472656 18.289062 9.296875 20.78125 12.703125 C 23.28125 16.109375 26.800781 17.8125 31.34375 17.8125 L 36.734375 17.8125 C 43.117188 17.8125 47.796875 16.363281 50.765625 13.46875 C 53.734375 10.570312 55.21875 6.191406 55.21875 0.328125 L 55.21875 -83.59375 L 64.5625 -83.59375 L 64.5625 -0.4375 C 64.5625 8.4375 62.363281 15.128906 57.96875 19.640625 C 53.570312 24.148438 46.644531 26.40625 37.1875 26.40625 Z M 29.265625 26.40625 "/>
</symbol>
<symbol overflow="visible" id="arabic-liga:id2:glyph0-2">
<path style="stroke:none;" d="M 35.3125 -8.578125 C 35.675781 -8.578125 35.859375 -8.429688 35.859375 -8.140625 L 35.859375 -0.546875 C 35.859375 -0.179688 35.675781 0 35.3125 0 L 11 0 L 11 -83.59375 L 20.796875 -83.59375 L 20.796875 -8.578125 Z M 35.3125 -8.578125 "/>
</symbol>
<symbol overflow="visible" id="arabic-liga:id2:glyph0-3">
<path style="stroke:none;" d="M -0.546875 0 C -0.910156 0 -1.09375 -0.179688 -1.09375 -0.546875 L -1.09375 -8.140625 C -1.09375 -8.429688 -0.910156 -8.578125 -0.546875 -8.578125 L 20.5625 -8.578125 L 20.5625 -53.34375 L 30.359375 -53.34375 L 30.359375 0 Z M 6.59375 22 C 4.90625 22 3.457031 21.484375 2.25 20.453125 C 1.039062 19.429688 0.4375 17.75 0.4375 15.40625 C 0.4375 13.050781 1.039062 11.359375 2.25 10.328125 C 3.457031 9.304688 4.90625 8.796875 6.59375 8.796875 C 8.5 8.796875 10.003906 9.363281 11.109375 10.5 C 12.210938 11.632812 12.765625 13.269531 12.765625 15.40625 C 12.765625 17.53125 12.210938 19.160156 11.109375 20.296875 C 10.003906 21.429688 8.5 22 6.59375 22 Z M 25.625 22 C 23.71875 22 22.210938 21.429688 21.109375 20.296875 C 20.015625 19.160156 19.46875 17.53125 19.46875 15.40625 C 19.46875 13.269531 20.015625 11.632812 21.109375 10.5 C 22.210938 9.363281 23.71875 8.796875 25.625 8.796875 C 27.601562 8.796875 29.125 9.398438 30.1875 10.609375 C 31.257812 11.828125 31.796875 13.425781 31.796875 15.40625 C 31.796875 17.382812 31.257812 18.976562 30.1875 20.1875 C 29.125 21.394531 27.601562 22 25.625 22 Z M 25.625 22 "/>
</symbol>
<symbol overflow="visible" id="arabic-liga:id2:glyph0-4">
<path style="stroke:none;" d="M 6.8125 26.40625 C 3.300781 26.40625 -0.4375 25.375 -4.40625 23.3125 L -1.546875 15.953125 C 0.210938 16.753906 1.679688 17.265625 2.859375 17.484375 C 4.035156 17.703125 5.28125 17.8125 6.59375 17.8125 C 9.894531 17.8125 12.476562 16.472656 14.34375 13.796875 C 16.21875 11.128906 17.15625 7.59375 17.15625 3.1875 L 17.15625 -53.34375 L 26.40625 -53.34375 L 26.40625 2.640625 C 26.40625 10.046875 24.71875 15.859375 21.34375 20.078125 C 17.96875 24.296875 13.125 26.40625 6.8125 26.40625 Z M 6.8125 26.40625 "/>
</symbol>
</g>
</defs>
  <g id="arabic-liga:id0:id0" transform="matrix(1.25,0,0,1.25,0.0,0.0)"><g id="arabic-liga:id0:surface1">
<g style="fill:rgb(0%,0%,0%);fill-opacity:1;">
  <use xlink:href="#arabic-liga:id0:glyph0-1" x="16" y="143.015625" class="c3"/>
  <use xlink:href="#arabic-liga:id0:glyph0-2" x="91.5625" y="143.015625" class="c2"/>
  <use xlink:href="#arabic-liga:id0:glyph0-3" x="123.359375" y="143.015625" class="c1"/>
  <use xlink:href="#arabic-liga:id0:glyph0-4" x="215.65625" y="143.015625" class="c0"/>
</g>
</g>
</g>
  <g id="arabic-liga:id1:id1" transform="matrix(1.25,0,0,1.25,334.2578125,32.216796875)"><g id="arabic-liga:id1:surface1">
<g style="fill:rgb(0%,0%,0%);fill-opacity:1;">
  <use xlink:href="#arabic-liga:id1:glyph0-1" x="0" y="120.84375" class="arrow"/>
</g>
</g>
</g>
  <g id="arabic-liga:id2:id2" transform="matrix(1.25,0,0,1.25,466.85546875,0.0)"><g id="arabic-liga:id2:surface1">
<g style="fill:rgb(0%,0%,0%);fill-opacity:1;">
  <use xlink:href="#arabic-liga:id2:glyph0-1" x="16" y="143.015625" class="c3"/>
  <use xlink:href="#arabic-liga:id2:glyph0-2" x="91.5625" y="143.015625" class="c2"/>
  <use xlink:href="#arabic-liga:id2:glyph0-3" x="126.328125" y="143.015625" class="c1"/>
  <use xlink:href="#arabic-liga:id2:glyph0-4" x="167.46875" y="143.015625" class="c0"/>
</g>
</g>
</g>
</svg>
