<!DOCTYPE svg PUBLIC "-//W3C//DTD SVG 1.1//EN" "http://www.w3.org/Graphics/SVG/1.1/DTD/svg11.dtd">
<!-- Created with svg_stack (http://github.com/astraw/svg_stack) --><svg xmlns="http://www.w3.org/2000/svg" xmlns:sodipodi="http://sodipodi.sourceforge.net/DTD/sodipodi-0.dtd" xmlns:xlink="http://www.w3.org/1999/xlink" version="1.1" width="100%" id="arabic-liga" viewBox="0 0 535.60546875 239.16015625">
  <defs><g>
<symbol overflow="visible" id="arabic-liga:id0:glyph0-0">
<path style="stroke:none;" d="M 8.90625 29.8125 L 8.90625 -116.15625 L 62.046875 -116.15625 L 62.046875 29.8125 Z M 16.828125 21.890625 L 54.125 21.890625 L 54.125 -108.234375 L 16.828125 -108.234375 Z M 16.828125 21.890625 "/>
</symbol>
<symbol overflow="visible" id="arabic-liga:id0:glyph0-1">
<path style="stroke:none;" d="M 10.34375 0 L 7.484375 -2.53125 C 8.648438 -3.851562 10.078125 -5.335938 11.765625 -6.984375 C 13.453125 -8.628906 15.210938 -10.257812 17.046875 -11.875 C 18.878906 -13.488281 20.582031 -14.9375 22.15625 -16.21875 C 23.738281 -17.507812 25.003906 -18.484375 25.953125 -19.140625 C 27.859375 -20.460938 29.125 -20.9375 29.75 -20.5625 C 30.375 -20.195312 30.941406 -19.722656 31.453125 -19.140625 C 32.554688 -18.035156 34.0625 -16.640625 35.96875 -14.953125 C 37.875 -13.273438 40.164062 -11.753906 42.84375 -10.390625 C 45.519531 -9.035156 48.472656 -8.359375 51.703125 -8.359375 C 52.503906 -8.359375 52.90625 -7.992188 52.90625 -7.265625 L 52.90625 -1.203125 C 52.90625 -0.398438 52.503906 0 51.703125 0 C 47.078125 0 43.113281 -0.65625 39.8125 -1.96875 C 36.519531 -3.289062 33.695312 -4.882812 31.34375 -6.75 C 29 -8.625 26.984375 -10.296875 25.296875 -11.765625 C 23.972656 -11.035156 22.335938 -9.953125 20.390625 -8.515625 C 18.453125 -7.085938 16.566406 -5.625 14.734375 -4.125 C 12.898438 -2.625 11.4375 -1.25 10.34375 0 Z M 10.34375 0 "/>
</symbol>
<symbol overflow="visible" id="arabic-liga:id0:glyph0-2">
<path style="stroke:none;" d="M 6.9375 -96.03125 L 6.375 -96.25 C 6.375 -101.457031 5.828125 -106.257812 4.734375 -110.65625 C 4.515625 -111.539062 4.40625 -112.238281 4.40625 -112.75 C 4.40625 -114 4.734375 -115.117188 5.390625 -116.109375 C 6.046875 -117.097656 6.890625 -117.773438 7.921875 -118.140625 C 8.429688 -115.722656 8.773438 -113.742188 8.953125 -112.203125 C 9.140625 -110.660156 9.25 -109.285156 9.28125 -108.078125 C 9.320312 -106.867188 9.34375 -105.53125 9.34375 -104.0625 C 9.34375 -100.976562 8.539062 -98.300781 6.9375 -96.03125 Z M 4.515625 -82.28125 C 3.191406 -82.28125 2.109375 -82.679688 1.265625 -83.484375 C 0.421875 -84.296875 0 -85.507812 0 -87.125 C 0 -88.507812 0.4375 -90.007812 1.3125 -91.625 L 2.75 -91.296875 C 2.53125 -90.566406 2.421875 -89.6875 2.421875 -88.65625 C 2.421875 -86.820312 3.191406 -85.90625 4.734375 -85.90625 C 5.535156 -85.90625 6.191406 -86.179688 6.703125 -86.734375 C 7.222656 -87.285156 7.445312 -88.035156 7.375 -88.984375 L 7.15625 -92.40625 L 9.453125 -93.828125 C 9.828125 -91.554688 10.304688 -90.035156 10.890625 -89.265625 C 11.472656 -88.492188 12.351562 -88.109375 13.53125 -88.109375 C 13.96875 -88.109375 14.390625 -88.234375 14.796875 -88.484375 C 15.203125 -88.742188 15.441406 -89.019531 15.515625 -89.3125 C 15.441406 -89.832031 14.925781 -91.15625 13.96875 -93.28125 L 13.75 -94.15625 C 13.75 -94.75 14.023438 -95.351562 14.578125 -95.96875 C 15.128906 -96.59375 15.734375 -96.976562 16.390625 -97.125 C 17.046875 -95.882812 17.503906 -94.640625 17.765625 -93.390625 C 18.023438 -92.140625 18.15625 -91.222656 18.15625 -90.640625 C 18.15625 -88.953125 17.640625 -87.503906 16.609375 -86.296875 C 15.578125 -85.085938 14.332031 -84.484375 12.875 -84.484375 C 11.40625 -84.484375 10.226562 -84.992188 9.34375 -86.015625 C 8.320312 -83.523438 6.710938 -82.28125 4.515625 -82.28125 Z M 4.515625 -82.28125 "/>
</symbol>
<symbol overflow="visible" id="arabic-liga:id0:glyph0-3">
<path style="stroke:none;" d="M 0 0 C -0.582031 0 -0.875 -0.289062 -0.875 -0.875 L -0.875 -7.484375 C -0.875 -8.066406 -0.582031 -8.359375 0 -8.359375 C 4.03125 -8.359375 8.023438 -9.3125 11.984375 -11.21875 C 11.546875 -15.101562 11.03125 -20.53125 10.4375 -27.5 C 9.851562 -34.46875 9.234375 -42.972656 8.578125 -53.015625 C 8.359375 -55.441406 8.15625 -57.878906 7.96875 -60.328125 C 7.789062 -62.785156 7.628906 -65.226562 7.484375 -67.65625 C 8.578125 -68.820312 9.726562 -69.898438 10.9375 -70.890625 C 12.15625 -71.878906 13.457031 -72.851562 14.84375 -73.8125 C 15.070312 -68.75 15.296875 -62.273438 15.515625 -54.390625 C 15.734375 -46.503906 15.914062 -37.175781 16.0625 -26.40625 C 16.0625 -23.90625 16.097656 -21.390625 16.171875 -18.859375 C 16.242188 -16.328125 16.316406 -13.816406 16.390625 -11.328125 C 19.691406 -9.347656 23.503906 -8.359375 27.828125 -8.359375 C 28.484375 -8.359375 28.8125 -8.066406 28.8125 -7.484375 L 28.8125 -0.875 C 28.8125 -0.289062 28.484375 0 27.828125 0 C 22.472656 0 18.257812 -1.316406 15.1875 -3.953125 C 12.46875 -2.421875 10.046875 -1.378906 7.921875 -0.828125 C 5.796875 -0.273438 3.15625 0 0 0 Z M 0 0 "/>
</symbol>
<symbol overflow="visible" id="arabic-liga:id0:glyph0-4">
<path style="stroke:none;" d="M -0.109375 0 C -0.765625 0 -1.09375 -0.289062 -1.09375 -0.875 L -1.09375 -7.484375 C -1.09375 -8.066406 -0.765625 -8.359375 -0.109375 -8.359375 C 4.285156 -8.359375 8.351562 -9.347656 12.09375 -11.328125 C 11.875 -14.117188 11.65625 -16.867188 11.4375 -19.578125 C 11.21875 -22.296875 11 -24.972656 10.78125 -27.609375 C 10.125 -34.503906 9.460938 -41.285156 8.796875 -47.953125 C 8.140625 -54.628906 7.40625 -61.195312 6.59375 -67.65625 C 7.625 -68.75 8.742188 -69.804688 9.953125 -70.828125 C 11.160156 -71.859375 12.460938 -72.851562 13.859375 -73.8125 C 14.078125 -69.851562 14.332031 -65.285156 14.625 -60.109375 C 14.914062 -54.941406 15.285156 -49.132812 15.734375 -42.6875 C 16.097656 -37.332031 16.351562 -32.328125 16.5 -27.671875 C 16.644531 -23.015625 16.753906 -18.738281 16.828125 -14.84375 C 16.828125 -13.601562 16.457031 -11.9375 15.71875 -9.84375 C 14.988281 -7.75 14.078125 -5.75 12.984375 -3.84375 C 11.660156 -1.28125 7.296875 0 -0.109375 0 Z M -0.109375 0 "/>
</symbol>
<symbol overflow="visible" id="arabic-liga:id0:glyph0-5">
<path style="stroke:none;" d="M 11.4375 0 C 11.21875 -12.90625 10.867188 -24.691406 10.390625 -35.359375 C 9.921875 -46.035156 9.28125 -55.585938 8.46875 -64.015625 C 8.175781 -67.023438 8.597656 -69.28125 9.734375 -70.78125 C 10.867188 -72.289062 12.867188 -73.300781 15.734375 -73.8125 C 16.023438 -72.414062 16.519531 -70.523438 17.21875 -68.140625 C 17.914062 -65.753906 18.703125 -63.28125 19.578125 -60.71875 L 16.609375 -58.1875 C 16.898438 -52.757812 17.097656 -47.1875 17.203125 -41.46875 C 17.316406 -35.75 17.316406 -29.585938 17.203125 -22.984375 C 17.097656 -16.390625 16.863281 -9.019531 16.5 -0.875 Z M 11.4375 0 "/>
</symbol>
</g>
<g>
<symbol overflow="visible" id="arabic-liga:id1:glyph0-0">
<path style="stroke:none;" d="M 5.375 -96.6875 L 69.828125 -96.6875 L 69.828125 0 L 5.375 0 Z M 8.0625 -2.6875 L 67.140625 -2.6875 L 67.140625 -94 L 8.0625 -94 Z M 8.0625 -2.6875 "/>
</symbol>
<symbol overflow="visible" id="arabic-liga:id1:glyph0-1">
<path style="stroke:none;" d="M 68.15625 -13.75 L 66.28125 -18.640625 L 88.09375 -27.390625 L 6.984375 -27.390625 L 6.984375 -34 L 88.09375 -34 L 66.28125 -42.75 L 68.15625 -47.640625 L 99.09375 -34.265625 L 99.09375 -27.125 Z M 68.15625 -13.75 "/>
</symbol>
</g>
<g>
<symbol overflow="visible" id="arabic-liga:id2:glyph0-0">
<path style="stroke:none;" d="M 8.90625 29.8125 L 8.90625 -116.15625 L 62.046875 -116.15625 L 62.046875 29.8125 Z M 16.828125 21.890625 L 54.125 21.890625 L 54.125 -108.234375 L 16.828125 -108.234375 Z M 16.828125 21.890625 "/>
</symbol>
<symbol overflow="visible" id="arabic-liga:id2:glyph0-1">
<path style="stroke:none;" d="M 116.15625 0 C 115.9375 -12.90625 115.585938 -24.691406 115.109375 -35.359375 C 114.640625 -46.035156 114 -55.585938 113.1875 -64.015625 C 112.894531 -67.023438 113.316406 -69.28125 114.453125 -70.78125 C 115.585938 -72.289062 117.585938 -73.300781 120.453125 -73.8125 C 120.742188 -72.414062 121.238281 -70.523438 121.9375 -68.140625 C 122.632812 -65.753906 123.421875 -63.28125 124.296875 -60.71875 L 121.328125 -58.1875 C 121.617188 -52.757812 121.816406 -47.1875 121.921875 -41.46875 C 122.035156 -35.75 122.035156 -29.585938 121.921875 -22.984375 C 121.816406 -16.390625 121.582031 -9.019531 121.21875 -0.875 Z M 50.59375 0 C 46.195312 0 42.640625 -0.84375 39.921875 -2.53125 C 37.210938 -4.21875 35.601562 -6.5625 35.09375 -9.5625 L 34.4375 -13.53125 L 30.6875 -6.484375 C 28.050781 -6.703125 25.976562 -6.921875 24.46875 -7.140625 C 22.96875 -7.367188 21.738281 -7.628906 20.78125 -7.921875 C 19.832031 -8.210938 18.804688 -8.539062 17.703125 -8.90625 C 16.390625 -9.425781 14.941406 -10.101562 13.359375 -10.9375 C 11.785156 -11.78125 10.410156 -12.695312 9.234375 -13.6875 C 8.066406 -14.6875 7.484375 -15.660156 7.484375 -16.609375 C 7.484375 -17.410156 7.789062 -18.65625 8.40625 -20.34375 C 9.03125 -22.03125 9.820312 -23.789062 10.78125 -25.625 C 11.800781 -27.675781 13.375 -29.617188 15.5 -31.453125 C 17.632812 -33.285156 20.019531 -34.953125 22.65625 -36.453125 C 25.300781 -37.960938 27.832031 -39.234375 30.25 -40.265625 L 29.703125 -44.875 C 30.796875 -45.90625 32.039062 -46.929688 33.4375 -47.953125 C 34.832031 -48.984375 36.375 -50.015625 38.0625 -51.046875 L 39.15625 -11.328125 C 42.382812 -9.347656 46.269531 -8.359375 50.8125 -8.359375 C 54.78125 -8.359375 58.742188 -9.3125 62.703125 -11.21875 C 61.523438 -21.34375 60.585938 -29.648438 59.890625 -36.140625 C 59.191406 -42.628906 58.660156 -47.226562 58.296875 -49.9375 C 59.328125 -50.96875 60.445312 -51.992188 61.65625 -53.015625 C 62.863281 -54.046875 64.238281 -55.070312 65.78125 -56.09375 L 66.984375 -11.328125 C 70.429688 -9.347656 74.320312 -8.359375 78.65625 -8.359375 C 82.976562 -8.359375 87.007812 -9.347656 90.75 -11.328125 C 90.53125 -13.972656 90.3125 -16.648438 90.09375 -19.359375 C 89.875 -22.078125 89.613281 -24.789062 89.3125 -27.5 C 88.800781 -34.03125 88.175781 -40.628906 87.4375 -47.296875 C 86.707031 -53.972656 85.941406 -60.757812 85.140625 -67.65625 C 86.242188 -68.820312 87.414062 -69.898438 88.65625 -70.890625 C 89.90625 -71.878906 91.226562 -72.851562 92.625 -73.8125 C 93.132812 -65.445312 93.550781 -58.296875 93.875 -52.359375 C 94.207031 -46.421875 94.46875 -41.414062 94.65625 -37.34375 C 94.84375 -33.269531 94.988281 -29.859375 95.09375 -27.109375 C 95.207031 -24.359375 95.300781 -22.046875 95.375 -20.171875 C 95.445312 -18.304688 95.484375 -16.53125 95.484375 -14.84375 C 95.484375 -12.425781 94.195312 -8.757812 91.625 -3.84375 C 90.894531 -2.53125 89.410156 -1.5625 87.171875 -0.9375 C 84.929688 -0.3125 81.976562 0 78.3125 0 C 73.039062 0 68.898438 -1.316406 65.890625 -3.953125 C 63.097656 -2.421875 60.617188 -1.378906 58.453125 -0.828125 C 56.296875 -0.273438 53.675781 0 50.59375 0 Z M 34.203125 -15.40625 C 33.691406 -18.40625 33.179688 -21.390625 32.671875 -24.359375 C 32.160156 -27.328125 31.679688 -30.28125 31.234375 -33.21875 C 27.128906 -31.820312 23.460938 -30.113281 20.234375 -28.09375 C 17.015625 -26.082031 14.5625 -23.941406 12.875 -21.671875 C 15.726562 -19.179688 18.929688 -17.53125 22.484375 -16.71875 C 26.046875 -15.914062 29.953125 -15.476562 34.203125 -15.40625 Z M 59.625 -78.421875 L 59.078125 -78.65625 C 59.003906 -80.039062 58.894531 -81.628906 58.75 -83.421875 C 58.601562 -85.222656 58.34375 -87.265625 57.96875 -89.546875 L 57.75 -91.625 C 57.75 -92.800781 58.039062 -93.664062 58.625 -94.21875 C 59.21875 -94.769531 60.03125 -95.191406 61.0625 -95.484375 C 61.5 -92.617188 61.71875 -89.609375 61.71875 -86.453125 C 61.71875 -83.160156 61.019531 -80.484375 59.625 -78.421875 Z M 56.328125 -63.140625 C 54.859375 -63.140625 53.644531 -63.613281 52.6875 -64.5625 C 51.738281 -65.519531 51.265625 -66.878906 51.265625 -68.640625 C 51.265625 -70.398438 51.742188 -72.085938 52.703125 -73.703125 L 54.34375 -73.375 C 54.050781 -72.414062 53.90625 -71.425781 53.90625 -70.40625 C 53.90625 -68.34375 54.785156 -67.3125 56.546875 -67.3125 C 57.347656 -67.3125 58.039062 -67.640625 58.625 -68.296875 C 59.21875 -68.960938 59.515625 -69.773438 59.515625 -70.734375 L 59.40625 -74.578125 L 61.9375 -76.234375 C 62.226562 -74.253906 62.664062 -72.691406 63.25 -71.546875 C 63.84375 -70.410156 64.984375 -69.84375 66.671875 -69.84375 C 67.109375 -69.84375 67.546875 -69.988281 67.984375 -70.28125 C 68.421875 -70.582031 68.675781 -70.878906 68.75 -71.171875 C 68.675781 -71.535156 68.492188 -72.101562 68.203125 -72.875 C 67.910156 -73.644531 67.507812 -74.578125 67 -75.671875 L 66.78125 -76.671875 C 66.78125 -77.398438 67.085938 -78.09375 67.703125 -78.75 C 68.328125 -79.414062 69.007812 -79.859375 69.75 -80.078125 C 70.550781 -78.535156 71.097656 -77.066406 71.390625 -75.671875 C 71.679688 -74.285156 71.828125 -73.222656 71.828125 -72.484375 C 71.828125 -70.648438 71.238281 -69.035156 70.0625 -67.640625 C 68.894531 -66.253906 67.46875 -65.5625 65.78125 -65.5625 C 65.195312 -65.5625 64.519531 -65.707031 63.75 -66 C 62.976562 -66.289062 62.335938 -66.765625 61.828125 -67.421875 C 61.316406 -66.035156 60.523438 -64.972656 59.453125 -64.234375 C 58.390625 -63.503906 57.347656 -63.140625 56.328125 -63.140625 Z M 56.328125 -63.140625 "/>
</symbol>
</g>
</defs>
  <g id="arabic-liga:id0:id0" transform="matrix(1.25,0,0,1.25,0.0,0.0)"><g id="arabic-liga:id0:surface1">
<g style="fill:rgb(0%,0%,0%);fill-opacity:1;">
  <use xlink:href="#arabic-liga:id0:glyph0-1" x="16" y="119.59375" class="c4"/>
  <use xlink:href="#arabic-liga:id0:glyph0-2" x="68.484375" y="121.578125" class="c3"/>
  <use xlink:href="#arabic-liga:id0:glyph0-3" x="67.046875" y="119.59375" class="c2"/>
  <use xlink:href="#arabic-liga:id0:glyph0-4" x="94" y="119.59375" class="c1"/>
  <use xlink:href="#arabic-liga:id0:glyph0-5" x="117.3125" y="119.59375" class="c0"/>
</g>
</g>
</g>
  <g id="arabic-liga:id1:id1" transform="matrix(1.25,0,0,1.25,199.375,18.876953125)"><g id="arabic-liga:id1:surface1">
<g style="fill:rgb(0%,0%,0%);fill-opacity:1;">
  <use xlink:href="#arabic-liga:id1:glyph0-1" x="0" y="120.84375" class="arrow"/>
</g>
</g>
</g>
  <g id="arabic-liga:id2:id2" transform="matrix(1.25,0,0,1.25,331.97265625,0.0)"><g id="arabic-liga:id2:surface1">
<g style="fill:rgb(0%,0%,0%);fill-opacity:1;">
  <use xlink:href="#arabic-liga:id2:glyph0-1" x="16" y="119.59375" class="c5"/>
</g>
</g>
</g>
</svg>
