<!DOCTYPE svg PUBLIC "-//W3C//DTD SVG 1.1//EN" "http://www.w3.org/Graphics/SVG/1.1/DTD/svg11.dtd">
<!-- Created with svg_stack (http://github.com/astraw/svg_stack) --><svg xmlns="http://www.w3.org/2000/svg" xmlns:sodipodi="http://sodipodi.sourceforge.net/DTD/sodipodi-0.dtd" xmlns:xlink="http://www.w3.org/1999/xlink" version="1.1" width="100%" id="arabic-mkmk" viewBox="0 0 411.15234375 239.16015625">
  <defs><g>
<symbol overflow="visible" id="arabic-mkmk:id0:glyph0-0">
<path style="stroke:none;" d="M 8.90625 29.8125 L 8.90625 -116.15625 L 62.046875 -116.15625 L 62.046875 29.8125 Z M 16.828125 21.890625 L 54.125 21.890625 L 54.125 -108.234375 L 16.828125 -108.234375 Z M 16.828125 21.890625 "/>
</symbol>
<symbol overflow="visible" id="arabic-mkmk:id0:glyph0-1">
<path style="stroke:none;" d="M 0 15.515625 L 0.546875 10.78125 C 5.171875 9.25 9.09375 7.929688 12.3125 6.828125 C 15.539062 5.722656 18.070312 4.804688 19.90625 4.078125 L 20.015625 5.28125 C 20.015625 7.113281 19.171875 8.398438 17.484375 9.140625 C 15.503906 10.085938 13.066406 11.09375 10.171875 12.15625 C 7.273438 13.21875 3.882812 14.335938 0 15.515625 Z M 0 15.515625 "/>
</symbol>
<symbol overflow="visible" id="arabic-mkmk:id0:glyph0-2">
<path style="stroke:none;" d="M 14.40625 15.609375 C 12.5 14.441406 10.445312 12.644531 8.25 10.21875 C 9.351562 9.125 10.398438 8.0625 11.390625 7.03125 C 12.378906 6.007812 13.273438 5.019531 14.078125 4.0625 C 15.398438 5.820312 17.414062 7.875 20.125 10.21875 C 18 12.71875 16.09375 14.515625 14.40625 15.609375 Z M 22.21875 24.640625 C 19.800781 22.734375 17.640625 20.710938 15.734375 18.578125 C 16.390625 17.992188 17.265625 17.132812 18.359375 16 C 19.460938 14.863281 20.710938 13.488281 22.109375 11.875 C 23.140625 12.894531 24.148438 13.921875 25.140625 14.953125 C 26.128906 15.984375 27.132812 16.972656 28.15625 17.921875 C 27.425781 18.953125 26.582031 20.035156 25.625 21.171875 C 24.675781 22.304688 23.539062 23.460938 22.21875 24.640625 Z M 6.59375 26.0625 C 5.207031 24.957031 3.960938 23.890625 2.859375 22.859375 C 1.753906 21.835938 0.800781 20.890625 0 20.015625 C 1.757812 18.398438 3.882812 16.160156 6.375 13.296875 C 7.113281 14.179688 9.132812 16.203125 12.4375 19.359375 C 11.769531 20.304688 10.957031 21.347656 10 22.484375 C 9.050781 23.617188 7.914062 24.8125 6.59375 26.0625 Z M 6.59375 26.0625 "/>
</symbol>
<symbol overflow="visible" id="arabic-mkmk:id0:glyph0-3">
<path style="stroke:none;" d="M 33.875 0 C 27.5 0 22.347656 -0.617188 18.421875 -1.859375 C 14.503906 -3.109375 11.628906 -4.984375 9.796875 -7.484375 C 8.253906 -9.679688 7.484375 -12.359375 7.484375 -15.515625 C 7.484375 -18.003906 7.957031 -20.347656 8.90625 -22.546875 L 12.875 -22.546875 C 12.726562 -21.890625 12.617188 -21.175781 12.546875 -20.40625 C 12.472656 -19.632812 12.4375 -18.847656 12.4375 -18.046875 C 12.4375 -14.523438 14.117188 -12.066406 17.484375 -10.671875 C 20.929688 -9.128906 26.691406 -8.359375 34.765625 -8.359375 C 41.066406 -8.359375 46.726562 -8.816406 51.75 -9.734375 C 56.78125 -10.648438 61.640625 -12.351562 66.328125 -14.84375 C 65.453125 -17.34375 64.1875 -19.726562 62.53125 -22 C 60.882812 -24.269531 58.738281 -26.429688 56.09375 -28.484375 C 52.726562 -31.273438 48.441406 -33.914062 43.234375 -36.40625 C 42.273438 -36.1875 41.359375 -36.078125 40.484375 -36.078125 C 38.503906 -36.078125 36.890625 -36.753906 35.640625 -38.109375 C 34.390625 -39.472656 33.765625 -41.179688 33.765625 -43.234375 C 33.765625 -44.328125 33.945312 -45.660156 34.3125 -47.234375 C 34.6875 -48.816406 35.109375 -50.25 35.578125 -51.53125 C 36.054688 -52.8125 36.40625 -53.53125 36.625 -53.6875 C 41.613281 -56.25 45.867188 -58.410156 49.390625 -60.171875 C 52.910156 -61.929688 56.0625 -63.453125 58.84375 -64.734375 C 61.632812 -66.015625 64.347656 -67.203125 66.984375 -68.296875 C 69.628906 -69.398438 72.53125 -70.613281 75.6875 -71.9375 C 76.269531 -71.5 76.707031 -71.003906 77 -70.453125 C 77.289062 -69.898438 77.4375 -69.222656 77.4375 -68.421875 C 77.4375 -64.898438 75.859375 -62.550781 72.703125 -61.375 C 57.742188 -55.144531 46.085938 -50.085938 37.734375 -46.203125 C 43.453125 -44.804688 48.875 -42.515625 54 -39.328125 C 59.132812 -36.140625 63.207031 -32.632812 66.21875 -28.8125 C 69.226562 -24.925781 70.734375 -21.335938 70.734375 -18.046875 C 70.734375 -12.171875 67.671875 -7.691406 61.546875 -4.609375 C 55.421875 -1.535156 46.195312 0 33.875 0 Z M 33.875 0 "/>
</symbol>
</g>
<g>
<symbol overflow="visible" id="arabic-mkmk:id1:glyph0-0">
<path style="stroke:none;" d="M 5.375 -96.6875 L 69.828125 -96.6875 L 69.828125 0 L 5.375 0 Z M 8.0625 -2.6875 L 67.140625 -2.6875 L 67.140625 -94 L 8.0625 -94 Z M 8.0625 -2.6875 "/>
</symbol>
<symbol overflow="visible" id="arabic-mkmk:id1:glyph0-1">
<path style="stroke:none;" d="M 68.15625 -13.75 L 66.28125 -18.640625 L 88.09375 -27.390625 L 6.984375 -27.390625 L 6.984375 -34 L 88.09375 -34 L 66.28125 -42.75 L 68.15625 -47.640625 L 99.09375 -34.265625 L 99.09375 -27.125 Z M 68.15625 -13.75 "/>
</symbol>
</g>
<g>
<symbol overflow="visible" id="arabic-mkmk:id2:glyph0-0">
<path style="stroke:none;" d="M 8.90625 29.8125 L 8.90625 -116.15625 L 62.046875 -116.15625 L 62.046875 29.8125 Z M 16.828125 21.890625 L 54.125 21.890625 L 54.125 -108.234375 L 16.828125 -108.234375 Z M 16.828125 21.890625 "/>
</symbol>
<symbol overflow="visible" id="arabic-mkmk:id2:glyph0-1">
<path style="stroke:none;" d="M 0 15.515625 L 0.546875 10.78125 C 5.171875 9.25 9.09375 7.929688 12.3125 6.828125 C 15.539062 5.722656 18.070312 4.804688 19.90625 4.078125 L 20.015625 5.28125 C 20.015625 7.113281 19.171875 8.398438 17.484375 9.140625 C 15.503906 10.085938 13.066406 11.09375 10.171875 12.15625 C 7.273438 13.21875 3.882812 14.335938 0 15.515625 Z M 0 15.515625 "/>
</symbol>
<symbol overflow="visible" id="arabic-mkmk:id2:glyph0-2">
<path style="stroke:none;" d="M 14.40625 15.609375 C 12.5 14.441406 10.445312 12.644531 8.25 10.21875 C 9.351562 9.125 10.398438 8.0625 11.390625 7.03125 C 12.378906 6.007812 13.273438 5.019531 14.078125 4.0625 C 15.398438 5.820312 17.414062 7.875 20.125 10.21875 C 18 12.71875 16.09375 14.515625 14.40625 15.609375 Z M 22.21875 24.640625 C 19.800781 22.734375 17.640625 20.710938 15.734375 18.578125 C 16.390625 17.992188 17.265625 17.132812 18.359375 16 C 19.460938 14.863281 20.710938 13.488281 22.109375 11.875 C 23.140625 12.894531 24.148438 13.921875 25.140625 14.953125 C 26.128906 15.984375 27.132812 16.972656 28.15625 17.921875 C 27.425781 18.953125 26.582031 20.035156 25.625 21.171875 C 24.675781 22.304688 23.539062 23.460938 22.21875 24.640625 Z M 6.59375 26.0625 C 5.207031 24.957031 3.960938 23.890625 2.859375 22.859375 C 1.753906 21.835938 0.800781 20.890625 0 20.015625 C 1.757812 18.398438 3.882812 16.160156 6.375 13.296875 C 7.113281 14.179688 9.132812 16.203125 12.4375 19.359375 C 11.769531 20.304688 10.957031 21.347656 10 22.484375 C 9.050781 23.617188 7.914062 24.8125 6.59375 26.0625 Z M 6.59375 26.0625 "/>
</symbol>
<symbol overflow="visible" id="arabic-mkmk:id2:glyph0-3">
<path style="stroke:none;" d="M 33.875 0 C 27.5 0 22.347656 -0.617188 18.421875 -1.859375 C 14.503906 -3.109375 11.628906 -4.984375 9.796875 -7.484375 C 8.253906 -9.679688 7.484375 -12.359375 7.484375 -15.515625 C 7.484375 -18.003906 7.957031 -20.347656 8.90625 -22.546875 L 12.875 -22.546875 C 12.726562 -21.890625 12.617188 -21.175781 12.546875 -20.40625 C 12.472656 -19.632812 12.4375 -18.847656 12.4375 -18.046875 C 12.4375 -14.523438 14.117188 -12.066406 17.484375 -10.671875 C 20.929688 -9.128906 26.691406 -8.359375 34.765625 -8.359375 C 41.066406 -8.359375 46.726562 -8.816406 51.75 -9.734375 C 56.78125 -10.648438 61.640625 -12.351562 66.328125 -14.84375 C 65.453125 -17.34375 64.1875 -19.726562 62.53125 -22 C 60.882812 -24.269531 58.738281 -26.429688 56.09375 -28.484375 C 52.726562 -31.273438 48.441406 -33.914062 43.234375 -36.40625 C 42.273438 -36.1875 41.359375 -36.078125 40.484375 -36.078125 C 38.503906 -36.078125 36.890625 -36.753906 35.640625 -38.109375 C 34.390625 -39.472656 33.765625 -41.179688 33.765625 -43.234375 C 33.765625 -44.328125 33.945312 -45.660156 34.3125 -47.234375 C 34.6875 -48.816406 35.109375 -50.25 35.578125 -51.53125 C 36.054688 -52.8125 36.40625 -53.53125 36.625 -53.6875 C 41.613281 -56.25 45.867188 -58.410156 49.390625 -60.171875 C 52.910156 -61.929688 56.0625 -63.453125 58.84375 -64.734375 C 61.632812 -66.015625 64.347656 -67.203125 66.984375 -68.296875 C 69.628906 -69.398438 72.53125 -70.613281 75.6875 -71.9375 C 76.269531 -71.5 76.707031 -71.003906 77 -70.453125 C 77.289062 -69.898438 77.4375 -69.222656 77.4375 -68.421875 C 77.4375 -64.898438 75.859375 -62.550781 72.703125 -61.375 C 57.742188 -55.144531 46.085938 -50.085938 37.734375 -46.203125 C 43.453125 -44.804688 48.875 -42.515625 54 -39.328125 C 59.132812 -36.140625 63.207031 -32.632812 66.21875 -28.8125 C 69.226562 -24.925781 70.734375 -21.335938 70.734375 -18.046875 C 70.734375 -12.171875 67.671875 -7.691406 61.546875 -4.609375 C 55.421875 -1.535156 46.195312 0 33.875 0 Z M 33.875 0 "/>
</symbol>
</g>
</defs>
  <g id="arabic-mkmk:id0:id0" transform="matrix(1.25,0,0,1.25,0.0,0.0)"><g id="arabic-mkmk:id0:surface1">
<g style="fill:rgb(0%,0%,0%);fill-opacity:1;">
  <use xlink:href="#arabic-mkmk:id0:glyph0-1" x="55.703125" y="126.40625" class="c2"/>
  <use xlink:href="#arabic-mkmk:id0:glyph0-2" x="51.421875" y="121.6875" class="c1"/>
  <use xlink:href="#arabic-mkmk:id0:glyph0-3" x="16" y="119.59375" class="c0"/>
</g>
</g>
</g>
  <g id="arabic-mkmk:id1:id1" transform="matrix(1.25,0,0,1.25,139.27734375,18.876953125)"><g id="arabic-mkmk:id1:surface1">
<g style="fill:rgb(0%,0%,0%);fill-opacity:1;">
  <use xlink:href="#arabic-mkmk:id1:glyph0-1" x="0" y="120.84375" class="arrow"/>
</g>
</g>
</g>
  <g id="arabic-mkmk:id2:id2" transform="matrix(1.25,0,0,1.25,271.875,0.0)"><g id="arabic-mkmk:id2:surface1">
<g style="fill:rgb(0%,0%,0%);fill-opacity:1;">
  <use xlink:href="#arabic-mkmk:id2:glyph0-1" x="56.8125" y="146.4375" class="c2"/>
  <use xlink:href="#arabic-mkmk:id2:glyph0-2" x="51.421875" y="121.6875" class="c1"/>
  <use xlink:href="#arabic-mkmk:id2:glyph0-3" x="16" y="119.59375" class="c0"/>
</g>
</g>
</g>
</svg>
