<!DOCTYPE svg PUBLIC "-//W3C//DTD SVG 1.1//EN" "http://www.w3.org/Graphics/SVG/1.1/DTD/svg11.dtd">
<!-- Created with svg_stack (http://github.com/astraw/svg_stack) --><svg xmlns="http://www.w3.org/2000/svg" xmlns:sodipodi="http://sodipodi.sourceforge.net/DTD/sodipodi-0.dtd" xmlns:xlink="http://www.w3.org/1999/xlink" version="1.1" width="100%" id="arabic-ccmp" viewBox="0 0 424.90234375 239.16015625">
  <defs><g>
<symbol overflow="visible" id="arabic-ccmp:id0:glyph0-0">
<path style="stroke:none;" d="M 8.90625 29.8125 L 8.90625 -116.15625 L 62.046875 -116.15625 L 62.046875 29.8125 Z M 16.828125 21.890625 L 54.125 21.890625 L 54.125 -108.234375 L 16.828125 -108.234375 Z M 16.828125 21.890625 "/>
</symbol>
<symbol overflow="visible" id="arabic-ccmp:id0:glyph0-1">
<path style="stroke:none;" d="M 34.546875 0 C 25.890625 0 19.25 -1.554688 14.625 -4.671875 C 10.007812 -7.785156 7.703125 -12.460938 7.703125 -18.703125 C 7.703125 -23.390625 8.175781 -27.421875 9.125 -30.796875 L 13.09375 -30.796875 C 13.019531 -30.503906 12.945312 -29.753906 12.875 -28.546875 C 12.800781 -27.335938 12.765625 -26.289062 12.765625 -25.40625 C 12.765625 -21.15625 13.566406 -17.875 15.171875 -15.5625 C 16.785156 -13.25 19.351562 -11.472656 22.875 -10.234375 C 26.46875 -8.984375 31.125 -8.359375 36.84375 -8.359375 C 43.664062 -8.359375 50.335938 -9.054688 56.859375 -10.453125 C 63.390625 -11.847656 69.1875 -13.753906 74.25 -16.171875 C 73.882812 -17.710938 73.367188 -19.488281 72.703125 -21.5 C 72.046875 -23.519531 71.242188 -25.773438 70.296875 -28.265625 C 68.898438 -31.929688 68.203125 -34.390625 68.203125 -35.640625 C 68.203125 -37.179688 68.820312 -38.773438 70.0625 -40.421875 C 71.3125 -42.078125 73.109375 -43.5625 75.453125 -44.875 C 76.628906 -39.445312 77.601562 -34.769531 78.375 -30.84375 C 79.144531 -26.925781 79.53125 -23.648438 79.53125 -21.015625 C 79.53125 -18.515625 78.25 -14.773438 75.6875 -9.796875 C 70.84375 -6.710938 64.953125 -4.304688 58.015625 -2.578125 C 51.085938 -0.859375 43.265625 0 34.546875 0 Z M 50.8125 17.71875 C 49.5625 16.6875 48.382812 15.675781 47.28125 14.6875 C 46.1875 13.695312 45.164062 12.691406 44.21875 11.671875 C 44.800781 11.078125 45.640625 10.210938 46.734375 9.078125 C 47.835938 7.941406 49.160156 6.566406 50.703125 4.953125 C 51.804688 6.128906 53.820312 8.144531 56.75 11 C 56.09375 11.957031 55.269531 13.003906 54.28125 14.140625 C 53.289062 15.273438 52.132812 16.46875 50.8125 17.71875 Z M 35.078125 19.140625 C 33.691406 17.972656 32.445312 16.894531 31.34375 15.90625 C 30.238281 14.914062 29.285156 13.976562 28.484375 13.09375 C 30.242188 11.550781 32.367188 9.316406 34.859375 6.390625 C 35.523438 7.117188 36.367188 7.957031 37.390625 8.90625 C 38.421875 9.863281 39.632812 11.003906 41.03125 12.328125 C 40.363281 13.347656 39.535156 14.425781 38.546875 15.5625 C 37.554688 16.707031 36.398438 17.898438 35.078125 19.140625 Z M 43.21875 26.625 C 40.800781 25.007812 38.710938 23.210938 36.953125 21.234375 C 37.984375 20.285156 38.992188 19.296875 39.984375 18.265625 C 40.972656 17.234375 41.941406 16.207031 42.890625 15.1875 C 44.648438 17.382812 46.628906 19.398438 48.828125 21.234375 C 47.660156 22.484375 46.617188 23.546875 45.703125 24.421875 C 44.785156 25.304688 43.957031 26.039062 43.21875 26.625 Z M 43.21875 26.625 "/>
</symbol>
</g>
<g>
<symbol overflow="visible" id="arabic-ccmp:id1:glyph0-0">
<path style="stroke:none;" d="M 5.375 -96.6875 L 69.828125 -96.6875 L 69.828125 0 L 5.375 0 Z M 8.0625 -2.6875 L 67.140625 -2.6875 L 67.140625 -94 L 8.0625 -94 Z M 8.0625 -2.6875 "/>
</symbol>
<symbol overflow="visible" id="arabic-ccmp:id1:glyph0-1">
<path style="stroke:none;" d="M 68.15625 -13.75 L 66.28125 -18.640625 L 88.09375 -27.390625 L 6.984375 -27.390625 L 6.984375 -34 L 88.09375 -34 L 66.28125 -42.75 L 68.15625 -47.640625 L 99.09375 -34.265625 L 99.09375 -27.125 Z M 68.15625 -13.75 "/>
</symbol>
</g>
<g>
<symbol overflow="visible" id="arabic-ccmp:id2:glyph0-0">
<path style="stroke:none;" d="M 8.90625 29.8125 L 8.90625 -116.15625 L 62.046875 -116.15625 L 62.046875 29.8125 Z M 16.828125 21.890625 L 54.125 21.890625 L 54.125 -108.234375 L 16.828125 -108.234375 Z M 16.828125 21.890625 "/>
</symbol>
<symbol overflow="visible" id="arabic-ccmp:id2:glyph0-1">
<path style="stroke:none;" d="M 22.328125 16.828125 C 21.078125 15.796875 19.898438 14.785156 18.796875 13.796875 C 17.703125 12.804688 16.679688 11.800781 15.734375 10.78125 C 16.316406 10.1875 17.15625 9.320312 18.25 8.1875 C 19.351562 7.050781 20.675781 5.675781 22.21875 4.0625 C 23.320312 5.238281 25.335938 7.253906 28.265625 10.109375 C 27.609375 11.066406 26.785156 12.113281 25.796875 13.25 C 24.804688 14.382812 23.648438 15.578125 22.328125 16.828125 Z M 6.59375 18.25 C 5.207031 17.082031 3.960938 16.003906 2.859375 15.015625 C 1.753906 14.023438 0.800781 13.085938 0 12.203125 C 1.757812 10.660156 3.882812 8.425781 6.375 5.5 C 7.039062 6.226562 7.882812 7.066406 8.90625 8.015625 C 9.9375 8.972656 11.148438 10.113281 12.546875 11.4375 C 11.878906 12.457031 11.050781 13.535156 10.0625 14.671875 C 9.070312 15.816406 7.914062 17.007812 6.59375 18.25 Z M 14.734375 25.734375 C 12.316406 24.117188 10.226562 22.320312 8.46875 20.34375 C 9.5 19.394531 10.507812 18.40625 11.5 17.375 C 12.488281 16.34375 13.457031 15.316406 14.40625 14.296875 C 16.164062 16.492188 18.144531 18.507812 20.34375 20.34375 C 19.175781 21.59375 18.132812 22.65625 17.21875 23.53125 C 16.300781 24.414062 15.472656 25.148438 14.734375 25.734375 Z M 14.734375 25.734375 "/>
</symbol>
<symbol overflow="visible" id="arabic-ccmp:id2:glyph0-2">
<path style="stroke:none;" d="M 34.546875 0 C 25.890625 0 19.25 -1.554688 14.625 -4.671875 C 10.007812 -7.785156 7.703125 -12.460938 7.703125 -18.703125 C 7.703125 -23.390625 8.175781 -27.421875 9.125 -30.796875 L 13.09375 -30.796875 C 13.019531 -30.503906 12.945312 -29.753906 12.875 -28.546875 C 12.800781 -27.335938 12.765625 -26.289062 12.765625 -25.40625 C 12.765625 -21.15625 13.566406 -17.875 15.171875 -15.5625 C 16.785156 -13.25 19.351562 -11.472656 22.875 -10.234375 C 26.46875 -8.984375 31.125 -8.359375 36.84375 -8.359375 C 43.664062 -8.359375 50.335938 -9.054688 56.859375 -10.453125 C 63.390625 -11.847656 69.1875 -13.753906 74.25 -16.171875 C 73.882812 -17.710938 73.367188 -19.488281 72.703125 -21.5 C 72.046875 -23.519531 71.242188 -25.773438 70.296875 -28.265625 C 68.898438 -31.929688 68.203125 -34.390625 68.203125 -35.640625 C 68.203125 -37.179688 68.820312 -38.773438 70.0625 -40.421875 C 71.3125 -42.078125 73.109375 -43.5625 75.453125 -44.875 C 76.628906 -39.445312 77.601562 -34.769531 78.375 -30.84375 C 79.144531 -26.925781 79.53125 -23.648438 79.53125 -21.015625 C 79.53125 -18.515625 78.25 -14.773438 75.6875 -9.796875 C 70.84375 -6.710938 64.953125 -4.304688 58.015625 -2.578125 C 51.085938 -0.859375 43.265625 0 34.546875 0 Z M 34.546875 0 "/>
</symbol>
</g>
</defs>
  <g id="arabic-ccmp:id0:id0" transform="matrix(1.25,0,0,1.25,0.0,0.0)"><g id="arabic-ccmp:id0:surface1">
<g style="fill:rgb(0%,0%,0%);fill-opacity:1;">
  <use xlink:href="#arabic-ccmp:id0:glyph0-1" x="16" y="119.59375" class="c0"/>
</g>
</g>
</g>
  <g id="arabic-ccmp:id1:id1" transform="matrix(1.25,0,0,1.25,146.15234375,18.876953125)"><g id="arabic-ccmp:id1:surface1">
<g style="fill:rgb(0%,0%,0%);fill-opacity:1;">
  <use xlink:href="#arabic-ccmp:id1:glyph0-1" x="0" y="120.84375" class="arrow"/>
</g>
</g>
</g>
  <g id="arabic-ccmp:id2:id2" transform="matrix(1.25,0,0,1.25,278.75,0.0)"><g id="arabic-ccmp:id2:surface1">
<g style="fill:rgb(0%,0%,0%);fill-opacity:1;">
  <use xlink:href="#arabic-ccmp:id2:glyph0-1" x="44.484375" y="120.46875" class="c1"/>
  <use xlink:href="#arabic-ccmp:id2:glyph0-2" x="16" y="119.59375" class="c2"/>
</g>
</g>
</g>
</svg>
