<!DOCTYPE svg PUBLIC "-//W3C//DTD SVG 1.1//EN" "http://www.w3.org/Graphics/SVG/1.1/DTD/svg11.dtd">
<!-- Created with svg_stack (http://github.com/astraw/svg_stack) --><svg xmlns="http://www.w3.org/2000/svg" xmlns:sodipodi="http://sodipodi.sourceforge.net/DTD/sodipodi-0.dtd" xmlns:xlink="http://www.w3.org/1999/xlink" version="1.1" width="100%" id="arabic-rlig" viewBox="0 0 347.75390625 239.16015625">
  <defs><g>
<symbol overflow="visible" id="arabic-rlig:id0:glyph0-0">
<path style="stroke:none;" d="M 8.90625 29.8125 L 8.90625 -116.15625 L 62.046875 -116.15625 L 62.046875 29.8125 Z M 16.828125 21.890625 L 54.125 21.890625 L 54.125 -108.234375 L 16.828125 -108.234375 Z M 16.828125 21.890625 "/>
</symbol>
<symbol overflow="visible" id="arabic-rlig:id0:glyph0-1">
<path style="stroke:none;" d="M 28.8125 0 C 24.488281 0 20.894531 -0.859375 18.03125 -2.578125 C 15.175781 -4.304688 13.566406 -6.632812 13.203125 -9.5625 C 12.910156 -12.207031 12.597656 -15.160156 12.265625 -18.421875 C 11.929688 -21.679688 11.582031 -25.546875 11.21875 -30.015625 C 10.851562 -34.492188 10.429688 -39.796875 9.953125 -45.921875 C 9.472656 -52.046875 8.941406 -59.289062 8.359375 -67.65625 C 9.390625 -68.675781 10.523438 -69.71875 11.765625 -70.78125 C 13.015625 -71.84375 14.375 -72.851562 15.84375 -73.8125 C 16.0625 -68.09375 16.242188 -62.445312 16.390625 -56.875 C 16.535156 -51.300781 16.660156 -45.414062 16.765625 -39.21875 C 16.878906 -33.019531 16.972656 -26.144531 17.046875 -18.59375 L 17.375 -11.21875 C 20.820312 -9.3125 24.632812 -8.359375 28.8125 -8.359375 C 29.40625 -8.359375 29.703125 -8.066406 29.703125 -7.484375 L 29.703125 -0.875 C 29.703125 -0.289062 29.40625 0 28.8125 0 Z M 5.28125 -77.65625 L 4.953125 -81.953125 L 9.34375 -84.375 C 6.632812 -84.8125 5.28125 -86.273438 5.28125 -88.765625 C 5.28125 -90.160156 5.679688 -91.515625 6.484375 -92.828125 C 7.296875 -94.148438 8.34375 -95.25 9.625 -96.125 C 10.90625 -97.007812 12.171875 -97.453125 13.421875 -97.453125 C 16.273438 -97.453125 17.703125 -96.097656 17.703125 -93.390625 C 17.703125 -92.359375 17.445312 -91.367188 16.9375 -90.421875 L 14.84375 -90.96875 L 14.953125 -91.40625 C 14.953125 -91.769531 14.804688 -92.097656 14.515625 -92.390625 C 14.222656 -92.691406 13.894531 -92.84375 13.53125 -92.84375 C 12.351562 -92.84375 11.304688 -92.421875 10.390625 -91.578125 C 9.472656 -90.734375 8.796875 -89.757812 8.359375 -88.65625 C 9.609375 -87.1875 11.367188 -86.453125 13.640625 -86.453125 C 14.960938 -86.453125 16.757812 -86.675781 19.03125 -87.125 L 18.8125 -82.9375 C 15.800781 -82.207031 13.320312 -81.4375 11.375 -80.625 C 9.4375 -79.820312 7.40625 -78.832031 5.28125 -77.65625 Z M 5.28125 -77.65625 "/>
</symbol>
<symbol overflow="visible" id="arabic-rlig:id0:glyph0-2">
<path style="stroke:none;" d="M -0.109375 0 C -0.765625 0 -1.09375 -0.289062 -1.09375 -0.875 L -1.09375 -7.484375 C -1.09375 -8.066406 -0.765625 -8.359375 -0.109375 -8.359375 C 4.285156 -8.359375 8.351562 -9.347656 12.09375 -11.328125 C 11.875 -14.117188 11.65625 -16.867188 11.4375 -19.578125 C 11.21875 -22.296875 11 -24.972656 10.78125 -27.609375 C 10.125 -34.503906 9.460938 -41.285156 8.796875 -47.953125 C 8.140625 -54.628906 7.40625 -61.195312 6.59375 -67.65625 C 7.625 -68.75 8.742188 -69.804688 9.953125 -70.828125 C 11.160156 -71.859375 12.460938 -72.851562 13.859375 -73.8125 C 14.078125 -69.851562 14.332031 -65.285156 14.625 -60.109375 C 14.914062 -54.941406 15.285156 -49.132812 15.734375 -42.6875 C 16.097656 -37.332031 16.351562 -32.328125 16.5 -27.671875 C 16.644531 -23.015625 16.753906 -18.738281 16.828125 -14.84375 C 16.828125 -13.601562 16.457031 -11.9375 15.71875 -9.84375 C 14.988281 -7.75 14.078125 -5.75 12.984375 -3.84375 C 11.660156 -1.28125 7.296875 0 -0.109375 0 Z M -0.109375 0 "/>
</symbol>
</g>
<g>
<symbol overflow="visible" id="arabic-rlig:id1:glyph0-0">
<path style="stroke:none;" d="M 5.375 -96.6875 L 69.828125 -96.6875 L 69.828125 0 L 5.375 0 Z M 8.0625 -2.6875 L 67.140625 -2.6875 L 67.140625 -94 L 8.0625 -94 Z M 8.0625 -2.6875 "/>
</symbol>
<symbol overflow="visible" id="arabic-rlig:id1:glyph0-1">
<path style="stroke:none;" d="M 68.15625 -13.75 L 66.28125 -18.640625 L 88.09375 -27.390625 L 6.984375 -27.390625 L 6.984375 -34 L 88.09375 -34 L 66.28125 -42.75 L 68.15625 -47.640625 L 99.09375 -34.265625 L 99.09375 -27.125 Z M 68.15625 -13.75 "/>
</symbol>
</g>
<g>
<symbol overflow="visible" id="arabic-rlig:id2:glyph0-0">
<path style="stroke:none;" d="M 8.90625 29.8125 L 8.90625 -116.15625 L 62.046875 -116.15625 L 62.046875 29.8125 Z M 16.828125 21.890625 L 54.125 21.890625 L 54.125 -108.234375 L 16.828125 -108.234375 Z M 16.828125 21.890625 "/>
</symbol>
<symbol overflow="visible" id="arabic-rlig:id2:glyph0-1">
<path style="stroke:none;" d="M 15.0625 0 C 14.84375 -0.21875 14.734375 -0.617188 14.734375 -1.203125 C 14.734375 -1.941406 14.828125 -2.859375 15.015625 -3.953125 C 15.203125 -5.054688 15.441406 -6.066406 15.734375 -6.984375 C 16.023438 -7.898438 16.242188 -8.359375 16.390625 -8.359375 C 18.515625 -8.359375 20.785156 -8.394531 23.203125 -8.46875 C 25.628906 -8.539062 28.160156 -8.648438 30.796875 -8.796875 C 33.441406 -8.941406 36.140625 -9.160156 38.890625 -9.453125 C 41.640625 -9.753906 44.332031 -10.125 46.96875 -10.5625 C 45.5 -13.34375 43.570312 -16.289062 41.1875 -19.40625 C 38.8125 -22.53125 36.117188 -25.59375 33.109375 -28.59375 C 30.171875 -31.675781 26.976562 -34.59375 23.53125 -37.34375 C 20.09375 -40.09375 16.648438 -42.457031 13.203125 -44.4375 L 9.125 -44.21875 C 7.8125 -45.46875 6.582031 -46.898438 5.4375 -48.515625 C 4.300781 -50.128906 3.734375 -51.738281 3.734375 -53.34375 C 3.734375 -54.59375 3.972656 -55.765625 4.453125 -56.859375 C 4.929688 -57.960938 5.976562 -58.921875 7.59375 -59.734375 C 10.820312 -57.535156 14.78125 -54.414062 19.46875 -50.375 C 22.769531 -47.59375 26.125 -44.566406 29.53125 -41.296875 C 32.945312 -38.035156 35.898438 -34.90625 38.390625 -31.90625 C 39.421875 -30.726562 40.648438 -29.054688 42.078125 -26.890625 C 43.503906 -24.734375 44.914062 -22.441406 46.3125 -20.015625 C 47.707031 -17.597656 48.878906 -15.398438 49.828125 -13.421875 C 50.785156 -11.441406 51.265625 -10.046875 51.265625 -9.234375 C 51.265625 -8.722656 51.078125 -7.878906 50.703125 -6.703125 C 50.335938 -5.535156 49.898438 -4.457031 49.390625 -3.46875 C 48.878906 -2.476562 48.398438 -1.945312 47.953125 -1.875 C 46.859375 -1.726562 45.171875 -1.523438 42.890625 -1.265625 C 40.617188 -1.003906 38.273438 -0.78125 35.859375 -0.59375 C 33.441406 -0.414062 31.390625 -0.289062 29.703125 -0.21875 C 29.035156 -0.21875 28.023438 -0.195312 26.671875 -0.15625 C 25.316406 -0.125 23.832031 -0.0859375 22.21875 -0.046875 C 20.601562 -0.015625 19.15625 0 17.875 0 C 16.59375 0 15.65625 0 15.0625 0 Z M -0.65625 -63.578125 L -0.984375 -67.875 L 3.40625 -70.296875 C 0.695312 -70.734375 -0.65625 -72.195312 -0.65625 -74.6875 C -0.65625 -76.082031 -0.253906 -77.4375 0.546875 -78.75 C 1.359375 -80.070312 2.40625 -81.171875 3.6875 -82.046875 C 4.96875 -82.929688 6.234375 -83.375 7.484375 -83.375 C 10.335938 -83.375 11.765625 -82.019531 11.765625 -79.3125 C 11.765625 -78.28125 11.507812 -77.289062 11 -76.34375 L 8.90625 -76.890625 L 9.015625 -77.328125 C 9.015625 -77.691406 8.867188 -78.019531 8.578125 -78.3125 C 8.285156 -78.613281 7.957031 -78.765625 7.59375 -78.765625 C 6.414062 -78.765625 5.367188 -78.34375 4.453125 -77.5 C 3.535156 -76.65625 2.859375 -75.679688 2.421875 -74.578125 C 3.671875 -73.109375 5.429688 -72.375 7.703125 -72.375 C 9.023438 -72.375 10.820312 -72.597656 13.09375 -73.046875 L 12.875 -68.859375 C 9.863281 -68.128906 7.382812 -67.359375 5.4375 -66.546875 C 3.5 -65.742188 1.46875 -64.753906 -0.65625 -63.578125 Z M -0.65625 -63.578125 "/>
</symbol>
<symbol overflow="visible" id="arabic-rlig:id2:glyph0-2">
<path style="stroke:none;" d="M 25.40625 -7.265625 L 18.046875 -7.8125 C 21.265625 -10.300781 24.300781 -12.773438 27.15625 -15.234375 C 30.019531 -17.691406 32.519531 -20.203125 34.65625 -22.765625 C 36.78125 -25.335938 38.484375 -28.035156 39.765625 -30.859375 C 41.046875 -33.679688 41.6875 -36.664062 41.6875 -39.8125 C 41.6875 -40.914062 41.578125 -42.492188 41.359375 -44.546875 C 41.140625 -46.597656 40.847656 -48.867188 40.484375 -51.359375 C 40.117188 -53.859375 39.75 -56.28125 39.375 -58.625 C 39.007812 -60.976562 38.71875 -63.070312 38.5 -64.90625 C 38.28125 -66.738281 38.171875 -68.019531 38.171875 -68.75 C 38.171875 -70.726562 38.8125 -72.265625 40.09375 -73.359375 C 41.375 -74.460938 43.15625 -75.238281 45.4375 -75.6875 C 46.019531 -73.40625 46.582031 -71.289062 47.125 -69.34375 C 47.675781 -67.40625 48.429688 -65.15625 49.390625 -62.59375 L 46.421875 -60.0625 C 46.421875 -59.695312 46.472656 -58.632812 46.578125 -56.875 C 46.691406 -55.113281 46.785156 -53.148438 46.859375 -50.984375 C 46.929688 -48.816406 47.003906 -46.867188 47.078125 -45.140625 C 47.148438 -43.421875 47.1875 -42.378906 47.1875 -42.015625 C 47.1875 -38.128906 46.5625 -34.460938 45.3125 -31.015625 C 44.070312 -27.566406 42.425781 -24.378906 40.375 -21.453125 C 38.320312 -18.515625 35.992188 -15.851562 33.390625 -13.46875 C 30.785156 -11.09375 28.125 -9.023438 25.40625 -7.265625 Z M 25.40625 -7.265625 "/>
</symbol>
</g>
</defs>
  <g id="arabic-rlig:id0:id0" transform="matrix(1.25,0,0,1.25,0.0,0.0)"><g id="arabic-rlig:id0:surface1">
<g style="fill:rgb(0%,0%,0%);fill-opacity:1;">
  <use xlink:href="#arabic-rlig:id0:glyph0-1" x="16" y="119.59375" class="c1"/>
  <use xlink:href="#arabic-rlig:id0:glyph0-2" x="43.828125" y="119.59375" class="c0"/>
</g>
</g>
</g>
  <g id="arabic-rlig:id1:id1" transform="matrix(1.25,0,0,1.25,103.92578125,18.876953125)"><g id="arabic-rlig:id1:surface1">
<g style="fill:rgb(0%,0%,0%);fill-opacity:1;">
  <use xlink:href="#arabic-rlig:id1:glyph0-1" x="0" y="120.84375" class="arrow"/>
</g>
</g>
</g>
  <g id="arabic-rlig:id2:id2" transform="matrix(1.25,0,0,1.25,236.5234375,0.0)"><g id="arabic-rlig:id2:surface1">
<g style="fill:rgb(0%,0%,0%);fill-opacity:1;">
  <use xlink:href="#arabic-rlig:id2:glyph0-1" x="16" y="119.59375" class="c2"/>
  <use xlink:href="#arabic-rlig:id2:glyph0-2" x="16" y="119.59375" class="c2"/>
</g>
</g>
</g>
</svg>