<!DOCTYPE svg PUBLIC "-//W3C//DTD SVG 1.1//EN" "http://www.w3.org/Graphics/SVG/1.1/DTD/svg11.dtd">
<!-- Created with svg_stack (http://github.com/astraw/svg_stack) --><svg xmlns="http://www.w3.org/2000/svg" xmlns:sodipodi="http://sodipodi.sourceforge.net/DTD/sodipodi-0.dtd" xmlns:xlink="http://www.w3.org/1999/xlink" version="1.1" width="100%" id="arabic-isol" viewBox="0 0 333.203125 348.75">
  <defs><g>
<symbol overflow="visible" id="arabic-isol:id0:glyph0-0">
<path style="stroke:none;" d="M 7.8125 0 L 7.8125 -131.671875 L 91.1875 -131.671875 L 91.1875 0 Z M 17.046875 -9.234375 L 81.953125 -9.234375 L 81.953125 -122.4375 L 17.046875 -122.4375 Z M 17.046875 -9.234375 "/>
</symbol>
<symbol overflow="visible" id="arabic-isol:id0:glyph0-1">
<path style="stroke:none;" d="M -2.859375 -4.734375 C -3.441406 -4.734375 -3.972656 -4.734375 -4.453125 -4.734375 C -4.929688 -4.734375 -5.390625 -4.769531 -5.828125 -4.84375 L -5.609375 -7.375 C 2.753906 -8.757812 11.40625 -12.164062 20.34375 -17.59375 C 16.90625 -18.257812 14.414062 -19.25 12.875 -20.5625 C 11.332031 -21.882812 10.5625 -23.90625 10.5625 -26.625 C 10.5625 -29.1875 11.457031 -32.300781 13.25 -35.96875 C 15.050781 -39.632812 17.640625 -42.9375 21.015625 -45.875 L 21.015625 -46.640625 C 21.015625 -49.054688 22.585938 -52.429688 25.734375 -56.765625 L 26.734375 -56.546875 C 27.679688 -54.410156 31.203125 -51.84375 37.296875 -48.84375 C 44.328125 -45.394531 48.984375 -42.828125 51.265625 -41.140625 C 53.460938 -39.453125 55.019531 -37.691406 55.9375 -35.859375 C 56.851562 -34.023438 57.3125 -31.972656 57.3125 -29.703125 C 57.3125 -26.617188 56.78125 -23.941406 55.71875 -21.671875 C 54.65625 -19.398438 53.390625 -17.640625 51.921875 -16.390625 C 50.378906 -15.066406 48.175781 -14.40625 45.3125 -14.40625 C 41.207031 -14.40625 36.40625 -14.847656 30.90625 -15.734375 C 29.070312 -13.535156 27.179688 -11.863281 25.234375 -10.71875 C 23.296875 -9.582031 20.601562 -8.503906 17.15625 -7.484375 C 15.539062 -7.035156 13.890625 -6.628906 12.203125 -6.265625 C 10.523438 -5.898438 8.769531 -5.609375 6.9375 -5.390625 C 3.34375 -4.953125 0.078125 -4.734375 -2.859375 -4.734375 Z M 29.8125 -25.078125 C 32.445312 -27.867188 33.765625 -30.546875 33.765625 -33.109375 C 33.765625 -35.085938 33.304688 -36.679688 32.390625 -37.890625 C 31.472656 -39.097656 30.375 -39.976562 29.09375 -40.53125 C 27.8125 -41.082031 26.617188 -41.359375 25.515625 -41.359375 C 24.203125 -41.359375 22.863281 -40.863281 21.5 -39.875 C 20.144531 -38.882812 18.988281 -37.671875 18.03125 -36.234375 C 17.082031 -34.804688 16.609375 -33.4375 16.609375 -32.125 C 16.609375 -31.3125 16.828125 -30.484375 17.265625 -29.640625 C 17.710938 -28.796875 18.851562 -27.988281 20.6875 -27.21875 C 22.519531 -26.445312 25.5625 -25.734375 29.8125 -25.078125 Z M 49.5 -22.875 L 51.046875 -22.875 C 51.410156 -22.875 51.738281 -23.1875 52.03125 -23.8125 C 52.320312 -24.4375 52.46875 -25.003906 52.46875 -25.515625 C 52.46875 -27.867188 51.273438 -29.757812 48.890625 -31.1875 C 46.503906 -32.613281 43.257812 -34.0625 39.15625 -35.53125 C 39.007812 -33.40625 38.695312 -31.390625 38.21875 -29.484375 C 37.75 -27.578125 37.179688 -25.78125 36.515625 -24.09375 C 39.523438 -23.65625 42.09375 -23.34375 44.21875 -23.15625 C 46.34375 -22.96875 48.101562 -22.875 49.5 -22.875 Z M 49.5 -22.875 "/>
</symbol>
</g>
<g>
<symbol overflow="visible" id="arabic-isol:id1:glyph0-0">
<path style="stroke:none;" d="M 5.375 -96.6875 L 69.828125 -96.6875 L 69.828125 0 L 5.375 0 Z M 8.0625 -2.6875 L 67.140625 -2.6875 L 67.140625 -94 L 8.0625 -94 Z M 8.0625 -2.6875 "/>
</symbol>
<symbol overflow="visible" id="arabic-isol:id1:glyph0-1">
<path style="stroke:none;" d="M 68.15625 -13.75 L 66.28125 -18.640625 L 88.09375 -27.390625 L 6.984375 -27.390625 L 6.984375 -34 L 88.09375 -34 L 66.28125 -42.75 L 68.15625 -47.640625 L 99.09375 -34.265625 L 99.09375 -27.125 Z M 68.15625 -13.75 "/>
</symbol>
</g>
<g>
<symbol overflow="visible" id="arabic-isol:id2:glyph0-0">
<path style="stroke:none;" d="M 7.8125 0 L 7.8125 -131.671875 L 91.1875 -131.671875 L 91.1875 0 Z M 17.046875 -9.234375 L 81.953125 -9.234375 L 81.953125 -122.4375 L 17.046875 -122.4375 Z M 17.046875 -9.234375 "/>
</symbol>
<symbol overflow="visible" id="arabic-isol:id2:glyph0-1">
<path style="stroke:none;" d="M 9.90625 0.765625 C 7.332031 0.765625 5.238281 -0.113281 3.625 -1.875 C 2.007812 -3.632812 1.203125 -5.757812 1.203125 -8.25 C 1.203125 -16.019531 4.066406 -23.242188 9.796875 -29.921875 C 9.492188 -30.210938 9.34375 -30.757812 9.34375 -31.5625 C 9.34375 -32.445312 9.632812 -33.601562 10.21875 -35.03125 C 10.8125 -36.46875 11.546875 -37.898438 12.421875 -39.328125 C 13.304688 -40.753906 14.222656 -41.960938 15.171875 -42.953125 C 16.128906 -43.941406 17.007812 -44.4375 17.8125 -44.4375 C 19.875 -44.4375 22.003906 -43.644531 24.203125 -42.0625 C 26.398438 -40.488281 28.125 -38.457031 29.375 -35.96875 C 30.03125 -34.644531 30.539062 -33.101562 30.90625 -31.34375 C 31.269531 -29.582031 31.453125 -27.601562 31.453125 -25.40625 C 31.453125 -22.101562 30.898438 -18.894531 29.796875 -15.78125 C 28.703125 -12.664062 27.164062 -9.859375 25.1875 -7.359375 C 23.207031 -4.867188 20.914062 -2.890625 18.3125 -1.421875 C 15.707031 0.0351562 12.90625 0.765625 9.90625 0.765625 Z M 14.296875 -8.25 C 17.304688 -8.25 19.597656 -9 21.171875 -10.5 C 22.753906 -12.007812 23.546875 -13.898438 23.546875 -16.171875 C 23.546875 -18.585938 22.789062 -21.003906 21.28125 -23.421875 C 19.78125 -25.847656 17.304688 -27.425781 13.859375 -28.15625 C 9.972656 -24.050781 8.03125 -19.46875 8.03125 -14.40625 C 8.03125 -12.425781 8.597656 -10.90625 9.734375 -9.84375 C 10.867188 -8.78125 12.390625 -8.25 14.296875 -8.25 Z M 14.296875 -8.25 "/>
</symbol>
</g>
</defs>
  <g id="arabic-isol:id0:id0" transform="matrix(1.25,0,0,1.25,0.0,0.0)"><g id="arabic-isol:id0:surface1">
<g style="fill:rgb(0%,0%,0%);fill-opacity:1;">
  <use xlink:href="#arabic-isol:id0:glyph0-1" x="16" y="211.4375" class="c0"/>
</g>
</g>
</g>
  <g id="arabic-isol:id1:id1" transform="matrix(1.25,0,0,1.25,117.421875,73.671875)"><g id="arabic-isol:id1:surface1">
<g style="fill:rgb(0%,0%,0%);fill-opacity:1;">
  <use xlink:href="#arabic-isol:id1:glyph0-1" x="0" y="120.84375" class="arrow"/>
</g>
</g>
</g>
  <g id="arabic-isol:id2:id2" transform="matrix(1.25,0,0,1.25,250.01953125,0.0)"><g id="arabic-isol:id2:surface1">
<g style="fill:rgb(0%,0%,0%);fill-opacity:1;">
  <use xlink:href="#arabic-isol:id2:glyph0-1" x="16" y="211.4375" class="c0"/>
</g>
</g>
</g>
</svg>