<!DOCTYPE svg PUBLIC "-//W3C//DTD SVG 1.1//EN" "http://www.w3.org/Graphics/SVG/1.1/DTD/svg11.dtd">
<!-- Created with svg_stack (http://github.com/astraw/svg_stack) --><svg xmlns="http://www.w3.org/2000/svg" xmlns:sodipodi="http://sodipodi.sourceforge.net/DTD/sodipodi-0.dtd" xmlns:xlink="http://www.w3.org/1999/xlink" version="1.1" width="100%" id="arabic-calt" viewBox="0 0 485.83984375 348.75">
  <defs><g>
<symbol overflow="visible" id="arabic-calt:id0:glyph0-0">
<path style="stroke:none;" d="M 7.8125 0 L 7.8125 -131.671875 L 91.1875 -131.671875 L 91.1875 0 Z M 17.046875 -9.234375 L 81.953125 -9.234375 L 81.953125 -122.4375 L 17.046875 -122.4375 Z M 17.046875 -9.234375 "/>
</symbol>
<symbol overflow="visible" id="arabic-calt:id0:glyph0-1">
<path style="stroke:none;" d="M 3.40625 65.78125 C 3.1875 60.5 3.078125 53.09375 3.078125 43.5625 C 3.078125 35.125 3.148438 27.660156 3.296875 21.171875 C 3.441406 14.679688 3.828125 8.832031 4.453125 3.625 C 5.078125 -1.582031 6.015625 -6.457031 7.265625 -11 C 9.972656 -20.601562 14.332031 -29 20.34375 -36.1875 C 26.363281 -43.375 34.175781 -48.984375 43.78125 -53.015625 C 45.757812 -58.367188 47.644531 -62.398438 49.4375 -65.109375 C 51.238281 -67.828125 53.238281 -69.1875 55.4375 -69.1875 C 56.320312 -69.1875 57.566406 -69.019531 59.171875 -68.6875 C 60.785156 -68.363281 62.4375 -67.890625 64.125 -67.265625 C 65.8125 -66.640625 67.257812 -65.882812 68.46875 -65 C 69.6875 -64.125 70.296875 -63.140625 70.296875 -62.046875 C 70.296875 -60.941406 69.945312 -59.414062 69.25 -57.46875 C 68.550781 -55.53125 67.671875 -53.515625 66.609375 -51.421875 C 65.546875 -49.335938 64.390625 -47.488281 63.140625 -45.875 C 62.253906 -44.695312 61.257812 -43.796875 60.15625 -43.171875 C 59.0625 -42.546875 57.859375 -42.085938 56.546875 -41.796875 C 48.835938 -40.328125 42.398438 -38.640625 37.234375 -36.734375 C 32.066406 -34.828125 27.867188 -32.609375 24.640625 -30.078125 C 21.410156 -27.554688 18.914062 -24.625 17.15625 -21.28125 C 15.394531 -17.945312 14.113281 -14.15625 13.3125 -9.90625 C 12.726562 -6.96875 12.210938 -3.410156 11.765625 0.765625 C 11.328125 4.953125 10.925781 9.425781 10.5625 14.1875 C 10.195312 18.957031 9.863281 23.78125 9.5625 28.65625 C 9.269531 33.53125 9.015625 38.128906 8.796875 42.453125 C 8.503906 47.585938 8.226562 52.078125 7.96875 55.921875 C 7.71875 59.773438 7.484375 63.0625 7.265625 65.78125 Z M 3.40625 65.78125 "/>
</symbol>
<symbol overflow="visible" id="arabic-calt:id0:glyph0-2">
<path style="stroke:none;" d="M 0 0 C -3.082031 0 -4.625 -2.085938 -4.625 -6.265625 C -4.625 -8.546875 -4.273438 -10.363281 -3.578125 -11.71875 C -2.878906 -13.070312 -2.109375 -14.113281 -1.265625 -14.84375 C -0.421875 -15.582031 0.21875 -16.023438 0.65625 -16.171875 C 0.726562 -17.191406 1.039062 -18.726562 1.59375 -20.78125 C 2.144531 -22.84375 2.96875 -25.191406 4.0625 -27.828125 C 5.164062 -30.472656 6.488281 -33.113281 8.03125 -35.75 C 10.226562 -39.414062 12.460938 -42.035156 14.734375 -43.609375 C 17.015625 -45.191406 19.726562 -45.984375 22.875 -45.984375 C 26.832031 -45.984375 31.488281 -44.992188 36.84375 -43.015625 C 39.414062 -42.054688 41.617188 -41.300781 43.453125 -40.75 C 45.285156 -40.207031 46.675781 -39.785156 47.625 -39.484375 L 47.953125 -38.171875 C 43.117188 -30.691406 38.351562 -24.070312 33.65625 -18.3125 C 28.96875 -12.5625 23.925781 -8.070312 18.53125 -4.84375 C 13.144531 -1.613281 6.96875 0 0 0 Z M 4.625 -17.375 L 5.5 -17.375 C 9.820312 -17.375 14.035156 -17.867188 18.140625 -18.859375 C 22.253906 -19.847656 26.015625 -21.351562 29.421875 -23.375 C 32.835938 -25.394531 35.570312 -27.867188 37.625 -30.796875 C 34.25 -32.046875 31.148438 -33.019531 28.328125 -33.71875 C 25.503906 -34.414062 22.992188 -34.765625 20.796875 -34.765625 C 17.492188 -34.765625 14.738281 -33.882812 12.53125 -32.125 C 10.332031 -30.363281 8.609375 -28.160156 7.359375 -25.515625 C 6.117188 -22.878906 5.207031 -20.164062 4.625 -17.375 Z M 4.625 -17.375 "/>
</symbol>
</g>
<g>
<symbol overflow="visible" id="arabic-calt:id1:glyph0-0">
<path style="stroke:none;" d="M 5.375 -96.6875 L 69.828125 -96.6875 L 69.828125 0 L 5.375 0 Z M 8.0625 -2.6875 L 67.140625 -2.6875 L 67.140625 -94 L 8.0625 -94 Z M 8.0625 -2.6875 "/>
</symbol>
<symbol overflow="visible" id="arabic-calt:id1:glyph0-1">
<path style="stroke:none;" d="M 68.15625 -13.75 L 66.28125 -18.640625 L 88.09375 -27.390625 L 6.984375 -27.390625 L 6.984375 -34 L 88.09375 -34 L 66.28125 -42.75 L 68.15625 -47.640625 L 99.09375 -34.265625 L 99.09375 -27.125 Z M 68.15625 -13.75 "/>
</symbol>
</g>
<g>
<symbol overflow="visible" id="arabic-calt:id2:glyph0-0">
<path style="stroke:none;" d="M 7.8125 0 L 7.8125 -131.671875 L 91.1875 -131.671875 L 91.1875 0 Z M 17.046875 -9.234375 L 81.953125 -9.234375 L 81.953125 -122.4375 L 17.046875 -122.4375 Z M 17.046875 -9.234375 "/>
</symbol>
<symbol overflow="visible" id="arabic-calt:id2:glyph0-1">
<path style="stroke:none;" d="M 3.40625 65.78125 C 3.1875 60.5 3.078125 53.09375 3.078125 43.5625 C 3.078125 35.125 3.148438 27.660156 3.296875 21.171875 C 3.441406 14.679688 3.828125 8.832031 4.453125 3.625 C 5.078125 -1.582031 6.015625 -6.457031 7.265625 -11 C 9.972656 -20.601562 14.332031 -29 20.34375 -36.1875 C 26.363281 -43.375 34.175781 -48.984375 43.78125 -53.015625 C 45.757812 -58.367188 47.644531 -62.398438 49.4375 -65.109375 C 51.238281 -67.828125 53.238281 -69.1875 55.4375 -69.1875 C 56.320312 -69.1875 57.566406 -69.019531 59.171875 -68.6875 C 60.785156 -68.363281 62.4375 -67.890625 64.125 -67.265625 C 65.8125 -66.640625 67.257812 -65.882812 68.46875 -65 C 69.6875 -64.125 70.296875 -63.140625 70.296875 -62.046875 C 70.296875 -60.941406 69.945312 -59.414062 69.25 -57.46875 C 68.550781 -55.53125 67.671875 -53.515625 66.609375 -51.421875 C 65.546875 -49.335938 64.390625 -47.488281 63.140625 -45.875 C 62.253906 -44.695312 61.257812 -43.796875 60.15625 -43.171875 C 59.0625 -42.546875 57.859375 -42.085938 56.546875 -41.796875 C 48.835938 -40.328125 42.398438 -38.640625 37.234375 -36.734375 C 32.066406 -34.828125 27.867188 -32.609375 24.640625 -30.078125 C 21.410156 -27.554688 18.914062 -24.625 17.15625 -21.28125 C 15.394531 -17.945312 14.113281 -14.15625 13.3125 -9.90625 C 12.726562 -6.96875 12.210938 -3.410156 11.765625 0.765625 C 11.328125 4.953125 10.925781 9.425781 10.5625 14.1875 C 10.195312 18.957031 9.863281 23.78125 9.5625 28.65625 C 9.269531 33.53125 9.015625 38.128906 8.796875 42.453125 C 8.503906 47.585938 8.226562 52.078125 7.96875 55.921875 C 7.71875 59.773438 7.484375 63.0625 7.265625 65.78125 Z M 3.40625 65.78125 "/>
</symbol>
<symbol overflow="visible" id="arabic-calt:id2:glyph0-2">
<path style="stroke:none;" d=""/>
</symbol>
<symbol overflow="visible" id="arabic-calt:id2:glyph0-3">
<path style="stroke:none;" d="M 0.21875 5.0625 C -0.144531 5.0625 -0.507812 4.953125 -0.875 4.734375 C -1.25 4.515625 -1.4375 4.144531 -1.4375 3.625 C -1.4375 2.675781 -0.957031 1.46875 0 0 C 1.101562 -1.6875 2.898438 -3.570312 5.390625 -5.65625 C 7.878906 -7.75 11.144531 -9.710938 15.1875 -11.546875 C 17.457031 -12.578125 20.054688 -13.695312 22.984375 -14.90625 C 25.921875 -16.113281 28.816406 -17.265625 31.671875 -18.359375 C 34.535156 -19.460938 36.921875 -20.273438 38.828125 -20.796875 C 39.191406 -20.941406 40.050781 -21.234375 41.40625 -21.671875 C 42.769531 -22.109375 44.273438 -22.601562 45.921875 -23.15625 C 47.578125 -23.707031 48.988281 -24.203125 50.15625 -24.640625 C 49.351562 -24.929688 47.925781 -25.351562 45.875 -25.90625 C 43.820312 -26.457031 41.398438 -26.96875 38.609375 -27.4375 C 35.828125 -27.914062 32.894531 -28.15625 29.8125 -28.15625 C 27.46875 -28.15625 25.414062 -27.804688 23.65625 -27.109375 C 21.894531 -26.410156 20.207031 -25.109375 18.59375 -23.203125 L 15.953125 -24.3125 C 17.191406 -26.726562 18.707031 -29.054688 20.5 -31.296875 C 22.300781 -33.535156 24.519531 -35.382812 27.15625 -36.84375 C 29.800781 -38.3125 32.882812 -39.046875 36.40625 -39.046875 C 38.09375 -39.046875 40.164062 -38.84375 42.625 -38.4375 C 45.082031 -38.039062 47.628906 -37.492188 50.265625 -36.796875 C 52.910156 -36.097656 55.332031 -35.34375 57.53125 -34.53125 C 59.726562 -33.726562 61.378906 -32.890625 62.484375 -32.015625 L 62.59375 -31.234375 C 60.976562 -28.015625 59.050781 -25.488281 56.8125 -23.65625 C 54.570312 -21.820312 51.953125 -20.171875 48.953125 -18.703125 C 48.210938 -18.335938 46.796875 -17.785156 44.703125 -17.046875 C 42.617188 -16.316406 40.382812 -15.566406 38 -14.796875 C 35.625 -14.023438 33.519531 -13.3125 31.6875 -12.65625 C 25.738281 -10.59375 21.019531 -8.753906 17.53125 -7.140625 C 14.050781 -5.535156 11.46875 -4.144531 9.78125 -2.96875 C 8.101562 -1.789062 6.96875 -0.816406 6.375 -0.046875 C 5.789062 0.710938 5.390625 1.316406 5.171875 1.765625 C 4.515625 2.929688 3.6875 3.769531 2.6875 4.28125 C 1.695312 4.800781 0.875 5.0625 0.21875 5.0625 Z M 0.21875 5.0625 "/>
</symbol>
</g>
</defs>
  <g id="arabic-calt:id0:id0" transform="matrix(1.25,0,0,1.25,0.0,0.0)"><g id="arabic-calt:id0:surface1">
<g style="fill:rgb(0%,0%,0%);fill-opacity:1;">
  <use xlink:href="#arabic-calt:id0:glyph0-1" x="16" y="211.4375" class="c1"/>
  <use xlink:href="#arabic-calt:id0:glyph0-2" x="64.1875" y="148.421875" class="c0"/>
</g>
</g>
</g>
  <g id="arabic-calt:id1:id1" transform="matrix(1.25,0,0,1.25,168.1640625,73.671875)"><g id="arabic-calt:id1:surface1">
<g style="fill:rgb(0%,0%,0%);fill-opacity:1;">
  <use xlink:href="#arabic-calt:id1:glyph0-1" x="0" y="120.84375" class="arrow"/>
</g>
</g>
</g>
  <g id="arabic-calt:id2:id2" transform="matrix(1.25,0,0,1.25,300.76171875,0.0)"><g id="arabic-calt:id2:surface1">
<g style="fill:rgb(0%,0%,0%);fill-opacity:1;">
  <use xlink:href="#arabic-calt:id2:glyph0-1" x="16" y="211.4375" class="c1"/>
  <use xlink:href="#arabic-calt:id2:glyph0-2" x="64.1875" y="211.4375" class="z"/>
  <use xlink:href="#arabic-calt:id2:glyph0-3" x="64.1875" y="148.421875" class="c0"/>
</g>
</g>
</g>
</svg>