<!DOCTYPE svg PUBLIC "-//W3C//DTD SVG 1.1//EN" "http://www.w3.org/Graphics/SVG/1.1/DTD/svg11.dtd">
<!-- Created with svg_stack (http://github.com/astraw/svg_stack) --><svg xmlns="http://www.w3.org/2000/svg" xmlns:sodipodi="http://sodipodi.sourceforge.net/DTD/sodipodi-0.dtd" xmlns:xlink="http://www.w3.org/1999/xlink" version="1.1" width="723.26171875" height="239.16015625" id="arabic-medi">
  <defs><g>
<symbol overflow="visible" id="arabic-medi:id0:glyph0-0">
<path style="stroke:none;" d="M 8.90625 29.8125 L 8.90625 -116.15625 L 62.046875 -116.15625 L 62.046875 29.8125 Z M 16.828125 21.890625 L 54.125 21.890625 L 54.125 -108.234375 L 16.828125 -108.234375 Z M 16.828125 21.890625 "/>
</symbol>
<symbol overflow="visible" id="arabic-medi:id0:glyph0-1">
<path style="stroke:none;" d="M 32.671875 -39.484375 C 30.765625 -39.484375 29.8125 -40.472656 29.8125 -42.453125 C 29.8125 -44.359375 30.765625 -45.3125 32.671875 -45.3125 C 34.578125 -45.3125 35.53125 -44.359375 35.53125 -42.453125 C 35.53125 -40.472656 34.578125 -39.484375 32.671875 -39.484375 Z M 23.3125 -37.625 C 21.40625 -37.625 20.453125 -38.578125 20.453125 -40.484375 C 20.453125 -42.460938 21.40625 -43.453125 23.3125 -43.453125 C 25.300781 -43.453125 26.296875 -42.460938 26.296875 -40.484375 C 26.296875 -38.578125 25.300781 -37.625 23.3125 -37.625 Z M 42.125 -37.625 C 40.070312 -37.625 39.046875 -38.578125 39.046875 -40.484375 C 39.046875 -42.460938 40.070312 -43.453125 42.125 -43.453125 C 43.957031 -43.453125 44.875 -42.460938 44.875 -40.484375 C 44.875 -38.578125 43.957031 -37.625 42.125 -37.625 Z M 15.40625 -32.34375 C 13.5 -32.34375 12.546875 -33.257812 12.546875 -35.09375 C 12.546875 -37.144531 13.5 -38.171875 15.40625 -38.171875 C 17.382812 -38.171875 18.375 -37.179688 18.375 -35.203125 C 18.375 -33.296875 17.382812 -32.34375 15.40625 -32.34375 Z M 50.046875 -32.34375 C 48.066406 -32.34375 47.078125 -33.296875 47.078125 -35.203125 C 47.078125 -37.179688 48.066406 -38.171875 50.046875 -38.171875 C 51.878906 -38.171875 52.796875 -37.179688 52.796875 -35.203125 C 52.796875 -33.296875 51.878906 -32.34375 50.046875 -32.34375 Z M 10.234375 -24.3125 C 8.179688 -24.3125 7.15625 -25.300781 7.15625 -27.28125 C 7.15625 -29.1875 8.144531 -30.140625 10.125 -30.140625 C 12.03125 -30.140625 12.984375 -29.1875 12.984375 -27.28125 C 12.984375 -25.300781 12.066406 -24.3125 10.234375 -24.3125 Z M 55.21875 -24.3125 C 53.3125 -24.3125 52.359375 -25.300781 52.359375 -27.28125 C 52.359375 -29.1875 53.347656 -30.140625 55.328125 -30.140625 C 57.234375 -30.140625 58.1875 -29.1875 58.1875 -27.28125 C 58.1875 -25.300781 57.195312 -24.3125 55.21875 -24.3125 Z M 8.25 -15.0625 C 6.269531 -15.0625 5.28125 -16.019531 5.28125 -17.9375 C 5.28125 -19.84375 6.269531 -20.796875 8.25 -20.796875 C 10.15625 -20.796875 11.109375 -19.84375 11.109375 -17.9375 C 11.109375 -16.019531 10.15625 -15.0625 8.25 -15.0625 Z M 57.3125 -15.0625 C 55.332031 -15.0625 54.34375 -16.019531 54.34375 -17.9375 C 54.34375 -19.84375 55.332031 -20.796875 57.3125 -20.796875 C 59.144531 -20.796875 60.0625 -19.84375 60.0625 -17.9375 C 60.0625 -16.019531 59.144531 -15.0625 57.3125 -15.0625 Z M 10.125 -5.71875 C 8.144531 -5.71875 7.15625 -6.671875 7.15625 -8.578125 C 7.15625 -10.554688 8.144531 -11.546875 10.125 -11.546875 C 12.03125 -11.546875 12.984375 -10.554688 12.984375 -8.578125 C 12.984375 -6.671875 12.03125 -5.71875 10.125 -5.71875 Z M 55.21875 -5.71875 C 53.3125 -5.71875 52.359375 -6.671875 52.359375 -8.578125 C 52.359375 -10.554688 53.3125 -11.546875 55.21875 -11.546875 C 57.195312 -11.546875 58.1875 -10.554688 58.1875 -8.578125 C 58.1875 -6.671875 57.195312 -5.71875 55.21875 -5.71875 Z M 15.40625 2.3125 C 13.5 2.3125 12.546875 1.359375 12.546875 -0.546875 C 12.546875 -2.523438 13.5 -3.515625 15.40625 -3.515625 C 17.382812 -3.515625 18.375 -2.523438 18.375 -0.546875 C 18.375 1.359375 17.382812 2.3125 15.40625 2.3125 Z M 50.046875 2.3125 C 48.066406 2.3125 47.078125 1.359375 47.078125 -0.546875 C 47.078125 -2.523438 48.066406 -3.515625 50.046875 -3.515625 C 51.878906 -3.515625 52.796875 -2.523438 52.796875 -0.546875 C 52.796875 1.359375 51.878906 2.3125 50.046875 2.3125 Z M 23.3125 7.484375 C 21.40625 7.484375 20.453125 6.566406 20.453125 4.734375 C 20.453125 2.753906 21.40625 1.765625 23.3125 1.765625 C 25.300781 1.765625 26.296875 2.679688 26.296875 4.515625 C 26.296875 6.492188 25.300781 7.484375 23.3125 7.484375 Z M 42.125 7.484375 C 40.070312 7.484375 39.046875 6.566406 39.046875 4.734375 C 39.046875 2.753906 40.070312 1.765625 42.125 1.765625 C 43.957031 1.765625 44.875 2.753906 44.875 4.734375 C 44.875 6.566406 43.957031 7.484375 42.125 7.484375 Z M 32.671875 9.453125 C 30.765625 9.453125 29.8125 8.460938 29.8125 6.484375 C 29.8125 4.578125 30.765625 3.625 32.671875 3.625 C 34.578125 3.625 35.53125 4.578125 35.53125 6.484375 C 35.53125 8.460938 34.578125 9.453125 32.671875 9.453125 Z M 32.671875 9.453125 "/>
</symbol>
<symbol overflow="visible" id="arabic-medi:id0:glyph0-2">
<path style="stroke:none;" d="M 39.59375 31.5625 C 30.5 31.5625 23.476562 29.25 18.53125 24.625 C 13.582031 20.007812 11.109375 13.34375 11.109375 4.625 C 11.109375 0.0703125 12.222656 -4.457031 14.453125 -8.96875 C 16.691406 -13.476562 19.796875 -17.457031 23.765625 -20.90625 C 27.796875 -24.34375 32.082031 -26.941406 36.625 -28.703125 C 35.75 -29.078125 34.375 -29.570312 32.5 -30.1875 C 30.632812 -30.8125 28.675781 -31.378906 26.625 -31.890625 C 24.570312 -32.410156 22.738281 -32.671875 21.125 -32.671875 C 18.914062 -32.671875 17.023438 -32.394531 15.453125 -31.84375 C 13.878906 -31.289062 11.769531 -30.171875 9.125 -28.484375 C 8.6875 -28.859375 8.300781 -29.425781 7.96875 -30.1875 C 7.644531 -30.957031 7.484375 -31.785156 7.484375 -32.671875 C 7.484375 -35.453125 8.707031 -37.6875 11.15625 -39.375 C 13.613281 -41.0625 16.828125 -41.90625 20.796875 -41.90625 C 23.941406 -41.90625 27.035156 -41.5 30.078125 -40.6875 C 33.128906 -39.882812 36.191406 -39.007812 39.265625 -38.0625 C 42.347656 -37.101562 45.460938 -36.21875 48.609375 -35.40625 C 51.765625 -34.601562 55.03125 -34.203125 58.40625 -34.203125 L 65.671875 -34.4375 L 62.484375 -25.953125 C 61.453125 -25.804688 60.421875 -25.695312 59.390625 -25.625 C 58.367188 -25.550781 57.34375 -25.515625 56.3125 -25.515625 C 53.3125 -25.296875 50.085938 -24.726562 46.640625 -23.8125 C 43.191406 -22.894531 39.835938 -21.703125 36.578125 -20.234375 C 33.316406 -18.773438 30.328125 -17.09375 27.609375 -15.1875 C 23.578125 -12.394531 20.457031 -9.3125 18.25 -5.9375 C 16.050781 -2.5625 14.953125 0.957031 14.953125 4.625 C 14.953125 10.414062 17.003906 14.847656 21.109375 17.921875 C 25.222656 21.003906 31.5 22.546875 39.9375 22.546875 C 44.476562 22.546875 48.984375 22.269531 53.453125 21.71875 C 57.929688 21.175781 62.367188 20.425781 66.765625 19.46875 L 68.09375 23.09375 C 62.738281 26.03125 57.734375 28.175781 53.078125 29.53125 C 48.421875 30.882812 43.925781 31.5625 39.59375 31.5625 Z M 37.40625 -48.953125 C 34.175781 -51.367188 31.535156 -53.753906 29.484375 -56.109375 C 33.222656 -59.847656 35.789062 -62.519531 37.1875 -64.125 C 38.363281 -62.882812 39.554688 -61.65625 40.765625 -60.4375 C 41.972656 -59.226562 43.203125 -58.078125 44.453125 -56.984375 C 42.765625 -54.566406 40.414062 -51.890625 37.40625 -48.953125 Z M 37.40625 -48.953125 "/>
</symbol>
</g>
<g>
<symbol overflow="visible" id="arabic-medi:id1:glyph0-0">
<path style="stroke:none;" d="M 5.375 -96.6875 L 69.828125 -96.6875 L 69.828125 0 L 5.375 0 Z M 8.0625 -2.6875 L 67.140625 -2.6875 L 67.140625 -94 L 8.0625 -94 Z M 8.0625 -2.6875 "/>
</symbol>
<symbol overflow="visible" id="arabic-medi:id1:glyph0-1">
<path style="stroke:none;" d="M 68.15625 -13.75 L 66.28125 -18.640625 L 88.09375 -27.390625 L 6.984375 -27.390625 L 6.984375 -34 L 88.09375 -34 L 66.28125 -42.75 L 68.15625 -47.640625 L 99.09375 -34.265625 L 99.09375 -27.125 Z M 68.15625 -13.75 "/>
</symbol>
</g>
<g>
<symbol overflow="visible" id="arabic-medi:id2:glyph0-0">
<path style="stroke:none;" d="M 8.90625 29.8125 L 8.90625 -116.15625 L 62.046875 -116.15625 L 62.046875 29.8125 Z M 16.828125 21.890625 L 54.125 21.890625 L 54.125 -108.234375 L 16.828125 -108.234375 Z M 16.828125 21.890625 "/>
</symbol>
<symbol overflow="visible" id="arabic-medi:id2:glyph0-1">
<path style="stroke:none;" d="M 32.671875 -39.484375 C 30.765625 -39.484375 29.8125 -40.472656 29.8125 -42.453125 C 29.8125 -44.359375 30.765625 -45.3125 32.671875 -45.3125 C 34.578125 -45.3125 35.53125 -44.359375 35.53125 -42.453125 C 35.53125 -40.472656 34.578125 -39.484375 32.671875 -39.484375 Z M 23.3125 -37.625 C 21.40625 -37.625 20.453125 -38.578125 20.453125 -40.484375 C 20.453125 -42.460938 21.40625 -43.453125 23.3125 -43.453125 C 25.300781 -43.453125 26.296875 -42.460938 26.296875 -40.484375 C 26.296875 -38.578125 25.300781 -37.625 23.3125 -37.625 Z M 42.125 -37.625 C 40.070312 -37.625 39.046875 -38.578125 39.046875 -40.484375 C 39.046875 -42.460938 40.070312 -43.453125 42.125 -43.453125 C 43.957031 -43.453125 44.875 -42.460938 44.875 -40.484375 C 44.875 -38.578125 43.957031 -37.625 42.125 -37.625 Z M 15.40625 -32.34375 C 13.5 -32.34375 12.546875 -33.257812 12.546875 -35.09375 C 12.546875 -37.144531 13.5 -38.171875 15.40625 -38.171875 C 17.382812 -38.171875 18.375 -37.179688 18.375 -35.203125 C 18.375 -33.296875 17.382812 -32.34375 15.40625 -32.34375 Z M 50.046875 -32.34375 C 48.066406 -32.34375 47.078125 -33.296875 47.078125 -35.203125 C 47.078125 -37.179688 48.066406 -38.171875 50.046875 -38.171875 C 51.878906 -38.171875 52.796875 -37.179688 52.796875 -35.203125 C 52.796875 -33.296875 51.878906 -32.34375 50.046875 -32.34375 Z M 10.234375 -24.3125 C 8.179688 -24.3125 7.15625 -25.300781 7.15625 -27.28125 C 7.15625 -29.1875 8.144531 -30.140625 10.125 -30.140625 C 12.03125 -30.140625 12.984375 -29.1875 12.984375 -27.28125 C 12.984375 -25.300781 12.066406 -24.3125 10.234375 -24.3125 Z M 55.21875 -24.3125 C 53.3125 -24.3125 52.359375 -25.300781 52.359375 -27.28125 C 52.359375 -29.1875 53.347656 -30.140625 55.328125 -30.140625 C 57.234375 -30.140625 58.1875 -29.1875 58.1875 -27.28125 C 58.1875 -25.300781 57.195312 -24.3125 55.21875 -24.3125 Z M 8.25 -15.0625 C 6.269531 -15.0625 5.28125 -16.019531 5.28125 -17.9375 C 5.28125 -19.84375 6.269531 -20.796875 8.25 -20.796875 C 10.15625 -20.796875 11.109375 -19.84375 11.109375 -17.9375 C 11.109375 -16.019531 10.15625 -15.0625 8.25 -15.0625 Z M 57.3125 -15.0625 C 55.332031 -15.0625 54.34375 -16.019531 54.34375 -17.9375 C 54.34375 -19.84375 55.332031 -20.796875 57.3125 -20.796875 C 59.144531 -20.796875 60.0625 -19.84375 60.0625 -17.9375 C 60.0625 -16.019531 59.144531 -15.0625 57.3125 -15.0625 Z M 10.125 -5.71875 C 8.144531 -5.71875 7.15625 -6.671875 7.15625 -8.578125 C 7.15625 -10.554688 8.144531 -11.546875 10.125 -11.546875 C 12.03125 -11.546875 12.984375 -10.554688 12.984375 -8.578125 C 12.984375 -6.671875 12.03125 -5.71875 10.125 -5.71875 Z M 55.21875 -5.71875 C 53.3125 -5.71875 52.359375 -6.671875 52.359375 -8.578125 C 52.359375 -10.554688 53.3125 -11.546875 55.21875 -11.546875 C 57.195312 -11.546875 58.1875 -10.554688 58.1875 -8.578125 C 58.1875 -6.671875 57.195312 -5.71875 55.21875 -5.71875 Z M 15.40625 2.3125 C 13.5 2.3125 12.546875 1.359375 12.546875 -0.546875 C 12.546875 -2.523438 13.5 -3.515625 15.40625 -3.515625 C 17.382812 -3.515625 18.375 -2.523438 18.375 -0.546875 C 18.375 1.359375 17.382812 2.3125 15.40625 2.3125 Z M 50.046875 2.3125 C 48.066406 2.3125 47.078125 1.359375 47.078125 -0.546875 C 47.078125 -2.523438 48.066406 -3.515625 50.046875 -3.515625 C 51.878906 -3.515625 52.796875 -2.523438 52.796875 -0.546875 C 52.796875 1.359375 51.878906 2.3125 50.046875 2.3125 Z M 23.3125 7.484375 C 21.40625 7.484375 20.453125 6.566406 20.453125 4.734375 C 20.453125 2.753906 21.40625 1.765625 23.3125 1.765625 C 25.300781 1.765625 26.296875 2.679688 26.296875 4.515625 C 26.296875 6.492188 25.300781 7.484375 23.3125 7.484375 Z M 42.125 7.484375 C 40.070312 7.484375 39.046875 6.566406 39.046875 4.734375 C 39.046875 2.753906 40.070312 1.765625 42.125 1.765625 C 43.957031 1.765625 44.875 2.753906 44.875 4.734375 C 44.875 6.566406 43.957031 7.484375 42.125 7.484375 Z M 32.671875 9.453125 C 30.765625 9.453125 29.8125 8.460938 29.8125 6.484375 C 29.8125 4.578125 30.765625 3.625 32.671875 3.625 C 34.578125 3.625 35.53125 4.578125 35.53125 6.484375 C 35.53125 8.460938 34.578125 9.453125 32.671875 9.453125 Z M 32.671875 9.453125 "/>
</symbol>
<symbol overflow="visible" id="arabic-medi:id2:glyph0-2">
<path style="stroke:none;" d="M 0 0 C -0.582031 0 -0.875 -0.289062 -0.875 -0.875 L -0.875 -7.484375 C -0.875 -8.066406 -0.582031 -8.359375 0 -8.359375 C 6.894531 -8.359375 12.867188 -8.742188 17.921875 -9.515625 C 22.984375 -10.285156 27.53125 -11.585938 31.5625 -13.421875 C 36.332031 -15.546875 40 -16.863281 42.5625 -17.375 C 41.175781 -18.039062 39.765625 -18.796875 38.328125 -19.640625 C 36.898438 -20.484375 35.488281 -21.414062 34.09375 -22.4375 C 31.238281 -24.5625 28.859375 -26.046875 26.953125 -26.890625 C 25.046875 -27.734375 23.140625 -28.15625 21.234375 -28.15625 C 18.953125 -28.15625 17.039062 -27.863281 15.5 -27.28125 C 13.96875 -26.695312 11.84375 -25.5625 9.125 -23.875 C 8.101562 -25.039062 7.59375 -26.46875 7.59375 -28.15625 C 7.59375 -30.945312 8.800781 -33.1875 11.21875 -34.875 C 13.632812 -36.5625 16.828125 -37.40625 20.796875 -37.40625 C 23.140625 -37.40625 25.5 -36.945312 27.875 -36.03125 C 30.257812 -35.113281 33.03125 -33.550781 36.1875 -31.34375 C 40 -28.78125 43.242188 -26.820312 45.921875 -25.46875 C 48.597656 -24.113281 51.296875 -23.140625 54.015625 -22.546875 C 56.796875 -21.890625 60.863281 -21.5625 66.21875 -21.5625 L 61.9375 -13.421875 C 61.34375 -13.492188 60.40625 -13.566406 59.125 -13.640625 C 57.84375 -13.710938 56.539062 -13.820312 55.21875 -13.96875 C 53.894531 -14.113281 52.796875 -14.222656 51.921875 -14.296875 C 52.722656 -12.972656 53.582031 -11.910156 54.5 -11.109375 C 55.414062 -10.304688 56.609375 -9.71875 58.078125 -9.34375 C 60.722656 -8.6875 66.078125 -8.359375 74.140625 -8.359375 C 74.796875 -8.359375 75.125 -8.066406 75.125 -7.484375 L 75.125 -0.875 C 75.125 -0.289062 74.796875 0 74.140625 0 C 68.710938 -0.0703125 64.328125 -0.492188 60.984375 -1.265625 C 57.648438 -2.035156 54.921875 -3.265625 52.796875 -4.953125 C 51.773438 -5.828125 50.769531 -6.941406 49.78125 -8.296875 C 48.789062 -9.660156 47.851562 -11.257812 46.96875 -13.09375 C 44.988281 -12.351562 43.007812 -11.414062 41.03125 -10.28125 C 39.050781 -9.144531 37.070312 -8.066406 35.09375 -7.046875 C 32.375 -5.648438 29.859375 -4.492188 27.546875 -3.578125 C 25.242188 -2.660156 22.828125 -1.941406 20.296875 -1.421875 C 17.765625 -0.910156 14.882812 -0.546875 11.65625 -0.328125 C 8.425781 -0.109375 4.539062 0 0 0 Z M 32.5625 -46.203125 C 29.332031 -48.617188 26.691406 -51.003906 24.640625 -53.359375 C 28.378906 -57.097656 30.945312 -59.769531 32.34375 -61.375 C 33.519531 -60.132812 34.710938 -58.90625 35.921875 -57.6875 C 37.128906 -56.476562 38.359375 -55.328125 39.609375 -54.234375 C 37.921875 -51.816406 35.570312 -49.140625 32.5625 -46.203125 Z M 32.5625 -46.203125 "/>
</symbol>
</g>
</defs>
  <g id="arabic-medi:id0:id0" transform="matrix(1.25,0,0,1.25,0.0,0.0)"><g id="arabic-medi:id0:surface1">
<g style="fill:rgb(0%,0%,0%);fill-opacity:1;">
  <use xlink:href="#arabic-medi:id0:glyph0-1" x="16" y="119.59375" class="dc"/>
  <use xlink:href="#arabic-medi:id0:glyph0-2" x="82.328125" y="119.59375" class="c0"/>
  <use xlink:href="#arabic-medi:id0:glyph0-1" x="152.28125" y="119.59375" class="dc"/>
</g>
</g>
</g>
  <g id="arabic-medi:id1:id1" transform="matrix(1.25,0,0,1.25,293.26171875,18.876953125)"><g id="arabic-medi:id1:surface1">
<g style="fill:rgb(0%,0%,0%);fill-opacity:1;">
  <use xlink:href="#arabic-medi:id1:glyph0-1" x="0" y="120.84375" class="arrow"/>
</g>
</g>
</g>
  <g id="arabic-medi:id2:id2" transform="matrix(1.25,0,0,1.25,425.859375,0.0)"><g id="arabic-medi:id2:surface1">
<g style="fill:rgb(0%,0%,0%);fill-opacity:1;">
  <use xlink:href="#arabic-medi:id2:glyph0-1" x="16" y="119.59375" class="dc"/>
  <use xlink:href="#arabic-medi:id2:glyph0-2" x="82.328125" y="119.59375" class="c0"/>
  <use xlink:href="#arabic-medi:id2:glyph0-1" x="155.59375" y="119.59375" class="dc"/>
</g>
</g>
</g>
</svg>
