<!DOCTYPE svg PUBLIC "-//W3C//DTD SVG 1.1//EN" "http://www.w3.org/Graphics/SVG/1.1/DTD/svg11.dtd">
<!-- Created with svg_stack (http://github.com/astraw/svg_stack) --><svg xmlns="http://www.w3.org/2000/svg" xmlns:sodipodi="http://sodipodi.sourceforge.net/DTD/sodipodi-0.dtd" xmlns:xlink="http://www.w3.org/1999/xlink" version="1.1" width="591.30859375" height="348.75" id="arabic-mark">
  <defs><g>
<symbol overflow="visible" id="arabic-mark:id0:glyph0-0">
<path style="stroke:none;" d="M 7.8125 0 L 7.8125 -131.671875 L 91.1875 -131.671875 L 91.1875 0 Z M 17.046875 -9.234375 L 81.953125 -9.234375 L 81.953125 -122.4375 L 17.046875 -122.4375 Z M 17.046875 -9.234375 "/>
</symbol>
<symbol overflow="visible" id="arabic-mark:id0:glyph0-1">
<path style="stroke:none;" d="M -26.625 -97.234375 L -28.8125 -98.234375 C -26.832031 -102.335938 -24.597656 -105.851562 -22.109375 -108.78125 C -19.617188 -111.71875 -16.941406 -113.1875 -14.078125 -113.1875 C -12.316406 -113.1875 -9.726562 -112.816406 -6.3125 -112.078125 C -2.90625 -111.347656 1.359375 -110.984375 6.484375 -110.984375 C 11.035156 -110.984375 15.195312 -111.421875 18.96875 -112.296875 C 22.75 -113.179688 26.179688 -114.910156 29.265625 -117.484375 L 30.6875 -116.265625 C 27.457031 -111.941406 23.972656 -108.585938 20.234375 -106.203125 C 16.492188 -103.816406 12.769531 -102.144531 9.0625 -101.1875 C 5.363281 -100.238281 1.941406 -99.765625 -1.203125 -99.765625 C -4.796875 -99.765625 -7.675781 -99.929688 -9.84375 -100.265625 C -12.007812 -100.597656 -13.84375 -100.925781 -15.34375 -101.25 C -16.84375 -101.582031 -18.4375 -101.75 -20.125 -101.75 C -21.445312 -101.75 -22.566406 -101.398438 -23.484375 -100.703125 C -24.398438 -100.003906 -25.445312 -98.847656 -26.625 -97.234375 Z M -26.625 -97.234375 "/>
</symbol>
<symbol overflow="visible" id="arabic-mark:id0:glyph0-2">
<path style="stroke:none;" d=""/>
</symbol>
<symbol overflow="visible" id="arabic-mark:id0:glyph0-3">
<path style="stroke:none;" d="M 34.65625 1.984375 C 31.425781 1.984375 28.160156 1.816406 24.859375 1.484375 C 21.554688 1.148438 18.507812 0.363281 15.71875 -0.875 C 12.9375 -2.125 10.679688 -4.066406 8.953125 -6.703125 C 7.234375 -9.347656 6.375 -12.976562 6.375 -17.59375 C 6.375 -22.070312 7.289062 -27.425781 9.125 -33.65625 L 12.4375 -33.109375 C 12.351562 -32.523438 12.3125 -31.9375 12.3125 -31.34375 C 12.3125 -30.757812 12.3125 -30.175781 12.3125 -29.59375 C 12.3125 -26 13.171875 -23.25 14.890625 -21.34375 C 16.617188 -19.4375 19.367188 -18.132812 23.140625 -17.4375 C 26.921875 -16.738281 31.929688 -16.390625 38.171875 -16.390625 C 59.804688 -16.390625 75.9375 -20.347656 86.5625 -28.265625 C 88.625 -29.804688 90.035156 -31.253906 90.796875 -32.609375 C 91.566406 -33.972656 91.988281 -36.046875 92.0625 -38.828125 L 92.953125 -65.890625 C 93.171875 -71.898438 94.050781 -77.140625 95.59375 -81.609375 C 97.132812 -86.085938 98.96875 -89.882812 101.09375 -93 C 103.21875 -96.125 105.160156 -98.640625 106.921875 -100.546875 C 108.015625 -101.785156 110.210938 -103.910156 113.515625 -106.921875 C 116.816406 -109.929688 121.144531 -113.851562 126.5 -118.6875 L 146.515625 -136.625 C 147.617188 -137.644531 148.664062 -138.6875 149.65625 -139.75 C 150.644531 -140.8125 151.613281 -141.859375 152.5625 -142.890625 L 153.5625 -142.34375 C 153.125 -140.4375 151.988281 -137.0625 150.15625 -132.21875 C 145.238281 -126.28125 138.085938 -119.351562 128.703125 -111.4375 C 124.523438 -107.914062 120.601562 -104.503906 116.9375 -101.203125 C 113.269531 -97.898438 109.894531 -94.671875 106.8125 -91.515625 C 105.195312 -89.898438 104.003906 -88.523438 103.234375 -87.390625 C 102.460938 -86.253906 101.945312 -85.097656 101.6875 -83.921875 C 101.4375 -82.753906 101.238281 -81.21875 101.09375 -79.3125 L 99.328125 -50.15625 C 99.035156 -45.539062 98.15625 -40.644531 96.6875 -35.46875 C 95.21875 -30.300781 93.144531 -25.460938 90.46875 -20.953125 C 87.789062 -16.441406 84.472656 -12.757812 80.515625 -9.90625 C 76.484375 -6.96875 71.863281 -4.632812 66.65625 -2.90625 C 61.445312 -1.1875 56.09375 0.0546875 50.59375 0.828125 C 45.09375 1.597656 39.78125 1.984375 34.65625 1.984375 Z M 34.65625 1.984375 "/>
</symbol>
</g>
<g>
<symbol overflow="visible" id="arabic-mark:id1:glyph0-0">
<path style="stroke:none;" d="M 5.375 -96.6875 L 69.828125 -96.6875 L 69.828125 0 L 5.375 0 Z M 8.0625 -2.6875 L 67.140625 -2.6875 L 67.140625 -94 L 8.0625 -94 Z M 8.0625 -2.6875 "/>
</symbol>
<symbol overflow="visible" id="arabic-mark:id1:glyph0-1">
<path style="stroke:none;" d="M 68.15625 -13.75 L 66.28125 -18.640625 L 88.09375 -27.390625 L 6.984375 -27.390625 L 6.984375 -34 L 88.09375 -34 L 66.28125 -42.75 L 68.15625 -47.640625 L 99.09375 -34.265625 L 99.09375 -27.125 Z M 68.15625 -13.75 "/>
</symbol>
</g>
<g>
<symbol overflow="visible" id="arabic-mark:id2:glyph0-0">
<path style="stroke:none;" d="M 7.8125 0 L 7.8125 -131.671875 L 91.1875 -131.671875 L 91.1875 0 Z M 17.046875 -9.234375 L 81.953125 -9.234375 L 81.953125 -122.4375 L 17.046875 -122.4375 Z M 17.046875 -9.234375 "/>
</symbol>
<symbol overflow="visible" id="arabic-mark:id2:glyph0-1">
<path style="stroke:none;" d="M -26.625 -97.234375 L -28.8125 -98.234375 C -26.832031 -102.335938 -24.597656 -105.851562 -22.109375 -108.78125 C -19.617188 -111.71875 -16.941406 -113.1875 -14.078125 -113.1875 C -12.316406 -113.1875 -9.726562 -112.816406 -6.3125 -112.078125 C -2.90625 -111.347656 1.359375 -110.984375 6.484375 -110.984375 C 11.035156 -110.984375 15.195312 -111.421875 18.96875 -112.296875 C 22.75 -113.179688 26.179688 -114.910156 29.265625 -117.484375 L 30.6875 -116.265625 C 27.457031 -111.941406 23.972656 -108.585938 20.234375 -106.203125 C 16.492188 -103.816406 12.769531 -102.144531 9.0625 -101.1875 C 5.363281 -100.238281 1.941406 -99.765625 -1.203125 -99.765625 C -4.796875 -99.765625 -7.675781 -99.929688 -9.84375 -100.265625 C -12.007812 -100.597656 -13.84375 -100.925781 -15.34375 -101.25 C -16.84375 -101.582031 -18.4375 -101.75 -20.125 -101.75 C -21.445312 -101.75 -22.566406 -101.398438 -23.484375 -100.703125 C -24.398438 -100.003906 -25.445312 -98.847656 -26.625 -97.234375 Z M -26.625 -97.234375 "/>
</symbol>
<symbol overflow="visible" id="arabic-mark:id2:glyph0-2">
<path style="stroke:none;" d=""/>
</symbol>
<symbol overflow="visible" id="arabic-mark:id2:glyph0-3">
<path style="stroke:none;" d="M 34.65625 1.984375 C 31.425781 1.984375 28.160156 1.816406 24.859375 1.484375 C 21.554688 1.148438 18.507812 0.363281 15.71875 -0.875 C 12.9375 -2.125 10.679688 -4.066406 8.953125 -6.703125 C 7.234375 -9.347656 6.375 -12.976562 6.375 -17.59375 C 6.375 -22.070312 7.289062 -27.425781 9.125 -33.65625 L 12.4375 -33.109375 C 12.351562 -32.523438 12.3125 -31.9375 12.3125 -31.34375 C 12.3125 -30.757812 12.3125 -30.175781 12.3125 -29.59375 C 12.3125 -26 13.171875 -23.25 14.890625 -21.34375 C 16.617188 -19.4375 19.367188 -18.132812 23.140625 -17.4375 C 26.921875 -16.738281 31.929688 -16.390625 38.171875 -16.390625 C 59.804688 -16.390625 75.9375 -20.347656 86.5625 -28.265625 C 88.625 -29.804688 90.035156 -31.253906 90.796875 -32.609375 C 91.566406 -33.972656 91.988281 -36.046875 92.0625 -38.828125 L 92.953125 -65.890625 C 93.171875 -71.898438 94.050781 -77.140625 95.59375 -81.609375 C 97.132812 -86.085938 98.96875 -89.882812 101.09375 -93 C 103.21875 -96.125 105.160156 -98.640625 106.921875 -100.546875 C 108.015625 -101.785156 110.210938 -103.910156 113.515625 -106.921875 C 116.816406 -109.929688 121.144531 -113.851562 126.5 -118.6875 L 146.515625 -136.625 C 147.617188 -137.644531 148.664062 -138.6875 149.65625 -139.75 C 150.644531 -140.8125 151.613281 -141.859375 152.5625 -142.890625 L 153.5625 -142.34375 C 153.125 -140.4375 151.988281 -137.0625 150.15625 -132.21875 C 145.238281 -126.28125 138.085938 -119.351562 128.703125 -111.4375 C 124.523438 -107.914062 120.601562 -104.503906 116.9375 -101.203125 C 113.269531 -97.898438 109.894531 -94.671875 106.8125 -91.515625 C 105.195312 -89.898438 104.003906 -88.523438 103.234375 -87.390625 C 102.460938 -86.253906 101.945312 -85.097656 101.6875 -83.921875 C 101.4375 -82.753906 101.238281 -81.21875 101.09375 -79.3125 L 99.328125 -50.15625 C 99.035156 -45.539062 98.15625 -40.644531 96.6875 -35.46875 C 95.21875 -30.300781 93.144531 -25.460938 90.46875 -20.953125 C 87.789062 -16.441406 84.472656 -12.757812 80.515625 -9.90625 C 76.484375 -6.96875 71.863281 -4.632812 66.65625 -2.90625 C 61.445312 -1.1875 56.09375 0.0546875 50.59375 0.828125 C 45.09375 1.597656 39.78125 1.984375 34.65625 1.984375 Z M 34.65625 1.984375 "/>
</symbol>
</g>
</defs>
  <g id="arabic-mark:id0:id0" transform="matrix(1.25,0,0,1.25,0.0,0.0)"><g id="arabic-mark:id0:surface1">
<g style="fill:rgb(0%,0%,0%);fill-opacity:1;">
  <use xlink:href="#arabic-mark:id0:glyph0-1" x="32" y="211.4375" class="c1"/>
  <use xlink:href="#arabic-mark:id0:glyph0-2" x="32" y="211.4375" class="z"/>
  <use xlink:href="#arabic-mark:id0:glyph0-3" x="32" y="211.4375" class="c0"/>
</g>
</g>
</g>
  <g id="arabic-mark:id1:id1" transform="matrix(1.25,0,0,1.25,239.35546875,73.671875)"><g id="arabic-mark:id1:surface1">
<g style="fill:rgb(0%,0%,0%);fill-opacity:1;">
  <use xlink:href="#arabic-mark:id1:glyph0-1" x="0" y="120.84375" class="arrow"/>
</g>
</g>
</g>
  <g id="arabic-mark:id2:id2" transform="matrix(1.25,0,0,1.25,371.953125,0.0)"><g id="arabic-mark:id2:surface1">
<g style="fill:rgb(0%,0%,0%);fill-opacity:1;">
  <use xlink:href="#arabic-mark:id2:glyph0-1" x="54.5" y="237.625" class="c1"/>
  <use xlink:href="#arabic-mark:id2:glyph0-2" x="16" y="211.4375" class="z"/>
  <use xlink:href="#arabic-mark:id2:glyph0-3" x="16" y="211.4375" class="c0"/>
</g>
</g>
</g>
</svg>
