<!DOCTYPE svg PUBLIC "-//W3C//DTD SVG 1.1//EN" "http://www.w3.org/Graphics/SVG/1.1/DTD/svg11.dtd">
<!-- Created with svg_stack (http://github.com/astraw/svg_stack) --><svg xmlns="http://www.w3.org/2000/svg" xmlns:sodipodi="http://sodipodi.sourceforge.net/DTD/sodipodi-0.dtd" xmlns:xlink="http://www.w3.org/1999/xlink" version="1.1" width="100%" id="arabic-dist" viewBox="0 0 640.46875 348.75">
  <defs><g>
<symbol overflow="visible" id="arabic-dist:id0:glyph0-0">
<path style="stroke:none;" d="M 7.8125 0 L 7.8125 -131.671875 L 91.1875 -131.671875 L 91.1875 0 Z M 17.046875 -9.234375 L 81.953125 -9.234375 L 81.953125 -122.4375 L 17.046875 -122.4375 Z M 17.046875 -9.234375 "/>
</symbol>
<symbol overflow="visible" id="arabic-dist:id0:glyph0-1">
<path style="stroke:none;" d="M 37.1875 37.515625 C 30.070312 37.515625 23.960938 36.0625 18.859375 33.15625 C 13.765625 30.257812 9.878906 26.242188 7.203125 21.109375 C 4.523438 15.984375 3.1875 10.046875 3.1875 3.296875 C 3.1875 -3.003906 4.191406 -9.253906 6.203125 -15.453125 C 8.222656 -21.648438 11.253906 -27.753906 15.296875 -33.765625 C 23.429688 -45.867188 34.722656 -56.578125 49.171875 -65.890625 C 49.023438 -66.035156 48.304688 -66 47.015625 -65.78125 C 45.734375 -65.5625 44.117188 -65.285156 42.171875 -64.953125 C 40.234375 -64.617188 38.128906 -64.429688 35.859375 -64.390625 C 33.585938 -64.359375 31.332031 -64.617188 29.09375 -65.171875 C 26.851562 -65.722656 24.816406 -66.734375 22.984375 -68.203125 L 21.78125 -69.1875 C 22.070312 -70.144531 22.492188 -71.226562 23.046875 -72.4375 C 23.597656 -73.644531 24.238281 -75.054688 24.96875 -76.671875 C 26.507812 -79.828125 27.941406 -81.40625 29.265625 -81.40625 C 30.878906 -81.40625 31.6875 -80.78125 31.6875 -79.53125 L 31.6875 -79.09375 L 32.890625 -79.09375 C 35.160156 -79.09375 37.78125 -79.019531 40.75 -78.875 C 43.71875 -78.726562 46.722656 -78.488281 49.765625 -78.15625 C 52.816406 -77.820312 55.625 -77.414062 58.1875 -76.9375 C 60.757812 -76.46875 62.738281 -75.898438 64.125 -75.234375 L 64.234375 -74.46875 C 63.066406 -72.125 61.710938 -70.085938 60.171875 -68.359375 C 58.628906 -66.640625 56.90625 -65.191406 55 -64.015625 C 42.75 -56.242188 32.8125 -47.554688 25.1875 -37.953125 C 17.5625 -28.347656 13.75 -18.882812 13.75 -9.5625 C 13.75 -3.769531 15.125 1.175781 17.875 5.28125 C 20.625 9.382812 24.414062 12.519531 29.25 14.6875 C 34.09375 16.851562 39.671875 17.9375 45.984375 17.9375 C 56.023438 17.9375 64.640625 15.332031 71.828125 10.125 C 79.015625 4.914062 85.140625 -2.894531 90.203125 -13.3125 L 93.609375 -12.3125 C 90.742188 -5.207031 87.421875 1.367188 83.640625 7.421875 C 79.867188 13.472656 75.632812 18.753906 70.9375 23.265625 C 66.25 27.773438 61.097656 31.273438 55.484375 33.765625 C 49.878906 36.265625 43.78125 37.515625 37.1875 37.515625 Z M 37.1875 37.515625 "/>
</symbol>
<symbol overflow="visible" id="arabic-dist:id0:glyph0-2">
<path style="stroke:none;" d=""/>
</symbol>
<symbol overflow="visible" id="arabic-dist:id0:glyph0-3">
<path style="stroke:none;" d="M 0.21875 5.0625 C -0.0703125 5.0625 -0.421875 4.953125 -0.828125 4.734375 C -1.234375 4.515625 -1.4375 4.144531 -1.4375 3.625 C -1.4375 2.820312 -0.867188 1.429688 0.265625 -0.546875 C 1.410156 -2.523438 3.132812 -4.816406 5.4375 -7.421875 C 7.75 -10.023438 10.59375 -12.648438 13.96875 -15.296875 C 17.632812 -18.148438 21.796875 -20.804688 26.453125 -23.265625 C 31.109375 -25.722656 36.019531 -27.992188 41.1875 -30.078125 C 46.363281 -32.171875 51.484375 -34.0625 56.546875 -35.75 L 57.09375 -34.765625 C 56.945312 -34.023438 56.488281 -32.992188 55.71875 -31.671875 C 54.945312 -30.359375 54.15625 -29.019531 53.34375 -27.65625 C 52.539062 -26.300781 51.882812 -25.257812 51.375 -24.53125 C 50.050781 -24.09375 48.726562 -23.671875 47.40625 -23.265625 C 46.09375 -22.859375 44.773438 -22.4375 43.453125 -22 C 37.660156 -20.164062 32.472656 -18.203125 27.890625 -16.109375 C 23.304688 -14.023438 19.328125 -11.84375 15.953125 -9.5625 C 13.234375 -7.8125 10.9375 -5.976562 9.0625 -4.0625 C 7.195312 -2.15625 5.71875 -0.210938 4.625 1.765625 C 3.445312 3.960938 1.976562 5.0625 0.21875 5.0625 Z M 0.21875 5.0625 "/>
</symbol>
<symbol overflow="visible" id="arabic-dist:id0:glyph0-4">
<path style="stroke:none;" d=""/>
</symbol>
<symbol overflow="visible" id="arabic-dist:id0:glyph0-5">
<path style="stroke:none;" d="M -5.171875 4.0625 L -5.390625 1.65625 C 1.578125 -2.082031 7.8125 -5.953125 13.3125 -9.953125 C 18.8125 -13.953125 22.734375 -18.519531 25.078125 -23.65625 C 26.179688 -26 27.242188 -28.929688 28.265625 -32.453125 C 29.296875 -35.972656 30.394531 -39.96875 31.5625 -44.4375 L 34.765625 -44 C 34.171875 -40.1875 33.765625 -37.546875 33.546875 -36.078125 C 33.328125 -34.609375 33.21875 -33.472656 33.21875 -32.671875 C 33.21875 -27.972656 34.257812 -24.25 36.34375 -21.5 C 38.4375 -18.75 41.390625 -17.375 45.203125 -17.375 C 46.960938 -17.375 48.207031 -16.734375 48.9375 -15.453125 C 49.675781 -14.171875 50.046875 -12.722656 50.046875 -11.109375 C 50.046875 -8.328125 49.476562 -6.128906 48.34375 -4.515625 C 47.207031 -2.898438 45.847656 -1.742188 44.265625 -1.046875 C 42.691406 -0.347656 41.207031 0 39.8125 0 C 36.59375 0 33.992188 -0.785156 32.015625 -2.359375 C 30.035156 -3.941406 28.601562 -5.921875 27.71875 -8.296875 C 26.84375 -10.679688 26.40625 -13.085938 26.40625 -15.515625 L 26.1875 -15.515625 C 25.226562 -13.015625 23.957031 -10.535156 22.375 -8.078125 C 20.800781 -5.628906 18.953125 -3.226562 16.828125 -0.875 C 15.210938 0.21875 12.679688 1.128906 9.234375 1.859375 C 5.785156 2.597656 0.984375 3.332031 -5.171875 4.0625 Z M -5.171875 4.0625 "/>
</symbol>
<symbol overflow="visible" id="arabic-dist:id0:glyph0-6">
<path style="stroke:none;" d=""/>
</symbol>
<symbol overflow="visible" id="arabic-dist:id0:glyph0-7">
<path style="stroke:none;" d="M -0.4375 20.5625 C -1.976562 18.957031 -3.519531 17.472656 -5.0625 16.109375 C -6.601562 14.753906 -8.101562 13.488281 -9.5625 12.3125 L -9.5625 11.4375 C -8.90625 10.488281 -7.9375 9.257812 -6.65625 7.75 C -5.375 6.25 -4.085938 4.820312 -2.796875 3.46875 C -1.515625 2.113281 -0.582031 1.25 0 0.875 L 0.984375 0.875 C 3.847656 2.707031 5.992188 4.335938 7.421875 5.765625 C 8.847656 7.203125 9.5625 8.65625 9.5625 10.125 C 9.5625 12.757812 6.519531 16.238281 0.4375 20.5625 Z M -0.4375 20.5625 "/>
</symbol>
<symbol overflow="visible" id="arabic-dist:id0:glyph0-8">
<path style="stroke:none;" d="M 0 0 C -3.15625 0 -4.734375 -2.085938 -4.734375 -6.265625 C -4.734375 -8.984375 -4.179688 -11.148438 -3.078125 -12.765625 C -1.984375 -14.378906 -0.648438 -15.550781 0.921875 -16.28125 C 2.503906 -17.007812 3.992188 -17.375 5.390625 -17.375 C 7.515625 -17.375 9.601562 -18.085938 11.65625 -19.515625 C 13.707031 -20.953125 15.6875 -23.613281 17.59375 -27.5 L 19.90625 -26.953125 C 18.070312 -18.078125 15.429688 -11.363281 11.984375 -6.8125 C 8.535156 -2.269531 4.539062 0 0 0 Z M 0 0 "/>
</symbol>
</g>
<g>
<symbol overflow="visible" id="arabic-dist:id1:glyph0-0">
<path style="stroke:none;" d="M 5.375 -96.6875 L 69.828125 -96.6875 L 69.828125 0 L 5.375 0 Z M 8.0625 -2.6875 L 67.140625 -2.6875 L 67.140625 -94 L 8.0625 -94 Z M 8.0625 -2.6875 "/>
</symbol>
<symbol overflow="visible" id="arabic-dist:id1:glyph0-1">
<path style="stroke:none;" d="M 68.15625 -13.75 L 66.28125 -18.640625 L 88.09375 -27.390625 L 6.984375 -27.390625 L 6.984375 -34 L 88.09375 -34 L 66.28125 -42.75 L 68.15625 -47.640625 L 99.09375 -34.265625 L 99.09375 -27.125 Z M 68.15625 -13.75 "/>
</symbol>
</g>
<g>
<symbol overflow="visible" id="arabic-dist:id2:glyph0-0">
<path style="stroke:none;" d="M 7.8125 0 L 7.8125 -131.671875 L 91.1875 -131.671875 L 91.1875 0 Z M 17.046875 -9.234375 L 81.953125 -9.234375 L 81.953125 -122.4375 L 17.046875 -122.4375 Z M 17.046875 -9.234375 "/>
</symbol>
<symbol overflow="visible" id="arabic-dist:id2:glyph0-1">
<path style="stroke:none;" d="M 37.1875 37.515625 C 30.070312 37.515625 23.960938 36.0625 18.859375 33.15625 C 13.765625 30.257812 9.878906 26.242188 7.203125 21.109375 C 4.523438 15.984375 3.1875 10.046875 3.1875 3.296875 C 3.1875 -3.003906 4.191406 -9.253906 6.203125 -15.453125 C 8.222656 -21.648438 11.253906 -27.753906 15.296875 -33.765625 C 23.429688 -45.867188 34.722656 -56.578125 49.171875 -65.890625 C 49.023438 -66.035156 48.304688 -66 47.015625 -65.78125 C 45.734375 -65.5625 44.117188 -65.285156 42.171875 -64.953125 C 40.234375 -64.617188 38.128906 -64.429688 35.859375 -64.390625 C 33.585938 -64.359375 31.332031 -64.617188 29.09375 -65.171875 C 26.851562 -65.722656 24.816406 -66.734375 22.984375 -68.203125 L 21.78125 -69.1875 C 22.070312 -70.144531 22.492188 -71.226562 23.046875 -72.4375 C 23.597656 -73.644531 24.238281 -75.054688 24.96875 -76.671875 C 26.507812 -79.828125 27.941406 -81.40625 29.265625 -81.40625 C 30.878906 -81.40625 31.6875 -80.78125 31.6875 -79.53125 L 31.6875 -79.09375 L 32.890625 -79.09375 C 35.160156 -79.09375 37.78125 -79.019531 40.75 -78.875 C 43.71875 -78.726562 46.722656 -78.488281 49.765625 -78.15625 C 52.816406 -77.820312 55.625 -77.414062 58.1875 -76.9375 C 60.757812 -76.46875 62.738281 -75.898438 64.125 -75.234375 L 64.234375 -74.46875 C 63.066406 -72.125 61.710938 -70.085938 60.171875 -68.359375 C 58.628906 -66.640625 56.90625 -65.191406 55 -64.015625 C 42.75 -56.242188 32.8125 -47.554688 25.1875 -37.953125 C 17.5625 -28.347656 13.75 -18.882812 13.75 -9.5625 C 13.75 -3.769531 15.125 1.175781 17.875 5.28125 C 20.625 9.382812 24.414062 12.519531 29.25 14.6875 C 34.09375 16.851562 39.671875 17.9375 45.984375 17.9375 C 56.023438 17.9375 64.640625 15.332031 71.828125 10.125 C 79.015625 4.914062 85.140625 -2.894531 90.203125 -13.3125 L 93.609375 -12.3125 C 90.742188 -5.207031 87.421875 1.367188 83.640625 7.421875 C 79.867188 13.472656 75.632812 18.753906 70.9375 23.265625 C 66.25 27.773438 61.097656 31.273438 55.484375 33.765625 C 49.878906 36.265625 43.78125 37.515625 37.1875 37.515625 Z M 37.1875 37.515625 "/>
</symbol>
<symbol overflow="visible" id="arabic-dist:id2:glyph0-2">
<path style="stroke:none;" d=""/>
</symbol>
<symbol overflow="visible" id="arabic-dist:id2:glyph0-3">
<path style="stroke:none;" d="M 0.21875 5.0625 C -0.0703125 5.0625 -0.421875 4.953125 -0.828125 4.734375 C -1.234375 4.515625 -1.4375 4.144531 -1.4375 3.625 C -1.4375 2.820312 -0.867188 1.429688 0.265625 -0.546875 C 1.410156 -2.523438 3.132812 -4.816406 5.4375 -7.421875 C 7.75 -10.023438 10.59375 -12.648438 13.96875 -15.296875 C 17.632812 -18.148438 21.796875 -20.804688 26.453125 -23.265625 C 31.109375 -25.722656 36.019531 -27.992188 41.1875 -30.078125 C 46.363281 -32.171875 51.484375 -34.0625 56.546875 -35.75 L 57.09375 -34.765625 C 56.945312 -34.023438 56.488281 -32.992188 55.71875 -31.671875 C 54.945312 -30.359375 54.15625 -29.019531 53.34375 -27.65625 C 52.539062 -26.300781 51.882812 -25.257812 51.375 -24.53125 C 50.050781 -24.09375 48.726562 -23.671875 47.40625 -23.265625 C 46.09375 -22.859375 44.773438 -22.4375 43.453125 -22 C 37.660156 -20.164062 32.472656 -18.203125 27.890625 -16.109375 C 23.304688 -14.023438 19.328125 -11.84375 15.953125 -9.5625 C 13.234375 -7.8125 10.9375 -5.976562 9.0625 -4.0625 C 7.195312 -2.15625 5.71875 -0.210938 4.625 1.765625 C 3.445312 3.960938 1.976562 5.0625 0.21875 5.0625 Z M 0.21875 5.0625 "/>
</symbol>
<symbol overflow="visible" id="arabic-dist:id2:glyph0-4">
<path style="stroke:none;" d=""/>
</symbol>
<symbol overflow="visible" id="arabic-dist:id2:glyph0-5">
<path style="stroke:none;" d="M -5.171875 4.0625 L -5.390625 1.65625 C 1.578125 -2.082031 7.8125 -5.953125 13.3125 -9.953125 C 18.8125 -13.953125 22.734375 -18.519531 25.078125 -23.65625 C 26.179688 -26 27.242188 -28.929688 28.265625 -32.453125 C 29.296875 -35.972656 30.394531 -39.96875 31.5625 -44.4375 L 34.765625 -44 C 34.171875 -40.1875 33.765625 -37.546875 33.546875 -36.078125 C 33.328125 -34.609375 33.21875 -33.472656 33.21875 -32.671875 C 33.21875 -27.972656 34.257812 -24.25 36.34375 -21.5 C 38.4375 -18.75 41.390625 -17.375 45.203125 -17.375 C 46.960938 -17.375 48.207031 -16.734375 48.9375 -15.453125 C 49.675781 -14.171875 50.046875 -12.722656 50.046875 -11.109375 C 50.046875 -8.328125 49.476562 -6.128906 48.34375 -4.515625 C 47.207031 -2.898438 45.847656 -1.742188 44.265625 -1.046875 C 42.691406 -0.347656 41.207031 0 39.8125 0 C 36.59375 0 33.992188 -0.785156 32.015625 -2.359375 C 30.035156 -3.941406 28.601562 -5.921875 27.71875 -8.296875 C 26.84375 -10.679688 26.40625 -13.085938 26.40625 -15.515625 L 26.1875 -15.515625 C 25.226562 -13.015625 23.957031 -10.535156 22.375 -8.078125 C 20.800781 -5.628906 18.953125 -3.226562 16.828125 -0.875 C 15.210938 0.21875 12.679688 1.128906 9.234375 1.859375 C 5.785156 2.597656 0.984375 3.332031 -5.171875 4.0625 Z M -5.171875 4.0625 "/>
</symbol>
<symbol overflow="visible" id="arabic-dist:id2:glyph0-6">
<path style="stroke:none;" d=""/>
</symbol>
<symbol overflow="visible" id="arabic-dist:id2:glyph0-7">
<path style="stroke:none;" d="M -0.4375 20.5625 C -1.976562 18.957031 -3.519531 17.472656 -5.0625 16.109375 C -6.601562 14.753906 -8.101562 13.488281 -9.5625 12.3125 L -9.5625 11.4375 C -8.90625 10.488281 -7.9375 9.257812 -6.65625 7.75 C -5.375 6.25 -4.085938 4.820312 -2.796875 3.46875 C -1.515625 2.113281 -0.582031 1.25 0 0.875 L 0.984375 0.875 C 3.847656 2.707031 5.992188 4.335938 7.421875 5.765625 C 8.847656 7.203125 9.5625 8.65625 9.5625 10.125 C 9.5625 12.757812 6.519531 16.238281 0.4375 20.5625 Z M -0.4375 20.5625 "/>
</symbol>
<symbol overflow="visible" id="arabic-dist:id2:glyph0-8">
<path style="stroke:none;" d="M 0 0 C -3.15625 0 -4.734375 -2.085938 -4.734375 -6.265625 C -4.734375 -8.984375 -4.179688 -11.148438 -3.078125 -12.765625 C -1.984375 -14.378906 -0.648438 -15.550781 0.921875 -16.28125 C 2.503906 -17.007812 3.992188 -17.375 5.390625 -17.375 C 7.515625 -17.375 9.601562 -18.085938 11.65625 -19.515625 C 13.707031 -20.953125 15.6875 -23.613281 17.59375 -27.5 L 19.90625 -26.953125 C 18.070312 -18.078125 15.429688 -11.363281 11.984375 -6.8125 C 8.535156 -2.269531 4.539062 0 0 0 Z M 0 0 "/>
</symbol>
</g>
</defs>
  <g id="arabic-dist:id0:id0" transform="matrix(1.25,0,0,1.25,0.0,0.0)"><g id="arabic-dist:id0:surface1">
<g style="fill:rgb(0%,0%,0%);fill-opacity:1;">
  <use xlink:href="#arabic-dist:id0:glyph0-1" x="16" y="211.4375" class="c8"/>
  <use xlink:href="#arabic-dist:id0:glyph0-2" x="42.1875" y="211.4375" class="c7"/>
  <use xlink:href="#arabic-dist:id0:glyph0-3" x="42.1875" y="132.46875" class="c6"/>
  <use xlink:href="#arabic-dist:id0:glyph0-4" x="107.640625" y="211.4375" class="c5"/>
  <use xlink:href="#arabic-dist:id0:glyph0-5" x="107.640625" y="211.4375" class="c4"/>
  <use xlink:href="#arabic-dist:id0:glyph0-6" x="147.453125" y="211.4375" class="c3"/>
  <use xlink:href="#arabic-dist:id0:glyph0-7" x="155.484375" y="229.59375" class="c2"/>
  <use xlink:href="#arabic-dist:id0:glyph0-8" x="147.453125" y="211.4375" class="c1"/>
  <use xlink:href="#arabic-dist:id0:glyph0-4" x="173.40625" y="211.4375" class="c0"/>
</g>
</g>
</g>
  <g id="arabic-dist:id1:id1" transform="matrix(1.25,0,0,1.25,236.7578125,73.671875)"><g id="arabic-dist:id1:surface1">
<g style="fill:rgb(0%,0%,0%);fill-opacity:1;">
  <use xlink:href="#arabic-dist:id1:glyph0-1" x="0" y="120.84375" class="arrow"/>
</g>
</g>
</g>
  <g id="arabic-dist:id2:id2" transform="matrix(1.25,0,0,1.25,369.35546875,0.0)"><g id="arabic-dist:id2:surface1">
<g style="fill:rgb(0%,0%,0%);fill-opacity:1;">
  <use xlink:href="#arabic-dist:id2:glyph0-1" x="16" y="211.4375" class="c8"/>
  <use xlink:href="#arabic-dist:id2:glyph0-2" x="42.1875" y="211.4375" class="c7"/>
  <use xlink:href="#arabic-dist:id2:glyph0-3" x="42.1875" y="132.46875" class="c6"/>
  <use xlink:href="#arabic-dist:id2:glyph0-4" x="135.125" y="211.4375" class="c5"/>
  <use xlink:href="#arabic-dist:id2:glyph0-5" x="135.125" y="211.4375" class="c4"/>
  <use xlink:href="#arabic-dist:id2:glyph0-6" x="174.9375" y="211.4375" class="c3"/>
  <use xlink:href="#arabic-dist:id2:glyph0-7" x="182.96875" y="229.59375" class="c2"/>
  <use xlink:href="#arabic-dist:id2:glyph0-8" x="174.9375" y="211.4375" class="c1"/>
  <use xlink:href="#arabic-dist:id2:glyph0-4" x="200.890625" y="211.4375" class="c0"/>
</g>
</g>
</g>
</svg>
