<!DOCTYPE svg PUBLIC "-//W3C//DTD SVG 1.1//EN" "http://www.w3.org/Graphics/SVG/1.1/DTD/svg11.dtd">
<!-- Created with svg_stack (http://github.com/astraw/svg_stack) --><svg xmlns="http://www.w3.org/2000/svg" xmlns:sodipodi="http://sodipodi.sourceforge.net/DTD/sodipodi-0.dtd" xmlns:xlink="http://www.w3.org/1999/xlink" version="1.1" width="100%" id="oriya-pstf-yya" viewBox="0 0 608.18359375 201.40625">
  <defs><g>
<symbol overflow="visible" id="oriya-pstf-yya:id0:glyph0-0">
<path style="stroke:none;" d="M 90.09375 -78.546875 L 90.09375 0 L 44.875 0 L 44.875 -78.546875 Z M 84.484375 -5.609375 L 84.484375 -72.9375 L 50.484375 -72.9375 L 50.484375 -5.609375 Z M 84.484375 -5.609375 "/>
</symbol>
<symbol overflow="visible" id="oriya-pstf-yya:id0:glyph0-1">
<path style="stroke:none;" d="M 47.1875 -55.984375 C 47.1875 -53.859375 46.085938 -52.796875 43.890625 -52.796875 C 41.835938 -52.796875 40.8125 -53.859375 40.8125 -55.984375 C 40.8125 -58.035156 41.835938 -59.0625 43.890625 -59.0625 C 46.085938 -59.0625 47.1875 -58.035156 47.1875 -55.984375 Z M 32.890625 -50.59375 C 32.890625 -48.46875 31.828125 -47.40625 29.703125 -47.40625 C 27.648438 -47.40625 26.625 -48.46875 26.625 -50.59375 C 26.625 -52.65625 27.648438 -53.6875 29.703125 -53.6875 C 31.828125 -53.6875 32.890625 -52.65625 32.890625 -50.59375 Z M 61.484375 -50.59375 C 61.484375 -48.46875 60.382812 -47.40625 58.1875 -47.40625 C 56.0625 -47.40625 55 -48.46875 55 -50.59375 C 55 -52.65625 56.0625 -53.6875 58.1875 -53.6875 C 60.382812 -53.6875 61.484375 -52.65625 61.484375 -50.59375 Z M 66.4375 -36.84375 C 66.4375 -34.71875 65.375 -33.65625 63.25 -33.65625 C 61.050781 -33.65625 59.953125 -34.71875 59.953125 -36.84375 C 59.953125 -38.90625 61.050781 -39.9375 63.25 -39.9375 C 65.375 -39.9375 66.4375 -38.90625 66.4375 -36.84375 Z M 27.9375 -36.84375 C 27.9375 -34.71875 26.910156 -33.65625 24.859375 -33.65625 C 22.660156 -33.65625 21.5625 -34.71875 21.5625 -36.84375 C 21.5625 -38.90625 22.660156 -39.9375 24.859375 -39.9375 C 26.910156 -39.9375 27.9375 -38.90625 27.9375 -36.84375 Z M 32.890625 -23.09375 C 32.890625 -20.96875 31.828125 -19.90625 29.703125 -19.90625 C 27.648438 -19.90625 26.625 -20.96875 26.625 -23.09375 C 26.625 -25.226562 27.648438 -26.296875 29.703125 -26.296875 C 31.828125 -26.296875 32.890625 -25.226562 32.890625 -23.09375 Z M 61.484375 -23.09375 C 61.484375 -20.96875 60.382812 -19.90625 58.1875 -19.90625 C 56.0625 -19.90625 55 -20.96875 55 -23.09375 C 55 -25.226562 56.0625 -26.296875 58.1875 -26.296875 C 60.382812 -26.296875 61.484375 -25.226562 61.484375 -23.09375 Z M 47.1875 -17.59375 C 47.1875 -15.46875 46.085938 -14.40625 43.890625 -14.40625 C 41.835938 -14.40625 40.8125 -15.46875 40.8125 -17.59375 C 40.8125 -19.726562 41.835938 -20.796875 43.890625 -20.796875 C 46.085938 -20.796875 47.1875 -19.726562 47.1875 -17.59375 Z M 47.1875 -17.59375 "/>
</symbol>
<symbol overflow="visible" id="oriya-pstf-yya:id0:glyph0-2">
<path style="stroke:none;" d="M 7.921875 3.625 L 19.6875 19.46875 L 14.515625 23.3125 L 2.203125 7.703125 Z M 7.921875 3.625 "/>
</symbol>
<symbol overflow="visible" id="oriya-pstf-yya:id0:glyph0-3">
<path style="stroke:none;" d="M 44 0.875 C 39.894531 0.875 36.335938 -0.0195312 33.328125 -1.8125 C 30.316406 -3.613281 28.003906 -6.035156 26.390625 -9.078125 C 24.785156 -12.117188 23.984375 -15.472656 23.984375 -19.140625 C 23.984375 -21.847656 24.421875 -24.414062 25.296875 -26.84375 C 22.441406 -24.9375 19.835938 -22.953125 17.484375 -20.890625 C 15.140625 -18.835938 13.234375 -16.894531 11.765625 -15.0625 C 13.160156 -14.40625 14.171875 -13.546875 14.796875 -12.484375 C 15.421875 -11.421875 15.734375 -10.300781 15.734375 -9.125 C 15.734375 -7.289062 15.109375 -5.84375 13.859375 -4.78125 C 12.609375 -3.71875 11.140625 -3.1875 9.453125 -3.1875 C 7.617188 -3.1875 6.023438 -3.789062 4.671875 -5 C 3.316406 -6.207031 2.640625 -7.84375 2.640625 -9.90625 C 2.640625 -12.320312 3.832031 -15.253906 6.21875 -18.703125 C 8.601562 -22.148438 12.066406 -25.671875 16.609375 -29.265625 C 13.898438 -31.609375 11.847656 -34.335938 10.453125 -37.453125 C 9.054688 -40.566406 8.359375 -43.847656 8.359375 -47.296875 C 8.359375 -51.472656 9.238281 -55.175781 11 -58.40625 C 12.757812 -61.632812 15.160156 -64.347656 18.203125 -66.546875 C 21.242188 -68.742188 24.6875 -70.410156 28.53125 -71.546875 C 32.382812 -72.691406 36.40625 -73.265625 40.59375 -73.265625 C 46.382812 -73.265625 52.007812 -72.179688 57.46875 -70.015625 C 62.9375 -67.847656 67.539062 -64.566406 71.28125 -60.171875 L 70.953125 -72.375 L 79.53125 -72.375 L 79.53125 -26.0625 C 82.6875 -25.40625 85.179688 -23.957031 87.015625 -21.71875 C 88.847656 -19.488281 89.765625 -16.941406 89.765625 -14.078125 C 89.765625 -11.585938 89.007812 -9.1875 87.5 -6.875 C 86 -4.5625 83.707031 -2.785156 80.625 -1.546875 L 90.203125 1.09375 L 88.328125 7.15625 L 66.65625 1.09375 L 68.421875 -4.296875 C 72.523438 -4.296875 75.65625 -5.117188 77.8125 -6.765625 C 79.976562 -8.410156 81.0625 -10.375 81.0625 -12.65625 C 81.0625 -14.257812 80.472656 -15.613281 79.296875 -16.71875 C 78.128906 -17.820312 76.554688 -18.375 74.578125 -18.375 C 72.453125 -18.375 70.597656 -17.726562 69.015625 -16.4375 C 67.441406 -15.15625 65.921875 -13.539062 64.453125 -11.59375 C 62.992188 -9.65625 61.382812 -7.734375 59.625 -5.828125 C 57.863281 -3.921875 55.734375 -2.328125 53.234375 -1.046875 C 50.742188 0.234375 47.664062 0.875 44 0.875 Z M 32.34375 -19.359375 C 32.34375 -15.910156 33.457031 -13.015625 35.6875 -10.671875 C 37.925781 -8.328125 40.878906 -7.15625 44.546875 -7.15625 C 47.046875 -7.15625 49.210938 -7.664062 51.046875 -8.6875 C 52.878906 -9.71875 54.546875 -11.019531 56.046875 -12.59375 C 57.546875 -14.164062 59.03125 -15.8125 60.5 -17.53125 C 61.96875 -19.257812 63.546875 -20.835938 65.234375 -22.265625 C 66.921875 -23.703125 68.828125 -24.785156 70.953125 -25.515625 L 70.953125 -45.875 C 69.628906 -50.269531 67.425781 -53.894531 64.34375 -56.75 C 61.269531 -59.613281 57.734375 -61.742188 53.734375 -63.140625 C 49.734375 -64.535156 45.71875 -65.234375 41.6875 -65.234375 C 37.144531 -65.234375 33.019531 -64.425781 29.3125 -62.8125 C 25.613281 -61.195312 22.644531 -58.921875 20.40625 -55.984375 C 18.164062 -53.054688 17.046875 -49.648438 17.046875 -45.765625 C 17.046875 -40.921875 18.769531 -36.773438 22.21875 -33.328125 C 25.082031 -35.160156 28.253906 -36.957031 31.734375 -38.71875 C 35.210938 -40.476562 39.007812 -42.128906 43.125 -43.671875 L 46.203125 -36.625 C 41.648438 -35.007812 38.203125 -32.570312 35.859375 -29.3125 C 33.515625 -26.050781 32.34375 -22.734375 32.34375 -19.359375 Z M 32.34375 -19.359375 "/>
</symbol>
</g>
<g>
<symbol overflow="visible" id="oriya-pstf-yya:id1:glyph0-0">
<path style="stroke:none;" d="M 5.375 -96.6875 L 69.828125 -96.6875 L 69.828125 0 L 5.375 0 Z M 8.0625 -2.6875 L 67.140625 -2.6875 L 67.140625 -94 L 8.0625 -94 Z M 8.0625 -2.6875 "/>
</symbol>
<symbol overflow="visible" id="oriya-pstf-yya:id1:glyph0-1">
<path style="stroke:none;" d="M 68.15625 -13.75 L 66.28125 -18.640625 L 88.09375 -27.390625 L 6.984375 -27.390625 L 6.984375 -34 L 88.09375 -34 L 66.28125 -42.75 L 68.15625 -47.640625 L 99.09375 -34.265625 L 99.09375 -27.125 Z M 68.15625 -13.75 "/>
</symbol>
</g>
<g>
<symbol overflow="visible" id="oriya-pstf-yya:id2:glyph0-0">
<path style="stroke:none;" d="M 90.09375 -78.546875 L 90.09375 0 L 44.875 0 L 44.875 -78.546875 Z M 84.484375 -5.609375 L 84.484375 -72.9375 L 50.484375 -72.9375 L 50.484375 -5.609375 Z M 84.484375 -5.609375 "/>
</symbol>
<symbol overflow="visible" id="oriya-pstf-yya:id2:glyph0-1">
<path style="stroke:none;" d="M 47.1875 -55.984375 C 47.1875 -53.859375 46.085938 -52.796875 43.890625 -52.796875 C 41.835938 -52.796875 40.8125 -53.859375 40.8125 -55.984375 C 40.8125 -58.035156 41.835938 -59.0625 43.890625 -59.0625 C 46.085938 -59.0625 47.1875 -58.035156 47.1875 -55.984375 Z M 32.890625 -50.59375 C 32.890625 -48.46875 31.828125 -47.40625 29.703125 -47.40625 C 27.648438 -47.40625 26.625 -48.46875 26.625 -50.59375 C 26.625 -52.65625 27.648438 -53.6875 29.703125 -53.6875 C 31.828125 -53.6875 32.890625 -52.65625 32.890625 -50.59375 Z M 61.484375 -50.59375 C 61.484375 -48.46875 60.382812 -47.40625 58.1875 -47.40625 C 56.0625 -47.40625 55 -48.46875 55 -50.59375 C 55 -52.65625 56.0625 -53.6875 58.1875 -53.6875 C 60.382812 -53.6875 61.484375 -52.65625 61.484375 -50.59375 Z M 66.4375 -36.84375 C 66.4375 -34.71875 65.375 -33.65625 63.25 -33.65625 C 61.050781 -33.65625 59.953125 -34.71875 59.953125 -36.84375 C 59.953125 -38.90625 61.050781 -39.9375 63.25 -39.9375 C 65.375 -39.9375 66.4375 -38.90625 66.4375 -36.84375 Z M 27.9375 -36.84375 C 27.9375 -34.71875 26.910156 -33.65625 24.859375 -33.65625 C 22.660156 -33.65625 21.5625 -34.71875 21.5625 -36.84375 C 21.5625 -38.90625 22.660156 -39.9375 24.859375 -39.9375 C 26.910156 -39.9375 27.9375 -38.90625 27.9375 -36.84375 Z M 32.890625 -23.09375 C 32.890625 -20.96875 31.828125 -19.90625 29.703125 -19.90625 C 27.648438 -19.90625 26.625 -20.96875 26.625 -23.09375 C 26.625 -25.226562 27.648438 -26.296875 29.703125 -26.296875 C 31.828125 -26.296875 32.890625 -25.226562 32.890625 -23.09375 Z M 61.484375 -23.09375 C 61.484375 -20.96875 60.382812 -19.90625 58.1875 -19.90625 C 56.0625 -19.90625 55 -20.96875 55 -23.09375 C 55 -25.226562 56.0625 -26.296875 58.1875 -26.296875 C 60.382812 -26.296875 61.484375 -25.226562 61.484375 -23.09375 Z M 47.1875 -17.59375 C 47.1875 -15.46875 46.085938 -14.40625 43.890625 -14.40625 C 41.835938 -14.40625 40.8125 -15.46875 40.8125 -17.59375 C 40.8125 -19.726562 41.835938 -20.796875 43.890625 -20.796875 C 46.085938 -20.796875 47.1875 -19.726562 47.1875 -17.59375 Z M 47.1875 -17.59375 "/>
</symbol>
<symbol overflow="visible" id="oriya-pstf-yya:id2:glyph0-2">
<path style="stroke:none;" d="M 40.484375 -72.375 L 40.484375 0 L 31.90625 0 L 31.90625 -37.625 C 30.289062 -36.738281 28.546875 -36.113281 26.671875 -35.75 C 24.804688 -35.382812 22.957031 -35.203125 21.125 -35.203125 C 15.695312 -35.203125 11.40625 -36.847656 8.25 -40.140625 C 5.09375 -43.441406 3.515625 -48.539062 3.515625 -55.4375 C 3.515625 -57.9375 3.695312 -60.816406 4.0625 -64.078125 C 4.4375 -67.335938 4.953125 -70.289062 5.609375 -72.9375 L 13.96875 -71.9375 C 13.675781 -70.613281 13.398438 -69.015625 13.140625 -67.140625 C 12.890625 -65.273438 12.6875 -63.390625 12.53125 -61.484375 C 12.382812 -59.578125 12.3125 -57.894531 12.3125 -56.4375 C 12.3125 -51.8125 13.15625 -48.453125 14.84375 -46.359375 C 16.53125 -44.273438 18.988281 -43.234375 22.21875 -43.234375 C 25.738281 -43.234375 28.96875 -44.1875 31.90625 -46.09375 L 31.90625 -72.375 Z M 40.484375 -72.375 "/>
</symbol>
</g>
</defs>
  <g id="oriya-pstf-yya:id0:id0" transform="matrix(1.25,0,0,1.25,0.0,4.560546875)"><g id="oriya-pstf-yya:id0:surface1">
<g style="fill:rgb(0%,0%,0%);fill-opacity:1;">
  <use xlink:href="#oriya-pstf-yya:id0:glyph0-1" x="16" y="119.59375" class="dc"/>
  <use xlink:href="#oriya-pstf-yya:id0:glyph0-2" x="104" y="119.59375" class="c0"/>
  <use xlink:href="#oriya-pstf-yya:id0:glyph0-3" x="104" y="119.59375" class="c1"/>
</g>
</g>
</g>
  <g id="oriya-pstf-yya:id1:id1" transform="matrix(1.25,0,0,1.25,266.6015625,0.0)"><g id="oriya-pstf-yya:id1:surface1">
<g style="fill:rgb(0%,0%,0%);fill-opacity:1;">
  <use xlink:href="#oriya-pstf-yya:id1:glyph0-1" x="0" y="120.84375" class="arrow"/>
</g>
</g>
</g>
  <g id="oriya-pstf-yya:id2:id2" transform="matrix(1.25,0,0,1.25,399.19921875,4.560546875)"><g id="oriya-pstf-yya:id2:surface1">
<g style="fill:rgb(0%,0%,0%);fill-opacity:1;">
  <use xlink:href="#oriya-pstf-yya:id2:glyph0-1" x="16" y="119.59375" class="dc"/>
  <use xlink:href="#oriya-pstf-yya:id2:glyph0-2" x="104" y="119.59375" class="c1"/>
</g>
</g>
</g>
</svg>