<?xml version="1.0" standalone="no"?>
<!DOCTYPE svg PUBLIC "-//W3C//DTD SVG 1.1//EN"
 "http://www.w3.org/Graphics/SVG/1.1/DTD/svg11.dtd">
<!-- Created with svg_stack (http://github.com/astraw/svg_stack) -->
<svg xmlns="http://www.w3.org/2000/svg" xmlns:sodipodi="http://sodipodi.sourceforge.net/DTD/sodipodi-0.dtd" xmlns:xlink="http://www.w3.org/1999/xlink" version="1.1" width="394.375" height="201.40625">
  <defs><g>
<symbol overflow="visible" id="id0:glyph0-0">
<path style="stroke:none;" d="M 10.34375 0 L 10.34375 -78.546875 L 55.546875 -78.546875 L 55.546875 0 Z M 15.953125 -5.609375 L 49.9375 -5.609375 L 49.9375 -72.9375 L 15.953125 -72.9375 Z M 15.953125 -5.609375 "/>
</symbol>
<symbol overflow="visible" id="id0:glyph0-1">
<path style="stroke:none;" d="M 3.84375 -31.125 C 3.84375 -36.039062 4.578125 -41.117188 6.046875 -46.359375 C 7.515625 -51.609375 9.40625 -56.742188 11.71875 -61.765625 C 14.03125 -66.785156 16.503906 -71.425781 19.140625 -75.6875 L 26.1875 -72.265625 C 21.925781 -66.109375 18.398438 -59.96875 15.609375 -53.84375 C 12.828125 -47.71875 11.4375 -41.0625 11.4375 -33.875 C 11.4375 -27.5 12.59375 -22.273438 14.90625 -18.203125 C 17.21875 -14.128906 20.367188 -11.140625 24.359375 -9.234375 C 28.359375 -7.328125 32.890625 -6.375 37.953125 -6.375 C 43.960938 -6.375 48.78125 -7.546875 52.40625 -9.890625 C 56.039062 -12.242188 57.859375 -15.328125 57.859375 -19.140625 C 57.859375 -22.148438 56.628906 -24.734375 54.171875 -26.890625 C 51.710938 -29.054688 47.882812 -30.539062 42.6875 -31.34375 C 41.21875 -31.570312 39.640625 -31.757812 37.953125 -31.90625 C 36.265625 -32.050781 34.539062 -32.125 32.78125 -32.125 L 31.796875 -33.328125 L 33.765625 -38.171875 C 35.015625 -38.679688 36.316406 -39.25 37.671875 -39.875 C 39.023438 -40.5 40.398438 -41.175781 41.796875 -41.90625 C 45.679688 -44.03125 48.539062 -45.972656 50.375 -47.734375 C 52.945312 -50.160156 54.234375 -53.019531 54.234375 -56.3125 C 54.234375 -59.101562 53.242188 -61.429688 51.265625 -63.296875 C 49.285156 -65.171875 46.71875 -66.109375 43.5625 -66.109375 C 40.332031 -66.109375 38.078125 -65.46875 36.796875 -64.1875 C 35.515625 -62.90625 34.875 -61.3125 34.875 -59.40625 C 34.875 -58.300781 35.035156 -57.144531 35.359375 -55.9375 C 35.691406 -54.726562 36.113281 -53.609375 36.625 -52.578125 L 29.484375 -49.71875 C 28.890625 -50.894531 28.410156 -52.210938 28.046875 -53.671875 C 27.679688 -55.140625 27.5 -56.460938 27.5 -57.640625 C 27.5 -62.109375 29.054688 -65.847656 32.171875 -68.859375 C 35.285156 -71.867188 39.554688 -73.375 44.984375 -73.375 C 48.140625 -73.375 50.960938 -72.691406 53.453125 -71.328125 C 55.953125 -69.972656 57.914062 -68.085938 59.34375 -65.671875 C 60.769531 -63.253906 61.484375 -60.503906 61.484375 -57.421875 C 61.484375 -54.847656 60.953125 -52.40625 59.890625 -50.09375 C 58.828125 -47.789062 57.125 -45.578125 54.78125 -43.453125 C 52.507812 -41.398438 49.578125 -39.457031 45.984375 -37.625 C 49.429688 -37.101562 52.507812 -36.257812 55.21875 -35.09375 C 58.59375 -33.550781 61.125 -31.441406 62.8125 -28.765625 C 64.5 -26.085938 65.34375 -23.132812 65.34375 -19.90625 C 65.34375 -15.875 64.113281 -12.28125 61.65625 -9.125 C 59.195312 -5.976562 55.800781 -3.488281 51.46875 -1.65625 C 47.144531 0.175781 42.234375 1.09375 36.734375 1.09375 C 30.503906 1.09375 24.894531 -0.148438 19.90625 -2.640625 C 14.925781 -5.128906 11.003906 -8.773438 8.140625 -13.578125 C 5.273438 -18.390625 3.84375 -24.238281 3.84375 -31.125 Z M 3.84375 -31.125 "/>
</symbol>
<symbol overflow="visible" id="id0:glyph0-2">
<path style="stroke:none;" d=""/>
</symbol>
<symbol overflow="visible" id="id0:glyph0-3">
<path style="stroke:none;" d="M -17.484375 -95.484375 L -12.4375 -100.875 C -11.476562 -100.132812 -10.539062 -99.359375 -9.625 -98.546875 C -8.707031 -97.742188 -7.8125 -96.867188 -6.9375 -95.921875 L -11.875 -90.421875 C -12.832031 -91.367188 -13.75 -92.265625 -14.625 -93.109375 C -15.507812 -93.953125 -16.460938 -94.742188 -17.484375 -95.484375 Z M 5.0625 -94.375 C 2.488281 -89.09375 -0.476562 -85.1875 -3.84375 -82.65625 C -7.21875 -80.132812 -11.035156 -78.875 -15.296875 -78.875 C -19.984375 -78.875 -23.921875 -80.210938 -27.109375 -82.890625 C -30.304688 -85.566406 -32.671875 -88.921875 -34.203125 -92.953125 L -28.484375 -96.359375 L -26.40625 -95.59375 C -25.15625 -92.363281 -23.351562 -89.941406 -21 -88.328125 C -18.65625 -86.710938 -16.09375 -85.90625 -13.3125 -85.90625 C -10.375 -85.90625 -7.660156 -86.785156 -5.171875 -88.546875 C -2.679688 -90.304688 -0.1875 -92.800781 2.3125 -96.03125 Z M 5.0625 -94.375 "/>
</symbol>
</g>
<g>
<symbol overflow="visible" id="id1:glyph0-0">
<path style="stroke:none;" d="M 5.375 -96.6875 L 69.828125 -96.6875 L 69.828125 0 L 5.375 0 Z M 8.0625 -2.6875 L 67.140625 -2.6875 L 67.140625 -94 L 8.0625 -94 Z M 8.0625 -2.6875 "/>
</symbol>
<symbol overflow="visible" id="id1:glyph0-1">
<path style="stroke:none;" d="M 68.15625 -13.75 L 66.28125 -18.640625 L 88.09375 -27.390625 L 6.984375 -27.390625 L 6.984375 -34 L 88.09375 -34 L 66.28125 -42.75 L 68.15625 -47.640625 L 99.09375 -34.265625 L 99.09375 -27.125 Z M 68.15625 -13.75 "/>
</symbol>
</g>
<g>
<symbol overflow="visible" id="id2:glyph0-0">
<path style="stroke:none;" d="M 10.34375 0 L 10.34375 -78.546875 L 55.546875 -78.546875 L 55.546875 0 Z M 15.953125 -5.609375 L 49.9375 -5.609375 L 49.9375 -72.9375 L 15.953125 -72.9375 Z M 15.953125 -5.609375 "/>
</symbol>
<symbol overflow="visible" id="id2:glyph0-1">
<path style="stroke:none;" d="M 64.6875 -94.375 L 70.625 -100.765625 C 71.71875 -99.878906 72.773438 -98.976562 73.796875 -98.0625 C 74.828125 -97.144531 75.859375 -96.101562 76.890625 -94.9375 L 71.0625 -88.546875 C 69.15625 -90.742188 67.03125 -92.6875 64.6875 -94.375 Z M 3.84375 -46.09375 C 3.84375 -53.207031 4.738281 -59.734375 6.53125 -65.671875 C 8.332031 -71.609375 10.789062 -76.738281 13.90625 -81.0625 C 17.03125 -85.394531 20.625 -88.734375 24.6875 -91.078125 C 28.757812 -93.421875 33.070312 -94.59375 37.625 -94.59375 C 41.507812 -94.59375 45.007812 -93.84375 48.125 -92.34375 C 51.238281 -90.84375 54.046875 -89.320312 56.546875 -87.78125 C 58.816406 -86.382812 61.085938 -85.132812 63.359375 -84.03125 C 65.628906 -82.9375 68.085938 -82.390625 70.734375 -82.390625 C 74.253906 -82.390625 77.238281 -83.539062 79.6875 -85.84375 C 82.144531 -88.15625 84.515625 -91.222656 86.796875 -95.046875 L 90.203125 -93.390625 C 87.191406 -86.566406 84.019531 -81.832031 80.6875 -79.1875 C 77.351562 -76.550781 73.738281 -75.234375 69.84375 -75.234375 C 66.550781 -75.234375 63.640625 -75.800781 61.109375 -76.9375 C 58.578125 -78.082031 55.585938 -79.679688 52.140625 -81.734375 C 48.984375 -83.640625 46.269531 -85.066406 44 -86.015625 C 41.726562 -86.972656 39.414062 -87.453125 37.0625 -87.453125 C 34.132812 -87.453125 31.1875 -86.644531 28.21875 -85.03125 C 25.25 -83.414062 22.515625 -80.972656 20.015625 -77.703125 C 17.523438 -74.441406 15.523438 -70.300781 14.015625 -65.28125 C 12.515625 -60.257812 11.765625 -54.375 11.765625 -47.625 C 11.765625 -39.195312 13.007812 -31.863281 15.5 -25.625 C 18 -19.394531 21.578125 -14.570312 26.234375 -11.15625 C 30.890625 -7.75 36.519531 -6.046875 43.125 -6.046875 C 47.15625 -6.046875 50.691406 -6.628906 53.734375 -7.796875 C 56.773438 -8.972656 59.175781 -10.570312 60.9375 -12.59375 C 62.695312 -14.613281 63.578125 -16.867188 63.578125 -19.359375 C 63.578125 -22.441406 62.328125 -25.007812 59.828125 -27.0625 C 57.335938 -29.113281 53.414062 -30.539062 48.0625 -31.34375 C 46.75 -31.570312 45.265625 -31.757812 43.609375 -31.90625 C 41.960938 -32.050781 40.257812 -32.125 38.5 -32.125 L 37.515625 -33.328125 L 39.484375 -38.171875 C 40.734375 -38.679688 42.035156 -39.25 43.390625 -39.875 C 44.753906 -40.5 46.203125 -41.210938 47.734375 -42.015625 C 51.472656 -44.140625 54.257812 -46.046875 56.09375 -47.734375 C 58.664062 -50.160156 59.953125 -53.019531 59.953125 -56.3125 C 59.953125 -59.101562 58.90625 -61.429688 56.8125 -63.296875 C 54.726562 -65.171875 52.070312 -66.109375 48.84375 -66.109375 C 46.125 -66.109375 43.882812 -65.429688 42.125 -64.078125 C 40.363281 -62.722656 39.484375 -60.90625 39.484375 -58.625 C 39.484375 -56.5 40.109375 -54.300781 41.359375 -52.03125 L 34.203125 -49.171875 C 32.816406 -51.804688 32.125 -54.445312 32.125 -57.09375 C 32.125 -60.09375 32.945312 -62.820312 34.59375 -65.28125 C 36.238281 -67.738281 38.4375 -69.703125 41.1875 -71.171875 C 43.9375 -72.640625 46.960938 -73.375 50.265625 -73.375 C 53.492188 -73.375 56.390625 -72.675781 58.953125 -71.28125 C 61.523438 -69.882812 63.539062 -67.992188 65 -65.609375 C 66.46875 -63.234375 67.203125 -60.46875 67.203125 -57.3125 C 67.203125 -54.8125 66.671875 -52.40625 65.609375 -50.09375 C 64.546875 -47.789062 62.84375 -45.578125 60.5 -43.453125 C 58.082031 -41.253906 55.148438 -39.3125 51.703125 -37.625 C 53.390625 -37.332031 55 -36.984375 56.53125 -36.578125 C 58.070312 -36.171875 59.539062 -35.675781 60.9375 -35.09375 C 67.6875 -32.007812 71.0625 -27.054688 71.0625 -20.234375 C 71.0625 -16.054688 69.847656 -12.375 67.421875 -9.1875 C 65.003906 -6 61.628906 -3.488281 57.296875 -1.65625 C 52.972656 0.175781 47.988281 1.09375 42.34375 1.09375 C 34.207031 1.09375 27.257812 -0.921875 21.5 -4.953125 C 15.75 -8.984375 11.367188 -14.535156 8.359375 -21.609375 C 5.347656 -28.691406 3.84375 -36.851562 3.84375 -46.09375 Z M 3.84375 -46.09375 "/>
</symbol>
</g>
</defs>
  <g id="id0:id0" transform="matrix(1.25,0,0,1.25,0.0,1.328125)"><g id="id0:surface1">
<g style="fill:rgb(0%,0%,0%);fill-opacity:1;">
  <use xlink:href="#id0:glyph0-1" x="16" y="102.875"/>
  <use xlink:href="#id0:glyph0-2" x="84.96875" y="102.875"/>
  <use xlink:href="#id0:glyph0-3" x="84.53125" y="102.875"/>
</g>
</g>
</g>
  <g id="id1:id1" transform="matrix(1.25,0,0,1.25,126.2109375,0.0)"><g id="id1:surface1">
<g style="fill:rgb(0%,0%,0%);fill-opacity:1;">
  <use xlink:href="#id1:glyph0-1" x="0" y="120.84375"/>
</g>
</g>
</g>
  <g id="id2:id2" transform="matrix(1.25,0,0,1.25,258.80859375,1.328125)"><g id="id2:surface1">
<g style="fill:rgb(0%,0%,0%);fill-opacity:1;">
  <use xlink:href="#id2:glyph0-1" x="16" y="102.875"/>
</g>
</g>
</g>
</svg>
