<!DOCTYPE svg PUBLIC "-//W3C//DTD SVG 1.1//EN" "http://www.w3.org/Graphics/SVG/1.1/DTD/svg11.dtd">
<!-- Created with svg_stack (http://github.com/astraw/svg_stack) --><svg xmlns="http://www.w3.org/2000/svg" xmlns:sodipodi="http://sodipodi.sourceforge.net/DTD/sodipodi-0.dtd" xmlns:xlink="http://www.w3.org/1999/xlink" version="1.1" width="100%" id="oriya-akhn-kssa" viewBox="0 0 480.99609375 201.40625">
  <defs><g>
<symbol overflow="visible" id="oriya-akhn-kssa:id0:glyph0-0">
<path style="stroke:none;" d="M 10.34375 0 L 10.34375 -78.546875 L 55.546875 -78.546875 L 55.546875 0 Z M 15.953125 -5.609375 L 49.9375 -5.609375 L 49.9375 -72.9375 L 15.953125 -72.9375 Z M 15.953125 -5.609375 "/>
</symbol>
<symbol overflow="visible" id="oriya-akhn-kssa:id0:glyph0-1">
<path style="stroke:none;" d="M 11.328125 -23.09375 C 11.328125 -24.195312 11.4375 -25.265625 11.65625 -26.296875 C 8.945312 -29.296875 6.910156 -32.554688 5.546875 -36.078125 C 4.191406 -39.597656 3.515625 -43.117188 3.515625 -46.640625 C 3.515625 -51.628906 4.816406 -56.140625 7.421875 -60.171875 C 10.023438 -64.203125 13.632812 -67.410156 18.25 -69.796875 C 22.875 -72.179688 28.191406 -73.375 34.203125 -73.375 C 38.753906 -73.375 42.789062 -72.726562 46.3125 -71.4375 C 49.832031 -70.15625 52.929688 -68.539062 55.609375 -66.59375 C 58.285156 -64.65625 60.59375 -62.625 62.53125 -60.5 C 64.476562 -58.375 66.148438 -56.46875 67.546875 -54.78125 L 62.15625 -49.0625 L 61.046875 -49.0625 C 59.359375 -51.476562 57.210938 -54.003906 54.609375 -56.640625 C 52.003906 -59.285156 48.882812 -61.523438 45.25 -63.359375 C 41.625 -65.191406 37.394531 -66.109375 32.5625 -66.109375 C 28.382812 -66.109375 24.679688 -65.335938 21.453125 -63.796875 C 18.222656 -62.253906 15.671875 -60.109375 13.796875 -57.359375 C 11.929688 -54.609375 11 -51.4375 11 -47.84375 C 11 -45.28125 11.472656 -42.878906 12.421875 -40.640625 C 13.378906 -38.410156 14.628906 -36.488281 16.171875 -34.875 C 17.566406 -36.1875 19.144531 -37.207031 20.90625 -37.9375 C 22.664062 -38.675781 24.535156 -39.046875 26.515625 -39.046875 C 28.640625 -39.046875 30.597656 -38.550781 32.390625 -37.5625 C 34.191406 -36.570312 35.675781 -35.269531 36.84375 -33.65625 C 38.09375 -35.414062 39.6875 -36.753906 41.625 -37.671875 C 43.570312 -38.585938 45.5 -39.046875 47.40625 -39.046875 C 50.632812 -39.046875 53.179688 -37.984375 55.046875 -35.859375 C 56.921875 -33.734375 57.859375 -30.210938 57.859375 -25.296875 L 57.859375 -0.765625 L 51.15625 0.765625 L 50.484375 0 L 50.484375 -22.765625 C 50.484375 -25.554688 50.023438 -27.757812 49.109375 -29.375 C 48.191406 -30.988281 46.890625 -31.796875 45.203125 -31.796875 C 43.816406 -31.796875 42.679688 -31.375 41.796875 -30.53125 C 40.921875 -29.6875 40.484375 -28.75 40.484375 -27.71875 L 40.484375 -0.765625 L 33.875 0.765625 L 33.109375 0 L 33.109375 -10.234375 C 30.910156 -8.546875 28.34375 -7.703125 25.40625 -7.703125 C 22.769531 -7.703125 20.382812 -8.378906 18.25 -9.734375 C 16.125 -11.085938 14.4375 -12.921875 13.1875 -15.234375 C 11.945312 -17.546875 11.328125 -20.164062 11.328125 -23.09375 Z M 18.046875 -25.078125 C 18.046875 -21.847656 19.050781 -19.222656 21.0625 -17.203125 C 23.082031 -15.191406 25.226562 -14.1875 27.5 -14.1875 C 29.550781 -14.1875 31.195312 -14.882812 32.4375 -16.28125 C 33.6875 -17.675781 34.3125 -19.4375 34.3125 -21.5625 C 34.3125 -24.71875 33.335938 -27.300781 31.390625 -29.3125 C 29.453125 -31.332031 27.203125 -32.34375 24.640625 -32.34375 C 22.585938 -32.34375 20.972656 -31.644531 19.796875 -30.25 C 18.628906 -28.851562 18.046875 -27.128906 18.046875 -25.078125 Z M 18.046875 -25.078125 "/>
</symbol>
<symbol overflow="visible" id="oriya-akhn-kssa:id0:glyph0-2">
<path style="stroke:none;" d="M 0.4375 30.140625 C -2.125 26.472656 -4.890625 22.878906 -7.859375 19.359375 C -10.828125 15.835938 -13.925781 12.5 -17.15625 9.34375 L -10.34375 3.953125 C -7.476562 7.398438 -4.722656 10.9375 -2.078125 14.5625 C 0.554688 18.195312 3.046875 21.921875 5.390625 25.734375 Z M 0.4375 30.140625 "/>
</symbol>
<symbol overflow="visible" id="oriya-akhn-kssa:id0:glyph0-3">
<path style="stroke:none;" d="M 13.09375 -17.15625 C 13.09375 -19.726562 13.601562 -22.332031 14.625 -24.96875 C 11.03125 -27.757812 8.28125 -31.097656 6.375 -34.984375 C 4.46875 -38.867188 3.515625 -42.863281 3.515625 -46.96875 C 3.515625 -51.882812 4.757812 -56.320312 7.25 -60.28125 C 9.75 -64.238281 13.21875 -67.410156 17.65625 -69.796875 C 22.09375 -72.179688 27.242188 -73.375 33.109375 -73.375 C 42.128906 -73.375 49.789062 -70.4375 56.09375 -64.5625 L 56.09375 -71.5 L 62.703125 -73.046875 L 63.46875 -72.265625 L 63.46875 -0.765625 L 56.875 0.765625 L 56.09375 0 L 56.09375 -11.546875 C 53.75 -7.367188 50.671875 -4.21875 46.859375 -2.09375 C 43.046875 0.03125 38.753906 1.09375 33.984375 1.09375 C 29.441406 1.09375 25.609375 0.234375 22.484375 -1.484375 C 19.367188 -3.203125 17.023438 -5.457031 15.453125 -8.25 C 13.878906 -11.039062 13.09375 -14.007812 13.09375 -17.15625 Z M 31.90625 -66.109375 C 29.476562 -66.109375 27.238281 -65.847656 25.1875 -65.328125 C 23.132812 -64.816406 21.300781 -64.085938 19.6875 -63.140625 L 52.03125 -15.296875 C 53.132812 -16.972656 54.03125 -18.875 54.71875 -21 C 55.414062 -23.132812 55.875 -25.445312 56.09375 -27.9375 L 56.09375 -54.671875 C 53.019531 -58.265625 49.425781 -61.066406 45.3125 -63.078125 C 41.207031 -65.097656 36.738281 -66.109375 31.90625 -66.109375 Z M 11 -48.40625 C 11 -45.175781 11.769531 -42.296875 13.3125 -39.765625 C 14.851562 -37.234375 16.976562 -35.125 19.6875 -33.4375 C 21.957031 -36.375 24.742188 -39.125 28.046875 -41.6875 L 15.625 -60.0625 C 12.539062 -56.90625 11 -53.019531 11 -48.40625 Z M 20.5625 -19.03125 C 20.5625 -15.507812 21.804688 -12.460938 24.296875 -9.890625 C 26.796875 -7.328125 30.359375 -6.046875 34.984375 -6.046875 C 40.265625 -6.046875 44.8125 -7.769531 48.625 -11.21875 L 31.453125 -36.625 C 27.492188 -33.175781 24.6875 -30.019531 23.03125 -27.15625 C 21.382812 -24.300781 20.5625 -21.59375 20.5625 -19.03125 Z M 20.5625 -19.03125 "/>
</symbol>
</g>
<g>
<symbol overflow="visible" id="oriya-akhn-kssa:id1:glyph0-0">
<path style="stroke:none;" d="M 5.375 -96.6875 L 69.828125 -96.6875 L 69.828125 0 L 5.375 0 Z M 8.0625 -2.6875 L 67.140625 -2.6875 L 67.140625 -94 L 8.0625 -94 Z M 8.0625 -2.6875 "/>
</symbol>
<symbol overflow="visible" id="oriya-akhn-kssa:id1:glyph0-1">
<path style="stroke:none;" d="M 68.15625 -13.75 L 66.28125 -18.640625 L 88.09375 -27.390625 L 6.984375 -27.390625 L 6.984375 -34 L 88.09375 -34 L 66.28125 -42.75 L 68.15625 -47.640625 L 99.09375 -34.265625 L 99.09375 -27.125 Z M 68.15625 -13.75 "/>
</symbol>
</g>
<g>
<symbol overflow="visible" id="oriya-akhn-kssa:id2:glyph0-0">
<path style="stroke:none;" d="M 10.34375 0 L 10.34375 -78.546875 L 55.546875 -78.546875 L 55.546875 0 Z M 15.953125 -5.609375 L 49.9375 -5.609375 L 49.9375 -72.9375 L 15.953125 -72.9375 Z M 15.953125 -5.609375 "/>
</symbol>
<symbol overflow="visible" id="oriya-akhn-kssa:id2:glyph0-1">
<path style="stroke:none;" d="M 1.09375 -11.765625 C 1.09375 -13.742188 1.828125 -15.867188 3.296875 -18.140625 C 4.765625 -20.421875 6.707031 -22.640625 9.125 -24.796875 C 11.550781 -26.960938 14.191406 -28.890625 17.046875 -30.578125 C 13.890625 -32.773438 11.503906 -35.488281 9.890625 -38.71875 C 8.285156 -41.945312 7.484375 -45.320312 7.484375 -48.84375 C 7.484375 -53.238281 8.691406 -57.285156 11.109375 -60.984375 C 13.523438 -64.691406 16.894531 -67.679688 21.21875 -69.953125 C 25.550781 -72.234375 30.578125 -73.375 36.296875 -73.375 C 41.359375 -73.375 45.921875 -72.492188 49.984375 -70.734375 C 54.054688 -68.972656 57.523438 -66.84375 60.390625 -64.34375 L 60.390625 -71.5 L 66.984375 -73.046875 L 67.765625 -72.265625 L 67.765625 -0.765625 L 61.15625 0.765625 L 60.390625 0 L 60.390625 -11.4375 C 58.046875 -7.332031 55.003906 -4.21875 51.265625 -2.09375 C 47.523438 0.03125 43.269531 1.09375 38.5 1.09375 C 33.957031 1.09375 30.109375 0.210938 26.953125 -1.546875 C 23.796875 -3.304688 21.410156 -5.613281 19.796875 -8.46875 C 18.179688 -11.332031 17.375 -14.375 17.375 -17.59375 C 17.375 -20.601562 18.179688 -23.6875 19.796875 -26.84375 C 15.179688 -23.976562 11.769531 -20.675781 9.5625 -16.9375 C 12.28125 -15.46875 13.640625 -13.34375 13.640625 -10.5625 C 13.640625 -8.726562 13.015625 -7.222656 11.765625 -6.046875 C 10.523438 -4.878906 9.097656 -4.296875 7.484375 -4.296875 C 5.941406 -4.296875 4.488281 -4.878906 3.125 -6.046875 C 1.769531 -7.222656 1.09375 -9.128906 1.09375 -11.765625 Z M 35.203125 -66.109375 C 31.460938 -66.109375 28.125 -65.519531 25.1875 -64.34375 L 57.09375 -16.609375 C 58.113281 -18.515625 58.914062 -20.660156 59.5 -23.046875 C 60.09375 -25.429688 60.390625 -28.015625 60.390625 -30.796875 L 60.390625 -54.015625 C 57.671875 -57.378906 54.1875 -60.234375 49.9375 -62.578125 C 45.6875 -64.929688 40.773438 -66.109375 35.203125 -66.109375 Z M 14.953125 -50.15625 C 14.953125 -47.007812 15.882812 -44.0625 17.75 -41.3125 C 19.625 -38.5625 22.25 -36.488281 25.625 -35.09375 C 27.90625 -37.582031 30.617188 -40.070312 33.765625 -42.5625 L 20.90625 -61.9375 C 16.9375 -58.925781 14.953125 -55 14.953125 -50.15625 Z M 24.859375 -19.25 C 24.859375 -15.726562 26.140625 -12.644531 28.703125 -10 C 31.273438 -7.363281 34.867188 -6.046875 39.484375 -6.046875 C 42.203125 -6.046875 44.804688 -6.578125 47.296875 -7.640625 C 49.796875 -8.703125 52.035156 -10.257812 54.015625 -12.3125 L 37.1875 -37.515625 C 32.5625 -33.703125 29.347656 -30.363281 27.546875 -27.5 C 25.753906 -24.632812 24.859375 -21.882812 24.859375 -19.25 Z M 24.859375 -19.25 "/>
</symbol>
</g>
</defs>
  <g id="oriya-akhn-kssa:id0:id0" transform="matrix(1.25,0,0,1.25,0.0,1.328125)"><g id="oriya-akhn-kssa:id0:surface1">
<g style="fill:rgb(0%,0%,0%);fill-opacity:1;">
  <use xlink:href="#oriya-akhn-kssa:id0:glyph0-1" x="16" y="102.875" class="c0"/>
  <use xlink:href="#oriya-akhn-kssa:id0:glyph0-2" x="80.5625" y="102.875" class="c1"/>
  <use xlink:href="#oriya-akhn-kssa:id0:glyph0-3" x="86.0625" y="102.875" class="c2"/>
</g>
</g>
</g>
  <g id="oriya-akhn-kssa:id1:id1" transform="matrix(1.25,0,0,1.25,215.3125,0.0)"><g id="oriya-akhn-kssa:id1:surface1">
<g style="fill:rgb(0%,0%,0%);fill-opacity:1;">
  <use xlink:href="#oriya-akhn-kssa:id1:glyph0-1" x="0" y="120.84375" class="arrow"/>
</g>
</g>
</g>
  <g id="oriya-akhn-kssa:id2:id2" transform="matrix(1.25,0,0,1.25,347.91015625,1.328125)"><g id="oriya-akhn-kssa:id2:surface1">
<g style="fill:rgb(0%,0%,0%);fill-opacity:1;">
  <use xlink:href="#oriya-akhn-kssa:id2:glyph0-1" x="16" y="102.875" class="c3"/>
</g>
</g>
</g>
</svg>
