<!DOCTYPE svg PUBLIC "-//W3C//DTD SVG 1.1//EN" "http://www.w3.org/Graphics/SVG/1.1/DTD/svg11.dtd">
<!-- Created with svg_stack (http://github.com/astraw/svg_stack) --><svg xmlns="http://www.w3.org/2000/svg" xmlns:sodipodi="http://sodipodi.sourceforge.net/DTD/sodipodi-0.dtd" xmlns:xlink="http://www.w3.org/1999/xlink" version="1.1" width="100%" id="oriya-blwm" viewBox="0 0 433.14453125 201.40625">
  <defs><g>
<symbol overflow="visible" id="oriya-blwm:id0:glyph0-0">
<path style="stroke:none;" d="M 10.34375 0 L 10.34375 -78.546875 L 55.546875 -78.546875 L 55.546875 0 Z M 15.953125 -5.609375 L 49.9375 -5.609375 L 49.9375 -72.9375 L 15.953125 -72.9375 Z M 15.953125 -5.609375 "/>
</symbol>
<symbol overflow="visible" id="oriya-blwm:id0:glyph0-1">
<path style="stroke:none;" d="M 9.796875 -7.59375 C 9.796875 -10.300781 10.289062 -13.046875 11.28125 -15.828125 C 12.269531 -18.617188 13.789062 -21.375 15.84375 -24.09375 C 11.8125 -26.875 8.75 -30.316406 6.65625 -34.421875 C 4.5625 -38.535156 3.515625 -42.828125 3.515625 -47.296875 C 3.515625 -51.992188 4.816406 -56.320312 7.421875 -60.28125 C 10.023438 -64.238281 13.632812 -67.410156 18.25 -69.796875 C 22.875 -72.179688 28.269531 -73.375 34.4375 -73.375 C 38.90625 -73.375 43.046875 -72.710938 46.859375 -71.390625 L 46.859375 -69.84375 C 41.867188 -64.863281 39.375 -60.28125 39.375 -56.09375 C 39.375 -53.894531 40.085938 -52.191406 41.515625 -50.984375 C 42.953125 -49.773438 44.769531 -49.171875 46.96875 -49.171875 C 49.3125 -49.171875 51.304688 -49.8125 52.953125 -51.09375 C 54.609375 -52.375 55.914062 -54.191406 56.875 -56.546875 L 44.765625 -78.203125 L 48.84375 -80.40625 L 58.078125 -63.90625 L 58.078125 -71.5 L 64.6875 -73.046875 L 65.453125 -72.265625 L 65.453125 -67.765625 C 68.015625 -69.597656 70.875 -70.515625 74.03125 -70.515625 C 78.132812 -70.515625 81.539062 -69.0625 84.25 -66.15625 C 86.96875 -63.257812 88.328125 -59.648438 88.328125 -55.328125 C 88.328125 -52.316406 87.664062 -49.566406 86.34375 -47.078125 C 85.03125 -44.585938 83.21875 -42.625 80.90625 -41.1875 C 78.59375 -39.757812 76.007812 -39.046875 73.15625 -39.046875 C 72.707031 -39.046875 72.300781 -39.046875 71.9375 -39.046875 L 77.4375 -29.265625 L 73.484375 -26.84375 L 65.453125 -41.25 L 65.453125 -0.765625 L 58.84375 0.765625 L 58.078125 0 L 58.078125 -48.84375 C 56.535156 -46.71875 54.679688 -45.046875 52.515625 -43.828125 C 50.359375 -42.617188 47.921875 -42.015625 45.203125 -42.015625 C 41.242188 -42.015625 38.054688 -43.1875 35.640625 -45.53125 C 33.222656 -47.882812 32.015625 -50.859375 32.015625 -54.453125 C 32.015625 -58.191406 33.695312 -62.003906 37.0625 -65.890625 C 35.820312 -66.035156 34.539062 -66.109375 33.21875 -66.109375 C 28.601562 -66.109375 24.625 -65.335938 21.28125 -63.796875 C 17.945312 -62.253906 15.398438 -60.179688 13.640625 -57.578125 C 11.878906 -54.984375 11 -52.070312 11 -48.84375 C 11 -44.8125 12.097656 -41.304688 14.296875 -38.328125 C 16.492188 -35.359375 19.425781 -33.03125 23.09375 -31.34375 C 24.851562 -32.738281 26.78125 -34.019531 28.875 -35.1875 C 30.96875 -36.363281 33.222656 -37.429688 35.640625 -38.390625 L 38.5 -31.90625 C 32.34375 -29.695312 27.648438 -26.90625 24.421875 -23.53125 C 21.191406 -20.164062 18.84375 -16.390625 17.375 -12.203125 C 20.820312 -11.109375 22.546875 -8.875 22.546875 -5.5 C 22.546875 -3.664062 21.941406 -2.160156 20.734375 -0.984375 C 19.523438 0.179688 18.078125 0.765625 16.390625 0.765625 C 14.773438 0.765625 13.269531 0.125 11.875 -1.15625 C 10.488281 -2.4375 9.796875 -4.582031 9.796875 -7.59375 Z M 65.78125 -55.875 C 65.78125 -52.945312 66.640625 -50.492188 68.359375 -48.515625 C 70.085938 -46.535156 72.085938 -45.546875 74.359375 -45.546875 C 76.554688 -45.546875 78.28125 -46.332031 79.53125 -47.90625 C 80.78125 -49.476562 81.40625 -51.441406 81.40625 -53.796875 C 81.40625 -56.648438 80.5625 -59.082031 78.875 -61.09375 C 77.1875 -63.113281 75.164062 -64.125 72.8125 -64.125 C 70.613281 -64.125 68.890625 -63.335938 67.640625 -61.765625 C 66.398438 -60.191406 65.78125 -58.226562 65.78125 -55.875 Z M 65.78125 -55.875 "/>
</symbol>
<symbol overflow="visible" id="oriya-blwm:id0:glyph0-2">
<path style="stroke:none;" d="M -7.15625 24.53125 L -8.46875 23.3125 C -7.363281 21.332031 -6.28125 19.847656 -5.21875 18.859375 C -4.15625 17.867188 -2.851562 17.375 -1.3125 17.375 C 0.363281 17.375 1.863281 17.851562 3.1875 18.8125 C 4.582031 19.757812 5.664062 21.019531 6.4375 22.59375 C 7.207031 24.175781 7.59375 25.8125 7.59375 27.5 C 7.59375 30.507812 6.179688 33.078125 3.359375 35.203125 C 0.535156 37.328125 -3.1875 38.390625 -7.8125 38.390625 C -11.625 38.390625 -14.757812 37.707031 -17.21875 36.34375 C -19.675781 34.988281 -21.488281 33.335938 -22.65625 31.390625 C -23.832031 29.453125 -24.421875 27.566406 -24.421875 25.734375 C -24.421875 24.117188 -24.015625 22.523438 -23.203125 20.953125 C -22.398438 19.378906 -21.300781 17.859375 -19.90625 16.390625 C -23.789062 14.554688 -25.734375 11.953125 -25.734375 8.578125 C -25.734375 5.796875 -24.503906 3.320312 -22.046875 1.15625 C -19.597656 -1.007812 -16.6875 -2.566406 -13.3125 -3.515625 L -6.703125 -3.296875 L -6.703125 -0.65625 L -7.703125 0.328125 C -10.773438 0.835938 -13.097656 1.492188 -14.671875 2.296875 C -16.253906 3.109375 -17.335938 3.914062 -17.921875 4.71875 C -18.515625 5.53125 -18.8125 6.269531 -18.8125 6.9375 C -18.8125 8.914062 -17.195312 10.414062 -13.96875 11.4375 C -12.132812 10.269531 -10.191406 9.207031 -8.140625 8.25 L -5.71875 12.984375 C -8.945312 14.523438 -11.382812 15.972656 -13.03125 17.328125 C -14.6875 18.679688 -15.804688 19.90625 -16.390625 21 C -16.972656 22.101562 -17.265625 23.132812 -17.265625 24.09375 C -17.265625 25.925781 -16.363281 27.648438 -14.5625 29.265625 C -12.769531 30.878906 -10.113281 31.6875 -6.59375 31.6875 C -4.46875 31.6875 -2.671875 31.335938 -1.203125 30.640625 C 0.253906 29.941406 0.984375 29.003906 0.984375 27.828125 C 0.984375 26.503906 0.507812 25.441406 -0.4375 24.640625 C -1.394531 23.835938 -2.492188 23.4375 -3.734375 23.4375 C -4.617188 23.4375 -5.757812 23.800781 -7.15625 24.53125 Z M -7.15625 24.53125 "/>
</symbol>
</g>
<g>
<symbol overflow="visible" id="oriya-blwm:id1:glyph0-0">
<path style="stroke:none;" d="M 5.375 -96.6875 L 69.828125 -96.6875 L 69.828125 0 L 5.375 0 Z M 8.0625 -2.6875 L 67.140625 -2.6875 L 67.140625 -94 L 8.0625 -94 Z M 8.0625 -2.6875 "/>
</symbol>
<symbol overflow="visible" id="oriya-blwm:id1:glyph0-1">
<path style="stroke:none;" d="M 68.15625 -13.75 L 66.28125 -18.640625 L 88.09375 -27.390625 L 6.984375 -27.390625 L 6.984375 -34 L 88.09375 -34 L 66.28125 -42.75 L 68.15625 -47.640625 L 99.09375 -34.265625 L 99.09375 -27.125 Z M 68.15625 -13.75 "/>
</symbol>
</g>
<g>
<symbol overflow="visible" id="oriya-blwm:id2:glyph0-0">
<path style="stroke:none;" d="M 10.34375 0 L 10.34375 -78.546875 L 55.546875 -78.546875 L 55.546875 0 Z M 15.953125 -5.609375 L 49.9375 -5.609375 L 49.9375 -72.9375 L 15.953125 -72.9375 Z M 15.953125 -5.609375 "/>
</symbol>
<symbol overflow="visible" id="oriya-blwm:id2:glyph0-1">
<path style="stroke:none;" d="M 9.796875 -7.59375 C 9.796875 -10.300781 10.289062 -13.046875 11.28125 -15.828125 C 12.269531 -18.617188 13.789062 -21.375 15.84375 -24.09375 C 11.8125 -26.875 8.75 -30.316406 6.65625 -34.421875 C 4.5625 -38.535156 3.515625 -42.828125 3.515625 -47.296875 C 3.515625 -51.992188 4.816406 -56.320312 7.421875 -60.28125 C 10.023438 -64.238281 13.632812 -67.410156 18.25 -69.796875 C 22.875 -72.179688 28.269531 -73.375 34.4375 -73.375 C 38.90625 -73.375 43.046875 -72.710938 46.859375 -71.390625 L 46.859375 -69.84375 C 41.867188 -64.863281 39.375 -60.28125 39.375 -56.09375 C 39.375 -53.894531 40.085938 -52.191406 41.515625 -50.984375 C 42.953125 -49.773438 44.769531 -49.171875 46.96875 -49.171875 C 49.3125 -49.171875 51.304688 -49.8125 52.953125 -51.09375 C 54.609375 -52.375 55.914062 -54.191406 56.875 -56.546875 L 44.765625 -78.203125 L 48.84375 -80.40625 L 58.078125 -63.90625 L 58.078125 -71.5 L 64.6875 -73.046875 L 65.453125 -72.265625 L 65.453125 -67.765625 C 68.015625 -69.597656 70.875 -70.515625 74.03125 -70.515625 C 78.132812 -70.515625 81.539062 -69.0625 84.25 -66.15625 C 86.96875 -63.257812 88.328125 -59.648438 88.328125 -55.328125 C 88.328125 -52.316406 87.664062 -49.566406 86.34375 -47.078125 C 85.03125 -44.585938 83.21875 -42.625 80.90625 -41.1875 C 78.59375 -39.757812 76.007812 -39.046875 73.15625 -39.046875 C 72.707031 -39.046875 72.300781 -39.046875 71.9375 -39.046875 L 77.4375 -29.265625 L 73.484375 -26.84375 L 65.453125 -41.25 L 65.453125 -0.765625 L 58.84375 0.765625 L 58.078125 0 L 58.078125 -48.84375 C 56.535156 -46.71875 54.679688 -45.046875 52.515625 -43.828125 C 50.359375 -42.617188 47.921875 -42.015625 45.203125 -42.015625 C 41.242188 -42.015625 38.054688 -43.1875 35.640625 -45.53125 C 33.222656 -47.882812 32.015625 -50.859375 32.015625 -54.453125 C 32.015625 -58.191406 33.695312 -62.003906 37.0625 -65.890625 C 35.820312 -66.035156 34.539062 -66.109375 33.21875 -66.109375 C 28.601562 -66.109375 24.625 -65.335938 21.28125 -63.796875 C 17.945312 -62.253906 15.398438 -60.179688 13.640625 -57.578125 C 11.878906 -54.984375 11 -52.070312 11 -48.84375 C 11 -44.8125 12.097656 -41.304688 14.296875 -38.328125 C 16.492188 -35.359375 19.425781 -33.03125 23.09375 -31.34375 C 24.851562 -32.738281 26.78125 -34.019531 28.875 -35.1875 C 30.96875 -36.363281 33.222656 -37.429688 35.640625 -38.390625 L 38.5 -31.90625 C 32.34375 -29.695312 27.648438 -26.90625 24.421875 -23.53125 C 21.191406 -20.164062 18.84375 -16.390625 17.375 -12.203125 C 20.820312 -11.109375 22.546875 -8.875 22.546875 -5.5 C 22.546875 -3.664062 21.941406 -2.160156 20.734375 -0.984375 C 19.523438 0.179688 18.078125 0.765625 16.390625 0.765625 C 14.773438 0.765625 13.269531 0.125 11.875 -1.15625 C 10.488281 -2.4375 9.796875 -4.582031 9.796875 -7.59375 Z M 65.78125 -55.875 C 65.78125 -52.945312 66.640625 -50.492188 68.359375 -48.515625 C 70.085938 -46.535156 72.085938 -45.546875 74.359375 -45.546875 C 76.554688 -45.546875 78.28125 -46.332031 79.53125 -47.90625 C 80.78125 -49.476562 81.40625 -51.441406 81.40625 -53.796875 C 81.40625 -56.648438 80.5625 -59.082031 78.875 -61.09375 C 77.1875 -63.113281 75.164062 -64.125 72.8125 -64.125 C 70.613281 -64.125 68.890625 -63.335938 67.640625 -61.765625 C 66.398438 -60.191406 65.78125 -58.226562 65.78125 -55.875 Z M 65.78125 -55.875 "/>
</symbol>
<symbol overflow="visible" id="oriya-blwm:id2:glyph0-2">
<path style="stroke:none;" d="M -7.15625 24.53125 L -8.46875 23.3125 C -7.363281 21.332031 -6.28125 19.847656 -5.21875 18.859375 C -4.15625 17.867188 -2.851562 17.375 -1.3125 17.375 C 0.363281 17.375 1.863281 17.851562 3.1875 18.8125 C 4.582031 19.757812 5.664062 21.019531 6.4375 22.59375 C 7.207031 24.175781 7.59375 25.8125 7.59375 27.5 C 7.59375 30.507812 6.179688 33.078125 3.359375 35.203125 C 0.535156 37.328125 -3.1875 38.390625 -7.8125 38.390625 C -11.625 38.390625 -14.757812 37.707031 -17.21875 36.34375 C -19.675781 34.988281 -21.488281 33.335938 -22.65625 31.390625 C -23.832031 29.453125 -24.421875 27.566406 -24.421875 25.734375 C -24.421875 24.117188 -24.015625 22.523438 -23.203125 20.953125 C -22.398438 19.378906 -21.300781 17.859375 -19.90625 16.390625 C -23.789062 14.554688 -25.734375 11.953125 -25.734375 8.578125 C -25.734375 5.796875 -24.503906 3.320312 -22.046875 1.15625 C -19.597656 -1.007812 -16.6875 -2.566406 -13.3125 -3.515625 L -6.703125 -3.296875 L -6.703125 -0.65625 L -7.703125 0.328125 C -10.773438 0.835938 -13.097656 1.492188 -14.671875 2.296875 C -16.253906 3.109375 -17.335938 3.914062 -17.921875 4.71875 C -18.515625 5.53125 -18.8125 6.269531 -18.8125 6.9375 C -18.8125 8.914062 -17.195312 10.414062 -13.96875 11.4375 C -12.132812 10.269531 -10.191406 9.207031 -8.140625 8.25 L -5.71875 12.984375 C -8.945312 14.523438 -11.382812 15.972656 -13.03125 17.328125 C -14.6875 18.679688 -15.804688 19.90625 -16.390625 21 C -16.972656 22.101562 -17.265625 23.132812 -17.265625 24.09375 C -17.265625 25.925781 -16.363281 27.648438 -14.5625 29.265625 C -12.769531 30.878906 -10.113281 31.6875 -6.59375 31.6875 C -4.46875 31.6875 -2.671875 31.335938 -1.203125 30.640625 C 0.253906 29.941406 0.984375 29.003906 0.984375 27.828125 C 0.984375 26.503906 0.507812 25.441406 -0.4375 24.640625 C -1.394531 23.835938 -2.492188 23.4375 -3.734375 23.4375 C -4.617188 23.4375 -5.757812 23.800781 -7.15625 24.53125 Z M -7.15625 24.53125 "/>
</symbol>
</g>
</defs>
  <g id="oriya-blwm:id0:id0" transform="matrix(1.25,0,0,1.25,0.0,1.328125)"><g id="oriya-blwm:id0:surface1">
<g style="fill:rgb(0%,0%,0%);fill-opacity:1;">
  <use xlink:href="#oriya-blwm:id0:glyph0-1" x="16" y="102.875" class="c0"/>
  <use xlink:href="#oriya-blwm:id0:glyph0-2" x="104.21875" y="102.875" class="c1"/>
</g>
</g>
</g>
  <g id="oriya-blwm:id1:id1" transform="matrix(1.25,0,0,1.25,150.2734375,0.0)"><g id="oriya-blwm:id1:surface1">
<g style="fill:rgb(0%,0%,0%);fill-opacity:1;">
  <use xlink:href="#oriya-blwm:id1:glyph0-1" x="0" y="120.84375" class="arrow"/>
</g>
</g>
</g>
  <g id="oriya-blwm:id2:id2" transform="matrix(1.25,0,0,1.25,282.87109375,1.328125)"><g id="oriya-blwm:id2:surface1">
<g style="fill:rgb(0%,0%,0%);fill-opacity:1;">
  <use xlink:href="#oriya-blwm:id2:glyph0-1" x="16" y="102.875" class="c0"/>
  <use xlink:href="#oriya-blwm:id2:glyph0-2" x="88.265625" y="102.875" class="c1"/>
</g>
</g>
</g>
</svg>
