<!DOCTYPE svg PUBLIC "-//W3C//DTD SVG 1.1//EN" "http://www.w3.org/Graphics/SVG/1.1/DTD/svg11.dtd">
<!-- Created with svg_stack (http://github.com/astraw/svg_stack) --><svg xmlns="http://www.w3.org/2000/svg" xmlns:sodipodi="http://sodipodi.sourceforge.net/DTD/sodipodi-0.dtd" xmlns:xlink="http://www.w3.org/1999/xlink" version="1.1" width="100%" id="oriya-pstf-yya-1" viewBox="0 0 508.06640625 201.40625">
  <defs><g>
<symbol overflow="visible" id="oriya-pstf-yya-1:id0:glyph0-0">
<path style="stroke:none;" d="M 10.34375 0 L 10.34375 -78.546875 L 55.546875 -78.546875 L 55.546875 0 Z M 15.953125 -5.609375 L 49.9375 -5.609375 L 49.9375 -72.9375 L 15.953125 -72.9375 Z M 15.953125 -5.609375 "/>
</symbol>
<symbol overflow="visible" id="oriya-pstf-yya-1:id0:glyph0-1">
<path style="stroke:none;" d="M 24.859375 -53.453125 C 24.859375 -55.515625 25.882812 -56.546875 27.9375 -56.546875 C 30.132812 -56.546875 31.234375 -55.515625 31.234375 -53.453125 C 31.234375 -51.328125 30.132812 -50.265625 27.9375 -50.265625 C 25.882812 -50.265625 24.859375 -51.328125 24.859375 -53.453125 Z M 42.234375 -44.765625 C 40.109375 -44.765625 39.046875 -45.828125 39.046875 -47.953125 C 39.046875 -50.085938 40.109375 -51.15625 42.234375 -51.15625 C 44.367188 -51.15625 45.4375 -50.085938 45.4375 -47.953125 C 45.4375 -45.828125 44.367188 -44.765625 42.234375 -44.765625 Z M 10.671875 -47.953125 C 10.671875 -50.085938 11.695312 -51.15625 13.75 -51.15625 C 15.875 -51.15625 16.9375 -50.085938 16.9375 -47.953125 C 16.9375 -45.828125 15.875 -44.765625 13.75 -44.765625 C 11.695312 -44.765625 10.671875 -45.828125 10.671875 -47.953125 Z M 5.71875 -34.3125 C 5.71875 -36.375 6.78125 -37.40625 8.90625 -37.40625 C 10.957031 -37.40625 11.984375 -36.375 11.984375 -34.3125 C 11.984375 -32.1875 10.957031 -31.125 8.90625 -31.125 C 6.78125 -31.125 5.71875 -32.1875 5.71875 -34.3125 Z M 44 -34.3125 C 44 -36.375 45.0625 -37.40625 47.1875 -37.40625 C 49.3125 -37.40625 50.375 -36.375 50.375 -34.3125 C 50.375 -32.1875 49.3125 -31.125 47.1875 -31.125 C 45.0625 -31.125 44 -32.1875 44 -34.3125 Z M 10.671875 -20.5625 C 10.671875 -22.695312 11.695312 -23.765625 13.75 -23.765625 C 15.875 -23.765625 16.9375 -22.695312 16.9375 -20.5625 C 16.9375 -18.4375 15.875 -17.375 13.75 -17.375 C 11.695312 -17.375 10.671875 -18.4375 10.671875 -20.5625 Z M 39.046875 -20.5625 C 39.046875 -22.695312 40.109375 -23.765625 42.234375 -23.765625 C 44.367188 -23.765625 45.4375 -22.695312 45.4375 -20.5625 C 45.4375 -18.4375 44.367188 -17.375 42.234375 -17.375 C 40.109375 -17.375 39.046875 -18.4375 39.046875 -20.5625 Z M 24.859375 -15.0625 C 24.859375 -17.195312 25.882812 -18.265625 27.9375 -18.265625 C 30.132812 -18.265625 31.234375 -17.195312 31.234375 -15.0625 C 31.234375 -12.9375 30.132812 -11.875 27.9375 -11.875 C 25.882812 -11.875 24.859375 -12.9375 24.859375 -15.0625 Z M 24.859375 -15.0625 "/>
</symbol>
<symbol overflow="visible" id="oriya-pstf-yya-1:id0:glyph0-2">
<path style="stroke:none;" d="M 0.4375 30.140625 C -2.125 26.472656 -4.890625 22.878906 -7.859375 19.359375 C -10.828125 15.835938 -13.925781 12.5 -17.15625 9.34375 L -10.34375 3.953125 C -7.476562 7.398438 -4.722656 10.9375 -2.078125 14.5625 C 0.554688 18.195312 3.046875 21.921875 5.390625 25.734375 Z M 0.4375 30.140625 "/>
</symbol>
<symbol overflow="visible" id="oriya-pstf-yya-1:id0:glyph0-3">
<path style="stroke:none;" d="M 1.4375 -11.4375 C 1.4375 -13.488281 2.1875 -15.648438 3.6875 -17.921875 C 5.1875 -20.203125 7.144531 -22.441406 9.5625 -24.640625 C 11.988281 -26.835938 14.59375 -28.78125 17.375 -30.46875 C 14.445312 -32.882812 12.300781 -35.671875 10.9375 -38.828125 C 9.582031 -41.984375 8.90625 -45.140625 8.90625 -48.296875 C 8.90625 -52.765625 10.078125 -56.90625 12.421875 -60.71875 C 14.773438 -64.53125 18.113281 -67.59375 22.4375 -69.90625 C 26.769531 -72.21875 31.832031 -73.375 37.625 -73.375 C 42.53125 -73.375 47.070312 -72.53125 51.25 -70.84375 C 55.4375 -69.15625 58.957031 -66.84375 61.8125 -63.90625 L 61.8125 -71.5 L 68.421875 -73.046875 L 69.1875 -72.265625 L 69.1875 -25.515625 C 71.6875 -25.296875 73.722656 -24.304688 75.296875 -22.546875 C 76.867188 -20.785156 77.65625 -18.695312 77.65625 -16.28125 C 77.65625 -14.007812 76.941406 -11.863281 75.515625 -9.84375 C 74.085938 -7.820312 72.234375 -5.640625 69.953125 -3.296875 L 83.59375 7.046875 L 78.65625 12.203125 L 77.109375 12.203125 L 63.03125 -0.765625 L 63.03125 -3.84375 C 65.882812 -6.707031 67.953125 -8.984375 69.234375 -10.671875 C 70.523438 -12.359375 71.171875 -13.820312 71.171875 -15.0625 C 71.171875 -16.09375 70.820312 -16.921875 70.125 -17.546875 C 69.425781 -18.171875 68.488281 -18.484375 67.3125 -18.484375 C 66.070312 -18.484375 64.898438 -18.003906 63.796875 -17.046875 C 62.703125 -16.097656 61.457031 -14.742188 60.0625 -12.984375 C 57.050781 -9.242188 54.242188 -6.34375 51.640625 -4.28125 C 49.035156 -2.226562 46.488281 -0.816406 44 -0.046875 C 41.507812 0.710938 38.976562 1.09375 36.40625 1.09375 C 32.445312 1.09375 29.109375 0.269531 26.390625 -1.375 C 23.679688 -3.019531 21.628906 -5.160156 20.234375 -7.796875 C 18.847656 -10.441406 18.15625 -13.304688 18.15625 -16.390625 C 18.15625 -19.984375 19.21875 -23.6875 21.34375 -27.5 C 15.988281 -24.414062 12.101562 -20.785156 9.6875 -16.609375 C 12.46875 -15.359375 13.859375 -13.414062 13.859375 -10.78125 C 13.859375 -8.945312 13.253906 -7.40625 12.046875 -6.15625 C 10.835938 -4.914062 9.390625 -4.296875 7.703125 -4.296875 C 6.234375 -4.296875 4.820312 -4.863281 3.46875 -6 C 2.113281 -7.132812 1.4375 -8.945312 1.4375 -11.4375 Z M 25.734375 -18.046875 C 25.734375 -14.742188 26.742188 -11.914062 28.765625 -9.5625 C 30.785156 -7.21875 33.738281 -6.046875 37.625 -6.046875 C 40.550781 -6.046875 43.425781 -6.851562 46.25 -8.46875 C 49.070312 -10.082031 52.316406 -13.160156 55.984375 -17.703125 C 58.117188 -20.347656 60.0625 -22.296875 61.8125 -23.546875 L 61.8125 -52.578125 C 59.394531 -56.898438 55.910156 -60.234375 51.359375 -62.578125 C 46.816406 -64.929688 41.90625 -66.109375 36.625 -66.109375 C 32.226562 -66.109375 28.523438 -65.351562 25.515625 -63.84375 C 22.515625 -62.34375 20.242188 -60.347656 18.703125 -57.859375 C 17.160156 -55.367188 16.390625 -52.617188 16.390625 -49.609375 C 16.390625 -46.671875 17.210938 -43.882812 18.859375 -41.25 C 20.515625 -38.613281 23.210938 -36.597656 26.953125 -35.203125 C 28.859375 -37.253906 31.019531 -39.304688 33.4375 -41.359375 L 37.625 -36.953125 C 33.363281 -33.210938 30.316406 -29.820312 28.484375 -26.78125 C 26.648438 -23.738281 25.734375 -20.828125 25.734375 -18.046875 Z M 25.734375 -18.046875 "/>
</symbol>
</g>
<g>
<symbol overflow="visible" id="oriya-pstf-yya-1:id1:glyph0-0">
<path style="stroke:none;" d="M 5.375 -96.6875 L 69.828125 -96.6875 L 69.828125 0 L 5.375 0 Z M 8.0625 -2.6875 L 67.140625 -2.6875 L 67.140625 -94 L 8.0625 -94 Z M 8.0625 -2.6875 "/>
</symbol>
<symbol overflow="visible" id="oriya-pstf-yya-1:id1:glyph0-1">
<path style="stroke:none;" d="M 68.15625 -13.75 L 66.28125 -18.640625 L 88.09375 -27.390625 L 6.984375 -27.390625 L 6.984375 -34 L 88.09375 -34 L 66.28125 -42.75 L 68.15625 -47.640625 L 99.09375 -34.265625 L 99.09375 -27.125 Z M 68.15625 -13.75 "/>
</symbol>
</g>
<g>
<symbol overflow="visible" id="oriya-pstf-yya-1:id2:glyph0-0">
<path style="stroke:none;" d="M 10.34375 0 L 10.34375 -78.546875 L 55.546875 -78.546875 L 55.546875 0 Z M 15.953125 -5.609375 L 49.9375 -5.609375 L 49.9375 -72.9375 L 15.953125 -72.9375 Z M 15.953125 -5.609375 "/>
</symbol>
<symbol overflow="visible" id="oriya-pstf-yya-1:id2:glyph0-1">
<path style="stroke:none;" d="M 24.859375 -53.453125 C 24.859375 -55.515625 25.882812 -56.546875 27.9375 -56.546875 C 30.132812 -56.546875 31.234375 -55.515625 31.234375 -53.453125 C 31.234375 -51.328125 30.132812 -50.265625 27.9375 -50.265625 C 25.882812 -50.265625 24.859375 -51.328125 24.859375 -53.453125 Z M 42.234375 -44.765625 C 40.109375 -44.765625 39.046875 -45.828125 39.046875 -47.953125 C 39.046875 -50.085938 40.109375 -51.15625 42.234375 -51.15625 C 44.367188 -51.15625 45.4375 -50.085938 45.4375 -47.953125 C 45.4375 -45.828125 44.367188 -44.765625 42.234375 -44.765625 Z M 10.671875 -47.953125 C 10.671875 -50.085938 11.695312 -51.15625 13.75 -51.15625 C 15.875 -51.15625 16.9375 -50.085938 16.9375 -47.953125 C 16.9375 -45.828125 15.875 -44.765625 13.75 -44.765625 C 11.695312 -44.765625 10.671875 -45.828125 10.671875 -47.953125 Z M 5.71875 -34.3125 C 5.71875 -36.375 6.78125 -37.40625 8.90625 -37.40625 C 10.957031 -37.40625 11.984375 -36.375 11.984375 -34.3125 C 11.984375 -32.1875 10.957031 -31.125 8.90625 -31.125 C 6.78125 -31.125 5.71875 -32.1875 5.71875 -34.3125 Z M 44 -34.3125 C 44 -36.375 45.0625 -37.40625 47.1875 -37.40625 C 49.3125 -37.40625 50.375 -36.375 50.375 -34.3125 C 50.375 -32.1875 49.3125 -31.125 47.1875 -31.125 C 45.0625 -31.125 44 -32.1875 44 -34.3125 Z M 10.671875 -20.5625 C 10.671875 -22.695312 11.695312 -23.765625 13.75 -23.765625 C 15.875 -23.765625 16.9375 -22.695312 16.9375 -20.5625 C 16.9375 -18.4375 15.875 -17.375 13.75 -17.375 C 11.695312 -17.375 10.671875 -18.4375 10.671875 -20.5625 Z M 39.046875 -20.5625 C 39.046875 -22.695312 40.109375 -23.765625 42.234375 -23.765625 C 44.367188 -23.765625 45.4375 -22.695312 45.4375 -20.5625 C 45.4375 -18.4375 44.367188 -17.375 42.234375 -17.375 C 40.109375 -17.375 39.046875 -18.4375 39.046875 -20.5625 Z M 24.859375 -15.0625 C 24.859375 -17.195312 25.882812 -18.265625 27.9375 -18.265625 C 30.132812 -18.265625 31.234375 -17.195312 31.234375 -15.0625 C 31.234375 -12.9375 30.132812 -11.875 27.9375 -11.875 C 25.882812 -11.875 24.859375 -12.9375 24.859375 -15.0625 Z M 24.859375 -15.0625 "/>
</symbol>
<symbol overflow="visible" id="oriya-pstf-yya-1:id2:glyph0-2">
<path style="stroke:none;" d="M 27.609375 0 L 27.609375 -43.78125 C 26.285156 -41.800781 24.757812 -40.425781 23.03125 -39.65625 C 21.3125 -38.882812 19.5 -38.5 17.59375 -38.5 C 14.519531 -38.5 12.101562 -39.320312 10.34375 -40.96875 C 8.582031 -42.625 7.316406 -44.804688 6.546875 -47.515625 C 5.773438 -50.234375 5.390625 -53.164062 5.390625 -56.3125 L 5.390625 -71.28125 L 11.984375 -72.8125 L 12.765625 -72.046875 L 12.765625 -58.40625 C 12.765625 -53.789062 13.367188 -50.566406 14.578125 -48.734375 C 15.785156 -46.898438 17.34375 -45.984375 19.25 -45.984375 C 21.738281 -45.984375 23.753906 -47.15625 25.296875 -49.5 C 26.835938 -51.84375 27.609375 -54.519531 27.609375 -57.53125 L 27.609375 -71.5 L 34.203125 -73.046875 L 34.984375 -72.265625 L 34.984375 -0.765625 L 28.375 0.765625 Z M 27.609375 0 "/>
</symbol>
</g>
</defs>
  <g id="oriya-pstf-yya-1:id0:id0" transform="matrix(1.25,0,0,1.25,0.0,1.328125)"><g id="oriya-pstf-yya-1:id0:surface1">
<g style="fill:rgb(0%,0%,0%);fill-opacity:1;">
  <use xlink:href="#oriya-pstf-yya-1:id0:glyph0-1" x="16" y="102.875" class="dc"/>
  <use xlink:href="#oriya-pstf-yya-1:id0:glyph0-2" x="70.34375" y="102.875" class="c0"/>
  <use xlink:href="#oriya-pstf-yya-1:id0:glyph0-3" x="72.09375" y="102.875" class="c1"/>
</g>
</g>
</g>
  <g id="oriya-pstf-yya-1:id1:id1" transform="matrix(1.25,0,0,1.25,213.2421875,0.0)"><g id="oriya-pstf-yya-1:id1:surface1">
<g style="fill:rgb(0%,0%,0%);fill-opacity:1;">
  <use xlink:href="#oriya-pstf-yya-1:id1:glyph0-1" x="0" y="120.84375" class="arrow"/>
</g>
</g>
</g>
  <g id="oriya-pstf-yya-1:id2:id2" transform="matrix(1.25,0,0,1.25,345.83984375,1.328125)"><g id="oriya-pstf-yya-1:id2:surface1">
<g style="fill:rgb(0%,0%,0%);fill-opacity:1;">
  <use xlink:href="#oriya-pstf-yya-1:id2:glyph0-1" x="16" y="102.875" class="dc"/>
  <use xlink:href="#oriya-pstf-yya-1:id2:glyph0-2" x="72.09375" y="102.875" class="c1"/>
</g>
</g>
</g>
</svg>
