<?xml version="1.0" standalone="no"?>
<!DOCTYPE svg PUBLIC "-//W3C//DTD SVG 1.1//EN"
 "http://www.w3.org/Graphics/SVG/1.1/DTD/svg11.dtd">
<!-- Created with svg_stack (http://github.com/astraw/svg_stack) -->
<svg xmlns="http://www.w3.org/2000/svg" xmlns:sodipodi="http://sodipodi.sourceforge.net/DTD/sodipodi-0.dtd" xmlns:xlink="http://www.w3.org/1999/xlink" version="1.1" width="428.18359375" height="201.40625">
  <defs><g>
<symbol overflow="visible" id="id0:glyph0-0">
<path style="stroke:none;" d="M 90.09375 -78.546875 L 90.09375 0 L 44.875 0 L 44.875 -78.546875 Z M 84.484375 -5.609375 L 84.484375 -72.9375 L 50.484375 -72.9375 L 50.484375 -5.609375 Z M 84.484375 -5.609375 "/>
</symbol>
<symbol overflow="visible" id="id0:glyph0-1">
<path style="stroke:none;" d="M 46.3125 0.875 C 42.0625 0.875 38.265625 0.0703125 34.921875 -1.53125 C 31.585938 -3.144531 28.929688 -5.492188 26.953125 -8.578125 C 24.972656 -11.660156 23.984375 -15.398438 23.984375 -19.796875 C 23.984375 -20.828125 24.054688 -21.910156 24.203125 -23.046875 C 24.347656 -24.179688 24.601562 -25.375 24.96875 -26.625 C 22.257812 -24.71875 19.75 -22.769531 17.4375 -20.78125 C 15.125 -18.800781 13.234375 -16.894531 11.765625 -15.0625 C 13.160156 -14.40625 14.171875 -13.546875 14.796875 -12.484375 C 15.421875 -11.421875 15.734375 -10.300781 15.734375 -9.125 C 15.734375 -7.289062 15.109375 -5.84375 13.859375 -4.78125 C 12.609375 -3.71875 11.140625 -3.1875 9.453125 -3.1875 C 7.617188 -3.1875 6.023438 -3.789062 4.671875 -5 C 3.316406 -6.207031 2.640625 -7.878906 2.640625 -10.015625 C 2.640625 -12.359375 3.832031 -15.253906 6.21875 -18.703125 C 8.601562 -22.148438 12.066406 -25.671875 16.609375 -29.265625 C 13.898438 -31.609375 11.847656 -34.316406 10.453125 -37.390625 C 9.054688 -40.472656 8.359375 -43.664062 8.359375 -46.96875 C 8.359375 -51.289062 9.238281 -55.082031 11 -58.34375 C 12.757812 -61.613281 15.160156 -64.347656 18.203125 -66.546875 C 21.242188 -68.742188 24.671875 -70.410156 28.484375 -71.546875 C 32.296875 -72.691406 36.257812 -73.265625 40.375 -73.265625 C 46.238281 -73.265625 51.921875 -72.179688 57.421875 -70.015625 C 62.921875 -67.847656 67.539062 -64.566406 71.28125 -60.171875 L 70.953125 -72.375 L 79.53125 -72.375 L 79.53125 0 L 70.953125 0 L 71.390625 -11.109375 C 68.160156 -7.003906 64.253906 -3.976562 59.671875 -2.03125 C 55.085938 -0.09375 50.632812 0.875 46.3125 0.875 Z M 41.6875 -65.234375 C 38.457031 -65.234375 35.34375 -64.789062 32.34375 -63.90625 L 67.984375 -17.59375 C 69.078125 -18.988281 70.066406 -20.492188 70.953125 -22.109375 L 70.953125 -45.875 C 69.628906 -50.269531 67.425781 -53.894531 64.34375 -56.75 C 61.269531 -59.613281 57.734375 -61.742188 53.734375 -63.140625 C 49.734375 -64.535156 45.71875 -65.234375 41.6875 -65.234375 Z M 17.046875 -45.546875 C 17.046875 -40.847656 18.769531 -36.773438 22.21875 -33.328125 C 24.78125 -34.941406 27.582031 -36.554688 30.625 -38.171875 C 33.675781 -39.785156 36.960938 -41.25 40.484375 -42.5625 L 26.0625 -61.15625 C 23.425781 -59.46875 21.265625 -57.320312 19.578125 -54.71875 C 17.890625 -52.113281 17.046875 -49.054688 17.046875 -45.546875 Z M 32.34375 -19.796875 C 32.34375 -15.691406 33.804688 -12.554688 36.734375 -10.390625 C 39.671875 -8.234375 43.117188 -7.15625 47.078125 -7.15625 C 49.492188 -7.15625 52.148438 -7.648438 55.046875 -8.640625 C 57.953125 -9.628906 60.6875 -11.113281 63.25 -13.09375 L 45.3125 -36.296875 C 40.769531 -34.460938 37.472656 -32.023438 35.421875 -28.984375 C 33.367188 -25.941406 32.34375 -22.878906 32.34375 -19.796875 Z M 32.34375 -19.796875 "/>
</symbol>
</g>
<g>
<symbol overflow="visible" id="id1:glyph0-0">
<path style="stroke:none;" d="M 5.375 -96.6875 L 69.828125 -96.6875 L 69.828125 0 L 5.375 0 Z M 8.0625 -2.6875 L 67.140625 -2.6875 L 67.140625 -94 L 8.0625 -94 Z M 8.0625 -2.6875 "/>
</symbol>
<symbol overflow="visible" id="id1:glyph0-1">
<path style="stroke:none;" d="M 68.15625 -13.75 L 66.28125 -18.640625 L 88.09375 -27.390625 L 6.984375 -27.390625 L 6.984375 -34 L 88.09375 -34 L 66.28125 -42.75 L 68.15625 -47.640625 L 99.09375 -34.265625 L 99.09375 -27.125 Z M 68.15625 -13.75 "/>
</symbol>
</g>
<g>
<symbol overflow="visible" id="id2:glyph0-0">
<path style="stroke:none;" d="M 90.09375 -78.546875 L 90.09375 0 L 44.875 0 L 44.875 -78.546875 Z M 84.484375 -5.609375 L 84.484375 -72.9375 L 50.484375 -72.9375 L 50.484375 -5.609375 Z M 84.484375 -5.609375 "/>
</symbol>
<symbol overflow="visible" id="id2:glyph0-1">
<path style="stroke:none;" d="M 46.3125 0.875 C 42.0625 0.875 38.265625 0.0703125 34.921875 -1.53125 C 31.585938 -3.144531 28.929688 -5.492188 26.953125 -8.578125 C 24.972656 -11.660156 23.984375 -15.398438 23.984375 -19.796875 C 23.984375 -20.828125 24.054688 -21.910156 24.203125 -23.046875 C 24.347656 -24.179688 24.601562 -25.375 24.96875 -26.625 C 22.257812 -24.71875 19.75 -22.769531 17.4375 -20.78125 C 15.125 -18.800781 13.234375 -16.894531 11.765625 -15.0625 C 13.160156 -14.40625 14.171875 -13.546875 14.796875 -12.484375 C 15.421875 -11.421875 15.734375 -10.300781 15.734375 -9.125 C 15.734375 -7.289062 15.109375 -5.84375 13.859375 -4.78125 C 12.609375 -3.71875 11.140625 -3.1875 9.453125 -3.1875 C 7.617188 -3.1875 6.023438 -3.789062 4.671875 -5 C 3.316406 -6.207031 2.640625 -7.878906 2.640625 -10.015625 C 2.640625 -12.359375 3.832031 -15.253906 6.21875 -18.703125 C 8.601562 -22.148438 12.066406 -25.671875 16.609375 -29.265625 C 13.898438 -31.609375 11.847656 -34.316406 10.453125 -37.390625 C 9.054688 -40.472656 8.359375 -43.664062 8.359375 -46.96875 C 8.359375 -51.289062 9.238281 -55.082031 11 -58.34375 C 12.757812 -61.613281 15.160156 -64.347656 18.203125 -66.546875 C 21.242188 -68.742188 24.671875 -70.410156 28.484375 -71.546875 C 32.296875 -72.691406 36.257812 -73.265625 40.375 -73.265625 C 46.238281 -73.265625 51.921875 -72.179688 57.421875 -70.015625 C 62.921875 -67.847656 67.539062 -64.566406 71.28125 -60.171875 L 70.953125 -72.375 L 79.53125 -72.375 L 79.53125 0 L 70.953125 0 L 71.390625 -11.109375 C 68.160156 -7.003906 64.253906 -3.976562 59.671875 -2.03125 C 55.085938 -0.09375 50.632812 0.875 46.3125 0.875 Z M 41.6875 -65.234375 C 38.457031 -65.234375 35.34375 -64.789062 32.34375 -63.90625 L 67.984375 -17.59375 C 69.078125 -18.988281 70.066406 -20.492188 70.953125 -22.109375 L 70.953125 -45.875 C 69.628906 -50.269531 67.425781 -53.894531 64.34375 -56.75 C 61.269531 -59.613281 57.734375 -61.742188 53.734375 -63.140625 C 49.734375 -64.535156 45.71875 -65.234375 41.6875 -65.234375 Z M 17.046875 -45.546875 C 17.046875 -40.847656 18.769531 -36.773438 22.21875 -33.328125 C 24.78125 -34.941406 27.582031 -36.554688 30.625 -38.171875 C 33.675781 -39.785156 36.960938 -41.25 40.484375 -42.5625 L 26.0625 -61.15625 C 23.425781 -59.46875 21.265625 -57.320312 19.578125 -54.71875 C 17.890625 -52.113281 17.046875 -49.054688 17.046875 -45.546875 Z M 32.34375 -19.796875 C 32.34375 -15.691406 33.804688 -12.554688 36.734375 -10.390625 C 39.671875 -8.234375 43.117188 -7.15625 47.078125 -7.15625 C 49.492188 -7.15625 52.148438 -7.648438 55.046875 -8.640625 C 57.953125 -9.628906 60.6875 -11.113281 63.25 -13.09375 L 45.3125 -36.296875 C 40.769531 -34.460938 37.472656 -32.023438 35.421875 -28.984375 C 33.367188 -25.941406 32.34375 -22.878906 32.34375 -19.796875 Z M 32.34375 -19.796875 "/>
</symbol>
</g>
</defs>
  <g id="id0:id0" transform="matrix(1.25,0,0,1.25,0.0,4.560546875)"><g id="id0:surface1">
<g style="fill:rgb(0%,0%,0%);fill-opacity:1;">
  <use xlink:href="#id0:glyph0-1" x="16" y="119.59375"/>
</g>
</g>
</g>
  <g id="id1:id1" transform="matrix(1.25,0,0,1.25,147.79296875,0.0)"><g id="id1:surface1">
<g style="fill:rgb(0%,0%,0%);fill-opacity:1;">
  <use xlink:href="#id1:glyph0-1" x="0" y="120.84375"/>
</g>
</g>
</g>
  <g id="id2:id2" transform="matrix(1.25,0,0,1.25,280.390625,4.560546875)"><g id="id2:surface1">
<g style="fill:rgb(0%,0%,0%);fill-opacity:1;">
  <use xlink:href="#id2:glyph0-1" x="16" y="119.59375"/>
</g>
</g>
</g>
</svg>
