<!DOCTYPE svg PUBLIC "-//W3C//DTD SVG 1.1//EN" "http://www.w3.org/Graphics/SVG/1.1/DTD/svg11.dtd">
<!-- Created with svg_stack (http://github.com/astraw/svg_stack) --><svg xmlns="http://www.w3.org/2000/svg" xmlns:sodipodi="http://sodipodi.sourceforge.net/DTD/sodipodi-0.dtd" xmlns:xlink="http://www.w3.org/1999/xlink" version="1.1" width="100%" id="oriya-blwf" viewBox="0 0 439.1796875 201.40625">
  <defs><g>
<symbol overflow="visible" id="oriya-blwf:id0:glyph0-0">
<path style="stroke:none;" d="M 10.34375 0 L 10.34375 -78.546875 L 55.546875 -78.546875 L 55.546875 0 Z M 15.953125 -5.609375 L 49.9375 -5.609375 L 49.9375 -72.9375 L 15.953125 -72.9375 Z M 15.953125 -5.609375 "/>
</symbol>
<symbol overflow="visible" id="oriya-blwf:id0:glyph0-1">
<path style="stroke:none;" d="M 24.859375 -53.453125 C 24.859375 -55.515625 25.882812 -56.546875 27.9375 -56.546875 C 30.132812 -56.546875 31.234375 -55.515625 31.234375 -53.453125 C 31.234375 -51.328125 30.132812 -50.265625 27.9375 -50.265625 C 25.882812 -50.265625 24.859375 -51.328125 24.859375 -53.453125 Z M 42.234375 -44.765625 C 40.109375 -44.765625 39.046875 -45.828125 39.046875 -47.953125 C 39.046875 -50.085938 40.109375 -51.15625 42.234375 -51.15625 C 44.367188 -51.15625 45.4375 -50.085938 45.4375 -47.953125 C 45.4375 -45.828125 44.367188 -44.765625 42.234375 -44.765625 Z M 10.671875 -47.953125 C 10.671875 -50.085938 11.695312 -51.15625 13.75 -51.15625 C 15.875 -51.15625 16.9375 -50.085938 16.9375 -47.953125 C 16.9375 -45.828125 15.875 -44.765625 13.75 -44.765625 C 11.695312 -44.765625 10.671875 -45.828125 10.671875 -47.953125 Z M 5.71875 -34.3125 C 5.71875 -36.375 6.78125 -37.40625 8.90625 -37.40625 C 10.957031 -37.40625 11.984375 -36.375 11.984375 -34.3125 C 11.984375 -32.1875 10.957031 -31.125 8.90625 -31.125 C 6.78125 -31.125 5.71875 -32.1875 5.71875 -34.3125 Z M 44 -34.3125 C 44 -36.375 45.0625 -37.40625 47.1875 -37.40625 C 49.3125 -37.40625 50.375 -36.375 50.375 -34.3125 C 50.375 -32.1875 49.3125 -31.125 47.1875 -31.125 C 45.0625 -31.125 44 -32.1875 44 -34.3125 Z M 10.671875 -20.5625 C 10.671875 -22.695312 11.695312 -23.765625 13.75 -23.765625 C 15.875 -23.765625 16.9375 -22.695312 16.9375 -20.5625 C 16.9375 -18.4375 15.875 -17.375 13.75 -17.375 C 11.695312 -17.375 10.671875 -18.4375 10.671875 -20.5625 Z M 39.046875 -20.5625 C 39.046875 -22.695312 40.109375 -23.765625 42.234375 -23.765625 C 44.367188 -23.765625 45.4375 -22.695312 45.4375 -20.5625 C 45.4375 -18.4375 44.367188 -17.375 42.234375 -17.375 C 40.109375 -17.375 39.046875 -18.4375 39.046875 -20.5625 Z M 24.859375 -15.0625 C 24.859375 -17.195312 25.882812 -18.265625 27.9375 -18.265625 C 30.132812 -18.265625 31.234375 -17.195312 31.234375 -15.0625 C 31.234375 -12.9375 30.132812 -11.875 27.9375 -11.875 C 25.882812 -11.875 24.859375 -12.9375 24.859375 -15.0625 Z M 24.859375 -15.0625 "/>
</symbol>
<symbol overflow="visible" id="oriya-blwf:id0:glyph0-2">
<path style="stroke:none;" d="M 0.4375 30.140625 C -2.125 26.472656 -4.890625 22.878906 -7.859375 19.359375 C -10.828125 15.835938 -13.925781 12.5 -17.15625 9.34375 L -10.34375 3.953125 C -7.476562 7.398438 -4.722656 10.9375 -2.078125 14.5625 C 0.554688 18.195312 3.046875 21.921875 5.390625 25.734375 Z M 0.4375 30.140625 "/>
</symbol>
<symbol overflow="visible" id="oriya-blwf:id0:glyph0-3">
<path style="stroke:none;" d="M 3.296875 -18.484375 C 3.296875 -24.859375 5.679688 -29.878906 10.453125 -33.546875 C 11.847656 -34.648438 13.441406 -35.660156 15.234375 -36.578125 C 17.035156 -37.492188 19.035156 -38.351562 21.234375 -39.15625 L 25.734375 -40.8125 C 27.710938 -41.539062 29.523438 -42.269531 31.171875 -43 C 32.828125 -43.738281 34.242188 -44.585938 35.421875 -45.546875 C 36.671875 -46.566406 37.625 -47.71875 38.28125 -49 C 38.9375 -50.289062 39.265625 -51.851562 39.265625 -53.6875 C 39.265625 -57.125 38.109375 -60.070312 35.796875 -62.53125 C 33.492188 -64.988281 30.289062 -66.21875 26.1875 -66.21875 C 24.5 -66.21875 22.753906 -65.921875 20.953125 -65.328125 C 19.160156 -64.742188 17.65625 -63.753906 16.4375 -62.359375 C 15.226562 -60.972656 14.625 -59 14.625 -56.4375 C 14.625 -54.75 14.878906 -53.078125 15.390625 -51.421875 C 15.910156 -49.773438 16.425781 -48.289062 16.9375 -46.96875 L 9.796875 -44.4375 C 9.054688 -46.269531 8.429688 -48.140625 7.921875 -50.046875 C 7.410156 -51.953125 7.15625 -53.820312 7.15625 -55.65625 C 7.15625 -59.613281 8.144531 -62.910156 10.125 -65.546875 C 12.101562 -68.191406 14.628906 -70.15625 17.703125 -71.4375 C 20.785156 -72.726562 24.015625 -73.375 27.390625 -73.375 C 33.253906 -73.375 37.925781 -71.648438 41.40625 -68.203125 C 44.894531 -64.753906 46.640625 -60.28125 46.640625 -54.78125 C 46.640625 -51.332031 45.976562 -48.453125 44.65625 -46.140625 C 43.34375 -43.835938 41.507812 -41.84375 39.15625 -40.15625 C 37.84375 -39.195312 36.394531 -38.347656 34.8125 -37.609375 C 33.238281 -36.878906 31.535156 -36.148438 29.703125 -35.421875 L 23.984375 -33.21875 C 19.722656 -31.601562 16.53125 -29.710938 14.40625 -27.546875 C 12.28125 -25.390625 11.21875 -22.769531 11.21875 -19.6875 C 11.21875 -17.414062 11.859375 -15.253906 13.140625 -13.203125 C 14.421875 -11.148438 16.328125 -9.476562 18.859375 -8.1875 C 21.390625 -6.90625 24.523438 -6.265625 28.265625 -6.265625 C 32.523438 -6.265625 37.054688 -7.3125 41.859375 -9.40625 C 46.660156 -11.5 51.039062 -15 55 -19.90625 L 55 -71.5 L 61.59375 -73.046875 L 62.375 -72.265625 L 62.375 -0.765625 L 55.765625 0.765625 L 55 0 L 55 -12.203125 C 51.476562 -7.734375 47.222656 -4.398438 42.234375 -2.203125 C 37.253906 -0.00390625 32.050781 1.09375 26.625 1.09375 C 19.4375 1.09375 13.75 -0.738281 9.5625 -4.40625 C 5.382812 -8.070312 3.296875 -12.765625 3.296875 -18.484375 Z M 3.296875 -18.484375 "/>
</symbol>
</g>
<g>
<symbol overflow="visible" id="oriya-blwf:id1:glyph0-0">
<path style="stroke:none;" d="M 5.375 -96.6875 L 69.828125 -96.6875 L 69.828125 0 L 5.375 0 Z M 8.0625 -2.6875 L 67.140625 -2.6875 L 67.140625 -94 L 8.0625 -94 Z M 8.0625 -2.6875 "/>
</symbol>
<symbol overflow="visible" id="oriya-blwf:id1:glyph0-1">
<path style="stroke:none;" d="M 68.15625 -13.75 L 66.28125 -18.640625 L 88.09375 -27.390625 L 6.984375 -27.390625 L 6.984375 -34 L 88.09375 -34 L 66.28125 -42.75 L 68.15625 -47.640625 L 99.09375 -34.265625 L 99.09375 -27.125 Z M 68.15625 -13.75 "/>
</symbol>
</g>
<g>
<symbol overflow="visible" id="oriya-blwf:id2:glyph0-0">
<path style="stroke:none;" d="M 10.34375 0 L 10.34375 -78.546875 L 55.546875 -78.546875 L 55.546875 0 Z M 15.953125 -5.609375 L 49.9375 -5.609375 L 49.9375 -72.9375 L 15.953125 -72.9375 Z M 15.953125 -5.609375 "/>
</symbol>
<symbol overflow="visible" id="oriya-blwf:id2:glyph0-1">
<path style="stroke:none;" d="M 24.859375 -53.453125 C 24.859375 -55.515625 25.882812 -56.546875 27.9375 -56.546875 C 30.132812 -56.546875 31.234375 -55.515625 31.234375 -53.453125 C 31.234375 -51.328125 30.132812 -50.265625 27.9375 -50.265625 C 25.882812 -50.265625 24.859375 -51.328125 24.859375 -53.453125 Z M 42.234375 -44.765625 C 40.109375 -44.765625 39.046875 -45.828125 39.046875 -47.953125 C 39.046875 -50.085938 40.109375 -51.15625 42.234375 -51.15625 C 44.367188 -51.15625 45.4375 -50.085938 45.4375 -47.953125 C 45.4375 -45.828125 44.367188 -44.765625 42.234375 -44.765625 Z M 10.671875 -47.953125 C 10.671875 -50.085938 11.695312 -51.15625 13.75 -51.15625 C 15.875 -51.15625 16.9375 -50.085938 16.9375 -47.953125 C 16.9375 -45.828125 15.875 -44.765625 13.75 -44.765625 C 11.695312 -44.765625 10.671875 -45.828125 10.671875 -47.953125 Z M 5.71875 -34.3125 C 5.71875 -36.375 6.78125 -37.40625 8.90625 -37.40625 C 10.957031 -37.40625 11.984375 -36.375 11.984375 -34.3125 C 11.984375 -32.1875 10.957031 -31.125 8.90625 -31.125 C 6.78125 -31.125 5.71875 -32.1875 5.71875 -34.3125 Z M 44 -34.3125 C 44 -36.375 45.0625 -37.40625 47.1875 -37.40625 C 49.3125 -37.40625 50.375 -36.375 50.375 -34.3125 C 50.375 -32.1875 49.3125 -31.125 47.1875 -31.125 C 45.0625 -31.125 44 -32.1875 44 -34.3125 Z M 10.671875 -20.5625 C 10.671875 -22.695312 11.695312 -23.765625 13.75 -23.765625 C 15.875 -23.765625 16.9375 -22.695312 16.9375 -20.5625 C 16.9375 -18.4375 15.875 -17.375 13.75 -17.375 C 11.695312 -17.375 10.671875 -18.4375 10.671875 -20.5625 Z M 39.046875 -20.5625 C 39.046875 -22.695312 40.109375 -23.765625 42.234375 -23.765625 C 44.367188 -23.765625 45.4375 -22.695312 45.4375 -20.5625 C 45.4375 -18.4375 44.367188 -17.375 42.234375 -17.375 C 40.109375 -17.375 39.046875 -18.4375 39.046875 -20.5625 Z M 24.859375 -15.0625 C 24.859375 -17.195312 25.882812 -18.265625 27.9375 -18.265625 C 30.132812 -18.265625 31.234375 -17.195312 31.234375 -15.0625 C 31.234375 -12.9375 30.132812 -11.875 27.9375 -11.875 C 25.882812 -11.875 24.859375 -12.9375 24.859375 -15.0625 Z M 24.859375 -15.0625 "/>
</symbol>
<symbol overflow="visible" id="oriya-blwf:id2:glyph0-2">
<path style="stroke:none;" d="M -12.875 27.9375 C -15.4375 27.9375 -17.890625 27.222656 -20.234375 25.796875 C -22.585938 24.367188 -24.898438 22.550781 -27.171875 20.34375 C -29.222656 22.695312 -31.601562 24.585938 -34.3125 26.015625 C -37.03125 27.441406 -39.820312 28.15625 -42.6875 28.15625 C -46.269531 28.15625 -49.234375 27.070312 -51.578125 24.90625 C -53.929688 22.75 -55.109375 19.875 -55.109375 16.28125 C -55.109375 12.613281 -53.820312 9.585938 -51.25 7.203125 C -48.6875 4.816406 -45.535156 3.625 -41.796875 3.625 C -39.234375 3.625 -36.738281 4.265625 -34.3125 5.546875 C -31.894531 6.835938 -29.40625 8.65625 -26.84375 11 C -24.789062 8.945312 -22.5 7.164062 -19.96875 5.65625 C -17.4375 4.15625 -14.664062 3.40625 -11.65625 3.40625 C -8.132812 3.40625 -5.238281 4.503906 -2.96875 6.703125 C -0.695312 8.910156 0.4375 11.738281 0.4375 15.1875 C 0.4375 19 -0.863281 22.078125 -3.46875 24.421875 C -6.070312 26.765625 -9.207031 27.9375 -12.875 27.9375 Z M -13.53125 10.453125 C -16.90625 10.453125 -19.984375 11.953125 -22.765625 14.953125 C -20.785156 16.785156 -18.878906 18.269531 -17.046875 19.40625 C -15.210938 20.550781 -13.453125 21.125 -11.765625 21.125 C -10.078125 21.125 -8.738281 20.71875 -7.75 19.90625 C -6.757812 19.101562 -6.265625 18.039062 -6.265625 16.71875 C -6.265625 15.03125 -7 13.5625 -8.46875 12.3125 C -9.9375 11.070312 -11.625 10.453125 -13.53125 10.453125 Z M -48.515625 15.1875 C -48.515625 16.644531 -47.796875 18.015625 -46.359375 19.296875 C -44.929688 20.585938 -43.117188 21.234375 -40.921875 21.234375 C -39.304688 21.234375 -37.632812 20.773438 -35.90625 19.859375 C -34.1875 18.941406 -32.628906 17.710938 -31.234375 16.171875 C -33.210938 14.410156 -35.15625 13.015625 -37.0625 11.984375 C -38.976562 10.960938 -40.851562 10.453125 -42.6875 10.453125 C -44.519531 10.453125 -45.945312 10.890625 -46.96875 11.765625 C -48 12.648438 -48.515625 13.789062 -48.515625 15.1875 Z M -48.515625 15.1875 "/>
</symbol>
</g>
</defs>
  <g id="oriya-blwf:id0:id0" transform="matrix(1.25,0,0,1.25,0.0,1.328125)"><g id="oriya-blwf:id0:surface1">
<g style="fill:rgb(0%,0%,0%);fill-opacity:1;">
  <use xlink:href="#oriya-blwf:id0:glyph0-1" x="16" y="102.875" class="dc"/>
  <use xlink:href="#oriya-blwf:id0:glyph0-2" x="70.34375" y="102.875" class="c0"/>
  <use xlink:href="#oriya-blwf:id0:glyph0-3" x="72.09375" y="102.875" class="c1"/>
</g>
</g>
</g>
  <g id="oriya-blwf:id1:id1" transform="matrix(1.25,0,0,1.25,196.46484375,0.0)"><g id="oriya-blwf:id1:surface1">
<g style="fill:rgb(0%,0%,0%);fill-opacity:1;">
  <use xlink:href="#oriya-blwf:id1:glyph0-1" x="0" y="120.84375" class="arrow"/>
</g>
</g>
</g>
  <g id="oriya-blwf:id2:id2" transform="matrix(1.25,0,0,1.25,329.0625,1.328125)"><g id="oriya-blwf:id2:surface1">
<g style="fill:rgb(0%,0%,0%);fill-opacity:1;">
  <use xlink:href="#oriya-blwf:id2:glyph0-1" x="16" y="102.875" class="dc"/>
  <use xlink:href="#oriya-blwf:id2:glyph0-2" x="74.515625" y="102.21875" class="c1"/>
</g>
</g>
</g>
</svg>
