<!DOCTYPE svg PUBLIC "-//W3C//DTD SVG 1.1//EN" "http://www.w3.org/Graphics/SVG/1.1/DTD/svg11.dtd">
<!-- Created with svg_stack (http://github.com/astraw/svg_stack) --><svg xmlns="http://www.w3.org/2000/svg" xmlns:sodipodi="http://sodipodi.sourceforge.net/DTD/sodipodi-0.dtd" xmlns:xlink="http://www.w3.org/1999/xlink" version="1.1" width="100%" id="oriya-nukt" viewBox="0 0 526.38671875 201.40625">
  <defs><g>
<symbol overflow="visible" id="oriya-nukt:id0:glyph0-0">
<path style="stroke:none;" d="M 90.09375 -78.546875 L 90.09375 0 L 44.875 0 L 44.875 -78.546875 Z M 84.484375 -5.609375 L 84.484375 -72.9375 L 50.484375 -72.9375 L 50.484375 -5.609375 Z M 84.484375 -5.609375 "/>
</symbol>
<symbol overflow="visible" id="oriya-nukt:id0:glyph0-1">
<path style="stroke:none;" d="M 34.3125 0.875 C 30.644531 0.875 27.253906 0.109375 24.140625 -1.421875 C 21.023438 -2.960938 18.53125 -5.238281 16.65625 -8.25 C 14.789062 -11.257812 13.859375 -14.890625 13.859375 -19.140625 C 13.859375 -20.679688 14.003906 -22.1875 14.296875 -23.65625 C 10.921875 -26.4375 8.28125 -29.640625 6.375 -33.265625 C 4.46875 -36.898438 3.515625 -40.878906 3.515625 -45.203125 C 3.515625 -50.117188 4.816406 -54.722656 7.421875 -59.015625 C 10.023438 -63.304688 14.113281 -66.753906 19.6875 -69.359375 C 25.257812 -71.960938 32.484375 -73.265625 41.359375 -73.265625 L 46.3125 -73.265625 L 50.265625 -68.859375 C 47.265625 -65.117188 45.765625 -61.378906 45.765625 -57.640625 C 45.765625 -54.847656 46.734375 -52.515625 48.671875 -50.640625 C 50.617188 -48.773438 53.535156 -47.84375 57.421875 -47.84375 C 59.328125 -47.84375 61.03125 -48.0625 62.53125 -48.5 C 64.039062 -48.945312 65.269531 -49.5 66.21875 -50.15625 L 66.21875 -72.375 L 74.796875 -72.375 L 74.796875 0 L 66.21875 0 L 66.21875 -42.34375 C 63.582031 -41.25 60.503906 -40.703125 56.984375 -40.703125 C 51.191406 -40.703125 46.550781 -42.1875 43.0625 -45.15625 C 39.582031 -48.125 37.84375 -52.101562 37.84375 -57.09375 C 37.84375 -59.945312 38.425781 -62.660156 39.59375 -65.234375 C 32.851562 -65.085938 27.445312 -64.019531 23.375 -62.03125 C 19.300781 -60.050781 16.363281 -57.484375 14.5625 -54.328125 C 12.769531 -51.179688 11.875 -47.847656 11.875 -44.328125 C 11.875 -41.765625 12.347656 -39.304688 13.296875 -36.953125 C 14.253906 -34.609375 15.539062 -32.484375 17.15625 -30.578125 C 18.988281 -33.367188 21.425781 -35.476562 24.46875 -36.90625 C 27.519531 -38.332031 30.800781 -39.046875 34.3125 -39.046875 C 37.976562 -39.046875 41.367188 -38.273438 44.484375 -36.734375 C 47.609375 -35.203125 50.125 -32.945312 52.03125 -29.96875 C 53.9375 -27 54.890625 -23.390625 54.890625 -19.140625 C 54.890625 -14.890625 53.9375 -11.257812 52.03125 -8.25 C 50.125 -5.238281 47.609375 -2.960938 44.484375 -1.421875 C 41.367188 0.109375 37.976562 0.875 34.3125 0.875 Z M 34.4375 -6.265625 C 37.726562 -6.265625 40.640625 -7.347656 43.171875 -9.515625 C 45.703125 -11.679688 46.96875 -14.890625 46.96875 -19.140625 C 46.96875 -23.316406 45.679688 -26.46875 43.109375 -28.59375 C 40.546875 -30.726562 37.65625 -31.796875 34.4375 -31.796875 C 31.132812 -31.796875 28.21875 -30.726562 25.6875 -28.59375 C 23.15625 -26.46875 21.890625 -23.316406 21.890625 -19.140625 C 21.890625 -14.890625 23.15625 -11.679688 25.6875 -9.515625 C 28.21875 -7.347656 31.132812 -6.265625 34.4375 -6.265625 Z M 34.4375 -6.265625 "/>
</symbol>
<symbol overflow="visible" id="oriya-nukt:id0:glyph0-2">
<path style="stroke:none;" d="M 47.1875 -55.984375 C 47.1875 -53.859375 46.085938 -52.796875 43.890625 -52.796875 C 41.835938 -52.796875 40.8125 -53.859375 40.8125 -55.984375 C 40.8125 -58.035156 41.835938 -59.0625 43.890625 -59.0625 C 46.085938 -59.0625 47.1875 -58.035156 47.1875 -55.984375 Z M 32.890625 -50.59375 C 32.890625 -48.46875 31.828125 -47.40625 29.703125 -47.40625 C 27.648438 -47.40625 26.625 -48.46875 26.625 -50.59375 C 26.625 -52.65625 27.648438 -53.6875 29.703125 -53.6875 C 31.828125 -53.6875 32.890625 -52.65625 32.890625 -50.59375 Z M 61.484375 -50.59375 C 61.484375 -48.46875 60.382812 -47.40625 58.1875 -47.40625 C 56.0625 -47.40625 55 -48.46875 55 -50.59375 C 55 -52.65625 56.0625 -53.6875 58.1875 -53.6875 C 60.382812 -53.6875 61.484375 -52.65625 61.484375 -50.59375 Z M 66.4375 -36.84375 C 66.4375 -34.71875 65.375 -33.65625 63.25 -33.65625 C 61.050781 -33.65625 59.953125 -34.71875 59.953125 -36.84375 C 59.953125 -38.90625 61.050781 -39.9375 63.25 -39.9375 C 65.375 -39.9375 66.4375 -38.90625 66.4375 -36.84375 Z M 27.9375 -36.84375 C 27.9375 -34.71875 26.910156 -33.65625 24.859375 -33.65625 C 22.660156 -33.65625 21.5625 -34.71875 21.5625 -36.84375 C 21.5625 -38.90625 22.660156 -39.9375 24.859375 -39.9375 C 26.910156 -39.9375 27.9375 -38.90625 27.9375 -36.84375 Z M 32.890625 -23.09375 C 32.890625 -20.96875 31.828125 -19.90625 29.703125 -19.90625 C 27.648438 -19.90625 26.625 -20.96875 26.625 -23.09375 C 26.625 -25.226562 27.648438 -26.296875 29.703125 -26.296875 C 31.828125 -26.296875 32.890625 -25.226562 32.890625 -23.09375 Z M 61.484375 -23.09375 C 61.484375 -20.96875 60.382812 -19.90625 58.1875 -19.90625 C 56.0625 -19.90625 55 -20.96875 55 -23.09375 C 55 -25.226562 56.0625 -26.296875 58.1875 -26.296875 C 60.382812 -26.296875 61.484375 -25.226562 61.484375 -23.09375 Z M 47.1875 -17.59375 C 47.1875 -15.46875 46.085938 -14.40625 43.890625 -14.40625 C 41.835938 -14.40625 40.8125 -15.46875 40.8125 -17.59375 C 40.8125 -19.726562 41.835938 -20.796875 43.890625 -20.796875 C 46.085938 -20.796875 47.1875 -19.726562 47.1875 -17.59375 Z M 47.1875 -17.59375 "/>
</symbol>
<symbol overflow="visible" id="oriya-nukt:id0:glyph0-3">
<path style="stroke:none;" d="M 33 17.8125 C 31.601562 17.8125 30.351562 17.28125 29.25 16.21875 C 28.15625 15.15625 27.609375 13.851562 27.609375 12.3125 C 27.609375 10.851562 28.140625 9.570312 29.203125 8.46875 C 30.265625 7.363281 31.53125 6.8125 33 6.8125 C 34.46875 6.8125 35.75 7.363281 36.84375 8.46875 C 37.945312 9.570312 38.5 10.851562 38.5 12.3125 C 38.5 13.925781 37.984375 15.242188 36.953125 16.265625 C 35.929688 17.296875 34.613281 17.8125 33 17.8125 Z M 33 17.8125 "/>
</symbol>
</g>
<g>
<symbol overflow="visible" id="oriya-nukt:id1:glyph0-0">
<path style="stroke:none;" d="M 5.375 -96.6875 L 69.828125 -96.6875 L 69.828125 0 L 5.375 0 Z M 8.0625 -2.6875 L 67.140625 -2.6875 L 67.140625 -94 L 8.0625 -94 Z M 8.0625 -2.6875 "/>
</symbol>
<symbol overflow="visible" id="oriya-nukt:id1:glyph0-1">
<path style="stroke:none;" d="M 68.15625 -13.75 L 66.28125 -18.640625 L 88.09375 -27.390625 L 6.984375 -27.390625 L 6.984375 -34 L 88.09375 -34 L 66.28125 -42.75 L 68.15625 -47.640625 L 99.09375 -34.265625 L 99.09375 -27.125 Z M 68.15625 -13.75 "/>
</symbol>
</g>
<g>
<symbol overflow="visible" id="oriya-nukt:id2:glyph0-0">
<path style="stroke:none;" d="M 90.09375 -78.546875 L 90.09375 0 L 44.875 0 L 44.875 -78.546875 Z M 84.484375 -5.609375 L 84.484375 -72.9375 L 50.484375 -72.9375 L 50.484375 -5.609375 Z M 84.484375 -5.609375 "/>
</symbol>
<symbol overflow="visible" id="oriya-nukt:id2:glyph0-1">
<path style="stroke:none;" d="M 34.3125 0.875 C 30.644531 0.875 27.253906 0.109375 24.140625 -1.421875 C 21.023438 -2.960938 18.53125 -5.238281 16.65625 -8.25 C 14.789062 -11.257812 13.859375 -14.890625 13.859375 -19.140625 C 13.859375 -20.679688 14.003906 -22.1875 14.296875 -23.65625 C 10.921875 -26.4375 8.28125 -29.640625 6.375 -33.265625 C 4.46875 -36.898438 3.515625 -40.878906 3.515625 -45.203125 C 3.515625 -50.117188 4.816406 -54.722656 7.421875 -59.015625 C 10.023438 -63.304688 14.113281 -66.753906 19.6875 -69.359375 C 25.257812 -71.960938 32.484375 -73.265625 41.359375 -73.265625 L 46.3125 -73.265625 L 50.265625 -68.859375 C 47.265625 -65.117188 45.765625 -61.378906 45.765625 -57.640625 C 45.765625 -54.847656 46.734375 -52.515625 48.671875 -50.640625 C 50.617188 -48.773438 53.535156 -47.84375 57.421875 -47.84375 C 59.328125 -47.84375 61.03125 -48.0625 62.53125 -48.5 C 64.039062 -48.945312 65.269531 -49.5 66.21875 -50.15625 L 66.21875 -72.375 L 74.796875 -72.375 L 74.796875 0 L 66.21875 0 L 66.21875 -42.34375 C 63.582031 -41.25 60.503906 -40.703125 56.984375 -40.703125 C 51.191406 -40.703125 46.550781 -42.1875 43.0625 -45.15625 C 39.582031 -48.125 37.84375 -52.101562 37.84375 -57.09375 C 37.84375 -59.945312 38.425781 -62.660156 39.59375 -65.234375 C 32.851562 -65.085938 27.445312 -64.019531 23.375 -62.03125 C 19.300781 -60.050781 16.363281 -57.484375 14.5625 -54.328125 C 12.769531 -51.179688 11.875 -47.847656 11.875 -44.328125 C 11.875 -41.765625 12.347656 -39.304688 13.296875 -36.953125 C 14.253906 -34.609375 15.539062 -32.484375 17.15625 -30.578125 C 18.988281 -33.367188 21.425781 -35.476562 24.46875 -36.90625 C 27.519531 -38.332031 30.800781 -39.046875 34.3125 -39.046875 C 37.976562 -39.046875 41.367188 -38.273438 44.484375 -36.734375 C 47.609375 -35.203125 50.125 -32.945312 52.03125 -29.96875 C 53.9375 -27 54.890625 -23.390625 54.890625 -19.140625 C 54.890625 -14.890625 53.9375 -11.257812 52.03125 -8.25 C 50.125 -5.238281 47.609375 -2.960938 44.484375 -1.421875 C 41.367188 0.109375 37.976562 0.875 34.3125 0.875 Z M 34.4375 -6.265625 C 37.726562 -6.265625 40.640625 -7.347656 43.171875 -9.515625 C 45.703125 -11.679688 46.96875 -14.890625 46.96875 -19.140625 C 46.96875 -23.316406 45.679688 -26.46875 43.109375 -28.59375 C 40.546875 -30.726562 37.65625 -31.796875 34.4375 -31.796875 C 31.132812 -31.796875 28.21875 -30.726562 25.6875 -28.59375 C 23.15625 -26.46875 21.890625 -23.316406 21.890625 -19.140625 C 21.890625 -14.890625 23.15625 -11.679688 25.6875 -9.515625 C 28.21875 -7.347656 31.132812 -6.265625 34.4375 -6.265625 Z M 34.4375 -6.265625 "/>
</symbol>
<symbol overflow="visible" id="oriya-nukt:id2:glyph0-2">
<path style="stroke:none;" d="M 33 17.8125 C 31.601562 17.8125 30.351562 17.28125 29.25 16.21875 C 28.15625 15.15625 27.609375 13.851562 27.609375 12.3125 C 27.609375 10.851562 28.140625 9.570312 29.203125 8.46875 C 30.265625 7.363281 31.53125 6.8125 33 6.8125 C 34.46875 6.8125 35.75 7.363281 36.84375 8.46875 C 37.945312 9.570312 38.5 10.851562 38.5 12.3125 C 38.5 13.925781 37.984375 15.242188 36.953125 16.265625 C 35.929688 17.296875 34.613281 17.8125 33 17.8125 Z M 33 17.8125 "/>
</symbol>
</g>
</defs>
  <g id="oriya-nukt:id0:id0" transform="matrix(1.25,0,0,1.25,0.0,4.560546875)"><g id="oriya-nukt:id0:surface1">
<g style="fill:rgb(0%,0%,0%);fill-opacity:1;">
  <use xlink:href="#oriya-nukt:id0:glyph0-1" x="16" y="119.59375" class="c0"/>
  <use xlink:href="#oriya-nukt:id0:glyph0-2" x="97.515625" y="119.59375" class="dc"/>
  <use xlink:href="#oriya-nukt:id0:glyph0-3" x="185.515625" y="119.59375" class="c1"/>
</g>
</g>
</g>
  <g id="oriya-nukt:id1:id1" transform="matrix(1.25,0,0,1.25,251.89453125,0.0)"><g id="oriya-nukt:id1:surface1">
<g style="fill:rgb(0%,0%,0%);fill-opacity:1;">
  <use xlink:href="#oriya-nukt:id1:glyph0-1" x="0" y="120.84375" class="arrow"/>
</g>
</g>
</g>
  <g id="oriya-nukt:id2:id2" transform="matrix(1.25,0,0,1.25,384.4921875,4.560546875)"><g id="oriya-nukt:id2:surface1">
<g style="fill:rgb(0%,0%,0%);fill-opacity:1;">
  <use xlink:href="#oriya-nukt:id2:glyph0-1" x="16" y="119.59375" class="c2"/>
  <use xlink:href="#oriya-nukt:id2:glyph0-2" x="97.515625" y="119.59375" class="c2"/>
</g>
</g>
</g>
</svg>