<?xml version="1.0" standalone="no"?>
<!DOCTYPE svg PUBLIC "-//W3C//DTD SVG 1.1//EN"
 "http://www.w3.org/Graphics/SVG/1.1/DTD/svg11.dtd">
<!-- Created with svg_stack (http://github.com/astraw/svg_stack) -->
<svg xmlns="http://www.w3.org/2000/svg" xmlns:sodipodi="http://sodipodi.sourceforge.net/DTD/sodipodi-0.dtd" xmlns:xlink="http://www.w3.org/1999/xlink" version="1.1" width="527.34375" height="201.40625">
  <defs><g>
<symbol overflow="visible" id="id0:glyph0-0">
<path style="stroke:none;" d="M 90.09375 -78.546875 L 90.09375 0 L 44.875 0 L 44.875 -78.546875 Z M 84.484375 -5.609375 L 84.484375 -72.9375 L 50.484375 -72.9375 L 50.484375 -5.609375 Z M 84.484375 -5.609375 "/>
</symbol>
<symbol overflow="visible" id="id0:glyph0-1">
<path style="stroke:none;" d="M 47.1875 -55.984375 C 47.1875 -53.859375 46.085938 -52.796875 43.890625 -52.796875 C 41.835938 -52.796875 40.8125 -53.859375 40.8125 -55.984375 C 40.8125 -58.035156 41.835938 -59.0625 43.890625 -59.0625 C 46.085938 -59.0625 47.1875 -58.035156 47.1875 -55.984375 Z M 32.890625 -50.59375 C 32.890625 -48.46875 31.828125 -47.40625 29.703125 -47.40625 C 27.648438 -47.40625 26.625 -48.46875 26.625 -50.59375 C 26.625 -52.65625 27.648438 -53.6875 29.703125 -53.6875 C 31.828125 -53.6875 32.890625 -52.65625 32.890625 -50.59375 Z M 61.484375 -50.59375 C 61.484375 -48.46875 60.382812 -47.40625 58.1875 -47.40625 C 56.0625 -47.40625 55 -48.46875 55 -50.59375 C 55 -52.65625 56.0625 -53.6875 58.1875 -53.6875 C 60.382812 -53.6875 61.484375 -52.65625 61.484375 -50.59375 Z M 66.4375 -36.84375 C 66.4375 -34.71875 65.375 -33.65625 63.25 -33.65625 C 61.050781 -33.65625 59.953125 -34.71875 59.953125 -36.84375 C 59.953125 -38.90625 61.050781 -39.9375 63.25 -39.9375 C 65.375 -39.9375 66.4375 -38.90625 66.4375 -36.84375 Z M 27.9375 -36.84375 C 27.9375 -34.71875 26.910156 -33.65625 24.859375 -33.65625 C 22.660156 -33.65625 21.5625 -34.71875 21.5625 -36.84375 C 21.5625 -38.90625 22.660156 -39.9375 24.859375 -39.9375 C 26.910156 -39.9375 27.9375 -38.90625 27.9375 -36.84375 Z M 32.890625 -23.09375 C 32.890625 -20.96875 31.828125 -19.90625 29.703125 -19.90625 C 27.648438 -19.90625 26.625 -20.96875 26.625 -23.09375 C 26.625 -25.226562 27.648438 -26.296875 29.703125 -26.296875 C 31.828125 -26.296875 32.890625 -25.226562 32.890625 -23.09375 Z M 61.484375 -23.09375 C 61.484375 -20.96875 60.382812 -19.90625 58.1875 -19.90625 C 56.0625 -19.90625 55 -20.96875 55 -23.09375 C 55 -25.226562 56.0625 -26.296875 58.1875 -26.296875 C 60.382812 -26.296875 61.484375 -25.226562 61.484375 -23.09375 Z M 47.1875 -17.59375 C 47.1875 -15.46875 46.085938 -14.40625 43.890625 -14.40625 C 41.835938 -14.40625 40.8125 -15.46875 40.8125 -17.59375 C 40.8125 -19.726562 41.835938 -20.796875 43.890625 -20.796875 C 46.085938 -20.796875 47.1875 -19.726562 47.1875 -17.59375 Z M 47.1875 -17.59375 "/>
</symbol>
<symbol overflow="visible" id="id0:glyph0-2">
<path style="stroke:none;" d="M 7.921875 3.625 L 19.6875 19.46875 L 14.515625 23.3125 L 2.203125 7.703125 Z M 7.921875 3.625 "/>
</symbol>
<symbol overflow="visible" id="id0:glyph0-3">
<path style="stroke:none;" d="M 41.6875 -55.109375 C 41.6875 -58.410156 40.675781 -61.050781 38.65625 -63.03125 C 36.644531 -65.007812 33.769531 -66 30.03125 -66 C 26.289062 -66 23.335938 -64.988281 21.171875 -62.96875 C 19.015625 -60.957031 17.9375 -58.226562 17.9375 -54.78125 C 17.9375 -53.675781 18.0625 -52.5 18.3125 -51.25 C 18.570312 -50.007812 19.03125 -48.691406 19.6875 -47.296875 L 11.4375 -44.875 C 10.78125 -46.414062 10.226562 -48.066406 9.78125 -49.828125 C 9.34375 -51.585938 9.125 -53.382812 9.125 -55.21875 C 9.125 -60.789062 11.007812 -65.191406 14.78125 -68.421875 C 18.5625 -71.648438 23.71875 -73.265625 30.25 -73.265625 C 36.625 -73.265625 41.585938 -71.6875 45.140625 -68.53125 C 48.703125 -65.375 50.484375 -60.972656 50.484375 -55.328125 C 50.484375 -51.296875 49.640625 -47.976562 47.953125 -45.375 C 46.273438 -42.769531 44.113281 -40.675781 41.46875 -39.09375 C 38.832031 -37.519531 36.007812 -36.257812 33 -35.3125 L 25.515625 -32.671875 C 23.242188 -31.929688 21.097656 -31.082031 19.078125 -30.125 C 17.066406 -29.175781 15.4375 -27.914062 14.1875 -26.34375 C 12.9375 -24.769531 12.3125 -22.660156 12.3125 -20.015625 C 12.3125 -16.347656 13.648438 -13.285156 16.328125 -10.828125 C 19.003906 -8.378906 23.128906 -7.15625 28.703125 -7.15625 C 34.203125 -7.15625 39.773438 -8.414062 45.421875 -10.9375 C 51.078125 -13.46875 56.101562 -17.300781 60.5 -22.4375 L 60.5 -72.375 L 69.078125 -72.375 L 69.078125 0 L 60.5 0 L 61.15625 -12.3125 C 57.195312 -8.207031 52.394531 -4.984375 46.75 -2.640625 C 41.101562 -0.296875 35.015625 0.875 28.484375 0.875 C 19.984375 0.875 13.695312 -1.066406 9.625 -4.953125 C 5.550781 -8.835938 3.515625 -13.710938 3.515625 -19.578125 C 3.515625 -23.316406 4.210938 -26.378906 5.609375 -28.765625 C 7.003906 -31.148438 8.816406 -33.054688 11.046875 -34.484375 C 13.285156 -35.910156 15.6875 -37.082031 18.25 -38 C 20.820312 -38.914062 23.316406 -39.78125 25.734375 -40.59375 L 27.9375 -41.359375 C 29.769531 -41.941406 31.769531 -42.707031 33.9375 -43.65625 C 36.101562 -44.613281 37.9375 -45.988281 39.4375 -47.78125 C 40.9375 -49.582031 41.6875 -52.023438 41.6875 -55.109375 Z M 41.6875 -55.109375 "/>
</symbol>
</g>
<g>
<symbol overflow="visible" id="id1:glyph0-0">
<path style="stroke:none;" d="M 5.375 -96.6875 L 69.828125 -96.6875 L 69.828125 0 L 5.375 0 Z M 8.0625 -2.6875 L 67.140625 -2.6875 L 67.140625 -94 L 8.0625 -94 Z M 8.0625 -2.6875 "/>
</symbol>
<symbol overflow="visible" id="id1:glyph0-1">
<path style="stroke:none;" d="M 68.15625 -13.75 L 66.28125 -18.640625 L 88.09375 -27.390625 L 6.984375 -27.390625 L 6.984375 -34 L 88.09375 -34 L 66.28125 -42.75 L 68.15625 -47.640625 L 99.09375 -34.265625 L 99.09375 -27.125 Z M 68.15625 -13.75 "/>
</symbol>
</g>
<g>
<symbol overflow="visible" id="id2:glyph0-0">
<path style="stroke:none;" d="M 90.09375 -78.546875 L 90.09375 0 L 44.875 0 L 44.875 -78.546875 Z M 84.484375 -5.609375 L 84.484375 -72.9375 L 50.484375 -72.9375 L 50.484375 -5.609375 Z M 84.484375 -5.609375 "/>
</symbol>
<symbol overflow="visible" id="id2:glyph0-1">
<path style="stroke:none;" d="M 47.1875 -55.984375 C 47.1875 -53.859375 46.085938 -52.796875 43.890625 -52.796875 C 41.835938 -52.796875 40.8125 -53.859375 40.8125 -55.984375 C 40.8125 -58.035156 41.835938 -59.0625 43.890625 -59.0625 C 46.085938 -59.0625 47.1875 -58.035156 47.1875 -55.984375 Z M 32.890625 -50.59375 C 32.890625 -48.46875 31.828125 -47.40625 29.703125 -47.40625 C 27.648438 -47.40625 26.625 -48.46875 26.625 -50.59375 C 26.625 -52.65625 27.648438 -53.6875 29.703125 -53.6875 C 31.828125 -53.6875 32.890625 -52.65625 32.890625 -50.59375 Z M 61.484375 -50.59375 C 61.484375 -48.46875 60.382812 -47.40625 58.1875 -47.40625 C 56.0625 -47.40625 55 -48.46875 55 -50.59375 C 55 -52.65625 56.0625 -53.6875 58.1875 -53.6875 C 60.382812 -53.6875 61.484375 -52.65625 61.484375 -50.59375 Z M 66.4375 -36.84375 C 66.4375 -34.71875 65.375 -33.65625 63.25 -33.65625 C 61.050781 -33.65625 59.953125 -34.71875 59.953125 -36.84375 C 59.953125 -38.90625 61.050781 -39.9375 63.25 -39.9375 C 65.375 -39.9375 66.4375 -38.90625 66.4375 -36.84375 Z M 27.9375 -36.84375 C 27.9375 -34.71875 26.910156 -33.65625 24.859375 -33.65625 C 22.660156 -33.65625 21.5625 -34.71875 21.5625 -36.84375 C 21.5625 -38.90625 22.660156 -39.9375 24.859375 -39.9375 C 26.910156 -39.9375 27.9375 -38.90625 27.9375 -36.84375 Z M 32.890625 -23.09375 C 32.890625 -20.96875 31.828125 -19.90625 29.703125 -19.90625 C 27.648438 -19.90625 26.625 -20.96875 26.625 -23.09375 C 26.625 -25.226562 27.648438 -26.296875 29.703125 -26.296875 C 31.828125 -26.296875 32.890625 -25.226562 32.890625 -23.09375 Z M 61.484375 -23.09375 C 61.484375 -20.96875 60.382812 -19.90625 58.1875 -19.90625 C 56.0625 -19.90625 55 -20.96875 55 -23.09375 C 55 -25.226562 56.0625 -26.296875 58.1875 -26.296875 C 60.382812 -26.296875 61.484375 -25.226562 61.484375 -23.09375 Z M 47.1875 -17.59375 C 47.1875 -15.46875 46.085938 -14.40625 43.890625 -14.40625 C 41.835938 -14.40625 40.8125 -15.46875 40.8125 -17.59375 C 40.8125 -19.726562 41.835938 -20.796875 43.890625 -20.796875 C 46.085938 -20.796875 47.1875 -19.726562 47.1875 -17.59375 Z M 47.1875 -17.59375 "/>
</symbol>
<symbol overflow="visible" id="id2:glyph0-2">
<path style="stroke:none;" d="M 14.84375 18.484375 C 10.882812 18.484375 7.820312 17.253906 5.65625 14.796875 C 3.5 12.335938 2.421875 9.273438 2.421875 5.609375 C 2.421875 1.867188 3.519531 -1.28125 5.71875 -3.84375 C 7.914062 -6.414062 11.03125 -7.703125 15.0625 -7.703125 C 18.4375 -7.703125 21.367188 -6.765625 23.859375 -4.890625 C 26.359375 -3.023438 28.632812 -0.878906 30.6875 1.546875 C 32.738281 -0.878906 34.992188 -3.023438 37.453125 -4.890625 C 39.910156 -6.765625 42.898438 -7.703125 46.421875 -7.703125 C 50.523438 -7.703125 53.65625 -6.398438 55.8125 -3.796875 C 57.976562 -1.191406 59.0625 1.941406 59.0625 5.609375 C 59.0625 9.203125 58 12.242188 55.875 14.734375 C 53.75 17.234375 50.707031 18.484375 46.75 18.484375 C 43.226562 18.484375 40.203125 17.53125 37.671875 15.625 C 35.140625 13.71875 32.8125 11.585938 30.6875 9.234375 C 28.632812 11.585938 26.34375 13.71875 23.8125 15.625 C 21.28125 17.53125 18.289062 18.484375 14.84375 18.484375 Z M 8.578125 5.390625 C 8.578125 7.441406 9.238281 9.203125 10.5625 10.671875 C 11.882812 12.140625 13.679688 12.875 15.953125 12.875 C 18.222656 12.875 20.273438 12.140625 22.109375 10.671875 C 23.941406 9.203125 25.703125 7.441406 27.390625 5.390625 C 25.628906 3.410156 23.832031 1.6875 22 0.21875 C 20.164062 -1.25 18.113281 -1.984375 15.84375 -1.984375 C 13.789062 -1.984375 12.066406 -1.320312 10.671875 0 C 9.273438 1.320312 8.578125 3.117188 8.578125 5.390625 Z M 45.546875 -1.984375 C 43.265625 -1.984375 41.207031 -1.25 39.375 0.21875 C 37.539062 1.6875 35.742188 3.410156 33.984375 5.390625 C 35.742188 7.367188 37.539062 9.109375 39.375 10.609375 C 41.207031 12.117188 43.300781 12.875 45.65625 12.875 C 47.851562 12.875 49.609375 12.140625 50.921875 10.671875 C 52.242188 9.203125 52.90625 7.441406 52.90625 5.390625 C 52.90625 3.191406 52.226562 1.410156 50.875 0.046875 C 49.519531 -1.304688 47.742188 -1.984375 45.546875 -1.984375 Z M 45.546875 -1.984375 "/>
</symbol>
</g>
</defs>
  <g id="id0:id0" transform="matrix(1.25,0,0,1.25,0.0,4.560546875)"><g id="id0:surface1">
<g style="fill:rgb(0%,0%,0%);fill-opacity:1;">
  <use xlink:href="#id0:glyph0-1" x="16" y="119.59375"/>
  <use xlink:href="#id0:glyph0-2" x="104" y="119.59375"/>
  <use xlink:href="#id0:glyph0-3" x="104" y="119.59375"/>
</g>
</g>
</g>
  <g id="id1:id1" transform="matrix(1.25,0,0,1.25,244.74609375,0.0)"><g id="id1:surface1">
<g style="fill:rgb(0%,0%,0%);fill-opacity:1;">
  <use xlink:href="#id1:glyph0-1" x="0" y="120.84375"/>
</g>
</g>
</g>
  <g id="id2:id2" transform="matrix(1.25,0,0,1.25,377.34375,4.560546875)"><g id="id2:surface1">
<g style="fill:rgb(0%,0%,0%);fill-opacity:1;">
  <use xlink:href="#id2:glyph0-1" x="16" y="119.59375"/>
  <use xlink:href="#id2:glyph0-2" x="104" y="119.59375"/>
</g>
</g>
</g>
</svg>
