<!DOCTYPE svg PUBLIC "-//W3C//DTD SVG 1.1//EN" "http://www.w3.org/Graphics/SVG/1.1/DTD/svg11.dtd">
<!-- Created with svg_stack (http://github.com/astraw/svg_stack) --><svg xmlns="http://www.w3.org/2000/svg" xmlns:sodipodi="http://sodipodi.sourceforge.net/DTD/sodipodi-0.dtd" xmlns:xlink="http://www.w3.org/1999/xlink" version="1.1" width="100%" id="oriya-blws" viewBox="0 0 384.47265625 201.40625">
  <defs><g>
<symbol overflow="visible" id="oriya-blws:id0:glyph0-0">
<path style="stroke:none;" d="M 10.34375 0 L 10.34375 -78.546875 L 55.546875 -78.546875 L 55.546875 0 Z M 15.953125 -5.609375 L 49.9375 -5.609375 L 49.9375 -72.9375 L 15.953125 -72.9375 Z M 15.953125 -5.609375 "/>
</symbol>
<symbol overflow="visible" id="oriya-blws:id0:glyph0-1">
<path style="stroke:none;" d="M 8.796875 -5.0625 C 13.785156 -1.101562 19.175781 2.046875 24.96875 4.390625 C 30.757812 6.742188 36.515625 7.921875 42.234375 7.921875 C 42.453125 7.921875 42.640625 7.921875 42.796875 7.921875 C 40.960938 6.523438 39.585938 4.851562 38.671875 2.90625 C 37.753906 0.96875 37.296875 -0.84375 37.296875 -2.53125 C 37.296875 -4.507812 37.804688 -6.378906 38.828125 -8.140625 C 39.859375 -9.898438 41.253906 -11.289062 43.015625 -12.3125 L 43.015625 -38.609375 L 42.6875 -38.609375 C 38.0625 -38.609375 34.15625 -37.632812 30.96875 -35.6875 C 27.78125 -33.75 25.304688 -31.332031 23.546875 -28.4375 C 21.785156 -25.539062 20.71875 -22.660156 20.34375 -19.796875 C 23.71875 -18.628906 25.40625 -16.46875 25.40625 -13.3125 C 25.40625 -11.40625 24.78125 -9.804688 23.53125 -8.515625 C 22.289062 -7.234375 20.789062 -6.59375 19.03125 -6.59375 C 17.414062 -6.59375 15.945312 -7.21875 14.625 -8.46875 C 13.3125 -9.71875 12.65625 -12.066406 12.65625 -15.515625 C 12.65625 -17.203125 12.851562 -19 13.25 -20.90625 C 13.65625 -22.8125 14.257812 -24.71875 15.0625 -26.625 C 10.957031 -29.476562 8.003906 -32.828125 6.203125 -36.671875 C 4.410156 -40.523438 3.515625 -44.320312 3.515625 -48.0625 C 3.515625 -52.757812 4.757812 -57.015625 7.25 -60.828125 C 9.75 -64.640625 13.269531 -67.679688 17.8125 -69.953125 C 22.363281 -72.234375 27.71875 -73.375 33.875 -73.375 C 39.59375 -73.375 44.539062 -72.472656 48.71875 -70.671875 C 52.90625 -68.878906 56.425781 -66.695312 59.28125 -64.125 C 62.144531 -61.5625 64.457031 -59.109375 66.21875 -56.765625 L 61.046875 -51.375 L 59.953125 -51.375 C 58.265625 -53.789062 56.0625 -56.132812 53.34375 -58.40625 C 50.632812 -60.675781 47.5 -62.523438 43.9375 -63.953125 C 40.382812 -65.390625 36.445312 -66.109375 32.125 -66.109375 C 27.9375 -66.109375 24.265625 -65.390625 21.109375 -63.953125 C 17.960938 -62.523438 15.488281 -60.546875 13.6875 -58.015625 C 11.894531 -55.492188 11 -52.582031 11 -49.28125 C 11 -46.269531 11.769531 -43.441406 13.3125 -40.796875 C 14.851562 -38.160156 16.976562 -36.078125 19.6875 -34.546875 C 22.332031 -37.910156 25.757812 -40.726562 29.96875 -43 C 34.1875 -45.28125 39.226562 -46.421875 45.09375 -46.421875 C 46.050781 -46.421875 46.914062 -46.382812 47.6875 -46.3125 C 48.457031 -46.238281 49.097656 -46.128906 49.609375 -45.984375 L 50.375 -45.203125 L 50.375 -13.96875 C 52.800781 -13.820312 55.003906 -13.144531 56.984375 -11.9375 C 58.960938 -10.726562 60.554688 -9.132812 61.765625 -7.15625 C 62.972656 -5.175781 63.578125 -3.007812 63.578125 -0.65625 C 63.578125 3.738281 61.523438 7.347656 57.421875 10.171875 C 53.316406 12.992188 47.816406 14.40625 40.921875 14.40625 C 36.597656 14.40625 32.269531 13.851562 27.9375 12.75 C 23.613281 11.65625 19.5625 10.132812 15.78125 8.1875 C 12.007812 6.25 8.65625 4.070312 5.71875 1.65625 Z M 43.890625 -3.734375 C 43.890625 -1.972656 44.734375 -0.160156 46.421875 1.703125 C 48.109375 3.578125 50.269531 5.0625 52.90625 6.15625 C 55.550781 4.914062 56.875 3.191406 56.875 0.984375 C 56.875 -0.328125 56.453125 -1.625 55.609375 -2.90625 C 54.765625 -4.195312 53.660156 -5.265625 52.296875 -6.109375 C 50.941406 -6.953125 49.457031 -7.375 47.84375 -7.375 C 46.675781 -7.375 45.722656 -7.039062 44.984375 -6.375 C 44.253906 -5.71875 43.890625 -4.835938 43.890625 -3.734375 Z M 43.890625 -3.734375 "/>
</symbol>
<symbol overflow="visible" id="oriya-blws:id0:glyph0-2">
<path style="stroke:none;" d="M -1.546875 16.171875 L 13.09375 24.859375 L 8.90625 30.90625 L 7.703125 30.90625 L -2.203125 23.984375 C -3.960938 26.035156 -5.921875 27.71875 -8.078125 29.03125 C -10.242188 30.351562 -12.757812 31.015625 -15.625 31.015625 C -18.769531 31.015625 -21.390625 30.375 -23.484375 29.09375 C -25.578125 27.8125 -27.15625 26.179688 -28.21875 24.203125 C -29.28125 22.222656 -29.8125 20.171875 -29.8125 18.046875 C -29.8125 13.785156 -27.847656 9.859375 -23.921875 6.265625 C -20.003906 2.671875 -14.671875 -0.476562 -7.921875 -3.1875 L -6.703125 -2.640625 L -6.703125 0.984375 L -7.375 2.09375 C -13.3125 4.945312 -17.304688 7.582031 -19.359375 10 C -21.410156 12.425781 -22.4375 14.738281 -22.4375 16.9375 C -22.4375 19.0625 -21.644531 20.785156 -20.0625 22.109375 C -18.488281 23.429688 -16.601562 24.09375 -14.40625 24.09375 C -12.28125 24.09375 -10.351562 23.410156 -8.625 22.046875 C -6.90625 20.691406 -5.273438 18.734375 -3.734375 16.171875 Z M -1.546875 16.171875 "/>
</symbol>
</g>
<g>
<symbol overflow="visible" id="oriya-blws:id1:glyph0-0">
<path style="stroke:none;" d="M 5.375 -96.6875 L 69.828125 -96.6875 L 69.828125 0 L 5.375 0 Z M 8.0625 -2.6875 L 67.140625 -2.6875 L 67.140625 -94 L 8.0625 -94 Z M 8.0625 -2.6875 "/>
</symbol>
<symbol overflow="visible" id="oriya-blws:id1:glyph0-1">
<path style="stroke:none;" d="M 68.15625 -13.75 L 66.28125 -18.640625 L 88.09375 -27.390625 L 6.984375 -27.390625 L 6.984375 -34 L 88.09375 -34 L 66.28125 -42.75 L 68.15625 -47.640625 L 99.09375 -34.265625 L 99.09375 -27.125 Z M 68.15625 -13.75 "/>
</symbol>
</g>
<g>
<symbol overflow="visible" id="oriya-blws:id2:glyph0-0">
<path style="stroke:none;" d="M 10.34375 0 L 10.34375 -78.546875 L 55.546875 -78.546875 L 55.546875 0 Z M 15.953125 -5.609375 L 49.9375 -5.609375 L 49.9375 -72.9375 L 15.953125 -72.9375 Z M 15.953125 -5.609375 "/>
</symbol>
<symbol overflow="visible" id="oriya-blws:id2:glyph0-1">
<path style="stroke:none;" d="M 8.796875 -5.0625 C 13.785156 -1.101562 19.175781 2.046875 24.96875 4.390625 C 30.757812 6.742188 36.515625 7.921875 42.234375 7.921875 C 42.453125 7.921875 42.640625 7.921875 42.796875 7.921875 C 40.960938 6.523438 39.585938 4.851562 38.671875 2.90625 C 37.753906 0.96875 37.296875 -0.84375 37.296875 -2.53125 C 37.296875 -4.507812 37.804688 -6.378906 38.828125 -8.140625 C 39.859375 -9.898438 41.253906 -11.289062 43.015625 -12.3125 L 43.015625 -38.609375 L 42.6875 -38.609375 C 38.0625 -38.609375 34.15625 -37.632812 30.96875 -35.6875 C 27.78125 -33.75 25.304688 -31.332031 23.546875 -28.4375 C 21.785156 -25.539062 20.71875 -22.660156 20.34375 -19.796875 C 23.71875 -18.628906 25.40625 -16.46875 25.40625 -13.3125 C 25.40625 -11.40625 24.78125 -9.804688 23.53125 -8.515625 C 22.289062 -7.234375 20.789062 -6.59375 19.03125 -6.59375 C 17.414062 -6.59375 15.945312 -7.21875 14.625 -8.46875 C 13.3125 -9.71875 12.65625 -12.066406 12.65625 -15.515625 C 12.65625 -17.203125 12.851562 -19 13.25 -20.90625 C 13.65625 -22.8125 14.257812 -24.71875 15.0625 -26.625 C 10.957031 -29.476562 8.003906 -32.828125 6.203125 -36.671875 C 4.410156 -40.523438 3.515625 -44.320312 3.515625 -48.0625 C 3.515625 -52.757812 4.757812 -57.015625 7.25 -60.828125 C 9.75 -64.640625 13.269531 -67.679688 17.8125 -69.953125 C 22.363281 -72.234375 27.71875 -73.375 33.875 -73.375 C 39.59375 -73.375 44.539062 -72.472656 48.71875 -70.671875 C 52.90625 -68.878906 56.425781 -66.695312 59.28125 -64.125 C 62.144531 -61.5625 64.457031 -59.109375 66.21875 -56.765625 L 61.046875 -51.375 L 59.953125 -51.375 C 58.265625 -53.789062 56.0625 -56.132812 53.34375 -58.40625 C 50.632812 -60.675781 47.5 -62.523438 43.9375 -63.953125 C 40.382812 -65.390625 36.445312 -66.109375 32.125 -66.109375 C 27.9375 -66.109375 24.265625 -65.390625 21.109375 -63.953125 C 17.960938 -62.523438 15.488281 -60.546875 13.6875 -58.015625 C 11.894531 -55.492188 11 -52.582031 11 -49.28125 C 11 -46.269531 11.769531 -43.441406 13.3125 -40.796875 C 14.851562 -38.160156 16.976562 -36.078125 19.6875 -34.546875 C 22.332031 -37.910156 25.757812 -40.726562 29.96875 -43 C 34.1875 -45.28125 39.226562 -46.421875 45.09375 -46.421875 C 46.050781 -46.421875 46.914062 -46.382812 47.6875 -46.3125 C 48.457031 -46.238281 49.097656 -46.128906 49.609375 -45.984375 L 50.375 -45.203125 L 50.375 -13.96875 C 52.800781 -13.820312 55.003906 -13.144531 56.984375 -11.9375 C 58.960938 -10.726562 60.554688 -9.132812 61.765625 -7.15625 C 62.972656 -5.175781 63.578125 -3.007812 63.578125 -0.65625 C 63.578125 3.738281 61.523438 7.347656 57.421875 10.171875 C 53.316406 12.992188 47.816406 14.40625 40.921875 14.40625 C 36.597656 14.40625 32.269531 13.851562 27.9375 12.75 C 23.613281 11.65625 19.5625 10.132812 15.78125 8.1875 C 12.007812 6.25 8.65625 4.070312 5.71875 1.65625 Z M 43.890625 -3.734375 C 43.890625 -1.972656 44.734375 -0.160156 46.421875 1.703125 C 48.109375 3.578125 50.269531 5.0625 52.90625 6.15625 C 55.550781 4.914062 56.875 3.191406 56.875 0.984375 C 56.875 -0.328125 56.453125 -1.625 55.609375 -2.90625 C 54.765625 -4.195312 53.660156 -5.265625 52.296875 -6.109375 C 50.941406 -6.953125 49.457031 -7.375 47.84375 -7.375 C 46.675781 -7.375 45.722656 -7.039062 44.984375 -6.375 C 44.253906 -5.71875 43.890625 -4.835938 43.890625 -3.734375 Z M 43.890625 -3.734375 "/>
</symbol>
<symbol overflow="visible" id="oriya-blws:id2:glyph0-2">
<path style="stroke:none;" d="M -27.5 33.65625 C -27.5 30.65625 -25.863281 27.757812 -22.59375 24.96875 C -19.332031 22.1875 -14.441406 19.914062 -7.921875 18.15625 L -6.703125 19.140625 L -6.703125 23.203125 L -7.15625 23.765625 C -12.28125 25.296875 -15.722656 26.8125 -17.484375 28.3125 C -19.242188 29.820312 -20.125 31.238281 -20.125 32.5625 C -20.125 33.957031 -19.554688 35.078125 -18.421875 35.921875 C -17.285156 36.765625 -15.945312 37.1875 -14.40625 37.1875 C -12.28125 37.1875 -10.351562 36.523438 -8.625 35.203125 C -6.90625 33.878906 -5.273438 32.046875 -3.734375 29.703125 L -1.984375 29.703125 L 12.65625 38.390625 L 8.90625 44 L 7.703125 44 L -2.203125 37.0625 C -3.960938 39.125 -5.921875 40.8125 -8.078125 42.125 C -10.242188 43.445312 -12.757812 44.109375 -15.625 44.109375 C -19.582031 44.109375 -22.550781 43.007812 -24.53125 40.8125 C -26.507812 38.613281 -27.5 36.226562 -27.5 33.65625 Z M -27.5 33.65625 "/>
</symbol>
</g>
</defs>
  <g id="oriya-blws:id0:id0" transform="matrix(1.25,0,0,1.25,0.0,1.328125)"><g id="oriya-blws:id0:surface1">
<g style="fill:rgb(0%,0%,0%);fill-opacity:1;">
  <use xlink:href="#oriya-blws:id0:glyph0-1" x="16" y="102.875" class="c0"/>
  <use xlink:href="#oriya-blws:id0:glyph0-2" x="72.984375" y="99.578125" class="c1"/>
</g>
</g>
</g>
  <g id="oriya-blws:id1:id1" transform="matrix(1.25,0,0,1.25,125.9375,0.0)"><g id="oriya-blws:id1:surface1">
<g style="fill:rgb(0%,0%,0%);fill-opacity:1;">
  <use xlink:href="#oriya-blws:id1:glyph0-1" x="0" y="120.84375" class="arrow"/>
</g>
</g>
</g>
  <g id="oriya-blws:id2:id2" transform="matrix(1.25,0,0,1.25,258.53515625,1.328125)"><g id="oriya-blws:id2:surface1">
<g style="fill:rgb(0%,0%,0%);fill-opacity:1;">
  <use xlink:href="#oriya-blws:id2:glyph0-1" x="16" y="102.875" class="c0"/>
  <use xlink:href="#oriya-blws:id2:glyph0-2" x="72.984375" y="99.578125" class="c1"/>
</g>
</g>
</g>
</svg>
