<!DOCTYPE svg PUBLIC "-//W3C//DTD SVG 1.1//EN" "http://www.w3.org/Graphics/SVG/1.1/DTD/svg11.dtd">
<!-- Created with svg_stack (http://github.com/astraw/svg_stack) --><svg xmlns="http://www.w3.org/2000/svg" xmlns:sodipodi="http://sodipodi.sourceforge.net/DTD/sodipodi-0.dtd" xmlns:xlink="http://www.w3.org/1999/xlink" version="1.1" width="100%" id="oriya-abvs" viewBox="0 0 405.09765625 201.40625">
  <defs><g>
<symbol overflow="visible" id="oriya-abvs:id0:glyph0-0">
<path style="stroke:none;" d="M 90.09375 -78.546875 L 90.09375 0 L 44.875 0 L 44.875 -78.546875 Z M 84.484375 -5.609375 L 84.484375 -72.9375 L 50.484375 -72.9375 L 50.484375 -5.609375 Z M 84.484375 -5.609375 "/>
</symbol>
<symbol overflow="visible" id="oriya-abvs:id0:glyph0-1">
<path style="stroke:none;" d="M 44 0.875 C 35.863281 0.875 28.75 -0.71875 22.65625 -3.90625 C 16.570312 -7.09375 11.859375 -11.617188 8.515625 -17.484375 C 5.179688 -23.359375 3.515625 -30.328125 3.515625 -38.390625 C 3.515625 -47.117188 5.421875 -55.238281 9.234375 -62.75 C 13.046875 -70.269531 18.179688 -76.414062 24.640625 -81.1875 L 30.578125 -75.453125 C 27.203125 -72.960938 24.117188 -69.789062 21.328125 -65.9375 C 18.546875 -62.09375 16.347656 -57.804688 14.734375 -53.078125 C 13.117188 -48.347656 12.3125 -43.488281 12.3125 -38.5 C 12.3125 -32.414062 13.578125 -27.023438 16.109375 -22.328125 C 18.640625 -17.640625 22.269531 -13.9375 27 -11.21875 C 31.726562 -8.507812 37.320312 -7.15625 43.78125 -7.15625 C 50.15625 -7.15625 55.15625 -8.4375 58.78125 -11 C 62.414062 -13.5625 64.234375 -16.75 64.234375 -20.5625 C 64.234375 -24.007812 62.988281 -26.757812 60.5 -28.8125 C 58.007812 -30.875 54.5625 -31.90625 50.15625 -31.90625 C 48.394531 -31.90625 46.503906 -31.703125 44.484375 -31.296875 C 42.472656 -30.890625 40.585938 -30.320312 38.828125 -29.59375 L 35.640625 -36.625 L 45.984375 -40.046875 C 48.398438 -40.773438 50.925781 -41.707031 53.5625 -42.84375 C 56.207031 -43.976562 58.425781 -45.535156 60.21875 -47.515625 C 62.019531 -49.492188 62.921875 -52.0625 62.921875 -55.21875 C 62.921875 -58.445312 61.894531 -60.992188 59.84375 -62.859375 C 57.789062 -64.734375 55.039062 -65.671875 51.59375 -65.671875 C 48.070312 -65.671875 45.25 -64.660156 43.125 -62.640625 C 41 -60.628906 39.9375 -58.007812 39.9375 -54.78125 C 39.9375 -53.53125 40.082031 -52.351562 40.375 -51.25 C 40.664062 -50.15625 41.066406 -49.054688 41.578125 -47.953125 L 33.65625 -45.4375 C 31.96875 -49.019531 31.125 -52.460938 31.125 -55.765625 C 31.125 -61.191406 33.007812 -65.460938 36.78125 -68.578125 C 40.5625 -71.703125 45.535156 -73.265625 51.703125 -73.265625 C 58.078125 -73.265625 63.003906 -71.648438 66.484375 -68.421875 C 69.972656 -65.191406 71.71875 -61.082031 71.71875 -56.09375 C 71.71875 -52.800781 71.019531 -49.960938 69.625 -47.578125 C 68.238281 -45.191406 66.476562 -43.191406 64.34375 -41.578125 C 62.21875 -39.960938 59.984375 -38.644531 57.640625 -37.625 C 62.703125 -36.664062 66.515625 -34.664062 69.078125 -31.625 C 71.648438 -28.582031 72.9375 -24.785156 72.9375 -20.234375 C 72.9375 -14.078125 70.421875 -9.019531 65.390625 -5.0625 C 60.367188 -1.101562 53.238281 0.875 44 0.875 Z M 44 0.875 "/>
</symbol>
<symbol overflow="visible" id="oriya-abvs:id0:glyph0-2">
<path style="stroke:none;" d=""/>
</symbol>
<symbol overflow="visible" id="oriya-abvs:id0:glyph0-3">
<path style="stroke:none;" d="M 43.890625 -76.453125 C 38.023438 -76.453125 33.222656 -78.265625 29.484375 -81.890625 C 25.742188 -85.523438 23.503906 -90.789062 22.765625 -97.6875 L 29.703125 -98.453125 C 30.140625 -93.171875 31.601562 -89.15625 34.09375 -86.40625 C 36.59375 -83.65625 39.859375 -82.28125 43.890625 -82.28125 C 47.921875 -82.28125 51.203125 -83.65625 53.734375 -86.40625 C 56.265625 -89.15625 57.785156 -93.171875 58.296875 -98.453125 L 65.234375 -97.6875 C 64.492188 -90.789062 62.234375 -85.523438 58.453125 -81.890625 C 54.679688 -78.265625 49.828125 -76.453125 43.890625 -76.453125 Z M 43.890625 -89.4375 C 42.566406 -89.4375 41.5 -89.835938 40.6875 -90.640625 C 39.882812 -91.441406 39.484375 -92.539062 39.484375 -93.9375 C 39.484375 -95.332031 39.90625 -96.414062 40.75 -97.1875 C 41.59375 -97.957031 42.640625 -98.34375 43.890625 -98.34375 C 45.210938 -98.34375 46.273438 -97.957031 47.078125 -97.1875 C 47.890625 -96.414062 48.296875 -95.332031 48.296875 -93.9375 C 48.296875 -92.539062 47.890625 -91.441406 47.078125 -90.640625 C 46.273438 -89.835938 45.210938 -89.4375 43.890625 -89.4375 Z M 43.890625 -89.4375 "/>
</symbol>
</g>
<g>
<symbol overflow="visible" id="oriya-abvs:id1:glyph0-0">
<path style="stroke:none;" d="M 5.375 -96.6875 L 69.828125 -96.6875 L 69.828125 0 L 5.375 0 Z M 8.0625 -2.6875 L 67.140625 -2.6875 L 67.140625 -94 L 8.0625 -94 Z M 8.0625 -2.6875 "/>
</symbol>
<symbol overflow="visible" id="oriya-abvs:id1:glyph0-1">
<path style="stroke:none;" d="M 68.15625 -13.75 L 66.28125 -18.640625 L 88.09375 -27.390625 L 6.984375 -27.390625 L 6.984375 -34 L 88.09375 -34 L 66.28125 -42.75 L 68.15625 -47.640625 L 99.09375 -34.265625 L 99.09375 -27.125 Z M 68.15625 -13.75 "/>
</symbol>
</g>
<g>
<symbol overflow="visible" id="oriya-abvs:id2:glyph0-0">
<path style="stroke:none;" d="M 90.09375 -78.546875 L 90.09375 0 L 44.875 0 L 44.875 -78.546875 Z M 84.484375 -5.609375 L 84.484375 -72.9375 L 50.484375 -72.9375 L 50.484375 -5.609375 Z M 84.484375 -5.609375 "/>
</symbol>
<symbol overflow="visible" id="oriya-abvs:id2:glyph0-1">
<path style="stroke:none;" d="M 44 0.875 C 35.863281 0.875 28.75 -0.71875 22.65625 -3.90625 C 16.570312 -7.09375 11.859375 -11.617188 8.515625 -17.484375 C 5.179688 -23.359375 3.515625 -30.328125 3.515625 -38.390625 C 3.515625 -47.117188 5.421875 -55.238281 9.234375 -62.75 C 13.046875 -70.269531 18.179688 -76.414062 24.640625 -81.1875 L 30.578125 -75.453125 C 27.203125 -72.960938 24.117188 -69.789062 21.328125 -65.9375 C 18.546875 -62.09375 16.347656 -57.804688 14.734375 -53.078125 C 13.117188 -48.347656 12.3125 -43.488281 12.3125 -38.5 C 12.3125 -32.414062 13.578125 -27.023438 16.109375 -22.328125 C 18.640625 -17.640625 22.269531 -13.9375 27 -11.21875 C 31.726562 -8.507812 37.320312 -7.15625 43.78125 -7.15625 C 50.15625 -7.15625 55.15625 -8.4375 58.78125 -11 C 62.414062 -13.5625 64.234375 -16.75 64.234375 -20.5625 C 64.234375 -24.007812 62.988281 -26.757812 60.5 -28.8125 C 58.007812 -30.875 54.5625 -31.90625 50.15625 -31.90625 C 48.394531 -31.90625 46.503906 -31.703125 44.484375 -31.296875 C 42.472656 -30.890625 40.585938 -30.320312 38.828125 -29.59375 L 35.640625 -36.625 L 45.984375 -40.046875 C 48.398438 -40.773438 50.925781 -41.707031 53.5625 -42.84375 C 56.207031 -43.976562 58.425781 -45.535156 60.21875 -47.515625 C 62.019531 -49.492188 62.921875 -52.0625 62.921875 -55.21875 C 62.921875 -58.445312 61.894531 -60.992188 59.84375 -62.859375 C 57.789062 -64.734375 55.039062 -65.671875 51.59375 -65.671875 C 48.070312 -65.671875 45.25 -64.660156 43.125 -62.640625 C 41 -60.628906 39.9375 -58.007812 39.9375 -54.78125 C 39.9375 -53.53125 40.082031 -52.351562 40.375 -51.25 C 40.664062 -50.15625 41.066406 -49.054688 41.578125 -47.953125 L 33.65625 -45.4375 C 31.96875 -49.019531 31.125 -52.460938 31.125 -55.765625 C 31.125 -61.191406 33.007812 -65.460938 36.78125 -68.578125 C 40.5625 -71.703125 45.535156 -73.265625 51.703125 -73.265625 C 58.078125 -73.265625 63.003906 -71.648438 66.484375 -68.421875 C 69.972656 -65.191406 71.71875 -61.082031 71.71875 -56.09375 C 71.71875 -52.800781 71.019531 -49.960938 69.625 -47.578125 C 68.238281 -45.191406 66.476562 -43.191406 64.34375 -41.578125 C 62.21875 -39.960938 59.984375 -38.644531 57.640625 -37.625 C 62.703125 -36.664062 66.515625 -34.664062 69.078125 -31.625 C 71.648438 -28.582031 72.9375 -24.785156 72.9375 -20.234375 C 72.9375 -14.078125 70.421875 -9.019531 65.390625 -5.0625 C 60.367188 -1.101562 53.238281 0.875 44 0.875 Z M 44 0.875 "/>
</symbol>
<symbol overflow="visible" id="oriya-abvs:id2:glyph0-2">
<path style="stroke:none;" d=""/>
</symbol>
<symbol overflow="visible" id="oriya-abvs:id2:glyph0-3">
<path style="stroke:none;" d="M 43.890625 -76.453125 C 38.023438 -76.453125 33.222656 -78.265625 29.484375 -81.890625 C 25.742188 -85.523438 23.503906 -90.789062 22.765625 -97.6875 L 29.703125 -98.453125 C 30.140625 -93.171875 31.601562 -89.15625 34.09375 -86.40625 C 36.59375 -83.65625 39.859375 -82.28125 43.890625 -82.28125 C 47.921875 -82.28125 51.203125 -83.65625 53.734375 -86.40625 C 56.265625 -89.15625 57.785156 -93.171875 58.296875 -98.453125 L 65.234375 -97.6875 C 64.492188 -90.789062 62.234375 -85.523438 58.453125 -81.890625 C 54.679688 -78.265625 49.828125 -76.453125 43.890625 -76.453125 Z M 43.890625 -89.4375 C 42.566406 -89.4375 41.5 -89.835938 40.6875 -90.640625 C 39.882812 -91.441406 39.484375 -92.539062 39.484375 -93.9375 C 39.484375 -95.332031 39.90625 -96.414062 40.75 -97.1875 C 41.59375 -97.957031 42.640625 -98.34375 43.890625 -98.34375 C 45.210938 -98.34375 46.273438 -97.957031 47.078125 -97.1875 C 47.890625 -96.414062 48.296875 -95.332031 48.296875 -93.9375 C 48.296875 -92.539062 47.890625 -91.441406 47.078125 -90.640625 C 46.273438 -89.835938 45.210938 -89.4375 43.890625 -89.4375 Z M 43.890625 -89.4375 "/>
</symbol>
</g>
</defs>
  <g id="oriya-abvs:id0:id0" transform="matrix(1.25,0,0,1.25,0.0,4.560546875)"><g id="oriya-abvs:id0:surface1">
<g style="fill:rgb(0%,0%,0%);fill-opacity:1;">
  <use xlink:href="#oriya-abvs:id0:glyph0-1" x="16" y="119.59375" class="c0"/>
  <use xlink:href="#oriya-abvs:id0:glyph0-2" x="93" y="119.59375" class="c1"/>
  <use xlink:href="#oriya-abvs:id0:glyph0-3" x="33.15625" y="119.59375" class="c2"/>
</g>
</g>
</g>
  <g id="oriya-abvs:id1:id1" transform="matrix(1.25,0,0,1.25,136.25,0.0)"><g id="oriya-abvs:id1:surface1">
<g style="fill:rgb(0%,0%,0%);fill-opacity:1;">
  <use xlink:href="#oriya-abvs:id1:glyph0-1" x="0" y="120.84375" class="arrow"/>
</g>
</g>
</g>
  <g id="oriya-abvs:id2:id2" transform="matrix(1.25,0,0,1.25,268.84765625,4.560546875)"><g id="oriya-abvs:id2:surface1">
<g style="fill:rgb(0%,0%,0%);fill-opacity:1;">
  <use xlink:href="#oriya-abvs:id2:glyph0-1" x="16" y="119.59375" class="c0"/>
  <use xlink:href="#oriya-abvs:id2:glyph0-2" x="93" y="119.59375" class="c1"/>
  <use xlink:href="#oriya-abvs:id2:glyph0-3" x="33.15625" y="119.59375" class="c2"/>
</g>
</g>
</g>
</svg>