<!DOCTYPE svg PUBLIC "-//W3C//DTD SVG 1.1//EN" "http://www.w3.org/Graphics/SVG/1.1/DTD/svg11.dtd">
<!-- Created with svg_stack (http://github.com/astraw/svg_stack) --><svg xmlns="http://www.w3.org/2000/svg" xmlns:sodipodi="http://sodipodi.sourceforge.net/DTD/sodipodi-0.dtd" xmlns:xlink="http://www.w3.org/1999/xlink" version="1.1" width="100%" id="oriya-cjct" viewBox="0 0 559.12109375 201.40625">
  <defs><g>
<symbol overflow="visible" id="oriya-cjct:id0:glyph0-0">
<path style="stroke:none;" d="M 10.34375 0 L 10.34375 -78.546875 L 55.546875 -78.546875 L 55.546875 0 Z M 15.953125 -5.609375 L 49.9375 -5.609375 L 49.9375 -72.9375 L 15.953125 -72.9375 Z M 15.953125 -5.609375 "/>
</symbol>
<symbol overflow="visible" id="oriya-cjct:id0:glyph0-1">
<path style="stroke:none;" d="M 7.921875 -14.1875 C 10.117188 -18.144531 12.316406 -21.773438 14.515625 -25.078125 C 10.921875 -27.867188 8.1875 -31.207031 6.3125 -35.09375 C 4.445312 -38.976562 3.515625 -42.9375 3.515625 -46.96875 C 3.515625 -51.882812 4.757812 -56.320312 7.25 -60.28125 C 9.75 -64.238281 13.21875 -67.410156 17.65625 -69.796875 C 22.09375 -72.179688 27.242188 -73.375 33.109375 -73.375 C 42.566406 -73.375 50.523438 -70.179688 56.984375 -63.796875 L 56.984375 -71.5 L 63.578125 -73.046875 L 64.34375 -72.265625 L 64.34375 -0.765625 L 57.75 0.765625 C 49.757812 -2.234375 41.835938 -4.664062 33.984375 -6.53125 C 26.140625 -8.40625 18.1875 -9.820312 10.125 -10.78125 Z M 33.4375 -38.609375 C 30.4375 -35.234375 27.539062 -31.691406 24.75 -27.984375 C 21.957031 -24.285156 19.535156 -20.566406 17.484375 -16.828125 C 23.941406 -16.097656 30.453125 -15.035156 37.015625 -13.640625 C 43.578125 -12.242188 50.234375 -10.554688 56.984375 -8.578125 L 56.984375 -53.5625 C 53.898438 -57.457031 50.210938 -60.519531 45.921875 -62.75 C 41.628906 -64.988281 36.957031 -66.109375 31.90625 -66.109375 C 27.644531 -66.109375 23.9375 -65.316406 20.78125 -63.734375 C 17.632812 -62.160156 15.21875 -60.050781 13.53125 -57.40625 C 11.84375 -54.769531 11 -51.769531 11 -48.40625 C 11 -45.03125 11.84375 -42.003906 13.53125 -39.328125 C 15.21875 -36.648438 17.523438 -34.578125 20.453125 -33.109375 C 21.847656 -34.796875 23.257812 -36.460938 24.6875 -38.109375 C 26.125 -39.765625 27.648438 -41.4375 29.265625 -43.125 Z M 33.4375 -38.609375 "/>
</symbol>
<symbol overflow="visible" id="oriya-cjct:id0:glyph0-2">
<path style="stroke:none;" d="M 0.4375 30.140625 C -2.125 26.472656 -4.890625 22.878906 -7.859375 19.359375 C -10.828125 15.835938 -13.925781 12.5 -17.15625 9.34375 L -10.34375 3.953125 C -7.476562 7.398438 -4.722656 10.9375 -2.078125 14.5625 C 0.554688 18.195312 3.046875 21.921875 5.390625 25.734375 Z M 0.4375 30.140625 "/>
</symbol>
<symbol overflow="visible" id="oriya-cjct:id0:glyph0-3">
<path style="stroke:none;" d="M 13.09375 -17.15625 C 13.09375 -19.726562 13.601562 -22.332031 14.625 -24.96875 C 11.03125 -27.757812 8.28125 -31.097656 6.375 -34.984375 C 4.46875 -38.867188 3.515625 -42.863281 3.515625 -46.96875 C 3.515625 -51.882812 4.757812 -56.320312 7.25 -60.28125 C 9.75 -64.238281 13.21875 -67.410156 17.65625 -69.796875 C 22.09375 -72.179688 27.242188 -73.375 33.109375 -73.375 C 42.128906 -73.375 49.789062 -70.4375 56.09375 -64.5625 L 56.09375 -71.5 L 62.703125 -73.046875 L 63.46875 -72.265625 L 63.46875 -0.765625 L 56.875 0.765625 L 56.09375 0 L 56.09375 -11.546875 C 53.75 -7.367188 50.671875 -4.21875 46.859375 -2.09375 C 43.046875 0.03125 38.753906 1.09375 33.984375 1.09375 C 29.441406 1.09375 25.609375 0.234375 22.484375 -1.484375 C 19.367188 -3.203125 17.023438 -5.457031 15.453125 -8.25 C 13.878906 -11.039062 13.09375 -14.007812 13.09375 -17.15625 Z M 20.5625 -19.03125 C 20.5625 -15.507812 21.804688 -12.460938 24.296875 -9.890625 C 26.796875 -7.328125 30.359375 -6.046875 34.984375 -6.046875 C 38.503906 -6.046875 41.800781 -6.890625 44.875 -8.578125 C 47.957031 -10.265625 50.503906 -12.738281 52.515625 -16 C 54.535156 -19.269531 55.726562 -23.25 56.09375 -27.9375 L 56.09375 -54.671875 C 53.019531 -58.265625 49.425781 -61.066406 45.3125 -63.078125 C 41.207031 -65.097656 36.738281 -66.109375 31.90625 -66.109375 C 27.644531 -66.109375 23.9375 -65.316406 20.78125 -63.734375 C 17.632812 -62.160156 15.21875 -60.035156 13.53125 -57.359375 C 11.84375 -54.679688 11 -51.695312 11 -48.40625 C 11 -45.175781 11.769531 -42.296875 13.3125 -39.765625 C 14.851562 -37.234375 16.976562 -35.125 19.6875 -33.4375 C 22.257812 -36.59375 25.378906 -39.597656 29.046875 -42.453125 L 33.21875 -38.0625 C 28.601562 -34.25 25.335938 -30.816406 23.421875 -27.765625 C 21.515625 -24.722656 20.5625 -21.8125 20.5625 -19.03125 Z M 20.5625 -19.03125 "/>
</symbol>
<symbol overflow="visible" id="oriya-cjct:id0:glyph0-4">
<path style="stroke:none;" d="M 18.484375 0 L 18.484375 -61.484375 C 16.128906 -60.171875 13.796875 -59 11.484375 -57.96875 C 9.179688 -56.945312 6.859375 -56.03125 4.515625 -55.21875 L 1.765625 -60.0625 C 5.648438 -62.113281 9.5 -64.273438 13.3125 -66.546875 C 17.125 -68.816406 20.753906 -71.09375 24.203125 -73.375 L 25.84375 -72.265625 L 25.84375 -0.765625 L 19.25 0.765625 Z M 18.484375 0 "/>
</symbol>
</g>
<g>
<symbol overflow="visible" id="oriya-cjct:id1:glyph0-0">
<path style="stroke:none;" d="M 5.375 -96.6875 L 69.828125 -96.6875 L 69.828125 0 L 5.375 0 Z M 8.0625 -2.6875 L 67.140625 -2.6875 L 67.140625 -94 L 8.0625 -94 Z M 8.0625 -2.6875 "/>
</symbol>
<symbol overflow="visible" id="oriya-cjct:id1:glyph0-1">
<path style="stroke:none;" d="M 68.15625 -13.75 L 66.28125 -18.640625 L 88.09375 -27.390625 L 6.984375 -27.390625 L 6.984375 -34 L 88.09375 -34 L 66.28125 -42.75 L 68.15625 -47.640625 L 99.09375 -34.265625 L 99.09375 -27.125 Z M 68.15625 -13.75 "/>
</symbol>
</g>
<g>
<symbol overflow="visible" id="oriya-cjct:id2:glyph0-0">
<path style="stroke:none;" d="M 10.34375 0 L 10.34375 -78.546875 L 55.546875 -78.546875 L 55.546875 0 Z M 15.953125 -5.609375 L 49.9375 -5.609375 L 49.9375 -72.9375 L 15.953125 -72.9375 Z M 15.953125 -5.609375 "/>
</symbol>
<symbol overflow="visible" id="oriya-cjct:id2:glyph0-1">
<path style="stroke:none;" d="M 8.90625 -17.484375 C 10.519531 -20.421875 12.132812 -23.097656 13.75 -25.515625 C 10.519531 -28.523438 8.003906 -31.898438 6.203125 -35.640625 C 4.410156 -39.378906 3.515625 -43.300781 3.515625 -47.40625 C 3.515625 -51.957031 4.707031 -56.191406 7.09375 -60.109375 C 9.476562 -64.035156 12.851562 -67.226562 17.21875 -69.6875 C 21.582031 -72.144531 26.695312 -73.375 32.5625 -73.375 C 37.476562 -73.375 42.039062 -72.492188 46.25 -70.734375 C 50.46875 -68.972656 53.972656 -66.585938 56.765625 -63.578125 L 56.765625 -71.5 L 63.359375 -73.046875 L 64.125 -72.265625 L 64.125 22.546875 L 58.40625 24.09375 L 57.640625 23.3125 L 57.640625 18.703125 C 56.097656 20.171875 54.265625 21.414062 52.140625 22.4375 C 50.015625 23.46875 47.554688 23.984375 44.765625 23.984375 C 41.242188 23.984375 38.363281 22.972656 36.125 20.953125 C 33.894531 18.941406 32.78125 16.429688 32.78125 13.421875 C 32.78125 12.765625 32.816406 12.101562 32.890625 11.4375 C 30.910156 9.820312 29.316406 7.84375 28.109375 5.5 C 26.898438 3.15625 26.296875 0.769531 26.296875 -1.65625 C 26.296875 -4.4375 27.0625 -6.960938 28.59375 -9.234375 C 25.738281 -10.265625 22.84375 -11.179688 19.90625 -11.984375 C 16.976562 -12.796875 14.046875 -13.492188 11.109375 -14.078125 Z M 43.34375 -16.5 C 45.394531 -16.5 47.628906 -16.113281 50.046875 -15.34375 C 52.472656 -14.570312 54.710938 -13.304688 56.765625 -11.546875 L 56.765625 -52.03125 C 54.410156 -56.570312 50.976562 -60.050781 46.46875 -62.46875 C 41.957031 -64.894531 37.066406 -66.109375 31.796875 -66.109375 C 27.242188 -66.109375 23.410156 -65.300781 20.296875 -63.6875 C 17.179688 -62.070312 14.851562 -59.941406 13.3125 -57.296875 C 11.769531 -54.660156 11 -51.804688 11 -48.734375 C 11 -45.503906 11.710938 -42.550781 13.140625 -39.875 C 14.578125 -37.195312 16.503906 -34.867188 18.921875 -32.890625 C 20.460938 -34.867188 22.035156 -36.753906 23.640625 -38.546875 C 25.253906 -40.347656 26.941406 -42.203125 28.703125 -44.109375 L 32.890625 -39.59375 C 30.023438 -36.519531 27.3125 -33.257812 24.75 -29.8125 C 22.1875 -26.363281 19.988281 -22.914062 18.15625 -19.46875 C 21.082031 -18.957031 24.007812 -18.316406 26.9375 -17.546875 C 29.875 -16.773438 32.8125 -15.945312 35.75 -15.0625 C 38.09375 -16.019531 40.625 -16.5 43.34375 -16.5 Z M 38.828125 11.765625 C 38.828125 13.378906 39.488281 14.789062 40.8125 16 C 42.132812 17.207031 44.039062 17.8125 46.53125 17.8125 C 48.21875 17.8125 50.085938 17.332031 52.140625 16.375 C 54.191406 15.425781 56.023438 13.925781 57.640625 11.875 L 57.640625 -0.109375 C 55.878906 -3.265625 53.601562 -5.648438 50.8125 -7.265625 C 48.03125 -8.878906 45.097656 -9.6875 42.015625 -9.6875 C 39.378906 -9.6875 37.144531 -9.078125 35.3125 -7.859375 C 33.476562 -6.648438 32.5625 -4.984375 32.5625 -2.859375 C 32.5625 -1.679688 32.875 -0.488281 33.5 0.71875 C 34.125 1.925781 35.128906 3.082031 36.515625 4.1875 C 37.179688 3.445312 37.894531 2.691406 38.65625 1.921875 C 39.425781 1.148438 40.253906 0.398438 41.140625 -0.328125 L 44.984375 2.96875 C 43.148438 4.582031 41.664062 6.082031 40.53125 7.46875 C 39.394531 8.863281 38.828125 10.296875 38.828125 11.765625 Z M 38.828125 11.765625 "/>
</symbol>
<symbol overflow="visible" id="oriya-cjct:id2:glyph0-2">
<path style="stroke:none;" d="M 18.484375 0 L 18.484375 -61.484375 C 16.128906 -60.171875 13.796875 -59 11.484375 -57.96875 C 9.179688 -56.945312 6.859375 -56.03125 4.515625 -55.21875 L 1.765625 -60.0625 C 5.648438 -62.113281 9.5 -64.273438 13.3125 -66.546875 C 17.125 -68.816406 20.753906 -71.09375 24.203125 -73.375 L 25.84375 -72.265625 L 25.84375 -0.765625 L 19.25 0.765625 Z M 18.484375 0 "/>
</symbol>
</g>
</defs>
  <g id="oriya-cjct:id0:id0" transform="matrix(1.25,0,0,1.25,0.0,1.328125)"><g id="oriya-cjct:id0:surface1">
<g style="fill:rgb(0%,0%,0%);fill-opacity:1;">
  <use xlink:href="#oriya-cjct:id0:glyph0-1" x="16" y="102.875" class="c0"/>
  <use xlink:href="#oriya-cjct:id0:glyph0-2" x="87.0625" y="102.875" class="c1"/>
  <use xlink:href="#oriya-cjct:id0:glyph0-3" x="87.0625" y="102.875" class="c2"/>
  <use xlink:href="#oriya-cjct:id0:glyph0-4" x="157.25" y="102.875" class="c3"/>
</g>
</g>
</g>
  <g id="oriya-cjct:id1:id1" transform="matrix(1.25,0,0,1.25,257.265625,0.0)"><g id="oriya-cjct:id1:surface1">
<g style="fill:rgb(0%,0%,0%);fill-opacity:1;">
  <use xlink:href="#oriya-cjct:id1:glyph0-1" x="0" y="120.84375" class="arrow"/>
</g>
</g>
</g>
  <g id="oriya-cjct:id2:id2" transform="matrix(1.25,0,0,1.25,389.86328125,1.328125)"><g id="oriya-cjct:id2:surface1">
<g style="fill:rgb(0%,0%,0%);fill-opacity:1;">
  <use xlink:href="#oriya-cjct:id2:glyph0-1" x="16" y="102.875" class="c4"/>
  <use xlink:href="#oriya-cjct:id2:glyph0-2" x="86.84375" y="102.875" class="c3"/>
</g>
</g>
</g>
</svg>
