<?xml version="1.0" standalone="no"?>
<!DOCTYPE svg PUBLIC "-//W3C//DTD SVG 1.1//EN"
 "http://www.w3.org/Graphics/SVG/1.1/DTD/svg11.dtd">
<!-- Created with svg_stack (http://github.com/astraw/svg_stack) -->
<svg xmlns="http://www.w3.org/2000/svg" xmlns:sodipodi="http://sodipodi.sourceforge.net/DTD/sodipodi-0.dtd" xmlns:xlink="http://www.w3.org/1999/xlink" version="1.1" width="710.1953125" height="201.40625">
  <defs><g>
<symbol overflow="visible" id="id0:glyph0-0">
<path style="stroke:none;" d="M 90.09375 -78.546875 L 90.09375 0 L 44.875 0 L 44.875 -78.546875 Z M 84.484375 -5.609375 L 84.484375 -72.9375 L 50.484375 -72.9375 L 50.484375 -5.609375 Z M 84.484375 -5.609375 "/>
</symbol>
<symbol overflow="visible" id="id0:glyph0-1">
<path style="stroke:none;" d="M 69.625 -72.375 L 69.625 1.3125 L 65.125 1.3125 L 11.4375 -12.203125 L 9.6875 -17.265625 L 18.15625 -25.40625 C 13.238281 -28.195312 9.566406 -31.625 7.140625 -35.6875 C 4.722656 -39.757812 3.515625 -44.070312 3.515625 -48.625 C 3.515625 -53.3125 4.742188 -57.503906 7.203125 -61.203125 C 9.660156 -64.910156 13.050781 -67.847656 17.375 -70.015625 C 21.707031 -72.179688 26.734375 -73.265625 32.453125 -73.265625 C 37.734375 -73.265625 42.972656 -72.195312 48.171875 -70.0625 C 53.378906 -67.9375 57.78125 -64.710938 61.375 -60.390625 L 61.046875 -72.375 Z M 42.90625 -38.609375 L 21.5625 -17.9375 L 61.046875 -8.03125 L 61.046875 -46.09375 C 59.804688 -50.414062 57.695312 -53.988281 54.71875 -56.8125 C 51.75 -59.632812 48.375 -61.742188 44.59375 -63.140625 C 40.820312 -64.535156 37.066406 -65.234375 33.328125 -65.234375 C 29.296875 -65.234375 25.703125 -64.515625 22.546875 -63.078125 C 19.390625 -61.648438 16.875 -59.632812 15 -57.03125 C 13.132812 -54.425781 12.203125 -51.398438 12.203125 -47.953125 C 12.203125 -44.660156 13.132812 -41.488281 15 -38.4375 C 16.875 -35.394531 19.644531 -32.738281 23.3125 -30.46875 L 37.734375 -44.21875 Z M 42.90625 -38.609375 "/>
</symbol>
<symbol overflow="visible" id="id0:glyph0-2">
<path style="stroke:none;" d="M 7.921875 3.625 L 19.6875 19.46875 L 14.515625 23.3125 L 2.203125 7.703125 Z M 7.921875 3.625 "/>
</symbol>
<symbol overflow="visible" id="id0:glyph0-3">
<path style="stroke:none;" d="M 47.1875 -55.984375 C 47.1875 -53.859375 46.085938 -52.796875 43.890625 -52.796875 C 41.835938 -52.796875 40.8125 -53.859375 40.8125 -55.984375 C 40.8125 -58.035156 41.835938 -59.0625 43.890625 -59.0625 C 46.085938 -59.0625 47.1875 -58.035156 47.1875 -55.984375 Z M 32.890625 -50.59375 C 32.890625 -48.46875 31.828125 -47.40625 29.703125 -47.40625 C 27.648438 -47.40625 26.625 -48.46875 26.625 -50.59375 C 26.625 -52.65625 27.648438 -53.6875 29.703125 -53.6875 C 31.828125 -53.6875 32.890625 -52.65625 32.890625 -50.59375 Z M 61.484375 -50.59375 C 61.484375 -48.46875 60.382812 -47.40625 58.1875 -47.40625 C 56.0625 -47.40625 55 -48.46875 55 -50.59375 C 55 -52.65625 56.0625 -53.6875 58.1875 -53.6875 C 60.382812 -53.6875 61.484375 -52.65625 61.484375 -50.59375 Z M 66.4375 -36.84375 C 66.4375 -34.71875 65.375 -33.65625 63.25 -33.65625 C 61.050781 -33.65625 59.953125 -34.71875 59.953125 -36.84375 C 59.953125 -38.90625 61.050781 -39.9375 63.25 -39.9375 C 65.375 -39.9375 66.4375 -38.90625 66.4375 -36.84375 Z M 27.9375 -36.84375 C 27.9375 -34.71875 26.910156 -33.65625 24.859375 -33.65625 C 22.660156 -33.65625 21.5625 -34.71875 21.5625 -36.84375 C 21.5625 -38.90625 22.660156 -39.9375 24.859375 -39.9375 C 26.910156 -39.9375 27.9375 -38.90625 27.9375 -36.84375 Z M 32.890625 -23.09375 C 32.890625 -20.96875 31.828125 -19.90625 29.703125 -19.90625 C 27.648438 -19.90625 26.625 -20.96875 26.625 -23.09375 C 26.625 -25.226562 27.648438 -26.296875 29.703125 -26.296875 C 31.828125 -26.296875 32.890625 -25.226562 32.890625 -23.09375 Z M 61.484375 -23.09375 C 61.484375 -20.96875 60.382812 -19.90625 58.1875 -19.90625 C 56.0625 -19.90625 55 -20.96875 55 -23.09375 C 55 -25.226562 56.0625 -26.296875 58.1875 -26.296875 C 60.382812 -26.296875 61.484375 -25.226562 61.484375 -23.09375 Z M 47.1875 -17.59375 C 47.1875 -15.46875 46.085938 -14.40625 43.890625 -14.40625 C 41.835938 -14.40625 40.8125 -15.46875 40.8125 -17.59375 C 40.8125 -19.726562 41.835938 -20.796875 43.890625 -20.796875 C 46.085938 -20.796875 47.1875 -19.726562 47.1875 -17.59375 Z M 47.1875 -17.59375 "/>
</symbol>
<symbol overflow="visible" id="id0:glyph0-4">
<path style="stroke:none;" d="M 2.421875 2.53125 C 2.421875 -0.625 3.28125 -3.335938 5 -5.609375 C 6.726562 -7.878906 9.039062 -9.640625 11.9375 -10.890625 C 14.832031 -12.140625 18.078125 -12.765625 21.671875 -12.765625 C 25.117188 -12.765625 28.34375 -12.175781 31.34375 -11 C 34.351562 -9.820312 36.921875 -8.097656 39.046875 -5.828125 L 38.71875 -12.3125 L 44.875 -12.3125 L 44.875 26.84375 L 38.71875 26.84375 L 39.15625 21.015625 C 37.320312 23.066406 35.101562 24.625 32.5 25.6875 C 29.894531 26.75 27.164062 27.28125 24.3125 27.28125 C 20.644531 27.28125 17.488281 26.289062 14.84375 24.3125 C 12.207031 22.332031 10.890625 19.582031 10.890625 16.0625 L 10.890625 15.625 C 8.328125 14.082031 6.273438 12.226562 4.734375 10.0625 C 3.191406 7.894531 2.421875 5.382812 2.421875 2.53125 Z M 17.046875 15.515625 C 17.046875 17.347656 17.796875 18.832031 19.296875 19.96875 C 20.804688 21.101562 22.585938 21.671875 24.640625 21.671875 C 27.347656 21.671875 30.039062 20.914062 32.71875 19.40625 C 35.394531 17.90625 37.394531 15.691406 38.71875 12.765625 L 38.71875 2.96875 C 37.613281 -0.1875 35.554688 -2.660156 32.546875 -4.453125 C 29.546875 -6.253906 26.101562 -7.15625 22.21875 -7.15625 C 18.550781 -7.15625 15.359375 -6.273438 12.640625 -4.515625 C 9.929688 -2.753906 8.578125 -0.257812 8.578125 2.96875 C 8.578125 4.65625 8.90625 6.117188 9.5625 7.359375 C 10.226562 8.609375 11.144531 9.710938 12.3125 10.671875 C 13.195312 9.054688 14.5 7.609375 16.21875 6.328125 C 17.945312 5.046875 20.054688 4.035156 22.546875 3.296875 L 24.421875 7.8125 C 22.148438 8.539062 20.351562 9.601562 19.03125 11 C 17.707031 12.394531 17.046875 13.898438 17.046875 15.515625 Z M 17.046875 15.515625 "/>
</symbol>
<symbol overflow="visible" id="id0:glyph0-5">
<path style="stroke:none;" d="M 13.859375 -18.15625 C 13.859375 -20.132812 14.113281 -22.078125 14.625 -23.984375 C 11.03125 -26.691406 8.28125 -29.929688 6.375 -33.703125 C 4.46875 -37.484375 3.515625 -41.46875 3.515625 -45.65625 C 3.515625 -51.375 5.109375 -56.285156 8.296875 -60.390625 C 11.492188 -64.492188 15.820312 -67.664062 21.28125 -69.90625 C 26.75 -72.144531 32.851562 -73.265625 39.59375 -73.265625 C 46.707031 -73.265625 53.085938 -72.070312 58.734375 -69.6875 C 64.378906 -67.300781 68.867188 -63.890625 72.203125 -59.453125 C 75.546875 -55.015625 77.21875 -49.71875 77.21875 -43.5625 C 77.21875 -40.113281 76.648438 -36.867188 75.515625 -33.828125 C 74.378906 -30.785156 72.785156 -28.050781 70.734375 -25.625 L 63.359375 -29.703125 C 66.734375 -33.734375 68.421875 -38.28125 68.421875 -43.34375 C 68.421875 -48.25 67.082031 -52.316406 64.40625 -55.546875 C 61.726562 -58.773438 58.207031 -61.195312 53.84375 -62.8125 C 49.476562 -64.425781 44.765625 -65.234375 39.703125 -65.234375 C 34.273438 -65.234375 29.472656 -64.367188 25.296875 -62.640625 C 21.117188 -60.921875 17.835938 -58.539062 15.453125 -55.5 C 13.066406 -52.457031 11.875 -48.878906 11.875 -44.765625 C 11.875 -42.273438 12.347656 -39.800781 13.296875 -37.34375 C 14.253906 -34.882812 15.613281 -32.738281 17.375 -30.90625 C 20.238281 -35.96875 24.53125 -40.367188 30.25 -44.109375 L 33.765625 -39.484375 C 30.097656 -36.628906 27.109375 -33.367188 24.796875 -29.703125 C 22.492188 -26.035156 21.34375 -22.367188 21.34375 -18.703125 C 21.34375 -16.503906 21.78125 -14.429688 22.65625 -12.484375 C 23.539062 -10.535156 24.9375 -8.957031 26.84375 -7.75 C 28.75 -6.539062 31.316406 -5.9375 34.546875 -5.9375 C 36.671875 -5.9375 38.6875 -6.191406 40.59375 -6.703125 C 35.457031 -11.328125 32.890625 -16.570312 32.890625 -22.4375 C 32.890625 -26.539062 34.15625 -29.785156 36.6875 -32.171875 C 39.21875 -34.554688 42.425781 -35.75 46.3125 -35.75 C 50.5625 -35.75 53.929688 -34.484375 56.421875 -31.953125 C 58.921875 -29.421875 60.171875 -26.285156 60.171875 -22.546875 C 60.171875 -19.765625 59.488281 -16.960938 58.125 -14.140625 C 56.769531 -11.316406 54.847656 -8.765625 52.359375 -6.484375 C 55.441406 -4.867188 58.960938 -3.441406 62.921875 -2.203125 L 61.046875 4.1875 C 55.328125 2.269531 50.453125 0.101562 46.421875 -2.3125 C 44.515625 -1.351562 42.40625 -0.582031 40.09375 0 C 37.78125 0.582031 35.34375 0.875 32.78125 0.875 C 28.457031 0.875 24.878906 -0.0195312 22.046875 -1.8125 C 19.222656 -3.613281 17.148438 -5.960938 15.828125 -8.859375 C 14.515625 -11.753906 13.859375 -14.851562 13.859375 -18.15625 Z M 40.046875 -22 C 40.046875 -17.601562 42.351562 -13.609375 46.96875 -10.015625 C 48.945312 -11.628906 50.445312 -13.515625 51.46875 -15.671875 C 52.5 -17.835938 53.015625 -19.945312 53.015625 -22 C 53.015625 -24.125 52.460938 -25.882812 51.359375 -27.28125 C 50.265625 -28.675781 48.65625 -29.375 46.53125 -29.375 C 44.476562 -29.375 42.882812 -28.65625 41.75 -27.21875 C 40.613281 -25.789062 40.046875 -24.050781 40.046875 -22 Z M 39.703125 16.609375 C 38.304688 16.609375 37.054688 16.078125 35.953125 15.015625 C 34.859375 13.953125 34.3125 12.648438 34.3125 11.109375 C 34.3125 9.648438 34.84375 8.367188 35.90625 7.265625 C 36.96875 6.160156 38.234375 5.609375 39.703125 5.609375 C 41.171875 5.609375 42.453125 6.160156 43.546875 7.265625 C 44.648438 8.367188 45.203125 9.648438 45.203125 11.109375 C 45.203125 12.722656 44.6875 14.039062 43.65625 15.0625 C 42.632812 16.09375 41.316406 16.609375 39.703125 16.609375 Z M 39.703125 16.609375 "/>
</symbol>
</g>
<g>
<symbol overflow="visible" id="id1:glyph0-0">
<path style="stroke:none;" d="M 5.375 -96.6875 L 69.828125 -96.6875 L 69.828125 0 L 5.375 0 Z M 8.0625 -2.6875 L 67.140625 -2.6875 L 67.140625 -94 L 8.0625 -94 Z M 8.0625 -2.6875 "/>
</symbol>
<symbol overflow="visible" id="id1:glyph0-1">
<path style="stroke:none;" d="M 68.15625 -13.75 L 66.28125 -18.640625 L 88.09375 -27.390625 L 6.984375 -27.390625 L 6.984375 -34 L 88.09375 -34 L 66.28125 -42.75 L 68.15625 -47.640625 L 99.09375 -34.265625 L 99.09375 -27.125 Z M 68.15625 -13.75 "/>
</symbol>
</g>
<g>
<symbol overflow="visible" id="id2:glyph0-0">
<path style="stroke:none;" d="M 90.09375 -78.546875 L 90.09375 0 L 44.875 0 L 44.875 -78.546875 Z M 84.484375 -5.609375 L 84.484375 -72.9375 L 50.484375 -72.9375 L 50.484375 -5.609375 Z M 84.484375 -5.609375 "/>
</symbol>
<symbol overflow="visible" id="id2:glyph0-1">
<path style="stroke:none;" d="M 10.78125 -20.6875 L 9.125 -25.078125 L 16.71875 -31.796875 C 12.539062 -34.140625 9.296875 -37.085938 6.984375 -40.640625 C 4.671875 -44.203125 3.515625 -48.070312 3.515625 -52.25 C 3.515625 -56.5 4.671875 -60.203125 6.984375 -63.359375 C 9.296875 -66.515625 12.46875 -68.953125 16.5 -70.671875 C 20.53125 -72.398438 25.148438 -73.265625 30.359375 -73.265625 C 35.421875 -73.265625 40.332031 -72.382812 45.09375 -70.625 C 49.863281 -68.863281 53.898438 -66.1875 57.203125 -62.59375 L 56.984375 -72.375 L 65.5625 -72.375 L 65.5625 18.046875 L 59.515625 18.046875 L 59.84375 12.203125 C 58.082031 14.265625 55.878906 15.828125 53.234375 16.890625 C 50.597656 17.953125 47.882812 18.484375 45.09375 18.484375 C 41.425781 18.484375 38.253906 17.492188 35.578125 15.515625 C 32.898438 13.535156 31.5625 10.785156 31.5625 7.265625 L 31.5625 6.8125 C 29 5.28125 26.960938 3.429688 25.453125 1.265625 C 23.953125 -0.898438 23.203125 -3.410156 23.203125 -6.265625 C 23.203125 -8.460938 23.625 -10.441406 24.46875 -12.203125 C 25.3125 -13.960938 26.503906 -15.503906 28.046875 -16.828125 Z M 42.453125 -21.5625 C 48.109375 -21.5625 52.953125 -20.054688 56.984375 -17.046875 L 56.984375 -48.40625 C 56.023438 -52.363281 54.1875 -55.609375 51.46875 -58.140625 C 48.757812 -60.671875 45.625 -62.554688 42.0625 -63.796875 C 38.507812 -65.046875 34.9375 -65.671875 31.34375 -65.671875 C 27.75 -65.671875 24.46875 -65.101562 21.5 -63.96875 C 18.53125 -62.832031 16.179688 -61.179688 14.453125 -59.015625 C 12.734375 -56.847656 11.875 -54.265625 11.875 -51.265625 C 11.875 -48.398438 12.734375 -45.664062 14.453125 -43.0625 C 16.179688 -40.457031 18.695312 -38.273438 22 -36.515625 L 35.53125 -48.515625 L 40.484375 -43.5625 L 20.125 -25.625 L 39.703125 -21.453125 C 40.585938 -21.523438 41.503906 -21.5625 42.453125 -21.5625 Z M 37.84375 6.703125 C 37.84375 8.535156 38.570312 10.019531 40.03125 11.15625 C 41.5 12.300781 43.300781 12.875 45.4375 12.875 C 48.070312 12.875 50.742188 12.117188 53.453125 10.609375 C 56.171875 9.109375 58.191406 6.890625 59.515625 3.953125 L 59.515625 -5.828125 C 58.335938 -8.984375 56.242188 -11.457031 53.234375 -13.25 C 50.234375 -15.050781 46.828125 -15.953125 43.015625 -15.953125 C 39.347656 -15.953125 36.140625 -15.070312 33.390625 -13.3125 C 30.640625 -11.550781 29.265625 -9.054688 29.265625 -5.828125 C 29.265625 -4.140625 29.609375 -2.671875 30.296875 -1.421875 C 30.992188 -0.179688 31.894531 0.914062 33 1.875 C 33.957031 0.257812 35.273438 -1.1875 36.953125 -2.46875 C 38.640625 -3.757812 40.769531 -4.769531 43.34375 -5.5 L 45.203125 -0.984375 C 42.929688 -0.253906 41.132812 0.804688 39.8125 2.203125 C 38.5 3.597656 37.84375 5.097656 37.84375 6.703125 Z M 37.84375 6.703125 "/>
</symbol>
<symbol overflow="visible" id="id2:glyph0-2">
<path style="stroke:none;" d="M 7.921875 3.625 L 19.6875 19.46875 L 14.515625 23.3125 L 2.203125 7.703125 Z M 7.921875 3.625 "/>
</symbol>
<symbol overflow="visible" id="id2:glyph0-3">
<path style="stroke:none;" d="M 13.859375 -18.15625 C 13.859375 -20.132812 14.113281 -22.078125 14.625 -23.984375 C 11.03125 -26.691406 8.28125 -29.929688 6.375 -33.703125 C 4.46875 -37.484375 3.515625 -41.46875 3.515625 -45.65625 C 3.515625 -51.375 5.109375 -56.285156 8.296875 -60.390625 C 11.492188 -64.492188 15.820312 -67.664062 21.28125 -69.90625 C 26.75 -72.144531 32.851562 -73.265625 39.59375 -73.265625 C 46.707031 -73.265625 53.085938 -72.070312 58.734375 -69.6875 C 64.378906 -67.300781 68.867188 -63.890625 72.203125 -59.453125 C 75.546875 -55.015625 77.21875 -49.71875 77.21875 -43.5625 C 77.21875 -40.113281 76.648438 -36.867188 75.515625 -33.828125 C 74.378906 -30.785156 72.785156 -28.050781 70.734375 -25.625 L 63.359375 -29.703125 C 66.734375 -33.734375 68.421875 -38.28125 68.421875 -43.34375 C 68.421875 -48.25 67.082031 -52.316406 64.40625 -55.546875 C 61.726562 -58.773438 58.207031 -61.195312 53.84375 -62.8125 C 49.476562 -64.425781 44.765625 -65.234375 39.703125 -65.234375 C 34.273438 -65.234375 29.472656 -64.367188 25.296875 -62.640625 C 21.117188 -60.921875 17.835938 -58.539062 15.453125 -55.5 C 13.066406 -52.457031 11.875 -48.878906 11.875 -44.765625 C 11.875 -42.273438 12.347656 -39.800781 13.296875 -37.34375 C 14.253906 -34.882812 15.613281 -32.738281 17.375 -30.90625 C 20.238281 -35.96875 24.53125 -40.367188 30.25 -44.109375 L 33.765625 -39.484375 C 30.097656 -36.628906 27.109375 -33.367188 24.796875 -29.703125 C 22.492188 -26.035156 21.34375 -22.367188 21.34375 -18.703125 C 21.34375 -16.503906 21.78125 -14.429688 22.65625 -12.484375 C 23.539062 -10.535156 24.9375 -8.957031 26.84375 -7.75 C 28.75 -6.539062 31.316406 -5.9375 34.546875 -5.9375 C 36.671875 -5.9375 38.6875 -6.191406 40.59375 -6.703125 C 35.457031 -11.328125 32.890625 -16.570312 32.890625 -22.4375 C 32.890625 -26.539062 34.15625 -29.785156 36.6875 -32.171875 C 39.21875 -34.554688 42.425781 -35.75 46.3125 -35.75 C 50.5625 -35.75 53.929688 -34.484375 56.421875 -31.953125 C 58.921875 -29.421875 60.171875 -26.285156 60.171875 -22.546875 C 60.171875 -19.765625 59.488281 -16.960938 58.125 -14.140625 C 56.769531 -11.316406 54.847656 -8.765625 52.359375 -6.484375 C 55.441406 -4.867188 58.960938 -3.441406 62.921875 -2.203125 L 61.046875 4.1875 C 55.328125 2.269531 50.453125 0.101562 46.421875 -2.3125 C 44.515625 -1.351562 42.40625 -0.582031 40.09375 0 C 37.78125 0.582031 35.34375 0.875 32.78125 0.875 C 28.457031 0.875 24.878906 -0.0195312 22.046875 -1.8125 C 19.222656 -3.613281 17.148438 -5.960938 15.828125 -8.859375 C 14.515625 -11.753906 13.859375 -14.851562 13.859375 -18.15625 Z M 40.046875 -22 C 40.046875 -17.601562 42.351562 -13.609375 46.96875 -10.015625 C 48.945312 -11.628906 50.445312 -13.515625 51.46875 -15.671875 C 52.5 -17.835938 53.015625 -19.945312 53.015625 -22 C 53.015625 -24.125 52.460938 -25.882812 51.359375 -27.28125 C 50.265625 -28.675781 48.65625 -29.375 46.53125 -29.375 C 44.476562 -29.375 42.882812 -28.65625 41.75 -27.21875 C 40.613281 -25.789062 40.046875 -24.050781 40.046875 -22 Z M 39.703125 16.609375 C 38.304688 16.609375 37.054688 16.078125 35.953125 15.015625 C 34.859375 13.953125 34.3125 12.648438 34.3125 11.109375 C 34.3125 9.648438 34.84375 8.367188 35.90625 7.265625 C 36.96875 6.160156 38.234375 5.609375 39.703125 5.609375 C 41.171875 5.609375 42.453125 6.160156 43.546875 7.265625 C 44.648438 8.367188 45.203125 9.648438 45.203125 11.109375 C 45.203125 12.722656 44.6875 14.039062 43.65625 15.0625 C 42.632812 16.09375 41.316406 16.609375 39.703125 16.609375 Z M 39.703125 16.609375 "/>
</symbol>
</g>
</defs>
  <g id="id0:id0" transform="matrix(1.25,0,0,1.25,0.0,4.560546875)"><g id="id0:surface1">
<g style="fill:rgb(0%,0%,0%);fill-opacity:1;">
  <use xlink:href="#id0:glyph0-1" x="16" y="119.59375"/>
  <use xlink:href="#id0:glyph0-2" x="74.40625" y="119.59375"/>
  <use xlink:href="#id0:glyph0-3" x="92.34375" y="119.59375"/>
  <use xlink:href="#id0:glyph0-4" x="180.34375" y="119.59375"/>
  <use xlink:href="#id0:glyph0-2" x="180.34375" y="119.59375"/>
  <use xlink:href="#id0:glyph0-5" x="180.34375" y="119.59375"/>
</g>
</g>
</g>
  <g id="id1:id1" transform="matrix(1.25,0,0,1.25,346.34765625,0.0)"><g id="id1:surface1">
<g style="fill:rgb(0%,0%,0%);fill-opacity:1;">
  <use xlink:href="#id1:glyph0-1" x="0" y="120.84375"/>
</g>
</g>
</g>
  <g id="id2:id2" transform="matrix(1.25,0,0,1.25,478.9453125,4.560546875)"><g id="id2:surface1">
<g style="fill:rgb(0%,0%,0%);fill-opacity:1;">
  <use xlink:href="#id2:glyph0-1" x="16" y="119.59375"/>
  <use xlink:href="#id2:glyph0-2" x="88.265625" y="119.59375"/>
  <use xlink:href="#id2:glyph0-3" x="88.265625" y="119.59375"/>
</g>
</g>
</g>
</svg>
