<?xml version="1.0" standalone="no"?>
<!DOCTYPE svg PUBLIC "-//W3C//DTD SVG 1.1//EN"
 "http://www.w3.org/Graphics/SVG/1.1/DTD/svg11.dtd">
<!-- Created with svg_stack (http://github.com/astraw/svg_stack) -->
<svg xmlns="http://www.w3.org/2000/svg" xmlns:sodipodi="http://sodipodi.sourceforge.net/DTD/sodipodi-0.dtd" xmlns:xlink="http://www.w3.org/1999/xlink" version="1.1" width="931.97265625" height="201.40625">
  <defs><g>
<symbol overflow="visible" id="id0:glyph0-0">
<path style="stroke:none;" d="M 90.09375 -78.546875 L 90.09375 0 L 44.875 0 L 44.875 -78.546875 Z M 84.484375 -5.609375 L 84.484375 -72.9375 L 50.484375 -72.9375 L 50.484375 -5.609375 Z M 84.484375 -5.609375 "/>
</symbol>
<symbol overflow="visible" id="id0:glyph0-1">
<path style="stroke:none;" d="M 53.015625 -19.46875 C 53.015625 -13.53125 51.144531 -8.65625 47.40625 -4.84375 C 43.664062 -1.03125 38.382812 0.875 31.5625 0.875 C 22.988281 0.875 16.242188 -2.179688 11.328125 -8.296875 C 6.410156 -14.421875 3.953125 -23.019531 3.953125 -34.09375 C 3.953125 -42.75 5.457031 -49.988281 8.46875 -55.8125 C 11.476562 -61.644531 15.601562 -66.007812 20.84375 -68.90625 C 26.082031 -71.8125 32.003906 -73.265625 38.609375 -73.265625 C 41.617188 -73.265625 44.609375 -72.953125 47.578125 -72.328125 C 50.546875 -71.703125 53.3125 -70.726562 55.875 -69.40625 L 52.578125 -62.046875 C 48.398438 -64.171875 43.742188 -65.234375 38.609375 -65.234375 C 31.347656 -65.234375 25.5 -62.921875 21.0625 -58.296875 C 16.625 -53.679688 13.96875 -47.410156 13.09375 -39.484375 C 18.300781 -40.660156 23.03125 -41.25 27.28125 -41.25 C 35.050781 -41.25 41.28125 -39.304688 45.96875 -35.421875 C 50.664062 -31.535156 53.015625 -26.21875 53.015625 -19.46875 Z M 26.40625 -33.546875 C 24.5 -33.546875 22.367188 -33.378906 20.015625 -33.046875 C 17.671875 -32.722656 15.253906 -32.269531 12.765625 -31.6875 C 13.054688 -24.269531 14.722656 -18.34375 17.765625 -13.90625 C 20.804688 -9.476562 25.257812 -7.265625 31.125 -7.265625 C 35.082031 -7.265625 38.253906 -8.34375 40.640625 -10.5 C 43.023438 -12.664062 44.21875 -15.617188 44.21875 -19.359375 C 44.21875 -23.609375 42.625 -27.035156 39.4375 -29.640625 C 36.25 -32.242188 31.90625 -33.546875 26.40625 -33.546875 Z M 26.40625 -33.546875 "/>
</symbol>
<symbol overflow="visible" id="id0:glyph0-2">
<path style="stroke:none;" d="M 47.1875 -55.984375 C 47.1875 -53.859375 46.085938 -52.796875 43.890625 -52.796875 C 41.835938 -52.796875 40.8125 -53.859375 40.8125 -55.984375 C 40.8125 -58.035156 41.835938 -59.0625 43.890625 -59.0625 C 46.085938 -59.0625 47.1875 -58.035156 47.1875 -55.984375 Z M 32.890625 -50.59375 C 32.890625 -48.46875 31.828125 -47.40625 29.703125 -47.40625 C 27.648438 -47.40625 26.625 -48.46875 26.625 -50.59375 C 26.625 -52.65625 27.648438 -53.6875 29.703125 -53.6875 C 31.828125 -53.6875 32.890625 -52.65625 32.890625 -50.59375 Z M 61.484375 -50.59375 C 61.484375 -48.46875 60.382812 -47.40625 58.1875 -47.40625 C 56.0625 -47.40625 55 -48.46875 55 -50.59375 C 55 -52.65625 56.0625 -53.6875 58.1875 -53.6875 C 60.382812 -53.6875 61.484375 -52.65625 61.484375 -50.59375 Z M 66.4375 -36.84375 C 66.4375 -34.71875 65.375 -33.65625 63.25 -33.65625 C 61.050781 -33.65625 59.953125 -34.71875 59.953125 -36.84375 C 59.953125 -38.90625 61.050781 -39.9375 63.25 -39.9375 C 65.375 -39.9375 66.4375 -38.90625 66.4375 -36.84375 Z M 27.9375 -36.84375 C 27.9375 -34.71875 26.910156 -33.65625 24.859375 -33.65625 C 22.660156 -33.65625 21.5625 -34.71875 21.5625 -36.84375 C 21.5625 -38.90625 22.660156 -39.9375 24.859375 -39.9375 C 26.910156 -39.9375 27.9375 -38.90625 27.9375 -36.84375 Z M 32.890625 -23.09375 C 32.890625 -20.96875 31.828125 -19.90625 29.703125 -19.90625 C 27.648438 -19.90625 26.625 -20.96875 26.625 -23.09375 C 26.625 -25.226562 27.648438 -26.296875 29.703125 -26.296875 C 31.828125 -26.296875 32.890625 -25.226562 32.890625 -23.09375 Z M 61.484375 -23.09375 C 61.484375 -20.96875 60.382812 -19.90625 58.1875 -19.90625 C 56.0625 -19.90625 55 -20.96875 55 -23.09375 C 55 -25.226562 56.0625 -26.296875 58.1875 -26.296875 C 60.382812 -26.296875 61.484375 -25.226562 61.484375 -23.09375 Z M 47.1875 -17.59375 C 47.1875 -15.46875 46.085938 -14.40625 43.890625 -14.40625 C 41.835938 -14.40625 40.8125 -15.46875 40.8125 -17.59375 C 40.8125 -19.726562 41.835938 -20.796875 43.890625 -20.796875 C 46.085938 -20.796875 47.1875 -19.726562 47.1875 -17.59375 Z M 47.1875 -17.59375 "/>
</symbol>
<symbol overflow="visible" id="id0:glyph0-3">
<path style="stroke:none;" d="M 21.125 0.875 C 18.625 0.875 16.550781 -0.09375 14.90625 -2.03125 C 13.257812 -3.976562 12.4375 -6.675781 12.4375 -10.125 C 12.4375 -14.007812 13.460938 -17.894531 15.515625 -21.78125 C 11.628906 -24.488281 8.65625 -27.859375 6.59375 -31.890625 C 4.539062 -35.929688 3.515625 -40.296875 3.515625 -44.984375 C 3.515625 -49.609375 4.46875 -53.695312 6.375 -57.25 C 8.28125 -60.8125 10.863281 -63.765625 14.125 -66.109375 C 17.394531 -68.453125 21.140625 -70.226562 25.359375 -71.4375 C 29.578125 -72.65625 33.957031 -73.265625 38.5 -73.265625 C 43.269531 -73.265625 47.832031 -72.640625 52.1875 -71.390625 C 56.550781 -70.140625 60.421875 -68.285156 63.796875 -65.828125 C 67.171875 -63.378906 69.828125 -60.335938 71.765625 -56.703125 C 73.710938 -53.078125 74.6875 -48.878906 74.6875 -44.109375 C 74.6875 -40.734375 74.226562 -37.578125 73.3125 -34.640625 C 72.394531 -31.710938 71.128906 -29.003906 69.515625 -26.515625 L 61.9375 -30.359375 C 63.175781 -32.265625 64.160156 -34.351562 64.890625 -36.625 C 65.628906 -38.90625 66 -41.328125 66 -43.890625 C 66 -48.585938 64.675781 -52.53125 62.03125 -55.71875 C 59.394531 -58.90625 55.988281 -61.285156 51.8125 -62.859375 C 47.632812 -64.441406 43.160156 -65.234375 38.390625 -65.234375 C 33.691406 -65.234375 29.363281 -64.441406 25.40625 -62.859375 C 21.445312 -61.285156 18.273438 -58.941406 15.890625 -55.828125 C 13.503906 -52.710938 12.3125 -48.914062 12.3125 -44.4375 C 12.3125 -41.351562 12.953125 -38.363281 14.234375 -35.46875 C 15.523438 -32.570312 17.414062 -30.171875 19.90625 -28.265625 C 22.695312 -31.347656 26.179688 -33.894531 30.359375 -35.90625 C 34.535156 -37.925781 39.300781 -38.9375 44.65625 -38.9375 C 46.195312 -38.9375 47.882812 -38.84375 49.71875 -38.65625 C 51.550781 -38.476562 53.164062 -38.28125 54.5625 -38.0625 L 54.5625 0 L 45.984375 0 L 45.984375 -31.6875 C 45.691406 -31.6875 45.359375 -31.6875 44.984375 -31.6875 C 40.734375 -31.6875 36.921875 -30.820312 33.546875 -29.09375 C 30.171875 -27.375 27.398438 -25.140625 25.234375 -22.390625 C 23.078125 -19.640625 21.632812 -16.722656 20.90625 -13.640625 L 21.015625 -13.640625 C 23.359375 -13.640625 25.222656 -12.882812 26.609375 -11.375 C 28.003906 -9.875 28.703125 -8.171875 28.703125 -6.265625 C 28.703125 -4.210938 27.988281 -2.507812 26.5625 -1.15625 C 25.132812 0.195312 23.320312 0.875 21.125 0.875 Z M 21.125 0.875 "/>
</symbol>
<symbol overflow="visible" id="id0:glyph0-4">
<path style="stroke:none;" d="M 7.921875 3.625 L 19.6875 19.46875 L 14.515625 23.3125 L 2.203125 7.703125 Z M 7.921875 3.625 "/>
</symbol>
<symbol overflow="visible" id="id0:glyph0-5">
<path style="stroke:none;" d=""/>
</symbol>
<symbol overflow="visible" id="id0:glyph0-6">
<path style="stroke:none;" d="M 37.296875 -9.34375 C 29.804688 -9.34375 24.117188 -11.046875 20.234375 -14.453125 C 16.347656 -17.867188 14.40625 -22.21875 14.40625 -27.5 C 14.40625 -28.300781 14.441406 -29.070312 14.515625 -29.8125 C 10.703125 -32.375 7.914062 -35.34375 6.15625 -38.71875 C 4.394531 -42.09375 3.515625 -45.578125 3.515625 -49.171875 C 3.515625 -54.085938 4.976562 -58.335938 7.90625 -61.921875 C 10.84375 -65.515625 15.039062 -68.300781 20.5 -70.28125 C 25.96875 -72.269531 32.445312 -73.265625 39.9375 -73.265625 C 48.875 -73.265625 56.421875 -72.015625 62.578125 -69.515625 C 68.742188 -67.023438 73.40625 -63.613281 76.5625 -59.28125 C 79.71875 -54.957031 81.296875 -50.007812 81.296875 -44.4375 C 81.296875 -37.84375 78.546875 -31.570312 73.046875 -25.625 L 82.609375 -14.1875 L 75.6875 -9.125 L 63.46875 -24.53125 C 66.625 -27.46875 68.914062 -30.347656 70.34375 -33.171875 C 71.769531 -35.992188 72.484375 -38.90625 72.484375 -41.90625 C 72.484375 -46.894531 71.125 -51.164062 68.40625 -54.71875 C 65.695312 -58.28125 61.847656 -61.015625 56.859375 -62.921875 C 51.878906 -64.828125 45.976562 -65.78125 39.15625 -65.78125 C 33.726562 -65.78125 28.960938 -65.082031 24.859375 -63.6875 C 20.753906 -62.289062 17.546875 -60.289062 15.234375 -57.6875 C 12.921875 -55.09375 11.765625 -52 11.765625 -48.40625 C 11.765625 -46.34375 12.128906 -44.300781 12.859375 -42.28125 C 13.597656 -40.269531 14.738281 -38.421875 16.28125 -36.734375 C 17.007812 -38.710938 18.050781 -40.691406 19.40625 -42.671875 C 20.769531 -44.660156 22.441406 -46.679688 24.421875 -48.734375 L 29.046875 -44.765625 C 26.765625 -41.910156 25.09375 -39.035156 24.03125 -36.140625 C 22.96875 -33.242188 22.4375 -30.691406 22.4375 -28.484375 C 22.4375 -24.742188 23.679688 -21.570312 26.171875 -18.96875 C 28.671875 -16.363281 32.671875 -15.0625 38.171875 -15.0625 C 41.546875 -15.0625 44.457031 -15.773438 46.90625 -17.203125 C 49.363281 -18.640625 51.035156 -20.789062 51.921875 -23.65625 C 49.941406 -22.695312 47.703125 -22.21875 45.203125 -22.21875 C 41.691406 -22.21875 38.851562 -23.097656 36.6875 -24.859375 C 34.519531 -26.617188 33.4375 -29.003906 33.4375 -32.015625 C 33.4375 -33.773438 33.859375 -35.660156 34.703125 -37.671875 C 35.546875 -39.691406 36.921875 -41.726562 38.828125 -43.78125 L 43.34375 -40.484375 C 42.382812 -39.234375 41.613281 -37.910156 41.03125 -36.515625 C 40.445312 -35.128906 40.15625 -33.8125 40.15625 -32.5625 C 40.15625 -31.09375 40.648438 -29.863281 41.640625 -28.875 C 42.628906 -27.882812 44.113281 -27.390625 46.09375 -27.390625 C 48.507812 -27.390625 50.632812 -28.050781 52.46875 -29.375 L 52.46875 -40.265625 L 59.515625 -40.265625 L 59.515625 -28.265625 C 59.515625 -23.941406 58.519531 -20.382812 56.53125 -17.59375 C 54.550781 -14.8125 51.894531 -12.738281 48.5625 -11.375 C 45.226562 -10.019531 41.472656 -9.34375 37.296875 -9.34375 Z M 37.296875 -9.34375 "/>
</symbol>
<symbol overflow="visible" id="id0:glyph0-7">
<path style="stroke:none;" d="M 5.0625 -8.6875 L 8.90625 -12.765625 L 28.375 8.25 L 24.640625 12.203125 L 16.71875 3.84375 C 14.007812 4.800781 11.972656 6.175781 10.609375 7.96875 C 9.253906 9.769531 8.578125 11.625 8.578125 13.53125 C 8.578125 15.65625 9.421875 17.539062 11.109375 19.1875 C 12.796875 20.84375 15.398438 21.671875 18.921875 21.671875 C 21.628906 21.671875 24.453125 21.066406 27.390625 19.859375 C 30.328125 18.648438 32.894531 16.722656 35.09375 14.078125 L 35.09375 -12.3125 L 41.25 -12.3125 L 41.25 26.84375 L 35.09375 26.84375 L 35.421875 21.34375 C 30.941406 25.300781 25.40625 27.28125 18.8125 27.28125 C 13.3125 27.28125 9.203125 25.921875 6.484375 23.203125 C 3.773438 20.492188 2.421875 17.453125 2.421875 14.078125 C 2.421875 11.222656 3.300781 8.472656 5.0625 5.828125 C 6.820312 3.191406 9.460938 1.175781 12.984375 -0.21875 Z M 5.0625 -8.6875 "/>
</symbol>
<symbol overflow="visible" id="id0:glyph0-8">
<path style="stroke:none;" d="M 6.703125 -76.34375 C 9.054688 -77.21875 10.851562 -78.390625 12.09375 -79.859375 C 13.34375 -81.328125 13.96875 -82.90625 13.96875 -84.59375 C 13.96875 -86.570312 13.210938 -88.109375 11.703125 -89.203125 C 10.203125 -90.304688 8.171875 -90.859375 5.609375 -90.859375 C 3.117188 -90.859375 0.242188 -90.328125 -3.015625 -89.265625 C -6.285156 -88.203125 -9.695312 -87.117188 -13.25 -86.015625 C -16.8125 -84.921875 -20.390625 -84.375 -23.984375 -84.375 C -26.910156 -84.375 -29.859375 -85.03125 -32.828125 -86.34375 C -35.804688 -87.664062 -38.132812 -90.160156 -39.8125 -93.828125 L -32.5625 -98.34375 C -31.382812 -96.21875 -29.929688 -94.710938 -28.203125 -93.828125 C -26.484375 -92.953125 -24.671875 -92.515625 -22.765625 -92.515625 C -20.785156 -92.515625 -18.585938 -92.820312 -16.171875 -93.4375 C -13.753906 -94.0625 -11.1875 -94.8125 -8.46875 -95.6875 C -5.757812 -96.570312 -3.03125 -97.328125 -0.28125 -97.953125 C 2.46875 -98.578125 5.164062 -98.890625 7.8125 -98.890625 C 12.425781 -98.890625 16.070312 -97.710938 18.75 -95.359375 C 21.425781 -93.015625 22.765625 -90.007812 22.765625 -86.34375 C 22.765625 -81.507812 20.273438 -77.625 15.296875 -74.6875 L 15.296875 0 L 6.703125 0 Z M 6.703125 -76.34375 "/>
</symbol>
</g>
<g>
<symbol overflow="visible" id="id1:glyph0-0">
<path style="stroke:none;" d="M 5.375 -96.6875 L 69.828125 -96.6875 L 69.828125 0 L 5.375 0 Z M 8.0625 -2.6875 L 67.140625 -2.6875 L 67.140625 -94 L 8.0625 -94 Z M 8.0625 -2.6875 "/>
</symbol>
<symbol overflow="visible" id="id1:glyph0-1">
<path style="stroke:none;" d="M 68.15625 -13.75 L 66.28125 -18.640625 L 88.09375 -27.390625 L 6.984375 -27.390625 L 6.984375 -34 L 88.09375 -34 L 66.28125 -42.75 L 68.15625 -47.640625 L 99.09375 -34.265625 L 99.09375 -27.125 Z M 68.15625 -13.75 "/>
</symbol>
</g>
<g>
<symbol overflow="visible" id="id2:glyph0-0">
<path style="stroke:none;" d="M 90.09375 -78.546875 L 90.09375 0 L 44.875 0 L 44.875 -78.546875 Z M 84.484375 -5.609375 L 84.484375 -72.9375 L 50.484375 -72.9375 L 50.484375 -5.609375 Z M 84.484375 -5.609375 "/>
</symbol>
<symbol overflow="visible" id="id2:glyph0-1">
<path style="stroke:none;" d="M 53.015625 -19.46875 C 53.015625 -13.53125 51.144531 -8.65625 47.40625 -4.84375 C 43.664062 -1.03125 38.382812 0.875 31.5625 0.875 C 22.988281 0.875 16.242188 -2.179688 11.328125 -8.296875 C 6.410156 -14.421875 3.953125 -23.019531 3.953125 -34.09375 C 3.953125 -42.75 5.457031 -49.988281 8.46875 -55.8125 C 11.476562 -61.644531 15.601562 -66.007812 20.84375 -68.90625 C 26.082031 -71.8125 32.003906 -73.265625 38.609375 -73.265625 C 41.617188 -73.265625 44.609375 -72.953125 47.578125 -72.328125 C 50.546875 -71.703125 53.3125 -70.726562 55.875 -69.40625 L 52.578125 -62.046875 C 48.398438 -64.171875 43.742188 -65.234375 38.609375 -65.234375 C 31.347656 -65.234375 25.5 -62.921875 21.0625 -58.296875 C 16.625 -53.679688 13.96875 -47.410156 13.09375 -39.484375 C 18.300781 -40.660156 23.03125 -41.25 27.28125 -41.25 C 35.050781 -41.25 41.28125 -39.304688 45.96875 -35.421875 C 50.664062 -31.535156 53.015625 -26.21875 53.015625 -19.46875 Z M 26.40625 -33.546875 C 24.5 -33.546875 22.367188 -33.378906 20.015625 -33.046875 C 17.671875 -32.722656 15.253906 -32.269531 12.765625 -31.6875 C 13.054688 -24.269531 14.722656 -18.34375 17.765625 -13.90625 C 20.804688 -9.476562 25.257812 -7.265625 31.125 -7.265625 C 35.082031 -7.265625 38.253906 -8.34375 40.640625 -10.5 C 43.023438 -12.664062 44.21875 -15.617188 44.21875 -19.359375 C 44.21875 -23.609375 42.625 -27.035156 39.4375 -29.640625 C 36.25 -32.242188 31.90625 -33.546875 26.40625 -33.546875 Z M 26.40625 -33.546875 "/>
</symbol>
<symbol overflow="visible" id="id2:glyph0-2">
<path style="stroke:none;" d="M 21.125 0.875 C 18.625 0.875 16.550781 -0.09375 14.90625 -2.03125 C 13.257812 -3.976562 12.4375 -6.675781 12.4375 -10.125 C 12.4375 -14.007812 13.460938 -17.894531 15.515625 -21.78125 C 11.628906 -24.488281 8.65625 -27.859375 6.59375 -31.890625 C 4.539062 -35.929688 3.515625 -40.296875 3.515625 -44.984375 C 3.515625 -49.609375 4.46875 -53.695312 6.375 -57.25 C 8.28125 -60.8125 10.863281 -63.765625 14.125 -66.109375 C 17.394531 -68.453125 21.140625 -70.226562 25.359375 -71.4375 C 29.578125 -72.65625 33.957031 -73.265625 38.5 -73.265625 C 43.269531 -73.265625 47.832031 -72.640625 52.1875 -71.390625 C 56.550781 -70.140625 60.421875 -68.285156 63.796875 -65.828125 C 67.171875 -63.378906 69.828125 -60.335938 71.765625 -56.703125 C 73.710938 -53.078125 74.6875 -48.878906 74.6875 -44.109375 C 74.6875 -40.734375 74.226562 -37.578125 73.3125 -34.640625 C 72.394531 -31.710938 71.128906 -29.003906 69.515625 -26.515625 L 61.9375 -30.359375 C 63.175781 -32.265625 64.160156 -34.351562 64.890625 -36.625 C 65.628906 -38.90625 66 -41.328125 66 -43.890625 C 66 -48.585938 64.675781 -52.53125 62.03125 -55.71875 C 59.394531 -58.90625 55.988281 -61.285156 51.8125 -62.859375 C 47.632812 -64.441406 43.160156 -65.234375 38.390625 -65.234375 C 33.691406 -65.234375 29.363281 -64.441406 25.40625 -62.859375 C 21.445312 -61.285156 18.273438 -58.941406 15.890625 -55.828125 C 13.503906 -52.710938 12.3125 -48.914062 12.3125 -44.4375 C 12.3125 -41.351562 12.953125 -38.363281 14.234375 -35.46875 C 15.523438 -32.570312 17.414062 -30.171875 19.90625 -28.265625 C 22.695312 -31.347656 26.179688 -33.894531 30.359375 -35.90625 C 34.535156 -37.925781 39.300781 -38.9375 44.65625 -38.9375 C 46.195312 -38.9375 47.882812 -38.84375 49.71875 -38.65625 C 51.550781 -38.476562 53.164062 -38.28125 54.5625 -38.0625 L 54.5625 0 L 45.984375 0 L 45.984375 -31.6875 C 45.691406 -31.6875 45.359375 -31.6875 44.984375 -31.6875 C 40.734375 -31.6875 36.921875 -30.820312 33.546875 -29.09375 C 30.171875 -27.375 27.398438 -25.140625 25.234375 -22.390625 C 23.078125 -19.640625 21.632812 -16.722656 20.90625 -13.640625 L 21.015625 -13.640625 C 23.359375 -13.640625 25.222656 -12.882812 26.609375 -11.375 C 28.003906 -9.875 28.703125 -8.171875 28.703125 -6.265625 C 28.703125 -4.210938 27.988281 -2.507812 26.5625 -1.15625 C 25.132812 0.195312 23.320312 0.875 21.125 0.875 Z M 21.125 0.875 "/>
</symbol>
<symbol overflow="visible" id="id2:glyph0-3">
<path style="stroke:none;" d="M 7.921875 3.625 L 19.6875 19.46875 L 14.515625 23.3125 L 2.203125 7.703125 Z M 7.921875 3.625 "/>
</symbol>
<symbol overflow="visible" id="id2:glyph0-4">
<path style="stroke:none;" d=""/>
</symbol>
<symbol overflow="visible" id="id2:glyph0-5">
<path style="stroke:none;" d="M 37.296875 -9.34375 C 29.804688 -9.34375 24.117188 -11.046875 20.234375 -14.453125 C 16.347656 -17.867188 14.40625 -22.21875 14.40625 -27.5 C 14.40625 -28.300781 14.441406 -29.070312 14.515625 -29.8125 C 10.703125 -32.375 7.914062 -35.34375 6.15625 -38.71875 C 4.394531 -42.09375 3.515625 -45.578125 3.515625 -49.171875 C 3.515625 -54.085938 4.976562 -58.335938 7.90625 -61.921875 C 10.84375 -65.515625 15.039062 -68.300781 20.5 -70.28125 C 25.96875 -72.269531 32.445312 -73.265625 39.9375 -73.265625 C 48.875 -73.265625 56.421875 -72.015625 62.578125 -69.515625 C 68.742188 -67.023438 73.40625 -63.613281 76.5625 -59.28125 C 79.71875 -54.957031 81.296875 -50.007812 81.296875 -44.4375 C 81.296875 -37.84375 78.546875 -31.570312 73.046875 -25.625 L 82.609375 -14.1875 L 75.6875 -9.125 L 63.46875 -24.53125 C 66.625 -27.46875 68.914062 -30.347656 70.34375 -33.171875 C 71.769531 -35.992188 72.484375 -38.90625 72.484375 -41.90625 C 72.484375 -46.894531 71.125 -51.164062 68.40625 -54.71875 C 65.695312 -58.28125 61.847656 -61.015625 56.859375 -62.921875 C 51.878906 -64.828125 45.976562 -65.78125 39.15625 -65.78125 C 33.726562 -65.78125 28.960938 -65.082031 24.859375 -63.6875 C 20.753906 -62.289062 17.546875 -60.289062 15.234375 -57.6875 C 12.921875 -55.09375 11.765625 -52 11.765625 -48.40625 C 11.765625 -46.34375 12.128906 -44.300781 12.859375 -42.28125 C 13.597656 -40.269531 14.738281 -38.421875 16.28125 -36.734375 C 17.007812 -38.710938 18.050781 -40.691406 19.40625 -42.671875 C 20.769531 -44.660156 22.441406 -46.679688 24.421875 -48.734375 L 29.046875 -44.765625 C 26.765625 -41.910156 25.09375 -39.035156 24.03125 -36.140625 C 22.96875 -33.242188 22.4375 -30.691406 22.4375 -28.484375 C 22.4375 -24.742188 23.679688 -21.570312 26.171875 -18.96875 C 28.671875 -16.363281 32.671875 -15.0625 38.171875 -15.0625 C 41.546875 -15.0625 44.457031 -15.773438 46.90625 -17.203125 C 49.363281 -18.640625 51.035156 -20.789062 51.921875 -23.65625 C 49.941406 -22.695312 47.703125 -22.21875 45.203125 -22.21875 C 41.691406 -22.21875 38.851562 -23.097656 36.6875 -24.859375 C 34.519531 -26.617188 33.4375 -29.003906 33.4375 -32.015625 C 33.4375 -33.773438 33.859375 -35.660156 34.703125 -37.671875 C 35.546875 -39.691406 36.921875 -41.726562 38.828125 -43.78125 L 43.34375 -40.484375 C 42.382812 -39.234375 41.613281 -37.910156 41.03125 -36.515625 C 40.445312 -35.128906 40.15625 -33.8125 40.15625 -32.5625 C 40.15625 -31.09375 40.648438 -29.863281 41.640625 -28.875 C 42.628906 -27.882812 44.113281 -27.390625 46.09375 -27.390625 C 48.507812 -27.390625 50.632812 -28.050781 52.46875 -29.375 L 52.46875 -40.265625 L 59.515625 -40.265625 L 59.515625 -28.265625 C 59.515625 -23.941406 58.519531 -20.382812 56.53125 -17.59375 C 54.550781 -14.8125 51.894531 -12.738281 48.5625 -11.375 C 45.226562 -10.019531 41.472656 -9.34375 37.296875 -9.34375 Z M 37.296875 -9.34375 "/>
</symbol>
<symbol overflow="visible" id="id2:glyph0-6">
<path style="stroke:none;" d="M 5.0625 -8.6875 L 8.90625 -12.765625 L 28.375 8.25 L 24.640625 12.203125 L 16.71875 3.84375 C 14.007812 4.800781 11.972656 6.175781 10.609375 7.96875 C 9.253906 9.769531 8.578125 11.625 8.578125 13.53125 C 8.578125 15.65625 9.421875 17.539062 11.109375 19.1875 C 12.796875 20.84375 15.398438 21.671875 18.921875 21.671875 C 21.628906 21.671875 24.453125 21.066406 27.390625 19.859375 C 30.328125 18.648438 32.894531 16.722656 35.09375 14.078125 L 35.09375 -12.3125 L 41.25 -12.3125 L 41.25 26.84375 L 35.09375 26.84375 L 35.421875 21.34375 C 30.941406 25.300781 25.40625 27.28125 18.8125 27.28125 C 13.3125 27.28125 9.203125 25.921875 6.484375 23.203125 C 3.773438 20.492188 2.421875 17.453125 2.421875 14.078125 C 2.421875 11.222656 3.300781 8.472656 5.0625 5.828125 C 6.820312 3.191406 9.460938 1.175781 12.984375 -0.21875 Z M 5.0625 -8.6875 "/>
</symbol>
<symbol overflow="visible" id="id2:glyph0-7">
<path style="stroke:none;" d="M 6.703125 -76.34375 C 9.054688 -77.21875 10.851562 -78.390625 12.09375 -79.859375 C 13.34375 -81.328125 13.96875 -82.90625 13.96875 -84.59375 C 13.96875 -86.570312 13.210938 -88.109375 11.703125 -89.203125 C 10.203125 -90.304688 8.171875 -90.859375 5.609375 -90.859375 C 3.117188 -90.859375 0.242188 -90.328125 -3.015625 -89.265625 C -6.285156 -88.203125 -9.695312 -87.117188 -13.25 -86.015625 C -16.8125 -84.921875 -20.390625 -84.375 -23.984375 -84.375 C -26.910156 -84.375 -29.859375 -85.03125 -32.828125 -86.34375 C -35.804688 -87.664062 -38.132812 -90.160156 -39.8125 -93.828125 L -32.5625 -98.34375 C -31.382812 -96.21875 -29.929688 -94.710938 -28.203125 -93.828125 C -26.484375 -92.953125 -24.671875 -92.515625 -22.765625 -92.515625 C -20.785156 -92.515625 -18.585938 -92.820312 -16.171875 -93.4375 C -13.753906 -94.0625 -11.1875 -94.8125 -8.46875 -95.6875 C -5.757812 -96.570312 -3.03125 -97.328125 -0.28125 -97.953125 C 2.46875 -98.578125 5.164062 -98.890625 7.8125 -98.890625 C 12.425781 -98.890625 16.070312 -97.710938 18.75 -95.359375 C 21.425781 -93.015625 22.765625 -90.007812 22.765625 -86.34375 C 22.765625 -81.507812 20.273438 -77.625 15.296875 -74.6875 L 15.296875 0 L 6.703125 0 Z M 6.703125 -76.34375 "/>
</symbol>
</g>
</defs>
  <g id="id0:id0" transform="matrix(1.25,0,0,1.25,0.0,4.560546875)"><g id="id0:surface1">
<g style="fill:rgb(0%,0%,0%);fill-opacity:1;">
  <use xlink:href="#id0:glyph0-1" x="16" y="119.59375"/>
  <use xlink:href="#id0:glyph0-2" x="74.734375" y="119.59375"/>
  <use xlink:href="#id0:glyph0-3" x="162.734375" y="119.59375"/>
  <use xlink:href="#id0:glyph0-4" x="206.078125" y="119.59375"/>
  <use xlink:href="#id0:glyph0-5" x="241.046875" y="119.59375"/>
  <use xlink:href="#id0:glyph0-6" x="241.046875" y="119.59375"/>
  <use xlink:href="#id0:glyph0-7" x="273.171875" y="119.59375"/>
  <use xlink:href="#id0:glyph0-8" x="325.640625" y="119.59375"/>
</g>
</g>
</g>
  <g id="id1:id1" transform="matrix(1.25,0,0,1.25,454.6875,0.0)"><g id="id1:surface1">
<g style="fill:rgb(0%,0%,0%);fill-opacity:1;">
  <use xlink:href="#id1:glyph0-1" x="0" y="120.84375"/>
</g>
</g>
</g>
  <g id="id2:id2" transform="matrix(1.25,0,0,1.25,587.28515625,4.560546875)"><g id="id2:surface1">
<g style="fill:rgb(0%,0%,0%);fill-opacity:1;">
  <use xlink:href="#id2:glyph0-1" x="16" y="119.59375"/>
  <use xlink:href="#id2:glyph0-2" x="74.734375" y="119.59375"/>
  <use xlink:href="#id2:glyph0-3" x="118.078125" y="119.59375"/>
  <use xlink:href="#id2:glyph0-4" x="153.046875" y="119.59375"/>
  <use xlink:href="#id2:glyph0-5" x="153.046875" y="119.59375"/>
  <use xlink:href="#id2:glyph0-6" x="185.171875" y="119.59375"/>
  <use xlink:href="#id2:glyph0-7" x="237.640625" y="119.59375"/>
</g>
</g>
</g>
</svg>
