<!DOCTYPE svg PUBLIC "-//W3C//DTD SVG 1.1//EN" "http://www.w3.org/Graphics/SVG/1.1/DTD/svg11.dtd">
<!-- Created with svg_stack (http://github.com/astraw/svg_stack) --><svg xmlns="http://www.w3.org/2000/svg" xmlns:sodipodi="http://sodipodi.sourceforge.net/DTD/sodipodi-0.dtd" xmlns:xlink="http://www.w3.org/1999/xlink" version="1.1" width="100%" id="oriya-blws" viewBox="0 0 397.12890625 201.40625">
  <defs><g>
<symbol overflow="visible" id="oriya-blws:id0:glyph0-0">
<path style="stroke:none;" d="M 90.09375 -78.546875 L 90.09375 0 L 44.875 0 L 44.875 -78.546875 Z M 84.484375 -5.609375 L 84.484375 -72.9375 L 50.484375 -72.9375 L 50.484375 -5.609375 Z M 84.484375 -5.609375 "/>
</symbol>
<symbol overflow="visible" id="oriya-blws:id0:glyph0-1">
<path style="stroke:none;" d="M 11.875 -18.8125 C 11.800781 -22.257812 12.71875 -25.632812 14.625 -28.9375 C 11.03125 -31.207031 8.28125 -34.082031 6.375 -37.5625 C 4.46875 -41.050781 3.515625 -44.703125 3.515625 -48.515625 C 3.515625 -53.347656 4.867188 -57.613281 7.578125 -61.3125 C 10.296875 -65.019531 14.113281 -67.957031 19.03125 -70.125 C 23.945312 -72.289062 29.773438 -73.375 36.515625 -73.375 C 40.773438 -73.375 44.898438 -72.84375 48.890625 -71.78125 C 52.890625 -70.71875 56.5 -69.117188 59.71875 -66.984375 C 62.945312 -64.859375 65.5 -62.179688 67.375 -58.953125 C 69.25 -55.734375 70.1875 -51.992188 70.1875 -47.734375 C 70.1875 -45.023438 69.765625 -42.367188 68.921875 -39.765625 C 68.078125 -37.160156 66.921875 -34.796875 65.453125 -32.671875 L 57.96875 -36.296875 C 59.144531 -37.765625 60.0625 -39.503906 60.71875 -41.515625 C 61.375 -43.535156 61.703125 -45.535156 61.703125 -47.515625 C 61.703125 -50.671875 60.75 -53.625 58.84375 -56.375 C 56.9375 -59.125 54.09375 -61.359375 50.3125 -63.078125 C 46.539062 -64.804688 41.90625 -65.671875 36.40625 -65.671875 C 31.269531 -65.671875 26.882812 -64.84375 23.25 -63.1875 C 19.625 -61.539062 16.859375 -59.378906 14.953125 -56.703125 C 13.046875 -54.023438 12.054688 -51.070312 11.984375 -47.84375 C 11.984375 -45.207031 12.625 -42.734375 13.90625 -40.421875 C 15.195312 -38.109375 16.941406 -36.1875 19.140625 -34.65625 C 21.847656 -37.289062 25.179688 -39.429688 29.140625 -41.078125 C 33.109375 -42.734375 37.582031 -43.5625 42.5625 -43.5625 C 45.789062 -43.5625 48.726562 -43.304688 51.375 -42.796875 L 51.375 -9.796875 L 43.015625 -9.796875 L 43.015625 -36.296875 C 42.421875 -36.367188 41.867188 -36.40625 41.359375 -36.40625 C 37.546875 -36.40625 34.15625 -35.726562 31.1875 -34.375 C 28.21875 -33.019531 25.78125 -31.222656 23.875 -28.984375 C 21.96875 -26.742188 20.679688 -24.34375 20.015625 -21.78125 C 22.441406 -21.78125 24.238281 -21.117188 25.40625 -19.796875 C 26.582031 -18.472656 27.171875 -17.046875 27.171875 -15.515625 C 27.171875 -13.898438 26.601562 -12.445312 25.46875 -11.15625 C 24.332031 -9.875 22.585938 -9.234375 20.234375 -9.234375 C 17.742188 -9.234375 15.726562 -10.128906 14.1875 -11.921875 C 12.644531 -13.722656 11.875 -16.019531 11.875 -18.8125 Z M 11.875 -18.8125 "/>
</symbol>
<symbol overflow="visible" id="oriya-blws:id0:glyph0-2">
<path style="stroke:none;" d="M 53.015625 -1.09375 C 53.015625 3.59375 51.195312 7.253906 47.5625 9.890625 C 43.9375 12.535156 38.828125 13.859375 32.234375 13.859375 C 26.734375 13.859375 21.394531 12.847656 16.21875 10.828125 C 11.050781 8.816406 6.453125 5.976562 2.421875 2.3125 L 6.046875 -1.65625 C 9.859375 1.71875 14.019531 4.359375 18.53125 6.265625 C 23.039062 8.171875 27.609375 9.125 32.234375 9.125 C 33.472656 9.125 34.679688 9.085938 35.859375 9.015625 C 34.023438 7.992188 32.664062 6.582031 31.78125 4.78125 C 30.90625 2.988281 30.46875 0.992188 30.46875 -1.203125 C 30.46875 -4.722656 31.492188 -7.53125 33.546875 -9.625 C 35.597656 -11.71875 38.347656 -12.765625 41.796875 -12.765625 C 45.242188 -12.765625 47.972656 -11.71875 49.984375 -9.625 C 52.003906 -7.53125 53.015625 -4.6875 53.015625 -1.09375 Z M 41.90625 5.828125 C 43.664062 5.828125 45.078125 5.1875 46.140625 3.90625 C 47.203125 2.625 47.734375 0.957031 47.734375 -1.09375 C 47.734375 -3.15625 47.203125 -4.84375 46.140625 -6.15625 C 45.078125 -7.476562 43.628906 -8.140625 41.796875 -8.140625 C 39.960938 -8.140625 38.492188 -7.5 37.390625 -6.21875 C 36.296875 -4.9375 35.75 -3.265625 35.75 -1.203125 C 35.75 0.921875 36.316406 2.625 37.453125 3.90625 C 38.585938 5.1875 40.070312 5.828125 41.90625 5.828125 Z M 41.90625 5.828125 "/>
</symbol>
<symbol overflow="visible" id="oriya-blws:id0:glyph0-3">
<path style="stroke:none;" d="M 24.421875 15.0625 C 24.421875 11.625 25.847656 8.875 28.703125 6.8125 C 31.566406 4.757812 36.003906 3.625 42.015625 3.40625 L 42.015625 0 L 50.59375 -2.3125 L 50.59375 9.125 C 44.507812 9.125 39.984375 9.507812 37.015625 10.28125 C 34.046875 11.050781 32.5625 12.570312 32.5625 14.84375 C 32.5625 16.820312 33.347656 18.25 34.921875 19.125 C 36.503906 20.007812 38.46875 20.453125 40.8125 20.453125 C 43.445312 20.453125 46.03125 19.992188 48.5625 19.078125 C 51.09375 18.160156 53.273438 16.9375 55.109375 15.40625 C 57.085938 16.71875 59.046875 17.847656 60.984375 18.796875 C 62.929688 19.753906 64.929688 20.234375 66.984375 20.234375 C 67.867188 20.234375 68.84375 20.140625 69.90625 19.953125 C 70.96875 19.773438 72.085938 19.503906 73.265625 19.140625 L 75.5625 25.40625 C 73.144531 26.65625 70.617188 27.28125 67.984375 27.28125 C 65.484375 27.28125 63.171875 26.785156 61.046875 25.796875 C 58.921875 24.804688 56.941406 23.578125 55.109375 22.109375 C 52.910156 23.648438 50.488281 24.894531 47.84375 25.84375 C 45.207031 26.800781 42.421875 27.28125 39.484375 27.28125 C 35.304688 27.28125 31.75 26.253906 28.8125 24.203125 C 25.882812 22.148438 24.421875 19.101562 24.421875 15.0625 Z M 24.421875 15.0625 "/>
</symbol>
</g>
<g>
<symbol overflow="visible" id="oriya-blws:id1:glyph0-0">
<path style="stroke:none;" d="M 5.375 -96.6875 L 69.828125 -96.6875 L 69.828125 0 L 5.375 0 Z M 8.0625 -2.6875 L 67.140625 -2.6875 L 67.140625 -94 L 8.0625 -94 Z M 8.0625 -2.6875 "/>
</symbol>
<symbol overflow="visible" id="oriya-blws:id1:glyph0-1">
<path style="stroke:none;" d="M 68.15625 -13.75 L 66.28125 -18.640625 L 88.09375 -27.390625 L 6.984375 -27.390625 L 6.984375 -34 L 88.09375 -34 L 66.28125 -42.75 L 68.15625 -47.640625 L 99.09375 -34.265625 L 99.09375 -27.125 Z M 68.15625 -13.75 "/>
</symbol>
</g>
<g>
<symbol overflow="visible" id="oriya-blws:id2:glyph0-0">
<path style="stroke:none;" d="M 90.09375 -78.546875 L 90.09375 0 L 44.875 0 L 44.875 -78.546875 Z M 84.484375 -5.609375 L 84.484375 -72.9375 L 50.484375 -72.9375 L 50.484375 -5.609375 Z M 84.484375 -5.609375 "/>
</symbol>
<symbol overflow="visible" id="oriya-blws:id2:glyph0-1">
<path style="stroke:none;" d="M 20.234375 -9.5625 C 17.742188 -9.5625 15.726562 -10.457031 14.1875 -12.25 C 12.644531 -14.050781 11.835938 -16.347656 11.765625 -19.140625 C 11.765625 -22.441406 12.679688 -25.707031 14.515625 -28.9375 C 10.921875 -31.207031 8.1875 -34.082031 6.3125 -37.5625 C 4.445312 -41.050781 3.515625 -44.703125 3.515625 -48.515625 C 3.515625 -53.273438 4.867188 -57.523438 7.578125 -61.265625 C 10.296875 -65.003906 14.113281 -67.9375 19.03125 -70.0625 C 23.945312 -72.195312 29.773438 -73.265625 36.515625 -73.265625 C 40.773438 -73.265625 44.898438 -72.726562 48.890625 -71.65625 C 52.890625 -70.59375 56.5 -69 59.71875 -66.875 C 62.945312 -64.75 65.5 -62.09375 67.375 -58.90625 C 69.25 -55.71875 70.1875 -51.992188 70.1875 -47.734375 C 70.1875 -44.953125 69.765625 -42.273438 68.921875 -39.703125 C 68.078125 -37.140625 66.921875 -34.796875 65.453125 -32.671875 L 57.96875 -36.1875 C 59.144531 -37.65625 60.0625 -39.394531 60.71875 -41.40625 C 61.375 -43.425781 61.703125 -45.425781 61.703125 -47.40625 C 61.703125 -50.5625 60.75 -53.515625 58.84375 -56.265625 C 56.9375 -59.015625 54.09375 -61.25 50.3125 -62.96875 C 46.539062 -64.695312 41.90625 -65.5625 36.40625 -65.5625 C 31.269531 -65.5625 26.882812 -64.753906 23.25 -63.140625 C 19.625 -61.523438 16.859375 -59.378906 14.953125 -56.703125 C 13.046875 -54.023438 12.09375 -51.070312 12.09375 -47.84375 C 12.09375 -45.207031 12.679688 -42.75 13.859375 -40.46875 C 15.035156 -38.195312 16.722656 -36.296875 18.921875 -34.765625 C 21.554688 -37.398438 24.890625 -39.578125 28.921875 -41.296875 C 32.960938 -43.023438 37.507812 -43.890625 42.5625 -43.890625 C 45.789062 -43.890625 48.726562 -43.632812 51.375 -43.125 L 51.375 -26.1875 C 52.46875 -26.476562 53.566406 -26.625 54.671875 -26.625 C 57.679688 -26.625 60.335938 -25.554688 62.640625 -23.421875 C 64.953125 -21.296875 66.109375 -17.890625 66.109375 -13.203125 C 66.109375 -8.285156 64.734375 -4.140625 61.984375 -0.765625 C 59.234375 2.609375 55.601562 5.171875 51.09375 6.921875 C 46.582031 8.679688 41.648438 9.5625 36.296875 9.5625 C 32.265625 9.5625 28.117188 9.066406 23.859375 8.078125 C 19.609375 7.085938 15.800781 5.75 12.4375 4.0625 L 15.1875 -1.875 C 18.476562 -0.257812 22.007812 0.96875 25.78125 1.8125 C 29.5625 2.65625 33.25 3.078125 36.84375 3.078125 C 41.101562 3.078125 45.03125 2.472656 48.625 1.265625 C 52.21875 0.0546875 54.929688 -1.796875 56.765625 -4.296875 C 55.878906 -3.992188 54.960938 -3.84375 54.015625 -3.84375 C 52.546875 -3.84375 50.945312 -4.226562 49.21875 -5 C 47.5 -5.769531 46.035156 -7 44.828125 -8.6875 C 43.617188 -10.375 43.015625 -12.578125 43.015625 -15.296875 L 43.015625 -36.625 C 42.421875 -36.695312 41.867188 -36.734375 41.359375 -36.734375 C 37.546875 -36.734375 34.15625 -36.054688 31.1875 -34.703125 C 28.21875 -33.347656 25.78125 -31.550781 23.875 -29.3125 C 21.96875 -27.070312 20.679688 -24.671875 20.015625 -22.109375 C 22.441406 -22.109375 24.238281 -21.445312 25.40625 -20.125 C 26.582031 -18.8125 27.171875 -17.382812 27.171875 -15.84375 C 27.171875 -14.226562 26.601562 -12.773438 25.46875 -11.484375 C 24.332031 -10.203125 22.585938 -9.5625 20.234375 -9.5625 Z M 54.78125 -8.90625 C 56.320312 -8.90625 57.566406 -9.472656 58.515625 -10.609375 C 59.472656 -11.742188 59.953125 -13.226562 59.953125 -15.0625 C 59.953125 -17.050781 59.4375 -18.59375 58.40625 -19.6875 C 57.382812 -20.789062 56.101562 -21.34375 54.5625 -21.34375 C 53.09375 -21.34375 51.828125 -20.789062 50.765625 -19.6875 C 49.703125 -18.59375 49.171875 -17.128906 49.171875 -15.296875 C 49.171875 -13.390625 49.703125 -11.847656 50.765625 -10.671875 C 51.828125 -9.492188 53.164062 -8.90625 54.78125 -8.90625 Z M 54.78125 -8.90625 "/>
</symbol>
<symbol overflow="visible" id="oriya-blws:id2:glyph0-2">
<path style="stroke:none;" d="M 24.421875 15.0625 C 24.421875 11.625 25.847656 8.875 28.703125 6.8125 C 31.566406 4.757812 36.003906 3.625 42.015625 3.40625 L 42.015625 0 L 50.59375 -2.3125 L 50.59375 9.125 C 44.507812 9.125 39.984375 9.507812 37.015625 10.28125 C 34.046875 11.050781 32.5625 12.570312 32.5625 14.84375 C 32.5625 16.820312 33.347656 18.25 34.921875 19.125 C 36.503906 20.007812 38.46875 20.453125 40.8125 20.453125 C 43.445312 20.453125 46.03125 19.992188 48.5625 19.078125 C 51.09375 18.160156 53.273438 16.9375 55.109375 15.40625 C 57.085938 16.71875 59.046875 17.847656 60.984375 18.796875 C 62.929688 19.753906 64.929688 20.234375 66.984375 20.234375 C 67.867188 20.234375 68.84375 20.140625 69.90625 19.953125 C 70.96875 19.773438 72.085938 19.503906 73.265625 19.140625 L 75.5625 25.40625 C 73.144531 26.65625 70.617188 27.28125 67.984375 27.28125 C 65.484375 27.28125 63.171875 26.785156 61.046875 25.796875 C 58.921875 24.804688 56.941406 23.578125 55.109375 22.109375 C 52.910156 23.648438 50.488281 24.894531 47.84375 25.84375 C 45.207031 26.800781 42.421875 27.28125 39.484375 27.28125 C 35.304688 27.28125 31.75 26.253906 28.8125 24.203125 C 25.882812 22.148438 24.421875 19.101562 24.421875 15.0625 Z M 24.421875 15.0625 "/>
</symbol>
</g>
</defs>
  <g id="oriya-blws:id0:id0" transform="matrix(1.25,0,0,1.25,0.0,4.560546875)"><g id="oriya-blws:id0:surface1">
<g style="fill:rgb(0%,0%,0%);fill-opacity:1;">
  <use xlink:href="#oriya-blws:id0:glyph0-1" x="16" y="119.59375" class="c0"/>
  <use xlink:href="#oriya-blws:id0:glyph0-2" x="19.1875" y="119.59375" class="c1"/>
  <use xlink:href="#oriya-blws:id0:glyph0-3" x="21.171875" y="107.5" class="c2"/>
</g>
</g>
</g>
  <g id="oriya-blws:id1:id1" transform="matrix(1.25,0,0,1.25,132.265625,0.0)"><g id="oriya-blws:id1:surface1">
<g style="fill:rgb(0%,0%,0%);fill-opacity:1;">
  <use xlink:href="#oriya-blws:id1:glyph0-1" x="0" y="120.84375" class="arrow"/>
</g>
</g>
</g>
  <g id="oriya-blws:id2:id2" transform="matrix(1.25,0,0,1.25,264.86328125,4.560546875)"><g id="oriya-blws:id2:surface1">
<g style="fill:rgb(0%,0%,0%);fill-opacity:1;">
  <use xlink:href="#oriya-blws:id2:glyph0-1" x="16" y="119.59375" class="c3"/>
  <use xlink:href="#oriya-blws:id2:glyph0-2" x="89.8125" y="119.59375" class="3"/>
</g>
</g>
</g>
</svg>