<!DOCTYPE svg PUBLIC "-//W3C//DTD SVG 1.1//EN" "http://www.w3.org/Graphics/SVG/1.1/DTD/svg11.dtd">
<!-- Created with svg_stack (http://github.com/astraw/svg_stack) --><svg xmlns="http://www.w3.org/2000/svg" xmlns:sodipodi="http://sodipodi.sourceforge.net/DTD/sodipodi-0.dtd" xmlns:xlink="http://www.w3.org/1999/xlink" version="1.1" width="100%" id="oriya-akhn-jnya" viewBox="0 0 397.40234375 201.40625">
  <defs><g>
<symbol overflow="visible" id="oriya-akhn-jnya:id0:glyph0-0">
<path style="stroke:none;" d="M 90.09375 -78.546875 L 90.09375 0 L 44.875 0 L 44.875 -78.546875 Z M 84.484375 -5.609375 L 84.484375 -72.9375 L 50.484375 -72.9375 L 50.484375 -5.609375 Z M 84.484375 -5.609375 "/>
</symbol>
<symbol overflow="visible" id="oriya-akhn-jnya:id0:glyph0-1">
<path style="stroke:none;" d="M 3.953125 -26.296875 C 3.953125 -29.960938 4.503906 -33.535156 5.609375 -37.015625 C 6.710938 -40.492188 7.992188 -43.519531 9.453125 -46.09375 C 5.785156 -49.757812 3.953125 -54.269531 3.953125 -59.625 C 3.953125 -61.820312 4.242188 -64.09375 4.828125 -66.4375 C 5.421875 -68.78125 6.304688 -70.90625 7.484375 -72.8125 L 14.84375 -70.296875 C 14.039062 -68.679688 13.414062 -67.007812 12.96875 -65.28125 C 12.53125 -63.5625 12.3125 -61.75 12.3125 -59.84375 C 12.3125 -54.707031 14.507812 -50.691406 18.90625 -47.796875 C 23.3125 -44.898438 29.734375 -43.453125 38.171875 -43.453125 C 46.015625 -43.453125 51.878906 -44.753906 55.765625 -47.359375 C 59.648438 -49.960938 61.59375 -53.570312 61.59375 -58.1875 C 61.59375 -60.976562 60.929688 -63.195312 59.609375 -64.84375 C 58.296875 -66.488281 56.613281 -67.3125 54.5625 -67.3125 C 52.4375 -67.3125 50.785156 -66.539062 49.609375 -65 C 48.429688 -63.46875 47.84375 -61.414062 47.84375 -58.84375 L 47.84375 -51.703125 L 41.03125 -51.703125 L 41.03125 -59.40625 C 41.03125 -61.820312 40.390625 -63.742188 39.109375 -65.171875 C 37.828125 -66.597656 36.117188 -67.3125 33.984375 -67.3125 C 31.785156 -67.3125 30.117188 -66.648438 28.984375 -65.328125 C 27.847656 -64.015625 27.28125 -62.222656 27.28125 -59.953125 C 27.28125 -57.898438 27.90625 -55.476562 29.15625 -52.6875 L 22.765625 -51.046875 C 21.816406 -52.878906 21.140625 -54.65625 20.734375 -56.375 C 20.328125 -58.09375 20.125 -59.648438 20.125 -61.046875 C 20.125 -64.785156 21.257812 -67.753906 23.53125 -69.953125 C 25.8125 -72.160156 28.894531 -73.265625 32.78125 -73.265625 C 35.5625 -73.265625 37.925781 -72.710938 39.875 -71.609375 C 41.820312 -70.503906 43.34375 -68.960938 44.4375 -66.984375 C 45.539062 -68.960938 47.082031 -70.503906 49.0625 -71.609375 C 51.039062 -72.710938 53.382812 -73.265625 56.09375 -73.265625 C 60.425781 -73.265625 63.800781 -71.90625 66.21875 -69.1875 C 68.632812 -66.476562 69.84375 -62.882812 69.84375 -58.40625 C 69.84375 -52.394531 67.609375 -47.554688 63.140625 -43.890625 C 65.410156 -43.003906 67.003906 -41.679688 67.921875 -39.921875 C 68.835938 -38.171875 69.40625 -36.414062 69.625 -34.65625 C 69.84375 -32.894531 69.953125 -31.570312 69.953125 -30.6875 L 69.953125 0 L 61.375 0 L 61.375 -29.703125 C 61.375 -35.566406 59.46875 -38.5 55.65625 -38.5 C 51.695312 -38.5 49.71875 -35.566406 49.71875 -29.703125 L 49.71875 -24.203125 C 49.71875 -19.867188 48.597656 -16.421875 46.359375 -13.859375 C 44.128906 -11.296875 40.992188 -10.015625 36.953125 -10.015625 C 34.097656 -10.015625 31.84375 -10.597656 30.1875 -11.765625 C 28.539062 -12.941406 27.316406 -14.484375 26.515625 -16.390625 C 25.628906 -14.484375 24.304688 -12.941406 22.546875 -11.765625 C 20.785156 -10.597656 18.625 -10.015625 16.0625 -10.015625 C 12.175781 -10.015625 9.1875 -11.425781 7.09375 -14.25 C 5 -17.070312 3.953125 -21.085938 3.953125 -26.296875 Z M 11.328125 -26.1875 C 11.328125 -23.101562 11.835938 -20.660156 12.859375 -18.859375 C 13.890625 -17.066406 15.46875 -16.171875 17.59375 -16.171875 C 19.28125 -16.171875 20.617188 -16.863281 21.609375 -18.25 C 22.597656 -19.644531 23.09375 -21.628906 23.09375 -24.203125 L 23.09375 -38.828125 C 20.164062 -39.566406 17.53125 -40.59375 15.1875 -41.90625 C 14.007812 -39.632812 13.070312 -37.066406 12.375 -34.203125 C 11.675781 -31.347656 11.328125 -28.675781 11.328125 -26.1875 Z M 30.46875 -24.203125 C 30.46875 -21.628906 30.976562 -19.644531 32 -18.25 C 33.03125 -16.863281 34.535156 -16.171875 36.515625 -16.171875 C 38.347656 -16.171875 39.796875 -16.847656 40.859375 -18.203125 C 41.921875 -19.554688 42.453125 -21.484375 42.453125 -23.984375 L 42.453125 -37.1875 C 41.066406 -37.101562 39.640625 -37.0625 38.171875 -37.0625 C 35.453125 -37.0625 32.882812 -37.210938 30.46875 -37.515625 Z M 30.46875 -24.203125 "/>
</symbol>
</g>
<g>
<symbol overflow="visible" id="oriya-akhn-jnya:id1:glyph0-0">
<path style="stroke:none;" d="M 5.375 -96.6875 L 69.828125 -96.6875 L 69.828125 0 L 5.375 0 Z M 8.0625 -2.6875 L 67.140625 -2.6875 L 67.140625 -94 L 8.0625 -94 Z M 8.0625 -2.6875 "/>
</symbol>
<symbol overflow="visible" id="oriya-akhn-jnya:id1:glyph0-1">
<path style="stroke:none;" d="M 68.15625 -13.75 L 66.28125 -18.640625 L 88.09375 -27.390625 L 6.984375 -27.390625 L 6.984375 -34 L 88.09375 -34 L 66.28125 -42.75 L 68.15625 -47.640625 L 99.09375 -34.265625 L 99.09375 -27.125 Z M 68.15625 -13.75 "/>
</symbol>
</g>
<g>
<symbol overflow="visible" id="oriya-akhn-jnya:id2:glyph0-0">
<path style="stroke:none;" d="M 90.09375 -78.546875 L 90.09375 0 L 44.875 0 L 44.875 -78.546875 Z M 84.484375 -5.609375 L 84.484375 -72.9375 L 50.484375 -72.9375 L 50.484375 -5.609375 Z M 84.484375 -5.609375 "/>
</symbol>
<symbol overflow="visible" id="oriya-akhn-jnya:id2:glyph0-1">
<path style="stroke:none;" d="M 3.953125 -26.296875 C 3.953125 -29.960938 4.503906 -33.535156 5.609375 -37.015625 C 6.710938 -40.492188 7.992188 -43.519531 9.453125 -46.09375 C 5.785156 -49.757812 3.953125 -54.269531 3.953125 -59.625 C 3.953125 -61.820312 4.242188 -64.09375 4.828125 -66.4375 C 5.421875 -68.78125 6.304688 -70.90625 7.484375 -72.8125 L 14.84375 -70.296875 C 14.039062 -68.679688 13.414062 -67.007812 12.96875 -65.28125 C 12.53125 -63.5625 12.3125 -61.75 12.3125 -59.84375 C 12.3125 -54.707031 14.507812 -50.691406 18.90625 -47.796875 C 23.3125 -44.898438 29.734375 -43.453125 38.171875 -43.453125 C 46.015625 -43.453125 51.878906 -44.753906 55.765625 -47.359375 C 59.648438 -49.960938 61.59375 -53.570312 61.59375 -58.1875 C 61.59375 -60.976562 60.929688 -63.195312 59.609375 -64.84375 C 58.296875 -66.488281 56.613281 -67.3125 54.5625 -67.3125 C 52.4375 -67.3125 50.785156 -66.539062 49.609375 -65 C 48.429688 -63.46875 47.84375 -61.414062 47.84375 -58.84375 L 47.84375 -51.703125 L 41.03125 -51.703125 L 41.03125 -59.40625 C 41.03125 -61.820312 40.390625 -63.742188 39.109375 -65.171875 C 37.828125 -66.597656 36.117188 -67.3125 33.984375 -67.3125 C 31.785156 -67.3125 30.117188 -66.648438 28.984375 -65.328125 C 27.847656 -64.015625 27.28125 -62.222656 27.28125 -59.953125 C 27.28125 -57.898438 27.90625 -55.476562 29.15625 -52.6875 L 22.765625 -51.046875 C 21.816406 -52.878906 21.140625 -54.65625 20.734375 -56.375 C 20.328125 -58.09375 20.125 -59.648438 20.125 -61.046875 C 20.125 -64.785156 21.257812 -67.753906 23.53125 -69.953125 C 25.8125 -72.160156 28.894531 -73.265625 32.78125 -73.265625 C 35.5625 -73.265625 37.925781 -72.710938 39.875 -71.609375 C 41.820312 -70.503906 43.34375 -68.960938 44.4375 -66.984375 C 45.539062 -68.960938 47.082031 -70.503906 49.0625 -71.609375 C 51.039062 -72.710938 53.382812 -73.265625 56.09375 -73.265625 C 60.425781 -73.265625 63.800781 -71.90625 66.21875 -69.1875 C 68.632812 -66.476562 69.84375 -62.882812 69.84375 -58.40625 C 69.84375 -52.394531 67.609375 -47.554688 63.140625 -43.890625 C 65.410156 -43.003906 67.003906 -41.679688 67.921875 -39.921875 C 68.835938 -38.171875 69.40625 -36.414062 69.625 -34.65625 C 69.84375 -32.894531 69.953125 -31.570312 69.953125 -30.6875 L 69.953125 0 L 61.375 0 L 61.375 -29.703125 C 61.375 -35.566406 59.46875 -38.5 55.65625 -38.5 C 51.695312 -38.5 49.71875 -35.566406 49.71875 -29.703125 L 49.71875 -24.203125 C 49.71875 -19.867188 48.597656 -16.421875 46.359375 -13.859375 C 44.128906 -11.296875 40.992188 -10.015625 36.953125 -10.015625 C 34.097656 -10.015625 31.84375 -10.597656 30.1875 -11.765625 C 28.539062 -12.941406 27.316406 -14.484375 26.515625 -16.390625 C 25.628906 -14.484375 24.304688 -12.941406 22.546875 -11.765625 C 20.785156 -10.597656 18.625 -10.015625 16.0625 -10.015625 C 12.175781 -10.015625 9.1875 -11.425781 7.09375 -14.25 C 5 -17.070312 3.953125 -21.085938 3.953125 -26.296875 Z M 11.328125 -26.1875 C 11.328125 -23.101562 11.835938 -20.660156 12.859375 -18.859375 C 13.890625 -17.066406 15.46875 -16.171875 17.59375 -16.171875 C 19.28125 -16.171875 20.617188 -16.863281 21.609375 -18.25 C 22.597656 -19.644531 23.09375 -21.628906 23.09375 -24.203125 L 23.09375 -38.828125 C 20.164062 -39.566406 17.53125 -40.59375 15.1875 -41.90625 C 14.007812 -39.632812 13.070312 -37.066406 12.375 -34.203125 C 11.675781 -31.347656 11.328125 -28.675781 11.328125 -26.1875 Z M 30.46875 -24.203125 C 30.46875 -21.628906 30.976562 -19.644531 32 -18.25 C 33.03125 -16.863281 34.535156 -16.171875 36.515625 -16.171875 C 38.347656 -16.171875 39.796875 -16.847656 40.859375 -18.203125 C 41.921875 -19.554688 42.453125 -21.484375 42.453125 -23.984375 L 42.453125 -37.1875 C 41.066406 -37.101562 39.640625 -37.0625 38.171875 -37.0625 C 35.453125 -37.0625 32.882812 -37.210938 30.46875 -37.515625 Z M 30.46875 -24.203125 "/>
</symbol>
</g>
</defs>
  <g id="oriya-akhn-jnya:id0:id0" transform="matrix(1.25,0,0,1.25,0.0,4.560546875)"><g id="oriya-akhn-jnya:id0:surface1">
<g style="fill:rgb(0%,0%,0%);fill-opacity:1;">
  <use xlink:href="#oriya-akhn-jnya:id0:glyph0-1" x="16" y="119.59375" class="c0"/>
</g>
</g>
</g>
  <g id="oriya-akhn-jnya:id1:id1" transform="matrix(1.25,0,0,1.25,132.40234375,0.0)"><g id="oriya-akhn-jnya:id1:surface1">
<g style="fill:rgb(0%,0%,0%);fill-opacity:1;">
  <use xlink:href="#oriya-akhn-jnya:id1:glyph0-1" x="0" y="120.84375" class="arrow"/>
</g>
</g>
</g>
  <g id="oriya-akhn-jnya:id2:id2" transform="matrix(1.25,0,0,1.25,265.0,4.560546875)"><g id="oriya-akhn-jnya:id2:surface1">
<g style="fill:rgb(0%,0%,0%);fill-opacity:1;">
  <use xlink:href="#oriya-akhn-jnya:id2:glyph0-1" x="16" y="119.59375" class="c0"/>
</g>
</g>
</g>
</svg>