<!DOCTYPE svg PUBLIC "-//W3C//DTD SVG 1.1//EN" "http://www.w3.org/Graphics/SVG/1.1/DTD/svg11.dtd">
<!-- Created with svg_stack (http://github.com/astraw/svg_stack) --><svg xmlns="http://www.w3.org/2000/svg" xmlns:sodipodi="http://sodipodi.sourceforge.net/DTD/sodipodi-0.dtd" xmlns:xlink="http://www.w3.org/1999/xlink" version="1.1" width="100%" id="oriya-matra-decompose" viewBox="0 0 609.98046875 201.40625">
  <defs><g>
<symbol overflow="visible" id="oriya-matra-decompose:id0:glyph0-0">
<path style="stroke:none;" d="M 10.34375 0 L 10.34375 -78.546875 L 55.546875 -78.546875 L 55.546875 0 Z M 15.953125 -5.609375 L 49.9375 -5.609375 L 49.9375 -72.9375 L 15.953125 -72.9375 Z M 15.953125 -5.609375 "/>
</symbol>
<symbol overflow="visible" id="oriya-matra-decompose:id0:glyph0-1">
<path style="stroke:none;" d="M 4.0625 -35.640625 C 4.0625 -43.484375 5.304688 -50.226562 7.796875 -55.875 C 10.296875 -61.519531 13.726562 -65.847656 18.09375 -68.859375 C 22.457031 -71.867188 27.425781 -73.375 33 -73.375 C 36.738281 -73.375 40.09375 -72.785156 43.0625 -71.609375 C 46.03125 -70.429688 48.429688 -69.222656 50.265625 -67.984375 L 46.859375 -61.703125 L 45.65625 -61.703125 C 43.820312 -63.023438 41.691406 -64.109375 39.265625 -64.953125 C 36.847656 -65.796875 34.28125 -66.21875 31.5625 -66.21875 C 25.113281 -66.21875 20.238281 -63.59375 16.9375 -58.34375 C 13.632812 -53.101562 11.984375 -46.007812 11.984375 -37.0625 C 11.984375 -35.382812 12.054688 -33.738281 12.203125 -32.125 C 14.773438 -34.46875 17.691406 -36.375 20.953125 -37.84375 C 24.210938 -39.3125 27.492188 -40.046875 30.796875 -40.046875 C 34.171875 -40.046875 37.320312 -39.253906 40.25 -37.671875 C 43.1875 -36.097656 45.570312 -33.878906 47.40625 -31.015625 C 49.238281 -28.160156 50.15625 -24.71875 50.15625 -20.6875 C 50.15625 -16.789062 49.273438 -13.175781 47.515625 -9.84375 C 45.753906 -6.507812 43.332031 -3.851562 40.25 -1.875 C 37.175781 0.101562 33.660156 1.09375 29.703125 1.09375 C 24.929688 1.09375 20.601562 -0.40625 16.71875 -3.40625 C 12.832031 -6.414062 9.75 -10.671875 7.46875 -16.171875 C 5.195312 -21.671875 4.0625 -28.160156 4.0625 -35.640625 Z M 29.15625 -32.5625 C 26.507812 -32.5625 23.789062 -31.957031 21 -30.75 C 18.21875 -29.539062 15.582031 -27.90625 13.09375 -25.84375 C 14.332031 -19.320312 16.582031 -14.410156 19.84375 -11.109375 C 23.113281 -7.804688 26.691406 -6.15625 30.578125 -6.15625 C 33.878906 -6.15625 36.738281 -7.3125 39.15625 -9.625 C 41.582031 -11.9375 42.796875 -15.109375 42.796875 -19.140625 C 42.796875 -22.078125 42.148438 -24.535156 40.859375 -26.515625 C 39.578125 -28.492188 37.890625 -29.992188 35.796875 -31.015625 C 33.710938 -32.046875 31.5 -32.5625 29.15625 -32.5625 Z M 29.15625 -32.5625 "/>
</symbol>
<symbol overflow="visible" id="oriya-matra-decompose:id0:glyph0-2">
<path style="stroke:none;" d="M 24.859375 -53.453125 C 24.859375 -55.515625 25.882812 -56.546875 27.9375 -56.546875 C 30.132812 -56.546875 31.234375 -55.515625 31.234375 -53.453125 C 31.234375 -51.328125 30.132812 -50.265625 27.9375 -50.265625 C 25.882812 -50.265625 24.859375 -51.328125 24.859375 -53.453125 Z M 42.234375 -44.765625 C 40.109375 -44.765625 39.046875 -45.828125 39.046875 -47.953125 C 39.046875 -50.085938 40.109375 -51.15625 42.234375 -51.15625 C 44.367188 -51.15625 45.4375 -50.085938 45.4375 -47.953125 C 45.4375 -45.828125 44.367188 -44.765625 42.234375 -44.765625 Z M 10.671875 -47.953125 C 10.671875 -50.085938 11.695312 -51.15625 13.75 -51.15625 C 15.875 -51.15625 16.9375 -50.085938 16.9375 -47.953125 C 16.9375 -45.828125 15.875 -44.765625 13.75 -44.765625 C 11.695312 -44.765625 10.671875 -45.828125 10.671875 -47.953125 Z M 5.71875 -34.3125 C 5.71875 -36.375 6.78125 -37.40625 8.90625 -37.40625 C 10.957031 -37.40625 11.984375 -36.375 11.984375 -34.3125 C 11.984375 -32.1875 10.957031 -31.125 8.90625 -31.125 C 6.78125 -31.125 5.71875 -32.1875 5.71875 -34.3125 Z M 44 -34.3125 C 44 -36.375 45.0625 -37.40625 47.1875 -37.40625 C 49.3125 -37.40625 50.375 -36.375 50.375 -34.3125 C 50.375 -32.1875 49.3125 -31.125 47.1875 -31.125 C 45.0625 -31.125 44 -32.1875 44 -34.3125 Z M 10.671875 -20.5625 C 10.671875 -22.695312 11.695312 -23.765625 13.75 -23.765625 C 15.875 -23.765625 16.9375 -22.695312 16.9375 -20.5625 C 16.9375 -18.4375 15.875 -17.375 13.75 -17.375 C 11.695312 -17.375 10.671875 -18.4375 10.671875 -20.5625 Z M 39.046875 -20.5625 C 39.046875 -22.695312 40.109375 -23.765625 42.234375 -23.765625 C 44.367188 -23.765625 45.4375 -22.695312 45.4375 -20.5625 C 45.4375 -18.4375 44.367188 -17.375 42.234375 -17.375 C 40.109375 -17.375 39.046875 -18.4375 39.046875 -20.5625 Z M 24.859375 -15.0625 C 24.859375 -17.195312 25.882812 -18.265625 27.9375 -18.265625 C 30.132812 -18.265625 31.234375 -17.195312 31.234375 -15.0625 C 31.234375 -12.9375 30.132812 -11.875 27.9375 -11.875 C 25.882812 -11.875 24.859375 -12.9375 24.859375 -15.0625 Z M 24.859375 -15.0625 "/>
</symbol>
<symbol overflow="visible" id="oriya-matra-decompose:id0:glyph0-3">
<path style="stroke:none;" d="M 6.703125 -71.5 C 8.765625 -73.84375 10.472656 -76.441406 11.828125 -79.296875 C 13.179688 -82.160156 13.859375 -84.660156 13.859375 -86.796875 C 13.859375 -87.960938 13.546875 -89.003906 12.921875 -89.921875 C 12.296875 -90.835938 11.03125 -91.296875 9.125 -91.296875 C 8.175781 -91.296875 7.1875 -91.203125 6.15625 -91.015625 C 5.132812 -90.835938 4.070312 -90.566406 2.96875 -90.203125 C 2.019531 -89.910156 0.796875 -89.523438 -0.703125 -89.046875 C -2.210938 -88.566406 -4.175781 -87.925781 -6.59375 -87.125 C -8.945312 -86.3125 -11.148438 -85.664062 -13.203125 -85.1875 C -15.253906 -84.71875 -17.34375 -84.484375 -19.46875 -84.484375 C -22.625 -84.484375 -25.519531 -85.160156 -28.15625 -86.515625 C -30.800781 -87.867188 -33.113281 -89.570312 -35.09375 -91.625 L -30.03125 -97.6875 C -27.90625 -95.550781 -25.816406 -94.003906 -23.765625 -93.046875 C -21.710938 -92.097656 -19.65625 -91.625 -17.59375 -91.625 C -15.90625 -91.625 -14.085938 -91.878906 -12.140625 -92.390625 C -10.203125 -92.910156 -7.769531 -93.679688 -4.84375 -94.703125 C -1.613281 -95.878906 1.335938 -96.890625 4.015625 -97.734375 C 6.691406 -98.578125 9.273438 -99 11.765625 -99 C 14.992188 -99 17.34375 -98.023438 18.8125 -96.078125 C 20.28125 -94.140625 21.015625 -91.847656 21.015625 -89.203125 C 21.015625 -86.492188 20.316406 -83.582031 18.921875 -80.46875 C 17.523438 -77.351562 15.910156 -74.617188 14.078125 -72.265625 L 14.078125 -0.765625 L 7.484375 0.765625 L 6.703125 0 Z M 6.703125 -71.5 "/>
</symbol>
</g>
<g>
<symbol overflow="visible" id="oriya-matra-decompose:id1:glyph0-0">
<path style="stroke:none;" d="M 5.375 -96.6875 L 69.828125 -96.6875 L 69.828125 0 L 5.375 0 Z M 8.0625 -2.6875 L 67.140625 -2.6875 L 67.140625 -94 L 8.0625 -94 Z M 8.0625 -2.6875 "/>
</symbol>
<symbol overflow="visible" id="oriya-matra-decompose:id1:glyph0-1">
<path style="stroke:none;" d="M 68.15625 -13.75 L 66.28125 -18.640625 L 88.09375 -27.390625 L 6.984375 -27.390625 L 6.984375 -34 L 88.09375 -34 L 66.28125 -42.75 L 68.15625 -47.640625 L 99.09375 -34.265625 L 99.09375 -27.125 Z M 68.15625 -13.75 "/>
</symbol>
</g>
<g>
<symbol overflow="visible" id="oriya-matra-decompose:id2:glyph0-0">
<path style="stroke:none;" d="M 10.34375 0 L 10.34375 -78.546875 L 55.546875 -78.546875 L 55.546875 0 Z M 15.953125 -5.609375 L 49.9375 -5.609375 L 49.9375 -72.9375 L 15.953125 -72.9375 Z M 15.953125 -5.609375 "/>
</symbol>
<symbol overflow="visible" id="oriya-matra-decompose:id2:glyph0-1">
<path style="stroke:none;" d="M 4.0625 -35.640625 C 4.0625 -43.484375 5.304688 -50.226562 7.796875 -55.875 C 10.296875 -61.519531 13.726562 -65.847656 18.09375 -68.859375 C 22.457031 -71.867188 27.425781 -73.375 33 -73.375 C 36.738281 -73.375 40.09375 -72.785156 43.0625 -71.609375 C 46.03125 -70.429688 48.429688 -69.222656 50.265625 -67.984375 L 46.859375 -61.703125 L 45.65625 -61.703125 C 43.820312 -63.023438 41.691406 -64.109375 39.265625 -64.953125 C 36.847656 -65.796875 34.28125 -66.21875 31.5625 -66.21875 C 25.113281 -66.21875 20.238281 -63.59375 16.9375 -58.34375 C 13.632812 -53.101562 11.984375 -46.007812 11.984375 -37.0625 C 11.984375 -35.382812 12.054688 -33.738281 12.203125 -32.125 C 14.773438 -34.46875 17.691406 -36.375 20.953125 -37.84375 C 24.210938 -39.3125 27.492188 -40.046875 30.796875 -40.046875 C 34.171875 -40.046875 37.320312 -39.253906 40.25 -37.671875 C 43.1875 -36.097656 45.570312 -33.878906 47.40625 -31.015625 C 49.238281 -28.160156 50.15625 -24.71875 50.15625 -20.6875 C 50.15625 -16.789062 49.273438 -13.175781 47.515625 -9.84375 C 45.753906 -6.507812 43.332031 -3.851562 40.25 -1.875 C 37.175781 0.101562 33.660156 1.09375 29.703125 1.09375 C 24.929688 1.09375 20.601562 -0.40625 16.71875 -3.40625 C 12.832031 -6.414062 9.75 -10.671875 7.46875 -16.171875 C 5.195312 -21.671875 4.0625 -28.160156 4.0625 -35.640625 Z M 29.15625 -32.5625 C 26.507812 -32.5625 23.789062 -31.957031 21 -30.75 C 18.21875 -29.539062 15.582031 -27.90625 13.09375 -25.84375 C 14.332031 -19.320312 16.582031 -14.410156 19.84375 -11.109375 C 23.113281 -7.804688 26.691406 -6.15625 30.578125 -6.15625 C 33.878906 -6.15625 36.738281 -7.3125 39.15625 -9.625 C 41.582031 -11.9375 42.796875 -15.109375 42.796875 -19.140625 C 42.796875 -22.078125 42.148438 -24.535156 40.859375 -26.515625 C 39.578125 -28.492188 37.890625 -29.992188 35.796875 -31.015625 C 33.710938 -32.046875 31.5 -32.5625 29.15625 -32.5625 Z M 29.15625 -32.5625 "/>
</symbol>
<symbol overflow="visible" id="oriya-matra-decompose:id2:glyph0-2">
<path style="stroke:none;" d="M 24.859375 -53.453125 C 24.859375 -55.515625 25.882812 -56.546875 27.9375 -56.546875 C 30.132812 -56.546875 31.234375 -55.515625 31.234375 -53.453125 C 31.234375 -51.328125 30.132812 -50.265625 27.9375 -50.265625 C 25.882812 -50.265625 24.859375 -51.328125 24.859375 -53.453125 Z M 42.234375 -44.765625 C 40.109375 -44.765625 39.046875 -45.828125 39.046875 -47.953125 C 39.046875 -50.085938 40.109375 -51.15625 42.234375 -51.15625 C 44.367188 -51.15625 45.4375 -50.085938 45.4375 -47.953125 C 45.4375 -45.828125 44.367188 -44.765625 42.234375 -44.765625 Z M 10.671875 -47.953125 C 10.671875 -50.085938 11.695312 -51.15625 13.75 -51.15625 C 15.875 -51.15625 16.9375 -50.085938 16.9375 -47.953125 C 16.9375 -45.828125 15.875 -44.765625 13.75 -44.765625 C 11.695312 -44.765625 10.671875 -45.828125 10.671875 -47.953125 Z M 5.71875 -34.3125 C 5.71875 -36.375 6.78125 -37.40625 8.90625 -37.40625 C 10.957031 -37.40625 11.984375 -36.375 11.984375 -34.3125 C 11.984375 -32.1875 10.957031 -31.125 8.90625 -31.125 C 6.78125 -31.125 5.71875 -32.1875 5.71875 -34.3125 Z M 44 -34.3125 C 44 -36.375 45.0625 -37.40625 47.1875 -37.40625 C 49.3125 -37.40625 50.375 -36.375 50.375 -34.3125 C 50.375 -32.1875 49.3125 -31.125 47.1875 -31.125 C 45.0625 -31.125 44 -32.1875 44 -34.3125 Z M 10.671875 -20.5625 C 10.671875 -22.695312 11.695312 -23.765625 13.75 -23.765625 C 15.875 -23.765625 16.9375 -22.695312 16.9375 -20.5625 C 16.9375 -18.4375 15.875 -17.375 13.75 -17.375 C 11.695312 -17.375 10.671875 -18.4375 10.671875 -20.5625 Z M 39.046875 -20.5625 C 39.046875 -22.695312 40.109375 -23.765625 42.234375 -23.765625 C 44.367188 -23.765625 45.4375 -22.695312 45.4375 -20.5625 C 45.4375 -18.4375 44.367188 -17.375 42.234375 -17.375 C 40.109375 -17.375 39.046875 -18.4375 39.046875 -20.5625 Z M 24.859375 -15.0625 C 24.859375 -17.195312 25.882812 -18.265625 27.9375 -18.265625 C 30.132812 -18.265625 31.234375 -17.195312 31.234375 -15.0625 C 31.234375 -12.9375 30.132812 -11.875 27.9375 -11.875 C 25.882812 -11.875 24.859375 -12.9375 24.859375 -15.0625 Z M 24.859375 -15.0625 "/>
</symbol>
<symbol overflow="visible" id="oriya-matra-decompose:id2:glyph0-3">
<path style="stroke:none;" d="M 6.703125 -71.5 C 8.765625 -73.84375 10.472656 -76.441406 11.828125 -79.296875 C 13.179688 -82.160156 13.859375 -84.660156 13.859375 -86.796875 C 13.859375 -87.960938 13.546875 -89.003906 12.921875 -89.921875 C 12.296875 -90.835938 11.03125 -91.296875 9.125 -91.296875 C 8.175781 -91.296875 7.1875 -91.203125 6.15625 -91.015625 C 5.132812 -90.835938 4.070312 -90.566406 2.96875 -90.203125 C 2.019531 -89.910156 0.796875 -89.523438 -0.703125 -89.046875 C -2.210938 -88.566406 -4.175781 -87.925781 -6.59375 -87.125 C -8.945312 -86.3125 -11.148438 -85.664062 -13.203125 -85.1875 C -15.253906 -84.71875 -17.34375 -84.484375 -19.46875 -84.484375 C -22.625 -84.484375 -25.519531 -85.160156 -28.15625 -86.515625 C -30.800781 -87.867188 -33.113281 -89.570312 -35.09375 -91.625 L -30.03125 -97.6875 C -27.90625 -95.550781 -25.816406 -94.003906 -23.765625 -93.046875 C -21.710938 -92.097656 -19.65625 -91.625 -17.59375 -91.625 C -15.90625 -91.625 -14.085938 -91.878906 -12.140625 -92.390625 C -10.203125 -92.910156 -7.769531 -93.679688 -4.84375 -94.703125 C -1.613281 -95.878906 1.335938 -96.890625 4.015625 -97.734375 C 6.691406 -98.578125 9.273438 -99 11.765625 -99 C 14.992188 -99 17.34375 -98.023438 18.8125 -96.078125 C 20.28125 -94.140625 21.015625 -91.847656 21.015625 -89.203125 C 21.015625 -86.492188 20.316406 -83.582031 18.921875 -80.46875 C 17.523438 -77.351562 15.910156 -74.617188 14.078125 -72.265625 L 14.078125 -0.765625 L 7.484375 0.765625 L 6.703125 0 Z M 6.703125 -71.5 "/>
</symbol>
</g>
</defs>
  <g id="oriya-matra-decompose:id0:id0" transform="matrix(1.25,0,0,1.25,0.0,1.328125)"><g id="oriya-matra-decompose:id0:surface1">
<g style="fill:rgb(0%,0%,0%);fill-opacity:1;">
  <use xlink:href="#oriya-matra-decompose:id0:glyph0-1" x="16" y="102.875" class="c0"/>
  <use xlink:href="#oriya-matra-decompose:id0:glyph0-2" x="70.015625" y="102.875" class="dc"/>
  <use xlink:href="#oriya-matra-decompose:id0:glyph0-3" x="126.109375" y="102.875" class="c0"/>
</g>
</g>
</g>
  <g id="oriya-matra-decompose:id1:id1" transform="matrix(1.25,0,0,1.25,203.6328125,0.0)"><g id="oriya-matra-decompose:id1:surface1">
<g style="fill:rgb(0%,0%,0%);fill-opacity:1;">
  <use xlink:href="#oriya-matra-decompose:id1:glyph0-1" x="0" y="120.84375" class="arrow"/>
</g>
</g>
</g>
  <g id="oriya-matra-decompose:id2:id2" transform="matrix(1.25,0,0,1.25,336.23046875,1.328125)"><g id="oriya-matra-decompose:id2:surface1">
<g style="fill:rgb(0%,0%,0%);fill-opacity:1;">
  <use xlink:href="#oriya-matra-decompose:id2:glyph0-1" x="16" y="102.875" class="c1"/>
  <use xlink:href="#oriya-matra-decompose:id2:glyph0-2" x="70.015625" y="102.875" class="dc"/>
  <use xlink:href="#oriya-matra-decompose:id2:glyph0-2" x="126.109375" y="102.875" class="dc"/>
  <use xlink:href="#oriya-matra-decompose:id2:glyph0-3" x="182.203125" y="102.875" class="c2"/>
</g>
</g>
</g>
</svg>
