<?xml version="1.0" standalone="no"?>
<!DOCTYPE svg PUBLIC "-//W3C//DTD SVG 1.1//EN"
 "http://www.w3.org/Graphics/SVG/1.1/DTD/svg11.dtd">
<!-- Created with svg_stack (http://github.com/astraw/svg_stack) -->
<svg xmlns="http://www.w3.org/2000/svg" xmlns:sodipodi="http://sodipodi.sourceforge.net/DTD/sodipodi-0.dtd" xmlns:xlink="http://www.w3.org/1999/xlink" version="1.1" width="462.28515625" height="201.40625">
  <defs><g>
<symbol overflow="visible" id="id0:glyph0-0">
<path style="stroke:none;" d="M 10.34375 0 L 10.34375 -78.546875 L 55.546875 -78.546875 L 55.546875 0 Z M 15.953125 -5.609375 L 49.9375 -5.609375 L 49.9375 -72.9375 L 15.953125 -72.9375 Z M 15.953125 -5.609375 "/>
</symbol>
<symbol overflow="visible" id="id0:glyph0-1">
<path style="stroke:none;" d="M 12.765625 -17.375 C 12.765625 -20.382812 13.347656 -23.207031 14.515625 -25.84375 C 10.992188 -28.5625 8.28125 -31.828125 6.375 -35.640625 C 4.46875 -39.453125 3.515625 -43.484375 3.515625 -47.734375 C 3.515625 -51.992188 4.597656 -56.082031 6.765625 -60 C 8.929688 -63.925781 12.210938 -67.132812 16.609375 -69.625 C 21.003906 -72.125 26.46875 -73.375 33 -73.375 C 35.5625 -73.375 38.035156 -73.1875 40.421875 -72.8125 C 42.804688 -72.445312 44.734375 -71.972656 46.203125 -71.390625 L 46.203125 -69.84375 C 41.210938 -64.863281 38.71875 -60.28125 38.71875 -56.09375 C 38.71875 -53.894531 39.429688 -52.191406 40.859375 -50.984375 C 42.296875 -49.773438 44.113281 -49.171875 46.3125 -49.171875 C 49.539062 -49.171875 52.144531 -50.398438 54.125 -52.859375 C 56.101562 -55.316406 57.3125 -58.671875 57.75 -62.921875 L 57.75 -71.5 L 64.34375 -73.046875 L 65.125 -72.265625 L 65.125 -0.765625 L 58.515625 0.765625 L 57.75 0 L 57.75 -49.390625 C 56.207031 -47.046875 54.316406 -45.226562 52.078125 -43.9375 C 49.847656 -42.65625 47.335938 -42.015625 44.546875 -42.015625 C 40.585938 -42.015625 37.394531 -43.1875 34.96875 -45.53125 C 32.550781 -47.882812 31.34375 -50.859375 31.34375 -54.453125 C 31.34375 -58.265625 33.03125 -62.078125 36.40625 -65.890625 C 34.71875 -66.035156 33.21875 -66.109375 31.90625 -66.109375 C 26.988281 -66.109375 22.988281 -65.265625 19.90625 -63.578125 C 16.832031 -61.890625 14.578125 -59.757812 13.140625 -57.1875 C 11.710938 -54.625 11 -52.023438 11 -49.390625 C 11 -45.648438 11.84375 -42.421875 13.53125 -39.703125 C 15.21875 -36.992188 17.34375 -34.757812 19.90625 -33 C 21.445312 -34.320312 23.171875 -35.328125 25.078125 -36.015625 C 26.984375 -36.710938 29.035156 -37.0625 31.234375 -37.0625 C 34.535156 -37.0625 37.503906 -36.253906 40.140625 -34.640625 C 42.785156 -33.035156 44.859375 -30.835938 46.359375 -28.046875 C 47.867188 -25.265625 48.625 -22.113281 48.625 -18.59375 C 48.625 -14.925781 47.816406 -11.609375 46.203125 -8.640625 C 44.585938 -5.671875 42.382812 -3.304688 39.59375 -1.546875 C 36.8125 0.210938 33.660156 1.09375 30.140625 1.09375 C 26.835938 1.09375 23.882812 0.289062 21.28125 -1.3125 C 18.675781 -2.925781 16.601562 -5.109375 15.0625 -7.859375 C 13.53125 -10.609375 12.765625 -13.78125 12.765625 -17.375 Z M 19.6875 -20.34375 C 19.6875 -17.488281 20.289062 -14.941406 21.5 -12.703125 C 22.707031 -10.460938 24.285156 -8.703125 26.234375 -7.421875 C 28.179688 -6.140625 30.253906 -5.5 32.453125 -5.5 C 35.378906 -5.5 37.648438 -6.46875 39.265625 -8.40625 C 40.878906 -10.351562 41.6875 -12.796875 41.6875 -15.734375 C 41.6875 -18.585938 41.082031 -21.132812 39.875 -23.375 C 38.664062 -25.613281 37.109375 -27.375 35.203125 -28.65625 C 33.296875 -29.9375 31.207031 -30.578125 28.9375 -30.578125 C 26 -30.578125 23.722656 -29.601562 22.109375 -27.65625 C 20.492188 -25.71875 19.6875 -23.28125 19.6875 -20.34375 Z M 19.6875 -20.34375 "/>
</symbol>
<symbol overflow="visible" id="id0:glyph0-2">
<path style="stroke:none;" d="M 24.859375 -53.453125 C 24.859375 -55.515625 25.882812 -56.546875 27.9375 -56.546875 C 30.132812 -56.546875 31.234375 -55.515625 31.234375 -53.453125 C 31.234375 -51.328125 30.132812 -50.265625 27.9375 -50.265625 C 25.882812 -50.265625 24.859375 -51.328125 24.859375 -53.453125 Z M 42.234375 -44.765625 C 40.109375 -44.765625 39.046875 -45.828125 39.046875 -47.953125 C 39.046875 -50.085938 40.109375 -51.15625 42.234375 -51.15625 C 44.367188 -51.15625 45.4375 -50.085938 45.4375 -47.953125 C 45.4375 -45.828125 44.367188 -44.765625 42.234375 -44.765625 Z M 10.671875 -47.953125 C 10.671875 -50.085938 11.695312 -51.15625 13.75 -51.15625 C 15.875 -51.15625 16.9375 -50.085938 16.9375 -47.953125 C 16.9375 -45.828125 15.875 -44.765625 13.75 -44.765625 C 11.695312 -44.765625 10.671875 -45.828125 10.671875 -47.953125 Z M 5.71875 -34.3125 C 5.71875 -36.375 6.78125 -37.40625 8.90625 -37.40625 C 10.957031 -37.40625 11.984375 -36.375 11.984375 -34.3125 C 11.984375 -32.1875 10.957031 -31.125 8.90625 -31.125 C 6.78125 -31.125 5.71875 -32.1875 5.71875 -34.3125 Z M 44 -34.3125 C 44 -36.375 45.0625 -37.40625 47.1875 -37.40625 C 49.3125 -37.40625 50.375 -36.375 50.375 -34.3125 C 50.375 -32.1875 49.3125 -31.125 47.1875 -31.125 C 45.0625 -31.125 44 -32.1875 44 -34.3125 Z M 10.671875 -20.5625 C 10.671875 -22.695312 11.695312 -23.765625 13.75 -23.765625 C 15.875 -23.765625 16.9375 -22.695312 16.9375 -20.5625 C 16.9375 -18.4375 15.875 -17.375 13.75 -17.375 C 11.695312 -17.375 10.671875 -18.4375 10.671875 -20.5625 Z M 39.046875 -20.5625 C 39.046875 -22.695312 40.109375 -23.765625 42.234375 -23.765625 C 44.367188 -23.765625 45.4375 -22.695312 45.4375 -20.5625 C 45.4375 -18.4375 44.367188 -17.375 42.234375 -17.375 C 40.109375 -17.375 39.046875 -18.4375 39.046875 -20.5625 Z M 24.859375 -15.0625 C 24.859375 -17.195312 25.882812 -18.265625 27.9375 -18.265625 C 30.132812 -18.265625 31.234375 -17.195312 31.234375 -15.0625 C 31.234375 -12.9375 30.132812 -11.875 27.9375 -11.875 C 25.882812 -11.875 24.859375 -12.9375 24.859375 -15.0625 Z M 24.859375 -15.0625 "/>
</symbol>
<symbol overflow="visible" id="id0:glyph0-3">
<path style="stroke:none;" d="M -38.0625 16.5 L -31.5625 9.5625 C -30.46875 10.519531 -29.367188 11.492188 -28.265625 12.484375 C -27.171875 13.472656 -26.035156 14.59375 -24.859375 15.84375 L -31.125 22.765625 C -33.332031 20.347656 -35.644531 18.257812 -38.0625 16.5 Z M -38.0625 16.5 "/>
</symbol>
</g>
<g>
<symbol overflow="visible" id="id1:glyph0-0">
<path style="stroke:none;" d="M 5.375 -96.6875 L 69.828125 -96.6875 L 69.828125 0 L 5.375 0 Z M 8.0625 -2.6875 L 67.140625 -2.6875 L 67.140625 -94 L 8.0625 -94 Z M 8.0625 -2.6875 "/>
</symbol>
<symbol overflow="visible" id="id1:glyph0-1">
<path style="stroke:none;" d="M 68.15625 -13.75 L 66.28125 -18.640625 L 88.09375 -27.390625 L 6.984375 -27.390625 L 6.984375 -34 L 88.09375 -34 L 66.28125 -42.75 L 68.15625 -47.640625 L 99.09375 -34.265625 L 99.09375 -27.125 Z M 68.15625 -13.75 "/>
</symbol>
</g>
<g>
<symbol overflow="visible" id="id2:glyph0-0">
<path style="stroke:none;" d="M 10.34375 0 L 10.34375 -78.546875 L 55.546875 -78.546875 L 55.546875 0 Z M 15.953125 -5.609375 L 49.9375 -5.609375 L 49.9375 -72.9375 L 15.953125 -72.9375 Z M 15.953125 -5.609375 "/>
</symbol>
<symbol overflow="visible" id="id2:glyph0-1">
<path style="stroke:none;" d="M 12.765625 -17.375 C 12.765625 -20.382812 13.347656 -23.207031 14.515625 -25.84375 C 10.992188 -28.5625 8.28125 -31.828125 6.375 -35.640625 C 4.46875 -39.453125 3.515625 -43.484375 3.515625 -47.734375 C 3.515625 -51.992188 4.597656 -56.082031 6.765625 -60 C 8.929688 -63.925781 12.210938 -67.132812 16.609375 -69.625 C 21.003906 -72.125 26.46875 -73.375 33 -73.375 C 35.5625 -73.375 38.035156 -73.1875 40.421875 -72.8125 C 42.804688 -72.445312 44.734375 -71.972656 46.203125 -71.390625 L 46.203125 -69.84375 C 41.210938 -64.863281 38.71875 -60.28125 38.71875 -56.09375 C 38.71875 -53.894531 39.429688 -52.191406 40.859375 -50.984375 C 42.296875 -49.773438 44.113281 -49.171875 46.3125 -49.171875 C 49.539062 -49.171875 52.144531 -50.398438 54.125 -52.859375 C 56.101562 -55.316406 57.3125 -58.671875 57.75 -62.921875 L 57.75 -71.5 L 64.34375 -73.046875 L 65.125 -72.265625 L 65.125 -0.765625 L 58.515625 0.765625 L 57.75 0 L 57.75 -49.390625 C 56.207031 -47.046875 54.316406 -45.226562 52.078125 -43.9375 C 49.847656 -42.65625 47.335938 -42.015625 44.546875 -42.015625 C 40.585938 -42.015625 37.394531 -43.1875 34.96875 -45.53125 C 32.550781 -47.882812 31.34375 -50.859375 31.34375 -54.453125 C 31.34375 -58.265625 33.03125 -62.078125 36.40625 -65.890625 C 34.71875 -66.035156 33.21875 -66.109375 31.90625 -66.109375 C 26.988281 -66.109375 22.988281 -65.265625 19.90625 -63.578125 C 16.832031 -61.890625 14.578125 -59.757812 13.140625 -57.1875 C 11.710938 -54.625 11 -52.023438 11 -49.390625 C 11 -45.648438 11.84375 -42.421875 13.53125 -39.703125 C 15.21875 -36.992188 17.34375 -34.757812 19.90625 -33 C 21.445312 -34.320312 23.171875 -35.328125 25.078125 -36.015625 C 26.984375 -36.710938 29.035156 -37.0625 31.234375 -37.0625 C 34.535156 -37.0625 37.503906 -36.253906 40.140625 -34.640625 C 42.785156 -33.035156 44.859375 -30.835938 46.359375 -28.046875 C 47.867188 -25.265625 48.625 -22.113281 48.625 -18.59375 C 48.625 -14.925781 47.816406 -11.609375 46.203125 -8.640625 C 44.585938 -5.671875 42.382812 -3.304688 39.59375 -1.546875 C 36.8125 0.210938 33.660156 1.09375 30.140625 1.09375 C 26.835938 1.09375 23.882812 0.289062 21.28125 -1.3125 C 18.675781 -2.925781 16.601562 -5.109375 15.0625 -7.859375 C 13.53125 -10.609375 12.765625 -13.78125 12.765625 -17.375 Z M 19.6875 -20.34375 C 19.6875 -17.488281 20.289062 -14.941406 21.5 -12.703125 C 22.707031 -10.460938 24.285156 -8.703125 26.234375 -7.421875 C 28.179688 -6.140625 30.253906 -5.5 32.453125 -5.5 C 35.378906 -5.5 37.648438 -6.46875 39.265625 -8.40625 C 40.878906 -10.351562 41.6875 -12.796875 41.6875 -15.734375 C 41.6875 -18.585938 41.082031 -21.132812 39.875 -23.375 C 38.664062 -25.613281 37.109375 -27.375 35.203125 -28.65625 C 33.296875 -29.9375 31.207031 -30.578125 28.9375 -30.578125 C 26 -30.578125 23.722656 -29.601562 22.109375 -27.65625 C 20.492188 -25.71875 19.6875 -23.28125 19.6875 -20.34375 Z M 25.1875 16.5 L 31.6875 9.5625 C 32.78125 10.519531 33.875 11.492188 34.96875 12.484375 C 36.070312 13.472656 37.210938 14.59375 38.390625 15.84375 L 32.125 22.765625 C 29.914062 20.347656 27.601562 18.257812 25.1875 16.5 Z M 25.1875 16.5 "/>
</symbol>
</g>
</defs>
  <g id="id0:id0" transform="matrix(1.25,0,0,1.25,0.0,1.328125)"><g id="id0:surface1">
<g style="fill:rgb(0%,0%,0%);fill-opacity:1;">
  <use xlink:href="#id0:glyph0-1" x="16" y="102.875"/>
  <use xlink:href="#id0:glyph0-2" x="87.828125" y="102.875"/>
  <use xlink:href="#id0:glyph0-3" x="143.921875" y="102.875"/>
</g>
</g>
</g>
  <g id="id1:id1" transform="matrix(1.25,0,0,1.25,199.90234375,0.0)"><g id="id1:surface1">
<g style="fill:rgb(0%,0%,0%);fill-opacity:1;">
  <use xlink:href="#id1:glyph0-1" x="0" y="120.84375"/>
</g>
</g>
</g>
  <g id="id2:id2" transform="matrix(1.25,0,0,1.25,332.5,1.328125)"><g id="id2:surface1">
<g style="fill:rgb(0%,0%,0%);fill-opacity:1;">
  <use xlink:href="#id2:glyph0-1" x="16" y="102.875"/>
</g>
</g>
</g>
</svg>
