<!DOCTYPE svg PUBLIC "-//W3C//DTD SVG 1.1//EN" "http://www.w3.org/Graphics/SVG/1.1/DTD/svg11.dtd">
<!-- Created with svg_stack (http://github.com/astraw/svg_stack) --><svg xmlns="http://www.w3.org/2000/svg" xmlns:sodipodi="http://sodipodi.sourceforge.net/DTD/sodipodi-0.dtd" xmlns:xlink="http://www.w3.org/1999/xlink" version="1.1" width="606.66015625" height="201.40625" id="oriya-abvm">
  <defs><g>
<symbol overflow="visible" id="oriya-abvm:id0:glyph0-0">
<path style="stroke:none;" d="M 90.09375 -78.546875 L 90.09375 0 L 44.875 0 L 44.875 -78.546875 Z M 84.484375 -5.609375 L 84.484375 -72.9375 L 50.484375 -72.9375 L 50.484375 -5.609375 Z M 84.484375 -5.609375 "/>
</symbol>
<symbol overflow="visible" id="oriya-abvm:id0:glyph0-1">
<path style="stroke:none;" d="M 53.015625 -19.46875 C 53.015625 -13.53125 51.144531 -8.65625 47.40625 -4.84375 C 43.664062 -1.03125 38.382812 0.875 31.5625 0.875 C 22.988281 0.875 16.242188 -2.179688 11.328125 -8.296875 C 6.410156 -14.421875 3.953125 -23.019531 3.953125 -34.09375 C 3.953125 -42.75 5.457031 -49.988281 8.46875 -55.8125 C 11.476562 -61.644531 15.601562 -66.007812 20.84375 -68.90625 C 26.082031 -71.8125 32.003906 -73.265625 38.609375 -73.265625 C 41.617188 -73.265625 44.609375 -72.953125 47.578125 -72.328125 C 50.546875 -71.703125 53.3125 -70.726562 55.875 -69.40625 L 52.578125 -62.046875 C 48.398438 -64.171875 43.742188 -65.234375 38.609375 -65.234375 C 31.347656 -65.234375 25.5 -62.921875 21.0625 -58.296875 C 16.625 -53.679688 13.96875 -47.410156 13.09375 -39.484375 C 18.300781 -40.660156 23.03125 -41.25 27.28125 -41.25 C 35.050781 -41.25 41.28125 -39.304688 45.96875 -35.421875 C 50.664062 -31.535156 53.015625 -26.21875 53.015625 -19.46875 Z M 26.40625 -33.546875 C 24.5 -33.546875 22.367188 -33.378906 20.015625 -33.046875 C 17.671875 -32.722656 15.253906 -32.269531 12.765625 -31.6875 C 13.054688 -24.269531 14.722656 -18.34375 17.765625 -13.90625 C 20.804688 -9.476562 25.257812 -7.265625 31.125 -7.265625 C 35.082031 -7.265625 38.253906 -8.34375 40.640625 -10.5 C 43.023438 -12.664062 44.21875 -15.617188 44.21875 -19.359375 C 44.21875 -23.609375 42.625 -27.035156 39.4375 -29.640625 C 36.25 -32.242188 31.90625 -33.546875 26.40625 -33.546875 Z M 26.40625 -33.546875 "/>
</symbol>
<symbol overflow="visible" id="oriya-abvm:id0:glyph0-2">
<path style="stroke:none;" d="M 31.015625 -5.71875 C 27.566406 -5.71875 24.539062 -6.523438 21.9375 -8.140625 C 19.34375 -9.753906 17.347656 -11.898438 15.953125 -14.578125 C 14.554688 -17.253906 13.859375 -20.207031 13.859375 -23.4375 C 13.859375 -23.875 13.859375 -24.3125 13.859375 -24.75 C 10.410156 -27.457031 7.820312 -30.609375 6.09375 -34.203125 C 4.375 -37.796875 3.515625 -41.613281 3.515625 -45.65625 C 3.515625 -51.007812 4.941406 -55.773438 7.796875 -59.953125 C 10.660156 -64.128906 14.566406 -67.390625 19.515625 -69.734375 C 24.472656 -72.085938 30.140625 -73.265625 36.515625 -73.265625 C 42.535156 -73.265625 48.164062 -72.160156 53.40625 -69.953125 C 58.644531 -67.753906 62.988281 -64.566406 66.4375 -60.390625 L 66.109375 -72.375 L 74.6875 -72.375 L 74.6875 -63.46875 C 77.257812 -65.59375 80.300781 -66.65625 83.8125 -66.65625 C 88 -66.65625 91.375 -65.222656 93.9375 -62.359375 C 96.507812 -59.503906 97.796875 -55.914062 97.796875 -51.59375 C 97.796875 -47.332031 96.53125 -43.769531 94 -40.90625 C 91.46875 -38.050781 88.113281 -36.625 83.9375 -36.625 C 80.34375 -36.625 77.257812 -37.648438 74.6875 -39.703125 L 74.6875 0 L 66.109375 0 L 66.4375 -4.625 C 65.1875 -2.789062 63.679688 -1.414062 61.921875 -0.5 C 60.171875 0.414062 58.34375 0.875 56.4375 0.875 C 53.351562 0.875 50.582031 -0.148438 48.125 -2.203125 C 45.664062 -4.253906 44.179688 -7.222656 43.671875 -11.109375 C 42.203125 -9.347656 40.347656 -8.007812 38.109375 -7.09375 C 35.878906 -6.175781 33.515625 -5.71875 31.015625 -5.71875 Z M 48.953125 -17.8125 C 48.953125 -14.300781 49.796875 -11.5 51.484375 -9.40625 C 53.171875 -7.3125 55.296875 -6.265625 57.859375 -6.265625 C 60.128906 -6.265625 62.070312 -7.085938 63.6875 -8.734375 C 65.300781 -10.390625 66.109375 -12.867188 66.109375 -16.171875 L 66.109375 -46.09375 C 64.929688 -50.269531 62.910156 -53.804688 60.046875 -56.703125 C 57.191406 -59.597656 53.800781 -61.796875 49.875 -63.296875 C 45.957031 -64.804688 41.835938 -65.5625 37.515625 -65.5625 C 32.597656 -65.5625 28.195312 -64.660156 24.3125 -62.859375 C 20.425781 -61.066406 17.34375 -58.59375 15.0625 -55.4375 C 12.789062 -52.28125 11.65625 -48.6875 11.65625 -44.65625 C 11.65625 -40.1875 13.050781 -36.117188 15.84375 -32.453125 C 17.238281 -35.523438 19.382812 -38.378906 22.28125 -41.015625 C 25.175781 -43.660156 28.859375 -45.863281 33.328125 -47.625 L 35.96875 -41.46875 C 31.125 -39.414062 27.546875 -36.789062 25.234375 -33.59375 C 22.929688 -30.40625 21.78125 -27.203125 21.78125 -23.984375 C 21.78125 -20.972656 22.675781 -18.367188 24.46875 -16.171875 C 26.269531 -13.972656 28.75 -12.875 31.90625 -12.875 C 34.46875 -12.875 36.773438 -13.734375 38.828125 -15.453125 C 40.878906 -17.179688 41.90625 -19.953125 41.90625 -23.765625 L 41.90625 -25.734375 L 48.953125 -25.734375 Z M 82.828125 -60.609375 C 80.628906 -60.609375 78.722656 -59.816406 77.109375 -58.234375 C 75.492188 -56.660156 74.6875 -54.410156 74.6875 -51.484375 C 74.6875 -48.546875 75.492188 -46.34375 77.109375 -44.875 C 78.722656 -43.414062 80.628906 -42.6875 82.828125 -42.6875 C 85.398438 -42.6875 87.363281 -43.582031 88.71875 -45.375 C 90.070312 -47.164062 90.75 -49.238281 90.75 -51.59375 C 90.75 -53.9375 90.070312 -56.023438 88.71875 -57.859375 C 87.363281 -59.691406 85.398438 -60.609375 82.828125 -60.609375 Z M 82.828125 -60.609375 "/>
</symbol>
<symbol overflow="visible" id="oriya-abvm:id0:glyph0-3">
<path style="stroke:none;" d="M 55.4375 -77.875 C 56.175781 -79.78125 56.546875 -81.539062 56.546875 -83.15625 C 56.546875 -85.351562 55.863281 -87.1875 54.5 -88.65625 C 53.144531 -90.125 51.039062 -90.859375 48.1875 -90.859375 C 45.539062 -90.859375 42.585938 -90.328125 39.328125 -89.265625 C 36.066406 -88.203125 32.65625 -87.117188 29.09375 -86.015625 C 25.539062 -84.921875 22.003906 -84.375 18.484375 -84.375 C 15.546875 -84.375 12.570312 -85.03125 9.5625 -86.34375 C 6.5625 -87.664062 4.21875 -90.160156 2.53125 -93.828125 L 9.796875 -98.34375 C 10.960938 -96.21875 12.40625 -94.710938 14.125 -93.828125 C 15.851562 -92.953125 17.707031 -92.515625 19.6875 -92.515625 C 21.59375 -92.515625 23.753906 -92.820312 26.171875 -93.4375 C 28.597656 -94.0625 31.164062 -94.8125 33.875 -95.6875 C 36.59375 -96.570312 39.328125 -97.328125 42.078125 -97.953125 C 44.828125 -98.578125 47.484375 -98.890625 50.046875 -98.890625 C 55.109375 -98.890625 58.90625 -97.515625 61.4375 -94.765625 C 63.96875 -92.015625 65.234375 -88.734375 65.234375 -84.921875 C 65.234375 -81.910156 64.570312 -78.976562 63.25 -76.125 Z M 55.4375 -77.875 "/>
</symbol>
</g>
<g>
<symbol overflow="visible" id="oriya-abvm:id1:glyph0-0">
<path style="stroke:none;" d="M 5.375 -96.6875 L 69.828125 -96.6875 L 69.828125 0 L 5.375 0 Z M 8.0625 -2.6875 L 67.140625 -2.6875 L 67.140625 -94 L 8.0625 -94 Z M 8.0625 -2.6875 "/>
</symbol>
<symbol overflow="visible" id="oriya-abvm:id1:glyph0-1">
<path style="stroke:none;" d="M 68.15625 -13.75 L 66.28125 -18.640625 L 88.09375 -27.390625 L 6.984375 -27.390625 L 6.984375 -34 L 88.09375 -34 L 66.28125 -42.75 L 68.15625 -47.640625 L 99.09375 -34.265625 L 99.09375 -27.125 Z M 68.15625 -13.75 "/>
</symbol>
</g>
<g>
<symbol overflow="visible" id="oriya-abvm:id2:glyph0-0">
<path style="stroke:none;" d="M 90.09375 -78.546875 L 90.09375 0 L 44.875 0 L 44.875 -78.546875 Z M 84.484375 -5.609375 L 84.484375 -72.9375 L 50.484375 -72.9375 L 50.484375 -5.609375 Z M 84.484375 -5.609375 "/>
</symbol>
<symbol overflow="visible" id="oriya-abvm:id2:glyph0-1">
<path style="stroke:none;" d="M 53.015625 -19.46875 C 53.015625 -13.53125 51.144531 -8.65625 47.40625 -4.84375 C 43.664062 -1.03125 38.382812 0.875 31.5625 0.875 C 22.988281 0.875 16.242188 -2.179688 11.328125 -8.296875 C 6.410156 -14.421875 3.953125 -23.019531 3.953125 -34.09375 C 3.953125 -42.75 5.457031 -49.988281 8.46875 -55.8125 C 11.476562 -61.644531 15.601562 -66.007812 20.84375 -68.90625 C 26.082031 -71.8125 32.003906 -73.265625 38.609375 -73.265625 C 41.617188 -73.265625 44.609375 -72.953125 47.578125 -72.328125 C 50.546875 -71.703125 53.3125 -70.726562 55.875 -69.40625 L 52.578125 -62.046875 C 48.398438 -64.171875 43.742188 -65.234375 38.609375 -65.234375 C 31.347656 -65.234375 25.5 -62.921875 21.0625 -58.296875 C 16.625 -53.679688 13.96875 -47.410156 13.09375 -39.484375 C 18.300781 -40.660156 23.03125 -41.25 27.28125 -41.25 C 35.050781 -41.25 41.28125 -39.304688 45.96875 -35.421875 C 50.664062 -31.535156 53.015625 -26.21875 53.015625 -19.46875 Z M 26.40625 -33.546875 C 24.5 -33.546875 22.367188 -33.378906 20.015625 -33.046875 C 17.671875 -32.722656 15.253906 -32.269531 12.765625 -31.6875 C 13.054688 -24.269531 14.722656 -18.34375 17.765625 -13.90625 C 20.804688 -9.476562 25.257812 -7.265625 31.125 -7.265625 C 35.082031 -7.265625 38.253906 -8.34375 40.640625 -10.5 C 43.023438 -12.664062 44.21875 -15.617188 44.21875 -19.359375 C 44.21875 -23.609375 42.625 -27.035156 39.4375 -29.640625 C 36.25 -32.242188 31.90625 -33.546875 26.40625 -33.546875 Z M 26.40625 -33.546875 "/>
</symbol>
<symbol overflow="visible" id="oriya-abvm:id2:glyph0-2">
<path style="stroke:none;" d="M 31.015625 -5.71875 C 27.566406 -5.71875 24.539062 -6.523438 21.9375 -8.140625 C 19.34375 -9.753906 17.347656 -11.898438 15.953125 -14.578125 C 14.554688 -17.253906 13.859375 -20.207031 13.859375 -23.4375 C 13.859375 -23.875 13.859375 -24.3125 13.859375 -24.75 C 10.410156 -27.457031 7.820312 -30.609375 6.09375 -34.203125 C 4.375 -37.796875 3.515625 -41.613281 3.515625 -45.65625 C 3.515625 -51.007812 4.941406 -55.773438 7.796875 -59.953125 C 10.660156 -64.128906 14.566406 -67.390625 19.515625 -69.734375 C 24.472656 -72.085938 30.140625 -73.265625 36.515625 -73.265625 C 42.535156 -73.265625 48.164062 -72.160156 53.40625 -69.953125 C 58.644531 -67.753906 62.988281 -64.566406 66.4375 -60.390625 L 66.109375 -72.375 L 74.6875 -72.375 L 74.6875 -63.46875 C 77.257812 -65.59375 80.300781 -66.65625 83.8125 -66.65625 C 88 -66.65625 91.375 -65.222656 93.9375 -62.359375 C 96.507812 -59.503906 97.796875 -55.914062 97.796875 -51.59375 C 97.796875 -47.332031 96.53125 -43.769531 94 -40.90625 C 91.46875 -38.050781 88.113281 -36.625 83.9375 -36.625 C 80.34375 -36.625 77.257812 -37.648438 74.6875 -39.703125 L 74.6875 0 L 66.109375 0 L 66.4375 -4.625 C 65.1875 -2.789062 63.679688 -1.414062 61.921875 -0.5 C 60.171875 0.414062 58.34375 0.875 56.4375 0.875 C 53.351562 0.875 50.582031 -0.148438 48.125 -2.203125 C 45.664062 -4.253906 44.179688 -7.222656 43.671875 -11.109375 C 42.203125 -9.347656 40.347656 -8.007812 38.109375 -7.09375 C 35.878906 -6.175781 33.515625 -5.71875 31.015625 -5.71875 Z M 48.953125 -17.8125 C 48.953125 -14.300781 49.796875 -11.5 51.484375 -9.40625 C 53.171875 -7.3125 55.296875 -6.265625 57.859375 -6.265625 C 60.128906 -6.265625 62.070312 -7.085938 63.6875 -8.734375 C 65.300781 -10.390625 66.109375 -12.867188 66.109375 -16.171875 L 66.109375 -46.09375 C 64.929688 -50.269531 62.910156 -53.804688 60.046875 -56.703125 C 57.191406 -59.597656 53.800781 -61.796875 49.875 -63.296875 C 45.957031 -64.804688 41.835938 -65.5625 37.515625 -65.5625 C 32.597656 -65.5625 28.195312 -64.660156 24.3125 -62.859375 C 20.425781 -61.066406 17.34375 -58.59375 15.0625 -55.4375 C 12.789062 -52.28125 11.65625 -48.6875 11.65625 -44.65625 C 11.65625 -40.1875 13.050781 -36.117188 15.84375 -32.453125 C 17.238281 -35.523438 19.382812 -38.378906 22.28125 -41.015625 C 25.175781 -43.660156 28.859375 -45.863281 33.328125 -47.625 L 35.96875 -41.46875 C 31.125 -39.414062 27.546875 -36.789062 25.234375 -33.59375 C 22.929688 -30.40625 21.78125 -27.203125 21.78125 -23.984375 C 21.78125 -20.972656 22.675781 -18.367188 24.46875 -16.171875 C 26.269531 -13.972656 28.75 -12.875 31.90625 -12.875 C 34.46875 -12.875 36.773438 -13.734375 38.828125 -15.453125 C 40.878906 -17.179688 41.90625 -19.953125 41.90625 -23.765625 L 41.90625 -25.734375 L 48.953125 -25.734375 Z M 82.828125 -60.609375 C 80.628906 -60.609375 78.722656 -59.816406 77.109375 -58.234375 C 75.492188 -56.660156 74.6875 -54.410156 74.6875 -51.484375 C 74.6875 -48.546875 75.492188 -46.34375 77.109375 -44.875 C 78.722656 -43.414062 80.628906 -42.6875 82.828125 -42.6875 C 85.398438 -42.6875 87.363281 -43.582031 88.71875 -45.375 C 90.070312 -47.164062 90.75 -49.238281 90.75 -51.59375 C 90.75 -53.9375 90.070312 -56.023438 88.71875 -57.859375 C 87.363281 -59.691406 85.398438 -60.609375 82.828125 -60.609375 Z M 82.828125 -60.609375 "/>
</symbol>
<symbol overflow="visible" id="oriya-abvm:id2:glyph0-3">
<path style="stroke:none;" d="M 55.4375 -77.875 C 56.175781 -79.78125 56.546875 -81.539062 56.546875 -83.15625 C 56.546875 -85.351562 55.863281 -87.1875 54.5 -88.65625 C 53.144531 -90.125 51.039062 -90.859375 48.1875 -90.859375 C 45.539062 -90.859375 42.585938 -90.328125 39.328125 -89.265625 C 36.066406 -88.203125 32.65625 -87.117188 29.09375 -86.015625 C 25.539062 -84.921875 22.003906 -84.375 18.484375 -84.375 C 15.546875 -84.375 12.570312 -85.03125 9.5625 -86.34375 C 6.5625 -87.664062 4.21875 -90.160156 2.53125 -93.828125 L 9.796875 -98.34375 C 10.960938 -96.21875 12.40625 -94.710938 14.125 -93.828125 C 15.851562 -92.953125 17.707031 -92.515625 19.6875 -92.515625 C 21.59375 -92.515625 23.753906 -92.820312 26.171875 -93.4375 C 28.597656 -94.0625 31.164062 -94.8125 33.875 -95.6875 C 36.59375 -96.570312 39.328125 -97.328125 42.078125 -97.953125 C 44.828125 -98.578125 47.484375 -98.890625 50.046875 -98.890625 C 55.109375 -98.890625 58.90625 -97.515625 61.4375 -94.765625 C 63.96875 -92.015625 65.234375 -88.734375 65.234375 -84.921875 C 65.234375 -81.910156 64.570312 -78.976562 63.25 -76.125 Z M 55.4375 -77.875 "/>
</symbol>
</g>
</defs>
  <g id="oriya-abvm:id0:id0" transform="matrix(1.25,0,0,1.25,0.0,4.560546875)"><g id="oriya-abvm:id0:surface1">
<g style="fill:rgb(0%,0%,0%);fill-opacity:1;">
  <use xlink:href="#oriya-abvm:id0:glyph0-1" x="16" y="119.59375" class="c0"/>
  <use xlink:href="#oriya-abvm:id0:glyph0-2" x="74.734375" y="119.59375" class="c1"/>
  <use xlink:href="#oriya-abvm:id0:glyph0-3" x="173.625" y="119.59375" class="c2"/>
</g>
</g>
</g>
  <g id="oriya-abvm:id1:id1" transform="matrix(1.25,0,0,1.25,237.03125,0.0)"><g id="oriya-abvm:id1:surface1">
<g style="fill:rgb(0%,0%,0%);fill-opacity:1;">
  <use xlink:href="#oriya-abvm:id1:glyph0-1" x="0" y="120.84375" class="arrow"/>
</g>
</g>
</g>
  <g id="oriya-abvm:id2:id2" transform="matrix(1.25,0,0,1.25,369.62890625,4.560546875)"><g id="oriya-abvm:id2:surface1">
<g style="fill:rgb(0%,0%,0%);fill-opacity:1;">
  <use xlink:href="#oriya-abvm:id2:glyph0-1" x="16" y="119.59375" class="c0"/>
  <use xlink:href="#oriya-abvm:id2:glyph0-2" x="74.734375" y="119.59375" class="c1"/>
  <use xlink:href="#oriya-abvm:id2:glyph0-3" x="100.03125" y="119.59375" class="c2"/>
</g>
</g>
</g>
</svg>
