<!DOCTYPE svg PUBLIC "-//W3C//DTD SVG 1.1//EN" "http://www.w3.org/Graphics/SVG/1.1/DTD/svg11.dtd">
<!-- Created with svg_stack (http://github.com/astraw/svg_stack) --><svg xmlns="http://www.w3.org/2000/svg" xmlns:sodipodi="http://sodipodi.sourceforge.net/DTD/sodipodi-0.dtd" xmlns:xlink="http://www.w3.org/1999/xlink" version="1.1" width="535.5859375" height="201.40625" id="oriya-rphf">
  <defs><g>
<symbol overflow="visible" id="oriya-rphf:id0:glyph0-0">
<path style="stroke:none;" d="M 90.09375 -78.546875 L 90.09375 0 L 44.875 0 L 44.875 -78.546875 Z M 84.484375 -5.609375 L 84.484375 -72.9375 L 50.484375 -72.9375 L 50.484375 -5.609375 Z M 84.484375 -5.609375 "/>
</symbol>
<symbol overflow="visible" id="oriya-rphf:id0:glyph0-1">
<path style="stroke:none;" d="M 34.203125 0.875 C 30.390625 0.875 26.941406 0.0507812 23.859375 -1.59375 C 20.785156 -3.238281 18.347656 -5.566406 16.546875 -8.578125 C 14.753906 -11.585938 13.859375 -15.109375 13.859375 -19.140625 C 13.859375 -20.679688 14.003906 -22.1875 14.296875 -23.65625 C 10.628906 -26.507812 7.914062 -29.84375 6.15625 -33.65625 C 4.394531 -37.46875 3.515625 -41.351562 3.515625 -45.3125 C 3.515625 -49.9375 4.539062 -53.988281 6.59375 -57.46875 C 8.65625 -60.957031 11.425781 -63.875 14.90625 -66.21875 C 18.382812 -68.5625 22.320312 -70.320312 26.71875 -71.5 C 31.125 -72.675781 35.675781 -73.265625 40.375 -73.265625 C 45.28125 -73.265625 50.097656 -72.601562 54.828125 -71.28125 C 59.566406 -69.957031 63.804688 -68.007812 67.546875 -65.4375 C 71.285156 -62.875 74.269531 -59.648438 76.5 -55.765625 C 78.738281 -51.878906 79.859375 -47.367188 79.859375 -42.234375 C 79.859375 -37.691406 78.921875 -33.253906 77.046875 -28.921875 C 75.179688 -24.597656 72.597656 -20.710938 69.296875 -17.265625 L 79.53125 -4.1875 L 72.484375 0.984375 L 59.296875 -16.9375 C 63.179688 -20.09375 66.113281 -23.773438 68.09375 -27.984375 C 70.070312 -32.203125 71.0625 -36.40625 71.0625 -40.59375 C 71.0625 -45.945312 69.613281 -50.457031 66.71875 -54.125 C 63.820312 -57.789062 60.023438 -60.554688 55.328125 -62.421875 C 50.640625 -64.296875 45.582031 -65.234375 40.15625 -65.234375 C 35.09375 -65.234375 30.414062 -64.425781 26.125 -62.8125 C 21.832031 -61.195312 18.382812 -58.867188 15.78125 -55.828125 C 13.175781 -52.785156 11.875 -49.023438 11.875 -44.546875 C 11.875 -39.265625 13.632812 -34.609375 17.15625 -30.578125 C 18.914062 -33.222656 21.296875 -35.296875 24.296875 -36.796875 C 27.304688 -38.296875 30.609375 -39.046875 34.203125 -39.046875 C 38.023438 -39.046875 41.492188 -38.21875 44.609375 -36.5625 C 47.722656 -34.914062 50.210938 -32.609375 52.078125 -29.640625 C 53.953125 -26.671875 54.890625 -23.171875 54.890625 -19.140625 C 54.890625 -15.109375 53.953125 -11.585938 52.078125 -8.578125 C 50.210938 -5.566406 47.722656 -3.238281 44.609375 -1.59375 C 41.492188 0.0507812 38.023438 0.875 34.203125 0.875 Z M 34.3125 -6.265625 C 37.90625 -6.265625 40.910156 -7.4375 43.328125 -9.78125 C 45.753906 -12.132812 46.96875 -15.253906 46.96875 -19.140625 C 46.96875 -22.953125 45.773438 -26.015625 43.390625 -28.328125 C 41.003906 -30.640625 37.976562 -31.796875 34.3125 -31.796875 C 30.644531 -31.796875 27.640625 -30.640625 25.296875 -28.328125 C 22.953125 -26.015625 21.78125 -22.953125 21.78125 -19.140625 C 21.78125 -15.253906 22.972656 -12.132812 25.359375 -9.78125 C 27.742188 -7.4375 30.726562 -6.265625 34.3125 -6.265625 Z M 34.3125 -6.265625 "/>
</symbol>
<symbol overflow="visible" id="oriya-rphf:id0:glyph0-2">
<path style="stroke:none;" d="M 7.921875 3.625 L 19.6875 19.46875 L 14.515625 23.3125 L 2.203125 7.703125 Z M 7.921875 3.625 "/>
</symbol>
<symbol overflow="visible" id="oriya-rphf:id0:glyph0-3">
<path style="stroke:none;" d="M 47.1875 -55.984375 C 47.1875 -53.859375 46.085938 -52.796875 43.890625 -52.796875 C 41.835938 -52.796875 40.8125 -53.859375 40.8125 -55.984375 C 40.8125 -58.035156 41.835938 -59.0625 43.890625 -59.0625 C 46.085938 -59.0625 47.1875 -58.035156 47.1875 -55.984375 Z M 32.890625 -50.59375 C 32.890625 -48.46875 31.828125 -47.40625 29.703125 -47.40625 C 27.648438 -47.40625 26.625 -48.46875 26.625 -50.59375 C 26.625 -52.65625 27.648438 -53.6875 29.703125 -53.6875 C 31.828125 -53.6875 32.890625 -52.65625 32.890625 -50.59375 Z M 61.484375 -50.59375 C 61.484375 -48.46875 60.382812 -47.40625 58.1875 -47.40625 C 56.0625 -47.40625 55 -48.46875 55 -50.59375 C 55 -52.65625 56.0625 -53.6875 58.1875 -53.6875 C 60.382812 -53.6875 61.484375 -52.65625 61.484375 -50.59375 Z M 66.4375 -36.84375 C 66.4375 -34.71875 65.375 -33.65625 63.25 -33.65625 C 61.050781 -33.65625 59.953125 -34.71875 59.953125 -36.84375 C 59.953125 -38.90625 61.050781 -39.9375 63.25 -39.9375 C 65.375 -39.9375 66.4375 -38.90625 66.4375 -36.84375 Z M 27.9375 -36.84375 C 27.9375 -34.71875 26.910156 -33.65625 24.859375 -33.65625 C 22.660156 -33.65625 21.5625 -34.71875 21.5625 -36.84375 C 21.5625 -38.90625 22.660156 -39.9375 24.859375 -39.9375 C 26.910156 -39.9375 27.9375 -38.90625 27.9375 -36.84375 Z M 32.890625 -23.09375 C 32.890625 -20.96875 31.828125 -19.90625 29.703125 -19.90625 C 27.648438 -19.90625 26.625 -20.96875 26.625 -23.09375 C 26.625 -25.226562 27.648438 -26.296875 29.703125 -26.296875 C 31.828125 -26.296875 32.890625 -25.226562 32.890625 -23.09375 Z M 61.484375 -23.09375 C 61.484375 -20.96875 60.382812 -19.90625 58.1875 -19.90625 C 56.0625 -19.90625 55 -20.96875 55 -23.09375 C 55 -25.226562 56.0625 -26.296875 58.1875 -26.296875 C 60.382812 -26.296875 61.484375 -25.226562 61.484375 -23.09375 Z M 47.1875 -17.59375 C 47.1875 -15.46875 46.085938 -14.40625 43.890625 -14.40625 C 41.835938 -14.40625 40.8125 -15.46875 40.8125 -17.59375 C 40.8125 -19.726562 41.835938 -20.796875 43.890625 -20.796875 C 46.085938 -20.796875 47.1875 -19.726562 47.1875 -17.59375 Z M 47.1875 -17.59375 "/>
</symbol>
</g>
<g>
<symbol overflow="visible" id="oriya-rphf:id1:glyph0-0">
<path style="stroke:none;" d="M 5.375 -96.6875 L 69.828125 -96.6875 L 69.828125 0 L 5.375 0 Z M 8.0625 -2.6875 L 67.140625 -2.6875 L 67.140625 -94 L 8.0625 -94 Z M 8.0625 -2.6875 "/>
</symbol>
<symbol overflow="visible" id="oriya-rphf:id1:glyph0-1">
<path style="stroke:none;" d="M 68.15625 -13.75 L 66.28125 -18.640625 L 88.09375 -27.390625 L 6.984375 -27.390625 L 6.984375 -34 L 88.09375 -34 L 66.28125 -42.75 L 68.15625 -47.640625 L 99.09375 -34.265625 L 99.09375 -27.125 Z M 68.15625 -13.75 "/>
</symbol>
</g>
<g>
<symbol overflow="visible" id="oriya-rphf:id2:glyph0-0">
<path style="stroke:none;" d="M 90.09375 -78.546875 L 90.09375 0 L 44.875 0 L 44.875 -78.546875 Z M 84.484375 -5.609375 L 84.484375 -72.9375 L 50.484375 -72.9375 L 50.484375 -5.609375 Z M 84.484375 -5.609375 "/>
</symbol>
<symbol overflow="visible" id="oriya-rphf:id2:glyph0-1">
<path style="stroke:none;" d="M 47.1875 -55.984375 C 47.1875 -53.859375 46.085938 -52.796875 43.890625 -52.796875 C 41.835938 -52.796875 40.8125 -53.859375 40.8125 -55.984375 C 40.8125 -58.035156 41.835938 -59.0625 43.890625 -59.0625 C 46.085938 -59.0625 47.1875 -58.035156 47.1875 -55.984375 Z M 32.890625 -50.59375 C 32.890625 -48.46875 31.828125 -47.40625 29.703125 -47.40625 C 27.648438 -47.40625 26.625 -48.46875 26.625 -50.59375 C 26.625 -52.65625 27.648438 -53.6875 29.703125 -53.6875 C 31.828125 -53.6875 32.890625 -52.65625 32.890625 -50.59375 Z M 61.484375 -50.59375 C 61.484375 -48.46875 60.382812 -47.40625 58.1875 -47.40625 C 56.0625 -47.40625 55 -48.46875 55 -50.59375 C 55 -52.65625 56.0625 -53.6875 58.1875 -53.6875 C 60.382812 -53.6875 61.484375 -52.65625 61.484375 -50.59375 Z M 66.4375 -36.84375 C 66.4375 -34.71875 65.375 -33.65625 63.25 -33.65625 C 61.050781 -33.65625 59.953125 -34.71875 59.953125 -36.84375 C 59.953125 -38.90625 61.050781 -39.9375 63.25 -39.9375 C 65.375 -39.9375 66.4375 -38.90625 66.4375 -36.84375 Z M 27.9375 -36.84375 C 27.9375 -34.71875 26.910156 -33.65625 24.859375 -33.65625 C 22.660156 -33.65625 21.5625 -34.71875 21.5625 -36.84375 C 21.5625 -38.90625 22.660156 -39.9375 24.859375 -39.9375 C 26.910156 -39.9375 27.9375 -38.90625 27.9375 -36.84375 Z M 32.890625 -23.09375 C 32.890625 -20.96875 31.828125 -19.90625 29.703125 -19.90625 C 27.648438 -19.90625 26.625 -20.96875 26.625 -23.09375 C 26.625 -25.226562 27.648438 -26.296875 29.703125 -26.296875 C 31.828125 -26.296875 32.890625 -25.226562 32.890625 -23.09375 Z M 61.484375 -23.09375 C 61.484375 -20.96875 60.382812 -19.90625 58.1875 -19.90625 C 56.0625 -19.90625 55 -20.96875 55 -23.09375 C 55 -25.226562 56.0625 -26.296875 58.1875 -26.296875 C 60.382812 -26.296875 61.484375 -25.226562 61.484375 -23.09375 Z M 47.1875 -17.59375 C 47.1875 -15.46875 46.085938 -14.40625 43.890625 -14.40625 C 41.835938 -14.40625 40.8125 -15.46875 40.8125 -17.59375 C 40.8125 -19.726562 41.835938 -20.796875 43.890625 -20.796875 C 46.085938 -20.796875 47.1875 -19.726562 47.1875 -17.59375 Z M 47.1875 -17.59375 "/>
</symbol>
<symbol overflow="visible" id="oriya-rphf:id2:glyph0-2">
<path style="stroke:none;" d="M 22.875 -86.125 L 21.78125 -88.875 L 43.015625 -106.8125 L 47.078125 -101.96875 L 30.359375 -88.109375 L 43.234375 -77.875 L 39.375 -73.15625 Z M 22.875 -86.125 "/>
</symbol>
</g>
</defs>
  <g id="oriya-rphf:id0:id0" transform="matrix(1.25,0,0,1.25,0.0,4.560546875)"><g id="oriya-rphf:id0:surface1">
<g style="fill:rgb(0%,0%,0%);fill-opacity:1;">
  <use xlink:href="#oriya-rphf:id0:glyph0-1" x="16" y="119.59375" class="c0"/>
  <use xlink:href="#oriya-rphf:id0:glyph0-2" x="45.484375" y="119.59375" class="c1"/>
  <use xlink:href="#oriya-rphf:id0:glyph0-3" x="98.390625" y="119.59375" class="dc"/>
</g>
</g>
</g>
  <g id="oriya-rphf:id1:id1" transform="matrix(1.25,0,0,1.25,252.98828125,0.0)"><g id="oriya-rphf:id1:surface1">
<g style="fill:rgb(0%,0%,0%);fill-opacity:1;">
  <use xlink:href="#oriya-rphf:id1:glyph0-1" x="0" y="120.84375" class="arrow"/>
</g>
</g>
</g>
  <g id="oriya-rphf:id2:id2" transform="matrix(1.25,0,0,1.25,385.5859375,4.560546875)"><g id="oriya-rphf:id2:surface1">
<g style="fill:rgb(0%,0%,0%);fill-opacity:1;">
  <use xlink:href="#oriya-rphf:id2:glyph0-1" x="16" y="119.59375" class="dc"/>
  <use xlink:href="#oriya-rphf:id2:glyph0-2" x="104" y="119.59375" class="c1"/>
</g>
</g>
</g>
</svg>
