<!DOCTYPE svg PUBLIC "-//W3C//DTD SVG 1.1//EN" "http://www.w3.org/Graphics/SVG/1.1/DTD/svg11.dtd">
<!-- Created with svg_stack (http://github.com/astraw/svg_stack) --><svg xmlns="http://www.w3.org/2000/svg" xmlns:sodipodi="http://sodipodi.sourceforge.net/DTD/sodipodi-0.dtd" xmlns:xlink="http://www.w3.org/1999/xlink" version="1.1" width="100%" id="oriya-reph-position" viewBox="0 0 691.93359375 201.40625">
  <defs><g>
<symbol overflow="visible" id="oriya-reph-position:id0:glyph0-0">
<path style="stroke:none;" d="M 90.09375 -78.546875 L 90.09375 0 L 44.875 0 L 44.875 -78.546875 Z M 84.484375 -5.609375 L 84.484375 -72.9375 L 50.484375 -72.9375 L 50.484375 -5.609375 Z M 84.484375 -5.609375 "/>
</symbol>
<symbol overflow="visible" id="oriya-reph-position:id0:glyph0-1">
<path style="stroke:none;" d="M 47.1875 -55.984375 C 47.1875 -53.859375 46.085938 -52.796875 43.890625 -52.796875 C 41.835938 -52.796875 40.8125 -53.859375 40.8125 -55.984375 C 40.8125 -58.035156 41.835938 -59.0625 43.890625 -59.0625 C 46.085938 -59.0625 47.1875 -58.035156 47.1875 -55.984375 Z M 32.890625 -50.59375 C 32.890625 -48.46875 31.828125 -47.40625 29.703125 -47.40625 C 27.648438 -47.40625 26.625 -48.46875 26.625 -50.59375 C 26.625 -52.65625 27.648438 -53.6875 29.703125 -53.6875 C 31.828125 -53.6875 32.890625 -52.65625 32.890625 -50.59375 Z M 61.484375 -50.59375 C 61.484375 -48.46875 60.382812 -47.40625 58.1875 -47.40625 C 56.0625 -47.40625 55 -48.46875 55 -50.59375 C 55 -52.65625 56.0625 -53.6875 58.1875 -53.6875 C 60.382812 -53.6875 61.484375 -52.65625 61.484375 -50.59375 Z M 66.4375 -36.84375 C 66.4375 -34.71875 65.375 -33.65625 63.25 -33.65625 C 61.050781 -33.65625 59.953125 -34.71875 59.953125 -36.84375 C 59.953125 -38.90625 61.050781 -39.9375 63.25 -39.9375 C 65.375 -39.9375 66.4375 -38.90625 66.4375 -36.84375 Z M 27.9375 -36.84375 C 27.9375 -34.71875 26.910156 -33.65625 24.859375 -33.65625 C 22.660156 -33.65625 21.5625 -34.71875 21.5625 -36.84375 C 21.5625 -38.90625 22.660156 -39.9375 24.859375 -39.9375 C 26.910156 -39.9375 27.9375 -38.90625 27.9375 -36.84375 Z M 32.890625 -23.09375 C 32.890625 -20.96875 31.828125 -19.90625 29.703125 -19.90625 C 27.648438 -19.90625 26.625 -20.96875 26.625 -23.09375 C 26.625 -25.226562 27.648438 -26.296875 29.703125 -26.296875 C 31.828125 -26.296875 32.890625 -25.226562 32.890625 -23.09375 Z M 61.484375 -23.09375 C 61.484375 -20.96875 60.382812 -19.90625 58.1875 -19.90625 C 56.0625 -19.90625 55 -20.96875 55 -23.09375 C 55 -25.226562 56.0625 -26.296875 58.1875 -26.296875 C 60.382812 -26.296875 61.484375 -25.226562 61.484375 -23.09375 Z M 47.1875 -17.59375 C 47.1875 -15.46875 46.085938 -14.40625 43.890625 -14.40625 C 41.835938 -14.40625 40.8125 -15.46875 40.8125 -17.59375 C 40.8125 -19.726562 41.835938 -20.796875 43.890625 -20.796875 C 46.085938 -20.796875 47.1875 -19.726562 47.1875 -17.59375 Z M 47.1875 -17.59375 "/>
</symbol>
<symbol overflow="visible" id="oriya-reph-position:id0:glyph0-2">
<path style="stroke:none;" d="M 22.875 -86.125 L 21.78125 -88.875 L 43.015625 -106.8125 L 47.078125 -101.96875 L 30.359375 -88.109375 L 43.234375 -77.875 L 39.375 -73.15625 Z M 22.875 -86.125 "/>
</symbol>
<symbol overflow="visible" id="oriya-reph-position:id0:glyph0-3">
<path style="stroke:none;" d="M 49.5 18.484375 C 45.832031 18.484375 42.675781 17.492188 40.03125 15.515625 C 37.394531 13.535156 36.078125 10.785156 36.078125 7.265625 L 36.078125 6.8125 C 33.515625 5.28125 31.460938 3.429688 29.921875 1.265625 C 28.378906 -0.898438 27.609375 -3.410156 27.609375 -6.265625 C 27.609375 -8.171875 27.9375 -9.929688 28.59375 -11.546875 C 24.78125 -12.867188 21.921875 -14.90625 20.015625 -17.65625 C 18.109375 -20.40625 17.15625 -23.46875 17.15625 -26.84375 C 17.15625 -27.207031 17.15625 -27.570312 17.15625 -27.9375 C 8.0625 -33.144531 3.515625 -40.1875 3.515625 -49.0625 C 3.515625 -53.976562 4.867188 -58.25 7.578125 -61.875 C 10.296875 -65.5 14 -68.300781 18.6875 -70.28125 C 23.382812 -72.269531 28.707031 -73.265625 34.65625 -73.265625 C 40.226562 -73.265625 45.34375 -72.363281 50 -70.5625 C 54.65625 -68.769531 58.554688 -66.148438 61.703125 -62.703125 L 61.375 -72.375 L 69.953125 -72.375 L 69.953125 18.046875 L 63.90625 18.046875 L 64.34375 12.3125 C 62.507812 14.300781 60.289062 15.828125 57.6875 16.890625 C 55.09375 17.953125 52.363281 18.484375 49.5 18.484375 Z M 46.859375 -21.5625 C 52.503906 -21.5625 57.34375 -20.054688 61.375 -17.046875 L 61.375 -48.40625 C 60.425781 -52.289062 58.59375 -55.492188 55.875 -58.015625 C 53.164062 -60.546875 49.957031 -62.453125 46.25 -63.734375 C 42.550781 -65.023438 38.722656 -65.671875 34.765625 -65.671875 C 30.953125 -65.671875 27.285156 -65.046875 23.765625 -63.796875 C 20.242188 -62.554688 17.378906 -60.671875 15.171875 -58.140625 C 12.972656 -55.609375 11.875 -52.363281 11.875 -48.40625 C 11.875 -43.050781 14.257812 -38.578125 19.03125 -34.984375 C 21.96875 -40.703125 27.359375 -44.769531 35.203125 -47.1875 L 37.953125 -41.25 C 33.992188 -40 30.875 -38.128906 28.59375 -35.640625 C 26.320312 -33.148438 25.1875 -30.398438 25.1875 -27.390625 C 25.1875 -25.117188 25.882812 -23.140625 27.28125 -21.453125 C 28.675781 -19.765625 30.726562 -18.476562 33.4375 -17.59375 C 37.03125 -20.238281 41.503906 -21.5625 46.859375 -21.5625 Z M 42.234375 6.703125 C 42.234375 8.535156 42.984375 10.019531 44.484375 11.15625 C 45.992188 12.300781 47.773438 12.875 49.828125 12.875 C 52.472656 12.875 55.148438 12.117188 57.859375 10.609375 C 60.578125 9.109375 62.59375 6.890625 63.90625 3.953125 L 63.90625 -5.828125 C 62.8125 -8.984375 60.738281 -11.457031 57.6875 -13.25 C 54.644531 -15.050781 51.21875 -15.953125 47.40625 -15.953125 C 43.738281 -15.953125 40.546875 -15.070312 37.828125 -13.3125 C 35.117188 -11.550781 33.765625 -9.054688 33.765625 -5.828125 C 33.765625 -4.140625 34.09375 -2.671875 34.75 -1.421875 C 35.414062 -0.179688 36.335938 0.914062 37.515625 1.875 C 38.390625 0.257812 39.6875 -1.1875 41.40625 -2.46875 C 43.132812 -3.757812 45.242188 -4.769531 47.734375 -5.5 L 49.609375 -0.984375 C 47.335938 -0.253906 45.539062 0.804688 44.21875 2.203125 C 42.894531 3.597656 42.234375 5.097656 42.234375 6.703125 Z M 42.234375 6.703125 "/>
</symbol>
<symbol overflow="visible" id="oriya-reph-position:id0:glyph0-4">
<path style="stroke:none;" d="M 33.328125 7.703125 L 33.328125 26.84375 L 27.171875 26.84375 L 27.5 21.890625 C 25.8125 22.992188 23.796875 23.546875 21.453125 23.546875 C 18.585938 23.546875 16.109375 22.828125 14.015625 21.390625 C 11.929688 19.960938 10.742188 17.894531 10.453125 15.1875 C 7.804688 13.789062 5.804688 11.972656 4.453125 9.734375 C 3.097656 7.492188 2.421875 5.128906 2.421875 2.640625 C 2.421875 -0.441406 3.351562 -3.132812 5.21875 -5.4375 C 7.09375 -7.75 9.640625 -9.546875 12.859375 -10.828125 C 16.085938 -12.117188 19.796875 -12.765625 23.984375 -12.765625 C 27.867188 -12.765625 31.515625 -12.175781 34.921875 -11 C 38.335938 -9.820312 41.085938 -8.039062 43.171875 -5.65625 C 45.265625 -3.28125 46.3125 -0.332031 46.3125 3.1875 C 46.3125 4.800781 46.015625 6.414062 45.421875 8.03125 C 44.835938 9.644531 44.109375 11.113281 43.234375 12.4375 L 37.84375 9.90625 C 38.5 8.945312 39.066406 7.914062 39.546875 6.8125 C 40.023438 5.71875 40.265625 4.507812 40.265625 3.1875 C 40.265625 0.84375 39.507812 -1.078125 38 -2.578125 C 36.5 -4.085938 34.554688 -5.226562 32.171875 -6 C 29.785156 -6.769531 27.238281 -7.15625 24.53125 -7.15625 C 20.132812 -7.15625 16.375 -6.289062 13.25 -4.5625 C 10.132812 -2.84375 8.578125 -0.296875 8.578125 3.078125 C 8.578125 5.566406 9.53125 7.769531 11.4375 9.6875 C 12.757812 6.894531 15.109375 4.800781 18.484375 3.40625 L 20.6875 7.375 C 17.382812 8.832031 15.734375 11.03125 15.734375 13.96875 C 15.734375 15.507812 16.351562 16.71875 17.59375 17.59375 C 18.84375 18.476562 20.273438 18.921875 21.890625 18.921875 C 24.085938 18.921875 25.847656 18.1875 27.171875 16.71875 L 27.171875 7.703125 Z M 33.328125 7.703125 "/>
</symbol>
<symbol overflow="visible" id="oriya-reph-position:id0:glyph0-5">
<path style="stroke:none;" d="M 3.84375 25.1875 C 2.894531 25.1875 2.015625 24.875 1.203125 24.25 C 0.398438 23.625 0 22.691406 0 21.453125 C 0 19.910156 0.695312 18.257812 2.09375 16.5 C 3.488281 14.738281 5.320312 13.015625 7.59375 11.328125 C 4.4375 8.691406 2.859375 5.394531 2.859375 1.4375 C 2.859375 -1.5 3.703125 -4.03125 5.390625 -6.15625 C 7.078125 -8.28125 9.332031 -9.910156 12.15625 -11.046875 C 14.976562 -12.191406 18.078125 -12.765625 21.453125 -12.765625 C 24.753906 -12.765625 28.015625 -12.175781 31.234375 -11 C 34.460938 -9.820312 37.175781 -8.0625 39.375 -5.71875 L 39.15625 -12.3125 L 45.203125 -12.3125 L 45.203125 26.84375 L 39.15625 26.84375 L 39.59375 21.015625 C 37.832031 22.992188 35.722656 24.53125 33.265625 25.625 C 30.816406 26.726562 28.234375 27.28125 25.515625 27.28125 C 21.847656 27.28125 18.75 26.289062 16.21875 24.3125 C 13.695312 22.332031 12.4375 19.582031 12.4375 16.0625 C 12.4375 14.664062 12.65625 13.378906 13.09375 12.203125 C 11.550781 13.234375 10.117188 14.28125 8.796875 15.34375 C 7.472656 16.40625 6.410156 17.488281 5.609375 18.59375 C 6.859375 19.25 7.484375 20.3125 7.484375 21.78125 C 7.484375 22.800781 7.132812 23.625 6.4375 24.25 C 5.738281 24.875 4.875 25.1875 3.84375 25.1875 Z M 18.15625 15.515625 C 18.15625 17.492188 18.832031 19.015625 20.1875 20.078125 C 21.539062 21.140625 23.28125 21.671875 25.40625 21.671875 C 28.050781 21.671875 30.65625 20.898438 33.21875 19.359375 C 35.78125 17.816406 37.757812 15.691406 39.15625 12.984375 L 39.15625 2.859375 C 38.351562 0.585938 37.035156 -1.28125 35.203125 -2.75 C 33.367188 -4.21875 31.3125 -5.316406 29.03125 -6.046875 C 26.757812 -6.785156 24.453125 -7.15625 22.109375 -7.15625 C 18.660156 -7.15625 15.613281 -6.347656 12.96875 -4.734375 C 10.332031 -3.117188 9.015625 -0.84375 9.015625 2.09375 C 9.015625 4.582031 9.96875 6.671875 11.875 8.359375 C 15.539062 6.160156 19.28125 4.4375 23.09375 3.1875 L 25.078125 7.59375 C 20.460938 9.5 18.15625 12.140625 18.15625 15.515625 Z M 18.15625 15.515625 "/>
</symbol>
<symbol overflow="visible" id="oriya-reph-position:id0:glyph0-6">
<path style="stroke:none;" d="M 15.296875 -72.375 L 15.296875 0 L 6.703125 0 L 6.703125 -72.375 Z M 15.296875 -72.375 "/>
</symbol>
</g>
<g>
<symbol overflow="visible" id="oriya-reph-position:id1:glyph0-0">
<path style="stroke:none;" d="M 5.375 -96.6875 L 69.828125 -96.6875 L 69.828125 0 L 5.375 0 Z M 8.0625 -2.6875 L 67.140625 -2.6875 L 67.140625 -94 L 8.0625 -94 Z M 8.0625 -2.6875 "/>
</symbol>
<symbol overflow="visible" id="oriya-reph-position:id1:glyph0-1">
<path style="stroke:none;" d="M 68.15625 -13.75 L 66.28125 -18.640625 L 88.09375 -27.390625 L 6.984375 -27.390625 L 6.984375 -34 L 88.09375 -34 L 66.28125 -42.75 L 68.15625 -47.640625 L 99.09375 -34.265625 L 99.09375 -27.125 Z M 68.15625 -13.75 "/>
</symbol>
</g>
<g>
<symbol overflow="visible" id="oriya-reph-position:id2:glyph0-0">
<path style="stroke:none;" d="M 90.09375 -78.546875 L 90.09375 0 L 44.875 0 L 44.875 -78.546875 Z M 84.484375 -5.609375 L 84.484375 -72.9375 L 50.484375 -72.9375 L 50.484375 -5.609375 Z M 84.484375 -5.609375 "/>
</symbol>
<symbol overflow="visible" id="oriya-reph-position:id2:glyph0-1">
<path style="stroke:none;" d="M 49.5 18.484375 C 45.832031 18.484375 42.675781 17.492188 40.03125 15.515625 C 37.394531 13.535156 36.078125 10.785156 36.078125 7.265625 L 36.078125 6.8125 C 33.515625 5.28125 31.460938 3.429688 29.921875 1.265625 C 28.378906 -0.898438 27.609375 -3.410156 27.609375 -6.265625 C 27.609375 -8.171875 27.9375 -9.929688 28.59375 -11.546875 C 24.78125 -12.867188 21.921875 -14.90625 20.015625 -17.65625 C 18.109375 -20.40625 17.15625 -23.46875 17.15625 -26.84375 C 17.15625 -27.207031 17.15625 -27.570312 17.15625 -27.9375 C 8.0625 -33.144531 3.515625 -40.1875 3.515625 -49.0625 C 3.515625 -53.976562 4.867188 -58.25 7.578125 -61.875 C 10.296875 -65.5 14 -68.300781 18.6875 -70.28125 C 23.382812 -72.269531 28.707031 -73.265625 34.65625 -73.265625 C 40.226562 -73.265625 45.34375 -72.363281 50 -70.5625 C 54.65625 -68.769531 58.554688 -66.148438 61.703125 -62.703125 L 61.375 -72.375 L 69.953125 -72.375 L 69.953125 18.046875 L 63.90625 18.046875 L 64.34375 12.3125 C 62.507812 14.300781 60.289062 15.828125 57.6875 16.890625 C 55.09375 17.953125 52.363281 18.484375 49.5 18.484375 Z M 46.859375 -21.5625 C 52.503906 -21.5625 57.34375 -20.054688 61.375 -17.046875 L 61.375 -48.40625 C 60.425781 -52.289062 58.59375 -55.492188 55.875 -58.015625 C 53.164062 -60.546875 49.957031 -62.453125 46.25 -63.734375 C 42.550781 -65.023438 38.722656 -65.671875 34.765625 -65.671875 C 30.953125 -65.671875 27.285156 -65.046875 23.765625 -63.796875 C 20.242188 -62.554688 17.378906 -60.671875 15.171875 -58.140625 C 12.972656 -55.609375 11.875 -52.363281 11.875 -48.40625 C 11.875 -43.050781 14.257812 -38.578125 19.03125 -34.984375 C 21.96875 -40.703125 27.359375 -44.769531 35.203125 -47.1875 L 37.953125 -41.25 C 33.992188 -40 30.875 -38.128906 28.59375 -35.640625 C 26.320312 -33.148438 25.1875 -30.398438 25.1875 -27.390625 C 25.1875 -25.117188 25.882812 -23.140625 27.28125 -21.453125 C 28.675781 -19.765625 30.726562 -18.476562 33.4375 -17.59375 C 37.03125 -20.238281 41.503906 -21.5625 46.859375 -21.5625 Z M 42.234375 6.703125 C 42.234375 8.535156 42.984375 10.019531 44.484375 11.15625 C 45.992188 12.300781 47.773438 12.875 49.828125 12.875 C 52.472656 12.875 55.148438 12.117188 57.859375 10.609375 C 60.578125 9.109375 62.59375 6.890625 63.90625 3.953125 L 63.90625 -5.828125 C 62.8125 -8.984375 60.738281 -11.457031 57.6875 -13.25 C 54.644531 -15.050781 51.21875 -15.953125 47.40625 -15.953125 C 43.738281 -15.953125 40.546875 -15.070312 37.828125 -13.3125 C 35.117188 -11.550781 33.765625 -9.054688 33.765625 -5.828125 C 33.765625 -4.140625 34.09375 -2.671875 34.75 -1.421875 C 35.414062 -0.179688 36.335938 0.914062 37.515625 1.875 C 38.390625 0.257812 39.6875 -1.1875 41.40625 -2.46875 C 43.132812 -3.757812 45.242188 -4.769531 47.734375 -5.5 L 49.609375 -0.984375 C 47.335938 -0.253906 45.539062 0.804688 44.21875 2.203125 C 42.894531 3.597656 42.234375 5.097656 42.234375 6.703125 Z M 42.234375 6.703125 "/>
</symbol>
<symbol overflow="visible" id="oriya-reph-position:id2:glyph0-2">
<path style="stroke:none;" d="M 22.875 -86.125 L 21.78125 -88.875 L 43.015625 -106.8125 L 47.078125 -101.96875 L 30.359375 -88.109375 L 43.234375 -77.875 L 39.375 -73.15625 Z M 22.875 -86.125 "/>
</symbol>
<symbol overflow="visible" id="oriya-reph-position:id2:glyph0-3">
<path style="stroke:none;" d="M 33.328125 7.703125 L 33.328125 26.84375 L 27.171875 26.84375 L 27.5 21.890625 C 25.8125 22.992188 23.796875 23.546875 21.453125 23.546875 C 18.585938 23.546875 16.109375 22.828125 14.015625 21.390625 C 11.929688 19.960938 10.742188 17.894531 10.453125 15.1875 C 7.804688 13.789062 5.804688 11.972656 4.453125 9.734375 C 3.097656 7.492188 2.421875 5.128906 2.421875 2.640625 C 2.421875 -0.441406 3.351562 -3.132812 5.21875 -5.4375 C 7.09375 -7.75 9.640625 -9.546875 12.859375 -10.828125 C 16.085938 -12.117188 19.796875 -12.765625 23.984375 -12.765625 C 27.867188 -12.765625 31.515625 -12.175781 34.921875 -11 C 38.335938 -9.820312 41.085938 -8.039062 43.171875 -5.65625 C 45.265625 -3.28125 46.3125 -0.332031 46.3125 3.1875 C 46.3125 4.800781 46.015625 6.414062 45.421875 8.03125 C 44.835938 9.644531 44.109375 11.113281 43.234375 12.4375 L 37.84375 9.90625 C 38.5 8.945312 39.066406 7.914062 39.546875 6.8125 C 40.023438 5.71875 40.265625 4.507812 40.265625 3.1875 C 40.265625 0.84375 39.507812 -1.078125 38 -2.578125 C 36.5 -4.085938 34.554688 -5.226562 32.171875 -6 C 29.785156 -6.769531 27.238281 -7.15625 24.53125 -7.15625 C 20.132812 -7.15625 16.375 -6.289062 13.25 -4.5625 C 10.132812 -2.84375 8.578125 -0.296875 8.578125 3.078125 C 8.578125 5.566406 9.53125 7.769531 11.4375 9.6875 C 12.757812 6.894531 15.109375 4.800781 18.484375 3.40625 L 20.6875 7.375 C 17.382812 8.832031 15.734375 11.03125 15.734375 13.96875 C 15.734375 15.507812 16.351562 16.71875 17.59375 17.59375 C 18.84375 18.476562 20.273438 18.921875 21.890625 18.921875 C 24.085938 18.921875 25.847656 18.1875 27.171875 16.71875 L 27.171875 7.703125 Z M 33.328125 7.703125 "/>
</symbol>
<symbol overflow="visible" id="oriya-reph-position:id2:glyph0-4">
<path style="stroke:none;" d="M 3.84375 25.1875 C 2.894531 25.1875 2.015625 24.875 1.203125 24.25 C 0.398438 23.625 0 22.691406 0 21.453125 C 0 19.910156 0.695312 18.257812 2.09375 16.5 C 3.488281 14.738281 5.320312 13.015625 7.59375 11.328125 C 4.4375 8.691406 2.859375 5.394531 2.859375 1.4375 C 2.859375 -1.5 3.703125 -4.03125 5.390625 -6.15625 C 7.078125 -8.28125 9.332031 -9.910156 12.15625 -11.046875 C 14.976562 -12.191406 18.078125 -12.765625 21.453125 -12.765625 C 24.753906 -12.765625 28.015625 -12.175781 31.234375 -11 C 34.460938 -9.820312 37.175781 -8.0625 39.375 -5.71875 L 39.15625 -12.3125 L 45.203125 -12.3125 L 45.203125 26.84375 L 39.15625 26.84375 L 39.59375 21.015625 C 37.832031 22.992188 35.722656 24.53125 33.265625 25.625 C 30.816406 26.726562 28.234375 27.28125 25.515625 27.28125 C 21.847656 27.28125 18.75 26.289062 16.21875 24.3125 C 13.695312 22.332031 12.4375 19.582031 12.4375 16.0625 C 12.4375 14.664062 12.65625 13.378906 13.09375 12.203125 C 11.550781 13.234375 10.117188 14.28125 8.796875 15.34375 C 7.472656 16.40625 6.410156 17.488281 5.609375 18.59375 C 6.859375 19.25 7.484375 20.3125 7.484375 21.78125 C 7.484375 22.800781 7.132812 23.625 6.4375 24.25 C 5.738281 24.875 4.875 25.1875 3.84375 25.1875 Z M 18.15625 15.515625 C 18.15625 17.492188 18.832031 19.015625 20.1875 20.078125 C 21.539062 21.140625 23.28125 21.671875 25.40625 21.671875 C 28.050781 21.671875 30.65625 20.898438 33.21875 19.359375 C 35.78125 17.816406 37.757812 15.691406 39.15625 12.984375 L 39.15625 2.859375 C 38.351562 0.585938 37.035156 -1.28125 35.203125 -2.75 C 33.367188 -4.21875 31.3125 -5.316406 29.03125 -6.046875 C 26.757812 -6.785156 24.453125 -7.15625 22.109375 -7.15625 C 18.660156 -7.15625 15.613281 -6.347656 12.96875 -4.734375 C 10.332031 -3.117188 9.015625 -0.84375 9.015625 2.09375 C 9.015625 4.582031 9.96875 6.671875 11.875 8.359375 C 15.539062 6.160156 19.28125 4.4375 23.09375 3.1875 L 25.078125 7.59375 C 20.460938 9.5 18.15625 12.140625 18.15625 15.515625 Z M 18.15625 15.515625 "/>
</symbol>
<symbol overflow="visible" id="oriya-reph-position:id2:glyph0-5">
<path style="stroke:none;" d="M 15.296875 -72.375 L 15.296875 0 L 6.703125 0 L 6.703125 -72.375 Z M 15.296875 -72.375 "/>
</symbol>
</g>
</defs>
  <g id="oriya-reph-position:id0:id0" transform="matrix(1.25,0,0,1.25,0.0,4.560546875)"><g id="oriya-reph-position:id0:surface1">
<g style="fill:rgb(0%,0%,0%);fill-opacity:1;">
  <use xlink:href="#oriya-reph-position:id0:glyph0-1" x="16" y="119.59375" class="dc"/>
  <use xlink:href="#oriya-reph-position:id0:glyph0-2" x="104" y="119.59375" class="c0"/>
  <use xlink:href="#oriya-reph-position:id0:glyph0-3" x="104" y="119.59375" class="c1"/>
  <use xlink:href="#oriya-reph-position:id0:glyph0-4" x="180.78125" y="119.59375" class="c2"/>
  <use xlink:href="#oriya-reph-position:id0:glyph0-5" x="229.625" y="119.59375" class="c3"/>
  <use xlink:href="#oriya-reph-position:id0:glyph0-6" x="229.625" y="119.59375" class="c4"/>
</g>
</g>
</g>
  <g id="oriya-reph-position:id1:id1" transform="matrix(1.25,0,0,1.25,334.66796875,0.0)"><g id="oriya-reph-position:id1:surface1">
<g style="fill:rgb(0%,0%,0%);fill-opacity:1;">
  <use xlink:href="#oriya-reph-position:id1:glyph0-1" x="0" y="120.84375" class="arrow"/>
</g>
</g>
</g>
  <g id="oriya-reph-position:id2:id2" transform="matrix(1.25,0,0,1.25,467.265625,4.560546875)"><g id="oriya-reph-position:id2:surface1">
<g style="fill:rgb(0%,0%,0%);fill-opacity:1;">
  <use xlink:href="#oriya-reph-position:id2:glyph0-1" x="16" y="119.59375" class="c1"/>
  <use xlink:href="#oriya-reph-position:id2:glyph0-2" x="42.296875" y="119.59375" class="c0"/>
  <use xlink:href="#oriya-reph-position:id2:glyph0-3" x="92.78125" y="119.59375" class="c2"/>
  <use xlink:href="#oriya-reph-position:id2:glyph0-4" x="141.625" y="119.59375" class="c3"/>
  <use xlink:href="#oriya-reph-position:id2:glyph0-5" x="141.625" y="119.59375" class="c4"/>
</g>
</g>
</g>
</svg>