<!DOCTYPE svg PUBLIC "-//W3C//DTD SVG 1.1//EN" "http://www.w3.org/Graphics/SVG/1.1/DTD/svg11.dtd">
<!-- Created with svg_stack (http://github.com/astraw/svg_stack) --><svg xmlns="http://www.w3.org/2000/svg" xmlns:sodipodi="http://sodipodi.sourceforge.net/DTD/sodipodi-0.dtd" xmlns:xlink="http://www.w3.org/1999/xlink" version="1.1" width="100%" id="oriya-akhn-jnya" viewBox="0 0 475.3515625 201.40625">
  <defs><g>
<symbol overflow="visible" id="oriya-akhn-jnya:id0:glyph0-0">
<path style="stroke:none;" d="M 10.34375 0 L 10.34375 -78.546875 L 55.546875 -78.546875 L 55.546875 0 Z M 15.953125 -5.609375 L 49.9375 -5.609375 L 49.9375 -72.9375 L 15.953125 -72.9375 Z M 15.953125 -5.609375 "/>
</symbol>
<symbol overflow="visible" id="oriya-akhn-jnya:id0:glyph0-1">
<path style="stroke:none;" d="M 9.234375 -14.953125 C 9.234375 -18.617188 10.113281 -22.285156 11.875 -25.953125 C 9.09375 -29.035156 7.003906 -32.351562 5.609375 -35.90625 C 4.210938 -39.46875 3.515625 -43.046875 3.515625 -46.640625 C 3.515625 -51.628906 4.816406 -56.140625 7.421875 -60.171875 C 10.023438 -64.203125 13.632812 -67.410156 18.25 -69.796875 C 22.875 -72.179688 28.191406 -73.375 34.203125 -73.375 C 38.753906 -73.375 42.789062 -72.726562 46.3125 -71.4375 C 49.832031 -70.15625 52.929688 -68.539062 55.609375 -66.59375 C 58.285156 -64.65625 60.59375 -62.625 62.53125 -60.5 C 64.476562 -58.375 66.148438 -56.46875 67.546875 -54.78125 L 62.15625 -49.0625 L 61.046875 -49.0625 C 59.359375 -51.476562 57.210938 -54.003906 54.609375 -56.640625 C 52.003906 -59.285156 48.882812 -61.523438 45.25 -63.359375 C 41.625 -65.191406 37.394531 -66.109375 32.5625 -66.109375 C 28.382812 -66.109375 24.679688 -65.335938 21.453125 -63.796875 C 18.222656 -62.253906 15.671875 -60.109375 13.796875 -57.359375 C 11.929688 -54.609375 11 -51.4375 11 -47.84375 C 11 -45.0625 11.566406 -42.457031 12.703125 -40.03125 C 13.835938 -37.613281 15.285156 -35.597656 17.046875 -33.984375 C 19.171875 -36.484375 21.628906 -38.941406 24.421875 -41.359375 L 28.15625 -37.296875 C 23.832031 -33.253906 20.753906 -29.472656 18.921875 -25.953125 C 17.085938 -22.441406 16.171875 -19.253906 16.171875 -16.390625 C 16.171875 -12.941406 17.234375 -10.300781 19.359375 -8.46875 C 21.484375 -6.632812 23.941406 -5.71875 26.734375 -5.71875 C 28.566406 -5.71875 30.34375 -6.066406 32.0625 -6.765625 C 33.789062 -7.460938 35.347656 -8.285156 36.734375 -9.234375 C 34.460938 -11.210938 32.351562 -13.59375 30.40625 -16.375 C 28.46875 -19.164062 27.5 -21.957031 27.5 -24.75 C 27.5 -25.332031 27.644531 -26.007812 27.9375 -26.78125 C 28.226562 -27.550781 29.035156 -28.742188 30.359375 -30.359375 C 31.460938 -31.609375 32.523438 -32.539062 33.546875 -33.15625 C 34.578125 -33.78125 36.007812 -34.09375 37.84375 -34.09375 L 55.109375 -34.09375 L 55.875 -33.328125 L 55.875 -0.765625 L 49.28125 0.765625 L 48.515625 0 L 48.515625 -27.0625 L 35.75 -27.0625 C 35.164062 -27.0625 34.875 -26.691406 34.875 -25.953125 C 34.875 -24.566406 35.695312 -22.71875 37.34375 -20.40625 C 38.988281 -18.09375 41.023438 -15.65625 43.453125 -13.09375 L 43.453125 -12.09375 L 40.265625 -4.953125 C 38.578125 -3.335938 36.445312 -1.925781 33.875 -0.71875 C 31.3125 0.488281 28.453125 1.09375 25.296875 1.09375 C 20.828125 1.09375 17.03125 -0.296875 13.90625 -3.078125 C 10.789062 -5.867188 9.234375 -9.828125 9.234375 -14.953125 Z M 9.234375 -14.953125 "/>
</symbol>
<symbol overflow="visible" id="oriya-akhn-jnya:id0:glyph0-2">
<path style="stroke:none;" d="M 0.4375 30.140625 C -2.125 26.472656 -4.890625 22.878906 -7.859375 19.359375 C -10.828125 15.835938 -13.925781 12.5 -17.15625 9.34375 L -10.34375 3.953125 C -7.476562 7.398438 -4.722656 10.9375 -2.078125 14.5625 C 0.554688 18.195312 3.046875 21.921875 5.390625 25.734375 Z M 0.4375 30.140625 "/>
</symbol>
<symbol overflow="visible" id="oriya-akhn-jnya:id0:glyph0-3">
<path style="stroke:none;" d="M 5.71875 -21.78125 C 5.71875 -24.195312 6.101562 -26.890625 6.875 -29.859375 C 7.644531 -32.828125 8.945312 -35.816406 10.78125 -38.828125 C 8.800781 -40.367188 7.351562 -42.070312 6.4375 -43.9375 C 5.519531 -45.8125 5.0625 -47.773438 5.0625 -49.828125 C 5.0625 -53.785156 5.832031 -57.671875 7.375 -61.484375 C 8.914062 -65.296875 10.894531 -69.1875 13.3125 -73.15625 L 18.265625 -70.1875 C 16.429688 -66.59375 14.960938 -63.289062 13.859375 -60.28125 C 12.753906 -57.269531 12.203125 -54.445312 12.203125 -51.8125 C 12.203125 -49.09375 13.539062 -46.632812 16.21875 -44.4375 C 18.894531 -42.238281 22.800781 -40.738281 27.9375 -39.9375 C 30.207031 -41.394531 32.59375 -42.125 35.09375 -42.125 C 37.070312 -42.125 38.921875 -41.644531 40.640625 -40.6875 C 42.367188 -39.738281 43.742188 -38.382812 44.765625 -36.625 C 45.867188 -38.09375 47.171875 -39.285156 48.671875 -40.203125 C 50.179688 -41.117188 51.773438 -41.722656 53.453125 -42.015625 C 55.140625 -42.828125 56.550781 -43.875 57.6875 -45.15625 C 58.832031 -46.4375 59.40625 -47.882812 59.40625 -49.5 C 59.40625 -54.707031 58.539062 -58.867188 56.8125 -61.984375 C 55.09375 -65.097656 53.207031 -66.65625 51.15625 -66.65625 C 50.125 -66.65625 49.257812 -66.234375 48.5625 -65.390625 C 47.863281 -64.546875 47.515625 -63.28125 47.515625 -61.59375 L 47.515625 -49.390625 L 41.25 -47.296875 L 40.59375 -48.0625 L 40.59375 -55.984375 C 40.59375 -59.066406 39.875 -61.632812 38.4375 -63.6875 C 37.007812 -65.738281 35.160156 -66.765625 32.890625 -66.765625 C 31.640625 -66.765625 30.570312 -66.269531 29.6875 -65.28125 C 28.8125 -64.289062 28.375 -63.097656 28.375 -61.703125 C 28.375 -59.867188 28.773438 -57.890625 29.578125 -55.765625 C 30.390625 -53.640625 31.492188 -51.332031 32.890625 -48.84375 L 24.75 -46.421875 C 23.875 -48.328125 23.050781 -50.523438 22.28125 -53.015625 C 21.507812 -55.515625 21.125 -57.828125 21.125 -59.953125 C 21.125 -62.367188 21.765625 -64.582031 23.046875 -66.59375 C 24.328125 -68.613281 25.972656 -70.25 27.984375 -71.5 C 30.003906 -72.75 32.15625 -73.375 34.4375 -73.375 C 36.414062 -73.375 38.242188 -72.894531 39.921875 -71.9375 C 41.609375 -70.988281 42.96875 -69.707031 44 -68.09375 C 45.175781 -69.632812 46.601562 -70.898438 48.28125 -71.890625 C 49.96875 -72.878906 51.769531 -73.375 53.6875 -73.375 C 55.957031 -73.375 58.0625 -72.492188 60 -70.734375 C 61.945312 -68.972656 63.523438 -66.53125 64.734375 -63.40625 C 65.941406 -60.289062 66.546875 -56.71875 66.546875 -52.6875 C 66.546875 -49.90625 66.066406 -47.429688 65.109375 -45.265625 C 64.160156 -43.097656 62.878906 -41.242188 61.265625 -39.703125 C 63.097656 -38.097656 64.546875 -35.734375 65.609375 -32.609375 C 66.671875 -29.492188 67.203125 -25.738281 67.203125 -21.34375 C 67.203125 -17.15625 66.378906 -13.628906 64.734375 -10.765625 C 63.085938 -7.910156 60.832031 -5.601562 57.96875 -3.84375 C 55.113281 -2.082031 51.890625 -0.816406 48.296875 -0.046875 C 44.703125 0.710938 40.957031 1.09375 37.0625 1.09375 C 29.8125 1.09375 23.875 0.015625 19.25 -2.140625 C 14.625 -4.304688 11.210938 -7.128906 9.015625 -10.609375 C 6.816406 -14.097656 5.71875 -17.820312 5.71875 -21.78125 Z M 12.875 -23.765625 C 12.875 -20.609375 13.84375 -17.65625 15.78125 -14.90625 C 17.726562 -12.15625 20.609375 -9.9375 24.421875 -8.25 C 28.234375 -6.5625 32.925781 -5.71875 38.5 -5.71875 C 40.914062 -5.71875 43.390625 -5.9375 45.921875 -6.375 C 48.453125 -6.820312 50.78125 -7.554688 52.90625 -8.578125 C 55.03125 -9.609375 56.753906 -11.003906 58.078125 -12.765625 C 59.398438 -14.523438 60.0625 -16.6875 60.0625 -19.25 C 60.0625 -23.789062 59.363281 -27.617188 57.96875 -30.734375 C 56.570312 -33.859375 54.773438 -35.421875 52.578125 -35.421875 C 51.398438 -35.421875 50.375 -35 49.5 -34.15625 C 48.625 -33.3125 48.1875 -32.046875 48.1875 -30.359375 L 48.1875 -17.15625 L 41.90625 -15.0625 L 41.25 -15.84375 L 41.25 -24.75 C 41.25 -27.832031 40.53125 -30.398438 39.09375 -32.453125 C 37.664062 -34.503906 35.816406 -35.53125 33.546875 -35.53125 C 32.304688 -35.53125 31.242188 -35.070312 30.359375 -34.15625 C 29.484375 -33.238281 29.046875 -32.082031 29.046875 -30.6875 C 29.046875 -28.707031 29.503906 -26.488281 30.421875 -24.03125 C 31.335938 -21.570312 32.378906 -19.207031 33.546875 -16.9375 L 25.734375 -14.296875 C 24.785156 -16.421875 23.890625 -18.875 23.046875 -21.65625 C 22.203125 -24.445312 21.78125 -26.796875 21.78125 -28.703125 C 21.78125 -30.390625 22.109375 -32.039062 22.765625 -33.65625 C 20.273438 -34.175781 18.003906 -34.875 15.953125 -35.75 C 14.703125 -33.332031 13.875 -31.054688 13.46875 -28.921875 C 13.070312 -26.796875 12.875 -25.078125 12.875 -23.765625 Z M 12.875 -23.765625 "/>
</symbol>
</g>
<g>
<symbol overflow="visible" id="oriya-akhn-jnya:id1:glyph0-0">
<path style="stroke:none;" d="M 5.375 -96.6875 L 69.828125 -96.6875 L 69.828125 0 L 5.375 0 Z M 8.0625 -2.6875 L 67.140625 -2.6875 L 67.140625 -94 L 8.0625 -94 Z M 8.0625 -2.6875 "/>
</symbol>
<symbol overflow="visible" id="oriya-akhn-jnya:id1:glyph0-1">
<path style="stroke:none;" d="M 68.15625 -13.75 L 66.28125 -18.640625 L 88.09375 -27.390625 L 6.984375 -27.390625 L 6.984375 -34 L 88.09375 -34 L 66.28125 -42.75 L 68.15625 -47.640625 L 99.09375 -34.265625 L 99.09375 -27.125 Z M 68.15625 -13.75 "/>
</symbol>
</g>
<g>
<symbol overflow="visible" id="oriya-akhn-jnya:id2:glyph0-0">
<path style="stroke:none;" d="M 10.34375 0 L 10.34375 -78.546875 L 55.546875 -78.546875 L 55.546875 0 Z M 15.953125 -5.609375 L 49.9375 -5.609375 L 49.9375 -72.9375 L 15.953125 -72.9375 Z M 15.953125 -5.609375 "/>
</symbol>
<symbol overflow="visible" id="oriya-akhn-jnya:id2:glyph0-1">
<path style="stroke:none;" d="M 5.9375 -23.09375 C 5.9375 -28.96875 7.222656 -33.550781 9.796875 -36.84375 C 7.585938 -38.457031 5.988281 -40.289062 5 -42.34375 C 4.007812 -44.40625 3.515625 -46.535156 3.515625 -48.734375 C 3.515625 -52.835938 4.265625 -56.867188 5.765625 -60.828125 C 7.273438 -64.785156 9.3125 -68.894531 11.875 -73.15625 L 16.828125 -70.1875 C 14.847656 -66.21875 13.328125 -62.675781 12.265625 -59.5625 C 11.203125 -56.445312 10.671875 -53.492188 10.671875 -50.703125 C 10.671875 -48.796875 11.128906 -47.054688 12.046875 -45.484375 C 12.960938 -43.910156 14.664062 -42.425781 17.15625 -41.03125 C 17.375 -41.03125 17.59375 -41.03125 17.8125 -41.03125 C 21.039062 -41.03125 23.609375 -39.671875 25.515625 -36.953125 C 27.640625 -39.671875 30.316406 -41.03125 33.546875 -41.03125 C 36.703125 -41.03125 39.160156 -39.597656 40.921875 -36.734375 C 42.171875 -38.128906 43.671875 -39.191406 45.421875 -39.921875 C 47.179688 -40.660156 48.90625 -41.03125 50.59375 -41.03125 C 51.039062 -41.03125 51.484375 -40.992188 51.921875 -40.921875 C 53.609375 -41.867188 55 -43.003906 56.09375 -44.328125 C 57.195312 -45.648438 57.75 -47.191406 57.75 -48.953125 C 57.75 -54.304688 56.90625 -58.59375 55.21875 -61.8125 C 53.53125 -65.039062 51.695312 -66.65625 49.71875 -66.65625 C 48.695312 -66.65625 47.835938 -66.234375 47.140625 -65.390625 C 46.441406 -64.546875 46.09375 -63.28125 46.09375 -61.59375 L 46.09375 -49.390625 L 39.8125 -47.296875 L 39.15625 -48.0625 L 39.15625 -55.984375 C 39.15625 -59.066406 38.441406 -61.632812 37.015625 -63.6875 C 35.585938 -65.738281 33.734375 -66.765625 31.453125 -66.765625 C 30.210938 -66.765625 29.148438 -66.269531 28.265625 -65.28125 C 27.390625 -64.289062 26.953125 -63.097656 26.953125 -61.703125 C 26.953125 -59.867188 27.351562 -57.890625 28.15625 -55.765625 C 28.96875 -53.640625 30.066406 -51.332031 31.453125 -48.84375 L 23.3125 -46.421875 C 22.4375 -48.328125 21.613281 -50.523438 20.84375 -53.015625 C 20.070312 -55.515625 19.6875 -57.828125 19.6875 -59.953125 C 19.6875 -62.367188 20.328125 -64.582031 21.609375 -66.59375 C 22.898438 -68.613281 24.550781 -70.25 26.5625 -71.5 C 28.582031 -72.75 30.726562 -73.375 33 -73.375 C 34.976562 -73.375 36.8125 -72.894531 38.5 -71.9375 C 40.1875 -70.988281 41.539062 -69.707031 42.5625 -68.09375 C 43.738281 -69.632812 45.171875 -70.898438 46.859375 -71.890625 C 48.546875 -72.878906 50.34375 -73.375 52.25 -73.375 C 54.445312 -73.375 56.515625 -72.472656 58.453125 -70.671875 C 60.398438 -68.878906 61.960938 -66.382812 63.140625 -63.1875 C 64.316406 -60 64.90625 -56.316406 64.90625 -52.140625 C 64.90625 -48.835938 64.316406 -45.992188 63.140625 -43.609375 C 61.960938 -41.234375 60.382812 -39.203125 58.40625 -37.515625 C 60.164062 -35.234375 61.046875 -31.820312 61.046875 -27.28125 L 61.046875 -0.765625 L 54.34375 0.765625 L 53.6875 0 L 53.6875 -24.75 C 53.6875 -27.539062 53.226562 -29.738281 52.3125 -31.34375 C 51.394531 -32.957031 50.09375 -33.765625 48.40625 -33.765625 C 47.007812 -33.765625 45.867188 -33.34375 44.984375 -32.5 C 44.109375 -31.65625 43.671875 -30.722656 43.671875 -29.703125 L 43.671875 -0.765625 L 37.0625 0.765625 L 36.296875 0 L 36.296875 -9.015625 C 34.972656 -8.285156 33.582031 -7.921875 32.125 -7.921875 C 28.96875 -7.921875 26.472656 -9.273438 24.640625 -11.984375 C 22.515625 -9.273438 19.765625 -7.921875 16.390625 -7.921875 C 13.160156 -7.921875 10.609375 -9.332031 8.734375 -12.15625 C 6.867188 -14.976562 5.9375 -18.625 5.9375 -23.09375 Z M 12.65625 -25.1875 C 12.65625 -23.425781 12.875 -21.703125 13.3125 -20.015625 C 13.75 -18.328125 14.351562 -16.929688 15.125 -15.828125 C 15.894531 -14.734375 16.753906 -14.1875 17.703125 -14.1875 C 18.953125 -14.1875 19.925781 -15.066406 20.625 -16.828125 C 21.320312 -18.585938 21.671875 -20.863281 21.671875 -23.65625 C 21.671875 -26.363281 21.210938 -28.851562 20.296875 -31.125 C 19.378906 -33.40625 18.148438 -34.546875 16.609375 -34.546875 C 15.359375 -34.546875 14.382812 -33.664062 13.6875 -31.90625 C 13 -30.144531 12.65625 -27.90625 12.65625 -25.1875 Z M 28.375 -25.1875 C 28.375 -23.425781 28.59375 -21.703125 29.03125 -20.015625 C 29.476562 -18.328125 30.085938 -16.929688 30.859375 -15.828125 C 31.628906 -14.734375 32.488281 -14.1875 33.4375 -14.1875 C 34.6875 -14.1875 35.660156 -15.066406 36.359375 -16.828125 C 37.054688 -18.585938 37.40625 -20.863281 37.40625 -23.65625 C 37.40625 -26.363281 36.945312 -28.851562 36.03125 -31.125 C 35.113281 -33.40625 33.882812 -34.546875 32.34375 -34.546875 C 31.09375 -34.546875 30.117188 -33.664062 29.421875 -31.90625 C 28.722656 -30.144531 28.375 -27.90625 28.375 -25.1875 Z M 28.375 -25.1875 "/>
</symbol>
</g>
</defs>
  <g id="oriya-akhn-jnya:id0:id0" transform="matrix(1.25,0,0,1.25,0.0,1.328125)"><g id="oriya-akhn-jnya:id0:surface1">
<g style="fill:rgb(0%,0%,0%);fill-opacity:1;">
  <use xlink:href="#oriya-akhn-jnya:id0:glyph0-1" x="16" y="102.875" class="c0"/>
  <use xlink:href="#oriya-akhn-jnya:id0:glyph0-2" x="78.59375" y="102.875" class="c1"/>
  <use xlink:href="#oriya-akhn-jnya:id0:glyph0-3" x="86.0625" y="102.875" class="c2"/>
</g>
</g>
</g>
  <g id="oriya-akhn-jnya:id1:id1" transform="matrix(1.25,0,0,1.25,217.5,0.0)"><g id="oriya-akhn-jnya:id1:surface1">
<g style="fill:rgb(0%,0%,0%);fill-opacity:1;">
  <use xlink:href="#oriya-akhn-jnya:id1:glyph0-1" x="0" y="120.84375" class="arrow"/>
</g>
</g>
</g>
  <g id="oriya-akhn-jnya:id2:id2" transform="matrix(1.25,0,0,1.25,350.09765625,1.328125)"><g id="oriya-akhn-jnya:id2:surface1">
<g style="fill:rgb(0%,0%,0%);fill-opacity:1;">
  <use xlink:href="#oriya-akhn-jnya:id2:glyph0-1" x="16" y="102.875" class="c3"/>
</g>
</g>
</g>
</svg>
