<?xml version="1.0" standalone="no"?>
<!DOCTYPE svg PUBLIC "-//W3C//DTD SVG 1.1//EN"
 "http://www.w3.org/Graphics/SVG/1.1/DTD/svg11.dtd">
<!-- Created with svg_stack (http://github.com/astraw/svg_stack) -->
<svg xmlns="http://www.w3.org/2000/svg" xmlns:sodipodi="http://sodipodi.sourceforge.net/DTD/sodipodi-0.dtd" xmlns:xlink="http://www.w3.org/1999/xlink" version="1.1" width="398.76953125" height="201.40625">
  <defs><g>
<symbol overflow="visible" id="id0:glyph0-0">
<path style="stroke:none;" d="M 10.34375 0 L 10.34375 -78.546875 L 55.546875 -78.546875 L 55.546875 0 Z M 15.953125 -5.609375 L 49.9375 -5.609375 L 49.9375 -72.9375 L 15.953125 -72.9375 Z M 15.953125 -5.609375 "/>
</symbol>
<symbol overflow="visible" id="id0:glyph0-1">
<path style="stroke:none;" d="M 1.09375 -11.765625 C 1.09375 -13.742188 1.828125 -15.867188 3.296875 -18.140625 C 4.765625 -20.421875 6.707031 -22.640625 9.125 -24.796875 C 11.550781 -26.960938 14.191406 -28.890625 17.046875 -30.578125 C 13.890625 -32.773438 11.503906 -35.488281 9.890625 -38.71875 C 8.285156 -41.945312 7.484375 -45.320312 7.484375 -48.84375 C 7.484375 -53.238281 8.691406 -57.285156 11.109375 -60.984375 C 13.523438 -64.691406 16.894531 -67.679688 21.21875 -69.953125 C 25.550781 -72.234375 30.578125 -73.375 36.296875 -73.375 C 41.359375 -73.375 45.921875 -72.492188 49.984375 -70.734375 C 54.054688 -68.972656 57.523438 -66.84375 60.390625 -64.34375 L 60.390625 -71.5 L 66.984375 -73.046875 L 67.765625 -72.265625 L 67.765625 -0.765625 L 61.15625 0.765625 L 60.390625 0 L 60.390625 -11.4375 C 58.046875 -7.332031 55.003906 -4.21875 51.265625 -2.09375 C 47.523438 0.03125 43.269531 1.09375 38.5 1.09375 C 33.957031 1.09375 30.109375 0.210938 26.953125 -1.546875 C 23.796875 -3.304688 21.410156 -5.613281 19.796875 -8.46875 C 18.179688 -11.332031 17.375 -14.375 17.375 -17.59375 C 17.375 -20.601562 18.179688 -23.6875 19.796875 -26.84375 C 15.179688 -23.976562 11.769531 -20.675781 9.5625 -16.9375 C 12.28125 -15.46875 13.640625 -13.34375 13.640625 -10.5625 C 13.640625 -8.726562 13.015625 -7.222656 11.765625 -6.046875 C 10.523438 -4.878906 9.097656 -4.296875 7.484375 -4.296875 C 5.941406 -4.296875 4.488281 -4.878906 3.125 -6.046875 C 1.769531 -7.222656 1.09375 -9.128906 1.09375 -11.765625 Z M 35.203125 -66.109375 C 31.460938 -66.109375 28.125 -65.519531 25.1875 -64.34375 L 57.09375 -16.609375 C 58.113281 -18.515625 58.914062 -20.660156 59.5 -23.046875 C 60.09375 -25.429688 60.390625 -28.015625 60.390625 -30.796875 L 60.390625 -54.015625 C 57.671875 -57.378906 54.1875 -60.234375 49.9375 -62.578125 C 45.6875 -64.929688 40.773438 -66.109375 35.203125 -66.109375 Z M 14.953125 -50.15625 C 14.953125 -47.007812 15.882812 -44.0625 17.75 -41.3125 C 19.625 -38.5625 22.25 -36.488281 25.625 -35.09375 C 27.90625 -37.582031 30.617188 -40.070312 33.765625 -42.5625 L 20.90625 -61.9375 C 16.9375 -58.925781 14.953125 -55 14.953125 -50.15625 Z M 24.859375 -19.25 C 24.859375 -15.726562 26.140625 -12.644531 28.703125 -10 C 31.273438 -7.363281 34.867188 -6.046875 39.484375 -6.046875 C 42.203125 -6.046875 44.804688 -6.578125 47.296875 -7.640625 C 49.796875 -8.703125 52.035156 -10.257812 54.015625 -12.3125 L 37.1875 -37.515625 C 32.5625 -33.703125 29.347656 -30.363281 27.546875 -27.5 C 25.753906 -24.632812 24.859375 -21.882812 24.859375 -19.25 Z M 24.859375 -19.25 "/>
</symbol>
</g>
<g>
<symbol overflow="visible" id="id1:glyph0-0">
<path style="stroke:none;" d="M 5.375 -96.6875 L 69.828125 -96.6875 L 69.828125 0 L 5.375 0 Z M 8.0625 -2.6875 L 67.140625 -2.6875 L 67.140625 -94 L 8.0625 -94 Z M 8.0625 -2.6875 "/>
</symbol>
<symbol overflow="visible" id="id1:glyph0-1">
<path style="stroke:none;" d="M 68.15625 -13.75 L 66.28125 -18.640625 L 88.09375 -27.390625 L 6.984375 -27.390625 L 6.984375 -34 L 88.09375 -34 L 66.28125 -42.75 L 68.15625 -47.640625 L 99.09375 -34.265625 L 99.09375 -27.125 Z M 68.15625 -13.75 "/>
</symbol>
</g>
<g>
<symbol overflow="visible" id="id2:glyph0-0">
<path style="stroke:none;" d="M 10.34375 0 L 10.34375 -78.546875 L 55.546875 -78.546875 L 55.546875 0 Z M 15.953125 -5.609375 L 49.9375 -5.609375 L 49.9375 -72.9375 L 15.953125 -72.9375 Z M 15.953125 -5.609375 "/>
</symbol>
<symbol overflow="visible" id="id2:glyph0-1">
<path style="stroke:none;" d="M 1.09375 -11.765625 C 1.09375 -13.742188 1.828125 -15.867188 3.296875 -18.140625 C 4.765625 -20.421875 6.707031 -22.640625 9.125 -24.796875 C 11.550781 -26.960938 14.191406 -28.890625 17.046875 -30.578125 C 13.890625 -32.773438 11.503906 -35.488281 9.890625 -38.71875 C 8.285156 -41.945312 7.484375 -45.320312 7.484375 -48.84375 C 7.484375 -53.238281 8.691406 -57.285156 11.109375 -60.984375 C 13.523438 -64.691406 16.894531 -67.679688 21.21875 -69.953125 C 25.550781 -72.234375 30.578125 -73.375 36.296875 -73.375 C 41.359375 -73.375 45.921875 -72.492188 49.984375 -70.734375 C 54.054688 -68.972656 57.523438 -66.84375 60.390625 -64.34375 L 60.390625 -71.5 L 66.984375 -73.046875 L 67.765625 -72.265625 L 67.765625 -0.765625 L 61.15625 0.765625 L 60.390625 0 L 60.390625 -11.4375 C 58.046875 -7.332031 55.003906 -4.21875 51.265625 -2.09375 C 47.523438 0.03125 43.269531 1.09375 38.5 1.09375 C 33.957031 1.09375 30.109375 0.210938 26.953125 -1.546875 C 23.796875 -3.304688 21.410156 -5.613281 19.796875 -8.46875 C 18.179688 -11.332031 17.375 -14.375 17.375 -17.59375 C 17.375 -20.601562 18.179688 -23.6875 19.796875 -26.84375 C 15.179688 -23.976562 11.769531 -20.675781 9.5625 -16.9375 C 12.28125 -15.46875 13.640625 -13.34375 13.640625 -10.5625 C 13.640625 -8.726562 13.015625 -7.222656 11.765625 -6.046875 C 10.523438 -4.878906 9.097656 -4.296875 7.484375 -4.296875 C 5.941406 -4.296875 4.488281 -4.878906 3.125 -6.046875 C 1.769531 -7.222656 1.09375 -9.128906 1.09375 -11.765625 Z M 35.203125 -66.109375 C 31.460938 -66.109375 28.125 -65.519531 25.1875 -64.34375 L 57.09375 -16.609375 C 58.113281 -18.515625 58.914062 -20.660156 59.5 -23.046875 C 60.09375 -25.429688 60.390625 -28.015625 60.390625 -30.796875 L 60.390625 -54.015625 C 57.671875 -57.378906 54.1875 -60.234375 49.9375 -62.578125 C 45.6875 -64.929688 40.773438 -66.109375 35.203125 -66.109375 Z M 14.953125 -50.15625 C 14.953125 -47.007812 15.882812 -44.0625 17.75 -41.3125 C 19.625 -38.5625 22.25 -36.488281 25.625 -35.09375 C 27.90625 -37.582031 30.617188 -40.070312 33.765625 -42.5625 L 20.90625 -61.9375 C 16.9375 -58.925781 14.953125 -55 14.953125 -50.15625 Z M 24.859375 -19.25 C 24.859375 -15.726562 26.140625 -12.644531 28.703125 -10 C 31.273438 -7.363281 34.867188 -6.046875 39.484375 -6.046875 C 42.203125 -6.046875 44.804688 -6.578125 47.296875 -7.640625 C 49.796875 -8.703125 52.035156 -10.257812 54.015625 -12.3125 L 37.1875 -37.515625 C 32.5625 -33.703125 29.347656 -30.363281 27.546875 -27.5 C 25.753906 -24.632812 24.859375 -21.882812 24.859375 -19.25 Z M 24.859375 -19.25 "/>
</symbol>
</g>
</defs>
  <g id="id0:id0" transform="matrix(1.25,0,0,1.25,0.0,1.328125)"><g id="id0:surface1">
<g style="fill:rgb(0%,0%,0%);fill-opacity:1;">
  <use xlink:href="#id0:glyph0-1" x="16" y="102.875"/>
</g>
</g>
</g>
  <g id="id1:id1" transform="matrix(1.25,0,0,1.25,133.0859375,0.0)"><g id="id1:surface1">
<g style="fill:rgb(0%,0%,0%);fill-opacity:1;">
  <use xlink:href="#id1:glyph0-1" x="0" y="120.84375"/>
</g>
</g>
</g>
  <g id="id2:id2" transform="matrix(1.25,0,0,1.25,265.68359375,1.328125)"><g id="id2:surface1">
<g style="fill:rgb(0%,0%,0%);fill-opacity:1;">
  <use xlink:href="#id2:glyph0-1" x="16" y="102.875"/>
</g>
</g>
</g>
</svg>
