<?xml version="1.0" standalone="no"?>
<!DOCTYPE svg PUBLIC "-//W3C//DTD SVG 1.1//EN"
 "http://www.w3.org/Graphics/SVG/1.1/DTD/svg11.dtd">
<!-- Created with svg_stack (http://github.com/astraw/svg_stack) -->
<svg xmlns="http://www.w3.org/2000/svg" xmlns:sodipodi="http://sodipodi.sourceforge.net/DTD/sodipodi-0.dtd" xmlns:xlink="http://www.w3.org/1999/xlink" version="1.1" width="394.921875" height="201.40625">
  <defs><g>
<symbol overflow="visible" id="id0:glyph0-0">
<path style="stroke:none;" d="M 10.34375 0 L 10.34375 -78.546875 L 55.546875 -78.546875 L 55.546875 0 Z M 15.953125 -5.609375 L 49.9375 -5.609375 L 49.9375 -72.9375 L 15.953125 -72.9375 Z M 15.953125 -5.609375 "/>
</symbol>
<symbol overflow="visible" id="id0:glyph0-1">
<path style="stroke:none;" d="M 11.65625 -7.375 C 11.65625 -12.582031 13.488281 -17.785156 17.15625 -22.984375 C 12.832031 -25.921875 9.476562 -29.535156 7.09375 -33.828125 C 4.707031 -38.117188 3.515625 -42.644531 3.515625 -47.40625 C 3.515625 -51.957031 4.707031 -56.191406 7.09375 -60.109375 C 9.476562 -64.035156 12.851562 -67.226562 17.21875 -69.6875 C 21.582031 -72.144531 26.695312 -73.375 32.5625 -73.375 C 37.476562 -73.375 42.039062 -72.492188 46.25 -70.734375 C 50.46875 -68.972656 53.972656 -66.585938 56.765625 -63.578125 L 56.765625 -71.5 L 63.359375 -73.046875 L 64.125 -72.265625 L 64.125 -0.765625 L 57.53125 0.765625 L 56.765625 0 L 56.765625 -52.03125 C 54.410156 -56.570312 50.976562 -60.050781 46.46875 -62.46875 C 41.957031 -64.894531 37.066406 -66.109375 31.796875 -66.109375 C 27.242188 -66.109375 23.410156 -65.300781 20.296875 -63.6875 C 17.179688 -62.070312 14.851562 -59.941406 13.3125 -57.296875 C 11.769531 -54.660156 11 -51.804688 11 -48.734375 C 11 -44.546875 12.171875 -40.835938 14.515625 -37.609375 C 16.867188 -34.390625 19.988281 -31.972656 23.875 -30.359375 C 26 -32.191406 28.414062 -33.929688 31.125 -35.578125 C 33.84375 -37.234375 36.816406 -38.6875 40.046875 -39.9375 L 42.90625 -33.4375 C 36.007812 -31.019531 30.78125 -27.992188 27.21875 -24.359375 C 23.664062 -20.734375 21.117188 -16.679688 19.578125 -12.203125 C 22.804688 -11.035156 24.421875 -8.800781 24.421875 -5.5 C 24.421875 -3.664062 23.816406 -2.160156 22.609375 -0.984375 C 21.398438 0.179688 19.953125 0.765625 18.265625 0.765625 C 16.648438 0.765625 15.144531 0.144531 13.75 -1.09375 C 12.351562 -2.34375 11.65625 -4.4375 11.65625 -7.375 Z M 11.65625 -7.375 "/>
</symbol>
<symbol overflow="visible" id="id0:glyph0-2">
<path style="stroke:none;" d="M -7.046875 18.703125 C -6.816406 20.460938 -6.644531 22.238281 -6.53125 24.03125 C -6.425781 25.832031 -6.375 27.503906 -6.375 29.046875 C -6.375 32.335938 -7.4375 34.972656 -9.5625 36.953125 C -11.695312 38.941406 -14.671875 39.9375 -18.484375 39.9375 C -22.734375 39.9375 -26.050781 38.851562 -28.4375 36.6875 C -30.820312 34.519531 -32.015625 31.785156 -32.015625 28.484375 C -32.015625 27.898438 -31.976562 27.28125 -31.90625 26.625 C -33.289062 25.226562 -34.441406 23.503906 -35.359375 21.453125 C -36.273438 19.398438 -36.734375 17.382812 -36.734375 15.40625 C -36.734375 12.320312 -35.867188 9.566406 -34.140625 7.140625 C -32.421875 4.722656 -30.003906 2.816406 -26.890625 1.421875 C -23.773438 0.0351562 -20.164062 -0.65625 -16.0625 -0.65625 C -9.457031 -0.65625 -4.320312 1.066406 -0.65625 4.515625 C 3.007812 7.960938 4.84375 12.25 4.84375 17.375 C 4.84375 19.351562 4.421875 21.476562 3.578125 23.75 C 2.734375 26.03125 1.6875 27.976562 0.4375 29.59375 L 6.59375 35.859375 L 2.53125 39.703125 L 1.203125 39.703125 L -4.40625 32.234375 L -4.40625 29.921875 C -3.59375 28.453125 -2.929688 26.78125 -2.421875 24.90625 C -1.910156 23.039062 -1.65625 21.191406 -1.65625 19.359375 C -1.65625 15.984375 -2.40625 13.320312 -3.90625 11.375 C -5.40625 9.4375 -7.363281 8.046875 -9.78125 7.203125 C -12.207031 6.359375 -14.8125 5.9375 -17.59375 5.9375 C -19.5 5.9375 -21.441406 6.210938 -23.421875 6.765625 C -25.410156 7.316406 -27.082031 8.210938 -28.4375 9.453125 C -29.789062 10.703125 -30.46875 12.316406 -30.46875 14.296875 C -30.46875 16.273438 -29.769531 18 -28.375 19.46875 C -27.71875 18.519531 -26.910156 17.566406 -25.953125 16.609375 L -22.328125 19.796875 C -23.722656 21.335938 -24.769531 22.726562 -25.46875 23.96875 C -26.164062 25.21875 -26.515625 26.503906 -26.515625 27.828125 C -26.515625 29.734375 -25.722656 31.328125 -24.140625 32.609375 C -22.566406 33.898438 -20.421875 34.546875 -17.703125 34.546875 C -15.796875 34.546875 -14.21875 34.175781 -12.96875 33.4375 C -11.726562 32.707031 -11.109375 31.753906 -11.109375 30.578125 C -11.765625 30.867188 -12.421875 31.066406 -13.078125 31.171875 C -13.742188 31.285156 -14.367188 31.34375 -14.953125 31.34375 C -16.710938 31.34375 -18.144531 30.753906 -19.25 29.578125 C -20.351562 28.410156 -20.90625 26.835938 -20.90625 24.859375 C -20.90625 23.679688 -20.738281 22.523438 -20.40625 21.390625 C -20.070312 20.253906 -19.648438 19.210938 -19.140625 18.265625 L -15.515625 19.796875 C -15.878906 20.972656 -16.132812 21.875 -16.28125 22.5 C -16.425781 23.125 -16.5 23.726562 -16.5 24.3125 C -16.5 25.40625 -16.09375 26.226562 -15.28125 26.78125 C -14.476562 27.332031 -13.125 27.460938 -11.21875 27.171875 C -11.289062 25.921875 -11.414062 24.5625 -11.59375 23.09375 C -11.78125 21.632812 -11.984375 20.351562 -12.203125 19.25 Z M -7.046875 18.703125 "/>
</symbol>
</g>
<g>
<symbol overflow="visible" id="id1:glyph0-0">
<path style="stroke:none;" d="M 5.375 -96.6875 L 69.828125 -96.6875 L 69.828125 0 L 5.375 0 Z M 8.0625 -2.6875 L 67.140625 -2.6875 L 67.140625 -94 L 8.0625 -94 Z M 8.0625 -2.6875 "/>
</symbol>
<symbol overflow="visible" id="id1:glyph0-1">
<path style="stroke:none;" d="M 68.15625 -13.75 L 66.28125 -18.640625 L 88.09375 -27.390625 L 6.984375 -27.390625 L 6.984375 -34 L 88.09375 -34 L 66.28125 -42.75 L 68.15625 -47.640625 L 99.09375 -34.265625 L 99.09375 -27.125 Z M 68.15625 -13.75 "/>
</symbol>
</g>
<g>
<symbol overflow="visible" id="id2:glyph0-0">
<path style="stroke:none;" d="M 10.34375 0 L 10.34375 -78.546875 L 55.546875 -78.546875 L 55.546875 0 Z M 15.953125 -5.609375 L 49.9375 -5.609375 L 49.9375 -72.9375 L 15.953125 -72.9375 Z M 15.953125 -5.609375 "/>
</symbol>
<symbol overflow="visible" id="id2:glyph0-1">
<path style="stroke:none;" d="M 11.21875 -7.59375 C 11.21875 -12.945312 13.015625 -18.1875 16.609375 -23.3125 C 12.503906 -26.25 9.296875 -29.828125 6.984375 -34.046875 C 4.671875 -38.265625 3.515625 -42.71875 3.515625 -47.40625 C 3.515625 -51.957031 4.707031 -56.191406 7.09375 -60.109375 C 9.476562 -64.035156 12.851562 -67.226562 17.21875 -69.6875 C 21.582031 -72.144531 26.695312 -73.375 32.5625 -73.375 C 37.476562 -73.375 42.039062 -72.492188 46.25 -70.734375 C 50.46875 -68.972656 53.972656 -66.585938 56.765625 -63.578125 L 56.765625 -71.390625 L 63.359375 -73.046875 L 64.125 -72.265625 L 64.125 -30.03125 C 68.53125 -28.925781 70.734375 -26.875 70.734375 -23.875 C 70.734375 -22.257812 70.109375 -20.550781 68.859375 -18.75 C 67.609375 -16.957031 65.300781 -14.703125 61.9375 -11.984375 L 74.796875 -0.875 L 69.953125 3.84375 L 68.421875 3.84375 L 55 -9.90625 L 55 -12.984375 C 58.445312 -15.617188 60.664062 -17.539062 61.65625 -18.75 C 62.644531 -19.957031 63.140625 -21.039062 63.140625 -22 C 63.140625 -22.957031 62.660156 -23.707031 61.703125 -24.25 C 60.753906 -24.800781 59.109375 -25.257812 56.765625 -25.625 L 56.765625 -52.03125 C 54.410156 -56.570312 50.976562 -60.050781 46.46875 -62.46875 C 41.957031 -64.894531 37.066406 -66.109375 31.796875 -66.109375 C 27.242188 -66.109375 23.410156 -65.300781 20.296875 -63.6875 C 17.179688 -62.070312 14.851562 -59.941406 13.3125 -57.296875 C 11.769531 -54.660156 11 -51.804688 11 -48.734375 C 11 -44.703125 12.113281 -41.085938 14.34375 -37.890625 C 16.582031 -34.703125 19.570312 -32.265625 23.3125 -30.578125 C 25.445312 -32.410156 27.851562 -34.113281 30.53125 -35.6875 C 33.207031 -37.269531 36.15625 -38.6875 39.375 -39.9375 L 42.234375 -33.4375 C 35.347656 -31.019531 30.109375 -27.992188 26.515625 -24.359375 C 22.921875 -20.734375 20.351562 -16.679688 18.8125 -12.203125 C 22.257812 -11.109375 23.984375 -8.875 23.984375 -5.5 C 23.984375 -3.664062 23.375 -2.160156 22.15625 -0.984375 C 20.945312 0.179688 19.5 0.765625 17.8125 0.765625 C 16.207031 0.765625 14.707031 0.125 13.3125 -1.15625 C 11.914062 -2.4375 11.21875 -4.582031 11.21875 -7.59375 Z M 11.21875 -7.59375 "/>
</symbol>
</g>
</defs>
  <g id="id0:id0" transform="matrix(1.25,0,0,1.25,0.0,1.328125)"><g id="id0:surface1">
<g style="fill:rgb(0%,0%,0%);fill-opacity:1;">
  <use xlink:href="#id0:glyph0-1" x="16" y="102.875"/>
  <use xlink:href="#id0:glyph0-2" x="86.84375" y="102.875"/>
</g>
</g>
</g>
  <g id="id1:id1" transform="matrix(1.25,0,0,1.25,128.5546875,0.0)"><g id="id1:surface1">
<g style="fill:rgb(0%,0%,0%);fill-opacity:1;">
  <use xlink:href="#id1:glyph0-1" x="0" y="120.84375"/>
</g>
</g>
</g>
  <g id="id2:id2" transform="matrix(1.25,0,0,1.25,261.15234375,1.328125)"><g id="id2:surface1">
<g style="fill:rgb(0%,0%,0%);fill-opacity:1;">
  <use xlink:href="#id2:glyph0-1" x="16" y="102.875"/>
</g>
</g>
</g>
</svg>
