<?xml version="1.0" standalone="no"?>
<!DOCTYPE svg PUBLIC "-//W3C//DTD SVG 1.1//EN"
 "http://www.w3.org/Graphics/SVG/1.1/DTD/svg11.dtd">
<!-- Created with svg_stack (http://github.com/astraw/svg_stack) -->
<svg xmlns="http://www.w3.org/2000/svg" xmlns:sodipodi="http://sodipodi.sourceforge.net/DTD/sodipodi-0.dtd" xmlns:xlink="http://www.w3.org/1999/xlink" version="1.1" width="634.84375" height="201.40625">
  <defs><g>
<symbol overflow="visible" id="id0:glyph0-0">
<path style="stroke:none;" d="M 10.34375 0 L 10.34375 -78.546875 L 55.546875 -78.546875 L 55.546875 0 Z M 15.953125 -5.609375 L 49.9375 -5.609375 L 49.9375 -72.9375 L 15.953125 -72.9375 Z M 15.953125 -5.609375 "/>
</symbol>
<symbol overflow="visible" id="id0:glyph0-1">
<path style="stroke:none;" d="M 7.921875 -14.1875 C 10.117188 -18.144531 12.316406 -21.773438 14.515625 -25.078125 C 10.921875 -27.867188 8.1875 -31.207031 6.3125 -35.09375 C 4.445312 -38.976562 3.515625 -42.9375 3.515625 -46.96875 C 3.515625 -51.882812 4.757812 -56.320312 7.25 -60.28125 C 9.75 -64.238281 13.21875 -67.410156 17.65625 -69.796875 C 22.09375 -72.179688 27.242188 -73.375 33.109375 -73.375 C 42.566406 -73.375 50.523438 -70.179688 56.984375 -63.796875 L 56.984375 -71.5 L 63.578125 -73.046875 L 64.34375 -72.265625 L 64.34375 -0.765625 L 57.75 0.765625 C 49.757812 -2.234375 41.835938 -4.664062 33.984375 -6.53125 C 26.140625 -8.40625 18.1875 -9.820312 10.125 -10.78125 Z M 33.4375 -38.609375 C 30.4375 -35.234375 27.539062 -31.691406 24.75 -27.984375 C 21.957031 -24.285156 19.535156 -20.566406 17.484375 -16.828125 C 23.941406 -16.097656 30.453125 -15.035156 37.015625 -13.640625 C 43.578125 -12.242188 50.234375 -10.554688 56.984375 -8.578125 L 56.984375 -53.5625 C 53.898438 -57.457031 50.210938 -60.519531 45.921875 -62.75 C 41.628906 -64.988281 36.957031 -66.109375 31.90625 -66.109375 C 27.644531 -66.109375 23.9375 -65.316406 20.78125 -63.734375 C 17.632812 -62.160156 15.21875 -60.050781 13.53125 -57.40625 C 11.84375 -54.769531 11 -51.769531 11 -48.40625 C 11 -45.03125 11.84375 -42.003906 13.53125 -39.328125 C 15.21875 -36.648438 17.523438 -34.578125 20.453125 -33.109375 C 21.847656 -34.796875 23.257812 -36.460938 24.6875 -38.109375 C 26.125 -39.765625 27.648438 -41.4375 29.265625 -43.125 Z M 70.390625 30.140625 C 67.828125 26.472656 65.0625 22.878906 62.09375 19.359375 C 59.125 15.835938 56.023438 12.5 52.796875 9.34375 L 59.609375 3.953125 C 62.472656 7.398438 65.222656 10.9375 67.859375 14.5625 C 70.503906 18.195312 73 21.921875 75.34375 25.734375 Z M 70.390625 30.140625 "/>
</symbol>
<symbol overflow="visible" id="id0:glyph0-2">
<path style="stroke:none;" d="M 24.859375 -53.453125 C 24.859375 -55.515625 25.882812 -56.546875 27.9375 -56.546875 C 30.132812 -56.546875 31.234375 -55.515625 31.234375 -53.453125 C 31.234375 -51.328125 30.132812 -50.265625 27.9375 -50.265625 C 25.882812 -50.265625 24.859375 -51.328125 24.859375 -53.453125 Z M 42.234375 -44.765625 C 40.109375 -44.765625 39.046875 -45.828125 39.046875 -47.953125 C 39.046875 -50.085938 40.109375 -51.15625 42.234375 -51.15625 C 44.367188 -51.15625 45.4375 -50.085938 45.4375 -47.953125 C 45.4375 -45.828125 44.367188 -44.765625 42.234375 -44.765625 Z M 10.671875 -47.953125 C 10.671875 -50.085938 11.695312 -51.15625 13.75 -51.15625 C 15.875 -51.15625 16.9375 -50.085938 16.9375 -47.953125 C 16.9375 -45.828125 15.875 -44.765625 13.75 -44.765625 C 11.695312 -44.765625 10.671875 -45.828125 10.671875 -47.953125 Z M 5.71875 -34.3125 C 5.71875 -36.375 6.78125 -37.40625 8.90625 -37.40625 C 10.957031 -37.40625 11.984375 -36.375 11.984375 -34.3125 C 11.984375 -32.1875 10.957031 -31.125 8.90625 -31.125 C 6.78125 -31.125 5.71875 -32.1875 5.71875 -34.3125 Z M 44 -34.3125 C 44 -36.375 45.0625 -37.40625 47.1875 -37.40625 C 49.3125 -37.40625 50.375 -36.375 50.375 -34.3125 C 50.375 -32.1875 49.3125 -31.125 47.1875 -31.125 C 45.0625 -31.125 44 -32.1875 44 -34.3125 Z M 10.671875 -20.5625 C 10.671875 -22.695312 11.695312 -23.765625 13.75 -23.765625 C 15.875 -23.765625 16.9375 -22.695312 16.9375 -20.5625 C 16.9375 -18.4375 15.875 -17.375 13.75 -17.375 C 11.695312 -17.375 10.671875 -18.4375 10.671875 -20.5625 Z M 39.046875 -20.5625 C 39.046875 -22.695312 40.109375 -23.765625 42.234375 -23.765625 C 44.367188 -23.765625 45.4375 -22.695312 45.4375 -20.5625 C 45.4375 -18.4375 44.367188 -17.375 42.234375 -17.375 C 40.109375 -17.375 39.046875 -18.4375 39.046875 -20.5625 Z M 24.859375 -15.0625 C 24.859375 -17.195312 25.882812 -18.265625 27.9375 -18.265625 C 30.132812 -18.265625 31.234375 -17.195312 31.234375 -15.0625 C 31.234375 -12.9375 30.132812 -11.875 27.9375 -11.875 C 25.882812 -11.875 24.859375 -12.9375 24.859375 -15.0625 Z M 24.859375 -15.0625 "/>
</symbol>
<symbol overflow="visible" id="id0:glyph0-3">
<path style="stroke:none;" d="M -3.953125 39.265625 L -3.953125 34.65625 C -5.492188 36.113281 -7.328125 37.359375 -9.453125 38.390625 C -11.585938 39.421875 -14.046875 39.9375 -16.828125 39.9375 C -20.347656 39.9375 -23.222656 38.925781 -25.453125 36.90625 C -27.691406 34.882812 -28.8125 32.375 -28.8125 29.375 C -28.8125 28.707031 -28.773438 28.046875 -28.703125 27.390625 C -30.691406 25.773438 -32.289062 23.796875 -33.5 21.453125 C -34.707031 19.109375 -35.3125 16.722656 -35.3125 14.296875 C -35.3125 11.515625 -34.554688 9.003906 -33.046875 6.765625 C -31.546875 4.523438 -29.507812 2.742188 -26.9375 1.421875 C -24.375 0.109375 -21.484375 -0.546875 -18.265625 -0.546875 C -16.054688 -0.546875 -13.632812 -0.109375 -11 0.765625 C -8.363281 1.648438 -6.015625 3.15625 -3.953125 5.28125 L -3.953125 0.765625 L 1.765625 -0.765625 L 2.53125 0 L 2.53125 38.5 L -3.1875 40.046875 Z M -22.765625 27.71875 C -22.765625 29.332031 -22.101562 30.742188 -20.78125 31.953125 C -19.46875 33.160156 -17.5625 33.765625 -15.0625 33.765625 C -13.382812 33.765625 -11.515625 33.285156 -9.453125 32.328125 C -7.398438 31.378906 -5.566406 29.878906 -3.953125 27.828125 L -3.953125 15.84375 C -5.710938 12.6875 -7.984375 10.300781 -10.765625 8.6875 C -13.554688 7.070312 -16.492188 6.265625 -19.578125 6.265625 C -22.222656 6.265625 -24.460938 6.867188 -26.296875 8.078125 C -28.128906 9.296875 -29.046875 10.96875 -29.046875 13.09375 C -29.046875 14.257812 -28.734375 15.445312 -28.109375 16.65625 C -27.484375 17.875 -26.472656 19.03125 -25.078125 20.125 C -24.421875 19.394531 -23.707031 18.644531 -22.9375 17.875 C -22.164062 17.101562 -21.335938 16.351562 -20.453125 15.625 L -16.609375 18.921875 C -18.441406 20.535156 -19.925781 22.035156 -21.0625 23.421875 C -22.195312 24.816406 -22.765625 26.25 -22.765625 27.71875 Z M -22.765625 27.71875 "/>
</symbol>
<symbol overflow="visible" id="id0:glyph0-4">
<path style="stroke:none;" d="M -3.3125 51.8125 C -5.875 49.238281 -8.492188 46.867188 -11.171875 44.703125 C -13.847656 42.546875 -16.429688 40.625 -18.921875 38.9375 L -13.53125 32.78125 C -10.96875 35.050781 -8.4375 37.34375 -5.9375 39.65625 C -3.445312 41.96875 -0.992188 44.40625 1.421875 46.96875 Z M -3.3125 51.8125 "/>
</symbol>
<symbol overflow="visible" id="id0:glyph0-5">
<path style="stroke:none;" d="M 11.546875 -17.15625 C 11.546875 -19.726562 12.023438 -22.296875 12.984375 -24.859375 C 9.828125 -28.015625 7.457031 -31.476562 5.875 -35.25 C 4.300781 -39.03125 3.515625 -42.828125 3.515625 -46.640625 C 3.515625 -51.628906 4.816406 -56.140625 7.421875 -60.171875 C 10.023438 -64.203125 13.632812 -67.410156 18.25 -69.796875 C 22.875 -72.179688 28.191406 -73.375 34.203125 -73.375 C 38.753906 -73.375 42.789062 -72.726562 46.3125 -71.4375 C 49.832031 -70.15625 52.929688 -68.539062 55.609375 -66.59375 C 58.285156 -64.65625 60.59375 -62.625 62.53125 -60.5 C 64.476562 -58.375 66.148438 -56.46875 67.546875 -54.78125 L 62.15625 -49.0625 L 61.046875 -49.0625 C 59.359375 -51.476562 57.210938 -54.003906 54.609375 -56.640625 C 52.003906 -59.285156 48.882812 -61.523438 45.25 -63.359375 C 41.625 -65.191406 37.394531 -66.109375 32.5625 -66.109375 C 28.382812 -66.109375 24.679688 -65.335938 21.453125 -63.796875 C 18.222656 -62.253906 15.671875 -60.109375 13.796875 -57.359375 C 11.929688 -54.609375 11 -51.4375 11 -47.84375 C 11 -44.84375 11.617188 -42.078125 12.859375 -39.546875 C 14.109375 -37.015625 15.757812 -34.976562 17.8125 -33.4375 C 18.695312 -34.6875 19.648438 -35.914062 20.671875 -37.125 C 21.703125 -38.332031 22.769531 -39.523438 23.875 -40.703125 L 28.484375 -37.296875 C 25.117188 -33.253906 22.644531 -29.765625 21.0625 -26.828125 C 19.488281 -23.898438 18.703125 -21.191406 18.703125 -18.703125 C 18.703125 -14.890625 20.113281 -11.769531 22.9375 -9.34375 C 25.757812 -6.925781 30.101562 -5.71875 35.96875 -5.71875 C 36.625 -5.71875 37.25 -5.753906 37.84375 -5.828125 C 35.644531 -7.296875 33.789062 -9.273438 32.28125 -11.765625 C 30.78125 -14.265625 30.03125 -16.90625 30.03125 -19.6875 C 30.03125 -22.101562 30.613281 -24.359375 31.78125 -26.453125 C 32.957031 -28.546875 34.570312 -30.25 36.625 -31.5625 C 38.675781 -32.882812 41.023438 -33.546875 43.671875 -33.546875 C 46.304688 -33.546875 48.757812 -32.832031 51.03125 -31.40625 C 53.3125 -29.976562 55.128906 -28.035156 56.484375 -25.578125 C 57.835938 -23.117188 58.515625 -20.347656 58.515625 -17.265625 C 58.515625 -12.503906 56.570312 -8.4375 52.6875 -5.0625 C 54.226562 -4.25 55.65625 -3.585938 56.96875 -3.078125 C 58.289062 -2.566406 59.578125 -2.128906 60.828125 -1.765625 L 57.3125 3.734375 L 56.09375 3.953125 C 54.332031 3.367188 52.609375 2.65625 50.921875 1.8125 C 49.242188 0.96875 47.523438 0.0351562 45.765625 -0.984375 C 42.171875 0.398438 38.171875 1.09375 33.765625 1.09375 C 26.796875 1.09375 21.347656 -0.585938 17.421875 -3.953125 C 13.503906 -7.328125 11.546875 -11.726562 11.546875 -17.15625 Z M 36.40625 -20.796875 C 36.40625 -18.367188 37.335938 -16.019531 39.203125 -13.75 C 41.078125 -11.476562 43.484375 -9.535156 46.421875 -7.921875 C 50.085938 -9.898438 51.921875 -12.46875 51.921875 -15.625 C 51.921875 -17.601562 51.460938 -19.4375 50.546875 -21.125 C 49.628906 -22.8125 48.414062 -24.148438 46.90625 -25.140625 C 45.40625 -26.128906 43.8125 -26.625 42.125 -26.625 C 40.507812 -26.625 39.148438 -26.128906 38.046875 -25.140625 C 36.953125 -24.148438 36.40625 -22.703125 36.40625 -20.796875 Z M 26.734375 16.390625 L 33.234375 9.453125 C 34.328125 10.410156 35.421875 11.382812 36.515625 12.375 C 37.617188 13.363281 38.757812 14.484375 39.9375 15.734375 L 33.671875 22.65625 C 31.460938 20.238281 29.148438 18.148438 26.734375 16.390625 Z M 26.734375 16.390625 "/>
</symbol>
</g>
<g>
<symbol overflow="visible" id="id1:glyph0-0">
<path style="stroke:none;" d="M 5.375 -96.6875 L 69.828125 -96.6875 L 69.828125 0 L 5.375 0 Z M 8.0625 -2.6875 L 67.140625 -2.6875 L 67.140625 -94 L 8.0625 -94 Z M 8.0625 -2.6875 "/>
</symbol>
<symbol overflow="visible" id="id1:glyph0-1">
<path style="stroke:none;" d="M 68.15625 -13.75 L 66.28125 -18.640625 L 88.09375 -27.390625 L 6.984375 -27.390625 L 6.984375 -34 L 88.09375 -34 L 66.28125 -42.75 L 68.15625 -47.640625 L 99.09375 -34.265625 L 99.09375 -27.125 Z M 68.15625 -13.75 "/>
</symbol>
</g>
<g>
<symbol overflow="visible" id="id2:glyph0-0">
<path style="stroke:none;" d="M 10.34375 0 L 10.34375 -78.546875 L 55.546875 -78.546875 L 55.546875 0 Z M 15.953125 -5.609375 L 49.9375 -5.609375 L 49.9375 -72.9375 L 15.953125 -72.9375 Z M 15.953125 -5.609375 "/>
</symbol>
<symbol overflow="visible" id="id2:glyph0-1">
<path style="stroke:none;" d="M 8.90625 -15.0625 C 10.8125 -18.582031 12.753906 -21.773438 14.734375 -24.640625 C 11.210938 -27.648438 8.460938 -31.113281 6.484375 -35.03125 C 4.503906 -38.957031 3.515625 -43.082031 3.515625 -47.40625 C 3.515625 -51.957031 4.707031 -56.191406 7.09375 -60.109375 C 9.476562 -64.035156 12.851562 -67.226562 17.21875 -69.6875 C 21.582031 -72.144531 26.695312 -73.375 32.5625 -73.375 C 37.476562 -73.375 42.039062 -72.492188 46.25 -70.734375 C 50.46875 -68.972656 53.972656 -66.585938 56.765625 -63.578125 L 56.765625 -71.5 L 63.359375 -73.046875 L 64.125 -72.265625 L 64.125 16.171875 L 58.40625 17.703125 L 57.640625 16.9375 L 57.640625 12.3125 C 56.097656 13.78125 54.265625 15.023438 52.140625 16.046875 C 50.015625 17.078125 47.554688 17.59375 44.765625 17.59375 C 41.242188 17.59375 38.363281 16.582031 36.125 14.5625 C 33.894531 12.550781 32.78125 10.046875 32.78125 7.046875 C 32.78125 6.378906 32.816406 5.71875 32.890625 5.0625 C 30.910156 3.445312 29.316406 1.46875 28.109375 -0.875 C 26.898438 -3.226562 26.296875 -5.613281 26.296875 -8.03125 C 26.296875 -8.25 26.296875 -8.429688 26.296875 -8.578125 C 23.796875 -9.234375 21.28125 -9.816406 18.75 -10.328125 C 16.21875 -10.847656 13.671875 -11.289062 11.109375 -11.65625 Z M 32.890625 -37.1875 C 30.097656 -34.175781 27.4375 -31 24.90625 -27.65625 C 22.382812 -24.320312 20.207031 -20.96875 18.375 -17.59375 C 20.132812 -17.375 21.851562 -17.097656 23.53125 -16.765625 C 25.21875 -16.441406 26.90625 -16.097656 28.59375 -15.734375 C 30.0625 -17.859375 32.078125 -19.578125 34.640625 -20.890625 C 37.210938 -22.210938 40.113281 -22.875 43.34375 -22.875 C 45.394531 -22.875 47.628906 -22.488281 50.046875 -21.71875 C 52.472656 -20.945312 54.710938 -19.6875 56.765625 -17.9375 L 56.765625 -52.03125 C 54.410156 -56.570312 50.976562 -60.050781 46.46875 -62.46875 C 41.957031 -64.894531 37.066406 -66.109375 31.796875 -66.109375 C 27.242188 -66.109375 23.410156 -65.300781 20.296875 -63.6875 C 17.179688 -62.070312 14.851562 -59.941406 13.3125 -57.296875 C 11.769531 -54.660156 11 -51.804688 11 -48.734375 C 11 -45.285156 11.820312 -42.113281 13.46875 -39.21875 C 15.125 -36.320312 17.34375 -33.921875 20.125 -32.015625 C 21.519531 -33.703125 22.914062 -35.332031 24.3125 -36.90625 C 25.707031 -38.476562 27.171875 -40.070312 28.703125 -41.6875 Z M 38.828125 5.390625 C 38.828125 7.003906 39.488281 8.414062 40.8125 9.625 C 42.132812 10.832031 44.039062 11.4375 46.53125 11.4375 C 48.21875 11.4375 50.085938 10.957031 52.140625 10 C 54.191406 9.050781 56.023438 7.550781 57.640625 5.5 L 57.640625 -6.484375 C 55.878906 -9.640625 53.601562 -12.023438 50.8125 -13.640625 C 48.03125 -15.253906 45.097656 -16.0625 42.015625 -16.0625 C 39.378906 -16.0625 37.144531 -15.457031 35.3125 -14.25 C 33.476562 -13.039062 32.5625 -11.367188 32.5625 -9.234375 C 32.5625 -8.066406 32.875 -6.875 33.5 -5.65625 C 34.125 -4.445312 35.128906 -3.296875 36.515625 -2.203125 C 37.179688 -2.929688 37.894531 -3.679688 38.65625 -4.453125 C 39.425781 -5.222656 40.253906 -5.972656 41.140625 -6.703125 L 44.984375 -3.40625 C 43.148438 -1.789062 41.664062 -0.289062 40.53125 1.09375 C 39.394531 2.488281 38.828125 3.921875 38.828125 5.390625 Z M 38.828125 5.390625 "/>
</symbol>
<symbol overflow="visible" id="id2:glyph0-2">
<path style="stroke:none;" d="M 0.328125 43.890625 C -2.234375 40.222656 -5 36.628906 -7.96875 33.109375 C -10.9375 29.585938 -14.035156 26.25 -17.265625 23.09375 L -10.453125 17.703125 C -7.585938 21.148438 -4.832031 24.6875 -2.1875 28.3125 C 0.445312 31.945312 2.9375 35.671875 5.28125 39.484375 Z M 0.328125 43.890625 "/>
</symbol>
<symbol overflow="visible" id="id2:glyph0-3">
<path style="stroke:none;" d="M 11.546875 -17.15625 C 11.546875 -19.726562 12.023438 -22.296875 12.984375 -24.859375 C 9.828125 -28.015625 7.457031 -31.476562 5.875 -35.25 C 4.300781 -39.03125 3.515625 -42.828125 3.515625 -46.640625 C 3.515625 -51.628906 4.816406 -56.140625 7.421875 -60.171875 C 10.023438 -64.203125 13.632812 -67.410156 18.25 -69.796875 C 22.875 -72.179688 28.191406 -73.375 34.203125 -73.375 C 38.753906 -73.375 42.789062 -72.726562 46.3125 -71.4375 C 49.832031 -70.15625 52.929688 -68.539062 55.609375 -66.59375 C 58.285156 -64.65625 60.59375 -62.625 62.53125 -60.5 C 64.476562 -58.375 66.148438 -56.46875 67.546875 -54.78125 L 62.15625 -49.0625 L 61.046875 -49.0625 C 59.359375 -51.476562 57.210938 -54.003906 54.609375 -56.640625 C 52.003906 -59.285156 48.882812 -61.523438 45.25 -63.359375 C 41.625 -65.191406 37.394531 -66.109375 32.5625 -66.109375 C 28.382812 -66.109375 24.679688 -65.335938 21.453125 -63.796875 C 18.222656 -62.253906 15.671875 -60.109375 13.796875 -57.359375 C 11.929688 -54.609375 11 -51.4375 11 -47.84375 C 11 -44.84375 11.617188 -42.078125 12.859375 -39.546875 C 14.109375 -37.015625 15.757812 -34.976562 17.8125 -33.4375 C 18.695312 -34.6875 19.648438 -35.914062 20.671875 -37.125 C 21.703125 -38.332031 22.769531 -39.523438 23.875 -40.703125 L 28.484375 -37.296875 C 25.117188 -33.253906 22.644531 -29.765625 21.0625 -26.828125 C 19.488281 -23.898438 18.703125 -21.191406 18.703125 -18.703125 C 18.703125 -14.890625 20.113281 -11.769531 22.9375 -9.34375 C 25.757812 -6.925781 30.101562 -5.71875 35.96875 -5.71875 C 36.625 -5.71875 37.25 -5.753906 37.84375 -5.828125 C 35.644531 -7.296875 33.789062 -9.273438 32.28125 -11.765625 C 30.78125 -14.265625 30.03125 -16.90625 30.03125 -19.6875 C 30.03125 -22.101562 30.613281 -24.359375 31.78125 -26.453125 C 32.957031 -28.546875 34.570312 -30.25 36.625 -31.5625 C 38.675781 -32.882812 41.023438 -33.546875 43.671875 -33.546875 C 46.304688 -33.546875 48.757812 -32.832031 51.03125 -31.40625 C 53.3125 -29.976562 55.128906 -28.035156 56.484375 -25.578125 C 57.835938 -23.117188 58.515625 -20.347656 58.515625 -17.265625 C 58.515625 -12.503906 56.570312 -8.4375 52.6875 -5.0625 C 54.226562 -4.25 55.65625 -3.585938 56.96875 -3.078125 C 58.289062 -2.566406 59.578125 -2.128906 60.828125 -1.765625 L 57.3125 3.734375 L 56.09375 3.953125 C 54.332031 3.367188 52.609375 2.65625 50.921875 1.8125 C 49.242188 0.96875 47.523438 0.0351562 45.765625 -0.984375 C 42.171875 0.398438 38.171875 1.09375 33.765625 1.09375 C 26.796875 1.09375 21.347656 -0.585938 17.421875 -3.953125 C 13.503906 -7.328125 11.546875 -11.726562 11.546875 -17.15625 Z M 36.40625 -20.796875 C 36.40625 -18.367188 37.335938 -16.019531 39.203125 -13.75 C 41.078125 -11.476562 43.484375 -9.535156 46.421875 -7.921875 C 50.085938 -9.898438 51.921875 -12.46875 51.921875 -15.625 C 51.921875 -17.601562 51.460938 -19.4375 50.546875 -21.125 C 49.628906 -22.8125 48.414062 -24.148438 46.90625 -25.140625 C 45.40625 -26.128906 43.8125 -26.625 42.125 -26.625 C 40.507812 -26.625 39.148438 -26.128906 38.046875 -25.140625 C 36.953125 -24.148438 36.40625 -22.703125 36.40625 -20.796875 Z M 26.734375 16.390625 L 33.234375 9.453125 C 34.328125 10.410156 35.421875 11.382812 36.515625 12.375 C 37.617188 13.363281 38.757812 14.484375 39.9375 15.734375 L 33.671875 22.65625 C 31.460938 20.238281 29.148438 18.148438 26.734375 16.390625 Z M 26.734375 16.390625 "/>
</symbol>
</g>
</defs>
  <g id="id0:id0" transform="matrix(1.25,0,0,1.25,0.0,1.328125)"><g id="id0:surface1">
<g style="fill:rgb(0%,0%,0%);fill-opacity:1;">
  <use xlink:href="#id0:glyph0-1" x="16" y="102.875"/>
  <use xlink:href="#id0:glyph0-2" x="86.734375" y="102.875"/>
  <use xlink:href="#id0:glyph0-3" x="141.078125" y="102.875"/>
  <use xlink:href="#id0:glyph0-4" x="141.078125" y="102.875"/>
  <use xlink:href="#id0:glyph0-5" x="142.828125" y="102.875"/>
</g>
</g>
</g>
  <g id="id1:id1" transform="matrix(1.25,0,0,1.25,286.11328125,0.0)"><g id="id1:surface1">
<g style="fill:rgb(0%,0%,0%);fill-opacity:1;">
  <use xlink:href="#id1:glyph0-1" x="0" y="120.84375"/>
</g>
</g>
</g>
  <g id="id2:id2" transform="matrix(1.25,0,0,1.25,418.7109375,1.328125)"><g id="id2:surface1">
<g style="fill:rgb(0%,0%,0%);fill-opacity:1;">
  <use xlink:href="#id2:glyph0-1" x="16" y="102.875"/>
  <use xlink:href="#id2:glyph0-2" x="86.84375" y="89.125"/>
  <use xlink:href="#id2:glyph0-3" x="86.84375" y="102.875"/>
</g>
</g>
</g>
</svg>
