<!DOCTYPE svg PUBLIC "-//W3C//DTD SVG 1.1//EN" "http://www.w3.org/Graphics/SVG/1.1/DTD/svg11.dtd">
<!-- Created with svg_stack (http://github.com/astraw/svg_stack) --><svg xmlns="http://www.w3.org/2000/svg" xmlns:sodipodi="http://sodipodi.sourceforge.net/DTD/sodipodi-0.dtd" xmlns:xlink="http://www.w3.org/1999/xlink" version="1.1" width="100%" id="oriya-reph-position" viewBox="0 0 619.31640625 201.40625">
  <defs><g>
<symbol overflow="visible" id="oriya-reph-position:id0:glyph0-0">
<path style="stroke:none;" d="M 10.34375 0 L 10.34375 -78.546875 L 55.546875 -78.546875 L 55.546875 0 Z M 15.953125 -5.609375 L 49.9375 -5.609375 L 49.9375 -72.9375 L 15.953125 -72.9375 Z M 15.953125 -5.609375 "/>
</symbol>
<symbol overflow="visible" id="oriya-reph-position:id0:glyph0-1">
<path style="stroke:none;" d="M 24.859375 -53.453125 C 24.859375 -55.515625 25.882812 -56.546875 27.9375 -56.546875 C 30.132812 -56.546875 31.234375 -55.515625 31.234375 -53.453125 C 31.234375 -51.328125 30.132812 -50.265625 27.9375 -50.265625 C 25.882812 -50.265625 24.859375 -51.328125 24.859375 -53.453125 Z M 42.234375 -44.765625 C 40.109375 -44.765625 39.046875 -45.828125 39.046875 -47.953125 C 39.046875 -50.085938 40.109375 -51.15625 42.234375 -51.15625 C 44.367188 -51.15625 45.4375 -50.085938 45.4375 -47.953125 C 45.4375 -45.828125 44.367188 -44.765625 42.234375 -44.765625 Z M 10.671875 -47.953125 C 10.671875 -50.085938 11.695312 -51.15625 13.75 -51.15625 C 15.875 -51.15625 16.9375 -50.085938 16.9375 -47.953125 C 16.9375 -45.828125 15.875 -44.765625 13.75 -44.765625 C 11.695312 -44.765625 10.671875 -45.828125 10.671875 -47.953125 Z M 5.71875 -34.3125 C 5.71875 -36.375 6.78125 -37.40625 8.90625 -37.40625 C 10.957031 -37.40625 11.984375 -36.375 11.984375 -34.3125 C 11.984375 -32.1875 10.957031 -31.125 8.90625 -31.125 C 6.78125 -31.125 5.71875 -32.1875 5.71875 -34.3125 Z M 44 -34.3125 C 44 -36.375 45.0625 -37.40625 47.1875 -37.40625 C 49.3125 -37.40625 50.375 -36.375 50.375 -34.3125 C 50.375 -32.1875 49.3125 -31.125 47.1875 -31.125 C 45.0625 -31.125 44 -32.1875 44 -34.3125 Z M 10.671875 -20.5625 C 10.671875 -22.695312 11.695312 -23.765625 13.75 -23.765625 C 15.875 -23.765625 16.9375 -22.695312 16.9375 -20.5625 C 16.9375 -18.4375 15.875 -17.375 13.75 -17.375 C 11.695312 -17.375 10.671875 -18.4375 10.671875 -20.5625 Z M 39.046875 -20.5625 C 39.046875 -22.695312 40.109375 -23.765625 42.234375 -23.765625 C 44.367188 -23.765625 45.4375 -22.695312 45.4375 -20.5625 C 45.4375 -18.4375 44.367188 -17.375 42.234375 -17.375 C 40.109375 -17.375 39.046875 -18.4375 39.046875 -20.5625 Z M 24.859375 -15.0625 C 24.859375 -17.195312 25.882812 -18.265625 27.9375 -18.265625 C 30.132812 -18.265625 31.234375 -17.195312 31.234375 -15.0625 C 31.234375 -12.9375 30.132812 -11.875 27.9375 -11.875 C 25.882812 -11.875 24.859375 -12.9375 24.859375 -15.0625 Z M 24.859375 -15.0625 "/>
</symbol>
<symbol overflow="visible" id="oriya-reph-position:id0:glyph0-2">
<path style="stroke:none;" d="M -11 -76.015625 C -13.9375 -77.035156 -16.867188 -78.113281 -19.796875 -79.25 C -22.734375 -80.382812 -25.738281 -81.648438 -28.8125 -83.046875 L -27.390625 -89.875 C -23.066406 -90.164062 -18.8125 -90.96875 -14.625 -92.28125 C -10.445312 -93.601562 -6.34375 -95.515625 -2.3125 -98.015625 L -0.328125 -95.375 C -2.972656 -93.25 -5.285156 -91.488281 -7.265625 -90.09375 C -9.242188 -88.695312 -11.203125 -87.59375 -13.140625 -86.78125 C -15.085938 -85.976562 -17.34375 -85.503906 -19.90625 -85.359375 C -16.09375 -84.328125 -12.0625 -83.445312 -7.8125 -82.71875 Z M -11 -76.015625 "/>
</symbol>
<symbol overflow="visible" id="oriya-reph-position:id0:glyph0-3">
<path style="stroke:none;" d="M 13.09375 -17.15625 C 13.09375 -19.726562 13.601562 -22.332031 14.625 -24.96875 C 11.03125 -27.757812 8.28125 -31.097656 6.375 -34.984375 C 4.46875 -38.867188 3.515625 -42.863281 3.515625 -46.96875 C 3.515625 -51.882812 4.757812 -56.320312 7.25 -60.28125 C 9.75 -64.238281 13.21875 -67.410156 17.65625 -69.796875 C 22.09375 -72.179688 27.242188 -73.375 33.109375 -73.375 C 42.128906 -73.375 49.789062 -70.4375 56.09375 -64.5625 L 56.09375 -71.5 L 62.703125 -73.046875 L 63.46875 -72.265625 L 63.46875 -0.765625 L 56.875 0.765625 L 56.09375 0 L 56.09375 -11.546875 C 53.75 -7.367188 50.671875 -4.21875 46.859375 -2.09375 C 43.046875 0.03125 38.753906 1.09375 33.984375 1.09375 C 29.441406 1.09375 25.609375 0.234375 22.484375 -1.484375 C 19.367188 -3.203125 17.023438 -5.457031 15.453125 -8.25 C 13.878906 -11.039062 13.09375 -14.007812 13.09375 -17.15625 Z M 20.5625 -19.03125 C 20.5625 -15.507812 21.804688 -12.460938 24.296875 -9.890625 C 26.796875 -7.328125 30.359375 -6.046875 34.984375 -6.046875 C 38.503906 -6.046875 41.800781 -6.890625 44.875 -8.578125 C 47.957031 -10.265625 50.503906 -12.738281 52.515625 -16 C 54.535156 -19.269531 55.726562 -23.25 56.09375 -27.9375 L 56.09375 -54.671875 C 53.019531 -58.265625 49.425781 -61.066406 45.3125 -63.078125 C 41.207031 -65.097656 36.738281 -66.109375 31.90625 -66.109375 C 27.644531 -66.109375 23.9375 -65.316406 20.78125 -63.734375 C 17.632812 -62.160156 15.21875 -60.035156 13.53125 -57.359375 C 11.84375 -54.679688 11 -51.695312 11 -48.40625 C 11 -45.175781 11.769531 -42.296875 13.3125 -39.765625 C 14.851562 -37.234375 16.976562 -35.125 19.6875 -33.4375 C 22.257812 -36.59375 25.378906 -39.597656 29.046875 -42.453125 L 33.21875 -38.0625 C 28.601562 -34.25 25.335938 -30.816406 23.421875 -27.765625 C 21.515625 -24.722656 20.5625 -21.8125 20.5625 -19.03125 Z M 20.5625 -19.03125 "/>
</symbol>
<symbol overflow="visible" id="oriya-reph-position:id0:glyph0-4">
<path style="stroke:none;" d="M -28.59375 4.515625 L -24.203125 0.546875 L -23.09375 0.546875 C -20.96875 3.410156 -18.660156 6.398438 -16.171875 9.515625 C -13.679688 12.628906 -11.113281 15.945312 -8.46875 19.46875 L -11.546875 22.875 L -12.65625 22.875 C -13.457031 21.925781 -14.28125 21.007812 -15.125 20.125 C -15.96875 19.25 -16.753906 18.367188 -17.484375 17.484375 C -20.128906 18.367188 -22.070312 19.539062 -23.3125 21 C -24.5625 22.46875 -25.1875 24.082031 -25.1875 25.84375 C -25.1875 27.90625 -24.394531 29.722656 -22.8125 31.296875 C -21.238281 32.867188 -19.097656 33.65625 -16.390625 33.65625 C -14.335938 33.65625 -12.171875 33.085938 -9.890625 31.953125 C -7.617188 30.816406 -5.753906 28.851562 -4.296875 26.0625 L -4.296875 0.765625 L 2.3125 -0.765625 L 3.078125 0 L 3.078125 38.5 L -3.515625 40.046875 L -4.296875 39.265625 L -4.296875 34.09375 C -5.753906 35.707031 -7.640625 37.0625 -9.953125 38.15625 C -12.265625 39.257812 -14.773438 39.8125 -17.484375 39.8125 C -21.523438 39.8125 -24.84375 38.566406 -27.4375 36.078125 C -30.039062 33.585938 -31.34375 30.398438 -31.34375 26.515625 C -31.34375 23.941406 -30.644531 21.460938 -29.25 19.078125 C -27.863281 16.703125 -25.484375 14.488281 -22.109375 12.4375 C -23.210938 11.113281 -24.3125 9.789062 -25.40625 8.46875 C -26.507812 7.144531 -27.570312 5.828125 -28.59375 4.515625 Z M -28.59375 4.515625 "/>
</symbol>
<symbol overflow="visible" id="oriya-reph-position:id0:glyph0-5">
<path style="stroke:none;" d="M -12.765625 50.59375 L -51.484375 50.59375 L -52.6875 49.0625 L -48.84375 43.671875 L -13.859375 43.671875 L -13.859375 34.3125 L -7.703125 32.015625 L -6.703125 32.78125 L -6.703125 47.84375 Z M -12.765625 50.59375 "/>
</symbol>
<symbol overflow="visible" id="oriya-reph-position:id0:glyph0-6">
<path style="stroke:none;" d="M 43.015625 47.515625 L 38.828125 52.6875 L 37.953125 52.6875 C 36.703125 51.519531 35.488281 50.476562 34.3125 49.5625 C 33.144531 48.644531 32.046875 47.78125 31.015625 46.96875 C 29.398438 48.582031 27.382812 49.9375 24.96875 51.03125 C 22.550781 52.132812 19.691406 52.6875 16.390625 52.6875 C 13.597656 52.6875 11.007812 52.226562 8.625 51.3125 C 6.25 50.394531 4.34375 49.09375 2.90625 47.40625 C 1.476562 45.71875 0.765625 43.703125 0.765625 41.359375 C 0.765625 38.273438 1.957031 35.832031 4.34375 34.03125 C 6.726562 32.238281 9.425781 31.34375 12.4375 31.34375 C 15.507812 31.34375 18.492188 32.09375 21.390625 33.59375 C 24.285156 35.101562 26.648438 36.519531 28.484375 37.84375 C 28.554688 37.175781 28.59375 36.257812 28.59375 35.09375 L 28.59375 30.796875 L 35.96875 30.359375 L 35.96875 32.890625 C 35.96875 34.796875 35.835938 36.445312 35.578125 37.84375 C 35.328125 39.238281 34.945312 40.554688 34.4375 41.796875 C 35.820312 42.679688 37.226562 43.597656 38.65625 44.546875 C 40.09375 45.503906 41.546875 46.492188 43.015625 47.515625 Z M 7.484375 40.484375 C 7.484375 42.097656 8.453125 43.507812 10.390625 44.71875 C 12.335938 45.925781 14.628906 46.53125 17.265625 46.53125 C 21.222656 46.53125 24.269531 45.503906 26.40625 43.453125 C 20.382812 39.191406 15.6875 37.0625 12.3125 37.0625 C 10.925781 37.0625 9.773438 37.375 8.859375 38 C 7.941406 38.625 7.484375 39.453125 7.484375 40.484375 Z M 7.484375 40.484375 "/>
</symbol>
<symbol overflow="visible" id="oriya-reph-position:id0:glyph0-7">
<path style="stroke:none;" d="M 27.609375 0 L 27.609375 -43.78125 C 26.285156 -41.800781 24.757812 -40.425781 23.03125 -39.65625 C 21.3125 -38.882812 19.5 -38.5 17.59375 -38.5 C 14.519531 -38.5 12.101562 -39.320312 10.34375 -40.96875 C 8.582031 -42.625 7.316406 -44.804688 6.546875 -47.515625 C 5.773438 -50.234375 5.390625 -53.164062 5.390625 -56.3125 L 5.390625 -71.28125 L 11.984375 -72.8125 L 12.765625 -72.046875 L 12.765625 -58.40625 C 12.765625 -53.789062 13.367188 -50.566406 14.578125 -48.734375 C 15.785156 -46.898438 17.34375 -45.984375 19.25 -45.984375 C 21.738281 -45.984375 23.753906 -47.15625 25.296875 -49.5 C 26.835938 -51.84375 27.609375 -54.519531 27.609375 -57.53125 L 27.609375 -71.5 L 34.203125 -73.046875 L 34.984375 -72.265625 L 34.984375 -0.765625 L 28.375 0.765625 Z M 27.609375 0 "/>
</symbol>
<symbol overflow="visible" id="oriya-reph-position:id0:glyph0-8">
<path style="stroke:none;" d="M 7.703125 0 L 7.703125 -71.5 L 14.296875 -73.046875 L 15.0625 -72.265625 L 15.0625 -0.765625 L 8.46875 0.765625 Z M 7.703125 0 "/>
</symbol>
</g>
<g>
<symbol overflow="visible" id="oriya-reph-position:id1:glyph0-0">
<path style="stroke:none;" d="M 5.375 -96.6875 L 69.828125 -96.6875 L 69.828125 0 L 5.375 0 Z M 8.0625 -2.6875 L 67.140625 -2.6875 L 67.140625 -94 L 8.0625 -94 Z M 8.0625 -2.6875 "/>
</symbol>
<symbol overflow="visible" id="oriya-reph-position:id1:glyph0-1">
<path style="stroke:none;" d="M 68.15625 -13.75 L 66.28125 -18.640625 L 88.09375 -27.390625 L 6.984375 -27.390625 L 6.984375 -34 L 88.09375 -34 L 66.28125 -42.75 L 68.15625 -47.640625 L 99.09375 -34.265625 L 99.09375 -27.125 Z M 68.15625 -13.75 "/>
</symbol>
</g>
<g>
<symbol overflow="visible" id="oriya-reph-position:id2:glyph0-0">
<path style="stroke:none;" d="M 10.34375 0 L 10.34375 -78.546875 L 55.546875 -78.546875 L 55.546875 0 Z M 15.953125 -5.609375 L 49.9375 -5.609375 L 49.9375 -72.9375 L 15.953125 -72.9375 Z M 15.953125 -5.609375 "/>
</symbol>
<symbol overflow="visible" id="oriya-reph-position:id2:glyph0-1">
<path style="stroke:none;" d="M 13.09375 -17.15625 C 13.09375 -19.726562 13.601562 -22.332031 14.625 -24.96875 C 11.03125 -27.757812 8.28125 -31.097656 6.375 -34.984375 C 4.46875 -38.867188 3.515625 -42.863281 3.515625 -46.96875 C 3.515625 -51.882812 4.757812 -56.320312 7.25 -60.28125 C 9.75 -64.238281 13.21875 -67.410156 17.65625 -69.796875 C 22.09375 -72.179688 27.242188 -73.375 33.109375 -73.375 C 42.128906 -73.375 49.789062 -70.4375 56.09375 -64.5625 L 56.09375 -71.5 L 62.703125 -73.046875 L 63.46875 -72.265625 L 63.46875 -0.765625 L 56.875 0.765625 L 56.09375 0 L 56.09375 -11.546875 C 53.75 -7.367188 50.671875 -4.21875 46.859375 -2.09375 C 43.046875 0.03125 38.753906 1.09375 33.984375 1.09375 C 29.441406 1.09375 25.609375 0.234375 22.484375 -1.484375 C 19.367188 -3.203125 17.023438 -5.457031 15.453125 -8.25 C 13.878906 -11.039062 13.09375 -14.007812 13.09375 -17.15625 Z M 20.5625 -19.03125 C 20.5625 -15.507812 21.804688 -12.460938 24.296875 -9.890625 C 26.796875 -7.328125 30.359375 -6.046875 34.984375 -6.046875 C 38.503906 -6.046875 41.800781 -6.890625 44.875 -8.578125 C 47.957031 -10.265625 50.503906 -12.738281 52.515625 -16 C 54.535156 -19.269531 55.726562 -23.25 56.09375 -27.9375 L 56.09375 -54.671875 C 53.019531 -58.265625 49.425781 -61.066406 45.3125 -63.078125 C 41.207031 -65.097656 36.738281 -66.109375 31.90625 -66.109375 C 27.644531 -66.109375 23.9375 -65.316406 20.78125 -63.734375 C 17.632812 -62.160156 15.21875 -60.035156 13.53125 -57.359375 C 11.84375 -54.679688 11 -51.695312 11 -48.40625 C 11 -45.175781 11.769531 -42.296875 13.3125 -39.765625 C 14.851562 -37.234375 16.976562 -35.125 19.6875 -33.4375 C 22.257812 -36.59375 25.378906 -39.597656 29.046875 -42.453125 L 33.21875 -38.0625 C 28.601562 -34.25 25.335938 -30.816406 23.421875 -27.765625 C 21.515625 -24.722656 20.5625 -21.8125 20.5625 -19.03125 Z M 20.5625 -19.03125 "/>
</symbol>
<symbol overflow="visible" id="oriya-reph-position:id2:glyph0-2">
<path style="stroke:none;" d="M -11 -76.015625 C -13.9375 -77.035156 -16.867188 -78.113281 -19.796875 -79.25 C -22.734375 -80.382812 -25.738281 -81.648438 -28.8125 -83.046875 L -27.390625 -89.875 C -23.066406 -90.164062 -18.8125 -90.96875 -14.625 -92.28125 C -10.445312 -93.601562 -6.34375 -95.515625 -2.3125 -98.015625 L -0.328125 -95.375 C -2.972656 -93.25 -5.285156 -91.488281 -7.265625 -90.09375 C -9.242188 -88.695312 -11.203125 -87.59375 -13.140625 -86.78125 C -15.085938 -85.976562 -17.34375 -85.503906 -19.90625 -85.359375 C -16.09375 -84.328125 -12.0625 -83.445312 -7.8125 -82.71875 Z M -11 -76.015625 "/>
</symbol>
<symbol overflow="visible" id="oriya-reph-position:id2:glyph0-3">
<path style="stroke:none;" d="M -28.59375 4.515625 L -24.203125 0.546875 L -23.09375 0.546875 C -20.96875 3.410156 -18.660156 6.398438 -16.171875 9.515625 C -13.679688 12.628906 -11.113281 15.945312 -8.46875 19.46875 L -11.546875 22.875 L -12.65625 22.875 C -13.457031 21.925781 -14.28125 21.007812 -15.125 20.125 C -15.96875 19.25 -16.753906 18.367188 -17.484375 17.484375 C -20.128906 18.367188 -22.070312 19.539062 -23.3125 21 C -24.5625 22.46875 -25.1875 24.082031 -25.1875 25.84375 C -25.1875 27.90625 -24.394531 29.722656 -22.8125 31.296875 C -21.238281 32.867188 -19.097656 33.65625 -16.390625 33.65625 C -14.335938 33.65625 -12.171875 33.085938 -9.890625 31.953125 C -7.617188 30.816406 -5.753906 28.851562 -4.296875 26.0625 L -4.296875 0.765625 L 2.3125 -0.765625 L 3.078125 0 L 3.078125 38.5 L -3.515625 40.046875 L -4.296875 39.265625 L -4.296875 34.09375 C -5.753906 35.707031 -7.640625 37.0625 -9.953125 38.15625 C -12.265625 39.257812 -14.773438 39.8125 -17.484375 39.8125 C -21.523438 39.8125 -24.84375 38.566406 -27.4375 36.078125 C -30.039062 33.585938 -31.34375 30.398438 -31.34375 26.515625 C -31.34375 23.941406 -30.644531 21.460938 -29.25 19.078125 C -27.863281 16.703125 -25.484375 14.488281 -22.109375 12.4375 C -23.210938 11.113281 -24.3125 9.789062 -25.40625 8.46875 C -26.507812 7.144531 -27.570312 5.828125 -28.59375 4.515625 Z M -28.59375 4.515625 "/>
</symbol>
<symbol overflow="visible" id="oriya-reph-position:id2:glyph0-4">
<path style="stroke:none;" d="M -12.765625 50.59375 L -51.484375 50.59375 L -52.6875 49.0625 L -48.84375 43.671875 L -13.859375 43.671875 L -13.859375 34.3125 L -7.703125 32.015625 L -6.703125 32.78125 L -6.703125 47.84375 Z M -12.765625 50.59375 "/>
</symbol>
<symbol overflow="visible" id="oriya-reph-position:id2:glyph0-5">
<path style="stroke:none;" d="M 43.015625 47.515625 L 38.828125 52.6875 L 37.953125 52.6875 C 36.703125 51.519531 35.488281 50.476562 34.3125 49.5625 C 33.144531 48.644531 32.046875 47.78125 31.015625 46.96875 C 29.398438 48.582031 27.382812 49.9375 24.96875 51.03125 C 22.550781 52.132812 19.691406 52.6875 16.390625 52.6875 C 13.597656 52.6875 11.007812 52.226562 8.625 51.3125 C 6.25 50.394531 4.34375 49.09375 2.90625 47.40625 C 1.476562 45.71875 0.765625 43.703125 0.765625 41.359375 C 0.765625 38.273438 1.957031 35.832031 4.34375 34.03125 C 6.726562 32.238281 9.425781 31.34375 12.4375 31.34375 C 15.507812 31.34375 18.492188 32.09375 21.390625 33.59375 C 24.285156 35.101562 26.648438 36.519531 28.484375 37.84375 C 28.554688 37.175781 28.59375 36.257812 28.59375 35.09375 L 28.59375 30.796875 L 35.96875 30.359375 L 35.96875 32.890625 C 35.96875 34.796875 35.835938 36.445312 35.578125 37.84375 C 35.328125 39.238281 34.945312 40.554688 34.4375 41.796875 C 35.820312 42.679688 37.226562 43.597656 38.65625 44.546875 C 40.09375 45.503906 41.546875 46.492188 43.015625 47.515625 Z M 7.484375 40.484375 C 7.484375 42.097656 8.453125 43.507812 10.390625 44.71875 C 12.335938 45.925781 14.628906 46.53125 17.265625 46.53125 C 21.222656 46.53125 24.269531 45.503906 26.40625 43.453125 C 20.382812 39.191406 15.6875 37.0625 12.3125 37.0625 C 10.925781 37.0625 9.773438 37.375 8.859375 38 C 7.941406 38.625 7.484375 39.453125 7.484375 40.484375 Z M 7.484375 40.484375 "/>
</symbol>
<symbol overflow="visible" id="oriya-reph-position:id2:glyph0-6">
<path style="stroke:none;" d="M 27.609375 0 L 27.609375 -43.78125 C 26.285156 -41.800781 24.757812 -40.425781 23.03125 -39.65625 C 21.3125 -38.882812 19.5 -38.5 17.59375 -38.5 C 14.519531 -38.5 12.101562 -39.320312 10.34375 -40.96875 C 8.582031 -42.625 7.316406 -44.804688 6.546875 -47.515625 C 5.773438 -50.234375 5.390625 -53.164062 5.390625 -56.3125 L 5.390625 -71.28125 L 11.984375 -72.8125 L 12.765625 -72.046875 L 12.765625 -58.40625 C 12.765625 -53.789062 13.367188 -50.566406 14.578125 -48.734375 C 15.785156 -46.898438 17.34375 -45.984375 19.25 -45.984375 C 21.738281 -45.984375 23.753906 -47.15625 25.296875 -49.5 C 26.835938 -51.84375 27.609375 -54.519531 27.609375 -57.53125 L 27.609375 -71.5 L 34.203125 -73.046875 L 34.984375 -72.265625 L 34.984375 -0.765625 L 28.375 0.765625 Z M 27.609375 0 "/>
</symbol>
<symbol overflow="visible" id="oriya-reph-position:id2:glyph0-7">
<path style="stroke:none;" d="M 7.703125 0 L 7.703125 -71.5 L 14.296875 -73.046875 L 15.0625 -72.265625 L 15.0625 -0.765625 L 8.46875 0.765625 Z M 7.703125 0 "/>
</symbol>
</g>
</defs>
  <g id="oriya-reph-position:id0:id0" transform="matrix(1.25,0,0,1.25,0.0,1.328125)"><g id="oriya-reph-position:id0:surface1">
<g style="fill:rgb(0%,0%,0%);fill-opacity:1;">
  <use xlink:href="#oriya-reph-position:id0:glyph0-1" x="16" y="102.875" class="dc"/>
  <use xlink:href="#oriya-reph-position:id0:glyph0-2" x="77.59375" y="102.875" class="c0"/>
  <use xlink:href="#oriya-reph-position:id0:glyph0-3" x="72.09375" y="102.875" class="c1"/>
  <use xlink:href="#oriya-reph-position:id0:glyph0-4" x="139.859375" y="102.875" class="c2"/>
  <use xlink:href="#oriya-reph-position:id0:glyph0-5" x="142.28125" y="102.875" class="c3"/>
  <use xlink:href="#oriya-reph-position:id0:glyph0-6" x="136.125" y="102.875" class="c4"/>
  <use xlink:href="#oriya-reph-position:id0:glyph0-7" x="142.28125" y="102.875" class="c5"/>
  <use xlink:href="#oriya-reph-position:id0:glyph0-8" x="183.96875" y="102.875" class="c6"/>
</g>
</g>
</g>
  <g id="oriya-reph-position:id1:id1" transform="matrix(1.25,0,0,1.25,278.41796875,0.0)"><g id="oriya-reph-position:id1:surface1">
<g style="fill:rgb(0%,0%,0%);fill-opacity:1;">
  <use xlink:href="#oriya-reph-position:id1:glyph0-1" x="0" y="120.84375" class="arrow"/>
</g>
</g>
</g>
  <g id="oriya-reph-position:id2:id2" transform="matrix(1.25,0,0,1.25,411.015625,1.328125)"><g id="oriya-reph-position:id2:surface1">
<g style="fill:rgb(0%,0%,0%);fill-opacity:1;">
  <use xlink:href="#oriya-reph-position:id2:glyph0-1" x="16" y="102.875" class="c1"/>
  <use xlink:href="#oriya-reph-position:id2:glyph0-2" x="86.1875" y="102.875" class="c0"/>
  <use xlink:href="#oriya-reph-position:id2:glyph0-3" x="83.765625" y="102.875" class="c2"/>
  <use xlink:href="#oriya-reph-position:id2:glyph0-4" x="86.1875" y="102.875" class="c3"/>
  <use xlink:href="#oriya-reph-position:id2:glyph0-5" x="80.03125" y="102.875" class="c4"/>
  <use xlink:href="#oriya-reph-position:id2:glyph0-6" x="86.1875" y="102.875" class="c5"/>
  <use xlink:href="#oriya-reph-position:id2:glyph0-7" x="127.875" y="102.875" class="c6"/>
</g>
</g>
</g>
</svg>
