<!DOCTYPE svg PUBLIC "-//W3C//DTD SVG 1.1//EN" "http://www.w3.org/Graphics/SVG/1.1/DTD/svg11.dtd">
<!-- Created with svg_stack (http://github.com/astraw/svg_stack) --><svg xmlns="http://www.w3.org/2000/svg" xmlns:sodipodi="http://sodipodi.sourceforge.net/DTD/sodipodi-0.dtd" xmlns:xlink="http://www.w3.org/1999/xlink" version="1.1" width="432.59765625" height="201.40625" id="oriya-pstf-ya-1">
  <defs><g>
<symbol overflow="visible" id="oriya-pstf-ya-1:id0:glyph0-0">
<path style="stroke:none;" d="M 90.09375 -78.546875 L 90.09375 0 L 44.875 0 L 44.875 -78.546875 Z M 84.484375 -5.609375 L 84.484375 -72.9375 L 50.484375 -72.9375 L 50.484375 -5.609375 Z M 84.484375 -5.609375 "/>
</symbol>
<symbol overflow="visible" id="oriya-pstf-ya-1:id0:glyph0-1">
<path style="stroke:none;" d="M 47.1875 -55.984375 C 47.1875 -53.859375 46.085938 -52.796875 43.890625 -52.796875 C 41.835938 -52.796875 40.8125 -53.859375 40.8125 -55.984375 C 40.8125 -58.035156 41.835938 -59.0625 43.890625 -59.0625 C 46.085938 -59.0625 47.1875 -58.035156 47.1875 -55.984375 Z M 32.890625 -50.59375 C 32.890625 -48.46875 31.828125 -47.40625 29.703125 -47.40625 C 27.648438 -47.40625 26.625 -48.46875 26.625 -50.59375 C 26.625 -52.65625 27.648438 -53.6875 29.703125 -53.6875 C 31.828125 -53.6875 32.890625 -52.65625 32.890625 -50.59375 Z M 61.484375 -50.59375 C 61.484375 -48.46875 60.382812 -47.40625 58.1875 -47.40625 C 56.0625 -47.40625 55 -48.46875 55 -50.59375 C 55 -52.65625 56.0625 -53.6875 58.1875 -53.6875 C 60.382812 -53.6875 61.484375 -52.65625 61.484375 -50.59375 Z M 66.4375 -36.84375 C 66.4375 -34.71875 65.375 -33.65625 63.25 -33.65625 C 61.050781 -33.65625 59.953125 -34.71875 59.953125 -36.84375 C 59.953125 -38.90625 61.050781 -39.9375 63.25 -39.9375 C 65.375 -39.9375 66.4375 -38.90625 66.4375 -36.84375 Z M 27.9375 -36.84375 C 27.9375 -34.71875 26.910156 -33.65625 24.859375 -33.65625 C 22.660156 -33.65625 21.5625 -34.71875 21.5625 -36.84375 C 21.5625 -38.90625 22.660156 -39.9375 24.859375 -39.9375 C 26.910156 -39.9375 27.9375 -38.90625 27.9375 -36.84375 Z M 32.890625 -23.09375 C 32.890625 -20.96875 31.828125 -19.90625 29.703125 -19.90625 C 27.648438 -19.90625 26.625 -20.96875 26.625 -23.09375 C 26.625 -25.226562 27.648438 -26.296875 29.703125 -26.296875 C 31.828125 -26.296875 32.890625 -25.226562 32.890625 -23.09375 Z M 61.484375 -23.09375 C 61.484375 -20.96875 60.382812 -19.90625 58.1875 -19.90625 C 56.0625 -19.90625 55 -20.96875 55 -23.09375 C 55 -25.226562 56.0625 -26.296875 58.1875 -26.296875 C 60.382812 -26.296875 61.484375 -25.226562 61.484375 -23.09375 Z M 47.1875 -17.59375 C 47.1875 -15.46875 46.085938 -14.40625 43.890625 -14.40625 C 41.835938 -14.40625 40.8125 -15.46875 40.8125 -17.59375 C 40.8125 -19.726562 41.835938 -20.796875 43.890625 -20.796875 C 46.085938 -20.796875 47.1875 -19.726562 47.1875 -17.59375 Z M 47.1875 -17.59375 "/>
</symbol>
<symbol overflow="visible" id="oriya-pstf-ya-1:id0:glyph0-2">
<path style="stroke:none;" d="M 3.84375 25.1875 C 2.894531 25.1875 2.015625 24.875 1.203125 24.25 C 0.398438 23.625 0 22.691406 0 21.453125 C 0 19.910156 0.695312 18.257812 2.09375 16.5 C 3.488281 14.738281 5.320312 13.015625 7.59375 11.328125 C 4.4375 8.691406 2.859375 5.394531 2.859375 1.4375 C 2.859375 -1.5 3.703125 -4.03125 5.390625 -6.15625 C 7.078125 -8.28125 9.332031 -9.910156 12.15625 -11.046875 C 14.976562 -12.191406 18.078125 -12.765625 21.453125 -12.765625 C 24.753906 -12.765625 28.015625 -12.175781 31.234375 -11 C 34.460938 -9.820312 37.175781 -8.0625 39.375 -5.71875 L 39.15625 -12.3125 L 45.203125 -12.3125 L 45.203125 26.84375 L 39.15625 26.84375 L 39.59375 21.015625 C 37.832031 22.992188 35.722656 24.53125 33.265625 25.625 C 30.816406 26.726562 28.234375 27.28125 25.515625 27.28125 C 21.847656 27.28125 18.75 26.289062 16.21875 24.3125 C 13.695312 22.332031 12.4375 19.582031 12.4375 16.0625 C 12.4375 14.664062 12.65625 13.378906 13.09375 12.203125 C 11.550781 13.234375 10.117188 14.28125 8.796875 15.34375 C 7.472656 16.40625 6.410156 17.488281 5.609375 18.59375 C 6.859375 19.25 7.484375 20.3125 7.484375 21.78125 C 7.484375 22.800781 7.132812 23.625 6.4375 24.25 C 5.738281 24.875 4.875 25.1875 3.84375 25.1875 Z M 18.15625 15.515625 C 18.15625 17.492188 18.832031 19.015625 20.1875 20.078125 C 21.539062 21.140625 23.28125 21.671875 25.40625 21.671875 C 28.050781 21.671875 30.65625 20.898438 33.21875 19.359375 C 35.78125 17.816406 37.757812 15.691406 39.15625 12.984375 L 39.15625 2.859375 C 38.351562 0.585938 37.035156 -1.28125 35.203125 -2.75 C 33.367188 -4.21875 31.3125 -5.316406 29.03125 -6.046875 C 26.757812 -6.785156 24.453125 -7.15625 22.109375 -7.15625 C 18.660156 -7.15625 15.613281 -6.347656 12.96875 -4.734375 C 10.332031 -3.117188 9.015625 -0.84375 9.015625 2.09375 C 9.015625 4.582031 9.96875 6.671875 11.875 8.359375 C 15.539062 6.160156 19.28125 4.4375 23.09375 3.1875 L 25.078125 7.59375 C 20.460938 9.5 18.15625 12.140625 18.15625 15.515625 Z M 18.15625 15.515625 "/>
</symbol>
</g>
<g>
<symbol overflow="visible" id="oriya-pstf-ya-1:id1:glyph0-0">
<path style="stroke:none;" d="M 5.375 -96.6875 L 69.828125 -96.6875 L 69.828125 0 L 5.375 0 Z M 8.0625 -2.6875 L 67.140625 -2.6875 L 67.140625 -94 L 8.0625 -94 Z M 8.0625 -2.6875 "/>
</symbol>
<symbol overflow="visible" id="oriya-pstf-ya-1:id1:glyph0-1">
<path style="stroke:none;" d="M 68.15625 -13.75 L 66.28125 -18.640625 L 88.09375 -27.390625 L 6.984375 -27.390625 L 6.984375 -34 L 88.09375 -34 L 66.28125 -42.75 L 68.15625 -47.640625 L 99.09375 -34.265625 L 99.09375 -27.125 Z M 68.15625 -13.75 "/>
</symbol>
</g>
<g>
<symbol overflow="visible" id="oriya-pstf-ya-1:id2:glyph0-0">
<path style="stroke:none;" d="M 90.09375 -78.546875 L 90.09375 0 L 44.875 0 L 44.875 -78.546875 Z M 84.484375 -5.609375 L 84.484375 -72.9375 L 50.484375 -72.9375 L 50.484375 -5.609375 Z M 84.484375 -5.609375 "/>
</symbol>
<symbol overflow="visible" id="oriya-pstf-ya-1:id2:glyph0-1">
<path style="stroke:none;" d="M 47.1875 -55.984375 C 47.1875 -53.859375 46.085938 -52.796875 43.890625 -52.796875 C 41.835938 -52.796875 40.8125 -53.859375 40.8125 -55.984375 C 40.8125 -58.035156 41.835938 -59.0625 43.890625 -59.0625 C 46.085938 -59.0625 47.1875 -58.035156 47.1875 -55.984375 Z M 32.890625 -50.59375 C 32.890625 -48.46875 31.828125 -47.40625 29.703125 -47.40625 C 27.648438 -47.40625 26.625 -48.46875 26.625 -50.59375 C 26.625 -52.65625 27.648438 -53.6875 29.703125 -53.6875 C 31.828125 -53.6875 32.890625 -52.65625 32.890625 -50.59375 Z M 61.484375 -50.59375 C 61.484375 -48.46875 60.382812 -47.40625 58.1875 -47.40625 C 56.0625 -47.40625 55 -48.46875 55 -50.59375 C 55 -52.65625 56.0625 -53.6875 58.1875 -53.6875 C 60.382812 -53.6875 61.484375 -52.65625 61.484375 -50.59375 Z M 66.4375 -36.84375 C 66.4375 -34.71875 65.375 -33.65625 63.25 -33.65625 C 61.050781 -33.65625 59.953125 -34.71875 59.953125 -36.84375 C 59.953125 -38.90625 61.050781 -39.9375 63.25 -39.9375 C 65.375 -39.9375 66.4375 -38.90625 66.4375 -36.84375 Z M 27.9375 -36.84375 C 27.9375 -34.71875 26.910156 -33.65625 24.859375 -33.65625 C 22.660156 -33.65625 21.5625 -34.71875 21.5625 -36.84375 C 21.5625 -38.90625 22.660156 -39.9375 24.859375 -39.9375 C 26.910156 -39.9375 27.9375 -38.90625 27.9375 -36.84375 Z M 32.890625 -23.09375 C 32.890625 -20.96875 31.828125 -19.90625 29.703125 -19.90625 C 27.648438 -19.90625 26.625 -20.96875 26.625 -23.09375 C 26.625 -25.226562 27.648438 -26.296875 29.703125 -26.296875 C 31.828125 -26.296875 32.890625 -25.226562 32.890625 -23.09375 Z M 61.484375 -23.09375 C 61.484375 -20.96875 60.382812 -19.90625 58.1875 -19.90625 C 56.0625 -19.90625 55 -20.96875 55 -23.09375 C 55 -25.226562 56.0625 -26.296875 58.1875 -26.296875 C 60.382812 -26.296875 61.484375 -25.226562 61.484375 -23.09375 Z M 47.1875 -17.59375 C 47.1875 -15.46875 46.085938 -14.40625 43.890625 -14.40625 C 41.835938 -14.40625 40.8125 -15.46875 40.8125 -17.59375 C 40.8125 -19.726562 41.835938 -20.796875 43.890625 -20.796875 C 46.085938 -20.796875 47.1875 -19.726562 47.1875 -17.59375 Z M 47.1875 -17.59375 "/>
</symbol>
<symbol overflow="visible" id="oriya-pstf-ya-1:id2:glyph0-2">
<path style="stroke:none;" d="M 3.84375 25.1875 C 2.894531 25.1875 2.015625 24.875 1.203125 24.25 C 0.398438 23.625 0 22.691406 0 21.453125 C 0 19.910156 0.695312 18.257812 2.09375 16.5 C 3.488281 14.738281 5.320312 13.015625 7.59375 11.328125 C 4.4375 8.691406 2.859375 5.394531 2.859375 1.4375 C 2.859375 -1.5 3.703125 -4.03125 5.390625 -6.15625 C 7.078125 -8.28125 9.332031 -9.910156 12.15625 -11.046875 C 14.976562 -12.191406 18.078125 -12.765625 21.453125 -12.765625 C 24.753906 -12.765625 28.015625 -12.175781 31.234375 -11 C 34.460938 -9.820312 37.175781 -8.0625 39.375 -5.71875 L 39.15625 -12.3125 L 45.203125 -12.3125 L 45.203125 26.84375 L 39.15625 26.84375 L 39.59375 21.015625 C 37.832031 22.992188 35.722656 24.53125 33.265625 25.625 C 30.816406 26.726562 28.234375 27.28125 25.515625 27.28125 C 21.847656 27.28125 18.75 26.289062 16.21875 24.3125 C 13.695312 22.332031 12.4375 19.582031 12.4375 16.0625 C 12.4375 14.664062 12.65625 13.378906 13.09375 12.203125 C 11.550781 13.234375 10.117188 14.28125 8.796875 15.34375 C 7.472656 16.40625 6.410156 17.488281 5.609375 18.59375 C 6.859375 19.25 7.484375 20.3125 7.484375 21.78125 C 7.484375 22.800781 7.132812 23.625 6.4375 24.25 C 5.738281 24.875 4.875 25.1875 3.84375 25.1875 Z M 18.15625 15.515625 C 18.15625 17.492188 18.832031 19.015625 20.1875 20.078125 C 21.539062 21.140625 23.28125 21.671875 25.40625 21.671875 C 28.050781 21.671875 30.65625 20.898438 33.21875 19.359375 C 35.78125 17.816406 37.757812 15.691406 39.15625 12.984375 L 39.15625 2.859375 C 38.351562 0.585938 37.035156 -1.28125 35.203125 -2.75 C 33.367188 -4.21875 31.3125 -5.316406 29.03125 -6.046875 C 26.757812 -6.785156 24.453125 -7.15625 22.109375 -7.15625 C 18.660156 -7.15625 15.613281 -6.347656 12.96875 -4.734375 C 10.332031 -3.117188 9.015625 -0.84375 9.015625 2.09375 C 9.015625 4.582031 9.96875 6.671875 11.875 8.359375 C 15.539062 6.160156 19.28125 4.4375 23.09375 3.1875 L 25.078125 7.59375 C 20.460938 9.5 18.15625 12.140625 18.15625 15.515625 Z M 18.15625 15.515625 "/>
</symbol>
</g>
</defs>
  <g id="oriya-pstf-ya-1:id0:id0" transform="matrix(1.25,0,0,1.25,0.0,4.560546875)"><g id="oriya-pstf-ya-1:id0:surface1">
<g style="fill:rgb(0%,0%,0%);fill-opacity:1;">
  <use xlink:href="#oriya-pstf-ya-1:id0:glyph0-1" x="16" y="119.59375" class="dc"/>
  <use xlink:href="#oriya-pstf-ya-1:id0:glyph0-2" x="104" y="119.59375" class="c0"/>
</g>
</g>
</g>
  <g id="oriya-pstf-ya-1:id1:id1" transform="matrix(1.25,0,0,1.25,150.0,0.0)"><g id="oriya-pstf-ya-1:id1:surface1">
<g style="fill:rgb(0%,0%,0%);fill-opacity:1;">
  <use xlink:href="#oriya-pstf-ya-1:id1:glyph0-1" x="0" y="120.84375" class="arrow"/>
</g>
</g>
</g>
  <g id="oriya-pstf-ya-1:id2:id2" transform="matrix(1.25,0,0,1.25,282.59765625,4.560546875)"><g id="oriya-pstf-ya-1:id2:surface1">
<g style="fill:rgb(0%,0%,0%);fill-opacity:1;">
  <use xlink:href="#oriya-pstf-ya-1:id2:glyph0-1" x="16" y="119.59375" class="dc"/>
  <use xlink:href="#oriya-pstf-ya-1:id2:glyph0-2" x="104" y="119.59375" class="c0"/>
</g>
</g>
</g>
</svg>
