<!DOCTYPE svg PUBLIC "-//W3C//DTD SVG 1.1//EN" "http://www.w3.org/Graphics/SVG/1.1/DTD/svg11.dtd">
<!-- Created with svg_stack (http://github.com/astraw/svg_stack) --><svg xmlns="http://www.w3.org/2000/svg" xmlns:sodipodi="http://sodipodi.sourceforge.net/DTD/sodipodi-0.dtd" xmlns:xlink="http://www.w3.org/1999/xlink" version="1.1" width="100%" id="oriya-dist" viewBox="0 0 568.28125 201.40625">
  <defs><g>
<symbol overflow="visible" id="oriya-dist:id0:glyph0-0">
<path style="stroke:none;" d="M 10.34375 0 L 10.34375 -78.546875 L 55.546875 -78.546875 L 55.546875 0 Z M 15.953125 -5.609375 L 49.9375 -5.609375 L 49.9375 -72.9375 L 15.953125 -72.9375 Z M 15.953125 -5.609375 "/>
</symbol>
<symbol overflow="visible" id="oriya-dist:id0:glyph0-1">
<path style="stroke:none;" d="M 11.65625 -7.375 C 11.65625 -12.582031 13.488281 -17.785156 17.15625 -22.984375 C 12.832031 -25.921875 9.476562 -29.535156 7.09375 -33.828125 C 4.707031 -38.117188 3.515625 -42.644531 3.515625 -47.40625 C 3.515625 -51.957031 4.707031 -56.191406 7.09375 -60.109375 C 9.476562 -64.035156 12.851562 -67.226562 17.21875 -69.6875 C 21.582031 -72.144531 26.695312 -73.375 32.5625 -73.375 C 37.476562 -73.375 42.039062 -72.492188 46.25 -70.734375 C 50.46875 -68.972656 53.972656 -66.585938 56.765625 -63.578125 L 56.765625 -71.5 L 63.359375 -73.046875 L 64.125 -72.265625 L 64.125 -0.765625 L 57.53125 0.765625 L 56.765625 0 L 56.765625 -52.03125 C 54.410156 -56.570312 50.976562 -60.050781 46.46875 -62.46875 C 41.957031 -64.894531 37.066406 -66.109375 31.796875 -66.109375 C 27.242188 -66.109375 23.410156 -65.300781 20.296875 -63.6875 C 17.179688 -62.070312 14.851562 -59.941406 13.3125 -57.296875 C 11.769531 -54.660156 11 -51.804688 11 -48.734375 C 11 -44.546875 12.171875 -40.835938 14.515625 -37.609375 C 16.867188 -34.390625 19.988281 -31.972656 23.875 -30.359375 C 26 -32.191406 28.414062 -33.929688 31.125 -35.578125 C 33.84375 -37.234375 36.816406 -38.6875 40.046875 -39.9375 L 42.90625 -33.4375 C 36.007812 -31.019531 30.78125 -27.992188 27.21875 -24.359375 C 23.664062 -20.734375 21.117188 -16.679688 19.578125 -12.203125 C 22.804688 -11.035156 24.421875 -8.800781 24.421875 -5.5 C 24.421875 -3.664062 23.816406 -2.160156 22.609375 -0.984375 C 21.398438 0.179688 19.953125 0.765625 18.265625 0.765625 C 16.648438 0.765625 15.144531 0.144531 13.75 -1.09375 C 12.351562 -2.34375 11.65625 -4.4375 11.65625 -7.375 Z M 11.65625 -7.375 "/>
</symbol>
<symbol overflow="visible" id="oriya-dist:id0:glyph0-2">
<path style="stroke:none;" d="M -1.546875 16.171875 L 13.09375 24.859375 L 8.90625 30.90625 L 7.703125 30.90625 L -2.203125 23.984375 C -3.960938 26.035156 -5.921875 27.71875 -8.078125 29.03125 C -10.242188 30.351562 -12.757812 31.015625 -15.625 31.015625 C -18.769531 31.015625 -21.390625 30.375 -23.484375 29.09375 C -25.578125 27.8125 -27.15625 26.179688 -28.21875 24.203125 C -29.28125 22.222656 -29.8125 20.171875 -29.8125 18.046875 C -29.8125 13.785156 -27.847656 9.859375 -23.921875 6.265625 C -20.003906 2.671875 -14.671875 -0.476562 -7.921875 -3.1875 L -6.703125 -2.640625 L -6.703125 0.984375 L -7.375 2.09375 C -13.3125 4.945312 -17.304688 7.582031 -19.359375 10 C -21.410156 12.425781 -22.4375 14.738281 -22.4375 16.9375 C -22.4375 19.0625 -21.644531 20.785156 -20.0625 22.109375 C -18.488281 23.429688 -16.601562 24.09375 -14.40625 24.09375 C -12.28125 24.09375 -10.351562 23.410156 -8.625 22.046875 C -6.90625 20.691406 -5.273438 18.734375 -3.734375 16.171875 Z M -1.546875 16.171875 "/>
</symbol>
<symbol overflow="visible" id="oriya-dist:id0:glyph0-3">
<path style="stroke:none;" d="M 11.328125 -23.09375 C 11.328125 -24.195312 11.4375 -25.265625 11.65625 -26.296875 C 8.945312 -29.296875 6.910156 -32.554688 5.546875 -36.078125 C 4.191406 -39.597656 3.515625 -43.117188 3.515625 -46.640625 C 3.515625 -51.628906 4.816406 -56.140625 7.421875 -60.171875 C 10.023438 -64.203125 13.632812 -67.410156 18.25 -69.796875 C 22.875 -72.179688 28.191406 -73.375 34.203125 -73.375 C 38.753906 -73.375 42.789062 -72.726562 46.3125 -71.4375 C 49.832031 -70.15625 52.929688 -68.539062 55.609375 -66.59375 C 58.285156 -64.65625 60.59375 -62.625 62.53125 -60.5 C 64.476562 -58.375 66.148438 -56.46875 67.546875 -54.78125 L 62.15625 -49.0625 L 61.046875 -49.0625 C 59.359375 -51.476562 57.210938 -54.003906 54.609375 -56.640625 C 52.003906 -59.285156 48.882812 -61.523438 45.25 -63.359375 C 41.625 -65.191406 37.394531 -66.109375 32.5625 -66.109375 C 28.382812 -66.109375 24.679688 -65.335938 21.453125 -63.796875 C 18.222656 -62.253906 15.671875 -60.109375 13.796875 -57.359375 C 11.929688 -54.609375 11 -51.4375 11 -47.84375 C 11 -45.28125 11.472656 -42.878906 12.421875 -40.640625 C 13.378906 -38.410156 14.628906 -36.488281 16.171875 -34.875 C 17.566406 -36.1875 19.144531 -37.207031 20.90625 -37.9375 C 22.664062 -38.675781 24.535156 -39.046875 26.515625 -39.046875 C 28.640625 -39.046875 30.597656 -38.550781 32.390625 -37.5625 C 34.191406 -36.570312 35.675781 -35.269531 36.84375 -33.65625 C 38.09375 -35.414062 39.6875 -36.753906 41.625 -37.671875 C 43.570312 -38.585938 45.5 -39.046875 47.40625 -39.046875 C 50.632812 -39.046875 53.179688 -37.984375 55.046875 -35.859375 C 56.921875 -33.734375 57.859375 -30.210938 57.859375 -25.296875 L 57.859375 -0.765625 L 51.15625 0.765625 L 50.484375 0 L 50.484375 -22.765625 C 50.484375 -25.554688 50.023438 -27.757812 49.109375 -29.375 C 48.191406 -30.988281 46.890625 -31.796875 45.203125 -31.796875 C 43.816406 -31.796875 42.679688 -31.375 41.796875 -30.53125 C 40.921875 -29.6875 40.484375 -28.75 40.484375 -27.71875 L 40.484375 -0.765625 L 33.875 0.765625 L 33.109375 0 L 33.109375 -10.234375 C 30.910156 -8.546875 28.34375 -7.703125 25.40625 -7.703125 C 22.769531 -7.703125 20.382812 -8.378906 18.25 -9.734375 C 16.125 -11.085938 14.4375 -12.921875 13.1875 -15.234375 C 11.945312 -17.546875 11.328125 -20.164062 11.328125 -23.09375 Z M 18.046875 -25.078125 C 18.046875 -21.847656 19.050781 -19.222656 21.0625 -17.203125 C 23.082031 -15.191406 25.226562 -14.1875 27.5 -14.1875 C 29.550781 -14.1875 31.195312 -14.882812 32.4375 -16.28125 C 33.6875 -17.675781 34.3125 -19.4375 34.3125 -21.5625 C 34.3125 -24.71875 33.335938 -27.300781 31.390625 -29.3125 C 29.453125 -31.332031 27.203125 -32.34375 24.640625 -32.34375 C 22.585938 -32.34375 20.972656 -31.644531 19.796875 -30.25 C 18.628906 -28.851562 18.046875 -27.128906 18.046875 -25.078125 Z M 18.046875 -25.078125 "/>
</symbol>
</g>
<g>
<symbol overflow="visible" id="oriya-dist:id1:glyph0-0">
<path style="stroke:none;" d="M 5.375 -96.6875 L 69.828125 -96.6875 L 69.828125 0 L 5.375 0 Z M 8.0625 -2.6875 L 67.140625 -2.6875 L 67.140625 -94 L 8.0625 -94 Z M 8.0625 -2.6875 "/>
</symbol>
<symbol overflow="visible" id="oriya-dist:id1:glyph0-1">
<path style="stroke:none;" d="M 68.15625 -13.75 L 66.28125 -18.640625 L 88.09375 -27.390625 L 6.984375 -27.390625 L 6.984375 -34 L 88.09375 -34 L 66.28125 -42.75 L 68.15625 -47.640625 L 99.09375 -34.265625 L 99.09375 -27.125 Z M 68.15625 -13.75 "/>
</symbol>
</g>
<g>
<symbol overflow="visible" id="oriya-dist:id2:glyph0-0">
<path style="stroke:none;" d="M 10.34375 0 L 10.34375 -78.546875 L 55.546875 -78.546875 L 55.546875 0 Z M 15.953125 -5.609375 L 49.9375 -5.609375 L 49.9375 -72.9375 L 15.953125 -72.9375 Z M 15.953125 -5.609375 "/>
</symbol>
<symbol overflow="visible" id="oriya-dist:id2:glyph0-1">
<path style="stroke:none;" d="M 11.65625 -7.375 C 11.65625 -12.582031 13.488281 -17.785156 17.15625 -22.984375 C 12.832031 -25.921875 9.476562 -29.535156 7.09375 -33.828125 C 4.707031 -38.117188 3.515625 -42.644531 3.515625 -47.40625 C 3.515625 -51.957031 4.707031 -56.191406 7.09375 -60.109375 C 9.476562 -64.035156 12.851562 -67.226562 17.21875 -69.6875 C 21.582031 -72.144531 26.695312 -73.375 32.5625 -73.375 C 37.476562 -73.375 42.039062 -72.492188 46.25 -70.734375 C 50.46875 -68.972656 53.972656 -66.585938 56.765625 -63.578125 L 56.765625 -71.5 L 63.359375 -73.046875 L 64.125 -72.265625 L 64.125 -0.765625 L 57.53125 0.765625 L 56.765625 0 L 56.765625 -52.03125 C 54.410156 -56.570312 50.976562 -60.050781 46.46875 -62.46875 C 41.957031 -64.894531 37.066406 -66.109375 31.796875 -66.109375 C 27.242188 -66.109375 23.410156 -65.300781 20.296875 -63.6875 C 17.179688 -62.070312 14.851562 -59.941406 13.3125 -57.296875 C 11.769531 -54.660156 11 -51.804688 11 -48.734375 C 11 -44.546875 12.171875 -40.835938 14.515625 -37.609375 C 16.867188 -34.390625 19.988281 -31.972656 23.875 -30.359375 C 26 -32.191406 28.414062 -33.929688 31.125 -35.578125 C 33.84375 -37.234375 36.816406 -38.6875 40.046875 -39.9375 L 42.90625 -33.4375 C 36.007812 -31.019531 30.78125 -27.992188 27.21875 -24.359375 C 23.664062 -20.734375 21.117188 -16.679688 19.578125 -12.203125 C 22.804688 -11.035156 24.421875 -8.800781 24.421875 -5.5 C 24.421875 -3.664062 23.816406 -2.160156 22.609375 -0.984375 C 21.398438 0.179688 19.953125 0.765625 18.265625 0.765625 C 16.648438 0.765625 15.144531 0.144531 13.75 -1.09375 C 12.351562 -2.34375 11.65625 -4.4375 11.65625 -7.375 Z M 11.65625 -7.375 "/>
</symbol>
<symbol overflow="visible" id="oriya-dist:id2:glyph0-2">
<path style="stroke:none;" d="M -1.546875 16.171875 L 13.09375 24.859375 L 8.90625 30.90625 L 7.703125 30.90625 L -2.203125 23.984375 C -3.960938 26.035156 -5.921875 27.71875 -8.078125 29.03125 C -10.242188 30.351562 -12.757812 31.015625 -15.625 31.015625 C -18.769531 31.015625 -21.390625 30.375 -23.484375 29.09375 C -25.578125 27.8125 -27.15625 26.179688 -28.21875 24.203125 C -29.28125 22.222656 -29.8125 20.171875 -29.8125 18.046875 C -29.8125 13.785156 -27.847656 9.859375 -23.921875 6.265625 C -20.003906 2.671875 -14.671875 -0.476562 -7.921875 -3.1875 L -6.703125 -2.640625 L -6.703125 0.984375 L -7.375 2.09375 C -13.3125 4.945312 -17.304688 7.582031 -19.359375 10 C -21.410156 12.425781 -22.4375 14.738281 -22.4375 16.9375 C -22.4375 19.0625 -21.644531 20.785156 -20.0625 22.109375 C -18.488281 23.429688 -16.601562 24.09375 -14.40625 24.09375 C -12.28125 24.09375 -10.351562 23.410156 -8.625 22.046875 C -6.90625 20.691406 -5.273438 18.734375 -3.734375 16.171875 Z M -1.546875 16.171875 "/>
</symbol>
<symbol overflow="visible" id="oriya-dist:id2:glyph0-3">
<path style="stroke:none;" d="M 11.328125 -23.09375 C 11.328125 -24.195312 11.4375 -25.265625 11.65625 -26.296875 C 8.945312 -29.296875 6.910156 -32.554688 5.546875 -36.078125 C 4.191406 -39.597656 3.515625 -43.117188 3.515625 -46.640625 C 3.515625 -51.628906 4.816406 -56.140625 7.421875 -60.171875 C 10.023438 -64.203125 13.632812 -67.410156 18.25 -69.796875 C 22.875 -72.179688 28.191406 -73.375 34.203125 -73.375 C 38.753906 -73.375 42.789062 -72.726562 46.3125 -71.4375 C 49.832031 -70.15625 52.929688 -68.539062 55.609375 -66.59375 C 58.285156 -64.65625 60.59375 -62.625 62.53125 -60.5 C 64.476562 -58.375 66.148438 -56.46875 67.546875 -54.78125 L 62.15625 -49.0625 L 61.046875 -49.0625 C 59.359375 -51.476562 57.210938 -54.003906 54.609375 -56.640625 C 52.003906 -59.285156 48.882812 -61.523438 45.25 -63.359375 C 41.625 -65.191406 37.394531 -66.109375 32.5625 -66.109375 C 28.382812 -66.109375 24.679688 -65.335938 21.453125 -63.796875 C 18.222656 -62.253906 15.671875 -60.109375 13.796875 -57.359375 C 11.929688 -54.609375 11 -51.4375 11 -47.84375 C 11 -45.28125 11.472656 -42.878906 12.421875 -40.640625 C 13.378906 -38.410156 14.628906 -36.488281 16.171875 -34.875 C 17.566406 -36.1875 19.144531 -37.207031 20.90625 -37.9375 C 22.664062 -38.675781 24.535156 -39.046875 26.515625 -39.046875 C 28.640625 -39.046875 30.597656 -38.550781 32.390625 -37.5625 C 34.191406 -36.570312 35.675781 -35.269531 36.84375 -33.65625 C 38.09375 -35.414062 39.6875 -36.753906 41.625 -37.671875 C 43.570312 -38.585938 45.5 -39.046875 47.40625 -39.046875 C 50.632812 -39.046875 53.179688 -37.984375 55.046875 -35.859375 C 56.921875 -33.734375 57.859375 -30.210938 57.859375 -25.296875 L 57.859375 -0.765625 L 51.15625 0.765625 L 50.484375 0 L 50.484375 -22.765625 C 50.484375 -25.554688 50.023438 -27.757812 49.109375 -29.375 C 48.191406 -30.988281 46.890625 -31.796875 45.203125 -31.796875 C 43.816406 -31.796875 42.679688 -31.375 41.796875 -30.53125 C 40.921875 -29.6875 40.484375 -28.75 40.484375 -27.71875 L 40.484375 -0.765625 L 33.875 0.765625 L 33.109375 0 L 33.109375 -10.234375 C 30.910156 -8.546875 28.34375 -7.703125 25.40625 -7.703125 C 22.769531 -7.703125 20.382812 -8.378906 18.25 -9.734375 C 16.125 -11.085938 14.4375 -12.921875 13.1875 -15.234375 C 11.945312 -17.546875 11.328125 -20.164062 11.328125 -23.09375 Z M 18.046875 -25.078125 C 18.046875 -21.847656 19.050781 -19.222656 21.0625 -17.203125 C 23.082031 -15.191406 25.226562 -14.1875 27.5 -14.1875 C 29.550781 -14.1875 31.195312 -14.882812 32.4375 -16.28125 C 33.6875 -17.675781 34.3125 -19.4375 34.3125 -21.5625 C 34.3125 -24.71875 33.335938 -27.300781 31.390625 -29.3125 C 29.453125 -31.332031 27.203125 -32.34375 24.640625 -32.34375 C 22.585938 -32.34375 20.972656 -31.644531 19.796875 -30.25 C 18.628906 -28.851562 18.046875 -27.128906 18.046875 -25.078125 Z M 18.046875 -25.078125 "/>
</symbol>
</g>
</defs>
  <g id="oriya-dist:id0:id0" transform="matrix(1.25,0,0,1.25,0.0,1.328125)"><g id="oriya-dist:id0:surface1">
<g style="fill:rgb(0%,0%,0%);fill-opacity:1;">
  <use xlink:href="#oriya-dist:id0:glyph0-1" x="16" y="102.875" class="c0"/>
  <use xlink:href="#oriya-dist:id0:glyph0-2" x="86.84375" y="102.875" class="c1"/>
  <use xlink:href="#oriya-dist:id0:glyph0-3" x="86.84375" y="102.875" class="c2"/>
</g>
</g>
</g>
  <g id="oriya-dist:id1:id1" transform="matrix(1.25,0,0,1.25,216.1328125,0.0)"><g id="oriya-dist:id1:surface1">
<g style="fill:rgb(0%,0%,0%);fill-opacity:1;">
  <use xlink:href="#oriya-dist:id1:glyph0-1" x="0" y="120.84375" class="arrow"/>
</g>
</g>
</g>
  <g id="oriya-dist:id2:id2" transform="matrix(1.25,0,0,1.25,348.73046875,1.328125)"><g id="oriya-dist:id2:surface1">
<g style="fill:rgb(0%,0%,0%);fill-opacity:1;">
  <use xlink:href="#oriya-dist:id2:glyph0-1" x="16" y="102.875" class="c0"/>
  <use xlink:href="#oriya-dist:id2:glyph0-2" x="86.84375" y="102.875" class="c1"/>
  <use xlink:href="#oriya-dist:id2:glyph0-3" x="89.578125" y="102.875" class="c2"/>
</g>
</g>
</g>
</svg>
