<!DOCTYPE svg PUBLIC "-//W3C//DTD SVG 1.1//EN" "http://www.w3.org/Graphics/SVG/1.1/DTD/svg11.dtd">
<!-- Created with svg_stack (http://github.com/astraw/svg_stack) --><svg xmlns="http://www.w3.org/2000/svg" xmlns:sodipodi="http://sodipodi.sourceforge.net/DTD/sodipodi-0.dtd" xmlns:xlink="http://www.w3.org/1999/xlink" version="1.1" width="100%" id="oriya-pres" viewBox="0 0 427.79296875 201.40625">
  <defs><g>
<symbol overflow="visible" id="oriya-pres:id0:glyph0-0">
<path style="stroke:none;" d="M 90.09375 -78.546875 L 90.09375 0 L 44.875 0 L 44.875 -78.546875 Z M 84.484375 -5.609375 L 84.484375 -72.9375 L 50.484375 -72.9375 L 50.484375 -5.609375 Z M 84.484375 -5.609375 "/>
</symbol>
<symbol overflow="visible" id="oriya-pres:id0:glyph0-1">
<path style="stroke:none;" d="M 21.125 0.875 C 18.625 0.875 16.550781 -0.09375 14.90625 -2.03125 C 13.257812 -3.976562 12.4375 -6.640625 12.4375 -10.015625 C 12.4375 -14.191406 13.535156 -18.222656 15.734375 -22.109375 C 11.773438 -24.742188 8.75 -28.078125 6.65625 -32.109375 C 4.5625 -36.148438 3.515625 -40.550781 3.515625 -45.3125 C 3.515625 -50.445312 4.816406 -55.125 7.421875 -59.34375 C 10.023438 -63.5625 13.78125 -66.9375 18.6875 -69.46875 C 23.601562 -72 29.507812 -73.265625 36.40625 -73.265625 C 42.050781 -73.265625 47.550781 -72.195312 52.90625 -70.0625 C 58.257812 -67.9375 62.769531 -64.710938 66.4375 -60.390625 L 66.109375 -72.375 L 74.6875 -72.375 L 74.6875 0 L 66.109375 0 L 66.109375 -46.09375 C 64.929688 -50.195312 62.929688 -53.675781 60.109375 -56.53125 C 57.285156 -59.394531 53.910156 -61.5625 49.984375 -63.03125 C 46.066406 -64.5 41.875 -65.234375 37.40625 -65.234375 C 31.757812 -65.234375 27.082031 -64.257812 23.375 -62.3125 C 19.664062 -60.375 16.894531 -57.828125 15.0625 -54.671875 C 13.226562 -51.515625 12.3125 -48.101562 12.3125 -44.4375 C 12.3125 -41.28125 12.988281 -38.234375 14.34375 -35.296875 C 15.707031 -32.367188 17.671875 -29.914062 20.234375 -27.9375 C 23.390625 -31.238281 27.273438 -33.988281 31.890625 -36.1875 C 36.515625 -38.382812 41.503906 -39.851562 46.859375 -40.59375 L 48.0625 -33.109375 C 39.78125 -31.859375 33.421875 -29.414062 28.984375 -25.78125 C 24.546875 -22.15625 21.816406 -18.109375 20.796875 -13.640625 L 21.015625 -13.640625 C 23.359375 -13.640625 25.222656 -12.867188 26.609375 -11.328125 C 28.003906 -9.785156 28.703125 -8.097656 28.703125 -6.265625 C 28.703125 -4.210938 27.988281 -2.507812 26.5625 -1.15625 C 25.132812 0.195312 23.320312 0.875 21.125 0.875 Z M 21.125 0.875 "/>
</symbol>
<symbol overflow="visible" id="oriya-pres:id0:glyph0-2">
<path style="stroke:none;" d="M 2.421875 8.796875 C 2.421875 4.910156 3.300781 1.316406 5.0625 -1.984375 C 6.820312 -5.285156 9.460938 -7.90625 12.984375 -9.84375 C 16.503906 -11.789062 20.941406 -12.765625 26.296875 -12.765625 C 33.179688 -12.765625 38.675781 -11.164062 42.78125 -7.96875 C 46.894531 -4.78125 48.953125 -0.472656 48.953125 4.953125 C 48.953125 7.296875 48.546875 9.53125 47.734375 11.65625 C 46.929688 13.78125 45.796875 15.757812 44.328125 17.59375 L 50.8125 25.625 L 46.421875 28.9375 L 38.0625 17.703125 C 41.289062 14.265625 42.90625 10.378906 42.90625 6.046875 C 42.90625 1.796875 41.398438 -1.519531 38.390625 -3.90625 C 35.378906 -6.289062 31.347656 -7.484375 26.296875 -7.484375 C 22.253906 -7.484375 18.910156 -6.726562 16.265625 -5.21875 C 13.628906 -3.71875 11.6875 -1.722656 10.4375 0.765625 C 9.195312 3.265625 8.578125 5.90625 8.578125 8.6875 C 8.578125 12.425781 9.601562 15.648438 11.65625 18.359375 C 13.707031 21.078125 16.675781 22.4375 20.5625 22.4375 C 25.40625 22.4375 28.195312 20.421875 28.9375 16.390625 C 27.613281 17.117188 26.109375 17.484375 24.421875 17.484375 C 21.628906 17.484375 19.390625 16.75 17.703125 15.28125 C 16.023438 13.820312 15.1875 11.878906 15.1875 9.453125 C 15.1875 6.890625 16.101562 4.101562 17.9375 1.09375 L 22.4375 2.859375 C 21.269531 5.421875 20.6875 7.507812 20.6875 9.125 C 20.6875 11.988281 22.1875 13.421875 25.1875 13.421875 C 26.65625 13.421875 27.941406 12.941406 29.046875 11.984375 L 29.046875 3.296875 L 34.546875 3.296875 L 34.546875 13.96875 C 34.546875 18.21875 33.296875 21.5 30.796875 23.8125 C 28.304688 26.125 24.785156 27.28125 20.234375 27.28125 C 16.273438 27.28125 12.972656 26.453125 10.328125 24.796875 C 7.691406 23.148438 5.710938 20.929688 4.390625 18.140625 C 3.078125 15.359375 2.421875 12.242188 2.421875 8.796875 Z M 2.421875 8.796875 "/>
</symbol>
</g>
<g>
<symbol overflow="visible" id="oriya-pres:id1:glyph0-0">
<path style="stroke:none;" d="M 5.375 -96.6875 L 69.828125 -96.6875 L 69.828125 0 L 5.375 0 Z M 8.0625 -2.6875 L 67.140625 -2.6875 L 67.140625 -94 L 8.0625 -94 Z M 8.0625 -2.6875 "/>
</symbol>
<symbol overflow="visible" id="oriya-pres:id1:glyph0-1">
<path style="stroke:none;" d="M 68.15625 -13.75 L 66.28125 -18.640625 L 88.09375 -27.390625 L 6.984375 -27.390625 L 6.984375 -34 L 88.09375 -34 L 66.28125 -42.75 L 68.15625 -47.640625 L 99.09375 -34.265625 L 99.09375 -27.125 Z M 68.15625 -13.75 "/>
</symbol>
</g>
<g>
<symbol overflow="visible" id="oriya-pres:id2:glyph0-0">
<path style="stroke:none;" d="M 90.09375 -78.546875 L 90.09375 0 L 44.875 0 L 44.875 -78.546875 Z M 84.484375 -5.609375 L 84.484375 -72.9375 L 50.484375 -72.9375 L 50.484375 -5.609375 Z M 84.484375 -5.609375 "/>
</symbol>
<symbol overflow="visible" id="oriya-pres:id2:glyph0-1">
<path style="stroke:none;" d="M 21.125 0.875 C 18.625 0.875 16.550781 -0.09375 14.90625 -2.03125 C 13.257812 -3.976562 12.4375 -6.640625 12.4375 -10.015625 C 12.4375 -14.191406 13.535156 -18.222656 15.734375 -22.109375 C 11.773438 -24.742188 8.75 -28.078125 6.65625 -32.109375 C 4.5625 -36.148438 3.515625 -40.550781 3.515625 -45.3125 C 3.515625 -50.445312 4.816406 -55.125 7.421875 -59.34375 C 10.023438 -63.5625 13.78125 -66.9375 18.6875 -69.46875 C 23.601562 -72 29.507812 -73.265625 36.40625 -73.265625 C 42.050781 -73.265625 47.550781 -72.195312 52.90625 -70.0625 C 58.257812 -67.9375 62.769531 -64.710938 66.4375 -60.390625 L 66.109375 -72.375 L 74.6875 -72.375 L 74.6875 -18.8125 C 77.914062 -17.925781 80.519531 -16.328125 82.5 -14.015625 C 84.476562 -11.710938 85.46875 -8.800781 85.46875 -5.28125 C 85.46875 -2.125 84.457031 0.789062 82.4375 3.46875 C 80.425781 6.144531 77.476562 8.175781 73.59375 9.5625 L 87.671875 12.875 L 86.453125 18.484375 L 54.34375 10.78125 L 55.546875 5.390625 C 57.890625 6.046875 60.3125 6.375 62.8125 6.375 C 67.726562 6.375 71.429688 5.3125 73.921875 3.1875 C 76.410156 1.0625 77.65625 -1.351562 77.65625 -4.0625 C 77.65625 -7 76.628906 -9.203125 74.578125 -10.671875 C 72.523438 -12.140625 70.066406 -12.875 67.203125 -12.875 C 65.597656 -12.875 63.914062 -12.632812 62.15625 -12.15625 C 60.394531 -11.675781 58.671875 -10.960938 56.984375 -10.015625 L 54.015625 -15.953125 C 55.847656 -16.972656 57.828125 -17.796875 59.953125 -18.421875 C 62.078125 -19.046875 64.128906 -19.429688 66.109375 -19.578125 L 66.109375 -46.09375 C 64.929688 -50.195312 62.929688 -53.675781 60.109375 -56.53125 C 57.285156 -59.394531 53.910156 -61.5625 49.984375 -63.03125 C 46.066406 -64.5 41.875 -65.234375 37.40625 -65.234375 C 31.757812 -65.234375 27.082031 -64.257812 23.375 -62.3125 C 19.664062 -60.375 16.894531 -57.828125 15.0625 -54.671875 C 13.226562 -51.515625 12.3125 -48.101562 12.3125 -44.4375 C 12.3125 -41.28125 12.988281 -38.234375 14.34375 -35.296875 C 15.707031 -32.367188 17.671875 -29.914062 20.234375 -27.9375 C 23.390625 -31.238281 27.273438 -33.988281 31.890625 -36.1875 C 36.515625 -38.382812 41.503906 -39.851562 46.859375 -40.59375 L 48.0625 -33.109375 C 39.78125 -31.859375 33.421875 -29.414062 28.984375 -25.78125 C 24.546875 -22.15625 21.816406 -18.109375 20.796875 -13.640625 L 21.015625 -13.640625 C 23.359375 -13.640625 25.222656 -12.867188 26.609375 -11.328125 C 28.003906 -9.785156 28.703125 -8.097656 28.703125 -6.265625 C 28.703125 -4.210938 27.988281 -2.507812 26.5625 -1.15625 C 25.132812 0.195312 23.320312 0.875 21.125 0.875 Z M 21.125 0.875 "/>
</symbol>
</g>
</defs>
  <g id="oriya-pres:id0:id0" transform="matrix(1.25,0,0,1.25,0.0,4.560546875)"><g id="oriya-pres:id0:surface1">
<g style="fill:rgb(0%,0%,0%);fill-opacity:1;">
  <use xlink:href="#oriya-pres:id0:glyph0-1" x="16" y="119.59375" class="c0"/>
  <use xlink:href="#oriya-pres:id0:glyph0-2" x="52.40625" y="131.6875" class="c1"/>
</g>
</g>
</g>
  <g id="oriya-pres:id1:id1" transform="matrix(1.25,0,0,1.25,141.89453125,0.0)"><g id="oriya-pres:id1:surface1">
<g style="fill:rgb(0%,0%,0%);fill-opacity:1;">
  <use xlink:href="#oriya-pres:id1:glyph0-1" x="0" y="120.84375" class="arrow"/>
</g>
</g>
</g>
  <g id="oriya-pres:id2:id2" transform="matrix(1.25,0,0,1.25,274.4921875,4.560546875)"><g id="oriya-pres:id2:surface1">
<g style="fill:rgb(0%,0%,0%);fill-opacity:1;">
  <use xlink:href="#oriya-pres:id2:glyph0-1" x="16" y="119.59375" class="c2"/>
</g>
</g>
</g>
</svg>