<!DOCTYPE svg PUBLIC "-//W3C//DTD SVG 1.1//EN" "http://www.w3.org/Graphics/SVG/1.1/DTD/svg11.dtd">
<!-- Created with svg_stack (http://github.com/astraw/svg_stack) --><svg xmlns="http://www.w3.org/2000/svg" xmlns:sodipodi="http://sodipodi.sourceforge.net/DTD/sodipodi-0.dtd" xmlns:xlink="http://www.w3.org/1999/xlink" version="1.1" width="100%" id="oriya-psts" viewBox="0 0 573.14453125 201.40625">
  <defs><g>
<symbol overflow="visible" id="oriya-psts:id0:glyph0-0">
<path style="stroke:none;" d="M 10.34375 0 L 10.34375 -78.546875 L 55.546875 -78.546875 L 55.546875 0 Z M 15.953125 -5.609375 L 49.9375 -5.609375 L 49.9375 -72.9375 L 15.953125 -72.9375 Z M 15.953125 -5.609375 "/>
</symbol>
<symbol overflow="visible" id="oriya-psts:id0:glyph0-1">
<path style="stroke:none;" d="M 4.0625 -35.640625 C 4.0625 -43.484375 5.304688 -50.226562 7.796875 -55.875 C 10.296875 -61.519531 13.726562 -65.847656 18.09375 -68.859375 C 22.457031 -71.867188 27.425781 -73.375 33 -73.375 C 36.738281 -73.375 40.09375 -72.785156 43.0625 -71.609375 C 46.03125 -70.429688 48.429688 -69.222656 50.265625 -67.984375 L 46.859375 -61.703125 L 45.65625 -61.703125 C 43.820312 -63.023438 41.691406 -64.109375 39.265625 -64.953125 C 36.847656 -65.796875 34.28125 -66.21875 31.5625 -66.21875 C 25.113281 -66.21875 20.238281 -63.59375 16.9375 -58.34375 C 13.632812 -53.101562 11.984375 -46.007812 11.984375 -37.0625 C 11.984375 -35.382812 12.054688 -33.738281 12.203125 -32.125 C 14.773438 -34.46875 17.691406 -36.375 20.953125 -37.84375 C 24.210938 -39.3125 27.492188 -40.046875 30.796875 -40.046875 C 34.171875 -40.046875 37.320312 -39.253906 40.25 -37.671875 C 43.1875 -36.097656 45.570312 -33.878906 47.40625 -31.015625 C 49.238281 -28.160156 50.15625 -24.71875 50.15625 -20.6875 C 50.15625 -16.789062 49.273438 -13.175781 47.515625 -9.84375 C 45.753906 -6.507812 43.332031 -3.851562 40.25 -1.875 C 37.175781 0.101562 33.660156 1.09375 29.703125 1.09375 C 24.929688 1.09375 20.601562 -0.40625 16.71875 -3.40625 C 12.832031 -6.414062 9.75 -10.671875 7.46875 -16.171875 C 5.195312 -21.671875 4.0625 -28.160156 4.0625 -35.640625 Z M 29.15625 -32.5625 C 26.507812 -32.5625 23.789062 -31.957031 21 -30.75 C 18.21875 -29.539062 15.582031 -27.90625 13.09375 -25.84375 C 14.332031 -19.320312 16.582031 -14.410156 19.84375 -11.109375 C 23.113281 -7.804688 26.691406 -6.15625 30.578125 -6.15625 C 33.878906 -6.15625 36.738281 -7.3125 39.15625 -9.625 C 41.582031 -11.9375 42.796875 -15.109375 42.796875 -19.140625 C 42.796875 -22.078125 42.148438 -24.535156 40.859375 -26.515625 C 39.578125 -28.492188 37.890625 -29.992188 35.796875 -31.015625 C 33.710938 -32.046875 31.5 -32.5625 29.15625 -32.5625 Z M 29.15625 -32.5625 "/>
</symbol>
<symbol overflow="visible" id="oriya-psts:id0:glyph0-2">
<path style="stroke:none;" d="M 3.296875 -22.765625 C 3.296875 -28.046875 4.707031 -32.90625 7.53125 -37.34375 C 10.351562 -41.78125 14.113281 -44.953125 18.8125 -46.859375 C 16.976562 -48.179688 15.398438 -49.847656 14.078125 -51.859375 C 12.753906 -53.878906 12.09375 -56.171875 12.09375 -58.734375 C 12.09375 -60.941406 12.789062 -63.179688 14.1875 -65.453125 C 15.582031 -67.722656 17.691406 -69.609375 20.515625 -71.109375 C 23.335938 -72.617188 26.910156 -73.375 31.234375 -73.375 C 35.929688 -73.375 40.390625 -72.472656 44.609375 -70.671875 C 48.828125 -68.878906 52.398438 -66.660156 55.328125 -64.015625 L 55.328125 -71.5 L 61.9375 -73.046875 L 62.703125 -72.265625 L 62.703125 -0.765625 L 56.09375 0.765625 L 55.328125 0 L 55.328125 -53.34375 C 53.421875 -56.132812 51 -58.484375 48.0625 -60.390625 C 45.132812 -62.296875 42.054688 -63.722656 38.828125 -64.671875 C 35.597656 -65.628906 32.628906 -66.109375 29.921875 -66.109375 C 26.617188 -66.109375 24.050781 -65.503906 22.21875 -64.296875 C 20.382812 -63.085938 19.46875 -61.53125 19.46875 -59.625 C 19.46875 -57.34375 21.082031 -55.066406 24.3125 -52.796875 C 27.539062 -50.523438 32.378906 -48.800781 38.828125 -47.625 L 38.828125 -46.53125 L 37.0625 -40.921875 C 35.675781 -41.503906 34.226562 -41.921875 32.71875 -42.171875 C 31.21875 -42.429688 29.804688 -42.5625 28.484375 -42.5625 C 25.035156 -42.5625 21.9375 -41.644531 19.1875 -39.8125 C 16.4375 -37.976562 14.289062 -35.613281 12.75 -32.71875 C 11.21875 -29.820312 10.453125 -26.6875 10.453125 -23.3125 C 15.660156 -28.007812 21.378906 -30.359375 27.609375 -30.359375 C 32.378906 -30.359375 36.285156 -28.945312 39.328125 -26.125 C 42.367188 -23.300781 43.890625 -19.503906 43.890625 -14.734375 C 43.890625 -9.972656 42.253906 -6.144531 38.984375 -3.25 C 35.722656 -0.351562 31.492188 1.09375 26.296875 1.09375 C 21.816406 1.09375 17.851562 0.03125 14.40625 -2.09375 C 10.957031 -4.21875 8.242188 -7.09375 6.265625 -10.71875 C 4.285156 -14.351562 3.296875 -18.367188 3.296875 -22.765625 Z M 25.625 -23.546875 C 23.28125 -23.546875 20.859375 -23.03125 18.359375 -22 C 15.867188 -20.96875 13.488281 -19.570312 11.21875 -17.8125 C 12.394531 -14 14.554688 -11.066406 17.703125 -9.015625 C 20.859375 -6.960938 24.160156 -5.9375 27.609375 -5.9375 C 29.003906 -5.9375 30.414062 -6.210938 31.84375 -6.765625 C 33.269531 -7.316406 34.476562 -8.175781 35.46875 -9.34375 C 36.457031 -10.519531 36.953125 -12.097656 36.953125 -14.078125 C 36.953125 -17.085938 35.816406 -19.414062 33.546875 -21.0625 C 31.273438 -22.71875 28.632812 -23.546875 25.625 -23.546875 Z M 25.625 -23.546875 "/>
</symbol>
<symbol overflow="visible" id="oriya-psts:id0:glyph0-3">
<path style="stroke:none;" d="M -17.484375 -95.484375 L -12.4375 -100.875 C -11.476562 -100.132812 -10.539062 -99.359375 -9.625 -98.546875 C -8.707031 -97.742188 -7.8125 -96.867188 -6.9375 -95.921875 L -11.875 -90.421875 C -12.832031 -91.367188 -13.75 -92.265625 -14.625 -93.109375 C -15.507812 -93.953125 -16.460938 -94.742188 -17.484375 -95.484375 Z M 5.0625 -94.375 C 2.488281 -89.09375 -0.476562 -85.1875 -3.84375 -82.65625 C -7.21875 -80.132812 -11.035156 -78.875 -15.296875 -78.875 C -19.984375 -78.875 -23.921875 -80.210938 -27.109375 -82.890625 C -30.304688 -85.566406 -32.671875 -88.921875 -34.203125 -92.953125 L -28.484375 -96.359375 L -26.40625 -95.59375 C -25.15625 -92.363281 -23.351562 -89.941406 -21 -88.328125 C -18.65625 -86.710938 -16.09375 -85.90625 -13.3125 -85.90625 C -10.375 -85.90625 -7.660156 -86.785156 -5.171875 -88.546875 C -2.679688 -90.304688 -0.1875 -92.800781 2.3125 -96.03125 Z M 5.0625 -94.375 "/>
</symbol>
<symbol overflow="visible" id="oriya-psts:id0:glyph0-4">
<path style="stroke:none;" d="M 6.703125 -71.5 C 8.765625 -73.84375 10.472656 -76.441406 11.828125 -79.296875 C 13.179688 -82.160156 13.859375 -84.660156 13.859375 -86.796875 C 13.859375 -87.960938 13.546875 -89.003906 12.921875 -89.921875 C 12.296875 -90.835938 11.03125 -91.296875 9.125 -91.296875 C 8.175781 -91.296875 7.1875 -91.203125 6.15625 -91.015625 C 5.132812 -90.835938 4.070312 -90.566406 2.96875 -90.203125 C 2.019531 -89.910156 0.796875 -89.523438 -0.703125 -89.046875 C -2.210938 -88.566406 -4.175781 -87.925781 -6.59375 -87.125 C -8.945312 -86.3125 -11.148438 -85.664062 -13.203125 -85.1875 C -15.253906 -84.71875 -17.34375 -84.484375 -19.46875 -84.484375 C -22.625 -84.484375 -25.519531 -85.160156 -28.15625 -86.515625 C -30.800781 -87.867188 -33.113281 -89.570312 -35.09375 -91.625 L -30.03125 -97.6875 C -27.90625 -95.550781 -25.816406 -94.003906 -23.765625 -93.046875 C -21.710938 -92.097656 -19.65625 -91.625 -17.59375 -91.625 C -15.90625 -91.625 -14.085938 -91.878906 -12.140625 -92.390625 C -10.203125 -92.910156 -7.769531 -93.679688 -4.84375 -94.703125 C -1.613281 -95.878906 1.335938 -96.890625 4.015625 -97.734375 C 6.691406 -98.578125 9.273438 -99 11.765625 -99 C 14.992188 -99 17.34375 -98.023438 18.8125 -96.078125 C 20.28125 -94.140625 21.015625 -91.847656 21.015625 -89.203125 C 21.015625 -86.492188 20.316406 -83.582031 18.921875 -80.46875 C 17.523438 -77.351562 15.910156 -74.617188 14.078125 -72.265625 L 14.078125 -0.765625 L 7.484375 0.765625 L 6.703125 0 Z M 6.703125 -71.5 "/>
</symbol>
</g>
<g>
<symbol overflow="visible" id="oriya-psts:id1:glyph0-0">
<path style="stroke:none;" d="M 5.375 -96.6875 L 69.828125 -96.6875 L 69.828125 0 L 5.375 0 Z M 8.0625 -2.6875 L 67.140625 -2.6875 L 67.140625 -94 L 8.0625 -94 Z M 8.0625 -2.6875 "/>
</symbol>
<symbol overflow="visible" id="oriya-psts:id1:glyph0-1">
<path style="stroke:none;" d="M 68.15625 -13.75 L 66.28125 -18.640625 L 88.09375 -27.390625 L 6.984375 -27.390625 L 6.984375 -34 L 88.09375 -34 L 66.28125 -42.75 L 68.15625 -47.640625 L 99.09375 -34.265625 L 99.09375 -27.125 Z M 68.15625 -13.75 "/>
</symbol>
</g>
<g>
<symbol overflow="visible" id="oriya-psts:id2:glyph0-0">
<path style="stroke:none;" d="M 10.34375 0 L 10.34375 -78.546875 L 55.546875 -78.546875 L 55.546875 0 Z M 15.953125 -5.609375 L 49.9375 -5.609375 L 49.9375 -72.9375 L 15.953125 -72.9375 Z M 15.953125 -5.609375 "/>
</symbol>
<symbol overflow="visible" id="oriya-psts:id2:glyph0-1">
<path style="stroke:none;" d="M 4.0625 -35.640625 C 4.0625 -43.484375 5.304688 -50.226562 7.796875 -55.875 C 10.296875 -61.519531 13.726562 -65.847656 18.09375 -68.859375 C 22.457031 -71.867188 27.425781 -73.375 33 -73.375 C 36.738281 -73.375 40.09375 -72.785156 43.0625 -71.609375 C 46.03125 -70.429688 48.429688 -69.222656 50.265625 -67.984375 L 46.859375 -61.703125 L 45.65625 -61.703125 C 43.820312 -63.023438 41.691406 -64.109375 39.265625 -64.953125 C 36.847656 -65.796875 34.28125 -66.21875 31.5625 -66.21875 C 25.113281 -66.21875 20.238281 -63.59375 16.9375 -58.34375 C 13.632812 -53.101562 11.984375 -46.007812 11.984375 -37.0625 C 11.984375 -35.382812 12.054688 -33.738281 12.203125 -32.125 C 14.773438 -34.46875 17.691406 -36.375 20.953125 -37.84375 C 24.210938 -39.3125 27.492188 -40.046875 30.796875 -40.046875 C 34.171875 -40.046875 37.320312 -39.253906 40.25 -37.671875 C 43.1875 -36.097656 45.570312 -33.878906 47.40625 -31.015625 C 49.238281 -28.160156 50.15625 -24.71875 50.15625 -20.6875 C 50.15625 -16.789062 49.273438 -13.175781 47.515625 -9.84375 C 45.753906 -6.507812 43.332031 -3.851562 40.25 -1.875 C 37.175781 0.101562 33.660156 1.09375 29.703125 1.09375 C 24.929688 1.09375 20.601562 -0.40625 16.71875 -3.40625 C 12.832031 -6.414062 9.75 -10.671875 7.46875 -16.171875 C 5.195312 -21.671875 4.0625 -28.160156 4.0625 -35.640625 Z M 29.15625 -32.5625 C 26.507812 -32.5625 23.789062 -31.957031 21 -30.75 C 18.21875 -29.539062 15.582031 -27.90625 13.09375 -25.84375 C 14.332031 -19.320312 16.582031 -14.410156 19.84375 -11.109375 C 23.113281 -7.804688 26.691406 -6.15625 30.578125 -6.15625 C 33.878906 -6.15625 36.738281 -7.3125 39.15625 -9.625 C 41.582031 -11.9375 42.796875 -15.109375 42.796875 -19.140625 C 42.796875 -22.078125 42.148438 -24.535156 40.859375 -26.515625 C 39.578125 -28.492188 37.890625 -29.992188 35.796875 -31.015625 C 33.710938 -32.046875 31.5 -32.5625 29.15625 -32.5625 Z M 29.15625 -32.5625 "/>
</symbol>
<symbol overflow="visible" id="oriya-psts:id2:glyph0-2">
<path style="stroke:none;" d="M 3.296875 -22.765625 C 3.296875 -28.046875 4.707031 -32.90625 7.53125 -37.34375 C 10.351562 -41.78125 14.113281 -44.953125 18.8125 -46.859375 C 16.976562 -48.179688 15.398438 -49.847656 14.078125 -51.859375 C 12.753906 -53.878906 12.09375 -56.171875 12.09375 -58.734375 C 12.09375 -60.941406 12.789062 -63.179688 14.1875 -65.453125 C 15.582031 -67.722656 17.691406 -69.609375 20.515625 -71.109375 C 23.335938 -72.617188 26.910156 -73.375 31.234375 -73.375 C 35.929688 -73.375 40.390625 -72.472656 44.609375 -70.671875 C 48.828125 -68.878906 52.398438 -66.660156 55.328125 -64.015625 L 55.328125 -71.5 L 61.9375 -73.046875 L 62.703125 -72.265625 L 62.703125 -0.765625 L 56.09375 0.765625 L 55.328125 0 L 55.328125 -53.34375 C 53.421875 -56.132812 51 -58.484375 48.0625 -60.390625 C 45.132812 -62.296875 42.054688 -63.722656 38.828125 -64.671875 C 35.597656 -65.628906 32.628906 -66.109375 29.921875 -66.109375 C 26.617188 -66.109375 24.050781 -65.503906 22.21875 -64.296875 C 20.382812 -63.085938 19.46875 -61.53125 19.46875 -59.625 C 19.46875 -57.34375 21.082031 -55.066406 24.3125 -52.796875 C 27.539062 -50.523438 32.378906 -48.800781 38.828125 -47.625 L 38.828125 -46.53125 L 37.0625 -40.921875 C 35.675781 -41.503906 34.226562 -41.921875 32.71875 -42.171875 C 31.21875 -42.429688 29.804688 -42.5625 28.484375 -42.5625 C 25.035156 -42.5625 21.9375 -41.644531 19.1875 -39.8125 C 16.4375 -37.976562 14.289062 -35.613281 12.75 -32.71875 C 11.21875 -29.820312 10.453125 -26.6875 10.453125 -23.3125 C 15.660156 -28.007812 21.378906 -30.359375 27.609375 -30.359375 C 32.378906 -30.359375 36.285156 -28.945312 39.328125 -26.125 C 42.367188 -23.300781 43.890625 -19.503906 43.890625 -14.734375 C 43.890625 -9.972656 42.253906 -6.144531 38.984375 -3.25 C 35.722656 -0.351562 31.492188 1.09375 26.296875 1.09375 C 21.816406 1.09375 17.851562 0.03125 14.40625 -2.09375 C 10.957031 -4.21875 8.242188 -7.09375 6.265625 -10.71875 C 4.285156 -14.351562 3.296875 -18.367188 3.296875 -22.765625 Z M 25.625 -23.546875 C 23.28125 -23.546875 20.859375 -23.03125 18.359375 -22 C 15.867188 -20.96875 13.488281 -19.570312 11.21875 -17.8125 C 12.394531 -14 14.554688 -11.066406 17.703125 -9.015625 C 20.859375 -6.960938 24.160156 -5.9375 27.609375 -5.9375 C 29.003906 -5.9375 30.414062 -6.210938 31.84375 -6.765625 C 33.269531 -7.316406 34.476562 -8.175781 35.46875 -9.34375 C 36.457031 -10.519531 36.953125 -12.097656 36.953125 -14.078125 C 36.953125 -17.085938 35.816406 -19.414062 33.546875 -21.0625 C 31.273438 -22.71875 28.632812 -23.546875 25.625 -23.546875 Z M 25.625 -23.546875 "/>
</symbol>
<symbol overflow="visible" id="oriya-psts:id2:glyph0-3">
<path style="stroke:none;" d=""/>
</symbol>
<symbol overflow="visible" id="oriya-psts:id2:glyph0-4">
<path style="stroke:none;" d="M -30.578125 -95.703125 L -26.1875 -100.4375 C -25.375 -99.769531 -24.5625 -99.085938 -23.75 -98.390625 C -22.945312 -97.691406 -22.179688 -96.941406 -21.453125 -96.140625 L -25.734375 -91.296875 C -26.546875 -92.109375 -27.351562 -92.878906 -28.15625 -93.609375 C -28.96875 -94.335938 -29.773438 -95.035156 -30.578125 -95.703125 Z M -10.890625 -94.703125 C -12.066406 -92.359375 -13.3125 -90.34375 -14.625 -88.65625 C -13.820312 -88.363281 -12.867188 -88.21875 -11.765625 -88.21875 C -10.523438 -88.21875 -8.820312 -88.472656 -6.65625 -88.984375 C -4.488281 -89.503906 -2.234375 -90.09375 0.109375 -90.75 C 2.160156 -91.332031 4.066406 -91.789062 5.828125 -92.125 C 7.585938 -92.457031 9.347656 -92.625 11.109375 -92.625 C 14.847656 -92.625 17.46875 -91.757812 18.96875 -90.03125 C 20.476562 -88.3125 21.234375 -86.28125 21.234375 -83.9375 C 21.234375 -81.4375 20.535156 -79.195312 19.140625 -77.21875 C 17.742188 -75.238281 16.128906 -73.296875 14.296875 -71.390625 L 14.296875 -0.765625 L 7.703125 0.765625 L 6.9375 0 L 6.9375 -70.515625 C 8.988281 -72.492188 10.691406 -74.4375 12.046875 -76.34375 C 13.398438 -78.25 14.078125 -79.972656 14.078125 -81.515625 C 14.078125 -82.535156 13.742188 -83.46875 13.078125 -84.3125 C 12.421875 -85.15625 11.066406 -85.578125 9.015625 -85.578125 C 7.847656 -85.578125 6.382812 -85.394531 4.625 -85.03125 C 2.863281 -84.664062 1.03125 -84.1875 -0.875 -83.59375 C -5.570312 -82.207031 -9.5 -81.515625 -12.65625 -81.515625 C -14.113281 -81.515625 -15.429688 -81.660156 -16.609375 -81.953125 C -17.785156 -82.242188 -18.921875 -82.828125 -20.015625 -83.703125 C -22.660156 -82.097656 -25.554688 -81.296875 -28.703125 -81.296875 C -32.890625 -81.296875 -36.375 -82.46875 -39.15625 -84.8125 C -41.945312 -87.15625 -44 -90.015625 -45.3125 -93.390625 L -39.9375 -96.578125 L -38.171875 -95.921875 C -37.140625 -93.203125 -35.613281 -91.144531 -33.59375 -89.75 C -31.582031 -88.363281 -29.367188 -87.671875 -26.953125 -87.671875 C -24.453125 -87.671875 -22.117188 -88.421875 -19.953125 -89.921875 C -17.796875 -91.429688 -15.65625 -93.539062 -13.53125 -96.25 Z M -10.890625 -94.703125 "/>
</symbol>
</g>
</defs>
  <g id="oriya-psts:id0:id0" transform="matrix(1.25,0,0,1.25,0.0,1.328125)"><g id="oriya-psts:id0:surface1">
<g style="fill:rgb(0%,0%,0%);fill-opacity:1;">
  <use xlink:href="#oriya-psts:id0:glyph0-1" x="16" y="102.875" class="c0"/>
  <use xlink:href="#oriya-psts:id0:glyph0-2" x="70.015625" y="102.875" class="c1"/>
  <use xlink:href="#oriya-psts:id0:glyph0-3" x="140.859375" y="102.875" class="c2"/>
  <use xlink:href="#oriya-psts:id0:glyph0-4" x="139.421875" y="102.875" class="c3"/>
</g>
</g>
</g>
  <g id="oriya-psts:id1:id1" transform="matrix(1.25,0,0,1.25,220.2734375,0.0)"><g id="oriya-psts:id1:surface1">
<g style="fill:rgb(0%,0%,0%);fill-opacity:1;">
  <use xlink:href="#oriya-psts:id1:glyph0-1" x="0" y="120.84375" class="arrow"/>
</g>
</g>
</g>
  <g id="oriya-psts:id2:id2" transform="matrix(1.25,0,0,1.25,352.87109375,1.328125)"><g id="oriya-psts:id2:surface1">
<g style="fill:rgb(0%,0%,0%);fill-opacity:1;">
  <use xlink:href="#oriya-psts:id2:glyph0-1" x="16" y="102.875" class="c0"/>
  <use xlink:href="#oriya-psts:id2:glyph0-2" x="70.015625" y="102.875" class="c1"/>
  <use xlink:href="#oriya-psts:id2:glyph0-3" x="139.421875" y="102.875" class="dc"/>
  <use xlink:href="#oriya-psts:id2:glyph0-4" x="139.421875" y="102.875" class="c4"/>
</g>
</g>
</g>
</svg>
