<?xml version="1.0" standalone="no"?>
<!DOCTYPE svg PUBLIC "-//W3C//DTD SVG 1.1//EN"
 "http://www.w3.org/Graphics/SVG/1.1/DTD/svg11.dtd">
<!-- Created with svg_stack (http://github.com/astraw/svg_stack) -->
<svg xmlns="http://www.w3.org/2000/svg" xmlns:sodipodi="http://sodipodi.sourceforge.net/DTD/sodipodi-0.dtd" xmlns:xlink="http://www.w3.org/1999/xlink" version="1.1" width="447.01171875" height="201.40625">
  <defs><g>
<symbol overflow="visible" id="id0:glyph0-0">
<path style="stroke:none;" d="M 10.34375 0 L 10.34375 -78.546875 L 55.546875 -78.546875 L 55.546875 0 Z M 15.953125 -5.609375 L 49.9375 -5.609375 L 49.9375 -72.9375 L 15.953125 -72.9375 Z M 15.953125 -5.609375 "/>
</symbol>
<symbol overflow="visible" id="id0:glyph0-1">
<path style="stroke:none;" d="M 24.859375 -53.453125 C 24.859375 -55.515625 25.882812 -56.546875 27.9375 -56.546875 C 30.132812 -56.546875 31.234375 -55.515625 31.234375 -53.453125 C 31.234375 -51.328125 30.132812 -50.265625 27.9375 -50.265625 C 25.882812 -50.265625 24.859375 -51.328125 24.859375 -53.453125 Z M 42.234375 -44.765625 C 40.109375 -44.765625 39.046875 -45.828125 39.046875 -47.953125 C 39.046875 -50.085938 40.109375 -51.15625 42.234375 -51.15625 C 44.367188 -51.15625 45.4375 -50.085938 45.4375 -47.953125 C 45.4375 -45.828125 44.367188 -44.765625 42.234375 -44.765625 Z M 10.671875 -47.953125 C 10.671875 -50.085938 11.695312 -51.15625 13.75 -51.15625 C 15.875 -51.15625 16.9375 -50.085938 16.9375 -47.953125 C 16.9375 -45.828125 15.875 -44.765625 13.75 -44.765625 C 11.695312 -44.765625 10.671875 -45.828125 10.671875 -47.953125 Z M 5.71875 -34.3125 C 5.71875 -36.375 6.78125 -37.40625 8.90625 -37.40625 C 10.957031 -37.40625 11.984375 -36.375 11.984375 -34.3125 C 11.984375 -32.1875 10.957031 -31.125 8.90625 -31.125 C 6.78125 -31.125 5.71875 -32.1875 5.71875 -34.3125 Z M 44 -34.3125 C 44 -36.375 45.0625 -37.40625 47.1875 -37.40625 C 49.3125 -37.40625 50.375 -36.375 50.375 -34.3125 C 50.375 -32.1875 49.3125 -31.125 47.1875 -31.125 C 45.0625 -31.125 44 -32.1875 44 -34.3125 Z M 10.671875 -20.5625 C 10.671875 -22.695312 11.695312 -23.765625 13.75 -23.765625 C 15.875 -23.765625 16.9375 -22.695312 16.9375 -20.5625 C 16.9375 -18.4375 15.875 -17.375 13.75 -17.375 C 11.695312 -17.375 10.671875 -18.4375 10.671875 -20.5625 Z M 39.046875 -20.5625 C 39.046875 -22.695312 40.109375 -23.765625 42.234375 -23.765625 C 44.367188 -23.765625 45.4375 -22.695312 45.4375 -20.5625 C 45.4375 -18.4375 44.367188 -17.375 42.234375 -17.375 C 40.109375 -17.375 39.046875 -18.4375 39.046875 -20.5625 Z M 24.859375 -15.0625 C 24.859375 -17.195312 25.882812 -18.265625 27.9375 -18.265625 C 30.132812 -18.265625 31.234375 -17.195312 31.234375 -15.0625 C 31.234375 -12.9375 30.132812 -11.875 27.9375 -11.875 C 25.882812 -11.875 24.859375 -12.9375 24.859375 -15.0625 Z M 24.859375 -15.0625 "/>
</symbol>
<symbol overflow="visible" id="id0:glyph0-2">
<path style="stroke:none;" d="M 0.4375 30.140625 C -2.125 26.472656 -4.890625 22.878906 -7.859375 19.359375 C -10.828125 15.835938 -13.925781 12.5 -17.15625 9.34375 L -10.34375 3.953125 C -7.476562 7.398438 -4.722656 10.9375 -2.078125 14.5625 C 0.554688 18.195312 3.046875 21.921875 5.390625 25.734375 Z M 0.4375 30.140625 "/>
</symbol>
<symbol overflow="visible" id="id0:glyph0-3">
<path style="stroke:none;" d="M 13.09375 -17.375 C 13.09375 -20.09375 13.566406 -22.660156 14.515625 -25.078125 C 10.921875 -27.722656 8.1875 -30.96875 6.3125 -34.8125 C 4.445312 -38.664062 3.515625 -42.644531 3.515625 -46.75 C 3.515625 -51.664062 4.816406 -56.117188 7.421875 -60.109375 C 10.023438 -64.109375 13.707031 -67.316406 18.46875 -69.734375 C 23.238281 -72.160156 28.925781 -73.375 35.53125 -73.375 C 42.5 -73.375 48.566406 -72.035156 53.734375 -69.359375 C 58.898438 -66.679688 62.910156 -62.992188 65.765625 -58.296875 C 68.628906 -53.609375 70.0625 -48.144531 70.0625 -41.90625 C 70.0625 -36.40625 69.125 -31.378906 67.25 -26.828125 C 65.382812 -22.285156 63.316406 -18.070312 61.046875 -14.1875 L 75.125 -0.875 L 69.953125 3.84375 L 68.421875 3.84375 L 55.109375 -11 L 55.109375 -13.75 C 56.941406 -17.269531 58.59375 -21.359375 60.0625 -26.015625 C 61.53125 -30.671875 62.265625 -35.421875 62.265625 -40.265625 C 62.265625 -45.910156 61.015625 -50.65625 58.515625 -54.5 C 56.023438 -58.351562 52.648438 -61.25 48.390625 -63.1875 C 44.140625 -65.132812 39.410156 -66.109375 34.203125 -66.109375 C 27.097656 -66.109375 21.453125 -64.421875 17.265625 -61.046875 C 13.085938 -57.671875 11 -53.34375 11 -48.0625 C 11 -45.0625 11.84375 -42.222656 13.53125 -39.546875 C 15.21875 -36.867188 17.523438 -34.757812 20.453125 -33.21875 C 23.679688 -35.78125 27.382812 -37.0625 31.5625 -37.0625 C 34.863281 -37.0625 37.832031 -36.253906 40.46875 -34.640625 C 43.113281 -33.035156 45.1875 -30.835938 46.6875 -28.046875 C 48.195312 -25.265625 48.953125 -22.113281 48.953125 -18.59375 C 48.953125 -14.925781 48.144531 -11.609375 46.53125 -8.640625 C 44.914062 -5.671875 42.710938 -3.304688 39.921875 -1.546875 C 37.140625 0.210938 33.988281 1.09375 30.46875 1.09375 C 27.164062 1.09375 24.210938 0.289062 21.609375 -1.3125 C 19.003906 -2.925781 16.929688 -5.109375 15.390625 -7.859375 C 13.859375 -10.609375 13.09375 -13.78125 13.09375 -17.375 Z M 20.015625 -20.34375 C 20.015625 -17.488281 20.617188 -14.941406 21.828125 -12.703125 C 23.046875 -10.460938 24.625 -8.703125 26.5625 -7.421875 C 28.507812 -6.140625 30.582031 -5.5 32.78125 -5.5 C 35.71875 -5.5 37.988281 -6.46875 39.59375 -8.40625 C 41.207031 -10.351562 42.015625 -12.796875 42.015625 -15.734375 C 42.015625 -18.585938 41.410156 -21.132812 40.203125 -23.375 C 38.992188 -25.613281 37.4375 -27.375 35.53125 -28.65625 C 33.625 -29.9375 31.535156 -30.578125 29.265625 -30.578125 C 26.328125 -30.578125 24.050781 -29.601562 22.4375 -27.65625 C 20.820312 -25.71875 20.015625 -23.28125 20.015625 -20.34375 Z M 20.015625 -20.34375 "/>
</symbol>
</g>
<g>
<symbol overflow="visible" id="id1:glyph0-0">
<path style="stroke:none;" d="M 5.375 -96.6875 L 69.828125 -96.6875 L 69.828125 0 L 5.375 0 Z M 8.0625 -2.6875 L 67.140625 -2.6875 L 67.140625 -94 L 8.0625 -94 Z M 8.0625 -2.6875 "/>
</symbol>
<symbol overflow="visible" id="id1:glyph0-1">
<path style="stroke:none;" d="M 68.15625 -13.75 L 66.28125 -18.640625 L 88.09375 -27.390625 L 6.984375 -27.390625 L 6.984375 -34 L 88.09375 -34 L 66.28125 -42.75 L 68.15625 -47.640625 L 99.09375 -34.265625 L 99.09375 -27.125 Z M 68.15625 -13.75 "/>
</symbol>
</g>
<g>
<symbol overflow="visible" id="id2:glyph0-0">
<path style="stroke:none;" d="M 10.34375 0 L 10.34375 -78.546875 L 55.546875 -78.546875 L 55.546875 0 Z M 15.953125 -5.609375 L 49.9375 -5.609375 L 49.9375 -72.9375 L 15.953125 -72.9375 Z M 15.953125 -5.609375 "/>
</symbol>
<symbol overflow="visible" id="id2:glyph0-1">
<path style="stroke:none;" d="M 24.859375 -53.453125 C 24.859375 -55.515625 25.882812 -56.546875 27.9375 -56.546875 C 30.132812 -56.546875 31.234375 -55.515625 31.234375 -53.453125 C 31.234375 -51.328125 30.132812 -50.265625 27.9375 -50.265625 C 25.882812 -50.265625 24.859375 -51.328125 24.859375 -53.453125 Z M 42.234375 -44.765625 C 40.109375 -44.765625 39.046875 -45.828125 39.046875 -47.953125 C 39.046875 -50.085938 40.109375 -51.15625 42.234375 -51.15625 C 44.367188 -51.15625 45.4375 -50.085938 45.4375 -47.953125 C 45.4375 -45.828125 44.367188 -44.765625 42.234375 -44.765625 Z M 10.671875 -47.953125 C 10.671875 -50.085938 11.695312 -51.15625 13.75 -51.15625 C 15.875 -51.15625 16.9375 -50.085938 16.9375 -47.953125 C 16.9375 -45.828125 15.875 -44.765625 13.75 -44.765625 C 11.695312 -44.765625 10.671875 -45.828125 10.671875 -47.953125 Z M 5.71875 -34.3125 C 5.71875 -36.375 6.78125 -37.40625 8.90625 -37.40625 C 10.957031 -37.40625 11.984375 -36.375 11.984375 -34.3125 C 11.984375 -32.1875 10.957031 -31.125 8.90625 -31.125 C 6.78125 -31.125 5.71875 -32.1875 5.71875 -34.3125 Z M 44 -34.3125 C 44 -36.375 45.0625 -37.40625 47.1875 -37.40625 C 49.3125 -37.40625 50.375 -36.375 50.375 -34.3125 C 50.375 -32.1875 49.3125 -31.125 47.1875 -31.125 C 45.0625 -31.125 44 -32.1875 44 -34.3125 Z M 10.671875 -20.5625 C 10.671875 -22.695312 11.695312 -23.765625 13.75 -23.765625 C 15.875 -23.765625 16.9375 -22.695312 16.9375 -20.5625 C 16.9375 -18.4375 15.875 -17.375 13.75 -17.375 C 11.695312 -17.375 10.671875 -18.4375 10.671875 -20.5625 Z M 39.046875 -20.5625 C 39.046875 -22.695312 40.109375 -23.765625 42.234375 -23.765625 C 44.367188 -23.765625 45.4375 -22.695312 45.4375 -20.5625 C 45.4375 -18.4375 44.367188 -17.375 42.234375 -17.375 C 40.109375 -17.375 39.046875 -18.4375 39.046875 -20.5625 Z M 24.859375 -15.0625 C 24.859375 -17.195312 25.882812 -18.265625 27.9375 -18.265625 C 30.132812 -18.265625 31.234375 -17.195312 31.234375 -15.0625 C 31.234375 -12.9375 30.132812 -11.875 27.9375 -11.875 C 25.882812 -11.875 24.859375 -12.9375 24.859375 -15.0625 Z M 24.859375 -15.0625 "/>
</symbol>
<symbol overflow="visible" id="id2:glyph0-2">
<path style="stroke:none;" d="M -12.765625 20.125 L -51.484375 20.125 L -52.6875 18.59375 L -48.84375 13.203125 L -13.859375 13.203125 L -13.859375 3.84375 L -7.703125 1.546875 L -6.703125 2.3125 L -6.703125 17.375 Z M -12.765625 20.125 "/>
</symbol>
</g>
</defs>
  <g id="id0:id0" transform="matrix(1.25,0,0,1.25,0.0,1.328125)"><g id="id0:surface1">
<g style="fill:rgb(0%,0%,0%);fill-opacity:1;">
  <use xlink:href="#id0:glyph0-1" x="16" y="102.875"/>
  <use xlink:href="#id0:glyph0-2" x="70.34375" y="102.875"/>
  <use xlink:href="#id0:glyph0-3" x="72.09375" y="102.875"/>
</g>
</g>
</g>
  <g id="id1:id1" transform="matrix(1.25,0,0,1.25,204.296875,0.0)"><g id="id1:surface1">
<g style="fill:rgb(0%,0%,0%);fill-opacity:1;">
  <use xlink:href="#id1:glyph0-1" x="0" y="120.84375"/>
</g>
</g>
</g>
  <g id="id2:id2" transform="matrix(1.25,0,0,1.25,336.89453125,1.328125)"><g id="id2:surface1">
<g style="fill:rgb(0%,0%,0%);fill-opacity:1;">
  <use xlink:href="#id2:glyph0-1" x="16" y="102.875"/>
  <use xlink:href="#id2:glyph0-2" x="70.34375" y="102.875"/>
</g>
</g>
</g>
</svg>
