<?xml version="1.0" standalone="no"?>
<!DOCTYPE svg PUBLIC "-//W3C//DTD SVG 1.1//EN"
 "http://www.w3.org/Graphics/SVG/1.1/DTD/svg11.dtd">
<!-- Created with svg_stack (http://github.com/astraw/svg_stack) -->
<svg xmlns="http://www.w3.org/2000/svg" xmlns:sodipodi="http://sodipodi.sourceforge.net/DTD/sodipodi-0.dtd" xmlns:xlink="http://www.w3.org/1999/xlink" version="1.1" width="404.55078125" height="201.40625">
  <defs><g>
<symbol overflow="visible" id="id0:glyph0-0">
<path style="stroke:none;" d="M 90.09375 -78.546875 L 90.09375 0 L 44.875 0 L 44.875 -78.546875 Z M 84.484375 -5.609375 L 84.484375 -72.9375 L 50.484375 -72.9375 L 50.484375 -5.609375 Z M 84.484375 -5.609375 "/>
</symbol>
<symbol overflow="visible" id="id0:glyph0-1">
<path style="stroke:none;" d="M 34.3125 0.875 C 30.644531 0.875 27.253906 0.109375 24.140625 -1.421875 C 21.023438 -2.960938 18.53125 -5.238281 16.65625 -8.25 C 14.789062 -11.257812 13.859375 -14.890625 13.859375 -19.140625 C 13.859375 -20.679688 14.003906 -22.1875 14.296875 -23.65625 C 10.921875 -26.4375 8.28125 -29.640625 6.375 -33.265625 C 4.46875 -36.898438 3.515625 -40.914062 3.515625 -45.3125 C 3.515625 -50.226562 4.851562 -54.796875 7.53125 -59.015625 C 10.207031 -63.234375 14.382812 -66.660156 20.0625 -69.296875 C 25.75 -71.941406 33.101562 -73.265625 42.125 -73.265625 L 46.3125 -73.265625 L 50.265625 -68.859375 C 48.722656 -66.953125 47.585938 -65.007812 46.859375 -63.03125 C 46.128906 -61.050781 45.765625 -59.21875 45.765625 -57.53125 C 45.765625 -54.738281 46.660156 -52.425781 48.453125 -50.59375 C 50.253906 -48.757812 53.023438 -47.84375 56.765625 -47.84375 C 60.578125 -47.84375 63.378906 -48.757812 65.171875 -50.59375 C 66.972656 -52.425781 67.875 -54.738281 67.875 -57.53125 C 67.875 -59.289062 67.46875 -61.140625 66.65625 -63.078125 C 65.851562 -65.023438 64.609375 -66.953125 62.921875 -68.859375 L 67.3125 -73.265625 C 70.101562 -70.765625 72.195312 -68.007812 73.59375 -65 C 74.988281 -62 75.6875 -59.066406 75.6875 -56.203125 C 75.6875 -52.023438 74.144531 -48.394531 71.0625 -45.3125 C 67.976562 -42.238281 63.210938 -40.703125 56.765625 -40.703125 C 52.503906 -40.703125 48.976562 -41.414062 46.1875 -42.84375 C 43.40625 -44.269531 41.335938 -46.15625 39.984375 -48.5 C 38.628906 -50.851562 37.953125 -53.421875 37.953125 -56.203125 C 37.953125 -59.210938 38.6875 -62.222656 40.15625 -65.234375 C 33.550781 -65.234375 28.175781 -64.222656 24.03125 -62.203125 C 19.882812 -60.191406 16.820312 -57.585938 14.84375 -54.390625 C 12.863281 -51.203125 11.875 -47.8125 11.875 -44.21875 C 11.875 -41.65625 12.347656 -39.21875 13.296875 -36.90625 C 14.253906 -34.59375 15.539062 -32.484375 17.15625 -30.578125 C 18.988281 -33.367188 21.425781 -35.476562 24.46875 -36.90625 C 27.519531 -38.332031 30.800781 -39.046875 34.3125 -39.046875 C 37.976562 -39.046875 41.367188 -38.273438 44.484375 -36.734375 C 47.609375 -35.203125 50.125 -32.945312 52.03125 -29.96875 C 53.9375 -27 54.890625 -23.390625 54.890625 -19.140625 C 54.890625 -17.597656 54.78125 -16.164062 54.5625 -14.84375 L 71.5 -7.15625 L 67.984375 0.875 L 51.484375 -7.484375 C 49.648438 -4.765625 47.207031 -2.691406 44.15625 -1.265625 C 41.113281 0.160156 37.832031 0.875 34.3125 0.875 Z M 34.4375 -6.265625 C 37.726562 -6.265625 40.640625 -7.347656 43.171875 -9.515625 C 45.703125 -11.679688 46.96875 -14.890625 46.96875 -19.140625 C 46.96875 -23.316406 45.679688 -26.46875 43.109375 -28.59375 C 40.546875 -30.726562 37.65625 -31.796875 34.4375 -31.796875 C 31.132812 -31.796875 28.21875 -30.726562 25.6875 -28.59375 C 23.15625 -26.46875 21.890625 -23.316406 21.890625 -19.140625 C 21.890625 -14.890625 23.15625 -11.679688 25.6875 -9.515625 C 28.21875 -7.347656 31.132812 -6.265625 34.4375 -6.265625 Z M 34.4375 -6.265625 "/>
</symbol>
<symbol overflow="visible" id="id0:glyph0-2">
<path style="stroke:none;" d="M 7.921875 3.625 L 19.6875 19.46875 L 14.515625 23.3125 L 2.203125 7.703125 Z M 7.921875 3.625 "/>
</symbol>
</g>
<g>
<symbol overflow="visible" id="id1:glyph0-0">
<path style="stroke:none;" d="M 5.375 -96.6875 L 69.828125 -96.6875 L 69.828125 0 L 5.375 0 Z M 8.0625 -2.6875 L 67.140625 -2.6875 L 67.140625 -94 L 8.0625 -94 Z M 8.0625 -2.6875 "/>
</symbol>
<symbol overflow="visible" id="id1:glyph0-1">
<path style="stroke:none;" d="M 68.15625 -13.75 L 66.28125 -18.640625 L 88.09375 -27.390625 L 6.984375 -27.390625 L 6.984375 -34 L 88.09375 -34 L 66.28125 -42.75 L 68.15625 -47.640625 L 99.09375 -34.265625 L 99.09375 -27.125 Z M 68.15625 -13.75 "/>
</symbol>
</g>
<g>
<symbol overflow="visible" id="id2:glyph0-0">
<path style="stroke:none;" d="M 90.09375 -78.546875 L 90.09375 0 L 44.875 0 L 44.875 -78.546875 Z M 84.484375 -5.609375 L 84.484375 -72.9375 L 50.484375 -72.9375 L 50.484375 -5.609375 Z M 84.484375 -5.609375 "/>
</symbol>
<symbol overflow="visible" id="id2:glyph0-1">
<path style="stroke:none;" d="M 34.3125 0.875 C 30.644531 0.875 27.253906 0.109375 24.140625 -1.421875 C 21.023438 -2.960938 18.53125 -5.238281 16.65625 -8.25 C 14.789062 -11.257812 13.859375 -14.890625 13.859375 -19.140625 C 13.859375 -20.679688 14.003906 -22.1875 14.296875 -23.65625 C 10.921875 -26.4375 8.28125 -29.640625 6.375 -33.265625 C 4.46875 -36.898438 3.515625 -40.914062 3.515625 -45.3125 C 3.515625 -50.226562 4.851562 -54.796875 7.53125 -59.015625 C 10.207031 -63.234375 14.382812 -66.660156 20.0625 -69.296875 C 25.75 -71.941406 33.101562 -73.265625 42.125 -73.265625 L 46.3125 -73.265625 L 50.265625 -68.859375 C 48.722656 -66.953125 47.585938 -65.007812 46.859375 -63.03125 C 46.128906 -61.050781 45.765625 -59.21875 45.765625 -57.53125 C 45.765625 -54.738281 46.660156 -52.425781 48.453125 -50.59375 C 50.253906 -48.757812 53.023438 -47.84375 56.765625 -47.84375 C 60.578125 -47.84375 63.378906 -48.757812 65.171875 -50.59375 C 66.972656 -52.425781 67.875 -54.738281 67.875 -57.53125 C 67.875 -59.289062 67.46875 -61.140625 66.65625 -63.078125 C 65.851562 -65.023438 64.609375 -66.953125 62.921875 -68.859375 L 67.3125 -73.265625 C 70.101562 -70.765625 72.195312 -68.007812 73.59375 -65 C 74.988281 -62 75.6875 -59.066406 75.6875 -56.203125 C 75.6875 -52.023438 74.144531 -48.394531 71.0625 -45.3125 C 67.976562 -42.238281 63.210938 -40.703125 56.765625 -40.703125 C 52.503906 -40.703125 48.976562 -41.414062 46.1875 -42.84375 C 43.40625 -44.269531 41.335938 -46.15625 39.984375 -48.5 C 38.628906 -50.851562 37.953125 -53.421875 37.953125 -56.203125 C 37.953125 -59.210938 38.6875 -62.222656 40.15625 -65.234375 C 33.550781 -65.234375 28.175781 -64.222656 24.03125 -62.203125 C 19.882812 -60.191406 16.820312 -57.585938 14.84375 -54.390625 C 12.863281 -51.203125 11.875 -47.8125 11.875 -44.21875 C 11.875 -41.65625 12.347656 -39.21875 13.296875 -36.90625 C 14.253906 -34.59375 15.539062 -32.484375 17.15625 -30.578125 C 18.988281 -33.367188 21.425781 -35.476562 24.46875 -36.90625 C 27.519531 -38.332031 30.800781 -39.046875 34.3125 -39.046875 C 37.976562 -39.046875 41.367188 -38.273438 44.484375 -36.734375 C 47.609375 -35.203125 50.125 -32.945312 52.03125 -29.96875 C 53.9375 -27 54.890625 -23.390625 54.890625 -19.140625 C 54.890625 -17.597656 54.78125 -16.164062 54.5625 -14.84375 L 71.5 -7.15625 L 67.984375 0.875 L 51.484375 -7.484375 C 49.648438 -4.765625 47.207031 -2.691406 44.15625 -1.265625 C 41.113281 0.160156 37.832031 0.875 34.3125 0.875 Z M 34.4375 -6.265625 C 37.726562 -6.265625 40.640625 -7.347656 43.171875 -9.515625 C 45.703125 -11.679688 46.96875 -14.890625 46.96875 -19.140625 C 46.96875 -23.316406 45.679688 -26.46875 43.109375 -28.59375 C 40.546875 -30.726562 37.65625 -31.796875 34.4375 -31.796875 C 31.132812 -31.796875 28.21875 -30.726562 25.6875 -28.59375 C 23.15625 -26.46875 21.890625 -23.316406 21.890625 -19.140625 C 21.890625 -14.890625 23.15625 -11.679688 25.6875 -9.515625 C 28.21875 -7.347656 31.132812 -6.265625 34.4375 -6.265625 Z M 34.4375 -6.265625 "/>
</symbol>
<symbol overflow="visible" id="id2:glyph0-2">
<path style="stroke:none;" d="M 7.921875 3.625 L 19.6875 19.46875 L 14.515625 23.3125 L 2.203125 7.703125 Z M 7.921875 3.625 "/>
</symbol>
</g>
</defs>
  <g id="id0:id0" transform="matrix(1.25,0,0,1.25,0.0,4.560546875)"><g id="id0:surface1">
<g style="fill:rgb(0%,0%,0%);fill-opacity:1;">
  <use xlink:href="#id0:glyph0-1" x="16" y="119.59375"/>
  <use xlink:href="#id0:glyph0-2" x="92.78125" y="119.59375"/>
</g>
</g>
</g>
  <g id="id1:id1" transform="matrix(1.25,0,0,1.25,135.9765625,0.0)"><g id="id1:surface1">
<g style="fill:rgb(0%,0%,0%);fill-opacity:1;">
  <use xlink:href="#id1:glyph0-1" x="0" y="120.84375"/>
</g>
</g>
</g>
  <g id="id2:id2" transform="matrix(1.25,0,0,1.25,268.57421875,4.560546875)"><g id="id2:surface1">
<g style="fill:rgb(0%,0%,0%);fill-opacity:1;">
  <use xlink:href="#id2:glyph0-1" x="16" y="119.59375"/>
  <use xlink:href="#id2:glyph0-2" x="46.25" y="119.59375"/>
</g>
</g>
</g>
</svg>
