<?xml version="1.0" standalone="no"?>
<!DOCTYPE svg PUBLIC "-//W3C//DTD SVG 1.1//EN"
 "http://www.w3.org/Graphics/SVG/1.1/DTD/svg11.dtd">
<!-- Created with svg_stack (http://github.com/astraw/svg_stack) -->
<svg xmlns="http://www.w3.org/2000/svg" xmlns:sodipodi="http://sodipodi.sourceforge.net/DTD/sodipodi-0.dtd" xmlns:xlink="http://www.w3.org/1999/xlink" version="1.1" width="498.02734375" height="201.40625">
  <defs><g>
<symbol overflow="visible" id="id0:glyph0-0">
<path style="stroke:none;" d="M 10.34375 0 L 10.34375 -78.546875 L 55.546875 -78.546875 L 55.546875 0 Z M 15.953125 -5.609375 L 49.9375 -5.609375 L 49.9375 -72.9375 L 15.953125 -72.9375 Z M 15.953125 -5.609375 "/>
</symbol>
<symbol overflow="visible" id="id0:glyph0-1">
<path style="stroke:none;" d="M 24.859375 -53.453125 C 24.859375 -55.515625 25.882812 -56.546875 27.9375 -56.546875 C 30.132812 -56.546875 31.234375 -55.515625 31.234375 -53.453125 C 31.234375 -51.328125 30.132812 -50.265625 27.9375 -50.265625 C 25.882812 -50.265625 24.859375 -51.328125 24.859375 -53.453125 Z M 42.234375 -44.765625 C 40.109375 -44.765625 39.046875 -45.828125 39.046875 -47.953125 C 39.046875 -50.085938 40.109375 -51.15625 42.234375 -51.15625 C 44.367188 -51.15625 45.4375 -50.085938 45.4375 -47.953125 C 45.4375 -45.828125 44.367188 -44.765625 42.234375 -44.765625 Z M 10.671875 -47.953125 C 10.671875 -50.085938 11.695312 -51.15625 13.75 -51.15625 C 15.875 -51.15625 16.9375 -50.085938 16.9375 -47.953125 C 16.9375 -45.828125 15.875 -44.765625 13.75 -44.765625 C 11.695312 -44.765625 10.671875 -45.828125 10.671875 -47.953125 Z M 5.71875 -34.3125 C 5.71875 -36.375 6.78125 -37.40625 8.90625 -37.40625 C 10.957031 -37.40625 11.984375 -36.375 11.984375 -34.3125 C 11.984375 -32.1875 10.957031 -31.125 8.90625 -31.125 C 6.78125 -31.125 5.71875 -32.1875 5.71875 -34.3125 Z M 44 -34.3125 C 44 -36.375 45.0625 -37.40625 47.1875 -37.40625 C 49.3125 -37.40625 50.375 -36.375 50.375 -34.3125 C 50.375 -32.1875 49.3125 -31.125 47.1875 -31.125 C 45.0625 -31.125 44 -32.1875 44 -34.3125 Z M 10.671875 -20.5625 C 10.671875 -22.695312 11.695312 -23.765625 13.75 -23.765625 C 15.875 -23.765625 16.9375 -22.695312 16.9375 -20.5625 C 16.9375 -18.4375 15.875 -17.375 13.75 -17.375 C 11.695312 -17.375 10.671875 -18.4375 10.671875 -20.5625 Z M 39.046875 -20.5625 C 39.046875 -22.695312 40.109375 -23.765625 42.234375 -23.765625 C 44.367188 -23.765625 45.4375 -22.695312 45.4375 -20.5625 C 45.4375 -18.4375 44.367188 -17.375 42.234375 -17.375 C 40.109375 -17.375 39.046875 -18.4375 39.046875 -20.5625 Z M 24.859375 -15.0625 C 24.859375 -17.195312 25.882812 -18.265625 27.9375 -18.265625 C 30.132812 -18.265625 31.234375 -17.195312 31.234375 -15.0625 C 31.234375 -12.9375 30.132812 -11.875 27.9375 -11.875 C 25.882812 -11.875 24.859375 -12.9375 24.859375 -15.0625 Z M 24.859375 -15.0625 "/>
</symbol>
<symbol overflow="visible" id="id0:glyph0-2">
<path style="stroke:none;" d="M 0.4375 30.140625 C -2.125 26.472656 -4.890625 22.878906 -7.859375 19.359375 C -10.828125 15.835938 -13.925781 12.5 -17.15625 9.34375 L -10.34375 3.953125 C -7.476562 7.398438 -4.722656 10.9375 -2.078125 14.5625 C 0.554688 18.195312 3.046875 21.921875 5.390625 25.734375 Z M 0.4375 30.140625 "/>
</symbol>
<symbol overflow="visible" id="id0:glyph0-3">
<path style="stroke:none;" d="M 1.09375 -11.765625 C 1.09375 -13.742188 1.828125 -15.867188 3.296875 -18.140625 C 4.765625 -20.421875 6.707031 -22.640625 9.125 -24.796875 C 11.550781 -26.960938 14.191406 -28.890625 17.046875 -30.578125 C 13.890625 -32.773438 11.503906 -35.488281 9.890625 -38.71875 C 8.285156 -41.945312 7.484375 -45.320312 7.484375 -48.84375 C 7.484375 -53.238281 8.691406 -57.285156 11.109375 -60.984375 C 13.523438 -64.691406 16.894531 -67.679688 21.21875 -69.953125 C 25.550781 -72.234375 30.578125 -73.375 36.296875 -73.375 C 41.359375 -73.375 45.921875 -72.492188 49.984375 -70.734375 C 54.054688 -68.972656 57.523438 -66.84375 60.390625 -64.34375 L 60.390625 -71.5 L 66.984375 -73.046875 L 67.765625 -72.265625 L 67.765625 -0.765625 L 61.15625 0.765625 L 60.390625 0 L 60.390625 -11.4375 C 58.046875 -7.332031 55.003906 -4.21875 51.265625 -2.09375 C 47.523438 0.03125 43.269531 1.09375 38.5 1.09375 C 33.957031 1.09375 30.109375 0.210938 26.953125 -1.546875 C 23.796875 -3.304688 21.410156 -5.613281 19.796875 -8.46875 C 18.179688 -11.332031 17.375 -14.375 17.375 -17.59375 C 17.375 -20.601562 18.179688 -23.6875 19.796875 -26.84375 C 15.179688 -23.976562 11.769531 -20.675781 9.5625 -16.9375 C 12.28125 -15.46875 13.640625 -13.34375 13.640625 -10.5625 C 13.640625 -8.726562 13.015625 -7.222656 11.765625 -6.046875 C 10.523438 -4.878906 9.097656 -4.296875 7.484375 -4.296875 C 5.941406 -4.296875 4.488281 -4.878906 3.125 -6.046875 C 1.769531 -7.222656 1.09375 -9.128906 1.09375 -11.765625 Z M 24.859375 -19.25 C 24.859375 -15.726562 26.140625 -12.644531 28.703125 -10 C 31.273438 -7.363281 34.867188 -6.046875 39.484375 -6.046875 C 43.222656 -6.046875 46.671875 -7 49.828125 -8.90625 C 52.984375 -10.8125 55.53125 -13.613281 57.46875 -17.3125 C 59.414062 -21.019531 60.390625 -25.515625 60.390625 -30.796875 L 60.390625 -54.015625 C 57.671875 -57.378906 54.1875 -60.234375 49.9375 -62.578125 C 45.6875 -64.929688 40.773438 -66.109375 35.203125 -66.109375 C 30.941406 -66.109375 27.289062 -65.375 24.25 -63.90625 C 21.207031 -62.4375 18.894531 -60.507812 17.3125 -58.125 C 15.738281 -55.75 14.953125 -53.09375 14.953125 -50.15625 C 14.953125 -47.007812 15.882812 -44.0625 17.75 -41.3125 C 19.625 -38.5625 22.25 -36.488281 25.625 -35.09375 C 28.050781 -37.726562 31.023438 -40.40625 34.546875 -43.125 L 38.71875 -38.71875 C 33.507812 -34.613281 29.894531 -31.039062 27.875 -28 C 25.863281 -24.957031 24.859375 -22.039062 24.859375 -19.25 Z M 24.859375 -19.25 "/>
</symbol>
</g>
<g>
<symbol overflow="visible" id="id1:glyph0-0">
<path style="stroke:none;" d="M 5.375 -96.6875 L 69.828125 -96.6875 L 69.828125 0 L 5.375 0 Z M 8.0625 -2.6875 L 67.140625 -2.6875 L 67.140625 -94 L 8.0625 -94 Z M 8.0625 -2.6875 "/>
</symbol>
<symbol overflow="visible" id="id1:glyph0-1">
<path style="stroke:none;" d="M 68.15625 -13.75 L 66.28125 -18.640625 L 88.09375 -27.390625 L 6.984375 -27.390625 L 6.984375 -34 L 88.09375 -34 L 66.28125 -42.75 L 68.15625 -47.640625 L 99.09375 -34.265625 L 99.09375 -27.125 Z M 68.15625 -13.75 "/>
</symbol>
</g>
<g>
<symbol overflow="visible" id="id2:glyph0-0">
<path style="stroke:none;" d="M 10.34375 0 L 10.34375 -78.546875 L 55.546875 -78.546875 L 55.546875 0 Z M 15.953125 -5.609375 L 49.9375 -5.609375 L 49.9375 -72.9375 L 15.953125 -72.9375 Z M 15.953125 -5.609375 "/>
</symbol>
<symbol overflow="visible" id="id2:glyph0-1">
<path style="stroke:none;" d="M 24.859375 -53.453125 C 24.859375 -55.515625 25.882812 -56.546875 27.9375 -56.546875 C 30.132812 -56.546875 31.234375 -55.515625 31.234375 -53.453125 C 31.234375 -51.328125 30.132812 -50.265625 27.9375 -50.265625 C 25.882812 -50.265625 24.859375 -51.328125 24.859375 -53.453125 Z M 42.234375 -44.765625 C 40.109375 -44.765625 39.046875 -45.828125 39.046875 -47.953125 C 39.046875 -50.085938 40.109375 -51.15625 42.234375 -51.15625 C 44.367188 -51.15625 45.4375 -50.085938 45.4375 -47.953125 C 45.4375 -45.828125 44.367188 -44.765625 42.234375 -44.765625 Z M 10.671875 -47.953125 C 10.671875 -50.085938 11.695312 -51.15625 13.75 -51.15625 C 15.875 -51.15625 16.9375 -50.085938 16.9375 -47.953125 C 16.9375 -45.828125 15.875 -44.765625 13.75 -44.765625 C 11.695312 -44.765625 10.671875 -45.828125 10.671875 -47.953125 Z M 5.71875 -34.3125 C 5.71875 -36.375 6.78125 -37.40625 8.90625 -37.40625 C 10.957031 -37.40625 11.984375 -36.375 11.984375 -34.3125 C 11.984375 -32.1875 10.957031 -31.125 8.90625 -31.125 C 6.78125 -31.125 5.71875 -32.1875 5.71875 -34.3125 Z M 44 -34.3125 C 44 -36.375 45.0625 -37.40625 47.1875 -37.40625 C 49.3125 -37.40625 50.375 -36.375 50.375 -34.3125 C 50.375 -32.1875 49.3125 -31.125 47.1875 -31.125 C 45.0625 -31.125 44 -32.1875 44 -34.3125 Z M 10.671875 -20.5625 C 10.671875 -22.695312 11.695312 -23.765625 13.75 -23.765625 C 15.875 -23.765625 16.9375 -22.695312 16.9375 -20.5625 C 16.9375 -18.4375 15.875 -17.375 13.75 -17.375 C 11.695312 -17.375 10.671875 -18.4375 10.671875 -20.5625 Z M 39.046875 -20.5625 C 39.046875 -22.695312 40.109375 -23.765625 42.234375 -23.765625 C 44.367188 -23.765625 45.4375 -22.695312 45.4375 -20.5625 C 45.4375 -18.4375 44.367188 -17.375 42.234375 -17.375 C 40.109375 -17.375 39.046875 -18.4375 39.046875 -20.5625 Z M 24.859375 -15.0625 C 24.859375 -17.195312 25.882812 -18.265625 27.9375 -18.265625 C 30.132812 -18.265625 31.234375 -17.195312 31.234375 -15.0625 C 31.234375 -12.9375 30.132812 -11.875 27.9375 -11.875 C 25.882812 -11.875 24.859375 -12.9375 24.859375 -15.0625 Z M 24.859375 -15.0625 "/>
</symbol>
<symbol overflow="visible" id="id2:glyph0-2">
<path style="stroke:none;" d="M 27.609375 0 L 27.609375 -43.78125 C 26.285156 -41.800781 24.757812 -40.425781 23.03125 -39.65625 C 21.3125 -38.882812 19.5 -38.5 17.59375 -38.5 C 14.519531 -38.5 12.101562 -39.320312 10.34375 -40.96875 C 8.582031 -42.625 7.316406 -44.804688 6.546875 -47.515625 C 5.773438 -50.234375 5.390625 -53.164062 5.390625 -56.3125 L 5.390625 -71.28125 L 11.984375 -72.8125 L 12.765625 -72.046875 L 12.765625 -58.40625 C 12.765625 -53.789062 13.367188 -50.566406 14.578125 -48.734375 C 15.785156 -46.898438 17.34375 -45.984375 19.25 -45.984375 C 21.738281 -45.984375 23.753906 -47.15625 25.296875 -49.5 C 26.835938 -51.84375 27.609375 -54.519531 27.609375 -57.53125 L 27.609375 -71.5 L 34.203125 -73.046875 L 34.984375 -72.265625 L 34.984375 -0.765625 L 28.375 0.765625 Z M 27.609375 0 "/>
</symbol>
</g>
</defs>
  <g id="id0:id0" transform="matrix(1.25,0,0,1.25,0.0,1.328125)"><g id="id0:surface1">
<g style="fill:rgb(0%,0%,0%);fill-opacity:1;">
  <use xlink:href="#id0:glyph0-1" x="16" y="102.875"/>
  <use xlink:href="#id0:glyph0-2" x="70.34375" y="102.875"/>
  <use xlink:href="#id0:glyph0-3" x="72.09375" y="102.875"/>
</g>
</g>
</g>
  <g id="id1:id1" transform="matrix(1.25,0,0,1.25,203.203125,0.0)"><g id="id1:surface1">
<g style="fill:rgb(0%,0%,0%);fill-opacity:1;">
  <use xlink:href="#id1:glyph0-1" x="0" y="120.84375"/>
</g>
</g>
</g>
  <g id="id2:id2" transform="matrix(1.25,0,0,1.25,335.80078125,1.328125)"><g id="id2:surface1">
<g style="fill:rgb(0%,0%,0%);fill-opacity:1;">
  <use xlink:href="#id2:glyph0-1" x="16" y="102.875"/>
  <use xlink:href="#id2:glyph0-2" x="72.09375" y="102.875"/>
</g>
</g>
</g>
</svg>
