<!DOCTYPE svg PUBLIC "-//W3C//DTD SVG 1.1//EN" "http://www.w3.org/Graphics/SVG/1.1/DTD/svg11.dtd">
<!-- Created with svg_stack (http://github.com/astraw/svg_stack) --><svg xmlns="http://www.w3.org/2000/svg" xmlns:sodipodi="http://sodipodi.sourceforge.net/DTD/sodipodi-0.dtd" xmlns:xlink="http://www.w3.org/1999/xlink" version="1.1" width="100%" id="oriya-matra-position" viewBox="0 0 703.18359375 201.40625">
  <defs><g>
<symbol overflow="visible" id="oriya-matra-position:id0:glyph0-0">
<path style="stroke:none;" d="M 10.34375 0 L 10.34375 -78.546875 L 55.546875 -78.546875 L 55.546875 0 Z M 15.953125 -5.609375 L 49.9375 -5.609375 L 49.9375 -72.9375 L 15.953125 -72.9375 Z M 15.953125 -5.609375 "/>
</symbol>
<symbol overflow="visible" id="oriya-matra-position:id0:glyph0-1">
<path style="stroke:none;" d="M 4.0625 -35.640625 C 4.0625 -43.484375 5.304688 -50.226562 7.796875 -55.875 C 10.296875 -61.519531 13.726562 -65.847656 18.09375 -68.859375 C 22.457031 -71.867188 27.425781 -73.375 33 -73.375 C 36.738281 -73.375 40.09375 -72.785156 43.0625 -71.609375 C 46.03125 -70.429688 48.429688 -69.222656 50.265625 -67.984375 L 46.859375 -61.703125 L 45.65625 -61.703125 C 43.820312 -63.023438 41.691406 -64.109375 39.265625 -64.953125 C 36.847656 -65.796875 34.28125 -66.21875 31.5625 -66.21875 C 25.113281 -66.21875 20.238281 -63.59375 16.9375 -58.34375 C 13.632812 -53.101562 11.984375 -46.007812 11.984375 -37.0625 C 11.984375 -35.382812 12.054688 -33.738281 12.203125 -32.125 C 14.773438 -34.46875 17.691406 -36.375 20.953125 -37.84375 C 24.210938 -39.3125 27.492188 -40.046875 30.796875 -40.046875 C 34.171875 -40.046875 37.320312 -39.253906 40.25 -37.671875 C 43.1875 -36.097656 45.570312 -33.878906 47.40625 -31.015625 C 49.238281 -28.160156 50.15625 -24.71875 50.15625 -20.6875 C 50.15625 -16.789062 49.273438 -13.175781 47.515625 -9.84375 C 45.753906 -6.507812 43.332031 -3.851562 40.25 -1.875 C 37.175781 0.101562 33.660156 1.09375 29.703125 1.09375 C 24.929688 1.09375 20.601562 -0.40625 16.71875 -3.40625 C 12.832031 -6.414062 9.75 -10.671875 7.46875 -16.171875 C 5.195312 -21.671875 4.0625 -28.160156 4.0625 -35.640625 Z M 29.15625 -32.5625 C 26.507812 -32.5625 23.789062 -31.957031 21 -30.75 C 18.21875 -29.539062 15.582031 -27.90625 13.09375 -25.84375 C 14.332031 -19.320312 16.582031 -14.410156 19.84375 -11.109375 C 23.113281 -7.804688 26.691406 -6.15625 30.578125 -6.15625 C 33.878906 -6.15625 36.738281 -7.3125 39.15625 -9.625 C 41.582031 -11.9375 42.796875 -15.109375 42.796875 -19.140625 C 42.796875 -22.078125 42.148438 -24.535156 40.859375 -26.515625 C 39.578125 -28.492188 37.890625 -29.992188 35.796875 -31.015625 C 33.710938 -32.046875 31.5 -32.5625 29.15625 -32.5625 Z M 29.15625 -32.5625 "/>
</symbol>
<symbol overflow="visible" id="oriya-matra-position:id0:glyph0-2">
<path style="stroke:none;" d="M 24.859375 -53.453125 C 24.859375 -55.515625 25.882812 -56.546875 27.9375 -56.546875 C 30.132812 -56.546875 31.234375 -55.515625 31.234375 -53.453125 C 31.234375 -51.328125 30.132812 -50.265625 27.9375 -50.265625 C 25.882812 -50.265625 24.859375 -51.328125 24.859375 -53.453125 Z M 42.234375 -44.765625 C 40.109375 -44.765625 39.046875 -45.828125 39.046875 -47.953125 C 39.046875 -50.085938 40.109375 -51.15625 42.234375 -51.15625 C 44.367188 -51.15625 45.4375 -50.085938 45.4375 -47.953125 C 45.4375 -45.828125 44.367188 -44.765625 42.234375 -44.765625 Z M 10.671875 -47.953125 C 10.671875 -50.085938 11.695312 -51.15625 13.75 -51.15625 C 15.875 -51.15625 16.9375 -50.085938 16.9375 -47.953125 C 16.9375 -45.828125 15.875 -44.765625 13.75 -44.765625 C 11.695312 -44.765625 10.671875 -45.828125 10.671875 -47.953125 Z M 5.71875 -34.3125 C 5.71875 -36.375 6.78125 -37.40625 8.90625 -37.40625 C 10.957031 -37.40625 11.984375 -36.375 11.984375 -34.3125 C 11.984375 -32.1875 10.957031 -31.125 8.90625 -31.125 C 6.78125 -31.125 5.71875 -32.1875 5.71875 -34.3125 Z M 44 -34.3125 C 44 -36.375 45.0625 -37.40625 47.1875 -37.40625 C 49.3125 -37.40625 50.375 -36.375 50.375 -34.3125 C 50.375 -32.1875 49.3125 -31.125 47.1875 -31.125 C 45.0625 -31.125 44 -32.1875 44 -34.3125 Z M 10.671875 -20.5625 C 10.671875 -22.695312 11.695312 -23.765625 13.75 -23.765625 C 15.875 -23.765625 16.9375 -22.695312 16.9375 -20.5625 C 16.9375 -18.4375 15.875 -17.375 13.75 -17.375 C 11.695312 -17.375 10.671875 -18.4375 10.671875 -20.5625 Z M 39.046875 -20.5625 C 39.046875 -22.695312 40.109375 -23.765625 42.234375 -23.765625 C 44.367188 -23.765625 45.4375 -22.695312 45.4375 -20.5625 C 45.4375 -18.4375 44.367188 -17.375 42.234375 -17.375 C 40.109375 -17.375 39.046875 -18.4375 39.046875 -20.5625 Z M 24.859375 -15.0625 C 24.859375 -17.195312 25.882812 -18.265625 27.9375 -18.265625 C 30.132812 -18.265625 31.234375 -17.195312 31.234375 -15.0625 C 31.234375 -12.9375 30.132812 -11.875 27.9375 -11.875 C 25.882812 -11.875 24.859375 -12.9375 24.859375 -15.0625 Z M 24.859375 -15.0625 "/>
</symbol>
<symbol overflow="visible" id="oriya-matra-position:id0:glyph0-3">
<path style="stroke:none;" d="M 11.65625 -17.375 C 11.65625 -18.332031 11.726562 -19.25 11.875 -20.125 C 9.164062 -22.175781 7.09375 -24.539062 5.65625 -27.21875 C 4.226562 -29.894531 3.515625 -32.628906 3.515625 -35.421875 C 3.515625 -39.378906 4.707031 -42.820312 7.09375 -45.75 C 9.476562 -48.6875 12.832031 -50.632812 17.15625 -51.59375 C 16.28125 -52.613281 15.566406 -53.75 15.015625 -55 C 14.460938 -56.25 14.1875 -57.601562 14.1875 -59.0625 C 14.1875 -61.414062 15.082031 -63.671875 16.875 -65.828125 C 18.675781 -67.992188 21.191406 -69.789062 24.421875 -71.21875 C 27.648438 -72.65625 31.390625 -73.375 35.640625 -73.375 C 40.179688 -73.375 44.414062 -72.601562 48.34375 -71.0625 C 52.269531 -69.519531 55.625 -67.351562 58.40625 -64.5625 L 58.40625 -71.5 L 65.015625 -73.046875 L 65.78125 -72.265625 L 65.78125 -0.765625 L 59.1875 0.765625 L 58.40625 0 L 58.40625 -53.453125 C 55.550781 -57.785156 51.941406 -60.976562 47.578125 -63.03125 C 43.210938 -65.082031 38.90625 -66.109375 34.65625 -66.109375 C 30.6875 -66.109375 27.53125 -65.46875 25.1875 -64.1875 C 22.84375 -62.90625 21.671875 -61.3125 21.671875 -59.40625 C 21.671875 -58.59375 22.09375 -57.617188 22.9375 -56.484375 C 23.78125 -55.347656 25.335938 -54.15625 27.609375 -52.90625 C 29.878906 -51.664062 33.070312 -50.492188 37.1875 -49.390625 L 37.1875 -48.296875 L 32.5625 -43.34375 C 31.238281 -44.144531 29.640625 -44.835938 27.765625 -45.421875 C 25.898438 -46.015625 23.941406 -46.3125 21.890625 -46.3125 C 18.953125 -46.3125 16.398438 -45.554688 14.234375 -44.046875 C 12.078125 -42.546875 11 -40.296875 11 -37.296875 C 11 -34.066406 12.503906 -31.460938 15.515625 -29.484375 C 17.203125 -31.828125 19.304688 -33.675781 21.828125 -35.03125 C 24.359375 -36.382812 27.128906 -37.0625 30.140625 -37.0625 C 33.441406 -37.0625 36.410156 -36.253906 39.046875 -34.640625 C 41.691406 -33.035156 43.765625 -30.835938 45.265625 -28.046875 C 46.765625 -25.265625 47.515625 -22.113281 47.515625 -18.59375 C 47.515625 -14.925781 46.707031 -11.609375 45.09375 -8.640625 C 43.488281 -5.671875 41.289062 -3.304688 38.5 -1.546875 C 35.707031 0.210938 32.554688 1.09375 29.046875 1.09375 C 25.742188 1.09375 22.789062 0.289062 20.1875 -1.3125 C 17.582031 -2.925781 15.507812 -5.125 13.96875 -7.90625 C 12.425781 -10.695312 11.65625 -13.851562 11.65625 -17.375 Z M 18.59375 -20.34375 C 18.59375 -17.488281 19.195312 -14.941406 20.40625 -12.703125 C 21.613281 -10.460938 23.1875 -8.703125 25.125 -7.421875 C 27.070312 -6.140625 29.144531 -5.5 31.34375 -5.5 C 34.28125 -5.5 36.554688 -6.46875 38.171875 -8.40625 C 39.785156 -10.351562 40.59375 -12.796875 40.59375 -15.734375 C 40.59375 -18.585938 39.984375 -21.132812 38.765625 -23.375 C 37.554688 -25.613281 36 -27.375 34.09375 -28.65625 C 32.1875 -29.9375 30.097656 -30.578125 27.828125 -30.578125 C 24.898438 -30.578125 22.628906 -29.601562 21.015625 -27.65625 C 19.398438 -25.71875 18.59375 -23.28125 18.59375 -20.34375 Z M 18.59375 -20.34375 "/>
</symbol>
<symbol overflow="visible" id="oriya-matra-position:id0:glyph0-4">
<path style="stroke:none;" d="M -14.078125 -71.5 C -12.023438 -73.84375 -10.320312 -76.441406 -8.96875 -79.296875 C -7.613281 -82.160156 -6.9375 -84.660156 -6.9375 -86.796875 C -6.9375 -87.960938 -7.242188 -89.003906 -7.859375 -89.921875 C -8.484375 -90.835938 -9.75 -91.296875 -11.65625 -91.296875 C -12.613281 -91.296875 -13.601562 -91.203125 -14.625 -91.015625 C -15.65625 -90.835938 -16.71875 -90.566406 -17.8125 -90.203125 C -18.769531 -89.910156 -20 -89.523438 -21.5 -89.046875 C -23.007812 -88.566406 -24.972656 -87.925781 -27.390625 -87.125 C -29.734375 -86.3125 -31.929688 -85.664062 -33.984375 -85.1875 C -36.035156 -84.71875 -38.128906 -84.484375 -40.265625 -84.484375 C -43.410156 -84.484375 -46.300781 -85.160156 -48.9375 -86.515625 C -51.582031 -87.867188 -53.894531 -89.570312 -55.875 -91.625 L -50.8125 -97.6875 C -48.6875 -95.550781 -46.597656 -94.003906 -44.546875 -93.046875 C -42.492188 -92.097656 -40.441406 -91.625 -38.390625 -91.625 C -36.703125 -91.625 -34.882812 -91.878906 -32.9375 -92.390625 C -31 -92.910156 -28.5625 -93.679688 -25.625 -94.703125 C -22.40625 -95.878906 -19.457031 -96.890625 -16.78125 -97.734375 C -14.101562 -98.578125 -11.515625 -99 -9.015625 -99 C -5.796875 -99 -3.453125 -98.023438 -1.984375 -96.078125 C -0.515625 -94.140625 0.21875 -91.847656 0.21875 -89.203125 C 0.21875 -86.492188 -0.472656 -83.582031 -1.859375 -80.46875 C -3.253906 -77.351562 -4.867188 -74.617188 -6.703125 -72.265625 L -13.53125 -70.953125 Z M -14.078125 -71.5 "/>
</symbol>
<symbol overflow="visible" id="oriya-matra-position:id0:glyph0-5">
<path style="stroke:none;" d="M -56.3125 10.78125 C -51.332031 14.738281 -45.941406 17.890625 -40.140625 20.234375 C -34.347656 22.585938 -28.59375 23.765625 -22.875 23.765625 C -22.65625 23.765625 -22.472656 23.765625 -22.328125 23.765625 C -24.160156 22.367188 -25.535156 20.695312 -26.453125 18.75 C -27.367188 16.8125 -27.828125 15 -27.828125 13.3125 C -27.828125 10.300781 -26.691406 7.640625 -24.421875 5.328125 C -22.148438 3.023438 -19.179688 1.875 -15.515625 1.875 C -12.941406 1.875 -10.609375 2.476562 -8.515625 3.6875 C -6.429688 4.894531 -4.75 6.488281 -3.46875 8.46875 C -2.1875 10.445312 -1.546875 12.6875 -1.546875 15.1875 C -1.546875 19.582031 -3.597656 23.191406 -7.703125 26.015625 C -11.804688 28.835938 -17.304688 30.25 -24.203125 30.25 C -28.523438 30.25 -32.847656 29.695312 -37.171875 28.59375 C -41.503906 27.5 -45.554688 25.976562 -49.328125 24.03125 C -53.109375 22.09375 -56.46875 19.910156 -59.40625 17.484375 Z M -21.234375 12.09375 C -21.234375 13.851562 -20.390625 15.664062 -18.703125 17.53125 C -17.015625 19.40625 -14.847656 20.894531 -12.203125 22 C -9.566406 20.75 -8.25 19.023438 -8.25 16.828125 C -8.25 15.503906 -8.671875 14.203125 -9.515625 12.921875 C -10.359375 11.640625 -11.457031 10.578125 -12.8125 9.734375 C -14.164062 8.890625 -15.648438 8.46875 -17.265625 8.46875 C -18.441406 8.46875 -19.394531 8.796875 -20.125 9.453125 C -20.863281 10.117188 -21.234375 11 -21.234375 12.09375 Z M -21.234375 12.09375 "/>
</symbol>
<symbol overflow="visible" id="oriya-matra-position:id0:glyph0-6">
<path style="stroke:none;" d="M -12.765625 50.59375 L -51.484375 50.59375 L -52.6875 49.0625 L -48.84375 43.671875 L -13.859375 43.671875 L -13.859375 34.3125 L -7.703125 32.015625 L -6.703125 32.78125 L -6.703125 47.84375 Z M -12.765625 50.59375 "/>
</symbol>
<symbol overflow="visible" id="oriya-matra-position:id0:glyph0-7">
<path style="stroke:none;" d="M 27.609375 0 L 27.609375 -43.78125 C 26.285156 -41.800781 24.757812 -40.425781 23.03125 -39.65625 C 21.3125 -38.882812 19.5 -38.5 17.59375 -38.5 C 14.519531 -38.5 12.101562 -39.320312 10.34375 -40.96875 C 8.582031 -42.625 7.316406 -44.804688 6.546875 -47.515625 C 5.773438 -50.234375 5.390625 -53.164062 5.390625 -56.3125 L 5.390625 -71.28125 L 11.984375 -72.8125 L 12.765625 -72.046875 L 12.765625 -58.40625 C 12.765625 -53.789062 13.367188 -50.566406 14.578125 -48.734375 C 15.785156 -46.898438 17.34375 -45.984375 19.25 -45.984375 C 21.738281 -45.984375 23.753906 -47.15625 25.296875 -49.5 C 26.835938 -51.84375 27.609375 -54.519531 27.609375 -57.53125 L 27.609375 -71.5 L 34.203125 -73.046875 L 34.984375 -72.265625 L 34.984375 -0.765625 L 28.375 0.765625 Z M 27.609375 0 "/>
</symbol>
</g>
<g>
<symbol overflow="visible" id="oriya-matra-position:id1:glyph0-0">
<path style="stroke:none;" d="M 5.375 -96.6875 L 69.828125 -96.6875 L 69.828125 0 L 5.375 0 Z M 8.0625 -2.6875 L 67.140625 -2.6875 L 67.140625 -94 L 8.0625 -94 Z M 8.0625 -2.6875 "/>
</symbol>
<symbol overflow="visible" id="oriya-matra-position:id1:glyph0-1">
<path style="stroke:none;" d="M 68.15625 -13.75 L 66.28125 -18.640625 L 88.09375 -27.390625 L 6.984375 -27.390625 L 6.984375 -34 L 88.09375 -34 L 66.28125 -42.75 L 68.15625 -47.640625 L 99.09375 -34.265625 L 99.09375 -27.125 Z M 68.15625 -13.75 "/>
</symbol>
</g>
<g>
<symbol overflow="visible" id="oriya-matra-position:id2:glyph0-0">
<path style="stroke:none;" d="M 10.34375 0 L 10.34375 -78.546875 L 55.546875 -78.546875 L 55.546875 0 Z M 15.953125 -5.609375 L 49.9375 -5.609375 L 49.9375 -72.9375 L 15.953125 -72.9375 Z M 15.953125 -5.609375 "/>
</symbol>
<symbol overflow="visible" id="oriya-matra-position:id2:glyph0-1">
<path style="stroke:none;" d="M 4.0625 -35.640625 C 4.0625 -43.484375 5.304688 -50.226562 7.796875 -55.875 C 10.296875 -61.519531 13.726562 -65.847656 18.09375 -68.859375 C 22.457031 -71.867188 27.425781 -73.375 33 -73.375 C 36.738281 -73.375 40.09375 -72.785156 43.0625 -71.609375 C 46.03125 -70.429688 48.429688 -69.222656 50.265625 -67.984375 L 46.859375 -61.703125 L 45.65625 -61.703125 C 43.820312 -63.023438 41.691406 -64.109375 39.265625 -64.953125 C 36.847656 -65.796875 34.28125 -66.21875 31.5625 -66.21875 C 25.113281 -66.21875 20.238281 -63.59375 16.9375 -58.34375 C 13.632812 -53.101562 11.984375 -46.007812 11.984375 -37.0625 C 11.984375 -35.382812 12.054688 -33.738281 12.203125 -32.125 C 14.773438 -34.46875 17.691406 -36.375 20.953125 -37.84375 C 24.210938 -39.3125 27.492188 -40.046875 30.796875 -40.046875 C 34.171875 -40.046875 37.320312 -39.253906 40.25 -37.671875 C 43.1875 -36.097656 45.570312 -33.878906 47.40625 -31.015625 C 49.238281 -28.160156 50.15625 -24.71875 50.15625 -20.6875 C 50.15625 -16.789062 49.273438 -13.175781 47.515625 -9.84375 C 45.753906 -6.507812 43.332031 -3.851562 40.25 -1.875 C 37.175781 0.101562 33.660156 1.09375 29.703125 1.09375 C 24.929688 1.09375 20.601562 -0.40625 16.71875 -3.40625 C 12.832031 -6.414062 9.75 -10.671875 7.46875 -16.171875 C 5.195312 -21.671875 4.0625 -28.160156 4.0625 -35.640625 Z M 29.15625 -32.5625 C 26.507812 -32.5625 23.789062 -31.957031 21 -30.75 C 18.21875 -29.539062 15.582031 -27.90625 13.09375 -25.84375 C 14.332031 -19.320312 16.582031 -14.410156 19.84375 -11.109375 C 23.113281 -7.804688 26.691406 -6.15625 30.578125 -6.15625 C 33.878906 -6.15625 36.738281 -7.3125 39.15625 -9.625 C 41.582031 -11.9375 42.796875 -15.109375 42.796875 -19.140625 C 42.796875 -22.078125 42.148438 -24.535156 40.859375 -26.515625 C 39.578125 -28.492188 37.890625 -29.992188 35.796875 -31.015625 C 33.710938 -32.046875 31.5 -32.5625 29.15625 -32.5625 Z M 29.15625 -32.5625 "/>
</symbol>
<symbol overflow="visible" id="oriya-matra-position:id2:glyph0-2">
<path style="stroke:none;" d="M 11.65625 -17.375 C 11.65625 -18.332031 11.726562 -19.25 11.875 -20.125 C 9.164062 -22.175781 7.09375 -24.539062 5.65625 -27.21875 C 4.226562 -29.894531 3.515625 -32.628906 3.515625 -35.421875 C 3.515625 -39.378906 4.707031 -42.820312 7.09375 -45.75 C 9.476562 -48.6875 12.832031 -50.632812 17.15625 -51.59375 C 16.28125 -52.613281 15.566406 -53.75 15.015625 -55 C 14.460938 -56.25 14.1875 -57.601562 14.1875 -59.0625 C 14.1875 -61.414062 15.082031 -63.671875 16.875 -65.828125 C 18.675781 -67.992188 21.191406 -69.789062 24.421875 -71.21875 C 27.648438 -72.65625 31.390625 -73.375 35.640625 -73.375 C 40.179688 -73.375 44.414062 -72.601562 48.34375 -71.0625 C 52.269531 -69.519531 55.625 -67.351562 58.40625 -64.5625 L 58.40625 -71.5 L 65.015625 -73.046875 L 65.78125 -72.265625 L 65.78125 -0.765625 L 59.1875 0.765625 L 58.40625 0 L 58.40625 -53.453125 C 55.550781 -57.785156 51.941406 -60.976562 47.578125 -63.03125 C 43.210938 -65.082031 38.90625 -66.109375 34.65625 -66.109375 C 30.6875 -66.109375 27.53125 -65.46875 25.1875 -64.1875 C 22.84375 -62.90625 21.671875 -61.3125 21.671875 -59.40625 C 21.671875 -58.59375 22.09375 -57.617188 22.9375 -56.484375 C 23.78125 -55.347656 25.335938 -54.15625 27.609375 -52.90625 C 29.878906 -51.664062 33.070312 -50.492188 37.1875 -49.390625 L 37.1875 -48.296875 L 32.5625 -43.34375 C 31.238281 -44.144531 29.640625 -44.835938 27.765625 -45.421875 C 25.898438 -46.015625 23.941406 -46.3125 21.890625 -46.3125 C 18.953125 -46.3125 16.398438 -45.554688 14.234375 -44.046875 C 12.078125 -42.546875 11 -40.296875 11 -37.296875 C 11 -34.066406 12.503906 -31.460938 15.515625 -29.484375 C 17.203125 -31.828125 19.304688 -33.675781 21.828125 -35.03125 C 24.359375 -36.382812 27.128906 -37.0625 30.140625 -37.0625 C 33.441406 -37.0625 36.410156 -36.253906 39.046875 -34.640625 C 41.691406 -33.035156 43.765625 -30.835938 45.265625 -28.046875 C 46.765625 -25.265625 47.515625 -22.113281 47.515625 -18.59375 C 47.515625 -14.925781 46.707031 -11.609375 45.09375 -8.640625 C 43.488281 -5.671875 41.289062 -3.304688 38.5 -1.546875 C 35.707031 0.210938 32.554688 1.09375 29.046875 1.09375 C 25.742188 1.09375 22.789062 0.289062 20.1875 -1.3125 C 17.582031 -2.925781 15.507812 -5.125 13.96875 -7.90625 C 12.425781 -10.695312 11.65625 -13.851562 11.65625 -17.375 Z M 18.59375 -20.34375 C 18.59375 -17.488281 19.195312 -14.941406 20.40625 -12.703125 C 21.613281 -10.460938 23.1875 -8.703125 25.125 -7.421875 C 27.070312 -6.140625 29.144531 -5.5 31.34375 -5.5 C 34.28125 -5.5 36.554688 -6.46875 38.171875 -8.40625 C 39.785156 -10.351562 40.59375 -12.796875 40.59375 -15.734375 C 40.59375 -18.585938 39.984375 -21.132812 38.765625 -23.375 C 37.554688 -25.613281 36 -27.375 34.09375 -28.65625 C 32.1875 -29.9375 30.097656 -30.578125 27.828125 -30.578125 C 24.898438 -30.578125 22.628906 -29.601562 21.015625 -27.65625 C 19.398438 -25.71875 18.59375 -23.28125 18.59375 -20.34375 Z M 18.59375 -20.34375 "/>
</symbol>
<symbol overflow="visible" id="oriya-matra-position:id2:glyph0-3">
<path style="stroke:none;" d="M -14.078125 -71.5 C -12.023438 -73.84375 -10.320312 -76.441406 -8.96875 -79.296875 C -7.613281 -82.160156 -6.9375 -84.660156 -6.9375 -86.796875 C -6.9375 -87.960938 -7.242188 -89.003906 -7.859375 -89.921875 C -8.484375 -90.835938 -9.75 -91.296875 -11.65625 -91.296875 C -12.613281 -91.296875 -13.601562 -91.203125 -14.625 -91.015625 C -15.65625 -90.835938 -16.71875 -90.566406 -17.8125 -90.203125 C -18.769531 -89.910156 -20 -89.523438 -21.5 -89.046875 C -23.007812 -88.566406 -24.972656 -87.925781 -27.390625 -87.125 C -29.734375 -86.3125 -31.929688 -85.664062 -33.984375 -85.1875 C -36.035156 -84.71875 -38.128906 -84.484375 -40.265625 -84.484375 C -43.410156 -84.484375 -46.300781 -85.160156 -48.9375 -86.515625 C -51.582031 -87.867188 -53.894531 -89.570312 -55.875 -91.625 L -50.8125 -97.6875 C -48.6875 -95.550781 -46.597656 -94.003906 -44.546875 -93.046875 C -42.492188 -92.097656 -40.441406 -91.625 -38.390625 -91.625 C -36.703125 -91.625 -34.882812 -91.878906 -32.9375 -92.390625 C -31 -92.910156 -28.5625 -93.679688 -25.625 -94.703125 C -22.40625 -95.878906 -19.457031 -96.890625 -16.78125 -97.734375 C -14.101562 -98.578125 -11.515625 -99 -9.015625 -99 C -5.796875 -99 -3.453125 -98.023438 -1.984375 -96.078125 C -0.515625 -94.140625 0.21875 -91.847656 0.21875 -89.203125 C 0.21875 -86.492188 -0.472656 -83.582031 -1.859375 -80.46875 C -3.253906 -77.351562 -4.867188 -74.617188 -6.703125 -72.265625 L -13.53125 -70.953125 Z M -14.078125 -71.5 "/>
</symbol>
<symbol overflow="visible" id="oriya-matra-position:id2:glyph0-4">
<path style="stroke:none;" d="M -56.3125 10.78125 C -51.332031 14.738281 -45.941406 17.890625 -40.140625 20.234375 C -34.347656 22.585938 -28.59375 23.765625 -22.875 23.765625 C -22.65625 23.765625 -22.472656 23.765625 -22.328125 23.765625 C -24.160156 22.367188 -25.535156 20.695312 -26.453125 18.75 C -27.367188 16.8125 -27.828125 15 -27.828125 13.3125 C -27.828125 10.300781 -26.691406 7.640625 -24.421875 5.328125 C -22.148438 3.023438 -19.179688 1.875 -15.515625 1.875 C -12.941406 1.875 -10.609375 2.476562 -8.515625 3.6875 C -6.429688 4.894531 -4.75 6.488281 -3.46875 8.46875 C -2.1875 10.445312 -1.546875 12.6875 -1.546875 15.1875 C -1.546875 19.582031 -3.597656 23.191406 -7.703125 26.015625 C -11.804688 28.835938 -17.304688 30.25 -24.203125 30.25 C -28.523438 30.25 -32.847656 29.695312 -37.171875 28.59375 C -41.503906 27.5 -45.554688 25.976562 -49.328125 24.03125 C -53.109375 22.09375 -56.46875 19.910156 -59.40625 17.484375 Z M -21.234375 12.09375 C -21.234375 13.851562 -20.390625 15.664062 -18.703125 17.53125 C -17.015625 19.40625 -14.847656 20.894531 -12.203125 22 C -9.566406 20.75 -8.25 19.023438 -8.25 16.828125 C -8.25 15.503906 -8.671875 14.203125 -9.515625 12.921875 C -10.359375 11.640625 -11.457031 10.578125 -12.8125 9.734375 C -14.164062 8.890625 -15.648438 8.46875 -17.265625 8.46875 C -18.441406 8.46875 -19.394531 8.796875 -20.125 9.453125 C -20.863281 10.117188 -21.234375 11 -21.234375 12.09375 Z M -21.234375 12.09375 "/>
</symbol>
<symbol overflow="visible" id="oriya-matra-position:id2:glyph0-5">
<path style="stroke:none;" d="M -12.765625 50.59375 L -51.484375 50.59375 L -52.6875 49.0625 L -48.84375 43.671875 L -13.859375 43.671875 L -13.859375 34.3125 L -7.703125 32.015625 L -6.703125 32.78125 L -6.703125 47.84375 Z M -12.765625 50.59375 "/>
</symbol>
<symbol overflow="visible" id="oriya-matra-position:id2:glyph0-6">
<path style="stroke:none;" d="M 27.609375 0 L 27.609375 -43.78125 C 26.285156 -41.800781 24.757812 -40.425781 23.03125 -39.65625 C 21.3125 -38.882812 19.5 -38.5 17.59375 -38.5 C 14.519531 -38.5 12.101562 -39.320312 10.34375 -40.96875 C 8.582031 -42.625 7.316406 -44.804688 6.546875 -47.515625 C 5.773438 -50.234375 5.390625 -53.164062 5.390625 -56.3125 L 5.390625 -71.28125 L 11.984375 -72.8125 L 12.765625 -72.046875 L 12.765625 -58.40625 C 12.765625 -53.789062 13.367188 -50.566406 14.578125 -48.734375 C 15.785156 -46.898438 17.34375 -45.984375 19.25 -45.984375 C 21.738281 -45.984375 23.753906 -47.15625 25.296875 -49.5 C 26.835938 -51.84375 27.609375 -54.519531 27.609375 -57.53125 L 27.609375 -71.5 L 34.203125 -73.046875 L 34.984375 -72.265625 L 34.984375 -0.765625 L 28.375 0.765625 Z M 27.609375 0 "/>
</symbol>
</g>
</defs>
  <g id="oriya-matra-position:id0:id0" transform="matrix(1.25,0,0,1.25,0.0,1.328125)"><g id="oriya-matra-position:id0:surface1">
<g style="fill:rgb(0%,0%,0%);fill-opacity:1;">
  <use xlink:href="#oriya-matra-position:id0:glyph0-1" x="16" y="102.875" class="c0"/>
  <use xlink:href="#oriya-matra-position:id0:glyph0-2" x="70.015625" y="102.875" class="dc"/>
  <use xlink:href="#oriya-matra-position:id0:glyph0-3" x="126.109375" y="102.875" class="c1"/>
  <use xlink:href="#oriya-matra-position:id0:glyph0-4" x="198.59375" y="102.875" class="c2"/>
  <use xlink:href="#oriya-matra-position:id0:glyph0-5" x="194.859375" y="102.875" class="c3"/>
  <use xlink:href="#oriya-matra-position:id0:glyph0-6" x="198.59375" y="102.875" class="c4"/>
  <use xlink:href="#oriya-matra-position:id0:glyph0-7" x="198.59375" y="102.875" class="c5"/>
</g>
</g>
</g>
  <g id="oriya-matra-position:id1:id1" transform="matrix(1.25,0,0,1.25,320.3515625,0.0)"><g id="oriya-matra-position:id1:surface1">
<g style="fill:rgb(0%,0%,0%);fill-opacity:1;">
  <use xlink:href="#oriya-matra-position:id1:glyph0-1" x="0" y="120.84375" class="arrow"/>
</g>
</g>
</g>
  <g id="oriya-matra-position:id2:id2" transform="matrix(1.25,0,0,1.25,452.94921875,1.328125)"><g id="oriya-matra-position:id2:surface1">
<g style="fill:rgb(0%,0%,0%);fill-opacity:1;">
  <use xlink:href="#oriya-matra-position:id2:glyph0-1" x="16" y="102.875" class="c0"/>
  <use xlink:href="#oriya-matra-position:id2:glyph0-2" x="70.015625" y="102.875" class="c1"/>
  <use xlink:href="#oriya-matra-position:id2:glyph0-3" x="142.5" y="102.875" class="c2"/>
  <use xlink:href="#oriya-matra-position:id2:glyph0-4" x="138.765625" y="102.875" class="c3"/>
  <use xlink:href="#oriya-matra-position:id2:glyph0-5" x="142.5" y="102.875" class="c4"/>
  <use xlink:href="#oriya-matra-position:id2:glyph0-6" x="142.5" y="102.875" class="c5"/>
</g>
</g>
</g>
</svg>
