<!DOCTYPE svg PUBLIC "-//W3C//DTD SVG 1.1//EN" "http://www.w3.org/Graphics/SVG/1.1/DTD/svg11.dtd">
<!-- Created with svg_stack (http://github.com/astraw/svg_stack) --><svg xmlns="http://www.w3.org/2000/svg" xmlns:sodipodi="http://sodipodi.sourceforge.net/DTD/sodipodi-0.dtd" xmlns:xlink="http://www.w3.org/1999/xlink" version="1.1" width="394.921875" height="224.1796875" id="bengali-blws">
  <defs><g>
<symbol overflow="visible" id="bengali-blws:id0:glyph0-0">
<path style="stroke:none;" d="M 10.34375 0 L 10.34375 -78.546875 L 55.546875 -78.546875 L 55.546875 0 Z M 15.953125 -5.609375 L 49.9375 -5.609375 L 49.9375 -72.9375 L 15.953125 -72.9375 Z M 15.953125 -5.609375 "/>
</symbol>
<symbol overflow="visible" id="bengali-blws:id0:glyph0-1">
<path style="stroke:none;" d="M 46.859375 1.4375 L 41.6875 -2.640625 C 37.726562 -9.242188 32.890625 -14.523438 27.171875 -18.484375 C 21.453125 -22.441406 14.816406 -24.894531 7.265625 -25.84375 L 2.75 -38.28125 C 9.28125 -42.53125 15.566406 -46.140625 21.609375 -49.109375 C 27.660156 -52.078125 34.28125 -54.847656 41.46875 -57.421875 L 41.46875 -62.703125 L 0.546875 -62.703125 L -3.1875 -68.421875 L 47.40625 -68.421875 L 47.40625 -35.203125 C 49.457031 -33.441406 51.4375 -31.441406 53.34375 -29.203125 C 55.25 -26.960938 57.046875 -24.414062 58.734375 -21.5625 L 58.734375 -76.671875 L 59.1875 -76.78125 L 64.234375 -73.15625 L 64.6875 -68.421875 L 72.8125 -68.421875 L 76.671875 -62.703125 L 64.6875 -62.703125 L 64.6875 -9.34375 L 64.34375 -9.234375 L 58.953125 -13.3125 C 57.347656 -16.019531 55.585938 -18.546875 53.671875 -20.890625 C 51.765625 -23.242188 49.675781 -25.226562 47.40625 -26.84375 L 47.40625 1.3125 Z M 13.96875 -33.4375 C 18.664062 -31.96875 23.488281 -29.492188 28.4375 -26.015625 C 33.382812 -22.535156 37.726562 -17.53125 41.46875 -11 L 41.46875 -47.1875 C 36.78125 -45.425781 32.050781 -43.390625 27.28125 -41.078125 C 22.507812 -38.773438 18.070312 -36.226562 13.96875 -33.4375 Z M 13.96875 -33.4375 "/>
</symbol>
<symbol overflow="visible" id="bengali-blws:id0:glyph0-2">
<path style="stroke:none;" d="M -0.546875 19.25 L -5.0625 16.390625 C -7.332031 13.160156 -10.390625 10.59375 -14.234375 8.6875 C -18.085938 6.78125 -22.398438 5.789062 -27.171875 5.71875 L -31.234375 -4.0625 C -26.910156 -6.488281 -22.472656 -8.65625 -17.921875 -10.5625 C -13.378906 -12.46875 -9.128906 -14.007812 -5.171875 -15.1875 L 0 -11.328125 L 0 19.140625 Z M -19.796875 -0.109375 C -17.304688 0.617188 -14.832031 1.71875 -12.375 3.1875 C -9.914062 4.65625 -7.769531 6.820312 -5.9375 9.6875 L -5.9375 -5.828125 C -8.132812 -5.242188 -10.476562 -4.4375 -12.96875 -3.40625 C -15.46875 -2.382812 -17.742188 -1.285156 -19.796875 -0.109375 Z M -19.796875 -0.109375 "/>
</symbol>
</g>
<g>
<symbol overflow="visible" id="bengali-blws:id1:glyph0-0">
<path style="stroke:none;" d="M 5.375 -96.6875 L 69.828125 -96.6875 L 69.828125 0 L 5.375 0 Z M 8.0625 -2.6875 L 67.140625 -2.6875 L 67.140625 -94 L 8.0625 -94 Z M 8.0625 -2.6875 "/>
</symbol>
<symbol overflow="visible" id="bengali-blws:id1:glyph0-1">
<path style="stroke:none;" d="M 68.15625 -13.75 L 66.28125 -18.640625 L 88.09375 -27.390625 L 6.984375 -27.390625 L 6.984375 -34 L 88.09375 -34 L 66.28125 -42.75 L 68.15625 -47.640625 L 99.09375 -34.265625 L 99.09375 -27.125 Z M 68.15625 -13.75 "/>
</symbol>
</g>
<g>
<symbol overflow="visible" id="bengali-blws:id2:glyph0-0">
<path style="stroke:none;" d="M 10.34375 0 L 10.34375 -78.546875 L 55.546875 -78.546875 L 55.546875 0 Z M 15.953125 -5.609375 L 49.9375 -5.609375 L 49.9375 -72.9375 L 15.953125 -72.9375 Z M 15.953125 -5.609375 "/>
</symbol>
<symbol overflow="visible" id="bengali-blws:id2:glyph0-1">
<path style="stroke:none;" d="M 45.765625 14.1875 L 40.59375 10.125 C 38.09375 6.75 35.5625 4.050781 33 2.03125 C 30.4375 0.0195312 27.703125 -1.535156 24.796875 -2.640625 C 21.898438 -3.742188 18.769531 -4.625 15.40625 -5.28125 L 10.125 -16.71875 C 12.320312 -18.1875 14.570312 -19.597656 16.875 -20.953125 C 19.1875 -22.304688 21.484375 -23.535156 23.765625 -24.640625 C 18.773438 -26.546875 13.085938 -27.898438 6.703125 -28.703125 L 2.203125 -41.140625 C 6.597656 -44.003906 10.8125 -46.460938 14.84375 -48.515625 C 18.882812 -50.566406 22.972656 -52.34375 27.109375 -53.84375 C 31.253906 -55.34375 35.675781 -56.71875 40.375 -57.96875 L 40.375 -62.703125 L 0.546875 -62.703125 L -3.1875 -68.421875 L 46.3125 -68.421875 L 46.3125 -33 C 48.363281 -31.238281 50.34375 -29.238281 52.25 -27 C 54.15625 -24.769531 55.953125 -22.222656 57.640625 -19.359375 L 57.640625 -76.671875 L 58.078125 -76.78125 L 63.140625 -73.15625 L 63.578125 -68.421875 L 71.71875 -68.421875 L 75.5625 -62.703125 L 63.578125 -62.703125 L 63.578125 -7.15625 L 63.25 -7.046875 L 57.859375 -11.109375 C 56.242188 -13.828125 54.484375 -16.359375 52.578125 -18.703125 C 50.671875 -21.046875 48.582031 -23.023438 46.3125 -24.640625 L 46.3125 14.078125 Z M 13.203125 -36.1875 C 17.890625 -34.644531 22.632812 -32.664062 27.4375 -30.25 C 32.25 -27.832031 36.5625 -24.566406 40.375 -20.453125 L 40.375 -47.84375 C 35.75 -46.675781 31.085938 -45.140625 26.390625 -43.234375 C 21.703125 -41.328125 17.304688 -38.976562 13.203125 -36.1875 Z M 40.375 -14.296875 C 38.394531 -16.273438 36.191406 -18.035156 33.765625 -19.578125 C 31.347656 -18.398438 29.078125 -17.132812 26.953125 -15.78125 C 24.828125 -14.425781 22.921875 -13.160156 21.234375 -11.984375 C 24.453125 -10.890625 27.710938 -9.273438 31.015625 -7.140625 C 34.316406 -5.015625 37.4375 -1.9375 40.375 2.09375 Z M 40.375 -14.296875 "/>
</symbol>
</g>
<filter id="bengali-blws:local-greyscale"> <feColorMatrix type="saturate" values="0.0" color-interpolation-filters="sRGB"/> <feComponentTransfer> <feFuncR type="gamma" exponent="4.0" amplitude="1.0" offset="0"/> <feFuncG type="gamma" exponent="4.0" amplitude="1.0" offset="0"/> <feFuncB type="gamma" exponent="4.0" amplitude="1.0" offset="0"/> </feComponentTransfer> </filter></defs>
  <g id="bengali-blws:id0:id0" transform="matrix(1.25,0,0,1.25,0.0,0.0)"><g id="bengali-blws:id0:surface1">
<g style="fill:rgb(0%,0%,0%);fill-opacity:1;">
  <use xlink:href="#bengali-blws:id0:glyph0-1" x="16" y="122.125" class="c0"/>
  <use xlink:href="#bengali-blws:id0:glyph0-2" x="63.40625" y="114.421875" class="c1"/>
</g>
</g>
</g>
  <g id="bengali-blws:id1:id1" transform="matrix(1.25,0,0,1.25,131.85546875,11.38671875)"><g id="bengali-blws:id1:surface1">
<g style="fill:rgb(0%,0%,0%);fill-opacity:1;">
  <use xlink:href="#bengali-blws:id1:glyph0-1" x="0" y="120.84375" class="arrow"/>
</g>
</g>
</g>
  <g id="bengali-blws:id2:id2" transform="matrix(1.25,0,0,1.25,264.453125,0.0)"><g id="bengali-blws:id2:surface1">
<g style="fill:rgb(0%,0%,0%);fill-opacity:1;">
  <use xlink:href="#bengali-blws:id2:glyph0-1" x="16" y="122.125" class="c0"/>
</g>
</g>
</g>
</svg>
