<!DOCTYPE svg PUBLIC "-//W3C//DTD SVG 1.1//EN" "http://www.w3.org/Graphics/SVG/1.1/DTD/svg11.dtd">
<!-- Created with svg_stack (http://github.com/astraw/svg_stack) --><svg xmlns="http://www.w3.org/2000/svg" xmlns:sodipodi="http://sodipodi.sourceforge.net/DTD/sodipodi-0.dtd" xmlns:xlink="http://www.w3.org/1999/xlink" version="1.1" width="619.04296875" height="224.1796875" id="bengali-half-ka">
  <defs><g>
<symbol overflow="visible" id="bengali-half-ka:id0:glyph0-0">
<path style="stroke:none;" d="M 10.34375 0 L 10.34375 -78.546875 L 55.546875 -78.546875 L 55.546875 0 Z M 15.953125 -5.609375 L 49.9375 -5.609375 L 49.9375 -72.9375 L 15.953125 -72.9375 Z M 15.953125 -5.609375 "/>
</symbol>
<symbol overflow="visible" id="bengali-half-ka:id0:glyph0-1">
<path style="stroke:none;" d="M 46.859375 1.4375 L 41.6875 -2.640625 C 37.726562 -9.242188 32.890625 -14.523438 27.171875 -18.484375 C 21.453125 -22.441406 14.816406 -24.894531 7.265625 -25.84375 L 2.75 -38.28125 C 9.28125 -42.53125 15.566406 -46.140625 21.609375 -49.109375 C 27.660156 -52.078125 34.28125 -54.847656 41.46875 -57.421875 L 41.46875 -62.703125 L 0.546875 -62.703125 L -3.1875 -68.421875 L 76.78125 -68.421875 L 80.515625 -62.703125 L 47.40625 -62.703125 L 47.40625 -57.53125 C 52.757812 -57.019531 57.414062 -55.476562 61.375 -52.90625 C 65.332031 -50.34375 68.410156 -47.207031 70.609375 -43.5 C 72.816406 -39.800781 73.921875 -35.9375 73.921875 -31.90625 C 73.921875 -28.007812 73.09375 -24.757812 71.4375 -22.15625 C 69.789062 -19.5625 67.316406 -18.265625 64.015625 -18.265625 C 61.085938 -18.265625 58.960938 -19.125 57.640625 -20.84375 C 56.316406 -22.570312 55.65625 -24.390625 55.65625 -26.296875 C 55.65625 -28.421875 56.257812 -30.234375 57.46875 -31.734375 C 58.6875 -33.234375 60.46875 -33.984375 62.8125 -33.984375 C 65.664062 -33.984375 67.789062 -32.628906 69.1875 -29.921875 C 69.257812 -30.359375 69.296875 -30.832031 69.296875 -31.34375 C 69.296875 -33.988281 68.453125 -36.554688 66.765625 -39.046875 C 65.078125 -41.546875 62.640625 -43.597656 59.453125 -45.203125 C 56.265625 -46.816406 52.320312 -47.625 47.625 -47.625 C 47.550781 -47.625 47.476562 -47.625 47.40625 -47.625 L 47.40625 1.3125 Z M 13.859375 -33.546875 C 18.554688 -32.003906 23.378906 -29.492188 28.328125 -26.015625 C 33.273438 -22.535156 37.65625 -17.53125 41.46875 -11 L 41.46875 -47.296875 C 36.695312 -45.535156 31.925781 -43.5 27.15625 -41.1875 C 22.394531 -38.882812 17.960938 -36.335938 13.859375 -33.546875 Z M 13.859375 -33.546875 "/>
</symbol>
<symbol overflow="visible" id="bengali-half-ka:id0:glyph0-2">
<path style="stroke:none;" d="M 32.890625 -53.6875 C 32.160156 -53.6875 31.5 -53.976562 30.90625 -54.5625 C 30.320312 -55.144531 30.03125 -55.804688 30.03125 -56.546875 C 30.03125 -57.347656 30.320312 -58.023438 30.90625 -58.578125 C 31.5 -59.128906 32.160156 -59.40625 32.890625 -59.40625 C 33.691406 -59.40625 34.367188 -59.128906 34.921875 -58.578125 C 35.472656 -58.023438 35.75 -57.347656 35.75 -56.546875 C 35.75 -55.804688 35.472656 -55.144531 34.921875 -54.5625 C 34.367188 -53.976562 33.691406 -53.6875 32.890625 -53.6875 Z M 23.65625 -51.703125 C 22.914062 -51.703125 22.253906 -51.992188 21.671875 -52.578125 C 21.085938 -53.160156 20.796875 -53.820312 20.796875 -54.5625 C 20.796875 -55.363281 21.085938 -56.039062 21.671875 -56.59375 C 22.253906 -57.144531 22.914062 -57.421875 23.65625 -57.421875 C 24.457031 -57.421875 25.132812 -57.144531 25.6875 -56.59375 C 26.238281 -56.039062 26.515625 -55.363281 26.515625 -54.5625 C 26.515625 -53.820312 26.238281 -53.160156 25.6875 -52.578125 C 25.132812 -51.992188 24.457031 -51.703125 23.65625 -51.703125 Z M 42.125 -51.703125 C 41.394531 -51.703125 40.734375 -51.992188 40.140625 -52.578125 C 39.554688 -53.160156 39.265625 -53.820312 39.265625 -54.5625 C 39.265625 -55.363281 39.554688 -56.039062 40.140625 -56.59375 C 40.734375 -57.144531 41.394531 -57.421875 42.125 -57.421875 C 42.9375 -57.421875 43.613281 -57.144531 44.15625 -56.59375 C 44.707031 -56.039062 44.984375 -55.363281 44.984375 -54.5625 C 44.984375 -53.820312 44.707031 -53.160156 44.15625 -52.578125 C 43.613281 -51.992188 42.9375 -51.703125 42.125 -51.703125 Z M 50.265625 -46.53125 C 49.535156 -46.53125 48.875 -46.820312 48.28125 -47.40625 C 47.695312 -48 47.40625 -48.660156 47.40625 -49.390625 C 47.40625 -50.191406 47.695312 -50.867188 48.28125 -51.421875 C 48.875 -51.972656 49.535156 -52.25 50.265625 -52.25 C 51.078125 -52.25 51.753906 -51.972656 52.296875 -51.421875 C 52.847656 -50.867188 53.125 -50.191406 53.125 -49.390625 C 53.125 -48.660156 52.847656 -48 52.296875 -47.40625 C 51.753906 -46.820312 51.078125 -46.53125 50.265625 -46.53125 Z M 15.515625 -46.53125 C 14.773438 -46.53125 14.113281 -46.820312 13.53125 -47.40625 C 12.945312 -48 12.65625 -48.660156 12.65625 -49.390625 C 12.65625 -50.191406 12.945312 -50.867188 13.53125 -51.421875 C 14.113281 -51.972656 14.773438 -52.25 15.515625 -52.25 C 16.316406 -52.25 16.992188 -51.972656 17.546875 -51.421875 C 18.097656 -50.867188 18.375 -50.191406 18.375 -49.390625 C 18.375 -48.660156 18.097656 -48 17.546875 -47.40625 C 16.992188 -46.820312 16.316406 -46.53125 15.515625 -46.53125 Z M 10.34375 -38.390625 C 9.601562 -38.390625 8.941406 -38.679688 8.359375 -39.265625 C 7.773438 -39.859375 7.484375 -40.519531 7.484375 -41.25 C 7.484375 -42.050781 7.773438 -42.726562 8.359375 -43.28125 C 8.941406 -43.832031 9.601562 -44.109375 10.34375 -44.109375 C 11.144531 -44.109375 11.820312 -43.832031 12.375 -43.28125 C 12.925781 -42.726562 13.203125 -42.050781 13.203125 -41.25 C 13.203125 -40.519531 12.925781 -39.859375 12.375 -39.265625 C 11.820312 -38.679688 11.144531 -38.390625 10.34375 -38.390625 Z M 55.4375 -38.390625 C 54.707031 -38.390625 54.046875 -38.679688 53.453125 -39.265625 C 52.867188 -39.859375 52.578125 -40.519531 52.578125 -41.25 C 52.578125 -42.050781 52.867188 -42.726562 53.453125 -43.28125 C 54.046875 -43.832031 54.707031 -44.109375 55.4375 -44.109375 C 56.25 -44.109375 56.925781 -43.832031 57.46875 -43.28125 C 58.019531 -42.726562 58.296875 -42.050781 58.296875 -41.25 C 58.296875 -40.519531 58.019531 -39.859375 57.46875 -39.265625 C 56.925781 -38.679688 56.25 -38.390625 55.4375 -38.390625 Z M 8.359375 -29.15625 C 7.628906 -29.15625 6.96875 -29.445312 6.375 -30.03125 C 5.789062 -30.613281 5.5 -31.273438 5.5 -32.015625 C 5.5 -32.816406 5.789062 -33.492188 6.375 -34.046875 C 6.96875 -34.597656 7.628906 -34.875 8.359375 -34.875 C 9.160156 -34.875 9.835938 -34.597656 10.390625 -34.046875 C 10.941406 -33.492188 11.21875 -32.816406 11.21875 -32.015625 C 11.21875 -31.273438 10.941406 -30.613281 10.390625 -30.03125 C 9.835938 -29.445312 9.160156 -29.15625 8.359375 -29.15625 Z M 57.421875 -29.15625 C 56.679688 -29.15625 56.019531 -29.445312 55.4375 -30.03125 C 54.851562 -30.613281 54.5625 -31.273438 54.5625 -32.015625 C 54.5625 -32.816406 54.851562 -33.492188 55.4375 -34.046875 C 56.019531 -34.597656 56.679688 -34.875 57.421875 -34.875 C 58.222656 -34.875 58.898438 -34.597656 59.453125 -34.046875 C 60.003906 -33.492188 60.28125 -32.816406 60.28125 -32.015625 C 60.28125 -31.273438 60.003906 -30.613281 59.453125 -30.03125 C 58.898438 -29.445312 58.222656 -29.15625 57.421875 -29.15625 Z M 10.34375 -19.90625 C 9.601562 -19.90625 8.941406 -20.195312 8.359375 -20.78125 C 7.773438 -21.375 7.484375 -22.035156 7.484375 -22.765625 C 7.484375 -23.578125 7.773438 -24.253906 8.359375 -24.796875 C 8.941406 -25.347656 9.601562 -25.625 10.34375 -25.625 C 11.144531 -25.625 11.820312 -25.347656 12.375 -24.796875 C 12.925781 -24.253906 13.203125 -23.578125 13.203125 -22.765625 C 13.203125 -22.035156 12.925781 -21.375 12.375 -20.78125 C 11.820312 -20.195312 11.144531 -19.90625 10.34375 -19.90625 Z M 55.4375 -19.90625 C 54.707031 -19.90625 54.046875 -20.195312 53.453125 -20.78125 C 52.867188 -21.375 52.578125 -22.035156 52.578125 -22.765625 C 52.578125 -23.578125 52.867188 -24.253906 53.453125 -24.796875 C 54.046875 -25.347656 54.707031 -25.625 55.4375 -25.625 C 56.25 -25.625 56.925781 -25.347656 57.46875 -24.796875 C 58.019531 -24.253906 58.296875 -23.578125 58.296875 -22.765625 C 58.296875 -22.035156 58.019531 -21.375 57.46875 -20.78125 C 56.925781 -20.195312 56.25 -19.90625 55.4375 -19.90625 Z M 15.515625 -11.765625 C 14.773438 -11.765625 14.113281 -12.054688 13.53125 -12.640625 C 12.945312 -13.234375 12.65625 -13.894531 12.65625 -14.625 C 12.65625 -15.4375 12.945312 -16.113281 13.53125 -16.65625 C 14.113281 -17.207031 14.773438 -17.484375 15.515625 -17.484375 C 16.316406 -17.484375 16.992188 -17.207031 17.546875 -16.65625 C 18.097656 -16.113281 18.375 -15.4375 18.375 -14.625 C 18.375 -13.894531 18.097656 -13.234375 17.546875 -12.640625 C 16.992188 -12.054688 16.316406 -11.765625 15.515625 -11.765625 Z M 50.265625 -11.765625 C 49.535156 -11.765625 48.875 -12.054688 48.28125 -12.640625 C 47.695312 -13.234375 47.40625 -13.894531 47.40625 -14.625 C 47.40625 -15.4375 47.695312 -16.113281 48.28125 -16.65625 C 48.875 -17.207031 49.535156 -17.484375 50.265625 -17.484375 C 51.078125 -17.484375 51.753906 -17.207031 52.296875 -16.65625 C 52.847656 -16.113281 53.125 -15.4375 53.125 -14.625 C 53.125 -13.894531 52.847656 -13.234375 52.296875 -12.640625 C 51.753906 -12.054688 51.078125 -11.765625 50.265625 -11.765625 Z M 23.65625 -6.59375 C 22.914062 -6.59375 22.253906 -6.882812 21.671875 -7.46875 C 21.085938 -8.0625 20.796875 -8.722656 20.796875 -9.453125 C 20.796875 -10.265625 21.085938 -10.941406 21.671875 -11.484375 C 22.253906 -12.035156 22.914062 -12.3125 23.65625 -12.3125 C 24.457031 -12.3125 25.132812 -12.035156 25.6875 -11.484375 C 26.238281 -10.941406 26.515625 -10.265625 26.515625 -9.453125 C 26.515625 -8.722656 26.238281 -8.0625 25.6875 -7.46875 C 25.132812 -6.882812 24.457031 -6.59375 23.65625 -6.59375 Z M 42.125 -6.59375 C 41.394531 -6.59375 40.734375 -6.882812 40.140625 -7.46875 C 39.554688 -8.0625 39.265625 -8.722656 39.265625 -9.453125 C 39.265625 -10.265625 39.554688 -10.941406 40.140625 -11.484375 C 40.734375 -12.035156 41.394531 -12.3125 42.125 -12.3125 C 42.9375 -12.3125 43.613281 -12.035156 44.15625 -11.484375 C 44.707031 -10.941406 44.984375 -10.265625 44.984375 -9.453125 C 44.984375 -8.722656 44.707031 -8.0625 44.15625 -7.46875 C 43.613281 -6.882812 42.9375 -6.59375 42.125 -6.59375 Z M 32.890625 -4.625 C 32.160156 -4.625 31.5 -4.914062 30.90625 -5.5 C 30.320312 -6.082031 30.03125 -6.742188 30.03125 -7.484375 C 30.03125 -8.285156 30.320312 -8.960938 30.90625 -9.515625 C 31.5 -10.066406 32.160156 -10.34375 32.890625 -10.34375 C 33.691406 -10.34375 34.367188 -10.066406 34.921875 -9.515625 C 35.472656 -8.960938 35.75 -8.285156 35.75 -7.484375 C 35.75 -6.742188 35.472656 -6.082031 34.921875 -5.5 C 34.367188 -4.914062 33.691406 -4.625 32.890625 -4.625 Z M 32.890625 -4.625 "/>
</symbol>
<symbol overflow="visible" id="bengali-half-ka:id0:glyph0-3">
<path style="stroke:none;" d="M 9.34375 26.734375 C 6.195312 23.429688 2.585938 20.585938 -1.484375 18.203125 C -5.554688 15.816406 -9.9375 14.113281 -14.625 13.09375 L -12.4375 5.828125 C -7.300781 7.441406 -2.644531 9.675781 1.53125 12.53125 C 5.71875 15.394531 9.390625 18.988281 12.546875 23.3125 Z M 9.34375 26.734375 "/>
</symbol>
<symbol overflow="visible" id="bengali-half-ka:id0:glyph0-4">
<path style="stroke:none;" d="M 48.515625 1.4375 L 43.34375 -2.640625 C 39.457031 -9.242188 34.578125 -14.335938 28.703125 -17.921875 C 22.835938 -21.515625 16.238281 -23.789062 8.90625 -24.75 L 4.40625 -37.1875 C 6.382812 -38.5 8.328125 -39.6875 10.234375 -40.75 C 12.140625 -41.8125 14.007812 -42.820312 15.84375 -43.78125 C 12.46875 -44.800781 9.734375 -46.359375 7.640625 -48.453125 C 5.554688 -50.546875 4.515625 -53.128906 4.515625 -56.203125 C 4.515625 -57.523438 4.710938 -58.71875 5.109375 -59.78125 C 5.515625 -60.84375 6.046875 -61.816406 6.703125 -62.703125 L 0.546875 -62.703125 L -3.1875 -68.421875 L 57.3125 -68.421875 L 61.046875 -62.703125 L 49.0625 -62.703125 L 49.0625 1.3125 Z M 37.0625 -43.34375 C 33.320312 -41.65625 29.65625 -39.945312 26.0625 -38.21875 C 22.476562 -36.5 18.890625 -34.46875 15.296875 -32.125 C 19.984375 -30.289062 24.015625 -28.398438 27.390625 -26.453125 C 30.765625 -24.515625 33.71875 -22.296875 36.25 -19.796875 C 38.78125 -17.304688 41.070312 -14.335938 43.125 -10.890625 L 43.125 -62.703125 L 19.578125 -62.703125 C 17.960938 -61.960938 16.625 -60.96875 15.5625 -59.71875 C 14.5 -58.476562 13.96875 -56.832031 13.96875 -54.78125 C 13.96875 -52.945312 14.585938 -51.390625 15.828125 -50.109375 C 17.078125 -48.828125 18.878906 -48.1875 21.234375 -48.1875 C 22.773438 -48.1875 24.535156 -48.476562 26.515625 -49.0625 C 28.492188 -49.644531 30.4375 -50.523438 32.34375 -51.703125 Z M 37.0625 -43.34375 "/>
</symbol>
</g>
<g>
<symbol overflow="visible" id="bengali-half-ka:id1:glyph0-0">
<path style="stroke:none;" d="M 5.375 -96.6875 L 69.828125 -96.6875 L 69.828125 0 L 5.375 0 Z M 8.0625 -2.6875 L 67.140625 -2.6875 L 67.140625 -94 L 8.0625 -94 Z M 8.0625 -2.6875 "/>
</symbol>
<symbol overflow="visible" id="bengali-half-ka:id1:glyph0-1">
<path style="stroke:none;" d="M 68.15625 -13.75 L 66.28125 -18.640625 L 88.09375 -27.390625 L 6.984375 -27.390625 L 6.984375 -34 L 88.09375 -34 L 66.28125 -42.75 L 68.15625 -47.640625 L 99.09375 -34.265625 L 99.09375 -27.125 Z M 68.15625 -13.75 "/>
</symbol>
</g>
<g>
<symbol overflow="visible" id="bengali-half-ka:id2:glyph0-0">
<path style="stroke:none;" d="M 10.34375 0 L 10.34375 -78.546875 L 55.546875 -78.546875 L 55.546875 0 Z M 15.953125 -5.609375 L 49.9375 -5.609375 L 49.9375 -72.9375 L 15.953125 -72.9375 Z M 15.953125 -5.609375 "/>
</symbol>
<symbol overflow="visible" id="bengali-half-ka:id2:glyph0-1">
<path style="stroke:none;" d="M 39.9375 -17.8125 L 34.984375 -21.015625 C 31.898438 -25.484375 27.972656 -28.984375 23.203125 -31.515625 C 18.441406 -34.046875 13.09375 -35.675781 7.15625 -36.40625 L 3.078125 -47.078125 C 8.140625 -50.015625 13.195312 -52.5625 18.25 -54.71875 C 23.3125 -56.882812 28.742188 -58.773438 34.546875 -60.390625 L 34.546875 -62.703125 L 0.546875 -62.703125 L -3.1875 -68.421875 L 65.78125 -68.421875 L 69.515625 -62.703125 L 40.484375 -62.703125 L 40.484375 -60.390625 C 44.878906 -59.953125 48.691406 -58.816406 51.921875 -56.984375 C 55.148438 -55.148438 57.644531 -52.859375 59.40625 -50.109375 C 61.164062 -47.359375 62.046875 -44.40625 62.046875 -41.25 C 62.046875 -37.945312 61.289062 -35.304688 59.78125 -33.328125 C 58.28125 -31.347656 56.132812 -30.359375 53.34375 -30.359375 C 50.851562 -30.359375 49.019531 -31.015625 47.84375 -32.328125 C 46.675781 -33.648438 46.09375 -35.15625 46.09375 -36.84375 C 46.09375 -38.601562 46.640625 -40.050781 47.734375 -41.1875 C 48.835938 -42.332031 50.378906 -42.90625 52.359375 -42.90625 C 54.921875 -42.90625 56.753906 -41.800781 57.859375 -39.59375 C 57.929688 -39.894531 57.96875 -40.265625 57.96875 -40.703125 C 57.96875 -43.484375 56.425781 -45.972656 53.34375 -48.171875 C 50.269531 -50.378906 45.984375 -51.445312 40.484375 -51.375 L 40.484375 -17.9375 Z M 14.734375 -42.453125 C 18.253906 -41.359375 21.753906 -39.707031 25.234375 -37.5 C 28.722656 -35.300781 31.828125 -32.113281 34.546875 -27.9375 L 34.546875 -50.8125 C 31.171875 -49.863281 27.757812 -48.65625 24.3125 -47.1875 C 20.863281 -45.71875 17.671875 -44.140625 14.734375 -42.453125 Z M 14.734375 -42.453125 "/>
</symbol>
<symbol overflow="visible" id="bengali-half-ka:id2:glyph0-2">
<path style="stroke:none;" d="M 48.515625 1.4375 L 43.34375 -2.640625 C 39.457031 -9.242188 34.578125 -14.335938 28.703125 -17.921875 C 22.835938 -21.515625 16.238281 -23.789062 8.90625 -24.75 L 4.40625 -37.1875 C 6.382812 -38.5 8.328125 -39.6875 10.234375 -40.75 C 12.140625 -41.8125 14.007812 -42.820312 15.84375 -43.78125 C 12.46875 -44.800781 9.734375 -46.359375 7.640625 -48.453125 C 5.554688 -50.546875 4.515625 -53.128906 4.515625 -56.203125 C 4.515625 -57.523438 4.710938 -58.71875 5.109375 -59.78125 C 5.515625 -60.84375 6.046875 -61.816406 6.703125 -62.703125 L 0.546875 -62.703125 L -3.1875 -68.421875 L 57.3125 -68.421875 L 61.046875 -62.703125 L 49.0625 -62.703125 L 49.0625 1.3125 Z M 37.0625 -43.34375 C 33.320312 -41.65625 29.65625 -39.945312 26.0625 -38.21875 C 22.476562 -36.5 18.890625 -34.46875 15.296875 -32.125 C 19.984375 -30.289062 24.015625 -28.398438 27.390625 -26.453125 C 30.765625 -24.515625 33.71875 -22.296875 36.25 -19.796875 C 38.78125 -17.304688 41.070312 -14.335938 43.125 -10.890625 L 43.125 -62.703125 L 19.578125 -62.703125 C 17.960938 -61.960938 16.625 -60.96875 15.5625 -59.71875 C 14.5 -58.476562 13.96875 -56.832031 13.96875 -54.78125 C 13.96875 -52.945312 14.585938 -51.390625 15.828125 -50.109375 C 17.078125 -48.828125 18.878906 -48.1875 21.234375 -48.1875 C 22.773438 -48.1875 24.535156 -48.476562 26.515625 -49.0625 C 28.492188 -49.644531 30.4375 -50.523438 32.34375 -51.703125 Z M 37.0625 -43.34375 "/>
</symbol>
</g>
<filter id="bengali-half-ka:local-greyscale"> <feColorMatrix type="saturate" values="0.0" color-interpolation-filters="sRGB"/> <feComponentTransfer> <feFuncR type="gamma" exponent="4.0" amplitude="1.0" offset="0"/> <feFuncG type="gamma" exponent="4.0" amplitude="1.0" offset="0"/> <feFuncB type="gamma" exponent="4.0" amplitude="1.0" offset="0"/> </feComponentTransfer> </filter></defs>
  <g id="bengali-half-ka:id0:id0" transform="matrix(1.25,0,0,1.25,0.0,0.0)"><g id="bengali-half-ka:id0:surface1">
<g style="fill:rgb(0%,0%,0%);fill-opacity:1;">
  <use xlink:href="#bengali-half-ka:id0:glyph0-1" x="16" y="122.125" class="c0"/>
  <use xlink:href="#bengali-half-ka:id0:glyph0-2" x="93.328125" y="122.125" class="dc"/>
  <use xlink:href="#bengali-half-ka:id0:glyph0-3" x="134.46875" y="122.125" class="c1"/>
  <use xlink:href="#bengali-half-ka:id0:glyph0-4" x="159.109375" y="122.125" class="c2"/>
</g>
</g>
</g>
  <g id="bengali-half-ka:id1:id1" transform="matrix(1.25,0,0,1.25,291.2109375,11.38671875)"><g id="bengali-half-ka:id1:surface1">
<g style="fill:rgb(0%,0%,0%);fill-opacity:1;">
  <use xlink:href="#bengali-half-ka:id1:glyph0-1" x="0" y="120.84375" class="arrow"/>
</g>
</g>
</g>
  <g id="bengali-half-ka:id2:id2" transform="matrix(1.25,0,0,1.25,423.80859375,0.0)"><g id="bengali-half-ka:id2:surface1">
<g style="fill:rgb(0%,0%,0%);fill-opacity:1;">
  <use xlink:href="#bengali-half-ka:id2:glyph0-1" x="16" y="122.125" class="c0"/>
  <use xlink:href="#bengali-half-ka:id2:glyph0-2" x="82.328125" y="122.125" class="c2"/>
</g>
</g>
</g>
</svg>
