<!DOCTYPE svg PUBLIC "-//W3C//DTD SVG 1.1//EN" "http://www.w3.org/Graphics/SVG/1.1/DTD/svg11.dtd">
<!-- Created with svg_stack (http://github.com/astraw/svg_stack) --><svg xmlns="http://www.w3.org/2000/svg" xmlns:sodipodi="http://sodipodi.sourceforge.net/DTD/sodipodi-0.dtd" xmlns:xlink="http://www.w3.org/1999/xlink" version="1.1" width="359.16015625" height="224.1796875" id="bengali-haln" filter="url(#bengali-haln:local-greyscale)">
  <defs><g>
<symbol overflow="visible" id="bengali-haln:id0:glyph0-0">
<path style="stroke:none;" d="M 10.34375 0 L 10.34375 -78.546875 L 55.546875 -78.546875 L 55.546875 0 Z M 15.953125 -5.609375 L 49.9375 -5.609375 L 49.9375 -72.9375 L 15.953125 -72.9375 Z M 15.953125 -5.609375 "/>
</symbol>
<symbol overflow="visible" id="bengali-haln:id0:glyph0-1">
<path style="stroke:none;" d="M 57.203125 9.234375 C 53.316406 5.867188 49.6875 2.972656 46.3125 0.546875 C 42.9375 -1.867188 39.539062 -3.921875 36.125 -5.609375 C 32.71875 -7.296875 29.125 -8.6875 25.34375 -9.78125 C 21.570312 -10.882812 17.378906 -11.804688 12.765625 -12.546875 L 10.5625 -23.3125 C 13.5625 -22.363281 16.457031 -21.6875 19.25 -21.28125 C 22.039062 -20.882812 24.898438 -20.6875 27.828125 -20.6875 C 32.742188 -20.6875 36.554688 -21.4375 39.265625 -22.9375 C 41.984375 -24.4375 43.890625 -26.34375 44.984375 -28.65625 C 46.085938 -30.96875 46.640625 -33.296875 46.640625 -35.640625 C 46.640625 -39.234375 45.757812 -41.984375 44 -43.890625 C 42.238281 -45.796875 40.296875 -47.078125 38.171875 -47.734375 C 37.066406 -42.453125 35.578125 -38.289062 33.703125 -35.25 C 31.835938 -32.207031 29.675781 -30.046875 27.21875 -28.765625 C 24.769531 -27.484375 22.148438 -26.84375 19.359375 -26.84375 C 16.941406 -26.84375 14.832031 -27.425781 13.03125 -28.59375 C 11.238281 -29.769531 9.828125 -31.253906 8.796875 -33.046875 C 7.773438 -34.847656 7.265625 -36.738281 7.265625 -38.71875 L 7.265625 -62.703125 L 0.546875 -62.703125 L -3.1875 -68.421875 L 58.078125 -68.421875 L 61.8125 -62.703125 L 13.203125 -62.703125 L 13.203125 -61.8125 C 15.472656 -58.957031 18.09375 -57.015625 21.0625 -55.984375 C 24.03125 -54.960938 28.046875 -54.453125 33.109375 -54.453125 C 36.773438 -54.453125 40.109375 -53.570312 43.109375 -51.8125 C 46.117188 -50.050781 48.503906 -47.648438 50.265625 -44.609375 C 52.023438 -41.566406 52.90625 -38.097656 52.90625 -34.203125 C 52.90625 -27.898438 51.273438 -22.914062 48.015625 -19.25 C 44.753906 -15.582031 40.8125 -13.347656 36.1875 -12.546875 C 40.738281 -10.410156 45.066406 -7.675781 49.171875 -4.34375 C 53.273438 -1.007812 57.085938 2.304688 60.609375 5.609375 Z M 13.203125 -38.71875 C 13.203125 -37.394531 13.585938 -36.273438 14.359375 -35.359375 C 15.128906 -34.441406 16.320312 -33.984375 17.9375 -33.984375 C 20.425781 -33.984375 22.53125 -35.101562 24.25 -37.34375 C 25.976562 -39.582031 27.207031 -42.679688 27.9375 -46.640625 C 24.9375 -47.296875 22.132812 -48.46875 19.53125 -50.15625 C 16.925781 -51.84375 14.816406 -53.859375 13.203125 -56.203125 Z M 29.265625 10.765625 C 27.359375 10.765625 25.707031 10.140625 24.3125 8.890625 C 22.914062 7.648438 22.21875 6.039062 22.21875 4.0625 C 22.21875 2.007812 22.894531 0.363281 24.25 -0.875 C 25.613281 -2.125 27.285156 -2.75 29.265625 -2.75 C 31.171875 -2.75 32.78125 -2.125 34.09375 -0.875 C 35.414062 0.363281 36.078125 2.007812 36.078125 4.0625 C 36.078125 6.113281 35.398438 7.742188 34.046875 8.953125 C 32.691406 10.160156 31.097656 10.765625 29.265625 10.765625 Z M 29.265625 10.765625 "/>
</symbol>
<symbol overflow="visible" id="bengali-haln:id0:glyph0-2">
<path style="stroke:none;" d="M 9.34375 26.734375 C 6.195312 23.429688 2.585938 20.585938 -1.484375 18.203125 C -5.554688 15.816406 -9.9375 14.113281 -14.625 13.09375 L -12.4375 5.828125 C -7.300781 7.441406 -2.644531 9.675781 1.53125 12.53125 C 5.71875 15.394531 9.390625 18.988281 12.546875 23.3125 Z M 9.34375 26.734375 "/>
</symbol>
</g>
<g>
<symbol overflow="visible" id="bengali-haln:id1:glyph0-0">
<path style="stroke:none;" d="M 5.375 -96.6875 L 69.828125 -96.6875 L 69.828125 0 L 5.375 0 Z M 8.0625 -2.6875 L 67.140625 -2.6875 L 67.140625 -94 L 8.0625 -94 Z M 8.0625 -2.6875 "/>
</symbol>
<symbol overflow="visible" id="bengali-haln:id1:glyph0-1">
<path style="stroke:none;" d="M 68.15625 -13.75 L 66.28125 -18.640625 L 88.09375 -27.390625 L 6.984375 -27.390625 L 6.984375 -34 L 88.09375 -34 L 66.28125 -42.75 L 68.15625 -47.640625 L 99.09375 -34.265625 L 99.09375 -27.125 Z M 68.15625 -13.75 "/>
</symbol>
</g>
<g>
<symbol overflow="visible" id="bengali-haln:id2:glyph0-0">
<path style="stroke:none;" d="M 10.34375 0 L 10.34375 -78.546875 L 55.546875 -78.546875 L 55.546875 0 Z M 15.953125 -5.609375 L 49.9375 -5.609375 L 49.9375 -72.9375 L 15.953125 -72.9375 Z M 15.953125 -5.609375 "/>
</symbol>
<symbol overflow="visible" id="bengali-haln:id2:glyph0-1">
<path style="stroke:none;" d="M 57.203125 9.234375 C 53.316406 5.867188 49.6875 2.972656 46.3125 0.546875 C 42.9375 -1.867188 39.539062 -3.921875 36.125 -5.609375 C 32.71875 -7.296875 29.125 -8.6875 25.34375 -9.78125 C 21.570312 -10.882812 17.378906 -11.804688 12.765625 -12.546875 L 10.5625 -23.3125 C 13.5625 -22.363281 16.457031 -21.6875 19.25 -21.28125 C 22.039062 -20.882812 24.898438 -20.6875 27.828125 -20.6875 C 32.742188 -20.6875 36.554688 -21.4375 39.265625 -22.9375 C 41.984375 -24.4375 43.890625 -26.34375 44.984375 -28.65625 C 46.085938 -30.96875 46.640625 -33.296875 46.640625 -35.640625 C 46.640625 -39.234375 45.757812 -41.984375 44 -43.890625 C 42.238281 -45.796875 40.296875 -47.078125 38.171875 -47.734375 C 37.066406 -42.453125 35.578125 -38.289062 33.703125 -35.25 C 31.835938 -32.207031 29.675781 -30.046875 27.21875 -28.765625 C 24.769531 -27.484375 22.148438 -26.84375 19.359375 -26.84375 C 16.941406 -26.84375 14.832031 -27.425781 13.03125 -28.59375 C 11.238281 -29.769531 9.828125 -31.253906 8.796875 -33.046875 C 7.773438 -34.847656 7.265625 -36.738281 7.265625 -38.71875 L 7.265625 -62.703125 L 0.546875 -62.703125 L -3.1875 -68.421875 L 58.078125 -68.421875 L 61.8125 -62.703125 L 13.203125 -62.703125 L 13.203125 -61.8125 C 15.472656 -58.957031 18.09375 -57.015625 21.0625 -55.984375 C 24.03125 -54.960938 28.046875 -54.453125 33.109375 -54.453125 C 36.773438 -54.453125 40.109375 -53.570312 43.109375 -51.8125 C 46.117188 -50.050781 48.503906 -47.648438 50.265625 -44.609375 C 52.023438 -41.566406 52.90625 -38.097656 52.90625 -34.203125 C 52.90625 -27.898438 51.273438 -22.914062 48.015625 -19.25 C 44.753906 -15.582031 40.8125 -13.347656 36.1875 -12.546875 C 40.738281 -10.410156 45.066406 -7.675781 49.171875 -4.34375 C 53.273438 -1.007812 57.085938 2.304688 60.609375 5.609375 Z M 13.203125 -38.71875 C 13.203125 -37.394531 13.585938 -36.273438 14.359375 -35.359375 C 15.128906 -34.441406 16.320312 -33.984375 17.9375 -33.984375 C 20.425781 -33.984375 22.53125 -35.101562 24.25 -37.34375 C 25.976562 -39.582031 27.207031 -42.679688 27.9375 -46.640625 C 24.9375 -47.296875 22.132812 -48.46875 19.53125 -50.15625 C 16.925781 -51.84375 14.816406 -53.859375 13.203125 -56.203125 Z M 64.125 22.328125 C 62.21875 22.328125 60.566406 21.703125 59.171875 20.453125 C 57.773438 19.210938 57.078125 17.601562 57.078125 15.625 C 57.078125 13.570312 57.753906 11.921875 59.109375 10.671875 C 60.472656 9.429688 62.144531 8.8125 64.125 8.8125 C 66.03125 8.8125 67.640625 9.429688 68.953125 10.671875 C 70.273438 11.921875 70.9375 13.570312 70.9375 15.625 C 70.9375 17.675781 70.257812 19.304688 68.90625 20.515625 C 67.550781 21.722656 65.957031 22.328125 64.125 22.328125 Z M 51.03125 21.125 C 47.882812 17.820312 44.273438 14.976562 40.203125 12.59375 C 36.128906 10.207031 31.75 8.503906 27.0625 7.484375 L 29.25 0.21875 C 34.382812 1.832031 39.039062 4.066406 43.21875 6.921875 C 47.40625 9.785156 51.078125 13.378906 54.234375 17.703125 Z M 51.03125 21.125 "/>
</symbol>
</g>
<filter id="bengali-haln:local-greyscale"> <feColorMatrix type="saturate" values="0.0" color-interpolation-filters="sRGB"/> <feComponentTransfer> <feFuncR type="gamma" exponent="4.0" amplitude="1.0" offset="0"/> <feFuncG type="gamma" exponent="4.0" amplitude="1.0" offset="0"/> <feFuncB type="gamma" exponent="4.0" amplitude="1.0" offset="0"/> </feComponentTransfer> </filter></defs>
  <g id="bengali-haln:id0:id0" transform="matrix(1.25,0,0,1.25,0.0,0.0)"><g id="bengali-haln:id0:surface1">
<g style="fill:rgb(0%,0%,0%);fill-opacity:1;">
  <use xlink:href="#bengali-haln:id0:glyph0-1" x="16" y="122.125"/>
  <use xlink:href="#bengali-haln:id0:glyph0-2" x="53.84375" y="116.84375"/>
</g>
</g>
</g>
  <g id="bengali-haln:id1:id1" transform="matrix(1.25,0,0,1.25,113.28125,11.38671875)"><g id="bengali-haln:id1:surface1">
<g style="fill:rgb(0%,0%,0%);fill-opacity:1;">
  <use xlink:href="#bengali-haln:id1:glyph0-1" x="0" y="120.84375"/>
</g>
</g>
</g>
  <g id="bengali-haln:id2:id2" transform="matrix(1.25,0,0,1.25,245.87890625,0.0)"><g id="bengali-haln:id2:surface1">
<g style="fill:rgb(0%,0%,0%);fill-opacity:1;">
  <use xlink:href="#bengali-haln:id2:glyph0-1" x="16" y="122.125"/>
</g>
</g>
</g>
</svg>