<!DOCTYPE svg PUBLIC "-//W3C//DTD SVG 1.1//EN" "http://www.w3.org/Graphics/SVG/1.1/DTD/svg11.dtd">
<!-- Created with svg_stack (http://github.com/astraw/svg_stack) --><svg xmlns="http://www.w3.org/2000/svg" xmlns:sodipodi="http://sodipodi.sourceforge.net/DTD/sodipodi-0.dtd" xmlns:xlink="http://www.w3.org/1999/xlink" version="1.1" width="488.73046875" height="224.1796875" id="bengali-init" filter="url(#bengali-init:local-greyscale)">
  <defs><g>
<symbol overflow="visible" id="bengali-init:id0:glyph0-0">
<path style="stroke:none;" d="M 10.34375 0 L 10.34375 -78.546875 L 55.546875 -78.546875 L 55.546875 0 Z M 15.953125 -5.609375 L 49.9375 -5.609375 L 49.9375 -72.9375 L 15.953125 -72.9375 Z M 15.953125 -5.609375 "/>
</symbol>
<symbol overflow="visible" id="bengali-init:id0:glyph0-1">
<path style="stroke:none;" d="M 30.46875 1.546875 C 26.363281 1.546875 22.515625 0.15625 18.921875 -2.625 C 15.328125 -5.414062 12.445312 -9.304688 10.28125 -14.296875 C 8.125 -19.285156 7.046875 -25.039062 7.046875 -31.5625 C 7.046875 -38.75 8.269531 -44.984375 10.71875 -50.265625 C 13.175781 -55.546875 16.128906 -59.691406 19.578125 -62.703125 L 0.546875 -62.703125 L -3.1875 -68.421875 L 42.234375 -68.421875 L 45.984375 -62.703125 L 39.703125 -62.703125 C 36.191406 -62.703125 32.894531 -61.710938 29.8125 -59.734375 C 26.726562 -57.753906 24.015625 -55.128906 21.671875 -51.859375 C 19.328125 -48.597656 17.472656 -44.96875 16.109375 -40.96875 C 14.753906 -36.976562 14.078125 -32.96875 14.078125 -28.9375 C 14.078125 -23.875 14.898438 -19.140625 16.546875 -14.734375 C 18.203125 -10.335938 21.007812 -6.96875 24.96875 -4.625 C 24.238281 -6.007812 23.875 -7.582031 23.875 -9.34375 C 23.875 -11.550781 24.625 -13.3125 26.125 -14.625 C 27.625 -15.945312 29.476562 -16.609375 31.6875 -16.609375 C 34.46875 -16.609375 36.59375 -15.726562 38.0625 -13.96875 C 39.53125 -12.207031 40.265625 -10.15625 40.265625 -7.8125 C 40.265625 -4.945312 39.421875 -2.671875 37.734375 -0.984375 C 36.046875 0.703125 33.625 1.546875 30.46875 1.546875 Z M 30.46875 1.546875 "/>
</symbol>
<symbol overflow="visible" id="bengali-init:id0:glyph0-2">
<path style="stroke:none;" d="M 39.9375 -3.953125 C 31.0625 -3.953125 23.414062 -7.929688 17 -15.890625 C 10.582031 -23.847656 5.28125 -36.148438 1.09375 -52.796875 L 5.5 -54.125 C 8.4375 -44.8125 11.515625 -37.179688 14.734375 -31.234375 C 17.960938 -25.296875 21.613281 -20.914062 25.6875 -18.09375 C 29.757812 -15.269531 34.507812 -13.859375 39.9375 -13.859375 C 45.351562 -13.859375 49.546875 -15.414062 52.515625 -18.53125 C 55.492188 -21.644531 56.984375 -25.550781 56.984375 -30.25 C 56.984375 -32.664062 56.578125 -34.789062 55.765625 -36.625 C 52.910156 -33.695312 49.847656 -31.222656 46.578125 -29.203125 C 43.316406 -27.191406 40.257812 -26.1875 37.40625 -26.1875 C 35.71875 -26.1875 34.15625 -26.457031 32.71875 -27 C 31.289062 -27.550781 30.066406 -28.304688 29.046875 -29.265625 C 27.867188 -30.359375 26.929688 -31.640625 26.234375 -33.109375 C 25.535156 -34.578125 25.1875 -36.226562 25.1875 -38.0625 L 25.1875 -48.84375 C 22.1875 -50.601562 19.617188 -52.984375 17.484375 -55.984375 C 15.359375 -58.992188 13.453125 -62.40625 11.765625 -66.21875 L 16.0625 -68.421875 C 17.457031 -65.410156 18.847656 -62.804688 20.234375 -60.609375 C 21.628906 -58.410156 23.316406 -56.648438 25.296875 -55.328125 C 25.515625 -59.804688 26.742188 -63.289062 28.984375 -65.78125 C 31.222656 -68.269531 34.429688 -69.515625 38.609375 -69.515625 C 42.640625 -69.515625 45.753906 -68.359375 47.953125 -66.046875 C 50.160156 -63.742188 51.226562 -60.867188 51.15625 -57.421875 C 51.15625 -55.734375 50.769531 -53.988281 50 -52.1875 C 49.226562 -50.394531 47.796875 -48.894531 45.703125 -47.6875 C 43.609375 -46.476562 40.582031 -45.875 36.625 -45.875 C 34.789062 -45.875 33.03125 -46.054688 31.34375 -46.421875 L 31.34375 -38.0625 C 31.34375 -36.007812 32.296875 -34.984375 34.203125 -34.984375 C 36.554688 -34.984375 38.90625 -35.675781 41.25 -37.0625 C 43.59375 -38.457031 45.882812 -40.21875 48.125 -42.34375 C 50.363281 -44.476562 52.472656 -46.679688 54.453125 -48.953125 C 57.085938 -46.160156 59.117188 -42.984375 60.546875 -39.421875 C 61.984375 -35.867188 62.703125 -31.96875 62.703125 -27.71875 C 62.703125 -23.320312 61.820312 -19.328125 60.0625 -15.734375 C 58.300781 -12.140625 55.734375 -9.273438 52.359375 -7.140625 C 48.984375 -5.015625 44.84375 -3.953125 39.9375 -3.953125 Z M 39.046875 -63.796875 C 36.773438 -63.796875 34.976562 -62.953125 33.65625 -61.265625 C 32.34375 -59.578125 31.570312 -56.789062 31.34375 -52.90625 C 33.03125 -52.539062 34.898438 -52.359375 36.953125 -52.359375 C 40.472656 -52.359375 42.765625 -53.015625 43.828125 -54.328125 C 44.898438 -55.648438 45.4375 -57.082031 45.4375 -58.625 C 45.4375 -60.238281 44.847656 -61.503906 43.671875 -62.421875 C 42.492188 -63.335938 40.953125 -63.796875 39.046875 -63.796875 Z M 39.046875 -63.796875 "/>
</symbol>
</g>
<g>
<symbol overflow="visible" id="bengali-init:id1:glyph0-0">
<path style="stroke:none;" d="M 5.375 -96.6875 L 69.828125 -96.6875 L 69.828125 0 L 5.375 0 Z M 8.0625 -2.6875 L 67.140625 -2.6875 L 67.140625 -94 L 8.0625 -94 Z M 8.0625 -2.6875 "/>
</symbol>
<symbol overflow="visible" id="bengali-init:id1:glyph0-1">
<path style="stroke:none;" d="M 68.15625 -13.75 L 66.28125 -18.640625 L 88.09375 -27.390625 L 6.984375 -27.390625 L 6.984375 -34 L 88.09375 -34 L 66.28125 -42.75 L 68.15625 -47.640625 L 99.09375 -34.265625 L 99.09375 -27.125 Z M 68.15625 -13.75 "/>
</symbol>
</g>
<g>
<symbol overflow="visible" id="bengali-init:id2:glyph0-0">
<path style="stroke:none;" d="M 10.34375 0 L 10.34375 -78.546875 L 55.546875 -78.546875 L 55.546875 0 Z M 15.953125 -5.609375 L 49.9375 -5.609375 L 49.9375 -72.9375 L 15.953125 -72.9375 Z M 15.953125 -5.609375 "/>
</symbol>
<symbol overflow="visible" id="bengali-init:id2:glyph0-1">
<path style="stroke:none;" d="M 30.46875 1.546875 C 26.363281 1.546875 22.53125 0.207031 18.96875 -2.46875 C 15.414062 -5.144531 12.539062 -9.085938 10.34375 -14.296875 C 8.144531 -19.503906 7.046875 -25.8125 7.046875 -33.21875 C 7.046875 -37.613281 7.664062 -41.921875 8.90625 -46.140625 C 10.15625 -50.359375 12.007812 -54.132812 14.46875 -57.46875 C 16.925781 -60.8125 19.929688 -63.472656 23.484375 -65.453125 C 27.035156 -67.429688 31.085938 -68.421875 35.640625 -68.421875 L 42.234375 -68.421875 L 45.984375 -62.703125 L 40.703125 -62.703125 C 37.035156 -62.703125 33.585938 -61.820312 30.359375 -60.0625 C 27.128906 -58.300781 24.304688 -55.859375 21.890625 -52.734375 C 19.472656 -49.617188 17.566406 -46.023438 16.171875 -41.953125 C 14.773438 -37.890625 14.078125 -33.550781 14.078125 -28.9375 C 14.078125 -23.875 14.898438 -19.140625 16.546875 -14.734375 C 18.203125 -10.335938 21.007812 -6.96875 24.96875 -4.625 C 24.238281 -6.007812 23.875 -7.582031 23.875 -9.34375 C 23.875 -11.550781 24.625 -13.3125 26.125 -14.625 C 27.625 -15.945312 29.476562 -16.609375 31.6875 -16.609375 C 34.46875 -16.609375 36.59375 -15.726562 38.0625 -13.96875 C 39.53125 -12.207031 40.265625 -10.15625 40.265625 -7.8125 C 40.265625 -4.945312 39.421875 -2.671875 37.734375 -0.984375 C 36.046875 0.703125 33.625 1.546875 30.46875 1.546875 Z M 30.46875 1.546875 "/>
</symbol>
<symbol overflow="visible" id="bengali-init:id2:glyph0-2">
<path style="stroke:none;" d="M 39.9375 -3.953125 C 31.0625 -3.953125 23.414062 -7.929688 17 -15.890625 C 10.582031 -23.847656 5.28125 -36.148438 1.09375 -52.796875 L 5.5 -54.125 C 8.4375 -44.8125 11.515625 -37.179688 14.734375 -31.234375 C 17.960938 -25.296875 21.613281 -20.914062 25.6875 -18.09375 C 29.757812 -15.269531 34.507812 -13.859375 39.9375 -13.859375 C 45.351562 -13.859375 49.546875 -15.414062 52.515625 -18.53125 C 55.492188 -21.644531 56.984375 -25.550781 56.984375 -30.25 C 56.984375 -32.664062 56.578125 -34.789062 55.765625 -36.625 C 52.910156 -33.695312 49.847656 -31.222656 46.578125 -29.203125 C 43.316406 -27.191406 40.257812 -26.1875 37.40625 -26.1875 C 35.71875 -26.1875 34.15625 -26.457031 32.71875 -27 C 31.289062 -27.550781 30.066406 -28.304688 29.046875 -29.265625 C 27.867188 -30.359375 26.929688 -31.640625 26.234375 -33.109375 C 25.535156 -34.578125 25.1875 -36.226562 25.1875 -38.0625 L 25.1875 -48.84375 C 22.1875 -50.601562 19.617188 -52.984375 17.484375 -55.984375 C 15.359375 -58.992188 13.453125 -62.40625 11.765625 -66.21875 L 16.0625 -68.421875 C 17.457031 -65.410156 18.847656 -62.804688 20.234375 -60.609375 C 21.628906 -58.410156 23.316406 -56.648438 25.296875 -55.328125 C 25.515625 -59.804688 26.742188 -63.289062 28.984375 -65.78125 C 31.222656 -68.269531 34.429688 -69.515625 38.609375 -69.515625 C 42.640625 -69.515625 45.753906 -68.359375 47.953125 -66.046875 C 50.160156 -63.742188 51.226562 -60.867188 51.15625 -57.421875 C 51.15625 -55.734375 50.769531 -53.988281 50 -52.1875 C 49.226562 -50.394531 47.796875 -48.894531 45.703125 -47.6875 C 43.609375 -46.476562 40.582031 -45.875 36.625 -45.875 C 34.789062 -45.875 33.03125 -46.054688 31.34375 -46.421875 L 31.34375 -38.0625 C 31.34375 -36.007812 32.296875 -34.984375 34.203125 -34.984375 C 36.554688 -34.984375 38.90625 -35.675781 41.25 -37.0625 C 43.59375 -38.457031 45.882812 -40.21875 48.125 -42.34375 C 50.363281 -44.476562 52.472656 -46.679688 54.453125 -48.953125 C 57.085938 -46.160156 59.117188 -42.984375 60.546875 -39.421875 C 61.984375 -35.867188 62.703125 -31.96875 62.703125 -27.71875 C 62.703125 -23.320312 61.820312 -19.328125 60.0625 -15.734375 C 58.300781 -12.140625 55.734375 -9.273438 52.359375 -7.140625 C 48.984375 -5.015625 44.84375 -3.953125 39.9375 -3.953125 Z M 39.046875 -63.796875 C 36.773438 -63.796875 34.976562 -62.953125 33.65625 -61.265625 C 32.34375 -59.578125 31.570312 -56.789062 31.34375 -52.90625 C 33.03125 -52.539062 34.898438 -52.359375 36.953125 -52.359375 C 40.472656 -52.359375 42.765625 -53.015625 43.828125 -54.328125 C 44.898438 -55.648438 45.4375 -57.082031 45.4375 -58.625 C 45.4375 -60.238281 44.847656 -61.503906 43.671875 -62.421875 C 42.492188 -63.335938 40.953125 -63.796875 39.046875 -63.796875 Z M 39.046875 -63.796875 "/>
</symbol>
</g>
<filter id="bengali-init:local-greyscale"> <feColorMatrix type="saturate" values="0.0" color-interpolation-filters="sRGB"/> <feComponentTransfer> <feFuncR type="gamma" exponent="4.0" amplitude="1.0" offset="0"/> <feFuncG type="gamma" exponent="4.0" amplitude="1.0" offset="0"/> <feFuncB type="gamma" exponent="4.0" amplitude="1.0" offset="0"/> </feComponentTransfer> </filter></defs>
  <g id="bengali-init:id0:id0" transform="matrix(1.25,0,0,1.25,0.0,0.0)"><g id="bengali-init:id0:surface1">
<g style="fill:rgb(0%,0%,0%);fill-opacity:1;">
  <use xlink:href="#bengali-init:id0:glyph0-1" x="16" y="122.125" class="c0"/>
  <use xlink:href="#bengali-init:id0:glyph0-2" x="58.796875" y="122.125" class="c1"/>
</g>
</g>
</g>
  <g id="bengali-init:id1:id1" transform="matrix(1.25,0,0,1.25,178.06640625,11.38671875)"><g id="bengali-init:id1:surface1">
<g style="fill:rgb(0%,0%,0%);fill-opacity:1;">
  <use xlink:href="#bengali-init:id1:glyph0-1" x="0" y="120.84375" class="arrow"/>
</g>
</g>
</g>
  <g id="bengali-init:id2:id2" transform="matrix(1.25,0,0,1.25,310.6640625,0.0)"><g id="bengali-init:id2:surface1">
<g style="fill:rgb(0%,0%,0%);fill-opacity:1;">
  <use xlink:href="#bengali-init:id2:glyph0-1" x="16" y="122.125" class="c2"/>
  <use xlink:href="#bengali-init:id2:glyph0-2" x="58.796875" y="122.125" class="c1"/>
</g>
</g>
</g>
</svg>
