<!DOCTYPE svg PUBLIC "-//W3C//DTD SVG 1.1//EN" "http://www.w3.org/Graphics/SVG/1.1/DTD/svg11.dtd">
<!-- Created with svg_stack (http://github.com/astraw/svg_stack) --><svg xmlns="http://www.w3.org/2000/svg" xmlns:sodipodi="http://sodipodi.sourceforge.net/DTD/sodipodi-0.dtd" xmlns:xlink="http://www.w3.org/1999/xlink" version="1.1" width="100%" id="bengali-psts" viewBox="0 0 413.359375 224.1796875">
  <defs><g>
<symbol overflow="visible" id="bengali-psts:id0:glyph0-0">
<path style="stroke:none;" d="M 10.34375 0 L 10.34375 -78.546875 L 55.546875 -78.546875 L 55.546875 0 Z M 15.953125 -5.609375 L 49.9375 -5.609375 L 49.9375 -72.9375 L 15.953125 -72.9375 Z M 15.953125 -5.609375 "/>
</symbol>
<symbol overflow="visible" id="bengali-psts:id0:glyph0-1">
<path style="stroke:none;" d="M 30.578125 -0.546875 C 23.679688 -0.546875 17.957031 -2.742188 13.40625 -7.140625 C 8.863281 -11.546875 5.75 -18.40625 4.0625 -27.71875 C 9.71875 -28.894531 14.15625 -30.617188 17.375 -32.890625 C 20.601562 -35.160156 22.894531 -37.796875 24.25 -40.796875 C 25.613281 -43.804688 26.296875 -46.925781 26.296875 -50.15625 C 26.296875 -54.5625 25.34375 -58.742188 23.4375 -62.703125 L 0.546875 -62.703125 L -3.1875 -68.421875 L 20.796875 -68.421875 C 18.804688 -70.835938 16.894531 -73.4375 15.0625 -76.21875 C 13.226562 -79.007812 12.3125 -82.054688 12.3125 -85.359375 C 12.3125 -87.703125 12.898438 -90.007812 14.078125 -92.28125 C 15.253906 -94.5625 17.53125 -96.835938 20.90625 -99.109375 L 27.609375 -92.1875 C 24.972656 -90.5 23.03125 -88.847656 21.78125 -87.234375 C 20.53125 -85.617188 19.90625 -83.785156 19.90625 -81.734375 C 19.90625 -79.453125 20.582031 -77.191406 21.9375 -74.953125 C 23.300781 -72.722656 24.972656 -70.546875 26.953125 -68.421875 L 59.734375 -68.421875 L 63.359375 -62.703125 L 33.109375 -62.703125 C 37.285156 -58.222656 40.820312 -54.003906 43.71875 -50.046875 C 46.613281 -46.085938 48.832031 -42.109375 50.375 -38.109375 C 51.914062 -34.117188 52.6875 -29.8125 52.6875 -25.1875 C 52.6875 -20.425781 51.804688 -16.171875 50.046875 -12.421875 C 48.285156 -8.679688 45.773438 -5.765625 42.515625 -3.671875 C 39.253906 -1.585938 35.273438 -0.546875 30.578125 -0.546875 Z M 29.046875 -7.375 C 33.804688 -7.375 37.488281 -9.09375 40.09375 -12.53125 C 42.695312 -15.976562 44 -20.566406 44 -26.296875 C 44 -30.398438 43.46875 -34.265625 42.40625 -37.890625 C 41.34375 -41.523438 39.671875 -45.25 37.390625 -49.0625 C 35.117188 -52.875 32.148438 -57.050781 28.484375 -61.59375 C 29.585938 -58.957031 30.5625 -56.171875 31.40625 -53.234375 C 32.25 -50.304688 32.671875 -46.972656 32.671875 -43.234375 C 32.671875 -37.953125 31.296875 -33.21875 28.546875 -29.03125 C 25.796875 -24.851562 21.15625 -21.8125 14.625 -19.90625 C 15.21875 -16.09375 16.8125 -13.050781 19.40625 -10.78125 C 22.007812 -8.507812 25.222656 -7.375 29.046875 -7.375 Z M 29.046875 -7.375 "/>
</symbol>
<symbol overflow="visible" id="bengali-psts:id0:glyph0-2">
<path style="stroke:none;" d="M 14.40625 2.75 L 8.796875 -0.328125 L 8.796875 -62.703125 L 0.4375 -62.703125 L -3.1875 -68.421875 L 8.796875 -68.421875 C 8.578125 -74.796875 6.910156 -79.78125 3.796875 -83.375 C 0.679688 -86.96875 -3.421875 -89.5 -8.515625 -90.96875 C -13.617188 -92.4375 -19.320312 -93.171875 -25.625 -93.171875 C -31.9375 -93.171875 -37.015625 -92.691406 -40.859375 -91.734375 C -44.710938 -90.785156 -46.640625 -89.285156 -46.640625 -87.234375 C -46.640625 -86.054688 -46.109375 -85.210938 -45.046875 -84.703125 C -43.984375 -84.191406 -41.875 -83.9375 -38.71875 -83.9375 C -35.707031 -83.9375 -33.03125 -84.0625 -30.6875 -84.3125 C -28.34375 -84.570312 -25.847656 -84.703125 -23.203125 -84.703125 C -19.390625 -84.703125 -16.109375 -83.65625 -13.359375 -81.5625 C -10.609375 -79.476562 -9.085938 -76.125 -8.796875 -71.5 L -8.578125 -67.984375 L -14.734375 -67.984375 C -14.734375 -72.085938 -15.359375 -74.742188 -16.609375 -75.953125 C -17.859375 -77.160156 -19.65625 -77.765625 -22 -77.765625 C -24.488281 -77.765625 -27.109375 -77.488281 -29.859375 -76.9375 C -32.609375 -76.394531 -35.597656 -76.125 -38.828125 -76.125 C -40.804688 -76.125 -42.800781 -76.429688 -44.8125 -77.046875 C -46.832031 -77.671875 -48.519531 -78.769531 -49.875 -80.34375 C -51.238281 -81.925781 -51.921875 -84.113281 -51.921875 -86.90625 C -51.921875 -91.226562 -49.609375 -94.65625 -44.984375 -97.1875 C -40.367188 -99.71875 -34.023438 -100.984375 -25.953125 -100.984375 C -17.890625 -100.984375 -10.8125 -99.753906 -4.71875 -97.296875 C 1.363281 -94.835938 6.125 -90.875 9.5625 -85.40625 C 13.007812 -79.945312 14.734375 -72.707031 14.734375 -63.6875 L 14.734375 2.640625 Z M 14.40625 2.75 "/>
</symbol>
</g>
<g>
<symbol overflow="visible" id="bengali-psts:id1:glyph0-0">
<path style="stroke:none;" d="M 5.375 -96.6875 L 69.828125 -96.6875 L 69.828125 0 L 5.375 0 Z M 8.0625 -2.6875 L 67.140625 -2.6875 L 67.140625 -94 L 8.0625 -94 Z M 8.0625 -2.6875 "/>
</symbol>
<symbol overflow="visible" id="bengali-psts:id1:glyph0-1">
<path style="stroke:none;" d="M 68.15625 -13.75 L 66.28125 -18.640625 L 88.09375 -27.390625 L 6.984375 -27.390625 L 6.984375 -34 L 88.09375 -34 L 66.28125 -42.75 L 68.15625 -47.640625 L 99.09375 -34.265625 L 99.09375 -27.125 Z M 68.15625 -13.75 "/>
</symbol>
</g>
<g>
<symbol overflow="visible" id="bengali-psts:id2:glyph0-0">
<path style="stroke:none;" d="M 10.34375 0 L 10.34375 -78.546875 L 55.546875 -78.546875 L 55.546875 0 Z M 15.953125 -5.609375 L 49.9375 -5.609375 L 49.9375 -72.9375 L 15.953125 -72.9375 Z M 15.953125 -5.609375 "/>
</symbol>
<symbol overflow="visible" id="bengali-psts:id2:glyph0-1">
<path style="stroke:none;" d="M 69.953125 2.75 L 64.34375 -0.328125 L 64.34375 -62.703125 L 33.109375 -62.703125 C 37.285156 -58.222656 40.820312 -54.003906 43.71875 -50.046875 C 46.613281 -46.085938 48.832031 -42.109375 50.375 -38.109375 C 51.914062 -34.117188 52.6875 -29.8125 52.6875 -25.1875 C 52.6875 -20.425781 51.804688 -16.171875 50.046875 -12.421875 C 48.285156 -8.679688 45.773438 -5.765625 42.515625 -3.671875 C 39.253906 -1.585938 35.273438 -0.546875 30.578125 -0.546875 C 23.679688 -0.546875 17.957031 -2.742188 13.40625 -7.140625 C 8.863281 -11.546875 5.75 -18.40625 4.0625 -27.71875 C 9.71875 -28.894531 14.15625 -30.617188 17.375 -32.890625 C 20.601562 -35.160156 22.894531 -37.796875 24.25 -40.796875 C 25.613281 -43.804688 26.296875 -46.925781 26.296875 -50.15625 C 26.296875 -54.5625 25.34375 -58.742188 23.4375 -62.703125 L 0.546875 -62.703125 L -3.1875 -68.421875 L 21.34375 -68.421875 C 20.601562 -69.367188 19.921875 -70.28125 19.296875 -71.15625 C 18.679688 -72.039062 18.078125 -72.890625 17.484375 -73.703125 C 17.046875 -73.703125 16.609375 -73.703125 16.171875 -73.703125 C 14.117188 -73.703125 12.101562 -73.9375 10.125 -74.40625 C 8.144531 -74.882812 6.472656 -75.800781 5.109375 -77.15625 C 3.753906 -78.519531 3.078125 -80.554688 3.078125 -83.265625 C 3.078125 -85.910156 4.03125 -88.222656 5.9375 -90.203125 C 5.425781 -91.148438 4.984375 -92.132812 4.609375 -93.15625 C 4.242188 -94.1875 4.0625 -95.363281 4.0625 -96.6875 C 4.0625 -98.59375 4.578125 -100.460938 5.609375 -102.296875 C 6.640625 -104.128906 8.472656 -105.742188 11.109375 -107.140625 L 18.15625 -100.984375 C 17.125 -100.835938 15.984375 -100.523438 14.734375 -100.046875 C 13.492188 -99.566406 12.453125 -98.867188 11.609375 -97.953125 C 10.765625 -97.035156 10.34375 -95.84375 10.34375 -94.375 C 10.34375 -94.082031 10.378906 -93.789062 10.453125 -93.5 C 12.648438 -94.601562 15.320312 -95.484375 18.46875 -96.140625 C 21.625 -96.796875 25.148438 -97.125 29.046875 -97.125 C 41.066406 -97.125 50.632812 -94.773438 57.75 -90.078125 C 64.863281 -85.390625 69.007812 -78.171875 70.1875 -68.421875 L 78.4375 -68.421875 L 82.28125 -62.703125 L 70.296875 -62.703125 L 70.296875 2.640625 Z M 31.234375 -82.390625 C 34.023438 -82.390625 36.5 -81.726562 38.65625 -80.40625 C 40.820312 -79.09375 42.566406 -77.367188 43.890625 -75.234375 C 45.210938 -73.109375 46.054688 -70.835938 46.421875 -68.421875 L 64.34375 -68.421875 C 64.125 -73.773438 62.398438 -77.972656 59.171875 -81.015625 C 55.953125 -84.054688 51.753906 -86.195312 46.578125 -87.4375 C 41.410156 -88.6875 35.675781 -89.3125 29.375 -89.3125 C 23.0625 -89.3125 17.976562 -88.832031 14.125 -87.875 C 10.28125 -86.925781 8.359375 -85.570312 8.359375 -83.8125 C 8.359375 -82.863281 8.90625 -82.242188 10 -81.953125 C 11.101562 -81.660156 12.832031 -81.515625 15.1875 -81.515625 C 17.53125 -81.515625 19.523438 -81.585938 21.171875 -81.734375 C 22.828125 -81.878906 24.421875 -82.023438 25.953125 -82.171875 C 27.492188 -82.316406 29.253906 -82.390625 31.234375 -82.390625 Z M 27.171875 -68.421875 L 40.703125 -68.421875 C 40.484375 -70.617188 39.75 -72.335938 38.5 -73.578125 C 37.25 -74.828125 35.195312 -75.453125 32.34375 -75.453125 C 30.726562 -75.453125 29.164062 -75.320312 27.65625 -75.0625 C 26.15625 -74.8125 24.597656 -74.539062 22.984375 -74.25 C 23.941406 -72.632812 25.335938 -70.691406 27.171875 -68.421875 Z M 29.046875 -7.375 C 33.804688 -7.375 37.488281 -9.09375 40.09375 -12.53125 C 42.695312 -15.976562 44 -20.566406 44 -26.296875 C 44 -30.398438 43.46875 -34.265625 42.40625 -37.890625 C 41.34375 -41.523438 39.671875 -45.25 37.390625 -49.0625 C 35.117188 -52.875 32.148438 -57.050781 28.484375 -61.59375 C 29.585938 -58.957031 30.5625 -56.171875 31.40625 -53.234375 C 32.25 -50.304688 32.671875 -46.972656 32.671875 -43.234375 C 32.671875 -37.953125 31.296875 -33.21875 28.546875 -29.03125 C 25.796875 -24.851562 21.15625 -21.8125 14.625 -19.90625 C 15.21875 -16.09375 16.8125 -13.050781 19.40625 -10.78125 C 22.007812 -8.507812 25.222656 -7.375 29.046875 -7.375 Z M 29.046875 -7.375 "/>
</symbol>
</g>
<filter id="bengali-psts:local-greyscale"> <feColorMatrix type="saturate" values="0.0" color-interpolation-filters="sRGB"/> <feComponentTransfer> <feFuncR type="gamma" exponent="4.0" amplitude="1.0" offset="0"/> <feFuncG type="gamma" exponent="4.0" amplitude="1.0" offset="0"/> <feFuncB type="gamma" exponent="4.0" amplitude="1.0" offset="0"/> </feComponentTransfer> </filter></defs>
  <g id="bengali-psts:id0:id0" transform="matrix(1.25,0,0,1.25,0.0,0.0)"><g id="bengali-psts:id0:surface1">
<g style="fill:rgb(0%,0%,0%);fill-opacity:1;">
  <use xlink:href="#bengali-psts:id0:glyph0-1" x="16" y="122.125" class="c0"/>
  <use xlink:href="#bengali-psts:id0:glyph0-2" x="76.171875" y="122.125" class="c1"/>
</g>
</g>
</g>
  <g id="bengali-psts:id1:id1" transform="matrix(1.25,0,0,1.25,141.89453125,11.38671875)"><g id="bengali-psts:id1:surface1">
<g style="fill:rgb(0%,0%,0%);fill-opacity:1;">
  <use xlink:href="#bengali-psts:id1:glyph0-1" x="0" y="120.84375" class="arrow"/>
</g>
</g>
</g>
  <g id="bengali-psts:id2:id2" transform="matrix(1.25,0,0,1.25,274.4921875,0.0)"><g id="bengali-psts:id2:surface1">
<g style="fill:rgb(0%,0%,0%);fill-opacity:1;">
  <use xlink:href="#bengali-psts:id2:glyph0-1" x="16" y="122.125" class="c2"/>
</g>
</g>
</g>
</svg>