<!DOCTYPE svg PUBLIC "-//W3C//DTD SVG 1.1//EN" "http://www.w3.org/Graphics/SVG/1.1/DTD/svg11.dtd">
<!-- Created with svg_stack (http://github.com/astraw/svg_stack) --><svg xmlns="http://www.w3.org/2000/svg" xmlns:sodipodi="http://sodipodi.sourceforge.net/DTD/sodipodi-0.dtd" xmlns:xlink="http://www.w3.org/1999/xlink" version="1.1" width="512.6171875" height="224.1796875" id="bengali-vatu" filter="url(#bengali-vatu:local-greyscale)">
  <defs><g>
<symbol overflow="visible" id="bengali-vatu:id0:glyph0-0">
<path style="stroke:none;" d="M 10.34375 0 L 10.34375 -78.546875 L 55.546875 -78.546875 L 55.546875 0 Z M 15.953125 -5.609375 L 49.9375 -5.609375 L 49.9375 -72.9375 L 15.953125 -72.9375 Z M 15.953125 -5.609375 "/>
</symbol>
<symbol overflow="visible" id="bengali-vatu:id0:glyph0-1">
<path style="stroke:none;" d="M 46.859375 1.4375 L 41.6875 -2.640625 C 37.726562 -9.242188 32.890625 -14.523438 27.171875 -18.484375 C 21.453125 -22.441406 14.816406 -24.894531 7.265625 -25.84375 L 2.75 -38.28125 C 9.28125 -42.53125 15.566406 -46.140625 21.609375 -49.109375 C 27.660156 -52.078125 34.28125 -54.847656 41.46875 -57.421875 L 41.46875 -62.703125 L 0.546875 -62.703125 L -3.1875 -68.421875 L 76.78125 -68.421875 L 80.515625 -62.703125 L 47.40625 -62.703125 L 47.40625 -57.53125 C 52.757812 -57.019531 57.414062 -55.476562 61.375 -52.90625 C 65.332031 -50.34375 68.410156 -47.207031 70.609375 -43.5 C 72.816406 -39.800781 73.921875 -35.9375 73.921875 -31.90625 C 73.921875 -28.007812 73.09375 -24.757812 71.4375 -22.15625 C 69.789062 -19.5625 67.316406 -18.265625 64.015625 -18.265625 C 61.085938 -18.265625 58.960938 -19.125 57.640625 -20.84375 C 56.316406 -22.570312 55.65625 -24.390625 55.65625 -26.296875 C 55.65625 -28.421875 56.257812 -30.234375 57.46875 -31.734375 C 58.6875 -33.234375 60.46875 -33.984375 62.8125 -33.984375 C 65.664062 -33.984375 67.789062 -32.628906 69.1875 -29.921875 C 69.257812 -30.359375 69.296875 -30.832031 69.296875 -31.34375 C 69.296875 -33.988281 68.453125 -36.554688 66.765625 -39.046875 C 65.078125 -41.546875 62.640625 -43.597656 59.453125 -45.203125 C 56.265625 -46.816406 52.320312 -47.625 47.625 -47.625 C 47.550781 -47.625 47.476562 -47.625 47.40625 -47.625 L 47.40625 1.3125 Z M 13.859375 -33.546875 C 18.554688 -32.003906 23.378906 -29.492188 28.328125 -26.015625 C 33.273438 -22.535156 37.65625 -17.53125 41.46875 -11 L 41.46875 -47.296875 C 36.695312 -45.535156 31.925781 -43.5 27.15625 -41.1875 C 22.394531 -38.882812 17.960938 -36.335938 13.859375 -33.546875 Z M 13.859375 -33.546875 "/>
</symbol>
<symbol overflow="visible" id="bengali-vatu:id0:glyph0-2">
<path style="stroke:none;" d="M 32.890625 -53.6875 C 32.160156 -53.6875 31.5 -53.976562 30.90625 -54.5625 C 30.320312 -55.144531 30.03125 -55.804688 30.03125 -56.546875 C 30.03125 -57.347656 30.320312 -58.023438 30.90625 -58.578125 C 31.5 -59.128906 32.160156 -59.40625 32.890625 -59.40625 C 33.691406 -59.40625 34.367188 -59.128906 34.921875 -58.578125 C 35.472656 -58.023438 35.75 -57.347656 35.75 -56.546875 C 35.75 -55.804688 35.472656 -55.144531 34.921875 -54.5625 C 34.367188 -53.976562 33.691406 -53.6875 32.890625 -53.6875 Z M 23.65625 -51.703125 C 22.914062 -51.703125 22.253906 -51.992188 21.671875 -52.578125 C 21.085938 -53.160156 20.796875 -53.820312 20.796875 -54.5625 C 20.796875 -55.363281 21.085938 -56.039062 21.671875 -56.59375 C 22.253906 -57.144531 22.914062 -57.421875 23.65625 -57.421875 C 24.457031 -57.421875 25.132812 -57.144531 25.6875 -56.59375 C 26.238281 -56.039062 26.515625 -55.363281 26.515625 -54.5625 C 26.515625 -53.820312 26.238281 -53.160156 25.6875 -52.578125 C 25.132812 -51.992188 24.457031 -51.703125 23.65625 -51.703125 Z M 42.125 -51.703125 C 41.394531 -51.703125 40.734375 -51.992188 40.140625 -52.578125 C 39.554688 -53.160156 39.265625 -53.820312 39.265625 -54.5625 C 39.265625 -55.363281 39.554688 -56.039062 40.140625 -56.59375 C 40.734375 -57.144531 41.394531 -57.421875 42.125 -57.421875 C 42.9375 -57.421875 43.613281 -57.144531 44.15625 -56.59375 C 44.707031 -56.039062 44.984375 -55.363281 44.984375 -54.5625 C 44.984375 -53.820312 44.707031 -53.160156 44.15625 -52.578125 C 43.613281 -51.992188 42.9375 -51.703125 42.125 -51.703125 Z M 50.265625 -46.53125 C 49.535156 -46.53125 48.875 -46.820312 48.28125 -47.40625 C 47.695312 -48 47.40625 -48.660156 47.40625 -49.390625 C 47.40625 -50.191406 47.695312 -50.867188 48.28125 -51.421875 C 48.875 -51.972656 49.535156 -52.25 50.265625 -52.25 C 51.078125 -52.25 51.753906 -51.972656 52.296875 -51.421875 C 52.847656 -50.867188 53.125 -50.191406 53.125 -49.390625 C 53.125 -48.660156 52.847656 -48 52.296875 -47.40625 C 51.753906 -46.820312 51.078125 -46.53125 50.265625 -46.53125 Z M 15.515625 -46.53125 C 14.773438 -46.53125 14.113281 -46.820312 13.53125 -47.40625 C 12.945312 -48 12.65625 -48.660156 12.65625 -49.390625 C 12.65625 -50.191406 12.945312 -50.867188 13.53125 -51.421875 C 14.113281 -51.972656 14.773438 -52.25 15.515625 -52.25 C 16.316406 -52.25 16.992188 -51.972656 17.546875 -51.421875 C 18.097656 -50.867188 18.375 -50.191406 18.375 -49.390625 C 18.375 -48.660156 18.097656 -48 17.546875 -47.40625 C 16.992188 -46.820312 16.316406 -46.53125 15.515625 -46.53125 Z M 10.34375 -38.390625 C 9.601562 -38.390625 8.941406 -38.679688 8.359375 -39.265625 C 7.773438 -39.859375 7.484375 -40.519531 7.484375 -41.25 C 7.484375 -42.050781 7.773438 -42.726562 8.359375 -43.28125 C 8.941406 -43.832031 9.601562 -44.109375 10.34375 -44.109375 C 11.144531 -44.109375 11.820312 -43.832031 12.375 -43.28125 C 12.925781 -42.726562 13.203125 -42.050781 13.203125 -41.25 C 13.203125 -40.519531 12.925781 -39.859375 12.375 -39.265625 C 11.820312 -38.679688 11.144531 -38.390625 10.34375 -38.390625 Z M 55.4375 -38.390625 C 54.707031 -38.390625 54.046875 -38.679688 53.453125 -39.265625 C 52.867188 -39.859375 52.578125 -40.519531 52.578125 -41.25 C 52.578125 -42.050781 52.867188 -42.726562 53.453125 -43.28125 C 54.046875 -43.832031 54.707031 -44.109375 55.4375 -44.109375 C 56.25 -44.109375 56.925781 -43.832031 57.46875 -43.28125 C 58.019531 -42.726562 58.296875 -42.050781 58.296875 -41.25 C 58.296875 -40.519531 58.019531 -39.859375 57.46875 -39.265625 C 56.925781 -38.679688 56.25 -38.390625 55.4375 -38.390625 Z M 8.359375 -29.15625 C 7.628906 -29.15625 6.96875 -29.445312 6.375 -30.03125 C 5.789062 -30.613281 5.5 -31.273438 5.5 -32.015625 C 5.5 -32.816406 5.789062 -33.492188 6.375 -34.046875 C 6.96875 -34.597656 7.628906 -34.875 8.359375 -34.875 C 9.160156 -34.875 9.835938 -34.597656 10.390625 -34.046875 C 10.941406 -33.492188 11.21875 -32.816406 11.21875 -32.015625 C 11.21875 -31.273438 10.941406 -30.613281 10.390625 -30.03125 C 9.835938 -29.445312 9.160156 -29.15625 8.359375 -29.15625 Z M 57.421875 -29.15625 C 56.679688 -29.15625 56.019531 -29.445312 55.4375 -30.03125 C 54.851562 -30.613281 54.5625 -31.273438 54.5625 -32.015625 C 54.5625 -32.816406 54.851562 -33.492188 55.4375 -34.046875 C 56.019531 -34.597656 56.679688 -34.875 57.421875 -34.875 C 58.222656 -34.875 58.898438 -34.597656 59.453125 -34.046875 C 60.003906 -33.492188 60.28125 -32.816406 60.28125 -32.015625 C 60.28125 -31.273438 60.003906 -30.613281 59.453125 -30.03125 C 58.898438 -29.445312 58.222656 -29.15625 57.421875 -29.15625 Z M 10.34375 -19.90625 C 9.601562 -19.90625 8.941406 -20.195312 8.359375 -20.78125 C 7.773438 -21.375 7.484375 -22.035156 7.484375 -22.765625 C 7.484375 -23.578125 7.773438 -24.253906 8.359375 -24.796875 C 8.941406 -25.347656 9.601562 -25.625 10.34375 -25.625 C 11.144531 -25.625 11.820312 -25.347656 12.375 -24.796875 C 12.925781 -24.253906 13.203125 -23.578125 13.203125 -22.765625 C 13.203125 -22.035156 12.925781 -21.375 12.375 -20.78125 C 11.820312 -20.195312 11.144531 -19.90625 10.34375 -19.90625 Z M 55.4375 -19.90625 C 54.707031 -19.90625 54.046875 -20.195312 53.453125 -20.78125 C 52.867188 -21.375 52.578125 -22.035156 52.578125 -22.765625 C 52.578125 -23.578125 52.867188 -24.253906 53.453125 -24.796875 C 54.046875 -25.347656 54.707031 -25.625 55.4375 -25.625 C 56.25 -25.625 56.925781 -25.347656 57.46875 -24.796875 C 58.019531 -24.253906 58.296875 -23.578125 58.296875 -22.765625 C 58.296875 -22.035156 58.019531 -21.375 57.46875 -20.78125 C 56.925781 -20.195312 56.25 -19.90625 55.4375 -19.90625 Z M 15.515625 -11.765625 C 14.773438 -11.765625 14.113281 -12.054688 13.53125 -12.640625 C 12.945312 -13.234375 12.65625 -13.894531 12.65625 -14.625 C 12.65625 -15.4375 12.945312 -16.113281 13.53125 -16.65625 C 14.113281 -17.207031 14.773438 -17.484375 15.515625 -17.484375 C 16.316406 -17.484375 16.992188 -17.207031 17.546875 -16.65625 C 18.097656 -16.113281 18.375 -15.4375 18.375 -14.625 C 18.375 -13.894531 18.097656 -13.234375 17.546875 -12.640625 C 16.992188 -12.054688 16.316406 -11.765625 15.515625 -11.765625 Z M 50.265625 -11.765625 C 49.535156 -11.765625 48.875 -12.054688 48.28125 -12.640625 C 47.695312 -13.234375 47.40625 -13.894531 47.40625 -14.625 C 47.40625 -15.4375 47.695312 -16.113281 48.28125 -16.65625 C 48.875 -17.207031 49.535156 -17.484375 50.265625 -17.484375 C 51.078125 -17.484375 51.753906 -17.207031 52.296875 -16.65625 C 52.847656 -16.113281 53.125 -15.4375 53.125 -14.625 C 53.125 -13.894531 52.847656 -13.234375 52.296875 -12.640625 C 51.753906 -12.054688 51.078125 -11.765625 50.265625 -11.765625 Z M 23.65625 -6.59375 C 22.914062 -6.59375 22.253906 -6.882812 21.671875 -7.46875 C 21.085938 -8.0625 20.796875 -8.722656 20.796875 -9.453125 C 20.796875 -10.265625 21.085938 -10.941406 21.671875 -11.484375 C 22.253906 -12.035156 22.914062 -12.3125 23.65625 -12.3125 C 24.457031 -12.3125 25.132812 -12.035156 25.6875 -11.484375 C 26.238281 -10.941406 26.515625 -10.265625 26.515625 -9.453125 C 26.515625 -8.722656 26.238281 -8.0625 25.6875 -7.46875 C 25.132812 -6.882812 24.457031 -6.59375 23.65625 -6.59375 Z M 42.125 -6.59375 C 41.394531 -6.59375 40.734375 -6.882812 40.140625 -7.46875 C 39.554688 -8.0625 39.265625 -8.722656 39.265625 -9.453125 C 39.265625 -10.265625 39.554688 -10.941406 40.140625 -11.484375 C 40.734375 -12.035156 41.394531 -12.3125 42.125 -12.3125 C 42.9375 -12.3125 43.613281 -12.035156 44.15625 -11.484375 C 44.707031 -10.941406 44.984375 -10.265625 44.984375 -9.453125 C 44.984375 -8.722656 44.707031 -8.0625 44.15625 -7.46875 C 43.613281 -6.882812 42.9375 -6.59375 42.125 -6.59375 Z M 32.890625 -4.625 C 32.160156 -4.625 31.5 -4.914062 30.90625 -5.5 C 30.320312 -6.082031 30.03125 -6.742188 30.03125 -7.484375 C 30.03125 -8.285156 30.320312 -8.960938 30.90625 -9.515625 C 31.5 -10.066406 32.160156 -10.34375 32.890625 -10.34375 C 33.691406 -10.34375 34.367188 -10.066406 34.921875 -9.515625 C 35.472656 -8.960938 35.75 -8.285156 35.75 -7.484375 C 35.75 -6.742188 35.472656 -6.082031 34.921875 -5.5 C 34.367188 -4.914062 33.691406 -4.625 32.890625 -4.625 Z M 32.890625 -4.625 "/>
</symbol>
<symbol overflow="visible" id="bengali-vatu:id0:glyph0-3">
<path style="stroke:none;" d="M -0.65625 21.671875 L -5.828125 17.59375 C -7.660156 14.8125 -9.4375 12.960938 -11.15625 12.046875 C -12.882812 11.128906 -15.066406 10.671875 -17.703125 10.671875 C -20.347656 10.671875 -22.695312 10.796875 -24.75 11.046875 C -26.800781 11.304688 -28.851562 11.5625 -30.90625 11.8125 C -32.957031 12.070312 -35.34375 12.203125 -38.0625 12.203125 C -41.507812 12.203125 -44.734375 11.578125 -47.734375 10.328125 C -50.742188 9.085938 -53.144531 7.019531 -54.9375 4.125 C -56.738281 1.226562 -57.640625 -2.675781 -57.640625 -7.59375 C -57.640625 -9.789062 -57.492188 -11.894531 -57.203125 -13.90625 C -56.910156 -15.925781 -56.578125 -17.742188 -56.203125 -19.359375 L -51.375 -18.265625 C -51.664062 -17.015625 -51.921875 -15.726562 -52.140625 -14.40625 C -52.359375 -13.09375 -52.46875 -11.664062 -52.46875 -10.125 C -52.46875 -5.71875 -51.164062 -2.5625 -48.5625 -0.65625 C -45.957031 1.25 -42.421875 2.203125 -37.953125 2.203125 C -35.085938 2.203125 -32.738281 2.109375 -30.90625 1.921875 C -29.070312 1.742188 -27.382812 1.5625 -25.84375 1.375 C -24.3125 1.1875 -22.515625 1.09375 -20.453125 1.09375 C -17.015625 1.09375 -14.210938 1.84375 -12.046875 3.34375 C -9.878906 4.851562 -7.734375 7.515625 -5.609375 11.328125 C -5.753906 9.421875 -5.863281 7.515625 -5.9375 5.609375 C -6.007812 3.703125 -6.046875 1.796875 -6.046875 -0.109375 L -6.046875 -14.953125 L -0.109375 -14.953125 L -0.109375 21.5625 Z M -0.65625 21.671875 "/>
</symbol>
</g>
<g>
<symbol overflow="visible" id="bengali-vatu:id1:glyph0-0">
<path style="stroke:none;" d="M 5.375 -96.6875 L 69.828125 -96.6875 L 69.828125 0 L 5.375 0 Z M 8.0625 -2.6875 L 67.140625 -2.6875 L 67.140625 -94 L 8.0625 -94 Z M 8.0625 -2.6875 "/>
</symbol>
<symbol overflow="visible" id="bengali-vatu:id1:glyph0-1">
<path style="stroke:none;" d="M 68.15625 -13.75 L 66.28125 -18.640625 L 88.09375 -27.390625 L 6.984375 -27.390625 L 6.984375 -34 L 88.09375 -34 L 66.28125 -42.75 L 68.15625 -47.640625 L 99.09375 -34.265625 L 99.09375 -27.125 Z M 68.15625 -13.75 "/>
</symbol>
</g>
<g>
<symbol overflow="visible" id="bengali-vatu:id2:glyph0-0">
<path style="stroke:none;" d="M 10.34375 0 L 10.34375 -78.546875 L 55.546875 -78.546875 L 55.546875 0 Z M 15.953125 -5.609375 L 49.9375 -5.609375 L 49.9375 -72.9375 L 15.953125 -72.9375 Z M 15.953125 -5.609375 "/>
</symbol>
<symbol overflow="visible" id="bengali-vatu:id2:glyph0-1">
<path style="stroke:none;" d="M 0.546875 -62.703125 L -3.1875 -68.421875 L 96.359375 -68.421875 L 100.09375 -62.703125 Z M 61.59375 5.828125 L 56.4375 1.765625 C 54.601562 -1.023438 52.820312 -2.878906 51.09375 -3.796875 C 49.375 -4.710938 47.191406 -5.171875 44.546875 -5.171875 C 41.910156 -5.171875 39.566406 -5.039062 37.515625 -4.78125 C 35.460938 -4.53125 33.40625 -4.273438 31.34375 -4.015625 C 29.289062 -3.753906 26.910156 -3.625 24.203125 -3.625 C 20.753906 -3.625 17.523438 -4.300781 14.515625 -5.65625 C 11.515625 -7.019531 9.113281 -9.296875 7.3125 -12.484375 C 5.519531 -15.671875 4.625 -19.941406 4.625 -25.296875 C 4.625 -27.492188 4.769531 -29.601562 5.0625 -31.625 C 5.351562 -33.644531 5.679688 -35.457031 6.046875 -37.0625 L 10.890625 -35.96875 C 10.597656 -34.71875 10.34375 -33.359375 10.125 -31.890625 C 9.90625 -30.429688 9.796875 -28.820312 9.796875 -27.0625 C 9.796875 -22.21875 11.1875 -18.769531 13.96875 -16.71875 C 16.757812 -14.664062 20.207031 -13.640625 24.3125 -13.640625 C 27.164062 -13.640625 29.507812 -13.726562 31.34375 -13.90625 C 33.175781 -14.09375 34.863281 -14.273438 36.40625 -14.453125 C 37.945312 -14.640625 39.742188 -14.734375 41.796875 -14.734375 C 45.242188 -14.734375 48.046875 -13.984375 50.203125 -12.484375 C 52.367188 -10.984375 54.519531 -8.328125 56.65625 -4.515625 C 56.507812 -6.421875 56.394531 -8.328125 56.3125 -10.234375 C 56.238281 -12.140625 56.203125 -14.046875 56.203125 -15.953125 L 56.203125 -43.015625 C 56.203125 -45.359375 55.800781 -47.265625 55 -48.734375 C 54.195312 -50.203125 52.546875 -50.9375 50.046875 -50.9375 C 47.921875 -50.9375 45.738281 -50.238281 43.5 -48.84375 C 41.269531 -47.445312 39.273438 -45.703125 37.515625 -43.609375 C 35.753906 -41.523438 34.539062 -39.421875 33.875 -37.296875 C 34.90625 -37.734375 35.929688 -37.953125 36.953125 -37.953125 C 39.742188 -37.953125 41.78125 -37.109375 43.0625 -35.421875 C 44.34375 -33.734375 44.984375 -31.828125 44.984375 -29.703125 C 44.984375 -27.273438 44.101562 -25.238281 42.34375 -23.59375 C 40.582031 -21.945312 38.054688 -21.160156 34.765625 -21.234375 C 31.460938 -21.378906 28.800781 -22.476562 26.78125 -24.53125 C 24.769531 -26.582031 23.765625 -29.515625 23.765625 -33.328125 C 23.765625 -36.117188 24.457031 -38.890625 25.84375 -41.640625 C 27.238281 -44.390625 29.144531 -46.898438 31.5625 -49.171875 C 33.988281 -51.441406 36.757812 -53.273438 39.875 -54.671875 C 42.988281 -56.066406 46.234375 -56.765625 49.609375 -56.765625 C 53.929688 -56.765625 57.101562 -55.550781 59.125 -53.125 C 61.144531 -50.707031 62.15625 -47.554688 62.15625 -43.671875 L 62.15625 -37.1875 C 64.71875 -41.144531 67.664062 -44.164062 71 -46.25 C 74.34375 -48.34375 77.515625 -49.390625 80.515625 -49.390625 C 84.628906 -49.390625 87.929688 -48.050781 90.421875 -45.375 C 92.910156 -42.695312 94.15625 -38.71875 94.15625 -33.4375 C 94.15625 -29.40625 93.347656 -26.140625 91.734375 -23.640625 C 90.117188 -21.148438 88.117188 -19.335938 85.734375 -18.203125 C 83.359375 -17.066406 81 -16.5 78.65625 -16.5 C 75.5 -16.5 73.054688 -17.25 71.328125 -18.75 C 69.609375 -20.257812 68.75 -22.332031 68.75 -24.96875 C 68.75 -27.238281 69.484375 -29.070312 70.953125 -30.46875 C 72.421875 -31.863281 74.21875 -32.5625 76.34375 -32.5625 C 78.25 -32.5625 79.894531 -31.972656 81.28125 -30.796875 C 82.675781 -29.628906 83.375 -27.976562 83.375 -25.84375 C 83.375 -25.550781 83.375 -25.296875 83.375 -25.078125 C 84.914062 -25.660156 86.269531 -26.648438 87.4375 -28.046875 C 88.613281 -29.441406 89.203125 -31.3125 89.203125 -33.65625 C 89.203125 -36.15625 88.394531 -38.097656 86.78125 -39.484375 C 85.175781 -40.878906 82.867188 -41.578125 79.859375 -41.578125 C 76.191406 -41.578125 72.875 -40.441406 69.90625 -38.171875 C 66.9375 -35.898438 64.351562 -33.113281 62.15625 -29.8125 L 62.15625 5.71875 Z M 61.59375 5.828125 "/>
</symbol>
</g>
<filter id="bengali-vatu:local-greyscale"> <feColorMatrix type="saturate" values="0.0" color-interpolation-filters="sRGB"/> <feComponentTransfer> <feFuncR type="gamma" exponent="4.0" amplitude="1.0" offset="0"/> <feFuncG type="gamma" exponent="4.0" amplitude="1.0" offset="0"/> <feFuncB type="gamma" exponent="4.0" amplitude="1.0" offset="0"/> </feComponentTransfer> </filter></defs>
  <g id="bengali-vatu:id0:id0" transform="matrix(1.25,0,0,1.25,0.0,0.0)"><g id="bengali-vatu:id0:surface1">
<g style="fill:rgb(0%,0%,0%);fill-opacity:1;">
  <use xlink:href="#bengali-vatu:id0:glyph0-1" x="16" y="122.125" class="c0"/>
  <use xlink:href="#bengali-vatu:id0:glyph0-2" x="93.328125" y="122.125" class="dc"/>
  <use xlink:href="#bengali-vatu:id0:glyph0-3" x="126.328125" y="122.125" class="c1"/>
</g>
</g>
</g>
  <g id="bengali-vatu:id1:id1" transform="matrix(1.25,0,0,1.25,218.88671875,11.38671875)"><g id="bengali-vatu:id1:surface1">
<g style="fill:rgb(0%,0%,0%);fill-opacity:1;">
  <use xlink:href="#bengali-vatu:id1:glyph0-1" x="0" y="120.84375" class="arrow"/>
</g>
</g>
</g>
  <g id="bengali-vatu:id2:id2" transform="matrix(1.25,0,0,1.25,351.484375,0.0)"><g id="bengali-vatu:id2:surface1">
<g style="fill:rgb(0%,0%,0%);fill-opacity:1;">
  <use xlink:href="#bengali-vatu:id2:glyph0-1" x="16" y="122.125" class="c0"/>
</g>
</g>
</g>
</svg>
