<?xml version="1.0" standalone="no"?>
<!DOCTYPE svg PUBLIC "-//W3C//DTD SVG 1.1//EN"
 "http://www.w3.org/Graphics/SVG/1.1/DTD/svg11.dtd">
<!-- Created with svg_stack (http://github.com/astraw/svg_stack) -->
<svg xmlns="http://www.w3.org/2000/svg" xmlns:sodipodi="http://sodipodi.sourceforge.net/DTD/sodipodi-0.dtd" xmlns:xlink="http://www.w3.org/1999/xlink" version="1.1" width="568.7109375" height="224.1796875">
  <defs><g>
<symbol overflow="visible" id="id0:glyph0-0">
<path style="stroke:none;" d="M 10.34375 0 L 10.34375 -78.546875 L 55.546875 -78.546875 L 55.546875 0 Z M 15.953125 -5.609375 L 49.9375 -5.609375 L 49.9375 -72.9375 L 15.953125 -72.9375 Z M 15.953125 -5.609375 "/>
</symbol>
<symbol overflow="visible" id="id0:glyph0-1">
<path style="stroke:none;" d="M 46.859375 1.4375 L 41.6875 -2.640625 C 37.726562 -9.242188 32.890625 -14.523438 27.171875 -18.484375 C 21.453125 -22.441406 14.816406 -24.894531 7.265625 -25.84375 L 2.75 -38.28125 C 9.28125 -42.53125 15.566406 -46.140625 21.609375 -49.109375 C 27.660156 -52.078125 34.28125 -54.847656 41.46875 -57.421875 L 41.46875 -62.703125 L 0.546875 -62.703125 L -3.1875 -68.421875 L 76.78125 -68.421875 L 80.515625 -62.703125 L 47.40625 -62.703125 L 47.40625 -57.53125 C 52.757812 -57.019531 57.414062 -55.476562 61.375 -52.90625 C 65.332031 -50.34375 68.410156 -47.207031 70.609375 -43.5 C 72.816406 -39.800781 73.921875 -35.9375 73.921875 -31.90625 C 73.921875 -28.007812 73.09375 -24.757812 71.4375 -22.15625 C 69.789062 -19.5625 67.316406 -18.265625 64.015625 -18.265625 C 61.085938 -18.265625 58.960938 -19.125 57.640625 -20.84375 C 56.316406 -22.570312 55.65625 -24.390625 55.65625 -26.296875 C 55.65625 -28.421875 56.257812 -30.234375 57.46875 -31.734375 C 58.6875 -33.234375 60.46875 -33.984375 62.8125 -33.984375 C 65.664062 -33.984375 67.789062 -32.628906 69.1875 -29.921875 C 69.257812 -30.359375 69.296875 -30.832031 69.296875 -31.34375 C 69.296875 -33.988281 68.453125 -36.554688 66.765625 -39.046875 C 65.078125 -41.546875 62.640625 -43.597656 59.453125 -45.203125 C 56.265625 -46.816406 52.320312 -47.625 47.625 -47.625 C 47.550781 -47.625 47.476562 -47.625 47.40625 -47.625 L 47.40625 1.3125 Z M 13.859375 -33.546875 C 18.554688 -32.003906 23.378906 -29.492188 28.328125 -26.015625 C 33.273438 -22.535156 37.65625 -17.53125 41.46875 -11 L 41.46875 -47.296875 C 36.695312 -45.535156 31.925781 -43.5 27.15625 -41.1875 C 22.394531 -38.882812 17.960938 -36.335938 13.859375 -33.546875 Z M 13.859375 -33.546875 "/>
</symbol>
<symbol overflow="visible" id="id0:glyph0-2">
<path style="stroke:none;" d="M 32.890625 -53.6875 C 32.160156 -53.6875 31.5 -53.976562 30.90625 -54.5625 C 30.320312 -55.144531 30.03125 -55.804688 30.03125 -56.546875 C 30.03125 -57.347656 30.320312 -58.023438 30.90625 -58.578125 C 31.5 -59.128906 32.160156 -59.40625 32.890625 -59.40625 C 33.691406 -59.40625 34.367188 -59.128906 34.921875 -58.578125 C 35.472656 -58.023438 35.75 -57.347656 35.75 -56.546875 C 35.75 -55.804688 35.472656 -55.144531 34.921875 -54.5625 C 34.367188 -53.976562 33.691406 -53.6875 32.890625 -53.6875 Z M 23.65625 -51.703125 C 22.914062 -51.703125 22.253906 -51.992188 21.671875 -52.578125 C 21.085938 -53.160156 20.796875 -53.820312 20.796875 -54.5625 C 20.796875 -55.363281 21.085938 -56.039062 21.671875 -56.59375 C 22.253906 -57.144531 22.914062 -57.421875 23.65625 -57.421875 C 24.457031 -57.421875 25.132812 -57.144531 25.6875 -56.59375 C 26.238281 -56.039062 26.515625 -55.363281 26.515625 -54.5625 C 26.515625 -53.820312 26.238281 -53.160156 25.6875 -52.578125 C 25.132812 -51.992188 24.457031 -51.703125 23.65625 -51.703125 Z M 42.125 -51.703125 C 41.394531 -51.703125 40.734375 -51.992188 40.140625 -52.578125 C 39.554688 -53.160156 39.265625 -53.820312 39.265625 -54.5625 C 39.265625 -55.363281 39.554688 -56.039062 40.140625 -56.59375 C 40.734375 -57.144531 41.394531 -57.421875 42.125 -57.421875 C 42.9375 -57.421875 43.613281 -57.144531 44.15625 -56.59375 C 44.707031 -56.039062 44.984375 -55.363281 44.984375 -54.5625 C 44.984375 -53.820312 44.707031 -53.160156 44.15625 -52.578125 C 43.613281 -51.992188 42.9375 -51.703125 42.125 -51.703125 Z M 50.265625 -46.53125 C 49.535156 -46.53125 48.875 -46.820312 48.28125 -47.40625 C 47.695312 -48 47.40625 -48.660156 47.40625 -49.390625 C 47.40625 -50.191406 47.695312 -50.867188 48.28125 -51.421875 C 48.875 -51.972656 49.535156 -52.25 50.265625 -52.25 C 51.078125 -52.25 51.753906 -51.972656 52.296875 -51.421875 C 52.847656 -50.867188 53.125 -50.191406 53.125 -49.390625 C 53.125 -48.660156 52.847656 -48 52.296875 -47.40625 C 51.753906 -46.820312 51.078125 -46.53125 50.265625 -46.53125 Z M 15.515625 -46.53125 C 14.773438 -46.53125 14.113281 -46.820312 13.53125 -47.40625 C 12.945312 -48 12.65625 -48.660156 12.65625 -49.390625 C 12.65625 -50.191406 12.945312 -50.867188 13.53125 -51.421875 C 14.113281 -51.972656 14.773438 -52.25 15.515625 -52.25 C 16.316406 -52.25 16.992188 -51.972656 17.546875 -51.421875 C 18.097656 -50.867188 18.375 -50.191406 18.375 -49.390625 C 18.375 -48.660156 18.097656 -48 17.546875 -47.40625 C 16.992188 -46.820312 16.316406 -46.53125 15.515625 -46.53125 Z M 10.34375 -38.390625 C 9.601562 -38.390625 8.941406 -38.679688 8.359375 -39.265625 C 7.773438 -39.859375 7.484375 -40.519531 7.484375 -41.25 C 7.484375 -42.050781 7.773438 -42.726562 8.359375 -43.28125 C 8.941406 -43.832031 9.601562 -44.109375 10.34375 -44.109375 C 11.144531 -44.109375 11.820312 -43.832031 12.375 -43.28125 C 12.925781 -42.726562 13.203125 -42.050781 13.203125 -41.25 C 13.203125 -40.519531 12.925781 -39.859375 12.375 -39.265625 C 11.820312 -38.679688 11.144531 -38.390625 10.34375 -38.390625 Z M 55.4375 -38.390625 C 54.707031 -38.390625 54.046875 -38.679688 53.453125 -39.265625 C 52.867188 -39.859375 52.578125 -40.519531 52.578125 -41.25 C 52.578125 -42.050781 52.867188 -42.726562 53.453125 -43.28125 C 54.046875 -43.832031 54.707031 -44.109375 55.4375 -44.109375 C 56.25 -44.109375 56.925781 -43.832031 57.46875 -43.28125 C 58.019531 -42.726562 58.296875 -42.050781 58.296875 -41.25 C 58.296875 -40.519531 58.019531 -39.859375 57.46875 -39.265625 C 56.925781 -38.679688 56.25 -38.390625 55.4375 -38.390625 Z M 8.359375 -29.15625 C 7.628906 -29.15625 6.96875 -29.445312 6.375 -30.03125 C 5.789062 -30.613281 5.5 -31.273438 5.5 -32.015625 C 5.5 -32.816406 5.789062 -33.492188 6.375 -34.046875 C 6.96875 -34.597656 7.628906 -34.875 8.359375 -34.875 C 9.160156 -34.875 9.835938 -34.597656 10.390625 -34.046875 C 10.941406 -33.492188 11.21875 -32.816406 11.21875 -32.015625 C 11.21875 -31.273438 10.941406 -30.613281 10.390625 -30.03125 C 9.835938 -29.445312 9.160156 -29.15625 8.359375 -29.15625 Z M 57.421875 -29.15625 C 56.679688 -29.15625 56.019531 -29.445312 55.4375 -30.03125 C 54.851562 -30.613281 54.5625 -31.273438 54.5625 -32.015625 C 54.5625 -32.816406 54.851562 -33.492188 55.4375 -34.046875 C 56.019531 -34.597656 56.679688 -34.875 57.421875 -34.875 C 58.222656 -34.875 58.898438 -34.597656 59.453125 -34.046875 C 60.003906 -33.492188 60.28125 -32.816406 60.28125 -32.015625 C 60.28125 -31.273438 60.003906 -30.613281 59.453125 -30.03125 C 58.898438 -29.445312 58.222656 -29.15625 57.421875 -29.15625 Z M 10.34375 -19.90625 C 9.601562 -19.90625 8.941406 -20.195312 8.359375 -20.78125 C 7.773438 -21.375 7.484375 -22.035156 7.484375 -22.765625 C 7.484375 -23.578125 7.773438 -24.253906 8.359375 -24.796875 C 8.941406 -25.347656 9.601562 -25.625 10.34375 -25.625 C 11.144531 -25.625 11.820312 -25.347656 12.375 -24.796875 C 12.925781 -24.253906 13.203125 -23.578125 13.203125 -22.765625 C 13.203125 -22.035156 12.925781 -21.375 12.375 -20.78125 C 11.820312 -20.195312 11.144531 -19.90625 10.34375 -19.90625 Z M 55.4375 -19.90625 C 54.707031 -19.90625 54.046875 -20.195312 53.453125 -20.78125 C 52.867188 -21.375 52.578125 -22.035156 52.578125 -22.765625 C 52.578125 -23.578125 52.867188 -24.253906 53.453125 -24.796875 C 54.046875 -25.347656 54.707031 -25.625 55.4375 -25.625 C 56.25 -25.625 56.925781 -25.347656 57.46875 -24.796875 C 58.019531 -24.253906 58.296875 -23.578125 58.296875 -22.765625 C 58.296875 -22.035156 58.019531 -21.375 57.46875 -20.78125 C 56.925781 -20.195312 56.25 -19.90625 55.4375 -19.90625 Z M 15.515625 -11.765625 C 14.773438 -11.765625 14.113281 -12.054688 13.53125 -12.640625 C 12.945312 -13.234375 12.65625 -13.894531 12.65625 -14.625 C 12.65625 -15.4375 12.945312 -16.113281 13.53125 -16.65625 C 14.113281 -17.207031 14.773438 -17.484375 15.515625 -17.484375 C 16.316406 -17.484375 16.992188 -17.207031 17.546875 -16.65625 C 18.097656 -16.113281 18.375 -15.4375 18.375 -14.625 C 18.375 -13.894531 18.097656 -13.234375 17.546875 -12.640625 C 16.992188 -12.054688 16.316406 -11.765625 15.515625 -11.765625 Z M 50.265625 -11.765625 C 49.535156 -11.765625 48.875 -12.054688 48.28125 -12.640625 C 47.695312 -13.234375 47.40625 -13.894531 47.40625 -14.625 C 47.40625 -15.4375 47.695312 -16.113281 48.28125 -16.65625 C 48.875 -17.207031 49.535156 -17.484375 50.265625 -17.484375 C 51.078125 -17.484375 51.753906 -17.207031 52.296875 -16.65625 C 52.847656 -16.113281 53.125 -15.4375 53.125 -14.625 C 53.125 -13.894531 52.847656 -13.234375 52.296875 -12.640625 C 51.753906 -12.054688 51.078125 -11.765625 50.265625 -11.765625 Z M 23.65625 -6.59375 C 22.914062 -6.59375 22.253906 -6.882812 21.671875 -7.46875 C 21.085938 -8.0625 20.796875 -8.722656 20.796875 -9.453125 C 20.796875 -10.265625 21.085938 -10.941406 21.671875 -11.484375 C 22.253906 -12.035156 22.914062 -12.3125 23.65625 -12.3125 C 24.457031 -12.3125 25.132812 -12.035156 25.6875 -11.484375 C 26.238281 -10.941406 26.515625 -10.265625 26.515625 -9.453125 C 26.515625 -8.722656 26.238281 -8.0625 25.6875 -7.46875 C 25.132812 -6.882812 24.457031 -6.59375 23.65625 -6.59375 Z M 42.125 -6.59375 C 41.394531 -6.59375 40.734375 -6.882812 40.140625 -7.46875 C 39.554688 -8.0625 39.265625 -8.722656 39.265625 -9.453125 C 39.265625 -10.265625 39.554688 -10.941406 40.140625 -11.484375 C 40.734375 -12.035156 41.394531 -12.3125 42.125 -12.3125 C 42.9375 -12.3125 43.613281 -12.035156 44.15625 -11.484375 C 44.707031 -10.941406 44.984375 -10.265625 44.984375 -9.453125 C 44.984375 -8.722656 44.707031 -8.0625 44.15625 -7.46875 C 43.613281 -6.882812 42.9375 -6.59375 42.125 -6.59375 Z M 32.890625 -4.625 C 32.160156 -4.625 31.5 -4.914062 30.90625 -5.5 C 30.320312 -6.082031 30.03125 -6.742188 30.03125 -7.484375 C 30.03125 -8.285156 30.320312 -8.960938 30.90625 -9.515625 C 31.5 -10.066406 32.160156 -10.34375 32.890625 -10.34375 C 33.691406 -10.34375 34.367188 -10.066406 34.921875 -9.515625 C 35.472656 -8.960938 35.75 -8.285156 35.75 -7.484375 C 35.75 -6.742188 35.472656 -6.082031 34.921875 -5.5 C 34.367188 -4.914062 33.691406 -4.625 32.890625 -4.625 Z M 32.890625 -4.625 "/>
</symbol>
<symbol overflow="visible" id="id0:glyph0-3">
<path style="stroke:none;" d="M 9.34375 26.734375 C 6.195312 23.429688 2.585938 20.585938 -1.484375 18.203125 C -5.554688 15.816406 -9.9375 14.113281 -14.625 13.09375 L -12.4375 5.828125 C -7.300781 7.441406 -2.644531 9.675781 1.53125 12.53125 C 5.71875 15.394531 9.390625 18.988281 12.546875 23.3125 Z M 9.34375 26.734375 "/>
</symbol>
<symbol overflow="visible" id="id0:glyph0-4">
<path style="stroke:none;" d="M 49.28125 1.4375 L 44.109375 -2.640625 C 40.078125 -9.015625 35.398438 -13.832031 30.078125 -17.09375 C 24.765625 -20.363281 18.332031 -22.550781 10.78125 -23.65625 L 5.171875 -36.078125 C 7.804688 -37.910156 10.957031 -39.867188 14.625 -41.953125 C 18.289062 -44.046875 21.703125 -45.863281 24.859375 -47.40625 C 21.703125 -49.53125 18.507812 -51.234375 15.28125 -52.515625 C 12.0625 -53.804688 8.765625 -54.632812 5.390625 -55 L -3.1875 -68.421875 L 58.078125 -68.421875 L 61.8125 -62.703125 L 49.828125 -62.703125 L 49.828125 1.3125 Z M 43.890625 -62.703125 L 10.78125 -62.703125 C 14.226562 -61.304688 17.582031 -59.523438 20.84375 -57.359375 C 24.101562 -55.203125 27.179688 -52.910156 30.078125 -50.484375 C 32.984375 -48.066406 35.625 -45.679688 38 -43.328125 C 40.382812 -40.984375 42.347656 -38.894531 43.890625 -37.0625 Z M 16.28125 -31.234375 C 19.289062 -30.285156 22.515625 -28.96875 25.953125 -27.28125 C 29.398438 -25.59375 32.703125 -23.410156 35.859375 -20.734375 C 39.015625 -18.054688 41.691406 -14.738281 43.890625 -10.78125 L 43.890625 -30.359375 C 42.128906 -32.265625 40.367188 -34.097656 38.609375 -35.859375 C 36.847656 -37.617188 35.085938 -39.269531 33.328125 -40.8125 C 30.835938 -39.632812 27.976562 -38.144531 24.75 -36.34375 C 21.519531 -34.550781 18.695312 -32.847656 16.28125 -31.234375 Z M 16.28125 -31.234375 "/>
</symbol>
</g>
<g>
<symbol overflow="visible" id="id1:glyph0-0">
<path style="stroke:none;" d="M 5.375 -96.6875 L 69.828125 -96.6875 L 69.828125 0 L 5.375 0 Z M 8.0625 -2.6875 L 67.140625 -2.6875 L 67.140625 -94 L 8.0625 -94 Z M 8.0625 -2.6875 "/>
</symbol>
<symbol overflow="visible" id="id1:glyph0-1">
<path style="stroke:none;" d="M 68.15625 -13.75 L 66.28125 -18.640625 L 88.09375 -27.390625 L 6.984375 -27.390625 L 6.984375 -34 L 88.09375 -34 L 66.28125 -42.75 L 68.15625 -47.640625 L 99.09375 -34.265625 L 99.09375 -27.125 Z M 68.15625 -13.75 "/>
</symbol>
</g>
<g>
<symbol overflow="visible" id="id2:glyph0-0">
<path style="stroke:none;" d="M 10.34375 0 L 10.34375 -78.546875 L 55.546875 -78.546875 L 55.546875 0 Z M 15.953125 -5.609375 L 49.9375 -5.609375 L 49.9375 -72.9375 L 15.953125 -72.9375 Z M 15.953125 -5.609375 "/>
</symbol>
<symbol overflow="visible" id="id2:glyph0-1">
<path style="stroke:none;" d="M 54.015625 1.4375 L 48.84375 -2.640625 C 47.300781 -7.554688 45.226562 -11.789062 42.625 -15.34375 C 40.019531 -18.90625 37.066406 -21.234375 33.765625 -22.328125 C 33.472656 -20.347656 32.738281 -18.566406 31.5625 -16.984375 C 30.394531 -15.410156 28.523438 -14.625 25.953125 -14.625 C 23.460938 -14.625 21.503906 -15.445312 20.078125 -17.09375 C 18.648438 -18.75 17.9375 -20.710938 17.9375 -22.984375 C 17.9375 -25.554688 18.757812 -27.6875 20.40625 -29.375 C 22.050781 -31.0625 24.453125 -31.90625 27.609375 -31.90625 C 28.046875 -31.90625 28.488281 -31.867188 28.9375 -31.796875 C 28.34375 -34.578125 27.035156 -36.863281 25.015625 -38.65625 C 23.003906 -40.457031 20.9375 -41.613281 18.8125 -42.125 C 18.300781 -40.144531 17.4375 -38.550781 16.21875 -37.34375 C 15.007812 -36.132812 13.195312 -35.53125 10.78125 -35.53125 C 8.363281 -35.53125 6.457031 -36.335938 5.0625 -37.953125 C 3.664062 -39.566406 2.96875 -41.546875 2.96875 -43.890625 C 2.96875 -46.453125 3.8125 -48.519531 5.5 -50.09375 C 7.1875 -51.675781 9.609375 -52.46875 12.765625 -52.46875 C 13.203125 -52.46875 13.640625 -52.429688 14.078125 -52.359375 C 13.347656 -54.992188 11.953125 -57.15625 9.890625 -58.84375 C 7.835938 -60.53125 5.53125 -61.816406 2.96875 -62.703125 L 0.546875 -62.703125 L -3.1875 -68.421875 L 82.609375 -68.421875 L 86.34375 -62.703125 L 54.5625 -62.703125 L 54.5625 -48.953125 C 55.4375 -49.171875 56.347656 -49.351562 57.296875 -49.5 C 58.253906 -49.644531 59.25 -49.71875 60.28125 -49.71875 C 66.363281 -49.71875 71.203125 -48.066406 74.796875 -44.765625 C 78.390625 -41.460938 80.1875 -36.84375 80.1875 -30.90625 C 80.1875 -26.726562 79.320312 -23.484375 77.59375 -21.171875 C 75.875 -18.859375 73.515625 -17.703125 70.515625 -17.703125 C 67.941406 -17.703125 65.867188 -18.453125 64.296875 -19.953125 C 62.722656 -21.460938 61.9375 -23.425781 61.9375 -25.84375 C 61.9375 -27.976562 62.578125 -29.757812 63.859375 -31.1875 C 65.140625 -32.613281 66.914062 -33.328125 69.1875 -33.328125 C 70.726562 -33.328125 71.972656 -32.976562 72.921875 -32.28125 C 73.878906 -31.582031 74.578125 -30.757812 75.015625 -29.8125 C 75.234375 -30.46875 75.34375 -31.203125 75.34375 -32.015625 C 75.34375 -35.015625 74.554688 -37.335938 72.984375 -38.984375 C 71.410156 -40.640625 69.226562 -41.46875 66.4375 -41.46875 C 64.164062 -41.46875 62.148438 -41.0625 60.390625 -40.25 C 58.628906 -39.445312 56.6875 -38.753906 54.5625 -38.171875 L 54.5625 1.3125 Z M 30.6875 -53.5625 L 30.6875 -62.703125 L 13.421875 -62.703125 C 14.671875 -61.523438 15.878906 -60 17.046875 -58.125 C 18.222656 -56.257812 18.921875 -53.863281 19.140625 -50.9375 C 22.660156 -49.394531 25.796875 -46.789062 28.546875 -43.125 C 31.296875 -39.457031 32.960938 -35.273438 33.546875 -30.578125 C 36.703125 -29.179688 39.597656 -26.796875 42.234375 -23.421875 C 44.878906 -20.054688 47.082031 -16.132812 48.84375 -11.65625 C 48.769531 -14.082031 48.710938 -16.554688 48.671875 -19.078125 C 48.640625 -21.609375 48.625 -23.828125 48.625 -25.734375 L 48.625 -37.40625 C 44.738281 -37.40625 41.457031 -38.171875 38.78125 -39.703125 C 36.101562 -41.242188 34.082031 -43.257812 32.71875 -45.75 C 31.363281 -48.25 30.6875 -50.851562 30.6875 -53.5625 Z M 36.625 -49.9375 C 36.625 -48.25 37.082031 -47 38 -46.1875 C 38.914062 -45.382812 40.070312 -44.984375 41.46875 -44.984375 C 42.644531 -44.984375 43.816406 -45.164062 44.984375 -45.53125 C 46.160156 -45.90625 47.375 -46.347656 48.625 -46.859375 L 48.625 -62.703125 L 36.625 -62.703125 Z M 36.625 -49.9375 "/>
</symbol>
</g>
</defs>
  <g id="id0:id0" transform="matrix(1.25,0,0,1.25,0.0,0.0)"><g id="id0:surface1">
<g style="fill:rgb(0%,0%,0%);fill-opacity:1;">
  <use xlink:href="#id0:glyph0-1" x="16" y="122.125"/>
  <use xlink:href="#id0:glyph0-2" x="93.328125" y="122.125"/>
  <use xlink:href="#id0:glyph0-3" x="134.46875" y="122.125"/>
  <use xlink:href="#id0:glyph0-4" x="159.109375" y="122.125"/>
</g>
</g>
</g>
  <g id="id1:id1" transform="matrix(1.25,0,0,1.25,292.16796875,11.38671875)"><g id="id1:surface1">
<g style="fill:rgb(0%,0%,0%);fill-opacity:1;">
  <use xlink:href="#id1:glyph0-1" x="0" y="120.84375"/>
</g>
</g>
</g>
  <g id="id2:id2" transform="matrix(1.25,0,0,1.25,424.765625,0.0)"><g id="id2:surface1">
<g style="fill:rgb(0%,0%,0%);fill-opacity:1;">
  <use xlink:href="#id2:glyph0-1" x="16" y="122.125"/>
</g>
</g>
</g>
</svg>
