<!DOCTYPE svg PUBLIC "-//W3C//DTD SVG 1.1//EN" "http://www.w3.org/Graphics/SVG/1.1/DTD/svg11.dtd">
<!-- Created with svg_stack (http://github.com/astraw/svg_stack) --><svg xmlns="http://www.w3.org/2000/svg" xmlns:sodipodi="http://sodipodi.sourceforge.net/DTD/sodipodi-0.dtd" xmlns:xlink="http://www.w3.org/1999/xlink" version="1.1" width="100%" id="bengali-abvs" viewBox="0 0 444.4140625 224.1796875">
  <defs><g>
<symbol overflow="visible" id="bengali-abvs:id0:glyph0-0">
<path style="stroke:none;" d="M 10.34375 0 L 10.34375 -78.546875 L 55.546875 -78.546875 L 55.546875 0 Z M 15.953125 -5.609375 L 49.9375 -5.609375 L 49.9375 -72.9375 L 15.953125 -72.9375 Z M 15.953125 -5.609375 "/>
</symbol>
<symbol overflow="visible" id="bengali-abvs:id0:glyph0-1">
<path style="stroke:none;" d="M 32.890625 -53.6875 C 32.160156 -53.6875 31.5 -53.976562 30.90625 -54.5625 C 30.320312 -55.144531 30.03125 -55.804688 30.03125 -56.546875 C 30.03125 -57.347656 30.320312 -58.023438 30.90625 -58.578125 C 31.5 -59.128906 32.160156 -59.40625 32.890625 -59.40625 C 33.691406 -59.40625 34.367188 -59.128906 34.921875 -58.578125 C 35.472656 -58.023438 35.75 -57.347656 35.75 -56.546875 C 35.75 -55.804688 35.472656 -55.144531 34.921875 -54.5625 C 34.367188 -53.976562 33.691406 -53.6875 32.890625 -53.6875 Z M 23.65625 -51.703125 C 22.914062 -51.703125 22.253906 -51.992188 21.671875 -52.578125 C 21.085938 -53.160156 20.796875 -53.820312 20.796875 -54.5625 C 20.796875 -55.363281 21.085938 -56.039062 21.671875 -56.59375 C 22.253906 -57.144531 22.914062 -57.421875 23.65625 -57.421875 C 24.457031 -57.421875 25.132812 -57.144531 25.6875 -56.59375 C 26.238281 -56.039062 26.515625 -55.363281 26.515625 -54.5625 C 26.515625 -53.820312 26.238281 -53.160156 25.6875 -52.578125 C 25.132812 -51.992188 24.457031 -51.703125 23.65625 -51.703125 Z M 42.125 -51.703125 C 41.394531 -51.703125 40.734375 -51.992188 40.140625 -52.578125 C 39.554688 -53.160156 39.265625 -53.820312 39.265625 -54.5625 C 39.265625 -55.363281 39.554688 -56.039062 40.140625 -56.59375 C 40.734375 -57.144531 41.394531 -57.421875 42.125 -57.421875 C 42.9375 -57.421875 43.613281 -57.144531 44.15625 -56.59375 C 44.707031 -56.039062 44.984375 -55.363281 44.984375 -54.5625 C 44.984375 -53.820312 44.707031 -53.160156 44.15625 -52.578125 C 43.613281 -51.992188 42.9375 -51.703125 42.125 -51.703125 Z M 50.265625 -46.53125 C 49.535156 -46.53125 48.875 -46.820312 48.28125 -47.40625 C 47.695312 -48 47.40625 -48.660156 47.40625 -49.390625 C 47.40625 -50.191406 47.695312 -50.867188 48.28125 -51.421875 C 48.875 -51.972656 49.535156 -52.25 50.265625 -52.25 C 51.078125 -52.25 51.753906 -51.972656 52.296875 -51.421875 C 52.847656 -50.867188 53.125 -50.191406 53.125 -49.390625 C 53.125 -48.660156 52.847656 -48 52.296875 -47.40625 C 51.753906 -46.820312 51.078125 -46.53125 50.265625 -46.53125 Z M 15.515625 -46.53125 C 14.773438 -46.53125 14.113281 -46.820312 13.53125 -47.40625 C 12.945312 -48 12.65625 -48.660156 12.65625 -49.390625 C 12.65625 -50.191406 12.945312 -50.867188 13.53125 -51.421875 C 14.113281 -51.972656 14.773438 -52.25 15.515625 -52.25 C 16.316406 -52.25 16.992188 -51.972656 17.546875 -51.421875 C 18.097656 -50.867188 18.375 -50.191406 18.375 -49.390625 C 18.375 -48.660156 18.097656 -48 17.546875 -47.40625 C 16.992188 -46.820312 16.316406 -46.53125 15.515625 -46.53125 Z M 10.34375 -38.390625 C 9.601562 -38.390625 8.941406 -38.679688 8.359375 -39.265625 C 7.773438 -39.859375 7.484375 -40.519531 7.484375 -41.25 C 7.484375 -42.050781 7.773438 -42.726562 8.359375 -43.28125 C 8.941406 -43.832031 9.601562 -44.109375 10.34375 -44.109375 C 11.144531 -44.109375 11.820312 -43.832031 12.375 -43.28125 C 12.925781 -42.726562 13.203125 -42.050781 13.203125 -41.25 C 13.203125 -40.519531 12.925781 -39.859375 12.375 -39.265625 C 11.820312 -38.679688 11.144531 -38.390625 10.34375 -38.390625 Z M 55.4375 -38.390625 C 54.707031 -38.390625 54.046875 -38.679688 53.453125 -39.265625 C 52.867188 -39.859375 52.578125 -40.519531 52.578125 -41.25 C 52.578125 -42.050781 52.867188 -42.726562 53.453125 -43.28125 C 54.046875 -43.832031 54.707031 -44.109375 55.4375 -44.109375 C 56.25 -44.109375 56.925781 -43.832031 57.46875 -43.28125 C 58.019531 -42.726562 58.296875 -42.050781 58.296875 -41.25 C 58.296875 -40.519531 58.019531 -39.859375 57.46875 -39.265625 C 56.925781 -38.679688 56.25 -38.390625 55.4375 -38.390625 Z M 8.359375 -29.15625 C 7.628906 -29.15625 6.96875 -29.445312 6.375 -30.03125 C 5.789062 -30.613281 5.5 -31.273438 5.5 -32.015625 C 5.5 -32.816406 5.789062 -33.492188 6.375 -34.046875 C 6.96875 -34.597656 7.628906 -34.875 8.359375 -34.875 C 9.160156 -34.875 9.835938 -34.597656 10.390625 -34.046875 C 10.941406 -33.492188 11.21875 -32.816406 11.21875 -32.015625 C 11.21875 -31.273438 10.941406 -30.613281 10.390625 -30.03125 C 9.835938 -29.445312 9.160156 -29.15625 8.359375 -29.15625 Z M 57.421875 -29.15625 C 56.679688 -29.15625 56.019531 -29.445312 55.4375 -30.03125 C 54.851562 -30.613281 54.5625 -31.273438 54.5625 -32.015625 C 54.5625 -32.816406 54.851562 -33.492188 55.4375 -34.046875 C 56.019531 -34.597656 56.679688 -34.875 57.421875 -34.875 C 58.222656 -34.875 58.898438 -34.597656 59.453125 -34.046875 C 60.003906 -33.492188 60.28125 -32.816406 60.28125 -32.015625 C 60.28125 -31.273438 60.003906 -30.613281 59.453125 -30.03125 C 58.898438 -29.445312 58.222656 -29.15625 57.421875 -29.15625 Z M 10.34375 -19.90625 C 9.601562 -19.90625 8.941406 -20.195312 8.359375 -20.78125 C 7.773438 -21.375 7.484375 -22.035156 7.484375 -22.765625 C 7.484375 -23.578125 7.773438 -24.253906 8.359375 -24.796875 C 8.941406 -25.347656 9.601562 -25.625 10.34375 -25.625 C 11.144531 -25.625 11.820312 -25.347656 12.375 -24.796875 C 12.925781 -24.253906 13.203125 -23.578125 13.203125 -22.765625 C 13.203125 -22.035156 12.925781 -21.375 12.375 -20.78125 C 11.820312 -20.195312 11.144531 -19.90625 10.34375 -19.90625 Z M 55.4375 -19.90625 C 54.707031 -19.90625 54.046875 -20.195312 53.453125 -20.78125 C 52.867188 -21.375 52.578125 -22.035156 52.578125 -22.765625 C 52.578125 -23.578125 52.867188 -24.253906 53.453125 -24.796875 C 54.046875 -25.347656 54.707031 -25.625 55.4375 -25.625 C 56.25 -25.625 56.925781 -25.347656 57.46875 -24.796875 C 58.019531 -24.253906 58.296875 -23.578125 58.296875 -22.765625 C 58.296875 -22.035156 58.019531 -21.375 57.46875 -20.78125 C 56.925781 -20.195312 56.25 -19.90625 55.4375 -19.90625 Z M 15.515625 -11.765625 C 14.773438 -11.765625 14.113281 -12.054688 13.53125 -12.640625 C 12.945312 -13.234375 12.65625 -13.894531 12.65625 -14.625 C 12.65625 -15.4375 12.945312 -16.113281 13.53125 -16.65625 C 14.113281 -17.207031 14.773438 -17.484375 15.515625 -17.484375 C 16.316406 -17.484375 16.992188 -17.207031 17.546875 -16.65625 C 18.097656 -16.113281 18.375 -15.4375 18.375 -14.625 C 18.375 -13.894531 18.097656 -13.234375 17.546875 -12.640625 C 16.992188 -12.054688 16.316406 -11.765625 15.515625 -11.765625 Z M 50.265625 -11.765625 C 49.535156 -11.765625 48.875 -12.054688 48.28125 -12.640625 C 47.695312 -13.234375 47.40625 -13.894531 47.40625 -14.625 C 47.40625 -15.4375 47.695312 -16.113281 48.28125 -16.65625 C 48.875 -17.207031 49.535156 -17.484375 50.265625 -17.484375 C 51.078125 -17.484375 51.753906 -17.207031 52.296875 -16.65625 C 52.847656 -16.113281 53.125 -15.4375 53.125 -14.625 C 53.125 -13.894531 52.847656 -13.234375 52.296875 -12.640625 C 51.753906 -12.054688 51.078125 -11.765625 50.265625 -11.765625 Z M 23.65625 -6.59375 C 22.914062 -6.59375 22.253906 -6.882812 21.671875 -7.46875 C 21.085938 -8.0625 20.796875 -8.722656 20.796875 -9.453125 C 20.796875 -10.265625 21.085938 -10.941406 21.671875 -11.484375 C 22.253906 -12.035156 22.914062 -12.3125 23.65625 -12.3125 C 24.457031 -12.3125 25.132812 -12.035156 25.6875 -11.484375 C 26.238281 -10.941406 26.515625 -10.265625 26.515625 -9.453125 C 26.515625 -8.722656 26.238281 -8.0625 25.6875 -7.46875 C 25.132812 -6.882812 24.457031 -6.59375 23.65625 -6.59375 Z M 42.125 -6.59375 C 41.394531 -6.59375 40.734375 -6.882812 40.140625 -7.46875 C 39.554688 -8.0625 39.265625 -8.722656 39.265625 -9.453125 C 39.265625 -10.265625 39.554688 -10.941406 40.140625 -11.484375 C 40.734375 -12.035156 41.394531 -12.3125 42.125 -12.3125 C 42.9375 -12.3125 43.613281 -12.035156 44.15625 -11.484375 C 44.707031 -10.941406 44.984375 -10.265625 44.984375 -9.453125 C 44.984375 -8.722656 44.707031 -8.0625 44.15625 -7.46875 C 43.613281 -6.882812 42.9375 -6.59375 42.125 -6.59375 Z M 32.890625 -4.625 C 32.160156 -4.625 31.5 -4.914062 30.90625 -5.5 C 30.320312 -6.082031 30.03125 -6.742188 30.03125 -7.484375 C 30.03125 -8.285156 30.320312 -8.960938 30.90625 -9.515625 C 31.5 -10.066406 32.160156 -10.34375 32.890625 -10.34375 C 33.691406 -10.34375 34.367188 -10.066406 34.921875 -9.515625 C 35.472656 -8.960938 35.75 -8.285156 35.75 -7.484375 C 35.75 -6.742188 35.472656 -6.082031 34.921875 -5.5 C 34.367188 -4.914062 33.691406 -4.625 32.890625 -4.625 Z M 32.890625 -4.625 "/>
</symbol>
<symbol overflow="visible" id="bengali-abvs:id0:glyph0-2">
<path style="stroke:none;" d="M -10.5625 -76.453125 L -17.375 -83.15625 L 10.015625 -102.40625 L 13.3125 -100.765625 Z M -10.5625 -76.453125 "/>
</symbol>
<symbol overflow="visible" id="bengali-abvs:id0:glyph0-3">
<path style="stroke:none;" d="M 14.40625 2.75 L 8.796875 -0.328125 L 8.796875 -62.703125 L 0.4375 -62.703125 L -3.1875 -68.421875 L 8.796875 -68.421875 C 8.578125 -74.796875 6.910156 -79.78125 3.796875 -83.375 C 0.679688 -86.96875 -3.421875 -89.5 -8.515625 -90.96875 C -13.617188 -92.4375 -19.320312 -93.171875 -25.625 -93.171875 C -31.9375 -93.171875 -37.015625 -92.691406 -40.859375 -91.734375 C -44.710938 -90.785156 -46.640625 -89.285156 -46.640625 -87.234375 C -46.640625 -86.054688 -46.109375 -85.210938 -45.046875 -84.703125 C -43.984375 -84.191406 -41.875 -83.9375 -38.71875 -83.9375 C -35.707031 -83.9375 -33.03125 -84.0625 -30.6875 -84.3125 C -28.34375 -84.570312 -25.847656 -84.703125 -23.203125 -84.703125 C -19.390625 -84.703125 -16.109375 -83.65625 -13.359375 -81.5625 C -10.609375 -79.476562 -9.085938 -76.125 -8.796875 -71.5 L -8.578125 -67.984375 L -14.734375 -67.984375 C -14.734375 -72.085938 -15.359375 -74.742188 -16.609375 -75.953125 C -17.859375 -77.160156 -19.65625 -77.765625 -22 -77.765625 C -24.488281 -77.765625 -27.109375 -77.488281 -29.859375 -76.9375 C -32.609375 -76.394531 -35.597656 -76.125 -38.828125 -76.125 C -40.804688 -76.125 -42.800781 -76.429688 -44.8125 -77.046875 C -46.832031 -77.671875 -48.519531 -78.769531 -49.875 -80.34375 C -51.238281 -81.925781 -51.921875 -84.113281 -51.921875 -86.90625 C -51.921875 -91.226562 -49.609375 -94.65625 -44.984375 -97.1875 C -40.367188 -99.71875 -34.023438 -100.984375 -25.953125 -100.984375 C -17.890625 -100.984375 -10.8125 -99.753906 -4.71875 -97.296875 C 1.363281 -94.835938 6.125 -90.875 9.5625 -85.40625 C 13.007812 -79.945312 14.734375 -72.707031 14.734375 -63.6875 L 14.734375 2.640625 Z M 14.40625 2.75 "/>
</symbol>
<symbol overflow="visible" id="bengali-abvs:id0:glyph0-4">
<path style="stroke:none;" d="M -2.96875 -92.515625 C -4.4375 -92.515625 -5.738281 -92.953125 -6.875 -93.828125 C -8.007812 -94.710938 -8.578125 -96.035156 -8.578125 -97.796875 C -8.578125 -99.398438 -8.023438 -100.695312 -6.921875 -101.6875 C -5.828125 -102.6875 -4.507812 -103.1875 -2.96875 -103.1875 C -1.5 -103.1875 -0.253906 -102.6875 0.765625 -101.6875 C 1.796875 -100.695312 2.3125 -99.398438 2.3125 -97.796875 C 2.3125 -96.035156 1.796875 -94.710938 0.765625 -93.828125 C -0.253906 -92.953125 -1.5 -92.515625 -2.96875 -92.515625 Z M -2.640625 -79.75 C -6.234375 -79.75 -9.164062 -80.484375 -11.4375 -81.953125 C -13.707031 -83.421875 -15.519531 -85.414062 -16.875 -87.9375 C -18.238281 -90.46875 -19.359375 -93.382812 -20.234375 -96.6875 L -16.609375 -98.34375 C -15.734375 -96.507812 -14.757812 -94.765625 -13.6875 -93.109375 C -12.625 -91.460938 -11.25 -90.125 -9.5625 -89.09375 C -7.882812 -88.070312 -5.6875 -87.5625 -2.96875 -87.5625 C -0.257812 -87.5625 1.953125 -88.070312 3.671875 -89.09375 C 5.398438 -90.125 6.757812 -91.460938 7.75 -93.109375 C 8.738281 -94.765625 9.53125 -96.507812 10.125 -98.34375 L 13.859375 -96.6875 C 12.828125 -91.769531 11.082031 -87.71875 8.625 -84.53125 C 6.175781 -81.34375 2.421875 -79.75 -2.640625 -79.75 Z M -2.640625 -79.75 "/>
</symbol>
</g>
<g>
<symbol overflow="visible" id="bengali-abvs:id1:glyph0-0">
<path style="stroke:none;" d="M 5.375 -96.6875 L 69.828125 -96.6875 L 69.828125 0 L 5.375 0 Z M 8.0625 -2.6875 L 67.140625 -2.6875 L 67.140625 -94 L 8.0625 -94 Z M 8.0625 -2.6875 "/>
</symbol>
<symbol overflow="visible" id="bengali-abvs:id1:glyph0-1">
<path style="stroke:none;" d="M 68.15625 -13.75 L 66.28125 -18.640625 L 88.09375 -27.390625 L 6.984375 -27.390625 L 6.984375 -34 L 88.09375 -34 L 66.28125 -42.75 L 68.15625 -47.640625 L 99.09375 -34.265625 L 99.09375 -27.125 Z M 68.15625 -13.75 "/>
</symbol>
</g>
<g>
<symbol overflow="visible" id="bengali-abvs:id2:glyph0-0">
<path style="stroke:none;" d="M 10.34375 0 L 10.34375 -78.546875 L 55.546875 -78.546875 L 55.546875 0 Z M 15.953125 -5.609375 L 49.9375 -5.609375 L 49.9375 -72.9375 L 15.953125 -72.9375 Z M 15.953125 -5.609375 "/>
</symbol>
<symbol overflow="visible" id="bengali-abvs:id2:glyph0-1">
<path style="stroke:none;" d="M 32.890625 -53.6875 C 32.160156 -53.6875 31.5 -53.976562 30.90625 -54.5625 C 30.320312 -55.144531 30.03125 -55.804688 30.03125 -56.546875 C 30.03125 -57.347656 30.320312 -58.023438 30.90625 -58.578125 C 31.5 -59.128906 32.160156 -59.40625 32.890625 -59.40625 C 33.691406 -59.40625 34.367188 -59.128906 34.921875 -58.578125 C 35.472656 -58.023438 35.75 -57.347656 35.75 -56.546875 C 35.75 -55.804688 35.472656 -55.144531 34.921875 -54.5625 C 34.367188 -53.976562 33.691406 -53.6875 32.890625 -53.6875 Z M 23.65625 -51.703125 C 22.914062 -51.703125 22.253906 -51.992188 21.671875 -52.578125 C 21.085938 -53.160156 20.796875 -53.820312 20.796875 -54.5625 C 20.796875 -55.363281 21.085938 -56.039062 21.671875 -56.59375 C 22.253906 -57.144531 22.914062 -57.421875 23.65625 -57.421875 C 24.457031 -57.421875 25.132812 -57.144531 25.6875 -56.59375 C 26.238281 -56.039062 26.515625 -55.363281 26.515625 -54.5625 C 26.515625 -53.820312 26.238281 -53.160156 25.6875 -52.578125 C 25.132812 -51.992188 24.457031 -51.703125 23.65625 -51.703125 Z M 42.125 -51.703125 C 41.394531 -51.703125 40.734375 -51.992188 40.140625 -52.578125 C 39.554688 -53.160156 39.265625 -53.820312 39.265625 -54.5625 C 39.265625 -55.363281 39.554688 -56.039062 40.140625 -56.59375 C 40.734375 -57.144531 41.394531 -57.421875 42.125 -57.421875 C 42.9375 -57.421875 43.613281 -57.144531 44.15625 -56.59375 C 44.707031 -56.039062 44.984375 -55.363281 44.984375 -54.5625 C 44.984375 -53.820312 44.707031 -53.160156 44.15625 -52.578125 C 43.613281 -51.992188 42.9375 -51.703125 42.125 -51.703125 Z M 50.265625 -46.53125 C 49.535156 -46.53125 48.875 -46.820312 48.28125 -47.40625 C 47.695312 -48 47.40625 -48.660156 47.40625 -49.390625 C 47.40625 -50.191406 47.695312 -50.867188 48.28125 -51.421875 C 48.875 -51.972656 49.535156 -52.25 50.265625 -52.25 C 51.078125 -52.25 51.753906 -51.972656 52.296875 -51.421875 C 52.847656 -50.867188 53.125 -50.191406 53.125 -49.390625 C 53.125 -48.660156 52.847656 -48 52.296875 -47.40625 C 51.753906 -46.820312 51.078125 -46.53125 50.265625 -46.53125 Z M 15.515625 -46.53125 C 14.773438 -46.53125 14.113281 -46.820312 13.53125 -47.40625 C 12.945312 -48 12.65625 -48.660156 12.65625 -49.390625 C 12.65625 -50.191406 12.945312 -50.867188 13.53125 -51.421875 C 14.113281 -51.972656 14.773438 -52.25 15.515625 -52.25 C 16.316406 -52.25 16.992188 -51.972656 17.546875 -51.421875 C 18.097656 -50.867188 18.375 -50.191406 18.375 -49.390625 C 18.375 -48.660156 18.097656 -48 17.546875 -47.40625 C 16.992188 -46.820312 16.316406 -46.53125 15.515625 -46.53125 Z M 10.34375 -38.390625 C 9.601562 -38.390625 8.941406 -38.679688 8.359375 -39.265625 C 7.773438 -39.859375 7.484375 -40.519531 7.484375 -41.25 C 7.484375 -42.050781 7.773438 -42.726562 8.359375 -43.28125 C 8.941406 -43.832031 9.601562 -44.109375 10.34375 -44.109375 C 11.144531 -44.109375 11.820312 -43.832031 12.375 -43.28125 C 12.925781 -42.726562 13.203125 -42.050781 13.203125 -41.25 C 13.203125 -40.519531 12.925781 -39.859375 12.375 -39.265625 C 11.820312 -38.679688 11.144531 -38.390625 10.34375 -38.390625 Z M 55.4375 -38.390625 C 54.707031 -38.390625 54.046875 -38.679688 53.453125 -39.265625 C 52.867188 -39.859375 52.578125 -40.519531 52.578125 -41.25 C 52.578125 -42.050781 52.867188 -42.726562 53.453125 -43.28125 C 54.046875 -43.832031 54.707031 -44.109375 55.4375 -44.109375 C 56.25 -44.109375 56.925781 -43.832031 57.46875 -43.28125 C 58.019531 -42.726562 58.296875 -42.050781 58.296875 -41.25 C 58.296875 -40.519531 58.019531 -39.859375 57.46875 -39.265625 C 56.925781 -38.679688 56.25 -38.390625 55.4375 -38.390625 Z M 8.359375 -29.15625 C 7.628906 -29.15625 6.96875 -29.445312 6.375 -30.03125 C 5.789062 -30.613281 5.5 -31.273438 5.5 -32.015625 C 5.5 -32.816406 5.789062 -33.492188 6.375 -34.046875 C 6.96875 -34.597656 7.628906 -34.875 8.359375 -34.875 C 9.160156 -34.875 9.835938 -34.597656 10.390625 -34.046875 C 10.941406 -33.492188 11.21875 -32.816406 11.21875 -32.015625 C 11.21875 -31.273438 10.941406 -30.613281 10.390625 -30.03125 C 9.835938 -29.445312 9.160156 -29.15625 8.359375 -29.15625 Z M 57.421875 -29.15625 C 56.679688 -29.15625 56.019531 -29.445312 55.4375 -30.03125 C 54.851562 -30.613281 54.5625 -31.273438 54.5625 -32.015625 C 54.5625 -32.816406 54.851562 -33.492188 55.4375 -34.046875 C 56.019531 -34.597656 56.679688 -34.875 57.421875 -34.875 C 58.222656 -34.875 58.898438 -34.597656 59.453125 -34.046875 C 60.003906 -33.492188 60.28125 -32.816406 60.28125 -32.015625 C 60.28125 -31.273438 60.003906 -30.613281 59.453125 -30.03125 C 58.898438 -29.445312 58.222656 -29.15625 57.421875 -29.15625 Z M 10.34375 -19.90625 C 9.601562 -19.90625 8.941406 -20.195312 8.359375 -20.78125 C 7.773438 -21.375 7.484375 -22.035156 7.484375 -22.765625 C 7.484375 -23.578125 7.773438 -24.253906 8.359375 -24.796875 C 8.941406 -25.347656 9.601562 -25.625 10.34375 -25.625 C 11.144531 -25.625 11.820312 -25.347656 12.375 -24.796875 C 12.925781 -24.253906 13.203125 -23.578125 13.203125 -22.765625 C 13.203125 -22.035156 12.925781 -21.375 12.375 -20.78125 C 11.820312 -20.195312 11.144531 -19.90625 10.34375 -19.90625 Z M 55.4375 -19.90625 C 54.707031 -19.90625 54.046875 -20.195312 53.453125 -20.78125 C 52.867188 -21.375 52.578125 -22.035156 52.578125 -22.765625 C 52.578125 -23.578125 52.867188 -24.253906 53.453125 -24.796875 C 54.046875 -25.347656 54.707031 -25.625 55.4375 -25.625 C 56.25 -25.625 56.925781 -25.347656 57.46875 -24.796875 C 58.019531 -24.253906 58.296875 -23.578125 58.296875 -22.765625 C 58.296875 -22.035156 58.019531 -21.375 57.46875 -20.78125 C 56.925781 -20.195312 56.25 -19.90625 55.4375 -19.90625 Z M 15.515625 -11.765625 C 14.773438 -11.765625 14.113281 -12.054688 13.53125 -12.640625 C 12.945312 -13.234375 12.65625 -13.894531 12.65625 -14.625 C 12.65625 -15.4375 12.945312 -16.113281 13.53125 -16.65625 C 14.113281 -17.207031 14.773438 -17.484375 15.515625 -17.484375 C 16.316406 -17.484375 16.992188 -17.207031 17.546875 -16.65625 C 18.097656 -16.113281 18.375 -15.4375 18.375 -14.625 C 18.375 -13.894531 18.097656 -13.234375 17.546875 -12.640625 C 16.992188 -12.054688 16.316406 -11.765625 15.515625 -11.765625 Z M 50.265625 -11.765625 C 49.535156 -11.765625 48.875 -12.054688 48.28125 -12.640625 C 47.695312 -13.234375 47.40625 -13.894531 47.40625 -14.625 C 47.40625 -15.4375 47.695312 -16.113281 48.28125 -16.65625 C 48.875 -17.207031 49.535156 -17.484375 50.265625 -17.484375 C 51.078125 -17.484375 51.753906 -17.207031 52.296875 -16.65625 C 52.847656 -16.113281 53.125 -15.4375 53.125 -14.625 C 53.125 -13.894531 52.847656 -13.234375 52.296875 -12.640625 C 51.753906 -12.054688 51.078125 -11.765625 50.265625 -11.765625 Z M 23.65625 -6.59375 C 22.914062 -6.59375 22.253906 -6.882812 21.671875 -7.46875 C 21.085938 -8.0625 20.796875 -8.722656 20.796875 -9.453125 C 20.796875 -10.265625 21.085938 -10.941406 21.671875 -11.484375 C 22.253906 -12.035156 22.914062 -12.3125 23.65625 -12.3125 C 24.457031 -12.3125 25.132812 -12.035156 25.6875 -11.484375 C 26.238281 -10.941406 26.515625 -10.265625 26.515625 -9.453125 C 26.515625 -8.722656 26.238281 -8.0625 25.6875 -7.46875 C 25.132812 -6.882812 24.457031 -6.59375 23.65625 -6.59375 Z M 42.125 -6.59375 C 41.394531 -6.59375 40.734375 -6.882812 40.140625 -7.46875 C 39.554688 -8.0625 39.265625 -8.722656 39.265625 -9.453125 C 39.265625 -10.265625 39.554688 -10.941406 40.140625 -11.484375 C 40.734375 -12.035156 41.394531 -12.3125 42.125 -12.3125 C 42.9375 -12.3125 43.613281 -12.035156 44.15625 -11.484375 C 44.707031 -10.941406 44.984375 -10.265625 44.984375 -9.453125 C 44.984375 -8.722656 44.707031 -8.0625 44.15625 -7.46875 C 43.613281 -6.882812 42.9375 -6.59375 42.125 -6.59375 Z M 32.890625 -4.625 C 32.160156 -4.625 31.5 -4.914062 30.90625 -5.5 C 30.320312 -6.082031 30.03125 -6.742188 30.03125 -7.484375 C 30.03125 -8.285156 30.320312 -8.960938 30.90625 -9.515625 C 31.5 -10.066406 32.160156 -10.34375 32.890625 -10.34375 C 33.691406 -10.34375 34.367188 -10.066406 34.921875 -9.515625 C 35.472656 -8.960938 35.75 -8.285156 35.75 -7.484375 C 35.75 -6.742188 35.472656 -6.082031 34.921875 -5.5 C 34.367188 -4.914062 33.691406 -4.625 32.890625 -4.625 Z M 32.890625 -4.625 "/>
</symbol>
<symbol overflow="visible" id="bengali-abvs:id2:glyph0-2">
<path style="stroke:none;" d="M 1.09375 -102.1875 C -0.289062 -102.1875 -1.550781 -102.625 -2.6875 -103.5 C -3.832031 -104.382812 -4.40625 -105.671875 -4.40625 -107.359375 C -4.40625 -108.898438 -3.851562 -110.164062 -2.75 -111.15625 C -1.644531 -112.144531 -0.363281 -112.640625 1.09375 -112.640625 C 2.488281 -112.640625 3.695312 -112.144531 4.71875 -111.15625 C 5.75 -110.164062 6.265625 -108.898438 6.265625 -107.359375 C 6.265625 -105.671875 5.75 -104.382812 4.71875 -103.5 C 3.695312 -102.625 2.488281 -102.1875 1.09375 -102.1875 Z M 14.40625 2.75 L 8.796875 -0.328125 L 8.796875 -62.703125 L 0.4375 -62.703125 L -3.1875 -68.421875 L 8.796875 -68.421875 C 8.648438 -71.203125 8.25 -73.769531 7.59375 -76.125 L 2.09375 -70.515625 L -4.734375 -77.21875 L 3.84375 -83.265625 C 0.84375 -86.929688 -3.238281 -89.5 -8.40625 -90.96875 C -13.582031 -92.4375 -19.320312 -93.171875 -25.625 -93.171875 C -31.9375 -93.171875 -37.015625 -92.691406 -40.859375 -91.734375 C -44.710938 -90.785156 -46.640625 -89.285156 -46.640625 -87.234375 C -46.640625 -86.054688 -46.109375 -85.210938 -45.046875 -84.703125 C -43.984375 -84.191406 -41.875 -83.9375 -38.71875 -83.9375 C -35.707031 -83.9375 -33.03125 -84.0625 -30.6875 -84.3125 C -28.34375 -84.570312 -25.847656 -84.703125 -23.203125 -84.703125 C -19.535156 -84.703125 -16.289062 -83.65625 -13.46875 -81.5625 C -10.644531 -79.476562 -9.085938 -76.125 -8.796875 -71.5 L -8.578125 -67.984375 L -14.734375 -67.984375 C -14.734375 -72.085938 -15.359375 -74.742188 -16.609375 -75.953125 C -17.859375 -77.160156 -19.65625 -77.765625 -22 -77.765625 C -24.488281 -77.765625 -27.109375 -77.488281 -29.859375 -76.9375 C -32.609375 -76.394531 -35.597656 -76.125 -38.828125 -76.125 C -40.804688 -76.125 -42.800781 -76.429688 -44.8125 -77.046875 C -46.832031 -77.671875 -48.519531 -78.769531 -49.875 -80.34375 C -51.238281 -81.925781 -51.921875 -84.113281 -51.921875 -86.90625 C -51.921875 -91.226562 -49.609375 -94.65625 -44.984375 -97.1875 C -40.367188 -99.71875 -34.023438 -100.984375 -25.953125 -100.984375 C -20.753906 -100.984375 -16.023438 -100.503906 -11.765625 -99.546875 C -12.429688 -101.378906 -12.910156 -103.429688 -13.203125 -105.703125 L -9.6875 -107.03125 C -9.09375 -104.757812 -7.96875 -102.59375 -6.3125 -100.53125 C -4.664062 -98.476562 -2.195312 -97.453125 1.09375 -97.453125 C 4.320312 -97.453125 6.78125 -98.476562 8.46875 -100.53125 C 10.15625 -102.59375 11.253906 -104.757812 11.765625 -107.03125 L 15.40625 -105.703125 C 14.375 -97.347656 10.960938 -92.398438 5.171875 -90.859375 C 6.421875 -89.535156 7.554688 -88.101562 8.578125 -86.5625 L 22.65625 -96.46875 L 25.953125 -94.8125 L 11.875 -80.40625 C 13.269531 -76.882812 14.1875 -72.890625 14.625 -68.421875 L 22.875 -68.421875 L 26.734375 -62.703125 L 14.734375 -62.703125 L 14.734375 2.640625 Z M 14.40625 2.75 "/>
</symbol>
</g>
</defs>
  <g id="bengali-abvs:id0:id0" transform="matrix(1.25,0,0,1.25,0.0,0.0)"><g id="bengali-abvs:id0:surface1">
<g style="fill:rgb(0%,0%,0%);fill-opacity:1;">
  <use xlink:href="#bengali-abvs:id0:glyph0-1" x="16" y="122.125" class="dc"/>
  <use xlink:href="#bengali-abvs:id0:glyph0-2" x="58.34375" y="125.421875" class="c0"/>
  <use xlink:href="#bengali-abvs:id0:glyph0-3" x="81.78125" y="122.125" class="c1"/>
  <use xlink:href="#bengali-abvs:id0:glyph0-4" x="96.84375" y="117.390625" class="c2"/>
</g>
</g>
</g>
  <g id="bengali-abvs:id1:id1" transform="matrix(1.25,0,0,1.25,160.15625,11.38671875)"><g id="bengali-abvs:id1:surface1">
<g style="fill:rgb(0%,0%,0%);fill-opacity:1;">
  <use xlink:href="#bengali-abvs:id1:glyph0-1" x="0" y="120.84375" class="arrow"/>
</g>
</g>
</g>
  <g id="bengali-abvs:id2:id2" transform="matrix(1.25,0,0,1.25,292.75390625,0.0)"><g id="bengali-abvs:id2:surface1">
<g style="fill:rgb(0%,0%,0%);fill-opacity:1;">
  <use xlink:href="#bengali-abvs:id2:glyph0-1" x="16" y="122.125" class="dc"/>
  <use xlink:href="#bengali-abvs:id2:glyph0-2" x="81.78125" y="122.125" class="c3"/>
</g>
</g>
</g>
</svg>