<!DOCTYPE svg PUBLIC "-//W3C//DTD SVG 1.1//EN" "http://www.w3.org/Graphics/SVG/1.1/DTD/svg11.dtd">
<!-- Created with svg_stack (http://github.com/astraw/svg_stack) --><svg xmlns="http://www.w3.org/2000/svg" xmlns:sodipodi="http://sodipodi.sourceforge.net/DTD/sodipodi-0.dtd" xmlns:xlink="http://www.w3.org/1999/xlink" version="1.1" width="385.83984375" height="224.1796875" id="bengali-blwm" filter="url(#bengali-blwm:local-greyscale)">
  <defs><g>
<symbol overflow="visible" id="bengali-blwm:id0:glyph0-0">
<path style="stroke:none;" d="M 10.34375 0 L 10.34375 -78.546875 L 55.546875 -78.546875 L 55.546875 0 Z M 15.953125 -5.609375 L 49.9375 -5.609375 L 49.9375 -72.9375 L 15.953125 -72.9375 Z M 15.953125 -5.609375 "/>
</symbol>
<symbol overflow="visible" id="bengali-blwm:id0:glyph0-1">
<path style="stroke:none;" d="M 0.546875 -62.703125 L -3.1875 -68.421875 L 68.75 -68.421875 L 72.484375 -62.703125 Z M 41.03125 -7.8125 C 35.601562 -7.8125 30.46875 -9.332031 25.625 -12.375 C 20.789062 -15.414062 16.445312 -20.347656 12.59375 -27.171875 C 8.738281 -33.992188 5.53125 -43.050781 2.96875 -54.34375 L 7.375 -55.765625 C 10.007812 -46.085938 13.085938 -38.476562 16.609375 -32.9375 C 20.128906 -27.40625 23.941406 -23.5 28.046875 -21.21875 C 32.148438 -18.945312 36.40625 -17.8125 40.8125 -17.8125 C 46.457031 -17.8125 50.945312 -19.316406 54.28125 -22.328125 C 57.625 -25.335938 59.296875 -29.113281 59.296875 -33.65625 C 59.296875 -35.925781 59.054688 -37.921875 58.578125 -39.640625 C 58.097656 -41.367188 57.34375 -42.96875 56.3125 -44.4375 C 53.238281 -40.769531 50.050781 -37.960938 46.75 -36.015625 C 43.445312 -34.078125 39.851562 -33.109375 35.96875 -33.109375 C 31.789062 -33.109375 28.4375 -34.207031 25.90625 -36.40625 C 23.375 -38.601562 22.109375 -41.570312 22.109375 -45.3125 C 22.109375 -47.738281 22.894531 -49.832031 24.46875 -51.59375 C 26.050781 -53.351562 28.234375 -54.234375 31.015625 -54.234375 C 33.367188 -54.234375 35.296875 -53.476562 36.796875 -51.96875 C 38.296875 -50.46875 39.046875 -48.4375 39.046875 -45.875 C 39.046875 -44.40625 38.789062 -43.117188 38.28125 -42.015625 C 40.40625 -42.898438 42.75 -44.40625 45.3125 -46.53125 C 47.882812 -48.65625 50.894531 -51.84375 54.34375 -56.09375 C 55.882812 -54.707031 57.476562 -52.875 59.125 -50.59375 C 60.769531 -48.320312 62.144531 -45.644531 63.25 -42.5625 C 64.351562 -39.488281 64.90625 -36.007812 64.90625 -32.125 C 64.90625 -24.863281 62.8125 -18.992188 58.625 -14.515625 C 54.445312 -10.046875 48.582031 -7.8125 41.03125 -7.8125 Z M 41.03125 -7.8125 "/>
</symbol>
<symbol overflow="visible" id="bengali-blwm:id0:glyph0-2">
<path style="stroke:none;" d="M 20.6875 31.90625 C 14.445312 26.988281 9.019531 23.429688 4.40625 21.234375 C 2.195312 23.140625 -0.222656 24.695312 -2.859375 25.90625 C -5.492188 27.113281 -8.351562 27.71875 -11.4375 27.71875 C -15.46875 27.71875 -18.820312 26.632812 -21.5 24.46875 C -24.175781 22.3125 -25.515625 19.289062 -25.515625 15.40625 C -25.515625 11.738281 -24.15625 8.875 -21.4375 6.8125 C -18.726562 4.757812 -15.503906 3.734375 -11.765625 3.734375 C -10.597656 3.734375 -9.425781 3.828125 -8.25 4.015625 C -7.070312 4.203125 -5.898438 4.476562 -4.734375 4.84375 C -4.878906 3.226562 -5.171875 1.265625 -5.609375 -1.046875 C -6.046875 -3.359375 -6.5625 -5.0625 -7.15625 -6.15625 L -1.765625 -7.484375 C -0.734375 -5.429688 -0.0195312 -2.863281 0.375 0.21875 C 0.78125 3.300781 0.984375 6.269531 0.984375 9.125 L -2.640625 11.65625 C -4.398438 11.144531 -6.066406 10.796875 -7.640625 10.609375 C -9.222656 10.429688 -10.742188 10.34375 -12.203125 10.34375 C -14.484375 10.34375 -16.335938 10.765625 -17.765625 11.609375 C -19.191406 12.453125 -19.90625 13.789062 -19.90625 15.625 C -19.90625 17.457031 -19.226562 18.757812 -17.875 19.53125 C -16.519531 20.300781 -14.742188 20.6875 -12.546875 20.6875 C -9.828125 20.6875 -7.253906 20.097656 -4.828125 18.921875 C -2.410156 17.742188 0.113281 16.128906 2.75 14.078125 C 5.238281 15.398438 8.242188 17.304688 11.765625 19.796875 C 15.285156 22.296875 19.0625 25.378906 23.09375 29.046875 Z M 20.6875 31.90625 "/>
</symbol>
</g>
<g>
<symbol overflow="visible" id="bengali-blwm:id1:glyph0-0">
<path style="stroke:none;" d="M 5.375 -96.6875 L 69.828125 -96.6875 L 69.828125 0 L 5.375 0 Z M 8.0625 -2.6875 L 67.140625 -2.6875 L 67.140625 -94 L 8.0625 -94 Z M 8.0625 -2.6875 "/>
</symbol>
<symbol overflow="visible" id="bengali-blwm:id1:glyph0-1">
<path style="stroke:none;" d="M 68.15625 -13.75 L 66.28125 -18.640625 L 88.09375 -27.390625 L 6.984375 -27.390625 L 6.984375 -34 L 88.09375 -34 L 66.28125 -42.75 L 68.15625 -47.640625 L 99.09375 -34.265625 L 99.09375 -27.125 Z M 68.15625 -13.75 "/>
</symbol>
</g>
<g>
<symbol overflow="visible" id="bengali-blwm:id2:glyph0-0">
<path style="stroke:none;" d="M 10.34375 0 L 10.34375 -78.546875 L 55.546875 -78.546875 L 55.546875 0 Z M 15.953125 -5.609375 L 49.9375 -5.609375 L 49.9375 -72.9375 L 15.953125 -72.9375 Z M 15.953125 -5.609375 "/>
</symbol>
<symbol overflow="visible" id="bengali-blwm:id2:glyph0-1">
<path style="stroke:none;" d="M 0.546875 -62.703125 L -3.1875 -68.421875 L 68.75 -68.421875 L 72.484375 -62.703125 Z M 41.03125 -7.8125 C 35.601562 -7.8125 30.46875 -9.332031 25.625 -12.375 C 20.789062 -15.414062 16.445312 -20.347656 12.59375 -27.171875 C 8.738281 -33.992188 5.53125 -43.050781 2.96875 -54.34375 L 7.375 -55.765625 C 10.007812 -46.085938 13.085938 -38.476562 16.609375 -32.9375 C 20.128906 -27.40625 23.941406 -23.5 28.046875 -21.21875 C 32.148438 -18.945312 36.40625 -17.8125 40.8125 -17.8125 C 46.457031 -17.8125 50.945312 -19.316406 54.28125 -22.328125 C 57.625 -25.335938 59.296875 -29.113281 59.296875 -33.65625 C 59.296875 -35.925781 59.054688 -37.921875 58.578125 -39.640625 C 58.097656 -41.367188 57.34375 -42.96875 56.3125 -44.4375 C 53.238281 -40.769531 50.050781 -37.960938 46.75 -36.015625 C 43.445312 -34.078125 39.851562 -33.109375 35.96875 -33.109375 C 31.789062 -33.109375 28.4375 -34.207031 25.90625 -36.40625 C 23.375 -38.601562 22.109375 -41.570312 22.109375 -45.3125 C 22.109375 -47.738281 22.894531 -49.832031 24.46875 -51.59375 C 26.050781 -53.351562 28.234375 -54.234375 31.015625 -54.234375 C 33.367188 -54.234375 35.296875 -53.476562 36.796875 -51.96875 C 38.296875 -50.46875 39.046875 -48.4375 39.046875 -45.875 C 39.046875 -44.40625 38.789062 -43.117188 38.28125 -42.015625 C 40.40625 -42.898438 42.75 -44.40625 45.3125 -46.53125 C 47.882812 -48.65625 50.894531 -51.84375 54.34375 -56.09375 C 55.882812 -54.707031 57.476562 -52.875 59.125 -50.59375 C 60.769531 -48.320312 62.144531 -45.644531 63.25 -42.5625 C 64.351562 -39.488281 64.90625 -36.007812 64.90625 -32.125 C 64.90625 -24.863281 62.8125 -18.992188 58.625 -14.515625 C 54.445312 -10.046875 48.582031 -7.8125 41.03125 -7.8125 Z M 41.03125 -7.8125 "/>
</symbol>
<symbol overflow="visible" id="bengali-blwm:id2:glyph0-2">
<path style="stroke:none;" d="M 20.6875 31.90625 C 14.445312 26.988281 9.019531 23.429688 4.40625 21.234375 C 2.195312 23.140625 -0.222656 24.695312 -2.859375 25.90625 C -5.492188 27.113281 -8.351562 27.71875 -11.4375 27.71875 C -15.46875 27.71875 -18.820312 26.632812 -21.5 24.46875 C -24.175781 22.3125 -25.515625 19.289062 -25.515625 15.40625 C -25.515625 11.738281 -24.15625 8.875 -21.4375 6.8125 C -18.726562 4.757812 -15.503906 3.734375 -11.765625 3.734375 C -10.597656 3.734375 -9.425781 3.828125 -8.25 4.015625 C -7.070312 4.203125 -5.898438 4.476562 -4.734375 4.84375 C -4.878906 3.226562 -5.171875 1.265625 -5.609375 -1.046875 C -6.046875 -3.359375 -6.5625 -5.0625 -7.15625 -6.15625 L -1.765625 -7.484375 C -0.734375 -5.429688 -0.0195312 -2.863281 0.375 0.21875 C 0.78125 3.300781 0.984375 6.269531 0.984375 9.125 L -2.640625 11.65625 C -4.398438 11.144531 -6.066406 10.796875 -7.640625 10.609375 C -9.222656 10.429688 -10.742188 10.34375 -12.203125 10.34375 C -14.484375 10.34375 -16.335938 10.765625 -17.765625 11.609375 C -19.191406 12.453125 -19.90625 13.789062 -19.90625 15.625 C -19.90625 17.457031 -19.226562 18.757812 -17.875 19.53125 C -16.519531 20.300781 -14.742188 20.6875 -12.546875 20.6875 C -9.828125 20.6875 -7.253906 20.097656 -4.828125 18.921875 C -2.410156 17.742188 0.113281 16.128906 2.75 14.078125 C 5.238281 15.398438 8.242188 17.304688 11.765625 19.796875 C 15.285156 22.296875 19.0625 25.378906 23.09375 29.046875 Z M 20.6875 31.90625 "/>
</symbol>
</g>
<filter id="bengali-blwm:local-greyscale"> <feColorMatrix type="saturate" values="0.0" color-interpolation-filters="sRGB"/> <feComponentTransfer> <feFuncR type="gamma" exponent="4.0" amplitude="1.0" offset="0"/> <feFuncG type="gamma" exponent="4.0" amplitude="1.0" offset="0"/> <feFuncB type="gamma" exponent="4.0" amplitude="1.0" offset="0"/> </feComponentTransfer> </filter></defs>
  <g id="bengali-blwm:id0:id0" transform="matrix(1.25,0,0,1.25,0.0,0.0)"><g id="bengali-blwm:id0:surface1">
<g style="fill:rgb(0%,0%,0%);fill-opacity:1;">
  <use xlink:href="#bengali-blwm:id0:glyph0-1" x="16" y="122.125"/>
  <use xlink:href="#bengali-blwm:id0:glyph0-2" x="85.296875" y="122.125"/>
</g>
</g>
</g>
  <g id="bengali-blwm:id1:id1" transform="matrix(1.25,0,0,1.25,126.62109375,11.38671875)"><g id="bengali-blwm:id1:surface1">
<g style="fill:rgb(0%,0%,0%);fill-opacity:1;">
  <use xlink:href="#bengali-blwm:id1:glyph0-1" x="0" y="120.84375"/>
</g>
</g>
</g>
  <g id="bengali-blwm:id2:id2" transform="matrix(1.25,0,0,1.25,259.21875,0.0)"><g id="bengali-blwm:id2:surface1">
<g style="fill:rgb(0%,0%,0%);fill-opacity:1;">
  <use xlink:href="#bengali-blwm:id2:glyph0-1" x="16" y="122.125"/>
  <use xlink:href="#bengali-blwm:id2:glyph0-2" x="64.84375" y="116.1875"/>
</g>
</g>
</g>
</svg>