<!DOCTYPE svg PUBLIC "-//W3C//DTD SVG 1.1//EN" "http://www.w3.org/Graphics/SVG/1.1/DTD/svg11.dtd">
<!-- Created with svg_stack (http://github.com/astraw/svg_stack) --><svg xmlns="http://www.w3.org/2000/svg" xmlns:sodipodi="http://sodipodi.sourceforge.net/DTD/sodipodi-0.dtd" xmlns:xlink="http://www.w3.org/1999/xlink" version="1.1" width="100%" id="bengali-pres" viewBox="0 0 408.69140625 224.1796875">
  <defs><g>
<symbol overflow="visible" id="bengali-pres:id0:glyph0-0">
<path style="stroke:none;" d="M 10.34375 0 L 10.34375 -78.546875 L 55.546875 -78.546875 L 55.546875 0 Z M 15.953125 -5.609375 L 49.9375 -5.609375 L 49.9375 -72.9375 L 15.953125 -72.9375 Z M 15.953125 -5.609375 "/>
</symbol>
<symbol overflow="visible" id="bengali-pres:id0:glyph0-1">
<path style="stroke:none;" d="M 14.40625 2.75 L 8.796875 -0.328125 L 8.796875 -62.703125 L 0.4375 -62.703125 L -3.1875 -68.421875 L 8.03125 -68.421875 C 6.414062 -69.890625 4.835938 -71.410156 3.296875 -72.984375 C 1.753906 -74.554688 0.253906 -76.148438 -1.203125 -77.765625 C 1.722656 -85.171875 5.769531 -90.925781 10.9375 -95.03125 C 16.113281 -99.144531 21.925781 -101.203125 28.375 -101.203125 C 33.070312 -101.203125 37.800781 -100.132812 42.5625 -98 C 47.332031 -95.875 51.953125 -93.015625 56.421875 -89.421875 C 60.898438 -85.835938 65.046875 -81.804688 68.859375 -77.328125 L 66.21875 -74.90625 C 61.445312 -79.675781 56.988281 -83.378906 52.84375 -86.015625 C 48.707031 -88.660156 44.820312 -90.53125 41.1875 -91.625 C 37.5625 -92.726562 34.097656 -93.28125 30.796875 -93.28125 C 27.128906 -93.28125 23.71875 -92.414062 20.5625 -90.6875 C 17.414062 -88.96875 14.773438 -86.769531 12.640625 -84.09375 C 10.515625 -81.414062 9.085938 -78.648438 8.359375 -75.796875 C 9.316406 -74.472656 10.160156 -73.1875 10.890625 -71.9375 C 11.617188 -70.6875 12.460938 -69.515625 13.421875 -68.421875 L 22.875 -68.421875 L 26.734375 -62.703125 L 14.734375 -62.703125 L 14.734375 2.640625 Z M 14.40625 2.75 "/>
</symbol>
<symbol overflow="visible" id="bengali-pres:id0:glyph0-2">
<path style="stroke:none;" d="M 22.65625 -3.953125 C 18.695312 -3.953125 15.394531 -5.21875 12.75 -7.75 C 10.113281 -10.28125 8.796875 -13.5625 8.796875 -17.59375 L 8.796875 -62.703125 L 0.765625 -62.703125 L -3.1875 -68.421875 L 41.6875 -68.421875 C 41.46875 -72.304688 40.640625 -75.070312 39.203125 -76.71875 C 37.773438 -78.375 35.707031 -79.203125 33 -79.203125 C 30.800781 -79.203125 28.398438 -79.015625 25.796875 -78.640625 C 23.191406 -78.273438 20.382812 -78.09375 17.375 -78.09375 C 11.800781 -78.09375 7.804688 -79.6875 5.390625 -82.875 C 2.972656 -86.070312 1.765625 -90.128906 1.765625 -95.046875 C 1.765625 -95.992188 1.816406 -97 1.921875 -98.0625 C 2.035156 -99.125 2.128906 -100.0625 2.203125 -100.875 L 6.703125 -100.4375 C 6.628906 -99.988281 6.570312 -99.472656 6.53125 -98.890625 C 6.5 -98.304688 6.484375 -97.679688 6.484375 -97.015625 C 6.484375 -93.421875 7.398438 -90.945312 9.234375 -89.59375 C 11.066406 -88.238281 13.890625 -87.5625 17.703125 -87.5625 C 20.203125 -87.5625 22.640625 -87.722656 25.015625 -88.046875 C 27.398438 -88.378906 29.734375 -88.546875 32.015625 -88.546875 C 36.847656 -88.546875 40.382812 -86.878906 42.625 -83.546875 C 44.863281 -80.210938 46.164062 -75.171875 46.53125 -68.421875 L 54.34375 -68.421875 L 58.078125 -62.703125 L 14.734375 -62.703125 L 14.734375 -17.8125 C 14.734375 -15.757812 15.359375 -14.144531 16.609375 -12.96875 C 17.859375 -11.800781 19.546875 -11.21875 21.671875 -11.21875 C 24.304688 -11.21875 26.867188 -12.242188 29.359375 -14.296875 C 31.859375 -16.347656 34.039062 -18.96875 35.90625 -22.15625 C 37.78125 -25.351562 39.160156 -28.675781 40.046875 -32.125 C 39.304688 -31.90625 38.460938 -31.796875 37.515625 -31.796875 C 34.648438 -31.796875 32.425781 -32.632812 30.84375 -34.3125 C 29.269531 -36 28.484375 -38.203125 28.484375 -40.921875 C 28.484375 -43.335938 29.328125 -45.5 31.015625 -47.40625 C 32.703125 -49.3125 35.160156 -50.265625 38.390625 -50.265625 C 41.546875 -50.265625 44.273438 -49.21875 46.578125 -47.125 C 48.890625 -45.039062 50.046875 -41.503906 50.046875 -36.515625 C 50.046875 -33.140625 49.296875 -29.5625 47.796875 -25.78125 C 46.296875 -22.007812 44.257812 -18.472656 41.6875 -15.171875 C 39.125 -11.878906 36.207031 -9.1875 32.9375 -7.09375 C 29.675781 -5 26.25 -3.953125 22.65625 -3.953125 Z M 22.65625 -3.953125 "/>
</symbol>
</g>
<g>
<symbol overflow="visible" id="bengali-pres:id1:glyph0-0">
<path style="stroke:none;" d="M 5.375 -96.6875 L 69.828125 -96.6875 L 69.828125 0 L 5.375 0 Z M 8.0625 -2.6875 L 67.140625 -2.6875 L 67.140625 -94 L 8.0625 -94 Z M 8.0625 -2.6875 "/>
</symbol>
<symbol overflow="visible" id="bengali-pres:id1:glyph0-1">
<path style="stroke:none;" d="M 68.15625 -13.75 L 66.28125 -18.640625 L 88.09375 -27.390625 L 6.984375 -27.390625 L 6.984375 -34 L 88.09375 -34 L 66.28125 -42.75 L 68.15625 -47.640625 L 99.09375 -34.265625 L 99.09375 -27.125 Z M 68.15625 -13.75 "/>
</symbol>
</g>
<g>
<symbol overflow="visible" id="bengali-pres:id2:glyph0-0">
<path style="stroke:none;" d="M 10.34375 0 L 10.34375 -78.546875 L 55.546875 -78.546875 L 55.546875 0 Z M 15.953125 -5.609375 L 49.9375 -5.609375 L 49.9375 -72.9375 L 15.953125 -72.9375 Z M 15.953125 -5.609375 "/>
</symbol>
<symbol overflow="visible" id="bengali-pres:id2:glyph0-1">
<path style="stroke:none;" d="M 14.40625 2.75 L 8.796875 -0.328125 L 8.796875 -62.703125 L 0.4375 -62.703125 L -3.1875 -68.421875 L 9.125 -68.421875 C 7.507812 -69.890625 5.929688 -71.410156 4.390625 -72.984375 C 2.859375 -74.554688 1.359375 -76.148438 -0.109375 -77.765625 C 3.921875 -85.984375 8.578125 -91.890625 13.859375 -95.484375 C 19.140625 -99.078125 25.226562 -100.875 32.125 -100.875 C 37.914062 -100.875 43.15625 -99.550781 47.84375 -96.90625 C 52.539062 -94.269531 56.757812 -90.898438 60.5 -86.796875 C 62.769531 -84.296875 64.875 -81.394531 66.8125 -78.09375 C 68.757812 -74.800781 70.101562 -71.578125 70.84375 -68.421875 L 77.875 -68.421875 L 81.625 -62.703125 L 38.28125 -62.703125 L 38.28125 -17.8125 C 38.28125 -15.757812 38.898438 -14.144531 40.140625 -12.96875 C 41.390625 -11.800781 43.078125 -11.21875 45.203125 -11.21875 C 47.847656 -11.21875 50.414062 -12.242188 52.90625 -14.296875 C 55.40625 -16.347656 57.585938 -18.96875 59.453125 -22.15625 C 61.328125 -25.351562 62.703125 -28.640625 63.578125 -32.015625 C 62.847656 -31.867188 62.003906 -31.796875 61.046875 -31.796875 C 58.191406 -31.796875 55.972656 -32.632812 54.390625 -34.3125 C 52.816406 -36 52.03125 -38.203125 52.03125 -40.921875 C 52.03125 -43.335938 52.875 -45.5 54.5625 -47.40625 C 56.25 -49.3125 58.707031 -50.265625 61.9375 -50.265625 C 65.082031 -50.265625 67.8125 -49.21875 70.125 -47.125 C 72.4375 -45.039062 73.59375 -41.503906 73.59375 -36.515625 C 73.59375 -33.140625 72.835938 -29.5625 71.328125 -25.78125 C 69.828125 -22.007812 67.789062 -18.472656 65.21875 -15.171875 C 62.65625 -11.878906 59.742188 -9.1875 56.484375 -7.09375 C 53.222656 -5 49.796875 -3.953125 46.203125 -3.953125 C 42.242188 -3.953125 38.941406 -5.21875 36.296875 -7.75 C 33.660156 -10.28125 32.34375 -13.5625 32.34375 -17.59375 L 32.34375 -62.703125 L 14.734375 -62.703125 L 14.734375 2.640625 Z M 33.765625 -92.953125 C 29.585938 -92.953125 25.8125 -92.070312 22.4375 -90.3125 C 23.613281 -85.539062 26.804688 -83.15625 32.015625 -83.15625 C 34.140625 -83.15625 36.503906 -83.375 39.109375 -83.8125 C 41.710938 -84.257812 44.296875 -84.703125 46.859375 -85.140625 C 49.421875 -85.578125 51.734375 -85.867188 53.796875 -86.015625 C 50.710938 -88.210938 47.570312 -89.914062 44.375 -91.125 C 41.1875 -92.34375 37.648438 -92.953125 33.765625 -92.953125 Z M 14.515625 -68.421875 L 66 -68.421875 C 65.269531 -71.429688 64.003906 -73.648438 62.203125 -75.078125 C 60.410156 -76.503906 57.789062 -77.21875 54.34375 -77.21875 C 52.4375 -77.21875 50.179688 -76.976562 47.578125 -76.5 C 44.972656 -76.03125 42.273438 -75.554688 39.484375 -75.078125 C 36.703125 -74.597656 33.953125 -74.359375 31.234375 -74.359375 C 27.640625 -74.359375 24.707031 -75.472656 22.4375 -77.703125 C 20.164062 -79.941406 18.664062 -83.15625 17.9375 -87.34375 C 14.632812 -84.550781 11.804688 -80.703125 9.453125 -75.796875 C 11.210938 -73.078125 12.898438 -70.617188 14.515625 -68.421875 Z M 14.515625 -68.421875 "/>
</symbol>
</g>
</defs>
  <g id="bengali-pres:id0:id0" transform="matrix(1.25,0,0,1.25,0.0,0.0)"><g id="bengali-pres:id0:surface1">
<g style="fill:rgb(0%,0%,0%);fill-opacity:1;">
  <use xlink:href="#bengali-pres:id0:glyph0-1" x="16" y="122.125" class="c0"/>
  <use xlink:href="#bengali-pres:id0:glyph0-2" x="39.546875" y="122.125" class="c1"/>
</g>
</g>
</g>
  <g id="bengali-pres:id1:id1" transform="matrix(1.25,0,0,1.25,138.046875,11.38671875)"><g id="bengali-pres:id1:surface1">
<g style="fill:rgb(0%,0%,0%);fill-opacity:1;">
  <use xlink:href="#bengali-pres:id1:glyph0-1" x="0" y="120.84375" class="arrow"/>
</g>
</g>
</g>
  <g id="bengali-pres:id2:id2" transform="matrix(1.25,0,0,1.25,270.64453125,0.0)"><g id="bengali-pres:id2:surface1">
<g style="fill:rgb(0%,0%,0%);fill-opacity:1;">
  <use xlink:href="#bengali-pres:id2:glyph0-1" x="16" y="122.125" class="c2"/>
</g>
</g>
</g>
</svg>