<!DOCTYPE svg PUBLIC "-//W3C//DTD SVG 1.1//EN" "http://www.w3.org/Graphics/SVG/1.1/DTD/svg11.dtd">
<!-- Created with svg_stack (http://github.com/astraw/svg_stack) --><svg xmlns="http://www.w3.org/2000/svg" xmlns:sodipodi="http://sodipodi.sourceforge.net/DTD/sodipodi-0.dtd" xmlns:xlink="http://www.w3.org/1999/xlink" version="1.1" width="489.51171875" height="224.1796875" id="bengali-yaphala">
  <defs>
  <filter id="bengali-yaphala:local-greyscale-test">
    <feColorMatrix type="saturate" values="0.0" color-interpolation-filters="sRGB"/>
    <feComponentTransfer>
      <feFuncR type="gamma" exponent="4.0" amplitude="1.0" offset="0"/>
      <feFuncG type="gamma" exponent="4.0" amplitude="1.0" offset="0"/>
      <feFuncB type="gamma" exponent="4.0" amplitude="1.0" offset="0"/>
    </feComponentTransfer>
  </filter>
<g>
<symbol overflow="visible" id="bengali-yaphala:id0:glyph0-0">
<path style="stroke:none;" d="M 10.34375 0 L 10.34375 -78.546875 L 55.546875 -78.546875 L 55.546875 0 Z M 15.953125 -5.609375 L 49.9375 -5.609375 L 49.9375 -72.9375 L 15.953125 -72.9375 Z M 15.953125 -5.609375 "/>
</symbol>
<symbol overflow="visible" id="bengali-yaphala:id0:glyph0-1" class="dc">
<path style="stroke:none;" d="M 32.890625 -53.6875 C 32.160156 -53.6875 31.5 -53.976562 30.90625 -54.5625 C 30.320312 -55.144531 30.03125 -55.804688 30.03125 -56.546875 C 30.03125 -57.347656 30.320312 -58.023438 30.90625 -58.578125 C 31.5 -59.128906 32.160156 -59.40625 32.890625 -59.40625 C 33.691406 -59.40625 34.367188 -59.128906 34.921875 -58.578125 C 35.472656 -58.023438 35.75 -57.347656 35.75 -56.546875 C 35.75 -55.804688 35.472656 -55.144531 34.921875 -54.5625 C 34.367188 -53.976562 33.691406 -53.6875 32.890625 -53.6875 Z M 23.65625 -51.703125 C 22.914062 -51.703125 22.253906 -51.992188 21.671875 -52.578125 C 21.085938 -53.160156 20.796875 -53.820312 20.796875 -54.5625 C 20.796875 -55.363281 21.085938 -56.039062 21.671875 -56.59375 C 22.253906 -57.144531 22.914062 -57.421875 23.65625 -57.421875 C 24.457031 -57.421875 25.132812 -57.144531 25.6875 -56.59375 C 26.238281 -56.039062 26.515625 -55.363281 26.515625 -54.5625 C 26.515625 -53.820312 26.238281 -53.160156 25.6875 -52.578125 C 25.132812 -51.992188 24.457031 -51.703125 23.65625 -51.703125 Z M 42.125 -51.703125 C 41.394531 -51.703125 40.734375 -51.992188 40.140625 -52.578125 C 39.554688 -53.160156 39.265625 -53.820312 39.265625 -54.5625 C 39.265625 -55.363281 39.554688 -56.039062 40.140625 -56.59375 C 40.734375 -57.144531 41.394531 -57.421875 42.125 -57.421875 C 42.9375 -57.421875 43.613281 -57.144531 44.15625 -56.59375 C 44.707031 -56.039062 44.984375 -55.363281 44.984375 -54.5625 C 44.984375 -53.820312 44.707031 -53.160156 44.15625 -52.578125 C 43.613281 -51.992188 42.9375 -51.703125 42.125 -51.703125 Z M 50.265625 -46.53125 C 49.535156 -46.53125 48.875 -46.820312 48.28125 -47.40625 C 47.695312 -48 47.40625 -48.660156 47.40625 -49.390625 C 47.40625 -50.191406 47.695312 -50.867188 48.28125 -51.421875 C 48.875 -51.972656 49.535156 -52.25 50.265625 -52.25 C 51.078125 -52.25 51.753906 -51.972656 52.296875 -51.421875 C 52.847656 -50.867188 53.125 -50.191406 53.125 -49.390625 C 53.125 -48.660156 52.847656 -48 52.296875 -47.40625 C 51.753906 -46.820312 51.078125 -46.53125 50.265625 -46.53125 Z M 15.515625 -46.53125 C 14.773438 -46.53125 14.113281 -46.820312 13.53125 -47.40625 C 12.945312 -48 12.65625 -48.660156 12.65625 -49.390625 C 12.65625 -50.191406 12.945312 -50.867188 13.53125 -51.421875 C 14.113281 -51.972656 14.773438 -52.25 15.515625 -52.25 C 16.316406 -52.25 16.992188 -51.972656 17.546875 -51.421875 C 18.097656 -50.867188 18.375 -50.191406 18.375 -49.390625 C 18.375 -48.660156 18.097656 -48 17.546875 -47.40625 C 16.992188 -46.820312 16.316406 -46.53125 15.515625 -46.53125 Z M 10.34375 -38.390625 C 9.601562 -38.390625 8.941406 -38.679688 8.359375 -39.265625 C 7.773438 -39.859375 7.484375 -40.519531 7.484375 -41.25 C 7.484375 -42.050781 7.773438 -42.726562 8.359375 -43.28125 C 8.941406 -43.832031 9.601562 -44.109375 10.34375 -44.109375 C 11.144531 -44.109375 11.820312 -43.832031 12.375 -43.28125 C 12.925781 -42.726562 13.203125 -42.050781 13.203125 -41.25 C 13.203125 -40.519531 12.925781 -39.859375 12.375 -39.265625 C 11.820312 -38.679688 11.144531 -38.390625 10.34375 -38.390625 Z M 55.4375 -38.390625 C 54.707031 -38.390625 54.046875 -38.679688 53.453125 -39.265625 C 52.867188 -39.859375 52.578125 -40.519531 52.578125 -41.25 C 52.578125 -42.050781 52.867188 -42.726562 53.453125 -43.28125 C 54.046875 -43.832031 54.707031 -44.109375 55.4375 -44.109375 C 56.25 -44.109375 56.925781 -43.832031 57.46875 -43.28125 C 58.019531 -42.726562 58.296875 -42.050781 58.296875 -41.25 C 58.296875 -40.519531 58.019531 -39.859375 57.46875 -39.265625 C 56.925781 -38.679688 56.25 -38.390625 55.4375 -38.390625 Z M 8.359375 -29.15625 C 7.628906 -29.15625 6.96875 -29.445312 6.375 -30.03125 C 5.789062 -30.613281 5.5 -31.273438 5.5 -32.015625 C 5.5 -32.816406 5.789062 -33.492188 6.375 -34.046875 C 6.96875 -34.597656 7.628906 -34.875 8.359375 -34.875 C 9.160156 -34.875 9.835938 -34.597656 10.390625 -34.046875 C 10.941406 -33.492188 11.21875 -32.816406 11.21875 -32.015625 C 11.21875 -31.273438 10.941406 -30.613281 10.390625 -30.03125 C 9.835938 -29.445312 9.160156 -29.15625 8.359375 -29.15625 Z M 57.421875 -29.15625 C 56.679688 -29.15625 56.019531 -29.445312 55.4375 -30.03125 C 54.851562 -30.613281 54.5625 -31.273438 54.5625 -32.015625 C 54.5625 -32.816406 54.851562 -33.492188 55.4375 -34.046875 C 56.019531 -34.597656 56.679688 -34.875 57.421875 -34.875 C 58.222656 -34.875 58.898438 -34.597656 59.453125 -34.046875 C 60.003906 -33.492188 60.28125 -32.816406 60.28125 -32.015625 C 60.28125 -31.273438 60.003906 -30.613281 59.453125 -30.03125 C 58.898438 -29.445312 58.222656 -29.15625 57.421875 -29.15625 Z M 10.34375 -19.90625 C 9.601562 -19.90625 8.941406 -20.195312 8.359375 -20.78125 C 7.773438 -21.375 7.484375 -22.035156 7.484375 -22.765625 C 7.484375 -23.578125 7.773438 -24.253906 8.359375 -24.796875 C 8.941406 -25.347656 9.601562 -25.625 10.34375 -25.625 C 11.144531 -25.625 11.820312 -25.347656 12.375 -24.796875 C 12.925781 -24.253906 13.203125 -23.578125 13.203125 -22.765625 C 13.203125 -22.035156 12.925781 -21.375 12.375 -20.78125 C 11.820312 -20.195312 11.144531 -19.90625 10.34375 -19.90625 Z M 55.4375 -19.90625 C 54.707031 -19.90625 54.046875 -20.195312 53.453125 -20.78125 C 52.867188 -21.375 52.578125 -22.035156 52.578125 -22.765625 C 52.578125 -23.578125 52.867188 -24.253906 53.453125 -24.796875 C 54.046875 -25.347656 54.707031 -25.625 55.4375 -25.625 C 56.25 -25.625 56.925781 -25.347656 57.46875 -24.796875 C 58.019531 -24.253906 58.296875 -23.578125 58.296875 -22.765625 C 58.296875 -22.035156 58.019531 -21.375 57.46875 -20.78125 C 56.925781 -20.195312 56.25 -19.90625 55.4375 -19.90625 Z M 15.515625 -11.765625 C 14.773438 -11.765625 14.113281 -12.054688 13.53125 -12.640625 C 12.945312 -13.234375 12.65625 -13.894531 12.65625 -14.625 C 12.65625 -15.4375 12.945312 -16.113281 13.53125 -16.65625 C 14.113281 -17.207031 14.773438 -17.484375 15.515625 -17.484375 C 16.316406 -17.484375 16.992188 -17.207031 17.546875 -16.65625 C 18.097656 -16.113281 18.375 -15.4375 18.375 -14.625 C 18.375 -13.894531 18.097656 -13.234375 17.546875 -12.640625 C 16.992188 -12.054688 16.316406 -11.765625 15.515625 -11.765625 Z M 50.265625 -11.765625 C 49.535156 -11.765625 48.875 -12.054688 48.28125 -12.640625 C 47.695312 -13.234375 47.40625 -13.894531 47.40625 -14.625 C 47.40625 -15.4375 47.695312 -16.113281 48.28125 -16.65625 C 48.875 -17.207031 49.535156 -17.484375 50.265625 -17.484375 C 51.078125 -17.484375 51.753906 -17.207031 52.296875 -16.65625 C 52.847656 -16.113281 53.125 -15.4375 53.125 -14.625 C 53.125 -13.894531 52.847656 -13.234375 52.296875 -12.640625 C 51.753906 -12.054688 51.078125 -11.765625 50.265625 -11.765625 Z M 23.65625 -6.59375 C 22.914062 -6.59375 22.253906 -6.882812 21.671875 -7.46875 C 21.085938 -8.0625 20.796875 -8.722656 20.796875 -9.453125 C 20.796875 -10.265625 21.085938 -10.941406 21.671875 -11.484375 C 22.253906 -12.035156 22.914062 -12.3125 23.65625 -12.3125 C 24.457031 -12.3125 25.132812 -12.035156 25.6875 -11.484375 C 26.238281 -10.941406 26.515625 -10.265625 26.515625 -9.453125 C 26.515625 -8.722656 26.238281 -8.0625 25.6875 -7.46875 C 25.132812 -6.882812 24.457031 -6.59375 23.65625 -6.59375 Z M 42.125 -6.59375 C 41.394531 -6.59375 40.734375 -6.882812 40.140625 -7.46875 C 39.554688 -8.0625 39.265625 -8.722656 39.265625 -9.453125 C 39.265625 -10.265625 39.554688 -10.941406 40.140625 -11.484375 C 40.734375 -12.035156 41.394531 -12.3125 42.125 -12.3125 C 42.9375 -12.3125 43.613281 -12.035156 44.15625 -11.484375 C 44.707031 -10.941406 44.984375 -10.265625 44.984375 -9.453125 C 44.984375 -8.722656 44.707031 -8.0625 44.15625 -7.46875 C 43.613281 -6.882812 42.9375 -6.59375 42.125 -6.59375 Z M 32.890625 -4.625 C 32.160156 -4.625 31.5 -4.914062 30.90625 -5.5 C 30.320312 -6.082031 30.03125 -6.742188 30.03125 -7.484375 C 30.03125 -8.285156 30.320312 -8.960938 30.90625 -9.515625 C 31.5 -10.066406 32.160156 -10.34375 32.890625 -10.34375 C 33.691406 -10.34375 34.367188 -10.066406 34.921875 -9.515625 C 35.472656 -8.960938 35.75 -8.285156 35.75 -7.484375 C 35.75 -6.742188 35.472656 -6.082031 34.921875 -5.5 C 34.367188 -4.914062 33.691406 -4.625 32.890625 -4.625 Z M 32.890625 -4.625 "/>
</symbol>
<symbol overflow="visible" id="bengali-yaphala:id0:glyph0-2" class="c0">
<path style="stroke:none;" d="M 9.34375 26.734375 C 6.195312 23.429688 2.585938 20.585938 -1.484375 18.203125 C -5.554688 15.816406 -9.9375 14.113281 -14.625 13.09375 L -12.4375 5.828125 C -7.300781 7.441406 -2.644531 9.675781 1.53125 12.53125 C 5.71875 15.394531 9.390625 18.988281 12.546875 23.3125 Z M 9.34375 26.734375 "/>
</symbol>
<symbol overflow="visible" id="bengali-yaphala:id0:glyph0-3" class="c1">
<path style="stroke:none;" d="M 49.28125 1.4375 L 44.109375 -2.640625 C 40.078125 -9.085938 35.347656 -13.925781 29.921875 -17.15625 C 24.492188 -20.382812 17.75 -22.550781 9.6875 -23.65625 L 5.171875 -36.078125 C 7.953125 -37.835938 11.066406 -39.742188 14.515625 -41.796875 C 17.960938 -43.847656 21.335938 -45.679688 24.640625 -47.296875 C 21.628906 -49.492188 18.601562 -51.195312 15.5625 -52.40625 C 12.519531 -53.625 9.128906 -54.488281 5.390625 -55 L -3.1875 -68.421875 L 58.078125 -68.421875 L 61.8125 -62.703125 L 49.828125 -62.703125 L 49.828125 1.3125 Z M 34.765625 -41.359375 C 31.972656 -39.960938 28.832031 -38.347656 25.34375 -36.515625 C 21.863281 -34.679688 18.804688 -32.882812 16.171875 -31.125 C 19.472656 -30.03125 22.789062 -28.691406 26.125 -27.109375 C 29.457031 -25.535156 32.644531 -23.460938 35.6875 -20.890625 C 38.738281 -18.328125 41.472656 -14.992188 43.890625 -10.890625 L 43.890625 -62.703125 L 10.890625 -62.703125 C 16.679688 -60.203125 21.519531 -57.132812 25.40625 -53.5 C 29.289062 -49.875 32.410156 -45.828125 34.765625 -41.359375 Z M 34.765625 -41.359375 "/>
</symbol>
</g>
<g>
<symbol overflow="visible" id="bengali-yaphala:id1:glyph0-0">
<path style="stroke:none;" d="M 5.375 -96.6875 L 69.828125 -96.6875 L 69.828125 0 L 5.375 0 Z M 8.0625 -2.6875 L 67.140625 -2.6875 L 67.140625 -94 L 8.0625 -94 Z M 8.0625 -2.6875 "/>
</symbol>
<symbol overflow="visible" id="bengali-yaphala:id1:glyph0-1" class="arrow" style="fill: #666666;">
<path style="stroke:none;" d="M 68.15625 -13.75 L 66.28125 -18.640625 L 88.09375 -27.390625 L 6.984375 -27.390625 L 6.984375 -34 L 88.09375 -34 L 66.28125 -42.75 L 68.15625 -47.640625 L 99.09375 -34.265625 L 99.09375 -27.125 Z M 68.15625 -13.75 "/>
</symbol>
</g>
<g>
<symbol overflow="visible" id="bengali-yaphala:id2:glyph0-0">
<path style="stroke:none;" d="M 10.34375 0 L 10.34375 -78.546875 L 55.546875 -78.546875 L 55.546875 0 Z M 15.953125 -5.609375 L 49.9375 -5.609375 L 49.9375 -72.9375 L 15.953125 -72.9375 Z M 15.953125 -5.609375 "/>
</symbol>
<symbol overflow="visible" id="bengali-yaphala:id2:glyph0-1" class="dc">
<path style="stroke:none;" d="M 32.890625 -53.6875 C 32.160156 -53.6875 31.5 -53.976562 30.90625 -54.5625 C 30.320312 -55.144531 30.03125 -55.804688 30.03125 -56.546875 C 30.03125 -57.347656 30.320312 -58.023438 30.90625 -58.578125 C 31.5 -59.128906 32.160156 -59.40625 32.890625 -59.40625 C 33.691406 -59.40625 34.367188 -59.128906 34.921875 -58.578125 C 35.472656 -58.023438 35.75 -57.347656 35.75 -56.546875 C 35.75 -55.804688 35.472656 -55.144531 34.921875 -54.5625 C 34.367188 -53.976562 33.691406 -53.6875 32.890625 -53.6875 Z M 23.65625 -51.703125 C 22.914062 -51.703125 22.253906 -51.992188 21.671875 -52.578125 C 21.085938 -53.160156 20.796875 -53.820312 20.796875 -54.5625 C 20.796875 -55.363281 21.085938 -56.039062 21.671875 -56.59375 C 22.253906 -57.144531 22.914062 -57.421875 23.65625 -57.421875 C 24.457031 -57.421875 25.132812 -57.144531 25.6875 -56.59375 C 26.238281 -56.039062 26.515625 -55.363281 26.515625 -54.5625 C 26.515625 -53.820312 26.238281 -53.160156 25.6875 -52.578125 C 25.132812 -51.992188 24.457031 -51.703125 23.65625 -51.703125 Z M 42.125 -51.703125 C 41.394531 -51.703125 40.734375 -51.992188 40.140625 -52.578125 C 39.554688 -53.160156 39.265625 -53.820312 39.265625 -54.5625 C 39.265625 -55.363281 39.554688 -56.039062 40.140625 -56.59375 C 40.734375 -57.144531 41.394531 -57.421875 42.125 -57.421875 C 42.9375 -57.421875 43.613281 -57.144531 44.15625 -56.59375 C 44.707031 -56.039062 44.984375 -55.363281 44.984375 -54.5625 C 44.984375 -53.820312 44.707031 -53.160156 44.15625 -52.578125 C 43.613281 -51.992188 42.9375 -51.703125 42.125 -51.703125 Z M 50.265625 -46.53125 C 49.535156 -46.53125 48.875 -46.820312 48.28125 -47.40625 C 47.695312 -48 47.40625 -48.660156 47.40625 -49.390625 C 47.40625 -50.191406 47.695312 -50.867188 48.28125 -51.421875 C 48.875 -51.972656 49.535156 -52.25 50.265625 -52.25 C 51.078125 -52.25 51.753906 -51.972656 52.296875 -51.421875 C 52.847656 -50.867188 53.125 -50.191406 53.125 -49.390625 C 53.125 -48.660156 52.847656 -48 52.296875 -47.40625 C 51.753906 -46.820312 51.078125 -46.53125 50.265625 -46.53125 Z M 15.515625 -46.53125 C 14.773438 -46.53125 14.113281 -46.820312 13.53125 -47.40625 C 12.945312 -48 12.65625 -48.660156 12.65625 -49.390625 C 12.65625 -50.191406 12.945312 -50.867188 13.53125 -51.421875 C 14.113281 -51.972656 14.773438 -52.25 15.515625 -52.25 C 16.316406 -52.25 16.992188 -51.972656 17.546875 -51.421875 C 18.097656 -50.867188 18.375 -50.191406 18.375 -49.390625 C 18.375 -48.660156 18.097656 -48 17.546875 -47.40625 C 16.992188 -46.820312 16.316406 -46.53125 15.515625 -46.53125 Z M 10.34375 -38.390625 C 9.601562 -38.390625 8.941406 -38.679688 8.359375 -39.265625 C 7.773438 -39.859375 7.484375 -40.519531 7.484375 -41.25 C 7.484375 -42.050781 7.773438 -42.726562 8.359375 -43.28125 C 8.941406 -43.832031 9.601562 -44.109375 10.34375 -44.109375 C 11.144531 -44.109375 11.820312 -43.832031 12.375 -43.28125 C 12.925781 -42.726562 13.203125 -42.050781 13.203125 -41.25 C 13.203125 -40.519531 12.925781 -39.859375 12.375 -39.265625 C 11.820312 -38.679688 11.144531 -38.390625 10.34375 -38.390625 Z M 55.4375 -38.390625 C 54.707031 -38.390625 54.046875 -38.679688 53.453125 -39.265625 C 52.867188 -39.859375 52.578125 -40.519531 52.578125 -41.25 C 52.578125 -42.050781 52.867188 -42.726562 53.453125 -43.28125 C 54.046875 -43.832031 54.707031 -44.109375 55.4375 -44.109375 C 56.25 -44.109375 56.925781 -43.832031 57.46875 -43.28125 C 58.019531 -42.726562 58.296875 -42.050781 58.296875 -41.25 C 58.296875 -40.519531 58.019531 -39.859375 57.46875 -39.265625 C 56.925781 -38.679688 56.25 -38.390625 55.4375 -38.390625 Z M 8.359375 -29.15625 C 7.628906 -29.15625 6.96875 -29.445312 6.375 -30.03125 C 5.789062 -30.613281 5.5 -31.273438 5.5 -32.015625 C 5.5 -32.816406 5.789062 -33.492188 6.375 -34.046875 C 6.96875 -34.597656 7.628906 -34.875 8.359375 -34.875 C 9.160156 -34.875 9.835938 -34.597656 10.390625 -34.046875 C 10.941406 -33.492188 11.21875 -32.816406 11.21875 -32.015625 C 11.21875 -31.273438 10.941406 -30.613281 10.390625 -30.03125 C 9.835938 -29.445312 9.160156 -29.15625 8.359375 -29.15625 Z M 57.421875 -29.15625 C 56.679688 -29.15625 56.019531 -29.445312 55.4375 -30.03125 C 54.851562 -30.613281 54.5625 -31.273438 54.5625 -32.015625 C 54.5625 -32.816406 54.851562 -33.492188 55.4375 -34.046875 C 56.019531 -34.597656 56.679688 -34.875 57.421875 -34.875 C 58.222656 -34.875 58.898438 -34.597656 59.453125 -34.046875 C 60.003906 -33.492188 60.28125 -32.816406 60.28125 -32.015625 C 60.28125 -31.273438 60.003906 -30.613281 59.453125 -30.03125 C 58.898438 -29.445312 58.222656 -29.15625 57.421875 -29.15625 Z M 10.34375 -19.90625 C 9.601562 -19.90625 8.941406 -20.195312 8.359375 -20.78125 C 7.773438 -21.375 7.484375 -22.035156 7.484375 -22.765625 C 7.484375 -23.578125 7.773438 -24.253906 8.359375 -24.796875 C 8.941406 -25.347656 9.601562 -25.625 10.34375 -25.625 C 11.144531 -25.625 11.820312 -25.347656 12.375 -24.796875 C 12.925781 -24.253906 13.203125 -23.578125 13.203125 -22.765625 C 13.203125 -22.035156 12.925781 -21.375 12.375 -20.78125 C 11.820312 -20.195312 11.144531 -19.90625 10.34375 -19.90625 Z M 55.4375 -19.90625 C 54.707031 -19.90625 54.046875 -20.195312 53.453125 -20.78125 C 52.867188 -21.375 52.578125 -22.035156 52.578125 -22.765625 C 52.578125 -23.578125 52.867188 -24.253906 53.453125 -24.796875 C 54.046875 -25.347656 54.707031 -25.625 55.4375 -25.625 C 56.25 -25.625 56.925781 -25.347656 57.46875 -24.796875 C 58.019531 -24.253906 58.296875 -23.578125 58.296875 -22.765625 C 58.296875 -22.035156 58.019531 -21.375 57.46875 -20.78125 C 56.925781 -20.195312 56.25 -19.90625 55.4375 -19.90625 Z M 15.515625 -11.765625 C 14.773438 -11.765625 14.113281 -12.054688 13.53125 -12.640625 C 12.945312 -13.234375 12.65625 -13.894531 12.65625 -14.625 C 12.65625 -15.4375 12.945312 -16.113281 13.53125 -16.65625 C 14.113281 -17.207031 14.773438 -17.484375 15.515625 -17.484375 C 16.316406 -17.484375 16.992188 -17.207031 17.546875 -16.65625 C 18.097656 -16.113281 18.375 -15.4375 18.375 -14.625 C 18.375 -13.894531 18.097656 -13.234375 17.546875 -12.640625 C 16.992188 -12.054688 16.316406 -11.765625 15.515625 -11.765625 Z M 50.265625 -11.765625 C 49.535156 -11.765625 48.875 -12.054688 48.28125 -12.640625 C 47.695312 -13.234375 47.40625 -13.894531 47.40625 -14.625 C 47.40625 -15.4375 47.695312 -16.113281 48.28125 -16.65625 C 48.875 -17.207031 49.535156 -17.484375 50.265625 -17.484375 C 51.078125 -17.484375 51.753906 -17.207031 52.296875 -16.65625 C 52.847656 -16.113281 53.125 -15.4375 53.125 -14.625 C 53.125 -13.894531 52.847656 -13.234375 52.296875 -12.640625 C 51.753906 -12.054688 51.078125 -11.765625 50.265625 -11.765625 Z M 23.65625 -6.59375 C 22.914062 -6.59375 22.253906 -6.882812 21.671875 -7.46875 C 21.085938 -8.0625 20.796875 -8.722656 20.796875 -9.453125 C 20.796875 -10.265625 21.085938 -10.941406 21.671875 -11.484375 C 22.253906 -12.035156 22.914062 -12.3125 23.65625 -12.3125 C 24.457031 -12.3125 25.132812 -12.035156 25.6875 -11.484375 C 26.238281 -10.941406 26.515625 -10.265625 26.515625 -9.453125 C 26.515625 -8.722656 26.238281 -8.0625 25.6875 -7.46875 C 25.132812 -6.882812 24.457031 -6.59375 23.65625 -6.59375 Z M 42.125 -6.59375 C 41.394531 -6.59375 40.734375 -6.882812 40.140625 -7.46875 C 39.554688 -8.0625 39.265625 -8.722656 39.265625 -9.453125 C 39.265625 -10.265625 39.554688 -10.941406 40.140625 -11.484375 C 40.734375 -12.035156 41.394531 -12.3125 42.125 -12.3125 C 42.9375 -12.3125 43.613281 -12.035156 44.15625 -11.484375 C 44.707031 -10.941406 44.984375 -10.265625 44.984375 -9.453125 C 44.984375 -8.722656 44.707031 -8.0625 44.15625 -7.46875 C 43.613281 -6.882812 42.9375 -6.59375 42.125 -6.59375 Z M 32.890625 -4.625 C 32.160156 -4.625 31.5 -4.914062 30.90625 -5.5 C 30.320312 -6.082031 30.03125 -6.742188 30.03125 -7.484375 C 30.03125 -8.285156 30.320312 -8.960938 30.90625 -9.515625 C 31.5 -10.066406 32.160156 -10.34375 32.890625 -10.34375 C 33.691406 -10.34375 34.367188 -10.066406 34.921875 -9.515625 C 35.472656 -8.960938 35.75 -8.285156 35.75 -7.484375 C 35.75 -6.742188 35.472656 -6.082031 34.921875 -5.5 C 34.367188 -4.914062 33.691406 -4.625 32.890625 -4.625 Z M 32.890625 -4.625 "/>
</symbol>
<symbol overflow="visible" id="bengali-yaphala:id2:glyph0-2" class="c0">
<path style="stroke:none;" d="M 9.125 4.625 L 6.375 0.875 C 9.601562 -1.175781 11.953125 -3.578125 13.421875 -6.328125 C 14.890625 -9.078125 15.625 -12.066406 15.625 -15.296875 C 15.625 -17.710938 15.179688 -20.09375 14.296875 -22.4375 C 13.421875 -24.78125 12.375 -27.144531 11.15625 -29.53125 C 9.945312 -31.914062 8.898438 -34.351562 8.015625 -36.84375 C 7.140625 -39.34375 6.703125 -41.910156 6.703125 -44.546875 C 6.703125 -48.503906 7.75 -51.988281 9.84375 -55 C 11.9375 -58.007812 14.300781 -60.578125 16.9375 -62.703125 L 0.546875 -62.703125 L -3.1875 -68.421875 L 30.796875 -68.421875 L 34.546875 -62.703125 L 23.875 -62.703125 C 21.894531 -61.160156 19.988281 -58.976562 18.15625 -56.15625 C 16.320312 -53.332031 15.40625 -50.050781 15.40625 -46.3125 C 15.40625 -43.738281 15.84375 -41.332031 16.71875 -39.09375 C 17.601562 -36.863281 18.628906 -34.648438 19.796875 -32.453125 C 20.972656 -30.253906 22 -27.941406 22.875 -25.515625 C 23.757812 -23.097656 24.203125 -20.457031 24.203125 -17.59375 C 24.203125 -12.90625 22.769531 -8.617188 19.90625 -4.734375 C 17.050781 -0.847656 13.457031 2.269531 9.125 4.625 Z M 9.125 4.625 "/>
</symbol>
</g>
<filter id="bengali-yaphala:local-greyscale"> <feColorMatrix type="saturate" values="0.0" color-interpolation-filters="sRGB"/> <feComponentTransfer> <feFuncR type="gamma" exponent="4.0" amplitude="1.0" offset="0"/> <feFuncG type="gamma" exponent="4.0" amplitude="1.0" offset="0"/> <feFuncB type="gamma" exponent="4.0" amplitude="1.0" offset="0"/> </feComponentTransfer> </filter></defs>
  <g id="bengali-yaphala:id0:id0" transform="matrix(1.25,0,0,1.25,0.0,0.0)"><g id="bengali-yaphala:id0:surface1">
<g style="fill:rgb(0%,0%,0%);fill-opacity:1;">
  <use xlink:href="#bengali-yaphala:id0:glyph0-1" x="16" y="122.125" class="dc"/>
  <use xlink:href="#bengali-yaphala:id0:glyph0-2" x="57.140625" y="122.125" class="c0"/>
  <use xlink:href="#bengali-yaphala:id0:glyph0-3" x="81.78125" y="122.125" class="c1"/>
</g>
</g>
</g>
  <g id="bengali-yaphala:id1:id1" transform="matrix(1.25,0,0,1.25,195.5078125,11.38671875)"><g id="bengali-yaphala:id1:surface1">
<g style="fill:rgb(0%,0%,0%);fill-opacity:1;">
  <use xlink:href="#bengali-yaphala:id1:glyph0-1" x="0" y="120.84375" class="arrow"/>
</g>
</g>
</g>
  <g id="bengali-yaphala:id2:id2" transform="matrix(1.25,0,0,1.25,328.10546875,0.0)"><g id="bengali-yaphala:id2:surface1">
<g style="fill:rgb(0%,0%,0%);fill-opacity:1;">
  <use xlink:href="#bengali-yaphala:id2:glyph0-1" x="16" y="122.125" class="dc"/>
  <use xlink:href="#bengali-yaphala:id2:glyph0-2" x="81.78125" y="122.125" class="c1"/>
</g>
</g>
</g>
</svg>
