<!DOCTYPE svg PUBLIC "-//W3C//DTD SVG 1.1//EN" "http://www.w3.org/Graphics/SVG/1.1/DTD/svg11.dtd">
<!-- Created with svg_stack (http://github.com/astraw/svg_stack) --><svg xmlns="http://www.w3.org/2000/svg" xmlns:sodipodi="http://sodipodi.sourceforge.net/DTD/sodipodi-0.dtd" xmlns:xlink="http://www.w3.org/1999/xlink" version="1.1" width="100%" id="bengali-reph-position" viewBox="0 0 731.81640625 224.1796875">
  <defs><g>
<symbol overflow="visible" id="bengali-reph-position:id0:glyph0-0">
<path style="stroke:none;" d="M 10.34375 0 L 10.34375 -78.546875 L 55.546875 -78.546875 L 55.546875 0 Z M 15.953125 -5.609375 L 49.9375 -5.609375 L 49.9375 -72.9375 L 15.953125 -72.9375 Z M 15.953125 -5.609375 "/>
</symbol>
<symbol overflow="visible" id="bengali-reph-position:id0:glyph0-1">
<path style="stroke:none;" d="M 32.890625 -53.6875 C 32.160156 -53.6875 31.5 -53.976562 30.90625 -54.5625 C 30.320312 -55.144531 30.03125 -55.804688 30.03125 -56.546875 C 30.03125 -57.347656 30.320312 -58.023438 30.90625 -58.578125 C 31.5 -59.128906 32.160156 -59.40625 32.890625 -59.40625 C 33.691406 -59.40625 34.367188 -59.128906 34.921875 -58.578125 C 35.472656 -58.023438 35.75 -57.347656 35.75 -56.546875 C 35.75 -55.804688 35.472656 -55.144531 34.921875 -54.5625 C 34.367188 -53.976562 33.691406 -53.6875 32.890625 -53.6875 Z M 23.65625 -51.703125 C 22.914062 -51.703125 22.253906 -51.992188 21.671875 -52.578125 C 21.085938 -53.160156 20.796875 -53.820312 20.796875 -54.5625 C 20.796875 -55.363281 21.085938 -56.039062 21.671875 -56.59375 C 22.253906 -57.144531 22.914062 -57.421875 23.65625 -57.421875 C 24.457031 -57.421875 25.132812 -57.144531 25.6875 -56.59375 C 26.238281 -56.039062 26.515625 -55.363281 26.515625 -54.5625 C 26.515625 -53.820312 26.238281 -53.160156 25.6875 -52.578125 C 25.132812 -51.992188 24.457031 -51.703125 23.65625 -51.703125 Z M 42.125 -51.703125 C 41.394531 -51.703125 40.734375 -51.992188 40.140625 -52.578125 C 39.554688 -53.160156 39.265625 -53.820312 39.265625 -54.5625 C 39.265625 -55.363281 39.554688 -56.039062 40.140625 -56.59375 C 40.734375 -57.144531 41.394531 -57.421875 42.125 -57.421875 C 42.9375 -57.421875 43.613281 -57.144531 44.15625 -56.59375 C 44.707031 -56.039062 44.984375 -55.363281 44.984375 -54.5625 C 44.984375 -53.820312 44.707031 -53.160156 44.15625 -52.578125 C 43.613281 -51.992188 42.9375 -51.703125 42.125 -51.703125 Z M 50.265625 -46.53125 C 49.535156 -46.53125 48.875 -46.820312 48.28125 -47.40625 C 47.695312 -48 47.40625 -48.660156 47.40625 -49.390625 C 47.40625 -50.191406 47.695312 -50.867188 48.28125 -51.421875 C 48.875 -51.972656 49.535156 -52.25 50.265625 -52.25 C 51.078125 -52.25 51.753906 -51.972656 52.296875 -51.421875 C 52.847656 -50.867188 53.125 -50.191406 53.125 -49.390625 C 53.125 -48.660156 52.847656 -48 52.296875 -47.40625 C 51.753906 -46.820312 51.078125 -46.53125 50.265625 -46.53125 Z M 15.515625 -46.53125 C 14.773438 -46.53125 14.113281 -46.820312 13.53125 -47.40625 C 12.945312 -48 12.65625 -48.660156 12.65625 -49.390625 C 12.65625 -50.191406 12.945312 -50.867188 13.53125 -51.421875 C 14.113281 -51.972656 14.773438 -52.25 15.515625 -52.25 C 16.316406 -52.25 16.992188 -51.972656 17.546875 -51.421875 C 18.097656 -50.867188 18.375 -50.191406 18.375 -49.390625 C 18.375 -48.660156 18.097656 -48 17.546875 -47.40625 C 16.992188 -46.820312 16.316406 -46.53125 15.515625 -46.53125 Z M 10.34375 -38.390625 C 9.601562 -38.390625 8.941406 -38.679688 8.359375 -39.265625 C 7.773438 -39.859375 7.484375 -40.519531 7.484375 -41.25 C 7.484375 -42.050781 7.773438 -42.726562 8.359375 -43.28125 C 8.941406 -43.832031 9.601562 -44.109375 10.34375 -44.109375 C 11.144531 -44.109375 11.820312 -43.832031 12.375 -43.28125 C 12.925781 -42.726562 13.203125 -42.050781 13.203125 -41.25 C 13.203125 -40.519531 12.925781 -39.859375 12.375 -39.265625 C 11.820312 -38.679688 11.144531 -38.390625 10.34375 -38.390625 Z M 55.4375 -38.390625 C 54.707031 -38.390625 54.046875 -38.679688 53.453125 -39.265625 C 52.867188 -39.859375 52.578125 -40.519531 52.578125 -41.25 C 52.578125 -42.050781 52.867188 -42.726562 53.453125 -43.28125 C 54.046875 -43.832031 54.707031 -44.109375 55.4375 -44.109375 C 56.25 -44.109375 56.925781 -43.832031 57.46875 -43.28125 C 58.019531 -42.726562 58.296875 -42.050781 58.296875 -41.25 C 58.296875 -40.519531 58.019531 -39.859375 57.46875 -39.265625 C 56.925781 -38.679688 56.25 -38.390625 55.4375 -38.390625 Z M 8.359375 -29.15625 C 7.628906 -29.15625 6.96875 -29.445312 6.375 -30.03125 C 5.789062 -30.613281 5.5 -31.273438 5.5 -32.015625 C 5.5 -32.816406 5.789062 -33.492188 6.375 -34.046875 C 6.96875 -34.597656 7.628906 -34.875 8.359375 -34.875 C 9.160156 -34.875 9.835938 -34.597656 10.390625 -34.046875 C 10.941406 -33.492188 11.21875 -32.816406 11.21875 -32.015625 C 11.21875 -31.273438 10.941406 -30.613281 10.390625 -30.03125 C 9.835938 -29.445312 9.160156 -29.15625 8.359375 -29.15625 Z M 57.421875 -29.15625 C 56.679688 -29.15625 56.019531 -29.445312 55.4375 -30.03125 C 54.851562 -30.613281 54.5625 -31.273438 54.5625 -32.015625 C 54.5625 -32.816406 54.851562 -33.492188 55.4375 -34.046875 C 56.019531 -34.597656 56.679688 -34.875 57.421875 -34.875 C 58.222656 -34.875 58.898438 -34.597656 59.453125 -34.046875 C 60.003906 -33.492188 60.28125 -32.816406 60.28125 -32.015625 C 60.28125 -31.273438 60.003906 -30.613281 59.453125 -30.03125 C 58.898438 -29.445312 58.222656 -29.15625 57.421875 -29.15625 Z M 10.34375 -19.90625 C 9.601562 -19.90625 8.941406 -20.195312 8.359375 -20.78125 C 7.773438 -21.375 7.484375 -22.035156 7.484375 -22.765625 C 7.484375 -23.578125 7.773438 -24.253906 8.359375 -24.796875 C 8.941406 -25.347656 9.601562 -25.625 10.34375 -25.625 C 11.144531 -25.625 11.820312 -25.347656 12.375 -24.796875 C 12.925781 -24.253906 13.203125 -23.578125 13.203125 -22.765625 C 13.203125 -22.035156 12.925781 -21.375 12.375 -20.78125 C 11.820312 -20.195312 11.144531 -19.90625 10.34375 -19.90625 Z M 55.4375 -19.90625 C 54.707031 -19.90625 54.046875 -20.195312 53.453125 -20.78125 C 52.867188 -21.375 52.578125 -22.035156 52.578125 -22.765625 C 52.578125 -23.578125 52.867188 -24.253906 53.453125 -24.796875 C 54.046875 -25.347656 54.707031 -25.625 55.4375 -25.625 C 56.25 -25.625 56.925781 -25.347656 57.46875 -24.796875 C 58.019531 -24.253906 58.296875 -23.578125 58.296875 -22.765625 C 58.296875 -22.035156 58.019531 -21.375 57.46875 -20.78125 C 56.925781 -20.195312 56.25 -19.90625 55.4375 -19.90625 Z M 15.515625 -11.765625 C 14.773438 -11.765625 14.113281 -12.054688 13.53125 -12.640625 C 12.945312 -13.234375 12.65625 -13.894531 12.65625 -14.625 C 12.65625 -15.4375 12.945312 -16.113281 13.53125 -16.65625 C 14.113281 -17.207031 14.773438 -17.484375 15.515625 -17.484375 C 16.316406 -17.484375 16.992188 -17.207031 17.546875 -16.65625 C 18.097656 -16.113281 18.375 -15.4375 18.375 -14.625 C 18.375 -13.894531 18.097656 -13.234375 17.546875 -12.640625 C 16.992188 -12.054688 16.316406 -11.765625 15.515625 -11.765625 Z M 50.265625 -11.765625 C 49.535156 -11.765625 48.875 -12.054688 48.28125 -12.640625 C 47.695312 -13.234375 47.40625 -13.894531 47.40625 -14.625 C 47.40625 -15.4375 47.695312 -16.113281 48.28125 -16.65625 C 48.875 -17.207031 49.535156 -17.484375 50.265625 -17.484375 C 51.078125 -17.484375 51.753906 -17.207031 52.296875 -16.65625 C 52.847656 -16.113281 53.125 -15.4375 53.125 -14.625 C 53.125 -13.894531 52.847656 -13.234375 52.296875 -12.640625 C 51.753906 -12.054688 51.078125 -11.765625 50.265625 -11.765625 Z M 23.65625 -6.59375 C 22.914062 -6.59375 22.253906 -6.882812 21.671875 -7.46875 C 21.085938 -8.0625 20.796875 -8.722656 20.796875 -9.453125 C 20.796875 -10.265625 21.085938 -10.941406 21.671875 -11.484375 C 22.253906 -12.035156 22.914062 -12.3125 23.65625 -12.3125 C 24.457031 -12.3125 25.132812 -12.035156 25.6875 -11.484375 C 26.238281 -10.941406 26.515625 -10.265625 26.515625 -9.453125 C 26.515625 -8.722656 26.238281 -8.0625 25.6875 -7.46875 C 25.132812 -6.882812 24.457031 -6.59375 23.65625 -6.59375 Z M 42.125 -6.59375 C 41.394531 -6.59375 40.734375 -6.882812 40.140625 -7.46875 C 39.554688 -8.0625 39.265625 -8.722656 39.265625 -9.453125 C 39.265625 -10.265625 39.554688 -10.941406 40.140625 -11.484375 C 40.734375 -12.035156 41.394531 -12.3125 42.125 -12.3125 C 42.9375 -12.3125 43.613281 -12.035156 44.15625 -11.484375 C 44.707031 -10.941406 44.984375 -10.265625 44.984375 -9.453125 C 44.984375 -8.722656 44.707031 -8.0625 44.15625 -7.46875 C 43.613281 -6.882812 42.9375 -6.59375 42.125 -6.59375 Z M 32.890625 -4.625 C 32.160156 -4.625 31.5 -4.914062 30.90625 -5.5 C 30.320312 -6.082031 30.03125 -6.742188 30.03125 -7.484375 C 30.03125 -8.285156 30.320312 -8.960938 30.90625 -9.515625 C 31.5 -10.066406 32.160156 -10.34375 32.890625 -10.34375 C 33.691406 -10.34375 34.367188 -10.066406 34.921875 -9.515625 C 35.472656 -8.960938 35.75 -8.285156 35.75 -7.484375 C 35.75 -6.742188 35.472656 -6.082031 34.921875 -5.5 C 34.367188 -4.914062 33.691406 -4.625 32.890625 -4.625 Z M 32.890625 -4.625 "/>
</symbol>
<symbol overflow="visible" id="bengali-reph-position:id0:glyph0-2">
<path style="stroke:none;" d="M -10.5625 -76.453125 L -17.375 -83.15625 L 10.015625 -102.40625 L 13.3125 -100.765625 Z M -10.5625 -76.453125 "/>
</symbol>
<symbol overflow="visible" id="bengali-reph-position:id0:glyph0-3">
<path style="stroke:none;" d="M 32.125 -17.9375 C 24.5 -17.9375 18.242188 -21.144531 13.359375 -27.5625 C 8.484375 -33.976562 4.65625 -43.34375 1.875 -55.65625 L 5.9375 -56.65625 C 8.726562 -47.113281 12.140625 -39.8125 16.171875 -34.75 C 20.203125 -29.695312 25.484375 -27.171875 32.015625 -27.171875 C 36.265625 -27.171875 39.617188 -28.34375 42.078125 -30.6875 C 44.535156 -33.03125 45.765625 -35.960938 45.765625 -39.484375 C 45.765625 -41.765625 45.359375 -43.597656 44.546875 -44.984375 C 42.640625 -42.710938 40.476562 -40.878906 38.0625 -39.484375 C 35.644531 -38.097656 33.296875 -37.40625 31.015625 -37.40625 C 29.472656 -37.40625 28.078125 -37.675781 26.828125 -38.21875 C 25.585938 -38.769531 24.53125 -39.453125 23.65625 -40.265625 C 21.519531 -42.171875 20.453125 -44.695312 20.453125 -47.84375 L 20.453125 -62.703125 L 0.65625 -62.703125 L -3.1875 -68.421875 L 53.34375 -68.421875 L 57.09375 -62.703125 L 26.515625 -62.703125 L 26.515625 -48.515625 C 26.515625 -46.898438 27.429688 -46.09375 29.265625 -46.09375 C 31.535156 -46.09375 33.820312 -47.0625 36.125 -49 C 38.4375 -50.945312 40.546875 -53.3125 42.453125 -56.09375 C 44.953125 -53.96875 46.953125 -51.363281 48.453125 -48.28125 C 49.953125 -45.207031 50.703125 -41.582031 50.703125 -37.40625 C 50.703125 -33.8125 50.003906 -30.523438 48.609375 -27.546875 C 47.222656 -24.578125 45.15625 -22.234375 42.40625 -20.515625 C 39.65625 -18.796875 36.226562 -17.9375 32.125 -17.9375 Z M 32.125 -17.9375 "/>
</symbol>
<symbol overflow="visible" id="bengali-reph-position:id0:glyph0-4">
<path style="stroke:none;" d="M 57.640625 1.4375 L 52.46875 -2.640625 C 48.582031 -9.242188 43.941406 -14.503906 38.546875 -18.421875 C 33.160156 -22.347656 26.398438 -24.785156 18.265625 -25.734375 L 13.859375 -37.40625 C 16.722656 -37.40625 19.601562 -37.660156 22.5 -38.171875 C 25.394531 -38.679688 28.050781 -39.484375 30.46875 -40.578125 C 32.882812 -41.679688 34.828125 -43.113281 36.296875 -44.875 C 37.765625 -46.632812 38.5 -48.726562 38.5 -51.15625 C 38.5 -53.644531 37.945312 -55.769531 36.84375 -57.53125 C 33.84375 -54.007812 30.523438 -51.1875 26.890625 -49.0625 C 23.265625 -46.9375 19.507812 -45.875 15.625 -45.875 C 13.71875 -45.875 11.863281 -46.257812 10.0625 -47.03125 C 8.269531 -47.800781 6.785156 -49.007812 5.609375 -50.65625 C 4.429688 -52.300781 3.84375 -54.445312 3.84375 -57.09375 C 3.84375 -59.65625 4.484375 -61.632812 5.765625 -63.03125 C 7.054688 -64.425781 8.945312 -65.125 11.4375 -65.125 C 13.632812 -65.125 15.359375 -64.5 16.609375 -63.25 C 17.859375 -62 18.484375 -60.421875 18.484375 -58.515625 C 18.484375 -56.972656 18.257812 -55.765625 17.8125 -54.890625 C 19.875 -55.179688 22.40625 -56.445312 25.40625 -58.6875 C 28.414062 -60.925781 31.5 -64.28125 34.65625 -68.75 C 36.1875 -67.351562 37.703125 -65.71875 39.203125 -63.84375 C 40.710938 -61.976562 41.960938 -59.875 42.953125 -57.53125 C 43.941406 -55.1875 44.4375 -52.507812 44.4375 -49.5 C 44.4375 -44.507812 43.226562 -40.546875 40.8125 -37.609375 C 38.394531 -34.679688 34.875 -32.519531 30.25 -31.125 C 34.789062 -29 38.894531 -26.304688 42.5625 -23.046875 C 46.226562 -19.785156 49.457031 -15.734375 52.25 -10.890625 L 52.25 -76.671875 L 52.6875 -76.78125 L 57.75 -73.15625 L 58.1875 -68.421875 L 66.328125 -68.421875 L 70.1875 -62.703125 L 58.1875 -62.703125 L 58.1875 1.3125 Z M 57.640625 1.4375 "/>
</symbol>
<symbol overflow="visible" id="bengali-reph-position:id0:glyph0-5">
<path style="stroke:none;" d="M 19.90625 31.6875 C 17.34375 27.644531 14.460938 24.03125 11.265625 20.84375 C 8.078125 17.65625 4.539062 15.144531 0.65625 13.3125 C 0.0703125 17.5625 -1.519531 21.003906 -4.125 23.640625 C -6.726562 26.285156 -10.375 27.609375 -15.0625 27.609375 C -18.65625 27.609375 -21.734375 26.488281 -24.296875 24.25 C -26.867188 22.019531 -28.15625 19.109375 -28.15625 15.515625 C -28.15625 11.992188 -26.867188 9.128906 -24.296875 6.921875 C -21.734375 4.722656 -18 3.625 -13.09375 3.625 C -10.300781 3.625 -7.515625 4.03125 -4.734375 4.84375 C -4.878906 3.15625 -5.171875 1.175781 -5.609375 -1.09375 C -6.046875 -3.375 -6.5625 -5.0625 -7.15625 -6.15625 L -1.765625 -7.484375 C -0.878906 -5.648438 -0.21875 -3.429688 0.21875 -0.828125 C 0.65625 1.773438 0.910156 4.398438 0.984375 7.046875 C 5.609375 9.316406 9.828125 12.445312 13.640625 16.4375 C 17.453125 20.4375 20.640625 24.710938 23.203125 29.265625 Z M -22.4375 15.0625 C -22.4375 16.75 -21.8125 18.125 -20.5625 19.1875 C -19.320312 20.257812 -17.566406 20.796875 -15.296875 20.796875 C -12.648438 20.796875 -10.445312 20.023438 -8.6875 18.484375 C -6.925781 16.941406 -5.753906 14.484375 -5.171875 11.109375 C -8.023438 10.304688 -11.03125 9.90625 -14.1875 9.90625 C -17.125 9.90625 -19.234375 10.363281 -20.515625 11.28125 C -21.796875 12.195312 -22.4375 13.457031 -22.4375 15.0625 Z M -22.4375 15.0625 "/>
</symbol>
</g>
<g>
<symbol overflow="visible" id="bengali-reph-position:id1:glyph0-0">
<path style="stroke:none;" d="M 5.375 -96.6875 L 69.828125 -96.6875 L 69.828125 0 L 5.375 0 Z M 8.0625 -2.6875 L 67.140625 -2.6875 L 67.140625 -94 L 8.0625 -94 Z M 8.0625 -2.6875 "/>
</symbol>
<symbol overflow="visible" id="bengali-reph-position:id1:glyph0-1">
<path style="stroke:none;" d="M 68.15625 -13.75 L 66.28125 -18.640625 L 88.09375 -27.390625 L 6.984375 -27.390625 L 6.984375 -34 L 88.09375 -34 L 66.28125 -42.75 L 68.15625 -47.640625 L 99.09375 -34.265625 L 99.09375 -27.125 Z M 68.15625 -13.75 "/>
</symbol>
</g>
<g>
<symbol overflow="visible" id="bengali-reph-position:id2:glyph0-0">
<path style="stroke:none;" d="M 10.34375 0 L 10.34375 -78.546875 L 55.546875 -78.546875 L 55.546875 0 Z M 15.953125 -5.609375 L 49.9375 -5.609375 L 49.9375 -72.9375 L 15.953125 -72.9375 Z M 15.953125 -5.609375 "/>
</symbol>
<symbol overflow="visible" id="bengali-reph-position:id2:glyph0-1">
<path style="stroke:none;" d="M 32.125 -17.9375 C 24.5 -17.9375 18.242188 -21.144531 13.359375 -27.5625 C 8.484375 -33.976562 4.65625 -43.34375 1.875 -55.65625 L 5.9375 -56.65625 C 8.726562 -47.113281 12.140625 -39.8125 16.171875 -34.75 C 20.203125 -29.695312 25.484375 -27.171875 32.015625 -27.171875 C 36.265625 -27.171875 39.617188 -28.34375 42.078125 -30.6875 C 44.535156 -33.03125 45.765625 -35.960938 45.765625 -39.484375 C 45.765625 -41.765625 45.359375 -43.597656 44.546875 -44.984375 C 42.640625 -42.710938 40.476562 -40.878906 38.0625 -39.484375 C 35.644531 -38.097656 33.296875 -37.40625 31.015625 -37.40625 C 29.472656 -37.40625 28.078125 -37.675781 26.828125 -38.21875 C 25.585938 -38.769531 24.53125 -39.453125 23.65625 -40.265625 C 21.519531 -42.171875 20.453125 -44.695312 20.453125 -47.84375 L 20.453125 -62.703125 L 0.65625 -62.703125 L -3.1875 -68.421875 L 53.34375 -68.421875 L 57.09375 -62.703125 L 26.515625 -62.703125 L 26.515625 -48.515625 C 26.515625 -46.898438 27.429688 -46.09375 29.265625 -46.09375 C 31.535156 -46.09375 33.820312 -47.0625 36.125 -49 C 38.4375 -50.945312 40.546875 -53.3125 42.453125 -56.09375 C 44.953125 -53.96875 46.953125 -51.363281 48.453125 -48.28125 C 49.953125 -45.207031 50.703125 -41.582031 50.703125 -37.40625 C 50.703125 -33.8125 50.003906 -30.523438 48.609375 -27.546875 C 47.222656 -24.578125 45.15625 -22.234375 42.40625 -20.515625 C 39.65625 -18.796875 36.226562 -17.9375 32.125 -17.9375 Z M 32.125 -17.9375 "/>
</symbol>
<symbol overflow="visible" id="bengali-reph-position:id2:glyph0-2">
<path style="stroke:none;" d="M 57.640625 1.4375 L 52.46875 -2.640625 C 48.582031 -9.242188 43.941406 -14.503906 38.546875 -18.421875 C 33.160156 -22.347656 26.398438 -24.785156 18.265625 -25.734375 L 13.859375 -37.40625 C 16.722656 -37.40625 19.601562 -37.660156 22.5 -38.171875 C 25.394531 -38.679688 28.050781 -39.484375 30.46875 -40.578125 C 32.882812 -41.679688 34.828125 -43.113281 36.296875 -44.875 C 37.765625 -46.632812 38.5 -48.726562 38.5 -51.15625 C 38.5 -53.644531 37.945312 -55.769531 36.84375 -57.53125 C 33.84375 -54.007812 30.523438 -51.1875 26.890625 -49.0625 C 23.265625 -46.9375 19.507812 -45.875 15.625 -45.875 C 13.71875 -45.875 11.863281 -46.257812 10.0625 -47.03125 C 8.269531 -47.800781 6.785156 -49.007812 5.609375 -50.65625 C 4.429688 -52.300781 3.84375 -54.445312 3.84375 -57.09375 C 3.84375 -59.65625 4.484375 -61.632812 5.765625 -63.03125 C 7.054688 -64.425781 8.945312 -65.125 11.4375 -65.125 C 13.632812 -65.125 15.359375 -64.5 16.609375 -63.25 C 17.859375 -62 18.484375 -60.421875 18.484375 -58.515625 C 18.484375 -56.972656 18.257812 -55.765625 17.8125 -54.890625 C 19.875 -55.179688 22.40625 -56.445312 25.40625 -58.6875 C 28.414062 -60.925781 31.5 -64.28125 34.65625 -68.75 C 36.1875 -67.351562 37.703125 -65.71875 39.203125 -63.84375 C 40.710938 -61.976562 41.960938 -59.875 42.953125 -57.53125 C 43.941406 -55.1875 44.4375 -52.507812 44.4375 -49.5 C 44.4375 -44.507812 43.226562 -40.546875 40.8125 -37.609375 C 38.394531 -34.679688 34.875 -32.519531 30.25 -31.125 C 34.789062 -29 38.894531 -26.304688 42.5625 -23.046875 C 46.226562 -19.785156 49.457031 -15.734375 52.25 -10.890625 L 52.25 -76.671875 L 52.6875 -76.78125 L 57.75 -73.15625 L 58.1875 -68.421875 L 66.328125 -68.421875 L 70.1875 -62.703125 L 58.1875 -62.703125 L 58.1875 1.3125 Z M 57.640625 1.4375 "/>
</symbol>
<symbol overflow="visible" id="bengali-reph-position:id2:glyph0-3">
<path style="stroke:none;" d="M 19.90625 31.6875 C 17.34375 27.644531 14.460938 24.03125 11.265625 20.84375 C 8.078125 17.65625 4.539062 15.144531 0.65625 13.3125 C 0.0703125 17.5625 -1.519531 21.003906 -4.125 23.640625 C -6.726562 26.285156 -10.375 27.609375 -15.0625 27.609375 C -18.65625 27.609375 -21.734375 26.488281 -24.296875 24.25 C -26.867188 22.019531 -28.15625 19.109375 -28.15625 15.515625 C -28.15625 11.992188 -26.867188 9.128906 -24.296875 6.921875 C -21.734375 4.722656 -18 3.625 -13.09375 3.625 C -10.300781 3.625 -7.515625 4.03125 -4.734375 4.84375 C -4.878906 3.15625 -5.171875 1.175781 -5.609375 -1.09375 C -6.046875 -3.375 -6.5625 -5.0625 -7.15625 -6.15625 L -1.765625 -7.484375 C -0.878906 -5.648438 -0.21875 -3.429688 0.21875 -0.828125 C 0.65625 1.773438 0.910156 4.398438 0.984375 7.046875 C 5.609375 9.316406 9.828125 12.445312 13.640625 16.4375 C 17.453125 20.4375 20.640625 24.710938 23.203125 29.265625 Z M -22.4375 15.0625 C -22.4375 16.75 -21.8125 18.125 -20.5625 19.1875 C -19.320312 20.257812 -17.566406 20.796875 -15.296875 20.796875 C -12.648438 20.796875 -10.445312 20.023438 -8.6875 18.484375 C -6.925781 16.941406 -5.753906 14.484375 -5.171875 11.109375 C -8.023438 10.304688 -11.03125 9.90625 -14.1875 9.90625 C -17.125 9.90625 -19.234375 10.363281 -20.515625 11.28125 C -21.796875 12.195312 -22.4375 13.457031 -22.4375 15.0625 Z M -22.4375 15.0625 "/>
</symbol>
<symbol overflow="visible" id="bengali-reph-position:id2:glyph0-4">
<path style="stroke:none;" d="M -10.5625 -76.453125 L -17.375 -83.15625 L 10.015625 -102.40625 L 13.3125 -100.765625 Z M -10.5625 -76.453125 "/>
</symbol>
</g>
</defs>
  <g id="bengali-reph-position:id0:id0" transform="matrix(1.25,0,0,1.25,0.0,0.0)"><g id="bengali-reph-position:id0:surface1">
<g style="fill:rgb(0%,0%,0%);fill-opacity:1;">
  <use xlink:href="#bengali-reph-position:id0:glyph0-1" x="16" y="122.125" class="dc"/>
  <use xlink:href="#bengali-reph-position:id0:glyph0-2" x="58.34375" y="125.421875" class="c0"/>
  <use xlink:href="#bengali-reph-position:id0:glyph0-3" x="81.78125" y="122.125" class="c1"/>
  <use xlink:href="#bengali-reph-position:id0:glyph0-3" x="135.6875" y="122.125" class="c2"/>
  <use xlink:href="#bengali-reph-position:id0:glyph0-4" x="189.59375" y="122.125" class="c3"/>
  <use xlink:href="#bengali-reph-position:id0:glyph0-5" x="247.234375" y="118.828125" class="c4"/>
</g>
</g>
</g>
  <g id="bengali-reph-position:id1:id1" transform="matrix(1.25,0,0,1.25,340.72265625,11.38671875)"><g id="bengali-reph-position:id1:surface1">
<g style="fill:rgb(0%,0%,0%);fill-opacity:1;">
  <use xlink:href="#bengali-reph-position:id1:glyph0-1" x="0" y="120.84375" class="arrow"/>
</g>
</g>
</g>
  <g id="bengali-reph-position:id2:id2" transform="matrix(1.25,0,0,1.25,473.3203125,0.0)"><g id="bengali-reph-position:id2:surface1">
<g style="fill:rgb(0%,0%,0%);fill-opacity:1;">
  <use xlink:href="#bengali-reph-position:id2:glyph0-1" x="16" y="122.125" class="c1"/>
  <use xlink:href="#bengali-reph-position:id2:glyph0-1" x="69.90625" y="122.125" class="c2"/>
  <use xlink:href="#bengali-reph-position:id2:glyph0-2" x="123.8125" y="122.125" class="c3"/>
  <use xlink:href="#bengali-reph-position:id2:glyph0-3" x="181.453125" y="118.828125" class="c4"/>
  <use xlink:href="#bengali-reph-position:id2:glyph0-4" x="188.15625" y="129.828125" class="c0"/>
</g>
</g>
</g>
</svg>