<?xml version="1.0" standalone="no"?>
<!DOCTYPE svg PUBLIC "-//W3C//DTD SVG 1.1//EN"
 "http://www.w3.org/Graphics/SVG/1.1/DTD/svg11.dtd">
<!-- Created with svg_stack (http://github.com/astraw/svg_stack) -->
<svg xmlns="http://www.w3.org/2000/svg" xmlns:sodipodi="http://sodipodi.sourceforge.net/DTD/sodipodi-0.dtd" xmlns:xlink="http://www.w3.org/1999/xlink" version="1.1" width="650.13671875" height="224.1796875">
  <defs><g>
<symbol overflow="visible" id="id0:glyph0-0">
<path style="stroke:none;" d="M 10.34375 0 L 10.34375 -78.546875 L 55.546875 -78.546875 L 55.546875 0 Z M 15.953125 -5.609375 L 49.9375 -5.609375 L 49.9375 -72.9375 L 15.953125 -72.9375 Z M 15.953125 -5.609375 "/>
</symbol>
<symbol overflow="visible" id="id0:glyph0-1">
<path style="stroke:none;" d="M 37.625 -6.265625 C 29.1875 -6.265625 22.050781 -9.96875 16.21875 -17.375 C 10.394531 -24.78125 5.722656 -36.585938 2.203125 -52.796875 L 6.59375 -54.125 C 10.113281 -40.84375 14.273438 -31.125 19.078125 -24.96875 C 23.890625 -18.8125 30.035156 -15.734375 37.515625 -15.734375 C 41.328125 -15.734375 44.382812 -16.410156 46.6875 -17.765625 C 49 -19.117188 50.6875 -20.878906 51.75 -23.046875 C 52.8125 -25.210938 53.34375 -27.46875 53.34375 -29.8125 C 53.34375 -30.976562 53.25 -32.054688 53.0625 -33.046875 C 52.882812 -34.046875 52.648438 -34.945312 52.359375 -35.75 C 50.234375 -33.476562 47.847656 -31.550781 45.203125 -29.96875 C 42.566406 -28.394531 39.707031 -27.609375 36.625 -27.609375 C 33.695312 -27.609375 31.09375 -28.394531 28.8125 -29.96875 C 26.539062 -31.550781 24.765625 -33.644531 23.484375 -36.25 C 22.203125 -38.851562 21.5625 -41.726562 21.5625 -44.875 C 21.5625 -48.101562 22.382812 -51.203125 24.03125 -54.171875 C 25.6875 -57.140625 28.273438 -59.984375 31.796875 -62.703125 L 0.546875 -62.703125 L -3.1875 -68.421875 L 86.453125 -68.421875 L 90.203125 -62.703125 L 51.8125 -62.703125 C 54.59375 -58.367188 57.960938 -55.394531 61.921875 -53.78125 C 65.890625 -52.175781 70.84375 -51.265625 76.78125 -51.046875 L 81.625 -43.5625 C 78.90625 -39.75 76.847656 -35.914062 75.453125 -32.0625 C 74.066406 -28.21875 73.375 -24.238281 73.375 -20.125 C 73.375 -16.90625 73.609375 -13.625 74.078125 -10.28125 C 74.554688 -6.945312 75.3125 -3.664062 76.34375 -0.4375 L 72.046875 1.546875 C 70.429688 -2.640625 69.21875 -6.75 68.40625 -10.78125 C 67.601562 -14.8125 67.203125 -19.066406 67.203125 -23.546875 C 67.203125 -26.765625 67.476562 -30.113281 68.03125 -33.59375 C 68.582031 -37.082031 69.375 -40.222656 70.40625 -43.015625 C 65.5625 -44.035156 60.957031 -45.972656 56.59375 -48.828125 C 52.226562 -51.691406 48.765625 -55.875 46.203125 -61.375 C 40.554688 -58.519531 36.132812 -55.550781 32.9375 -52.46875 C 29.75 -49.382812 28.15625 -46.125 28.15625 -42.6875 C 28.15625 -40.476562 28.796875 -38.804688 30.078125 -37.671875 C 31.367188 -36.535156 33.078125 -35.96875 35.203125 -35.96875 C 37.765625 -35.96875 40.328125 -37.007812 42.890625 -39.09375 C 45.460938 -41.1875 47.992188 -44.03125 50.484375 -47.625 C 53.710938 -44.625 55.875 -41.453125 56.96875 -38.109375 C 58.070312 -34.773438 58.625 -31.347656 58.625 -27.828125 C 58.625 -23.796875 57.875 -20.144531 56.375 -16.875 C 54.875 -13.613281 52.582031 -11.03125 49.5 -9.125 C 46.414062 -7.21875 42.457031 -6.265625 37.625 -6.265625 Z M 37.625 -6.265625 "/>
</symbol>
<symbol overflow="visible" id="id0:glyph0-2">
<path style="stroke:none;" d="M 32.890625 -53.6875 C 32.160156 -53.6875 31.5 -53.976562 30.90625 -54.5625 C 30.320312 -55.144531 30.03125 -55.804688 30.03125 -56.546875 C 30.03125 -57.347656 30.320312 -58.023438 30.90625 -58.578125 C 31.5 -59.128906 32.160156 -59.40625 32.890625 -59.40625 C 33.691406 -59.40625 34.367188 -59.128906 34.921875 -58.578125 C 35.472656 -58.023438 35.75 -57.347656 35.75 -56.546875 C 35.75 -55.804688 35.472656 -55.144531 34.921875 -54.5625 C 34.367188 -53.976562 33.691406 -53.6875 32.890625 -53.6875 Z M 23.65625 -51.703125 C 22.914062 -51.703125 22.253906 -51.992188 21.671875 -52.578125 C 21.085938 -53.160156 20.796875 -53.820312 20.796875 -54.5625 C 20.796875 -55.363281 21.085938 -56.039062 21.671875 -56.59375 C 22.253906 -57.144531 22.914062 -57.421875 23.65625 -57.421875 C 24.457031 -57.421875 25.132812 -57.144531 25.6875 -56.59375 C 26.238281 -56.039062 26.515625 -55.363281 26.515625 -54.5625 C 26.515625 -53.820312 26.238281 -53.160156 25.6875 -52.578125 C 25.132812 -51.992188 24.457031 -51.703125 23.65625 -51.703125 Z M 42.125 -51.703125 C 41.394531 -51.703125 40.734375 -51.992188 40.140625 -52.578125 C 39.554688 -53.160156 39.265625 -53.820312 39.265625 -54.5625 C 39.265625 -55.363281 39.554688 -56.039062 40.140625 -56.59375 C 40.734375 -57.144531 41.394531 -57.421875 42.125 -57.421875 C 42.9375 -57.421875 43.613281 -57.144531 44.15625 -56.59375 C 44.707031 -56.039062 44.984375 -55.363281 44.984375 -54.5625 C 44.984375 -53.820312 44.707031 -53.160156 44.15625 -52.578125 C 43.613281 -51.992188 42.9375 -51.703125 42.125 -51.703125 Z M 50.265625 -46.53125 C 49.535156 -46.53125 48.875 -46.820312 48.28125 -47.40625 C 47.695312 -48 47.40625 -48.660156 47.40625 -49.390625 C 47.40625 -50.191406 47.695312 -50.867188 48.28125 -51.421875 C 48.875 -51.972656 49.535156 -52.25 50.265625 -52.25 C 51.078125 -52.25 51.753906 -51.972656 52.296875 -51.421875 C 52.847656 -50.867188 53.125 -50.191406 53.125 -49.390625 C 53.125 -48.660156 52.847656 -48 52.296875 -47.40625 C 51.753906 -46.820312 51.078125 -46.53125 50.265625 -46.53125 Z M 15.515625 -46.53125 C 14.773438 -46.53125 14.113281 -46.820312 13.53125 -47.40625 C 12.945312 -48 12.65625 -48.660156 12.65625 -49.390625 C 12.65625 -50.191406 12.945312 -50.867188 13.53125 -51.421875 C 14.113281 -51.972656 14.773438 -52.25 15.515625 -52.25 C 16.316406 -52.25 16.992188 -51.972656 17.546875 -51.421875 C 18.097656 -50.867188 18.375 -50.191406 18.375 -49.390625 C 18.375 -48.660156 18.097656 -48 17.546875 -47.40625 C 16.992188 -46.820312 16.316406 -46.53125 15.515625 -46.53125 Z M 10.34375 -38.390625 C 9.601562 -38.390625 8.941406 -38.679688 8.359375 -39.265625 C 7.773438 -39.859375 7.484375 -40.519531 7.484375 -41.25 C 7.484375 -42.050781 7.773438 -42.726562 8.359375 -43.28125 C 8.941406 -43.832031 9.601562 -44.109375 10.34375 -44.109375 C 11.144531 -44.109375 11.820312 -43.832031 12.375 -43.28125 C 12.925781 -42.726562 13.203125 -42.050781 13.203125 -41.25 C 13.203125 -40.519531 12.925781 -39.859375 12.375 -39.265625 C 11.820312 -38.679688 11.144531 -38.390625 10.34375 -38.390625 Z M 55.4375 -38.390625 C 54.707031 -38.390625 54.046875 -38.679688 53.453125 -39.265625 C 52.867188 -39.859375 52.578125 -40.519531 52.578125 -41.25 C 52.578125 -42.050781 52.867188 -42.726562 53.453125 -43.28125 C 54.046875 -43.832031 54.707031 -44.109375 55.4375 -44.109375 C 56.25 -44.109375 56.925781 -43.832031 57.46875 -43.28125 C 58.019531 -42.726562 58.296875 -42.050781 58.296875 -41.25 C 58.296875 -40.519531 58.019531 -39.859375 57.46875 -39.265625 C 56.925781 -38.679688 56.25 -38.390625 55.4375 -38.390625 Z M 8.359375 -29.15625 C 7.628906 -29.15625 6.96875 -29.445312 6.375 -30.03125 C 5.789062 -30.613281 5.5 -31.273438 5.5 -32.015625 C 5.5 -32.816406 5.789062 -33.492188 6.375 -34.046875 C 6.96875 -34.597656 7.628906 -34.875 8.359375 -34.875 C 9.160156 -34.875 9.835938 -34.597656 10.390625 -34.046875 C 10.941406 -33.492188 11.21875 -32.816406 11.21875 -32.015625 C 11.21875 -31.273438 10.941406 -30.613281 10.390625 -30.03125 C 9.835938 -29.445312 9.160156 -29.15625 8.359375 -29.15625 Z M 57.421875 -29.15625 C 56.679688 -29.15625 56.019531 -29.445312 55.4375 -30.03125 C 54.851562 -30.613281 54.5625 -31.273438 54.5625 -32.015625 C 54.5625 -32.816406 54.851562 -33.492188 55.4375 -34.046875 C 56.019531 -34.597656 56.679688 -34.875 57.421875 -34.875 C 58.222656 -34.875 58.898438 -34.597656 59.453125 -34.046875 C 60.003906 -33.492188 60.28125 -32.816406 60.28125 -32.015625 C 60.28125 -31.273438 60.003906 -30.613281 59.453125 -30.03125 C 58.898438 -29.445312 58.222656 -29.15625 57.421875 -29.15625 Z M 10.34375 -19.90625 C 9.601562 -19.90625 8.941406 -20.195312 8.359375 -20.78125 C 7.773438 -21.375 7.484375 -22.035156 7.484375 -22.765625 C 7.484375 -23.578125 7.773438 -24.253906 8.359375 -24.796875 C 8.941406 -25.347656 9.601562 -25.625 10.34375 -25.625 C 11.144531 -25.625 11.820312 -25.347656 12.375 -24.796875 C 12.925781 -24.253906 13.203125 -23.578125 13.203125 -22.765625 C 13.203125 -22.035156 12.925781 -21.375 12.375 -20.78125 C 11.820312 -20.195312 11.144531 -19.90625 10.34375 -19.90625 Z M 55.4375 -19.90625 C 54.707031 -19.90625 54.046875 -20.195312 53.453125 -20.78125 C 52.867188 -21.375 52.578125 -22.035156 52.578125 -22.765625 C 52.578125 -23.578125 52.867188 -24.253906 53.453125 -24.796875 C 54.046875 -25.347656 54.707031 -25.625 55.4375 -25.625 C 56.25 -25.625 56.925781 -25.347656 57.46875 -24.796875 C 58.019531 -24.253906 58.296875 -23.578125 58.296875 -22.765625 C 58.296875 -22.035156 58.019531 -21.375 57.46875 -20.78125 C 56.925781 -20.195312 56.25 -19.90625 55.4375 -19.90625 Z M 15.515625 -11.765625 C 14.773438 -11.765625 14.113281 -12.054688 13.53125 -12.640625 C 12.945312 -13.234375 12.65625 -13.894531 12.65625 -14.625 C 12.65625 -15.4375 12.945312 -16.113281 13.53125 -16.65625 C 14.113281 -17.207031 14.773438 -17.484375 15.515625 -17.484375 C 16.316406 -17.484375 16.992188 -17.207031 17.546875 -16.65625 C 18.097656 -16.113281 18.375 -15.4375 18.375 -14.625 C 18.375 -13.894531 18.097656 -13.234375 17.546875 -12.640625 C 16.992188 -12.054688 16.316406 -11.765625 15.515625 -11.765625 Z M 50.265625 -11.765625 C 49.535156 -11.765625 48.875 -12.054688 48.28125 -12.640625 C 47.695312 -13.234375 47.40625 -13.894531 47.40625 -14.625 C 47.40625 -15.4375 47.695312 -16.113281 48.28125 -16.65625 C 48.875 -17.207031 49.535156 -17.484375 50.265625 -17.484375 C 51.078125 -17.484375 51.753906 -17.207031 52.296875 -16.65625 C 52.847656 -16.113281 53.125 -15.4375 53.125 -14.625 C 53.125 -13.894531 52.847656 -13.234375 52.296875 -12.640625 C 51.753906 -12.054688 51.078125 -11.765625 50.265625 -11.765625 Z M 23.65625 -6.59375 C 22.914062 -6.59375 22.253906 -6.882812 21.671875 -7.46875 C 21.085938 -8.0625 20.796875 -8.722656 20.796875 -9.453125 C 20.796875 -10.265625 21.085938 -10.941406 21.671875 -11.484375 C 22.253906 -12.035156 22.914062 -12.3125 23.65625 -12.3125 C 24.457031 -12.3125 25.132812 -12.035156 25.6875 -11.484375 C 26.238281 -10.941406 26.515625 -10.265625 26.515625 -9.453125 C 26.515625 -8.722656 26.238281 -8.0625 25.6875 -7.46875 C 25.132812 -6.882812 24.457031 -6.59375 23.65625 -6.59375 Z M 42.125 -6.59375 C 41.394531 -6.59375 40.734375 -6.882812 40.140625 -7.46875 C 39.554688 -8.0625 39.265625 -8.722656 39.265625 -9.453125 C 39.265625 -10.265625 39.554688 -10.941406 40.140625 -11.484375 C 40.734375 -12.035156 41.394531 -12.3125 42.125 -12.3125 C 42.9375 -12.3125 43.613281 -12.035156 44.15625 -11.484375 C 44.707031 -10.941406 44.984375 -10.265625 44.984375 -9.453125 C 44.984375 -8.722656 44.707031 -8.0625 44.15625 -7.46875 C 43.613281 -6.882812 42.9375 -6.59375 42.125 -6.59375 Z M 32.890625 -4.625 C 32.160156 -4.625 31.5 -4.914062 30.90625 -5.5 C 30.320312 -6.082031 30.03125 -6.742188 30.03125 -7.484375 C 30.03125 -8.285156 30.320312 -8.960938 30.90625 -9.515625 C 31.5 -10.066406 32.160156 -10.34375 32.890625 -10.34375 C 33.691406 -10.34375 34.367188 -10.066406 34.921875 -9.515625 C 35.472656 -8.960938 35.75 -8.285156 35.75 -7.484375 C 35.75 -6.742188 35.472656 -6.082031 34.921875 -5.5 C 34.367188 -4.914062 33.691406 -4.625 32.890625 -4.625 Z M 32.890625 -4.625 "/>
</symbol>
<symbol overflow="visible" id="id0:glyph0-3">
<path style="stroke:none;" d="M 9.34375 26.734375 C 6.195312 23.429688 2.585938 20.585938 -1.484375 18.203125 C -5.554688 15.816406 -9.9375 14.113281 -14.625 13.09375 L -12.4375 5.828125 C -7.300781 7.441406 -2.644531 9.675781 1.53125 12.53125 C 5.71875 15.394531 9.390625 18.988281 12.546875 23.3125 Z M 9.34375 26.734375 "/>
</symbol>
<symbol overflow="visible" id="id0:glyph0-4">
<path style="stroke:none;" d="M 62.484375 1.4375 L 57.3125 -2.640625 C 55.476562 -5.421875 53.695312 -7.269531 51.96875 -8.1875 C 50.25 -9.101562 48.070312 -9.5625 45.4375 -9.5625 C 42.789062 -9.5625 40.441406 -9.429688 38.390625 -9.171875 C 36.335938 -8.921875 34.285156 -8.664062 32.234375 -8.40625 C 30.179688 -8.15625 27.796875 -8.03125 25.078125 -8.03125 C 21.628906 -8.03125 18.398438 -8.707031 15.390625 -10.0625 C 12.390625 -11.414062 9.988281 -13.6875 8.1875 -16.875 C 6.394531 -20.070312 5.5 -24.347656 5.5 -29.703125 C 5.5 -31.898438 5.644531 -34.003906 5.9375 -36.015625 C 6.226562 -38.035156 6.5625 -39.851562 6.9375 -41.46875 L 11.765625 -40.375 C 11.472656 -39.125 11.21875 -37.765625 11 -36.296875 C 10.78125 -34.828125 10.671875 -33.210938 10.671875 -31.453125 C 10.671875 -26.617188 12.0625 -23.175781 14.84375 -21.125 C 17.632812 -19.070312 21.082031 -18.046875 25.1875 -18.046875 C 28.050781 -18.046875 30.398438 -18.132812 32.234375 -18.3125 C 34.066406 -18.5 35.75 -18.679688 37.28125 -18.859375 C 38.820312 -19.046875 40.625 -19.140625 42.6875 -19.140625 C 46.125 -19.140625 48.925781 -18.382812 51.09375 -16.875 C 53.257812 -15.375 55.40625 -12.71875 57.53125 -8.90625 C 57.382812 -10.8125 57.273438 -12.71875 57.203125 -14.625 C 57.128906 -16.53125 57.09375 -18.4375 57.09375 -20.34375 L 57.09375 -54.5625 C 57.09375 -57.269531 56.671875 -59.445312 55.828125 -61.09375 C 54.984375 -62.75 53.203125 -63.578125 50.484375 -63.578125 C 48.722656 -63.578125 46.941406 -63.023438 45.140625 -61.921875 C 43.347656 -60.828125 41.679688 -59.398438 40.140625 -57.640625 C 38.609375 -55.878906 37.289062 -53.988281 36.1875 -51.96875 C 35.09375 -49.957031 34.359375 -48 33.984375 -46.09375 C 34.648438 -46.457031 35.3125 -46.710938 35.96875 -46.859375 C 36.625 -47.003906 37.25 -47.078125 37.84375 -47.078125 C 40.695312 -47.078125 42.800781 -46.210938 44.15625 -44.484375 C 45.519531 -42.765625 46.203125 -40.804688 46.203125 -38.609375 C 46.203125 -35.972656 45.320312 -33.8125 43.5625 -32.125 C 41.800781 -30.4375 39.195312 -29.628906 35.75 -29.703125 C 32.375 -29.847656 29.585938 -31 27.390625 -33.15625 C 25.191406 -35.320312 24.09375 -38.5 24.09375 -42.6875 C 24.09375 -45.6875 24.769531 -48.765625 26.125 -51.921875 C 27.476562 -55.078125 29.363281 -57.972656 31.78125 -60.609375 C 34.207031 -63.242188 36.992188 -65.382812 40.140625 -67.03125 C 43.296875 -68.6875 46.632812 -69.515625 50.15625 -69.515625 C 54.632812 -69.515625 57.898438 -68.25 59.953125 -65.71875 C 62.003906 -63.195312 63.03125 -59.84375 63.03125 -55.65625 L 63.03125 -49.828125 C 64.207031 -52.398438 65.726562 -54.894531 67.59375 -57.3125 C 69.46875 -59.726562 71.59375 -61.722656 73.96875 -63.296875 C 76.351562 -64.878906 78.941406 -65.671875 81.734375 -65.671875 C 84.441406 -65.671875 86.785156 -64.9375 88.765625 -63.46875 C 90.742188 -62 92.285156 -60.019531 93.390625 -57.53125 C 94.492188 -55.039062 95.046875 -52.253906 95.046875 -49.171875 C 95.046875 -43.816406 93.796875 -39.304688 91.296875 -35.640625 C 92.691406 -33.804688 93.71875 -31.804688 94.375 -29.640625 C 95.039062 -27.484375 95.375 -25.265625 95.375 -22.984375 C 95.375 -18.222656 94.109375 -14.207031 91.578125 -10.9375 C 89.046875 -7.675781 85.503906 -6.046875 80.953125 -6.046875 C 77.285156 -6.046875 73.835938 -7.566406 70.609375 -10.609375 C 67.390625 -13.660156 64.863281 -17.382812 63.03125 -21.78125 L 63.03125 1.3125 Z M 80.734375 -14.953125 C 83.960938 -14.953125 86.382812 -15.832031 88 -17.59375 C 89.613281 -19.351562 90.421875 -21.738281 90.421875 -24.75 C 90.421875 -26.144531 90.21875 -27.460938 89.8125 -28.703125 C 89.40625 -29.953125 88.875 -31.054688 88.21875 -32.015625 C 87.113281 -30.835938 85.882812 -29.914062 84.53125 -29.25 C 83.175781 -28.59375 81.582031 -28.265625 79.75 -28.265625 C 77.476562 -28.265625 75.585938 -28.90625 74.078125 -30.1875 C 72.578125 -31.476562 71.828125 -33.332031 71.828125 -35.75 C 71.828125 -37.945312 72.523438 -39.6875 73.921875 -40.96875 C 75.316406 -42.257812 77.113281 -42.90625 79.3125 -42.90625 C 80.1875 -42.90625 81.117188 -42.789062 82.109375 -42.5625 C 83.097656 -42.34375 84.070312 -41.90625 85.03125 -41.25 C 86.5 -42.28125 87.671875 -43.582031 88.546875 -45.15625 C 89.429688 -46.726562 89.875 -48.578125 89.875 -50.703125 C 89.875 -52.910156 89.101562 -54.546875 87.5625 -55.609375 C 86.019531 -56.671875 83.929688 -57.203125 81.296875 -57.203125 C 78.648438 -57.203125 76.242188 -56.519531 74.078125 -55.15625 C 71.921875 -53.800781 70.085938 -52.023438 68.578125 -49.828125 C 67.078125 -47.628906 65.921875 -45.265625 65.109375 -42.734375 C 64.304688 -40.203125 63.90625 -37.800781 63.90625 -35.53125 C 63.90625 -31.863281 64.691406 -28.472656 66.265625 -25.359375 C 67.847656 -22.242188 69.921875 -19.726562 72.484375 -17.8125 C 75.054688 -15.90625 77.804688 -14.953125 80.734375 -14.953125 Z M 80.734375 -14.953125 "/>
</symbol>
</g>
<g>
<symbol overflow="visible" id="id1:glyph0-0">
<path style="stroke:none;" d="M 5.375 -96.6875 L 69.828125 -96.6875 L 69.828125 0 L 5.375 0 Z M 8.0625 -2.6875 L 67.140625 -2.6875 L 67.140625 -94 L 8.0625 -94 Z M 8.0625 -2.6875 "/>
</symbol>
<symbol overflow="visible" id="id1:glyph0-1">
<path style="stroke:none;" d="M 68.15625 -13.75 L 66.28125 -18.640625 L 88.09375 -27.390625 L 6.984375 -27.390625 L 6.984375 -34 L 88.09375 -34 L 66.28125 -42.75 L 68.15625 -47.640625 L 99.09375 -34.265625 L 99.09375 -27.125 Z M 68.15625 -13.75 "/>
</symbol>
</g>
<g>
<symbol overflow="visible" id="id2:glyph0-0">
<path style="stroke:none;" d="M 10.34375 0 L 10.34375 -78.546875 L 55.546875 -78.546875 L 55.546875 0 Z M 15.953125 -5.609375 L 49.9375 -5.609375 L 49.9375 -72.9375 L 15.953125 -72.9375 Z M 15.953125 -5.609375 "/>
</symbol>
<symbol overflow="visible" id="id2:glyph0-1">
<path style="stroke:none;" d="M 37.625 -6.265625 C 29.1875 -6.265625 22.050781 -9.96875 16.21875 -17.375 C 10.394531 -24.78125 5.722656 -36.585938 2.203125 -52.796875 L 6.59375 -54.125 C 10.113281 -40.84375 14.273438 -31.160156 19.078125 -25.078125 C 23.890625 -18.992188 30.035156 -15.953125 37.515625 -15.953125 C 41.328125 -15.953125 44.382812 -16.609375 46.6875 -17.921875 C 49 -19.242188 50.6875 -20.96875 51.75 -23.09375 C 52.8125 -25.226562 53.34375 -27.46875 53.34375 -29.8125 C 53.34375 -30.976562 53.25 -32.054688 53.0625 -33.046875 C 52.882812 -34.046875 52.648438 -34.945312 52.359375 -35.75 C 50.234375 -33.476562 47.847656 -31.550781 45.203125 -29.96875 C 42.566406 -28.394531 39.707031 -27.609375 36.625 -27.609375 C 33.695312 -27.609375 31.09375 -28.394531 28.8125 -29.96875 C 26.539062 -31.550781 24.765625 -33.644531 23.484375 -36.25 C 22.203125 -38.851562 21.5625 -41.726562 21.5625 -44.875 C 21.5625 -48.101562 22.382812 -51.203125 24.03125 -54.171875 C 25.6875 -57.140625 28.273438 -59.984375 31.796875 -62.703125 L 0.546875 -62.703125 L -3.1875 -68.421875 L 93.0625 -68.421875 L 96.796875 -62.703125 L 48.734375 -62.703125 C 47.992188 -62.335938 47.257812 -61.96875 46.53125 -61.59375 C 47.332031 -57.707031 48.359375 -54.460938 49.609375 -51.859375 C 50.859375 -49.253906 52.101562 -46.890625 53.34375 -44.765625 C 53.9375 -43.671875 54.503906 -42.609375 55.046875 -41.578125 C 55.597656 -40.554688 56.097656 -39.492188 56.546875 -38.390625 C 56.835938 -40.222656 57.566406 -42.289062 58.734375 -44.59375 C 59.910156 -46.90625 61.394531 -49.125 63.1875 -51.25 C 64.988281 -53.382812 67.039062 -55.144531 69.34375 -56.53125 C 71.65625 -57.925781 74.0625 -58.625 76.5625 -58.625 C 80.445312 -58.625 83.539062 -57.226562 85.84375 -54.4375 C 88.15625 -51.65625 89.3125 -48.320312 89.3125 -44.4375 C 89.3125 -40.113281 88.175781 -36.375 85.90625 -33.21875 C 88.40625 -29.550781 89.65625 -25.8125 89.65625 -22 C 89.65625 -17.96875 88.40625 -14.59375 85.90625 -11.875 C 83.414062 -9.164062 80.15625 -7.8125 76.125 -7.8125 C 73.769531 -7.8125 71.4375 -8.488281 69.125 -9.84375 C 66.820312 -11.195312 64.71875 -13.03125 62.8125 -15.34375 C 60.90625 -17.65625 59.398438 -20.203125 58.296875 -22.984375 C 57.492188 -18.078125 55.40625 -14.0625 52.03125 -10.9375 C 48.65625 -7.820312 43.851562 -6.265625 37.625 -6.265625 Z M 28.15625 -42.6875 C 28.15625 -40.476562 28.796875 -38.804688 30.078125 -37.671875 C 31.367188 -36.535156 33.078125 -35.96875 35.203125 -35.96875 C 37.398438 -35.96875 39.613281 -36.753906 41.84375 -38.328125 C 44.082031 -39.910156 46.304688 -42.09375 48.515625 -44.875 C 47.191406 -46.707031 45.847656 -48.90625 44.484375 -51.46875 C 43.128906 -54.039062 42.015625 -56.425781 41.140625 -58.625 C 37.035156 -56.207031 33.84375 -53.675781 31.5625 -51.03125 C 29.289062 -48.394531 28.15625 -45.613281 28.15625 -42.6875 Z M 76.015625 -16.609375 C 78.796875 -16.609375 80.921875 -17.265625 82.390625 -18.578125 C 83.859375 -19.898438 84.59375 -21.628906 84.59375 -23.765625 C 84.59375 -24.785156 84.441406 -25.753906 84.140625 -26.671875 C 83.847656 -27.585938 83.484375 -28.414062 83.046875 -29.15625 C 82.171875 -28.195312 81.050781 -27.332031 79.6875 -26.5625 C 78.332031 -25.789062 76.738281 -25.40625 74.90625 -25.40625 C 72.414062 -25.40625 70.507812 -26.15625 69.1875 -27.65625 C 67.863281 -29.164062 67.203125 -30.945312 67.203125 -33 C 67.203125 -35.125 67.84375 -36.882812 69.125 -38.28125 C 70.414062 -39.675781 72.234375 -40.375 74.578125 -40.375 C 75.898438 -40.375 77.035156 -40.171875 77.984375 -39.765625 C 78.941406 -39.359375 79.785156 -38.898438 80.515625 -38.390625 C 81.617188 -39.046875 82.519531 -39.882812 83.21875 -40.90625 C 83.914062 -41.9375 84.265625 -43.148438 84.265625 -44.546875 C 84.265625 -46.234375 83.472656 -47.535156 81.890625 -48.453125 C 80.316406 -49.367188 78.359375 -49.828125 76.015625 -49.828125 C 72.859375 -49.828125 70.085938 -48.960938 67.703125 -47.234375 C 65.316406 -45.515625 63.460938 -43.351562 62.140625 -40.75 C 60.828125 -38.144531 60.171875 -35.523438 60.171875 -32.890625 C 60.171875 -29.734375 60.941406 -26.925781 62.484375 -24.46875 C 64.023438 -22.019531 66.019531 -20.097656 68.46875 -18.703125 C 70.925781 -17.304688 73.441406 -16.609375 76.015625 -16.609375 Z M 76.015625 -16.609375 "/>
</symbol>
</g>
</defs>
  <g id="id0:id0" transform="matrix(1.25,0,0,1.25,0.0,0.0)"><g id="id0:surface1">
<g style="fill:rgb(0%,0%,0%);fill-opacity:1;">
  <use xlink:href="#id0:glyph0-1" x="16" y="122.125"/>
  <use xlink:href="#id0:glyph0-2" x="103.015625" y="122.125"/>
  <use xlink:href="#id0:glyph0-3" x="144.15625" y="122.125"/>
  <use xlink:href="#id0:glyph0-4" x="168.796875" y="122.125"/>
</g>
</g>
</g>
  <g id="id1:id1" transform="matrix(1.25,0,0,1.25,360.52734375,11.38671875)"><g id="id1:surface1">
<g style="fill:rgb(0%,0%,0%);fill-opacity:1;">
  <use xlink:href="#id1:glyph0-1" x="0" y="120.84375"/>
</g>
</g>
</g>
  <g id="id2:id2" transform="matrix(1.25,0,0,1.25,493.125,0.0)"><g id="id2:surface1">
<g style="fill:rgb(0%,0%,0%);fill-opacity:1;">
  <use xlink:href="#id2:glyph0-1" x="16" y="122.125"/>
</g>
</g>
</g>
</svg>
