<!DOCTYPE svg PUBLIC "-//W3C//DTD SVG 1.1//EN" "http://www.w3.org/Graphics/SVG/1.1/DTD/svg11.dtd">
<!-- Created with svg_stack (http://github.com/astraw/svg_stack) --><svg xmlns="http://www.w3.org/2000/svg" xmlns:sodipodi="http://sodipodi.sourceforge.net/DTD/sodipodi-0.dtd" xmlns:xlink="http://www.w3.org/1999/xlink" version="1.1" width="100%" id="hebrew-dlig" viewBox="0 0 436.58203125 201.40625">
  <defs><g>
<symbol overflow="visible" id="hebrew-dlig:hebrew-dlig:id0:glyph0-0">
<path style="stroke:none;" d="M 10.34375 0 L 10.34375 -78.546875 L 55.546875 -78.546875 L 55.546875 0 Z M 15.953125 -5.609375 L 49.9375 -5.609375 L 49.9375 -72.9375 L 15.953125 -72.9375 Z M 15.953125 -5.609375 "/>
</symbol>
<symbol overflow="visible" id="hebrew-dlig:hebrew-dlig:id0:glyph0-1">
<path style="stroke:none;" d="M 23.65625 0.765625 C 22.332031 0.765625 21.394531 0.378906 20.84375 -0.390625 C 20.289062 -1.160156 20.015625 -2.535156 20.015625 -4.515625 L 20.015625 -7.15625 C 20.015625 -8.914062 20.363281 -10.472656 21.0625 -11.828125 C 21.757812 -13.179688 22.914062 -14.738281 24.53125 -16.5 L 40.703125 -34.4375 C 41.648438 -35.457031 42.304688 -36.316406 42.671875 -37.015625 C 43.046875 -37.710938 43.234375 -38.5 43.234375 -39.375 L 43.234375 -48.0625 C 43.234375 -51.4375 41.546875 -53.125 38.171875 -53.125 L 9.234375 -53.125 C 7.398438 -53.125 6.039062 -53.75 5.15625 -55 C 4.28125 -56.25 3.84375 -58.007812 3.84375 -60.28125 C 3.84375 -61.53125 4.046875 -63.125 4.453125 -65.0625 C 4.859375 -67.007812 5.351562 -69.046875 5.9375 -71.171875 C 6.519531 -73.296875 7.101562 -75.3125 7.6875 -77.21875 C 8.28125 -79.125 8.722656 -80.628906 9.015625 -81.734375 C 9.378906 -83.117188 8.941406 -83.925781 7.703125 -84.15625 L 4.40625 -84.59375 C 3.007812 -84.738281 2.144531 -85.25 1.8125 -86.125 C 1.476562 -87.007812 1.3125 -88 1.3125 -89.09375 C 1.3125 -90.125 1.550781 -91.390625 2.03125 -92.890625 C 2.507812 -94.398438 2.859375 -95.445312 3.078125 -96.03125 L 5.28125 -96.03125 L 5.28125 -95.703125 C 5.28125 -93.648438 6.085938 -92.515625 7.703125 -92.296875 L 11.546875 -91.734375 C 13.015625 -91.515625 13.96875 -90.78125 14.40625 -89.53125 C 14.84375 -88.289062 14.660156 -86.238281 13.859375 -83.375 L 10.5625 -70.734375 C 9.601562 -66.992188 11.03125 -65.125 14.84375 -65.125 L 39.59375 -65.125 C 42.457031 -65.125 44.566406 -64.550781 45.921875 -63.40625 C 47.273438 -62.269531 48.15625 -60.878906 48.5625 -59.234375 C 48.96875 -57.585938 49.171875 -55.921875 49.171875 -54.234375 L 49.0625 -39.484375 C 49.0625 -38.097656 48.820312 -36.722656 48.34375 -35.359375 C 47.863281 -34.003906 46.894531 -32.519531 45.4375 -30.90625 L 29.8125 -13.75 C 28.925781 -12.875 28.335938 -11.957031 28.046875 -11 C 27.753906 -10.039062 27.609375 -8.832031 27.609375 -7.375 L 27.609375 -4.515625 C 27.609375 -0.992188 26.289062 0.765625 23.65625 0.765625 Z M 23.65625 0.765625 "/>
</symbol>
<symbol overflow="visible" id="hebrew-dlig:hebrew-dlig:id0:glyph0-2">
<path style="stroke:none;" d="M 5.71875 0 L 5.71875 -5.0625 L 6.703125 -5.0625 C 8.390625 -5.0625 9.507812 -5.375 10.0625 -6 C 10.613281 -6.625 10.707031 -7.628906 10.34375 -9.015625 L 8.46875 -17.046875 C 7.664062 -20.640625 7.335938 -23.882812 7.484375 -26.78125 C 7.628906 -29.675781 8.617188 -32.59375 10.453125 -35.53125 L 15.734375 -44.21875 L 9.453125 -51.375 C 7.617188 -53.425781 6.535156 -55.421875 6.203125 -57.359375 C 5.878906 -59.304688 5.71875 -60.644531 5.71875 -61.375 C 5.71875 -63.5 6.007812 -65.257812 6.59375 -66.65625 C 7.1875 -68.050781 7.8125 -69.554688 8.46875 -71.171875 L 11.109375 -71.171875 L 11.109375 -70.734375 C 11.109375 -69.628906 11.398438 -68.304688 11.984375 -66.765625 C 12.578125 -65.222656 13.898438 -63.28125 15.953125 -60.9375 L 39.15625 -34.546875 C 39.300781 -35.710938 39.6875 -37.101562 40.3125 -38.71875 C 40.9375 -40.332031 41.578125 -41.765625 42.234375 -43.015625 L 47.84375 -53.34375 L 45.3125 -53.796875 C 43.476562 -54.085938 42.101562 -54.65625 41.1875 -55.5 C 40.269531 -56.34375 39.8125 -58.117188 39.8125 -60.828125 C 39.8125 -62.078125 40.015625 -63.582031 40.421875 -65.34375 C 40.828125 -67.101562 41.503906 -69.046875 42.453125 -71.171875 L 45.4375 -71.171875 L 45.4375 -70.515625 C 45.4375 -68.828125 45.835938 -67.597656 46.640625 -66.828125 C 47.441406 -66.054688 48.578125 -65.523438 50.046875 -65.234375 L 56.09375 -64.234375 C 58.957031 -63.796875 60.390625 -61.816406 60.390625 -58.296875 C 60.390625 -57.566406 60.332031 -56.742188 60.21875 -55.828125 C 60.113281 -54.910156 59.878906 -53.460938 59.515625 -51.484375 L 52.578125 -52.578125 L 47.078125 -42.34375 C 45.828125 -39.925781 44.960938 -37.617188 44.484375 -35.421875 C 44.015625 -33.222656 43.78125 -31.171875 43.78125 -29.265625 L 55.21875 -16.171875 C 56.6875 -14.484375 57.675781 -12.90625 58.1875 -11.4375 C 58.695312 -9.96875 58.953125 -8.503906 58.953125 -7.046875 C 58.953125 -4.691406 58.53125 -2.945312 57.6875 -1.8125 C 56.851562 -0.675781 55.992188 0.289062 55.109375 1.09375 L 53.5625 1.09375 C 53.488281 0.144531 53.160156 -0.820312 52.578125 -1.8125 C 51.992188 -2.800781 50.96875 -4.101562 49.5 -5.71875 L 18.8125 -40.703125 L 16.390625 -36.1875 C 15.066406 -33.695312 14.332031 -31.382812 14.1875 -29.25 C 14.039062 -27.125 14.59375 -24.671875 15.84375 -21.890625 L 20.015625 -12.65625 C 21.921875 -8.320312 21.921875 -4.101562 20.015625 0 Z M 5.71875 0 "/>
</symbol>
</g>
<g>
<symbol overflow="visible" id="hebrew-dlig:hebrew-dlig:id1:glyph0-0">
<path style="stroke:none;" d="M 5.375 -96.6875 L 69.828125 -96.6875 L 69.828125 0 L 5.375 0 Z M 8.0625 -2.6875 L 67.140625 -2.6875 L 67.140625 -94 L 8.0625 -94 Z M 8.0625 -2.6875 "/>
</symbol>
<symbol overflow="visible" id="hebrew-dlig:hebrew-dlig:id1:glyph0-1">
<path style="stroke:none;" d="M 68.15625 -13.75 L 66.28125 -18.640625 L 88.09375 -27.390625 L 6.984375 -27.390625 L 6.984375 -34 L 88.09375 -34 L 66.28125 -42.75 L 68.15625 -47.640625 L 99.09375 -34.265625 L 99.09375 -27.125 Z M 68.15625 -13.75 "/>
</symbol>
</g>
<g>
<symbol overflow="visible" id="hebrew-dlig:hebrew-dlig:id2:glyph0-0">
<path style="stroke:none;" d="M 10.34375 0 L 10.34375 -78.546875 L 55.546875 -78.546875 L 55.546875 0 Z M 15.953125 -5.609375 L 49.9375 -5.609375 L 49.9375 -72.9375 L 15.953125 -72.9375 Z M 15.953125 -5.609375 "/>
</symbol>
<symbol overflow="visible" id="hebrew-dlig:hebrew-dlig:id2:glyph0-1">
<path style="stroke:none;" d="M 51.703125 1.09375 C 51.628906 0.144531 51.296875 -0.820312 50.703125 -1.8125 C 50.117188 -2.800781 49.09375 -4.101562 47.625 -5.71875 L 7.59375 -51.375 C 5.757812 -53.5 4.675781 -55.332031 4.34375 -56.875 C 4.007812 -58.414062 3.84375 -59.550781 3.84375 -60.28125 C 3.84375 -61.53125 4.046875 -63.125 4.453125 -65.0625 C 4.859375 -67.007812 5.351562 -69.082031 5.9375 -71.28125 C 6.519531 -73.476562 7.101562 -75.507812 7.6875 -77.375 C 8.28125 -79.25 8.722656 -80.703125 9.015625 -81.734375 C 9.378906 -83.117188 8.941406 -83.925781 7.703125 -84.15625 L 4.40625 -84.59375 C 3.007812 -84.738281 2.144531 -85.25 1.8125 -86.125 C 1.476562 -87.007812 1.3125 -88 1.3125 -89.09375 C 1.3125 -90.125 1.550781 -91.390625 2.03125 -92.890625 C 2.507812 -94.398438 2.859375 -95.445312 3.078125 -96.03125 L 5.28125 -96.03125 L 5.28125 -95.59375 C 5.28125 -94.488281 5.5 -93.695312 5.9375 -93.21875 C 6.375 -92.75 6.960938 -92.441406 7.703125 -92.296875 L 11.546875 -91.734375 C 13.015625 -91.515625 13.96875 -90.78125 14.40625 -89.53125 C 14.84375 -88.289062 14.660156 -86.238281 13.859375 -83.375 L 10.5625 -70.734375 C 10.269531 -69.554688 10.210938 -68.269531 10.390625 -66.875 C 10.578125 -65.488281 11.804688 -63.507812 14.078125 -60.9375 L 37.296875 -34.546875 C 37.441406 -35.710938 37.820312 -37.101562 38.4375 -38.71875 C 39.0625 -40.332031 39.707031 -41.765625 40.375 -43.015625 L 45.984375 -53.34375 L 43.453125 -53.796875 C 41.617188 -54.085938 40.242188 -54.65625 39.328125 -55.5 C 38.410156 -56.34375 37.953125 -58.117188 37.953125 -60.828125 C 37.953125 -62.078125 38.148438 -63.582031 38.546875 -65.34375 C 38.953125 -67.101562 39.632812 -69.046875 40.59375 -71.171875 L 43.5625 -71.171875 L 43.5625 -70.515625 C 43.5625 -68.828125 43.960938 -67.578125 44.765625 -66.765625 C 45.578125 -65.960938 46.71875 -65.453125 48.1875 -65.234375 L 54.234375 -64.234375 C 57.085938 -63.796875 58.515625 -61.816406 58.515625 -58.296875 C 58.515625 -57.566406 58.457031 -56.742188 58.34375 -55.828125 C 58.238281 -54.910156 58.003906 -53.460938 57.640625 -51.484375 L 50.703125 -52.578125 L 45.203125 -42.34375 C 43.960938 -39.925781 43.101562 -37.617188 42.625 -35.421875 C 42.144531 -33.222656 41.90625 -31.171875 41.90625 -29.265625 L 53.34375 -16.171875 C 54.8125 -14.484375 55.800781 -12.90625 56.3125 -11.4375 C 56.832031 -9.96875 57.09375 -8.503906 57.09375 -7.046875 C 57.09375 -4.691406 56.671875 -2.945312 55.828125 -1.8125 C 54.984375 -0.675781 54.117188 0.289062 53.234375 1.09375 Z M 51.703125 1.09375 "/>
</symbol>
</g>
</defs>
  <g id="hebrew-dlig:hebrew-dlig:id0:id0" transform="matrix(1.25,0,0,1.25,0.0,16.66015625)"><g id="hebrew-dlig:hebrew-dlig:id0:surface1">
<g style="fill:rgb(0%,0%,0%);fill-opacity:1;">
  <use xlink:href="#hebrew-dlig:hebrew-dlig:id0:glyph0-1" x="16" y="100.5625" class="c1"/>
  <use xlink:href="#hebrew-dlig:hebrew-dlig:id0:glyph0-2" x="67.46875" y="100.5625" class="c0"/>
</g>
</g>
</g>
  <g id="hebrew-dlig:hebrew-dlig:id1:id1" transform="matrix(1.25,0,0,1.25,185.33203125,0.0)"><g id="hebrew-dlig:hebrew-dlig:id1:surface1">
<g style="fill:rgb(0%,0%,0%);fill-opacity:1;">
  <use xlink:href="#hebrew-dlig:hebrew-dlig:id1:glyph0-1" x="0" y="120.84375" class="arrow"/>
</g>
</g>
</g>
  <g id="hebrew-dlig:hebrew-dlig:id2:id2" transform="matrix(1.25,0,0,1.25,317.9296875,16.66015625)"><g id="hebrew-dlig:hebrew-dlig:id2:surface1">
<g style="fill:rgb(0%,0%,0%);fill-opacity:1;">
  <use xlink:href="#hebrew-dlig:hebrew-dlig:id2:glyph0-1" x="16" y="100.5625" class="c2"/>
</g>
</g>
</g>
</svg>