<?xml version="1.0" standalone="no"?>
<!DOCTYPE svg PUBLIC "-//W3C//DTD SVG 1.1//EN"
 "http://www.w3.org/Graphics/SVG/1.1/DTD/svg11.dtd">
<!-- Created with svg_stack (http://github.com/astraw/svg_stack) -->
<svg xmlns="http://www.w3.org/2000/svg" xmlns:sodipodi="http://sodipodi.sourceforge.net/DTD/sodipodi-0.dtd" xmlns:xlink="http://www.w3.org/1999/xlink" version="1.1" width="360.83984375" height="201.40625">
  <defs><g>
<symbol overflow="visible" id="id0:glyph0-0">
<path style="stroke:none;" d="M 10.34375 0 L 10.34375 -78.546875 L 55.546875 -78.546875 L 55.546875 0 Z M 15.953125 -5.609375 L 49.9375 -5.609375 L 49.9375 -72.9375 L 15.953125 -72.9375 Z M 15.953125 -5.609375 "/>
</symbol>
<symbol overflow="visible" id="id0:glyph0-1">
<path style="stroke:none;" d="M 5.0625 -33 C 5.0625 -36.082031 6.414062 -37.625 9.125 -37.625 C 10.375 -37.625 11.382812 -37.238281 12.15625 -36.46875 C 12.925781 -35.695312 13.3125 -34.539062 13.3125 -33 C 13.3125 -31.382812 12.925781 -30.191406 12.15625 -29.421875 C 11.382812 -28.648438 10.375 -28.265625 9.125 -28.265625 C 6.414062 -28.265625 5.0625 -29.84375 5.0625 -33 Z M 5.0625 -33 "/>
</symbol>
<symbol overflow="visible" id="id0:glyph0-2">
<path style="stroke:none;" d=""/>
</symbol>
<symbol overflow="visible" id="id0:glyph0-3">
<path style="stroke:none;" d="M 3.734375 0 L 6.8125 -11.984375 L 41.578125 -11.984375 C 42.015625 -13.160156 42.34375 -14.207031 42.5625 -15.125 C 42.789062 -16.039062 42.941406 -17.082031 43.015625 -18.25 C 43.085938 -19.425781 43.125 -21.003906 43.125 -22.984375 L 43.125 -43.015625 C 43.125 -46.753906 42.332031 -49.375 40.75 -50.875 C 39.175781 -52.375 36.773438 -53.125 33.546875 -53.125 L 10.890625 -53.125 C 9.128906 -53.125 7.789062 -53.726562 6.875 -54.9375 C 5.957031 -56.15625 5.5 -58.191406 5.5 -61.046875 C 5.5 -62.296875 5.609375 -63.613281 5.828125 -65 C 6.046875 -66.394531 6.453125 -68.453125 7.046875 -71.171875 L 10.015625 -71.171875 L 10.015625 -70.84375 C 10.015625 -69.082031 10.507812 -67.6875 11.5 -66.65625 C 12.488281 -65.632812 13.9375 -65.125 15.84375 -65.125 L 35.75 -65.125 C 40 -65.125 43.207031 -64.019531 45.375 -61.8125 C 47.539062 -59.613281 48.625 -56.460938 48.625 -52.359375 L 48.625 -26.625 C 48.625 -22.957031 48.492188 -20.039062 48.234375 -17.875 C 47.972656 -15.707031 47.550781 -13.742188 46.96875 -11.984375 L 54.34375 -11.984375 L 54.34375 0 Z M 3.734375 0 "/>
</symbol>
</g>
<g>
<symbol overflow="visible" id="id1:glyph0-0">
<path style="stroke:none;" d="M 5.375 -96.6875 L 69.828125 -96.6875 L 69.828125 0 L 5.375 0 Z M 8.0625 -2.6875 L 67.140625 -2.6875 L 67.140625 -94 L 8.0625 -94 Z M 8.0625 -2.6875 "/>
</symbol>
<symbol overflow="visible" id="id1:glyph0-1">
<path style="stroke:none;" d="M 68.15625 -13.75 L 66.28125 -18.640625 L 88.09375 -27.390625 L 6.984375 -27.390625 L 6.984375 -34 L 88.09375 -34 L 66.28125 -42.75 L 68.15625 -47.640625 L 99.09375 -34.265625 L 99.09375 -27.125 Z M 68.15625 -13.75 "/>
</symbol>
</g>
<g>
<symbol overflow="visible" id="id2:glyph0-0">
<path style="stroke:none;" d="M 10.34375 0 L 10.34375 -78.546875 L 55.546875 -78.546875 L 55.546875 0 Z M 15.953125 -5.609375 L 49.9375 -5.609375 L 49.9375 -72.9375 L 15.953125 -72.9375 Z M 15.953125 -5.609375 "/>
</symbol>
<symbol overflow="visible" id="id2:glyph0-1">
<path style="stroke:none;" d="M 3.734375 0 L 6.8125 -11.984375 L 41.578125 -11.984375 C 42.015625 -13.160156 42.34375 -14.207031 42.5625 -15.125 C 42.789062 -16.039062 42.941406 -17.082031 43.015625 -18.25 C 43.085938 -19.425781 43.125 -21.003906 43.125 -22.984375 L 43.125 -43.015625 C 43.125 -46.753906 42.332031 -49.375 40.75 -50.875 C 39.175781 -52.375 36.773438 -53.125 33.546875 -53.125 L 10.890625 -53.125 C 9.128906 -53.125 7.789062 -53.726562 6.875 -54.9375 C 5.957031 -56.15625 5.5 -58.191406 5.5 -61.046875 C 5.5 -62.296875 5.609375 -63.613281 5.828125 -65 C 6.046875 -66.394531 6.453125 -68.453125 7.046875 -71.171875 L 10.015625 -71.171875 L 10.015625 -70.84375 C 10.015625 -69.082031 10.507812 -67.6875 11.5 -66.65625 C 12.488281 -65.632812 13.9375 -65.125 15.84375 -65.125 L 35.75 -65.125 C 40 -65.125 43.207031 -64.019531 45.375 -61.8125 C 47.539062 -59.613281 48.625 -56.460938 48.625 -52.359375 L 48.625 -26.625 C 48.625 -22.957031 48.492188 -20.039062 48.234375 -17.875 C 47.972656 -15.707031 47.550781 -13.742188 46.96875 -11.984375 L 54.34375 -11.984375 L 54.34375 0 Z M 21.890625 -33 C 21.890625 -36.082031 23.242188 -37.625 25.953125 -37.625 C 27.203125 -37.625 28.210938 -37.238281 28.984375 -36.46875 C 29.753906 -35.695312 30.140625 -34.539062 30.140625 -33 C 30.140625 -31.382812 29.753906 -30.191406 28.984375 -29.421875 C 28.210938 -28.648438 27.203125 -28.265625 25.953125 -28.265625 C 23.242188 -28.265625 21.890625 -29.84375 21.890625 -33 Z M 21.890625 -33 "/>
</symbol>
</g>
</defs>
  <g id="id0:id0" transform="matrix(1.25,0,0,1.25,0.0,16.66015625)"><g id="id0:surface1">
<g style="fill:rgb(0%,0%,0%);fill-opacity:1;">
  <use xlink:href="#id0:glyph0-1" x="16" y="100.5625"/>
  <use xlink:href="#id0:glyph0-2" x="16" y="100.5625"/>
  <use xlink:href="#id0:glyph0-3" x="16" y="100.5625"/>
</g>
</g>
</g>
  <g id="id1:id1" transform="matrix(1.25,0,0,1.25,114.12109375,0.0)"><g id="id1:surface1">
<g style="fill:rgb(0%,0%,0%);fill-opacity:1;">
  <use xlink:href="#id1:glyph0-1" x="0" y="120.84375"/>
</g>
</g>
</g>
  <g id="id2:id2" transform="matrix(1.25,0,0,1.25,246.71875,16.66015625)"><g id="id2:surface1">
<g style="fill:rgb(0%,0%,0%);fill-opacity:1;">
  <use xlink:href="#id2:glyph0-1" x="16" y="100.5625"/>
</g>
</g>
</g>
</svg>
