<?xml version="1.0" standalone="no"?>
<!DOCTYPE svg PUBLIC "-//W3C//DTD SVG 1.1//EN"
 "http://www.w3.org/Graphics/SVG/1.1/DTD/svg11.dtd">
<!-- Created with svg_stack (http://github.com/astraw/svg_stack) -->
<svg xmlns="http://www.w3.org/2000/svg" xmlns:sodipodi="http://sodipodi.sourceforge.net/DTD/sodipodi-0.dtd" xmlns:xlink="http://www.w3.org/1999/xlink" version="1.1" width="232.59765625" height="201.40625">
  <defs><g>
<symbol overflow="visible" id="id0:glyph0-0">
<path style="stroke:none;" d="M 10.34375 0 L 10.34375 -78.546875 L 55.546875 -78.546875 L 55.546875 0 Z M 15.953125 -5.609375 L 49.9375 -5.609375 L 49.9375 -72.9375 L 15.953125 -72.9375 Z M 15.953125 -5.609375 "/>
</symbol>
<symbol overflow="visible" id="id0:glyph0-1">
<path style="stroke:none;" d="M 5.71875 24.640625 L 5.71875 7.59375 L 9.90625 7.59375 L 9.90625 24.640625 Z M 5.71875 24.640625 "/>
</symbol>
<symbol overflow="visible" id="id0:glyph0-2">
<path style="stroke:none;" d="M 32.453125 13.859375 C 31.566406 13.859375 30.832031 13.546875 30.25 12.921875 C 29.664062 12.296875 29.375 11.546875 29.375 10.671875 C 29.375 9.859375 29.664062 9.160156 30.25 8.578125 C 30.832031 7.992188 31.566406 7.703125 32.453125 7.703125 C 33.253906 7.703125 33.96875 7.992188 34.59375 8.578125 C 35.21875 9.160156 35.53125 9.859375 35.53125 10.671875 C 35.53125 11.546875 35.21875 12.296875 34.59375 12.921875 C 33.96875 13.546875 33.253906 13.859375 32.453125 13.859375 Z M 13.203125 23.3125 L 13.203125 12.875 L 5.71875 12.875 L 5.71875 8.578125 L 25.078125 8.578125 L 25.078125 12.875 L 17.484375 12.875 L 17.484375 23.3125 Z M 32.453125 24.3125 C 31.566406 24.3125 30.832031 24.015625 30.25 23.421875 C 29.664062 22.835938 29.375 22.109375 29.375 21.234375 C 29.375 20.421875 29.664062 19.703125 30.25 19.078125 C 30.832031 18.460938 31.566406 18.15625 32.453125 18.15625 C 33.253906 18.15625 33.96875 18.460938 34.59375 19.078125 C 35.21875 19.703125 35.53125 20.421875 35.53125 21.234375 C 35.53125 22.109375 35.21875 22.835938 34.59375 23.421875 C 33.96875 24.015625 33.253906 24.3125 32.453125 24.3125 Z M 32.453125 24.3125 "/>
</symbol>
</g>
<g>
<symbol overflow="visible" id="id1:glyph0-0">
<path style="stroke:none;" d="M 5.375 -96.6875 L 69.828125 -96.6875 L 69.828125 0 L 5.375 0 Z M 8.0625 -2.6875 L 67.140625 -2.6875 L 67.140625 -94 L 8.0625 -94 Z M 8.0625 -2.6875 "/>
</symbol>
<symbol overflow="visible" id="id1:glyph0-1">
<path style="stroke:none;" d="M 68.15625 -13.75 L 66.28125 -18.640625 L 88.09375 -27.390625 L 6.984375 -27.390625 L 6.984375 -34 L 88.09375 -34 L 66.28125 -42.75 L 68.15625 -47.640625 L 99.09375 -34.265625 L 99.09375 -27.125 Z M 68.15625 -13.75 "/>
</symbol>
</g>
<g>
<symbol overflow="visible" id="id2:glyph0-0">
<path style="stroke:none;" d="M 10.34375 0 L 10.34375 -78.546875 L 55.546875 -78.546875 L 55.546875 0 Z M 15.953125 -5.609375 L 49.9375 -5.609375 L 49.9375 -72.9375 L 15.953125 -72.9375 Z M 15.953125 -5.609375 "/>
</symbol>
<symbol overflow="visible" id="id2:glyph0-1">
<path style="stroke:none;" d="M 5.71875 24.640625 L 5.71875 7.59375 L 9.90625 7.59375 L 9.90625 24.640625 Z M 5.71875 24.640625 "/>
</symbol>
<symbol overflow="visible" id="id2:glyph0-2">
<path style="stroke:none;" d="M 32.453125 13.859375 C 31.566406 13.859375 30.832031 13.546875 30.25 12.921875 C 29.664062 12.296875 29.375 11.546875 29.375 10.671875 C 29.375 9.859375 29.664062 9.160156 30.25 8.578125 C 30.832031 7.992188 31.566406 7.703125 32.453125 7.703125 C 33.253906 7.703125 33.96875 7.992188 34.59375 8.578125 C 35.21875 9.160156 35.53125 9.859375 35.53125 10.671875 C 35.53125 11.546875 35.21875 12.296875 34.59375 12.921875 C 33.96875 13.546875 33.253906 13.859375 32.453125 13.859375 Z M 13.203125 23.3125 L 13.203125 12.875 L 5.71875 12.875 L 5.71875 8.578125 L 25.078125 8.578125 L 25.078125 12.875 L 17.484375 12.875 L 17.484375 23.3125 Z M 32.453125 24.3125 C 31.566406 24.3125 30.832031 24.015625 30.25 23.421875 C 29.664062 22.835938 29.375 22.109375 29.375 21.234375 C 29.375 20.421875 29.664062 19.703125 30.25 19.078125 C 30.832031 18.460938 31.566406 18.15625 32.453125 18.15625 C 33.253906 18.15625 33.96875 18.460938 34.59375 19.078125 C 35.21875 19.703125 35.53125 20.421875 35.53125 21.234375 C 35.53125 22.109375 35.21875 22.835938 34.59375 23.421875 C 33.96875 24.015625 33.253906 24.3125 32.453125 24.3125 Z M 32.453125 24.3125 "/>
</symbol>
</g>
</defs>
  <g id="id0:id0" transform="matrix(1.25,0,0,1.25,0.0,4.697265625)"><g id="id0:surface1">
<g style="fill:rgb(0%,0%,0%);fill-opacity:1;">
  <use xlink:href="#id0:glyph0-1" x="16" y="119.484375"/>
  <use xlink:href="#id0:glyph0-2" x="16" y="119.484375"/>
</g>
</g>
</g>
  <g id="id1:id1" transform="matrix(1.25,0,0,1.25,40.0,0.0)"><g id="id1:surface1">
<g style="fill:rgb(0%,0%,0%);fill-opacity:1;">
  <use xlink:href="#id1:glyph0-1" x="0" y="120.84375"/>
</g>
</g>
</g>
  <g id="id2:id2" transform="matrix(1.25,0,0,1.25,172.59765625,4.697265625)"><g id="id2:surface1">
<g style="fill:rgb(0%,0%,0%);fill-opacity:1;">
  <use xlink:href="#id2:glyph0-1" x="24" y="119.484375"/>
  <use xlink:href="#id2:glyph0-2" x="24" y="119.484375"/>
</g>
</g>
</g>
</svg>
