<!DOCTYPE svg PUBLIC "-//W3C//DTD SVG 1.1//EN" "http://www.w3.org/Graphics/SVG/1.1/DTD/svg11.dtd">
<!-- Created with svg_stack (http://github.com/astraw/svg_stack) --><svg xmlns="http://www.w3.org/2000/svg" xmlns:sodipodi="http://sodipodi.sourceforge.net/DTD/sodipodi-0.dtd" xmlns:xlink="http://www.w3.org/1999/xlink" version="1.1" width="100%" id="hebrew-ccmp" viewBox="0 0 302.24609375 201.40625">
  <defs><g>
<symbol overflow="visible" id="hebrew-ccmp:id0:glyph0-0">
<path style="stroke:none;" d="M 10.34375 0 L 55.546875 0 L 55.546875 -78.546875 L 10.34375 -78.546875 Z M 15.953125 -5.609375 L 15.953125 -72.9375 L 49.9375 -72.9375 L 49.9375 -5.609375 Z M 15.953125 -5.609375 "/>
</symbol>
<symbol overflow="visible" id="hebrew-ccmp:id0:glyph0-1">
<path style="stroke:none;" d="M 9.125 -73.703125 C 11.65625 -73.703125 13.3125 -75.234375 13.3125 -78.4375 C 13.3125 -81.515625 11.65625 -83.046875 9.125 -83.046875 C 6.59375 -83.046875 5.0625 -81.515625 5.0625 -78.4375 C 5.0625 -75.015625 6.59375 -73.703125 9.125 -73.703125 Z M 9.125 -73.703125 "/>
</symbol>
<symbol overflow="visible" id="hebrew-ccmp:id0:glyph0-2">
<path style="stroke:none;" d="M 20.015625 0.765625 L 21.671875 0.765625 C 24.640625 -0.4375 25.953125 -1.546875 27.609375 -3.296875 L 26.1875 -58.84375 C 26.0625 -63.46875 24.75 -65.125 21.015625 -65.125 L 14.734375 -65.125 C 10.890625 -65.125 8.90625 -67.3125 8.90625 -70.84375 L 8.90625 -71.171875 L 5.9375 -71.171875 C 4.734375 -65.671875 4.40625 -63.46875 4.40625 -61.046875 C 4.40625 -55.328125 6.265625 -53.125 9.796875 -53.125 L 17.046875 -53.125 C 19.578125 -53.125 20.015625 -52.03125 20.015625 -49.171875 Z M 20.015625 0.765625 "/>
</symbol>
</g>
<g>
<symbol overflow="visible" id="hebrew-ccmp:id1:glyph0-0">
<path style="stroke:none;" d="M 5.375 -96.6875 L 69.828125 -96.6875 L 69.828125 0 L 5.375 0 Z M 8.0625 -2.6875 L 67.140625 -2.6875 L 67.140625 -94 L 8.0625 -94 Z M 8.0625 -2.6875 "/>
</symbol>
<symbol overflow="visible" id="hebrew-ccmp:id1:glyph0-1">
<path style="stroke:none;" d="M 68.15625 -13.75 L 66.28125 -18.640625 L 88.09375 -27.390625 L 6.984375 -27.390625 L 6.984375 -34 L 88.09375 -34 L 66.28125 -42.75 L 68.15625 -47.640625 L 99.09375 -34.265625 L 99.09375 -27.125 Z M 68.15625 -13.75 "/>
</symbol>
</g>
<g>
<symbol overflow="visible" id="hebrew-ccmp:id2:glyph0-0">
<path style="stroke:none;" d="M 10.34375 0 L 55.546875 0 L 55.546875 -78.546875 L 10.34375 -78.546875 Z M 15.953125 -5.609375 L 15.953125 -72.9375 L 49.9375 -72.9375 L 49.9375 -5.609375 Z M 15.953125 -5.609375 "/>
</symbol>
<symbol overflow="visible" id="hebrew-ccmp:id2:glyph0-1">
<path style="stroke:none;" d="M -0.4375 -73.703125 C 2.09375 -73.703125 3.734375 -75.234375 3.734375 -78.4375 C 3.734375 -81.515625 2.09375 -83.046875 -0.4375 -83.046875 C -2.96875 -83.046875 -4.515625 -81.515625 -4.515625 -78.4375 C -4.515625 -75.015625 -2.96875 -73.703125 -0.4375 -73.703125 Z M 20.015625 0.765625 L 21.671875 0.765625 C 24.640625 -0.4375 25.953125 -1.546875 27.609375 -3.296875 L 26.1875 -58.84375 C 26.0625 -63.46875 24.75 -65.125 21.015625 -65.125 L 14.734375 -65.125 C 10.890625 -65.125 8.90625 -67.3125 8.90625 -70.84375 L 8.90625 -71.171875 L 5.9375 -71.171875 C 4.734375 -65.671875 4.40625 -63.46875 4.40625 -61.046875 C 4.40625 -55.328125 6.265625 -53.125 9.796875 -53.125 L 17.046875 -53.125 C 19.578125 -53.125 20.015625 -52.03125 20.015625 -49.171875 Z M 20.015625 0.765625 "/>
</symbol>
</g>
</defs>
  <g id="hebrew-ccmp:id0:id0" transform="matrix(1.25,0,0,1.25,0.0,16.66015625)"><g id="hebrew-ccmp:id0:surface1">
<g style="fill:rgb(0%,0%,0%);fill-opacity:1;">
  <use xlink:href="#hebrew-ccmp:id0:glyph0-1" x="16" y="100.5625" class="c1"/>
  <use xlink:href="#hebrew-ccmp:id0:glyph0-2" x="16" y="100.5625" class="c0"/>
</g>
</g>
</g>
  <g id="hebrew-ccmp:id1:id1" transform="matrix(1.25,0,0,1.25,84.82421875,0.0)"><g id="hebrew-ccmp:id1:surface1">
<g style="fill:rgb(0%,0%,0%);fill-opacity:1;">
  <use xlink:href="#hebrew-ccmp:id1:glyph0-1" x="0" y="120.84375" class="arrow"/>
</g>
</g>
</g>
  <g id="hebrew-ccmp:id2:id2" transform="matrix(1.25,0,0,1.25,217.421875,16.66015625)"><g id="hebrew-ccmp:id2:surface1">
<g style="fill:rgb(0%,0%,0%);fill-opacity:1;">
  <use xlink:href="#hebrew-ccmp:id2:glyph0-1" x="16" y="100.5625" class="c2"/>
</g>
</g>
</g>
</svg>
