<!DOCTYPE svg PUBLIC "-//W3C//DTD SVG 1.1//EN" "http://www.w3.org/Graphics/SVG/1.1/DTD/svg11.dtd">
<!-- Created with svg_stack (http://github.com/astraw/svg_stack) --><svg xmlns="http://www.w3.org/2000/svg" xmlns:sodipodi="http://sodipodi.sourceforge.net/DTD/sodipodi-0.dtd" xmlns:xlink="http://www.w3.org/1999/xlink" version="1.1" width="100%" id="hebrew-calt" viewBox="0 0 505.44921875 201.40625">
  <defs><g>
<symbol overflow="visible" id="hebrew-calt:id0:glyph0-0">
<path style="stroke:none;" d="M 10.34375 0 L 55.546875 0 L 55.546875 -78.546875 L 10.34375 -78.546875 Z M 15.953125 -5.609375 L 15.953125 -72.9375 L 49.9375 -72.9375 L 49.9375 -5.609375 Z M 15.953125 -5.609375 "/>
</symbol>
<symbol overflow="visible" id="hebrew-calt:id0:glyph0-1">
<path style="stroke:none;" d="M 11.765625 0 L 47.953125 0 C 52.90625 0 55.765625 -3.078125 55.765625 -8.25 L 55.765625 -48.734375 C 55.765625 -57.96875 53.5625 -65.125 42.453125 -65.125 L 17.046875 -65.125 C 13.53125 -65.125 11.328125 -67.09375 11.328125 -70.84375 L 11.328125 -71.171875 L 8.359375 -71.171875 C 7.15625 -65.015625 6.8125 -63.46875 6.8125 -61.046875 C 6.8125 -55.4375 8.578125 -53.125 11.984375 -53.125 L 12.3125 -53.125 L 12.3125 -52.90625 C 8.03125 -47.953125 6.046875 -42.5625 6.046875 -36.515625 L 6.046875 -7.8125 C 6.046875 -1.203125 8.578125 0 11.765625 0 Z M 11.984375 -11.984375 L 11.984375 -36.515625 C 11.984375 -44 15.1875 -50.9375 18.484375 -53.125 L 39.8125 -53.125 C 45.3125 -53.125 49.828125 -49.609375 49.828125 -41.140625 L 49.828125 -19.578125 C 49.828125 -17.59375 49.0625 -11.984375 44.765625 -11.984375 Z M 11.984375 -11.984375 "/>
</symbol>
<symbol overflow="visible" id="hebrew-calt:id0:glyph0-2">
<path style="stroke:none;" d="M 9.125 17.046875 C 11.65625 17.046875 13.3125 15.515625 13.3125 12.3125 C 13.3125 9.234375 11.65625 7.703125 9.125 7.703125 C 6.59375 7.703125 5.0625 9.234375 5.0625 12.3125 C 5.0625 15.625 6.59375 17.046875 9.125 17.046875 Z M 9.125 17.046875 "/>
</symbol>
<symbol overflow="visible" id="hebrew-calt:id0:glyph0-3">
<path style="stroke:none;" d="M 10.125 22.984375 L 16.0625 22.65625 L 15.40625 15.0625 L 21.34375 15.0625 L 21.671875 9.234375 L 4.84375 9.234375 L 4.515625 15.0625 L 10.890625 15.0625 Z M 10.125 22.984375 "/>
</symbol>
<symbol overflow="visible" id="hebrew-calt:id0:glyph0-4">
<path style="stroke:none;" d="M 23.65625 0.765625 C 26.515625 0.765625 27.609375 -0.875 27.609375 -4.515625 L 27.609375 -7.375 C 27.609375 -10.34375 28.15625 -11.875 29.8125 -13.75 L 45.4375 -30.90625 C 48.296875 -34.09375 49.0625 -36.625 49.0625 -39.484375 L 49.171875 -54.234375 C 49.171875 -59.1875 48.1875 -65.125 39.59375 -65.125 L 14.84375 -65.125 C 11.21875 -65.125 9.5625 -66.875 10.5625 -70.734375 L 13.859375 -83.375 C 15.40625 -89.09375 14.40625 -91.296875 11.546875 -91.734375 L 7.703125 -92.296875 C 6.265625 -92.515625 5.28125 -93.5 5.28125 -95.703125 L 5.28125 -96.03125 L 3.078125 -96.03125 C 2.640625 -94.8125 1.3125 -91.078125 1.3125 -89.09375 C 1.3125 -86.90625 1.546875 -84.921875 4.40625 -84.59375 L 7.703125 -84.15625 C 9.015625 -83.9375 9.453125 -83.265625 9.015625 -81.734375 C 7.703125 -77.328125 3.84375 -65.125 3.84375 -60.28125 C 3.84375 -55.765625 5.609375 -53.125 9.234375 -53.125 L 38.171875 -53.125 C 41.359375 -53.125 43.234375 -51.375 43.234375 -48.0625 L 43.234375 -39.375 C 43.234375 -37.625 42.5625 -36.515625 40.703125 -34.4375 L 24.53125 -16.5 C 21.34375 -12.984375 20.015625 -10.671875 20.015625 -7.15625 L 20.015625 -4.515625 C 20.015625 -0.546875 21.015625 0.765625 23.65625 0.765625 Z M 23.65625 0.765625 "/>
</symbol>
</g>
<g>
<symbol overflow="visible" id="hebrew-calt:id1:glyph0-0">
<path style="stroke:none;" d="M 5.375 -96.6875 L 69.828125 -96.6875 L 69.828125 0 L 5.375 0 Z M 8.0625 -2.6875 L 67.140625 -2.6875 L 67.140625 -94 L 8.0625 -94 Z M 8.0625 -2.6875 "/>
</symbol>
<symbol overflow="visible" id="hebrew-calt:id1:glyph0-1">
<path style="stroke:none;" d="M 68.15625 -13.75 L 66.28125 -18.640625 L 88.09375 -27.390625 L 6.984375 -27.390625 L 6.984375 -34 L 88.09375 -34 L 66.28125 -42.75 L 68.15625 -47.640625 L 99.09375 -34.265625 L 99.09375 -27.125 Z M 68.15625 -13.75 "/>
</symbol>
</g>
<g>
<symbol overflow="visible" id="hebrew-calt:id2:glyph0-0">
<path style="stroke:none;" d="M 10.34375 0 L 55.546875 0 L 55.546875 -78.546875 L 10.34375 -78.546875 Z M 15.953125 -5.609375 L 15.953125 -72.9375 L 49.9375 -72.9375 L 49.9375 -5.609375 Z M 15.953125 -5.609375 "/>
</symbol>
<symbol overflow="visible" id="hebrew-calt:id2:glyph0-1">
<path style="stroke:none;" d="M 11.765625 0 L 47.953125 0 C 52.90625 0 55.765625 -3.078125 55.765625 -8.25 L 55.765625 -48.734375 C 55.765625 -57.96875 53.5625 -65.125 42.453125 -65.125 L 17.046875 -65.125 C 13.53125 -65.125 11.328125 -67.09375 11.328125 -70.84375 L 11.328125 -71.171875 L 8.359375 -71.171875 C 7.15625 -65.015625 6.8125 -63.46875 6.8125 -61.046875 C 6.8125 -55.4375 8.578125 -53.125 11.984375 -53.125 L 12.3125 -53.125 L 12.3125 -52.90625 C 8.03125 -47.953125 6.046875 -42.5625 6.046875 -36.515625 L 6.046875 -7.8125 C 6.046875 -1.203125 8.578125 0 11.765625 0 Z M 11.984375 -11.984375 L 11.984375 -36.515625 C 11.984375 -44 15.1875 -50.9375 18.484375 -53.125 L 39.8125 -53.125 C 45.3125 -53.125 49.828125 -49.609375 49.828125 -41.140625 L 49.828125 -19.578125 C 49.828125 -17.59375 49.0625 -11.984375 44.765625 -11.984375 Z M 51.59375 17.046875 C 54.125 17.046875 55.765625 15.515625 55.765625 12.3125 C 55.765625 9.234375 54.125 7.703125 51.59375 7.703125 C 49.0625 7.703125 47.515625 9.234375 47.515625 12.3125 C 47.515625 15.625 49.0625 17.046875 51.59375 17.046875 Z M 51.59375 17.046875 "/>
</symbol>
<symbol overflow="visible" id="hebrew-calt:id2:glyph0-2">
<path style="stroke:none;" d="M 10.125 22.984375 L 16.0625 22.65625 L 15.40625 15.0625 L 21.34375 15.0625 L 21.671875 9.234375 L 4.84375 9.234375 L 4.515625 15.0625 L 10.890625 15.0625 Z M 10.125 22.984375 "/>
</symbol>
<symbol overflow="visible" id="hebrew-calt:id2:glyph0-3">
<path style="stroke:none;" d="M 23.65625 0.765625 C 26.515625 0.765625 27.609375 -0.875 27.609375 -4.515625 L 27.609375 -7.375 C 27.609375 -10.34375 28.15625 -11.875 29.8125 -13.75 L 45.4375 -30.90625 C 48.296875 -34.09375 49.0625 -36.625 49.0625 -39.484375 L 49.171875 -54.234375 C 49.171875 -59.1875 48.1875 -65.125 39.59375 -65.125 L 14.84375 -65.125 C 11.21875 -65.125 9.5625 -66.875 10.5625 -70.734375 L 13.859375 -83.375 C 15.40625 -89.09375 14.40625 -91.296875 11.546875 -91.734375 L 7.703125 -92.296875 C 6.265625 -92.515625 5.28125 -93.5 5.28125 -95.703125 L 5.28125 -96.03125 L 3.078125 -96.03125 C 2.640625 -94.8125 1.3125 -91.078125 1.3125 -89.09375 C 1.3125 -86.90625 1.546875 -84.921875 4.40625 -84.59375 L 7.703125 -84.15625 C 9.015625 -83.9375 9.453125 -83.265625 9.015625 -81.734375 C 7.703125 -77.328125 3.84375 -65.125 3.84375 -60.28125 C 3.84375 -55.765625 5.609375 -53.125 9.234375 -53.125 L 38.171875 -53.125 C 41.359375 -53.125 43.234375 -51.375 43.234375 -48.0625 L 43.234375 -39.375 C 43.234375 -37.625 42.5625 -36.515625 40.703125 -34.4375 L 24.53125 -16.5 C 21.34375 -12.984375 20.015625 -10.671875 20.015625 -7.15625 L 20.015625 -4.515625 C 20.015625 -0.546875 21.015625 0.765625 23.65625 0.765625 Z M 23.65625 0.765625 "/>
</symbol>
</g>
</defs>
  <g id="hebrew-calt:id0:id0" transform="matrix(1.25,0,0,1.25,0.0,16.66015625)"><g id="hebrew-calt:id0:surface1">
<g style="fill:rgb(0%,0%,0%);fill-opacity:1;">
  <use xlink:href="#hebrew-calt:id0:glyph0-1" x="16" y="100.5625" class="c3"/>
  <use xlink:href="#hebrew-calt:id0:glyph0-2" x="89.90625" y="100.5625" class="c2"/>
  <use xlink:href="#hebrew-calt:id0:glyph0-3" x="86.0625" y="100.5625" class="c1"/>
  <use xlink:href="#hebrew-calt:id0:glyph0-4" x="75.609375" y="100.5625" class="c0"/>
</g>
</g>
</g>
  <g id="hebrew-calt:id1:id1" transform="matrix(1.25,0,0,1.25,183.671875,0.0)"><g id="hebrew-calt:id1:surface1">
<g style="fill:rgb(0%,0%,0%);fill-opacity:1;">
  <use xlink:href="#hebrew-calt:id1:glyph0-1" x="0" y="120.84375" class="arrow"/>
</g>
</g>
</g>
  <g id="hebrew-calt:id2:id2" transform="matrix(1.25,0,0,1.25,316.26953125,16.66015625)"><g id="hebrew-calt:id2:surface1">
<g style="fill:rgb(0%,0%,0%);fill-opacity:1;">
  <use xlink:href="#hebrew-calt:id2:glyph0-1" x="16" y="100.5625" class="c3"/>
  <use xlink:href="#hebrew-calt:id2:glyph0-2" x="90.46875" y="100.5625" class="c1"/>
  <use xlink:href="#hebrew-calt:id2:glyph0-3" x="80.015625" y="100.5625" class="c0"/>
</g>
</g>
</g>
</svg>
