<?xml version="1.0" standalone="no"?>
<!DOCTYPE svg PUBLIC "-//W3C//DTD SVG 1.1//EN"
 "http://www.w3.org/Graphics/SVG/1.1/DTD/svg11.dtd">
<!-- Created with svg_stack (http://github.com/astraw/svg_stack) -->
<svg xmlns="http://www.w3.org/2000/svg" xmlns:sodipodi="http://sodipodi.sourceforge.net/DTD/sodipodi-0.dtd" xmlns:xlink="http://www.w3.org/1999/xlink" version="1.1" width="369.08203125" height="201.40625">
  <defs><g>
<symbol overflow="visible" id="id0:glyph0-0">
<path style="stroke:none;" d="M 10.34375 0 L 10.34375 -78.546875 L 55.546875 -78.546875 L 55.546875 0 Z M 15.953125 -5.609375 L 49.9375 -5.609375 L 49.9375 -72.9375 L 15.953125 -72.9375 Z M 15.953125 -5.609375 "/>
</symbol>
<symbol overflow="visible" id="id0:glyph0-1">
<path style="stroke:none;" d="M 5.0625 -33 C 5.0625 -36.082031 6.414062 -37.625 9.125 -37.625 C 10.375 -37.625 11.382812 -37.238281 12.15625 -36.46875 C 12.925781 -35.695312 13.3125 -34.539062 13.3125 -33 C 13.3125 -31.382812 12.925781 -30.191406 12.15625 -29.421875 C 11.382812 -28.648438 10.375 -28.265625 9.125 -28.265625 C 6.414062 -28.265625 5.0625 -29.84375 5.0625 -33 Z M 5.0625 -33 "/>
</symbol>
<symbol overflow="visible" id="id0:glyph0-2">
<path style="stroke:none;" d="M 34.765625 0.765625 C 32.265625 0.765625 31.015625 -0.367188 31.015625 -2.640625 L 31.015625 -6.15625 C 31.015625 -8.726562 31.253906 -10.726562 31.734375 -12.15625 C 32.210938 -13.582031 33.1875 -14.992188 34.65625 -16.390625 L 46.421875 -27.171875 C 47.441406 -28.117188 48.265625 -28.941406 48.890625 -29.640625 C 49.515625 -30.335938 49.953125 -31.253906 50.203125 -32.390625 C 50.460938 -33.523438 50.59375 -35.125 50.59375 -37.1875 L 50.59375 -48.0625 C 50.59375 -51.4375 48.6875 -53.125 44.875 -53.125 L 13.640625 -53.125 C 11.878906 -53.125 10.539062 -53.710938 9.625 -54.890625 C 8.707031 -56.066406 8.25 -58.117188 8.25 -61.046875 C 8.25 -62.296875 8.359375 -63.523438 8.578125 -64.734375 C 8.796875 -65.941406 9.203125 -68.085938 9.796875 -71.171875 L 12.765625 -71.171875 L 12.765625 -70.84375 C 12.765625 -69.007812 13.332031 -67.597656 14.46875 -66.609375 C 15.601562 -65.617188 16.90625 -65.125 18.375 -65.125 L 45.4375 -65.125 C 52.84375 -65.125 56.546875 -61.3125 56.546875 -53.6875 L 56.546875 -38.171875 C 56.546875 -35.523438 56.394531 -33.359375 56.09375 -31.671875 C 55.800781 -29.992188 55.304688 -28.582031 54.609375 -27.4375 C 53.910156 -26.300781 52.90625 -25.113281 51.59375 -23.875 L 40.8125 -13.859375 C 39.78125 -12.910156 39.15625 -11.8125 38.9375 -10.5625 C 38.71875 -9.3125 38.609375 -7.84375 38.609375 -6.15625 L 38.609375 -2.640625 C 38.609375 -0.367188 37.328125 0.765625 34.765625 0.765625 Z M 9.453125 26.40625 L 9.453125 -30.03125 C 9.453125 -32.445312 9.707031 -34.257812 10.21875 -35.46875 C 10.738281 -36.6875 11.585938 -37.550781 12.765625 -38.0625 L 14.84375 -38.9375 L 15.515625 -38.171875 L 17.046875 22.4375 C 15.429688 24.050781 13.453125 25.375 11.109375 26.40625 Z M 9.453125 26.40625 "/>
</symbol>
</g>
<g>
<symbol overflow="visible" id="id1:glyph0-0">
<path style="stroke:none;" d="M 5.375 -96.6875 L 69.828125 -96.6875 L 69.828125 0 L 5.375 0 Z M 8.0625 -2.6875 L 67.140625 -2.6875 L 67.140625 -94 L 8.0625 -94 Z M 8.0625 -2.6875 "/>
</symbol>
<symbol overflow="visible" id="id1:glyph0-1">
<path style="stroke:none;" d="M 68.15625 -13.75 L 66.28125 -18.640625 L 88.09375 -27.390625 L 6.984375 -27.390625 L 6.984375 -34 L 88.09375 -34 L 66.28125 -42.75 L 68.15625 -47.640625 L 99.09375 -34.265625 L 99.09375 -27.125 Z M 68.15625 -13.75 "/>
</symbol>
</g>
<g>
<symbol overflow="visible" id="id2:glyph0-0">
<path style="stroke:none;" d="M 10.34375 0 L 10.34375 -78.546875 L 55.546875 -78.546875 L 55.546875 0 Z M 15.953125 -5.609375 L 49.9375 -5.609375 L 49.9375 -72.9375 L 15.953125 -72.9375 Z M 15.953125 -5.609375 "/>
</symbol>
<symbol overflow="visible" id="id2:glyph0-1">
<path style="stroke:none;" d="M 5.0625 -33 C 5.0625 -36.082031 6.414062 -37.625 9.125 -37.625 C 10.375 -37.625 11.382812 -37.238281 12.15625 -36.46875 C 12.925781 -35.695312 13.3125 -34.539062 13.3125 -33 C 13.3125 -31.382812 12.925781 -30.191406 12.15625 -29.421875 C 11.382812 -28.648438 10.375 -28.265625 9.125 -28.265625 C 6.414062 -28.265625 5.0625 -29.84375 5.0625 -33 Z M 5.0625 -33 "/>
</symbol>
<symbol overflow="visible" id="id2:glyph0-2">
<path style="stroke:none;" d="M 34.765625 0.765625 C 32.265625 0.765625 31.015625 -0.367188 31.015625 -2.640625 L 31.015625 -6.15625 C 31.015625 -8.726562 31.253906 -10.726562 31.734375 -12.15625 C 32.210938 -13.582031 33.1875 -14.992188 34.65625 -16.390625 L 46.421875 -27.171875 C 47.441406 -28.117188 48.265625 -28.941406 48.890625 -29.640625 C 49.515625 -30.335938 49.953125 -31.253906 50.203125 -32.390625 C 50.460938 -33.523438 50.59375 -35.125 50.59375 -37.1875 L 50.59375 -48.0625 C 50.59375 -51.4375 48.6875 -53.125 44.875 -53.125 L 13.640625 -53.125 C 11.878906 -53.125 10.539062 -53.710938 9.625 -54.890625 C 8.707031 -56.066406 8.25 -58.117188 8.25 -61.046875 C 8.25 -62.296875 8.359375 -63.523438 8.578125 -64.734375 C 8.796875 -65.941406 9.203125 -68.085938 9.796875 -71.171875 L 12.765625 -71.171875 L 12.765625 -70.84375 C 12.765625 -69.007812 13.332031 -67.597656 14.46875 -66.609375 C 15.601562 -65.617188 16.90625 -65.125 18.375 -65.125 L 45.4375 -65.125 C 52.84375 -65.125 56.546875 -61.3125 56.546875 -53.6875 L 56.546875 -38.171875 C 56.546875 -35.523438 56.394531 -33.359375 56.09375 -31.671875 C 55.800781 -29.992188 55.304688 -28.582031 54.609375 -27.4375 C 53.910156 -26.300781 52.90625 -25.113281 51.59375 -23.875 L 40.8125 -13.859375 C 39.78125 -12.910156 39.15625 -11.8125 38.9375 -10.5625 C 38.71875 -9.3125 38.609375 -7.84375 38.609375 -6.15625 L 38.609375 -2.640625 C 38.609375 -0.367188 37.328125 0.765625 34.765625 0.765625 Z M 9.453125 26.40625 L 9.453125 -30.03125 C 9.453125 -32.445312 9.707031 -34.257812 10.21875 -35.46875 C 10.738281 -36.6875 11.585938 -37.550781 12.765625 -38.0625 L 14.84375 -38.9375 L 15.515625 -38.171875 L 17.046875 22.4375 C 15.429688 24.050781 13.453125 25.375 11.109375 26.40625 Z M 9.453125 26.40625 "/>
</symbol>
</g>
</defs>
  <g id="id0:id0" transform="matrix(1.25,0,0,1.25,0.0,16.66015625)"><g id="id0:surface1">
<g style="fill:rgb(0%,0%,0%);fill-opacity:1;">
  <use xlink:href="#id0:glyph0-1" x="38.65625" y="100.5625"/>
  <use xlink:href="#id0:glyph0-2" x="16" y="100.5625"/>
</g>
</g>
</g>
  <g id="id1:id1" transform="matrix(1.25,0,0,1.25,118.2421875,0.0)"><g id="id1:surface1">
<g style="fill:rgb(0%,0%,0%);fill-opacity:1;">
  <use xlink:href="#id1:glyph0-1" x="0" y="120.84375"/>
</g>
</g>
</g>
  <g id="id2:id2" transform="matrix(1.25,0,0,1.25,250.83984375,16.66015625)"><g id="id2:surface1">
<g style="fill:rgb(0%,0%,0%);fill-opacity:1;">
  <use xlink:href="#id2:glyph0-1" x="38.65625" y="100.5625"/>
  <use xlink:href="#id2:glyph0-2" x="16" y="100.5625"/>
</g>
</g>
</g>
</svg>
