<!DOCTYPE svg PUBLIC "-//W3C//DTD SVG 1.1//EN" "http://www.w3.org/Graphics/SVG/1.1/DTD/svg11.dtd">
<!-- Created with svg_stack (http://github.com/astraw/svg_stack) --><svg xmlns="http://www.w3.org/2000/svg" xmlns:sodipodi="http://sodipodi.sourceforge.net/DTD/sodipodi-0.dtd" xmlns:xlink="http://www.w3.org/1999/xlink" version="1.1" width="100%" id="hebrew-kern" viewBox="0 0 454.84375 201.40625">
  <defs><g>
<symbol overflow="visible" id="hebrew-kern:id0:glyph0-0">
<path style="stroke:none;" d="M 10.34375 0 L 55.546875 0 L 55.546875 -78.546875 L 10.34375 -78.546875 Z M 15.953125 -5.609375 L 15.953125 -72.9375 L 49.9375 -72.9375 L 49.9375 -5.609375 Z M 15.953125 -5.609375 "/>
</symbol>
<symbol overflow="visible" id="hebrew-kern:id0:glyph0-1">
<path style="stroke:none;" d="M 3.734375 9.453125 L 6.046875 9.453125 L 23.3125 -1.984375 C 42.125 -14.40625 51.59375 -41.25 53.5625 -53.125 L 54.453125 -58.515625 C 55 -61.8125 53.125 -63.796875 50.046875 -64.234375 L 43.453125 -65.234375 C 40.484375 -65.671875 38.828125 -67.203125 38.828125 -70.734375 L 38.828125 -71.171875 L 35.859375 -71.171875 C 33.765625 -65.453125 33.21875 -63.359375 33.21875 -60.609375 C 33.21875 -55.546875 34.984375 -54.453125 38.71875 -53.90625 L 48.1875 -52.578125 L 47.953125 -51.484375 C 46.421875 -43.78125 39.59375 -28.484375 28.9375 -19.25 L 19.578125 -37.625 C 17.59375 -41.578125 16.5 -47.625 16.71875 -52.6875 L 24.640625 -51.59375 C 25.296875 -55.546875 25.515625 -56.765625 25.515625 -58.296875 C 25.515625 -61.9375 24.203125 -63.90625 21.234375 -64.234375 L 13.53125 -65.234375 C 10.453125 -65.671875 8.90625 -67.3125 8.90625 -70.734375 L 8.90625 -71.171875 L 5.9375 -71.171875 C 4.0625 -66.109375 3.296875 -63.46875 3.296875 -60.28125 C 3.296875 -55.875 4.84375 -54.453125 8.796875 -53.90625 L 12.65625 -53.34375 C 11.765625 -46.203125 12.4375 -37.40625 14.734375 -32.125 L 22.546875 -14.625 L 3.734375 -3.84375 Z M 3.734375 9.453125 "/>
</symbol>
<symbol overflow="visible" id="hebrew-kern:id0:glyph0-2">
<path style="stroke:none;" d="M 33.4375 0.984375 L 34.4375 0.984375 C 35.75 0.875 38.390625 -0.328125 39.265625 -1.765625 L 34.65625 -12.4375 C 32.234375 -17.9375 31.125 -20.125 31.125 -25.40625 L 31.125 -58.84375 C 31.125 -63.46875 29.703125 -65.125 25.953125 -65.125 L 19.90625 -65.125 C 16.0625 -65.125 14.078125 -67.3125 14.078125 -70.84375 L 14.078125 -71.171875 L 11.109375 -71.171875 C 9.90625 -65.671875 9.5625 -63.46875 9.5625 -61.046875 C 9.5625 -55.328125 11.4375 -53.125 14.953125 -53.125 L 22.21875 -53.125 C 24.75 -53.125 25.1875 -52.03125 25.1875 -49.171875 L 25.1875 -18.375 C 25.1875 -14.515625 19.796875 -11.984375 15.625 -11.984375 L 4.296875 -11.984375 L 1.3125 0 L 18.046875 0 C 20.90625 0 22.4375 -1.3125 23.765625 -4.515625 L 26.84375 -12.203125 C 29.046875 -8.578125 30.578125 -5.390625 33.4375 0.984375 Z M 33.4375 0.984375 "/>
</symbol>
</g>
<g>
<symbol overflow="visible" id="hebrew-kern:id1:glyph0-0">
<path style="stroke:none;" d="M 5.375 -96.6875 L 69.828125 -96.6875 L 69.828125 0 L 5.375 0 Z M 8.0625 -2.6875 L 67.140625 -2.6875 L 67.140625 -94 L 8.0625 -94 Z M 8.0625 -2.6875 "/>
</symbol>
<symbol overflow="visible" id="hebrew-kern:id1:glyph0-1">
<path style="stroke:none;" d="M 68.15625 -13.75 L 66.28125 -18.640625 L 88.09375 -27.390625 L 6.984375 -27.390625 L 6.984375 -34 L 88.09375 -34 L 66.28125 -42.75 L 68.15625 -47.640625 L 99.09375 -34.265625 L 99.09375 -27.125 Z M 68.15625 -13.75 "/>
</symbol>
</g>
<g>
<symbol overflow="visible" id="hebrew-kern:id2:glyph0-0">
<path style="stroke:none;" d="M 10.34375 0 L 55.546875 0 L 55.546875 -78.546875 L 10.34375 -78.546875 Z M 15.953125 -5.609375 L 15.953125 -72.9375 L 49.9375 -72.9375 L 49.9375 -5.609375 Z M 15.953125 -5.609375 "/>
</symbol>
<symbol overflow="visible" id="hebrew-kern:id2:glyph0-1">
<path style="stroke:none;" d="M 3.734375 9.453125 L 6.046875 9.453125 L 23.3125 -1.984375 C 42.125 -14.40625 51.59375 -41.25 53.5625 -53.125 L 54.453125 -58.515625 C 55 -61.8125 53.125 -63.796875 50.046875 -64.234375 L 43.453125 -65.234375 C 40.484375 -65.671875 38.828125 -67.203125 38.828125 -70.734375 L 38.828125 -71.171875 L 35.859375 -71.171875 C 33.765625 -65.453125 33.21875 -63.359375 33.21875 -60.609375 C 33.21875 -55.546875 34.984375 -54.453125 38.71875 -53.90625 L 48.1875 -52.578125 L 47.953125 -51.484375 C 46.421875 -43.78125 39.59375 -28.484375 28.9375 -19.25 L 19.578125 -37.625 C 17.59375 -41.578125 16.5 -47.625 16.71875 -52.6875 L 24.640625 -51.59375 C 25.296875 -55.546875 25.515625 -56.765625 25.515625 -58.296875 C 25.515625 -61.9375 24.203125 -63.90625 21.234375 -64.234375 L 13.53125 -65.234375 C 10.453125 -65.671875 8.90625 -67.3125 8.90625 -70.734375 L 8.90625 -71.171875 L 5.9375 -71.171875 C 4.0625 -66.109375 3.296875 -63.46875 3.296875 -60.28125 C 3.296875 -55.875 4.84375 -54.453125 8.796875 -53.90625 L 12.65625 -53.34375 C 11.765625 -46.203125 12.4375 -37.40625 14.734375 -32.125 L 22.546875 -14.625 L 3.734375 -3.84375 Z M 3.734375 9.453125 "/>
</symbol>
<symbol overflow="visible" id="hebrew-kern:id2:glyph0-2">
<path style="stroke:none;" d="M 33.4375 0.984375 L 34.4375 0.984375 C 35.75 0.875 38.390625 -0.328125 39.265625 -1.765625 L 34.65625 -12.4375 C 32.234375 -17.9375 31.125 -20.125 31.125 -25.40625 L 31.125 -58.84375 C 31.125 -63.46875 29.703125 -65.125 25.953125 -65.125 L 19.90625 -65.125 C 16.0625 -65.125 14.078125 -67.3125 14.078125 -70.84375 L 14.078125 -71.171875 L 11.109375 -71.171875 C 9.90625 -65.671875 9.5625 -63.46875 9.5625 -61.046875 C 9.5625 -55.328125 11.4375 -53.125 14.953125 -53.125 L 22.21875 -53.125 C 24.75 -53.125 25.1875 -52.03125 25.1875 -49.171875 L 25.1875 -18.375 C 25.1875 -14.515625 19.796875 -11.984375 15.625 -11.984375 L 4.296875 -11.984375 L 1.3125 0 L 18.046875 0 C 20.90625 0 22.4375 -1.3125 23.765625 -4.515625 L 26.84375 -12.203125 C 29.046875 -8.578125 30.578125 -5.390625 33.4375 0.984375 Z M 33.4375 0.984375 "/>
</symbol>
</g>
</defs>
  <g id="hebrew-kern:id0:id0" transform="matrix(1.25,0,0,1.25,0.0,16.66015625)"><g id="hebrew-kern:id0:surface1">
<g style="fill:rgb(0%,0%,0%);fill-opacity:1;">
  <use xlink:href="#hebrew-kern:id0:glyph0-1" x="16" y="100.5625" class="c1"/>
  <use xlink:href="#hebrew-kern:id0:glyph0-2" x="74.734375" y="100.5625" class="c0"/>
</g>
</g>
</g>
  <g id="hebrew-kern:id1:id1" transform="matrix(1.25,0,0,1.25,165.25390625,0.0)"><g id="hebrew-kern:id1:surface1">
<g style="fill:rgb(0%,0%,0%);fill-opacity:1;">
  <use xlink:href="#hebrew-kern:id1:glyph0-1" x="0" y="120.84375" class="arrow"/>
</g>
</g>
</g>
  <g id="hebrew-kern:id2:id2" transform="matrix(1.25,0,0,1.25,297.8515625,16.66015625)"><g id="hebrew-kern:id2:surface1">
<g style="fill:rgb(0%,0%,0%);fill-opacity:1;">
  <use xlink:href="#hebrew-kern:id2:glyph0-1" x="16" y="100.5625" class="c1"/>
  <use xlink:href="#hebrew-kern:id2:glyph0-2" x="68.125" y="100.5625" class="c0"/>
</g>
</g>
</g>
</svg>
