<!DOCTYPE svg PUBLIC "-//W3C//DTD SVG 1.1//EN" "http://www.w3.org/Graphics/SVG/1.1/DTD/svg11.dtd">
<!-- Created with svg_stack (http://github.com/astraw/svg_stack) --><svg xmlns="http://www.w3.org/2000/svg" xmlns:sodipodi="http://sodipodi.sourceforge.net/DTD/sodipodi-0.dtd" xmlns:xlink="http://www.w3.org/1999/xlink" version="1.1" width="100%" id="hebrew-mark" viewBox="0 0 385.01953125 201.40625">
  <defs><g>
<symbol overflow="visible" id="hebrew-mark:id0:glyph0-0">
<path style="stroke:none;" d="M 10.34375 0 L 10.34375 -78.546875 L 55.546875 -78.546875 L 55.546875 0 Z M 15.953125 -5.609375 L 49.9375 -5.609375 L 49.9375 -72.9375 L 15.953125 -72.9375 Z M 15.953125 -5.609375 "/>
</symbol>
<symbol overflow="visible" id="hebrew-mark:id0:glyph0-1">
<path style="stroke:none;" d="M 14.40625 26.1875 L 5.5 17.15625 L 14.1875 8.46875 L 19.140625 8.46875 L 10.5625 17.15625 L 19.359375 26.1875 Z M 14.40625 26.1875 "/>
</symbol>
<symbol overflow="visible" id="hebrew-mark:id0:glyph0-2">
<path style="stroke:none;" d="M 36.078125 0 L 53.6875 -56.984375 L 7.046875 -56.984375 L 8.25 -65.234375 L 65.234375 -65.234375 L 64.34375 -58.84375 L 46.203125 0 Z M 10.34375 21.015625 L 10.34375 -41.03125 L 20.453125 -41.796875 L 20.453125 20.453125 Z M 10.34375 21.015625 "/>
</symbol>
</g>
<g>
<symbol overflow="visible" id="hebrew-mark:id1:glyph0-0">
<path style="stroke:none;" d="M 5.375 -96.6875 L 69.828125 -96.6875 L 69.828125 0 L 5.375 0 Z M 8.0625 -2.6875 L 67.140625 -2.6875 L 67.140625 -94 L 8.0625 -94 Z M 8.0625 -2.6875 "/>
</symbol>
<symbol overflow="visible" id="hebrew-mark:id1:glyph0-1">
<path style="stroke:none;" d="M 68.15625 -13.75 L 66.28125 -18.640625 L 88.09375 -27.390625 L 6.984375 -27.390625 L 6.984375 -34 L 88.09375 -34 L 66.28125 -42.75 L 68.15625 -47.640625 L 99.09375 -34.265625 L 99.09375 -27.125 Z M 68.15625 -13.75 "/>
</symbol>
</g>
<g>
<symbol overflow="visible" id="hebrew-mark:id2:glyph0-0">
<path style="stroke:none;" d="M 10.34375 0 L 10.34375 -78.546875 L 55.546875 -78.546875 L 55.546875 0 Z M 15.953125 -5.609375 L 49.9375 -5.609375 L 49.9375 -72.9375 L 15.953125 -72.9375 Z M 15.953125 -5.609375 "/>
</symbol>
<symbol overflow="visible" id="hebrew-mark:id2:glyph0-1">
<path style="stroke:none;" d="M 14.40625 26.1875 L 5.5 17.15625 L 14.1875 8.46875 L 19.140625 8.46875 L 10.5625 17.15625 L 19.359375 26.1875 Z M 14.40625 26.1875 "/>
</symbol>
<symbol overflow="visible" id="hebrew-mark:id2:glyph0-2">
<path style="stroke:none;" d="M 36.078125 0 L 53.6875 -56.984375 L 7.046875 -56.984375 L 8.25 -65.234375 L 65.234375 -65.234375 L 64.34375 -58.84375 L 46.203125 0 Z M 10.34375 21.015625 L 10.34375 -41.03125 L 20.453125 -41.796875 L 20.453125 20.453125 Z M 10.34375 21.015625 "/>
</symbol>
</g>
</defs>
  <g id="hebrew-mark:id0:id0" transform="matrix(1.25,0,0,1.25,0.0,4.697265625)"><g id="hebrew-mark:id0:surface1">
<g style="fill:rgb(0%,0%,0%);fill-opacity:1;">
  <use xlink:href="#hebrew-mark:id0:glyph0-1" x="16" y="119.484375" class="c0"/>
  <use xlink:href="#hebrew-mark:id0:glyph0-2" x="16" y="119.484375" class="c1"/>
</g>
</g>
</g>
  <g id="hebrew-mark:id1:id1" transform="matrix(1.25,0,0,1.25,126.2109375,0.0)"><g id="hebrew-mark:id1:surface1">
<g style="fill:rgb(0%,0%,0%);fill-opacity:1;">
  <use xlink:href="#hebrew-mark:id1:glyph0-1" x="0" y="120.84375" class="arrow"/>
</g>
</g>
</g>
  <g id="hebrew-mark:id2:id2" transform="matrix(1.25,0,0,1.25,258.80859375,4.697265625)"><g id="hebrew-mark:id2:surface1">
<g style="fill:rgb(0%,0%,0%);fill-opacity:1;">
  <use xlink:href="#hebrew-mark:id2:glyph0-1" x="4.015625" y="119.484375" class="c0"/>
  <use xlink:href="#hebrew-mark:id2:glyph0-2" x="16" y="119.484375" class="c1"/>
</g>
</g>
</g>
</svg>