<?xml version="1.0" standalone="no"?>
<!DOCTYPE svg PUBLIC "-//W3C//DTD SVG 1.1//EN"
 "http://www.w3.org/Graphics/SVG/1.1/DTD/svg11.dtd">
<!-- Created with svg_stack (http://github.com/astraw/svg_stack) -->
<svg xmlns="http://www.w3.org/2000/svg" xmlns:sodipodi="http://sodipodi.sourceforge.net/DTD/sodipodi-0.dtd" xmlns:xlink="http://www.w3.org/1999/xlink" version="1.1" width="232.59765625" height="201.40625">
  <defs><g>
<symbol overflow="visible" id="id0:glyph0-0">
<path style="stroke:none;" d="M 10.34375 0 L 10.34375 -78.546875 L 55.546875 -78.546875 L 55.546875 0 Z M 15.953125 -5.609375 L 49.9375 -5.609375 L 49.9375 -72.9375 L 15.953125 -72.9375 Z M 15.953125 -5.609375 "/>
</symbol>
<symbol overflow="visible" id="id0:glyph0-1">
<path style="stroke:none;" d="M 5.171875 30.359375 L 5.171875 8.03125 L 11 7.703125 L 11 30.03125 Z M 5.171875 30.359375 "/>
</symbol>
<symbol overflow="visible" id="id0:glyph0-2">
<path style="stroke:none;" d="M 31.6875 17.046875 C 30.4375 17.046875 29.425781 16.660156 28.65625 15.890625 C 27.882812 15.117188 27.5 13.925781 27.5 12.3125 C 27.5 10.78125 27.882812 9.628906 28.65625 8.859375 C 29.425781 8.085938 30.4375 7.703125 31.6875 7.703125 C 32.925781 7.703125 33.929688 8.085938 34.703125 8.859375 C 35.472656 9.628906 35.859375 10.78125 35.859375 12.3125 C 35.859375 13.925781 35.472656 15.117188 34.703125 15.890625 C 33.929688 16.660156 32.925781 17.046875 31.6875 17.046875 Z M 11.65625 28.59375 L 12.3125 15.296875 L 5.71875 15.296875 L 6.046875 9.453125 L 23.4375 9.453125 L 23.09375 15.296875 L 16.9375 15.296875 L 17.59375 28.265625 Z M 31.5625 30.359375 C 30.320312 30.359375 29.296875 29.972656 28.484375 29.203125 C 27.679688 28.429688 27.28125 27.238281 27.28125 25.625 C 27.28125 24.007812 27.679688 22.835938 28.484375 22.109375 C 29.296875 21.378906 30.320312 21.015625 31.5625 21.015625 C 32.8125 21.015625 33.820312 21.378906 34.59375 22.109375 C 35.363281 22.835938 35.75 24.007812 35.75 25.625 C 35.75 27.238281 35.363281 28.429688 34.59375 29.203125 C 33.820312 29.972656 32.8125 30.359375 31.5625 30.359375 Z M 31.5625 30.359375 "/>
</symbol>
</g>
<g>
<symbol overflow="visible" id="id1:glyph0-0">
<path style="stroke:none;" d="M 5.375 -96.6875 L 69.828125 -96.6875 L 69.828125 0 L 5.375 0 Z M 8.0625 -2.6875 L 67.140625 -2.6875 L 67.140625 -94 L 8.0625 -94 Z M 8.0625 -2.6875 "/>
</symbol>
<symbol overflow="visible" id="id1:glyph0-1">
<path style="stroke:none;" d="M 68.15625 -13.75 L 66.28125 -18.640625 L 88.09375 -27.390625 L 6.984375 -27.390625 L 6.984375 -34 L 88.09375 -34 L 66.28125 -42.75 L 68.15625 -47.640625 L 99.09375 -34.265625 L 99.09375 -27.125 Z M 68.15625 -13.75 "/>
</symbol>
</g>
<g>
<symbol overflow="visible" id="id2:glyph0-0">
<path style="stroke:none;" d="M 10.34375 0 L 10.34375 -78.546875 L 55.546875 -78.546875 L 55.546875 0 Z M 15.953125 -5.609375 L 49.9375 -5.609375 L 49.9375 -72.9375 L 15.953125 -72.9375 Z M 15.953125 -5.609375 "/>
</symbol>
<symbol overflow="visible" id="id2:glyph0-1">
<path style="stroke:none;" d="M 5.171875 30.359375 L 5.171875 8.03125 L 11 7.703125 L 11 30.03125 Z M 5.171875 30.359375 "/>
</symbol>
<symbol overflow="visible" id="id2:glyph0-2">
<path style="stroke:none;" d="M 31.6875 17.046875 C 30.4375 17.046875 29.425781 16.660156 28.65625 15.890625 C 27.882812 15.117188 27.5 13.925781 27.5 12.3125 C 27.5 10.78125 27.882812 9.628906 28.65625 8.859375 C 29.425781 8.085938 30.4375 7.703125 31.6875 7.703125 C 32.925781 7.703125 33.929688 8.085938 34.703125 8.859375 C 35.472656 9.628906 35.859375 10.78125 35.859375 12.3125 C 35.859375 13.925781 35.472656 15.117188 34.703125 15.890625 C 33.929688 16.660156 32.925781 17.046875 31.6875 17.046875 Z M 11.65625 28.59375 L 12.3125 15.296875 L 5.71875 15.296875 L 6.046875 9.453125 L 23.4375 9.453125 L 23.09375 15.296875 L 16.9375 15.296875 L 17.59375 28.265625 Z M 31.5625 30.359375 C 30.320312 30.359375 29.296875 29.972656 28.484375 29.203125 C 27.679688 28.429688 27.28125 27.238281 27.28125 25.625 C 27.28125 24.007812 27.679688 22.835938 28.484375 22.109375 C 29.296875 21.378906 30.320312 21.015625 31.5625 21.015625 C 32.8125 21.015625 33.820312 21.378906 34.59375 22.109375 C 35.363281 22.835938 35.75 24.007812 35.75 25.625 C 35.75 27.238281 35.363281 28.429688 34.59375 29.203125 C 33.820312 29.972656 32.8125 30.359375 31.5625 30.359375 Z M 31.5625 30.359375 "/>
</symbol>
</g>
</defs>
  <g id="id0:id0" transform="matrix(1.25,0,0,1.25,0.0,16.66015625)"><g id="id0:surface1">
<g style="fill:rgb(0%,0%,0%);fill-opacity:1;">
  <use xlink:href="#id0:glyph0-1" x="16" y="100.5625"/>
  <use xlink:href="#id0:glyph0-2" x="16" y="100.5625"/>
</g>
</g>
</g>
  <g id="id1:id1" transform="matrix(1.25,0,0,1.25,40.0,0.0)"><g id="id1:surface1">
<g style="fill:rgb(0%,0%,0%);fill-opacity:1;">
  <use xlink:href="#id1:glyph0-1" x="0" y="120.84375"/>
</g>
</g>
</g>
  <g id="id2:id2" transform="matrix(1.25,0,0,1.25,172.59765625,16.66015625)"><g id="id2:surface1">
<g style="fill:rgb(0%,0%,0%);fill-opacity:1;">
  <use xlink:href="#id2:glyph0-1" x="24" y="100.5625"/>
  <use xlink:href="#id2:glyph0-2" x="24" y="100.5625"/>
</g>
</g>
</g>
</svg>
