<!DOCTYPE svg PUBLIC "-//W3C//DTD SVG 1.1//EN" "http://www.w3.org/Graphics/SVG/1.1/DTD/svg11.dtd">
<!-- Created with svg_stack (http://github.com/astraw/svg_stack) --><svg xmlns="http://www.w3.org/2000/svg" xmlns:sodipodi="http://sodipodi.sourceforge.net/DTD/sodipodi-0.dtd" xmlns:xlink="http://www.w3.org/1999/xlink" version="1.1" width="458.84765625" height="201.40625" id="hebrew-dlig">
  <defs><g>
<symbol overflow="visible" id="hebrew-dlig:id0:glyph0-0">
<path style="stroke:none;" d="M 10.34375 0 L 10.34375 -78.546875 L 55.546875 -78.546875 L 55.546875 0 Z M 15.953125 -5.609375 L 49.9375 -5.609375 L 49.9375 -72.9375 L 15.953125 -72.9375 Z M 15.953125 -5.609375 "/>
</symbol>
<symbol overflow="visible" id="hebrew-dlig:id0:glyph0-1">
<path style="stroke:none;" d="M 13.859375 -65.234375 L 53.5625 -65.234375 L 52.46875 -58.84375 L 32.78125 0 L 22.328125 0 L 41.578125 -56.875 L 3.734375 -56.875 L 3.734375 -82.390625 L 13.859375 -83.59375 Z M 13.859375 -65.234375 "/>
</symbol>
<symbol overflow="visible" id="hebrew-dlig:id0:glyph0-2">
<path style="stroke:none;" d="M 3.953125 0 L 6.59375 -18.265625 C 7.40625 -24.273438 8.984375 -29.550781 11.328125 -34.09375 C 13.671875 -38.644531 17.519531 -42.238281 22.875 -44.875 C 19.425781 -49.207031 16.269531 -53.171875 13.40625 -56.765625 C 10.550781 -60.359375 8.207031 -63.179688 6.375 -65.234375 L 18.59375 -65.234375 C 20.644531 -62.804688 22.914062 -59.976562 25.40625 -56.75 C 27.90625 -53.53125 30.765625 -49.867188 33.984375 -45.765625 C 35.304688 -43.929688 36.664062 -42.0625 38.0625 -40.15625 C 39.457031 -38.25 40.882812 -36.300781 42.34375 -34.3125 C 46.082031 -36.300781 48.8125 -39.050781 50.53125 -42.5625 C 52.257812 -46.082031 53.347656 -50.191406 53.796875 -54.890625 L 54.78125 -65.234375 L 64.90625 -65.234375 L 63.90625 -54.5625 C 63.320312 -48.550781 61.691406 -43.304688 59.015625 -38.828125 C 56.335938 -34.359375 52.285156 -30.800781 46.859375 -28.15625 C 50.015625 -23.6875 53.203125 -19.085938 56.421875 -14.359375 C 59.648438 -9.628906 62.695312 -4.84375 65.5625 0 L 54.015625 0 C 49.753906 -7.257812 45.367188 -14.171875 40.859375 -20.734375 C 36.347656 -27.296875 31.96875 -33.363281 27.71875 -38.9375 C 23.976562 -36.882812 21.351562 -34.0625 19.84375 -30.46875 C 18.34375 -26.875 17.265625 -22.695312 16.609375 -17.9375 L 13.96875 0 Z M 3.953125 0 "/>
</symbol>
</g>
<g>
<symbol overflow="visible" id="hebrew-dlig:id1:glyph0-0">
<path style="stroke:none;" d="M 5.375 -96.6875 L 69.828125 -96.6875 L 69.828125 0 L 5.375 0 Z M 8.0625 -2.6875 L 67.140625 -2.6875 L 67.140625 -94 L 8.0625 -94 Z M 8.0625 -2.6875 "/>
</symbol>
<symbol overflow="visible" id="hebrew-dlig:id1:glyph0-1">
<path style="stroke:none;" d="M 68.15625 -13.75 L 66.28125 -18.640625 L 88.09375 -27.390625 L 6.984375 -27.390625 L 6.984375 -34 L 88.09375 -34 L 66.28125 -42.75 L 68.15625 -47.640625 L 99.09375 -34.265625 L 99.09375 -27.125 Z M 68.15625 -13.75 "/>
</symbol>
</g>
<g>
<symbol overflow="visible" id="hebrew-dlig:id2:glyph0-0">
<path style="stroke:none;" d="M 10.34375 0 L 10.34375 -78.546875 L 55.546875 -78.546875 L 55.546875 0 Z M 15.953125 -5.609375 L 49.9375 -5.609375 L 49.9375 -72.9375 L 15.953125 -72.9375 Z M 15.953125 -5.609375 "/>
</symbol>
<symbol overflow="visible" id="hebrew-dlig:id2:glyph0-1">
<path style="stroke:none;" d="M 54.234375 0 C 49.390625 -8.289062 44.398438 -16.082031 39.265625 -23.375 C 34.128906 -30.664062 29.179688 -37.320312 24.421875 -43.34375 C 21.847656 -46.488281 19.703125 -49.125 17.984375 -51.25 C 16.265625 -53.382812 14.707031 -55.257812 13.3125 -56.875 L 2.09375 -56.875 L 2.09375 -82.390625 L 12.203125 -83.59375 L 12.203125 -65.234375 L 18.8125 -65.234375 C 20.863281 -62.804688 23.132812 -59.976562 25.625 -56.75 C 28.125 -53.53125 30.984375 -49.867188 34.203125 -45.765625 C 35.523438 -44.078125 36.898438 -42.257812 38.328125 -40.3125 C 39.765625 -38.375 41.21875 -36.375 42.6875 -34.3125 C 46.269531 -36.445312 48.941406 -39.234375 50.703125 -42.671875 C 52.460938 -46.117188 53.566406 -50.191406 54.015625 -54.890625 L 55 -65.234375 L 65.125 -65.234375 L 64.125 -54.5625 C 63.539062 -48.476562 61.890625 -43.21875 59.171875 -38.78125 C 56.460938 -34.34375 52.429688 -30.726562 47.078125 -27.9375 C 50.304688 -23.539062 53.515625 -18.976562 56.703125 -14.25 C 59.890625 -9.519531 62.914062 -4.769531 65.78125 0 Z M 54.234375 0 "/>
</symbol>
</g>
</defs>
  <g id="hebrew-dlig:id0:id0" transform="matrix(1.25,0,0,1.25,0.0,4.697265625)"><g id="hebrew-dlig:id0:surface1">
<g style="fill:rgb(0%,0%,0%);fill-opacity:1;">
  <use xlink:href="#hebrew-dlig:id0:glyph0-1" x="16" y="119.484375" class="c0"/>
  <use xlink:href="#hebrew-dlig:id0:glyph0-2" x="72.75" y="119.484375" class="c1"/>
</g>
</g>
</g>
  <g id="hebrew-dlig:id1:id1" transform="matrix(1.25,0,0,1.25,197.83203125,0.0)"><g id="hebrew-dlig:id1:surface1">
<g style="fill:rgb(0%,0%,0%);fill-opacity:1;">
  <use xlink:href="#hebrew-dlig:id1:glyph0-1" x="0" y="120.84375" class="arrow"/>
</g>
</g>
</g>
  <g id="hebrew-dlig:id2:id2" transform="matrix(1.25,0,0,1.25,330.4296875,4.697265625)"><g id="hebrew-dlig:id2:surface1">
<g style="fill:rgb(0%,0%,0%);fill-opacity:1;">
  <use xlink:href="#hebrew-dlig:id2:glyph0-1" x="16" y="119.484375" class="c2"/>
</g>
</g>
</g>
</svg>
