<!DOCTYPE svg PUBLIC "-//W3C//DTD SVG 1.1//EN" "http://www.w3.org/Graphics/SVG/1.1/DTD/svg11.dtd">
<!-- Created with svg_stack (http://github.com/astraw/svg_stack) --><svg xmlns="http://www.w3.org/2000/svg" xmlns:sodipodi="http://sodipodi.sourceforge.net/DTD/sodipodi-0.dtd" xmlns:xlink="http://www.w3.org/1999/xlink" version="1.1" width="100%" id="hebrew-apf" viewBox="0 0 301.69921875 201.40625">
  <defs><g>
<symbol overflow="visible" id="hebrew-apf:id0:glyph0-0">
<path style="stroke:none;" d="M 10.34375 0 L 55.546875 0 L 55.546875 -78.546875 L 10.34375 -78.546875 Z M 15.953125 -5.609375 L 15.953125 -72.9375 L 49.9375 -72.9375 L 49.9375 -5.609375 Z M 15.953125 -5.609375 "/>
</symbol>
<symbol overflow="visible" id="hebrew-apf:id0:glyph0-1">
<path style="stroke:none;" d="M 9.125 17.046875 C 11.65625 17.046875 13.3125 15.515625 13.3125 12.3125 C 13.3125 9.234375 11.65625 7.703125 9.125 7.703125 C 6.59375 7.703125 5.0625 9.234375 5.0625 12.3125 C 5.0625 15.625 6.59375 17.046875 9.125 17.046875 Z M 9.125 17.046875 "/>
</symbol>
<symbol overflow="visible" id="hebrew-apf:id0:glyph0-2">
<path style="stroke:none;" d="M 16.0625 -28.9375 L 23.203125 -37.40625 C 26.953125 -41.90625 30.140625 -48.515625 30.140625 -55.21875 C 30.140625 -61.484375 27.5 -65.125 22 -65.125 L 14.734375 -65.125 C 11.109375 -65.125 8.90625 -66.875 8.90625 -70.734375 L 8.90625 -71.171875 L 5.9375 -71.171875 C 4.734375 -65.015625 4.40625 -63.46875 4.40625 -61.046875 C 4.40625 -55.328125 6.265625 -53.125 9.796875 -53.125 L 19.46875 -53.125 C 21.78125 -53.125 22.328125 -51.8125 22.328125 -49.71875 C 22.328125 -46.09375 20.90625 -43.125 15.625 -36.953125 L 12.203125 -33 Z M 16.0625 -28.9375 "/>
</symbol>
</g>
<g>
<symbol overflow="visible" id="hebrew-apf:id1:glyph0-0">
<path style="stroke:none;" d="M 5.375 -96.6875 L 69.828125 -96.6875 L 69.828125 0 L 5.375 0 Z M 8.0625 -2.6875 L 67.140625 -2.6875 L 67.140625 -94 L 8.0625 -94 Z M 8.0625 -2.6875 "/>
</symbol>
<symbol overflow="visible" id="hebrew-apf:id1:glyph0-1">
<path style="stroke:none;" d="M 68.15625 -13.75 L 66.28125 -18.640625 L 88.09375 -27.390625 L 6.984375 -27.390625 L 6.984375 -34 L 88.09375 -34 L 66.28125 -42.75 L 68.15625 -47.640625 L 99.09375 -34.265625 L 99.09375 -27.125 Z M 68.15625 -13.75 "/>
</symbol>
</g>
<g>
<symbol overflow="visible" id="hebrew-apf:id2:glyph0-0">
<path style="stroke:none;" d="M 10.34375 0 L 55.546875 0 L 55.546875 -78.546875 L 10.34375 -78.546875 Z M 15.953125 -5.609375 L 15.953125 -72.9375 L 49.9375 -72.9375 L 49.9375 -5.609375 Z M 15.953125 -5.609375 "/>
</symbol>
<symbol overflow="visible" id="hebrew-apf:id2:glyph0-1">
<path style="stroke:none;" d="M 16.0625 -28.9375 L 23.203125 -37.40625 C 26.953125 -41.90625 30.140625 -48.515625 30.140625 -55.21875 C 30.140625 -61.484375 27.5 -65.125 22 -65.125 L 14.734375 -65.125 C 11.109375 -65.125 8.90625 -66.875 8.90625 -70.734375 L 8.90625 -71.171875 L 5.9375 -71.171875 C 4.734375 -65.015625 4.40625 -63.46875 4.40625 -61.046875 C 4.40625 -55.328125 6.265625 -53.125 9.796875 -53.125 L 19.46875 -53.125 C 21.78125 -53.125 22.328125 -51.8125 22.328125 -49.71875 C 22.328125 -46.09375 20.90625 -43.125 15.625 -36.953125 L 12.203125 -33 Z M 16.171875 -12.09375 C 18.703125 -12.09375 20.34375 -13.640625 20.34375 -16.828125 C 20.34375 -19.90625 18.703125 -21.453125 16.171875 -21.453125 C 13.640625 -21.453125 12.09375 -19.90625 12.09375 -16.828125 C 12.09375 -13.53125 13.640625 -12.09375 16.171875 -12.09375 Z M 16.171875 -12.09375 "/>
</symbol>
</g>
</defs>
  <g id="hebrew-apf:id0:id0" transform="matrix(1.25,0,0,1.25,0.0,16.66015625)"><g id="hebrew-apf:id0:surface1">
<g style="fill:rgb(0%,0%,0%);fill-opacity:1;">
  <use xlink:href="#hebrew-apf:id0:glyph0-1" x="24.90625" y="100.5625" class="c1"/>
  <use xlink:href="#hebrew-apf:id0:glyph0-2" x="16" y="100.5625" class="c0"/>
</g>
</g>
</g>
  <g id="hebrew-apf:id1:id1" transform="matrix(1.25,0,0,1.25,84.55078125,0.0)"><g id="hebrew-apf:id1:surface1">
<g style="fill:rgb(0%,0%,0%);fill-opacity:1;">
  <use xlink:href="#hebrew-apf:id1:glyph0-1" x="0" y="120.84375" class="arrow"/>
</g>
</g>
</g>
  <g id="hebrew-apf:id2:id2" transform="matrix(1.25,0,0,1.25,217.1484375,16.66015625)"><g id="hebrew-apf:id2:surface1">
<g style="fill:rgb(0%,0%,0%);fill-opacity:1;">
  <use xlink:href="#hebrew-apf:id2:glyph0-1" x="16" y="100.5625" class="c2"/>
</g>
</g>
</g>
</svg>