<!DOCTYPE svg PUBLIC "-//W3C//DTD SVG 1.1//EN" "http://www.w3.org/Graphics/SVG/1.1/DTD/svg11.dtd">
<!-- Created with svg_stack (http://github.com/astraw/svg_stack) --><svg xmlns="http://www.w3.org/2000/svg" xmlns:sodipodi="http://sodipodi.sourceforge.net/DTD/sodipodi-0.dtd" xmlns:xlink="http://www.w3.org/1999/xlink" version="1.1" width="100%" id="hebrew-mark" viewBox="0 0 347.91015625 201.40625">
  <defs><g>
<symbol overflow="visible" id="hebrew-mark:id0:glyph0-0">
<path style="stroke:none;" d="M 10.34375 0 L 55.546875 0 L 55.546875 -78.546875 L 10.34375 -78.546875 Z M 15.953125 -5.609375 L 15.953125 -72.9375 L 49.9375 -72.9375 L 49.9375 -5.609375 Z M 15.953125 -5.609375 "/>
</symbol>
<symbol overflow="visible" id="hebrew-mark:id0:glyph0-1">
<path style="stroke:none;" d="M 7.59375 17.046875 C 10.015625 17.046875 11.765625 15.515625 11.765625 12.3125 C 11.765625 9.234375 10.015625 7.703125 7.59375 7.703125 C 5.0625 7.703125 3.40625 9.234375 3.40625 12.3125 C 3.40625 15.625 5.0625 17.046875 7.59375 17.046875 Z M 22.65625 17.046875 C 25.1875 17.046875 26.953125 15.515625 26.953125 12.3125 C 26.953125 9.234375 25.1875 7.703125 22.65625 7.703125 C 20.234375 7.703125 18.59375 9.234375 18.59375 12.3125 C 18.59375 15.625 20.234375 17.046875 22.65625 17.046875 Z M 34.765625 17.046875 C 37.296875 17.046875 39.046875 15.515625 39.046875 12.3125 C 39.046875 9.234375 37.296875 7.703125 34.765625 7.703125 C 32.34375 7.703125 30.6875 9.234375 30.6875 12.3125 C 30.6875 15.625 32.34375 17.046875 34.765625 17.046875 Z M 34.875 30.359375 C 37.40625 30.359375 39.15625 28.8125 39.15625 25.625 C 39.15625 22.4375 37.40625 21.015625 34.875 21.015625 C 32.453125 21.015625 30.6875 22.4375 30.6875 25.625 C 30.6875 28.9375 32.453125 30.359375 34.875 30.359375 Z M 15.1875 30.359375 C 17.59375 30.359375 19.359375 28.8125 19.359375 25.625 C 19.359375 22.4375 17.59375 21.015625 15.1875 21.015625 C 12.65625 21.015625 10.890625 22.4375 10.890625 25.625 C 10.890625 28.9375 12.65625 30.359375 15.1875 30.359375 Z M 15.1875 30.359375 "/>
</symbol>
<symbol overflow="visible" id="hebrew-mark:id0:glyph0-2">
<path style="stroke:none;" d="M 35.203125 0.765625 L 36.84375 0.765625 C 39.375 -0.328125 41.140625 -1.546875 42.796875 -3.1875 L 41.25 -53.125 L 48.625 -53.125 L 48.625 -61.484375 C 48.625 -64.234375 47.734375 -65.125 45.3125 -65.125 L 11.65625 -65.125 C 7.8125 -65.125 5.828125 -67.3125 5.828125 -70.84375 L 5.828125 -71.171875 L 2.859375 -71.171875 C 1.65625 -65.671875 1.3125 -63.578125 1.3125 -60.71875 C 1.3125 -55.328125 3.296875 -53.125 6.703125 -53.125 L 37.296875 -53.125 L 37.296875 -53.015625 C 36.515625 -49.390625 35.203125 -43.234375 35.203125 -33.4375 Z M 35.203125 0.765625 "/>
</symbol>
</g>
<g>
<symbol overflow="visible" id="hebrew-mark:id1:glyph0-0">
<path style="stroke:none;" d="M 5.375 -96.6875 L 69.828125 -96.6875 L 69.828125 0 L 5.375 0 Z M 8.0625 -2.6875 L 67.140625 -2.6875 L 67.140625 -94 L 8.0625 -94 Z M 8.0625 -2.6875 "/>
</symbol>
<symbol overflow="visible" id="hebrew-mark:id1:glyph0-1">
<path style="stroke:none;" d="M 68.15625 -13.75 L 66.28125 -18.640625 L 88.09375 -27.390625 L 6.984375 -27.390625 L 6.984375 -34 L 88.09375 -34 L 66.28125 -42.75 L 68.15625 -47.640625 L 99.09375 -34.265625 L 99.09375 -27.125 Z M 68.15625 -13.75 "/>
</symbol>
</g>
<g>
<symbol overflow="visible" id="hebrew-mark:id2:glyph0-0">
<path style="stroke:none;" d="M 10.34375 0 L 55.546875 0 L 55.546875 -78.546875 L 10.34375 -78.546875 Z M 15.953125 -5.609375 L 15.953125 -72.9375 L 49.9375 -72.9375 L 49.9375 -5.609375 Z M 15.953125 -5.609375 "/>
</symbol>
<symbol overflow="visible" id="hebrew-mark:id2:glyph0-1">
<path style="stroke:none;" d="M 7.59375 17.046875 C 10.015625 17.046875 11.765625 15.515625 11.765625 12.3125 C 11.765625 9.234375 10.015625 7.703125 7.59375 7.703125 C 5.0625 7.703125 3.40625 9.234375 3.40625 12.3125 C 3.40625 15.625 5.0625 17.046875 7.59375 17.046875 Z M 22.65625 17.046875 C 25.1875 17.046875 26.953125 15.515625 26.953125 12.3125 C 26.953125 9.234375 25.1875 7.703125 22.65625 7.703125 C 20.234375 7.703125 18.59375 9.234375 18.59375 12.3125 C 18.59375 15.625 20.234375 17.046875 22.65625 17.046875 Z M 34.765625 17.046875 C 37.296875 17.046875 39.046875 15.515625 39.046875 12.3125 C 39.046875 9.234375 37.296875 7.703125 34.765625 7.703125 C 32.34375 7.703125 30.6875 9.234375 30.6875 12.3125 C 30.6875 15.625 32.34375 17.046875 34.765625 17.046875 Z M 34.875 30.359375 C 37.40625 30.359375 39.15625 28.8125 39.15625 25.625 C 39.15625 22.4375 37.40625 21.015625 34.875 21.015625 C 32.453125 21.015625 30.6875 22.4375 30.6875 25.625 C 30.6875 28.9375 32.453125 30.359375 34.875 30.359375 Z M 15.1875 30.359375 C 17.59375 30.359375 19.359375 28.8125 19.359375 25.625 C 19.359375 22.4375 17.59375 21.015625 15.1875 21.015625 C 12.65625 21.015625 10.890625 22.4375 10.890625 25.625 C 10.890625 28.9375 12.65625 30.359375 15.1875 30.359375 Z M 15.1875 30.359375 "/>
</symbol>
<symbol overflow="visible" id="hebrew-mark:id2:glyph0-2">
<path style="stroke:none;" d="M 35.203125 0.765625 L 36.84375 0.765625 C 39.375 -0.328125 41.140625 -1.546875 42.796875 -3.1875 L 41.25 -53.125 L 48.625 -53.125 L 48.625 -61.484375 C 48.625 -64.234375 47.734375 -65.125 45.3125 -65.125 L 11.65625 -65.125 C 7.8125 -65.125 5.828125 -67.3125 5.828125 -70.84375 L 5.828125 -71.171875 L 2.859375 -71.171875 C 1.65625 -65.671875 1.3125 -63.578125 1.3125 -60.71875 C 1.3125 -55.328125 3.296875 -53.125 6.703125 -53.125 L 37.296875 -53.125 L 37.296875 -53.015625 C 36.515625 -49.390625 35.203125 -43.234375 35.203125 -33.4375 Z M 35.203125 0.765625 "/>
</symbol>
</g>
</defs>
  <g id="hebrew-mark:id0:id0" transform="matrix(1.25,0,0,1.25,0.0,16.66015625)"><g id="hebrew-mark:id0:surface1">
<g style="fill:rgb(0%,0%,0%);fill-opacity:1;">
  <use xlink:href="#hebrew-mark:id0:glyph0-1" x="16" y="100.5625" class="c1"/>
  <use xlink:href="#hebrew-mark:id0:glyph0-2" x="16" y="100.5625" class="c0"/>
</g>
</g>
</g>
  <g id="hebrew-mark:id1:id1" transform="matrix(1.25,0,0,1.25,107.65625,0.0)"><g id="hebrew-mark:id1:surface1">
<g style="fill:rgb(0%,0%,0%);fill-opacity:1;">
  <use xlink:href="#hebrew-mark:id1:glyph0-1" x="0" y="120.84375" class="arrow"/>
</g>
</g>
</g>
  <g id="hebrew-mark:id2:id2" transform="matrix(1.25,0,0,1.25,240.25390625,16.66015625)"><g id="hebrew-mark:id2:surface1">
<g style="fill:rgb(0%,0%,0%);fill-opacity:1;">
  <use xlink:href="#hebrew-mark:id2:glyph0-1" x="34.921875" y="100.5625" class="c1"/>
  <use xlink:href="#hebrew-mark:id2:glyph0-2" x="16" y="100.5625" class="c0"/>
</g>
</g>
</g>
</svg>
