<!DOCTYPE svg PUBLIC "-//W3C//DTD SVG 1.1//EN" "http://www.w3.org/Graphics/SVG/1.1/DTD/svg11.dtd">
<!-- Created with svg_stack (http://github.com/astraw/svg_stack) --><svg xmlns="http://www.w3.org/2000/svg" xmlns:sodipodi="http://sodipodi.sourceforge.net/DTD/sodipodi-0.dtd" xmlns:xlink="http://www.w3.org/1999/xlink" version="1.1" width="483.046875" height="218.80859375" id="devanagari-eyelash-ra">
  <defs><g>
<symbol overflow="visible" id="devanagari-eyelash-ra:devanagari-eyelash-ra:id0:glyph0-0">
<path style="stroke:none;" d="M 10.234375 0 L 10.234375 -78.546875 L 55.328125 -78.546875 L 55.328125 0 Z M 15.84375 -5.609375 L 49.828125 -5.609375 L 49.828125 -72.9375 L 15.84375 -72.9375 Z M 15.84375 -5.609375 "/>
</symbol>
<symbol overflow="visible" id="devanagari-eyelash-ra:devanagari-eyelash-ra:id0:glyph0-1">
<path style="stroke:none;" d="M 32.78125 1.09375 C 29.332031 -1.757812 26.050781 -4.816406 22.9375 -8.078125 C 19.820312 -11.347656 17.070312 -14.613281 14.6875 -17.875 C 12.300781 -21.132812 10.410156 -24.25 9.015625 -27.21875 C 7.628906 -30.195312 6.9375 -32.785156 6.9375 -34.984375 C 6.9375 -38.941406 9.023438 -40.921875 13.203125 -40.921875 C 15.765625 -40.921875 18.625 -40.148438 21.78125 -38.609375 C 22.65625 -40.003906 23.238281 -41.5625 23.53125 -43.28125 C 23.832031 -45.007812 23.984375 -46.828125 23.984375 -48.734375 C 23.984375 -50.859375 23.816406 -52.984375 23.484375 -55.109375 C 23.148438 -57.234375 22.726562 -59.210938 22.21875 -61.046875 L 0 -61.046875 L -4.40625 -67.3125 L -4.40625 -68.53125 L 41.140625 -68.53125 L 45.546875 -62.046875 L 45.546875 -61.046875 L 29.484375 -61.046875 C 30.210938 -58.484375 30.816406 -55.878906 31.296875 -53.234375 C 31.773438 -50.597656 32.015625 -48 32.015625 -45.4375 C 32.015625 -40.300781 30.835938 -36.191406 28.484375 -33.109375 C 26.140625 -30.023438 22.625 -28.191406 17.9375 -27.609375 C 17.488281 -27.609375 17.0625 -27.570312 16.65625 -27.5 C 16.257812 -27.425781 15.878906 -27.390625 15.515625 -27.390625 C 17.421875 -24.378906 19.710938 -21.535156 22.390625 -18.859375 C 25.066406 -16.179688 27.851562 -13.707031 30.75 -11.4375 C 33.644531 -9.164062 36.410156 -7.148438 39.046875 -5.390625 Z M 10.78125 2.078125 C 6.894531 2.078125 4.953125 0.0976562 4.953125 -3.859375 C 4.953125 -7.742188 6.894531 -9.6875 10.78125 -9.6875 C 14.519531 -9.6875 16.390625 -7.742188 16.390625 -3.859375 C 16.390625 0.0976562 14.519531 2.078125 10.78125 2.078125 Z M 10.78125 2.078125 "/>
</symbol>
<symbol overflow="visible" id="devanagari-eyelash-ra:devanagari-eyelash-ra:id0:glyph0-2">
<path style="stroke:none;" d="M 18.921875 29.046875 C 15.109375 24.273438 11.988281 20.75 9.5625 18.46875 C 7.144531 16.195312 5.070312 14.695312 3.34375 13.96875 C 1.625 13.238281 -0.148438 12.875 -1.984375 12.875 C -4.546875 12.875 -6.78125 13.238281 -8.6875 13.96875 L -11.328125 5.828125 C -9.347656 5.097656 -7.148438 4.734375 -4.734375 4.734375 C -2.378906 4.734375 -0.285156 5.023438 1.546875 5.609375 C 3.378906 6.191406 5.25 7.253906 7.15625 8.796875 C 9.0625 10.335938 11.222656 12.535156 13.640625 15.390625 C 16.054688 18.253906 19.023438 21.960938 22.546875 26.515625 Z M 18.921875 29.046875 "/>
</symbol>
<symbol overflow="visible" id="devanagari-eyelash-ra:devanagari-eyelash-ra:id0:glyph0-3">
<path style="stroke:none;" d="M 29.375 0.875 C 27.164062 -0.664062 24.707031 -2.660156 22 -5.109375 C 19.289062 -7.566406 16.6875 -10.351562 14.1875 -13.46875 C 11.695312 -16.59375 9.625 -19.953125 7.96875 -23.546875 C 6.320312 -27.140625 5.5 -30.804688 5.5 -34.546875 C 5.5 -37.910156 6.210938 -40.726562 7.640625 -43 C 9.078125 -45.28125 10.96875 -47.023438 13.3125 -48.234375 C 15.65625 -49.441406 18.222656 -50.046875 21.015625 -50.046875 C 24.015625 -50.046875 26.707031 -49.421875 29.09375 -48.171875 C 31.476562 -46.929688 33.625 -45.394531 35.53125 -43.5625 C 37.289062 -45.394531 39.398438 -46.785156 41.859375 -47.734375 C 44.316406 -48.691406 46.863281 -49.171875 49.5 -49.171875 C 51.476562 -49.171875 53.128906 -49.023438 54.453125 -48.734375 L 54.453125 -61.046875 L 0 -61.046875 L -4.40625 -67.3125 L -4.40625 -68.53125 L 72.046875 -68.53125 L 76.453125 -62.046875 L 76.453125 -61.046875 L 62.703125 -61.046875 L 62.703125 0.65625 L 61.59375 0.65625 L 54.453125 -4.625 L 54.453125 -43.015625 C 53.941406 -43.085938 53.460938 -43.125 53.015625 -43.125 C 48.617188 -43.125 45.226562 -41.675781 42.84375 -38.78125 C 40.457031 -35.882812 39.265625 -32.160156 39.265625 -27.609375 C 39.265625 -25.554688 39.375 -23.796875 39.59375 -22.328125 L 30.578125 -24.859375 C 30.429688 -25.960938 30.335938 -26.84375 30.296875 -27.5 C 30.265625 -28.15625 30.25 -28.960938 30.25 -29.921875 C 30.25 -33.585938 31.054688 -36.882812 32.671875 -39.8125 C 31.640625 -40.476562 30.570312 -40.972656 29.46875 -41.296875 C 28.375 -41.628906 27.203125 -41.796875 25.953125 -41.796875 C 22.878906 -41.796875 20.222656 -40.785156 17.984375 -38.765625 C 15.742188 -36.753906 14.625 -33.914062 14.625 -30.25 C 14.625 -24.675781 16.347656 -19.707031 19.796875 -15.34375 C 23.242188 -10.976562 27.570312 -6.851562 32.78125 -2.96875 Z M 29.375 0.875 "/>
</symbol>
</g>
<g>
<symbol overflow="visible" id="devanagari-eyelash-ra:devanagari-eyelash-ra:id1:glyph0-0">
<path style="stroke:none;" d="M 5.375 -96.6875 L 69.828125 -96.6875 L 69.828125 0 L 5.375 0 Z M 8.0625 -2.6875 L 67.140625 -2.6875 L 67.140625 -94 L 8.0625 -94 Z M 8.0625 -2.6875 "/>
</symbol>
<symbol overflow="visible" id="devanagari-eyelash-ra:devanagari-eyelash-ra:id1:glyph0-1">
<path style="stroke:none;" d="M 68.15625 -13.75 L 66.28125 -18.640625 L 88.09375 -27.390625 L 6.984375 -27.390625 L 6.984375 -34 L 88.09375 -34 L 66.28125 -42.75 L 68.15625 -47.640625 L 99.09375 -34.265625 L 99.09375 -27.125 Z M 68.15625 -13.75 "/>
</symbol>
</g>
<g>
<symbol overflow="visible" id="devanagari-eyelash-ra:devanagari-eyelash-ra:id2:glyph0-0">
<path style="stroke:none;" d="M 10.234375 0 L 10.234375 -78.546875 L 55.328125 -78.546875 L 55.328125 0 Z M 15.84375 -5.609375 L 49.828125 -5.609375 L 49.828125 -72.9375 L 15.84375 -72.9375 Z M 15.84375 -5.609375 "/>
</symbol>
<symbol overflow="visible" id="devanagari-eyelash-ra:devanagari-eyelash-ra:id2:glyph0-1">
<path style="stroke:none;" d="M 0 -61.046875 L -4.40625 -67.3125 L -4.40625 -68.53125 L 31.125 -68.53125 L 35.53125 -62.046875 L 35.53125 -61.046875 Z M 29.484375 -27.71875 C 26.035156 -27.71875 22.054688 -28.453125 17.546875 -29.921875 C 13.035156 -31.390625 8.875 -34.03125 5.0625 -37.84375 L 8.03125 -41.796875 C 10.59375 -39.890625 13.394531 -38.492188 16.4375 -37.609375 C 19.488281 -36.734375 22.585938 -36.296875 25.734375 -36.296875 C 30.578125 -36.296875 34.867188 -37.03125 38.609375 -38.5 L 41.03125 -29.484375 C 39.195312 -28.816406 37.414062 -28.351562 35.6875 -28.09375 C 33.96875 -27.84375 31.898438 -27.71875 29.484375 -27.71875 Z M 29.484375 -27.71875 "/>
</symbol>
<symbol overflow="visible" id="devanagari-eyelash-ra:devanagari-eyelash-ra:id2:glyph0-2">
<path style="stroke:none;" d="M 29.375 0.875 C 27.164062 -0.664062 24.707031 -2.660156 22 -5.109375 C 19.289062 -7.566406 16.6875 -10.351562 14.1875 -13.46875 C 11.695312 -16.59375 9.625 -19.953125 7.96875 -23.546875 C 6.320312 -27.140625 5.5 -30.804688 5.5 -34.546875 C 5.5 -37.910156 6.210938 -40.726562 7.640625 -43 C 9.078125 -45.28125 10.96875 -47.023438 13.3125 -48.234375 C 15.65625 -49.441406 18.222656 -50.046875 21.015625 -50.046875 C 24.015625 -50.046875 26.707031 -49.421875 29.09375 -48.171875 C 31.476562 -46.929688 33.625 -45.394531 35.53125 -43.5625 C 37.289062 -45.394531 39.398438 -46.785156 41.859375 -47.734375 C 44.316406 -48.691406 46.863281 -49.171875 49.5 -49.171875 C 51.476562 -49.171875 53.128906 -49.023438 54.453125 -48.734375 L 54.453125 -61.046875 L 0 -61.046875 L -4.40625 -67.3125 L -4.40625 -68.53125 L 72.046875 -68.53125 L 76.453125 -62.046875 L 76.453125 -61.046875 L 62.703125 -61.046875 L 62.703125 0.65625 L 61.59375 0.65625 L 54.453125 -4.625 L 54.453125 -43.015625 C 53.941406 -43.085938 53.460938 -43.125 53.015625 -43.125 C 48.617188 -43.125 45.226562 -41.675781 42.84375 -38.78125 C 40.457031 -35.882812 39.265625 -32.160156 39.265625 -27.609375 C 39.265625 -25.554688 39.375 -23.796875 39.59375 -22.328125 L 30.578125 -24.859375 C 30.429688 -25.960938 30.335938 -26.84375 30.296875 -27.5 C 30.265625 -28.15625 30.25 -28.960938 30.25 -29.921875 C 30.25 -33.585938 31.054688 -36.882812 32.671875 -39.8125 C 31.640625 -40.476562 30.570312 -40.972656 29.46875 -41.296875 C 28.375 -41.628906 27.203125 -41.796875 25.953125 -41.796875 C 22.878906 -41.796875 20.222656 -40.785156 17.984375 -38.765625 C 15.742188 -36.753906 14.625 -33.914062 14.625 -30.25 C 14.625 -24.675781 16.347656 -19.707031 19.796875 -15.34375 C 23.242188 -10.976562 27.570312 -6.851562 32.78125 -2.96875 Z M 29.375 0.875 "/>
</symbol>
</g>
</defs>
  <g id="devanagari-eyelash-ra:devanagari-eyelash-ra:id0:id0" transform="matrix(1.25,0,0,1.25,0.0,0.0)"><g id="devanagari-eyelash-ra:devanagari-eyelash-ra:id0:surface1">
<g style="fill:rgb(0%,0%,0%);fill-opacity:1;">
  <use xlink:href="#devanagari-eyelash-ra:devanagari-eyelash-ra:id0:glyph0-1" x="16" y="104.296875" class="c0"/>
  <use xlink:href="#devanagari-eyelash-ra:devanagari-eyelash-ra:id0:glyph0-2" x="49" y="104.296875" class="c1"/>
  <use xlink:href="#devanagari-eyelash-ra:devanagari-eyelash-ra:id0:glyph0-3" x="57.140625" y="104.296875" class="c2"/>
</g>
</g>
</g>
  <g id="devanagari-eyelash-ra:devanagari-eyelash-ra:id1:id1" transform="matrix(1.25,0,0,1.25,181.484375,8.701171875)"><g id="devanagari-eyelash-ra:devanagari-eyelash-ra:id1:surface1">
<g style="fill:rgb(0%,0%,0%);fill-opacity:1;">
  <use xlink:href="#devanagari-eyelash-ra:devanagari-eyelash-ra:id1:glyph0-1" x="0" y="120.84375" class="arrow"/>
</g>
</g>
</g>
  <g id="devanagari-eyelash-ra:devanagari-eyelash-ra:id2:id2" transform="matrix(1.25,0,0,1.25,314.08203125,0.0)"><g id="devanagari-eyelash-ra:devanagari-eyelash-ra:id2:surface1">
<g style="fill:rgb(0%,0%,0%);fill-opacity:1;">
  <use xlink:href="#devanagari-eyelash-ra:devanagari-eyelash-ra:id2:glyph0-1" x="16" y="104.296875" class="c0"/>
  <use xlink:href="#devanagari-eyelash-ra:devanagari-eyelash-ra:id2:glyph0-2" x="47.125" y="104.296875" class="c2"/>
</g>
</g>
</g>
</svg>
