<!DOCTYPE svg PUBLIC "-//W3C//DTD SVG 1.1//EN" "http://www.w3.org/Graphics/SVG/1.1/DTD/svg11.dtd">
<!-- Created with svg_stack (http://github.com/astraw/svg_stack) --><svg xmlns="http://www.w3.org/2000/svg" xmlns:sodipodi="http://sodipodi.sourceforge.net/DTD/sodipodi-0.dtd" xmlns:xlink="http://www.w3.org/1999/xlink" version="1.1" width="455.9765625" height="218.80859375" id="devanagari-half">
  <defs><g>
<symbol overflow="visible" id="devanagari-half:devanagari-half:id0:glyph0-0">
<path style="stroke:none;" d="M 10.234375 0 L 10.234375 -78.546875 L 55.328125 -78.546875 L 55.328125 0 Z M 15.84375 -5.609375 L 49.828125 -5.609375 L 49.828125 -72.9375 L 15.84375 -72.9375 Z M 15.84375 -5.609375 "/>
</symbol>
<symbol overflow="visible" id="devanagari-half:devanagari-half:id0:glyph0-1">
<path style="stroke:none;" d="M 20.6875 -7.15625 C 15.84375 -11.769531 12.097656 -16.441406 9.453125 -21.171875 C 6.816406 -25.898438 5.5 -30.359375 5.5 -34.546875 C 5.5 -37.910156 6.210938 -40.726562 7.640625 -43 C 9.078125 -45.28125 10.96875 -47.023438 13.3125 -48.234375 C 15.65625 -49.441406 18.222656 -50.046875 21.015625 -50.046875 C 24.015625 -50.046875 26.707031 -49.421875 29.09375 -48.171875 C 31.476562 -46.929688 33.625 -45.394531 35.53125 -43.5625 C 37.289062 -45.394531 39.398438 -46.785156 41.859375 -47.734375 C 44.316406 -48.691406 46.863281 -49.171875 49.5 -49.171875 C 51.476562 -49.171875 53.128906 -49.023438 54.453125 -48.734375 L 54.453125 -61.046875 L 0 -61.046875 L -4.40625 -67.3125 L -4.40625 -68.53125 L 72.046875 -68.53125 L 76.453125 -62.046875 L 76.453125 -61.046875 L 62.703125 -61.046875 L 62.703125 0.65625 L 61.59375 0.65625 L 54.453125 -4.625 L 54.453125 -15.625 L 32.453125 3.84375 L 25.734375 -1.984375 L 54.453125 -26.0625 L 54.453125 -43.015625 C 53.941406 -43.085938 53.460938 -43.125 53.015625 -43.125 C 48.617188 -43.125 45.226562 -41.675781 42.84375 -38.78125 C 40.457031 -35.882812 39.265625 -32.160156 39.265625 -27.609375 C 39.265625 -25.554688 39.375 -23.796875 39.59375 -22.328125 L 30.578125 -24.859375 C 30.429688 -25.960938 30.335938 -26.84375 30.296875 -27.5 C 30.265625 -28.15625 30.25 -28.960938 30.25 -29.921875 C 30.25 -33.585938 31.054688 -36.882812 32.671875 -39.8125 C 31.640625 -40.476562 30.570312 -40.972656 29.46875 -41.296875 C 28.375 -41.628906 27.203125 -41.796875 25.953125 -41.796875 C 22.878906 -41.796875 20.222656 -40.785156 17.984375 -38.765625 C 15.742188 -36.753906 14.625 -33.914062 14.625 -30.25 C 14.625 -26.726562 15.484375 -23.28125 17.203125 -19.90625 C 18.929688 -16.53125 21.300781 -13.34375 24.3125 -10.34375 Z M 20.6875 -7.15625 "/>
</symbol>
<symbol overflow="visible" id="devanagari-half:devanagari-half:id0:glyph0-2">
<path style="stroke:none;" d="M 32.78125 -53.6875 C 32.050781 -53.6875 31.390625 -53.976562 30.796875 -54.5625 C 30.210938 -55.144531 29.921875 -55.804688 29.921875 -56.546875 C 29.921875 -57.347656 30.210938 -58.023438 30.796875 -58.578125 C 31.390625 -59.128906 32.050781 -59.40625 32.78125 -59.40625 C 33.582031 -59.40625 34.257812 -59.128906 34.8125 -58.578125 C 35.363281 -58.023438 35.640625 -57.347656 35.640625 -56.546875 C 35.640625 -55.804688 35.363281 -55.144531 34.8125 -54.5625 C 34.257812 -53.976562 33.582031 -53.6875 32.78125 -53.6875 Z M 42.015625 -51.703125 C 41.285156 -51.703125 40.625 -51.992188 40.03125 -52.578125 C 39.445312 -53.160156 39.15625 -53.820312 39.15625 -54.5625 C 39.15625 -55.363281 39.445312 -56.039062 40.03125 -56.59375 C 40.625 -57.144531 41.285156 -57.421875 42.015625 -57.421875 C 42.828125 -57.421875 43.503906 -57.144531 44.046875 -56.59375 C 44.597656 -56.039062 44.875 -55.363281 44.875 -54.5625 C 44.875 -53.820312 44.597656 -53.160156 44.046875 -52.578125 C 43.503906 -51.992188 42.828125 -51.703125 42.015625 -51.703125 Z M 23.546875 -51.703125 C 22.804688 -51.703125 22.144531 -51.992188 21.5625 -52.578125 C 20.976562 -53.160156 20.6875 -53.820312 20.6875 -54.5625 C 20.6875 -55.363281 20.976562 -56.039062 21.5625 -56.59375 C 22.144531 -57.144531 22.804688 -57.421875 23.546875 -57.421875 C 24.347656 -57.421875 25.023438 -57.144531 25.578125 -56.59375 C 26.128906 -56.039062 26.40625 -55.363281 26.40625 -54.5625 C 26.40625 -53.820312 26.128906 -53.160156 25.578125 -52.578125 C 25.023438 -51.992188 24.347656 -51.703125 23.546875 -51.703125 Z M 50.15625 -46.53125 C 49.425781 -46.53125 48.765625 -46.820312 48.171875 -47.40625 C 47.585938 -48 47.296875 -48.660156 47.296875 -49.390625 C 47.296875 -50.191406 47.585938 -50.867188 48.171875 -51.421875 C 48.765625 -51.972656 49.425781 -52.25 50.15625 -52.25 C 50.96875 -52.25 51.644531 -51.972656 52.1875 -51.421875 C 52.738281 -50.867188 53.015625 -50.191406 53.015625 -49.390625 C 53.015625 -48.660156 52.738281 -48 52.1875 -47.40625 C 51.644531 -46.820312 50.96875 -46.53125 50.15625 -46.53125 Z M 15.40625 -46.53125 C 14.664062 -46.53125 14.003906 -46.820312 13.421875 -47.40625 C 12.835938 -48 12.546875 -48.660156 12.546875 -49.390625 C 12.546875 -50.191406 12.835938 -50.867188 13.421875 -51.421875 C 14.003906 -51.972656 14.664062 -52.25 15.40625 -52.25 C 16.207031 -52.25 16.882812 -51.972656 17.4375 -51.421875 C 17.988281 -50.867188 18.265625 -50.191406 18.265625 -49.390625 C 18.265625 -48.660156 17.988281 -48 17.4375 -47.40625 C 16.882812 -46.820312 16.207031 -46.53125 15.40625 -46.53125 Z M 55.328125 -38.390625 C 54.597656 -38.390625 53.9375 -38.679688 53.34375 -39.265625 C 52.757812 -39.859375 52.46875 -40.519531 52.46875 -41.25 C 52.46875 -42.050781 52.757812 -42.726562 53.34375 -43.28125 C 53.9375 -43.832031 54.597656 -44.109375 55.328125 -44.109375 C 56.140625 -44.109375 56.816406 -43.832031 57.359375 -43.28125 C 57.910156 -42.726562 58.1875 -42.050781 58.1875 -41.25 C 58.1875 -40.519531 57.910156 -39.859375 57.359375 -39.265625 C 56.816406 -38.679688 56.140625 -38.390625 55.328125 -38.390625 Z M 10.234375 -38.390625 C 9.492188 -38.390625 8.832031 -38.679688 8.25 -39.265625 C 7.664062 -39.859375 7.375 -40.519531 7.375 -41.25 C 7.375 -42.050781 7.664062 -42.726562 8.25 -43.28125 C 8.832031 -43.832031 9.492188 -44.109375 10.234375 -44.109375 C 11.035156 -44.109375 11.710938 -43.832031 12.265625 -43.28125 C 12.816406 -42.726562 13.09375 -42.050781 13.09375 -41.25 C 13.09375 -40.519531 12.816406 -39.859375 12.265625 -39.265625 C 11.710938 -38.679688 11.035156 -38.390625 10.234375 -38.390625 Z M 57.3125 -29.15625 C 56.570312 -29.15625 55.910156 -29.445312 55.328125 -30.03125 C 54.742188 -30.613281 54.453125 -31.273438 54.453125 -32.015625 C 54.453125 -32.816406 54.742188 -33.492188 55.328125 -34.046875 C 55.910156 -34.597656 56.570312 -34.875 57.3125 -34.875 C 58.113281 -34.875 58.789062 -34.597656 59.34375 -34.046875 C 59.894531 -33.492188 60.171875 -32.816406 60.171875 -32.015625 C 60.171875 -31.273438 59.894531 -30.613281 59.34375 -30.03125 C 58.789062 -29.445312 58.113281 -29.15625 57.3125 -29.15625 Z M 8.25 -29.15625 C 7.519531 -29.15625 6.859375 -29.445312 6.265625 -30.03125 C 5.679688 -30.613281 5.390625 -31.273438 5.390625 -32.015625 C 5.390625 -32.816406 5.679688 -33.492188 6.265625 -34.046875 C 6.859375 -34.597656 7.519531 -34.875 8.25 -34.875 C 9.050781 -34.875 9.726562 -34.597656 10.28125 -34.046875 C 10.832031 -33.492188 11.109375 -32.816406 11.109375 -32.015625 C 11.109375 -31.273438 10.832031 -30.613281 10.28125 -30.03125 C 9.726562 -29.445312 9.050781 -29.15625 8.25 -29.15625 Z M 55.328125 -19.90625 C 54.597656 -19.90625 53.9375 -20.195312 53.34375 -20.78125 C 52.757812 -21.375 52.46875 -22.035156 52.46875 -22.765625 C 52.46875 -23.578125 52.757812 -24.253906 53.34375 -24.796875 C 53.9375 -25.347656 54.597656 -25.625 55.328125 -25.625 C 56.140625 -25.625 56.816406 -25.347656 57.359375 -24.796875 C 57.910156 -24.253906 58.1875 -23.578125 58.1875 -22.765625 C 58.1875 -22.035156 57.910156 -21.375 57.359375 -20.78125 C 56.816406 -20.195312 56.140625 -19.90625 55.328125 -19.90625 Z M 10.234375 -19.90625 C 9.492188 -19.90625 8.832031 -20.195312 8.25 -20.78125 C 7.664062 -21.375 7.375 -22.035156 7.375 -22.765625 C 7.375 -23.578125 7.664062 -24.253906 8.25 -24.796875 C 8.832031 -25.347656 9.492188 -25.625 10.234375 -25.625 C 11.035156 -25.625 11.710938 -25.347656 12.265625 -24.796875 C 12.816406 -24.253906 13.09375 -23.578125 13.09375 -22.765625 C 13.09375 -22.035156 12.816406 -21.375 12.265625 -20.78125 C 11.710938 -20.195312 11.035156 -19.90625 10.234375 -19.90625 Z M 50.15625 -11.765625 C 49.425781 -11.765625 48.765625 -12.054688 48.171875 -12.640625 C 47.585938 -13.234375 47.296875 -13.894531 47.296875 -14.625 C 47.296875 -15.4375 47.585938 -16.113281 48.171875 -16.65625 C 48.765625 -17.207031 49.425781 -17.484375 50.15625 -17.484375 C 50.96875 -17.484375 51.644531 -17.207031 52.1875 -16.65625 C 52.738281 -16.113281 53.015625 -15.4375 53.015625 -14.625 C 53.015625 -13.894531 52.738281 -13.234375 52.1875 -12.640625 C 51.644531 -12.054688 50.96875 -11.765625 50.15625 -11.765625 Z M 15.40625 -11.765625 C 14.664062 -11.765625 14.003906 -12.054688 13.421875 -12.640625 C 12.835938 -13.234375 12.546875 -13.894531 12.546875 -14.625 C 12.546875 -15.4375 12.835938 -16.113281 13.421875 -16.65625 C 14.003906 -17.207031 14.664062 -17.484375 15.40625 -17.484375 C 16.207031 -17.484375 16.882812 -17.207031 17.4375 -16.65625 C 17.988281 -16.113281 18.265625 -15.4375 18.265625 -14.625 C 18.265625 -13.894531 17.988281 -13.234375 17.4375 -12.640625 C 16.882812 -12.054688 16.207031 -11.765625 15.40625 -11.765625 Z M 42.015625 -6.59375 C 41.285156 -6.59375 40.625 -6.882812 40.03125 -7.46875 C 39.445312 -8.0625 39.15625 -8.722656 39.15625 -9.453125 C 39.15625 -10.265625 39.445312 -10.941406 40.03125 -11.484375 C 40.625 -12.035156 41.285156 -12.3125 42.015625 -12.3125 C 42.828125 -12.3125 43.503906 -12.035156 44.046875 -11.484375 C 44.597656 -10.941406 44.875 -10.265625 44.875 -9.453125 C 44.875 -8.722656 44.597656 -8.0625 44.046875 -7.46875 C 43.503906 -6.882812 42.828125 -6.59375 42.015625 -6.59375 Z M 23.546875 -6.59375 C 22.804688 -6.59375 22.144531 -6.882812 21.5625 -7.46875 C 20.976562 -8.0625 20.6875 -8.722656 20.6875 -9.453125 C 20.6875 -10.265625 20.976562 -10.941406 21.5625 -11.484375 C 22.144531 -12.035156 22.804688 -12.3125 23.546875 -12.3125 C 24.347656 -12.3125 25.023438 -12.035156 25.578125 -11.484375 C 26.128906 -10.941406 26.40625 -10.265625 26.40625 -9.453125 C 26.40625 -8.722656 26.128906 -8.0625 25.578125 -7.46875 C 25.023438 -6.882812 24.347656 -6.59375 23.546875 -6.59375 Z M 32.78125 -4.625 C 32.050781 -4.625 31.390625 -4.914062 30.796875 -5.5 C 30.210938 -6.082031 29.921875 -6.742188 29.921875 -7.484375 C 29.921875 -8.285156 30.210938 -8.960938 30.796875 -9.515625 C 31.390625 -10.066406 32.050781 -10.34375 32.78125 -10.34375 C 33.582031 -10.34375 34.257812 -10.066406 34.8125 -9.515625 C 35.363281 -8.960938 35.640625 -8.285156 35.640625 -7.484375 C 35.640625 -6.742188 35.363281 -6.082031 34.8125 -5.5 C 34.257812 -4.914062 33.582031 -4.625 32.78125 -4.625 Z M 32.78125 -4.625 "/>
</symbol>
<symbol overflow="visible" id="devanagari-half:devanagari-half:id0:glyph0-3">
<path style="stroke:none;" d="M 18.921875 29.046875 C 15.109375 24.273438 11.988281 20.75 9.5625 18.46875 C 7.144531 16.195312 5.070312 14.695312 3.34375 13.96875 C 1.625 13.238281 -0.148438 12.875 -1.984375 12.875 C -4.546875 12.875 -6.78125 13.238281 -8.6875 13.96875 L -11.328125 5.828125 C -9.347656 5.097656 -7.148438 4.734375 -4.734375 4.734375 C -2.378906 4.734375 -0.285156 5.023438 1.546875 5.609375 C 3.378906 6.191406 5.25 7.253906 7.15625 8.796875 C 9.0625 10.335938 11.222656 12.535156 13.640625 15.390625 C 16.054688 18.253906 19.023438 21.960938 22.546875 26.515625 Z M 18.921875 29.046875 "/>
</symbol>
</g>
<g>
<symbol overflow="visible" id="devanagari-half:devanagari-half:id1:glyph0-0">
<path style="stroke:none;" d="M 5.375 -96.6875 L 69.828125 -96.6875 L 69.828125 0 L 5.375 0 Z M 8.0625 -2.6875 L 67.140625 -2.6875 L 67.140625 -94 L 8.0625 -94 Z M 8.0625 -2.6875 "/>
</symbol>
<symbol overflow="visible" id="devanagari-half:devanagari-half:id1:glyph0-1">
<path style="stroke:none;" d="M 68.15625 -13.75 L 66.28125 -18.640625 L 88.09375 -27.390625 L 6.984375 -27.390625 L 6.984375 -34 L 88.09375 -34 L 66.28125 -42.75 L 68.15625 -47.640625 L 99.09375 -34.265625 L 99.09375 -27.125 Z M 68.15625 -13.75 "/>
</symbol>
</g>
<g>
<symbol overflow="visible" id="devanagari-half:devanagari-half:id2:glyph0-0">
<path style="stroke:none;" d="M 10.234375 0 L 10.234375 -78.546875 L 55.328125 -78.546875 L 55.328125 0 Z M 15.84375 -5.609375 L 49.828125 -5.609375 L 49.828125 -72.9375 L 15.84375 -72.9375 Z M 15.84375 -5.609375 "/>
</symbol>
<symbol overflow="visible" id="devanagari-half:devanagari-half:id2:glyph0-1">
<path style="stroke:none;" d="M 0 -61.046875 L -4.40625 -67.3125 L -4.40625 -68.53125 L 53.453125 -68.53125 L 57.75 -62.046875 L 57.75 -61.046875 Z M 20.6875 -7.15625 C 15.84375 -11.769531 12.097656 -16.441406 9.453125 -21.171875 C 6.816406 -25.898438 5.5 -30.359375 5.5 -34.546875 C 5.5 -37.910156 6.210938 -40.726562 7.640625 -43 C 9.078125 -45.28125 10.96875 -47.023438 13.3125 -48.234375 C 15.65625 -49.441406 18.222656 -50.046875 21.015625 -50.046875 C 23.941406 -50.046875 26.578125 -49.457031 28.921875 -48.28125 C 31.273438 -47.113281 33.40625 -45.613281 35.3125 -43.78125 C 38.6875 -47.375 42.898438 -49.171875 47.953125 -49.171875 C 51.035156 -49.171875 53.640625 -48.691406 55.765625 -47.734375 C 57.890625 -46.785156 59.796875 -45.46875 61.484375 -43.78125 L 59.296875 -40.59375 C 58.265625 -41.394531 57.125 -42.015625 55.875 -42.453125 C 54.632812 -42.898438 53.171875 -43.125 51.484375 -43.125 C 47.671875 -43.125 44.679688 -41.675781 42.515625 -38.78125 C 40.347656 -35.882812 39.265625 -32.160156 39.265625 -27.609375 C 39.265625 -25.554688 39.375 -23.796875 39.59375 -22.328125 L 30.578125 -24.859375 C 30.429688 -25.960938 30.335938 -26.84375 30.296875 -27.5 C 30.265625 -28.15625 30.25 -28.960938 30.25 -29.921875 C 30.25 -33.660156 31.019531 -37 32.5625 -39.9375 C 30.4375 -41.175781 28.234375 -41.796875 25.953125 -41.796875 C 22.878906 -41.796875 20.222656 -40.785156 17.984375 -38.765625 C 15.742188 -36.753906 14.625 -33.914062 14.625 -30.25 C 14.625 -26.726562 15.484375 -23.28125 17.203125 -19.90625 C 18.929688 -16.53125 21.300781 -13.34375 24.3125 -10.34375 Z M 32.453125 3.84375 L 25.734375 -1.984375 L 50.046875 -22.765625 L 55.65625 -16.609375 Z M 32.453125 3.84375 "/>
</symbol>
</g>
</defs>
  <g id="devanagari-half:devanagari-half:id0:id0" transform="matrix(1.25,0,0,1.25,0.0,0.0)"><g id="devanagari-half:devanagari-half:id0:surface1">
<g style="fill:rgb(0%,0%,0%);fill-opacity:1;">
  <use xlink:href="#devanagari-half:devanagari-half:id0:glyph0-1" x="16" y="104.296875" class="c0"/>
  <use xlink:href="#devanagari-half:devanagari-half:id0:glyph0-2" x="88.046875" y="104.296875" class="dc"/>
  <use xlink:href="#devanagari-half:devanagari-half:id0:glyph0-3" x="130.0625" y="104.296875" class="c1"/>
</g>
</g>
</g>
  <g id="devanagari-half:devanagari-half:id1:id1" transform="matrix(1.25,0,0,1.25,212.01171875,8.701171875)"><g id="devanagari-half:devanagari-half:id1:surface1">
<g style="fill:rgb(0%,0%,0%);fill-opacity:1;">
  <use xlink:href="#devanagari-half:devanagari-half:id1:glyph0-1" x="0" y="120.84375" class="arrow"/>
</g>
</g>
</g>
  <g id="devanagari-half:devanagari-half:id2:id2" transform="matrix(1.25,0,0,1.25,344.609375,0.0)"><g id="devanagari-half:devanagari-half:id2:surface1">
<g style="fill:rgb(0%,0%,0%);fill-opacity:1;">
  <use xlink:href="#devanagari-half:devanagari-half:id2:glyph0-1" x="16" y="104.296875" class="c0"/>
</g>
</g>
</g>
</svg>
