<?xml version="1.0" standalone="no"?>
<!DOCTYPE svg PUBLIC "-//W3C//DTD SVG 1.1//EN"
 "http://www.w3.org/Graphics/SVG/1.1/DTD/svg11.dtd">
<!-- Created with svg_stack (http://github.com/astraw/svg_stack) -->
<svg xmlns="http://www.w3.org/2000/svg" xmlns:sodipodi="http://sodipodi.sourceforge.net/DTD/sodipodi-0.dtd" xmlns:xlink="http://www.w3.org/1999/xlink" version="1.1" width="505.72265625" height="218.80859375">
  <defs><g>
<symbol overflow="visible" id="id0:glyph0-0">
<path style="stroke:none;" d="M 10.234375 0 L 10.234375 -78.546875 L 55.328125 -78.546875 L 55.328125 0 Z M 15.84375 -5.609375 L 49.828125 -5.609375 L 49.828125 -72.9375 L 15.84375 -72.9375 Z M 15.84375 -5.609375 "/>
</symbol>
<symbol overflow="visible" id="id0:glyph0-1">
<path style="stroke:none;" d="M 34.09375 -2.09375 C 30.945312 -2.09375 27.628906 -2.734375 24.140625 -4.015625 C 20.660156 -5.296875 17.632812 -7.296875 15.0625 -10.015625 C 12.351562 -12.796875 10.171875 -15.765625 8.515625 -18.921875 C 6.867188 -22.078125 6.046875 -25.5625 6.046875 -29.375 C 6.046875 -35.675781 8.300781 -40.625 12.8125 -44.21875 C 17.320312 -47.8125 23.207031 -49.609375 30.46875 -49.609375 C 32.59375 -49.609375 34.535156 -49.535156 36.296875 -49.390625 L 36.296875 -61.046875 L 0 -61.046875 L -4.40625 -67.3125 L -4.40625 -68.53125 L 56.3125 -68.53125 L 60.71875 -62.046875 L 60.71875 -61.046875 L 44.65625 -61.046875 L 44.65625 -43.234375 C 43.707031 -43.304688 42.644531 -43.359375 41.46875 -43.390625 C 40.289062 -43.429688 38.785156 -43.453125 36.953125 -43.453125 C 30.285156 -43.453125 24.785156 -41.875 20.453125 -38.71875 C 16.128906 -35.5625 13.96875 -30.90625 13.96875 -24.75 C 13.96875 -22.039062 14.628906 -19.472656 15.953125 -17.046875 C 17.273438 -14.628906 19.160156 -12.6875 21.609375 -11.21875 C 24.066406 -9.75 26.984375 -9.015625 30.359375 -9.015625 C 28.597656 -10.628906 27.1875 -12.644531 26.125 -15.0625 C 25.0625 -17.488281 24.53125 -19.875 24.53125 -22.21875 C 24.53125 -25.445312 25.609375 -28.195312 27.765625 -30.46875 C 29.929688 -32.738281 33.03125 -33.875 37.0625 -33.875 C 39.34375 -33.875 41.414062 -33.429688 43.28125 -32.546875 C 45.15625 -31.671875 46.710938 -30.503906 47.953125 -29.046875 C 51.109375 -25.453125 52.6875 -21.671875 52.6875 -17.703125 C 52.6875 -14.921875 51.972656 -12.335938 50.546875 -9.953125 C 49.117188 -7.566406 47.007812 -5.660156 44.21875 -4.234375 C 41.4375 -2.804688 38.0625 -2.09375 34.09375 -2.09375 Z M 32.234375 -17.9375 C 32.234375 -14.925781 33.113281 -12.097656 34.875 -9.453125 C 38.46875 -10.265625 41.101562 -11.84375 42.78125 -14.1875 C 44.46875 -16.53125 45.3125 -18.695312 45.3125 -20.6875 C 45.3125 -22.664062 44.832031 -24.203125 43.875 -25.296875 C 42.925781 -26.398438 41.613281 -26.953125 39.9375 -26.953125 C 37.582031 -26.953125 35.707031 -26.070312 34.3125 -24.3125 C 32.925781 -22.550781 32.234375 -20.425781 32.234375 -17.9375 Z M 32.234375 -17.9375 "/>
</symbol>
<symbol overflow="visible" id="id0:glyph0-2">
<path style="stroke:none;" d="M 32.78125 -53.6875 C 32.050781 -53.6875 31.390625 -53.976562 30.796875 -54.5625 C 30.210938 -55.144531 29.921875 -55.804688 29.921875 -56.546875 C 29.921875 -57.347656 30.210938 -58.023438 30.796875 -58.578125 C 31.390625 -59.128906 32.050781 -59.40625 32.78125 -59.40625 C 33.582031 -59.40625 34.257812 -59.128906 34.8125 -58.578125 C 35.363281 -58.023438 35.640625 -57.347656 35.640625 -56.546875 C 35.640625 -55.804688 35.363281 -55.144531 34.8125 -54.5625 C 34.257812 -53.976562 33.582031 -53.6875 32.78125 -53.6875 Z M 42.015625 -51.703125 C 41.285156 -51.703125 40.625 -51.992188 40.03125 -52.578125 C 39.445312 -53.160156 39.15625 -53.820312 39.15625 -54.5625 C 39.15625 -55.363281 39.445312 -56.039062 40.03125 -56.59375 C 40.625 -57.144531 41.285156 -57.421875 42.015625 -57.421875 C 42.828125 -57.421875 43.503906 -57.144531 44.046875 -56.59375 C 44.597656 -56.039062 44.875 -55.363281 44.875 -54.5625 C 44.875 -53.820312 44.597656 -53.160156 44.046875 -52.578125 C 43.503906 -51.992188 42.828125 -51.703125 42.015625 -51.703125 Z M 23.546875 -51.703125 C 22.804688 -51.703125 22.144531 -51.992188 21.5625 -52.578125 C 20.976562 -53.160156 20.6875 -53.820312 20.6875 -54.5625 C 20.6875 -55.363281 20.976562 -56.039062 21.5625 -56.59375 C 22.144531 -57.144531 22.804688 -57.421875 23.546875 -57.421875 C 24.347656 -57.421875 25.023438 -57.144531 25.578125 -56.59375 C 26.128906 -56.039062 26.40625 -55.363281 26.40625 -54.5625 C 26.40625 -53.820312 26.128906 -53.160156 25.578125 -52.578125 C 25.023438 -51.992188 24.347656 -51.703125 23.546875 -51.703125 Z M 50.15625 -46.53125 C 49.425781 -46.53125 48.765625 -46.820312 48.171875 -47.40625 C 47.585938 -48 47.296875 -48.660156 47.296875 -49.390625 C 47.296875 -50.191406 47.585938 -50.867188 48.171875 -51.421875 C 48.765625 -51.972656 49.425781 -52.25 50.15625 -52.25 C 50.96875 -52.25 51.644531 -51.972656 52.1875 -51.421875 C 52.738281 -50.867188 53.015625 -50.191406 53.015625 -49.390625 C 53.015625 -48.660156 52.738281 -48 52.1875 -47.40625 C 51.644531 -46.820312 50.96875 -46.53125 50.15625 -46.53125 Z M 15.40625 -46.53125 C 14.664062 -46.53125 14.003906 -46.820312 13.421875 -47.40625 C 12.835938 -48 12.546875 -48.660156 12.546875 -49.390625 C 12.546875 -50.191406 12.835938 -50.867188 13.421875 -51.421875 C 14.003906 -51.972656 14.664062 -52.25 15.40625 -52.25 C 16.207031 -52.25 16.882812 -51.972656 17.4375 -51.421875 C 17.988281 -50.867188 18.265625 -50.191406 18.265625 -49.390625 C 18.265625 -48.660156 17.988281 -48 17.4375 -47.40625 C 16.882812 -46.820312 16.207031 -46.53125 15.40625 -46.53125 Z M 55.328125 -38.390625 C 54.597656 -38.390625 53.9375 -38.679688 53.34375 -39.265625 C 52.757812 -39.859375 52.46875 -40.519531 52.46875 -41.25 C 52.46875 -42.050781 52.757812 -42.726562 53.34375 -43.28125 C 53.9375 -43.832031 54.597656 -44.109375 55.328125 -44.109375 C 56.140625 -44.109375 56.816406 -43.832031 57.359375 -43.28125 C 57.910156 -42.726562 58.1875 -42.050781 58.1875 -41.25 C 58.1875 -40.519531 57.910156 -39.859375 57.359375 -39.265625 C 56.816406 -38.679688 56.140625 -38.390625 55.328125 -38.390625 Z M 10.234375 -38.390625 C 9.492188 -38.390625 8.832031 -38.679688 8.25 -39.265625 C 7.664062 -39.859375 7.375 -40.519531 7.375 -41.25 C 7.375 -42.050781 7.664062 -42.726562 8.25 -43.28125 C 8.832031 -43.832031 9.492188 -44.109375 10.234375 -44.109375 C 11.035156 -44.109375 11.710938 -43.832031 12.265625 -43.28125 C 12.816406 -42.726562 13.09375 -42.050781 13.09375 -41.25 C 13.09375 -40.519531 12.816406 -39.859375 12.265625 -39.265625 C 11.710938 -38.679688 11.035156 -38.390625 10.234375 -38.390625 Z M 57.3125 -29.15625 C 56.570312 -29.15625 55.910156 -29.445312 55.328125 -30.03125 C 54.742188 -30.613281 54.453125 -31.273438 54.453125 -32.015625 C 54.453125 -32.816406 54.742188 -33.492188 55.328125 -34.046875 C 55.910156 -34.597656 56.570312 -34.875 57.3125 -34.875 C 58.113281 -34.875 58.789062 -34.597656 59.34375 -34.046875 C 59.894531 -33.492188 60.171875 -32.816406 60.171875 -32.015625 C 60.171875 -31.273438 59.894531 -30.613281 59.34375 -30.03125 C 58.789062 -29.445312 58.113281 -29.15625 57.3125 -29.15625 Z M 8.25 -29.15625 C 7.519531 -29.15625 6.859375 -29.445312 6.265625 -30.03125 C 5.679688 -30.613281 5.390625 -31.273438 5.390625 -32.015625 C 5.390625 -32.816406 5.679688 -33.492188 6.265625 -34.046875 C 6.859375 -34.597656 7.519531 -34.875 8.25 -34.875 C 9.050781 -34.875 9.726562 -34.597656 10.28125 -34.046875 C 10.832031 -33.492188 11.109375 -32.816406 11.109375 -32.015625 C 11.109375 -31.273438 10.832031 -30.613281 10.28125 -30.03125 C 9.726562 -29.445312 9.050781 -29.15625 8.25 -29.15625 Z M 55.328125 -19.90625 C 54.597656 -19.90625 53.9375 -20.195312 53.34375 -20.78125 C 52.757812 -21.375 52.46875 -22.035156 52.46875 -22.765625 C 52.46875 -23.578125 52.757812 -24.253906 53.34375 -24.796875 C 53.9375 -25.347656 54.597656 -25.625 55.328125 -25.625 C 56.140625 -25.625 56.816406 -25.347656 57.359375 -24.796875 C 57.910156 -24.253906 58.1875 -23.578125 58.1875 -22.765625 C 58.1875 -22.035156 57.910156 -21.375 57.359375 -20.78125 C 56.816406 -20.195312 56.140625 -19.90625 55.328125 -19.90625 Z M 10.234375 -19.90625 C 9.492188 -19.90625 8.832031 -20.195312 8.25 -20.78125 C 7.664062 -21.375 7.375 -22.035156 7.375 -22.765625 C 7.375 -23.578125 7.664062 -24.253906 8.25 -24.796875 C 8.832031 -25.347656 9.492188 -25.625 10.234375 -25.625 C 11.035156 -25.625 11.710938 -25.347656 12.265625 -24.796875 C 12.816406 -24.253906 13.09375 -23.578125 13.09375 -22.765625 C 13.09375 -22.035156 12.816406 -21.375 12.265625 -20.78125 C 11.710938 -20.195312 11.035156 -19.90625 10.234375 -19.90625 Z M 50.15625 -11.765625 C 49.425781 -11.765625 48.765625 -12.054688 48.171875 -12.640625 C 47.585938 -13.234375 47.296875 -13.894531 47.296875 -14.625 C 47.296875 -15.4375 47.585938 -16.113281 48.171875 -16.65625 C 48.765625 -17.207031 49.425781 -17.484375 50.15625 -17.484375 C 50.96875 -17.484375 51.644531 -17.207031 52.1875 -16.65625 C 52.738281 -16.113281 53.015625 -15.4375 53.015625 -14.625 C 53.015625 -13.894531 52.738281 -13.234375 52.1875 -12.640625 C 51.644531 -12.054688 50.96875 -11.765625 50.15625 -11.765625 Z M 15.40625 -11.765625 C 14.664062 -11.765625 14.003906 -12.054688 13.421875 -12.640625 C 12.835938 -13.234375 12.546875 -13.894531 12.546875 -14.625 C 12.546875 -15.4375 12.835938 -16.113281 13.421875 -16.65625 C 14.003906 -17.207031 14.664062 -17.484375 15.40625 -17.484375 C 16.207031 -17.484375 16.882812 -17.207031 17.4375 -16.65625 C 17.988281 -16.113281 18.265625 -15.4375 18.265625 -14.625 C 18.265625 -13.894531 17.988281 -13.234375 17.4375 -12.640625 C 16.882812 -12.054688 16.207031 -11.765625 15.40625 -11.765625 Z M 42.015625 -6.59375 C 41.285156 -6.59375 40.625 -6.882812 40.03125 -7.46875 C 39.445312 -8.0625 39.15625 -8.722656 39.15625 -9.453125 C 39.15625 -10.265625 39.445312 -10.941406 40.03125 -11.484375 C 40.625 -12.035156 41.285156 -12.3125 42.015625 -12.3125 C 42.828125 -12.3125 43.503906 -12.035156 44.046875 -11.484375 C 44.597656 -10.941406 44.875 -10.265625 44.875 -9.453125 C 44.875 -8.722656 44.597656 -8.0625 44.046875 -7.46875 C 43.503906 -6.882812 42.828125 -6.59375 42.015625 -6.59375 Z M 23.546875 -6.59375 C 22.804688 -6.59375 22.144531 -6.882812 21.5625 -7.46875 C 20.976562 -8.0625 20.6875 -8.722656 20.6875 -9.453125 C 20.6875 -10.265625 20.976562 -10.941406 21.5625 -11.484375 C 22.144531 -12.035156 22.804688 -12.3125 23.546875 -12.3125 C 24.347656 -12.3125 25.023438 -12.035156 25.578125 -11.484375 C 26.128906 -10.941406 26.40625 -10.265625 26.40625 -9.453125 C 26.40625 -8.722656 26.128906 -8.0625 25.578125 -7.46875 C 25.023438 -6.882812 24.347656 -6.59375 23.546875 -6.59375 Z M 32.78125 -4.625 C 32.050781 -4.625 31.390625 -4.914062 30.796875 -5.5 C 30.210938 -6.082031 29.921875 -6.742188 29.921875 -7.484375 C 29.921875 -8.285156 30.210938 -8.960938 30.796875 -9.515625 C 31.390625 -10.066406 32.050781 -10.34375 32.78125 -10.34375 C 33.582031 -10.34375 34.257812 -10.066406 34.8125 -9.515625 C 35.363281 -8.960938 35.640625 -8.285156 35.640625 -7.484375 C 35.640625 -6.742188 35.363281 -6.082031 34.8125 -5.5 C 34.257812 -4.914062 33.582031 -4.625 32.78125 -4.625 Z M 32.78125 -4.625 "/>
</symbol>
<symbol overflow="visible" id="id0:glyph0-3">
<path style="stroke:none;" d="M 18.921875 29.046875 C 15.109375 24.273438 11.988281 20.75 9.5625 18.46875 C 7.144531 16.195312 5.070312 14.695312 3.34375 13.96875 C 1.625 13.238281 -0.148438 12.875 -1.984375 12.875 C -4.546875 12.875 -6.78125 13.238281 -8.6875 13.96875 L -11.328125 5.828125 C -9.347656 5.097656 -7.148438 4.734375 -4.734375 4.734375 C -2.378906 4.734375 -0.285156 5.023438 1.546875 5.609375 C 3.378906 6.191406 5.25 7.253906 7.15625 8.796875 C 9.0625 10.335938 11.222656 12.535156 13.640625 15.390625 C 16.054688 18.253906 19.023438 21.960938 22.546875 26.515625 Z M 18.921875 29.046875 "/>
</symbol>
</g>
<g>
<symbol overflow="visible" id="id1:glyph0-0">
<path style="stroke:none;" d="M 5.375 -96.6875 L 69.828125 -96.6875 L 69.828125 0 L 5.375 0 Z M 8.0625 -2.6875 L 67.140625 -2.6875 L 67.140625 -94 L 8.0625 -94 Z M 8.0625 -2.6875 "/>
</symbol>
<symbol overflow="visible" id="id1:glyph0-1">
<path style="stroke:none;" d="M 68.15625 -13.75 L 66.28125 -18.640625 L 88.09375 -27.390625 L 6.984375 -27.390625 L 6.984375 -34 L 88.09375 -34 L 66.28125 -42.75 L 68.15625 -47.640625 L 99.09375 -34.265625 L 99.09375 -27.125 Z M 68.15625 -13.75 "/>
</symbol>
</g>
<g>
<symbol overflow="visible" id="id2:glyph0-0">
<path style="stroke:none;" d="M 10.234375 0 L 10.234375 -78.546875 L 55.328125 -78.546875 L 55.328125 0 Z M 15.84375 -5.609375 L 49.828125 -5.609375 L 49.828125 -72.9375 L 15.84375 -72.9375 Z M 15.84375 -5.609375 "/>
</symbol>
<symbol overflow="visible" id="id2:glyph0-1">
<path style="stroke:none;" d="M 34.09375 25.625 C 30.5 25.625 27.015625 24.945312 23.640625 23.59375 C 20.273438 22.238281 17.269531 20.367188 14.625 17.984375 C 11.988281 15.597656 9.898438 12.921875 8.359375 9.953125 C 6.816406 6.984375 6.046875 3.882812 6.046875 0.65625 C 6.046875 -3.082031 7.253906 -6.269531 9.671875 -8.90625 C 12.097656 -11.550781 15.363281 -13.457031 19.46875 -14.625 C 15.582031 -16.976562 12.375 -20.003906 9.84375 -23.703125 C 7.3125 -27.410156 6.046875 -31.316406 6.046875 -35.421875 C 6.046875 -40.628906 8.300781 -44.734375 12.8125 -47.734375 C 17.320312 -50.742188 23.207031 -52.25 30.46875 -52.25 C 31.5 -52.25 32.488281 -52.226562 33.4375 -52.1875 C 34.394531 -52.15625 35.347656 -52.066406 36.296875 -51.921875 L 36.296875 -61.046875 L 0 -61.046875 L -4.40625 -67.3125 L -4.40625 -68.53125 L 56.3125 -68.53125 L 60.71875 -62.046875 L 60.71875 -61.046875 L 44.65625 -61.046875 L 44.65625 -45.765625 C 43.707031 -45.835938 42.644531 -45.890625 41.46875 -45.921875 C 40.289062 -45.960938 38.785156 -45.984375 36.953125 -45.984375 C 30.285156 -45.984375 24.785156 -44.71875 20.453125 -42.1875 C 16.128906 -39.65625 13.96875 -35.859375 13.96875 -30.796875 C 13.96875 -28.523438 14.628906 -26.363281 15.953125 -24.3125 C 17.273438 -22.257812 19.144531 -20.609375 21.5625 -19.359375 C 23.976562 -18.109375 26.835938 -17.484375 30.140625 -17.484375 C 28.453125 -18.953125 27.09375 -20.75 26.0625 -22.875 C 25.039062 -25 24.53125 -27.09375 24.53125 -29.15625 C 24.53125 -32.226562 25.609375 -34.847656 27.765625 -37.015625 C 29.929688 -39.179688 33.03125 -40.265625 37.0625 -40.265625 C 39.925781 -40.265625 42.53125 -39.507812 44.875 -38 C 47.226562 -36.5 49.117188 -34.554688 50.546875 -32.171875 C 51.972656 -29.785156 52.6875 -27.273438 52.6875 -24.640625 C 52.6875 -20.828125 51.070312 -17.632812 47.84375 -15.0625 C 44.625 -12.5 40.039062 -11 34.09375 -10.5625 C 28.300781 -10.050781 23.5 -8.582031 19.6875 -6.15625 C 15.875 -3.738281 13.96875 0.0703125 13.96875 5.28125 C 13.96875 7.550781 14.628906 9.710938 15.953125 11.765625 C 17.273438 13.816406 19.160156 15.484375 21.609375 16.765625 C 24.066406 18.054688 26.945312 18.703125 30.25 18.703125 C 28.5625 17.234375 27.1875 15.4375 26.125 13.3125 C 25.0625 11.1875 24.53125 9.097656 24.53125 7.046875 C 24.53125 3.960938 25.609375 1.34375 27.765625 -0.8125 C 29.929688 -2.976562 33.03125 -4.0625 37.0625 -4.0625 C 39.925781 -4.0625 42.53125 -3.3125 44.875 -1.8125 C 47.226562 -0.3125 49.117188 1.628906 50.546875 4.015625 C 51.972656 6.398438 52.6875 8.910156 52.6875 11.546875 C 52.6875 15.359375 51.070312 18.65625 47.84375 21.4375 C 44.625 24.226562 40.039062 25.625 34.09375 25.625 Z M 32.234375 -24.859375 C 32.234375 -22.367188 33.078125 -20.019531 34.765625 -17.8125 C 38.359375 -18.476562 41.015625 -19.835938 42.734375 -21.890625 C 44.453125 -23.941406 45.3125 -25.847656 45.3125 -27.609375 C 45.3125 -29.367188 44.832031 -30.742188 43.875 -31.734375 C 42.925781 -32.722656 41.613281 -33.21875 39.9375 -33.21875 C 37.582031 -33.21875 35.707031 -32.410156 34.3125 -30.796875 C 32.925781 -29.179688 32.234375 -27.203125 32.234375 -24.859375 Z M 32.234375 11.328125 C 32.234375 13.816406 33.078125 16.164062 34.765625 18.375 C 38.359375 17.632812 41.015625 16.238281 42.734375 14.1875 C 44.453125 12.132812 45.3125 10.226562 45.3125 8.46875 C 45.3125 6.707031 44.832031 5.332031 43.875 4.34375 C 42.925781 3.351562 41.613281 2.859375 39.9375 2.859375 C 37.582031 2.859375 35.707031 3.679688 34.3125 5.328125 C 32.925781 6.984375 32.234375 8.984375 32.234375 11.328125 Z M 32.234375 11.328125 "/>
</symbol>
</g>
</defs>
  <g id="id0:id0" transform="matrix(1.25,0,0,1.25,0.0,0.0)"><g id="id0:surface1">
<g style="fill:rgb(0%,0%,0%);fill-opacity:1;">
  <use xlink:href="#id0:glyph0-1" x="16" y="104.296875"/>
  <use xlink:href="#id0:glyph0-2" x="72.3125" y="104.296875"/>
  <use xlink:href="#id0:glyph0-3" x="114.328125" y="104.296875"/>
  <use xlink:href="#id0:glyph0-1" x="137.875" y="104.296875"/>
</g>
</g>
</g>
  <g id="id1:id1" transform="matrix(1.25,0,0,1.25,262.734375,8.701171875)"><g id="id1:surface1">
<g style="fill:rgb(0%,0%,0%);fill-opacity:1;">
  <use xlink:href="#id1:glyph0-1" x="0" y="120.84375"/>
</g>
</g>
</g>
  <g id="id2:id2" transform="matrix(1.25,0,0,1.25,395.33203125,0.0)"><g id="id2:surface1">
<g style="fill:rgb(0%,0%,0%);fill-opacity:1;">
  <use xlink:href="#id2:glyph0-1" x="16" y="104.296875"/>
</g>
</g>
</g>
</svg>
