<!DOCTYPE svg PUBLIC "-//W3C//DTD SVG 1.1//EN" "http://www.w3.org/Graphics/SVG/1.1/DTD/svg11.dtd">
<!-- Created with svg_stack (http://github.com/astraw/svg_stack) --><svg xmlns="http://www.w3.org/2000/svg" xmlns:sodipodi="http://sodipodi.sourceforge.net/DTD/sodipodi-0.dtd" xmlns:xlink="http://www.w3.org/1999/xlink" version="1.1" width="815.37109375" height="218.80859375" id="devanagari-matra-position">
  <defs><g>
<symbol overflow="visible" id="devanagari-matra-position:devanagari-matra-position:id0:glyph0-0">
<path style="stroke:none;" d="M 10.234375 0 L 10.234375 -78.546875 L 55.328125 -78.546875 L 55.328125 0 Z M 15.84375 -5.609375 L 49.828125 -5.609375 L 49.828125 -72.9375 L 15.84375 -72.9375 Z M 15.84375 -5.609375 "/>
</symbol>
<symbol overflow="visible" id="devanagari-matra-position:devanagari-matra-position:id0:glyph0-1">
<path style="stroke:none;" d="M 16.609375 0.65625 L 9.453125 -4.625 L 9.453125 -61.046875 L 0 -61.046875 L -4.40625 -67.4375 L -4.40625 -68.53125 L 11.21875 -68.53125 C 9.457031 -70.363281 8.0625 -72.523438 7.03125 -75.015625 C 6.007812 -77.515625 5.5 -80.007812 5.5 -82.5 C 5.5 -87.269531 7.257812 -91.140625 10.78125 -94.109375 C 14.300781 -97.078125 18.882812 -98.5625 24.53125 -98.5625 C 30.03125 -98.5625 35.507812 -97.257812 40.96875 -94.65625 C 46.4375 -92.050781 51.585938 -88.363281 56.421875 -83.59375 C 61.265625 -78.832031 65.375 -73.257812 68.75 -66.875 L 63.25 -66.875 C 58.78125 -74.425781 53.410156 -80.3125 47.140625 -84.53125 C 40.867188 -88.75 34.539062 -90.859375 28.15625 -90.859375 C 23.539062 -90.859375 19.875 -89.679688 17.15625 -87.328125 C 14.445312 -84.984375 13.09375 -81.722656 13.09375 -77.546875 C 13.09375 -74.472656 13.898438 -71.46875 15.515625 -68.53125 L 27.0625 -68.53125 L 31.453125 -62.046875 L 31.453125 -61.046875 L 17.703125 -61.046875 L 17.703125 0.65625 Z M 16.609375 0.65625 "/>
</symbol>
<symbol overflow="visible" id="devanagari-matra-position:devanagari-matra-position:id0:glyph0-2">
<path style="stroke:none;" d="M 32.78125 -53.6875 C 32.050781 -53.6875 31.390625 -53.976562 30.796875 -54.5625 C 30.210938 -55.144531 29.921875 -55.804688 29.921875 -56.546875 C 29.921875 -57.347656 30.210938 -58.023438 30.796875 -58.578125 C 31.390625 -59.128906 32.050781 -59.40625 32.78125 -59.40625 C 33.582031 -59.40625 34.257812 -59.128906 34.8125 -58.578125 C 35.363281 -58.023438 35.640625 -57.347656 35.640625 -56.546875 C 35.640625 -55.804688 35.363281 -55.144531 34.8125 -54.5625 C 34.257812 -53.976562 33.582031 -53.6875 32.78125 -53.6875 Z M 42.015625 -51.703125 C 41.285156 -51.703125 40.625 -51.992188 40.03125 -52.578125 C 39.445312 -53.160156 39.15625 -53.820312 39.15625 -54.5625 C 39.15625 -55.363281 39.445312 -56.039062 40.03125 -56.59375 C 40.625 -57.144531 41.285156 -57.421875 42.015625 -57.421875 C 42.828125 -57.421875 43.503906 -57.144531 44.046875 -56.59375 C 44.597656 -56.039062 44.875 -55.363281 44.875 -54.5625 C 44.875 -53.820312 44.597656 -53.160156 44.046875 -52.578125 C 43.503906 -51.992188 42.828125 -51.703125 42.015625 -51.703125 Z M 23.546875 -51.703125 C 22.804688 -51.703125 22.144531 -51.992188 21.5625 -52.578125 C 20.976562 -53.160156 20.6875 -53.820312 20.6875 -54.5625 C 20.6875 -55.363281 20.976562 -56.039062 21.5625 -56.59375 C 22.144531 -57.144531 22.804688 -57.421875 23.546875 -57.421875 C 24.347656 -57.421875 25.023438 -57.144531 25.578125 -56.59375 C 26.128906 -56.039062 26.40625 -55.363281 26.40625 -54.5625 C 26.40625 -53.820312 26.128906 -53.160156 25.578125 -52.578125 C 25.023438 -51.992188 24.347656 -51.703125 23.546875 -51.703125 Z M 50.15625 -46.53125 C 49.425781 -46.53125 48.765625 -46.820312 48.171875 -47.40625 C 47.585938 -48 47.296875 -48.660156 47.296875 -49.390625 C 47.296875 -50.191406 47.585938 -50.867188 48.171875 -51.421875 C 48.765625 -51.972656 49.425781 -52.25 50.15625 -52.25 C 50.96875 -52.25 51.644531 -51.972656 52.1875 -51.421875 C 52.738281 -50.867188 53.015625 -50.191406 53.015625 -49.390625 C 53.015625 -48.660156 52.738281 -48 52.1875 -47.40625 C 51.644531 -46.820312 50.96875 -46.53125 50.15625 -46.53125 Z M 15.40625 -46.53125 C 14.664062 -46.53125 14.003906 -46.820312 13.421875 -47.40625 C 12.835938 -48 12.546875 -48.660156 12.546875 -49.390625 C 12.546875 -50.191406 12.835938 -50.867188 13.421875 -51.421875 C 14.003906 -51.972656 14.664062 -52.25 15.40625 -52.25 C 16.207031 -52.25 16.882812 -51.972656 17.4375 -51.421875 C 17.988281 -50.867188 18.265625 -50.191406 18.265625 -49.390625 C 18.265625 -48.660156 17.988281 -48 17.4375 -47.40625 C 16.882812 -46.820312 16.207031 -46.53125 15.40625 -46.53125 Z M 55.328125 -38.390625 C 54.597656 -38.390625 53.9375 -38.679688 53.34375 -39.265625 C 52.757812 -39.859375 52.46875 -40.519531 52.46875 -41.25 C 52.46875 -42.050781 52.757812 -42.726562 53.34375 -43.28125 C 53.9375 -43.832031 54.597656 -44.109375 55.328125 -44.109375 C 56.140625 -44.109375 56.816406 -43.832031 57.359375 -43.28125 C 57.910156 -42.726562 58.1875 -42.050781 58.1875 -41.25 C 58.1875 -40.519531 57.910156 -39.859375 57.359375 -39.265625 C 56.816406 -38.679688 56.140625 -38.390625 55.328125 -38.390625 Z M 10.234375 -38.390625 C 9.492188 -38.390625 8.832031 -38.679688 8.25 -39.265625 C 7.664062 -39.859375 7.375 -40.519531 7.375 -41.25 C 7.375 -42.050781 7.664062 -42.726562 8.25 -43.28125 C 8.832031 -43.832031 9.492188 -44.109375 10.234375 -44.109375 C 11.035156 -44.109375 11.710938 -43.832031 12.265625 -43.28125 C 12.816406 -42.726562 13.09375 -42.050781 13.09375 -41.25 C 13.09375 -40.519531 12.816406 -39.859375 12.265625 -39.265625 C 11.710938 -38.679688 11.035156 -38.390625 10.234375 -38.390625 Z M 57.3125 -29.15625 C 56.570312 -29.15625 55.910156 -29.445312 55.328125 -30.03125 C 54.742188 -30.613281 54.453125 -31.273438 54.453125 -32.015625 C 54.453125 -32.816406 54.742188 -33.492188 55.328125 -34.046875 C 55.910156 -34.597656 56.570312 -34.875 57.3125 -34.875 C 58.113281 -34.875 58.789062 -34.597656 59.34375 -34.046875 C 59.894531 -33.492188 60.171875 -32.816406 60.171875 -32.015625 C 60.171875 -31.273438 59.894531 -30.613281 59.34375 -30.03125 C 58.789062 -29.445312 58.113281 -29.15625 57.3125 -29.15625 Z M 8.25 -29.15625 C 7.519531 -29.15625 6.859375 -29.445312 6.265625 -30.03125 C 5.679688 -30.613281 5.390625 -31.273438 5.390625 -32.015625 C 5.390625 -32.816406 5.679688 -33.492188 6.265625 -34.046875 C 6.859375 -34.597656 7.519531 -34.875 8.25 -34.875 C 9.050781 -34.875 9.726562 -34.597656 10.28125 -34.046875 C 10.832031 -33.492188 11.109375 -32.816406 11.109375 -32.015625 C 11.109375 -31.273438 10.832031 -30.613281 10.28125 -30.03125 C 9.726562 -29.445312 9.050781 -29.15625 8.25 -29.15625 Z M 55.328125 -19.90625 C 54.597656 -19.90625 53.9375 -20.195312 53.34375 -20.78125 C 52.757812 -21.375 52.46875 -22.035156 52.46875 -22.765625 C 52.46875 -23.578125 52.757812 -24.253906 53.34375 -24.796875 C 53.9375 -25.347656 54.597656 -25.625 55.328125 -25.625 C 56.140625 -25.625 56.816406 -25.347656 57.359375 -24.796875 C 57.910156 -24.253906 58.1875 -23.578125 58.1875 -22.765625 C 58.1875 -22.035156 57.910156 -21.375 57.359375 -20.78125 C 56.816406 -20.195312 56.140625 -19.90625 55.328125 -19.90625 Z M 10.234375 -19.90625 C 9.492188 -19.90625 8.832031 -20.195312 8.25 -20.78125 C 7.664062 -21.375 7.375 -22.035156 7.375 -22.765625 C 7.375 -23.578125 7.664062 -24.253906 8.25 -24.796875 C 8.832031 -25.347656 9.492188 -25.625 10.234375 -25.625 C 11.035156 -25.625 11.710938 -25.347656 12.265625 -24.796875 C 12.816406 -24.253906 13.09375 -23.578125 13.09375 -22.765625 C 13.09375 -22.035156 12.816406 -21.375 12.265625 -20.78125 C 11.710938 -20.195312 11.035156 -19.90625 10.234375 -19.90625 Z M 50.15625 -11.765625 C 49.425781 -11.765625 48.765625 -12.054688 48.171875 -12.640625 C 47.585938 -13.234375 47.296875 -13.894531 47.296875 -14.625 C 47.296875 -15.4375 47.585938 -16.113281 48.171875 -16.65625 C 48.765625 -17.207031 49.425781 -17.484375 50.15625 -17.484375 C 50.96875 -17.484375 51.644531 -17.207031 52.1875 -16.65625 C 52.738281 -16.113281 53.015625 -15.4375 53.015625 -14.625 C 53.015625 -13.894531 52.738281 -13.234375 52.1875 -12.640625 C 51.644531 -12.054688 50.96875 -11.765625 50.15625 -11.765625 Z M 15.40625 -11.765625 C 14.664062 -11.765625 14.003906 -12.054688 13.421875 -12.640625 C 12.835938 -13.234375 12.546875 -13.894531 12.546875 -14.625 C 12.546875 -15.4375 12.835938 -16.113281 13.421875 -16.65625 C 14.003906 -17.207031 14.664062 -17.484375 15.40625 -17.484375 C 16.207031 -17.484375 16.882812 -17.207031 17.4375 -16.65625 C 17.988281 -16.113281 18.265625 -15.4375 18.265625 -14.625 C 18.265625 -13.894531 17.988281 -13.234375 17.4375 -12.640625 C 16.882812 -12.054688 16.207031 -11.765625 15.40625 -11.765625 Z M 42.015625 -6.59375 C 41.285156 -6.59375 40.625 -6.882812 40.03125 -7.46875 C 39.445312 -8.0625 39.15625 -8.722656 39.15625 -9.453125 C 39.15625 -10.265625 39.445312 -10.941406 40.03125 -11.484375 C 40.625 -12.035156 41.285156 -12.3125 42.015625 -12.3125 C 42.828125 -12.3125 43.503906 -12.035156 44.046875 -11.484375 C 44.597656 -10.941406 44.875 -10.265625 44.875 -9.453125 C 44.875 -8.722656 44.597656 -8.0625 44.046875 -7.46875 C 43.503906 -6.882812 42.828125 -6.59375 42.015625 -6.59375 Z M 23.546875 -6.59375 C 22.804688 -6.59375 22.144531 -6.882812 21.5625 -7.46875 C 20.976562 -8.0625 20.6875 -8.722656 20.6875 -9.453125 C 20.6875 -10.265625 20.976562 -10.941406 21.5625 -11.484375 C 22.144531 -12.035156 22.804688 -12.3125 23.546875 -12.3125 C 24.347656 -12.3125 25.023438 -12.035156 25.578125 -11.484375 C 26.128906 -10.941406 26.40625 -10.265625 26.40625 -9.453125 C 26.40625 -8.722656 26.128906 -8.0625 25.578125 -7.46875 C 25.023438 -6.882812 24.347656 -6.59375 23.546875 -6.59375 Z M 32.78125 -4.625 C 32.050781 -4.625 31.390625 -4.914062 30.796875 -5.5 C 30.210938 -6.082031 29.921875 -6.742188 29.921875 -7.484375 C 29.921875 -8.285156 30.210938 -8.960938 30.796875 -9.515625 C 31.390625 -10.066406 32.050781 -10.34375 32.78125 -10.34375 C 33.582031 -10.34375 34.257812 -10.066406 34.8125 -9.515625 C 35.363281 -8.960938 35.640625 -8.285156 35.640625 -7.484375 C 35.640625 -6.742188 35.363281 -6.082031 34.8125 -5.5 C 34.257812 -4.914062 33.582031 -4.625 32.78125 -4.625 Z M 32.78125 -4.625 "/>
</symbol>
<symbol overflow="visible" id="devanagari-matra-position:devanagari-matra-position:id0:glyph0-3">
<path style="stroke:none;" d="M 29.59375 -13.75 C 23.570312 -13.75 18.289062 -16.003906 13.75 -20.515625 C 9.207031 -25.023438 5.503906 -31.128906 2.640625 -38.828125 L 7.265625 -41.03125 C 9.535156 -35.019531 12.207031 -30.269531 15.28125 -26.78125 C 18.363281 -23.300781 22.144531 -21.5625 26.625 -21.5625 C 30.507812 -21.5625 33.769531 -22.660156 36.40625 -24.859375 C 39.050781 -27.054688 40.375 -30.285156 40.375 -34.546875 C 40.375 -37.109375 39.75 -38.957031 38.5 -40.09375 C 37.25 -41.226562 35.378906 -41.796875 32.890625 -41.796875 C 31.054688 -41.796875 29.296875 -41.519531 27.609375 -40.96875 C 25.921875 -40.425781 24.125 -39.640625 22.21875 -38.609375 L 18.046875 -47.1875 C 20.171875 -48.144531 22.1875 -48.894531 24.09375 -49.4375 C 26 -49.988281 27.941406 -50.265625 29.921875 -50.265625 C 33.003906 -50.265625 35.660156 -49.476562 37.890625 -47.90625 C 40.128906 -46.332031 41.984375 -44.476562 43.453125 -42.34375 C 44.398438 -40.957031 45.257812 -39.492188 46.03125 -37.953125 C 46.800781 -36.410156 47.332031 -34.832031 47.625 -33.21875 C 49.164062 -33.363281 50.742188 -33.765625 52.359375 -34.421875 C 53.972656 -35.085938 55.441406 -35.894531 56.765625 -36.84375 L 56.765625 -61.046875 L 0 -61.046875 L -4.40625 -67.3125 L -4.40625 -68.53125 L 74.359375 -68.53125 L 78.765625 -62.046875 L 78.765625 -61.046875 L 65.015625 -61.046875 L 65.015625 0.65625 L 63.90625 0.65625 L 56.765625 -4.625 L 56.765625 -28.484375 C 55.953125 -28.265625 54.941406 -28.082031 53.734375 -27.9375 C 52.523438 -27.789062 51.367188 -27.71875 50.265625 -27.71875 C 49.390625 -27.71875 48.507812 -27.789062 47.625 -27.9375 C 47.039062 -23.394531 45.132812 -19.894531 41.90625 -17.4375 C 38.675781 -14.976562 34.570312 -13.75 29.59375 -13.75 Z M 29.59375 -13.75 "/>
</symbol>
<symbol overflow="visible" id="devanagari-matra-position:devanagari-matra-position:id0:glyph0-4">
<path style="stroke:none;" d="M 18.921875 29.046875 C 15.109375 24.273438 11.988281 20.75 9.5625 18.46875 C 7.144531 16.195312 5.070312 14.695312 3.34375 13.96875 C 1.625 13.238281 -0.148438 12.875 -1.984375 12.875 C -4.546875 12.875 -6.78125 13.238281 -8.6875 13.96875 L -11.328125 5.828125 C -9.347656 5.097656 -7.148438 4.734375 -4.734375 4.734375 C -2.378906 4.734375 -0.285156 5.023438 1.546875 5.609375 C 3.378906 6.191406 5.25 7.253906 7.15625 8.796875 C 9.0625 10.335938 11.222656 12.535156 13.640625 15.390625 C 16.054688 18.253906 19.023438 21.960938 22.546875 26.515625 Z M 18.921875 29.046875 "/>
</symbol>
<symbol overflow="visible" id="devanagari-matra-position:devanagari-matra-position:id0:glyph0-5">
<path style="stroke:none;" d=""/>
</symbol>
<symbol overflow="visible" id="devanagari-matra-position:devanagari-matra-position:id0:glyph0-6">
<path style="stroke:none;" d="M 0 -61.046875 L -4.40625 -67.3125 L -4.40625 -68.53125 L 57.53125 -68.53125 L 61.9375 -62.046875 L 61.9375 -61.046875 Z M 29.59375 -13.75 C 23.570312 -13.75 18.289062 -16.003906 13.75 -20.515625 C 9.207031 -25.023438 5.503906 -31.128906 2.640625 -38.828125 L 7.265625 -41.03125 C 9.535156 -35.019531 12.207031 -30.269531 15.28125 -26.78125 C 18.363281 -23.300781 22.144531 -21.5625 26.625 -21.5625 C 30.507812 -21.5625 33.769531 -22.660156 36.40625 -24.859375 C 39.050781 -27.054688 40.375 -30.285156 40.375 -34.546875 C 40.375 -37.109375 39.75 -38.957031 38.5 -40.09375 C 37.25 -41.226562 35.378906 -41.796875 32.890625 -41.796875 C 31.054688 -41.796875 29.296875 -41.519531 27.609375 -40.96875 C 25.921875 -40.425781 24.125 -39.640625 22.21875 -38.609375 L 18.046875 -47.1875 C 20.171875 -48.144531 22.1875 -48.894531 24.09375 -49.4375 C 26 -49.988281 27.941406 -50.265625 29.921875 -50.265625 C 33.003906 -50.265625 35.660156 -49.476562 37.890625 -47.90625 C 40.128906 -46.332031 41.984375 -44.476562 43.453125 -42.34375 C 44.398438 -40.957031 45.257812 -39.492188 46.03125 -37.953125 C 46.800781 -36.410156 47.332031 -34.796875 47.625 -33.109375 C 50.195312 -33.179688 52.835938 -33.820312 55.546875 -35.03125 C 58.265625 -36.238281 60.578125 -37.757812 62.484375 -39.59375 L 65.125 -30.6875 C 60.9375 -28.707031 56.351562 -27.71875 51.375 -27.71875 C 50.125 -27.71875 48.875 -27.789062 47.625 -27.9375 C 47.113281 -23.394531 45.222656 -19.894531 41.953125 -17.4375 C 38.691406 -14.976562 34.570312 -13.75 29.59375 -13.75 Z M 29.59375 -13.75 "/>
</symbol>
<symbol overflow="visible" id="devanagari-matra-position:devanagari-matra-position:id0:glyph0-7">
<path style="stroke:none;" d="M 28.375 -7.15625 L 22.109375 -12.65625 L 37.625 -25.515625 C 35.863281 -26.472656 33.992188 -26.953125 32.015625 -26.953125 C 27.535156 -26.953125 23.71875 -25.628906 20.5625 -22.984375 C 17.414062 -20.347656 15.84375 -16.753906 15.84375 -12.203125 C 15.84375 -9.929688 16.425781 -7.566406 17.59375 -5.109375 C 18.769531 -2.660156 20.769531 -0.316406 23.59375 1.921875 C 26.414062 4.160156 30.320312 6.125 35.3125 7.8125 L 32.5625 11.984375 C 24.863281 9.273438 18.773438 5.535156 14.296875 0.765625 C 9.828125 -3.992188 7.59375 -9.492188 7.59375 -15.734375 C 7.59375 -18.148438 8.066406 -20.421875 9.015625 -22.546875 C 9.972656 -24.671875 11.296875 -26.539062 12.984375 -28.15625 C 11.078125 -29.695312 9.550781 -31.421875 8.40625 -33.328125 C 7.269531 -35.234375 6.703125 -37.25 6.703125 -39.375 C 6.703125 -43.707031 8.332031 -46.828125 11.59375 -48.734375 C 14.863281 -50.640625 18.847656 -51.59375 23.546875 -51.59375 C 25.816406 -51.59375 27.957031 -51.535156 29.96875 -51.421875 C 31.988281 -51.316406 33.878906 -51.15625 35.640625 -50.9375 L 35.640625 -61.046875 L 0 -61.046875 L -4.40625 -67.3125 L -4.40625 -68.53125 L 52.796875 -68.53125 L 57.203125 -62.046875 L 57.203125 -61.046875 L 43.890625 -61.046875 L 43.890625 -44.65625 C 42.492188 -44.800781 40.546875 -44.925781 38.046875 -45.03125 C 35.554688 -45.144531 33.03125 -45.203125 30.46875 -45.203125 C 24.3125 -45.203125 20.078125 -44.34375 17.765625 -42.625 C 15.453125 -40.90625 14.296875 -38.867188 14.296875 -36.515625 C 14.296875 -34.460938 15.175781 -32.664062 16.9375 -31.125 C 20.238281 -33.03125 23.867188 -33.984375 27.828125 -33.984375 C 30.398438 -33.984375 32.800781 -33.503906 35.03125 -32.546875 C 37.269531 -31.597656 39.234375 -30.484375 40.921875 -29.203125 C 42.609375 -27.921875 43.925781 -26.726562 44.875 -25.625 C 46.34375 -23.9375 47.585938 -22.066406 48.609375 -20.015625 C 49.640625 -17.960938 50.15625 -15.726562 50.15625 -13.3125 L 50.15625 2.53125 L 49.0625 2.53125 L 42.796875 -1.984375 L 42.796875 -17.59375 C 42.796875 -18.332031 42.679688 -19.03125 42.453125 -19.6875 Z M 28.375 -7.15625 "/>
</symbol>
</g>
<g>
<symbol overflow="visible" id="devanagari-matra-position:devanagari-matra-position:id1:glyph0-0">
<path style="stroke:none;" d="M 5.375 -96.6875 L 69.828125 -96.6875 L 69.828125 0 L 5.375 0 Z M 8.0625 -2.6875 L 67.140625 -2.6875 L 67.140625 -94 L 8.0625 -94 Z M 8.0625 -2.6875 "/>
</symbol>
<symbol overflow="visible" id="devanagari-matra-position:devanagari-matra-position:id1:glyph0-1">
<path style="stroke:none;" d="M 68.15625 -13.75 L 66.28125 -18.640625 L 88.09375 -27.390625 L 6.984375 -27.390625 L 6.984375 -34 L 88.09375 -34 L 66.28125 -42.75 L 68.15625 -47.640625 L 99.09375 -34.265625 L 99.09375 -27.125 Z M 68.15625 -13.75 "/>
</symbol>
</g>
<g>
<symbol overflow="visible" id="devanagari-matra-position:devanagari-matra-position:id2:glyph0-0">
<path style="stroke:none;" d="M 10.234375 0 L 10.234375 -78.546875 L 55.328125 -78.546875 L 55.328125 0 Z M 15.84375 -5.609375 L 49.828125 -5.609375 L 49.828125 -72.9375 L 15.84375 -72.9375 Z M 15.84375 -5.609375 "/>
</symbol>
<symbol overflow="visible" id="devanagari-matra-position:devanagari-matra-position:id2:glyph0-1">
<path style="stroke:none;" d="M 29.59375 -13.75 C 23.570312 -13.75 18.289062 -16.003906 13.75 -20.515625 C 9.207031 -25.023438 5.503906 -31.128906 2.640625 -38.828125 L 7.265625 -41.03125 C 9.535156 -35.019531 12.207031 -30.269531 15.28125 -26.78125 C 18.363281 -23.300781 22.144531 -21.5625 26.625 -21.5625 C 30.507812 -21.5625 33.769531 -22.660156 36.40625 -24.859375 C 39.050781 -27.054688 40.375 -30.285156 40.375 -34.546875 C 40.375 -37.109375 39.75 -38.957031 38.5 -40.09375 C 37.25 -41.226562 35.378906 -41.796875 32.890625 -41.796875 C 31.054688 -41.796875 29.296875 -41.519531 27.609375 -40.96875 C 25.921875 -40.425781 24.125 -39.640625 22.21875 -38.609375 L 18.046875 -47.1875 C 20.171875 -48.144531 22.1875 -48.894531 24.09375 -49.4375 C 26 -49.988281 27.941406 -50.265625 29.921875 -50.265625 C 33.003906 -50.265625 35.660156 -49.476562 37.890625 -47.90625 C 40.128906 -46.332031 41.984375 -44.476562 43.453125 -42.34375 C 44.398438 -40.957031 45.257812 -39.492188 46.03125 -37.953125 C 46.800781 -36.410156 47.332031 -34.832031 47.625 -33.21875 C 49.164062 -33.363281 50.742188 -33.765625 52.359375 -34.421875 C 53.972656 -35.085938 55.441406 -35.894531 56.765625 -36.84375 L 56.765625 -61.046875 L 0 -61.046875 L -4.40625 -67.3125 L -4.40625 -68.53125 L 74.359375 -68.53125 L 78.765625 -62.046875 L 78.765625 -61.046875 L 65.015625 -61.046875 L 65.015625 0.65625 L 63.90625 0.65625 L 56.765625 -4.625 L 56.765625 -28.484375 C 55.953125 -28.265625 54.941406 -28.082031 53.734375 -27.9375 C 52.523438 -27.789062 51.367188 -27.71875 50.265625 -27.71875 C 49.390625 -27.71875 48.507812 -27.789062 47.625 -27.9375 C 47.039062 -23.394531 45.132812 -19.894531 41.90625 -17.4375 C 38.675781 -14.976562 34.570312 -13.75 29.59375 -13.75 Z M 29.59375 -13.75 "/>
</symbol>
<symbol overflow="visible" id="devanagari-matra-position:devanagari-matra-position:id2:glyph0-2">
<path style="stroke:none;" d="M 18.921875 29.046875 C 15.109375 24.273438 11.988281 20.75 9.5625 18.46875 C 7.144531 16.195312 5.070312 14.695312 3.34375 13.96875 C 1.625 13.238281 -0.148438 12.875 -1.984375 12.875 C -4.546875 12.875 -6.78125 13.238281 -8.6875 13.96875 L -11.328125 5.828125 C -9.347656 5.097656 -7.148438 4.734375 -4.734375 4.734375 C -2.378906 4.734375 -0.285156 5.023438 1.546875 5.609375 C 3.378906 6.191406 5.25 7.253906 7.15625 8.796875 C 9.0625 10.335938 11.222656 12.535156 13.640625 15.390625 C 16.054688 18.253906 19.023438 21.960938 22.546875 26.515625 Z M 18.921875 29.046875 "/>
</symbol>
<symbol overflow="visible" id="devanagari-matra-position:devanagari-matra-position:id2:glyph0-3">
<path style="stroke:none;" d=""/>
</symbol>
<symbol overflow="visible" id="devanagari-matra-position:devanagari-matra-position:id2:glyph0-4">
<path style="stroke:none;" d="M 16.609375 0.65625 L 9.453125 -4.625 L 9.453125 -61.046875 L 0 -61.046875 L -4.40625 -67.4375 L -4.40625 -68.53125 L 11.21875 -68.53125 C 9.457031 -70.363281 8.0625 -72.488281 7.03125 -74.90625 C 6.007812 -77.332031 5.5 -79.753906 5.5 -82.171875 C 5.5 -87.378906 7.734375 -91.519531 12.203125 -94.59375 C 16.679688 -97.675781 22.914062 -99.21875 30.90625 -99.21875 C 37.4375 -99.21875 44.332031 -98.460938 51.59375 -96.953125 C 58.851562 -95.453125 66.238281 -93.289062 73.75 -90.46875 C 81.269531 -87.644531 88.710938 -84.253906 96.078125 -80.296875 C 103.453125 -76.335938 110.515625 -71.863281 117.265625 -66.875 L 109.234375 -66.875 C 103.585938 -70.613281 97.609375 -74.003906 91.296875 -77.046875 C 84.992188 -80.097656 78.578125 -82.6875 72.046875 -84.8125 C 65.523438 -86.9375 59.128906 -88.582031 52.859375 -89.75 C 46.585938 -90.925781 40.664062 -91.515625 35.09375 -91.515625 C 28.414062 -91.515625 23.078125 -90.304688 19.078125 -87.890625 C 15.085938 -85.472656 13.09375 -81.914062 13.09375 -77.21875 C 13.09375 -74.207031 13.898438 -71.3125 15.515625 -68.53125 L 27.0625 -68.53125 L 31.453125 -62.046875 L 31.453125 -61.046875 L 17.703125 -61.046875 L 17.703125 0.65625 Z M 16.609375 0.65625 "/>
</symbol>
<symbol overflow="visible" id="devanagari-matra-position:devanagari-matra-position:id2:glyph0-5">
<path style="stroke:none;" d="M 0 -61.046875 L -4.40625 -67.3125 L -4.40625 -68.53125 L 57.53125 -68.53125 L 61.9375 -62.046875 L 61.9375 -61.046875 Z M 29.59375 -13.75 C 23.570312 -13.75 18.289062 -16.003906 13.75 -20.515625 C 9.207031 -25.023438 5.503906 -31.128906 2.640625 -38.828125 L 7.265625 -41.03125 C 9.535156 -35.019531 12.207031 -30.269531 15.28125 -26.78125 C 18.363281 -23.300781 22.144531 -21.5625 26.625 -21.5625 C 30.507812 -21.5625 33.769531 -22.660156 36.40625 -24.859375 C 39.050781 -27.054688 40.375 -30.285156 40.375 -34.546875 C 40.375 -37.109375 39.75 -38.957031 38.5 -40.09375 C 37.25 -41.226562 35.378906 -41.796875 32.890625 -41.796875 C 31.054688 -41.796875 29.296875 -41.519531 27.609375 -40.96875 C 25.921875 -40.425781 24.125 -39.640625 22.21875 -38.609375 L 18.046875 -47.1875 C 20.171875 -48.144531 22.1875 -48.894531 24.09375 -49.4375 C 26 -49.988281 27.941406 -50.265625 29.921875 -50.265625 C 33.003906 -50.265625 35.660156 -49.476562 37.890625 -47.90625 C 40.128906 -46.332031 41.984375 -44.476562 43.453125 -42.34375 C 44.398438 -40.957031 45.257812 -39.492188 46.03125 -37.953125 C 46.800781 -36.410156 47.332031 -34.796875 47.625 -33.109375 C 50.195312 -33.179688 52.835938 -33.820312 55.546875 -35.03125 C 58.265625 -36.238281 60.578125 -37.757812 62.484375 -39.59375 L 65.125 -30.6875 C 60.9375 -28.707031 56.351562 -27.71875 51.375 -27.71875 C 50.125 -27.71875 48.875 -27.789062 47.625 -27.9375 C 47.113281 -23.394531 45.222656 -19.894531 41.953125 -17.4375 C 38.691406 -14.976562 34.570312 -13.75 29.59375 -13.75 Z M 29.59375 -13.75 "/>
</symbol>
<symbol overflow="visible" id="devanagari-matra-position:devanagari-matra-position:id2:glyph0-6">
<path style="stroke:none;" d="M 28.375 -7.15625 L 22.109375 -12.65625 L 37.625 -25.515625 C 35.863281 -26.472656 33.992188 -26.953125 32.015625 -26.953125 C 27.535156 -26.953125 23.71875 -25.628906 20.5625 -22.984375 C 17.414062 -20.347656 15.84375 -16.753906 15.84375 -12.203125 C 15.84375 -9.929688 16.425781 -7.566406 17.59375 -5.109375 C 18.769531 -2.660156 20.769531 -0.316406 23.59375 1.921875 C 26.414062 4.160156 30.320312 6.125 35.3125 7.8125 L 32.5625 11.984375 C 24.863281 9.273438 18.773438 5.535156 14.296875 0.765625 C 9.828125 -3.992188 7.59375 -9.492188 7.59375 -15.734375 C 7.59375 -18.148438 8.066406 -20.421875 9.015625 -22.546875 C 9.972656 -24.671875 11.296875 -26.539062 12.984375 -28.15625 C 11.078125 -29.695312 9.550781 -31.421875 8.40625 -33.328125 C 7.269531 -35.234375 6.703125 -37.25 6.703125 -39.375 C 6.703125 -43.707031 8.332031 -46.828125 11.59375 -48.734375 C 14.863281 -50.640625 18.847656 -51.59375 23.546875 -51.59375 C 25.816406 -51.59375 27.957031 -51.535156 29.96875 -51.421875 C 31.988281 -51.316406 33.878906 -51.15625 35.640625 -50.9375 L 35.640625 -61.046875 L 0 -61.046875 L -4.40625 -67.3125 L -4.40625 -68.53125 L 52.796875 -68.53125 L 57.203125 -62.046875 L 57.203125 -61.046875 L 43.890625 -61.046875 L 43.890625 -44.65625 C 42.492188 -44.800781 40.546875 -44.925781 38.046875 -45.03125 C 35.554688 -45.144531 33.03125 -45.203125 30.46875 -45.203125 C 24.3125 -45.203125 20.078125 -44.34375 17.765625 -42.625 C 15.453125 -40.90625 14.296875 -38.867188 14.296875 -36.515625 C 14.296875 -34.460938 15.175781 -32.664062 16.9375 -31.125 C 20.238281 -33.03125 23.867188 -33.984375 27.828125 -33.984375 C 30.398438 -33.984375 32.800781 -33.503906 35.03125 -32.546875 C 37.269531 -31.597656 39.234375 -30.484375 40.921875 -29.203125 C 42.609375 -27.921875 43.925781 -26.726562 44.875 -25.625 C 46.34375 -23.9375 47.585938 -22.066406 48.609375 -20.015625 C 49.640625 -17.960938 50.15625 -15.726562 50.15625 -13.3125 L 50.15625 2.53125 L 49.0625 2.53125 L 42.796875 -1.984375 L 42.796875 -17.59375 C 42.796875 -18.332031 42.679688 -19.03125 42.453125 -19.6875 Z M 28.375 -7.15625 "/>
</symbol>
</g>
</defs>
  <g id="devanagari-matra-position:devanagari-matra-position:id0:id0" transform="matrix(1.25,0,0,1.25,0.0,0.0)"><g id="devanagari-matra-position:devanagari-matra-position:id0:surface1">
<g style="fill:rgb(0%,0%,0%);fill-opacity:1;">
  <use xlink:href="#devanagari-matra-position:devanagari-matra-position:id0:glyph0-1" x="16" y="104.296875" class="c0"/>
  <use xlink:href="#devanagari-matra-position:devanagari-matra-position:id0:glyph0-2" x="43.0625" y="104.296875" class="dc"/>
  <use xlink:href="#devanagari-matra-position:devanagari-matra-position:id0:glyph0-3" x="108.625" y="104.296875" class="c1"/>
  <use xlink:href="#devanagari-matra-position:devanagari-matra-position:id0:glyph0-4" x="173.640625" y="104.296875" class="c2"/>
  <use xlink:href="#devanagari-matra-position:devanagari-matra-position:id0:glyph0-5" x="182.984375" y="104.296875" class="c3"/>
  <use xlink:href="#devanagari-matra-position:devanagari-matra-position:id0:glyph0-6" x="182.984375" y="104.296875" class="c4"/>
  <use xlink:href="#devanagari-matra-position:devanagari-matra-position:id0:glyph0-7" x="237.09375" y="104.296875" class="c5"/>
</g>
</g>
</g>
  <g id="devanagari-matra-position:devanagari-matra-position:id1:id1" transform="matrix(1.25,0,0,1.25,382.36328125,8.701171875)"><g id="devanagari-matra-position:devanagari-matra-position:id1:surface1">
<g style="fill:rgb(0%,0%,0%);fill-opacity:1;">
  <use xlink:href="#devanagari-matra-position:devanagari-matra-position:id1:glyph0-1" x="0" y="120.84375" class="arrow"/>
</g>
</g>
</g>
  <g id="devanagari-matra-position:devanagari-matra-position:id2:id2" transform="matrix(1.25,0,0,1.25,514.9609375,0.0)"><g id="devanagari-matra-position:devanagari-matra-position:id2:surface1">
<g style="fill:rgb(0%,0%,0%);fill-opacity:1;">
  <use xlink:href="#devanagari-matra-position:devanagari-matra-position:id2:glyph0-1" x="16" y="104.296875" class="c1"/>
  <use xlink:href="#devanagari-matra-position:devanagari-matra-position:id2:glyph0-2" x="81.015625" y="104.296875" class="c2"/>
  <use xlink:href="#devanagari-matra-position:devanagari-matra-position:id2:glyph0-3" x="90.359375" y="104.296875" class="c0"/>
  <use xlink:href="#devanagari-matra-position:devanagari-matra-position:id2:glyph0-4" x="90.359375" y="104.296875" class="c3"/>
  <use xlink:href="#devanagari-matra-position:devanagari-matra-position:id2:glyph0-5" x="117.421875" y="104.296875" class="c4"/>
  <use xlink:href="#devanagari-matra-position:devanagari-matra-position:id2:glyph0-6" x="171.53125" y="104.296875" class="c5"/>
</g>
</g>
</g>
</svg>
