<!DOCTYPE svg PUBLIC "-//W3C//DTD SVG 1.1//EN" "http://www.w3.org/Graphics/SVG/1.1/DTD/svg11.dtd">
<!-- Created with svg_stack (http://github.com/astraw/svg_stack) --><svg xmlns="http://www.w3.org/2000/svg" xmlns:sodipodi="http://sodipodi.sourceforge.net/DTD/sodipodi-0.dtd" xmlns:xlink="http://www.w3.org/1999/xlink" version="1.1" width="342.12890625" height="218.80859375" id="devanagari-blws">
  <defs><g>
<symbol overflow="visible" id="devanagari-blws:devanagari-blws:id0:glyph0-0">
<path style="stroke:none;" d="M 10.234375 0 L 10.234375 -78.546875 L 55.328125 -78.546875 L 55.328125 0 Z M 15.84375 -5.609375 L 49.828125 -5.609375 L 49.828125 -72.9375 L 15.84375 -72.9375 Z M 15.84375 -5.609375 "/>
</symbol>
<symbol overflow="visible" id="devanagari-blws:devanagari-blws:id0:glyph0-1">
<path style="stroke:none;" d="M 32.5625 11.984375 C 24.863281 9.273438 18.773438 5.535156 14.296875 0.765625 C 9.828125 -3.992188 7.59375 -9.492188 7.59375 -15.734375 C 7.59375 -18.148438 8.066406 -20.421875 9.015625 -22.546875 C 9.972656 -24.671875 11.296875 -26.539062 12.984375 -28.15625 C 11.078125 -29.695312 9.550781 -31.421875 8.40625 -33.328125 C 7.269531 -35.234375 6.703125 -37.25 6.703125 -39.375 C 6.703125 -43.707031 8.332031 -46.828125 11.59375 -48.734375 C 14.863281 -50.640625 18.847656 -51.59375 23.546875 -51.59375 C 25.597656 -51.59375 27.503906 -51.535156 29.265625 -51.421875 C 31.023438 -51.316406 32.785156 -51.15625 34.546875 -50.9375 L 34.546875 -61.046875 L 0 -61.046875 L -4.40625 -67.3125 L -4.40625 -68.53125 L 51.8125 -68.53125 L 56.203125 -62.046875 L 56.203125 -61.046875 L 42.90625 -61.046875 L 42.90625 -44.65625 C 41.507812 -44.800781 39.597656 -44.925781 37.171875 -45.03125 C 34.753906 -45.144531 32.519531 -45.203125 30.46875 -45.203125 C 24.3125 -45.203125 20.078125 -44.34375 17.765625 -42.625 C 15.453125 -40.90625 14.296875 -38.867188 14.296875 -36.515625 C 14.296875 -34.460938 15.175781 -32.664062 16.9375 -31.125 C 20.238281 -33.03125 23.867188 -33.984375 27.828125 -33.984375 C 31.492188 -33.984375 34.5 -33.414062 36.84375 -32.28125 C 39.195312 -31.144531 41.101562 -29.84375 42.5625 -28.375 C 44.175781 -26.757812 45.570312 -24.90625 46.75 -22.8125 C 47.925781 -20.726562 48.515625 -18.515625 48.515625 -16.171875 C 48.515625 -13.679688 48 -11.476562 46.96875 -9.5625 C 45.945312 -7.65625 44.40625 -5.675781 42.34375 -3.625 L 34.765625 -9.015625 C 36.296875 -10.265625 37.738281 -11.804688 39.09375 -13.640625 C 40.457031 -15.472656 41.140625 -17.414062 41.140625 -19.46875 C 41.140625 -22.113281 40.203125 -24.019531 38.328125 -25.1875 C 36.460938 -26.363281 34.359375 -26.953125 32.015625 -26.953125 C 27.535156 -26.953125 23.71875 -25.628906 20.5625 -22.984375 C 17.414062 -20.347656 15.84375 -16.753906 15.84375 -12.203125 C 15.84375 -9.929688 16.425781 -7.566406 17.59375 -5.109375 C 18.769531 -2.660156 20.769531 -0.316406 23.59375 1.921875 C 26.414062 4.160156 30.320312 6.125 35.3125 7.8125 Z M 32.5625 11.984375 "/>
</symbol>
<symbol overflow="visible" id="devanagari-blws:devanagari-blws:id0:glyph0-2">
<path style="stroke:none;" d="M -4.296875 40.265625 C -6.492188 40.265625 -8.4375 39.804688 -10.125 38.890625 C -11.8125 37.972656 -13.347656 36.890625 -14.734375 35.640625 C -17.671875 32.921875 -19.140625 30.0625 -19.140625 27.0625 C -19.140625 26.101562 -19.03125 25.222656 -18.8125 24.421875 C -19.832031 23.984375 -20.742188 23.46875 -21.546875 22.875 C -22.359375 22.289062 -23.023438 21.742188 -23.546875 21.234375 C -25.148438 19.765625 -26.300781 18.273438 -27 16.765625 C -27.695312 15.265625 -28.046875 13.632812 -28.046875 11.875 C -28.046875 8.425781 -26.875 5.582031 -24.53125 3.34375 C -22.1875 1.113281 -19.070312 -0.660156 -15.1875 -1.984375 L -8.578125 3.953125 C -12.609375 5.273438 -15.722656 6.816406 -17.921875 8.578125 C -20.128906 10.335938 -21.234375 12.425781 -21.234375 14.84375 C -21.234375 16.019531 -20.8125 17.03125 -19.96875 17.875 C -19.125 18.71875 -17.859375 19.210938 -16.171875 19.359375 C -14.992188 18.179688 -13.539062 17.097656 -11.8125 16.109375 C -10.09375 15.117188 -8.171875 14.148438 -6.046875 13.203125 L 0.4375 19.140625 C -3.59375 20.972656 -6.722656 22.625 -8.953125 24.09375 C -11.191406 25.5625 -12.3125 27.539062 -12.3125 30.03125 C -12.3125 31.207031 -11.78125 32.085938 -10.71875 32.671875 C -9.65625 33.253906 -8.503906 33.546875 -7.265625 33.546875 C -5.285156 33.546875 -3.285156 33.101562 -1.265625 32.21875 C 0.753906 31.34375 2.457031 30.320312 3.84375 29.15625 L 9.796875 34.765625 C 7.367188 36.671875 5 38.0625 2.6875 38.9375 C 0.382812 39.820312 -1.941406 40.265625 -4.296875 40.265625 Z M -4.296875 40.265625 "/>
</symbol>
</g>
<g>
<symbol overflow="visible" id="devanagari-blws:devanagari-blws:id1:glyph0-0">
<path style="stroke:none;" d="M 5.375 -96.6875 L 69.828125 -96.6875 L 69.828125 0 L 5.375 0 Z M 8.0625 -2.6875 L 67.140625 -2.6875 L 67.140625 -94 L 8.0625 -94 Z M 8.0625 -2.6875 "/>
</symbol>
<symbol overflow="visible" id="devanagari-blws:devanagari-blws:id1:glyph0-1">
<path style="stroke:none;" d="M 68.15625 -13.75 L 66.28125 -18.640625 L 88.09375 -27.390625 L 6.984375 -27.390625 L 6.984375 -34 L 88.09375 -34 L 66.28125 -42.75 L 68.15625 -47.640625 L 99.09375 -34.265625 L 99.09375 -27.125 Z M 68.15625 -13.75 "/>
</symbol>
</g>
<g>
<symbol overflow="visible" id="devanagari-blws:devanagari-blws:id2:glyph0-0">
<path style="stroke:none;" d="M 10.234375 0 L 10.234375 -78.546875 L 55.328125 -78.546875 L 55.328125 0 Z M 15.84375 -5.609375 L 49.828125 -5.609375 L 49.828125 -72.9375 L 15.84375 -72.9375 Z M 15.84375 -5.609375 "/>
</symbol>
<symbol overflow="visible" id="devanagari-blws:devanagari-blws:id2:glyph0-1">
<path style="stroke:none;" d="M 25.625 9.796875 C 19.90625 6.566406 15.46875 2.789062 12.3125 -1.53125 C 9.164062 -5.863281 7.59375 -10.597656 7.59375 -15.734375 C 7.59375 -18.148438 8.066406 -20.421875 9.015625 -22.546875 C 9.972656 -24.671875 11.296875 -26.539062 12.984375 -28.15625 C 11.078125 -29.695312 9.550781 -31.421875 8.40625 -33.328125 C 7.269531 -35.234375 6.703125 -37.25 6.703125 -39.375 C 6.703125 -43.707031 8.332031 -46.828125 11.59375 -48.734375 C 14.863281 -50.640625 18.847656 -51.59375 23.546875 -51.59375 C 25.597656 -51.59375 27.503906 -51.535156 29.265625 -51.421875 C 31.023438 -51.316406 32.785156 -51.15625 34.546875 -50.9375 L 34.546875 -61.046875 L 0 -61.046875 L -4.40625 -67.3125 L -4.40625 -68.53125 L 51.703125 -68.53125 L 56.09375 -62.046875 L 56.09375 -61.046875 L 42.90625 -61.046875 L 42.90625 -44.65625 C 41.507812 -44.800781 39.597656 -44.925781 37.171875 -45.03125 C 34.753906 -45.144531 32.519531 -45.203125 30.46875 -45.203125 C 24.3125 -45.203125 20.078125 -44.34375 17.765625 -42.625 C 15.453125 -40.90625 14.296875 -38.867188 14.296875 -36.515625 C 14.296875 -34.460938 15.175781 -32.703125 16.9375 -31.234375 C 20.164062 -33.066406 23.722656 -33.984375 27.609375 -33.984375 C 30.765625 -33.984375 33.625 -33.320312 36.1875 -32 C 38.757812 -30.6875 40.960938 -29.113281 42.796875 -27.28125 C 45.503906 -24.5625 46.859375 -21.8125 46.859375 -19.03125 C 46.859375 -17.414062 46.398438 -16.09375 45.484375 -15.0625 C 44.566406 -14.039062 43.410156 -13.179688 42.015625 -12.484375 C 40.628906 -11.785156 39.238281 -11.144531 37.84375 -10.5625 C 36.445312 -9.976562 35.289062 -9.335938 34.375 -8.640625 C 33.457031 -7.941406 33 -7.078125 33 -6.046875 C 33 -4.578125 33.914062 -3.441406 35.75 -2.640625 C 37.070312 -3.960938 38.722656 -5.117188 40.703125 -6.109375 C 42.679688 -7.097656 44.878906 -7.957031 47.296875 -8.6875 L 50.9375 -1.875 C 47.5625 -0.695312 44.753906 0.601562 42.515625 2.03125 C 40.273438 3.46875 39.15625 5.101562 39.15625 6.9375 C 39.15625 7.957031 39.519531 8.707031 40.25 9.1875 C 40.988281 9.664062 41.835938 9.90625 42.796875 9.90625 C 44.253906 9.90625 45.769531 9.644531 47.34375 9.125 C 48.925781 8.613281 50.394531 7.988281 51.75 7.25 C 53.113281 6.519531 54.125 5.863281 54.78125 5.28125 L 58.40625 12.546875 C 54.300781 15.109375 50.269531 16.390625 46.3125 16.390625 C 44.625 16.390625 43.046875 16.019531 41.578125 15.28125 C 40.109375 14.550781 38.679688 13.5625 37.296875 12.3125 C 34.359375 9.601562 32.890625 6.929688 32.890625 4.296875 C 32.890625 3.410156 33 2.566406 33.21875 1.765625 C 30.875 0.296875 28.929688 -1.40625 27.390625 -3.34375 C 25.847656 -5.289062 25.078125 -7.253906 25.078125 -9.234375 C 25.078125 -10.992188 25.535156 -12.425781 26.453125 -13.53125 C 27.367188 -14.632812 28.523438 -15.550781 29.921875 -16.28125 C 31.316406 -17.007812 32.707031 -17.664062 34.09375 -18.25 C 35.488281 -18.84375 36.644531 -19.46875 37.5625 -20.125 C 38.476562 -20.789062 38.9375 -21.597656 38.9375 -22.546875 C 38.9375 -23.796875 38.3125 -24.84375 37.0625 -25.6875 C 35.820312 -26.53125 34.03125 -26.953125 31.6875 -26.953125 C 27.132812 -26.953125 23.351562 -25.554688 20.34375 -22.765625 C 17.34375 -19.984375 15.84375 -16.460938 15.84375 -12.203125 C 15.84375 -9.273438 16.757812 -6.269531 18.59375 -3.1875 C 20.425781 -0.101562 23.648438 2.828125 28.265625 5.609375 Z M 25.625 9.796875 "/>
</symbol>
</g>
</defs>
  <g id="devanagari-blws:devanagari-blws:id0:id0" transform="matrix(1.25,0,0,1.25,0.0,0.0)"><g id="devanagari-blws:devanagari-blws:id0:surface1">
<g style="fill:rgb(0%,0%,0%);fill-opacity:1;">
  <use xlink:href="#devanagari-blws:devanagari-blws:id0:glyph0-1" x="16" y="104.296875" class="c0"/>
  <use xlink:href="#devanagari-blws:devanagari-blws:id0:glyph0-2" x="61.875" y="113.53125" class="c1"/>
</g>
</g>
</g>
  <g id="devanagari-blws:devanagari-blws:id1:id1" transform="matrix(1.25,0,0,1.25,104.765625,8.701171875)"><g id="devanagari-blws:devanagari-blws:id1:surface1">
<g style="fill:rgb(0%,0%,0%);fill-opacity:1;">
  <use xlink:href="#devanagari-blws:devanagari-blws:id1:glyph0-1" x="0" y="120.84375" class="arrow"/>
</g>
</g>
</g>
  <g id="devanagari-blws:devanagari-blws:id2:id2" transform="matrix(1.25,0,0,1.25,237.36328125,0.0)"><g id="devanagari-blws:devanagari-blws:id2:surface1">
<g style="fill:rgb(0%,0%,0%);fill-opacity:1;">
  <use xlink:href="#devanagari-blws:devanagari-blws:id2:glyph0-1" x="16" y="104.296875" class="c2"/>
</g>
</g>
</g>
</svg>
