<!DOCTYPE svg PUBLIC "-//W3C//DTD SVG 1.1//EN" "http://www.w3.org/Graphics/SVG/1.1/DTD/svg11.dtd">
<!-- Created with svg_stack (http://github.com/astraw/svg_stack) --><svg xmlns="http://www.w3.org/2000/svg" xmlns:sodipodi="http://sodipodi.sourceforge.net/DTD/sodipodi-0.dtd" xmlns:xlink="http://www.w3.org/1999/xlink" version="1.1" width="100%" id="devanagari-psts" viewBox="0 0 479.62890625 218.80859375">
  <defs><g>
<symbol overflow="visible" id="devanagari-psts:devanagari-psts:id0:glyph0-0">
<path style="stroke:none;" d="M 10.234375 0 L 10.234375 -78.546875 L 55.328125 -78.546875 L 55.328125 0 Z M 15.84375 -5.609375 L 49.828125 -5.609375 L 49.828125 -72.9375 L 15.84375 -72.9375 Z M 15.84375 -5.609375 "/>
</symbol>
<symbol overflow="visible" id="devanagari-psts:devanagari-psts:id0:glyph0-1">
<path style="stroke:none;" d="M 29.484375 -19.46875 C 26.617188 -19.46875 24.050781 -20.109375 21.78125 -21.390625 C 19.507812 -22.671875 17.566406 -24.082031 15.953125 -25.625 C 13.679688 -27.832031 12.046875 -29.867188 11.046875 -31.734375 C 10.054688 -33.609375 9.46875 -35.535156 9.28125 -37.515625 C 9.101562 -39.492188 9.015625 -41.726562 9.015625 -44.21875 L 9.015625 -61.046875 L 0 -61.046875 L -4.40625 -67.3125 L -4.40625 -68.53125 L 79.75 -68.53125 L 84.15625 -62.046875 L 84.15625 -61.046875 L 46.96875 -61.046875 L 46.96875 -40.046875 C 48.65625 -41.429688 50.46875 -42.5625 52.40625 -43.4375 C 54.351562 -44.320312 56.425781 -44.765625 58.625 -44.765625 C 61.050781 -44.765625 63.234375 -44.304688 65.171875 -43.390625 C 67.117188 -42.472656 68.863281 -41.242188 70.40625 -39.703125 C 72.09375 -38.097656 73.394531 -36.175781 74.3125 -33.9375 C 75.226562 -31.695312 75.6875 -29.070312 75.6875 -26.0625 C 75.6875 -22.988281 74.929688 -19.835938 73.421875 -16.609375 C 71.921875 -13.378906 70.179688 -10.628906 68.203125 -8.359375 L 60.609375 -13.859375 C 61.785156 -15.253906 62.992188 -16.867188 64.234375 -18.703125 C 65.484375 -20.535156 66.566406 -22.492188 67.484375 -24.578125 C 68.398438 -26.671875 68.859375 -28.816406 68.859375 -31.015625 C 68.859375 -33.066406 68.304688 -34.695312 67.203125 -35.90625 C 66.109375 -37.125 64.644531 -37.734375 62.8125 -37.734375 C 60.90625 -37.734375 59 -37.21875 57.09375 -36.1875 C 55.1875 -35.164062 53.367188 -33.898438 51.640625 -32.390625 C 49.921875 -30.890625 48.363281 -29.40625 46.96875 -27.9375 L 46.96875 0.65625 L 45.875 0.65625 L 38.71875 -4.625 L 38.71875 -22.328125 C 37.46875 -21.523438 36.035156 -20.847656 34.421875 -20.296875 C 32.816406 -19.742188 31.171875 -19.46875 29.484375 -19.46875 Z M 17.375 -36.40625 C 17.375 -33.84375 17.757812 -31.878906 18.53125 -30.515625 C 19.300781 -29.160156 20.289062 -28.242188 21.5 -27.765625 C 22.707031 -27.296875 23.972656 -27.0625 25.296875 -27.0625 C 27.421875 -27.0625 29.675781 -27.570312 32.0625 -28.59375 C 34.445312 -29.625 36.664062 -31.09375 38.71875 -33 L 38.71875 -61.046875 L 17.375 -61.046875 Z M 14.1875 -2.859375 C 10.300781 -2.859375 8.359375 -4.835938 8.359375 -8.796875 C 8.359375 -12.679688 10.300781 -14.625 14.1875 -14.625 C 17.925781 -14.625 19.796875 -12.679688 19.796875 -8.796875 C 19.796875 -4.835938 17.925781 -2.859375 14.1875 -2.859375 Z M 14.1875 -2.859375 "/>
</symbol>
<symbol overflow="visible" id="devanagari-psts:devanagari-psts:id0:glyph0-2">
<path style="stroke:none;" d="M 16.609375 0.65625 L 9.453125 -4.625 L 9.453125 -61.046875 L 0 -61.046875 L -4.40625 -67.3125 L -4.40625 -68.53125 L 12.203125 -68.53125 C 10.148438 -75.28125 7.617188 -80.5625 4.609375 -84.375 C 1.609375 -88.1875 -1.796875 -90.09375 -5.609375 -90.09375 C -8.398438 -90.09375 -10.597656 -89.285156 -12.203125 -87.671875 C -13.816406 -86.054688 -14.625 -83.707031 -14.625 -80.625 C -14.625 -78.570312 -14.09375 -76.28125 -13.03125 -73.75 C -11.96875 -71.21875 -10.519531 -69.035156 -8.6875 -67.203125 L -13.09375 -67.203125 C -14.5625 -68.304688 -16.007812 -69.738281 -17.4375 -71.5 C -18.863281 -73.257812 -20.050781 -75.253906 -21 -77.484375 C -21.957031 -79.722656 -22.4375 -82.054688 -22.4375 -84.484375 C -22.4375 -88.367188 -21.242188 -91.664062 -18.859375 -94.375 C -16.484375 -97.09375 -13.164062 -98.453125 -8.90625 -98.453125 C -5.09375 -98.453125 -1.757812 -97.476562 1.09375 -95.53125 C 3.957031 -93.59375 6.414062 -91.097656 8.46875 -88.046875 C 10.519531 -85.003906 12.242188 -81.757812 13.640625 -78.3125 C 15.035156 -74.875 16.171875 -71.613281 17.046875 -68.53125 L 27.0625 -68.53125 L 31.453125 -62.046875 L 31.453125 -61.046875 L 17.703125 -61.046875 L 17.703125 0.65625 Z M 16.609375 0.65625 "/>
</symbol>
</g>
<g>
<symbol overflow="visible" id="devanagari-psts:devanagari-psts:id1:glyph0-0">
<path style="stroke:none;" d="M 5.375 -96.6875 L 69.828125 -96.6875 L 69.828125 0 L 5.375 0 Z M 8.0625 -2.6875 L 67.140625 -2.6875 L 67.140625 -94 L 8.0625 -94 Z M 8.0625 -2.6875 "/>
</symbol>
<symbol overflow="visible" id="devanagari-psts:devanagari-psts:id1:glyph0-1">
<path style="stroke:none;" d="M 68.15625 -13.75 L 66.28125 -18.640625 L 88.09375 -27.390625 L 6.984375 -27.390625 L 6.984375 -34 L 88.09375 -34 L 66.28125 -42.75 L 68.15625 -47.640625 L 99.09375 -34.265625 L 99.09375 -27.125 Z M 68.15625 -13.75 "/>
</symbol>
</g>
<g>
<symbol overflow="visible" id="devanagari-psts:devanagari-psts:id2:glyph0-0">
<path style="stroke:none;" d="M 10.234375 0 L 10.234375 -78.546875 L 55.328125 -78.546875 L 55.328125 0 Z M 15.84375 -5.609375 L 49.828125 -5.609375 L 49.828125 -72.9375 L 15.84375 -72.9375 Z M 15.84375 -5.609375 "/>
</symbol>
<symbol overflow="visible" id="devanagari-psts:devanagari-psts:id2:glyph0-1">
<path style="stroke:none;" d="M 29.484375 -19.46875 C 26.617188 -19.46875 24.050781 -20.109375 21.78125 -21.390625 C 19.507812 -22.671875 17.566406 -24.082031 15.953125 -25.625 C 13.679688 -27.832031 12.046875 -29.867188 11.046875 -31.734375 C 10.054688 -33.609375 9.46875 -35.535156 9.28125 -37.515625 C 9.101562 -39.492188 9.015625 -41.726562 9.015625 -44.21875 L 9.015625 -61.046875 L 0 -61.046875 L -4.40625 -67.3125 L -4.40625 -68.53125 L 79.75 -68.53125 L 84.15625 -62.046875 L 84.15625 -61.046875 L 46.96875 -61.046875 L 46.96875 -40.046875 C 48.65625 -41.429688 50.46875 -42.5625 52.40625 -43.4375 C 54.351562 -44.320312 56.425781 -44.765625 58.625 -44.765625 C 61.050781 -44.765625 63.234375 -44.304688 65.171875 -43.390625 C 67.117188 -42.472656 68.863281 -41.242188 70.40625 -39.703125 C 72.09375 -38.097656 73.394531 -36.175781 74.3125 -33.9375 C 75.226562 -31.695312 75.6875 -29.070312 75.6875 -26.0625 C 75.6875 -22.988281 74.929688 -19.835938 73.421875 -16.609375 C 71.921875 -13.378906 70.179688 -10.628906 68.203125 -8.359375 L 60.609375 -13.859375 C 61.785156 -15.253906 62.992188 -16.867188 64.234375 -18.703125 C 65.484375 -20.535156 66.566406 -22.492188 67.484375 -24.578125 C 68.398438 -26.671875 68.859375 -28.816406 68.859375 -31.015625 C 68.859375 -33.066406 68.304688 -34.695312 67.203125 -35.90625 C 66.109375 -37.125 64.644531 -37.734375 62.8125 -37.734375 C 60.90625 -37.734375 59 -37.21875 57.09375 -36.1875 C 55.1875 -35.164062 53.367188 -33.898438 51.640625 -32.390625 C 49.921875 -30.890625 48.363281 -29.40625 46.96875 -27.9375 L 46.96875 0.65625 L 45.875 0.65625 L 38.71875 -4.625 L 38.71875 -22.328125 C 37.46875 -21.523438 36.035156 -20.847656 34.421875 -20.296875 C 32.816406 -19.742188 31.171875 -19.46875 29.484375 -19.46875 Z M 17.375 -36.40625 C 17.375 -33.84375 17.757812 -31.878906 18.53125 -30.515625 C 19.300781 -29.160156 20.289062 -28.242188 21.5 -27.765625 C 22.707031 -27.296875 23.972656 -27.0625 25.296875 -27.0625 C 27.421875 -27.0625 29.675781 -27.570312 32.0625 -28.59375 C 34.445312 -29.625 36.664062 -31.09375 38.71875 -33 L 38.71875 -61.046875 L 17.375 -61.046875 Z M 14.1875 -2.859375 C 10.300781 -2.859375 8.359375 -4.835938 8.359375 -8.796875 C 8.359375 -12.679688 10.300781 -14.625 14.1875 -14.625 C 17.925781 -14.625 19.796875 -12.679688 19.796875 -8.796875 C 19.796875 -4.835938 17.925781 -2.859375 14.1875 -2.859375 Z M 14.1875 -2.859375 "/>
</symbol>
<symbol overflow="visible" id="devanagari-psts:devanagari-psts:id2:glyph0-2">
<path style="stroke:none;" d="M 16.609375 0.65625 L 9.453125 -4.625 L 9.453125 -61.046875 L 0 -61.046875 L -4.40625 -67.4375 L -4.40625 -68.53125 L 11.875 -68.53125 C 10.039062 -70.875 7.878906 -73.3125 5.390625 -75.84375 C 2.898438 -78.375 0.148438 -80.71875 -2.859375 -82.875 C -5.867188 -85.039062 -9.054688 -86.785156 -12.421875 -88.109375 C -15.796875 -89.429688 -19.242188 -90.09375 -22.765625 -90.09375 C -27.242188 -90.09375 -30.765625 -89.140625 -33.328125 -87.234375 C -35.898438 -85.328125 -37.1875 -82.648438 -37.1875 -79.203125 C -37.1875 -77.148438 -36.632812 -75.039062 -35.53125 -72.875 C -34.425781 -70.707031 -32.957031 -68.816406 -31.125 -67.203125 L -35.75 -67.203125 C -37.945312 -68.671875 -40.035156 -70.796875 -42.015625 -73.578125 C -43.992188 -76.367188 -44.984375 -79.523438 -44.984375 -83.046875 C -44.984375 -87.597656 -43.222656 -91.300781 -39.703125 -94.15625 C -36.191406 -97.019531 -31.644531 -98.453125 -26.0625 -98.453125 C -21.519531 -98.453125 -17.101562 -97.550781 -12.8125 -95.75 C -8.519531 -93.957031 -4.519531 -91.578125 -0.8125 -88.609375 C 2.882812 -85.640625 6.234375 -82.394531 9.234375 -78.875 C 12.242188 -75.351562 14.773438 -71.90625 16.828125 -68.53125 L 27.0625 -68.53125 L 31.453125 -62.046875 L 31.453125 -61.046875 L 17.703125 -61.046875 L 17.703125 0.65625 Z M 16.609375 0.65625 "/>
</symbol>
</g>
</defs>
  <g id="devanagari-psts:devanagari-psts:id0:id0" transform="matrix(1.25,0,0,1.25,0.0,0.0)"><g id="devanagari-psts:devanagari-psts:id0:surface1">
<g style="fill:rgb(0%,0%,0%);fill-opacity:1;">
  <use xlink:href="#devanagari-psts:devanagari-psts:id0:glyph0-1" x="16" y="104.296875" class="c0"/>
  <use xlink:href="#devanagari-psts:devanagari-psts:id0:glyph0-2" x="95.75" y="104.296875" class="c1"/>
</g>
</g>
</g>
  <g id="devanagari-psts:devanagari-psts:id1:id1" transform="matrix(1.25,0,0,1.25,173.515625,8.701171875)"><g id="devanagari-psts:devanagari-psts:id1:surface1">
<g style="fill:rgb(0%,0%,0%);fill-opacity:1;">
  <use xlink:href="#devanagari-psts:devanagari-psts:id1:glyph0-1" x="0" y="120.84375" class="arrow"/>
</g>
</g>
</g>
  <g id="devanagari-psts:devanagari-psts:id2:id2" transform="matrix(1.25,0,0,1.25,306.11328125,0.0)"><g id="devanagari-psts:devanagari-psts:id2:surface1">
<g style="fill:rgb(0%,0%,0%);fill-opacity:1;">
  <use xlink:href="#devanagari-psts:devanagari-psts:id2:glyph0-1" x="16" y="104.296875" class="c0"/>
  <use xlink:href="#devanagari-psts:devanagari-psts:id2:glyph0-2" x="95.75" y="104.296875" class="c1"/>
</g>
</g>
</g>
</svg>