<?xml version="1.0" standalone="no"?>
<!DOCTYPE svg PUBLIC "-//W3C//DTD SVG 1.1//EN"
 "http://www.w3.org/Graphics/SVG/1.1/DTD/svg11.dtd">
<!-- Created with svg_stack (http://github.com/astraw/svg_stack) -->
<svg xmlns="http://www.w3.org/2000/svg" xmlns:sodipodi="http://sodipodi.sourceforge.net/DTD/sodipodi-0.dtd" xmlns:xlink="http://www.w3.org/1999/xlink" version="1.1" width="656.42578125" height="218.80859375">
  <defs><g>
<symbol overflow="visible" id="id0:glyph0-0">
<path style="stroke:none;" d="M 10.234375 0 L 10.234375 -78.546875 L 55.328125 -78.546875 L 55.328125 0 Z M 15.84375 -5.609375 L 49.828125 -5.609375 L 49.828125 -72.9375 L 15.84375 -72.9375 Z M 15.84375 -5.609375 "/>
</symbol>
<symbol overflow="visible" id="id0:glyph0-1">
<path style="stroke:none;" d="M 32.78125 -53.6875 C 32.050781 -53.6875 31.390625 -53.976562 30.796875 -54.5625 C 30.210938 -55.144531 29.921875 -55.804688 29.921875 -56.546875 C 29.921875 -57.347656 30.210938 -58.023438 30.796875 -58.578125 C 31.390625 -59.128906 32.050781 -59.40625 32.78125 -59.40625 C 33.582031 -59.40625 34.257812 -59.128906 34.8125 -58.578125 C 35.363281 -58.023438 35.640625 -57.347656 35.640625 -56.546875 C 35.640625 -55.804688 35.363281 -55.144531 34.8125 -54.5625 C 34.257812 -53.976562 33.582031 -53.6875 32.78125 -53.6875 Z M 42.015625 -51.703125 C 41.285156 -51.703125 40.625 -51.992188 40.03125 -52.578125 C 39.445312 -53.160156 39.15625 -53.820312 39.15625 -54.5625 C 39.15625 -55.363281 39.445312 -56.039062 40.03125 -56.59375 C 40.625 -57.144531 41.285156 -57.421875 42.015625 -57.421875 C 42.828125 -57.421875 43.503906 -57.144531 44.046875 -56.59375 C 44.597656 -56.039062 44.875 -55.363281 44.875 -54.5625 C 44.875 -53.820312 44.597656 -53.160156 44.046875 -52.578125 C 43.503906 -51.992188 42.828125 -51.703125 42.015625 -51.703125 Z M 23.546875 -51.703125 C 22.804688 -51.703125 22.144531 -51.992188 21.5625 -52.578125 C 20.976562 -53.160156 20.6875 -53.820312 20.6875 -54.5625 C 20.6875 -55.363281 20.976562 -56.039062 21.5625 -56.59375 C 22.144531 -57.144531 22.804688 -57.421875 23.546875 -57.421875 C 24.347656 -57.421875 25.023438 -57.144531 25.578125 -56.59375 C 26.128906 -56.039062 26.40625 -55.363281 26.40625 -54.5625 C 26.40625 -53.820312 26.128906 -53.160156 25.578125 -52.578125 C 25.023438 -51.992188 24.347656 -51.703125 23.546875 -51.703125 Z M 50.15625 -46.53125 C 49.425781 -46.53125 48.765625 -46.820312 48.171875 -47.40625 C 47.585938 -48 47.296875 -48.660156 47.296875 -49.390625 C 47.296875 -50.191406 47.585938 -50.867188 48.171875 -51.421875 C 48.765625 -51.972656 49.425781 -52.25 50.15625 -52.25 C 50.96875 -52.25 51.644531 -51.972656 52.1875 -51.421875 C 52.738281 -50.867188 53.015625 -50.191406 53.015625 -49.390625 C 53.015625 -48.660156 52.738281 -48 52.1875 -47.40625 C 51.644531 -46.820312 50.96875 -46.53125 50.15625 -46.53125 Z M 15.40625 -46.53125 C 14.664062 -46.53125 14.003906 -46.820312 13.421875 -47.40625 C 12.835938 -48 12.546875 -48.660156 12.546875 -49.390625 C 12.546875 -50.191406 12.835938 -50.867188 13.421875 -51.421875 C 14.003906 -51.972656 14.664062 -52.25 15.40625 -52.25 C 16.207031 -52.25 16.882812 -51.972656 17.4375 -51.421875 C 17.988281 -50.867188 18.265625 -50.191406 18.265625 -49.390625 C 18.265625 -48.660156 17.988281 -48 17.4375 -47.40625 C 16.882812 -46.820312 16.207031 -46.53125 15.40625 -46.53125 Z M 55.328125 -38.390625 C 54.597656 -38.390625 53.9375 -38.679688 53.34375 -39.265625 C 52.757812 -39.859375 52.46875 -40.519531 52.46875 -41.25 C 52.46875 -42.050781 52.757812 -42.726562 53.34375 -43.28125 C 53.9375 -43.832031 54.597656 -44.109375 55.328125 -44.109375 C 56.140625 -44.109375 56.816406 -43.832031 57.359375 -43.28125 C 57.910156 -42.726562 58.1875 -42.050781 58.1875 -41.25 C 58.1875 -40.519531 57.910156 -39.859375 57.359375 -39.265625 C 56.816406 -38.679688 56.140625 -38.390625 55.328125 -38.390625 Z M 10.234375 -38.390625 C 9.492188 -38.390625 8.832031 -38.679688 8.25 -39.265625 C 7.664062 -39.859375 7.375 -40.519531 7.375 -41.25 C 7.375 -42.050781 7.664062 -42.726562 8.25 -43.28125 C 8.832031 -43.832031 9.492188 -44.109375 10.234375 -44.109375 C 11.035156 -44.109375 11.710938 -43.832031 12.265625 -43.28125 C 12.816406 -42.726562 13.09375 -42.050781 13.09375 -41.25 C 13.09375 -40.519531 12.816406 -39.859375 12.265625 -39.265625 C 11.710938 -38.679688 11.035156 -38.390625 10.234375 -38.390625 Z M 57.3125 -29.15625 C 56.570312 -29.15625 55.910156 -29.445312 55.328125 -30.03125 C 54.742188 -30.613281 54.453125 -31.273438 54.453125 -32.015625 C 54.453125 -32.816406 54.742188 -33.492188 55.328125 -34.046875 C 55.910156 -34.597656 56.570312 -34.875 57.3125 -34.875 C 58.113281 -34.875 58.789062 -34.597656 59.34375 -34.046875 C 59.894531 -33.492188 60.171875 -32.816406 60.171875 -32.015625 C 60.171875 -31.273438 59.894531 -30.613281 59.34375 -30.03125 C 58.789062 -29.445312 58.113281 -29.15625 57.3125 -29.15625 Z M 8.25 -29.15625 C 7.519531 -29.15625 6.859375 -29.445312 6.265625 -30.03125 C 5.679688 -30.613281 5.390625 -31.273438 5.390625 -32.015625 C 5.390625 -32.816406 5.679688 -33.492188 6.265625 -34.046875 C 6.859375 -34.597656 7.519531 -34.875 8.25 -34.875 C 9.050781 -34.875 9.726562 -34.597656 10.28125 -34.046875 C 10.832031 -33.492188 11.109375 -32.816406 11.109375 -32.015625 C 11.109375 -31.273438 10.832031 -30.613281 10.28125 -30.03125 C 9.726562 -29.445312 9.050781 -29.15625 8.25 -29.15625 Z M 55.328125 -19.90625 C 54.597656 -19.90625 53.9375 -20.195312 53.34375 -20.78125 C 52.757812 -21.375 52.46875 -22.035156 52.46875 -22.765625 C 52.46875 -23.578125 52.757812 -24.253906 53.34375 -24.796875 C 53.9375 -25.347656 54.597656 -25.625 55.328125 -25.625 C 56.140625 -25.625 56.816406 -25.347656 57.359375 -24.796875 C 57.910156 -24.253906 58.1875 -23.578125 58.1875 -22.765625 C 58.1875 -22.035156 57.910156 -21.375 57.359375 -20.78125 C 56.816406 -20.195312 56.140625 -19.90625 55.328125 -19.90625 Z M 10.234375 -19.90625 C 9.492188 -19.90625 8.832031 -20.195312 8.25 -20.78125 C 7.664062 -21.375 7.375 -22.035156 7.375 -22.765625 C 7.375 -23.578125 7.664062 -24.253906 8.25 -24.796875 C 8.832031 -25.347656 9.492188 -25.625 10.234375 -25.625 C 11.035156 -25.625 11.710938 -25.347656 12.265625 -24.796875 C 12.816406 -24.253906 13.09375 -23.578125 13.09375 -22.765625 C 13.09375 -22.035156 12.816406 -21.375 12.265625 -20.78125 C 11.710938 -20.195312 11.035156 -19.90625 10.234375 -19.90625 Z M 50.15625 -11.765625 C 49.425781 -11.765625 48.765625 -12.054688 48.171875 -12.640625 C 47.585938 -13.234375 47.296875 -13.894531 47.296875 -14.625 C 47.296875 -15.4375 47.585938 -16.113281 48.171875 -16.65625 C 48.765625 -17.207031 49.425781 -17.484375 50.15625 -17.484375 C 50.96875 -17.484375 51.644531 -17.207031 52.1875 -16.65625 C 52.738281 -16.113281 53.015625 -15.4375 53.015625 -14.625 C 53.015625 -13.894531 52.738281 -13.234375 52.1875 -12.640625 C 51.644531 -12.054688 50.96875 -11.765625 50.15625 -11.765625 Z M 15.40625 -11.765625 C 14.664062 -11.765625 14.003906 -12.054688 13.421875 -12.640625 C 12.835938 -13.234375 12.546875 -13.894531 12.546875 -14.625 C 12.546875 -15.4375 12.835938 -16.113281 13.421875 -16.65625 C 14.003906 -17.207031 14.664062 -17.484375 15.40625 -17.484375 C 16.207031 -17.484375 16.882812 -17.207031 17.4375 -16.65625 C 17.988281 -16.113281 18.265625 -15.4375 18.265625 -14.625 C 18.265625 -13.894531 17.988281 -13.234375 17.4375 -12.640625 C 16.882812 -12.054688 16.207031 -11.765625 15.40625 -11.765625 Z M 42.015625 -6.59375 C 41.285156 -6.59375 40.625 -6.882812 40.03125 -7.46875 C 39.445312 -8.0625 39.15625 -8.722656 39.15625 -9.453125 C 39.15625 -10.265625 39.445312 -10.941406 40.03125 -11.484375 C 40.625 -12.035156 41.285156 -12.3125 42.015625 -12.3125 C 42.828125 -12.3125 43.503906 -12.035156 44.046875 -11.484375 C 44.597656 -10.941406 44.875 -10.265625 44.875 -9.453125 C 44.875 -8.722656 44.597656 -8.0625 44.046875 -7.46875 C 43.503906 -6.882812 42.828125 -6.59375 42.015625 -6.59375 Z M 23.546875 -6.59375 C 22.804688 -6.59375 22.144531 -6.882812 21.5625 -7.46875 C 20.976562 -8.0625 20.6875 -8.722656 20.6875 -9.453125 C 20.6875 -10.265625 20.976562 -10.941406 21.5625 -11.484375 C 22.144531 -12.035156 22.804688 -12.3125 23.546875 -12.3125 C 24.347656 -12.3125 25.023438 -12.035156 25.578125 -11.484375 C 26.128906 -10.941406 26.40625 -10.265625 26.40625 -9.453125 C 26.40625 -8.722656 26.128906 -8.0625 25.578125 -7.46875 C 25.023438 -6.882812 24.347656 -6.59375 23.546875 -6.59375 Z M 32.78125 -4.625 C 32.050781 -4.625 31.390625 -4.914062 30.796875 -5.5 C 30.210938 -6.082031 29.921875 -6.742188 29.921875 -7.484375 C 29.921875 -8.285156 30.210938 -8.960938 30.796875 -9.515625 C 31.390625 -10.066406 32.050781 -10.34375 32.78125 -10.34375 C 33.582031 -10.34375 34.257812 -10.066406 34.8125 -9.515625 C 35.363281 -8.960938 35.640625 -8.285156 35.640625 -7.484375 C 35.640625 -6.742188 35.363281 -6.082031 34.8125 -5.5 C 34.257812 -4.914062 33.582031 -4.625 32.78125 -4.625 Z M 32.78125 -4.625 "/>
</symbol>
<symbol overflow="visible" id="id0:glyph0-2">
<path style="stroke:none;" d="M -9.453125 -67.65625 L -13.75 -67.65625 C -16.238281 -70.800781 -18.195312 -73.800781 -19.625 -76.65625 C -21.0625 -79.519531 -21.78125 -82.53125 -21.78125 -85.6875 C -21.78125 -89.0625 -20.695312 -91.863281 -18.53125 -94.09375 C -16.375 -96.332031 -13.5 -97.453125 -9.90625 -97.453125 C -6.457031 -97.453125 -3.664062 -96.570312 -1.53125 -94.8125 C 0.59375 -93.0625 2.273438 -91.117188 3.515625 -88.984375 L 1.3125 -87.125 C 0.21875 -88.144531 -0.988281 -88.910156 -2.3125 -89.421875 C -3.632812 -89.941406 -4.953125 -90.203125 -6.265625 -90.203125 C -8.765625 -90.203125 -10.765625 -89.375 -12.265625 -87.71875 C -13.765625 -86.070312 -14.515625 -83.851562 -14.515625 -81.0625 C -14.515625 -78.71875 -14.019531 -76.375 -13.03125 -74.03125 C -12.039062 -71.6875 -10.847656 -69.5625 -9.453125 -67.65625 Z M -9.453125 -67.65625 "/>
</symbol>
<symbol overflow="visible" id="id0:glyph0-3">
<path style="stroke:none;" d="M 30.140625 -15.953125 C 25.742188 -15.953125 21.835938 -16.941406 18.421875 -18.921875 C 15.015625 -20.898438 12.0625 -23.554688 9.5625 -26.890625 C 7.070312 -30.234375 4.984375 -33.882812 3.296875 -37.84375 C 8.066406 -39.457031 11.753906 -41.507812 14.359375 -44 C 16.960938 -46.488281 18.265625 -49.164062 18.265625 -52.03125 C 18.265625 -54.007812 17.859375 -55.734375 17.046875 -57.203125 C 16.242188 -58.671875 15.363281 -59.953125 14.40625 -61.046875 L -0.328125 -61.046875 L -4.625 -67.3125 L -4.625 -68.53125 L 44.328125 -68.53125 L 48.734375 -62.046875 L 48.734375 -61.046875 L 20.5625 -61.046875 C 22.03125 -59.210938 23.367188 -57.160156 24.578125 -54.890625 C 25.796875 -52.617188 26.40625 -50.382812 26.40625 -48.1875 C 26.40625 -44.8125 25.46875 -42.054688 23.59375 -39.921875 C 21.726562 -37.796875 18.960938 -35.453125 15.296875 -32.890625 C 14.335938 -32.234375 13.859375 -31.460938 13.859375 -30.578125 C 13.859375 -29.035156 14.957031 -27.492188 17.15625 -25.953125 C 18.257812 -25.222656 19.582031 -24.640625 21.125 -24.203125 C 22.664062 -23.765625 24.351562 -23.546875 26.1875 -23.546875 C 29.851562 -23.546875 33.148438 -24.367188 36.078125 -26.015625 C 39.015625 -27.660156 41.507812 -29.695312 43.5625 -32.125 L 48.734375 -24.96875 C 46.453125 -22.113281 43.734375 -19.894531 40.578125 -18.3125 C 37.429688 -16.738281 33.953125 -15.953125 30.140625 -15.953125 Z M 30.140625 -15.953125 "/>
</symbol>
<symbol overflow="visible" id="id0:glyph0-4">
<path style="stroke:none;" d="M 0 -61.046875 L -4.40625 -67.3125 L -4.40625 -68.53125 L 53.453125 -68.53125 L 57.75 -62.046875 L 57.75 -61.046875 Z M 29.375 0.875 C 27.164062 -0.664062 24.707031 -2.660156 22 -5.109375 C 19.289062 -7.566406 16.6875 -10.351562 14.1875 -13.46875 C 11.695312 -16.59375 9.625 -19.953125 7.96875 -23.546875 C 6.320312 -27.140625 5.5 -30.804688 5.5 -34.546875 C 5.5 -37.910156 6.210938 -40.726562 7.640625 -43 C 9.078125 -45.28125 10.96875 -47.023438 13.3125 -48.234375 C 15.65625 -49.441406 18.222656 -50.046875 21.015625 -50.046875 C 23.941406 -50.046875 26.578125 -49.457031 28.921875 -48.28125 C 31.273438 -47.113281 33.40625 -45.613281 35.3125 -43.78125 C 38.6875 -47.375 42.898438 -49.171875 47.953125 -49.171875 C 51.035156 -49.171875 53.640625 -48.691406 55.765625 -47.734375 C 57.890625 -46.785156 59.796875 -45.46875 61.484375 -43.78125 L 59.296875 -40.59375 C 58.265625 -41.394531 57.125 -42.015625 55.875 -42.453125 C 54.632812 -42.898438 53.171875 -43.125 51.484375 -43.125 C 47.671875 -43.125 44.679688 -41.675781 42.515625 -38.78125 C 40.347656 -35.882812 39.265625 -32.160156 39.265625 -27.609375 C 39.265625 -25.554688 39.375 -23.796875 39.59375 -22.328125 L 30.578125 -24.859375 C 30.429688 -25.960938 30.335938 -26.84375 30.296875 -27.5 C 30.265625 -28.15625 30.25 -28.960938 30.25 -29.921875 C 30.25 -33.660156 31.019531 -37 32.5625 -39.9375 C 30.4375 -41.175781 28.234375 -41.796875 25.953125 -41.796875 C 22.878906 -41.796875 20.222656 -40.785156 17.984375 -38.765625 C 15.742188 -36.753906 14.625 -33.914062 14.625 -30.25 C 14.625 -24.675781 16.347656 -19.707031 19.796875 -15.34375 C 23.242188 -10.976562 27.570312 -6.851562 32.78125 -2.96875 Z M 29.375 0.875 "/>
</symbol>
<symbol overflow="visible" id="id0:glyph0-5">
<path style="stroke:none;" d="M 18.8125 5.171875 L 12.4375 -0.328125 L 43.5625 -26.734375 L 43.5625 -28.046875 C 41.945312 -28.191406 39.269531 -28.316406 35.53125 -28.421875 C 31.789062 -28.535156 27.71875 -28.59375 23.3125 -28.59375 C 23.019531 -28.59375 22.707031 -28.59375 22.375 -28.59375 C 22.050781 -28.59375 21.707031 -28.59375 21.34375 -28.59375 L 21.34375 -23.65625 C 21.34375 -21.96875 20.9375 -20.703125 20.125 -19.859375 C 19.320312 -19.015625 18.222656 -18.59375 16.828125 -18.59375 C 14.992188 -18.59375 13.175781 -19.25 11.375 -20.5625 C 9.582031 -21.882812 8.097656 -23.515625 6.921875 -25.453125 C 5.753906 -27.398438 5.171875 -29.363281 5.171875 -31.34375 C 5.171875 -33.625 5.957031 -35.109375 7.53125 -35.796875 C 9.113281 -36.492188 10.96875 -36.878906 13.09375 -36.953125 L 13.09375 -61.046875 L 0 -61.046875 L -4.40625 -67.3125 L -4.40625 -68.53125 L 61.15625 -68.53125 L 65.5625 -62.046875 L 65.5625 -61.046875 L 51.8125 -61.046875 L 51.8125 0.65625 L 50.703125 0.65625 L 43.5625 -4.625 L 43.5625 -16.71875 Z M 21.34375 -36.84375 C 26.476562 -36.625 31.113281 -36.238281 35.25 -35.6875 C 39.394531 -35.144531 42.164062 -34.765625 43.5625 -34.546875 L 43.5625 -61.046875 L 21.34375 -61.046875 Z M 21.34375 -36.84375 "/>
</symbol>
</g>
<g>
<symbol overflow="visible" id="id1:glyph0-0">
<path style="stroke:none;" d="M 5.375 -96.6875 L 69.828125 -96.6875 L 69.828125 0 L 5.375 0 Z M 8.0625 -2.6875 L 67.140625 -2.6875 L 67.140625 -94 L 8.0625 -94 Z M 8.0625 -2.6875 "/>
</symbol>
<symbol overflow="visible" id="id1:glyph0-1">
<path style="stroke:none;" d="M 68.15625 -13.75 L 66.28125 -18.640625 L 88.09375 -27.390625 L 6.984375 -27.390625 L 6.984375 -34 L 88.09375 -34 L 66.28125 -42.75 L 68.15625 -47.640625 L 99.09375 -34.265625 L 99.09375 -27.125 Z M 68.15625 -13.75 "/>
</symbol>
</g>
<g>
<symbol overflow="visible" id="id2:glyph0-0">
<path style="stroke:none;" d="M 10.234375 0 L 10.234375 -78.546875 L 55.328125 -78.546875 L 55.328125 0 Z M 15.84375 -5.609375 L 49.828125 -5.609375 L 49.828125 -72.9375 L 15.84375 -72.9375 Z M 15.84375 -5.609375 "/>
</symbol>
<symbol overflow="visible" id="id2:glyph0-1">
<path style="stroke:none;" d="M 30.140625 -15.953125 C 25.742188 -15.953125 21.835938 -16.941406 18.421875 -18.921875 C 15.015625 -20.898438 12.0625 -23.554688 9.5625 -26.890625 C 7.070312 -30.234375 4.984375 -33.882812 3.296875 -37.84375 C 8.066406 -39.457031 11.753906 -41.507812 14.359375 -44 C 16.960938 -46.488281 18.265625 -49.164062 18.265625 -52.03125 C 18.265625 -54.007812 17.859375 -55.734375 17.046875 -57.203125 C 16.242188 -58.671875 15.363281 -59.953125 14.40625 -61.046875 L -0.328125 -61.046875 L -4.625 -67.3125 L -4.625 -68.53125 L 44.328125 -68.53125 L 48.734375 -62.046875 L 48.734375 -61.046875 L 20.5625 -61.046875 C 22.03125 -59.210938 23.367188 -57.160156 24.578125 -54.890625 C 25.796875 -52.617188 26.40625 -50.382812 26.40625 -48.1875 C 26.40625 -44.8125 25.46875 -42.054688 23.59375 -39.921875 C 21.726562 -37.796875 18.960938 -35.453125 15.296875 -32.890625 C 14.335938 -32.234375 13.859375 -31.460938 13.859375 -30.578125 C 13.859375 -29.035156 14.957031 -27.492188 17.15625 -25.953125 C 18.257812 -25.222656 19.582031 -24.640625 21.125 -24.203125 C 22.664062 -23.765625 24.351562 -23.546875 26.1875 -23.546875 C 29.851562 -23.546875 33.148438 -24.367188 36.078125 -26.015625 C 39.015625 -27.660156 41.507812 -29.695312 43.5625 -32.125 L 48.734375 -24.96875 C 46.453125 -22.113281 43.734375 -19.894531 40.578125 -18.3125 C 37.429688 -16.738281 33.953125 -15.953125 30.140625 -15.953125 Z M 30.140625 -15.953125 "/>
</symbol>
<symbol overflow="visible" id="id2:glyph0-2">
<path style="stroke:none;" d="M 0 -61.046875 L -4.40625 -67.3125 L -4.40625 -68.53125 L 53.453125 -68.53125 L 57.75 -62.046875 L 57.75 -61.046875 Z M 29.375 0.875 C 27.164062 -0.664062 24.707031 -2.660156 22 -5.109375 C 19.289062 -7.566406 16.6875 -10.351562 14.1875 -13.46875 C 11.695312 -16.59375 9.625 -19.953125 7.96875 -23.546875 C 6.320312 -27.140625 5.5 -30.804688 5.5 -34.546875 C 5.5 -37.910156 6.210938 -40.726562 7.640625 -43 C 9.078125 -45.28125 10.96875 -47.023438 13.3125 -48.234375 C 15.65625 -49.441406 18.222656 -50.046875 21.015625 -50.046875 C 23.941406 -50.046875 26.578125 -49.457031 28.921875 -48.28125 C 31.273438 -47.113281 33.40625 -45.613281 35.3125 -43.78125 C 38.6875 -47.375 42.898438 -49.171875 47.953125 -49.171875 C 51.035156 -49.171875 53.640625 -48.691406 55.765625 -47.734375 C 57.890625 -46.785156 59.796875 -45.46875 61.484375 -43.78125 L 59.296875 -40.59375 C 58.265625 -41.394531 57.125 -42.015625 55.875 -42.453125 C 54.632812 -42.898438 53.171875 -43.125 51.484375 -43.125 C 47.671875 -43.125 44.679688 -41.675781 42.515625 -38.78125 C 40.347656 -35.882812 39.265625 -32.160156 39.265625 -27.609375 C 39.265625 -25.554688 39.375 -23.796875 39.59375 -22.328125 L 30.578125 -24.859375 C 30.429688 -25.960938 30.335938 -26.84375 30.296875 -27.5 C 30.265625 -28.15625 30.25 -28.960938 30.25 -29.921875 C 30.25 -33.660156 31.019531 -37 32.5625 -39.9375 C 30.4375 -41.175781 28.234375 -41.796875 25.953125 -41.796875 C 22.878906 -41.796875 20.222656 -40.785156 17.984375 -38.765625 C 15.742188 -36.753906 14.625 -33.914062 14.625 -30.25 C 14.625 -24.675781 16.347656 -19.707031 19.796875 -15.34375 C 23.242188 -10.976562 27.570312 -6.851562 32.78125 -2.96875 Z M 29.375 0.875 "/>
</symbol>
<symbol overflow="visible" id="id2:glyph0-3">
<path style="stroke:none;" d="M 18.8125 5.171875 L 12.4375 -0.328125 L 43.5625 -26.734375 L 43.5625 -28.046875 C 41.945312 -28.191406 39.269531 -28.316406 35.53125 -28.421875 C 31.789062 -28.535156 27.71875 -28.59375 23.3125 -28.59375 C 23.019531 -28.59375 22.707031 -28.59375 22.375 -28.59375 C 22.050781 -28.59375 21.707031 -28.59375 21.34375 -28.59375 L 21.34375 -23.65625 C 21.34375 -21.96875 20.9375 -20.703125 20.125 -19.859375 C 19.320312 -19.015625 18.222656 -18.59375 16.828125 -18.59375 C 14.992188 -18.59375 13.175781 -19.25 11.375 -20.5625 C 9.582031 -21.882812 8.097656 -23.515625 6.921875 -25.453125 C 5.753906 -27.398438 5.171875 -29.363281 5.171875 -31.34375 C 5.171875 -33.625 5.957031 -35.109375 7.53125 -35.796875 C 9.113281 -36.492188 10.96875 -36.878906 13.09375 -36.953125 L 13.09375 -61.046875 L 0 -61.046875 L -4.40625 -67.3125 L -4.40625 -68.53125 L 61.15625 -68.53125 L 65.5625 -62.046875 L 65.5625 -61.046875 L 51.8125 -61.046875 L 51.8125 0.65625 L 50.703125 0.65625 L 43.5625 -4.625 L 43.5625 -16.71875 Z M 21.34375 -36.84375 C 26.476562 -36.625 31.113281 -36.238281 35.25 -35.6875 C 39.394531 -35.144531 42.164062 -34.765625 43.5625 -34.546875 L 43.5625 -61.046875 L 21.34375 -61.046875 Z M 21.34375 -36.84375 "/>
</symbol>
<symbol overflow="visible" id="id2:glyph0-4">
<path style="stroke:none;" d="M -9.453125 -67.65625 L -13.75 -67.65625 C -16.238281 -70.800781 -18.195312 -73.800781 -19.625 -76.65625 C -21.0625 -79.519531 -21.78125 -82.53125 -21.78125 -85.6875 C -21.78125 -89.0625 -20.695312 -91.863281 -18.53125 -94.09375 C -16.375 -96.332031 -13.5 -97.453125 -9.90625 -97.453125 C -6.457031 -97.453125 -3.664062 -96.570312 -1.53125 -94.8125 C 0.59375 -93.0625 2.273438 -91.117188 3.515625 -88.984375 L 1.3125 -87.125 C 0.21875 -88.144531 -0.988281 -88.910156 -2.3125 -89.421875 C -3.632812 -89.941406 -4.953125 -90.203125 -6.265625 -90.203125 C -8.765625 -90.203125 -10.765625 -89.375 -12.265625 -87.71875 C -13.765625 -86.070312 -14.515625 -83.851562 -14.515625 -81.0625 C -14.515625 -78.71875 -14.019531 -76.375 -13.03125 -74.03125 C -12.039062 -71.6875 -10.847656 -69.5625 -9.453125 -67.65625 Z M -9.453125 -67.65625 "/>
</symbol>
</g>
</defs>
  <g id="id0:id0" transform="matrix(1.25,0,0,1.25,0.0,0.0)"><g id="id0:surface1">
<g style="fill:rgb(0%,0%,0%);fill-opacity:1;">
  <use xlink:href="#id0:glyph0-1" x="16" y="104.296875"/>
  <use xlink:href="#id0:glyph0-2" x="81.453125" y="104.1875"/>
  <use xlink:href="#id0:glyph0-3" x="81.5625" y="104.296875"/>
  <use xlink:href="#id0:glyph0-4" x="119.0625" y="104.296875"/>
  <use xlink:href="#id0:glyph0-5" x="165.15625" y="104.296875"/>
</g>
</g>
</g>
  <g id="id1:id1" transform="matrix(1.25,0,0,1.25,302.890625,8.701171875)"><g id="id1:surface1">
<g style="fill:rgb(0%,0%,0%);fill-opacity:1;">
  <use xlink:href="#id1:glyph0-1" x="0" y="120.84375"/>
</g>
</g>
</g>
  <g id="id2:id2" transform="matrix(1.25,0,0,1.25,435.48828125,0.0)"><g id="id2:surface1">
<g style="fill:rgb(0%,0%,0%);fill-opacity:1;">
  <use xlink:href="#id2:glyph0-1" x="16" y="104.296875"/>
  <use xlink:href="#id2:glyph0-2" x="53.5" y="104.296875"/>
  <use xlink:href="#id2:glyph0-3" x="99.59375" y="104.296875"/>
  <use xlink:href="#id2:glyph0-4" x="160.53125" y="104.1875"/>
</g>
</g>
</g>
</svg>
