<!DOCTYPE svg PUBLIC "-//W3C//DTD SVG 1.1//EN" "http://www.w3.org/Graphics/SVG/1.1/DTD/svg11.dtd">
<!-- Created with svg_stack (http://github.com/astraw/svg_stack) --><svg xmlns="http://www.w3.org/2000/svg" xmlns:sodipodi="http://sodipodi.sourceforge.net/DTD/sodipodi-0.dtd" xmlns:xlink="http://www.w3.org/1999/xlink" version="1.1" width="100%" id="kannada-psts" viewBox="0 0 543.7109375 227.734375">
  <defs><g>
<symbol overflow="visible" id="kannada-psts:id0:glyph0-0">
<path style="stroke:none;" d="M 10.453125 0 L 10.453125 -78.546875 L 55.65625 -78.546875 L 55.65625 0 Z M 16.0625 -5.609375 L 50.046875 -5.609375 L 50.046875 -72.9375 L 16.0625 -72.9375 Z M 16.0625 -5.609375 "/>
</symbol>
<symbol overflow="visible" id="kannada-psts:id0:glyph0-1">
<path style="stroke:none;" d="M 32.671875 -53.6875 C 31.929688 -53.6875 31.269531 -53.976562 30.6875 -54.5625 C 30.101562 -55.144531 29.8125 -55.804688 29.8125 -56.546875 C 29.8125 -57.347656 30.101562 -58.023438 30.6875 -58.578125 C 31.269531 -59.128906 31.929688 -59.40625 32.671875 -59.40625 C 33.472656 -59.40625 34.148438 -59.128906 34.703125 -58.578125 C 35.253906 -58.023438 35.53125 -57.347656 35.53125 -56.546875 C 35.53125 -55.804688 35.253906 -55.144531 34.703125 -54.5625 C 34.148438 -53.976562 33.472656 -53.6875 32.671875 -53.6875 Z M 41.90625 -51.703125 C 41.175781 -51.703125 40.515625 -51.992188 39.921875 -52.578125 C 39.335938 -53.160156 39.046875 -53.820312 39.046875 -54.5625 C 39.046875 -55.363281 39.335938 -56.039062 39.921875 -56.59375 C 40.515625 -57.144531 41.175781 -57.421875 41.90625 -57.421875 C 42.71875 -57.421875 43.394531 -57.144531 43.9375 -56.59375 C 44.488281 -56.039062 44.765625 -55.363281 44.765625 -54.5625 C 44.765625 -53.820312 44.488281 -53.160156 43.9375 -52.578125 C 43.394531 -51.992188 42.71875 -51.703125 41.90625 -51.703125 Z M 23.4375 -51.703125 C 22.695312 -51.703125 22.03125 -51.992188 21.4375 -52.578125 C 20.851562 -53.160156 20.5625 -53.820312 20.5625 -54.5625 C 20.5625 -55.363281 20.851562 -56.039062 21.4375 -56.59375 C 22.03125 -57.144531 22.695312 -57.421875 23.4375 -57.421875 C 24.238281 -57.421875 24.914062 -57.144531 25.46875 -56.59375 C 26.019531 -56.039062 26.296875 -55.363281 26.296875 -54.5625 C 26.296875 -53.820312 26.019531 -53.160156 25.46875 -52.578125 C 24.914062 -51.992188 24.238281 -51.703125 23.4375 -51.703125 Z M 50.046875 -46.53125 C 49.316406 -46.53125 48.65625 -46.820312 48.0625 -47.40625 C 47.476562 -48 47.1875 -48.660156 47.1875 -49.390625 C 47.1875 -50.191406 47.476562 -50.867188 48.0625 -51.421875 C 48.65625 -51.972656 49.316406 -52.25 50.046875 -52.25 C 50.859375 -52.25 51.535156 -51.972656 52.078125 -51.421875 C 52.628906 -50.867188 52.90625 -50.191406 52.90625 -49.390625 C 52.90625 -48.660156 52.628906 -48 52.078125 -47.40625 C 51.535156 -46.820312 50.859375 -46.53125 50.046875 -46.53125 Z M 15.296875 -46.53125 C 14.554688 -46.53125 13.894531 -46.820312 13.3125 -47.40625 C 12.726562 -48 12.4375 -48.660156 12.4375 -49.390625 C 12.4375 -50.191406 12.726562 -50.867188 13.3125 -51.421875 C 13.894531 -51.972656 14.554688 -52.25 15.296875 -52.25 C 16.097656 -52.25 16.773438 -51.972656 17.328125 -51.421875 C 17.878906 -50.867188 18.15625 -50.191406 18.15625 -49.390625 C 18.15625 -48.660156 17.878906 -48 17.328125 -47.40625 C 16.773438 -46.820312 16.097656 -46.53125 15.296875 -46.53125 Z M 55.21875 -38.390625 C 54.488281 -38.390625 53.828125 -38.679688 53.234375 -39.265625 C 52.648438 -39.859375 52.359375 -40.519531 52.359375 -41.25 C 52.359375 -42.050781 52.648438 -42.726562 53.234375 -43.28125 C 53.828125 -43.832031 54.488281 -44.109375 55.21875 -44.109375 C 56.03125 -44.109375 56.707031 -43.832031 57.25 -43.28125 C 57.800781 -42.726562 58.078125 -42.050781 58.078125 -41.25 C 58.078125 -40.519531 57.800781 -39.859375 57.25 -39.265625 C 56.707031 -38.679688 56.03125 -38.390625 55.21875 -38.390625 Z M 10.125 -38.390625 C 9.382812 -38.390625 8.722656 -38.679688 8.140625 -39.265625 C 7.554688 -39.859375 7.265625 -40.519531 7.265625 -41.25 C 7.265625 -42.050781 7.554688 -42.726562 8.140625 -43.28125 C 8.722656 -43.832031 9.382812 -44.109375 10.125 -44.109375 C 10.925781 -44.109375 11.601562 -43.832031 12.15625 -43.28125 C 12.707031 -42.726562 12.984375 -42.050781 12.984375 -41.25 C 12.984375 -40.519531 12.707031 -39.859375 12.15625 -39.265625 C 11.601562 -38.679688 10.925781 -38.390625 10.125 -38.390625 Z M 57.203125 -29.15625 C 56.460938 -29.15625 55.800781 -29.445312 55.21875 -30.03125 C 54.632812 -30.613281 54.34375 -31.273438 54.34375 -32.015625 C 54.34375 -32.816406 54.632812 -33.492188 55.21875 -34.046875 C 55.800781 -34.597656 56.460938 -34.875 57.203125 -34.875 C 58.003906 -34.875 58.679688 -34.597656 59.234375 -34.046875 C 59.785156 -33.492188 60.0625 -32.816406 60.0625 -32.015625 C 60.0625 -31.273438 59.785156 -30.613281 59.234375 -30.03125 C 58.679688 -29.445312 58.003906 -29.15625 57.203125 -29.15625 Z M 8.140625 -29.15625 C 7.410156 -29.15625 6.75 -29.445312 6.15625 -30.03125 C 5.570312 -30.613281 5.28125 -31.273438 5.28125 -32.015625 C 5.28125 -32.816406 5.570312 -33.492188 6.15625 -34.046875 C 6.75 -34.597656 7.410156 -34.875 8.140625 -34.875 C 8.941406 -34.875 9.617188 -34.597656 10.171875 -34.046875 C 10.722656 -33.492188 11 -32.816406 11 -32.015625 C 11 -31.273438 10.722656 -30.613281 10.171875 -30.03125 C 9.617188 -29.445312 8.941406 -29.15625 8.140625 -29.15625 Z M 55.21875 -19.90625 C 54.488281 -19.90625 53.828125 -20.195312 53.234375 -20.78125 C 52.648438 -21.375 52.359375 -22.035156 52.359375 -22.765625 C 52.359375 -23.578125 52.648438 -24.253906 53.234375 -24.796875 C 53.828125 -25.347656 54.488281 -25.625 55.21875 -25.625 C 56.03125 -25.625 56.707031 -25.347656 57.25 -24.796875 C 57.800781 -24.253906 58.078125 -23.578125 58.078125 -22.765625 C 58.078125 -22.035156 57.800781 -21.375 57.25 -20.78125 C 56.707031 -20.195312 56.03125 -19.90625 55.21875 -19.90625 Z M 10.125 -19.90625 C 9.382812 -19.90625 8.722656 -20.195312 8.140625 -20.78125 C 7.554688 -21.375 7.265625 -22.035156 7.265625 -22.765625 C 7.265625 -23.578125 7.554688 -24.253906 8.140625 -24.796875 C 8.722656 -25.347656 9.382812 -25.625 10.125 -25.625 C 10.925781 -25.625 11.601562 -25.347656 12.15625 -24.796875 C 12.707031 -24.253906 12.984375 -23.578125 12.984375 -22.765625 C 12.984375 -22.035156 12.707031 -21.375 12.15625 -20.78125 C 11.601562 -20.195312 10.925781 -19.90625 10.125 -19.90625 Z M 50.046875 -11.765625 C 49.316406 -11.765625 48.65625 -12.054688 48.0625 -12.640625 C 47.476562 -13.234375 47.1875 -13.894531 47.1875 -14.625 C 47.1875 -15.4375 47.476562 -16.113281 48.0625 -16.65625 C 48.65625 -17.207031 49.316406 -17.484375 50.046875 -17.484375 C 50.859375 -17.484375 51.535156 -17.207031 52.078125 -16.65625 C 52.628906 -16.113281 52.90625 -15.4375 52.90625 -14.625 C 52.90625 -13.894531 52.628906 -13.234375 52.078125 -12.640625 C 51.535156 -12.054688 50.859375 -11.765625 50.046875 -11.765625 Z M 15.296875 -11.765625 C 14.554688 -11.765625 13.894531 -12.054688 13.3125 -12.640625 C 12.726562 -13.234375 12.4375 -13.894531 12.4375 -14.625 C 12.4375 -15.4375 12.726562 -16.113281 13.3125 -16.65625 C 13.894531 -17.207031 14.554688 -17.484375 15.296875 -17.484375 C 16.097656 -17.484375 16.773438 -17.207031 17.328125 -16.65625 C 17.878906 -16.113281 18.15625 -15.4375 18.15625 -14.625 C 18.15625 -13.894531 17.878906 -13.234375 17.328125 -12.640625 C 16.773438 -12.054688 16.097656 -11.765625 15.296875 -11.765625 Z M 41.90625 -6.59375 C 41.175781 -6.59375 40.515625 -6.882812 39.921875 -7.46875 C 39.335938 -8.0625 39.046875 -8.722656 39.046875 -9.453125 C 39.046875 -10.265625 39.335938 -10.941406 39.921875 -11.484375 C 40.515625 -12.035156 41.175781 -12.3125 41.90625 -12.3125 C 42.71875 -12.3125 43.394531 -12.035156 43.9375 -11.484375 C 44.488281 -10.941406 44.765625 -10.265625 44.765625 -9.453125 C 44.765625 -8.722656 44.488281 -8.0625 43.9375 -7.46875 C 43.394531 -6.882812 42.71875 -6.59375 41.90625 -6.59375 Z M 23.4375 -6.59375 C 22.695312 -6.59375 22.03125 -6.882812 21.4375 -7.46875 C 20.851562 -8.0625 20.5625 -8.722656 20.5625 -9.453125 C 20.5625 -10.265625 20.851562 -10.941406 21.4375 -11.484375 C 22.03125 -12.035156 22.695312 -12.3125 23.4375 -12.3125 C 24.238281 -12.3125 24.914062 -12.035156 25.46875 -11.484375 C 26.019531 -10.941406 26.296875 -10.265625 26.296875 -9.453125 C 26.296875 -8.722656 26.019531 -8.0625 25.46875 -7.46875 C 24.914062 -6.882812 24.238281 -6.59375 23.4375 -6.59375 Z M 32.671875 -4.625 C 31.929688 -4.625 31.269531 -4.914062 30.6875 -5.5 C 30.101562 -6.082031 29.8125 -6.742188 29.8125 -7.484375 C 29.8125 -8.285156 30.101562 -8.960938 30.6875 -9.515625 C 31.269531 -10.066406 31.929688 -10.34375 32.671875 -10.34375 C 33.472656 -10.34375 34.148438 -10.066406 34.703125 -9.515625 C 35.253906 -8.960938 35.53125 -8.285156 35.53125 -7.484375 C 35.53125 -6.742188 35.253906 -6.082031 34.703125 -5.5 C 34.148438 -4.914062 33.472656 -4.625 32.671875 -4.625 Z M 32.671875 -4.625 "/>
</symbol>
<symbol overflow="visible" id="kannada-psts:id0:glyph0-2">
<path style="stroke:none;" d="M 34.203125 1.203125 C 29.003906 1.203125 24.570312 0.453125 20.90625 -1.046875 C 17.238281 -2.546875 14.265625 -4.5625 11.984375 -7.09375 C 9.710938 -9.625 8.0625 -12.390625 7.03125 -15.390625 C 6.007812 -18.398438 5.5 -21.410156 5.5 -24.421875 C 5.5 -25.222656 5.515625 -25.988281 5.546875 -26.71875 C 5.585938 -27.457031 5.679688 -28.304688 5.828125 -29.265625 L 10.125 -29.265625 C 10.195312 -25.816406 10.984375 -22.550781 12.484375 -19.46875 C 13.984375 -16.382812 16.472656 -13.90625 19.953125 -12.03125 C 23.441406 -10.164062 28.117188 -9.234375 33.984375 -9.234375 C 40.953125 -9.234375 46.140625 -10.703125 49.546875 -13.640625 C 52.960938 -16.578125 54.671875 -20.207031 54.671875 -24.53125 C 54.671875 -26.582031 54.359375 -28.414062 53.734375 -30.03125 C 53.109375 -31.644531 52.210938 -33.070312 51.046875 -34.3125 C 50.453125 -30.28125 48.796875 -27.054688 46.078125 -24.640625 C 43.367188 -22.222656 39.851562 -21.015625 35.53125 -21.015625 C 31.132812 -21.015625 27.578125 -22.054688 24.859375 -24.140625 C 22.148438 -26.234375 20.796875 -29.003906 20.796875 -32.453125 C 20.796875 -35.898438 22.207031 -38.648438 25.03125 -40.703125 C 27.851562 -42.753906 31.753906 -43.78125 36.734375 -43.78125 C 39.523438 -43.78125 42.203125 -43.414062 44.765625 -42.6875 C 43.960938 -44.664062 42.753906 -46.3125 41.140625 -47.625 C 39.523438 -48.945312 37.765625 -49.9375 35.859375 -50.59375 L 5.609375 -50.59375 L 6.375 -60.171875 L 41.03125 -60.171875 C 44.695312 -60.171875 47.410156 -60.367188 49.171875 -60.765625 C 50.929688 -61.171875 52.320312 -61.816406 53.34375 -62.703125 C 55.03125 -64.171875 55.875 -66.296875 55.875 -69.078125 C 55.875 -73.328125 53.859375 -77.582031 49.828125 -81.84375 L 53.796875 -84.8125 C 56.285156 -82.164062 58.207031 -79.300781 59.5625 -76.21875 C 60.914062 -73.144531 61.59375 -69.921875 61.59375 -66.546875 C 61.59375 -64.566406 61.351562 -62.585938 60.875 -60.609375 C 60.40625 -58.628906 59.328125 -56.867188 57.640625 -55.328125 C 56.390625 -54.078125 54.773438 -53.03125 52.796875 -52.1875 C 50.816406 -51.351562 47.847656 -50.859375 43.890625 -50.703125 C 45.648438 -49.460938 47.148438 -47.90625 48.390625 -46.03125 C 49.640625 -44.164062 50.488281 -42.207031 50.9375 -40.15625 C 54.226562 -38.25 56.828125 -35.695312 58.734375 -32.5 C 60.640625 -29.3125 61.59375 -25.703125 61.59375 -21.671875 C 61.59375 -17.492188 60.566406 -13.660156 58.515625 -10.171875 C 56.460938 -6.691406 53.421875 -3.925781 49.390625 -1.875 C 45.359375 0.175781 40.296875 1.203125 34.203125 1.203125 Z M 27.5 -33.546875 C 27.5 -31.929688 28.234375 -30.644531 29.703125 -29.6875 C 31.171875 -28.738281 33.003906 -28.265625 35.203125 -28.265625 C 38.273438 -28.265625 40.800781 -29.144531 42.78125 -30.90625 C 44.769531 -32.664062 45.765625 -34.941406 45.765625 -37.734375 C 43.117188 -38.753906 40.109375 -39.265625 36.734375 -39.265625 C 33.585938 -39.265625 31.257812 -38.734375 29.75 -37.671875 C 28.25 -36.609375 27.5 -35.234375 27.5 -33.546875 Z M 27.5 -33.546875 "/>
</symbol>
<symbol overflow="visible" id="kannada-psts:id0:glyph0-3">
<path style="stroke:none;" d="M -26.1875 -57.203125 C -30 -57.203125 -31.90625 -58.960938 -31.90625 -62.484375 C -27.9375 -64.097656 -24.632812 -66.113281 -22 -68.53125 C -19.363281 -70.945312 -18.046875 -74.097656 -18.046875 -77.984375 C -18.046875 -79.742188 -18.300781 -81.359375 -18.8125 -82.828125 C -19.320312 -84.296875 -20.164062 -85.617188 -21.34375 -86.796875 C -20.90625 -85.328125 -20.6875 -83.894531 -20.6875 -82.5 C -20.6875 -78.6875 -21.601562 -75.695312 -23.4375 -73.53125 C -25.269531 -71.375 -28.128906 -70.296875 -32.015625 -70.296875 C -35.609375 -70.296875 -38.519531 -71.484375 -40.75 -73.859375 C -42.988281 -76.242188 -44.109375 -79.34375 -44.109375 -83.15625 C -44.109375 -86.75 -42.894531 -89.898438 -40.46875 -92.609375 C -38.050781 -95.328125 -34.535156 -96.6875 -29.921875 -96.6875 C -26.109375 -96.6875 -22.972656 -95.734375 -20.515625 -93.828125 C -18.054688 -91.921875 -16.203125 -89.425781 -14.953125 -86.34375 C -13.710938 -83.269531 -13.09375 -79.972656 -13.09375 -76.453125 C -13.09375 -72.929688 -13.75 -69.703125 -15.0625 -66.765625 C -16.382812 -63.835938 -18.035156 -61.507812 -20.015625 -59.78125 C -21.992188 -58.0625 -24.050781 -57.203125 -26.1875 -57.203125 Z M -32.34375 -77.875 C -29.988281 -77.875 -28.222656 -78.382812 -27.046875 -79.40625 C -25.878906 -80.4375 -25.296875 -81.796875 -25.296875 -83.484375 C -25.296875 -85.023438 -25.878906 -86.363281 -27.046875 -87.5 C -28.222656 -88.632812 -29.988281 -89.203125 -32.34375 -89.203125 C -34.90625 -89.203125 -36.695312 -88.613281 -37.71875 -87.4375 C -38.75 -86.269531 -39.265625 -85.023438 -39.265625 -83.703125 C -39.265625 -82.097656 -38.734375 -80.722656 -37.671875 -79.578125 C -36.609375 -78.441406 -34.832031 -77.875 -32.34375 -77.875 Z M -32.34375 -77.875 "/>
</symbol>
</g>
<g>
<symbol overflow="visible" id="kannada-psts:id1:glyph0-0">
<path style="stroke:none;" d="M 5.375 -96.6875 L 69.828125 -96.6875 L 69.828125 0 L 5.375 0 Z M 8.0625 -2.6875 L 67.140625 -2.6875 L 67.140625 -94 L 8.0625 -94 Z M 8.0625 -2.6875 "/>
</symbol>
<symbol overflow="visible" id="kannada-psts:id1:glyph0-1">
<path style="stroke:none;" d="M 68.15625 -13.75 L 66.28125 -18.640625 L 88.09375 -27.390625 L 6.984375 -27.390625 L 6.984375 -34 L 88.09375 -34 L 66.28125 -42.75 L 68.15625 -47.640625 L 99.09375 -34.265625 L 99.09375 -27.125 Z M 68.15625 -13.75 "/>
</symbol>
</g>
<g>
<symbol overflow="visible" id="kannada-psts:id2:glyph0-0">
<path style="stroke:none;" d="M 10.453125 0 L 10.453125 -78.546875 L 55.65625 -78.546875 L 55.65625 0 Z M 16.0625 -5.609375 L 50.046875 -5.609375 L 50.046875 -72.9375 L 16.0625 -72.9375 Z M 16.0625 -5.609375 "/>
</symbol>
<symbol overflow="visible" id="kannada-psts:id2:glyph0-1">
<path style="stroke:none;" d="M 32.671875 -53.6875 C 31.929688 -53.6875 31.269531 -53.976562 30.6875 -54.5625 C 30.101562 -55.144531 29.8125 -55.804688 29.8125 -56.546875 C 29.8125 -57.347656 30.101562 -58.023438 30.6875 -58.578125 C 31.269531 -59.128906 31.929688 -59.40625 32.671875 -59.40625 C 33.472656 -59.40625 34.148438 -59.128906 34.703125 -58.578125 C 35.253906 -58.023438 35.53125 -57.347656 35.53125 -56.546875 C 35.53125 -55.804688 35.253906 -55.144531 34.703125 -54.5625 C 34.148438 -53.976562 33.472656 -53.6875 32.671875 -53.6875 Z M 41.90625 -51.703125 C 41.175781 -51.703125 40.515625 -51.992188 39.921875 -52.578125 C 39.335938 -53.160156 39.046875 -53.820312 39.046875 -54.5625 C 39.046875 -55.363281 39.335938 -56.039062 39.921875 -56.59375 C 40.515625 -57.144531 41.175781 -57.421875 41.90625 -57.421875 C 42.71875 -57.421875 43.394531 -57.144531 43.9375 -56.59375 C 44.488281 -56.039062 44.765625 -55.363281 44.765625 -54.5625 C 44.765625 -53.820312 44.488281 -53.160156 43.9375 -52.578125 C 43.394531 -51.992188 42.71875 -51.703125 41.90625 -51.703125 Z M 23.4375 -51.703125 C 22.695312 -51.703125 22.03125 -51.992188 21.4375 -52.578125 C 20.851562 -53.160156 20.5625 -53.820312 20.5625 -54.5625 C 20.5625 -55.363281 20.851562 -56.039062 21.4375 -56.59375 C 22.03125 -57.144531 22.695312 -57.421875 23.4375 -57.421875 C 24.238281 -57.421875 24.914062 -57.144531 25.46875 -56.59375 C 26.019531 -56.039062 26.296875 -55.363281 26.296875 -54.5625 C 26.296875 -53.820312 26.019531 -53.160156 25.46875 -52.578125 C 24.914062 -51.992188 24.238281 -51.703125 23.4375 -51.703125 Z M 50.046875 -46.53125 C 49.316406 -46.53125 48.65625 -46.820312 48.0625 -47.40625 C 47.476562 -48 47.1875 -48.660156 47.1875 -49.390625 C 47.1875 -50.191406 47.476562 -50.867188 48.0625 -51.421875 C 48.65625 -51.972656 49.316406 -52.25 50.046875 -52.25 C 50.859375 -52.25 51.535156 -51.972656 52.078125 -51.421875 C 52.628906 -50.867188 52.90625 -50.191406 52.90625 -49.390625 C 52.90625 -48.660156 52.628906 -48 52.078125 -47.40625 C 51.535156 -46.820312 50.859375 -46.53125 50.046875 -46.53125 Z M 15.296875 -46.53125 C 14.554688 -46.53125 13.894531 -46.820312 13.3125 -47.40625 C 12.726562 -48 12.4375 -48.660156 12.4375 -49.390625 C 12.4375 -50.191406 12.726562 -50.867188 13.3125 -51.421875 C 13.894531 -51.972656 14.554688 -52.25 15.296875 -52.25 C 16.097656 -52.25 16.773438 -51.972656 17.328125 -51.421875 C 17.878906 -50.867188 18.15625 -50.191406 18.15625 -49.390625 C 18.15625 -48.660156 17.878906 -48 17.328125 -47.40625 C 16.773438 -46.820312 16.097656 -46.53125 15.296875 -46.53125 Z M 55.21875 -38.390625 C 54.488281 -38.390625 53.828125 -38.679688 53.234375 -39.265625 C 52.648438 -39.859375 52.359375 -40.519531 52.359375 -41.25 C 52.359375 -42.050781 52.648438 -42.726562 53.234375 -43.28125 C 53.828125 -43.832031 54.488281 -44.109375 55.21875 -44.109375 C 56.03125 -44.109375 56.707031 -43.832031 57.25 -43.28125 C 57.800781 -42.726562 58.078125 -42.050781 58.078125 -41.25 C 58.078125 -40.519531 57.800781 -39.859375 57.25 -39.265625 C 56.707031 -38.679688 56.03125 -38.390625 55.21875 -38.390625 Z M 10.125 -38.390625 C 9.382812 -38.390625 8.722656 -38.679688 8.140625 -39.265625 C 7.554688 -39.859375 7.265625 -40.519531 7.265625 -41.25 C 7.265625 -42.050781 7.554688 -42.726562 8.140625 -43.28125 C 8.722656 -43.832031 9.382812 -44.109375 10.125 -44.109375 C 10.925781 -44.109375 11.601562 -43.832031 12.15625 -43.28125 C 12.707031 -42.726562 12.984375 -42.050781 12.984375 -41.25 C 12.984375 -40.519531 12.707031 -39.859375 12.15625 -39.265625 C 11.601562 -38.679688 10.925781 -38.390625 10.125 -38.390625 Z M 57.203125 -29.15625 C 56.460938 -29.15625 55.800781 -29.445312 55.21875 -30.03125 C 54.632812 -30.613281 54.34375 -31.273438 54.34375 -32.015625 C 54.34375 -32.816406 54.632812 -33.492188 55.21875 -34.046875 C 55.800781 -34.597656 56.460938 -34.875 57.203125 -34.875 C 58.003906 -34.875 58.679688 -34.597656 59.234375 -34.046875 C 59.785156 -33.492188 60.0625 -32.816406 60.0625 -32.015625 C 60.0625 -31.273438 59.785156 -30.613281 59.234375 -30.03125 C 58.679688 -29.445312 58.003906 -29.15625 57.203125 -29.15625 Z M 8.140625 -29.15625 C 7.410156 -29.15625 6.75 -29.445312 6.15625 -30.03125 C 5.570312 -30.613281 5.28125 -31.273438 5.28125 -32.015625 C 5.28125 -32.816406 5.570312 -33.492188 6.15625 -34.046875 C 6.75 -34.597656 7.410156 -34.875 8.140625 -34.875 C 8.941406 -34.875 9.617188 -34.597656 10.171875 -34.046875 C 10.722656 -33.492188 11 -32.816406 11 -32.015625 C 11 -31.273438 10.722656 -30.613281 10.171875 -30.03125 C 9.617188 -29.445312 8.941406 -29.15625 8.140625 -29.15625 Z M 55.21875 -19.90625 C 54.488281 -19.90625 53.828125 -20.195312 53.234375 -20.78125 C 52.648438 -21.375 52.359375 -22.035156 52.359375 -22.765625 C 52.359375 -23.578125 52.648438 -24.253906 53.234375 -24.796875 C 53.828125 -25.347656 54.488281 -25.625 55.21875 -25.625 C 56.03125 -25.625 56.707031 -25.347656 57.25 -24.796875 C 57.800781 -24.253906 58.078125 -23.578125 58.078125 -22.765625 C 58.078125 -22.035156 57.800781 -21.375 57.25 -20.78125 C 56.707031 -20.195312 56.03125 -19.90625 55.21875 -19.90625 Z M 10.125 -19.90625 C 9.382812 -19.90625 8.722656 -20.195312 8.140625 -20.78125 C 7.554688 -21.375 7.265625 -22.035156 7.265625 -22.765625 C 7.265625 -23.578125 7.554688 -24.253906 8.140625 -24.796875 C 8.722656 -25.347656 9.382812 -25.625 10.125 -25.625 C 10.925781 -25.625 11.601562 -25.347656 12.15625 -24.796875 C 12.707031 -24.253906 12.984375 -23.578125 12.984375 -22.765625 C 12.984375 -22.035156 12.707031 -21.375 12.15625 -20.78125 C 11.601562 -20.195312 10.925781 -19.90625 10.125 -19.90625 Z M 50.046875 -11.765625 C 49.316406 -11.765625 48.65625 -12.054688 48.0625 -12.640625 C 47.476562 -13.234375 47.1875 -13.894531 47.1875 -14.625 C 47.1875 -15.4375 47.476562 -16.113281 48.0625 -16.65625 C 48.65625 -17.207031 49.316406 -17.484375 50.046875 -17.484375 C 50.859375 -17.484375 51.535156 -17.207031 52.078125 -16.65625 C 52.628906 -16.113281 52.90625 -15.4375 52.90625 -14.625 C 52.90625 -13.894531 52.628906 -13.234375 52.078125 -12.640625 C 51.535156 -12.054688 50.859375 -11.765625 50.046875 -11.765625 Z M 15.296875 -11.765625 C 14.554688 -11.765625 13.894531 -12.054688 13.3125 -12.640625 C 12.726562 -13.234375 12.4375 -13.894531 12.4375 -14.625 C 12.4375 -15.4375 12.726562 -16.113281 13.3125 -16.65625 C 13.894531 -17.207031 14.554688 -17.484375 15.296875 -17.484375 C 16.097656 -17.484375 16.773438 -17.207031 17.328125 -16.65625 C 17.878906 -16.113281 18.15625 -15.4375 18.15625 -14.625 C 18.15625 -13.894531 17.878906 -13.234375 17.328125 -12.640625 C 16.773438 -12.054688 16.097656 -11.765625 15.296875 -11.765625 Z M 41.90625 -6.59375 C 41.175781 -6.59375 40.515625 -6.882812 39.921875 -7.46875 C 39.335938 -8.0625 39.046875 -8.722656 39.046875 -9.453125 C 39.046875 -10.265625 39.335938 -10.941406 39.921875 -11.484375 C 40.515625 -12.035156 41.175781 -12.3125 41.90625 -12.3125 C 42.71875 -12.3125 43.394531 -12.035156 43.9375 -11.484375 C 44.488281 -10.941406 44.765625 -10.265625 44.765625 -9.453125 C 44.765625 -8.722656 44.488281 -8.0625 43.9375 -7.46875 C 43.394531 -6.882812 42.71875 -6.59375 41.90625 -6.59375 Z M 23.4375 -6.59375 C 22.695312 -6.59375 22.03125 -6.882812 21.4375 -7.46875 C 20.851562 -8.0625 20.5625 -8.722656 20.5625 -9.453125 C 20.5625 -10.265625 20.851562 -10.941406 21.4375 -11.484375 C 22.03125 -12.035156 22.695312 -12.3125 23.4375 -12.3125 C 24.238281 -12.3125 24.914062 -12.035156 25.46875 -11.484375 C 26.019531 -10.941406 26.296875 -10.265625 26.296875 -9.453125 C 26.296875 -8.722656 26.019531 -8.0625 25.46875 -7.46875 C 24.914062 -6.882812 24.238281 -6.59375 23.4375 -6.59375 Z M 32.671875 -4.625 C 31.929688 -4.625 31.269531 -4.914062 30.6875 -5.5 C 30.101562 -6.082031 29.8125 -6.742188 29.8125 -7.484375 C 29.8125 -8.285156 30.101562 -8.960938 30.6875 -9.515625 C 31.269531 -10.066406 31.929688 -10.34375 32.671875 -10.34375 C 33.472656 -10.34375 34.148438 -10.066406 34.703125 -9.515625 C 35.253906 -8.960938 35.53125 -8.285156 35.53125 -7.484375 C 35.53125 -6.742188 35.253906 -6.082031 34.703125 -5.5 C 34.148438 -4.914062 33.472656 -4.625 32.671875 -4.625 Z M 32.671875 -4.625 "/>
</symbol>
<symbol overflow="visible" id="kannada-psts:id2:glyph0-2">
<path style="stroke:none;" d="M 33.546875 1.3125 C 28.335938 1.3125 23.898438 0.5625 20.234375 -0.9375 C 16.566406 -2.4375 13.597656 -4.453125 11.328125 -6.984375 C 9.054688 -9.515625 7.40625 -12.300781 6.375 -15.34375 C 5.351562 -18.382812 4.84375 -21.410156 4.84375 -24.421875 C 4.84375 -25.222656 4.859375 -25.988281 4.890625 -26.71875 C 4.929688 -27.457031 5.023438 -28.304688 5.171875 -29.265625 L 9.453125 -29.265625 C 9.523438 -25.742188 10.164062 -22.457031 11.375 -19.40625 C 12.59375 -16.363281 14.847656 -13.890625 18.140625 -11.984375 C 21.441406 -10.078125 26.210938 -9.125 32.453125 -9.125 C 46.828125 -9.125 54.015625 -14.257812 54.015625 -24.53125 C 54.015625 -26 53.863281 -27.519531 53.5625 -29.09375 C 53.269531 -30.664062 52.648438 -32.113281 51.703125 -33.4375 C 50.160156 -29.769531 47.957031 -26.78125 45.09375 -24.46875 C 42.238281 -22.164062 38.570312 -21.015625 34.09375 -21.015625 C 29.695312 -21.015625 26.269531 -22.054688 23.8125 -24.140625 C 21.351562 -26.234375 20.125 -29.003906 20.125 -32.453125 C 20.125 -35.898438 21.476562 -38.648438 24.1875 -40.703125 C 26.90625 -42.753906 30.613281 -43.78125 35.3125 -43.78125 C 37.65625 -43.78125 39.851562 -43.578125 41.90625 -43.171875 C 43.957031 -42.765625 46.195312 -42.015625 48.625 -40.921875 C 49.0625 -42.535156 49.390625 -44.203125 49.609375 -45.921875 C 49.828125 -47.648438 49.9375 -49.320312 49.9375 -50.9375 C 49.9375 -54.820312 49.222656 -58.285156 47.796875 -61.328125 C 46.367188 -64.367188 44.476562 -66.695312 42.125 -68.3125 C 42.5 -67.644531 42.773438 -66.796875 42.953125 -65.765625 C 43.140625 -64.742188 43.234375 -63.757812 43.234375 -62.8125 C 43.234375 -59 42.316406 -56.007812 40.484375 -53.84375 C 38.648438 -51.675781 35.789062 -50.59375 31.90625 -50.59375 C 28.3125 -50.59375 25.394531 -51.785156 23.15625 -54.171875 C 20.914062 -56.554688 19.796875 -59.65625 19.796875 -63.46875 C 19.796875 -65.8125 20.363281 -68.007812 21.5 -70.0625 C 22.632812 -72.125 24.300781 -73.796875 26.5 -75.078125 C 28.707031 -76.359375 31.351562 -77 34.4375 -77 C 39.050781 -77 42.84375 -75.804688 45.8125 -73.421875 C 48.78125 -71.035156 51 -67.863281 52.46875 -63.90625 C 53.9375 -59.945312 54.671875 -55.625 54.671875 -50.9375 C 54.671875 -48.726562 54.5625 -46.5625 54.34375 -44.4375 C 54.125 -42.3125 53.753906 -40.257812 53.234375 -38.28125 C 56.097656 -36.15625 58.097656 -33.660156 59.234375 -30.796875 C 60.367188 -27.941406 60.9375 -25.226562 60.9375 -22.65625 C 60.9375 -18.1875 59.910156 -14.132812 57.859375 -10.5 C 55.804688 -6.875 52.765625 -4 48.734375 -1.875 C 44.703125 0.25 39.640625 1.3125 33.546875 1.3125 Z M 31.6875 -58.1875 C 33.957031 -58.1875 35.695312 -58.695312 36.90625 -59.71875 C 38.113281 -60.75 38.71875 -62.109375 38.71875 -63.796875 C 38.71875 -65.335938 38.128906 -66.675781 36.953125 -67.8125 C 35.785156 -68.945312 33.988281 -69.515625 31.5625 -69.515625 C 29 -69.515625 27.203125 -68.910156 26.171875 -67.703125 C 25.148438 -66.492188 24.640625 -65.265625 24.640625 -64.015625 C 24.640625 -62.328125 25.171875 -60.929688 26.234375 -59.828125 C 27.296875 -58.734375 29.113281 -58.1875 31.6875 -58.1875 Z M 26.84375 -33.65625 C 26.84375 -31.75 27.519531 -30.375 28.875 -29.53125 C 30.226562 -28.6875 32.191406 -28.265625 34.765625 -28.265625 C 37.765625 -28.265625 40.253906 -29.050781 42.234375 -30.625 C 44.210938 -32.207031 45.789062 -34.242188 46.96875 -36.734375 L 46.75 -36.84375 C 45.351562 -37.582031 43.773438 -38.171875 42.015625 -38.609375 C 40.253906 -39.046875 38.273438 -39.265625 36.078125 -39.265625 C 32.703125 -39.265625 30.316406 -38.695312 28.921875 -37.5625 C 27.535156 -36.425781 26.84375 -35.125 26.84375 -33.65625 Z M 26.84375 -33.65625 "/>
</symbol>
</g>
</defs>
  <g id="kannada-psts:id0:id0" transform="matrix(1.25,0,0,1.25,0.0,0.0)"><g id="kannada-psts:id0:surface1">
<g style="fill:rgb(0%,0%,0%);fill-opacity:1;">
  <use xlink:href="#kannada-psts:id0:glyph0-1" x="16" y="102.09375" class="dc"/>
  <use xlink:href="#kannada-psts:id0:glyph0-2" x="81.34375" y="102.09375" class="c0"/>
  <use xlink:href="#kannada-psts:id0:glyph0-3" x="148.890625" y="102.09375" class="c1"/>
</g>
</g>
</g>
  <g id="kannada-psts:id1:id1" transform="matrix(1.25,0,0,1.25,206.11328125,13.1640625)"><g id="kannada-psts:id1:surface1">
<g style="fill:rgb(0%,0%,0%);fill-opacity:1;">
  <use xlink:href="#kannada-psts:id1:glyph0-1" x="0" y="120.84375" class="arrow"/>
</g>
</g>
</g>
  <g id="kannada-psts:id2:id2" transform="matrix(1.25,0,0,1.25,338.7109375,0.0)"><g id="kannada-psts:id2:surface1">
<g style="fill:rgb(0%,0%,0%);fill-opacity:1;">
  <use xlink:href="#kannada-psts:id2:glyph0-1" x="16" y="102.09375" class="dc"/>
  <use xlink:href="#kannada-psts:id2:glyph0-2" x="81.34375" y="102.09375" class="c2"/>
</g>
</g>
</g>
</svg>
