<?xml version="1.0" standalone="no"?>
<!DOCTYPE svg PUBLIC "-//W3C//DTD SVG 1.1//EN"
 "http://www.w3.org/Graphics/SVG/1.1/DTD/svg11.dtd">
<!-- Created with svg_stack (http://github.com/astraw/svg_stack) -->
<svg xmlns="http://www.w3.org/2000/svg" xmlns:sodipodi="http://sodipodi.sourceforge.net/DTD/sodipodi-0.dtd" xmlns:xlink="http://www.w3.org/1999/xlink" version="1.1" width="505.41015625" height="227.734375">
  <defs><g>
<symbol overflow="visible" id="id0:glyph0-0">
<path style="stroke:none;" d="M 10.453125 0 L 10.453125 -78.546875 L 55.65625 -78.546875 L 55.65625 0 Z M 16.0625 -5.609375 L 50.046875 -5.609375 L 50.046875 -72.9375 L 16.0625 -72.9375 Z M 16.0625 -5.609375 "/>
</symbol>
<symbol overflow="visible" id="id0:glyph0-1">
<path style="stroke:none;" d="M 6.484375 -50.59375 L 7.15625 -60.171875 L 54.78125 -60.171875 C 58.445312 -60.171875 61.160156 -60.367188 62.921875 -60.765625 C 64.679688 -61.171875 66.070312 -61.816406 67.09375 -62.703125 C 68.78125 -64.171875 69.625 -66.296875 69.625 -69.078125 C 69.625 -73.328125 67.609375 -77.582031 63.578125 -81.84375 L 67.546875 -84.8125 C 70.035156 -82.164062 71.957031 -79.300781 73.3125 -76.21875 C 74.664062 -73.144531 75.34375 -69.921875 75.34375 -66.546875 C 75.34375 -64.566406 75.101562 -62.585938 74.625 -60.609375 C 74.15625 -58.628906 73.078125 -56.867188 71.390625 -55.328125 C 70.429688 -54.453125 69.289062 -53.644531 67.96875 -52.90625 C 66.65625 -52.175781 64.9375 -51.609375 62.8125 -51.203125 C 60.6875 -50.796875 57.863281 -50.59375 54.34375 -50.59375 Z M 76.125 16.5 C 70.175781 16.5 64.96875 15.085938 60.5 12.265625 C 56.03125 9.441406 52.21875 5.71875 49.0625 1.09375 C 45.90625 -3.519531 43.375 -8.46875 41.46875 -13.75 C 40 -9.28125 37.867188 -5.671875 35.078125 -2.921875 C 32.296875 -0.171875 28.375 1.203125 23.3125 1.203125 C 19.5 1.203125 16.289062 0.285156 13.6875 -1.546875 C 11.09375 -3.378906 9.148438 -5.796875 7.859375 -8.796875 C 6.578125 -11.804688 5.9375 -15.035156 5.9375 -18.484375 C 5.9375 -23.171875 7.203125 -27.109375 9.734375 -30.296875 C 12.265625 -33.492188 15.726562 -35.09375 20.125 -35.09375 C 23.570312 -35.09375 26.226562 -34.15625 28.09375 -32.28125 C 29.96875 -30.414062 30.90625 -28.050781 30.90625 -25.1875 C 30.90625 -22.40625 30.023438 -20.207031 28.265625 -18.59375 C 26.503906 -16.976562 24.050781 -15.953125 20.90625 -15.515625 L 20.234375 -19.578125 C 22.878906 -20.160156 24.203125 -21.664062 24.203125 -24.09375 C 24.203125 -25.40625 23.757812 -26.484375 22.875 -27.328125 C 22 -28.171875 20.644531 -28.59375 18.8125 -28.59375 C 16.394531 -28.59375 14.46875 -27.804688 13.03125 -26.234375 C 11.601562 -24.660156 10.890625 -22.585938 10.890625 -20.015625 C 10.890625 -16.421875 12.0625 -13.722656 14.40625 -11.921875 C 16.757812 -10.128906 20.132812 -9.234375 24.53125 -9.234375 C 32.375 -9.234375 37.46875 -13.488281 39.8125 -22 L 43.5625 -22 C 44.65625 -18.332031 46.25 -15.285156 48.34375 -12.859375 C 50.4375 -10.441406 53.71875 -9.234375 58.1875 -9.234375 C 62.289062 -9.234375 65.316406 -10.535156 67.265625 -13.140625 C 69.210938 -15.742188 70.1875 -19.023438 70.1875 -22.984375 C 70.1875 -27.316406 69.226562 -30.984375 67.3125 -33.984375 C 65.40625 -36.992188 63.28125 -39.597656 60.9375 -41.796875 C 61.300781 -42.898438 61.867188 -43.816406 62.640625 -44.546875 C 63.410156 -45.285156 64.3125 -45.65625 65.34375 -45.65625 C 67.101562 -45.65625 68.734375 -44.625 70.234375 -42.5625 C 71.734375 -40.507812 72.957031 -37.757812 73.90625 -34.3125 C 74.863281 -30.875 75.34375 -27.0625 75.34375 -22.875 C 75.34375 -20.382812 75.125 -17.742188 74.6875 -14.953125 C 74.25 -12.171875 73.460938 -9.550781 72.328125 -7.09375 C 71.191406 -4.632812 69.59375 -2.632812 67.53125 -1.09375 C 65.476562 0.4375 62.84375 1.203125 59.625 1.203125 C 56.46875 1.203125 53.71875 0.285156 51.375 -1.546875 C 53.9375 1.097656 57.085938 3.191406 60.828125 4.734375 C 64.566406 6.273438 68.894531 7.046875 73.8125 7.046875 C 79.09375 7.046875 83.566406 5.90625 87.234375 3.625 C 90.898438 1.351562 93.664062 -1.757812 95.53125 -5.71875 C 97.40625 -9.675781 98.34375 -14.148438 98.34375 -19.140625 C 98.34375 -26.109375 96.945312 -31.863281 94.15625 -36.40625 C 91.375 -40.957031 87.378906 -44.695312 82.171875 -47.625 C 82.023438 -48.070312 81.894531 -48.675781 81.78125 -49.4375 C 81.675781 -50.207031 81.625 -50.960938 81.625 -51.703125 C 81.625 -53.171875 81.894531 -54.472656 82.4375 -55.609375 C 82.988281 -56.742188 83.925781 -57.3125 85.25 -57.3125 C 87.082031 -57.3125 89.039062 -56.320312 91.125 -54.34375 C 93.21875 -52.363281 95.195312 -49.59375 97.0625 -46.03125 C 98.9375 -42.476562 100.460938 -38.335938 101.640625 -33.609375 C 102.816406 -28.878906 103.40625 -23.800781 103.40625 -18.375 C 103.40625 -11.625 102.375 -5.625 100.3125 -0.375 C 98.257812 4.863281 95.21875 8.984375 91.1875 11.984375 C 87.15625 14.992188 82.132812 16.5 76.125 16.5 Z M 41.90625 -33.4375 C 40.070312 -33.4375 38.566406 -34.019531 37.390625 -35.1875 C 36.222656 -36.363281 35.640625 -37.832031 35.640625 -39.59375 C 35.640625 -41.351562 36.222656 -42.820312 37.390625 -44 C 38.566406 -45.175781 40.070312 -45.765625 41.90625 -45.765625 C 43.8125 -45.765625 45.332031 -45.175781 46.46875 -44 C 47.613281 -42.820312 48.1875 -41.351562 48.1875 -39.59375 C 48.1875 -37.832031 47.613281 -36.363281 46.46875 -35.1875 C 45.332031 -34.019531 43.8125 -33.4375 41.90625 -33.4375 Z M 41.46875 21.5625 C 39.78125 21.5625 38.457031 21.226562 37.5 20.5625 C 36.550781 19.90625 36.078125 18.769531 36.078125 17.15625 C 36.078125 16.0625 36.257812 14.578125 36.625 12.703125 C 37 10.835938 37.492188 8.859375 38.109375 6.765625 C 38.734375 4.671875 39.34375 2.742188 39.9375 0.984375 L 43.015625 0.984375 C 43.597656 2.671875 44.179688 4.539062 44.765625 6.59375 C 45.359375 8.65625 45.835938 10.617188 46.203125 12.484375 C 46.566406 14.359375 46.75 15.914062 46.75 17.15625 C 46.75 18.769531 46.289062 19.90625 45.375 20.5625 C 44.457031 21.226562 43.15625 21.5625 41.46875 21.5625 Z M 41.46875 21.5625 "/>
</symbol>
<symbol overflow="visible" id="id0:glyph0-2">
<path style="stroke:none;" d="M -17.265625 18.375 C -18.660156 18.375 -19.890625 17.914062 -20.953125 17 C -22.015625 16.082031 -22.546875 14.851562 -22.546875 13.3125 C -22.546875 11.695312 -22.03125 10.445312 -21 9.5625 C -19.976562 8.6875 -18.734375 8.25 -17.265625 8.25 C -15.878906 8.25 -14.6875 8.707031 -13.6875 9.625 C -12.695312 10.539062 -12.203125 11.769531 -12.203125 13.3125 C -12.203125 14.925781 -12.71875 16.171875 -13.75 17.046875 C -14.78125 17.929688 -15.953125 18.375 -17.265625 18.375 Z M 17.484375 27.828125 C 16.097656 27.828125 14.867188 27.382812 13.796875 26.5 C 12.734375 25.625 12.203125 24.414062 12.203125 22.875 C 12.203125 21.257812 12.71875 19.992188 13.75 19.078125 C 14.78125 18.160156 16.023438 17.703125 17.484375 17.703125 C 18.878906 17.703125 20.050781 18.160156 21 19.078125 C 21.957031 19.992188 22.4375 21.257812 22.4375 22.875 C 22.4375 24.414062 21.941406 25.625 20.953125 26.5 C 19.960938 27.382812 18.804688 27.828125 17.484375 27.828125 Z M 17.484375 27.828125 "/>
</symbol>
</g>
<g>
<symbol overflow="visible" id="id1:glyph0-0">
<path style="stroke:none;" d="M 5.375 -96.6875 L 69.828125 -96.6875 L 69.828125 0 L 5.375 0 Z M 8.0625 -2.6875 L 67.140625 -2.6875 L 67.140625 -94 L 8.0625 -94 Z M 8.0625 -2.6875 "/>
</symbol>
<symbol overflow="visible" id="id1:glyph0-1">
<path style="stroke:none;" d="M 68.15625 -13.75 L 66.28125 -18.640625 L 88.09375 -27.390625 L 6.984375 -27.390625 L 6.984375 -34 L 88.09375 -34 L 66.28125 -42.75 L 68.15625 -47.640625 L 99.09375 -34.265625 L 99.09375 -27.125 Z M 68.15625 -13.75 "/>
</symbol>
</g>
<g>
<symbol overflow="visible" id="id2:glyph0-0">
<path style="stroke:none;" d="M 10.453125 0 L 10.453125 -78.546875 L 55.65625 -78.546875 L 55.65625 0 Z M 16.0625 -5.609375 L 50.046875 -5.609375 L 50.046875 -72.9375 L 16.0625 -72.9375 Z M 16.0625 -5.609375 "/>
</symbol>
<symbol overflow="visible" id="id2:glyph0-1">
<path style="stroke:none;" d="M 6.484375 -50.59375 L 7.15625 -60.171875 L 54.78125 -60.171875 C 58.445312 -60.171875 61.160156 -60.367188 62.921875 -60.765625 C 64.679688 -61.171875 66.070312 -61.816406 67.09375 -62.703125 C 68.78125 -64.171875 69.625 -66.296875 69.625 -69.078125 C 69.625 -73.328125 67.609375 -77.582031 63.578125 -81.84375 L 67.546875 -84.8125 C 70.035156 -82.164062 71.957031 -79.300781 73.3125 -76.21875 C 74.664062 -73.144531 75.34375 -69.921875 75.34375 -66.546875 C 75.34375 -64.566406 75.101562 -62.585938 74.625 -60.609375 C 74.15625 -58.628906 73.078125 -56.867188 71.390625 -55.328125 C 70.429688 -54.453125 69.289062 -53.644531 67.96875 -52.90625 C 66.65625 -52.175781 64.9375 -51.609375 62.8125 -51.203125 C 60.6875 -50.796875 57.863281 -50.59375 54.34375 -50.59375 Z M 76.125 16.5 C 70.175781 16.5 64.96875 15.085938 60.5 12.265625 C 56.03125 9.441406 52.21875 5.71875 49.0625 1.09375 C 45.90625 -3.519531 43.375 -8.46875 41.46875 -13.75 C 40 -9.28125 37.867188 -5.671875 35.078125 -2.921875 C 32.296875 -0.171875 28.375 1.203125 23.3125 1.203125 C 19.5 1.203125 16.289062 0.285156 13.6875 -1.546875 C 11.09375 -3.378906 9.148438 -5.796875 7.859375 -8.796875 C 6.578125 -11.804688 5.9375 -15.035156 5.9375 -18.484375 C 5.9375 -23.171875 7.203125 -27.109375 9.734375 -30.296875 C 12.265625 -33.492188 15.726562 -35.09375 20.125 -35.09375 C 23.570312 -35.09375 26.226562 -34.15625 28.09375 -32.28125 C 29.96875 -30.414062 30.90625 -28.050781 30.90625 -25.1875 C 30.90625 -22.40625 30.023438 -20.207031 28.265625 -18.59375 C 26.503906 -16.976562 24.050781 -15.953125 20.90625 -15.515625 L 20.234375 -19.578125 C 22.878906 -20.160156 24.203125 -21.664062 24.203125 -24.09375 C 24.203125 -25.40625 23.757812 -26.484375 22.875 -27.328125 C 22 -28.171875 20.644531 -28.59375 18.8125 -28.59375 C 16.394531 -28.59375 14.46875 -27.804688 13.03125 -26.234375 C 11.601562 -24.660156 10.890625 -22.585938 10.890625 -20.015625 C 10.890625 -16.421875 12.0625 -13.722656 14.40625 -11.921875 C 16.757812 -10.128906 20.132812 -9.234375 24.53125 -9.234375 C 32.375 -9.234375 37.46875 -13.488281 39.8125 -22 L 43.5625 -22 C 44.65625 -18.332031 46.25 -15.285156 48.34375 -12.859375 C 50.4375 -10.441406 53.71875 -9.234375 58.1875 -9.234375 C 62.289062 -9.234375 65.316406 -10.535156 67.265625 -13.140625 C 69.210938 -15.742188 70.1875 -19.023438 70.1875 -22.984375 C 70.1875 -27.316406 69.226562 -30.984375 67.3125 -33.984375 C 65.40625 -36.992188 63.28125 -39.597656 60.9375 -41.796875 C 61.300781 -42.898438 61.867188 -43.816406 62.640625 -44.546875 C 63.410156 -45.285156 64.3125 -45.65625 65.34375 -45.65625 C 67.101562 -45.65625 68.734375 -44.625 70.234375 -42.5625 C 71.734375 -40.507812 72.957031 -37.757812 73.90625 -34.3125 C 74.863281 -30.875 75.34375 -27.0625 75.34375 -22.875 C 75.34375 -20.382812 75.125 -17.742188 74.6875 -14.953125 C 74.25 -12.171875 73.460938 -9.550781 72.328125 -7.09375 C 71.191406 -4.632812 69.59375 -2.632812 67.53125 -1.09375 C 65.476562 0.4375 62.84375 1.203125 59.625 1.203125 C 56.46875 1.203125 53.71875 0.285156 51.375 -1.546875 C 53.9375 1.097656 57.085938 3.191406 60.828125 4.734375 C 64.566406 6.273438 68.894531 7.046875 73.8125 7.046875 C 79.09375 7.046875 83.566406 5.90625 87.234375 3.625 C 90.898438 1.351562 93.664062 -1.757812 95.53125 -5.71875 C 97.40625 -9.675781 98.34375 -14.148438 98.34375 -19.140625 C 98.34375 -26.109375 96.945312 -31.863281 94.15625 -36.40625 C 91.375 -40.957031 87.378906 -44.695312 82.171875 -47.625 C 82.023438 -48.070312 81.894531 -48.675781 81.78125 -49.4375 C 81.675781 -50.207031 81.625 -50.960938 81.625 -51.703125 C 81.625 -53.171875 81.894531 -54.472656 82.4375 -55.609375 C 82.988281 -56.742188 83.925781 -57.3125 85.25 -57.3125 C 87.082031 -57.3125 89.039062 -56.320312 91.125 -54.34375 C 93.21875 -52.363281 95.195312 -49.59375 97.0625 -46.03125 C 98.9375 -42.476562 100.460938 -38.335938 101.640625 -33.609375 C 102.816406 -28.878906 103.40625 -23.800781 103.40625 -18.375 C 103.40625 -11.625 102.375 -5.625 100.3125 -0.375 C 98.257812 4.863281 95.21875 8.984375 91.1875 11.984375 C 87.15625 14.992188 82.132812 16.5 76.125 16.5 Z M 41.90625 -33.4375 C 40.070312 -33.4375 38.566406 -34.019531 37.390625 -35.1875 C 36.222656 -36.363281 35.640625 -37.832031 35.640625 -39.59375 C 35.640625 -41.351562 36.222656 -42.820312 37.390625 -44 C 38.566406 -45.175781 40.070312 -45.765625 41.90625 -45.765625 C 43.8125 -45.765625 45.332031 -45.175781 46.46875 -44 C 47.613281 -42.820312 48.1875 -41.351562 48.1875 -39.59375 C 48.1875 -37.832031 47.613281 -36.363281 46.46875 -35.1875 C 45.332031 -34.019531 43.8125 -33.4375 41.90625 -33.4375 Z M 41.46875 21.5625 C 39.78125 21.5625 38.457031 21.226562 37.5 20.5625 C 36.550781 19.90625 36.078125 18.769531 36.078125 17.15625 C 36.078125 16.0625 36.257812 14.578125 36.625 12.703125 C 37 10.835938 37.492188 8.859375 38.109375 6.765625 C 38.734375 4.671875 39.34375 2.742188 39.9375 0.984375 L 43.015625 0.984375 C 43.597656 2.671875 44.179688 4.539062 44.765625 6.59375 C 45.359375 8.65625 45.835938 10.617188 46.203125 12.484375 C 46.566406 14.359375 46.75 15.914062 46.75 17.15625 C 46.75 18.769531 46.289062 19.90625 45.375 20.5625 C 44.457031 21.226562 43.15625 21.5625 41.46875 21.5625 Z M 41.46875 21.5625 "/>
</symbol>
<symbol overflow="visible" id="id2:glyph0-2">
<path style="stroke:none;" d="M -17.265625 18.375 C -18.660156 18.375 -19.890625 17.914062 -20.953125 17 C -22.015625 16.082031 -22.546875 14.851562 -22.546875 13.3125 C -22.546875 11.695312 -22.03125 10.445312 -21 9.5625 C -19.976562 8.6875 -18.734375 8.25 -17.265625 8.25 C -15.878906 8.25 -14.6875 8.707031 -13.6875 9.625 C -12.695312 10.539062 -12.203125 11.769531 -12.203125 13.3125 C -12.203125 14.925781 -12.71875 16.171875 -13.75 17.046875 C -14.78125 17.929688 -15.953125 18.375 -17.265625 18.375 Z M 17.484375 27.828125 C 16.097656 27.828125 14.867188 27.382812 13.796875 26.5 C 12.734375 25.625 12.203125 24.414062 12.203125 22.875 C 12.203125 21.257812 12.71875 19.992188 13.75 19.078125 C 14.78125 18.160156 16.023438 17.703125 17.484375 17.703125 C 18.878906 17.703125 20.050781 18.160156 21 19.078125 C 21.957031 19.992188 22.4375 21.257812 22.4375 22.875 C 22.4375 24.414062 21.941406 25.625 20.953125 26.5 C 19.960938 27.382812 18.804688 27.828125 17.484375 27.828125 Z M 17.484375 27.828125 "/>
</symbol>
</g>
</defs>
  <g id="id0:id0" transform="matrix(1.25,0,0,1.25,0.0,0.0)"><g id="id0:surface1">
<g style="fill:rgb(0%,0%,0%);fill-opacity:1;">
  <use xlink:href="#id0:glyph0-1" x="16" y="102.09375"/>
  <use xlink:href="#id0:glyph0-2" x="125.125" y="102.09375"/>
</g>
</g>
</g>
  <g id="id1:id1" transform="matrix(1.25,0,0,1.25,196.40625,13.1640625)"><g id="id1:surface1">
<g style="fill:rgb(0%,0%,0%);fill-opacity:1;">
  <use xlink:href="#id1:glyph0-1" x="0" y="120.84375"/>
</g>
</g>
</g>
  <g id="id2:id2" transform="matrix(1.25,0,0,1.25,329.00390625,0.0)"><g id="id2:surface1">
<g style="fill:rgb(0%,0%,0%);fill-opacity:1;">
  <use xlink:href="#id2:glyph0-1" x="16" y="102.09375"/>
  <use xlink:href="#id2:glyph0-2" x="56.921875" y="102.09375"/>
</g>
</g>
</g>
</svg>
