<!DOCTYPE svg PUBLIC "-//W3C//DTD SVG 1.1//EN" "http://www.w3.org/Graphics/SVG/1.1/DTD/svg11.dtd">
<!-- Created with svg_stack (http://github.com/astraw/svg_stack) --><svg xmlns="http://www.w3.org/2000/svg" xmlns:sodipodi="http://sodipodi.sourceforge.net/DTD/sodipodi-0.dtd" xmlns:xlink="http://www.w3.org/1999/xlink" version="1.1" width="100%" id="kannada-dist" viewBox="0 0 477.96875 227.734375">
  <defs><g>
<symbol overflow="visible" id="kannada-dist:id0:glyph0-0">
<path style="stroke:none;" d="M 10.453125 0 L 55.65625 0 L 55.65625 -78.546875 L 10.453125 -78.546875 Z M 16.0625 -5.609375 L 16.0625 -72.9375 L 50.046875 -72.9375 L 50.046875 -5.609375 Z M 16.0625 -5.609375 "/>
</symbol>
<symbol overflow="visible" id="kannada-dist:id0:glyph0-1">
<path style="stroke:none;" d="M 23.3125 1.203125 C 32.671875 1.203125 38.171875 -3.953125 41.578125 -13.75 C 44.21875 -4.84375 49.9375 1.203125 59.40625 1.203125 C 72.265625 1.203125 75.234375 -10.890625 75.234375 -19.359375 C 75.234375 -27.609375 72.9375 -35.859375 68.421875 -35.859375 C 66.4375 -35.859375 64.796875 -34.3125 64.015625 -32.015625 C 68.09375 -28.703125 70.1875 -25.078125 70.1875 -20.34375 C 70.1875 -14.625 66.875 -9.234375 57.96875 -9.234375 C 49.0625 -9.234375 45.875 -14.625 43.671875 -22.109375 L 40.046875 -22.109375 C 37.40625 -13.75 32.234375 -9.234375 24.3125 -9.234375 C 18.484375 -9.234375 14.953125 -12.09375 14.953125 -16.9375 C 14.953125 -21.453125 18.484375 -25.1875 23.875 -30.578125 C 29.921875 -36.734375 33 -41.578125 33 -47.953125 C 33 -53.5625 30.140625 -56.765625 27.171875 -60.0625 C 24.3125 -63.25 21.453125 -66.328125 21.453125 -71.71875 C 21.453125 -76.78125 25.515625 -80.515625 31.5625 -81.625 L 30.6875 -86.015625 C 18.703125 -85.90625 12.3125 -80.1875 12.3125 -73.15625 C 12.3125 -67.65625 15.84375 -63.796875 20.34375 -61.265625 C 19.796875 -61.375 19.140625 -61.375 18.484375 -61.375 C 8.578125 -61.375 3.734375 -55.109375 3.734375 -48.1875 C 3.734375 -43.234375 5.71875 -39.265625 8.359375 -36.1875 L 11.546875 -38.28125 C 10.453125 -40.265625 9.5625 -42.015625 9.5625 -44.875 C 9.5625 -49.609375 12.765625 -52.359375 18.046875 -52.359375 C 23.765625 -52.359375 26.296875 -48.734375 26.296875 -44.65625 C 26.296875 -39.703125 23.3125 -36.84375 17.8125 -31.5625 C 11.109375 -25.1875 7.484375 -20.125 7.484375 -13.75 C 7.484375 -5.171875 13.859375 1.203125 23.3125 1.203125 Z M 23.3125 1.203125 "/>
</symbol>
<symbol overflow="visible" id="kannada-dist:id0:glyph0-2">
<path style="stroke:none;" d="M 30.03125 -64.5625 C 30.03125 -74.46875 24.53125 -79.96875 16.28125 -79.96875 C 8.03125 -79.96875 2.640625 -74.46875 2.640625 -64.5625 C 2.640625 -54.78125 8.03125 -48.953125 16.28125 -48.953125 C 24.53125 -48.953125 30.03125 -54.78125 30.03125 -64.5625 Z M 6.8125 -64.5625 C 6.8125 -68.859375 10.5625 -71.71875 16.28125 -71.71875 C 22 -71.71875 25.734375 -68.859375 25.734375 -64.5625 C 25.734375 -60.171875 22 -57.09375 16.28125 -57.09375 C 10.5625 -57.09375 6.8125 -60.171875 6.8125 -64.5625 Z M 6.8125 -64.5625 "/>
</symbol>
</g>
<g>
<symbol overflow="visible" id="kannada-dist:id1:glyph0-0">
<path style="stroke:none;" d="M 5.375 -96.6875 L 69.828125 -96.6875 L 69.828125 0 L 5.375 0 Z M 8.0625 -2.6875 L 67.140625 -2.6875 L 67.140625 -94 L 8.0625 -94 Z M 8.0625 -2.6875 "/>
</symbol>
<symbol overflow="visible" id="kannada-dist:id1:glyph0-1">
<path style="stroke:none;" d="M 68.15625 -13.75 L 66.28125 -18.640625 L 88.09375 -27.390625 L 6.984375 -27.390625 L 6.984375 -34 L 88.09375 -34 L 66.28125 -42.75 L 68.15625 -47.640625 L 99.09375 -34.265625 L 99.09375 -27.125 Z M 68.15625 -13.75 "/>
</symbol>
</g>
<g>
<symbol overflow="visible" id="kannada-dist:id2:glyph0-0">
<path style="stroke:none;" d="M 10.453125 0 L 55.65625 0 L 55.65625 -78.546875 L 10.453125 -78.546875 Z M 16.0625 -5.609375 L 16.0625 -72.9375 L 50.046875 -72.9375 L 50.046875 -5.609375 Z M 16.0625 -5.609375 "/>
</symbol>
<symbol overflow="visible" id="kannada-dist:id2:glyph0-1">
<path style="stroke:none;" d="M 23.3125 1.203125 C 32.671875 1.203125 38.171875 -3.953125 41.578125 -13.75 C 44.21875 -4.84375 49.9375 1.203125 59.40625 1.203125 C 72.265625 1.203125 75.234375 -10.890625 75.234375 -19.359375 C 75.234375 -27.609375 72.9375 -35.859375 68.421875 -35.859375 C 66.4375 -35.859375 64.796875 -34.3125 64.015625 -32.015625 C 68.09375 -28.703125 70.1875 -25.078125 70.1875 -20.34375 C 70.1875 -14.625 66.875 -9.234375 57.96875 -9.234375 C 49.0625 -9.234375 45.875 -14.625 43.671875 -22.109375 L 40.046875 -22.109375 C 37.40625 -13.75 32.234375 -9.234375 24.3125 -9.234375 C 18.484375 -9.234375 14.953125 -12.09375 14.953125 -16.9375 C 14.953125 -21.453125 18.484375 -25.1875 23.875 -30.578125 C 29.921875 -36.734375 33 -41.578125 33 -47.953125 C 33 -53.5625 30.140625 -56.765625 27.171875 -60.0625 C 24.3125 -63.25 21.453125 -66.328125 21.453125 -71.71875 C 21.453125 -76.78125 25.515625 -80.515625 31.5625 -81.625 L 30.6875 -86.015625 C 18.703125 -85.90625 12.3125 -80.1875 12.3125 -73.15625 C 12.3125 -67.65625 15.84375 -63.796875 20.34375 -61.265625 C 19.796875 -61.375 19.140625 -61.375 18.484375 -61.375 C 8.578125 -61.375 3.734375 -55.109375 3.734375 -48.1875 C 3.734375 -43.234375 5.71875 -39.265625 8.359375 -36.1875 L 11.546875 -38.28125 C 10.453125 -40.265625 9.5625 -42.015625 9.5625 -44.875 C 9.5625 -49.609375 12.765625 -52.359375 18.046875 -52.359375 C 23.765625 -52.359375 26.296875 -48.734375 26.296875 -44.65625 C 26.296875 -39.703125 23.3125 -36.84375 17.8125 -31.5625 C 11.109375 -25.1875 7.484375 -20.125 7.484375 -13.75 C 7.484375 -5.171875 13.859375 1.203125 23.3125 1.203125 Z M 23.3125 1.203125 "/>
</symbol>
<symbol overflow="visible" id="kannada-dist:id2:glyph0-2">
<path style="stroke:none;" d="M 30.03125 -64.5625 C 30.03125 -74.46875 24.53125 -79.96875 16.28125 -79.96875 C 8.03125 -79.96875 2.640625 -74.46875 2.640625 -64.5625 C 2.640625 -54.78125 8.03125 -48.953125 16.28125 -48.953125 C 24.53125 -48.953125 30.03125 -54.78125 30.03125 -64.5625 Z M 6.8125 -64.5625 C 6.8125 -68.859375 10.5625 -71.71875 16.28125 -71.71875 C 22 -71.71875 25.734375 -68.859375 25.734375 -64.5625 C 25.734375 -60.171875 22 -57.09375 16.28125 -57.09375 C 10.5625 -57.09375 6.8125 -60.171875 6.8125 -64.5625 Z M 6.8125 -64.5625 "/>
</symbol>
</g>
</defs>
  <g id="kannada-dist:id0:id0" transform="matrix(1.25,0,0,1.25,0.0,0.0)"><g id="kannada-dist:id0:surface1">
<g style="fill:rgb(0%,0%,0%);fill-opacity:1;">
  <use xlink:href="#kannada-dist:id0:glyph0-1" x="16" y="102.09375" class="c0"/>
  <use xlink:href="#kannada-dist:id0:glyph0-2" x="96.953125" y="102.09375" class="c1"/>
</g>
</g>
</g>
  <g id="kannada-dist:id1:id1" transform="matrix(1.25,0,0,1.25,180.9375,13.1640625)"><g id="kannada-dist:id1:surface1">
<g style="fill:rgb(0%,0%,0%);fill-opacity:1;">
  <use xlink:href="#kannada-dist:id1:glyph0-1" x="0" y="120.84375" class="arrow"/>
</g>
</g>
</g>
  <g id="kannada-dist:id2:id2" transform="matrix(1.25,0,0,1.25,313.53515625,0.0)"><g id="kannada-dist:id2:surface1">
<g style="fill:rgb(0%,0%,0%);fill-opacity:1;">
  <use xlink:href="#kannada-dist:id2:glyph0-1" x="16" y="102.09375" class="c0"/>
  <use xlink:href="#kannada-dist:id2:glyph0-2" x="83.75" y="102.09375" class="c1"/>
</g>
</g>
</g>
</svg>
