<!DOCTYPE svg PUBLIC "-//W3C//DTD SVG 1.1//EN" "http://www.w3.org/Graphics/SVG/1.1/DTD/svg11.dtd">
<!-- Created with svg_stack (http://github.com/astraw/svg_stack) --><svg xmlns="http://www.w3.org/2000/svg" xmlns:sodipodi="http://sodipodi.sourceforge.net/DTD/sodipodi-0.dtd" xmlns:xlink="http://www.w3.org/1999/xlink" version="1.1" width="580.13671875" height="227.734375" id="kannada-pres">
  <defs><g>
<symbol overflow="visible" id="kannada-pres:id0:glyph0-0">
<path style="stroke:none;" d="M 10.453125 0 L 10.453125 -78.546875 L 55.65625 -78.546875 L 55.65625 0 Z M 16.0625 -5.609375 L 50.046875 -5.609375 L 50.046875 -72.9375 L 16.0625 -72.9375 Z M 16.0625 -5.609375 "/>
</symbol>
<symbol overflow="visible" id="kannada-pres:id0:glyph0-1">
<path style="stroke:none;" d="M 23.3125 1.203125 C 19.5 1.203125 16.289062 0.285156 13.6875 -1.546875 C 11.09375 -3.378906 9.148438 -5.796875 7.859375 -8.796875 C 6.578125 -11.804688 5.9375 -15.035156 5.9375 -18.484375 C 5.9375 -23.171875 7.203125 -27.109375 9.734375 -30.296875 C 12.265625 -33.492188 15.726562 -35.09375 20.125 -35.09375 C 23.570312 -35.09375 26.226562 -34.15625 28.09375 -32.28125 C 29.96875 -30.414062 30.90625 -28.050781 30.90625 -25.1875 C 30.90625 -22.40625 30.023438 -20.207031 28.265625 -18.59375 C 26.503906 -16.976562 24.050781 -15.953125 20.90625 -15.515625 L 20.234375 -19.578125 C 22.878906 -20.160156 24.203125 -21.664062 24.203125 -24.09375 C 24.203125 -25.40625 23.757812 -26.484375 22.875 -27.328125 C 22 -28.171875 20.644531 -28.59375 18.8125 -28.59375 C 16.394531 -28.59375 14.46875 -27.804688 13.03125 -26.234375 C 11.601562 -24.660156 10.890625 -22.585938 10.890625 -20.015625 C 10.890625 -16.421875 12.0625 -13.722656 14.40625 -11.921875 C 16.757812 -10.128906 20.132812 -9.234375 24.53125 -9.234375 C 32.375 -9.234375 37.46875 -13.488281 39.8125 -22 L 43.5625 -22 C 44.726562 -18.1875 46.285156 -15.101562 48.234375 -12.75 C 50.179688 -10.40625 53.207031 -9.234375 57.3125 -9.234375 C 61.632812 -9.234375 64.65625 -10.625 66.375 -13.40625 C 68.101562 -16.195312 68.96875 -19.613281 68.96875 -23.65625 C 68.96875 -28.632812 67.8125 -33.160156 65.5 -37.234375 C 63.195312 -41.304688 59.972656 -44.550781 55.828125 -46.96875 C 51.679688 -49.382812 46.820312 -50.59375 41.25 -50.59375 L 6.484375 -50.59375 L 7.15625 -60.171875 L 56.09375 -60.171875 C 59.757812 -60.171875 62.472656 -60.367188 64.234375 -60.765625 C 65.992188 -61.171875 67.390625 -61.816406 68.421875 -62.703125 C 70.109375 -64.023438 70.953125 -66.148438 70.953125 -69.078125 C 70.953125 -73.328125 68.9375 -77.582031 64.90625 -81.84375 L 68.859375 -84.8125 C 71.347656 -82.164062 73.269531 -79.300781 74.625 -76.21875 C 75.988281 -73.144531 76.671875 -69.921875 76.671875 -66.546875 C 76.671875 -64.566406 76.429688 -62.585938 75.953125 -60.609375 C 75.472656 -58.628906 74.390625 -56.867188 72.703125 -55.328125 C 71.390625 -54.078125 69.703125 -53.007812 67.640625 -52.125 C 65.585938 -51.25 62.4375 -50.738281 58.1875 -50.59375 C 62.519531 -48.6875 66.039062 -46.117188 68.75 -42.890625 C 71.457031 -39.671875 73.453125 -36.191406 74.734375 -32.453125 C 76.023438 -28.710938 76.671875 -25.082031 76.671875 -21.5625 C 76.671875 -19.0625 76.375 -16.472656 75.78125 -13.796875 C 75.195312 -11.128906 74.191406 -8.65625 72.765625 -6.375 C 71.335938 -4.101562 69.429688 -2.269531 67.046875 -0.875 C 64.660156 0.507812 61.707031 1.203125 58.1875 1.203125 C 53.644531 1.203125 50.035156 -0.113281 47.359375 -2.75 C 44.679688 -5.382812 42.679688 -9.015625 41.359375 -13.640625 C 39.890625 -9.171875 37.757812 -5.578125 34.96875 -2.859375 C 32.1875 -0.148438 28.300781 1.203125 23.3125 1.203125 Z M 23.3125 1.203125 "/>
</symbol>
<symbol overflow="visible" id="kannada-pres:id0:glyph0-2">
<path style="stroke:none;" d="M 32.671875 -53.6875 C 31.929688 -53.6875 31.269531 -53.976562 30.6875 -54.5625 C 30.101562 -55.144531 29.8125 -55.804688 29.8125 -56.546875 C 29.8125 -57.347656 30.101562 -58.023438 30.6875 -58.578125 C 31.269531 -59.128906 31.929688 -59.40625 32.671875 -59.40625 C 33.472656 -59.40625 34.148438 -59.128906 34.703125 -58.578125 C 35.253906 -58.023438 35.53125 -57.347656 35.53125 -56.546875 C 35.53125 -55.804688 35.253906 -55.144531 34.703125 -54.5625 C 34.148438 -53.976562 33.472656 -53.6875 32.671875 -53.6875 Z M 41.90625 -51.703125 C 41.175781 -51.703125 40.515625 -51.992188 39.921875 -52.578125 C 39.335938 -53.160156 39.046875 -53.820312 39.046875 -54.5625 C 39.046875 -55.363281 39.335938 -56.039062 39.921875 -56.59375 C 40.515625 -57.144531 41.175781 -57.421875 41.90625 -57.421875 C 42.71875 -57.421875 43.394531 -57.144531 43.9375 -56.59375 C 44.488281 -56.039062 44.765625 -55.363281 44.765625 -54.5625 C 44.765625 -53.820312 44.488281 -53.160156 43.9375 -52.578125 C 43.394531 -51.992188 42.71875 -51.703125 41.90625 -51.703125 Z M 23.4375 -51.703125 C 22.695312 -51.703125 22.03125 -51.992188 21.4375 -52.578125 C 20.851562 -53.160156 20.5625 -53.820312 20.5625 -54.5625 C 20.5625 -55.363281 20.851562 -56.039062 21.4375 -56.59375 C 22.03125 -57.144531 22.695312 -57.421875 23.4375 -57.421875 C 24.238281 -57.421875 24.914062 -57.144531 25.46875 -56.59375 C 26.019531 -56.039062 26.296875 -55.363281 26.296875 -54.5625 C 26.296875 -53.820312 26.019531 -53.160156 25.46875 -52.578125 C 24.914062 -51.992188 24.238281 -51.703125 23.4375 -51.703125 Z M 50.046875 -46.53125 C 49.316406 -46.53125 48.65625 -46.820312 48.0625 -47.40625 C 47.476562 -48 47.1875 -48.660156 47.1875 -49.390625 C 47.1875 -50.191406 47.476562 -50.867188 48.0625 -51.421875 C 48.65625 -51.972656 49.316406 -52.25 50.046875 -52.25 C 50.859375 -52.25 51.535156 -51.972656 52.078125 -51.421875 C 52.628906 -50.867188 52.90625 -50.191406 52.90625 -49.390625 C 52.90625 -48.660156 52.628906 -48 52.078125 -47.40625 C 51.535156 -46.820312 50.859375 -46.53125 50.046875 -46.53125 Z M 15.296875 -46.53125 C 14.554688 -46.53125 13.894531 -46.820312 13.3125 -47.40625 C 12.726562 -48 12.4375 -48.660156 12.4375 -49.390625 C 12.4375 -50.191406 12.726562 -50.867188 13.3125 -51.421875 C 13.894531 -51.972656 14.554688 -52.25 15.296875 -52.25 C 16.097656 -52.25 16.773438 -51.972656 17.328125 -51.421875 C 17.878906 -50.867188 18.15625 -50.191406 18.15625 -49.390625 C 18.15625 -48.660156 17.878906 -48 17.328125 -47.40625 C 16.773438 -46.820312 16.097656 -46.53125 15.296875 -46.53125 Z M 55.21875 -38.390625 C 54.488281 -38.390625 53.828125 -38.679688 53.234375 -39.265625 C 52.648438 -39.859375 52.359375 -40.519531 52.359375 -41.25 C 52.359375 -42.050781 52.648438 -42.726562 53.234375 -43.28125 C 53.828125 -43.832031 54.488281 -44.109375 55.21875 -44.109375 C 56.03125 -44.109375 56.707031 -43.832031 57.25 -43.28125 C 57.800781 -42.726562 58.078125 -42.050781 58.078125 -41.25 C 58.078125 -40.519531 57.800781 -39.859375 57.25 -39.265625 C 56.707031 -38.679688 56.03125 -38.390625 55.21875 -38.390625 Z M 10.125 -38.390625 C 9.382812 -38.390625 8.722656 -38.679688 8.140625 -39.265625 C 7.554688 -39.859375 7.265625 -40.519531 7.265625 -41.25 C 7.265625 -42.050781 7.554688 -42.726562 8.140625 -43.28125 C 8.722656 -43.832031 9.382812 -44.109375 10.125 -44.109375 C 10.925781 -44.109375 11.601562 -43.832031 12.15625 -43.28125 C 12.707031 -42.726562 12.984375 -42.050781 12.984375 -41.25 C 12.984375 -40.519531 12.707031 -39.859375 12.15625 -39.265625 C 11.601562 -38.679688 10.925781 -38.390625 10.125 -38.390625 Z M 57.203125 -29.15625 C 56.460938 -29.15625 55.800781 -29.445312 55.21875 -30.03125 C 54.632812 -30.613281 54.34375 -31.273438 54.34375 -32.015625 C 54.34375 -32.816406 54.632812 -33.492188 55.21875 -34.046875 C 55.800781 -34.597656 56.460938 -34.875 57.203125 -34.875 C 58.003906 -34.875 58.679688 -34.597656 59.234375 -34.046875 C 59.785156 -33.492188 60.0625 -32.816406 60.0625 -32.015625 C 60.0625 -31.273438 59.785156 -30.613281 59.234375 -30.03125 C 58.679688 -29.445312 58.003906 -29.15625 57.203125 -29.15625 Z M 8.140625 -29.15625 C 7.410156 -29.15625 6.75 -29.445312 6.15625 -30.03125 C 5.570312 -30.613281 5.28125 -31.273438 5.28125 -32.015625 C 5.28125 -32.816406 5.570312 -33.492188 6.15625 -34.046875 C 6.75 -34.597656 7.410156 -34.875 8.140625 -34.875 C 8.941406 -34.875 9.617188 -34.597656 10.171875 -34.046875 C 10.722656 -33.492188 11 -32.816406 11 -32.015625 C 11 -31.273438 10.722656 -30.613281 10.171875 -30.03125 C 9.617188 -29.445312 8.941406 -29.15625 8.140625 -29.15625 Z M 55.21875 -19.90625 C 54.488281 -19.90625 53.828125 -20.195312 53.234375 -20.78125 C 52.648438 -21.375 52.359375 -22.035156 52.359375 -22.765625 C 52.359375 -23.578125 52.648438 -24.253906 53.234375 -24.796875 C 53.828125 -25.347656 54.488281 -25.625 55.21875 -25.625 C 56.03125 -25.625 56.707031 -25.347656 57.25 -24.796875 C 57.800781 -24.253906 58.078125 -23.578125 58.078125 -22.765625 C 58.078125 -22.035156 57.800781 -21.375 57.25 -20.78125 C 56.707031 -20.195312 56.03125 -19.90625 55.21875 -19.90625 Z M 10.125 -19.90625 C 9.382812 -19.90625 8.722656 -20.195312 8.140625 -20.78125 C 7.554688 -21.375 7.265625 -22.035156 7.265625 -22.765625 C 7.265625 -23.578125 7.554688 -24.253906 8.140625 -24.796875 C 8.722656 -25.347656 9.382812 -25.625 10.125 -25.625 C 10.925781 -25.625 11.601562 -25.347656 12.15625 -24.796875 C 12.707031 -24.253906 12.984375 -23.578125 12.984375 -22.765625 C 12.984375 -22.035156 12.707031 -21.375 12.15625 -20.78125 C 11.601562 -20.195312 10.925781 -19.90625 10.125 -19.90625 Z M 50.046875 -11.765625 C 49.316406 -11.765625 48.65625 -12.054688 48.0625 -12.640625 C 47.476562 -13.234375 47.1875 -13.894531 47.1875 -14.625 C 47.1875 -15.4375 47.476562 -16.113281 48.0625 -16.65625 C 48.65625 -17.207031 49.316406 -17.484375 50.046875 -17.484375 C 50.859375 -17.484375 51.535156 -17.207031 52.078125 -16.65625 C 52.628906 -16.113281 52.90625 -15.4375 52.90625 -14.625 C 52.90625 -13.894531 52.628906 -13.234375 52.078125 -12.640625 C 51.535156 -12.054688 50.859375 -11.765625 50.046875 -11.765625 Z M 15.296875 -11.765625 C 14.554688 -11.765625 13.894531 -12.054688 13.3125 -12.640625 C 12.726562 -13.234375 12.4375 -13.894531 12.4375 -14.625 C 12.4375 -15.4375 12.726562 -16.113281 13.3125 -16.65625 C 13.894531 -17.207031 14.554688 -17.484375 15.296875 -17.484375 C 16.097656 -17.484375 16.773438 -17.207031 17.328125 -16.65625 C 17.878906 -16.113281 18.15625 -15.4375 18.15625 -14.625 C 18.15625 -13.894531 17.878906 -13.234375 17.328125 -12.640625 C 16.773438 -12.054688 16.097656 -11.765625 15.296875 -11.765625 Z M 41.90625 -6.59375 C 41.175781 -6.59375 40.515625 -6.882812 39.921875 -7.46875 C 39.335938 -8.0625 39.046875 -8.722656 39.046875 -9.453125 C 39.046875 -10.265625 39.335938 -10.941406 39.921875 -11.484375 C 40.515625 -12.035156 41.175781 -12.3125 41.90625 -12.3125 C 42.71875 -12.3125 43.394531 -12.035156 43.9375 -11.484375 C 44.488281 -10.941406 44.765625 -10.265625 44.765625 -9.453125 C 44.765625 -8.722656 44.488281 -8.0625 43.9375 -7.46875 C 43.394531 -6.882812 42.71875 -6.59375 41.90625 -6.59375 Z M 23.4375 -6.59375 C 22.695312 -6.59375 22.03125 -6.882812 21.4375 -7.46875 C 20.851562 -8.0625 20.5625 -8.722656 20.5625 -9.453125 C 20.5625 -10.265625 20.851562 -10.941406 21.4375 -11.484375 C 22.03125 -12.035156 22.695312 -12.3125 23.4375 -12.3125 C 24.238281 -12.3125 24.914062 -12.035156 25.46875 -11.484375 C 26.019531 -10.941406 26.296875 -10.265625 26.296875 -9.453125 C 26.296875 -8.722656 26.019531 -8.0625 25.46875 -7.46875 C 24.914062 -6.882812 24.238281 -6.59375 23.4375 -6.59375 Z M 32.671875 -4.625 C 31.929688 -4.625 31.269531 -4.914062 30.6875 -5.5 C 30.101562 -6.082031 29.8125 -6.742188 29.8125 -7.484375 C 29.8125 -8.285156 30.101562 -8.960938 30.6875 -9.515625 C 31.269531 -10.066406 31.929688 -10.34375 32.671875 -10.34375 C 33.472656 -10.34375 34.148438 -10.066406 34.703125 -9.515625 C 35.253906 -8.960938 35.53125 -8.285156 35.53125 -7.484375 C 35.53125 -6.742188 35.253906 -6.082031 34.703125 -5.5 C 34.148438 -4.914062 33.472656 -4.625 32.671875 -4.625 Z M 32.671875 -4.625 "/>
</symbol>
<symbol overflow="visible" id="kannada-pres:id0:glyph0-3">
<path style="stroke:none;" d="M 12.09375 1.203125 C 8.5 1.203125 5.363281 0.34375 2.6875 -1.375 C 0.0195312 -3.09375 -2.410156 -5.566406 -4.609375 -8.796875 C -6.816406 -12.023438 -9.054688 -15.875 -11.328125 -20.34375 L -9.125 -21.78125 C -7.582031 -19.65625 -5.859375 -17.617188 -3.953125 -15.671875 C -2.046875 -13.734375 0.164062 -12.175781 2.6875 -11 C 5.21875 -9.820312 8.242188 -9.234375 11.765625 -9.234375 C 15.285156 -9.234375 18.085938 -9.96875 20.171875 -11.4375 C 22.265625 -12.90625 23.789062 -14.789062 24.75 -17.09375 C 25.707031 -19.40625 26.1875 -21.882812 26.1875 -24.53125 C 26.1875 -30.90625 24.40625 -35.832031 20.84375 -39.3125 C 17.289062 -42.800781 12.394531 -45.570312 6.15625 -47.625 C 6.007812 -48.070312 5.863281 -48.675781 5.71875 -49.4375 C 5.570312 -50.207031 5.5 -50.960938 5.5 -51.703125 C 5.5 -53.171875 5.789062 -54.472656 6.375 -55.609375 C 6.96875 -56.742188 7.921875 -57.3125 9.234375 -57.3125 C 10.992188 -57.3125 13.117188 -56.46875 15.609375 -54.78125 C 18.109375 -53.09375 20.550781 -50.742188 22.9375 -47.734375 C 25.320312 -44.734375 27.300781 -41.210938 28.875 -37.171875 C 30.445312 -33.140625 31.234375 -28.78125 31.234375 -24.09375 C 31.234375 -19.46875 30.554688 -15.226562 29.203125 -11.375 C 27.847656 -7.53125 25.757812 -4.472656 22.9375 -2.203125 C 20.113281 0.0664062 16.5 1.203125 12.09375 1.203125 Z M 12.09375 1.203125 "/>
</symbol>
</g>
<g>
<symbol overflow="visible" id="kannada-pres:id1:glyph0-0">
<path style="stroke:none;" d="M 5.375 -96.6875 L 69.828125 -96.6875 L 69.828125 0 L 5.375 0 Z M 8.0625 -2.6875 L 67.140625 -2.6875 L 67.140625 -94 L 8.0625 -94 Z M 8.0625 -2.6875 "/>
</symbol>
<symbol overflow="visible" id="kannada-pres:id1:glyph0-1">
<path style="stroke:none;" d="M 68.15625 -13.75 L 66.28125 -18.640625 L 88.09375 -27.390625 L 6.984375 -27.390625 L 6.984375 -34 L 88.09375 -34 L 66.28125 -42.75 L 68.15625 -47.640625 L 99.09375 -34.265625 L 99.09375 -27.125 Z M 68.15625 -13.75 "/>
</symbol>
</g>
<g>
<symbol overflow="visible" id="kannada-pres:id2:glyph0-0">
<path style="stroke:none;" d="M 10.453125 0 L 10.453125 -78.546875 L 55.65625 -78.546875 L 55.65625 0 Z M 16.0625 -5.609375 L 50.046875 -5.609375 L 50.046875 -72.9375 L 16.0625 -72.9375 Z M 16.0625 -5.609375 "/>
</symbol>
<symbol overflow="visible" id="kannada-pres:id2:glyph0-1">
<path style="stroke:none;" d="M 6.484375 -50.59375 L 7.15625 -60.171875 L 56.09375 -60.171875 C 59.757812 -60.171875 62.472656 -60.367188 64.234375 -60.765625 C 65.992188 -61.171875 67.390625 -61.816406 68.421875 -62.703125 C 70.109375 -64.023438 70.953125 -66.148438 70.953125 -69.078125 C 70.953125 -73.328125 68.9375 -77.582031 64.90625 -81.84375 L 68.859375 -84.8125 C 71.347656 -82.164062 73.269531 -79.300781 74.625 -76.21875 C 75.988281 -73.144531 76.671875 -69.921875 76.671875 -66.546875 C 76.671875 -64.566406 76.429688 -62.585938 75.953125 -60.609375 C 75.472656 -58.628906 74.390625 -56.867188 72.703125 -55.328125 C 71.390625 -54.078125 69.703125 -53.007812 67.640625 -52.125 C 65.585938 -51.25 62.4375 -50.738281 58.1875 -50.59375 C 62.519531 -48.6875 66.039062 -46.117188 68.75 -42.890625 C 71.457031 -39.671875 73.453125 -36.191406 74.734375 -32.453125 C 76.023438 -28.710938 76.671875 -25.082031 76.671875 -21.5625 C 76.671875 -19.0625 76.394531 -16.472656 75.84375 -13.796875 C 75.289062 -11.128906 74.390625 -8.65625 73.140625 -6.375 C 71.898438 -4.101562 70.21875 -2.269531 68.09375 -0.875 C 65.96875 0.507812 63.328125 1.203125 60.171875 1.203125 C 56.648438 1.203125 53.53125 0.101562 50.8125 -2.09375 C 53.382812 0.695312 56.59375 2.914062 60.4375 4.5625 C 64.289062 6.21875 68.75 7.046875 73.8125 7.046875 C 79.09375 7.046875 83.566406 5.90625 87.234375 3.625 C 90.898438 1.351562 93.664062 -1.757812 95.53125 -5.71875 C 97.40625 -9.675781 98.34375 -14.148438 98.34375 -19.140625 C 98.34375 -26.109375 96.945312 -31.863281 94.15625 -36.40625 C 91.375 -40.957031 87.378906 -44.695312 82.171875 -47.625 C 82.023438 -48.070312 81.894531 -48.675781 81.78125 -49.4375 C 81.675781 -50.207031 81.625 -50.960938 81.625 -51.703125 C 81.625 -53.171875 81.894531 -54.472656 82.4375 -55.609375 C 82.988281 -56.742188 83.925781 -57.3125 85.25 -57.3125 C 87.082031 -57.3125 89.039062 -56.320312 91.125 -54.34375 C 93.21875 -52.363281 95.195312 -49.59375 97.0625 -46.03125 C 98.9375 -42.476562 100.460938 -38.335938 101.640625 -33.609375 C 102.816406 -28.878906 103.40625 -23.800781 103.40625 -18.375 C 103.40625 -11.625 102.375 -5.625 100.3125 -0.375 C 98.257812 4.863281 95.21875 8.984375 91.1875 11.984375 C 87.15625 14.992188 82.132812 16.5 76.125 16.5 C 70.175781 16.5 64.96875 15.085938 60.5 12.265625 C 56.03125 9.441406 52.21875 5.738281 49.0625 1.15625 C 45.90625 -3.425781 43.375 -8.394531 41.46875 -13.75 C 40 -9.28125 37.867188 -5.671875 35.078125 -2.921875 C 32.296875 -0.171875 28.375 1.203125 23.3125 1.203125 C 19.5 1.203125 16.289062 0.285156 13.6875 -1.546875 C 11.09375 -3.378906 9.148438 -5.796875 7.859375 -8.796875 C 6.578125 -11.804688 5.9375 -15.035156 5.9375 -18.484375 C 5.9375 -23.171875 7.203125 -27.109375 9.734375 -30.296875 C 12.265625 -33.492188 15.726562 -35.09375 20.125 -35.09375 C 23.570312 -35.09375 26.226562 -34.15625 28.09375 -32.28125 C 29.96875 -30.414062 30.90625 -28.050781 30.90625 -25.1875 C 30.90625 -22.40625 30.023438 -20.207031 28.265625 -18.59375 C 26.503906 -16.976562 24.050781 -15.953125 20.90625 -15.515625 L 20.234375 -19.578125 C 22.878906 -20.160156 24.203125 -21.664062 24.203125 -24.09375 C 24.203125 -25.40625 23.757812 -26.484375 22.875 -27.328125 C 22 -28.171875 20.644531 -28.59375 18.8125 -28.59375 C 16.394531 -28.59375 14.46875 -27.804688 13.03125 -26.234375 C 11.601562 -24.660156 10.890625 -22.585938 10.890625 -20.015625 C 10.890625 -16.421875 12.0625 -13.722656 14.40625 -11.921875 C 16.757812 -10.128906 20.132812 -9.234375 24.53125 -9.234375 C 32.375 -9.234375 37.46875 -13.488281 39.8125 -22 L 43.5625 -22 C 44.726562 -18.1875 46.285156 -15.101562 48.234375 -12.75 C 50.179688 -10.40625 53.207031 -9.234375 57.3125 -9.234375 C 61.632812 -9.234375 64.65625 -10.625 66.375 -13.40625 C 68.101562 -16.195312 68.96875 -19.613281 68.96875 -23.65625 C 68.96875 -28.632812 67.8125 -33.160156 65.5 -37.234375 C 63.195312 -41.304688 59.972656 -44.550781 55.828125 -46.96875 C 51.679688 -49.382812 46.820312 -50.59375 41.25 -50.59375 Z M 6.484375 -50.59375 "/>
</symbol>
</g>
</defs>
  <g id="kannada-pres:id0:id0" transform="matrix(1.25,0,0,1.25,0.0,0.0)"><g id="kannada-pres:id0:surface1">
<g style="fill:rgb(0%,0%,0%);fill-opacity:1;">
  <use xlink:href="#kannada-pres:id0:glyph0-1" x="16" y="102.09375" class="c0"/>
  <use xlink:href="#kannada-pres:id0:glyph0-2" x="98.609375" y="102.09375" class="dc"/>
  <use xlink:href="#kannada-pres:id0:glyph0-3" x="163.953125" y="102.09375" class="c1"/>
</g>
</g>
</g>
  <g id="kannada-pres:id1:id1" transform="matrix(1.25,0,0,1.25,271.1328125,13.1640625)"><g id="kannada-pres:id1:surface1">
<g style="fill:rgb(0%,0%,0%);fill-opacity:1;">
  <use xlink:href="#kannada-pres:id1:glyph0-1" x="0" y="120.84375" class="arrow"/>
</g>
</g>
</g>
  <g id="kannada-pres:id2:id2" transform="matrix(1.25,0,0,1.25,403.73046875,0.0)"><g id="kannada-pres:id2:surface1">
<g style="fill:rgb(0%,0%,0%);fill-opacity:1;">
  <use xlink:href="#kannada-pres:id2:glyph0-1" x="16" y="102.09375" class="c0"/>
</g>
</g>
</g>
</svg>
