<!DOCTYPE svg PUBLIC "-//W3C//DTD SVG 1.1//EN" "http://www.w3.org/Graphics/SVG/1.1/DTD/svg11.dtd">
<!-- Created with svg_stack (http://github.com/astraw/svg_stack) --><svg xmlns="http://www.w3.org/2000/svg" xmlns:sodipodi="http://sodipodi.sourceforge.net/DTD/sodipodi-0.dtd" xmlns:xlink="http://www.w3.org/1999/xlink" version="1.1" width="836.54296875" height="227.734375" id="kannada-reph-position">
  <defs><g>
<symbol overflow="visible" id="kannada-reph-position:id0:glyph0-0">
<path style="stroke:none;" d="M 10.453125 0 L 10.453125 -78.546875 L 55.65625 -78.546875 L 55.65625 0 Z M 16.0625 -5.609375 L 50.046875 -5.609375 L 50.046875 -72.9375 L 16.0625 -72.9375 Z M 16.0625 -5.609375 "/>
</symbol>
<symbol overflow="visible" id="kannada-reph-position:id0:glyph0-1">
<path style="stroke:none;" d="M 32.671875 -53.6875 C 31.929688 -53.6875 31.269531 -53.976562 30.6875 -54.5625 C 30.101562 -55.144531 29.8125 -55.804688 29.8125 -56.546875 C 29.8125 -57.347656 30.101562 -58.023438 30.6875 -58.578125 C 31.269531 -59.128906 31.929688 -59.40625 32.671875 -59.40625 C 33.472656 -59.40625 34.148438 -59.128906 34.703125 -58.578125 C 35.253906 -58.023438 35.53125 -57.347656 35.53125 -56.546875 C 35.53125 -55.804688 35.253906 -55.144531 34.703125 -54.5625 C 34.148438 -53.976562 33.472656 -53.6875 32.671875 -53.6875 Z M 41.90625 -51.703125 C 41.175781 -51.703125 40.515625 -51.992188 39.921875 -52.578125 C 39.335938 -53.160156 39.046875 -53.820312 39.046875 -54.5625 C 39.046875 -55.363281 39.335938 -56.039062 39.921875 -56.59375 C 40.515625 -57.144531 41.175781 -57.421875 41.90625 -57.421875 C 42.71875 -57.421875 43.394531 -57.144531 43.9375 -56.59375 C 44.488281 -56.039062 44.765625 -55.363281 44.765625 -54.5625 C 44.765625 -53.820312 44.488281 -53.160156 43.9375 -52.578125 C 43.394531 -51.992188 42.71875 -51.703125 41.90625 -51.703125 Z M 23.4375 -51.703125 C 22.695312 -51.703125 22.03125 -51.992188 21.4375 -52.578125 C 20.851562 -53.160156 20.5625 -53.820312 20.5625 -54.5625 C 20.5625 -55.363281 20.851562 -56.039062 21.4375 -56.59375 C 22.03125 -57.144531 22.695312 -57.421875 23.4375 -57.421875 C 24.238281 -57.421875 24.914062 -57.144531 25.46875 -56.59375 C 26.019531 -56.039062 26.296875 -55.363281 26.296875 -54.5625 C 26.296875 -53.820312 26.019531 -53.160156 25.46875 -52.578125 C 24.914062 -51.992188 24.238281 -51.703125 23.4375 -51.703125 Z M 50.046875 -46.53125 C 49.316406 -46.53125 48.65625 -46.820312 48.0625 -47.40625 C 47.476562 -48 47.1875 -48.660156 47.1875 -49.390625 C 47.1875 -50.191406 47.476562 -50.867188 48.0625 -51.421875 C 48.65625 -51.972656 49.316406 -52.25 50.046875 -52.25 C 50.859375 -52.25 51.535156 -51.972656 52.078125 -51.421875 C 52.628906 -50.867188 52.90625 -50.191406 52.90625 -49.390625 C 52.90625 -48.660156 52.628906 -48 52.078125 -47.40625 C 51.535156 -46.820312 50.859375 -46.53125 50.046875 -46.53125 Z M 15.296875 -46.53125 C 14.554688 -46.53125 13.894531 -46.820312 13.3125 -47.40625 C 12.726562 -48 12.4375 -48.660156 12.4375 -49.390625 C 12.4375 -50.191406 12.726562 -50.867188 13.3125 -51.421875 C 13.894531 -51.972656 14.554688 -52.25 15.296875 -52.25 C 16.097656 -52.25 16.773438 -51.972656 17.328125 -51.421875 C 17.878906 -50.867188 18.15625 -50.191406 18.15625 -49.390625 C 18.15625 -48.660156 17.878906 -48 17.328125 -47.40625 C 16.773438 -46.820312 16.097656 -46.53125 15.296875 -46.53125 Z M 55.21875 -38.390625 C 54.488281 -38.390625 53.828125 -38.679688 53.234375 -39.265625 C 52.648438 -39.859375 52.359375 -40.519531 52.359375 -41.25 C 52.359375 -42.050781 52.648438 -42.726562 53.234375 -43.28125 C 53.828125 -43.832031 54.488281 -44.109375 55.21875 -44.109375 C 56.03125 -44.109375 56.707031 -43.832031 57.25 -43.28125 C 57.800781 -42.726562 58.078125 -42.050781 58.078125 -41.25 C 58.078125 -40.519531 57.800781 -39.859375 57.25 -39.265625 C 56.707031 -38.679688 56.03125 -38.390625 55.21875 -38.390625 Z M 10.125 -38.390625 C 9.382812 -38.390625 8.722656 -38.679688 8.140625 -39.265625 C 7.554688 -39.859375 7.265625 -40.519531 7.265625 -41.25 C 7.265625 -42.050781 7.554688 -42.726562 8.140625 -43.28125 C 8.722656 -43.832031 9.382812 -44.109375 10.125 -44.109375 C 10.925781 -44.109375 11.601562 -43.832031 12.15625 -43.28125 C 12.707031 -42.726562 12.984375 -42.050781 12.984375 -41.25 C 12.984375 -40.519531 12.707031 -39.859375 12.15625 -39.265625 C 11.601562 -38.679688 10.925781 -38.390625 10.125 -38.390625 Z M 57.203125 -29.15625 C 56.460938 -29.15625 55.800781 -29.445312 55.21875 -30.03125 C 54.632812 -30.613281 54.34375 -31.273438 54.34375 -32.015625 C 54.34375 -32.816406 54.632812 -33.492188 55.21875 -34.046875 C 55.800781 -34.597656 56.460938 -34.875 57.203125 -34.875 C 58.003906 -34.875 58.679688 -34.597656 59.234375 -34.046875 C 59.785156 -33.492188 60.0625 -32.816406 60.0625 -32.015625 C 60.0625 -31.273438 59.785156 -30.613281 59.234375 -30.03125 C 58.679688 -29.445312 58.003906 -29.15625 57.203125 -29.15625 Z M 8.140625 -29.15625 C 7.410156 -29.15625 6.75 -29.445312 6.15625 -30.03125 C 5.570312 -30.613281 5.28125 -31.273438 5.28125 -32.015625 C 5.28125 -32.816406 5.570312 -33.492188 6.15625 -34.046875 C 6.75 -34.597656 7.410156 -34.875 8.140625 -34.875 C 8.941406 -34.875 9.617188 -34.597656 10.171875 -34.046875 C 10.722656 -33.492188 11 -32.816406 11 -32.015625 C 11 -31.273438 10.722656 -30.613281 10.171875 -30.03125 C 9.617188 -29.445312 8.941406 -29.15625 8.140625 -29.15625 Z M 55.21875 -19.90625 C 54.488281 -19.90625 53.828125 -20.195312 53.234375 -20.78125 C 52.648438 -21.375 52.359375 -22.035156 52.359375 -22.765625 C 52.359375 -23.578125 52.648438 -24.253906 53.234375 -24.796875 C 53.828125 -25.347656 54.488281 -25.625 55.21875 -25.625 C 56.03125 -25.625 56.707031 -25.347656 57.25 -24.796875 C 57.800781 -24.253906 58.078125 -23.578125 58.078125 -22.765625 C 58.078125 -22.035156 57.800781 -21.375 57.25 -20.78125 C 56.707031 -20.195312 56.03125 -19.90625 55.21875 -19.90625 Z M 10.125 -19.90625 C 9.382812 -19.90625 8.722656 -20.195312 8.140625 -20.78125 C 7.554688 -21.375 7.265625 -22.035156 7.265625 -22.765625 C 7.265625 -23.578125 7.554688 -24.253906 8.140625 -24.796875 C 8.722656 -25.347656 9.382812 -25.625 10.125 -25.625 C 10.925781 -25.625 11.601562 -25.347656 12.15625 -24.796875 C 12.707031 -24.253906 12.984375 -23.578125 12.984375 -22.765625 C 12.984375 -22.035156 12.707031 -21.375 12.15625 -20.78125 C 11.601562 -20.195312 10.925781 -19.90625 10.125 -19.90625 Z M 50.046875 -11.765625 C 49.316406 -11.765625 48.65625 -12.054688 48.0625 -12.640625 C 47.476562 -13.234375 47.1875 -13.894531 47.1875 -14.625 C 47.1875 -15.4375 47.476562 -16.113281 48.0625 -16.65625 C 48.65625 -17.207031 49.316406 -17.484375 50.046875 -17.484375 C 50.859375 -17.484375 51.535156 -17.207031 52.078125 -16.65625 C 52.628906 -16.113281 52.90625 -15.4375 52.90625 -14.625 C 52.90625 -13.894531 52.628906 -13.234375 52.078125 -12.640625 C 51.535156 -12.054688 50.859375 -11.765625 50.046875 -11.765625 Z M 15.296875 -11.765625 C 14.554688 -11.765625 13.894531 -12.054688 13.3125 -12.640625 C 12.726562 -13.234375 12.4375 -13.894531 12.4375 -14.625 C 12.4375 -15.4375 12.726562 -16.113281 13.3125 -16.65625 C 13.894531 -17.207031 14.554688 -17.484375 15.296875 -17.484375 C 16.097656 -17.484375 16.773438 -17.207031 17.328125 -16.65625 C 17.878906 -16.113281 18.15625 -15.4375 18.15625 -14.625 C 18.15625 -13.894531 17.878906 -13.234375 17.328125 -12.640625 C 16.773438 -12.054688 16.097656 -11.765625 15.296875 -11.765625 Z M 41.90625 -6.59375 C 41.175781 -6.59375 40.515625 -6.882812 39.921875 -7.46875 C 39.335938 -8.0625 39.046875 -8.722656 39.046875 -9.453125 C 39.046875 -10.265625 39.335938 -10.941406 39.921875 -11.484375 C 40.515625 -12.035156 41.175781 -12.3125 41.90625 -12.3125 C 42.71875 -12.3125 43.394531 -12.035156 43.9375 -11.484375 C 44.488281 -10.941406 44.765625 -10.265625 44.765625 -9.453125 C 44.765625 -8.722656 44.488281 -8.0625 43.9375 -7.46875 C 43.394531 -6.882812 42.71875 -6.59375 41.90625 -6.59375 Z M 23.4375 -6.59375 C 22.695312 -6.59375 22.03125 -6.882812 21.4375 -7.46875 C 20.851562 -8.0625 20.5625 -8.722656 20.5625 -9.453125 C 20.5625 -10.265625 20.851562 -10.941406 21.4375 -11.484375 C 22.03125 -12.035156 22.695312 -12.3125 23.4375 -12.3125 C 24.238281 -12.3125 24.914062 -12.035156 25.46875 -11.484375 C 26.019531 -10.941406 26.296875 -10.265625 26.296875 -9.453125 C 26.296875 -8.722656 26.019531 -8.0625 25.46875 -7.46875 C 24.914062 -6.882812 24.238281 -6.59375 23.4375 -6.59375 Z M 32.671875 -4.625 C 31.929688 -4.625 31.269531 -4.914062 30.6875 -5.5 C 30.101562 -6.082031 29.8125 -6.742188 29.8125 -7.484375 C 29.8125 -8.285156 30.101562 -8.960938 30.6875 -9.515625 C 31.269531 -10.066406 31.929688 -10.34375 32.671875 -10.34375 C 33.472656 -10.34375 34.148438 -10.066406 34.703125 -9.515625 C 35.253906 -8.960938 35.53125 -8.285156 35.53125 -7.484375 C 35.53125 -6.742188 35.253906 -6.082031 34.703125 -5.5 C 34.148438 -4.914062 33.472656 -4.625 32.671875 -4.625 Z M 32.671875 -4.625 "/>
</symbol>
<symbol overflow="visible" id="kannada-reph-position:id0:glyph0-2">
<path style="stroke:none;" d="M 21.125 0 C 18.625 0 16.179688 -0.492188 13.796875 -1.484375 C 11.421875 -2.472656 9.441406 -4.03125 7.859375 -6.15625 C 6.285156 -8.28125 5.5 -11.066406 5.5 -14.515625 C 5.5 -17.597656 6.25 -20.289062 7.75 -22.59375 C 9.257812 -24.90625 11.40625 -26.648438 14.1875 -27.828125 C 11.476562 -29.222656 9.351562 -31.1875 7.8125 -33.71875 C 6.269531 -36.25 5.5 -39.3125 5.5 -42.90625 C 5.5 -48.40625 7.347656 -52.65625 11.046875 -55.65625 C 14.753906 -58.664062 19.835938 -60.171875 26.296875 -60.171875 L 54.890625 -60.171875 L 54.125 -50.59375 L 23.875 -50.59375 C 19.539062 -50.59375 16.398438 -49.859375 14.453125 -48.390625 C 12.515625 -46.929688 11.546875 -44.914062 11.546875 -42.34375 C 11.546875 -39.632812 12.535156 -37.5625 14.515625 -36.125 C 16.492188 -34.695312 18.988281 -33.984375 22 -33.984375 L 37.1875 -33.984375 L 37.1875 -24.96875 L 21.125 -24.96875 C 18.113281 -24.96875 15.765625 -24.289062 14.078125 -22.9375 C 12.390625 -21.582031 11.546875 -19.65625 11.546875 -17.15625 C 11.546875 -14.882812 12.316406 -13.03125 13.859375 -11.59375 C 15.398438 -10.164062 17.632812 -9.453125 20.5625 -9.453125 L 23.765625 -9.453125 L 23.765625 0 Z M 21.125 0 "/>
</symbol>
<symbol overflow="visible" id="kannada-reph-position:id0:glyph0-3">
<path style="stroke:none;" d="M 23.3125 1.203125 C 18.625 1.203125 14.8125 -0.207031 11.875 -3.03125 C 8.945312 -5.851562 7.484375 -9.390625 7.484375 -13.640625 C 7.484375 -16.867188 8.363281 -19.875 10.125 -22.65625 C 11.882812 -25.445312 14.445312 -28.414062 17.8125 -31.5625 C 20.601562 -34.132812 22.710938 -36.335938 24.140625 -38.171875 C 25.578125 -40.003906 26.296875 -42.128906 26.296875 -44.546875 C 26.296875 -46.597656 25.632812 -48.394531 24.3125 -49.9375 C 22.988281 -51.476562 20.898438 -52.25 18.046875 -52.25 C 15.398438 -52.25 13.320312 -51.585938 11.8125 -50.265625 C 10.3125 -48.953125 9.5625 -47.117188 9.5625 -44.765625 C 9.5625 -43.378906 9.765625 -42.207031 10.171875 -41.25 C 10.578125 -40.289062 11.035156 -39.300781 11.546875 -38.28125 L 8.359375 -36.1875 C 7.035156 -37.726562 5.929688 -39.503906 5.046875 -41.515625 C 4.171875 -43.535156 3.734375 -45.796875 3.734375 -48.296875 C 3.734375 -51.734375 4.960938 -54.769531 7.421875 -57.40625 C 9.878906 -60.050781 13.566406 -61.375 18.484375 -61.375 C 23.535156 -61.375 27.21875 -59.976562 29.53125 -57.1875 C 31.84375 -54.40625 33 -51 33 -46.96875 C 33 -44.03125 32.242188 -41.316406 30.734375 -38.828125 C 29.234375 -36.335938 26.945312 -33.585938 23.875 -30.578125 C 21.15625 -27.941406 18.988281 -25.578125 17.375 -23.484375 C 15.757812 -21.390625 14.953125 -19.207031 14.953125 -16.9375 C 14.953125 -14.445312 15.773438 -12.539062 17.421875 -11.21875 C 19.078125 -9.894531 21.375 -9.234375 24.3125 -9.234375 C 28.269531 -9.234375 31.550781 -10.332031 34.15625 -12.53125 C 36.757812 -14.738281 38.722656 -17.929688 40.046875 -22.109375 L 43.671875 -22.109375 C 44.765625 -18.367188 46.300781 -15.285156 48.28125 -12.859375 C 50.269531 -10.441406 53.460938 -9.234375 57.859375 -9.234375 C 61.742188 -9.234375 64.726562 -10.515625 66.8125 -13.078125 C 68.90625 -15.648438 69.953125 -19.394531 69.953125 -24.3125 C 69.953125 -29.59375 68.78125 -34.191406 66.4375 -38.109375 C 64.09375 -42.035156 60.976562 -45.097656 57.09375 -47.296875 C 53.207031 -49.492188 48.914062 -50.59375 44.21875 -50.59375 L 43.5625 -50.59375 L 44.21875 -60.171875 L 56.203125 -60.171875 C 59.941406 -60.171875 62.671875 -60.367188 64.390625 -60.765625 C 66.117188 -61.171875 67.535156 -61.851562 68.640625 -62.8125 C 70.253906 -64.207031 71.0625 -66.332031 71.0625 -69.1875 C 71.0625 -73.289062 69.082031 -77.546875 65.125 -81.953125 L 69.078125 -84.8125 C 71.492188 -82.238281 73.398438 -79.394531 74.796875 -76.28125 C 76.191406 -73.164062 76.890625 -69.921875 76.890625 -66.546875 C 76.890625 -64.640625 76.628906 -62.675781 76.109375 -60.65625 C 75.597656 -58.644531 74.539062 -56.867188 72.9375 -55.328125 C 71.6875 -54.148438 70.109375 -53.140625 68.203125 -52.296875 C 66.296875 -51.460938 63.398438 -50.929688 59.515625 -50.703125 C 63.179688 -49.023438 66.3125 -46.660156 68.90625 -43.609375 C 71.507812 -40.566406 73.488281 -37.117188 74.84375 -33.265625 C 76.207031 -29.421875 76.890625 -25.410156 76.890625 -21.234375 C 76.890625 -14.554688 75.332031 -9.144531 72.21875 -5 C 69.101562 -0.863281 64.832031 1.203125 59.40625 1.203125 C 54.707031 1.203125 50.925781 -0.128906 48.0625 -2.796875 C 45.207031 -5.472656 43.046875 -9.125 41.578125 -13.75 C 39.890625 -8.832031 37.597656 -5.109375 34.703125 -2.578125 C 31.804688 -0.0546875 28.007812 1.203125 23.3125 1.203125 Z M 41.578125 21.234375 C 39.816406 21.234375 38.457031 20.898438 37.5 20.234375 C 36.550781 19.578125 36.078125 18.441406 36.078125 16.828125 C 36.078125 15.734375 36.28125 14.269531 36.6875 12.4375 C 37.09375 10.601562 37.585938 8.617188 38.171875 6.484375 C 38.753906 4.359375 39.34375 2.414062 39.9375 0.65625 L 43.015625 0.65625 C 43.671875 2.34375 44.289062 4.210938 44.875 6.265625 C 45.46875 8.316406 45.945312 10.273438 46.3125 12.140625 C 46.675781 14.015625 46.859375 15.578125 46.859375 16.828125 C 46.859375 18.441406 46.398438 19.578125 45.484375 20.234375 C 44.566406 20.898438 43.265625 21.234375 41.578125 21.234375 Z M 41.578125 21.234375 "/>
</symbol>
<symbol overflow="visible" id="kannada-reph-position:id0:glyph0-4">
<path style="stroke:none;" d="M 11.4375 1.203125 C 7.1875 1.203125 3.191406 -0.644531 -0.546875 -4.34375 C -4.285156 -8.050781 -7.878906 -13.457031 -11.328125 -20.5625 L -9.125 -22 C -5.976562 -17.53125 -2.789062 -14.285156 0.4375 -12.265625 C 3.664062 -10.242188 6.785156 -9.234375 9.796875 -9.234375 C 12.722656 -9.234375 14.828125 -10.078125 16.109375 -11.765625 C 17.398438 -13.453125 18.046875 -15.945312 18.046875 -19.25 C 18.046875 -21.375 17.988281 -23.71875 17.875 -26.28125 C 17.757812 -28.851562 17.703125 -31.492188 17.703125 -34.203125 C 17.703125 -39.628906 18.726562 -44.378906 20.78125 -48.453125 C 22.84375 -52.523438 25.722656 -55.695312 29.421875 -57.96875 C 33.128906 -60.238281 37.472656 -61.375 42.453125 -61.375 C 48.109375 -61.375 52.878906 -59.976562 56.765625 -57.1875 C 60.648438 -54.40625 63.597656 -50.484375 65.609375 -45.421875 C 67.628906 -40.367188 68.640625 -34.394531 68.640625 -27.5 C 68.640625 -22.21875 67.90625 -17.394531 66.4375 -13.03125 C 64.96875 -8.664062 62.75 -5.203125 59.78125 -2.640625 C 56.8125 -0.078125 53.09375 1.203125 48.625 1.203125 C 43.269531 1.203125 39.03125 -0.367188 35.90625 -3.515625 C 32.789062 -6.671875 31.234375 -10.816406 31.234375 -15.953125 C 31.234375 -20.640625 32.515625 -24.320312 35.078125 -27 C 37.648438 -29.675781 40.625 -31.015625 44 -31.015625 C 46.414062 -31.015625 48.25 -30.351562 49.5 -29.03125 C 50.75 -27.71875 51.375 -26 51.375 -23.875 C 51.375 -22.113281 50.84375 -20.644531 49.78125 -19.46875 C 48.71875 -18.289062 47.226562 -17.703125 45.3125 -17.703125 C 43.632812 -17.703125 42.222656 -18.21875 41.078125 -19.25 C 39.941406 -20.28125 39.375 -21.710938 39.375 -23.546875 L 39.375 -23.875 C 38.351562 -23.0625 37.546875 -22.015625 36.953125 -20.734375 C 36.367188 -19.453125 36.078125 -18.003906 36.078125 -16.390625 C 36.078125 -13.523438 37.082031 -11.25 39.09375 -9.5625 C 41.113281 -7.882812 43.992188 -7.046875 47.734375 -7.046875 C 52.648438 -7.046875 56.519531 -8.835938 59.34375 -12.421875 C 62.164062 -16.015625 63.578125 -21.003906 63.578125 -27.390625 C 63.578125 -35.015625 61.796875 -40.9375 58.234375 -45.15625 C 54.679688 -49.375 49.570312 -51.484375 42.90625 -51.484375 C 36.375 -51.484375 31.382812 -49.613281 27.9375 -45.875 C 24.488281 -42.132812 22.765625 -37.035156 22.765625 -30.578125 C 22.765625 -28.234375 22.800781 -25.648438 22.875 -22.828125 C 22.945312 -20.003906 22.984375 -17.050781 22.984375 -13.96875 C 22.984375 -9.125 22.066406 -5.382812 20.234375 -2.75 C 18.398438 -0.113281 15.46875 1.203125 11.4375 1.203125 Z M 11.4375 1.203125 "/>
</symbol>
<symbol overflow="visible" id="kannada-reph-position:id0:glyph0-5">
<path style="stroke:none;" d="M -14.625 46.75 C -17.78125 46.75 -20.179688 46.070312 -21.828125 44.71875 C -23.484375 43.363281 -24.3125 41.546875 -24.3125 39.265625 C -24.3125 37.285156 -23.613281 35.675781 -22.21875 34.4375 C -26.914062 34.132812 -30.546875 32.753906 -33.109375 30.296875 C -35.671875 27.847656 -36.953125 24.566406 -36.953125 20.453125 C -36.953125 16.566406 -35.757812 13.210938 -33.375 10.390625 C -31 7.566406 -27.609375 6.15625 -23.203125 6.15625 C -20.128906 6.15625 -17.785156 6.976562 -16.171875 8.625 C -14.554688 10.28125 -13.75 12.390625 -13.75 14.953125 C -13.75 17.523438 -14.460938 19.582031 -15.890625 21.125 C -17.328125 22.664062 -19.398438 23.4375 -22.109375 23.4375 C -24.828125 23.4375 -26.863281 22.679688 -28.21875 21.171875 C -29.570312 19.671875 -30.25 17.785156 -30.25 15.515625 C -30.25 14.992188 -30.175781 14.515625 -30.03125 14.078125 C -31.570312 15.472656 -32.34375 17.195312 -32.34375 19.25 C -32.34375 21.519531 -31.367188 23.296875 -29.421875 24.578125 C -27.484375 25.867188 -24.3125 26.660156 -19.90625 26.953125 C -17.269531 27.171875 -15.125 27.460938 -13.46875 27.828125 C -11.820312 28.191406 -10.410156 28.851562 -9.234375 29.8125 C -1.390625 26.582031 2.53125 21.484375 2.53125 14.515625 C 2.53125 10.921875 1.671875 7.953125 -0.046875 5.609375 C -1.773438 3.265625 -4.21875 1.503906 -7.375 0.328125 C -7.738281 -0.328125 -7.921875 -1.171875 -7.921875 -2.203125 C -7.921875 -4.328125 -6.894531 -5.390625 -4.84375 -5.390625 C -2.789062 -5.390625 -0.867188 -4.472656 0.921875 -2.640625 C 2.722656 -0.804688 4.210938 1.609375 5.390625 4.609375 C 6.566406 7.617188 7.15625 10.882812 7.15625 14.40625 C 7.15625 19.03125 5.890625 22.914062 3.359375 26.0625 C 0.828125 29.21875 -2.304688 31.710938 -6.046875 33.546875 C -5.171875 35.015625 -4.734375 36.703125 -4.734375 38.609375 C -4.734375 41.023438 -5.519531 42.984375 -7.09375 44.484375 C -8.664062 45.992188 -11.175781 46.75 -14.625 46.75 Z M -22.21875 17.484375 C -19.363281 17.484375 -17.9375 16.566406 -17.9375 14.734375 C -17.9375 14.003906 -18.28125 13.398438 -18.96875 12.921875 C -19.664062 12.441406 -20.75 12.203125 -22.21875 12.203125 C -25.15625 12.203125 -26.625 13.082031 -26.625 14.84375 C -26.625 16.601562 -25.15625 17.484375 -22.21875 17.484375 Z M -14.40625 39.9375 C -11.03125 39.9375 -9.34375 39.054688 -9.34375 37.296875 C -9.34375 35.609375 -11.03125 34.765625 -14.40625 34.765625 C -17.707031 34.765625 -19.359375 35.644531 -19.359375 37.40625 C -19.359375 39.09375 -17.707031 39.9375 -14.40625 39.9375 Z M -14.40625 39.9375 "/>
</symbol>
</g>
<g>
<symbol overflow="visible" id="kannada-reph-position:id1:glyph0-0">
<path style="stroke:none;" d="M 5.375 -96.6875 L 69.828125 -96.6875 L 69.828125 0 L 5.375 0 Z M 8.0625 -2.6875 L 67.140625 -2.6875 L 67.140625 -94 L 8.0625 -94 Z M 8.0625 -2.6875 "/>
</symbol>
<symbol overflow="visible" id="kannada-reph-position:id1:glyph0-1">
<path style="stroke:none;" d="M 68.15625 -13.75 L 66.28125 -18.640625 L 88.09375 -27.390625 L 6.984375 -27.390625 L 6.984375 -34 L 88.09375 -34 L 66.28125 -42.75 L 68.15625 -47.640625 L 99.09375 -34.265625 L 99.09375 -27.125 Z M 68.15625 -13.75 "/>
</symbol>
</g>
<g>
<symbol overflow="visible" id="kannada-reph-position:id2:glyph0-0">
<path style="stroke:none;" d="M 10.453125 0 L 10.453125 -78.546875 L 55.65625 -78.546875 L 55.65625 0 Z M 16.0625 -5.609375 L 50.046875 -5.609375 L 50.046875 -72.9375 L 16.0625 -72.9375 Z M 16.0625 -5.609375 "/>
</symbol>
<symbol overflow="visible" id="kannada-reph-position:id2:glyph0-1">
<path style="stroke:none;" d="M 23.3125 1.203125 C 18.625 1.203125 14.8125 -0.207031 11.875 -3.03125 C 8.945312 -5.851562 7.484375 -9.390625 7.484375 -13.640625 C 7.484375 -16.867188 8.363281 -19.875 10.125 -22.65625 C 11.882812 -25.445312 14.445312 -28.414062 17.8125 -31.5625 C 20.601562 -34.132812 22.710938 -36.335938 24.140625 -38.171875 C 25.578125 -40.003906 26.296875 -42.128906 26.296875 -44.546875 C 26.296875 -46.597656 25.632812 -48.394531 24.3125 -49.9375 C 22.988281 -51.476562 20.898438 -52.25 18.046875 -52.25 C 15.398438 -52.25 13.320312 -51.585938 11.8125 -50.265625 C 10.3125 -48.953125 9.5625 -47.117188 9.5625 -44.765625 C 9.5625 -43.378906 9.765625 -42.207031 10.171875 -41.25 C 10.578125 -40.289062 11.035156 -39.300781 11.546875 -38.28125 L 8.359375 -36.1875 C 7.035156 -37.726562 5.929688 -39.503906 5.046875 -41.515625 C 4.171875 -43.535156 3.734375 -45.796875 3.734375 -48.296875 C 3.734375 -51.734375 4.960938 -54.769531 7.421875 -57.40625 C 9.878906 -60.050781 13.566406 -61.375 18.484375 -61.375 C 23.535156 -61.375 27.21875 -59.976562 29.53125 -57.1875 C 31.84375 -54.40625 33 -51 33 -46.96875 C 33 -44.03125 32.242188 -41.316406 30.734375 -38.828125 C 29.234375 -36.335938 26.945312 -33.585938 23.875 -30.578125 C 21.15625 -27.941406 18.988281 -25.578125 17.375 -23.484375 C 15.757812 -21.390625 14.953125 -19.207031 14.953125 -16.9375 C 14.953125 -14.445312 15.773438 -12.539062 17.421875 -11.21875 C 19.078125 -9.894531 21.375 -9.234375 24.3125 -9.234375 C 28.269531 -9.234375 31.550781 -10.332031 34.15625 -12.53125 C 36.757812 -14.738281 38.722656 -17.929688 40.046875 -22.109375 L 43.671875 -22.109375 C 44.765625 -18.367188 46.300781 -15.285156 48.28125 -12.859375 C 50.269531 -10.441406 53.460938 -9.234375 57.859375 -9.234375 C 61.742188 -9.234375 64.726562 -10.515625 66.8125 -13.078125 C 68.90625 -15.648438 69.953125 -19.394531 69.953125 -24.3125 C 69.953125 -29.59375 68.78125 -34.191406 66.4375 -38.109375 C 64.09375 -42.035156 60.976562 -45.097656 57.09375 -47.296875 C 53.207031 -49.492188 48.914062 -50.59375 44.21875 -50.59375 L 43.5625 -50.59375 L 44.21875 -60.171875 L 56.203125 -60.171875 C 59.941406 -60.171875 62.671875 -60.367188 64.390625 -60.765625 C 66.117188 -61.171875 67.535156 -61.851562 68.640625 -62.8125 C 70.253906 -64.207031 71.0625 -66.332031 71.0625 -69.1875 C 71.0625 -73.289062 69.082031 -77.546875 65.125 -81.953125 L 69.078125 -84.8125 C 71.492188 -82.238281 73.398438 -79.394531 74.796875 -76.28125 C 76.191406 -73.164062 76.890625 -69.921875 76.890625 -66.546875 C 76.890625 -64.640625 76.628906 -62.675781 76.109375 -60.65625 C 75.597656 -58.644531 74.539062 -56.867188 72.9375 -55.328125 C 71.6875 -54.148438 70.109375 -53.140625 68.203125 -52.296875 C 66.296875 -51.460938 63.398438 -50.929688 59.515625 -50.703125 C 63.179688 -49.023438 66.3125 -46.660156 68.90625 -43.609375 C 71.507812 -40.566406 73.488281 -37.117188 74.84375 -33.265625 C 76.207031 -29.421875 76.890625 -25.410156 76.890625 -21.234375 C 76.890625 -14.554688 75.332031 -9.144531 72.21875 -5 C 69.101562 -0.863281 64.832031 1.203125 59.40625 1.203125 C 54.707031 1.203125 50.925781 -0.128906 48.0625 -2.796875 C 45.207031 -5.472656 43.046875 -9.125 41.578125 -13.75 C 39.890625 -8.832031 37.597656 -5.109375 34.703125 -2.578125 C 31.804688 -0.0546875 28.007812 1.203125 23.3125 1.203125 Z M 41.578125 21.234375 C 39.816406 21.234375 38.457031 20.898438 37.5 20.234375 C 36.550781 19.578125 36.078125 18.441406 36.078125 16.828125 C 36.078125 15.734375 36.28125 14.269531 36.6875 12.4375 C 37.09375 10.601562 37.585938 8.617188 38.171875 6.484375 C 38.753906 4.359375 39.34375 2.414062 39.9375 0.65625 L 43.015625 0.65625 C 43.671875 2.34375 44.289062 4.210938 44.875 6.265625 C 45.46875 8.316406 45.945312 10.273438 46.3125 12.140625 C 46.675781 14.015625 46.859375 15.578125 46.859375 16.828125 C 46.859375 18.441406 46.398438 19.578125 45.484375 20.234375 C 44.566406 20.898438 43.265625 21.234375 41.578125 21.234375 Z M 41.578125 21.234375 "/>
</symbol>
<symbol overflow="visible" id="kannada-reph-position:id2:glyph0-2">
<path style="stroke:none;" d="M 11.4375 1.203125 C 7.1875 1.203125 3.191406 -0.644531 -0.546875 -4.34375 C -4.285156 -8.050781 -7.878906 -13.457031 -11.328125 -20.5625 L -9.125 -22 C -5.976562 -17.53125 -2.789062 -14.285156 0.4375 -12.265625 C 3.664062 -10.242188 6.785156 -9.234375 9.796875 -9.234375 C 12.722656 -9.234375 14.828125 -10.078125 16.109375 -11.765625 C 17.398438 -13.453125 18.046875 -15.945312 18.046875 -19.25 C 18.046875 -21.375 17.988281 -23.71875 17.875 -26.28125 C 17.757812 -28.851562 17.703125 -31.492188 17.703125 -34.203125 C 17.703125 -39.628906 18.726562 -44.378906 20.78125 -48.453125 C 22.84375 -52.523438 25.722656 -55.695312 29.421875 -57.96875 C 33.128906 -60.238281 37.472656 -61.375 42.453125 -61.375 C 48.109375 -61.375 52.878906 -59.976562 56.765625 -57.1875 C 60.648438 -54.40625 63.597656 -50.484375 65.609375 -45.421875 C 67.628906 -40.367188 68.640625 -34.394531 68.640625 -27.5 C 68.640625 -22.21875 67.90625 -17.394531 66.4375 -13.03125 C 64.96875 -8.664062 62.75 -5.203125 59.78125 -2.640625 C 56.8125 -0.078125 53.09375 1.203125 48.625 1.203125 C 43.269531 1.203125 39.03125 -0.367188 35.90625 -3.515625 C 32.789062 -6.671875 31.234375 -10.816406 31.234375 -15.953125 C 31.234375 -20.640625 32.515625 -24.320312 35.078125 -27 C 37.648438 -29.675781 40.625 -31.015625 44 -31.015625 C 46.414062 -31.015625 48.25 -30.351562 49.5 -29.03125 C 50.75 -27.71875 51.375 -26 51.375 -23.875 C 51.375 -22.113281 50.84375 -20.644531 49.78125 -19.46875 C 48.71875 -18.289062 47.226562 -17.703125 45.3125 -17.703125 C 43.632812 -17.703125 42.222656 -18.21875 41.078125 -19.25 C 39.941406 -20.28125 39.375 -21.710938 39.375 -23.546875 L 39.375 -23.875 C 38.351562 -23.0625 37.546875 -22.015625 36.953125 -20.734375 C 36.367188 -19.453125 36.078125 -18.003906 36.078125 -16.390625 C 36.078125 -13.523438 37.082031 -11.25 39.09375 -9.5625 C 41.113281 -7.882812 43.992188 -7.046875 47.734375 -7.046875 C 52.648438 -7.046875 56.519531 -8.835938 59.34375 -12.421875 C 62.164062 -16.015625 63.578125 -21.003906 63.578125 -27.390625 C 63.578125 -35.015625 61.796875 -40.9375 58.234375 -45.15625 C 54.679688 -49.375 49.570312 -51.484375 42.90625 -51.484375 C 36.375 -51.484375 31.382812 -49.613281 27.9375 -45.875 C 24.488281 -42.132812 22.765625 -37.035156 22.765625 -30.578125 C 22.765625 -28.234375 22.800781 -25.648438 22.875 -22.828125 C 22.945312 -20.003906 22.984375 -17.050781 22.984375 -13.96875 C 22.984375 -9.125 22.066406 -5.382812 20.234375 -2.75 C 18.398438 -0.113281 15.46875 1.203125 11.4375 1.203125 Z M 11.4375 1.203125 "/>
</symbol>
<symbol overflow="visible" id="kannada-reph-position:id2:glyph0-3">
<path style="stroke:none;" d="M -14.625 46.75 C -17.78125 46.75 -20.179688 46.070312 -21.828125 44.71875 C -23.484375 43.363281 -24.3125 41.546875 -24.3125 39.265625 C -24.3125 37.285156 -23.613281 35.675781 -22.21875 34.4375 C -26.914062 34.132812 -30.546875 32.753906 -33.109375 30.296875 C -35.671875 27.847656 -36.953125 24.566406 -36.953125 20.453125 C -36.953125 16.566406 -35.757812 13.210938 -33.375 10.390625 C -31 7.566406 -27.609375 6.15625 -23.203125 6.15625 C -20.128906 6.15625 -17.785156 6.976562 -16.171875 8.625 C -14.554688 10.28125 -13.75 12.390625 -13.75 14.953125 C -13.75 17.523438 -14.460938 19.582031 -15.890625 21.125 C -17.328125 22.664062 -19.398438 23.4375 -22.109375 23.4375 C -24.828125 23.4375 -26.863281 22.679688 -28.21875 21.171875 C -29.570312 19.671875 -30.25 17.785156 -30.25 15.515625 C -30.25 14.992188 -30.175781 14.515625 -30.03125 14.078125 C -31.570312 15.472656 -32.34375 17.195312 -32.34375 19.25 C -32.34375 21.519531 -31.367188 23.296875 -29.421875 24.578125 C -27.484375 25.867188 -24.3125 26.660156 -19.90625 26.953125 C -17.269531 27.171875 -15.125 27.460938 -13.46875 27.828125 C -11.820312 28.191406 -10.410156 28.851562 -9.234375 29.8125 C -1.390625 26.582031 2.53125 21.484375 2.53125 14.515625 C 2.53125 10.921875 1.671875 7.953125 -0.046875 5.609375 C -1.773438 3.265625 -4.21875 1.503906 -7.375 0.328125 C -7.738281 -0.328125 -7.921875 -1.171875 -7.921875 -2.203125 C -7.921875 -4.328125 -6.894531 -5.390625 -4.84375 -5.390625 C -2.789062 -5.390625 -0.867188 -4.472656 0.921875 -2.640625 C 2.722656 -0.804688 4.210938 1.609375 5.390625 4.609375 C 6.566406 7.617188 7.15625 10.882812 7.15625 14.40625 C 7.15625 19.03125 5.890625 22.914062 3.359375 26.0625 C 0.828125 29.21875 -2.304688 31.710938 -6.046875 33.546875 C -5.171875 35.015625 -4.734375 36.703125 -4.734375 38.609375 C -4.734375 41.023438 -5.519531 42.984375 -7.09375 44.484375 C -8.664062 45.992188 -11.175781 46.75 -14.625 46.75 Z M -22.21875 17.484375 C -19.363281 17.484375 -17.9375 16.566406 -17.9375 14.734375 C -17.9375 14.003906 -18.28125 13.398438 -18.96875 12.921875 C -19.664062 12.441406 -20.75 12.203125 -22.21875 12.203125 C -25.15625 12.203125 -26.625 13.082031 -26.625 14.84375 C -26.625 16.601562 -25.15625 17.484375 -22.21875 17.484375 Z M -14.40625 39.9375 C -11.03125 39.9375 -9.34375 39.054688 -9.34375 37.296875 C -9.34375 35.609375 -11.03125 34.765625 -14.40625 34.765625 C -17.707031 34.765625 -19.359375 35.644531 -19.359375 37.40625 C -19.359375 39.09375 -17.707031 39.9375 -14.40625 39.9375 Z M -14.40625 39.9375 "/>
</symbol>
<symbol overflow="visible" id="kannada-reph-position:id2:glyph0-4">
<path style="stroke:none;" d="M 21.125 0 C 18.625 0 16.179688 -0.492188 13.796875 -1.484375 C 11.421875 -2.472656 9.441406 -4.03125 7.859375 -6.15625 C 6.285156 -8.28125 5.5 -11.066406 5.5 -14.515625 C 5.5 -17.597656 6.25 -20.289062 7.75 -22.59375 C 9.257812 -24.90625 11.40625 -26.648438 14.1875 -27.828125 C 11.476562 -29.222656 9.351562 -31.1875 7.8125 -33.71875 C 6.269531 -36.25 5.5 -39.3125 5.5 -42.90625 C 5.5 -48.40625 7.347656 -52.65625 11.046875 -55.65625 C 14.753906 -58.664062 19.835938 -60.171875 26.296875 -60.171875 L 54.890625 -60.171875 L 54.125 -50.59375 L 23.875 -50.59375 C 19.539062 -50.59375 16.398438 -49.859375 14.453125 -48.390625 C 12.515625 -46.929688 11.546875 -44.914062 11.546875 -42.34375 C 11.546875 -39.632812 12.535156 -37.5625 14.515625 -36.125 C 16.492188 -34.695312 18.988281 -33.984375 22 -33.984375 L 37.1875 -33.984375 L 37.1875 -24.96875 L 21.125 -24.96875 C 18.113281 -24.96875 15.765625 -24.289062 14.078125 -22.9375 C 12.390625 -21.582031 11.546875 -19.65625 11.546875 -17.15625 C 11.546875 -14.882812 12.316406 -13.03125 13.859375 -11.59375 C 15.398438 -10.164062 17.632812 -9.453125 20.5625 -9.453125 L 23.765625 -9.453125 L 23.765625 0 Z M 21.125 0 "/>
</symbol>
</g>
</defs>
  <g id="kannada-reph-position:id0:id0" transform="matrix(1.25,0,0,1.25,0.0,0.0)"><g id="kannada-reph-position:id0:surface1">
<g style="fill:rgb(0%,0%,0%);fill-opacity:1;">
  <use xlink:href="#kannada-reph-position:id0:glyph0-1" x="16" y="102.09375" class="dc"/>
  <use xlink:href="#kannada-reph-position:id0:glyph0-2" x="81.34375" y="102.09375" class="c0"/>
  <use xlink:href="#kannada-reph-position:id0:glyph0-3" x="138.875" y="102.09375" class="c1"/>
  <use xlink:href="#kannada-reph-position:id0:glyph0-4" x="221.703125" y="102.09375" class="c2"/>
  <use xlink:href="#kannada-reph-position:id0:glyph0-5" x="298.25" y="102.09375" class="c3"/>
</g>
</g>
</g>
  <g id="kannada-reph-position:id1:id1" transform="matrix(1.25,0,0,1.25,392.8125,13.1640625)"><g id="kannada-reph-position:id1:surface1">
<g style="fill:rgb(0%,0%,0%);fill-opacity:1;">
  <use xlink:href="#kannada-reph-position:id1:glyph0-1" x="0" y="120.84375" class="arrow"/>
</g>
</g>
</g>
  <g id="kannada-reph-position:id2:id2" transform="matrix(1.25,0,0,1.25,525.41015625,0.0)"><g id="kannada-reph-position:id2:surface1">
<g style="fill:rgb(0%,0%,0%);fill-opacity:1;">
  <use xlink:href="#kannada-reph-position:id2:glyph0-1" x="16" y="102.09375" class="c1"/>
  <use xlink:href="#kannada-reph-position:id2:glyph0-2" x="98.828125" y="102.09375" class="c2"/>
  <use xlink:href="#kannada-reph-position:id2:glyph0-3" x="175.375" y="102.09375" class="c3"/>
  <use xlink:href="#kannada-reph-position:id2:glyph0-4" x="175.375" y="102.09375" class="c0"/>
</g>
</g>
</g>
</svg>
