<!DOCTYPE svg PUBLIC "-//W3C//DTD SVG 1.1//EN" "http://www.w3.org/Graphics/SVG/1.1/DTD/svg11.dtd">
<!-- Created with svg_stack (http://github.com/astraw/svg_stack) --><svg xmlns="http://www.w3.org/2000/svg" xmlns:sodipodi="http://sodipodi.sourceforge.net/DTD/sodipodi-0.dtd" xmlns:xlink="http://www.w3.org/1999/xlink" version="1.1" width="100%" id="kannada-blws" viewBox="0 0 421.85546875 227.734375">
  <defs><g>
<symbol overflow="visible" id="kannada-blws:id0:glyph0-0">
<path style="stroke:none;" d="M 10.453125 0 L 10.453125 -78.546875 L 55.65625 -78.546875 L 55.65625 0 Z M 16.0625 -5.609375 L 50.046875 -5.609375 L 50.046875 -72.9375 L 16.0625 -72.9375 Z M 16.0625 -5.609375 "/>
</symbol>
<symbol overflow="visible" id="kannada-blws:id0:glyph0-1">
<path style="stroke:none;" d="M 31.5625 1.09375 C 27.601562 1.09375 24.101562 0.289062 21.0625 -1.3125 C 18.019531 -2.925781 15.65625 -5.109375 13.96875 -7.859375 C 12.28125 -10.609375 11.4375 -13.671875 11.4375 -17.046875 C 11.4375 -20.492188 12.207031 -23.519531 13.75 -26.125 C 15.289062 -28.726562 17.34375 -30.875 19.90625 -32.5625 C 18.289062 -32.488281 16.710938 -32.429688 15.171875 -32.390625 C 13.640625 -32.359375 11.734375 -32.34375 9.453125 -32.34375 L 6.484375 -32.34375 L 6.9375 -39.703125 L 28.046875 -39.703125 C 29.003906 -40.515625 29.753906 -41.394531 30.296875 -42.34375 C 30.847656 -43.300781 31.125 -44.476562 31.125 -45.875 C 31.125 -46.820312 31.015625 -47.695312 30.796875 -48.5 C 30.578125 -49.3125 30.285156 -50.007812 29.921875 -50.59375 L 6.375 -50.59375 L 7.046875 -60.171875 L 36.84375 -60.171875 C 40.507812 -60.171875 43.222656 -60.367188 44.984375 -60.765625 C 46.742188 -61.171875 48.140625 -61.816406 49.171875 -62.703125 C 50.859375 -64.171875 51.703125 -66.296875 51.703125 -69.078125 C 51.703125 -73.328125 49.6875 -77.582031 45.65625 -81.84375 L 49.609375 -84.8125 C 52.097656 -82.164062 54.019531 -79.300781 55.375 -76.21875 C 56.738281 -73.144531 57.421875 -69.921875 57.421875 -66.546875 C 57.421875 -64.566406 57.160156 -62.601562 56.640625 -60.65625 C 56.128906 -58.71875 55.066406 -56.941406 53.453125 -55.328125 C 52.066406 -53.929688 50.179688 -52.789062 47.796875 -51.90625 C 45.410156 -51.03125 41.613281 -50.59375 36.40625 -50.59375 L 36.078125 -50.59375 C 36.816406 -48.832031 37.1875 -47.148438 37.1875 -45.546875 C 37.1875 -44.441406 37.054688 -43.394531 36.796875 -42.40625 C 36.535156 -41.414062 36.222656 -40.515625 35.859375 -39.703125 L 56.875 -39.703125 L 56.875 -32.34375 L 54.5625 -32.34375 C 51.988281 -32.34375 49.878906 -32.359375 48.234375 -32.390625 C 46.585938 -32.429688 44.957031 -32.488281 43.34375 -32.5625 C 45.976562 -30.875 48.066406 -28.726562 49.609375 -26.125 C 51.148438 -23.519531 51.921875 -20.492188 51.921875 -17.046875 C 51.921875 -13.671875 51.054688 -10.609375 49.328125 -7.859375 C 47.609375 -5.109375 45.226562 -2.925781 42.1875 -1.3125 C 39.144531 0.289062 35.601562 1.09375 31.5625 1.09375 Z M 31.5625 -8.796875 C 36.332031 -8.796875 39.757812 -9.914062 41.84375 -12.15625 C 43.9375 -14.394531 44.984375 -17.050781 44.984375 -20.125 C 44.984375 -23.863281 43.753906 -26.851562 41.296875 -29.09375 C 38.847656 -31.332031 35.644531 -32.453125 31.6875 -32.453125 C 27.425781 -32.453125 24.140625 -31.3125 21.828125 -29.03125 C 19.523438 -26.757812 18.375 -23.789062 18.375 -20.125 C 18.375 -16.75 19.507812 -14.015625 21.78125 -11.921875 C 24.050781 -9.835938 27.3125 -8.796875 31.5625 -8.796875 Z M 31.5625 -8.796875 "/>
</symbol>
<symbol overflow="visible" id="kannada-blws:id0:glyph0-2">
<path style="stroke:none;" d="M -53.125 35.53125 L -52.46875 27.5 L -18.8125 27.5 C -19.976562 25.375 -20.5625 22.878906 -20.5625 20.015625 C -20.5625 15.984375 -19.476562 12.753906 -17.3125 10.328125 C -15.15625 7.910156 -12.242188 6.703125 -8.578125 6.703125 C -4.910156 6.703125 -2.050781 7.945312 0 10.4375 C 2.050781 12.9375 3.078125 16.351562 3.078125 20.6875 C 3.078125 25.226562 1.867188 28.835938 -0.546875 31.515625 C -2.972656 34.191406 -6.785156 35.53125 -11.984375 35.53125 Z M -8.6875 27.71875 C -6.34375 27.71875 -4.617188 27.039062 -3.515625 25.6875 C -2.421875 24.332031 -1.875 22.8125 -1.875 21.125 C -1.875 19.21875 -2.382812 17.617188 -3.40625 16.328125 C -4.4375 15.046875 -6.195312 14.40625 -8.6875 14.40625 C -10.957031 14.40625 -12.679688 14.992188 -13.859375 16.171875 C -15.035156 17.347656 -15.625 19 -15.625 21.125 C -15.625 23.03125 -15.050781 24.601562 -13.90625 25.84375 C -12.769531 27.09375 -11.03125 27.71875 -8.6875 27.71875 Z M -8.6875 27.71875 "/>
</symbol>
<symbol overflow="visible" id="kannada-blws:id0:glyph0-3">
<path style="stroke:none;" d="M -10.671875 49.828125 C -15.210938 49.828125 -18.910156 48.910156 -21.765625 47.078125 C -24.628906 45.242188 -26.0625 42.710938 -26.0625 39.484375 C -26.0625 37.429688 -25.457031 35.578125 -24.25 33.921875 C -23.039062 32.273438 -21.410156 30.535156 -19.359375 28.703125 C -17.742188 27.242188 -16.515625 25.960938 -15.671875 24.859375 C -14.828125 23.753906 -14.40625 22.472656 -14.40625 21.015625 C -14.40625 19.765625 -14.804688 18.753906 -15.609375 17.984375 C -16.421875 17.210938 -17.671875 16.828125 -19.359375 16.828125 C -20.753906 16.828125 -21.890625 17.15625 -22.765625 17.8125 C -23.648438 18.476562 -24.09375 19.394531 -24.09375 20.5625 C -24.09375 21.300781 -23.984375 21.90625 -23.765625 22.375 C -23.546875 22.851562 -23.25 23.351562 -22.875 23.875 L -25.40625 25.296875 C -26.363281 24.347656 -27.132812 23.25 -27.71875 22 C -28.300781 20.75 -28.59375 19.394531 -28.59375 17.9375 C -28.59375 16.019531 -27.859375 14.125 -26.390625 12.25 C -24.929688 10.382812 -22.515625 9.453125 -19.140625 9.453125 C -15.472656 9.453125 -12.882812 10.40625 -11.375 12.3125 C -9.875 14.226562 -9.125 16.359375 -9.125 18.703125 C -9.125 20.898438 -9.675781 22.820312 -10.78125 24.46875 C -11.882812 26.125 -13.460938 27.90625 -15.515625 29.8125 C -16.679688 30.832031 -17.613281 31.816406 -18.3125 32.765625 C -19.007812 33.722656 -19.359375 34.789062 -19.359375 35.96875 C -19.359375 37.65625 -18.566406 38.898438 -16.984375 39.703125 C -15.410156 40.515625 -13.269531 40.921875 -10.5625 40.921875 C -6.53125 40.921875 -3.285156 39.984375 -0.828125 38.109375 C 1.628906 36.242188 2.859375 33.734375 2.859375 30.578125 C 2.859375 28.085938 2.328125 25.6875 1.265625 23.375 C 0.203125 21.0625 -1.003906 18.769531 -2.359375 16.5 C -3.722656 14.226562 -4.9375 11.914062 -6 9.5625 C -7.0625 7.21875 -7.59375 4.800781 -7.59375 2.3125 C -7.59375 -0.550781 -6.800781 -2.828125 -5.21875 -4.515625 C -3.644531 -6.203125 -1.539062 -7.046875 1.09375 -7.046875 C 4.101562 -7.046875 6.394531 -6.128906 7.96875 -4.296875 C 9.550781 -2.460938 10.34375 -0.257812 10.34375 2.3125 C 10.34375 3.476562 10.15625 4.703125 9.78125 5.984375 C 9.414062 7.273438 8.832031 8.617188 8.03125 10.015625 L 5.0625 8.90625 C 5.644531 7.59375 5.9375 6.203125 5.9375 4.734375 C 5.9375 3.554688 5.625 2.507812 5 1.59375 C 4.375 0.675781 3.332031 0.21875 1.875 0.21875 C 0.40625 0.21875 -0.675781 0.65625 -1.375 1.53125 C -2.070312 2.414062 -2.421875 3.484375 -2.421875 4.734375 C -2.421875 6.710938 -1.890625 8.765625 -0.828125 10.890625 C 0.234375 13.015625 1.441406 15.234375 2.796875 17.546875 C 4.160156 19.859375 5.375 22.273438 6.4375 24.796875 C 7.5 27.328125 8.03125 30.023438 8.03125 32.890625 C 8.03125 38.316406 6.320312 42.492188 2.90625 45.421875 C -0.5 48.359375 -5.023438 49.828125 -10.671875 49.828125 Z M -10.671875 49.828125 "/>
</symbol>
</g>
<g>
<symbol overflow="visible" id="kannada-blws:id1:glyph0-0">
<path style="stroke:none;" d="M 5.375 -96.6875 L 69.828125 -96.6875 L 69.828125 0 L 5.375 0 Z M 8.0625 -2.6875 L 67.140625 -2.6875 L 67.140625 -94 L 8.0625 -94 Z M 8.0625 -2.6875 "/>
</symbol>
<symbol overflow="visible" id="kannada-blws:id1:glyph0-1">
<path style="stroke:none;" d="M 68.15625 -13.75 L 66.28125 -18.640625 L 88.09375 -27.390625 L 6.984375 -27.390625 L 6.984375 -34 L 88.09375 -34 L 66.28125 -42.75 L 68.15625 -47.640625 L 99.09375 -34.265625 L 99.09375 -27.125 Z M 68.15625 -13.75 "/>
</symbol>
</g>
<g>
<symbol overflow="visible" id="kannada-blws:id2:glyph0-0">
<path style="stroke:none;" d="M 10.453125 0 L 10.453125 -78.546875 L 55.65625 -78.546875 L 55.65625 0 Z M 16.0625 -5.609375 L 50.046875 -5.609375 L 50.046875 -72.9375 L 16.0625 -72.9375 Z M 16.0625 -5.609375 "/>
</symbol>
<symbol overflow="visible" id="kannada-blws:id2:glyph0-1">
<path style="stroke:none;" d="M 31.5625 1.09375 C 27.601562 1.09375 24.101562 0.289062 21.0625 -1.3125 C 18.019531 -2.925781 15.65625 -5.109375 13.96875 -7.859375 C 12.28125 -10.609375 11.4375 -13.671875 11.4375 -17.046875 C 11.4375 -20.492188 12.207031 -23.519531 13.75 -26.125 C 15.289062 -28.726562 17.34375 -30.875 19.90625 -32.5625 C 18.289062 -32.488281 16.710938 -32.429688 15.171875 -32.390625 C 13.640625 -32.359375 11.734375 -32.34375 9.453125 -32.34375 L 6.484375 -32.34375 L 6.9375 -39.703125 L 28.046875 -39.703125 C 29.003906 -40.515625 29.753906 -41.394531 30.296875 -42.34375 C 30.847656 -43.300781 31.125 -44.476562 31.125 -45.875 C 31.125 -46.820312 31.015625 -47.695312 30.796875 -48.5 C 30.578125 -49.3125 30.285156 -50.007812 29.921875 -50.59375 L 6.375 -50.59375 L 7.046875 -60.171875 L 36.84375 -60.171875 C 40.507812 -60.171875 43.222656 -60.367188 44.984375 -60.765625 C 46.742188 -61.171875 48.140625 -61.816406 49.171875 -62.703125 C 50.859375 -64.171875 51.703125 -66.296875 51.703125 -69.078125 C 51.703125 -73.328125 49.6875 -77.582031 45.65625 -81.84375 L 49.609375 -84.8125 C 52.097656 -82.164062 54.019531 -79.300781 55.375 -76.21875 C 56.738281 -73.144531 57.421875 -69.921875 57.421875 -66.546875 C 57.421875 -64.566406 57.160156 -62.601562 56.640625 -60.65625 C 56.128906 -58.71875 55.066406 -56.941406 53.453125 -55.328125 C 52.066406 -53.929688 50.179688 -52.789062 47.796875 -51.90625 C 45.410156 -51.03125 41.613281 -50.59375 36.40625 -50.59375 L 36.078125 -50.59375 C 36.816406 -48.832031 37.1875 -47.148438 37.1875 -45.546875 C 37.1875 -44.441406 37.054688 -43.394531 36.796875 -42.40625 C 36.535156 -41.414062 36.222656 -40.515625 35.859375 -39.703125 L 56.875 -39.703125 L 56.875 -32.34375 L 54.5625 -32.34375 C 51.988281 -32.34375 49.878906 -32.359375 48.234375 -32.390625 C 46.585938 -32.429688 44.957031 -32.488281 43.34375 -32.5625 C 45.976562 -30.875 48.066406 -28.726562 49.609375 -26.125 C 51.148438 -23.519531 51.921875 -20.492188 51.921875 -17.046875 C 51.921875 -13.671875 51.054688 -10.609375 49.328125 -7.859375 C 47.609375 -5.109375 45.226562 -2.925781 42.1875 -1.3125 C 39.144531 0.289062 35.601562 1.09375 31.5625 1.09375 Z M 31.5625 -8.796875 C 36.332031 -8.796875 39.757812 -9.914062 41.84375 -12.15625 C 43.9375 -14.394531 44.984375 -17.050781 44.984375 -20.125 C 44.984375 -23.863281 43.753906 -26.851562 41.296875 -29.09375 C 38.847656 -31.332031 35.644531 -32.453125 31.6875 -32.453125 C 27.425781 -32.453125 24.140625 -31.3125 21.828125 -29.03125 C 19.523438 -26.757812 18.375 -23.789062 18.375 -20.125 C 18.375 -16.75 19.507812 -14.015625 21.78125 -11.921875 C 24.050781 -9.835938 27.3125 -8.796875 31.5625 -8.796875 Z M 31.5625 -8.796875 "/>
</symbol>
<symbol overflow="visible" id="kannada-blws:id2:glyph0-2">
<path style="stroke:none;" d="M -8.578125 53.6875 C -14.003906 53.6875 -18.253906 52.457031 -21.328125 50 C -24.410156 47.539062 -25.953125 44.585938 -25.953125 41.140625 C -25.953125 39.015625 -25.40625 37.035156 -24.3125 35.203125 L -57.96875 35.203125 L -57.203125 27.171875 L -32.671875 27.171875 C -33.847656 24.972656 -34.4375 22.476562 -34.4375 19.6875 C -34.4375 15.726562 -33.296875 12.519531 -31.015625 10.0625 C -28.742188 7.601562 -25.703125 6.375 -21.890625 6.375 C -18.367188 6.375 -15.597656 7.492188 -13.578125 9.734375 C -11.566406 11.972656 -10.5625 15.035156 -10.5625 18.921875 C -10.5625 21.847656 -11.035156 24.265625 -11.984375 26.171875 C -12.941406 28.085938 -14.023438 29.703125 -15.234375 31.015625 C -16.441406 32.335938 -17.519531 33.566406 -18.46875 34.703125 C -19.425781 35.835938 -19.90625 37.140625 -19.90625 38.609375 C -19.90625 40.441406 -18.929688 41.925781 -16.984375 43.0625 C -15.046875 44.195312 -12.28125 44.765625 -8.6875 44.765625 C -4.363281 44.765625 -0.882812 43.664062 1.75 41.46875 C 4.394531 39.269531 5.71875 36.300781 5.71875 32.5625 C 5.71875 29.476562 5.019531 26.648438 3.625 24.078125 C 2.238281 21.515625 0.648438 19.078125 -1.140625 16.765625 C -2.941406 14.460938 -4.539062 12.132812 -5.9375 9.78125 C -7.332031 7.4375 -8.03125 4.984375 -8.03125 2.421875 C -8.03125 -0.367188 -7.128906 -2.644531 -5.328125 -4.40625 C -3.535156 -6.164062 -1.242188 -7.046875 1.546875 -7.046875 C 4.546875 -7.046875 6.851562 -6.128906 8.46875 -4.296875 C 10.082031 -2.460938 10.890625 -0.257812 10.890625 2.3125 C 10.890625 3.476562 10.613281 4.703125 10.0625 5.984375 C 9.507812 7.273438 8.390625 8.617188 6.703125 10.015625 L 5.609375 8.90625 C 6.117188 7.507812 6.375 6.117188 6.375 4.734375 C 6.375 3.554688 6.0625 2.507812 5.4375 1.59375 C 4.820312 0.675781 3.78125 0.21875 2.3125 0.21875 C 0.914062 0.21875 -0.164062 0.65625 -0.9375 1.53125 C -1.707031 2.414062 -2.09375 3.519531 -2.09375 4.84375 C -2.09375 7.113281 -1.394531 9.347656 0 11.546875 C 1.394531 13.742188 3.007812 16.035156 4.84375 18.421875 C 6.675781 20.804688 8.285156 23.425781 9.671875 26.28125 C 11.066406 29.144531 11.765625 32.410156 11.765625 36.078125 C 11.765625 39.378906 10.9375 42.367188 9.28125 45.046875 C 7.632812 47.722656 5.289062 49.832031 2.25 51.375 C -0.789062 52.914062 -4.398438 53.6875 -8.578125 53.6875 Z M -22.546875 27.5 C -20.128906 27.5 -18.390625 26.820312 -17.328125 25.46875 C -16.265625 24.113281 -15.734375 22.554688 -15.734375 20.796875 C -15.734375 18.890625 -16.242188 17.289062 -17.265625 16 C -18.296875 14.71875 -20.054688 14.078125 -22.546875 14.078125 C -24.816406 14.078125 -26.539062 14.679688 -27.71875 15.890625 C -28.894531 17.097656 -29.484375 18.734375 -29.484375 20.796875 C -29.484375 22.703125 -28.910156 24.296875 -27.765625 25.578125 C -26.628906 26.859375 -24.890625 27.5 -22.546875 27.5 Z M -22.546875 27.5 "/>
</symbol>
</g>
</defs>
  <g id="kannada-blws:id0:id0" transform="matrix(1.25,0,0,1.25,0.0,0.0)"><g id="kannada-blws:id0:surface1">
<g style="fill:rgb(0%,0%,0%);fill-opacity:1;">
  <use xlink:href="#kannada-blws:id0:glyph0-1" x="16" y="102.09375" class="c0"/>
  <use xlink:href="#kannada-blws:id0:glyph0-2" x="79.578125" y="102.09375" class="c1"/>
  <use xlink:href="#kannada-blws:id0:glyph0-3" x="118.296875" y="102.09375" class="c2"/>
</g>
</g>
</g>
  <g id="kannada-blws:id1:id1" transform="matrix(1.25,0,0,1.25,167.87109375,13.1640625)"><g id="kannada-blws:id1:surface1">
<g style="fill:rgb(0%,0%,0%);fill-opacity:1;">
  <use xlink:href="#kannada-blws:id1:glyph0-1" x="0" y="120.84375" class="arrow"/>
</g>
</g>
</g>
  <g id="kannada-blws:id2:id2" transform="matrix(1.25,0,0,1.25,300.46875,0.0)"><g id="kannada-blws:id2:surface1">
<g style="fill:rgb(0%,0%,0%);fill-opacity:1;">
  <use xlink:href="#kannada-blws:id2:glyph0-1" x="16" y="102.09375" class="c0"/>
  <use xlink:href="#kannada-blws:id2:glyph0-2" x="81.109375" y="102.09375" class="c3"/>
</g>
</g>
</g>
</svg>
