<!DOCTYPE svg PUBLIC "-//W3C//DTD SVG 1.1//EN" "http://www.w3.org/Graphics/SVG/1.1/DTD/svg11.dtd">
<!-- Created with svg_stack (http://github.com/astraw/svg_stack) --><svg xmlns="http://www.w3.org/2000/svg" xmlns:sodipodi="http://sodipodi.sourceforge.net/DTD/sodipodi-0.dtd" xmlns:xlink="http://www.w3.org/1999/xlink" version="1.1" width="512.34375" height="227.734375" id="kannada-akhn-kssa">
  <defs><g>
<symbol overflow="visible" id="kannada-akhn-kssa:id0:glyph0-0">
<path style="stroke:none;" d="M 10.453125 0 L 10.453125 -78.546875 L 55.65625 -78.546875 L 55.65625 0 Z M 16.0625 -5.609375 L 50.046875 -5.609375 L 50.046875 -72.9375 L 16.0625 -72.9375 Z M 16.0625 -5.609375 "/>
</symbol>
<symbol overflow="visible" id="kannada-akhn-kssa:id0:glyph0-1">
<path style="stroke:none;" d="M 31.5625 1.09375 C 27.601562 1.09375 24.101562 0.289062 21.0625 -1.3125 C 18.019531 -2.925781 15.65625 -5.109375 13.96875 -7.859375 C 12.28125 -10.609375 11.4375 -13.671875 11.4375 -17.046875 C 11.4375 -20.492188 12.207031 -23.519531 13.75 -26.125 C 15.289062 -28.726562 17.34375 -30.875 19.90625 -32.5625 C 18.289062 -32.488281 16.710938 -32.429688 15.171875 -32.390625 C 13.640625 -32.359375 11.734375 -32.34375 9.453125 -32.34375 L 6.484375 -32.34375 L 6.9375 -39.703125 L 28.046875 -39.703125 C 29.003906 -40.515625 29.753906 -41.394531 30.296875 -42.34375 C 30.847656 -43.300781 31.125 -44.476562 31.125 -45.875 C 31.125 -46.820312 31.015625 -47.695312 30.796875 -48.5 C 30.578125 -49.3125 30.285156 -50.007812 29.921875 -50.59375 L 6.375 -50.59375 L 7.046875 -60.171875 L 46.640625 -60.171875 L 46.640625 -50.59375 L 36.078125 -50.59375 C 36.816406 -48.832031 37.1875 -47.148438 37.1875 -45.546875 C 37.1875 -44.441406 37.054688 -43.394531 36.796875 -42.40625 C 36.535156 -41.414062 36.222656 -40.515625 35.859375 -39.703125 L 56.875 -39.703125 L 56.875 -32.34375 L 54.5625 -32.34375 C 51.988281 -32.34375 49.878906 -32.359375 48.234375 -32.390625 C 46.585938 -32.429688 44.957031 -32.488281 43.34375 -32.5625 C 45.976562 -30.875 48.066406 -28.726562 49.609375 -26.125 C 51.148438 -23.519531 51.921875 -20.492188 51.921875 -17.046875 C 51.921875 -13.671875 51.054688 -10.609375 49.328125 -7.859375 C 47.609375 -5.109375 45.226562 -2.925781 42.1875 -1.3125 C 39.144531 0.289062 35.601562 1.09375 31.5625 1.09375 Z M 31.5625 -8.796875 C 36.332031 -8.796875 39.757812 -9.914062 41.84375 -12.15625 C 43.9375 -14.394531 44.984375 -17.050781 44.984375 -20.125 C 44.984375 -23.863281 43.753906 -26.851562 41.296875 -29.09375 C 38.847656 -31.332031 35.644531 -32.453125 31.6875 -32.453125 C 27.425781 -32.453125 24.140625 -31.3125 21.828125 -29.03125 C 19.523438 -26.757812 18.375 -23.789062 18.375 -20.125 C 18.375 -16.75 19.507812 -14.015625 21.78125 -11.921875 C 24.050781 -9.835938 27.3125 -8.796875 31.5625 -8.796875 Z M 76.453125 -31.5625 C 72.054688 -31.5625 68.753906 -33.117188 66.546875 -36.234375 C 64.347656 -39.359375 63.175781 -44.144531 63.03125 -50.59375 L 41.796875 -50.59375 L 42.578125 -60.171875 L 63.03125 -60.171875 C 63.394531 -65.742188 64.929688 -70.066406 67.640625 -73.140625 C 70.359375 -76.222656 73.992188 -77.765625 78.546875 -77.765625 C 82.648438 -77.765625 85.929688 -76.5 88.390625 -73.96875 C 90.847656 -71.445312 92.441406 -67.910156 93.171875 -63.359375 L 88.765625 -62.8125 C 88.035156 -65.082031 86.828125 -66.878906 85.140625 -68.203125 C 83.453125 -69.523438 81.21875 -70.1875 78.4375 -70.1875 C 75.71875 -70.1875 73.441406 -69.320312 71.609375 -67.59375 C 69.773438 -65.875 68.640625 -63.398438 68.203125 -60.171875 L 69.625 -60.171875 C 75.9375 -60.171875 80.578125 -58.921875 83.546875 -56.421875 C 86.515625 -53.929688 88 -50.191406 88 -45.203125 C 88 -41.535156 87.023438 -38.34375 85.078125 -35.625 C 83.140625 -32.914062 80.265625 -31.5625 76.453125 -31.5625 Z M 73.8125 -50.59375 L 67.984375 -50.59375 C 67.984375 -48.539062 68.203125 -46.613281 68.640625 -44.8125 C 69.078125 -43.019531 69.921875 -41.59375 71.171875 -40.53125 C 72.421875 -39.46875 74.21875 -38.9375 76.5625 -38.9375 C 78.613281 -38.9375 80.222656 -39.445312 81.390625 -40.46875 C 82.566406 -41.5 83.15625 -42.929688 83.15625 -44.765625 C 83.15625 -47.117188 82.289062 -48.675781 80.5625 -49.4375 C 78.84375 -50.207031 76.59375 -50.59375 73.8125 -50.59375 Z M 73.8125 -50.59375 "/>
</symbol>
<symbol overflow="visible" id="kannada-akhn-kssa:id0:glyph0-2">
<path style="stroke:none;" d="M 6.484375 -50.59375 L 7.15625 -60.171875 L 54.78125 -60.171875 C 58.445312 -60.171875 61.160156 -60.367188 62.921875 -60.765625 C 64.679688 -61.171875 66.070312 -61.816406 67.09375 -62.703125 C 68.78125 -64.023438 69.625 -66.148438 69.625 -69.078125 C 69.625 -73.328125 67.609375 -77.582031 63.578125 -81.84375 L 67.546875 -84.8125 C 70.035156 -82.164062 71.957031 -79.300781 73.3125 -76.21875 C 74.664062 -73.144531 75.34375 -69.921875 75.34375 -66.546875 C 75.34375 -64.566406 75.101562 -62.585938 74.625 -60.609375 C 74.15625 -58.628906 73.078125 -56.867188 71.390625 -55.328125 C 70.429688 -54.453125 69.289062 -53.644531 67.96875 -52.90625 C 66.65625 -52.175781 64.9375 -51.609375 62.8125 -51.203125 C 60.6875 -50.796875 57.863281 -50.59375 54.34375 -50.59375 Z M 41.6875 -33.4375 C 39.78125 -33.4375 38.257812 -34.019531 37.125 -35.1875 C 35.988281 -36.363281 35.421875 -37.832031 35.421875 -39.59375 C 35.421875 -41.351562 36.003906 -42.820312 37.171875 -44 C 38.347656 -45.175781 39.851562 -45.765625 41.6875 -45.765625 C 43.59375 -45.765625 45.113281 -45.175781 46.25 -44 C 47.382812 -42.820312 47.953125 -41.351562 47.953125 -39.59375 C 47.953125 -37.90625 47.382812 -36.457031 46.25 -35.25 C 45.113281 -34.039062 43.59375 -33.4375 41.6875 -33.4375 Z M 23.3125 1.203125 C 19.5 1.203125 16.289062 0.285156 13.6875 -1.546875 C 11.09375 -3.378906 9.148438 -5.796875 7.859375 -8.796875 C 6.578125 -11.804688 5.9375 -15.035156 5.9375 -18.484375 C 5.9375 -23.171875 7.203125 -27.109375 9.734375 -30.296875 C 12.265625 -33.492188 15.726562 -35.09375 20.125 -35.09375 C 23.570312 -35.09375 26.226562 -34.15625 28.09375 -32.28125 C 29.96875 -30.414062 30.90625 -28.050781 30.90625 -25.1875 C 30.90625 -22.40625 30.023438 -20.207031 28.265625 -18.59375 C 26.503906 -16.976562 24.050781 -15.953125 20.90625 -15.515625 L 20.234375 -19.578125 C 22.878906 -20.160156 24.203125 -21.664062 24.203125 -24.09375 C 24.203125 -25.40625 23.757812 -26.484375 22.875 -27.328125 C 22 -28.171875 20.644531 -28.59375 18.8125 -28.59375 C 16.394531 -28.59375 14.46875 -27.804688 13.03125 -26.234375 C 11.601562 -24.660156 10.890625 -22.585938 10.890625 -20.015625 C 10.890625 -16.421875 12.0625 -13.722656 14.40625 -11.921875 C 16.757812 -10.128906 20.132812 -9.234375 24.53125 -9.234375 C 32.375 -9.234375 37.46875 -13.488281 39.8125 -22 L 43.5625 -22 C 44.65625 -18.332031 46.25 -15.285156 48.34375 -12.859375 C 50.4375 -10.441406 53.71875 -9.234375 58.1875 -9.234375 C 59.726562 -9.234375 61.160156 -9.457031 62.484375 -9.90625 L 51.046875 -28.484375 L 54.671875 -30.796875 L 67.546875 -13.53125 C 69.304688 -15.875 70.1875 -19.023438 70.1875 -22.984375 C 70.1875 -27.316406 69.226562 -30.984375 67.3125 -33.984375 C 65.40625 -36.992188 63.28125 -39.597656 60.9375 -41.796875 C 61.300781 -42.898438 61.867188 -43.816406 62.640625 -44.546875 C 63.410156 -45.285156 64.3125 -45.65625 65.34375 -45.65625 C 67.101562 -45.65625 68.734375 -44.625 70.234375 -42.5625 C 71.734375 -40.507812 72.957031 -37.757812 73.90625 -34.3125 C 74.863281 -30.875 75.34375 -27.0625 75.34375 -22.875 C 75.34375 -20.675781 75.066406 -18.203125 74.515625 -15.453125 C 73.972656 -12.703125 73.078125 -10.117188 71.828125 -7.703125 L 79.75 2.96875 L 73.046875 7.375 L 67.3125 -1.875 C 66.21875 -0.914062 64.953125 -0.164062 63.515625 0.375 C 62.085938 0.925781 60.492188 1.203125 58.734375 1.203125 C 54.191406 1.203125 50.507812 -0.171875 47.6875 -2.921875 C 44.863281 -5.671875 42.753906 -9.242188 41.359375 -13.640625 C 39.890625 -9.171875 37.78125 -5.578125 35.03125 -2.859375 C 32.28125 -0.148438 28.375 1.203125 23.3125 1.203125 Z M 23.3125 1.203125 "/>
</symbol>
</g>
<g>
<symbol overflow="visible" id="kannada-akhn-kssa:id1:glyph0-0">
<path style="stroke:none;" d="M 5.375 -96.6875 L 69.828125 -96.6875 L 69.828125 0 L 5.375 0 Z M 8.0625 -2.6875 L 67.140625 -2.6875 L 67.140625 -94 L 8.0625 -94 Z M 8.0625 -2.6875 "/>
</symbol>
<symbol overflow="visible" id="kannada-akhn-kssa:id1:glyph0-1">
<path style="stroke:none;" d="M 68.15625 -13.75 L 66.28125 -18.640625 L 88.09375 -27.390625 L 6.984375 -27.390625 L 6.984375 -34 L 88.09375 -34 L 66.28125 -42.75 L 68.15625 -47.640625 L 99.09375 -34.265625 L 99.09375 -27.125 Z M 68.15625 -13.75 "/>
</symbol>
</g>
<g>
<symbol overflow="visible" id="kannada-akhn-kssa:id2:glyph0-0">
<path style="stroke:none;" d="M 10.453125 0 L 10.453125 -78.546875 L 55.65625 -78.546875 L 55.65625 0 Z M 16.0625 -5.609375 L 50.046875 -5.609375 L 50.046875 -72.9375 L 16.0625 -72.9375 Z M 16.0625 -5.609375 "/>
</symbol>
<symbol overflow="visible" id="kannada-akhn-kssa:id2:glyph0-1">
<path style="stroke:none;" d="M 31.5625 1.09375 C 27.601562 1.09375 24.101562 0.289062 21.0625 -1.3125 C 18.019531 -2.925781 15.65625 -5.109375 13.96875 -7.859375 C 12.28125 -10.609375 11.4375 -13.671875 11.4375 -17.046875 C 11.4375 -20.492188 12.207031 -23.519531 13.75 -26.125 C 15.289062 -28.726562 17.34375 -30.875 19.90625 -32.5625 C 18.289062 -32.488281 16.710938 -32.429688 15.171875 -32.390625 C 13.640625 -32.359375 11.734375 -32.34375 9.453125 -32.34375 L 6.484375 -32.34375 L 6.9375 -39.703125 L 28.046875 -39.703125 C 29.003906 -40.515625 29.753906 -41.394531 30.296875 -42.34375 C 30.847656 -43.300781 31.125 -44.476562 31.125 -45.875 C 31.125 -46.820312 31.015625 -47.695312 30.796875 -48.5 C 30.578125 -49.3125 30.285156 -50.007812 29.921875 -50.59375 L 6.375 -50.59375 L 7.046875 -60.171875 L 36.84375 -60.171875 C 40.507812 -60.171875 43.222656 -60.367188 44.984375 -60.765625 C 46.742188 -61.171875 48.140625 -61.816406 49.171875 -62.703125 C 50.859375 -64.171875 51.703125 -66.296875 51.703125 -69.078125 C 51.703125 -73.328125 49.6875 -77.582031 45.65625 -81.84375 L 49.609375 -84.8125 C 52.097656 -82.164062 54.019531 -79.300781 55.375 -76.21875 C 56.738281 -73.144531 57.421875 -69.921875 57.421875 -66.546875 C 57.421875 -64.566406 57.160156 -62.601562 56.640625 -60.65625 C 56.128906 -58.71875 55.066406 -56.941406 53.453125 -55.328125 C 52.066406 -53.929688 50.179688 -52.789062 47.796875 -51.90625 C 45.410156 -51.03125 41.613281 -50.59375 36.40625 -50.59375 L 36.078125 -50.59375 C 36.816406 -48.832031 37.1875 -47.148438 37.1875 -45.546875 C 37.1875 -44.441406 37.054688 -43.394531 36.796875 -42.40625 C 36.535156 -41.414062 36.222656 -40.515625 35.859375 -39.703125 L 56.875 -39.703125 L 56.875 -32.34375 L 54.5625 -32.34375 C 51.988281 -32.34375 49.878906 -32.359375 48.234375 -32.390625 C 46.585938 -32.429688 44.957031 -32.488281 43.34375 -32.5625 C 45.976562 -30.875 48.066406 -28.726562 49.609375 -26.125 C 51.148438 -23.519531 51.921875 -20.492188 51.921875 -17.046875 C 51.921875 -13.671875 51.054688 -10.609375 49.328125 -7.859375 C 47.609375 -5.109375 45.226562 -2.925781 42.1875 -1.3125 C 39.144531 0.289062 35.601562 1.09375 31.5625 1.09375 Z M 31.5625 -8.796875 C 36.332031 -8.796875 39.757812 -9.914062 41.84375 -12.15625 C 43.9375 -14.394531 44.984375 -17.050781 44.984375 -20.125 C 44.984375 -23.863281 43.753906 -26.851562 41.296875 -29.09375 C 38.847656 -31.332031 35.644531 -32.453125 31.6875 -32.453125 C 27.425781 -32.453125 24.140625 -31.3125 21.828125 -29.03125 C 19.523438 -26.757812 18.375 -23.789062 18.375 -20.125 C 18.375 -16.75 19.507812 -14.015625 21.78125 -11.921875 C 24.050781 -9.835938 27.3125 -8.796875 31.5625 -8.796875 Z M 47.953125 41.90625 C 49.421875 38.09375 50.742188 33.878906 51.921875 29.265625 C 51.035156 30.359375 49.96875 31.234375 48.71875 31.890625 C 47.476562 32.554688 46.050781 32.890625 44.4375 32.890625 C 41.582031 32.890625 39.125 31.953125 37.0625 30.078125 C 35.007812 28.210938 33.472656 25.738281 32.453125 22.65625 C 31.421875 25.738281 29.785156 28.210938 27.546875 30.078125 C 25.316406 31.953125 22.40625 32.890625 18.8125 32.890625 C 14.632812 32.890625 11.296875 31.515625 8.796875 28.765625 C 6.304688 26.015625 5.0625 22.734375 5.0625 18.921875 C 5.0625 14.742188 6.25 11.390625 8.625 8.859375 C 11.007812 6.328125 14 5.0625 17.59375 5.0625 C 20.164062 5.0625 22.203125 5.703125 23.703125 6.984375 C 25.203125 8.265625 25.953125 9.96875 25.953125 12.09375 C 25.953125 14.15625 25.164062 15.789062 23.59375 17 C 22.019531 18.207031 19.835938 18.957031 17.046875 19.25 L 16.28125 16.0625 C 18.40625 15.84375 19.46875 14.851562 19.46875 13.09375 C 19.46875 12.351562 19.171875 11.707031 18.578125 11.15625 C 17.992188 10.613281 17.082031 10.34375 15.84375 10.34375 C 14.300781 10.34375 13 10.890625 11.9375 11.984375 C 10.875 13.085938 10.34375 14.59375 10.34375 16.5 C 10.34375 18.695312 11.148438 20.457031 12.765625 21.78125 C 14.378906 23.101562 16.613281 23.765625 19.46875 23.765625 C 25.40625 23.765625 29.21875 21.085938 30.90625 15.734375 L 34.4375 15.734375 C 35.164062 18.222656 36.28125 20.179688 37.78125 21.609375 C 39.289062 23.046875 41.4375 23.765625 44.21875 23.765625 C 46.9375 23.765625 49.082031 22.992188 50.65625 21.453125 C 52.226562 19.910156 53.015625 17.96875 53.015625 15.625 C 53.015625 13.269531 52.390625 11.269531 51.140625 9.625 C 49.898438 7.976562 48.21875 6.675781 46.09375 5.71875 C 45.65625 4.914062 45.4375 4.035156 45.4375 3.078125 C 45.4375 1.828125 45.78125 0.875 46.46875 0.21875 C 47.164062 -0.4375 48.101562 -0.765625 49.28125 -0.765625 C 51.039062 -0.765625 52.613281 0.238281 54 2.25 C 55.394531 4.269531 56.492188 6.890625 57.296875 10.109375 C 58.109375 13.335938 58.515625 16.785156 58.515625 20.453125 C 58.515625 22.441406 58.332031 24.71875 57.96875 27.28125 C 57.601562 29.84375 57.144531 32.425781 56.59375 35.03125 C 56.039062 37.632812 55.507812 39.925781 55 41.90625 Z M 47.953125 41.90625 "/>
</symbol>
</g>
</defs>
  <g id="kannada-akhn-kssa:id0:id0" transform="matrix(1.25,0,0,1.25,0.0,0.0)"><g id="kannada-akhn-kssa:id0:surface1">
<g style="fill:rgb(0%,0%,0%);fill-opacity:1;">
  <use xlink:href="#kannada-akhn-kssa:id0:glyph0-1" x="16" y="102.09375" class="c0"/>
  <use xlink:href="#kannada-akhn-kssa:id0:glyph0-2" x="109.171875" y="102.09375" class="c1"/>
</g>
</g>
</g>
  <g id="kannada-akhn-kssa:id1:id1" transform="matrix(1.25,0,0,1.25,260.2734375,13.1640625)"><g id="kannada-akhn-kssa:id1:surface1">
<g style="fill:rgb(0%,0%,0%);fill-opacity:1;">
  <use xlink:href="#kannada-akhn-kssa:id1:glyph0-1" x="0" y="120.84375" class="arrow"/>
</g>
</g>
</g>
  <g id="kannada-akhn-kssa:id2:id2" transform="matrix(1.25,0,0,1.25,392.87109375,0.0)"><g id="kannada-akhn-kssa:id2:surface1">
<g style="fill:rgb(0%,0%,0%);fill-opacity:1;">
  <use xlink:href="#kannada-akhn-kssa:id2:glyph0-1" x="16" y="102.09375" class="c2"/>
</g>
</g>
</g>
</svg>
