<!DOCTYPE svg PUBLIC "-//W3C//DTD SVG 1.1//EN" "http://www.w3.org/Graphics/SVG/1.1/DTD/svg11.dtd">
<!-- Created with svg_stack (http://github.com/astraw/svg_stack) --><svg xmlns="http://www.w3.org/2000/svg" xmlns:sodipodi="http://sodipodi.sourceforge.net/DTD/sodipodi-0.dtd" xmlns:xlink="http://www.w3.org/1999/xlink" version="1.1" width="100%" id="kannada-akhn-jnya" viewBox="0 0 574.21875 227.734375">
  <defs><g>
<symbol overflow="visible" id="kannada-akhn-jnya:id0:glyph0-0">
<path style="stroke:none;" d="M 10.453125 0 L 10.453125 -78.546875 L 55.65625 -78.546875 L 55.65625 0 Z M 16.0625 -5.609375 L 50.046875 -5.609375 L 50.046875 -72.9375 L 16.0625 -72.9375 Z M 16.0625 -5.609375 "/>
</symbol>
<symbol overflow="visible" id="kannada-akhn-jnya:id0:glyph0-1">
<path style="stroke:none;" d="M 23.3125 1.203125 C 18.625 1.203125 14.8125 -0.222656 11.875 -3.078125 C 8.945312 -5.941406 7.484375 -9.5 7.484375 -13.75 C 7.484375 -16.976562 8.363281 -19.96875 10.125 -22.71875 C 11.882812 -25.46875 14.445312 -28.414062 17.8125 -31.5625 C 20.601562 -34.132812 22.710938 -36.335938 24.140625 -38.171875 C 25.578125 -40.003906 26.296875 -42.128906 26.296875 -44.546875 C 26.296875 -46.597656 25.632812 -48.394531 24.3125 -49.9375 C 22.988281 -51.476562 20.898438 -52.25 18.046875 -52.25 C 15.398438 -52.25 13.320312 -51.585938 11.8125 -50.265625 C 10.3125 -48.953125 9.5625 -47.117188 9.5625 -44.765625 C 9.5625 -43.378906 9.765625 -42.1875 10.171875 -41.1875 C 10.578125 -40.195312 11.035156 -39.226562 11.546875 -38.28125 L 8.359375 -36.1875 C 7.035156 -37.726562 5.929688 -39.488281 5.046875 -41.46875 C 4.171875 -43.445312 3.734375 -45.6875 3.734375 -48.1875 C 3.734375 -51.625 4.960938 -54.679688 7.421875 -57.359375 C 9.878906 -60.035156 13.566406 -61.375 18.484375 -61.375 C 21.785156 -61.375 24.515625 -60.695312 26.671875 -59.34375 C 28.835938 -57.988281 30.707031 -56.320312 32.28125 -54.34375 C 33.863281 -52.363281 35.40625 -50.363281 36.90625 -48.34375 C 38.40625 -46.320312 40.125 -44.632812 42.0625 -43.28125 C 44.007812 -41.925781 46.453125 -41.25 49.390625 -41.25 C 51.734375 -41.25 53.640625 -41.890625 55.109375 -43.171875 C 56.578125 -44.453125 57.3125 -46.160156 57.3125 -48.296875 C 57.3125 -49.023438 57.203125 -49.789062 56.984375 -50.59375 L 48.515625 -50.59375 L 49.28125 -60.171875 L 61.9375 -60.171875 L 61.9375 -50.59375 L 61.8125 -50.59375 C 61.894531 -50.007812 61.972656 -49.421875 62.046875 -48.828125 C 62.117188 -48.242188 62.15625 -47.625 62.15625 -46.96875 C 62.15625 -42.351562 60.960938 -38.757812 58.578125 -36.1875 C 56.191406 -33.625 53.492188 -32.34375 50.484375 -32.34375 C 47.191406 -32.34375 44.171875 -33.382812 41.421875 -35.46875 C 38.671875 -37.5625 35.898438 -40.804688 33.109375 -45.203125 C 32.671875 -42.421875 31.695312 -39.945312 30.1875 -37.78125 C 28.6875 -35.625 26.582031 -33.222656 23.875 -30.578125 C 21.15625 -27.941406 18.988281 -25.578125 17.375 -23.484375 C 15.757812 -21.390625 14.953125 -19.207031 14.953125 -16.9375 C 14.953125 -14.445312 15.773438 -12.539062 17.421875 -11.21875 C 19.078125 -9.894531 21.375 -9.234375 24.3125 -9.234375 C 28.269531 -9.234375 31.550781 -10.332031 34.15625 -12.53125 C 36.757812 -14.738281 38.722656 -17.929688 40.046875 -22.109375 L 43.671875 -22.109375 C 44.398438 -19.691406 45.3125 -17.507812 46.40625 -15.5625 C 47.507812 -13.625 48.976562 -12.082031 50.8125 -10.9375 C 52.644531 -9.800781 55.03125 -9.234375 57.96875 -9.234375 C 62.445312 -9.234375 65.601562 -10.351562 67.4375 -12.59375 C 69.269531 -14.832031 70.1875 -17.414062 70.1875 -20.34375 C 70.1875 -22.695312 69.671875 -24.828125 68.640625 -26.734375 C 67.609375 -28.640625 66.066406 -30.398438 64.015625 -32.015625 C 64.378906 -33.179688 64.960938 -34.113281 65.765625 -34.8125 C 66.578125 -35.507812 67.460938 -35.859375 68.421875 -35.859375 C 69.960938 -35.859375 71.226562 -35.050781 72.21875 -33.4375 C 73.207031 -31.820312 73.957031 -29.75 74.46875 -27.21875 C 74.976562 -24.695312 75.234375 -22.039062 75.234375 -19.25 C 75.234375 -17.195312 75.015625 -14.976562 74.578125 -12.59375 C 74.140625 -10.207031 73.332031 -7.96875 72.15625 -5.875 C 70.988281 -3.789062 69.375 -2.085938 67.3125 -0.765625 C 65.257812 0.546875 62.625 1.203125 59.40625 1.203125 C 54.632812 1.203125 50.800781 -0.171875 47.90625 -2.921875 C 45.007812 -5.671875 42.898438 -9.28125 41.578125 -13.75 C 39.890625 -8.832031 37.597656 -5.109375 34.703125 -2.578125 C 31.804688 -0.0546875 28.007812 1.203125 23.3125 1.203125 Z M 90.421875 -31.5625 C 86.023438 -31.5625 82.722656 -33.117188 80.515625 -36.234375 C 78.316406 -39.359375 77.144531 -44.144531 77 -50.59375 L 55.4375 -50.59375 L 56.203125 -60.171875 L 77 -60.171875 C 77.363281 -65.742188 78.898438 -70.066406 81.609375 -73.140625 C 84.328125 -76.222656 87.960938 -77.765625 92.515625 -77.765625 C 96.617188 -77.765625 99.898438 -76.5 102.359375 -73.96875 C 104.816406 -71.445312 106.410156 -67.910156 107.140625 -63.359375 L 102.734375 -62.8125 C 102.003906 -65.082031 100.796875 -66.878906 99.109375 -68.203125 C 97.421875 -69.523438 95.1875 -70.1875 92.40625 -70.1875 C 89.6875 -70.1875 87.410156 -69.320312 85.578125 -67.59375 C 83.742188 -65.875 82.609375 -63.398438 82.171875 -60.171875 L 83.59375 -60.171875 C 89.90625 -60.171875 94.546875 -58.921875 97.515625 -56.421875 C 100.484375 -53.929688 101.96875 -50.191406 101.96875 -45.203125 C 101.96875 -41.535156 100.992188 -38.34375 99.046875 -35.625 C 97.109375 -32.914062 94.234375 -31.5625 90.421875 -31.5625 Z M 87.78125 -50.59375 L 81.953125 -50.59375 C 81.953125 -48.539062 82.171875 -46.613281 82.609375 -44.8125 C 83.046875 -43.019531 83.890625 -41.59375 85.140625 -40.53125 C 86.390625 -39.46875 88.1875 -38.9375 90.53125 -38.9375 C 92.582031 -38.9375 94.191406 -39.445312 95.359375 -40.46875 C 96.535156 -41.5 97.125 -42.929688 97.125 -44.765625 C 97.125 -47.117188 96.257812 -48.675781 94.53125 -49.4375 C 92.8125 -50.207031 90.5625 -50.59375 87.78125 -50.59375 Z M 87.78125 -50.59375 "/>
</symbol>
<symbol overflow="visible" id="kannada-akhn-jnya:id0:glyph0-2">
<path style="stroke:none;" d="M 69.734375 6.484375 C 69.734375 9.492188 69.09375 11.84375 67.8125 13.53125 C 66.53125 15.21875 64.828125 16.0625 62.703125 16.0625 C 60.722656 16.0625 59.179688 15.4375 58.078125 14.1875 C 56.984375 12.9375 56.4375 11.4375 56.4375 9.6875 C 58.34375 8.875 59.789062 7.734375 60.78125 6.265625 C 61.769531 4.796875 62.265625 2.890625 62.265625 0.546875 C 62.265625 -3.046875 61.273438 -6.566406 59.296875 -10.015625 C 56.210938 -6.492188 52.632812 -3.722656 48.5625 -1.703125 C 44.488281 0.304688 40.21875 1.3125 35.75 1.3125 C 29.8125 1.3125 25.117188 -0.171875 21.671875 -3.140625 C 18.222656 -6.109375 16.5 -9.789062 16.5 -14.1875 C 16.5 -18.4375 18.164062 -21.9375 21.5 -24.6875 C 24.84375 -27.4375 29.300781 -28.8125 34.875 -28.8125 C 39.488281 -28.8125 43.738281 -27.894531 47.625 -26.0625 C 51.507812 -24.226562 54.921875 -21.882812 57.859375 -19.03125 C 59.765625 -21.300781 61.226562 -23.828125 62.25 -26.609375 C 63.28125 -29.398438 63.796875 -32.375 63.796875 -35.53125 C 63.796875 -40.300781 62.695312 -44.171875 60.5 -47.140625 C 58.300781 -50.109375 55.035156 -51.59375 50.703125 -51.59375 C 47.191406 -51.59375 44.367188 -50.546875 42.234375 -48.453125 C 40.109375 -46.359375 39.046875 -43.554688 39.046875 -40.046875 L 33.546875 -40.046875 C 33.546875 -43.484375 32.519531 -46.265625 30.46875 -48.390625 C 28.414062 -50.523438 25.484375 -51.59375 21.671875 -51.59375 C 18.078125 -51.59375 15.304688 -50.726562 13.359375 -49 C 11.421875 -47.28125 10.453125 -45.132812 10.453125 -42.5625 C 10.453125 -40.882812 10.757812 -39.382812 11.375 -38.0625 C 12 -36.738281 12.9375 -35.378906 14.1875 -33.984375 L 11.21875 -31.453125 C 9.164062 -33.441406 7.585938 -35.625 6.484375 -38 C 5.390625 -40.382812 4.84375 -43.117188 4.84375 -46.203125 C 4.84375 -50.597656 6.363281 -54.242188 9.40625 -57.140625 C 12.445312 -60.035156 16.316406 -61.484375 21.015625 -61.484375 C 24.898438 -61.484375 28.125 -60.53125 30.6875 -58.625 C 33.257812 -56.71875 35.128906 -54.191406 36.296875 -51.046875 C 37.253906 -54.335938 39.035156 -56.898438 41.640625 -58.734375 C 44.242188 -60.566406 47.300781 -61.484375 50.8125 -61.484375 C 54.632812 -61.484375 57.804688 -60.546875 60.328125 -58.671875 C 62.859375 -56.804688 64.820312 -54.375 66.21875 -51.375 C 67.394531 -54.375 69.226562 -56.789062 71.71875 -58.625 C 74.207031 -60.457031 77.320312 -61.375 81.0625 -61.375 C 85.6875 -61.375 89.460938 -59.925781 92.390625 -57.03125 C 95.328125 -54.132812 96.796875 -50.488281 96.796875 -46.09375 C 96.796875 -43.007812 96.242188 -40.273438 95.140625 -37.890625 C 94.046875 -35.503906 92.472656 -33.320312 90.421875 -31.34375 L 87.453125 -33.875 C 88.691406 -35.269531 89.640625 -36.628906 90.296875 -37.953125 C 90.960938 -39.273438 91.296875 -40.773438 91.296875 -42.453125 C 91.296875 -45.023438 90.359375 -47.171875 88.484375 -48.890625 C 86.617188 -50.617188 83.925781 -51.484375 80.40625 -51.484375 C 76.738281 -51.484375 73.894531 -50.414062 71.875 -48.28125 C 69.863281 -46.15625 68.859375 -43.375 68.859375 -39.9375 L 68.75 -39.9375 C 68.820312 -38.976562 68.859375 -38.019531 68.859375 -37.0625 C 68.859375 -32.664062 68.269531 -28.503906 67.09375 -24.578125 C 65.925781 -20.660156 64.316406 -17.125 62.265625 -13.96875 C 64.679688 -10.738281 66.53125 -7.304688 67.8125 -3.671875 C 69.09375 -0.046875 69.734375 3.335938 69.734375 6.484375 Z M 22.984375 -16.5 C 22.984375 -14.375 23.992188 -12.613281 26.015625 -11.21875 C 28.035156 -9.820312 31.097656 -9.125 35.203125 -9.125 C 39.085938 -9.125 42.695312 -9.726562 46.03125 -10.9375 C 49.375 -12.15625 52.289062 -13.789062 54.78125 -15.84375 C 52.289062 -18.257812 49.359375 -20.21875 45.984375 -21.71875 C 42.609375 -23.226562 38.941406 -23.984375 34.984375 -23.984375 C 31.171875 -23.984375 28.21875 -23.320312 26.125 -22 C 24.03125 -20.675781 22.984375 -18.84375 22.984375 -16.5 Z M 22.984375 -16.5 "/>
</symbol>
</g>
<g>
<symbol overflow="visible" id="kannada-akhn-jnya:id1:glyph0-0">
<path style="stroke:none;" d="M 5.375 -96.6875 L 69.828125 -96.6875 L 69.828125 0 L 5.375 0 Z M 8.0625 -2.6875 L 67.140625 -2.6875 L 67.140625 -94 L 8.0625 -94 Z M 8.0625 -2.6875 "/>
</symbol>
<symbol overflow="visible" id="kannada-akhn-jnya:id1:glyph0-1">
<path style="stroke:none;" d="M 68.15625 -13.75 L 66.28125 -18.640625 L 88.09375 -27.390625 L 6.984375 -27.390625 L 6.984375 -34 L 88.09375 -34 L 66.28125 -42.75 L 68.15625 -47.640625 L 99.09375 -34.265625 L 99.09375 -27.125 Z M 68.15625 -13.75 "/>
</symbol>
</g>
<g>
<symbol overflow="visible" id="kannada-akhn-jnya:id2:glyph0-0">
<path style="stroke:none;" d="M 10.453125 0 L 10.453125 -78.546875 L 55.65625 -78.546875 L 55.65625 0 Z M 16.0625 -5.609375 L 50.046875 -5.609375 L 50.046875 -72.9375 L 16.0625 -72.9375 Z M 16.0625 -5.609375 "/>
</symbol>
<symbol overflow="visible" id="kannada-akhn-jnya:id2:glyph0-1">
<path style="stroke:none;" d="M 75.234375 -19.25 C 75.234375 -17.195312 75.015625 -14.976562 74.578125 -12.59375 C 74.140625 -10.207031 73.332031 -7.96875 72.15625 -5.875 C 70.988281 -3.789062 69.375 -2.085938 67.3125 -0.765625 C 65.257812 0.546875 62.625 1.203125 59.40625 1.203125 C 54.632812 1.203125 50.800781 -0.171875 47.90625 -2.921875 C 45.007812 -5.671875 42.898438 -9.28125 41.578125 -13.75 C 39.890625 -8.832031 37.597656 -5.109375 34.703125 -2.578125 C 31.804688 -0.0546875 28.007812 1.203125 23.3125 1.203125 C 18.625 1.203125 14.8125 -0.222656 11.875 -3.078125 C 8.945312 -5.941406 7.484375 -9.5 7.484375 -13.75 C 7.484375 -16.976562 8.363281 -19.96875 10.125 -22.71875 C 11.882812 -25.46875 14.445312 -28.414062 17.8125 -31.5625 C 20.601562 -34.132812 22.710938 -36.335938 24.140625 -38.171875 C 25.578125 -40.003906 26.296875 -42.128906 26.296875 -44.546875 C 26.296875 -46.597656 25.632812 -48.394531 24.3125 -49.9375 C 22.988281 -51.476562 20.898438 -52.25 18.046875 -52.25 C 15.398438 -52.25 13.320312 -51.585938 11.8125 -50.265625 C 10.3125 -48.953125 9.5625 -47.117188 9.5625 -44.765625 C 9.5625 -43.378906 9.765625 -42.1875 10.171875 -41.1875 C 10.578125 -40.195312 11.035156 -39.226562 11.546875 -38.28125 L 8.359375 -36.1875 C 7.035156 -37.726562 5.929688 -39.488281 5.046875 -41.46875 C 4.171875 -43.445312 3.734375 -45.6875 3.734375 -48.1875 C 3.734375 -51.625 4.960938 -54.679688 7.421875 -57.359375 C 9.878906 -60.035156 13.566406 -61.375 18.484375 -61.375 C 21.410156 -61.375 23.992188 -60.785156 26.234375 -59.609375 C 28.472656 -58.441406 30.582031 -56.976562 32.5625 -55.21875 C 34.539062 -53.457031 36.519531 -51.695312 38.5 -49.9375 C 40.476562 -48.175781 42.625 -46.707031 44.9375 -45.53125 C 47.25 -44.363281 49.941406 -43.78125 53.015625 -43.78125 C 55.515625 -43.78125 57.492188 -44.3125 58.953125 -45.375 C 60.421875 -46.4375 61.15625 -47.882812 61.15625 -49.71875 C 61.15625 -51.40625 60.515625 -52.867188 59.234375 -54.109375 C 57.953125 -55.359375 55.804688 -56.242188 52.796875 -56.765625 C 53.535156 -59.835938 55.113281 -61.375 57.53125 -61.375 C 59.21875 -61.375 60.703125 -60.710938 61.984375 -59.390625 C 63.265625 -58.078125 64.269531 -56.375 65 -54.28125 C 65.738281 -52.195312 66.109375 -49.941406 66.109375 -47.515625 C 66.109375 -43.628906 65.117188 -40.566406 63.140625 -38.328125 C 61.160156 -36.097656 58.375 -34.984375 54.78125 -34.984375 C 50.820312 -34.984375 47.097656 -36.171875 43.609375 -38.546875 C 40.128906 -40.929688 36.738281 -44.03125 33.4375 -47.84375 C 33.289062 -44.320312 32.445312 -41.316406 30.90625 -38.828125 C 29.363281 -36.335938 27.019531 -33.585938 23.875 -30.578125 C 21.15625 -27.941406 18.988281 -25.578125 17.375 -23.484375 C 15.757812 -21.390625 14.953125 -19.207031 14.953125 -16.9375 C 14.953125 -14.445312 15.773438 -12.539062 17.421875 -11.21875 C 19.078125 -9.894531 21.375 -9.234375 24.3125 -9.234375 C 28.269531 -9.234375 31.550781 -10.332031 34.15625 -12.53125 C 36.757812 -14.738281 38.722656 -17.929688 40.046875 -22.109375 L 43.671875 -22.109375 C 44.398438 -19.691406 45.3125 -17.507812 46.40625 -15.5625 C 47.507812 -13.625 48.976562 -12.082031 50.8125 -10.9375 C 52.644531 -9.800781 55.03125 -9.234375 57.96875 -9.234375 C 62.445312 -9.234375 65.601562 -10.351562 67.4375 -12.59375 C 69.269531 -14.832031 70.1875 -17.414062 70.1875 -20.34375 C 70.1875 -22.695312 69.671875 -24.828125 68.640625 -26.734375 C 67.609375 -28.640625 66.066406 -30.398438 64.015625 -32.015625 C 64.378906 -33.179688 64.960938 -34.113281 65.765625 -34.8125 C 66.578125 -35.507812 67.460938 -35.859375 68.421875 -35.859375 C 69.960938 -35.859375 71.226562 -35.050781 72.21875 -33.4375 C 73.207031 -31.820312 73.957031 -29.75 74.46875 -27.21875 C 74.976562 -24.695312 75.234375 -22.039062 75.234375 -19.25 Z M 67.984375 29.15625 L 65.78125 27.390625 C 66.519531 26.578125 67.070312 25.820312 67.4375 25.125 C 67.800781 24.4375 67.984375 23.648438 67.984375 22.765625 C 67.984375 21.222656 67.394531 19.972656 66.21875 19.015625 C 65.050781 18.066406 63.363281 17.59375 61.15625 17.59375 C 59.101562 17.59375 57.4375 18.125 56.15625 19.1875 C 54.875 20.257812 54.125 21.671875 53.90625 23.421875 C 53.976562 24.015625 54.015625 24.640625 54.015625 25.296875 C 54.015625 28.015625 53.644531 30.597656 52.90625 33.046875 C 52.175781 35.503906 51.148438 37.722656 49.828125 39.703125 C 52.984375 43.960938 54.5625 48.363281 54.5625 52.90625 C 54.5625 55.175781 54.082031 56.9375 53.125 58.1875 C 52.175781 59.4375 50.859375 60.0625 49.171875 60.0625 C 47.703125 60.0625 46.523438 59.582031 45.640625 58.625 C 44.765625 57.675781 44.328125 56.503906 44.328125 55.109375 C 47.335938 54.003906 48.84375 51.804688 48.84375 48.515625 C 48.84375 46.609375 48.363281 44.738281 47.40625 42.90625 C 45.425781 45.101562 43.132812 46.820312 40.53125 48.0625 C 37.9375 49.3125 35.132812 49.9375 32.125 49.9375 C 28.09375 49.9375 24.898438 48.960938 22.546875 47.015625 C 20.203125 45.078125 19.03125 42.640625 19.03125 39.703125 C 19.03125 36.921875 20.164062 34.59375 22.4375 32.71875 C 24.71875 30.851562 27.765625 29.921875 31.578125 29.921875 C 34.429688 29.921875 37.101562 30.453125 39.59375 31.515625 C 42.09375 32.578125 44.332031 33.988281 46.3125 35.75 C 48.65625 33.113281 49.828125 30.035156 49.828125 26.515625 C 49.828125 23.796875 49.128906 21.644531 47.734375 20.0625 C 46.347656 18.488281 44.296875 17.703125 41.578125 17.703125 C 39.304688 17.703125 37.507812 18.289062 36.1875 19.46875 C 34.875 20.644531 34.144531 22.257812 34 24.3125 L 30.25 24.3125 C 30.175781 22.257812 29.476562 20.644531 28.15625 19.46875 C 26.84375 18.289062 24.972656 17.703125 22.546875 17.703125 C 20.273438 17.703125 18.5 18.175781 17.21875 19.125 C 15.9375 20.082031 15.296875 21.296875 15.296875 22.765625 C 15.296875 23.648438 15.476562 24.4375 15.84375 25.125 C 16.207031 25.820312 16.757812 26.578125 17.5 27.390625 L 15.296875 29.265625 C 13.828125 28.015625 12.6875 26.582031 11.875 24.96875 C 11.070312 23.351562 10.671875 21.519531 10.671875 19.46875 C 10.671875 16.601562 11.660156 14.195312 13.640625 12.25 C 15.617188 10.3125 18.257812 9.34375 21.5625 9.34375 C 24.28125 9.34375 26.535156 10.019531 28.328125 11.375 C 30.128906 12.738281 31.394531 14.445312 32.125 16.5 C 32.78125 14.300781 33.988281 12.554688 35.75 11.265625 C 37.507812 9.984375 39.601562 9.34375 42.03125 9.34375 C 44.519531 9.34375 46.609375 9.945312 48.296875 11.15625 C 49.984375 12.375 51.300781 13.972656 52.25 15.953125 C 52.988281 13.972656 54.195312 12.375 55.875 11.15625 C 57.5625 9.945312 59.65625 9.34375 62.15625 9.34375 C 65.3125 9.34375 67.859375 10.3125 69.796875 12.25 C 71.742188 14.195312 72.71875 16.640625 72.71875 19.578125 C 72.71875 21.628906 72.296875 23.425781 71.453125 24.96875 C 70.609375 26.507812 69.453125 27.90625 67.984375 29.15625 Z M 24.421875 37.734375 C 24.421875 38.898438 25.023438 39.867188 26.234375 40.640625 C 27.441406 41.410156 29.296875 41.796875 31.796875 41.796875 C 36.335938 41.796875 40.296875 40.585938 43.671875 38.171875 C 42.128906 36.847656 40.347656 35.78125 38.328125 34.96875 C 36.316406 34.164062 34.101562 33.765625 31.6875 33.765625 C 26.84375 33.765625 24.421875 35.085938 24.421875 37.734375 Z M 24.421875 37.734375 "/>
</symbol>
</g>
</defs>
  <g id="kannada-akhn-jnya:id0:id0" transform="matrix(1.25,0,0,1.25,0.0,0.0)"><g id="kannada-akhn-jnya:id0:surface1">
<g style="fill:rgb(0%,0%,0%);fill-opacity:1;">
  <use xlink:href="#kannada-akhn-jnya:id0:glyph0-1" x="16" y="102.09375" class="c0"/>
  <use xlink:href="#kannada-akhn-jnya:id0:glyph0-2" x="123.140625" y="102.09375" class="c1"/>
</g>
</g>
</g>
  <g id="kannada-akhn-jnya:id1:id1" transform="matrix(1.25,0,0,1.25,300.4296875,13.1640625)"><g id="kannada-akhn-jnya:id1:surface1">
<g style="fill:rgb(0%,0%,0%);fill-opacity:1;">
  <use xlink:href="#kannada-akhn-jnya:id1:glyph0-1" x="0" y="120.84375" class="arrow"/>
</g>
</g>
</g>
  <g id="kannada-akhn-jnya:id2:id2" transform="matrix(1.25,0,0,1.25,433.02734375,0.0)"><g id="kannada-akhn-jnya:id2:surface1">
<g style="fill:rgb(0%,0%,0%);fill-opacity:1;">
  <use xlink:href="#kannada-akhn-jnya:id2:glyph0-1" x="16" y="102.09375" class="c2"/>
</g>
</g>
</g>
</svg>