<?xml version="1.0" standalone="no"?>
<!DOCTYPE svg PUBLIC "-//W3C//DTD SVG 1.1//EN"
 "http://www.w3.org/Graphics/SVG/1.1/DTD/svg11.dtd">
<!-- Created with svg_stack (http://github.com/astraw/svg_stack) -->
<svg xmlns="http://www.w3.org/2000/svg" xmlns:sodipodi="http://sodipodi.sourceforge.net/DTD/sodipodi-0.dtd" xmlns:xlink="http://www.w3.org/1999/xlink" version="1.1" width="457.63671875" height="227.734375">
  <defs><g>
<symbol overflow="visible" id="id0:glyph0-0">
<path style="stroke:none;" d="M 10.453125 0 L 10.453125 -78.546875 L 55.65625 -78.546875 L 55.65625 0 Z M 16.0625 -5.609375 L 50.046875 -5.609375 L 50.046875 -72.9375 L 16.0625 -72.9375 Z M 16.0625 -5.609375 "/>
</symbol>
<symbol overflow="visible" id="id0:glyph0-1">
<path style="stroke:none;" d="M 32.671875 -53.6875 C 31.929688 -53.6875 31.269531 -53.976562 30.6875 -54.5625 C 30.101562 -55.144531 29.8125 -55.804688 29.8125 -56.546875 C 29.8125 -57.347656 30.101562 -58.023438 30.6875 -58.578125 C 31.269531 -59.128906 31.929688 -59.40625 32.671875 -59.40625 C 33.472656 -59.40625 34.148438 -59.128906 34.703125 -58.578125 C 35.253906 -58.023438 35.53125 -57.347656 35.53125 -56.546875 C 35.53125 -55.804688 35.253906 -55.144531 34.703125 -54.5625 C 34.148438 -53.976562 33.472656 -53.6875 32.671875 -53.6875 Z M 41.90625 -51.703125 C 41.175781 -51.703125 40.515625 -51.992188 39.921875 -52.578125 C 39.335938 -53.160156 39.046875 -53.820312 39.046875 -54.5625 C 39.046875 -55.363281 39.335938 -56.039062 39.921875 -56.59375 C 40.515625 -57.144531 41.175781 -57.421875 41.90625 -57.421875 C 42.71875 -57.421875 43.394531 -57.144531 43.9375 -56.59375 C 44.488281 -56.039062 44.765625 -55.363281 44.765625 -54.5625 C 44.765625 -53.820312 44.488281 -53.160156 43.9375 -52.578125 C 43.394531 -51.992188 42.71875 -51.703125 41.90625 -51.703125 Z M 23.4375 -51.703125 C 22.695312 -51.703125 22.03125 -51.992188 21.4375 -52.578125 C 20.851562 -53.160156 20.5625 -53.820312 20.5625 -54.5625 C 20.5625 -55.363281 20.851562 -56.039062 21.4375 -56.59375 C 22.03125 -57.144531 22.695312 -57.421875 23.4375 -57.421875 C 24.238281 -57.421875 24.914062 -57.144531 25.46875 -56.59375 C 26.019531 -56.039062 26.296875 -55.363281 26.296875 -54.5625 C 26.296875 -53.820312 26.019531 -53.160156 25.46875 -52.578125 C 24.914062 -51.992188 24.238281 -51.703125 23.4375 -51.703125 Z M 50.046875 -46.53125 C 49.316406 -46.53125 48.65625 -46.820312 48.0625 -47.40625 C 47.476562 -48 47.1875 -48.660156 47.1875 -49.390625 C 47.1875 -50.191406 47.476562 -50.867188 48.0625 -51.421875 C 48.65625 -51.972656 49.316406 -52.25 50.046875 -52.25 C 50.859375 -52.25 51.535156 -51.972656 52.078125 -51.421875 C 52.628906 -50.867188 52.90625 -50.191406 52.90625 -49.390625 C 52.90625 -48.660156 52.628906 -48 52.078125 -47.40625 C 51.535156 -46.820312 50.859375 -46.53125 50.046875 -46.53125 Z M 15.296875 -46.53125 C 14.554688 -46.53125 13.894531 -46.820312 13.3125 -47.40625 C 12.726562 -48 12.4375 -48.660156 12.4375 -49.390625 C 12.4375 -50.191406 12.726562 -50.867188 13.3125 -51.421875 C 13.894531 -51.972656 14.554688 -52.25 15.296875 -52.25 C 16.097656 -52.25 16.773438 -51.972656 17.328125 -51.421875 C 17.878906 -50.867188 18.15625 -50.191406 18.15625 -49.390625 C 18.15625 -48.660156 17.878906 -48 17.328125 -47.40625 C 16.773438 -46.820312 16.097656 -46.53125 15.296875 -46.53125 Z M 55.21875 -38.390625 C 54.488281 -38.390625 53.828125 -38.679688 53.234375 -39.265625 C 52.648438 -39.859375 52.359375 -40.519531 52.359375 -41.25 C 52.359375 -42.050781 52.648438 -42.726562 53.234375 -43.28125 C 53.828125 -43.832031 54.488281 -44.109375 55.21875 -44.109375 C 56.03125 -44.109375 56.707031 -43.832031 57.25 -43.28125 C 57.800781 -42.726562 58.078125 -42.050781 58.078125 -41.25 C 58.078125 -40.519531 57.800781 -39.859375 57.25 -39.265625 C 56.707031 -38.679688 56.03125 -38.390625 55.21875 -38.390625 Z M 10.125 -38.390625 C 9.382812 -38.390625 8.722656 -38.679688 8.140625 -39.265625 C 7.554688 -39.859375 7.265625 -40.519531 7.265625 -41.25 C 7.265625 -42.050781 7.554688 -42.726562 8.140625 -43.28125 C 8.722656 -43.832031 9.382812 -44.109375 10.125 -44.109375 C 10.925781 -44.109375 11.601562 -43.832031 12.15625 -43.28125 C 12.707031 -42.726562 12.984375 -42.050781 12.984375 -41.25 C 12.984375 -40.519531 12.707031 -39.859375 12.15625 -39.265625 C 11.601562 -38.679688 10.925781 -38.390625 10.125 -38.390625 Z M 57.203125 -29.15625 C 56.460938 -29.15625 55.800781 -29.445312 55.21875 -30.03125 C 54.632812 -30.613281 54.34375 -31.273438 54.34375 -32.015625 C 54.34375 -32.816406 54.632812 -33.492188 55.21875 -34.046875 C 55.800781 -34.597656 56.460938 -34.875 57.203125 -34.875 C 58.003906 -34.875 58.679688 -34.597656 59.234375 -34.046875 C 59.785156 -33.492188 60.0625 -32.816406 60.0625 -32.015625 C 60.0625 -31.273438 59.785156 -30.613281 59.234375 -30.03125 C 58.679688 -29.445312 58.003906 -29.15625 57.203125 -29.15625 Z M 8.140625 -29.15625 C 7.410156 -29.15625 6.75 -29.445312 6.15625 -30.03125 C 5.570312 -30.613281 5.28125 -31.273438 5.28125 -32.015625 C 5.28125 -32.816406 5.570312 -33.492188 6.15625 -34.046875 C 6.75 -34.597656 7.410156 -34.875 8.140625 -34.875 C 8.941406 -34.875 9.617188 -34.597656 10.171875 -34.046875 C 10.722656 -33.492188 11 -32.816406 11 -32.015625 C 11 -31.273438 10.722656 -30.613281 10.171875 -30.03125 C 9.617188 -29.445312 8.941406 -29.15625 8.140625 -29.15625 Z M 55.21875 -19.90625 C 54.488281 -19.90625 53.828125 -20.195312 53.234375 -20.78125 C 52.648438 -21.375 52.359375 -22.035156 52.359375 -22.765625 C 52.359375 -23.578125 52.648438 -24.253906 53.234375 -24.796875 C 53.828125 -25.347656 54.488281 -25.625 55.21875 -25.625 C 56.03125 -25.625 56.707031 -25.347656 57.25 -24.796875 C 57.800781 -24.253906 58.078125 -23.578125 58.078125 -22.765625 C 58.078125 -22.035156 57.800781 -21.375 57.25 -20.78125 C 56.707031 -20.195312 56.03125 -19.90625 55.21875 -19.90625 Z M 10.125 -19.90625 C 9.382812 -19.90625 8.722656 -20.195312 8.140625 -20.78125 C 7.554688 -21.375 7.265625 -22.035156 7.265625 -22.765625 C 7.265625 -23.578125 7.554688 -24.253906 8.140625 -24.796875 C 8.722656 -25.347656 9.382812 -25.625 10.125 -25.625 C 10.925781 -25.625 11.601562 -25.347656 12.15625 -24.796875 C 12.707031 -24.253906 12.984375 -23.578125 12.984375 -22.765625 C 12.984375 -22.035156 12.707031 -21.375 12.15625 -20.78125 C 11.601562 -20.195312 10.925781 -19.90625 10.125 -19.90625 Z M 50.046875 -11.765625 C 49.316406 -11.765625 48.65625 -12.054688 48.0625 -12.640625 C 47.476562 -13.234375 47.1875 -13.894531 47.1875 -14.625 C 47.1875 -15.4375 47.476562 -16.113281 48.0625 -16.65625 C 48.65625 -17.207031 49.316406 -17.484375 50.046875 -17.484375 C 50.859375 -17.484375 51.535156 -17.207031 52.078125 -16.65625 C 52.628906 -16.113281 52.90625 -15.4375 52.90625 -14.625 C 52.90625 -13.894531 52.628906 -13.234375 52.078125 -12.640625 C 51.535156 -12.054688 50.859375 -11.765625 50.046875 -11.765625 Z M 15.296875 -11.765625 C 14.554688 -11.765625 13.894531 -12.054688 13.3125 -12.640625 C 12.726562 -13.234375 12.4375 -13.894531 12.4375 -14.625 C 12.4375 -15.4375 12.726562 -16.113281 13.3125 -16.65625 C 13.894531 -17.207031 14.554688 -17.484375 15.296875 -17.484375 C 16.097656 -17.484375 16.773438 -17.207031 17.328125 -16.65625 C 17.878906 -16.113281 18.15625 -15.4375 18.15625 -14.625 C 18.15625 -13.894531 17.878906 -13.234375 17.328125 -12.640625 C 16.773438 -12.054688 16.097656 -11.765625 15.296875 -11.765625 Z M 41.90625 -6.59375 C 41.175781 -6.59375 40.515625 -6.882812 39.921875 -7.46875 C 39.335938 -8.0625 39.046875 -8.722656 39.046875 -9.453125 C 39.046875 -10.265625 39.335938 -10.941406 39.921875 -11.484375 C 40.515625 -12.035156 41.175781 -12.3125 41.90625 -12.3125 C 42.71875 -12.3125 43.394531 -12.035156 43.9375 -11.484375 C 44.488281 -10.941406 44.765625 -10.265625 44.765625 -9.453125 C 44.765625 -8.722656 44.488281 -8.0625 43.9375 -7.46875 C 43.394531 -6.882812 42.71875 -6.59375 41.90625 -6.59375 Z M 23.4375 -6.59375 C 22.695312 -6.59375 22.03125 -6.882812 21.4375 -7.46875 C 20.851562 -8.0625 20.5625 -8.722656 20.5625 -9.453125 C 20.5625 -10.265625 20.851562 -10.941406 21.4375 -11.484375 C 22.03125 -12.035156 22.695312 -12.3125 23.4375 -12.3125 C 24.238281 -12.3125 24.914062 -12.035156 25.46875 -11.484375 C 26.019531 -10.941406 26.296875 -10.265625 26.296875 -9.453125 C 26.296875 -8.722656 26.019531 -8.0625 25.46875 -7.46875 C 24.914062 -6.882812 24.238281 -6.59375 23.4375 -6.59375 Z M 32.671875 -4.625 C 31.929688 -4.625 31.269531 -4.914062 30.6875 -5.5 C 30.101562 -6.082031 29.8125 -6.742188 29.8125 -7.484375 C 29.8125 -8.285156 30.101562 -8.960938 30.6875 -9.515625 C 31.269531 -10.066406 31.929688 -10.34375 32.671875 -10.34375 C 33.472656 -10.34375 34.148438 -10.066406 34.703125 -9.515625 C 35.253906 -8.960938 35.53125 -8.285156 35.53125 -7.484375 C 35.53125 -6.742188 35.253906 -6.082031 34.703125 -5.5 C 34.148438 -4.914062 33.472656 -4.625 32.671875 -4.625 Z M 32.671875 -4.625 "/>
</symbol>
<symbol overflow="visible" id="id0:glyph0-2">
<path style="stroke:none;" d="M -27.28125 -50.59375 L -26.515625 -60.171875 L -22.984375 -60.171875 C -18.515625 -60.171875 -15.179688 -60.425781 -12.984375 -60.9375 C -10.785156 -61.445312 -9.097656 -62.289062 -7.921875 -63.46875 C -6.015625 -65.226562 -5.0625 -67.832031 -5.0625 -71.28125 C -5.0625 -74.21875 -6.015625 -76.800781 -7.921875 -79.03125 C -9.828125 -81.269531 -12.648438 -82.390625 -16.390625 -82.390625 C -19.171875 -82.390625 -21.273438 -81.707031 -22.703125 -80.34375 C -24.140625 -78.988281 -24.859375 -77.320312 -24.859375 -75.34375 C -24.859375 -73.582031 -24.457031 -72.265625 -23.65625 -71.390625 L -23.65625 -71.609375 C -23.65625 -72.859375 -23.25 -73.90625 -22.4375 -74.75 C -21.632812 -75.59375 -20.535156 -76.015625 -19.140625 -76.015625 C -17.597656 -76.015625 -16.441406 -75.535156 -15.671875 -74.578125 C -14.898438 -73.628906 -14.515625 -72.53125 -14.515625 -71.28125 C -14.515625 -69.8125 -15.023438 -68.597656 -16.046875 -67.640625 C -17.078125 -66.691406 -18.546875 -66.21875 -20.453125 -66.21875 C -22.878906 -66.21875 -25.023438 -67.078125 -26.890625 -68.796875 C -28.765625 -70.523438 -29.703125 -73.003906 -29.703125 -76.234375 C -29.703125 -78.140625 -29.242188 -80.007812 -28.328125 -81.84375 C -27.410156 -83.675781 -25.941406 -85.210938 -23.921875 -86.453125 C -21.910156 -87.703125 -19.328125 -88.328125 -16.171875 -88.328125 C -12.796875 -88.328125 -9.894531 -87.425781 -7.46875 -85.625 C -5.050781 -83.832031 -3.203125 -81.523438 -1.921875 -78.703125 C -0.640625 -75.878906 0 -72.890625 0 -69.734375 C 0 -63.503906 -1.832031 -58.753906 -5.5 -55.484375 C -9.164062 -52.222656 -15.144531 -50.59375 -23.4375 -50.59375 Z M -27.28125 -50.59375 "/>
</symbol>
<symbol overflow="visible" id="id0:glyph0-3">
<path style="stroke:none;" d="M -11 48.625 C -15.695312 48.625 -19.726562 47.648438 -23.09375 45.703125 C -26.46875 43.765625 -29.050781 41.085938 -30.84375 37.671875 C -32.644531 34.265625 -33.546875 30.394531 -33.546875 26.0625 C -33.546875 20.488281 -32.316406 15.976562 -29.859375 12.53125 C -27.410156 9.09375 -23.945312 7.375 -19.46875 7.375 C -16.019531 7.375 -13.394531 8.5625 -11.59375 10.9375 C -9.800781 13.320312 -8.90625 16.128906 -8.90625 19.359375 C -8.90625 22.953125 -9.800781 25.828125 -11.59375 27.984375 C -13.394531 30.148438 -15.984375 31.234375 -19.359375 31.234375 C -21.847656 31.234375 -23.972656 30.570312 -25.734375 29.25 C -27.492188 27.9375 -28.707031 26.144531 -29.375 23.875 C -29.375 24.238281 -29.375 24.675781 -29.375 25.1875 C -29.375 29.21875 -27.773438 32.625 -24.578125 35.40625 C -21.390625 38.195312 -17.007812 39.59375 -11.4375 39.59375 C -6.226562 39.59375 -2.050781 38.160156 1.09375 35.296875 C 4.25 32.441406 5.828125 28.742188 5.828125 24.203125 C 5.828125 21.117188 5.128906 18.441406 3.734375 16.171875 C 2.347656 13.898438 0.148438 12.175781 -2.859375 11 L -2.640625 8.359375 C -0.441406 6.378906 1.113281 4.671875 2.03125 3.234375 C 2.945312 1.804688 3.40625 0.289062 3.40625 -1.3125 C 3.40625 -3.375 2.65625 -4.953125 1.15625 -6.046875 C -0.34375 -7.148438 -2.488281 -7.703125 -5.28125 -7.703125 C -5.0625 -9.242188 -4.34375 -10.488281 -3.125 -11.4375 C -1.914062 -12.394531 -0.285156 -12.875 1.765625 -12.875 C 4.472656 -12.875 6.5625 -12.007812 8.03125 -10.28125 C 9.5 -8.5625 10.234375 -6.53125 10.234375 -4.1875 C 10.234375 -1.394531 9.585938 1.023438 8.296875 3.078125 C 7.015625 5.128906 5.203125 7.253906 2.859375 9.453125 C 5.648438 11.066406 7.773438 13.320312 9.234375 16.21875 C 10.703125 19.113281 11.4375 22.359375 11.4375 25.953125 C 11.4375 30.210938 10.484375 34.066406 8.578125 37.515625 C 6.671875 40.960938 4.03125 43.675781 0.65625 45.65625 C -2.71875 47.632812 -6.601562 48.625 -11 48.625 Z M -19.6875 24.203125 C -15.21875 24.203125 -12.984375 22.585938 -12.984375 19.359375 C -12.984375 16.054688 -15.179688 14.40625 -19.578125 14.40625 C -24.054688 14.40625 -26.296875 16.054688 -26.296875 19.359375 C -26.296875 22.585938 -24.09375 24.203125 -19.6875 24.203125 Z M -19.6875 24.203125 "/>
</symbol>
</g>
<g>
<symbol overflow="visible" id="id1:glyph0-0">
<path style="stroke:none;" d="M 5.375 -96.6875 L 69.828125 -96.6875 L 69.828125 0 L 5.375 0 Z M 8.0625 -2.6875 L 67.140625 -2.6875 L 67.140625 -94 L 8.0625 -94 Z M 8.0625 -2.6875 "/>
</symbol>
<symbol overflow="visible" id="id1:glyph0-1">
<path style="stroke:none;" d="M 68.15625 -13.75 L 66.28125 -18.640625 L 88.09375 -27.390625 L 6.984375 -27.390625 L 6.984375 -34 L 88.09375 -34 L 66.28125 -42.75 L 68.15625 -47.640625 L 99.09375 -34.265625 L 99.09375 -27.125 Z M 68.15625 -13.75 "/>
</symbol>
</g>
<g>
<symbol overflow="visible" id="id2:glyph0-0">
<path style="stroke:none;" d="M 10.453125 0 L 10.453125 -78.546875 L 55.65625 -78.546875 L 55.65625 0 Z M 16.0625 -5.609375 L 50.046875 -5.609375 L 50.046875 -72.9375 L 16.0625 -72.9375 Z M 16.0625 -5.609375 "/>
</symbol>
<symbol overflow="visible" id="id2:glyph0-1">
<path style="stroke:none;" d="M 32.671875 -53.6875 C 31.929688 -53.6875 31.269531 -53.976562 30.6875 -54.5625 C 30.101562 -55.144531 29.8125 -55.804688 29.8125 -56.546875 C 29.8125 -57.347656 30.101562 -58.023438 30.6875 -58.578125 C 31.269531 -59.128906 31.929688 -59.40625 32.671875 -59.40625 C 33.472656 -59.40625 34.148438 -59.128906 34.703125 -58.578125 C 35.253906 -58.023438 35.53125 -57.347656 35.53125 -56.546875 C 35.53125 -55.804688 35.253906 -55.144531 34.703125 -54.5625 C 34.148438 -53.976562 33.472656 -53.6875 32.671875 -53.6875 Z M 41.90625 -51.703125 C 41.175781 -51.703125 40.515625 -51.992188 39.921875 -52.578125 C 39.335938 -53.160156 39.046875 -53.820312 39.046875 -54.5625 C 39.046875 -55.363281 39.335938 -56.039062 39.921875 -56.59375 C 40.515625 -57.144531 41.175781 -57.421875 41.90625 -57.421875 C 42.71875 -57.421875 43.394531 -57.144531 43.9375 -56.59375 C 44.488281 -56.039062 44.765625 -55.363281 44.765625 -54.5625 C 44.765625 -53.820312 44.488281 -53.160156 43.9375 -52.578125 C 43.394531 -51.992188 42.71875 -51.703125 41.90625 -51.703125 Z M 23.4375 -51.703125 C 22.695312 -51.703125 22.03125 -51.992188 21.4375 -52.578125 C 20.851562 -53.160156 20.5625 -53.820312 20.5625 -54.5625 C 20.5625 -55.363281 20.851562 -56.039062 21.4375 -56.59375 C 22.03125 -57.144531 22.695312 -57.421875 23.4375 -57.421875 C 24.238281 -57.421875 24.914062 -57.144531 25.46875 -56.59375 C 26.019531 -56.039062 26.296875 -55.363281 26.296875 -54.5625 C 26.296875 -53.820312 26.019531 -53.160156 25.46875 -52.578125 C 24.914062 -51.992188 24.238281 -51.703125 23.4375 -51.703125 Z M 50.046875 -46.53125 C 49.316406 -46.53125 48.65625 -46.820312 48.0625 -47.40625 C 47.476562 -48 47.1875 -48.660156 47.1875 -49.390625 C 47.1875 -50.191406 47.476562 -50.867188 48.0625 -51.421875 C 48.65625 -51.972656 49.316406 -52.25 50.046875 -52.25 C 50.859375 -52.25 51.535156 -51.972656 52.078125 -51.421875 C 52.628906 -50.867188 52.90625 -50.191406 52.90625 -49.390625 C 52.90625 -48.660156 52.628906 -48 52.078125 -47.40625 C 51.535156 -46.820312 50.859375 -46.53125 50.046875 -46.53125 Z M 15.296875 -46.53125 C 14.554688 -46.53125 13.894531 -46.820312 13.3125 -47.40625 C 12.726562 -48 12.4375 -48.660156 12.4375 -49.390625 C 12.4375 -50.191406 12.726562 -50.867188 13.3125 -51.421875 C 13.894531 -51.972656 14.554688 -52.25 15.296875 -52.25 C 16.097656 -52.25 16.773438 -51.972656 17.328125 -51.421875 C 17.878906 -50.867188 18.15625 -50.191406 18.15625 -49.390625 C 18.15625 -48.660156 17.878906 -48 17.328125 -47.40625 C 16.773438 -46.820312 16.097656 -46.53125 15.296875 -46.53125 Z M 55.21875 -38.390625 C 54.488281 -38.390625 53.828125 -38.679688 53.234375 -39.265625 C 52.648438 -39.859375 52.359375 -40.519531 52.359375 -41.25 C 52.359375 -42.050781 52.648438 -42.726562 53.234375 -43.28125 C 53.828125 -43.832031 54.488281 -44.109375 55.21875 -44.109375 C 56.03125 -44.109375 56.707031 -43.832031 57.25 -43.28125 C 57.800781 -42.726562 58.078125 -42.050781 58.078125 -41.25 C 58.078125 -40.519531 57.800781 -39.859375 57.25 -39.265625 C 56.707031 -38.679688 56.03125 -38.390625 55.21875 -38.390625 Z M 10.125 -38.390625 C 9.382812 -38.390625 8.722656 -38.679688 8.140625 -39.265625 C 7.554688 -39.859375 7.265625 -40.519531 7.265625 -41.25 C 7.265625 -42.050781 7.554688 -42.726562 8.140625 -43.28125 C 8.722656 -43.832031 9.382812 -44.109375 10.125 -44.109375 C 10.925781 -44.109375 11.601562 -43.832031 12.15625 -43.28125 C 12.707031 -42.726562 12.984375 -42.050781 12.984375 -41.25 C 12.984375 -40.519531 12.707031 -39.859375 12.15625 -39.265625 C 11.601562 -38.679688 10.925781 -38.390625 10.125 -38.390625 Z M 57.203125 -29.15625 C 56.460938 -29.15625 55.800781 -29.445312 55.21875 -30.03125 C 54.632812 -30.613281 54.34375 -31.273438 54.34375 -32.015625 C 54.34375 -32.816406 54.632812 -33.492188 55.21875 -34.046875 C 55.800781 -34.597656 56.460938 -34.875 57.203125 -34.875 C 58.003906 -34.875 58.679688 -34.597656 59.234375 -34.046875 C 59.785156 -33.492188 60.0625 -32.816406 60.0625 -32.015625 C 60.0625 -31.273438 59.785156 -30.613281 59.234375 -30.03125 C 58.679688 -29.445312 58.003906 -29.15625 57.203125 -29.15625 Z M 8.140625 -29.15625 C 7.410156 -29.15625 6.75 -29.445312 6.15625 -30.03125 C 5.570312 -30.613281 5.28125 -31.273438 5.28125 -32.015625 C 5.28125 -32.816406 5.570312 -33.492188 6.15625 -34.046875 C 6.75 -34.597656 7.410156 -34.875 8.140625 -34.875 C 8.941406 -34.875 9.617188 -34.597656 10.171875 -34.046875 C 10.722656 -33.492188 11 -32.816406 11 -32.015625 C 11 -31.273438 10.722656 -30.613281 10.171875 -30.03125 C 9.617188 -29.445312 8.941406 -29.15625 8.140625 -29.15625 Z M 55.21875 -19.90625 C 54.488281 -19.90625 53.828125 -20.195312 53.234375 -20.78125 C 52.648438 -21.375 52.359375 -22.035156 52.359375 -22.765625 C 52.359375 -23.578125 52.648438 -24.253906 53.234375 -24.796875 C 53.828125 -25.347656 54.488281 -25.625 55.21875 -25.625 C 56.03125 -25.625 56.707031 -25.347656 57.25 -24.796875 C 57.800781 -24.253906 58.078125 -23.578125 58.078125 -22.765625 C 58.078125 -22.035156 57.800781 -21.375 57.25 -20.78125 C 56.707031 -20.195312 56.03125 -19.90625 55.21875 -19.90625 Z M 10.125 -19.90625 C 9.382812 -19.90625 8.722656 -20.195312 8.140625 -20.78125 C 7.554688 -21.375 7.265625 -22.035156 7.265625 -22.765625 C 7.265625 -23.578125 7.554688 -24.253906 8.140625 -24.796875 C 8.722656 -25.347656 9.382812 -25.625 10.125 -25.625 C 10.925781 -25.625 11.601562 -25.347656 12.15625 -24.796875 C 12.707031 -24.253906 12.984375 -23.578125 12.984375 -22.765625 C 12.984375 -22.035156 12.707031 -21.375 12.15625 -20.78125 C 11.601562 -20.195312 10.925781 -19.90625 10.125 -19.90625 Z M 50.046875 -11.765625 C 49.316406 -11.765625 48.65625 -12.054688 48.0625 -12.640625 C 47.476562 -13.234375 47.1875 -13.894531 47.1875 -14.625 C 47.1875 -15.4375 47.476562 -16.113281 48.0625 -16.65625 C 48.65625 -17.207031 49.316406 -17.484375 50.046875 -17.484375 C 50.859375 -17.484375 51.535156 -17.207031 52.078125 -16.65625 C 52.628906 -16.113281 52.90625 -15.4375 52.90625 -14.625 C 52.90625 -13.894531 52.628906 -13.234375 52.078125 -12.640625 C 51.535156 -12.054688 50.859375 -11.765625 50.046875 -11.765625 Z M 15.296875 -11.765625 C 14.554688 -11.765625 13.894531 -12.054688 13.3125 -12.640625 C 12.726562 -13.234375 12.4375 -13.894531 12.4375 -14.625 C 12.4375 -15.4375 12.726562 -16.113281 13.3125 -16.65625 C 13.894531 -17.207031 14.554688 -17.484375 15.296875 -17.484375 C 16.097656 -17.484375 16.773438 -17.207031 17.328125 -16.65625 C 17.878906 -16.113281 18.15625 -15.4375 18.15625 -14.625 C 18.15625 -13.894531 17.878906 -13.234375 17.328125 -12.640625 C 16.773438 -12.054688 16.097656 -11.765625 15.296875 -11.765625 Z M 41.90625 -6.59375 C 41.175781 -6.59375 40.515625 -6.882812 39.921875 -7.46875 C 39.335938 -8.0625 39.046875 -8.722656 39.046875 -9.453125 C 39.046875 -10.265625 39.335938 -10.941406 39.921875 -11.484375 C 40.515625 -12.035156 41.175781 -12.3125 41.90625 -12.3125 C 42.71875 -12.3125 43.394531 -12.035156 43.9375 -11.484375 C 44.488281 -10.941406 44.765625 -10.265625 44.765625 -9.453125 C 44.765625 -8.722656 44.488281 -8.0625 43.9375 -7.46875 C 43.394531 -6.882812 42.71875 -6.59375 41.90625 -6.59375 Z M 23.4375 -6.59375 C 22.695312 -6.59375 22.03125 -6.882812 21.4375 -7.46875 C 20.851562 -8.0625 20.5625 -8.722656 20.5625 -9.453125 C 20.5625 -10.265625 20.851562 -10.941406 21.4375 -11.484375 C 22.03125 -12.035156 22.695312 -12.3125 23.4375 -12.3125 C 24.238281 -12.3125 24.914062 -12.035156 25.46875 -11.484375 C 26.019531 -10.941406 26.296875 -10.265625 26.296875 -9.453125 C 26.296875 -8.722656 26.019531 -8.0625 25.46875 -7.46875 C 24.914062 -6.882812 24.238281 -6.59375 23.4375 -6.59375 Z M 32.671875 -4.625 C 31.929688 -4.625 31.269531 -4.914062 30.6875 -5.5 C 30.101562 -6.082031 29.8125 -6.742188 29.8125 -7.484375 C 29.8125 -8.285156 30.101562 -8.960938 30.6875 -9.515625 C 31.269531 -10.066406 31.929688 -10.34375 32.671875 -10.34375 C 33.472656 -10.34375 34.148438 -10.066406 34.703125 -9.515625 C 35.253906 -8.960938 35.53125 -8.285156 35.53125 -7.484375 C 35.53125 -6.742188 35.253906 -6.082031 34.703125 -5.5 C 34.148438 -4.914062 33.472656 -4.625 32.671875 -4.625 Z M 32.671875 -4.625 "/>
</symbol>
<symbol overflow="visible" id="id2:glyph0-2">
<path style="stroke:none;" d="M -27.28125 -50.59375 L -26.515625 -60.171875 L -22.984375 -60.171875 C -18.515625 -60.171875 -15.179688 -60.425781 -12.984375 -60.9375 C -10.785156 -61.445312 -9.097656 -62.289062 -7.921875 -63.46875 C -6.015625 -65.226562 -5.0625 -67.832031 -5.0625 -71.28125 C -5.0625 -74.21875 -6.015625 -76.800781 -7.921875 -79.03125 C -9.828125 -81.269531 -12.648438 -82.390625 -16.390625 -82.390625 C -19.171875 -82.390625 -21.273438 -81.707031 -22.703125 -80.34375 C -24.140625 -78.988281 -24.859375 -77.320312 -24.859375 -75.34375 C -24.859375 -73.582031 -24.457031 -72.265625 -23.65625 -71.390625 L -23.65625 -71.609375 C -23.65625 -72.859375 -23.25 -73.90625 -22.4375 -74.75 C -21.632812 -75.59375 -20.535156 -76.015625 -19.140625 -76.015625 C -17.597656 -76.015625 -16.441406 -75.535156 -15.671875 -74.578125 C -14.898438 -73.628906 -14.515625 -72.53125 -14.515625 -71.28125 C -14.515625 -69.8125 -15.023438 -68.597656 -16.046875 -67.640625 C -17.078125 -66.691406 -18.546875 -66.21875 -20.453125 -66.21875 C -22.878906 -66.21875 -25.023438 -67.078125 -26.890625 -68.796875 C -28.765625 -70.523438 -29.703125 -73.003906 -29.703125 -76.234375 C -29.703125 -78.140625 -29.242188 -80.007812 -28.328125 -81.84375 C -27.410156 -83.675781 -25.941406 -85.210938 -23.921875 -86.453125 C -21.910156 -87.703125 -19.328125 -88.328125 -16.171875 -88.328125 C -12.796875 -88.328125 -9.894531 -87.425781 -7.46875 -85.625 C -5.050781 -83.832031 -3.203125 -81.523438 -1.921875 -78.703125 C -0.640625 -75.878906 0 -72.890625 0 -69.734375 C 0 -63.503906 -1.832031 -58.753906 -5.5 -55.484375 C -9.164062 -52.222656 -15.144531 -50.59375 -23.4375 -50.59375 Z M -27.28125 -50.59375 "/>
</symbol>
<symbol overflow="visible" id="id2:glyph0-3">
<path style="stroke:none;" d="M -11 48.625 C -15.695312 48.625 -19.726562 47.648438 -23.09375 45.703125 C -26.46875 43.765625 -29.050781 41.085938 -30.84375 37.671875 C -32.644531 34.265625 -33.546875 30.394531 -33.546875 26.0625 C -33.546875 20.488281 -32.316406 15.976562 -29.859375 12.53125 C -27.410156 9.09375 -23.945312 7.375 -19.46875 7.375 C -16.019531 7.375 -13.394531 8.5625 -11.59375 10.9375 C -9.800781 13.320312 -8.90625 16.128906 -8.90625 19.359375 C -8.90625 22.953125 -9.800781 25.828125 -11.59375 27.984375 C -13.394531 30.148438 -15.984375 31.234375 -19.359375 31.234375 C -21.847656 31.234375 -23.972656 30.570312 -25.734375 29.25 C -27.492188 27.9375 -28.707031 26.144531 -29.375 23.875 C -29.375 24.238281 -29.375 24.675781 -29.375 25.1875 C -29.375 29.21875 -27.773438 32.625 -24.578125 35.40625 C -21.390625 38.195312 -17.007812 39.59375 -11.4375 39.59375 C -6.226562 39.59375 -2.050781 38.160156 1.09375 35.296875 C 4.25 32.441406 5.828125 28.742188 5.828125 24.203125 C 5.828125 21.117188 5.128906 18.441406 3.734375 16.171875 C 2.347656 13.898438 0.148438 12.175781 -2.859375 11 L -2.640625 8.359375 C -0.441406 6.378906 1.113281 4.671875 2.03125 3.234375 C 2.945312 1.804688 3.40625 0.289062 3.40625 -1.3125 C 3.40625 -3.375 2.65625 -4.953125 1.15625 -6.046875 C -0.34375 -7.148438 -2.488281 -7.703125 -5.28125 -7.703125 C -5.0625 -9.242188 -4.34375 -10.488281 -3.125 -11.4375 C -1.914062 -12.394531 -0.285156 -12.875 1.765625 -12.875 C 4.472656 -12.875 6.5625 -12.007812 8.03125 -10.28125 C 9.5 -8.5625 10.234375 -6.53125 10.234375 -4.1875 C 10.234375 -1.394531 9.585938 1.023438 8.296875 3.078125 C 7.015625 5.128906 5.203125 7.253906 2.859375 9.453125 C 5.648438 11.066406 7.773438 13.320312 9.234375 16.21875 C 10.703125 19.113281 11.4375 22.359375 11.4375 25.953125 C 11.4375 30.210938 10.484375 34.066406 8.578125 37.515625 C 6.671875 40.960938 4.03125 43.675781 0.65625 45.65625 C -2.71875 47.632812 -6.601562 48.625 -11 48.625 Z M -19.6875 24.203125 C -15.21875 24.203125 -12.984375 22.585938 -12.984375 19.359375 C -12.984375 16.054688 -15.179688 14.40625 -19.578125 14.40625 C -24.054688 14.40625 -26.296875 16.054688 -26.296875 19.359375 C -26.296875 22.585938 -24.09375 24.203125 -19.6875 24.203125 Z M -19.6875 24.203125 "/>
</symbol>
</g>
</defs>
  <g id="id0:id0" transform="matrix(1.25,0,0,1.25,0.0,0.0)"><g id="id0:surface1">
<g style="fill:rgb(0%,0%,0%);fill-opacity:1;">
  <use xlink:href="#id0:glyph0-1" x="16" y="102.09375"/>
  <use xlink:href="#id0:glyph0-2" x="81.34375" y="102.09375"/>
  <use xlink:href="#id0:glyph0-3" x="81.34375" y="102.09375"/>
</g>
</g>
</g>
  <g id="id1:id1" transform="matrix(1.25,0,0,1.25,121.6796875,13.1640625)"><g id="id1:surface1">
<g style="fill:rgb(0%,0%,0%);fill-opacity:1;">
  <use xlink:href="#id1:glyph0-1" x="0" y="120.84375"/>
</g>
</g>
</g>
  <g id="id2:id2" transform="matrix(1.25,0,0,1.25,254.27734375,0.0)"><g id="id2:surface1">
<g style="fill:rgb(0%,0%,0%);fill-opacity:1;">
  <use xlink:href="#id2:glyph0-1" x="16" y="102.09375"/>
  <use xlink:href="#id2:glyph0-2" x="81.34375" y="102.09375"/>
  <use xlink:href="#id2:glyph0-1" x="81.34375" y="102.09375"/>
  <use xlink:href="#id2:glyph0-3" x="146.6875" y="102.09375"/>
</g>
</g>
</g>
</svg>
