<?xml version="1.0" standalone="no"?>
<!DOCTYPE svg PUBLIC "-//W3C//DTD SVG 1.1//EN"
 "http://www.w3.org/Graphics/SVG/1.1/DTD/svg11.dtd">
<!-- Created with svg_stack (http://github.com/astraw/svg_stack) -->
<svg xmlns="http://www.w3.org/2000/svg" xmlns:sodipodi="http://sodipodi.sourceforge.net/DTD/sodipodi-0.dtd" xmlns:xlink="http://www.w3.org/1999/xlink" version="1.1" width="546.4453125" height="227.734375">
  <defs><g>
<symbol overflow="visible" id="id0:glyph0-0">
<path style="stroke:none;" d="M 10.453125 0 L 10.453125 -78.546875 L 55.65625 -78.546875 L 55.65625 0 Z M 16.0625 -5.609375 L 50.046875 -5.609375 L 50.046875 -72.9375 L 16.0625 -72.9375 Z M 16.0625 -5.609375 "/>
</symbol>
<symbol overflow="visible" id="id0:glyph0-1">
<path style="stroke:none;" d="M 22.546875 1.203125 C 17.859375 1.203125 13.914062 -0.242188 10.71875 -3.140625 C 7.53125 -6.035156 5.9375 -9.972656 5.9375 -14.953125 C 5.9375 -19.066406 7.054688 -22.5 9.296875 -25.25 C 11.535156 -28 14.375 -30.03125 17.8125 -31.34375 C 14.375 -32.664062 11.625 -34.554688 9.5625 -37.015625 C 7.507812 -39.472656 6.484375 -42.460938 6.484375 -45.984375 C 6.484375 -48.984375 7.253906 -51.640625 8.796875 -53.953125 C 10.335938 -56.265625 12.445312 -58.078125 15.125 -59.390625 C 17.800781 -60.710938 20.828125 -61.375 24.203125 -61.375 C 29.109375 -61.375 33.226562 -60.070312 36.5625 -57.46875 C 39.90625 -54.863281 42.3125 -51.546875 43.78125 -47.515625 C 45.539062 -51.398438 48.125 -54.679688 51.53125 -57.359375 C 54.945312 -60.035156 59.144531 -61.375 64.125 -61.375 C 69.1875 -61.375 73.441406 -59.925781 76.890625 -57.03125 C 80.335938 -54.132812 82.941406 -50.300781 84.703125 -45.53125 C 86.460938 -40.769531 87.34375 -35.492188 87.34375 -29.703125 C 87.34375 -23.609375 86.5 -18.234375 84.8125 -13.578125 C 83.125 -8.921875 80.664062 -5.289062 77.4375 -2.6875 C 74.207031 -0.09375 70.210938 1.203125 65.453125 1.203125 C 61.640625 1.203125 58.320312 0.378906 55.5 -1.265625 C 52.675781 -2.910156 50.492188 -5.144531 48.953125 -7.96875 C 47.410156 -10.789062 46.640625 -13.925781 46.640625 -17.375 C 46.640625 -22.363281 47.941406 -26.429688 50.546875 -29.578125 C 53.148438 -32.734375 56.539062 -34.3125 60.71875 -34.3125 C 64.164062 -34.3125 66.769531 -33.265625 68.53125 -31.171875 C 70.289062 -29.085938 71.535156 -26.691406 72.265625 -23.984375 L 69.1875 -22.328125 C 68.3125 -23.648438 67.15625 -24.734375 65.71875 -25.578125 C 64.289062 -26.421875 62.515625 -26.84375 60.390625 -26.84375 C 57.671875 -26.84375 55.523438 -26.070312 53.953125 -24.53125 C 52.378906 -22.988281 51.59375 -20.9375 51.59375 -18.375 C 51.59375 -15.4375 52.726562 -13.160156 55 -11.546875 C 57.269531 -9.929688 60.203125 -9.125 63.796875 -9.125 C 66.953125 -9.125 69.882812 -9.929688 72.59375 -11.546875 C 75.3125 -13.160156 77.492188 -15.503906 79.140625 -18.578125 C 80.796875 -21.660156 81.625 -25.441406 81.625 -29.921875 C 81.625 -33.953125 80.925781 -37.597656 79.53125 -40.859375 C 78.132812 -44.128906 76.078125 -46.71875 73.359375 -48.625 C 70.648438 -50.53125 67.28125 -51.484375 63.25 -51.484375 C 59 -51.484375 55.367188 -50.546875 52.359375 -48.671875 C 49.347656 -46.804688 47.1875 -44.113281 45.875 -40.59375 L 41.6875 -40.59375 C 40.738281 -43.894531 39.085938 -46.535156 36.734375 -48.515625 C 34.390625 -50.492188 31.203125 -51.484375 27.171875 -51.484375 C 23.578125 -51.484375 20.734375 -50.675781 18.640625 -49.0625 C 16.554688 -47.445312 15.515625 -45.242188 15.515625 -42.453125 C 15.515625 -39.671875 16.628906 -37.523438 18.859375 -36.015625 C 21.097656 -34.515625 23.941406 -33.765625 27.390625 -33.765625 L 27.390625 -28.375 C 23.941406 -28.375 21.003906 -27.472656 18.578125 -25.671875 C 16.160156 -23.878906 14.953125 -21.375 14.953125 -18.15625 C 14.953125 -15.21875 15.867188 -12.941406 17.703125 -11.328125 C 19.535156 -9.710938 21.921875 -8.90625 24.859375 -8.90625 C 27.421875 -8.90625 29.710938 -9.363281 31.734375 -10.28125 C 33.753906 -11.195312 35.53125 -12.351562 37.0625 -13.75 L 40.59375 -10.78125 C 38.46875 -7.1875 35.972656 -4.289062 33.109375 -2.09375 C 30.242188 0.101562 26.722656 1.203125 22.546875 1.203125 Z M 22.546875 1.203125 "/>
</symbol>
<symbol overflow="visible" id="id0:glyph0-2">
<path style="stroke:none;" d="M 27.0625 -25.1875 C 21.632812 -25.1875 17.359375 -26.765625 14.234375 -29.921875 C 11.117188 -33.078125 9.5625 -37.21875 9.5625 -42.34375 C 9.5625 -47.039062 10.863281 -50.726562 13.46875 -53.40625 C 16.070312 -56.082031 19.0625 -57.421875 22.4375 -57.421875 C 24.851562 -57.421875 26.6875 -56.757812 27.9375 -55.4375 C 29.1875 -54.113281 29.8125 -52.390625 29.8125 -50.265625 C 29.8125 -48.429688 29.28125 -46.925781 28.21875 -45.75 C 27.15625 -44.582031 25.671875 -44 23.765625 -44 C 22.078125 -44 20.660156 -44.53125 19.515625 -45.59375 C 18.378906 -46.65625 17.8125 -48.101562 17.8125 -49.9375 L 17.8125 -50.375 C 15.539062 -48.539062 14.40625 -46.015625 14.40625 -42.796875 C 14.40625 -39.929688 15.410156 -37.65625 17.421875 -35.96875 C 19.441406 -34.28125 22.363281 -33.4375 26.1875 -33.4375 C 31.09375 -33.4375 34.9375 -35.210938 37.71875 -38.765625 C 40.507812 -42.328125 41.90625 -47.257812 41.90625 -53.5625 C 41.90625 -57.75 41.207031 -61.472656 39.8125 -64.734375 C 38.425781 -67.992188 36.300781 -70.648438 33.4375 -72.703125 C 32.039062 -73.734375 30.519531 -74.578125 28.875 -75.234375 C 27.226562 -75.898438 25.117188 -76.414062 22.546875 -76.78125 C 19.984375 -77.144531 16.6875 -77.328125 12.65625 -77.328125 L 5.609375 -77.328125 C 6.566406 -75.566406 7.316406 -73.734375 7.859375 -71.828125 C 8.410156 -69.921875 8.6875 -67.976562 8.6875 -66 C 8.6875 -64.09375 8.410156 -62.203125 7.859375 -60.328125 C 7.316406 -58.460938 6.3125 -56.796875 4.84375 -55.328125 C 3.59375 -54.078125 1.867188 -52.972656 -0.328125 -52.015625 C -2.523438 -51.066406 -5.789062 -50.59375 -10.125 -50.59375 L -23.09375 -50.59375 L -22.328125 -60.171875 L -10.234375 -60.171875 C -6.859375 -60.171875 -4.414062 -60.351562 -2.90625 -60.71875 C -1.40625 -61.082031 -0.179688 -61.742188 0.765625 -62.703125 C 2.160156 -64.097656 2.859375 -66.113281 2.859375 -68.75 C 2.859375 -71.6875 2.015625 -74.546875 0.328125 -77.328125 L -22.875 -77.328125 L -22.109375 -86.796875 L 13.640625 -86.796875 C 18.484375 -86.796875 22.5 -86.460938 25.6875 -85.796875 C 28.875 -85.140625 31.546875 -84.113281 33.703125 -82.71875 C 35.867188 -81.320312 37.867188 -79.5625 39.703125 -77.4375 C 42.128906 -74.582031 43.960938 -71.191406 45.203125 -67.265625 C 46.453125 -63.335938 47.078125 -58.8125 47.078125 -53.6875 C 47.078125 -48.40625 46.34375 -43.617188 44.875 -39.328125 C 43.414062 -35.035156 41.195312 -31.601562 38.21875 -29.03125 C 35.25 -26.46875 31.53125 -25.1875 27.0625 -25.1875 Z M 27.0625 -25.1875 "/>
</symbol>
</g>
<g>
<symbol overflow="visible" id="id1:glyph0-0">
<path style="stroke:none;" d="M 5.375 -96.6875 L 69.828125 -96.6875 L 69.828125 0 L 5.375 0 Z M 8.0625 -2.6875 L 67.140625 -2.6875 L 67.140625 -94 L 8.0625 -94 Z M 8.0625 -2.6875 "/>
</symbol>
<symbol overflow="visible" id="id1:glyph0-1">
<path style="stroke:none;" d="M 68.15625 -13.75 L 66.28125 -18.640625 L 88.09375 -27.390625 L 6.984375 -27.390625 L 6.984375 -34 L 88.09375 -34 L 66.28125 -42.75 L 68.15625 -47.640625 L 99.09375 -34.265625 L 99.09375 -27.125 Z M 68.15625 -13.75 "/>
</symbol>
</g>
<g>
<symbol overflow="visible" id="id2:glyph0-0">
<path style="stroke:none;" d="M 10.453125 0 L 10.453125 -78.546875 L 55.65625 -78.546875 L 55.65625 0 Z M 16.0625 -5.609375 L 50.046875 -5.609375 L 50.046875 -72.9375 L 16.0625 -72.9375 Z M 16.0625 -5.609375 "/>
</symbol>
<symbol overflow="visible" id="id2:glyph0-1">
<path style="stroke:none;" d="M 9.125 -50.59375 L 9.796875 -60.171875 L 64.453125 -60.171875 C 67.828125 -60.171875 70.265625 -60.351562 71.765625 -60.71875 C 73.273438 -61.082031 74.503906 -61.742188 75.453125 -62.703125 C 76.847656 -64.097656 77.546875 -66.113281 77.546875 -68.75 C 77.546875 -71.6875 76.703125 -74.546875 75.015625 -77.328125 L 51.8125 -77.328125 L 52.578125 -86.796875 L 88.328125 -86.796875 C 93.171875 -86.796875 97.1875 -86.460938 100.375 -85.796875 C 103.5625 -85.140625 106.253906 -84.113281 108.453125 -82.71875 C 110.660156 -81.320312 112.644531 -79.5625 114.40625 -77.4375 C 116.820312 -74.582031 118.648438 -71.191406 119.890625 -67.265625 C 121.140625 -63.335938 121.765625 -58.8125 121.765625 -53.6875 C 121.765625 -48.40625 121.03125 -43.617188 119.5625 -39.328125 C 118.101562 -35.035156 115.882812 -31.601562 112.90625 -29.03125 C 109.9375 -26.46875 106.21875 -25.1875 101.75 -25.1875 C 96.320312 -25.1875 92.050781 -26.765625 88.9375 -29.921875 C 85.820312 -33.078125 84.265625 -37.21875 84.265625 -42.34375 C 84.265625 -47.039062 85.5625 -50.726562 88.15625 -53.40625 C 90.757812 -56.082031 93.75 -57.421875 97.125 -57.421875 C 99.550781 -57.421875 101.382812 -56.757812 102.625 -55.4375 C 103.875 -54.113281 104.5 -52.390625 104.5 -50.265625 C 104.5 -48.429688 103.96875 -46.925781 102.90625 -45.75 C 101.84375 -44.582031 100.359375 -44 98.453125 -44 C 96.765625 -44 95.351562 -44.53125 94.21875 -45.59375 C 93.082031 -46.65625 92.515625 -48.101562 92.515625 -49.9375 L 92.515625 -50.375 C 90.234375 -48.539062 89.09375 -46.015625 89.09375 -42.796875 C 89.09375 -39.929688 90.101562 -37.65625 92.125 -35.96875 C 94.144531 -34.28125 97.0625 -33.4375 100.875 -33.4375 C 105.78125 -33.4375 109.625 -35.210938 112.40625 -38.765625 C 115.195312 -42.328125 116.59375 -47.257812 116.59375 -53.5625 C 116.59375 -57.75 115.894531 -61.472656 114.5 -64.734375 C 113.113281 -67.992188 110.988281 -70.648438 108.125 -72.703125 C 106.738281 -73.734375 105.21875 -74.578125 103.5625 -75.234375 C 101.914062 -75.898438 99.804688 -76.414062 97.234375 -76.78125 C 94.671875 -77.144531 91.375 -77.328125 87.34375 -77.328125 L 80.296875 -77.328125 C 81.253906 -75.566406 82.003906 -73.734375 82.546875 -71.828125 C 83.097656 -69.921875 83.375 -67.976562 83.375 -66 C 83.375 -64.09375 83.097656 -62.203125 82.546875 -60.328125 C 82.003906 -58.460938 81 -56.796875 79.53125 -55.328125 C 78.28125 -54.078125 76.554688 -52.972656 74.359375 -52.015625 C 72.160156 -51.066406 68.894531 -50.59375 64.5625 -50.59375 Z M 19.796875 1.203125 C 15.835938 1.203125 12.535156 0.101562 9.890625 -2.09375 C 7.253906 -4.289062 5.9375 -7.222656 5.9375 -10.890625 C 5.9375 -13.753906 6.832031 -16.210938 8.625 -18.265625 C 10.425781 -20.316406 12.757812 -21.851562 15.625 -22.875 C 12.832031 -23.90625 10.59375 -25.390625 8.90625 -27.328125 C 7.21875 -29.273438 6.375 -31.601562 6.375 -34.3125 C 6.375 -37.6875 7.691406 -40.398438 10.328125 -42.453125 C 12.972656 -44.515625 16.425781 -45.546875 20.6875 -45.546875 C 24.9375 -45.546875 28.546875 -44.550781 31.515625 -42.5625 C 34.484375 -40.582031 36.628906 -38.019531 37.953125 -34.875 C 39.191406 -38.019531 41.332031 -40.582031 44.375 -42.5625 C 47.425781 -44.550781 50.96875 -45.546875 55 -45.546875 C 59.320312 -45.546875 62.910156 -44.460938 65.765625 -42.296875 C 68.628906 -40.128906 70.796875 -37.25 72.265625 -33.65625 C 73.734375 -30.0625 74.46875 -26.066406 74.46875 -21.671875 C 74.46875 -14.921875 72.945312 -9.421875 69.90625 -5.171875 C 66.863281 -0.921875 62.410156 1.203125 56.546875 1.203125 C 51.628906 1.203125 47.847656 -0.171875 45.203125 -2.921875 C 42.566406 -5.671875 41.25 -9.0625 41.25 -13.09375 C 41.25 -16.832031 42.3125 -19.890625 44.4375 -22.265625 C 46.5625 -24.648438 49.382812 -25.84375 52.90625 -25.84375 C 55.84375 -25.84375 58.082031 -24.984375 59.625 -23.265625 C 61.164062 -21.546875 62.15625 -19.507812 62.59375 -17.15625 L 59.734375 -15.625 C 58.992188 -16.5 58.070312 -17.25 56.96875 -17.875 C 55.875 -18.5 54.484375 -18.8125 52.796875 -18.8125 C 50.742188 -18.8125 49.128906 -18.332031 47.953125 -17.375 C 46.785156 -16.425781 46.203125 -15.21875 46.203125 -13.75 C 46.203125 -11.914062 47.0625 -10.519531 48.78125 -9.5625 C 50.507812 -8.613281 52.726562 -8.140625 55.4375 -8.140625 C 59.03125 -8.140625 62.179688 -9.3125 64.890625 -11.65625 C 67.609375 -14.007812 68.96875 -17.421875 68.96875 -21.890625 C 68.96875 -25.992188 67.703125 -29.4375 65.171875 -32.21875 C 62.640625 -35.007812 58.957031 -36.40625 54.125 -36.40625 C 50.164062 -36.40625 47.066406 -35.707031 44.828125 -34.3125 C 42.585938 -32.925781 40.957031 -31.09375 39.9375 -28.8125 L 35.96875 -28.8125 C 35.238281 -31.09375 33.863281 -32.925781 31.84375 -34.3125 C 29.820312 -35.707031 27.128906 -36.40625 23.765625 -36.40625 C 21.117188 -36.40625 19.023438 -35.890625 17.484375 -34.859375 C 15.953125 -33.835938 15.1875 -32.445312 15.1875 -30.6875 C 15.1875 -28.851562 16.007812 -27.476562 17.65625 -26.5625 C 19.300781 -25.644531 21.410156 -25.1875 23.984375 -25.1875 L 23.984375 -20.015625 C 21.410156 -20.015625 19.207031 -19.460938 17.375 -18.359375 C 15.539062 -17.265625 14.625 -15.726562 14.625 -13.75 C 14.625 -11.988281 15.335938 -10.613281 16.765625 -9.625 C 18.203125 -8.632812 20.164062 -8.140625 22.65625 -8.140625 C 24.78125 -8.140625 26.628906 -8.503906 28.203125 -9.234375 C 29.785156 -9.972656 31.164062 -10.816406 32.34375 -11.765625 L 35.3125 -8.90625 C 33.550781 -5.976562 31.492188 -3.5625 29.140625 -1.65625 C 26.796875 0.25 23.679688 1.203125 19.796875 1.203125 Z M 19.796875 1.203125 "/>
</symbol>
</g>
</defs>
  <g id="id0:id0" transform="matrix(1.25,0,0,1.25,0.0,0.0)"><g id="id0:surface1">
<g style="fill:rgb(0%,0%,0%);fill-opacity:1;">
  <use xlink:href="#id0:glyph0-1" x="16" y="102.09375"/>
  <use xlink:href="#id0:glyph0-2" x="109.0625" y="102.09375"/>
</g>
</g>
</g>
  <g id="id1:id1" transform="matrix(1.25,0,0,1.25,218.33984375,13.1640625)"><g id="id1:surface1">
<g style="fill:rgb(0%,0%,0%);fill-opacity:1;">
  <use xlink:href="#id1:glyph0-1" x="0" y="120.84375"/>
</g>
</g>
</g>
  <g id="id2:id2" transform="matrix(1.25,0,0,1.25,350.9375,0.0)"><g id="id2:surface1">
<g style="fill:rgb(0%,0%,0%);fill-opacity:1;">
  <use xlink:href="#id2:glyph0-1" x="16" y="102.09375"/>
</g>
</g>
</g>
</svg>
