<?xml version="1.0" standalone="no"?>
<!DOCTYPE svg PUBLIC "-//W3C//DTD SVG 1.1//EN"
 "http://www.w3.org/Graphics/SVG/1.1/DTD/svg11.dtd">
<!-- Created with svg_stack (http://github.com/astraw/svg_stack) -->
<svg xmlns="http://www.w3.org/2000/svg" xmlns:sodipodi="http://sodipodi.sourceforge.net/DTD/sodipodi-0.dtd" xmlns:xlink="http://www.w3.org/1999/xlink" version="1.1" width="518.06640625" height="227.734375">
  <defs><g>
<symbol overflow="visible" id="id0:glyph0-0">
<path style="stroke:none;" d="M 10.453125 0 L 10.453125 -78.546875 L 55.65625 -78.546875 L 55.65625 0 Z M 16.0625 -5.609375 L 50.046875 -5.609375 L 50.046875 -72.9375 L 16.0625 -72.9375 Z M 16.0625 -5.609375 "/>
</symbol>
<symbol overflow="visible" id="id0:glyph0-1">
<path style="stroke:none;" d="M 6.484375 -50.59375 L 7.15625 -60.171875 L 54.78125 -60.171875 C 58.445312 -60.171875 61.160156 -60.367188 62.921875 -60.765625 C 64.679688 -61.171875 66.070312 -61.816406 67.09375 -62.703125 C 68.78125 -64.023438 69.625 -66.148438 69.625 -69.078125 C 69.625 -73.328125 67.609375 -77.582031 63.578125 -81.84375 L 67.546875 -84.8125 C 70.035156 -82.164062 71.957031 -79.300781 73.3125 -76.21875 C 74.664062 -73.144531 75.34375 -69.921875 75.34375 -66.546875 C 75.34375 -64.566406 75.101562 -62.585938 74.625 -60.609375 C 74.15625 -58.628906 73.078125 -56.867188 71.390625 -55.328125 C 70.429688 -54.453125 69.289062 -53.644531 67.96875 -52.90625 C 66.65625 -52.175781 64.9375 -51.609375 62.8125 -51.203125 C 60.6875 -50.796875 57.863281 -50.59375 54.34375 -50.59375 Z M 41.90625 -33.4375 C 40.070312 -33.4375 38.566406 -34.019531 37.390625 -35.1875 C 36.222656 -36.363281 35.640625 -37.832031 35.640625 -39.59375 C 35.640625 -41.351562 36.222656 -42.820312 37.390625 -44 C 38.566406 -45.175781 40.070312 -45.765625 41.90625 -45.765625 C 43.8125 -45.765625 45.332031 -45.175781 46.46875 -44 C 47.613281 -42.820312 48.1875 -41.351562 48.1875 -39.59375 C 48.1875 -37.832031 47.613281 -36.363281 46.46875 -35.1875 C 45.332031 -34.019531 43.8125 -33.4375 41.90625 -33.4375 Z M 23.3125 1.203125 C 19.5 1.203125 16.289062 0.285156 13.6875 -1.546875 C 11.09375 -3.378906 9.148438 -5.796875 7.859375 -8.796875 C 6.578125 -11.804688 5.9375 -15.035156 5.9375 -18.484375 C 5.9375 -23.171875 7.203125 -27.109375 9.734375 -30.296875 C 12.265625 -33.492188 15.726562 -35.09375 20.125 -35.09375 C 23.570312 -35.09375 26.226562 -34.15625 28.09375 -32.28125 C 29.96875 -30.414062 30.90625 -28.050781 30.90625 -25.1875 C 30.90625 -22.40625 30.023438 -20.207031 28.265625 -18.59375 C 26.503906 -16.976562 24.050781 -15.953125 20.90625 -15.515625 L 20.234375 -19.578125 C 22.878906 -20.160156 24.203125 -21.664062 24.203125 -24.09375 C 24.203125 -25.40625 23.757812 -26.484375 22.875 -27.328125 C 22 -28.171875 20.644531 -28.59375 18.8125 -28.59375 C 16.394531 -28.59375 14.46875 -27.804688 13.03125 -26.234375 C 11.601562 -24.660156 10.890625 -22.585938 10.890625 -20.015625 C 10.890625 -16.421875 12.0625 -13.722656 14.40625 -11.921875 C 16.757812 -10.128906 20.132812 -9.234375 24.53125 -9.234375 C 32.375 -9.234375 37.46875 -13.488281 39.8125 -22 L 43.5625 -22 C 44.65625 -18.332031 46.25 -15.285156 48.34375 -12.859375 C 50.4375 -10.441406 53.71875 -9.234375 58.1875 -9.234375 C 62.289062 -9.234375 65.316406 -10.535156 67.265625 -13.140625 C 69.210938 -15.742188 70.1875 -19.023438 70.1875 -22.984375 C 70.1875 -27.316406 69.226562 -30.984375 67.3125 -33.984375 C 65.40625 -36.992188 63.28125 -39.597656 60.9375 -41.796875 C 61.300781 -42.898438 61.867188 -43.816406 62.640625 -44.546875 C 63.410156 -45.285156 64.3125 -45.65625 65.34375 -45.65625 C 67.101562 -45.65625 68.734375 -44.625 70.234375 -42.5625 C 71.734375 -40.507812 72.957031 -37.757812 73.90625 -34.3125 C 74.863281 -30.875 75.34375 -27.0625 75.34375 -22.875 C 75.34375 -20.382812 75.101562 -17.742188 74.625 -14.953125 C 74.15625 -12.171875 73.316406 -9.550781 72.109375 -7.09375 C 70.898438 -4.632812 69.210938 -2.632812 67.046875 -1.09375 C 64.878906 0.4375 62.109375 1.203125 58.734375 1.203125 C 54.191406 1.203125 50.507812 -0.171875 47.6875 -2.921875 C 44.863281 -5.671875 42.753906 -9.242188 41.359375 -13.640625 C 39.890625 -9.171875 37.78125 -5.578125 35.03125 -2.859375 C 32.28125 -0.148438 28.375 1.203125 23.3125 1.203125 Z M 41.46875 21.5625 C 39.78125 21.5625 38.457031 21.226562 37.5 20.5625 C 36.550781 19.90625 36.078125 18.769531 36.078125 17.15625 C 36.078125 16.0625 36.257812 14.578125 36.625 12.703125 C 37 10.835938 37.492188 8.859375 38.109375 6.765625 C 38.734375 4.671875 39.34375 2.742188 39.9375 0.984375 L 43.015625 0.984375 C 43.597656 2.671875 44.179688 4.539062 44.765625 6.59375 C 45.359375 8.65625 45.835938 10.617188 46.203125 12.484375 C 46.566406 14.359375 46.75 15.914062 46.75 17.15625 C 46.75 18.769531 46.289062 19.90625 45.375 20.5625 C 44.457031 21.226562 43.15625 21.5625 41.46875 21.5625 Z M 41.46875 21.5625 "/>
</symbol>
<symbol overflow="visible" id="id0:glyph0-2">
<path style="stroke:none;" d="M 32.671875 -53.6875 C 31.929688 -53.6875 31.269531 -53.976562 30.6875 -54.5625 C 30.101562 -55.144531 29.8125 -55.804688 29.8125 -56.546875 C 29.8125 -57.347656 30.101562 -58.023438 30.6875 -58.578125 C 31.269531 -59.128906 31.929688 -59.40625 32.671875 -59.40625 C 33.472656 -59.40625 34.148438 -59.128906 34.703125 -58.578125 C 35.253906 -58.023438 35.53125 -57.347656 35.53125 -56.546875 C 35.53125 -55.804688 35.253906 -55.144531 34.703125 -54.5625 C 34.148438 -53.976562 33.472656 -53.6875 32.671875 -53.6875 Z M 41.90625 -51.703125 C 41.175781 -51.703125 40.515625 -51.992188 39.921875 -52.578125 C 39.335938 -53.160156 39.046875 -53.820312 39.046875 -54.5625 C 39.046875 -55.363281 39.335938 -56.039062 39.921875 -56.59375 C 40.515625 -57.144531 41.175781 -57.421875 41.90625 -57.421875 C 42.71875 -57.421875 43.394531 -57.144531 43.9375 -56.59375 C 44.488281 -56.039062 44.765625 -55.363281 44.765625 -54.5625 C 44.765625 -53.820312 44.488281 -53.160156 43.9375 -52.578125 C 43.394531 -51.992188 42.71875 -51.703125 41.90625 -51.703125 Z M 23.4375 -51.703125 C 22.695312 -51.703125 22.03125 -51.992188 21.4375 -52.578125 C 20.851562 -53.160156 20.5625 -53.820312 20.5625 -54.5625 C 20.5625 -55.363281 20.851562 -56.039062 21.4375 -56.59375 C 22.03125 -57.144531 22.695312 -57.421875 23.4375 -57.421875 C 24.238281 -57.421875 24.914062 -57.144531 25.46875 -56.59375 C 26.019531 -56.039062 26.296875 -55.363281 26.296875 -54.5625 C 26.296875 -53.820312 26.019531 -53.160156 25.46875 -52.578125 C 24.914062 -51.992188 24.238281 -51.703125 23.4375 -51.703125 Z M 50.046875 -46.53125 C 49.316406 -46.53125 48.65625 -46.820312 48.0625 -47.40625 C 47.476562 -48 47.1875 -48.660156 47.1875 -49.390625 C 47.1875 -50.191406 47.476562 -50.867188 48.0625 -51.421875 C 48.65625 -51.972656 49.316406 -52.25 50.046875 -52.25 C 50.859375 -52.25 51.535156 -51.972656 52.078125 -51.421875 C 52.628906 -50.867188 52.90625 -50.191406 52.90625 -49.390625 C 52.90625 -48.660156 52.628906 -48 52.078125 -47.40625 C 51.535156 -46.820312 50.859375 -46.53125 50.046875 -46.53125 Z M 15.296875 -46.53125 C 14.554688 -46.53125 13.894531 -46.820312 13.3125 -47.40625 C 12.726562 -48 12.4375 -48.660156 12.4375 -49.390625 C 12.4375 -50.191406 12.726562 -50.867188 13.3125 -51.421875 C 13.894531 -51.972656 14.554688 -52.25 15.296875 -52.25 C 16.097656 -52.25 16.773438 -51.972656 17.328125 -51.421875 C 17.878906 -50.867188 18.15625 -50.191406 18.15625 -49.390625 C 18.15625 -48.660156 17.878906 -48 17.328125 -47.40625 C 16.773438 -46.820312 16.097656 -46.53125 15.296875 -46.53125 Z M 55.21875 -38.390625 C 54.488281 -38.390625 53.828125 -38.679688 53.234375 -39.265625 C 52.648438 -39.859375 52.359375 -40.519531 52.359375 -41.25 C 52.359375 -42.050781 52.648438 -42.726562 53.234375 -43.28125 C 53.828125 -43.832031 54.488281 -44.109375 55.21875 -44.109375 C 56.03125 -44.109375 56.707031 -43.832031 57.25 -43.28125 C 57.800781 -42.726562 58.078125 -42.050781 58.078125 -41.25 C 58.078125 -40.519531 57.800781 -39.859375 57.25 -39.265625 C 56.707031 -38.679688 56.03125 -38.390625 55.21875 -38.390625 Z M 10.125 -38.390625 C 9.382812 -38.390625 8.722656 -38.679688 8.140625 -39.265625 C 7.554688 -39.859375 7.265625 -40.519531 7.265625 -41.25 C 7.265625 -42.050781 7.554688 -42.726562 8.140625 -43.28125 C 8.722656 -43.832031 9.382812 -44.109375 10.125 -44.109375 C 10.925781 -44.109375 11.601562 -43.832031 12.15625 -43.28125 C 12.707031 -42.726562 12.984375 -42.050781 12.984375 -41.25 C 12.984375 -40.519531 12.707031 -39.859375 12.15625 -39.265625 C 11.601562 -38.679688 10.925781 -38.390625 10.125 -38.390625 Z M 57.203125 -29.15625 C 56.460938 -29.15625 55.800781 -29.445312 55.21875 -30.03125 C 54.632812 -30.613281 54.34375 -31.273438 54.34375 -32.015625 C 54.34375 -32.816406 54.632812 -33.492188 55.21875 -34.046875 C 55.800781 -34.597656 56.460938 -34.875 57.203125 -34.875 C 58.003906 -34.875 58.679688 -34.597656 59.234375 -34.046875 C 59.785156 -33.492188 60.0625 -32.816406 60.0625 -32.015625 C 60.0625 -31.273438 59.785156 -30.613281 59.234375 -30.03125 C 58.679688 -29.445312 58.003906 -29.15625 57.203125 -29.15625 Z M 8.140625 -29.15625 C 7.410156 -29.15625 6.75 -29.445312 6.15625 -30.03125 C 5.570312 -30.613281 5.28125 -31.273438 5.28125 -32.015625 C 5.28125 -32.816406 5.570312 -33.492188 6.15625 -34.046875 C 6.75 -34.597656 7.410156 -34.875 8.140625 -34.875 C 8.941406 -34.875 9.617188 -34.597656 10.171875 -34.046875 C 10.722656 -33.492188 11 -32.816406 11 -32.015625 C 11 -31.273438 10.722656 -30.613281 10.171875 -30.03125 C 9.617188 -29.445312 8.941406 -29.15625 8.140625 -29.15625 Z M 55.21875 -19.90625 C 54.488281 -19.90625 53.828125 -20.195312 53.234375 -20.78125 C 52.648438 -21.375 52.359375 -22.035156 52.359375 -22.765625 C 52.359375 -23.578125 52.648438 -24.253906 53.234375 -24.796875 C 53.828125 -25.347656 54.488281 -25.625 55.21875 -25.625 C 56.03125 -25.625 56.707031 -25.347656 57.25 -24.796875 C 57.800781 -24.253906 58.078125 -23.578125 58.078125 -22.765625 C 58.078125 -22.035156 57.800781 -21.375 57.25 -20.78125 C 56.707031 -20.195312 56.03125 -19.90625 55.21875 -19.90625 Z M 10.125 -19.90625 C 9.382812 -19.90625 8.722656 -20.195312 8.140625 -20.78125 C 7.554688 -21.375 7.265625 -22.035156 7.265625 -22.765625 C 7.265625 -23.578125 7.554688 -24.253906 8.140625 -24.796875 C 8.722656 -25.347656 9.382812 -25.625 10.125 -25.625 C 10.925781 -25.625 11.601562 -25.347656 12.15625 -24.796875 C 12.707031 -24.253906 12.984375 -23.578125 12.984375 -22.765625 C 12.984375 -22.035156 12.707031 -21.375 12.15625 -20.78125 C 11.601562 -20.195312 10.925781 -19.90625 10.125 -19.90625 Z M 50.046875 -11.765625 C 49.316406 -11.765625 48.65625 -12.054688 48.0625 -12.640625 C 47.476562 -13.234375 47.1875 -13.894531 47.1875 -14.625 C 47.1875 -15.4375 47.476562 -16.113281 48.0625 -16.65625 C 48.65625 -17.207031 49.316406 -17.484375 50.046875 -17.484375 C 50.859375 -17.484375 51.535156 -17.207031 52.078125 -16.65625 C 52.628906 -16.113281 52.90625 -15.4375 52.90625 -14.625 C 52.90625 -13.894531 52.628906 -13.234375 52.078125 -12.640625 C 51.535156 -12.054688 50.859375 -11.765625 50.046875 -11.765625 Z M 15.296875 -11.765625 C 14.554688 -11.765625 13.894531 -12.054688 13.3125 -12.640625 C 12.726562 -13.234375 12.4375 -13.894531 12.4375 -14.625 C 12.4375 -15.4375 12.726562 -16.113281 13.3125 -16.65625 C 13.894531 -17.207031 14.554688 -17.484375 15.296875 -17.484375 C 16.097656 -17.484375 16.773438 -17.207031 17.328125 -16.65625 C 17.878906 -16.113281 18.15625 -15.4375 18.15625 -14.625 C 18.15625 -13.894531 17.878906 -13.234375 17.328125 -12.640625 C 16.773438 -12.054688 16.097656 -11.765625 15.296875 -11.765625 Z M 41.90625 -6.59375 C 41.175781 -6.59375 40.515625 -6.882812 39.921875 -7.46875 C 39.335938 -8.0625 39.046875 -8.722656 39.046875 -9.453125 C 39.046875 -10.265625 39.335938 -10.941406 39.921875 -11.484375 C 40.515625 -12.035156 41.175781 -12.3125 41.90625 -12.3125 C 42.71875 -12.3125 43.394531 -12.035156 43.9375 -11.484375 C 44.488281 -10.941406 44.765625 -10.265625 44.765625 -9.453125 C 44.765625 -8.722656 44.488281 -8.0625 43.9375 -7.46875 C 43.394531 -6.882812 42.71875 -6.59375 41.90625 -6.59375 Z M 23.4375 -6.59375 C 22.695312 -6.59375 22.03125 -6.882812 21.4375 -7.46875 C 20.851562 -8.0625 20.5625 -8.722656 20.5625 -9.453125 C 20.5625 -10.265625 20.851562 -10.941406 21.4375 -11.484375 C 22.03125 -12.035156 22.695312 -12.3125 23.4375 -12.3125 C 24.238281 -12.3125 24.914062 -12.035156 25.46875 -11.484375 C 26.019531 -10.941406 26.296875 -10.265625 26.296875 -9.453125 C 26.296875 -8.722656 26.019531 -8.0625 25.46875 -7.46875 C 24.914062 -6.882812 24.238281 -6.59375 23.4375 -6.59375 Z M 32.671875 -4.625 C 31.929688 -4.625 31.269531 -4.914062 30.6875 -5.5 C 30.101562 -6.082031 29.8125 -6.742188 29.8125 -7.484375 C 29.8125 -8.285156 30.101562 -8.960938 30.6875 -9.515625 C 31.269531 -10.066406 31.929688 -10.34375 32.671875 -10.34375 C 33.472656 -10.34375 34.148438 -10.066406 34.703125 -9.515625 C 35.253906 -8.960938 35.53125 -8.285156 35.53125 -7.484375 C 35.53125 -6.742188 35.253906 -6.082031 34.703125 -5.5 C 34.148438 -4.914062 33.472656 -4.625 32.671875 -4.625 Z M 32.671875 -4.625 "/>
</symbol>
<symbol overflow="visible" id="id0:glyph0-3">
<path style="stroke:none;" d="M -19.03125 18.375 C -20.425781 18.375 -21.632812 17.914062 -22.65625 17 C -23.6875 16.082031 -24.203125 14.851562 -24.203125 13.3125 C -24.203125 11.695312 -23.6875 10.445312 -22.65625 9.5625 C -21.632812 8.6875 -20.425781 8.25 -19.03125 8.25 C -17.632812 8.25 -16.457031 8.707031 -15.5 9.625 C -14.550781 10.539062 -14.078125 11.769531 -14.078125 13.3125 C -14.078125 14.925781 -14.570312 16.171875 -15.5625 17.046875 C -16.550781 17.929688 -17.707031 18.375 -19.03125 18.375 Z M -46.09375 18.375 C -47.488281 18.375 -48.695312 17.914062 -49.71875 17 C -50.75 16.082031 -51.265625 14.851562 -51.265625 13.3125 C -51.265625 11.695312 -50.75 10.445312 -49.71875 9.5625 C -48.695312 8.6875 -47.488281 8.25 -46.09375 8.25 C -44.695312 8.25 -43.519531 8.707031 -42.5625 9.625 C -41.613281 10.539062 -41.140625 11.769531 -41.140625 13.3125 C -41.140625 14.925781 -41.632812 16.171875 -42.625 17.046875 C -43.613281 17.929688 -44.769531 18.375 -46.09375 18.375 Z M -46.09375 18.375 "/>
</symbol>
</g>
<g>
<symbol overflow="visible" id="id1:glyph0-0">
<path style="stroke:none;" d="M 5.375 -96.6875 L 69.828125 -96.6875 L 69.828125 0 L 5.375 0 Z M 8.0625 -2.6875 L 67.140625 -2.6875 L 67.140625 -94 L 8.0625 -94 Z M 8.0625 -2.6875 "/>
</symbol>
<symbol overflow="visible" id="id1:glyph0-1">
<path style="stroke:none;" d="M 68.15625 -13.75 L 66.28125 -18.640625 L 88.09375 -27.390625 L 6.984375 -27.390625 L 6.984375 -34 L 88.09375 -34 L 66.28125 -42.75 L 68.15625 -47.640625 L 99.09375 -34.265625 L 99.09375 -27.125 Z M 68.15625 -13.75 "/>
</symbol>
</g>
<g>
<symbol overflow="visible" id="id2:glyph0-0">
<path style="stroke:none;" d="M 10.453125 0 L 10.453125 -78.546875 L 55.65625 -78.546875 L 55.65625 0 Z M 16.0625 -5.609375 L 50.046875 -5.609375 L 50.046875 -72.9375 L 16.0625 -72.9375 Z M 16.0625 -5.609375 "/>
</symbol>
<symbol overflow="visible" id="id2:glyph0-1">
<path style="stroke:none;" d="M 6.484375 -50.59375 L 7.15625 -60.171875 L 54.78125 -60.171875 C 58.445312 -60.171875 61.160156 -60.367188 62.921875 -60.765625 C 64.679688 -61.171875 66.070312 -61.816406 67.09375 -62.703125 C 68.78125 -64.023438 69.625 -66.148438 69.625 -69.078125 C 69.625 -73.328125 67.609375 -77.582031 63.578125 -81.84375 L 67.546875 -84.8125 C 70.035156 -82.164062 71.957031 -79.300781 73.3125 -76.21875 C 74.664062 -73.144531 75.34375 -69.921875 75.34375 -66.546875 C 75.34375 -64.566406 75.101562 -62.585938 74.625 -60.609375 C 74.15625 -58.628906 73.078125 -56.867188 71.390625 -55.328125 C 70.429688 -54.453125 69.289062 -53.644531 67.96875 -52.90625 C 66.65625 -52.175781 64.9375 -51.609375 62.8125 -51.203125 C 60.6875 -50.796875 57.863281 -50.59375 54.34375 -50.59375 Z M 41.90625 -33.4375 C 40.070312 -33.4375 38.566406 -34.019531 37.390625 -35.1875 C 36.222656 -36.363281 35.640625 -37.832031 35.640625 -39.59375 C 35.640625 -41.351562 36.222656 -42.820312 37.390625 -44 C 38.566406 -45.175781 40.070312 -45.765625 41.90625 -45.765625 C 43.8125 -45.765625 45.332031 -45.175781 46.46875 -44 C 47.613281 -42.820312 48.1875 -41.351562 48.1875 -39.59375 C 48.1875 -37.832031 47.613281 -36.363281 46.46875 -35.1875 C 45.332031 -34.019531 43.8125 -33.4375 41.90625 -33.4375 Z M 23.3125 1.203125 C 19.5 1.203125 16.289062 0.285156 13.6875 -1.546875 C 11.09375 -3.378906 9.148438 -5.796875 7.859375 -8.796875 C 6.578125 -11.804688 5.9375 -15.035156 5.9375 -18.484375 C 5.9375 -23.171875 7.203125 -27.109375 9.734375 -30.296875 C 12.265625 -33.492188 15.726562 -35.09375 20.125 -35.09375 C 23.570312 -35.09375 26.226562 -34.15625 28.09375 -32.28125 C 29.96875 -30.414062 30.90625 -28.050781 30.90625 -25.1875 C 30.90625 -22.40625 30.023438 -20.207031 28.265625 -18.59375 C 26.503906 -16.976562 24.050781 -15.953125 20.90625 -15.515625 L 20.234375 -19.578125 C 22.878906 -20.160156 24.203125 -21.664062 24.203125 -24.09375 C 24.203125 -25.40625 23.757812 -26.484375 22.875 -27.328125 C 22 -28.171875 20.644531 -28.59375 18.8125 -28.59375 C 16.394531 -28.59375 14.46875 -27.804688 13.03125 -26.234375 C 11.601562 -24.660156 10.890625 -22.585938 10.890625 -20.015625 C 10.890625 -16.421875 12.0625 -13.722656 14.40625 -11.921875 C 16.757812 -10.128906 20.132812 -9.234375 24.53125 -9.234375 C 32.375 -9.234375 37.46875 -13.488281 39.8125 -22 L 43.5625 -22 C 44.65625 -18.332031 46.25 -15.285156 48.34375 -12.859375 C 50.4375 -10.441406 53.71875 -9.234375 58.1875 -9.234375 C 62.289062 -9.234375 65.316406 -10.535156 67.265625 -13.140625 C 69.210938 -15.742188 70.1875 -19.023438 70.1875 -22.984375 C 70.1875 -27.316406 69.226562 -30.984375 67.3125 -33.984375 C 65.40625 -36.992188 63.28125 -39.597656 60.9375 -41.796875 C 61.300781 -42.898438 61.867188 -43.816406 62.640625 -44.546875 C 63.410156 -45.285156 64.3125 -45.65625 65.34375 -45.65625 C 67.101562 -45.65625 68.734375 -44.625 70.234375 -42.5625 C 71.734375 -40.507812 72.957031 -37.757812 73.90625 -34.3125 C 74.863281 -30.875 75.34375 -27.0625 75.34375 -22.875 C 75.34375 -20.382812 75.101562 -17.742188 74.625 -14.953125 C 74.15625 -12.171875 73.316406 -9.550781 72.109375 -7.09375 C 70.898438 -4.632812 69.210938 -2.632812 67.046875 -1.09375 C 64.878906 0.4375 62.109375 1.203125 58.734375 1.203125 C 54.191406 1.203125 50.507812 -0.171875 47.6875 -2.921875 C 44.863281 -5.671875 42.753906 -9.242188 41.359375 -13.640625 C 39.890625 -9.171875 37.78125 -5.578125 35.03125 -2.859375 C 32.28125 -0.148438 28.375 1.203125 23.3125 1.203125 Z M 41.46875 21.5625 C 39.78125 21.5625 38.457031 21.226562 37.5 20.5625 C 36.550781 19.90625 36.078125 18.769531 36.078125 17.15625 C 36.078125 16.0625 36.257812 14.578125 36.625 12.703125 C 37 10.835938 37.492188 8.859375 38.109375 6.765625 C 38.734375 4.671875 39.34375 2.742188 39.9375 0.984375 L 43.015625 0.984375 C 43.597656 2.671875 44.179688 4.539062 44.765625 6.59375 C 45.359375 8.65625 45.835938 10.617188 46.203125 12.484375 C 46.566406 14.359375 46.75 15.914062 46.75 17.15625 C 46.75 18.769531 46.289062 19.90625 45.375 20.5625 C 44.457031 21.226562 43.15625 21.5625 41.46875 21.5625 Z M 41.46875 21.5625 "/>
</symbol>
<symbol overflow="visible" id="id2:glyph0-2">
<path style="stroke:none;" d="M 19.140625 18.375 C 17.742188 18.375 16.53125 17.914062 15.5 17 C 14.476562 16.082031 13.96875 14.851562 13.96875 13.3125 C 13.96875 11.695312 14.476562 10.445312 15.5 9.5625 C 16.53125 8.6875 17.742188 8.25 19.140625 8.25 C 20.535156 8.25 21.726562 8.707031 22.71875 9.625 C 23.707031 10.539062 24.203125 11.769531 24.203125 13.3125 C 24.203125 14.925781 23.707031 16.171875 22.71875 17.046875 C 21.726562 17.929688 20.535156 18.375 19.140625 18.375 Z M -18.921875 18.375 C -20.316406 18.375 -21.546875 17.914062 -22.609375 17 C -23.671875 16.082031 -24.203125 14.851562 -24.203125 13.3125 C -24.203125 11.695312 -23.6875 10.445312 -22.65625 9.5625 C -21.632812 8.6875 -20.390625 8.25 -18.921875 8.25 C -17.523438 8.25 -16.332031 8.707031 -15.34375 9.625 C -14.351562 10.539062 -13.859375 11.769531 -13.859375 13.3125 C -13.859375 14.925781 -14.367188 16.171875 -15.390625 17.046875 C -16.421875 17.929688 -17.597656 18.375 -18.921875 18.375 Z M -18.921875 18.375 "/>
</symbol>
</g>
</defs>
  <g id="id0:id0" transform="matrix(1.25,0,0,1.25,0.0,0.0)"><g id="id0:surface1">
<g style="fill:rgb(0%,0%,0%);fill-opacity:1;">
  <use xlink:href="#id0:glyph0-1" x="16" y="102.09375"/>
  <use xlink:href="#id0:glyph0-2" x="97.515625" y="102.09375"/>
  <use xlink:href="#id0:glyph0-3" x="162.859375" y="102.09375"/>
</g>
</g>
</g>
  <g id="id1:id1" transform="matrix(1.25,0,0,1.25,243.57421875,13.1640625)"><g id="id1:surface1">
<g style="fill:rgb(0%,0%,0%);fill-opacity:1;">
  <use xlink:href="#id1:glyph0-1" x="0" y="120.84375"/>
</g>
</g>
</g>
  <g id="id2:id2" transform="matrix(1.25,0,0,1.25,376.171875,0.0)"><g id="id2:surface1">
<g style="fill:rgb(0%,0%,0%);fill-opacity:1;">
  <use xlink:href="#id2:glyph0-1" x="16" y="102.09375"/>
  <use xlink:href="#id2:glyph0-2" x="57.46875" y="102.09375"/>
</g>
</g>
</g>
</svg>
