<?xml version="1.0" standalone="no"?>
<!DOCTYPE svg PUBLIC "-//W3C//DTD SVG 1.1//EN"
 "http://www.w3.org/Graphics/SVG/1.1/DTD/svg11.dtd">
<!-- Created with svg_stack (http://github.com/astraw/svg_stack) -->
<svg xmlns="http://www.w3.org/2000/svg" xmlns:sodipodi="http://sodipodi.sourceforge.net/DTD/sodipodi-0.dtd" xmlns:xlink="http://www.w3.org/1999/xlink" version="1.1" width="527.96875" height="227.734375">
  <defs><g>
<symbol overflow="visible" id="id0:glyph0-0">
<path style="stroke:none;" d="M 10.453125 0 L 10.453125 -78.546875 L 55.65625 -78.546875 L 55.65625 0 Z M 16.0625 -5.609375 L 50.046875 -5.609375 L 50.046875 -72.9375 L 16.0625 -72.9375 Z M 16.0625 -5.609375 "/>
</symbol>
<symbol overflow="visible" id="id0:glyph0-1">
<path style="stroke:none;" d="M 32.671875 -53.6875 C 31.929688 -53.6875 31.269531 -53.976562 30.6875 -54.5625 C 30.101562 -55.144531 29.8125 -55.804688 29.8125 -56.546875 C 29.8125 -57.347656 30.101562 -58.023438 30.6875 -58.578125 C 31.269531 -59.128906 31.929688 -59.40625 32.671875 -59.40625 C 33.472656 -59.40625 34.148438 -59.128906 34.703125 -58.578125 C 35.253906 -58.023438 35.53125 -57.347656 35.53125 -56.546875 C 35.53125 -55.804688 35.253906 -55.144531 34.703125 -54.5625 C 34.148438 -53.976562 33.472656 -53.6875 32.671875 -53.6875 Z M 41.90625 -51.703125 C 41.175781 -51.703125 40.515625 -51.992188 39.921875 -52.578125 C 39.335938 -53.160156 39.046875 -53.820312 39.046875 -54.5625 C 39.046875 -55.363281 39.335938 -56.039062 39.921875 -56.59375 C 40.515625 -57.144531 41.175781 -57.421875 41.90625 -57.421875 C 42.71875 -57.421875 43.394531 -57.144531 43.9375 -56.59375 C 44.488281 -56.039062 44.765625 -55.363281 44.765625 -54.5625 C 44.765625 -53.820312 44.488281 -53.160156 43.9375 -52.578125 C 43.394531 -51.992188 42.71875 -51.703125 41.90625 -51.703125 Z M 23.4375 -51.703125 C 22.695312 -51.703125 22.03125 -51.992188 21.4375 -52.578125 C 20.851562 -53.160156 20.5625 -53.820312 20.5625 -54.5625 C 20.5625 -55.363281 20.851562 -56.039062 21.4375 -56.59375 C 22.03125 -57.144531 22.695312 -57.421875 23.4375 -57.421875 C 24.238281 -57.421875 24.914062 -57.144531 25.46875 -56.59375 C 26.019531 -56.039062 26.296875 -55.363281 26.296875 -54.5625 C 26.296875 -53.820312 26.019531 -53.160156 25.46875 -52.578125 C 24.914062 -51.992188 24.238281 -51.703125 23.4375 -51.703125 Z M 50.046875 -46.53125 C 49.316406 -46.53125 48.65625 -46.820312 48.0625 -47.40625 C 47.476562 -48 47.1875 -48.660156 47.1875 -49.390625 C 47.1875 -50.191406 47.476562 -50.867188 48.0625 -51.421875 C 48.65625 -51.972656 49.316406 -52.25 50.046875 -52.25 C 50.859375 -52.25 51.535156 -51.972656 52.078125 -51.421875 C 52.628906 -50.867188 52.90625 -50.191406 52.90625 -49.390625 C 52.90625 -48.660156 52.628906 -48 52.078125 -47.40625 C 51.535156 -46.820312 50.859375 -46.53125 50.046875 -46.53125 Z M 15.296875 -46.53125 C 14.554688 -46.53125 13.894531 -46.820312 13.3125 -47.40625 C 12.726562 -48 12.4375 -48.660156 12.4375 -49.390625 C 12.4375 -50.191406 12.726562 -50.867188 13.3125 -51.421875 C 13.894531 -51.972656 14.554688 -52.25 15.296875 -52.25 C 16.097656 -52.25 16.773438 -51.972656 17.328125 -51.421875 C 17.878906 -50.867188 18.15625 -50.191406 18.15625 -49.390625 C 18.15625 -48.660156 17.878906 -48 17.328125 -47.40625 C 16.773438 -46.820312 16.097656 -46.53125 15.296875 -46.53125 Z M 55.21875 -38.390625 C 54.488281 -38.390625 53.828125 -38.679688 53.234375 -39.265625 C 52.648438 -39.859375 52.359375 -40.519531 52.359375 -41.25 C 52.359375 -42.050781 52.648438 -42.726562 53.234375 -43.28125 C 53.828125 -43.832031 54.488281 -44.109375 55.21875 -44.109375 C 56.03125 -44.109375 56.707031 -43.832031 57.25 -43.28125 C 57.800781 -42.726562 58.078125 -42.050781 58.078125 -41.25 C 58.078125 -40.519531 57.800781 -39.859375 57.25 -39.265625 C 56.707031 -38.679688 56.03125 -38.390625 55.21875 -38.390625 Z M 10.125 -38.390625 C 9.382812 -38.390625 8.722656 -38.679688 8.140625 -39.265625 C 7.554688 -39.859375 7.265625 -40.519531 7.265625 -41.25 C 7.265625 -42.050781 7.554688 -42.726562 8.140625 -43.28125 C 8.722656 -43.832031 9.382812 -44.109375 10.125 -44.109375 C 10.925781 -44.109375 11.601562 -43.832031 12.15625 -43.28125 C 12.707031 -42.726562 12.984375 -42.050781 12.984375 -41.25 C 12.984375 -40.519531 12.707031 -39.859375 12.15625 -39.265625 C 11.601562 -38.679688 10.925781 -38.390625 10.125 -38.390625 Z M 57.203125 -29.15625 C 56.460938 -29.15625 55.800781 -29.445312 55.21875 -30.03125 C 54.632812 -30.613281 54.34375 -31.273438 54.34375 -32.015625 C 54.34375 -32.816406 54.632812 -33.492188 55.21875 -34.046875 C 55.800781 -34.597656 56.460938 -34.875 57.203125 -34.875 C 58.003906 -34.875 58.679688 -34.597656 59.234375 -34.046875 C 59.785156 -33.492188 60.0625 -32.816406 60.0625 -32.015625 C 60.0625 -31.273438 59.785156 -30.613281 59.234375 -30.03125 C 58.679688 -29.445312 58.003906 -29.15625 57.203125 -29.15625 Z M 8.140625 -29.15625 C 7.410156 -29.15625 6.75 -29.445312 6.15625 -30.03125 C 5.570312 -30.613281 5.28125 -31.273438 5.28125 -32.015625 C 5.28125 -32.816406 5.570312 -33.492188 6.15625 -34.046875 C 6.75 -34.597656 7.410156 -34.875 8.140625 -34.875 C 8.941406 -34.875 9.617188 -34.597656 10.171875 -34.046875 C 10.722656 -33.492188 11 -32.816406 11 -32.015625 C 11 -31.273438 10.722656 -30.613281 10.171875 -30.03125 C 9.617188 -29.445312 8.941406 -29.15625 8.140625 -29.15625 Z M 55.21875 -19.90625 C 54.488281 -19.90625 53.828125 -20.195312 53.234375 -20.78125 C 52.648438 -21.375 52.359375 -22.035156 52.359375 -22.765625 C 52.359375 -23.578125 52.648438 -24.253906 53.234375 -24.796875 C 53.828125 -25.347656 54.488281 -25.625 55.21875 -25.625 C 56.03125 -25.625 56.707031 -25.347656 57.25 -24.796875 C 57.800781 -24.253906 58.078125 -23.578125 58.078125 -22.765625 C 58.078125 -22.035156 57.800781 -21.375 57.25 -20.78125 C 56.707031 -20.195312 56.03125 -19.90625 55.21875 -19.90625 Z M 10.125 -19.90625 C 9.382812 -19.90625 8.722656 -20.195312 8.140625 -20.78125 C 7.554688 -21.375 7.265625 -22.035156 7.265625 -22.765625 C 7.265625 -23.578125 7.554688 -24.253906 8.140625 -24.796875 C 8.722656 -25.347656 9.382812 -25.625 10.125 -25.625 C 10.925781 -25.625 11.601562 -25.347656 12.15625 -24.796875 C 12.707031 -24.253906 12.984375 -23.578125 12.984375 -22.765625 C 12.984375 -22.035156 12.707031 -21.375 12.15625 -20.78125 C 11.601562 -20.195312 10.925781 -19.90625 10.125 -19.90625 Z M 50.046875 -11.765625 C 49.316406 -11.765625 48.65625 -12.054688 48.0625 -12.640625 C 47.476562 -13.234375 47.1875 -13.894531 47.1875 -14.625 C 47.1875 -15.4375 47.476562 -16.113281 48.0625 -16.65625 C 48.65625 -17.207031 49.316406 -17.484375 50.046875 -17.484375 C 50.859375 -17.484375 51.535156 -17.207031 52.078125 -16.65625 C 52.628906 -16.113281 52.90625 -15.4375 52.90625 -14.625 C 52.90625 -13.894531 52.628906 -13.234375 52.078125 -12.640625 C 51.535156 -12.054688 50.859375 -11.765625 50.046875 -11.765625 Z M 15.296875 -11.765625 C 14.554688 -11.765625 13.894531 -12.054688 13.3125 -12.640625 C 12.726562 -13.234375 12.4375 -13.894531 12.4375 -14.625 C 12.4375 -15.4375 12.726562 -16.113281 13.3125 -16.65625 C 13.894531 -17.207031 14.554688 -17.484375 15.296875 -17.484375 C 16.097656 -17.484375 16.773438 -17.207031 17.328125 -16.65625 C 17.878906 -16.113281 18.15625 -15.4375 18.15625 -14.625 C 18.15625 -13.894531 17.878906 -13.234375 17.328125 -12.640625 C 16.773438 -12.054688 16.097656 -11.765625 15.296875 -11.765625 Z M 41.90625 -6.59375 C 41.175781 -6.59375 40.515625 -6.882812 39.921875 -7.46875 C 39.335938 -8.0625 39.046875 -8.722656 39.046875 -9.453125 C 39.046875 -10.265625 39.335938 -10.941406 39.921875 -11.484375 C 40.515625 -12.035156 41.175781 -12.3125 41.90625 -12.3125 C 42.71875 -12.3125 43.394531 -12.035156 43.9375 -11.484375 C 44.488281 -10.941406 44.765625 -10.265625 44.765625 -9.453125 C 44.765625 -8.722656 44.488281 -8.0625 43.9375 -7.46875 C 43.394531 -6.882812 42.71875 -6.59375 41.90625 -6.59375 Z M 23.4375 -6.59375 C 22.695312 -6.59375 22.03125 -6.882812 21.4375 -7.46875 C 20.851562 -8.0625 20.5625 -8.722656 20.5625 -9.453125 C 20.5625 -10.265625 20.851562 -10.941406 21.4375 -11.484375 C 22.03125 -12.035156 22.695312 -12.3125 23.4375 -12.3125 C 24.238281 -12.3125 24.914062 -12.035156 25.46875 -11.484375 C 26.019531 -10.941406 26.296875 -10.265625 26.296875 -9.453125 C 26.296875 -8.722656 26.019531 -8.0625 25.46875 -7.46875 C 24.914062 -6.882812 24.238281 -6.59375 23.4375 -6.59375 Z M 32.671875 -4.625 C 31.929688 -4.625 31.269531 -4.914062 30.6875 -5.5 C 30.101562 -6.082031 29.8125 -6.742188 29.8125 -7.484375 C 29.8125 -8.285156 30.101562 -8.960938 30.6875 -9.515625 C 31.269531 -10.066406 31.929688 -10.34375 32.671875 -10.34375 C 33.472656 -10.34375 34.148438 -10.066406 34.703125 -9.515625 C 35.253906 -8.960938 35.53125 -8.285156 35.53125 -7.484375 C 35.53125 -6.742188 35.253906 -6.082031 34.703125 -5.5 C 34.148438 -4.914062 33.472656 -4.625 32.671875 -4.625 Z M 32.671875 -4.625 "/>
</symbol>
<symbol overflow="visible" id="id0:glyph0-2">
<path style="stroke:none;" d="M -16.71875 -31.5625 C -21.113281 -31.5625 -24.410156 -33.117188 -26.609375 -36.234375 C -28.816406 -39.359375 -29.992188 -44.144531 -30.140625 -50.59375 L -51.375 -50.59375 L -50.59375 -60.171875 L -30.140625 -60.171875 C -29.773438 -65.742188 -28.234375 -70.066406 -25.515625 -73.140625 C -22.804688 -76.222656 -19.175781 -77.765625 -14.625 -77.765625 C -10.519531 -77.765625 -7.238281 -76.5 -4.78125 -73.96875 C -2.320312 -71.445312 -0.726562 -67.910156 0 -63.359375 L -4.40625 -62.8125 C -5.132812 -65.082031 -6.34375 -66.878906 -8.03125 -68.203125 C -9.71875 -69.523438 -11.953125 -70.1875 -14.734375 -70.1875 C -17.453125 -70.1875 -19.726562 -69.320312 -21.5625 -67.59375 C -23.394531 -65.875 -24.53125 -63.398438 -24.96875 -60.171875 L -23.546875 -60.171875 C -17.234375 -60.171875 -12.59375 -58.921875 -9.625 -56.421875 C -6.65625 -53.929688 -5.171875 -50.191406 -5.171875 -45.203125 C -5.171875 -41.535156 -6.140625 -38.34375 -8.078125 -35.625 C -10.023438 -32.914062 -12.90625 -31.5625 -16.71875 -31.5625 Z M -19.359375 -50.59375 L -25.1875 -50.59375 C -25.1875 -48.539062 -24.96875 -46.613281 -24.53125 -44.8125 C -24.09375 -43.019531 -23.25 -41.59375 -22 -40.53125 C -20.75 -39.46875 -18.953125 -38.9375 -16.609375 -38.9375 C -14.554688 -38.9375 -12.941406 -39.445312 -11.765625 -40.46875 C -10.597656 -41.5 -10.015625 -42.929688 -10.015625 -44.765625 C -10.015625 -47.117188 -10.875 -48.675781 -12.59375 -49.4375 C -14.320312 -50.207031 -16.578125 -50.59375 -19.359375 -50.59375 Z M -19.359375 -50.59375 "/>
</symbol>
<symbol overflow="visible" id="id0:glyph0-3">
<path style="stroke:none;" d="M 24.421875 1.3125 C 20.097656 1.3125 16.5625 0.234375 13.8125 -1.921875 C 11.0625 -4.085938 9.0625 -6.894531 7.8125 -10.34375 C 6.5625 -13.789062 5.9375 -17.347656 5.9375 -21.015625 C 5.9375 -27.753906 7.585938 -33.742188 10.890625 -38.984375 C 14.191406 -44.234375 18.59375 -48.101562 24.09375 -50.59375 L 6.15625 -50.59375 L 6.9375 -60.171875 L 57.203125 -60.171875 C 60.867188 -60.171875 63.582031 -60.367188 65.34375 -60.765625 C 67.101562 -61.171875 68.492188 -61.816406 69.515625 -62.703125 C 71.203125 -64.171875 72.046875 -66.296875 72.046875 -69.078125 C 72.046875 -73.328125 70.03125 -77.582031 66 -81.84375 L 69.953125 -84.8125 C 72.453125 -82.164062 74.378906 -79.300781 75.734375 -76.21875 C 77.085938 -73.144531 77.765625 -69.921875 77.765625 -66.546875 C 77.765625 -64.566406 77.523438 -62.585938 77.046875 -60.609375 C 76.578125 -58.628906 75.5 -56.867188 73.8125 -55.328125 C 72.632812 -54.234375 71.203125 -53.28125 69.515625 -52.46875 C 67.828125 -51.664062 65.375 -51.113281 62.15625 -50.8125 C 65.375 -49.28125 67.625 -47.285156 68.90625 -44.828125 C 70.195312 -42.367188 70.914062 -39.929688 71.0625 -37.515625 C 73.1875 -35.378906 74.832031 -32.769531 76 -29.6875 C 77.175781 -26.613281 77.765625 -23.535156 77.765625 -20.453125 C 77.765625 -13.347656 75.984375 -7.941406 72.421875 -4.234375 C 68.867188 -0.535156 64.269531 1.3125 58.625 1.3125 C 53.5 1.3125 49.632812 -0.0625 47.03125 -2.8125 C 44.425781 -5.5625 42.390625 -9.207031 40.921875 -13.75 C 39.960938 -9.28125 38.050781 -5.648438 35.1875 -2.859375 C 32.332031 -0.078125 28.742188 1.3125 24.421875 1.3125 Z M 25.515625 -9.125 C 28.453125 -9.125 30.78125 -9.675781 32.5 -10.78125 C 34.226562 -11.882812 35.585938 -13.40625 36.578125 -15.34375 C 37.566406 -17.289062 38.390625 -19.507812 39.046875 -22 L 42.796875 -22 C 43.890625 -18.039062 45.519531 -14.90625 47.6875 -12.59375 C 49.851562 -10.28125 53.132812 -9.125 57.53125 -9.125 C 61.632812 -9.125 64.929688 -10.207031 67.421875 -12.375 C 69.921875 -14.539062 71.171875 -17.894531 71.171875 -22.4375 C 71.171875 -23.832031 71.023438 -25.242188 70.734375 -26.671875 C 70.441406 -28.097656 69.960938 -29.472656 69.296875 -30.796875 C 68.347656 -28.453125 66.789062 -26.414062 64.625 -24.6875 C 62.457031 -22.96875 59.578125 -22.109375 55.984375 -22.109375 C 52.617188 -22.109375 49.816406 -23.0625 47.578125 -24.96875 C 45.335938 -26.875 44.21875 -29.40625 44.21875 -32.5625 C 44.21875 -35.644531 45.296875 -38.117188 47.453125 -39.984375 C 49.617188 -41.859375 52.535156 -42.796875 56.203125 -42.796875 C 59.578125 -42.796875 62.550781 -42.171875 65.125 -40.921875 C 64.382812 -44.148438 62.382812 -46.585938 59.125 -48.234375 C 55.863281 -49.878906 51.664062 -50.703125 46.53125 -50.703125 L 40.921875 -50.703125 C 35.273438 -50.703125 30.394531 -49.457031 26.28125 -46.96875 C 22.175781 -44.476562 19.023438 -41.195312 16.828125 -37.125 C 14.628906 -33.050781 13.53125 -28.632812 13.53125 -23.875 C 13.53125 -19.175781 14.570312 -15.539062 16.65625 -12.96875 C 18.75 -10.40625 21.703125 -9.125 25.515625 -9.125 Z M 49.9375 -33.546875 C 49.9375 -30.691406 52.023438 -29.265625 56.203125 -29.265625 C 58.703125 -29.265625 60.738281 -29.796875 62.3125 -30.859375 C 63.894531 -31.921875 64.867188 -33.550781 65.234375 -35.75 C 64.203125 -36.550781 63.007812 -37.171875 61.65625 -37.609375 C 60.300781 -38.054688 58.742188 -38.28125 56.984375 -38.28125 C 54.929688 -38.28125 53.242188 -37.929688 51.921875 -37.234375 C 50.597656 -36.535156 49.9375 -35.304688 49.9375 -33.546875 Z M 49.9375 -33.546875 "/>
</symbol>
</g>
<g>
<symbol overflow="visible" id="id1:glyph0-0">
<path style="stroke:none;" d="M 5.375 -96.6875 L 69.828125 -96.6875 L 69.828125 0 L 5.375 0 Z M 8.0625 -2.6875 L 67.140625 -2.6875 L 67.140625 -94 L 8.0625 -94 Z M 8.0625 -2.6875 "/>
</symbol>
<symbol overflow="visible" id="id1:glyph0-1">
<path style="stroke:none;" d="M 68.15625 -13.75 L 66.28125 -18.640625 L 88.09375 -27.390625 L 6.984375 -27.390625 L 6.984375 -34 L 88.09375 -34 L 66.28125 -42.75 L 68.15625 -47.640625 L 99.09375 -34.265625 L 99.09375 -27.125 Z M 68.15625 -13.75 "/>
</symbol>
</g>
<g>
<symbol overflow="visible" id="id2:glyph0-0">
<path style="stroke:none;" d="M 10.453125 0 L 10.453125 -78.546875 L 55.65625 -78.546875 L 55.65625 0 Z M 16.0625 -5.609375 L 50.046875 -5.609375 L 50.046875 -72.9375 L 16.0625 -72.9375 Z M 16.0625 -5.609375 "/>
</symbol>
<symbol overflow="visible" id="id2:glyph0-1">
<path style="stroke:none;" d="M 32.671875 -53.6875 C 31.929688 -53.6875 31.269531 -53.976562 30.6875 -54.5625 C 30.101562 -55.144531 29.8125 -55.804688 29.8125 -56.546875 C 29.8125 -57.347656 30.101562 -58.023438 30.6875 -58.578125 C 31.269531 -59.128906 31.929688 -59.40625 32.671875 -59.40625 C 33.472656 -59.40625 34.148438 -59.128906 34.703125 -58.578125 C 35.253906 -58.023438 35.53125 -57.347656 35.53125 -56.546875 C 35.53125 -55.804688 35.253906 -55.144531 34.703125 -54.5625 C 34.148438 -53.976562 33.472656 -53.6875 32.671875 -53.6875 Z M 41.90625 -51.703125 C 41.175781 -51.703125 40.515625 -51.992188 39.921875 -52.578125 C 39.335938 -53.160156 39.046875 -53.820312 39.046875 -54.5625 C 39.046875 -55.363281 39.335938 -56.039062 39.921875 -56.59375 C 40.515625 -57.144531 41.175781 -57.421875 41.90625 -57.421875 C 42.71875 -57.421875 43.394531 -57.144531 43.9375 -56.59375 C 44.488281 -56.039062 44.765625 -55.363281 44.765625 -54.5625 C 44.765625 -53.820312 44.488281 -53.160156 43.9375 -52.578125 C 43.394531 -51.992188 42.71875 -51.703125 41.90625 -51.703125 Z M 23.4375 -51.703125 C 22.695312 -51.703125 22.03125 -51.992188 21.4375 -52.578125 C 20.851562 -53.160156 20.5625 -53.820312 20.5625 -54.5625 C 20.5625 -55.363281 20.851562 -56.039062 21.4375 -56.59375 C 22.03125 -57.144531 22.695312 -57.421875 23.4375 -57.421875 C 24.238281 -57.421875 24.914062 -57.144531 25.46875 -56.59375 C 26.019531 -56.039062 26.296875 -55.363281 26.296875 -54.5625 C 26.296875 -53.820312 26.019531 -53.160156 25.46875 -52.578125 C 24.914062 -51.992188 24.238281 -51.703125 23.4375 -51.703125 Z M 50.046875 -46.53125 C 49.316406 -46.53125 48.65625 -46.820312 48.0625 -47.40625 C 47.476562 -48 47.1875 -48.660156 47.1875 -49.390625 C 47.1875 -50.191406 47.476562 -50.867188 48.0625 -51.421875 C 48.65625 -51.972656 49.316406 -52.25 50.046875 -52.25 C 50.859375 -52.25 51.535156 -51.972656 52.078125 -51.421875 C 52.628906 -50.867188 52.90625 -50.191406 52.90625 -49.390625 C 52.90625 -48.660156 52.628906 -48 52.078125 -47.40625 C 51.535156 -46.820312 50.859375 -46.53125 50.046875 -46.53125 Z M 15.296875 -46.53125 C 14.554688 -46.53125 13.894531 -46.820312 13.3125 -47.40625 C 12.726562 -48 12.4375 -48.660156 12.4375 -49.390625 C 12.4375 -50.191406 12.726562 -50.867188 13.3125 -51.421875 C 13.894531 -51.972656 14.554688 -52.25 15.296875 -52.25 C 16.097656 -52.25 16.773438 -51.972656 17.328125 -51.421875 C 17.878906 -50.867188 18.15625 -50.191406 18.15625 -49.390625 C 18.15625 -48.660156 17.878906 -48 17.328125 -47.40625 C 16.773438 -46.820312 16.097656 -46.53125 15.296875 -46.53125 Z M 55.21875 -38.390625 C 54.488281 -38.390625 53.828125 -38.679688 53.234375 -39.265625 C 52.648438 -39.859375 52.359375 -40.519531 52.359375 -41.25 C 52.359375 -42.050781 52.648438 -42.726562 53.234375 -43.28125 C 53.828125 -43.832031 54.488281 -44.109375 55.21875 -44.109375 C 56.03125 -44.109375 56.707031 -43.832031 57.25 -43.28125 C 57.800781 -42.726562 58.078125 -42.050781 58.078125 -41.25 C 58.078125 -40.519531 57.800781 -39.859375 57.25 -39.265625 C 56.707031 -38.679688 56.03125 -38.390625 55.21875 -38.390625 Z M 10.125 -38.390625 C 9.382812 -38.390625 8.722656 -38.679688 8.140625 -39.265625 C 7.554688 -39.859375 7.265625 -40.519531 7.265625 -41.25 C 7.265625 -42.050781 7.554688 -42.726562 8.140625 -43.28125 C 8.722656 -43.832031 9.382812 -44.109375 10.125 -44.109375 C 10.925781 -44.109375 11.601562 -43.832031 12.15625 -43.28125 C 12.707031 -42.726562 12.984375 -42.050781 12.984375 -41.25 C 12.984375 -40.519531 12.707031 -39.859375 12.15625 -39.265625 C 11.601562 -38.679688 10.925781 -38.390625 10.125 -38.390625 Z M 57.203125 -29.15625 C 56.460938 -29.15625 55.800781 -29.445312 55.21875 -30.03125 C 54.632812 -30.613281 54.34375 -31.273438 54.34375 -32.015625 C 54.34375 -32.816406 54.632812 -33.492188 55.21875 -34.046875 C 55.800781 -34.597656 56.460938 -34.875 57.203125 -34.875 C 58.003906 -34.875 58.679688 -34.597656 59.234375 -34.046875 C 59.785156 -33.492188 60.0625 -32.816406 60.0625 -32.015625 C 60.0625 -31.273438 59.785156 -30.613281 59.234375 -30.03125 C 58.679688 -29.445312 58.003906 -29.15625 57.203125 -29.15625 Z M 8.140625 -29.15625 C 7.410156 -29.15625 6.75 -29.445312 6.15625 -30.03125 C 5.570312 -30.613281 5.28125 -31.273438 5.28125 -32.015625 C 5.28125 -32.816406 5.570312 -33.492188 6.15625 -34.046875 C 6.75 -34.597656 7.410156 -34.875 8.140625 -34.875 C 8.941406 -34.875 9.617188 -34.597656 10.171875 -34.046875 C 10.722656 -33.492188 11 -32.816406 11 -32.015625 C 11 -31.273438 10.722656 -30.613281 10.171875 -30.03125 C 9.617188 -29.445312 8.941406 -29.15625 8.140625 -29.15625 Z M 55.21875 -19.90625 C 54.488281 -19.90625 53.828125 -20.195312 53.234375 -20.78125 C 52.648438 -21.375 52.359375 -22.035156 52.359375 -22.765625 C 52.359375 -23.578125 52.648438 -24.253906 53.234375 -24.796875 C 53.828125 -25.347656 54.488281 -25.625 55.21875 -25.625 C 56.03125 -25.625 56.707031 -25.347656 57.25 -24.796875 C 57.800781 -24.253906 58.078125 -23.578125 58.078125 -22.765625 C 58.078125 -22.035156 57.800781 -21.375 57.25 -20.78125 C 56.707031 -20.195312 56.03125 -19.90625 55.21875 -19.90625 Z M 10.125 -19.90625 C 9.382812 -19.90625 8.722656 -20.195312 8.140625 -20.78125 C 7.554688 -21.375 7.265625 -22.035156 7.265625 -22.765625 C 7.265625 -23.578125 7.554688 -24.253906 8.140625 -24.796875 C 8.722656 -25.347656 9.382812 -25.625 10.125 -25.625 C 10.925781 -25.625 11.601562 -25.347656 12.15625 -24.796875 C 12.707031 -24.253906 12.984375 -23.578125 12.984375 -22.765625 C 12.984375 -22.035156 12.707031 -21.375 12.15625 -20.78125 C 11.601562 -20.195312 10.925781 -19.90625 10.125 -19.90625 Z M 50.046875 -11.765625 C 49.316406 -11.765625 48.65625 -12.054688 48.0625 -12.640625 C 47.476562 -13.234375 47.1875 -13.894531 47.1875 -14.625 C 47.1875 -15.4375 47.476562 -16.113281 48.0625 -16.65625 C 48.65625 -17.207031 49.316406 -17.484375 50.046875 -17.484375 C 50.859375 -17.484375 51.535156 -17.207031 52.078125 -16.65625 C 52.628906 -16.113281 52.90625 -15.4375 52.90625 -14.625 C 52.90625 -13.894531 52.628906 -13.234375 52.078125 -12.640625 C 51.535156 -12.054688 50.859375 -11.765625 50.046875 -11.765625 Z M 15.296875 -11.765625 C 14.554688 -11.765625 13.894531 -12.054688 13.3125 -12.640625 C 12.726562 -13.234375 12.4375 -13.894531 12.4375 -14.625 C 12.4375 -15.4375 12.726562 -16.113281 13.3125 -16.65625 C 13.894531 -17.207031 14.554688 -17.484375 15.296875 -17.484375 C 16.097656 -17.484375 16.773438 -17.207031 17.328125 -16.65625 C 17.878906 -16.113281 18.15625 -15.4375 18.15625 -14.625 C 18.15625 -13.894531 17.878906 -13.234375 17.328125 -12.640625 C 16.773438 -12.054688 16.097656 -11.765625 15.296875 -11.765625 Z M 41.90625 -6.59375 C 41.175781 -6.59375 40.515625 -6.882812 39.921875 -7.46875 C 39.335938 -8.0625 39.046875 -8.722656 39.046875 -9.453125 C 39.046875 -10.265625 39.335938 -10.941406 39.921875 -11.484375 C 40.515625 -12.035156 41.175781 -12.3125 41.90625 -12.3125 C 42.71875 -12.3125 43.394531 -12.035156 43.9375 -11.484375 C 44.488281 -10.941406 44.765625 -10.265625 44.765625 -9.453125 C 44.765625 -8.722656 44.488281 -8.0625 43.9375 -7.46875 C 43.394531 -6.882812 42.71875 -6.59375 41.90625 -6.59375 Z M 23.4375 -6.59375 C 22.695312 -6.59375 22.03125 -6.882812 21.4375 -7.46875 C 20.851562 -8.0625 20.5625 -8.722656 20.5625 -9.453125 C 20.5625 -10.265625 20.851562 -10.941406 21.4375 -11.484375 C 22.03125 -12.035156 22.695312 -12.3125 23.4375 -12.3125 C 24.238281 -12.3125 24.914062 -12.035156 25.46875 -11.484375 C 26.019531 -10.941406 26.296875 -10.265625 26.296875 -9.453125 C 26.296875 -8.722656 26.019531 -8.0625 25.46875 -7.46875 C 24.914062 -6.882812 24.238281 -6.59375 23.4375 -6.59375 Z M 32.671875 -4.625 C 31.929688 -4.625 31.269531 -4.914062 30.6875 -5.5 C 30.101562 -6.082031 29.8125 -6.742188 29.8125 -7.484375 C 29.8125 -8.285156 30.101562 -8.960938 30.6875 -9.515625 C 31.269531 -10.066406 31.929688 -10.34375 32.671875 -10.34375 C 33.472656 -10.34375 34.148438 -10.066406 34.703125 -9.515625 C 35.253906 -8.960938 35.53125 -8.285156 35.53125 -7.484375 C 35.53125 -6.742188 35.253906 -6.082031 34.703125 -5.5 C 34.148438 -4.914062 33.472656 -4.625 32.671875 -4.625 Z M 32.671875 -4.625 "/>
</symbol>
<symbol overflow="visible" id="id2:glyph0-2">
<path style="stroke:none;" d="M -19.796875 44 C -23.972656 44 -27.179688 42.660156 -29.421875 39.984375 C -31.660156 37.304688 -32.78125 33.734375 -32.78125 29.265625 C -32.78125 24.566406 -31.660156 20.492188 -29.421875 17.046875 C -27.179688 13.597656 -24.171875 10.921875 -20.390625 9.015625 C -16.617188 7.109375 -12.425781 6.15625 -7.8125 6.15625 C -2.601562 6.15625 1.648438 7.179688 4.953125 9.234375 C 8.253906 11.285156 10.195312 13.960938 10.78125 17.265625 C 12.832031 18.660156 14.441406 20.515625 15.609375 22.828125 C 16.785156 25.140625 17.375 27.6875 17.375 30.46875 C 17.375 34.570312 16.3125 37.851562 14.1875 40.3125 C 12.0625 42.769531 9.054688 44 5.171875 44 C -1.140625 44 -5.320312 40.957031 -7.375 34.875 C -9.351562 40.957031 -13.492188 44 -19.796875 44 Z M -18.265625 34.65625 C -15.910156 34.65625 -13.960938 34.117188 -12.421875 33.046875 C -10.890625 31.984375 -9.828125 30.28125 -9.234375 27.9375 L -5.390625 27.9375 C -4.804688 30.28125 -3.707031 31.984375 -2.09375 33.046875 C -0.476562 34.117188 1.535156 34.65625 3.953125 34.65625 C 6.304688 34.65625 8.234375 33.992188 9.734375 32.671875 C 11.234375 31.347656 11.984375 29.441406 11.984375 26.953125 C 11.984375 25.191406 11.472656 23.613281 10.453125 22.21875 C 9.941406 24.050781 8.96875 25.476562 7.53125 26.5 C 6.101562 27.53125 4.289062 28.046875 2.09375 28.046875 C -0.101562 28.046875 -1.988281 27.492188 -3.5625 26.390625 C -5.144531 25.296875 -5.9375 23.722656 -5.9375 21.671875 C -5.9375 19.472656 -5.109375 17.800781 -3.453125 16.65625 C -1.804688 15.519531 0.148438 14.953125 2.421875 14.953125 C 3.597656 14.953125 4.695312 15.066406 5.71875 15.296875 C 4.695312 13.972656 3.101562 12.941406 0.9375 12.203125 C -1.226562 11.472656 -3.925781 11.109375 -7.15625 11.109375 C -12.726562 11.109375 -17.253906 12.460938 -20.734375 15.171875 C -24.210938 17.890625 -25.953125 21.519531 -25.953125 26.0625 C -25.953125 29.144531 -25.21875 31.347656 -23.75 32.671875 C -22.289062 33.992188 -20.460938 34.65625 -18.265625 34.65625 Z M -1.3125 21.234375 C -1.3125 22.773438 -0.175781 23.546875 2.09375 23.546875 C 4.945312 23.546875 6.5625 22.1875 6.9375 19.46875 C 5.613281 18.957031 4.21875 18.703125 2.75 18.703125 C 1.570312 18.703125 0.601562 18.898438 -0.15625 19.296875 C -0.925781 19.703125 -1.3125 20.347656 -1.3125 21.234375 Z M -1.3125 21.234375 "/>
</symbol>
</g>
</defs>
  <g id="id0:id0" transform="matrix(1.25,0,0,1.25,0.0,0.0)"><g id="id0:surface1">
<g style="fill:rgb(0%,0%,0%);fill-opacity:1;">
  <use xlink:href="#id0:glyph0-1" x="16" y="102.09375"/>
  <use xlink:href="#id0:glyph0-2" x="111.25" y="102.09375"/>
  <use xlink:href="#id0:glyph0-3" x="111.25" y="102.09375"/>
</g>
</g>
</g>
  <g id="id1:id1" transform="matrix(1.25,0,0,1.25,263.69140625,13.1640625)"><g id="id1:surface1">
<g style="fill:rgb(0%,0%,0%);fill-opacity:1;">
  <use xlink:href="#id1:glyph0-1" x="0" y="120.84375"/>
</g>
</g>
</g>
  <g id="id2:id2" transform="matrix(1.25,0,0,1.25,396.2890625,0.0)"><g id="id2:surface1">
<g style="fill:rgb(0%,0%,0%);fill-opacity:1;">
  <use xlink:href="#id2:glyph0-1" x="16" y="102.09375"/>
  <use xlink:href="#id2:glyph0-2" x="81.34375" y="102.09375"/>
</g>
</g>
</g>
</svg>
