<!DOCTYPE svg PUBLIC "-//W3C//DTD SVG 1.1//EN" "http://www.w3.org/Graphics/SVG/1.1/DTD/svg11.dtd">
<!-- Created with svg_stack (http://github.com/astraw/svg_stack) --><svg xmlns="http://www.w3.org/2000/svg" xmlns:sodipodi="http://sodipodi.sourceforge.net/DTD/sodipodi-0.dtd" xmlns:xlink="http://www.w3.org/1999/xlink" version="1.1" width="100%" id="kannada-haln" viewBox="0 0 496.26953125 227.734375">
  <defs><g>
<symbol overflow="visible" id="kannada-haln:id0:glyph0-0">
<path style="stroke:none;" d="M 10.453125 0 L 10.453125 -78.546875 L 55.65625 -78.546875 L 55.65625 0 Z M 16.0625 -5.609375 L 50.046875 -5.609375 L 50.046875 -72.9375 L 16.0625 -72.9375 Z M 16.0625 -5.609375 "/>
</symbol>
<symbol overflow="visible" id="kannada-haln:id0:glyph0-1">
<path style="stroke:none;" d="M 6.59375 -50.59375 L 7.375 -60.171875 L 54.78125 -60.171875 C 58.445312 -60.171875 61.160156 -60.367188 62.921875 -60.765625 C 64.679688 -61.171875 66.070312 -61.816406 67.09375 -62.703125 C 68.78125 -64.171875 69.625 -66.296875 69.625 -69.078125 C 69.625 -73.328125 67.609375 -77.582031 63.578125 -81.84375 L 67.546875 -84.8125 C 70.035156 -82.164062 71.957031 -79.300781 73.3125 -76.21875 C 74.664062 -73.144531 75.34375 -69.921875 75.34375 -66.546875 C 75.34375 -64.566406 75.101562 -62.585938 74.625 -60.609375 C 74.15625 -58.628906 73.078125 -56.867188 71.390625 -55.328125 C 70.429688 -54.453125 69.289062 -53.644531 67.96875 -52.90625 C 66.65625 -52.175781 64.9375 -51.609375 62.8125 -51.203125 C 60.6875 -50.796875 57.863281 -50.59375 54.34375 -50.59375 Z M 23.3125 1.203125 C 19.5 1.203125 16.289062 0.285156 13.6875 -1.546875 C 11.09375 -3.378906 9.148438 -5.796875 7.859375 -8.796875 C 6.578125 -11.804688 5.9375 -15.035156 5.9375 -18.484375 C 5.9375 -23.171875 7.203125 -27.109375 9.734375 -30.296875 C 12.265625 -33.492188 15.726562 -35.09375 20.125 -35.09375 C 23.570312 -35.09375 26.226562 -34.15625 28.09375 -32.28125 C 29.96875 -30.414062 30.90625 -28.050781 30.90625 -25.1875 C 30.90625 -22.40625 30.023438 -20.207031 28.265625 -18.59375 C 26.503906 -16.976562 24.050781 -15.953125 20.90625 -15.515625 L 20.234375 -19.578125 C 22.878906 -20.160156 24.203125 -21.664062 24.203125 -24.09375 C 24.203125 -25.40625 23.757812 -26.484375 22.875 -27.328125 C 22 -28.171875 20.644531 -28.59375 18.8125 -28.59375 C 16.394531 -28.59375 14.46875 -27.804688 13.03125 -26.234375 C 11.601562 -24.660156 10.890625 -22.585938 10.890625 -20.015625 C 10.890625 -16.421875 12.0625 -13.722656 14.40625 -11.921875 C 16.757812 -10.128906 20.132812 -9.234375 24.53125 -9.234375 C 32.375 -9.234375 37.46875 -13.488281 39.8125 -22 L 43.5625 -22 C 44.65625 -18.332031 46.25 -15.285156 48.34375 -12.859375 C 50.4375 -10.441406 53.71875 -9.234375 58.1875 -9.234375 C 62.21875 -9.234375 65.222656 -10.476562 67.203125 -12.96875 C 69.191406 -15.46875 70.1875 -18.695312 70.1875 -22.65625 C 70.1875 -26.25 69.503906 -29.273438 68.140625 -31.734375 C 66.785156 -34.191406 64.789062 -36.925781 62.15625 -39.9375 L 66.4375 -43.671875 C 69.007812 -40.660156 71.429688 -38.253906 73.703125 -36.453125 C 75.972656 -34.660156 78.578125 -33.765625 81.515625 -33.765625 C 83.859375 -33.765625 85.671875 -34.425781 86.953125 -35.75 C 88.234375 -37.070312 88.875 -38.757812 88.875 -40.8125 C 88.875 -46.238281 85.796875 -49.351562 79.640625 -50.15625 C 79.859375 -51.550781 80.316406 -52.722656 81.015625 -53.671875 C 81.710938 -54.628906 82.644531 -55.109375 83.8125 -55.109375 C 85.425781 -55.109375 86.984375 -54.375 88.484375 -52.90625 C 89.992188 -51.4375 91.242188 -49.53125 92.234375 -47.1875 C 93.222656 -44.84375 93.71875 -42.273438 93.71875 -39.484375 C 93.71875 -35.378906 92.65625 -32.078125 90.53125 -29.578125 C 88.40625 -27.085938 85.472656 -25.84375 81.734375 -25.84375 C 79.378906 -25.84375 77.03125 -26.394531 74.6875 -27.5 C 74.90625 -26.695312 75.066406 -25.890625 75.171875 -25.078125 C 75.285156 -24.273438 75.34375 -23.429688 75.34375 -22.546875 C 75.34375 -20.054688 75.101562 -17.4375 74.625 -14.6875 C 74.15625 -11.9375 73.316406 -9.347656 72.109375 -6.921875 C 70.898438 -4.503906 69.210938 -2.546875 67.046875 -1.046875 C 64.878906 0.453125 62.109375 1.203125 58.734375 1.203125 C 54.191406 1.203125 50.507812 -0.171875 47.6875 -2.921875 C 44.863281 -5.671875 42.753906 -9.242188 41.359375 -13.640625 C 39.890625 -9.171875 37.78125 -5.578125 35.03125 -2.859375 C 32.28125 -0.148438 28.375 1.203125 23.3125 1.203125 Z M 41.90625 -33.4375 C 40.070312 -33.4375 38.566406 -34.019531 37.390625 -35.1875 C 36.222656 -36.363281 35.640625 -37.832031 35.640625 -39.59375 C 35.640625 -41.351562 36.222656 -42.820312 37.390625 -44 C 38.566406 -45.175781 40.070312 -45.765625 41.90625 -45.765625 C 43.8125 -45.765625 45.332031 -45.175781 46.46875 -44 C 47.613281 -42.820312 48.1875 -41.351562 48.1875 -39.59375 C 48.1875 -37.832031 47.613281 -36.363281 46.46875 -35.1875 C 45.332031 -34.019531 43.8125 -33.4375 41.90625 -33.4375 Z M 41.359375 21.5625 C 39.671875 21.5625 38.347656 21.226562 37.390625 20.5625 C 36.441406 19.90625 35.96875 18.769531 35.96875 17.15625 C 35.96875 16.0625 36.171875 14.578125 36.578125 12.703125 C 36.984375 10.835938 37.476562 8.859375 38.0625 6.765625 C 38.644531 4.671875 39.226562 2.742188 39.8125 0.984375 L 42.90625 0.984375 C 43.5625 2.671875 44.179688 4.539062 44.765625 6.59375 C 45.359375 8.65625 45.835938 10.617188 46.203125 12.484375 C 46.566406 14.359375 46.75 15.914062 46.75 17.15625 C 46.75 18.769531 46.269531 19.90625 45.3125 20.5625 C 44.363281 21.226562 43.046875 21.5625 41.359375 21.5625 Z M 41.359375 21.5625 "/>
</symbol>
<symbol overflow="visible" id="kannada-haln:id0:glyph0-2">
<path style="stroke:none;" d="M -16.71875 -31.5625 C -21.113281 -31.5625 -24.410156 -33.117188 -26.609375 -36.234375 C -28.816406 -39.359375 -29.992188 -44.144531 -30.140625 -50.59375 L -51.375 -50.59375 L -50.59375 -60.171875 L -30.140625 -60.171875 C -29.773438 -65.742188 -28.234375 -70.066406 -25.515625 -73.140625 C -22.804688 -76.222656 -19.175781 -77.765625 -14.625 -77.765625 C -10.519531 -77.765625 -7.238281 -76.5 -4.78125 -73.96875 C -2.320312 -71.445312 -0.726562 -67.910156 0 -63.359375 L -4.40625 -62.8125 C -5.132812 -65.082031 -6.34375 -66.878906 -8.03125 -68.203125 C -9.71875 -69.523438 -11.953125 -70.1875 -14.734375 -70.1875 C -17.453125 -70.1875 -19.726562 -69.320312 -21.5625 -67.59375 C -23.394531 -65.875 -24.53125 -63.398438 -24.96875 -60.171875 L -23.546875 -60.171875 C -17.234375 -60.171875 -12.59375 -58.921875 -9.625 -56.421875 C -6.65625 -53.929688 -5.171875 -50.191406 -5.171875 -45.203125 C -5.171875 -41.535156 -6.140625 -38.34375 -8.078125 -35.625 C -10.023438 -32.914062 -12.90625 -31.5625 -16.71875 -31.5625 Z M -19.359375 -50.59375 L -25.1875 -50.59375 C -25.1875 -48.539062 -24.96875 -46.613281 -24.53125 -44.8125 C -24.09375 -43.019531 -23.25 -41.59375 -22 -40.53125 C -20.75 -39.46875 -18.953125 -38.9375 -16.609375 -38.9375 C -14.554688 -38.9375 -12.941406 -39.445312 -11.765625 -40.46875 C -10.597656 -41.5 -10.015625 -42.929688 -10.015625 -44.765625 C -10.015625 -47.117188 -10.875 -48.675781 -12.59375 -49.4375 C -14.320312 -50.207031 -16.578125 -50.59375 -19.359375 -50.59375 Z M -19.359375 -50.59375 "/>
</symbol>
</g>
<g>
<symbol overflow="visible" id="kannada-haln:id1:glyph0-0">
<path style="stroke:none;" d="M 5.375 -96.6875 L 69.828125 -96.6875 L 69.828125 0 L 5.375 0 Z M 8.0625 -2.6875 L 67.140625 -2.6875 L 67.140625 -94 L 8.0625 -94 Z M 8.0625 -2.6875 "/>
</symbol>
<symbol overflow="visible" id="kannada-haln:id1:glyph0-1">
<path style="stroke:none;" d="M 68.15625 -13.75 L 66.28125 -18.640625 L 88.09375 -27.390625 L 6.984375 -27.390625 L 6.984375 -34 L 88.09375 -34 L 66.28125 -42.75 L 68.15625 -47.640625 L 99.09375 -34.265625 L 99.09375 -27.125 Z M 68.15625 -13.75 "/>
</symbol>
</g>
<g>
<symbol overflow="visible" id="kannada-haln:id2:glyph0-0">
<path style="stroke:none;" d="M 10.453125 0 L 10.453125 -78.546875 L 55.65625 -78.546875 L 55.65625 0 Z M 16.0625 -5.609375 L 50.046875 -5.609375 L 50.046875 -72.9375 L 16.0625 -72.9375 Z M 16.0625 -5.609375 "/>
</symbol>
<symbol overflow="visible" id="kannada-haln:id2:glyph0-1">
<path style="stroke:none;" d="M 23.3125 1.203125 C 19.5 1.203125 16.289062 0.285156 13.6875 -1.546875 C 11.09375 -3.378906 9.148438 -5.796875 7.859375 -8.796875 C 6.578125 -11.804688 5.9375 -15.035156 5.9375 -18.484375 C 5.9375 -23.171875 7.203125 -27.109375 9.734375 -30.296875 C 12.265625 -33.492188 15.726562 -35.09375 20.125 -35.09375 C 23.570312 -35.09375 26.226562 -34.15625 28.09375 -32.28125 C 29.96875 -30.414062 30.90625 -28.050781 30.90625 -25.1875 C 30.90625 -22.40625 30.023438 -20.207031 28.265625 -18.59375 C 26.503906 -16.976562 24.050781 -15.953125 20.90625 -15.515625 L 20.234375 -19.578125 C 22.878906 -20.160156 24.203125 -21.664062 24.203125 -24.09375 C 24.203125 -25.40625 23.757812 -26.484375 22.875 -27.328125 C 22 -28.171875 20.644531 -28.59375 18.8125 -28.59375 C 16.394531 -28.59375 14.46875 -27.804688 13.03125 -26.234375 C 11.601562 -24.660156 10.890625 -22.585938 10.890625 -20.015625 C 10.890625 -16.421875 12.0625 -13.722656 14.40625 -11.921875 C 16.757812 -10.128906 20.132812 -9.234375 24.53125 -9.234375 C 32.375 -9.234375 37.46875 -13.488281 39.8125 -22 L 43.5625 -22 C 44.65625 -18.332031 46.25 -15.285156 48.34375 -12.859375 C 50.4375 -10.441406 53.71875 -9.234375 58.1875 -9.234375 C 62.21875 -9.234375 65.222656 -10.476562 67.203125 -12.96875 C 69.191406 -15.46875 70.1875 -18.695312 70.1875 -22.65625 C 70.1875 -26.25 69.503906 -29.273438 68.140625 -31.734375 C 66.785156 -34.191406 64.789062 -36.925781 62.15625 -39.9375 L 66.4375 -43.671875 C 69.007812 -40.660156 71.429688 -38.253906 73.703125 -36.453125 C 75.972656 -34.660156 78.578125 -33.765625 81.515625 -33.765625 C 83.859375 -33.765625 85.671875 -34.425781 86.953125 -35.75 C 88.234375 -37.070312 88.875 -38.867188 88.875 -41.140625 C 88.875 -43.847656 88.007812 -46.097656 86.28125 -47.890625 C 84.5625 -49.691406 82.128906 -50.59375 78.984375 -50.59375 L 6.59375 -50.59375 L 7.375 -60.171875 L 93.171875 -60.171875 L 93.171875 -50.59375 L 90.96875 -50.59375 C 92.800781 -47.519531 93.71875 -43.890625 93.71875 -39.703125 C 93.71875 -35.523438 92.65625 -32.171875 90.53125 -29.640625 C 88.40625 -27.109375 85.472656 -25.84375 81.734375 -25.84375 C 79.378906 -25.84375 77.03125 -26.394531 74.6875 -27.5 C 74.90625 -26.695312 75.066406 -25.890625 75.171875 -25.078125 C 75.285156 -24.273438 75.34375 -23.429688 75.34375 -22.546875 C 75.34375 -20.054688 75.101562 -17.4375 74.625 -14.6875 C 74.15625 -11.9375 73.316406 -9.347656 72.109375 -6.921875 C 70.898438 -4.503906 69.210938 -2.546875 67.046875 -1.046875 C 64.878906 0.453125 62.109375 1.203125 58.734375 1.203125 C 54.191406 1.203125 50.507812 -0.171875 47.6875 -2.921875 C 44.863281 -5.671875 42.753906 -9.242188 41.359375 -13.640625 C 39.890625 -9.171875 37.78125 -5.578125 35.03125 -2.859375 C 32.28125 -0.148438 28.375 1.203125 23.3125 1.203125 Z M 41.90625 -33.4375 C 40.070312 -33.4375 38.566406 -34.019531 37.390625 -35.1875 C 36.222656 -36.363281 35.640625 -37.832031 35.640625 -39.59375 C 35.640625 -41.351562 36.222656 -42.820312 37.390625 -44 C 38.566406 -45.175781 40.070312 -45.765625 41.90625 -45.765625 C 43.8125 -45.765625 45.332031 -45.175781 46.46875 -44 C 47.613281 -42.820312 48.1875 -41.351562 48.1875 -39.59375 C 48.1875 -37.832031 47.613281 -36.363281 46.46875 -35.1875 C 45.332031 -34.019531 43.8125 -33.4375 41.90625 -33.4375 Z M 41.359375 21.5625 C 39.671875 21.5625 38.347656 21.226562 37.390625 20.5625 C 36.441406 19.90625 35.96875 18.769531 35.96875 17.15625 C 35.96875 16.0625 36.171875 14.578125 36.578125 12.703125 C 36.984375 10.835938 37.476562 8.859375 38.0625 6.765625 C 38.644531 4.671875 39.226562 2.742188 39.8125 0.984375 L 42.90625 0.984375 C 43.5625 2.671875 44.179688 4.539062 44.765625 6.59375 C 45.359375 8.65625 45.835938 10.617188 46.203125 12.484375 C 46.566406 14.359375 46.75 15.914062 46.75 17.15625 C 46.75 18.769531 46.269531 19.90625 45.3125 20.5625 C 44.363281 21.226562 43.046875 21.5625 41.359375 21.5625 Z M 111.65625 -31.5625 C 107.257812 -31.5625 103.957031 -33.117188 101.75 -36.234375 C 99.550781 -39.359375 98.378906 -44.144531 98.234375 -50.59375 L 77 -50.59375 L 77.78125 -60.171875 L 98.234375 -60.171875 C 98.597656 -65.742188 100.132812 -70.066406 102.84375 -73.140625 C 105.5625 -76.222656 109.195312 -77.765625 113.75 -77.765625 C 117.851562 -77.765625 121.132812 -76.5 123.59375 -73.96875 C 126.050781 -71.445312 127.644531 -67.910156 128.375 -63.359375 L 123.96875 -62.8125 C 123.238281 -65.082031 122.03125 -66.878906 120.34375 -68.203125 C 118.65625 -69.523438 116.421875 -70.1875 113.640625 -70.1875 C 110.921875 -70.1875 108.644531 -69.320312 106.8125 -67.59375 C 104.976562 -65.875 103.84375 -63.398438 103.40625 -60.171875 L 104.828125 -60.171875 C 111.140625 -60.171875 115.78125 -58.921875 118.75 -56.421875 C 121.71875 -53.929688 123.203125 -50.191406 123.203125 -45.203125 C 123.203125 -41.535156 122.226562 -38.34375 120.28125 -35.625 C 118.34375 -32.914062 115.46875 -31.5625 111.65625 -31.5625 Z M 109.015625 -50.59375 L 103.1875 -50.59375 C 103.1875 -48.539062 103.40625 -46.613281 103.84375 -44.8125 C 104.28125 -43.019531 105.125 -41.59375 106.375 -40.53125 C 107.625 -39.46875 109.421875 -38.9375 111.765625 -38.9375 C 113.816406 -38.9375 115.425781 -39.445312 116.59375 -40.46875 C 117.769531 -41.5 118.359375 -42.929688 118.359375 -44.765625 C 118.359375 -47.117188 117.492188 -48.675781 115.765625 -49.4375 C 114.046875 -50.207031 111.796875 -50.59375 109.015625 -50.59375 Z M 109.015625 -50.59375 "/>
</symbol>
</g>
</defs>
  <g id="kannada-haln:id0:id0" transform="matrix(1.25,0,0,1.25,0.0,0.0)"><g id="kannada-haln:id0:surface1">
<g style="fill:rgb(0%,0%,0%);fill-opacity:1;">
  <use xlink:href="#kannada-haln:id0:glyph0-1" x="16" y="102.09375" class="c0"/>
  <use xlink:href="#kannada-haln:id0:glyph0-2" x="114.5625" y="102.09375" class="c1"/>
</g>
</g>
</g>
  <g id="kannada-haln:id1:id1" transform="matrix(1.25,0,0,1.25,163.203125,13.1640625)"><g id="kannada-haln:id1:surface1">
<g style="fill:rgb(0%,0%,0%);fill-opacity:1;">
  <use xlink:href="#kannada-haln:id1:glyph0-1" x="0" y="120.84375" class="arrow"/>
</g>
</g>
</g>
  <g id="kannada-haln:id2:id2" transform="matrix(1.25,0,0,1.25,295.80078125,0.0)"><g id="kannada-haln:id2:surface1">
<g style="fill:rgb(0%,0%,0%);fill-opacity:1;">
  <use xlink:href="#kannada-haln:id2:glyph0-1" x="16" y="102.09375" class="c0"/>
</g>
</g>
</g>
</svg>
