<!DOCTYPE svg PUBLIC "-//W3C//DTD SVG 1.1//EN" "http://www.w3.org/Graphics/SVG/1.1/DTD/svg11.dtd">
<!-- Created with svg_stack (http://github.com/astraw/svg_stack) --><svg xmlns="http://www.w3.org/2000/svg" xmlns:sodipodi="http://sodipodi.sourceforge.net/DTD/sodipodi-0.dtd" xmlns:xlink="http://www.w3.org/1999/xlink" version="1.1" width="100%" id="gurmukhi-haln" viewBox="0 0 397.94921875 201.40625">
  <defs><g>
<symbol overflow="visible" id="gurmukhi-haln:id0:glyph0-0">
<path style="stroke:none;" d="M 10.34375 0 L 10.34375 -78.546875 L 55.546875 -78.546875 L 55.546875 0 Z M 15.953125 -5.609375 L 49.9375 -5.609375 L 49.9375 -72.9375 L 15.953125 -72.9375 Z M 15.953125 -5.609375 "/>
</symbol>
<symbol overflow="visible" id="gurmukhi-haln:id0:glyph0-1">
<path style="stroke:none;" d="M 4.296875 -21.234375 C 4.296875 -25.847656 5.648438 -30.078125 8.359375 -33.921875 C 11.078125 -37.773438 14.925781 -40.988281 19.90625 -43.5625 C 18.144531 -46.195312 16.660156 -48.960938 15.453125 -51.859375 C 14.242188 -54.753906 13.382812 -57.671875 12.875 -60.609375 L -0.765625 -60.609375 L -0.765625 -68.421875 L 74.90625 -68.421875 L 74.90625 -60.609375 L 61.265625 -60.609375 C 60.242188 -54.597656 57.972656 -48.953125 54.453125 -43.671875 C 59.878906 -40.585938 63.800781 -37.101562 66.21875 -33.21875 C 68.632812 -29.332031 69.84375 -25.375 69.84375 -21.34375 C 69.84375 -19.21875 69.476562 -16.925781 68.75 -14.46875 C 68.019531 -12.007812 66.8125 -9.679688 65.125 -7.484375 C 63.4375 -5.285156 61.109375 -3.488281 58.140625 -2.09375 C 55.171875 -0.695312 51.410156 0 46.859375 0 L 46.203125 0 L 45.65625 -8.03125 L 46.859375 -8.03125 C 51.773438 -8.03125 55.367188 -9.257812 57.640625 -11.71875 C 59.910156 -14.175781 61.046875 -17.273438 61.046875 -21.015625 C 61.046875 -24.234375 60.109375 -27.253906 58.234375 -30.078125 C 56.367188 -32.898438 53.457031 -35.34375 49.5 -37.40625 C 45.90625 -33.4375 41.757812 -30.132812 37.0625 -27.5 C 32.445312 -30.0625 28.269531 -33.398438 24.53125 -37.515625 C 21.300781 -35.753906 18.585938 -33.535156 16.390625 -30.859375 C 14.191406 -28.179688 13.09375 -25.046875 13.09375 -21.453125 C 13.09375 -17.492188 14.265625 -14.265625 16.609375 -11.765625 C 18.953125 -9.273438 22.726562 -8.03125 27.9375 -8.03125 L 28.484375 -8.03125 L 27.9375 0 L 27.28125 0 C 22.726562 0 18.96875 -0.695312 16 -2.09375 C 13.03125 -3.488281 10.679688 -5.265625 8.953125 -7.421875 C 7.234375 -9.585938 6.023438 -11.898438 5.328125 -14.359375 C 4.640625 -16.816406 4.296875 -19.109375 4.296875 -21.234375 Z M 52.25 -60.609375 L 21.890625 -60.609375 C 22.691406 -55.253906 24.484375 -50.613281 27.265625 -46.6875 C 30.054688 -42.769531 33.320312 -39.488281 37.0625 -36.84375 C 40.8125 -39.34375 44.0625 -42.585938 46.8125 -46.578125 C 49.5625 -50.578125 51.375 -55.253906 52.25 -60.609375 Z M 13.3125 16.828125 C 11.695312 16.828125 10.28125 16.273438 9.0625 15.171875 C 7.851562 14.066406 7.25 12.523438 7.25 10.546875 C 7.25 8.566406 7.851562 7.023438 9.0625 5.921875 C 10.28125 4.828125 11.695312 4.28125 13.3125 4.28125 C 15 4.28125 16.425781 4.828125 17.59375 5.921875 C 18.769531 7.023438 19.359375 8.566406 19.359375 10.546875 C 19.359375 12.523438 18.789062 14.066406 17.65625 15.171875 C 16.519531 16.273438 15.070312 16.828125 13.3125 16.828125 Z M 13.3125 16.828125 "/>
</symbol>
<symbol overflow="visible" id="gurmukhi-haln:id0:glyph0-2">
<path style="stroke:none;" d="M 2.859375 27.0625 C 1.097656 22.582031 -0.929688 19.296875 -3.234375 17.203125 C -5.546875 15.117188 -7.910156 13.765625 -10.328125 13.140625 C -12.753906 12.515625 -15.03125 12.203125 -17.15625 12.203125 C -17.519531 12.203125 -17.90625 12.203125 -18.3125 12.203125 C -18.71875 12.203125 -19.140625 12.238281 -19.578125 12.3125 L -20.125 3.953125 C -19.539062 3.878906 -19.007812 3.84375 -18.53125 3.84375 C -18.050781 3.84375 -17.664062 3.84375 -17.375 3.84375 C -13.5625 3.84375 -9.910156 4.46875 -6.421875 5.71875 C -2.941406 6.96875 0.257812 9.113281 3.1875 12.15625 C 6.125 15.195312 8.582031 19.394531 10.5625 24.75 Z M 2.859375 27.0625 "/>
</symbol>
</g>
<g>
<symbol overflow="visible" id="gurmukhi-haln:id1:glyph0-0">
<path style="stroke:none;" d="M 5.375 -96.6875 L 69.828125 -96.6875 L 69.828125 0 L 5.375 0 Z M 8.0625 -2.6875 L 67.140625 -2.6875 L 67.140625 -94 L 8.0625 -94 Z M 8.0625 -2.6875 "/>
</symbol>
<symbol overflow="visible" id="gurmukhi-haln:id1:glyph0-1">
<path style="stroke:none;" d="M 68.15625 -13.75 L 66.28125 -18.640625 L 88.09375 -27.390625 L 6.984375 -27.390625 L 6.984375 -34 L 88.09375 -34 L 66.28125 -42.75 L 68.15625 -47.640625 L 99.09375 -34.265625 L 99.09375 -27.125 Z M 68.15625 -13.75 "/>
</symbol>
</g>
<g>
<symbol overflow="visible" id="gurmukhi-haln:id2:glyph0-0">
<path style="stroke:none;" d="M 10.34375 0 L 10.34375 -78.546875 L 55.546875 -78.546875 L 55.546875 0 Z M 15.953125 -5.609375 L 49.9375 -5.609375 L 49.9375 -72.9375 L 15.953125 -72.9375 Z M 15.953125 -5.609375 "/>
</symbol>
<symbol overflow="visible" id="gurmukhi-haln:id2:glyph0-1">
<path style="stroke:none;" d="M 4.296875 -21.234375 C 4.296875 -25.847656 5.648438 -30.078125 8.359375 -33.921875 C 11.078125 -37.773438 14.925781 -40.988281 19.90625 -43.5625 C 18.144531 -46.195312 16.660156 -48.960938 15.453125 -51.859375 C 14.242188 -54.753906 13.382812 -57.671875 12.875 -60.609375 L -0.765625 -60.609375 L -0.765625 -68.421875 L 74.90625 -68.421875 L 74.90625 -60.609375 L 61.265625 -60.609375 C 60.242188 -54.597656 57.972656 -48.953125 54.453125 -43.671875 C 59.878906 -40.585938 63.800781 -37.101562 66.21875 -33.21875 C 68.632812 -29.332031 69.84375 -25.375 69.84375 -21.34375 C 69.84375 -19.21875 69.476562 -16.925781 68.75 -14.46875 C 68.019531 -12.007812 66.8125 -9.679688 65.125 -7.484375 C 63.4375 -5.285156 61.109375 -3.488281 58.140625 -2.09375 C 55.171875 -0.695312 51.410156 0 46.859375 0 L 46.203125 0 L 45.65625 -8.03125 L 46.859375 -8.03125 C 51.773438 -8.03125 55.367188 -9.257812 57.640625 -11.71875 C 59.910156 -14.175781 61.046875 -17.273438 61.046875 -21.015625 C 61.046875 -24.234375 60.109375 -27.253906 58.234375 -30.078125 C 56.367188 -32.898438 53.457031 -35.34375 49.5 -37.40625 C 45.90625 -33.4375 41.757812 -30.132812 37.0625 -27.5 C 32.445312 -30.0625 28.269531 -33.398438 24.53125 -37.515625 C 21.300781 -35.753906 18.585938 -33.535156 16.390625 -30.859375 C 14.191406 -28.179688 13.09375 -25.046875 13.09375 -21.453125 C 13.09375 -17.492188 14.265625 -14.265625 16.609375 -11.765625 C 18.953125 -9.273438 22.726562 -8.03125 27.9375 -8.03125 L 28.484375 -8.03125 L 27.9375 0 L 27.28125 0 C 22.726562 0 18.96875 -0.695312 16 -2.09375 C 13.03125 -3.488281 10.679688 -5.265625 8.953125 -7.421875 C 7.234375 -9.585938 6.023438 -11.898438 5.328125 -14.359375 C 4.640625 -16.816406 4.296875 -19.109375 4.296875 -21.234375 Z M 52.25 -60.609375 L 21.890625 -60.609375 C 22.691406 -55.253906 24.484375 -50.613281 27.265625 -46.6875 C 30.054688 -42.769531 33.320312 -39.488281 37.0625 -36.84375 C 40.8125 -39.34375 44.0625 -42.585938 46.8125 -46.578125 C 49.5625 -50.578125 51.375 -55.253906 52.25 -60.609375 Z M 60.9375 27.0625 C 59.175781 22.582031 57.140625 19.296875 54.828125 17.203125 C 52.523438 15.117188 50.160156 13.765625 47.734375 13.140625 C 45.316406 12.515625 43.046875 12.203125 40.921875 12.203125 C 40.554688 12.203125 40.171875 12.203125 39.765625 12.203125 C 39.359375 12.203125 38.9375 12.238281 38.5 12.3125 L 37.953125 3.953125 C 38.535156 3.878906 39.066406 3.84375 39.546875 3.84375 C 40.023438 3.84375 40.410156 3.84375 40.703125 3.84375 C 44.515625 3.84375 48.160156 4.46875 51.640625 5.71875 C 55.128906 6.96875 58.335938 9.113281 61.265625 12.15625 C 64.203125 15.195312 66.660156 19.394531 68.640625 24.75 Z M 13.3125 16.828125 C 11.695312 16.828125 10.28125 16.273438 9.0625 15.171875 C 7.851562 14.066406 7.25 12.523438 7.25 10.546875 C 7.25 8.566406 7.851562 7.023438 9.0625 5.921875 C 10.28125 4.828125 11.695312 4.28125 13.3125 4.28125 C 15 4.28125 16.425781 4.828125 17.59375 5.921875 C 18.769531 7.023438 19.359375 8.566406 19.359375 10.546875 C 19.359375 12.523438 18.789062 14.066406 17.65625 15.171875 C 16.519531 16.273438 15.070312 16.828125 13.3125 16.828125 Z M 13.3125 16.828125 "/>
</symbol>
</g>
</defs>
  <g id="gurmukhi-haln:id0:id0" transform="matrix(1.25,0,0,1.25,0.0,8.5546875)"><g id="gurmukhi-haln:id0:surface1">
<g style="fill:rgb(0%,0%,0%);fill-opacity:1;">
  <use xlink:href="#gurmukhi-haln:id0:glyph0-1" x="16" y="100.5625" class="c0"/>
  <use xlink:href="#gurmukhi-haln:id0:glyph0-2" x="90.140625" y="100.5625" class="c1"/>
</g>
</g>
</g>
  <g id="gurmukhi-haln:id1:id1" transform="matrix(1.25,0,0,1.25,132.67578125,0.0)"><g id="gurmukhi-haln:id1:surface1">
<g style="fill:rgb(0%,0%,0%);fill-opacity:1;">
  <use xlink:href="#gurmukhi-haln:id1:glyph0-1" x="0" y="120.84375" class="arrow"/>
</g>
</g>
</g>
  <g id="gurmukhi-haln:id2:id2" transform="matrix(1.25,0,0,1.25,265.2734375,8.5546875)"><g id="gurmukhi-haln:id2:surface1">
<g style="fill:rgb(0%,0%,0%);fill-opacity:1;">
  <use xlink:href="#gurmukhi-haln:id2:glyph0-1" x="16" y="100.5625" class="c2"/>
</g>
</g>
</g>
</svg>