<?xml version="1.0" standalone="no"?>
<!DOCTYPE svg PUBLIC "-//W3C//DTD SVG 1.1//EN"
 "http://www.w3.org/Graphics/SVG/1.1/DTD/svg11.dtd">
<!-- Created with svg_stack (http://github.com/astraw/svg_stack) -->
<svg xmlns="http://www.w3.org/2000/svg" xmlns:sodipodi="http://sodipodi.sourceforge.net/DTD/sodipodi-0.dtd" xmlns:xlink="http://www.w3.org/1999/xlink" version="1.1" width="814.27734375" height="201.40625">
  <defs><g>
<symbol overflow="visible" id="id0:glyph0-0">
<path style="stroke:none;" d="M 10.34375 0 L 10.34375 -78.546875 L 55.546875 -78.546875 L 55.546875 0 Z M 15.953125 -5.609375 L 49.9375 -5.609375 L 49.9375 -72.9375 L 15.953125 -72.9375 Z M 15.953125 -5.609375 "/>
</symbol>
<symbol overflow="visible" id="id0:glyph0-1">
<path style="stroke:none;" d="M 9.796875 0 L 9.796875 -60.609375 L -0.765625 -60.609375 L -0.765625 -68.421875 L 9.796875 -68.421875 L 9.796875 -73.484375 C 9.796875 -81.253906 11.296875 -87.375 14.296875 -91.84375 C 17.304688 -96.320312 22.476562 -98.5625 29.8125 -98.5625 C 35.238281 -98.5625 39.675781 -96.984375 43.125 -93.828125 C 46.570312 -90.671875 48.296875 -85.832031 48.296875 -79.3125 C 48.296875 -76.894531 48.070312 -74.472656 47.625 -72.046875 L 39.046875 -72.9375 C 39.191406 -73.738281 39.316406 -74.707031 39.421875 -75.84375 C 39.535156 -76.976562 39.59375 -78.242188 39.59375 -79.640625 C 39.59375 -83.160156 38.84375 -85.910156 37.34375 -87.890625 C 35.84375 -89.867188 33.332031 -90.859375 29.8125 -90.859375 C 26.800781 -90.859375 24.488281 -90.101562 22.875 -88.59375 C 21.257812 -87.09375 20.160156 -85.0625 19.578125 -82.5 C 18.992188 -79.9375 18.703125 -77.003906 18.703125 -73.703125 L 18.703125 -68.421875 L 29.265625 -68.421875 L 29.265625 -60.609375 L 18.703125 -60.609375 L 18.703125 0 Z M 9.796875 0 "/>
</symbol>
<symbol overflow="visible" id="id0:glyph0-2">
<path style="stroke:none;" d="M 47.078125 0 L 47.078125 -18.15625 C 44.585938 -16.976562 42.09375 -16.078125 39.59375 -15.453125 C 37.101562 -14.828125 34.316406 -14.515625 31.234375 -14.515625 C 24.785156 -14.515625 19.359375 -16.515625 14.953125 -20.515625 C 10.554688 -24.515625 6.96875 -29.882812 4.1875 -36.625 C 6.382812 -38.53125 8.210938 -40.582031 9.671875 -42.78125 C 11.140625 -44.988281 11.875 -47.554688 11.875 -50.484375 C 11.875 -52.097656 11.632812 -53.835938 11.15625 -55.703125 C 10.6875 -57.578125 10.046875 -59.210938 9.234375 -60.609375 L -0.765625 -60.609375 L -0.765625 -68.421875 L 66.546875 -68.421875 L 66.546875 -60.609375 L 55.984375 -60.609375 L 55.984375 0 Z M 20.6875 -50.59375 C 20.6875 -49.28125 20.570312 -48.035156 20.34375 -46.859375 L 47.078125 -46.859375 L 47.078125 -60.609375 L 18.703125 -60.609375 C 20.023438 -57.085938 20.6875 -53.75 20.6875 -50.59375 Z M 31.234375 -22.65625 C 34.171875 -22.65625 36.90625 -23.078125 39.4375 -23.921875 C 41.96875 -24.765625 44.515625 -25.957031 47.078125 -27.5 L 47.078125 -39.265625 L 17.484375 -39.265625 C 16.609375 -38.097656 15.617188 -37 14.515625 -35.96875 C 16.640625 -31.570312 19.003906 -28.253906 21.609375 -26.015625 C 24.210938 -23.773438 27.421875 -22.65625 31.234375 -22.65625 Z M 68.640625 27.0625 C 66.878906 22.582031 64.84375 19.296875 62.53125 17.203125 C 60.226562 15.117188 57.863281 13.765625 55.4375 13.140625 C 53.019531 12.515625 50.75 12.203125 48.625 12.203125 C 48.257812 12.203125 47.875 12.203125 47.46875 12.203125 C 47.0625 12.203125 46.640625 12.238281 46.203125 12.3125 L 45.65625 3.953125 C 46.238281 3.878906 46.769531 3.84375 47.25 3.84375 C 47.726562 3.84375 48.113281 3.84375 48.40625 3.84375 C 52.21875 3.84375 55.863281 4.46875 59.34375 5.71875 C 62.832031 6.96875 66.039062 9.113281 68.96875 12.15625 C 71.90625 15.195312 74.363281 19.394531 76.34375 24.75 Z M 68.640625 27.0625 "/>
</symbol>
<symbol overflow="visible" id="id0:glyph0-3">
<path style="stroke:none;" d="M 4.296875 -21.234375 C 4.296875 -25.847656 5.648438 -30.078125 8.359375 -33.921875 C 11.078125 -37.773438 14.925781 -40.988281 19.90625 -43.5625 C 18.144531 -46.195312 16.660156 -48.960938 15.453125 -51.859375 C 14.242188 -54.753906 13.382812 -57.671875 12.875 -60.609375 L -0.765625 -60.609375 L -0.765625 -68.421875 L 74.90625 -68.421875 L 74.90625 -60.609375 L 61.265625 -60.609375 C 60.242188 -54.597656 57.972656 -48.953125 54.453125 -43.671875 C 59.878906 -40.585938 63.800781 -37.101562 66.21875 -33.21875 C 68.632812 -29.332031 69.84375 -25.375 69.84375 -21.34375 C 69.84375 -19.21875 69.476562 -16.925781 68.75 -14.46875 C 68.019531 -12.007812 66.8125 -9.679688 65.125 -7.484375 C 63.4375 -5.285156 61.109375 -3.488281 58.140625 -2.09375 C 55.171875 -0.695312 51.410156 0 46.859375 0 L 46.203125 0 L 45.65625 -8.03125 L 46.859375 -8.03125 C 51.773438 -8.03125 55.367188 -9.257812 57.640625 -11.71875 C 59.910156 -14.175781 61.046875 -17.273438 61.046875 -21.015625 C 61.046875 -24.234375 60.109375 -27.253906 58.234375 -30.078125 C 56.367188 -32.898438 53.457031 -35.34375 49.5 -37.40625 C 45.90625 -33.4375 41.757812 -30.132812 37.0625 -27.5 C 32.445312 -30.0625 28.269531 -33.398438 24.53125 -37.515625 C 21.300781 -35.753906 18.585938 -33.535156 16.390625 -30.859375 C 14.191406 -28.179688 13.09375 -25.046875 13.09375 -21.453125 C 13.09375 -17.492188 14.265625 -14.265625 16.609375 -11.765625 C 18.953125 -9.273438 22.726562 -8.03125 27.9375 -8.03125 L 28.484375 -8.03125 L 27.9375 0 L 27.28125 0 C 22.726562 0 18.96875 -0.695312 16 -2.09375 C 13.03125 -3.488281 10.679688 -5.265625 8.953125 -7.421875 C 7.234375 -9.585938 6.023438 -11.898438 5.328125 -14.359375 C 4.640625 -16.816406 4.296875 -19.109375 4.296875 -21.234375 Z M 52.25 -60.609375 L 21.890625 -60.609375 C 22.691406 -55.253906 24.484375 -50.613281 27.265625 -46.6875 C 30.054688 -42.769531 33.320312 -39.488281 37.0625 -36.84375 C 40.8125 -39.34375 44.0625 -42.585938 46.8125 -46.578125 C 49.5625 -50.578125 51.375 -55.253906 52.25 -60.609375 Z M 52.25 -60.609375 "/>
</symbol>
<symbol overflow="visible" id="id0:glyph0-4">
<path style="stroke:none;" d="M -25.515625 33.65625 C -28.960938 33.65625 -31.65625 33.234375 -33.59375 32.390625 C -35.539062 31.546875 -36.898438 30.445312 -37.671875 29.09375 C -38.441406 27.738281 -38.828125 26.328125 -38.828125 24.859375 C -38.828125 23.023438 -38.316406 21.554688 -37.296875 20.453125 C -40.148438 19.648438 -42.085938 18.441406 -43.109375 16.828125 C -44.140625 15.210938 -44.65625 13.414062 -44.65625 11.4375 C -44.65625 9.238281 -44.085938 7.550781 -42.953125 6.375 C -41.816406 5.207031 -40.347656 4.382812 -38.546875 3.90625 C -36.753906 3.425781 -34.941406 3.1875 -33.109375 3.1875 L -25.1875 3.1875 L -25.1875 1.09375 L -16.28125 1.09375 L -16.28125 6.8125 L -18.921875 9.453125 L -32.78125 9.453125 C -34.101562 9.453125 -35.1875 9.582031 -36.03125 9.84375 C -36.875 10.101562 -37.296875 10.816406 -37.296875 11.984375 C -37.296875 13.304688 -36.6875 14.128906 -35.46875 14.453125 C -34.257812 14.785156 -32.703125 14.953125 -30.796875 14.953125 L -15.84375 14.953125 L -15.84375 21.234375 L -26.0625 21.234375 C -27.75 21.234375 -29.085938 21.34375 -30.078125 21.5625 C -31.066406 21.78125 -31.5625 22.515625 -31.5625 23.765625 C -31.5625 24.785156 -31.007812 25.644531 -29.90625 26.34375 C -28.8125 27.039062 -26.910156 27.390625 -24.203125 27.390625 C -22.515625 27.390625 -21.101562 27.296875 -19.96875 27.109375 C -18.832031 26.929688 -17.492188 26.625 -15.953125 26.1875 L -14.078125 32.125 C -16.128906 32.78125 -18.160156 33.195312 -20.171875 33.375 C -22.191406 33.5625 -23.972656 33.65625 -25.515625 33.65625 Z M 9.90625 43.78125 C 8.070312 40.40625 6.125 37.875 4.0625 36.1875 C 2.007812 34.5 -0.113281 33.363281 -2.3125 32.78125 C -4.507812 32.195312 -6.78125 31.90625 -9.125 31.90625 L -11.65625 31.90625 L -12.203125 23.875 C -11.835938 23.800781 -11.453125 23.742188 -11.046875 23.703125 C -10.648438 23.671875 -10.15625 23.65625 -9.5625 23.65625 C -5.976562 23.65625 -2.535156 24.1875 0.765625 25.25 C 4.066406 26.3125 7.144531 28.144531 10 30.75 C 12.863281 33.351562 15.320312 36.960938 17.375 41.578125 Z M 9.90625 43.78125 "/>
</symbol>
<symbol overflow="visible" id="id0:glyph0-5">
<path style="stroke:none;" d="M 42.6875 0 C 37.914062 0 33.601562 -1.003906 29.75 -3.015625 C 25.90625 -5.035156 22.660156 -7.550781 20.015625 -10.5625 C 17.742188 -13.125 15.78125 -16.3125 14.125 -20.125 C 12.476562 -23.9375 11.472656 -27.898438 11.109375 -32.015625 L 9.125 -32.015625 C 7.070312 -32.015625 5.625 -32.414062 4.78125 -33.21875 C 3.9375 -34.03125 3.515625 -35.019531 3.515625 -36.1875 C 3.515625 -37.945312 4.175781 -39.796875 5.5 -41.734375 C 6.820312 -43.679688 8.398438 -45.316406 10.234375 -46.640625 C 12.066406 -47.960938 13.753906 -48.625 15.296875 -48.625 C 17.054688 -48.625 18.28125 -48.015625 18.96875 -46.796875 C 19.664062 -45.585938 20.015625 -44.175781 20.015625 -42.5625 L 20.015625 -39.8125 L 53.5625 -39.8125 L 53.5625 -60.609375 L -0.765625 -60.609375 L -0.765625 -68.421875 L 73.046875 -68.421875 L 73.046875 -60.609375 L 62.484375 -60.609375 L 62.484375 -19.25 C 62.484375 -12.789062 60.90625 -7.96875 57.75 -4.78125 C 54.59375 -1.59375 49.570312 0 42.6875 0 Z M 53.5625 -20.125 L 53.5625 -32.015625 L 20.015625 -32.015625 C 20.460938 -27.460938 21.800781 -23.367188 24.03125 -19.734375 C 26.269531 -16.109375 29.09375 -13.25 32.5 -11.15625 C 35.914062 -9.070312 39.566406 -8.03125 43.453125 -8.03125 C 45.140625 -8.03125 46.675781 -8.210938 48.0625 -8.578125 C 49.457031 -8.941406 50.597656 -9.601562 51.484375 -10.5625 C 52.140625 -11.363281 52.648438 -12.40625 53.015625 -13.6875 C 53.378906 -14.976562 53.5625 -17.125 53.5625 -20.125 Z M 53.5625 -20.125 "/>
</symbol>
</g>
<g>
<symbol overflow="visible" id="id1:glyph0-0">
<path style="stroke:none;" d="M 5.375 -96.6875 L 69.828125 -96.6875 L 69.828125 0 L 5.375 0 Z M 8.0625 -2.6875 L 67.140625 -2.6875 L 67.140625 -94 L 8.0625 -94 Z M 8.0625 -2.6875 "/>
</symbol>
<symbol overflow="visible" id="id1:glyph0-1">
<path style="stroke:none;" d="M 68.15625 -13.75 L 66.28125 -18.640625 L 88.09375 -27.390625 L 6.984375 -27.390625 L 6.984375 -34 L 88.09375 -34 L 66.28125 -42.75 L 68.15625 -47.640625 L 99.09375 -34.265625 L 99.09375 -27.125 Z M 68.15625 -13.75 "/>
</symbol>
</g>
<g>
<symbol overflow="visible" id="id2:glyph0-0">
<path style="stroke:none;" d="M 10.34375 0 L 10.34375 -78.546875 L 55.546875 -78.546875 L 55.546875 0 Z M 15.953125 -5.609375 L 49.9375 -5.609375 L 49.9375 -72.9375 L 15.953125 -72.9375 Z M 15.953125 -5.609375 "/>
</symbol>
<symbol overflow="visible" id="id2:glyph0-1">
<path style="stroke:none;" d="M 47.078125 0 L 47.078125 -18.15625 C 44.585938 -16.976562 42.09375 -16.078125 39.59375 -15.453125 C 37.101562 -14.828125 34.316406 -14.515625 31.234375 -14.515625 C 24.785156 -14.515625 19.359375 -16.515625 14.953125 -20.515625 C 10.554688 -24.515625 6.96875 -29.882812 4.1875 -36.625 C 6.382812 -38.53125 8.210938 -40.582031 9.671875 -42.78125 C 11.140625 -44.988281 11.875 -47.554688 11.875 -50.484375 C 11.875 -52.097656 11.632812 -53.835938 11.15625 -55.703125 C 10.6875 -57.578125 10.046875 -59.210938 9.234375 -60.609375 L -0.765625 -60.609375 L -0.765625 -68.421875 L 66.546875 -68.421875 L 66.546875 -60.609375 L 55.984375 -60.609375 L 55.984375 0 Z M 20.6875 -50.59375 C 20.6875 -49.28125 20.570312 -48.035156 20.34375 -46.859375 L 47.078125 -46.859375 L 47.078125 -60.609375 L 18.703125 -60.609375 C 20.023438 -57.085938 20.6875 -53.75 20.6875 -50.59375 Z M 31.234375 -22.65625 C 34.171875 -22.65625 36.90625 -23.078125 39.4375 -23.921875 C 41.96875 -24.765625 44.515625 -25.957031 47.078125 -27.5 L 47.078125 -39.265625 L 17.484375 -39.265625 C 16.609375 -38.097656 15.617188 -37 14.515625 -35.96875 C 16.640625 -31.570312 19.003906 -28.253906 21.609375 -26.015625 C 24.210938 -23.773438 27.421875 -22.65625 31.234375 -22.65625 Z M 68.640625 27.0625 C 66.878906 22.582031 64.84375 19.296875 62.53125 17.203125 C 60.226562 15.117188 57.863281 13.765625 55.4375 13.140625 C 53.019531 12.515625 50.75 12.203125 48.625 12.203125 C 48.257812 12.203125 47.875 12.203125 47.46875 12.203125 C 47.0625 12.203125 46.640625 12.238281 46.203125 12.3125 L 45.65625 3.953125 C 46.238281 3.878906 46.769531 3.84375 47.25 3.84375 C 47.726562 3.84375 48.113281 3.84375 48.40625 3.84375 C 52.21875 3.84375 55.863281 4.46875 59.34375 5.71875 C 62.832031 6.96875 66.039062 9.113281 68.96875 12.15625 C 71.90625 15.195312 74.363281 19.394531 76.34375 24.75 Z M 68.640625 27.0625 "/>
</symbol>
<symbol overflow="visible" id="id2:glyph0-2">
<path style="stroke:none;" d="M 4.296875 -21.234375 C 4.296875 -25.847656 5.648438 -30.078125 8.359375 -33.921875 C 11.078125 -37.773438 14.925781 -40.988281 19.90625 -43.5625 C 18.144531 -46.195312 16.660156 -48.960938 15.453125 -51.859375 C 14.242188 -54.753906 13.382812 -57.671875 12.875 -60.609375 L -0.765625 -60.609375 L -0.765625 -68.421875 L 74.90625 -68.421875 L 74.90625 -60.609375 L 61.265625 -60.609375 C 60.242188 -54.597656 57.972656 -48.953125 54.453125 -43.671875 C 59.878906 -40.585938 63.800781 -37.101562 66.21875 -33.21875 C 68.632812 -29.332031 69.84375 -25.375 69.84375 -21.34375 C 69.84375 -19.21875 69.476562 -16.925781 68.75 -14.46875 C 68.019531 -12.007812 66.8125 -9.679688 65.125 -7.484375 C 63.4375 -5.285156 61.109375 -3.488281 58.140625 -2.09375 C 55.171875 -0.695312 51.410156 0 46.859375 0 L 46.203125 0 L 45.65625 -8.03125 L 46.859375 -8.03125 C 51.773438 -8.03125 55.367188 -9.257812 57.640625 -11.71875 C 59.910156 -14.175781 61.046875 -17.273438 61.046875 -21.015625 C 61.046875 -24.234375 60.109375 -27.253906 58.234375 -30.078125 C 56.367188 -32.898438 53.457031 -35.34375 49.5 -37.40625 C 45.90625 -33.4375 41.757812 -30.132812 37.0625 -27.5 C 32.445312 -30.0625 28.269531 -33.398438 24.53125 -37.515625 C 21.300781 -35.753906 18.585938 -33.535156 16.390625 -30.859375 C 14.191406 -28.179688 13.09375 -25.046875 13.09375 -21.453125 C 13.09375 -17.492188 14.265625 -14.265625 16.609375 -11.765625 C 18.953125 -9.273438 22.726562 -8.03125 27.9375 -8.03125 L 28.484375 -8.03125 L 27.9375 0 L 27.28125 0 C 22.726562 0 18.96875 -0.695312 16 -2.09375 C 13.03125 -3.488281 10.679688 -5.265625 8.953125 -7.421875 C 7.234375 -9.585938 6.023438 -11.898438 5.328125 -14.359375 C 4.640625 -16.816406 4.296875 -19.109375 4.296875 -21.234375 Z M 52.25 -60.609375 L 21.890625 -60.609375 C 22.691406 -55.253906 24.484375 -50.613281 27.265625 -46.6875 C 30.054688 -42.769531 33.320312 -39.488281 37.0625 -36.84375 C 40.8125 -39.34375 44.0625 -42.585938 46.8125 -46.578125 C 49.5625 -50.578125 51.375 -55.253906 52.25 -60.609375 Z M 52.25 -60.609375 "/>
</symbol>
<symbol overflow="visible" id="id2:glyph0-3">
<path style="stroke:none;" d="M -25.515625 33.65625 C -28.960938 33.65625 -31.65625 33.234375 -33.59375 32.390625 C -35.539062 31.546875 -36.898438 30.445312 -37.671875 29.09375 C -38.441406 27.738281 -38.828125 26.328125 -38.828125 24.859375 C -38.828125 23.023438 -38.316406 21.554688 -37.296875 20.453125 C -40.148438 19.648438 -42.085938 18.441406 -43.109375 16.828125 C -44.140625 15.210938 -44.65625 13.414062 -44.65625 11.4375 C -44.65625 9.238281 -44.085938 7.550781 -42.953125 6.375 C -41.816406 5.207031 -40.347656 4.382812 -38.546875 3.90625 C -36.753906 3.425781 -34.941406 3.1875 -33.109375 3.1875 L -25.1875 3.1875 L -25.1875 1.09375 L -16.28125 1.09375 L -16.28125 6.8125 L -18.921875 9.453125 L -32.78125 9.453125 C -34.101562 9.453125 -35.1875 9.582031 -36.03125 9.84375 C -36.875 10.101562 -37.296875 10.816406 -37.296875 11.984375 C -37.296875 13.304688 -36.6875 14.128906 -35.46875 14.453125 C -34.257812 14.785156 -32.703125 14.953125 -30.796875 14.953125 L -15.84375 14.953125 L -15.84375 21.234375 L -26.0625 21.234375 C -27.75 21.234375 -29.085938 21.34375 -30.078125 21.5625 C -31.066406 21.78125 -31.5625 22.515625 -31.5625 23.765625 C -31.5625 24.785156 -31.007812 25.644531 -29.90625 26.34375 C -28.8125 27.039062 -26.910156 27.390625 -24.203125 27.390625 C -22.515625 27.390625 -21.101562 27.296875 -19.96875 27.109375 C -18.832031 26.929688 -17.492188 26.625 -15.953125 26.1875 L -14.078125 32.125 C -16.128906 32.78125 -18.160156 33.195312 -20.171875 33.375 C -22.191406 33.5625 -23.972656 33.65625 -25.515625 33.65625 Z M 9.90625 43.78125 C 8.070312 40.40625 6.125 37.875 4.0625 36.1875 C 2.007812 34.5 -0.113281 33.363281 -2.3125 32.78125 C -4.507812 32.195312 -6.78125 31.90625 -9.125 31.90625 L -11.65625 31.90625 L -12.203125 23.875 C -11.835938 23.800781 -11.453125 23.742188 -11.046875 23.703125 C -10.648438 23.671875 -10.15625 23.65625 -9.5625 23.65625 C -5.976562 23.65625 -2.535156 24.1875 0.765625 25.25 C 4.066406 26.3125 7.144531 28.144531 10 30.75 C 12.863281 33.351562 15.320312 36.960938 17.375 41.578125 Z M 9.90625 43.78125 "/>
</symbol>
<symbol overflow="visible" id="id2:glyph0-4">
<path style="stroke:none;" d="M 9.796875 0 L 9.796875 -60.609375 L -0.765625 -60.609375 L -0.765625 -68.421875 L 9.796875 -68.421875 L 9.796875 -73.484375 C 9.796875 -81.253906 11.296875 -87.375 14.296875 -91.84375 C 17.304688 -96.320312 22.476562 -98.5625 29.8125 -98.5625 C 35.238281 -98.5625 39.675781 -96.984375 43.125 -93.828125 C 46.570312 -90.671875 48.296875 -85.832031 48.296875 -79.3125 C 48.296875 -76.894531 48.070312 -74.472656 47.625 -72.046875 L 39.046875 -72.9375 C 39.191406 -73.738281 39.316406 -74.707031 39.421875 -75.84375 C 39.535156 -76.976562 39.59375 -78.242188 39.59375 -79.640625 C 39.59375 -83.160156 38.84375 -85.910156 37.34375 -87.890625 C 35.84375 -89.867188 33.332031 -90.859375 29.8125 -90.859375 C 26.800781 -90.859375 24.488281 -90.101562 22.875 -88.59375 C 21.257812 -87.09375 20.160156 -85.0625 19.578125 -82.5 C 18.992188 -79.9375 18.703125 -77.003906 18.703125 -73.703125 L 18.703125 -68.421875 L 29.265625 -68.421875 L 29.265625 -60.609375 L 18.703125 -60.609375 L 18.703125 0 Z M 9.796875 0 "/>
</symbol>
<symbol overflow="visible" id="id2:glyph0-5">
<path style="stroke:none;" d="M 42.6875 0 C 37.914062 0 33.601562 -1.003906 29.75 -3.015625 C 25.90625 -5.035156 22.660156 -7.550781 20.015625 -10.5625 C 17.742188 -13.125 15.78125 -16.3125 14.125 -20.125 C 12.476562 -23.9375 11.472656 -27.898438 11.109375 -32.015625 L 9.125 -32.015625 C 7.070312 -32.015625 5.625 -32.414062 4.78125 -33.21875 C 3.9375 -34.03125 3.515625 -35.019531 3.515625 -36.1875 C 3.515625 -37.945312 4.175781 -39.796875 5.5 -41.734375 C 6.820312 -43.679688 8.398438 -45.316406 10.234375 -46.640625 C 12.066406 -47.960938 13.753906 -48.625 15.296875 -48.625 C 17.054688 -48.625 18.28125 -48.015625 18.96875 -46.796875 C 19.664062 -45.585938 20.015625 -44.175781 20.015625 -42.5625 L 20.015625 -39.8125 L 53.5625 -39.8125 L 53.5625 -60.609375 L -0.765625 -60.609375 L -0.765625 -68.421875 L 73.046875 -68.421875 L 73.046875 -60.609375 L 62.484375 -60.609375 L 62.484375 -19.25 C 62.484375 -12.789062 60.90625 -7.96875 57.75 -4.78125 C 54.59375 -1.59375 49.570312 0 42.6875 0 Z M 53.5625 -20.125 L 53.5625 -32.015625 L 20.015625 -32.015625 C 20.460938 -27.460938 21.800781 -23.367188 24.03125 -19.734375 C 26.269531 -16.109375 29.09375 -13.25 32.5 -11.15625 C 35.914062 -9.070312 39.566406 -8.03125 43.453125 -8.03125 C 45.140625 -8.03125 46.675781 -8.210938 48.0625 -8.578125 C 49.457031 -8.941406 50.597656 -9.601562 51.484375 -10.5625 C 52.140625 -11.363281 52.648438 -12.40625 53.015625 -13.6875 C 53.378906 -14.976562 53.5625 -17.125 53.5625 -20.125 Z M 53.5625 -20.125 "/>
</symbol>
</g>
</defs>
  <g id="id0:id0" transform="matrix(1.25,0,0,1.25,0.0,8.5546875)"><g id="id0:surface1">
<g style="fill:rgb(0%,0%,0%);fill-opacity:1;">
  <use xlink:href="#id0:glyph0-1" x="16" y="100.5625"/>
  <use xlink:href="#id0:glyph0-2" x="44.484375" y="100.5625"/>
  <use xlink:href="#id0:glyph0-3" x="110.265625" y="100.5625"/>
  <use xlink:href="#id0:glyph0-4" x="184.40625" y="100.5625"/>
  <use xlink:href="#id0:glyph0-5" x="184.40625" y="100.5625"/>
</g>
</g>
</g>
  <g id="id1:id1" transform="matrix(1.25,0,0,1.25,340.83984375,0.0)"><g id="id1:surface1">
<g style="fill:rgb(0%,0%,0%);fill-opacity:1;">
  <use xlink:href="#id1:glyph0-1" x="0" y="120.84375"/>
</g>
</g>
</g>
  <g id="id2:id2" transform="matrix(1.25,0,0,1.25,473.4375,8.5546875)"><g id="id2:surface1">
<g style="fill:rgb(0%,0%,0%);fill-opacity:1;">
  <use xlink:href="#id2:glyph0-1" x="16" y="100.5625"/>
  <use xlink:href="#id2:glyph0-2" x="81.78125" y="100.5625"/>
  <use xlink:href="#id2:glyph0-3" x="155.921875" y="100.5625"/>
  <use xlink:href="#id2:glyph0-4" x="155.921875" y="100.5625"/>
  <use xlink:href="#id2:glyph0-5" x="184.40625" y="100.5625"/>
</g>
</g>
</g>
</svg>
