<?xml version="1.0" standalone="no"?>
<!DOCTYPE svg PUBLIC "-//W3C//DTD SVG 1.1//EN"
 "http://www.w3.org/Graphics/SVG/1.1/DTD/svg11.dtd">
<!-- Created with svg_stack (http://github.com/astraw/svg_stack) -->
<svg xmlns="http://www.w3.org/2000/svg" xmlns:sodipodi="http://sodipodi.sourceforge.net/DTD/sodipodi-0.dtd" xmlns:xlink="http://www.w3.org/1999/xlink" version="1.1" width="423.80859375" height="209.66796875">
  <defs><g>
<symbol overflow="visible" id="id0:glyph0-0">
<path style="stroke:none;" d="M 10.34375 0 L 10.34375 -78.546875 L 55.546875 -78.546875 L 55.546875 0 Z M 15.953125 -5.609375 L 49.9375 -5.609375 L 49.9375 -72.9375 L 15.953125 -72.9375 Z M 15.953125 -5.609375 "/>
</symbol>
<symbol overflow="visible" id="id0:glyph0-1">
<path style="stroke:none;" d="M 88.984375 -62.15625 L 88.546875 -61.046875 L 75.453125 -61.046875 L 75.453125 2.640625 L 74.46875 3.1875 L 66.4375 -0.875 L 66.4375 -40.15625 C 63.4375 -38.25 60.285156 -35.992188 56.984375 -33.390625 C 53.679688 -30.785156 50.820312 -28.269531 48.40625 -25.84375 C 47.882812 -22.769531 46.910156 -19.726562 45.484375 -16.71875 C 44.054688 -13.707031 42.425781 -11.191406 40.59375 -9.171875 C 38.757812 -7.160156 36.890625 -6.15625 34.984375 -6.15625 C 33.441406 -6.15625 32.210938 -6.6875 31.296875 -7.75 C 30.378906 -8.8125 29.921875 -10.148438 29.921875 -11.765625 C 29.921875 -13.453125 30.414062 -15.378906 31.40625 -17.546875 C 32.394531 -19.710938 33.675781 -21.894531 35.25 -24.09375 C 36.832031 -26.289062 38.503906 -28.269531 40.265625 -30.03125 C 40.847656 -33.550781 41.007812 -37.414062 40.75 -41.625 C 40.5 -45.84375 39.859375 -49.863281 38.828125 -53.6875 C 35.816406 -51.476562 32.863281 -49.050781 29.96875 -46.40625 C 27.070312 -43.769531 24.488281 -41.132812 22.21875 -38.5 C 21.851562 -35.414062 20.988281 -32.40625 19.625 -29.46875 C 18.269531 -26.539062 16.710938 -24.140625 14.953125 -22.265625 C 13.191406 -20.398438 11.472656 -19.46875 9.796875 -19.46875 C 8.398438 -19.46875 7.171875 -19.941406 6.109375 -20.890625 C 5.046875 -21.847656 4.515625 -23.242188 4.515625 -25.078125 C 4.515625 -27.347656 5.46875 -30.132812 7.375 -33.4375 C 9.28125 -36.738281 11.804688 -39.96875 14.953125 -43.125 C 15.023438 -45.832031 14.710938 -48.816406 14.015625 -52.078125 C 13.328125 -55.347656 12.46875 -58.335938 11.4375 -61.046875 L -0.765625 -61.046875 L -3.1875 -67.4375 L -2.640625 -68.421875 L 14.515625 -68.421875 C 15.910156 -65.628906 17.226562 -62.34375 18.46875 -58.5625 C 19.71875 -54.789062 20.640625 -51.367188 21.234375 -48.296875 C 24.015625 -50.929688 27.144531 -53.695312 30.625 -56.59375 C 34.113281 -59.488281 37.328125 -61.851562 40.265625 -63.6875 L 40.921875 -63.6875 C 42.171875 -61.050781 43.289062 -58.082031 44.28125 -54.78125 C 45.269531 -51.476562 46.070312 -48.140625 46.6875 -44.765625 C 47.3125 -41.390625 47.734375 -38.238281 47.953125 -35.3125 C 50.453125 -37.65625 53.367188 -40.070312 56.703125 -42.5625 C 60.035156 -45.0625 63.28125 -47.265625 66.4375 -49.171875 L 66.4375 -68.421875 L 86.5625 -68.421875 Z M 67.109375 -96.359375 C 71.648438 -96.359375 75.128906 -95.019531 77.546875 -92.34375 C 79.972656 -89.664062 81.1875 -86.566406 81.1875 -83.046875 C 81.1875 -81.066406 80.835938 -79.195312 80.140625 -77.4375 C 79.441406 -75.675781 78.582031 -74.097656 77.5625 -72.703125 L 72.171875 -72.703125 C 72.828125 -73.734375 73.484375 -75 74.140625 -76.5 C 74.804688 -78.007812 75.140625 -79.570312 75.140625 -81.1875 C 75.140625 -83.3125 74.476562 -85.125 73.15625 -86.625 C 71.832031 -88.125 69.78125 -88.875 67 -88.875 C 64.5 -88.875 62.550781 -88.175781 61.15625 -86.78125 C 59.769531 -85.394531 59.078125 -83.566406 59.078125 -81.296875 C 59.078125 -78.359375 60.066406 -75.492188 62.046875 -72.703125 L 56.875 -72.703125 C 55.695312 -73.878906 54.78125 -75.273438 54.125 -76.890625 C 53.46875 -78.503906 53.140625 -80.082031 53.140625 -81.625 C 53.140625 -82.570312 53.265625 -83.46875 53.515625 -84.3125 C 53.773438 -85.15625 54.160156 -85.832031 54.671875 -86.34375 C 52.984375 -85.613281 51.296875 -85.03125 49.609375 -84.59375 C 47.921875 -84.15625 46.125 -83.9375 44.21875 -83.9375 C 40.707031 -83.9375 37.796875 -85.050781 35.484375 -87.28125 C 33.171875 -89.519531 32.015625 -92.328125 32.015625 -95.703125 C 32.015625 -96.722656 32.140625 -97.742188 32.390625 -98.765625 C 32.648438 -99.796875 32.960938 -100.71875 33.328125 -101.53125 L 33.890625 -101.53125 C 34.472656 -98.15625 35.679688 -95.660156 37.515625 -94.046875 C 39.347656 -92.429688 41.507812 -91.625 44 -91.625 C 46.425781 -91.625 48.921875 -92.023438 51.484375 -92.828125 C 54.046875 -93.640625 56.644531 -94.429688 59.28125 -95.203125 C 61.925781 -95.972656 64.535156 -96.359375 67.109375 -96.359375 Z M 67.109375 -96.359375 "/>
</symbol>
<symbol overflow="visible" id="id0:glyph0-2">
<path style="stroke:none;" d="M -19.25 -104.828125 L -11.984375 -101.3125 L -11.984375 -75.234375 L -13.09375 -74.6875 L -20.34375 -78.203125 L -20.34375 -104.28125 Z M -19.25 -104.828125 "/>
</symbol>
</g>
<g>
<symbol overflow="visible" id="id1:glyph0-0">
<path style="stroke:none;" d="M 5.375 -96.6875 L 69.828125 -96.6875 L 69.828125 0 L 5.375 0 Z M 8.0625 -2.6875 L 67.140625 -2.6875 L 67.140625 -94 L 8.0625 -94 Z M 8.0625 -2.6875 "/>
</symbol>
<symbol overflow="visible" id="id1:glyph0-1">
<path style="stroke:none;" d="M 68.15625 -13.75 L 66.28125 -18.640625 L 88.09375 -27.390625 L 6.984375 -27.390625 L 6.984375 -34 L 88.09375 -34 L 66.28125 -42.75 L 68.15625 -47.640625 L 99.09375 -34.265625 L 99.09375 -27.125 Z M 68.15625 -13.75 "/>
</symbol>
</g>
<g>
<symbol overflow="visible" id="id2:glyph0-0">
<path style="stroke:none;" d="M 10.34375 0 L 10.34375 -78.546875 L 55.546875 -78.546875 L 55.546875 0 Z M 15.953125 -5.609375 L 49.9375 -5.609375 L 49.9375 -72.9375 L 15.953125 -72.9375 Z M 15.953125 -5.609375 "/>
</symbol>
<symbol overflow="visible" id="id2:glyph0-1">
<path style="stroke:none;" d="M 88.984375 -62.15625 L 88.546875 -61.046875 L 75.453125 -61.046875 L 75.453125 2.640625 L 74.46875 3.1875 L 66.4375 -0.875 L 66.4375 -40.15625 C 63.4375 -38.25 60.285156 -35.992188 56.984375 -33.390625 C 53.679688 -30.785156 50.820312 -28.269531 48.40625 -25.84375 C 47.882812 -22.769531 46.910156 -19.726562 45.484375 -16.71875 C 44.054688 -13.707031 42.425781 -11.191406 40.59375 -9.171875 C 38.757812 -7.160156 36.890625 -6.15625 34.984375 -6.15625 C 33.441406 -6.15625 32.210938 -6.6875 31.296875 -7.75 C 30.378906 -8.8125 29.921875 -10.148438 29.921875 -11.765625 C 29.921875 -13.453125 30.414062 -15.378906 31.40625 -17.546875 C 32.394531 -19.710938 33.675781 -21.894531 35.25 -24.09375 C 36.832031 -26.289062 38.503906 -28.269531 40.265625 -30.03125 C 40.847656 -33.550781 41.007812 -37.414062 40.75 -41.625 C 40.5 -45.84375 39.859375 -49.863281 38.828125 -53.6875 C 35.816406 -51.476562 32.863281 -49.050781 29.96875 -46.40625 C 27.070312 -43.769531 24.488281 -41.132812 22.21875 -38.5 C 21.851562 -35.414062 20.988281 -32.40625 19.625 -29.46875 C 18.269531 -26.539062 16.710938 -24.140625 14.953125 -22.265625 C 13.191406 -20.398438 11.472656 -19.46875 9.796875 -19.46875 C 8.398438 -19.46875 7.171875 -19.941406 6.109375 -20.890625 C 5.046875 -21.847656 4.515625 -23.242188 4.515625 -25.078125 C 4.515625 -27.347656 5.46875 -30.132812 7.375 -33.4375 C 9.28125 -36.738281 11.804688 -39.96875 14.953125 -43.125 C 15.023438 -45.832031 14.710938 -48.816406 14.015625 -52.078125 C 13.328125 -55.347656 12.46875 -58.335938 11.4375 -61.046875 L -0.765625 -61.046875 L -3.1875 -67.4375 L -2.640625 -68.421875 L 14.515625 -68.421875 C 15.910156 -65.628906 17.226562 -62.34375 18.46875 -58.5625 C 19.71875 -54.789062 20.640625 -51.367188 21.234375 -48.296875 C 24.015625 -50.929688 27.144531 -53.695312 30.625 -56.59375 C 34.113281 -59.488281 37.328125 -61.851562 40.265625 -63.6875 L 40.921875 -63.6875 C 42.171875 -61.050781 43.289062 -58.082031 44.28125 -54.78125 C 45.269531 -51.476562 46.070312 -48.140625 46.6875 -44.765625 C 47.3125 -41.390625 47.734375 -38.238281 47.953125 -35.3125 C 50.453125 -37.65625 53.367188 -40.070312 56.703125 -42.5625 C 60.035156 -45.0625 63.28125 -47.265625 66.4375 -49.171875 L 66.4375 -68.421875 L 86.5625 -68.421875 Z M 67.109375 -96.359375 C 71.648438 -96.359375 75.128906 -95.019531 77.546875 -92.34375 C 79.972656 -89.664062 81.1875 -86.566406 81.1875 -83.046875 C 81.1875 -81.066406 80.835938 -79.195312 80.140625 -77.4375 C 79.441406 -75.675781 78.582031 -74.097656 77.5625 -72.703125 L 72.171875 -72.703125 C 72.828125 -73.734375 73.484375 -75 74.140625 -76.5 C 74.804688 -78.007812 75.140625 -79.570312 75.140625 -81.1875 C 75.140625 -83.3125 74.476562 -85.125 73.15625 -86.625 C 71.832031 -88.125 69.78125 -88.875 67 -88.875 C 64.5 -88.875 62.550781 -88.175781 61.15625 -86.78125 C 59.769531 -85.394531 59.078125 -83.566406 59.078125 -81.296875 C 59.078125 -78.359375 60.066406 -75.492188 62.046875 -72.703125 L 56.875 -72.703125 C 55.695312 -73.878906 54.78125 -75.273438 54.125 -76.890625 C 53.46875 -78.503906 53.140625 -80.082031 53.140625 -81.625 C 53.140625 -82.570312 53.265625 -83.46875 53.515625 -84.3125 C 53.773438 -85.15625 54.160156 -85.832031 54.671875 -86.34375 C 52.984375 -85.613281 51.296875 -85.03125 49.609375 -84.59375 C 47.921875 -84.15625 46.125 -83.9375 44.21875 -83.9375 C 40.707031 -83.9375 37.796875 -85.050781 35.484375 -87.28125 C 33.171875 -89.519531 32.015625 -92.328125 32.015625 -95.703125 C 32.015625 -96.722656 32.140625 -97.742188 32.390625 -98.765625 C 32.648438 -99.796875 32.960938 -100.71875 33.328125 -101.53125 L 33.890625 -101.53125 C 34.472656 -98.15625 35.679688 -95.660156 37.515625 -94.046875 C 39.347656 -92.429688 41.507812 -91.625 44 -91.625 C 46.425781 -91.625 48.921875 -92.023438 51.484375 -92.828125 C 54.046875 -93.640625 56.644531 -94.429688 59.28125 -95.203125 C 61.925781 -95.972656 64.535156 -96.359375 67.109375 -96.359375 Z M 67.109375 -96.359375 "/>
</symbol>
<symbol overflow="visible" id="id2:glyph0-2">
<path style="stroke:none;" d="M -19.25 -104.828125 L -11.984375 -101.3125 L -11.984375 -75.234375 L -13.09375 -74.6875 L -20.34375 -78.203125 L -20.34375 -104.28125 Z M -19.25 -104.828125 "/>
</symbol>
</g>
</defs>
  <g id="id0:id0" transform="matrix(1.25,0,0,1.25,0.0,0.0)"><g id="id0:surface1">
<g style="fill:rgb(0%,0%,0%);fill-opacity:1;">
  <use xlink:href="#id0:glyph0-1" x="16" y="118.65625"/>
  <use xlink:href="#id0:glyph0-2" x="100.484375" y="118.65625"/>
</g>
</g>
</g>
  <g id="id1:id1" transform="matrix(1.25,0,0,1.25,145.60546875,4.130859375)"><g id="id1:surface1">
<g style="fill:rgb(0%,0%,0%);fill-opacity:1;">
  <use xlink:href="#id1:glyph0-1" x="0" y="120.84375"/>
</g>
</g>
</g>
  <g id="id2:id2" transform="matrix(1.25,0,0,1.25,278.203125,0.0)"><g id="id2:surface1">
<g style="fill:rgb(0%,0%,0%);fill-opacity:1;">
  <use xlink:href="#id2:glyph0-1" x="16" y="118.65625"/>
  <use xlink:href="#id2:glyph0-2" x="117.53125" y="107.765625"/>
</g>
</g>
</g>
</svg>
