<!DOCTYPE svg PUBLIC "-//W3C//DTD SVG 1.1//EN" "http://www.w3.org/Graphics/SVG/1.1/DTD/svg11.dtd">
<!-- Created with svg_stack (http://github.com/astraw/svg_stack) --><svg xmlns="http://www.w3.org/2000/svg" xmlns:sodipodi="http://sodipodi.sourceforge.net/DTD/sodipodi-0.dtd" xmlns:xlink="http://www.w3.org/1999/xlink" version="1.1" width="100%" id="gurmukhi-blws" viewBox="0 0 461.484375 201.40625">
  <defs><g>
<symbol overflow="visible" id="gurmukhi-blws:id0:glyph0-0">
<path style="stroke:none;" d="M 10.34375 0 L 10.34375 -78.546875 L 55.546875 -78.546875 L 55.546875 0 Z M 15.953125 -5.609375 L 49.9375 -5.609375 L 49.9375 -72.9375 L 15.953125 -72.9375 Z M 15.953125 -5.609375 "/>
</symbol>
<symbol overflow="visible" id="gurmukhi-blws:id0:glyph0-1">
<path style="stroke:none;" d="M 53.6875 0 C 53.382812 -4.25 52.867188 -8.207031 52.140625 -11.875 C 51.410156 -15.539062 50.421875 -18.953125 49.171875 -22.109375 C 46.453125 -18.585938 43.09375 -15.742188 39.09375 -13.578125 C 35.101562 -11.421875 30.46875 -10.34375 25.1875 -10.34375 C 18.664062 -10.34375 13.476562 -12.023438 9.625 -15.390625 C 5.769531 -18.765625 3.84375 -23.460938 3.84375 -29.484375 C 3.84375 -33.585938 4.816406 -37.050781 6.765625 -39.875 C 8.710938 -42.695312 11.296875 -44.84375 14.515625 -46.3125 C 17.742188 -47.78125 21.335938 -48.515625 25.296875 -48.515625 C 30.429688 -48.515625 34.867188 -47.613281 38.609375 -45.8125 C 42.347656 -44.019531 45.6875 -41.4375 48.625 -38.0625 C 49.132812 -40.1875 49.5 -42.3125 49.71875 -44.4375 C 49.9375 -46.5625 50.046875 -48.539062 50.046875 -50.375 C 50.046875 -51.84375 49.9375 -53.566406 49.71875 -55.546875 C 49.5 -57.523438 49.242188 -59.210938 48.953125 -60.609375 L -0.765625 -60.609375 L -0.765625 -68.421875 L 69.1875 -68.421875 L 69.1875 -60.609375 L 57.859375 -60.609375 C 58.078125 -59.503906 58.296875 -57.90625 58.515625 -55.8125 C 58.734375 -53.726562 58.84375 -51.914062 58.84375 -50.375 C 58.84375 -47 58.492188 -43.570312 57.796875 -40.09375 C 57.109375 -36.613281 55.957031 -33.296875 54.34375 -30.140625 C 56.90625 -25.671875 58.789062 -20.757812 60 -15.40625 C 61.207031 -10.050781 62.070312 -4.914062 62.59375 0 Z M 12.875 -29.375 C 12.875 -25.707031 14.046875 -22.9375 16.390625 -21.0625 C 18.734375 -19.195312 21.703125 -18.265625 25.296875 -18.265625 C 30.285156 -18.265625 34.410156 -19.398438 37.671875 -21.671875 C 40.929688 -23.941406 43.554688 -26.65625 45.546875 -29.8125 C 43.046875 -33.257812 40.179688 -35.9375 36.953125 -37.84375 C 33.734375 -39.75 30.101562 -40.703125 26.0625 -40.703125 C 22.25 -40.703125 19.097656 -39.765625 16.609375 -37.890625 C 14.117188 -36.023438 12.875 -33.1875 12.875 -29.375 Z M 12.875 -29.375 "/>
</symbol>
<symbol overflow="visible" id="gurmukhi-blws:id0:glyph0-2">
<path style="stroke:none;" d="M 31.015625 -50.265625 C 28.960938 -50.265625 27.9375 -51.328125 27.9375 -53.453125 C 27.9375 -55.515625 28.960938 -56.546875 31.015625 -56.546875 C 33.210938 -56.546875 34.3125 -55.515625 34.3125 -53.453125 C 34.3125 -51.328125 33.210938 -50.265625 31.015625 -50.265625 Z M 45.3125 -44.765625 C 43.1875 -44.765625 42.125 -45.828125 42.125 -47.953125 C 42.125 -50.085938 43.1875 -51.15625 45.3125 -51.15625 C 47.445312 -51.15625 48.515625 -50.085938 48.515625 -47.953125 C 48.515625 -45.828125 47.445312 -44.765625 45.3125 -44.765625 Z M 16.828125 -44.765625 C 14.773438 -44.765625 13.75 -45.828125 13.75 -47.953125 C 13.75 -50.085938 14.773438 -51.15625 16.828125 -51.15625 C 18.953125 -51.15625 20.015625 -50.085938 20.015625 -47.953125 C 20.015625 -45.828125 18.953125 -44.765625 16.828125 -44.765625 Z M 11.984375 -31.125 C 9.859375 -31.125 8.796875 -32.1875 8.796875 -34.3125 C 8.796875 -36.375 9.859375 -37.40625 11.984375 -37.40625 C 14.035156 -37.40625 15.0625 -36.375 15.0625 -34.3125 C 15.0625 -32.1875 14.035156 -31.125 11.984375 -31.125 Z M 50.265625 -31.125 C 48.140625 -31.125 47.078125 -32.1875 47.078125 -34.3125 C 47.078125 -36.375 48.140625 -37.40625 50.265625 -37.40625 C 52.390625 -37.40625 53.453125 -36.375 53.453125 -34.3125 C 53.453125 -32.1875 52.390625 -31.125 50.265625 -31.125 Z M 16.828125 -17.375 C 14.773438 -17.375 13.75 -18.4375 13.75 -20.5625 C 13.75 -22.695312 14.773438 -23.765625 16.828125 -23.765625 C 18.953125 -23.765625 20.015625 -22.695312 20.015625 -20.5625 C 20.015625 -18.4375 18.953125 -17.375 16.828125 -17.375 Z M 45.3125 -17.375 C 43.1875 -17.375 42.125 -18.4375 42.125 -20.5625 C 42.125 -22.695312 43.1875 -23.765625 45.3125 -23.765625 C 47.445312 -23.765625 48.515625 -22.695312 48.515625 -20.5625 C 48.515625 -18.4375 47.445312 -17.375 45.3125 -17.375 Z M 31.015625 -11.875 C 28.960938 -11.875 27.9375 -12.9375 27.9375 -15.0625 C 27.9375 -17.195312 28.960938 -18.265625 31.015625 -18.265625 C 33.210938 -18.265625 34.3125 -17.195312 34.3125 -15.0625 C 34.3125 -12.9375 33.210938 -11.875 31.015625 -11.875 Z M 31.015625 -11.875 "/>
</symbol>
<symbol overflow="visible" id="gurmukhi-blws:id0:glyph0-3">
<path style="stroke:none;" d="M -1.546875 29.484375 C -3.304688 26.910156 -5.265625 24.523438 -7.421875 22.328125 C -9.585938 20.128906 -12.0625 18.332031 -14.84375 16.9375 C -16.09375 18.257812 -17.597656 19.304688 -19.359375 20.078125 C -21.117188 20.847656 -23.207031 21.234375 -25.625 21.234375 C -28.195312 21.234375 -30.398438 20.71875 -32.234375 19.6875 C -34.066406 18.664062 -34.984375 16.90625 -34.984375 14.40625 C -34.984375 11.914062 -33.972656 10.175781 -31.953125 9.1875 C -29.941406 8.195312 -27.578125 7.703125 -24.859375 7.703125 C -23.828125 7.703125 -22.816406 7.773438 -21.828125 7.921875 C -20.835938 8.066406 -19.867188 8.210938 -18.921875 8.359375 C -18.847656 8.066406 -18.789062 7.753906 -18.75 7.421875 C -18.71875 7.097656 -18.703125 6.675781 -18.703125 6.15625 L -18.703125 0 L -9.796875 0 L -9.796875 1.875 C -9.796875 4.070312 -9.882812 5.828125 -10.0625 7.140625 C -10.25 8.460938 -10.5625 9.640625 -11 10.671875 C -7.914062 12.066406 -5.09375 13.988281 -2.53125 16.4375 C 0.03125 18.894531 2.523438 21.8125 4.953125 25.1875 Z M -1.546875 29.484375 "/>
</symbol>
</g>
<g>
<symbol overflow="visible" id="gurmukhi-blws:id1:glyph0-0">
<path style="stroke:none;" d="M 5.375 -96.6875 L 69.828125 -96.6875 L 69.828125 0 L 5.375 0 Z M 8.0625 -2.6875 L 67.140625 -2.6875 L 67.140625 -94 L 8.0625 -94 Z M 8.0625 -2.6875 "/>
</symbol>
<symbol overflow="visible" id="gurmukhi-blws:id1:glyph0-1">
<path style="stroke:none;" d="M 68.15625 -13.75 L 66.28125 -18.640625 L 88.09375 -27.390625 L 6.984375 -27.390625 L 6.984375 -34 L 88.09375 -34 L 66.28125 -42.75 L 68.15625 -47.640625 L 99.09375 -34.265625 L 99.09375 -27.125 Z M 68.15625 -13.75 "/>
</symbol>
</g>
<g>
<symbol overflow="visible" id="gurmukhi-blws:id2:glyph0-0">
<path style="stroke:none;" d="M 10.34375 0 L 10.34375 -78.546875 L 55.546875 -78.546875 L 55.546875 0 Z M 15.953125 -5.609375 L 49.9375 -5.609375 L 49.9375 -72.9375 L 15.953125 -72.9375 Z M 15.953125 -5.609375 "/>
</symbol>
<symbol overflow="visible" id="gurmukhi-blws:id2:glyph0-1">
<path style="stroke:none;" d="M 42.125 29.484375 C 40.363281 26.910156 38.398438 24.523438 36.234375 22.328125 C 34.078125 20.128906 31.601562 18.332031 28.8125 16.9375 C 27.570312 18.257812 26.070312 19.304688 24.3125 20.078125 C 22.550781 20.847656 20.5 21.234375 18.15625 21.234375 C 15.507812 21.234375 13.269531 20.71875 11.4375 19.6875 C 9.601562 18.664062 8.6875 16.90625 8.6875 14.40625 C 8.6875 11.914062 9.691406 10.175781 11.703125 9.1875 C 13.722656 8.195312 16.128906 7.703125 18.921875 7.703125 C 19.941406 7.703125 20.945312 7.773438 21.9375 7.921875 C 22.9375 8.066406 23.910156 8.210938 24.859375 8.359375 C 24.929688 7.992188 24.96875 7.609375 24.96875 7.203125 C 24.96875 6.796875 24.96875 6.445312 24.96875 6.15625 L 24.96875 -10.34375 C 18.519531 -10.414062 13.382812 -12.132812 9.5625 -15.5 C 5.75 -18.875 3.84375 -23.535156 3.84375 -29.484375 C 3.84375 -33.585938 4.816406 -37.050781 6.765625 -39.875 C 8.710938 -42.695312 11.296875 -44.84375 14.515625 -46.3125 C 17.742188 -47.78125 21.335938 -48.515625 25.296875 -48.515625 C 30.429688 -48.515625 34.867188 -47.613281 38.609375 -45.8125 C 42.347656 -44.019531 45.6875 -41.4375 48.625 -38.0625 C 49.132812 -40.1875 49.5 -42.3125 49.71875 -44.4375 C 49.9375 -46.5625 50.046875 -48.539062 50.046875 -50.375 C 50.046875 -51.84375 49.9375 -53.566406 49.71875 -55.546875 C 49.5 -57.523438 49.242188 -59.210938 48.953125 -60.609375 L -0.765625 -60.609375 L -0.765625 -68.421875 L 69.1875 -68.421875 L 69.1875 -60.609375 L 57.859375 -60.609375 C 58.078125 -59.503906 58.296875 -57.90625 58.515625 -55.8125 C 58.734375 -53.726562 58.84375 -51.914062 58.84375 -50.375 C 58.84375 -47 58.492188 -43.570312 57.796875 -40.09375 C 57.109375 -36.613281 55.957031 -33.296875 54.34375 -30.140625 C 56.90625 -25.671875 58.789062 -20.757812 60 -15.40625 C 61.207031 -10.050781 62.070312 -4.914062 62.59375 0 L 53.6875 0 C 53.382812 -4.25 52.867188 -8.207031 52.140625 -11.875 C 51.410156 -15.539062 50.421875 -18.953125 49.171875 -22.109375 C 47.265625 -19.546875 45.007812 -17.347656 42.40625 -15.515625 C 39.800781 -13.679688 36.847656 -12.320312 33.546875 -11.4375 L 33.546875 1.765625 C 33.546875 3.816406 33.472656 5.535156 33.328125 6.921875 C 33.179688 8.316406 33 9.566406 32.78125 10.671875 C 35.789062 12.066406 38.578125 13.988281 41.140625 16.4375 C 43.703125 18.894531 46.234375 21.8125 48.734375 25.1875 Z M 12.875 -29.375 C 12.875 -25.707031 14.046875 -22.9375 16.390625 -21.0625 C 18.734375 -19.195312 21.703125 -18.265625 25.296875 -18.265625 C 30.285156 -18.265625 34.410156 -19.398438 37.671875 -21.671875 C 40.929688 -23.941406 43.554688 -26.65625 45.546875 -29.8125 C 43.046875 -33.257812 40.179688 -35.9375 36.953125 -37.84375 C 33.734375 -39.75 30.101562 -40.703125 26.0625 -40.703125 C 22.25 -40.703125 19.097656 -39.765625 16.609375 -37.890625 C 14.117188 -36.023438 12.875 -33.1875 12.875 -29.375 Z M 12.875 -29.375 "/>
</symbol>
</g>
</defs>
  <g id="gurmukhi-blws:id0:id0" transform="matrix(1.25,0,0,1.25,0.0,4.560546875)"><g id="gurmukhi-blws:id0:surface1">
<g style="fill:rgb(0%,0%,0%);fill-opacity:1;">
  <use xlink:href="#gurmukhi-blws:id0:glyph0-1" x="16" y="119.59375" class="c0"/>
  <use xlink:href="#gurmukhi-blws:id0:glyph0-2" x="84.421875" y="119.59375" class="dc"/>
  <use xlink:href="#gurmukhi-blws:id0:glyph0-3" x="146.6875" y="119.59375" class="c1"/>
</g>
</g>
</g>
  <g id="gurmukhi-blws:id1:id1" transform="matrix(1.25,0,0,1.25,203.359375,0.0)"><g id="gurmukhi-blws:id1:surface1">
<g style="fill:rgb(0%,0%,0%);fill-opacity:1;">
  <use xlink:href="#gurmukhi-blws:id1:glyph0-1" x="0" y="120.84375" class="arrow"/>
</g>
</g>
</g>
  <g id="gurmukhi-blws:id2:id2" transform="matrix(1.25,0,0,1.25,335.95703125,4.560546875)"><g id="gurmukhi-blws:id2:surface1">
<g style="fill:rgb(0%,0%,0%);fill-opacity:1;">
  <use xlink:href="#gurmukhi-blws:id2:glyph0-1" x="16" y="119.59375" class="c2"/>
</g>
</g>
</g>
</svg>