<!DOCTYPE svg PUBLIC "-//W3C//DTD SVG 1.1//EN" "http://www.w3.org/Graphics/SVG/1.1/DTD/svg11.dtd">
<!-- Created with svg_stack (http://github.com/astraw/svg_stack) --><svg xmlns="http://www.w3.org/2000/svg" xmlns:sodipodi="http://sodipodi.sourceforge.net/DTD/sodipodi-0.dtd" xmlns:xlink="http://www.w3.org/1999/xlink" version="1.1" width="100%" id="gurmukhi-half" viewBox="0 0 371.26953125 201.40625">
  <defs><g>
<symbol overflow="visible" id="gurmukhi-half:id0:glyph0-0">
<path style="stroke:none;" d="M 10.34375 0 L 10.34375 -78.546875 L 55.546875 -78.546875 L 55.546875 0 Z M 15.953125 -5.609375 L 49.9375 -5.609375 L 49.9375 -72.9375 L 15.953125 -72.9375 Z M 15.953125 -5.609375 "/>
</symbol>
<symbol overflow="visible" id="gurmukhi-half:id0:glyph0-1">
<path style="stroke:none;" d="M 28.046875 0 C 22.835938 0 17.992188 -0.65625 13.515625 -1.96875 C 9.046875 -3.289062 5.019531 -4.984375 1.4375 -7.046875 L 4.953125 -15.1875 C 8.546875 -12.90625 12.15625 -11.125 15.78125 -9.84375 C 19.414062 -8.5625 23.613281 -7.921875 28.375 -7.921875 C 34.46875 -7.921875 39.179688 -9.09375 42.515625 -11.4375 C 45.847656 -13.78125 47.515625 -17.554688 47.515625 -22.765625 C 47.515625 -25.921875 46.78125 -28.851562 45.3125 -31.5625 C 42.894531 -29.4375 40.035156 -27.785156 36.734375 -26.609375 C 33.441406 -25.441406 29.628906 -24.859375 25.296875 -24.859375 C 19.140625 -24.859375 14.519531 -26.050781 11.4375 -28.4375 C 8.351562 -30.820312 6.8125 -33.957031 6.8125 -37.84375 C 6.8125 -41.582031 8.316406 -44.695312 11.328125 -47.1875 C 14.335938 -49.6875 18.882812 -50.9375 24.96875 -50.9375 C 29.21875 -50.9375 33.007812 -50.289062 36.34375 -49 C 39.6875 -47.71875 42.601562 -45.941406 45.09375 -43.671875 C 45.6875 -45.066406 46.09375 -46.421875 46.3125 -47.734375 C 46.53125 -49.054688 46.640625 -50.269531 46.640625 -51.375 C 46.640625 -53.132812 46.492188 -54.816406 46.203125 -56.421875 C 45.910156 -58.035156 45.503906 -59.429688 44.984375 -60.609375 L -0.765625 -60.609375 L -0.765625 -68.421875 L 64.234375 -68.421875 L 64.234375 -60.609375 L 54.125 -60.609375 C 54.488281 -59.503906 54.78125 -58.128906 55 -56.484375 C 55.21875 -54.835938 55.328125 -52.988281 55.328125 -50.9375 C 55.328125 -48.726562 54.992188 -46.46875 54.328125 -44.15625 C 53.671875 -41.851562 52.578125 -39.640625 51.046875 -37.515625 C 52.878906 -35.085938 54.210938 -32.59375 55.046875 -30.03125 C 55.890625 -27.46875 56.3125 -24.898438 56.3125 -22.328125 C 56.3125 -14.847656 53.78125 -9.253906 48.71875 -5.546875 C 43.664062 -1.847656 36.773438 0 28.046875 0 Z M 15.625 -37.953125 C 15.625 -36.335938 16.375 -35.050781 17.875 -34.09375 C 19.375 -33.144531 21.8125 -32.671875 25.1875 -32.671875 C 28.78125 -32.671875 31.84375 -33.109375 34.375 -33.984375 C 36.90625 -34.867188 38.976562 -36.046875 40.59375 -37.515625 C 38.539062 -39.273438 36.15625 -40.648438 33.4375 -41.640625 C 30.726562 -42.628906 27.941406 -43.125 25.078125 -43.125 C 21.554688 -43.125 19.097656 -42.59375 17.703125 -41.53125 C 16.316406 -40.46875 15.625 -39.273438 15.625 -37.953125 Z M 15.625 -37.953125 "/>
</symbol>
<symbol overflow="visible" id="gurmukhi-half:id0:glyph0-2">
<path style="stroke:none;" d="M 2.859375 27.0625 C 1.097656 22.582031 -0.929688 19.296875 -3.234375 17.203125 C -5.546875 15.117188 -7.910156 13.765625 -10.328125 13.140625 C -12.753906 12.515625 -15.03125 12.203125 -17.15625 12.203125 C -17.519531 12.203125 -17.90625 12.203125 -18.3125 12.203125 C -18.71875 12.203125 -19.140625 12.238281 -19.578125 12.3125 L -20.125 3.953125 C -19.539062 3.878906 -19.007812 3.84375 -18.53125 3.84375 C -18.050781 3.84375 -17.664062 3.84375 -17.375 3.84375 C -13.5625 3.84375 -9.910156 4.46875 -6.421875 5.71875 C -2.941406 6.96875 0.257812 9.113281 3.1875 12.15625 C 6.125 15.195312 8.582031 19.394531 10.5625 24.75 Z M 2.859375 27.0625 "/>
</symbol>
</g>
<g>
<symbol overflow="visible" id="gurmukhi-half:id1:glyph0-0">
<path style="stroke:none;" d="M 5.375 -96.6875 L 69.828125 -96.6875 L 69.828125 0 L 5.375 0 Z M 8.0625 -2.6875 L 67.140625 -2.6875 L 67.140625 -94 L 8.0625 -94 Z M 8.0625 -2.6875 "/>
</symbol>
<symbol overflow="visible" id="gurmukhi-half:id1:glyph0-1">
<path style="stroke:none;" d="M 68.15625 -13.75 L 66.28125 -18.640625 L 88.09375 -27.390625 L 6.984375 -27.390625 L 6.984375 -34 L 88.09375 -34 L 66.28125 -42.75 L 68.15625 -47.640625 L 99.09375 -34.265625 L 99.09375 -27.125 Z M 68.15625 -13.75 "/>
</symbol>
</g>
<g>
<symbol overflow="visible" id="gurmukhi-half:id2:glyph0-0">
<path style="stroke:none;" d="M 10.34375 0 L 10.34375 -78.546875 L 55.546875 -78.546875 L 55.546875 0 Z M 15.953125 -5.609375 L 49.9375 -5.609375 L 49.9375 -72.9375 L 15.953125 -72.9375 Z M 15.953125 -5.609375 "/>
</symbol>
<symbol overflow="visible" id="gurmukhi-half:id2:glyph0-1">
<path style="stroke:none;" d="M 28.046875 0 C 22.835938 0 17.992188 -0.65625 13.515625 -1.96875 C 9.046875 -3.289062 5.019531 -4.984375 1.4375 -7.046875 L 4.953125 -15.1875 C 8.546875 -12.90625 12.15625 -11.125 15.78125 -9.84375 C 19.414062 -8.5625 23.613281 -7.921875 28.375 -7.921875 C 34.46875 -7.921875 39.179688 -9.09375 42.515625 -11.4375 C 45.847656 -13.78125 47.515625 -17.554688 47.515625 -22.765625 C 47.515625 -25.921875 46.78125 -28.851562 45.3125 -31.5625 C 42.894531 -29.4375 40.035156 -27.785156 36.734375 -26.609375 C 33.441406 -25.441406 29.628906 -24.859375 25.296875 -24.859375 C 19.140625 -24.859375 14.519531 -26.050781 11.4375 -28.4375 C 8.351562 -30.820312 6.8125 -33.957031 6.8125 -37.84375 C 6.8125 -41.582031 8.316406 -44.695312 11.328125 -47.1875 C 14.335938 -49.6875 18.882812 -50.9375 24.96875 -50.9375 C 29.21875 -50.9375 33.007812 -50.289062 36.34375 -49 C 39.6875 -47.71875 42.601562 -45.941406 45.09375 -43.671875 C 45.6875 -45.066406 46.09375 -46.421875 46.3125 -47.734375 C 46.53125 -49.054688 46.640625 -50.269531 46.640625 -51.375 C 46.640625 -53.132812 46.492188 -54.816406 46.203125 -56.421875 C 45.910156 -58.035156 45.503906 -59.429688 44.984375 -60.609375 L -0.765625 -60.609375 L -0.765625 -68.421875 L 64.234375 -68.421875 L 64.234375 -60.609375 L 54.125 -60.609375 C 54.488281 -59.503906 54.78125 -58.128906 55 -56.484375 C 55.21875 -54.835938 55.328125 -52.988281 55.328125 -50.9375 C 55.328125 -48.726562 54.992188 -46.46875 54.328125 -44.15625 C 53.671875 -41.851562 52.578125 -39.640625 51.046875 -37.515625 C 52.878906 -35.085938 54.210938 -32.59375 55.046875 -30.03125 C 55.890625 -27.46875 56.3125 -24.898438 56.3125 -22.328125 C 56.3125 -14.847656 53.78125 -9.253906 48.71875 -5.546875 C 43.664062 -1.847656 36.773438 0 28.046875 0 Z M 15.625 -37.953125 C 15.625 -36.335938 16.375 -35.050781 17.875 -34.09375 C 19.375 -33.144531 21.8125 -32.671875 25.1875 -32.671875 C 28.78125 -32.671875 31.84375 -33.109375 34.375 -33.984375 C 36.90625 -34.867188 38.976562 -36.046875 40.59375 -37.515625 C 38.539062 -39.273438 36.15625 -40.648438 33.4375 -41.640625 C 30.726562 -42.628906 27.941406 -43.125 25.078125 -43.125 C 21.554688 -43.125 19.097656 -42.59375 17.703125 -41.53125 C 16.316406 -40.46875 15.625 -39.273438 15.625 -37.953125 Z M 52.140625 27.0625 C 50.378906 22.582031 48.34375 19.296875 46.03125 17.203125 C 43.726562 15.117188 41.363281 13.765625 38.9375 13.140625 C 36.519531 12.515625 34.25 12.203125 32.125 12.203125 C 31.757812 12.203125 31.375 12.203125 30.96875 12.203125 C 30.5625 12.203125 30.140625 12.238281 29.703125 12.3125 L 29.15625 3.953125 C 29.738281 3.878906 30.269531 3.84375 30.75 3.84375 C 31.226562 3.84375 31.613281 3.84375 31.90625 3.84375 C 35.71875 3.84375 39.363281 4.46875 42.84375 5.71875 C 46.332031 6.96875 49.539062 9.113281 52.46875 12.15625 C 55.40625 15.195312 57.863281 19.394531 59.84375 24.75 Z M 52.140625 27.0625 "/>
</symbol>
</g>
</defs>
  <g id="gurmukhi-half:id0:id0" transform="matrix(1.25,0,0,1.25,0.0,8.5546875)"><g id="gurmukhi-half:id0:surface1">
<g style="fill:rgb(0%,0%,0%);fill-opacity:1;">
  <use xlink:href="#gurmukhi-half:id0:glyph0-1" x="16" y="100.5625" class="c0"/>
  <use xlink:href="#gurmukhi-half:id0:glyph0-2" x="79.46875" y="100.5625" class="c1"/>
</g>
</g>
</g>
  <g id="gurmukhi-half:id1:id1" transform="matrix(1.25,0,0,1.25,119.3359375,0.0)"><g id="gurmukhi-half:id1:surface1">
<g style="fill:rgb(0%,0%,0%);fill-opacity:1;">
  <use xlink:href="#gurmukhi-half:id1:glyph0-1" x="0" y="120.84375" class="arrow"/>
</g>
</g>
</g>
  <g id="gurmukhi-half:id2:id2" transform="matrix(1.25,0,0,1.25,251.93359375,8.5546875)"><g id="gurmukhi-half:id2:surface1">
<g style="fill:rgb(0%,0%,0%);fill-opacity:1;">
  <use xlink:href="#gurmukhi-half:id2:glyph0-1" x="16" y="100.5625" class="c0"/>
</g>
</g>
</g>
</svg>