<?xml version="1.0" standalone="no"?>
<!DOCTYPE svg PUBLIC "-//W3C//DTD SVG 1.1//EN"
 "http://www.w3.org/Graphics/SVG/1.1/DTD/svg11.dtd">
<!-- Created with svg_stack (http://github.com/astraw/svg_stack) -->
<svg xmlns="http://www.w3.org/2000/svg" xmlns:sodipodi="http://sodipodi.sourceforge.net/DTD/sodipodi-0.dtd" xmlns:xlink="http://www.w3.org/1999/xlink" version="1.1" width="555.41015625" height="201.40625">
  <defs><g>
<symbol overflow="visible" id="id0:glyph0-0">
<path style="stroke:none;" d="M 10.34375 0 L 10.34375 -78.546875 L 55.546875 -78.546875 L 55.546875 0 Z M 15.953125 -5.609375 L 49.9375 -5.609375 L 49.9375 -72.9375 L 15.953125 -72.9375 Z M 15.953125 -5.609375 "/>
</symbol>
<symbol overflow="visible" id="id0:glyph0-1">
<path style="stroke:none;" d="M 31.015625 -50.265625 C 28.960938 -50.265625 27.9375 -51.328125 27.9375 -53.453125 C 27.9375 -55.515625 28.960938 -56.546875 31.015625 -56.546875 C 33.210938 -56.546875 34.3125 -55.515625 34.3125 -53.453125 C 34.3125 -51.328125 33.210938 -50.265625 31.015625 -50.265625 Z M 45.3125 -44.765625 C 43.1875 -44.765625 42.125 -45.828125 42.125 -47.953125 C 42.125 -50.085938 43.1875 -51.15625 45.3125 -51.15625 C 47.445312 -51.15625 48.515625 -50.085938 48.515625 -47.953125 C 48.515625 -45.828125 47.445312 -44.765625 45.3125 -44.765625 Z M 16.828125 -44.765625 C 14.773438 -44.765625 13.75 -45.828125 13.75 -47.953125 C 13.75 -50.085938 14.773438 -51.15625 16.828125 -51.15625 C 18.953125 -51.15625 20.015625 -50.085938 20.015625 -47.953125 C 20.015625 -45.828125 18.953125 -44.765625 16.828125 -44.765625 Z M 11.984375 -31.125 C 9.859375 -31.125 8.796875 -32.1875 8.796875 -34.3125 C 8.796875 -36.375 9.859375 -37.40625 11.984375 -37.40625 C 14.035156 -37.40625 15.0625 -36.375 15.0625 -34.3125 C 15.0625 -32.1875 14.035156 -31.125 11.984375 -31.125 Z M 50.265625 -31.125 C 48.140625 -31.125 47.078125 -32.1875 47.078125 -34.3125 C 47.078125 -36.375 48.140625 -37.40625 50.265625 -37.40625 C 52.390625 -37.40625 53.453125 -36.375 53.453125 -34.3125 C 53.453125 -32.1875 52.390625 -31.125 50.265625 -31.125 Z M 16.828125 -17.375 C 14.773438 -17.375 13.75 -18.4375 13.75 -20.5625 C 13.75 -22.695312 14.773438 -23.765625 16.828125 -23.765625 C 18.953125 -23.765625 20.015625 -22.695312 20.015625 -20.5625 C 20.015625 -18.4375 18.953125 -17.375 16.828125 -17.375 Z M 45.3125 -17.375 C 43.1875 -17.375 42.125 -18.4375 42.125 -20.5625 C 42.125 -22.695312 43.1875 -23.765625 45.3125 -23.765625 C 47.445312 -23.765625 48.515625 -22.695312 48.515625 -20.5625 C 48.515625 -18.4375 47.445312 -17.375 45.3125 -17.375 Z M 31.015625 -11.875 C 28.960938 -11.875 27.9375 -12.9375 27.9375 -15.0625 C 27.9375 -17.195312 28.960938 -18.265625 31.015625 -18.265625 C 33.210938 -18.265625 34.3125 -17.195312 34.3125 -15.0625 C 34.3125 -12.9375 33.210938 -11.875 31.015625 -11.875 Z M 31.015625 -11.875 "/>
</symbol>
<symbol overflow="visible" id="id0:glyph0-2">
<path style="stroke:none;" d="M 2.859375 27.0625 C 1.097656 22.582031 -0.929688 19.296875 -3.234375 17.203125 C -5.546875 15.117188 -7.910156 13.765625 -10.328125 13.140625 C -12.753906 12.515625 -15.03125 12.203125 -17.15625 12.203125 C -17.519531 12.203125 -17.90625 12.203125 -18.3125 12.203125 C -18.71875 12.203125 -19.140625 12.238281 -19.578125 12.3125 L -20.125 3.953125 C -19.539062 3.878906 -19.007812 3.84375 -18.53125 3.84375 C -18.050781 3.84375 -17.664062 3.84375 -17.375 3.84375 C -13.5625 3.84375 -9.910156 4.46875 -6.421875 5.71875 C -2.941406 6.96875 0.257812 9.113281 3.1875 12.15625 C 6.125 15.195312 8.582031 19.394531 10.5625 24.75 Z M 2.859375 27.0625 "/>
</symbol>
<symbol overflow="visible" id="id0:glyph0-3">
<path style="stroke:none;" d="M 57.75 0 L 57.75 -32.890625 L 43.5625 -32.890625 L 43.5625 -14.953125 C 40.1875 -13.785156 36.078125 -13.203125 31.234375 -13.203125 C 24.785156 -13.203125 19.359375 -15.269531 14.953125 -19.40625 C 10.554688 -23.550781 6.96875 -29.070312 4.1875 -35.96875 C 6.382812 -37.875 8.210938 -39.960938 9.671875 -42.234375 C 11.140625 -44.515625 11.875 -47.191406 11.875 -50.265625 C 11.875 -51.878906 11.632812 -53.65625 11.15625 -55.59375 C 10.6875 -57.539062 10.046875 -59.210938 9.234375 -60.609375 L -0.765625 -60.609375 L -0.765625 -68.421875 L 77.328125 -68.421875 L 77.328125 -60.609375 L 66.65625 -60.609375 L 66.65625 0 Z M 34.65625 -40.8125 L 57.75 -40.8125 L 57.75 -60.609375 L 18.59375 -60.609375 C 19.320312 -58.773438 19.851562 -56.976562 20.1875 -55.21875 C 20.519531 -53.457031 20.6875 -51.804688 20.6875 -50.265625 C 20.6875 -46.816406 20.113281 -43.882812 18.96875 -41.46875 C 17.832031 -39.050781 16.347656 -37 14.515625 -35.3125 C 16.640625 -30.613281 18.984375 -27.09375 21.546875 -24.75 C 24.117188 -22.40625 27.347656 -21.234375 31.234375 -21.234375 C 32.046875 -21.234375 32.707031 -21.25 33.21875 -21.28125 C 33.726562 -21.320312 34.207031 -21.378906 34.65625 -21.453125 Z M 34.65625 -40.8125 "/>
</symbol>
</g>
<g>
<symbol overflow="visible" id="id1:glyph0-0">
<path style="stroke:none;" d="M 5.375 -96.6875 L 69.828125 -96.6875 L 69.828125 0 L 5.375 0 Z M 8.0625 -2.6875 L 67.140625 -2.6875 L 67.140625 -94 L 8.0625 -94 Z M 8.0625 -2.6875 "/>
</symbol>
<symbol overflow="visible" id="id1:glyph0-1">
<path style="stroke:none;" d="M 68.15625 -13.75 L 66.28125 -18.640625 L 88.09375 -27.390625 L 6.984375 -27.390625 L 6.984375 -34 L 88.09375 -34 L 66.28125 -42.75 L 68.15625 -47.640625 L 99.09375 -34.265625 L 99.09375 -27.125 Z M 68.15625 -13.75 "/>
</symbol>
</g>
<g>
<symbol overflow="visible" id="id2:glyph0-0">
<path style="stroke:none;" d="M 10.34375 0 L 10.34375 -78.546875 L 55.546875 -78.546875 L 55.546875 0 Z M 15.953125 -5.609375 L 49.9375 -5.609375 L 49.9375 -72.9375 L 15.953125 -72.9375 Z M 15.953125 -5.609375 "/>
</symbol>
<symbol overflow="visible" id="id2:glyph0-1">
<path style="stroke:none;" d="M 31.015625 -50.265625 C 28.960938 -50.265625 27.9375 -51.328125 27.9375 -53.453125 C 27.9375 -55.515625 28.960938 -56.546875 31.015625 -56.546875 C 33.210938 -56.546875 34.3125 -55.515625 34.3125 -53.453125 C 34.3125 -51.328125 33.210938 -50.265625 31.015625 -50.265625 Z M 45.3125 -44.765625 C 43.1875 -44.765625 42.125 -45.828125 42.125 -47.953125 C 42.125 -50.085938 43.1875 -51.15625 45.3125 -51.15625 C 47.445312 -51.15625 48.515625 -50.085938 48.515625 -47.953125 C 48.515625 -45.828125 47.445312 -44.765625 45.3125 -44.765625 Z M 16.828125 -44.765625 C 14.773438 -44.765625 13.75 -45.828125 13.75 -47.953125 C 13.75 -50.085938 14.773438 -51.15625 16.828125 -51.15625 C 18.953125 -51.15625 20.015625 -50.085938 20.015625 -47.953125 C 20.015625 -45.828125 18.953125 -44.765625 16.828125 -44.765625 Z M 11.984375 -31.125 C 9.859375 -31.125 8.796875 -32.1875 8.796875 -34.3125 C 8.796875 -36.375 9.859375 -37.40625 11.984375 -37.40625 C 14.035156 -37.40625 15.0625 -36.375 15.0625 -34.3125 C 15.0625 -32.1875 14.035156 -31.125 11.984375 -31.125 Z M 50.265625 -31.125 C 48.140625 -31.125 47.078125 -32.1875 47.078125 -34.3125 C 47.078125 -36.375 48.140625 -37.40625 50.265625 -37.40625 C 52.390625 -37.40625 53.453125 -36.375 53.453125 -34.3125 C 53.453125 -32.1875 52.390625 -31.125 50.265625 -31.125 Z M 16.828125 -17.375 C 14.773438 -17.375 13.75 -18.4375 13.75 -20.5625 C 13.75 -22.695312 14.773438 -23.765625 16.828125 -23.765625 C 18.953125 -23.765625 20.015625 -22.695312 20.015625 -20.5625 C 20.015625 -18.4375 18.953125 -17.375 16.828125 -17.375 Z M 45.3125 -17.375 C 43.1875 -17.375 42.125 -18.4375 42.125 -20.5625 C 42.125 -22.695312 43.1875 -23.765625 45.3125 -23.765625 C 47.445312 -23.765625 48.515625 -22.695312 48.515625 -20.5625 C 48.515625 -18.4375 47.445312 -17.375 45.3125 -17.375 Z M 31.015625 -11.875 C 28.960938 -11.875 27.9375 -12.9375 27.9375 -15.0625 C 27.9375 -17.195312 28.960938 -18.265625 31.015625 -18.265625 C 33.210938 -18.265625 34.3125 -17.195312 34.3125 -15.0625 C 34.3125 -12.9375 33.210938 -11.875 31.015625 -11.875 Z M 31.015625 -11.875 "/>
</symbol>
<symbol overflow="visible" id="id2:glyph0-2">
<path style="stroke:none;" d="M -0.765625 -60.609375 L -0.765625 -68.421875 L 74.03125 -68.421875 L 74.03125 -60.609375 L 63.46875 -60.609375 L 63.46875 0 L 54.5625 0 L 54.5625 -32.890625 L 40.375 -32.890625 L 40.375 -14.953125 C 38.832031 -14.441406 36.976562 -14.019531 34.8125 -13.6875 C 32.644531 -13.363281 30.460938 -13.203125 28.265625 -13.203125 C 22.253906 -13.203125 17.117188 -15.015625 12.859375 -18.640625 C 8.609375 -22.273438 4.835938 -27.796875 1.546875 -35.203125 L 9.34375 -38.9375 C 11.625 -33.875 13.769531 -30.078125 15.78125 -27.546875 C 17.800781 -25.023438 19.851562 -23.34375 21.9375 -22.5 C 24.03125 -21.65625 26.320312 -21.234375 28.8125 -21.234375 C 29.1875 -21.234375 29.664062 -21.25 30.25 -21.28125 C 30.832031 -21.320312 31.234375 -21.378906 31.453125 -21.453125 L 31.453125 -40.8125 L 54.5625 -40.8125 L 54.5625 -60.609375 Z M -0.765625 -60.609375 "/>
</symbol>
</g>
</defs>
  <g id="id0:id0" transform="matrix(1.25,0,0,1.25,0.0,8.5546875)"><g id="id0:surface1">
<g style="fill:rgb(0%,0%,0%);fill-opacity:1;">
  <use xlink:href="#id0:glyph0-1" x="16" y="100.5625"/>
  <use xlink:href="#id0:glyph0-2" x="78.265625" y="100.5625"/>
  <use xlink:href="#id0:glyph0-3" x="78.265625" y="100.5625"/>
</g>
</g>
</g>
  <g id="id1:id1" transform="matrix(1.25,0,0,1.25,213.3984375,0.0)"><g id="id1:surface1">
<g style="fill:rgb(0%,0%,0%);fill-opacity:1;">
  <use xlink:href="#id1:glyph0-1" x="0" y="120.84375"/>
</g>
</g>
</g>
  <g id="id2:id2" transform="matrix(1.25,0,0,1.25,345.99609375,8.5546875)"><g id="id2:surface1">
<g style="fill:rgb(0%,0%,0%);fill-opacity:1;">
  <use xlink:href="#id2:glyph0-1" x="16" y="100.5625"/>
  <use xlink:href="#id2:glyph0-2" x="78.265625" y="100.5625"/>
</g>
</g>
</g>
</svg>
