<!DOCTYPE svg PUBLIC "-//W3C//DTD SVG 1.1//EN" "http://www.w3.org/Graphics/SVG/1.1/DTD/svg11.dtd">
<!-- Created with svg_stack (http://github.com/astraw/svg_stack) --><svg xmlns="http://www.w3.org/2000/svg" xmlns:sodipodi="http://sodipodi.sourceforge.net/DTD/sodipodi-0.dtd" xmlns:xlink="http://www.w3.org/1999/xlink" version="1.1" width="100%" id="gurmukhi-blwf-va" viewBox="0 0 446.23046875 201.40625">
  <defs><g>
<symbol overflow="visible" id="gurmukhi-blwf-va:id0:glyph0-0">
<path style="stroke:none;" d="M 10.34375 0 L 10.34375 -78.546875 L 55.546875 -78.546875 L 55.546875 0 Z M 15.953125 -5.609375 L 49.9375 -5.609375 L 49.9375 -72.9375 L 15.953125 -72.9375 Z M 15.953125 -5.609375 "/>
</symbol>
<symbol overflow="visible" id="gurmukhi-blwf-va:id0:glyph0-1">
<path style="stroke:none;" d="M 31.015625 -50.265625 C 28.960938 -50.265625 27.9375 -51.328125 27.9375 -53.453125 C 27.9375 -55.515625 28.960938 -56.546875 31.015625 -56.546875 C 33.210938 -56.546875 34.3125 -55.515625 34.3125 -53.453125 C 34.3125 -51.328125 33.210938 -50.265625 31.015625 -50.265625 Z M 45.3125 -44.765625 C 43.1875 -44.765625 42.125 -45.828125 42.125 -47.953125 C 42.125 -50.085938 43.1875 -51.15625 45.3125 -51.15625 C 47.445312 -51.15625 48.515625 -50.085938 48.515625 -47.953125 C 48.515625 -45.828125 47.445312 -44.765625 45.3125 -44.765625 Z M 16.828125 -44.765625 C 14.773438 -44.765625 13.75 -45.828125 13.75 -47.953125 C 13.75 -50.085938 14.773438 -51.15625 16.828125 -51.15625 C 18.953125 -51.15625 20.015625 -50.085938 20.015625 -47.953125 C 20.015625 -45.828125 18.953125 -44.765625 16.828125 -44.765625 Z M 11.984375 -31.125 C 9.859375 -31.125 8.796875 -32.1875 8.796875 -34.3125 C 8.796875 -36.375 9.859375 -37.40625 11.984375 -37.40625 C 14.035156 -37.40625 15.0625 -36.375 15.0625 -34.3125 C 15.0625 -32.1875 14.035156 -31.125 11.984375 -31.125 Z M 50.265625 -31.125 C 48.140625 -31.125 47.078125 -32.1875 47.078125 -34.3125 C 47.078125 -36.375 48.140625 -37.40625 50.265625 -37.40625 C 52.390625 -37.40625 53.453125 -36.375 53.453125 -34.3125 C 53.453125 -32.1875 52.390625 -31.125 50.265625 -31.125 Z M 16.828125 -17.375 C 14.773438 -17.375 13.75 -18.4375 13.75 -20.5625 C 13.75 -22.695312 14.773438 -23.765625 16.828125 -23.765625 C 18.953125 -23.765625 20.015625 -22.695312 20.015625 -20.5625 C 20.015625 -18.4375 18.953125 -17.375 16.828125 -17.375 Z M 45.3125 -17.375 C 43.1875 -17.375 42.125 -18.4375 42.125 -20.5625 C 42.125 -22.695312 43.1875 -23.765625 45.3125 -23.765625 C 47.445312 -23.765625 48.515625 -22.695312 48.515625 -20.5625 C 48.515625 -18.4375 47.445312 -17.375 45.3125 -17.375 Z M 31.015625 -11.875 C 28.960938 -11.875 27.9375 -12.9375 27.9375 -15.0625 C 27.9375 -17.195312 28.960938 -18.265625 31.015625 -18.265625 C 33.210938 -18.265625 34.3125 -17.195312 34.3125 -15.0625 C 34.3125 -12.9375 33.210938 -11.875 31.015625 -11.875 Z M 31.015625 -11.875 "/>
</symbol>
<symbol overflow="visible" id="gurmukhi-blwf-va:id0:glyph0-2">
<path style="stroke:none;" d="M 2.859375 27.0625 C 1.097656 22.582031 -0.929688 19.296875 -3.234375 17.203125 C -5.546875 15.117188 -7.910156 13.765625 -10.328125 13.140625 C -12.753906 12.515625 -15.03125 12.203125 -17.15625 12.203125 C -17.519531 12.203125 -17.90625 12.203125 -18.3125 12.203125 C -18.71875 12.203125 -19.140625 12.238281 -19.578125 12.3125 L -20.125 3.953125 C -19.539062 3.878906 -19.007812 3.84375 -18.53125 3.84375 C -18.050781 3.84375 -17.664062 3.84375 -17.375 3.84375 C -13.5625 3.84375 -9.910156 4.46875 -6.421875 5.71875 C -2.941406 6.96875 0.257812 9.113281 3.1875 12.15625 C 6.125 15.195312 8.582031 19.394531 10.5625 24.75 Z M 2.859375 27.0625 "/>
</symbol>
<symbol overflow="visible" id="gurmukhi-blwf-va:id0:glyph0-3">
<path style="stroke:none;" d="M 34.546875 0 C 29.191406 0 24.898438 -0.675781 21.671875 -2.03125 C 18.441406 -3.382812 16.113281 -5.195312 14.6875 -7.46875 C 13.257812 -9.75 12.546875 -12.171875 12.546875 -14.734375 C 12.546875 -16.273438 12.875 -17.757812 13.53125 -19.1875 C 14.1875 -20.625 15.175781 -21.890625 16.5 -22.984375 C 13.707031 -23.648438 11.507812 -24.53125 9.90625 -25.625 C 7.769531 -27.09375 6.257812 -28.742188 5.375 -30.578125 C 4.5 -32.410156 4.0625 -34.535156 4.0625 -36.953125 C 4.0625 -39.671875 4.664062 -41.925781 5.875 -43.71875 C 7.09375 -45.519531 8.691406 -46.929688 10.671875 -47.953125 C 12.578125 -48.910156 14.644531 -49.515625 16.875 -49.765625 C 19.113281 -50.023438 22.253906 -50.15625 26.296875 -50.15625 L 43.671875 -50.15625 L 43.671875 -60.609375 L -0.765625 -60.609375 L -0.765625 -68.421875 L 63.25 -68.421875 L 63.25 -60.609375 L 52.578125 -60.609375 L 52.578125 -45.546875 L 49.390625 -42.34375 L 23.4375 -42.34375 C 21.445312 -42.34375 19.847656 -42.25 18.640625 -42.0625 C 17.429688 -41.882812 16.425781 -41.613281 15.625 -41.25 C 13.863281 -40.289062 12.984375 -38.75 12.984375 -36.625 C 12.984375 -34.132812 14.007812 -32.335938 16.0625 -31.234375 C 17.3125 -30.503906 19.015625 -30.007812 21.171875 -29.75 C 23.335938 -29.5 26.65625 -29.375 31.125 -29.375 L 54.234375 -29.375 L 54.234375 -21.5625 L 34.546875 -21.5625 C 31.460938 -21.5625 29.1875 -21.503906 27.71875 -21.390625 C 26.25 -21.285156 24.929688 -20.898438 23.765625 -20.234375 C 22.148438 -19.140625 21.34375 -17.566406 21.34375 -15.515625 C 21.34375 -13.160156 22.492188 -11.304688 24.796875 -9.953125 C 27.109375 -8.597656 30.722656 -7.921875 35.640625 -7.921875 C 38.867188 -7.921875 41.800781 -8.140625 44.4375 -8.578125 C 47.082031 -9.015625 49.867188 -9.710938 52.796875 -10.671875 L 55 -2.75 C 51.914062 -1.945312 48.6875 -1.285156 45.3125 -0.765625 C 41.945312 -0.253906 38.359375 0 34.546875 0 Z M 34.546875 0 "/>
</symbol>
</g>
<g>
<symbol overflow="visible" id="gurmukhi-blwf-va:id1:glyph0-0">
<path style="stroke:none;" d="M 5.375 -96.6875 L 69.828125 -96.6875 L 69.828125 0 L 5.375 0 Z M 8.0625 -2.6875 L 67.140625 -2.6875 L 67.140625 -94 L 8.0625 -94 Z M 8.0625 -2.6875 "/>
</symbol>
<symbol overflow="visible" id="gurmukhi-blwf-va:id1:glyph0-1">
<path style="stroke:none;" d="M 68.15625 -13.75 L 66.28125 -18.640625 L 88.09375 -27.390625 L 6.984375 -27.390625 L 6.984375 -34 L 88.09375 -34 L 66.28125 -42.75 L 68.15625 -47.640625 L 99.09375 -34.265625 L 99.09375 -27.125 Z M 68.15625 -13.75 "/>
</symbol>
</g>
<g>
<symbol overflow="visible" id="gurmukhi-blwf-va:id2:glyph0-0">
<path style="stroke:none;" d="M 10.34375 0 L 10.34375 -78.546875 L 55.546875 -78.546875 L 55.546875 0 Z M 15.953125 -5.609375 L 49.9375 -5.609375 L 49.9375 -72.9375 L 15.953125 -72.9375 Z M 15.953125 -5.609375 "/>
</symbol>
<symbol overflow="visible" id="gurmukhi-blwf-va:id2:glyph0-1">
<path style="stroke:none;" d="M 31.015625 -50.265625 C 28.960938 -50.265625 27.9375 -51.328125 27.9375 -53.453125 C 27.9375 -55.515625 28.960938 -56.546875 31.015625 -56.546875 C 33.210938 -56.546875 34.3125 -55.515625 34.3125 -53.453125 C 34.3125 -51.328125 33.210938 -50.265625 31.015625 -50.265625 Z M 45.3125 -44.765625 C 43.1875 -44.765625 42.125 -45.828125 42.125 -47.953125 C 42.125 -50.085938 43.1875 -51.15625 45.3125 -51.15625 C 47.445312 -51.15625 48.515625 -50.085938 48.515625 -47.953125 C 48.515625 -45.828125 47.445312 -44.765625 45.3125 -44.765625 Z M 16.828125 -44.765625 C 14.773438 -44.765625 13.75 -45.828125 13.75 -47.953125 C 13.75 -50.085938 14.773438 -51.15625 16.828125 -51.15625 C 18.953125 -51.15625 20.015625 -50.085938 20.015625 -47.953125 C 20.015625 -45.828125 18.953125 -44.765625 16.828125 -44.765625 Z M 11.984375 -31.125 C 9.859375 -31.125 8.796875 -32.1875 8.796875 -34.3125 C 8.796875 -36.375 9.859375 -37.40625 11.984375 -37.40625 C 14.035156 -37.40625 15.0625 -36.375 15.0625 -34.3125 C 15.0625 -32.1875 14.035156 -31.125 11.984375 -31.125 Z M 50.265625 -31.125 C 48.140625 -31.125 47.078125 -32.1875 47.078125 -34.3125 C 47.078125 -36.375 48.140625 -37.40625 50.265625 -37.40625 C 52.390625 -37.40625 53.453125 -36.375 53.453125 -34.3125 C 53.453125 -32.1875 52.390625 -31.125 50.265625 -31.125 Z M 16.828125 -17.375 C 14.773438 -17.375 13.75 -18.4375 13.75 -20.5625 C 13.75 -22.695312 14.773438 -23.765625 16.828125 -23.765625 C 18.953125 -23.765625 20.015625 -22.695312 20.015625 -20.5625 C 20.015625 -18.4375 18.953125 -17.375 16.828125 -17.375 Z M 45.3125 -17.375 C 43.1875 -17.375 42.125 -18.4375 42.125 -20.5625 C 42.125 -22.695312 43.1875 -23.765625 45.3125 -23.765625 C 47.445312 -23.765625 48.515625 -22.695312 48.515625 -20.5625 C 48.515625 -18.4375 47.445312 -17.375 45.3125 -17.375 Z M 31.015625 -11.875 C 28.960938 -11.875 27.9375 -12.9375 27.9375 -15.0625 C 27.9375 -17.195312 28.960938 -18.265625 31.015625 -18.265625 C 33.210938 -18.265625 34.3125 -17.195312 34.3125 -15.0625 C 34.3125 -12.9375 33.210938 -11.875 31.015625 -11.875 Z M 31.015625 -11.875 "/>
</symbol>
<symbol overflow="visible" id="gurmukhi-blwf-va:id2:glyph0-2">
<path style="stroke:none;" d="M -20.125 34.3125 C -25.40625 34.3125 -29.109375 33.394531 -31.234375 31.5625 C -33.367188 29.726562 -34.4375 27.601562 -34.4375 25.1875 C -34.4375 23.351562 -33.957031 21.925781 -33 20.90625 C -35.863281 20.09375 -37.804688 18.820312 -38.828125 17.09375 C -39.859375 15.375 -40.375 13.488281 -40.375 11.4375 C -40.375 8.726562 -39.289062 6.710938 -37.125 5.390625 C -34.957031 4.066406 -32.113281 3.40625 -28.59375 3.40625 L -18.703125 3.40625 L -18.703125 0 L -9.796875 0 L -9.796875 7.046875 L -12.4375 9.6875 L -28.484375 9.6875 C -29.804688 9.6875 -30.890625 9.832031 -31.734375 10.125 C -32.578125 10.414062 -33 11.144531 -33 12.3125 C -33 13.707031 -32.320312 14.570312 -30.96875 14.90625 C -29.613281 15.238281 -28.128906 15.40625 -26.515625 15.40625 L -9.34375 15.40625 L -9.34375 21.671875 L -23.09375 21.671875 C -24.125 21.671875 -25.078125 21.796875 -25.953125 22.046875 C -26.835938 22.304688 -27.28125 23.023438 -27.28125 24.203125 C -27.28125 25.367188 -26.691406 26.300781 -25.515625 27 C -24.347656 27.695312 -22.40625 28.046875 -19.6875 28.046875 C -17.414062 28.046875 -15.597656 27.953125 -14.234375 27.765625 C -12.878906 27.585938 -11.285156 27.28125 -9.453125 26.84375 L -7.59375 32.78125 C -9.863281 33.4375 -12.097656 33.851562 -14.296875 34.03125 C -16.492188 34.21875 -18.4375 34.3125 -20.125 34.3125 Z M -20.125 34.3125 "/>
</symbol>
</g>
</defs>
  <g id="gurmukhi-blwf-va:id0:id0" transform="matrix(1.25,0,0,1.25,0.0,8.5546875)"><g id="gurmukhi-blwf-va:id0:surface1">
<g style="fill:rgb(0%,0%,0%);fill-opacity:1;">
  <use xlink:href="#gurmukhi-blwf-va:id0:glyph0-1" x="16" y="100.5625" class="dc"/>
  <use xlink:href="#gurmukhi-blwf-va:id0:glyph0-2" x="78.265625" y="100.5625" class="c0"/>
  <use xlink:href="#gurmukhi-blwf-va:id0:glyph0-3" x="78.265625" y="100.5625" class="c1"/>
</g>
</g>
</g>
  <g id="gurmukhi-blwf-va:id1:id1" transform="matrix(1.25,0,0,1.25,195.80078125,0.0)"><g id="gurmukhi-blwf-va:id1:surface1">
<g style="fill:rgb(0%,0%,0%);fill-opacity:1;">
  <use xlink:href="#gurmukhi-blwf-va:id1:glyph0-1" x="0" y="120.84375" class="arrow"/>
</g>
</g>
</g>
  <g id="gurmukhi-blwf-va:id2:id2" transform="matrix(1.25,0,0,1.25,328.3984375,8.5546875)"><g id="gurmukhi-blwf-va:id2:surface1">
<g style="fill:rgb(0%,0%,0%);fill-opacity:1;">
  <use xlink:href="#gurmukhi-blwf-va:id2:glyph0-1" x="16" y="100.5625" class="dc"/>
  <use xlink:href="#gurmukhi-blwf-va:id2:glyph0-2" x="78.265625" y="100.5625" class="c1"/>
</g>
</g>
</g>
</svg>