<!DOCTYPE svg PUBLIC "-//W3C//DTD SVG 1.1//EN" "http://www.w3.org/Graphics/SVG/1.1/DTD/svg11.dtd">
<!-- Created with svg_stack (http://github.com/astraw/svg_stack) --><svg xmlns="http://www.w3.org/2000/svg" xmlns:sodipodi="http://sodipodi.sourceforge.net/DTD/sodipodi-0.dtd" xmlns:xlink="http://www.w3.org/1999/xlink" version="1.1" width="100%" id="gurmukhi-abvm" viewBox="0 0 394.08203125 201.40625">
  <defs><g>
<symbol overflow="visible" id="gurmukhi-abvm:id0:glyph0-0">
<path style="stroke:none;" d="M 10.34375 0 L 10.34375 -78.546875 L 55.546875 -78.546875 L 55.546875 0 Z M 15.953125 -5.609375 L 49.9375 -5.609375 L 49.9375 -72.9375 L 15.953125 -72.9375 Z M 15.953125 -5.609375 "/>
</symbol>
<symbol overflow="visible" id="gurmukhi-abvm:id0:glyph0-1">
<path style="stroke:none;" d="M 36.296875 0 C 30.503906 0 25.171875 -0.675781 20.296875 -2.03125 C 15.421875 -3.382812 11.535156 -5.675781 8.640625 -8.90625 C 5.742188 -12.132812 4.296875 -16.570312 4.296875 -22.21875 C 4.296875 -25.664062 5.265625 -29.09375 7.203125 -32.5 C 9.148438 -35.914062 12.15625 -39.015625 16.21875 -41.796875 C 20.289062 -44.585938 25.519531 -46.71875 31.90625 -48.1875 L 31.90625 -60.609375 L -0.765625 -60.609375 L -0.765625 -68.421875 L 73.375 -68.421875 L 73.375 -60.609375 L 40.703125 -60.609375 L 40.703125 -48.1875 C 47.148438 -46.71875 52.390625 -44.609375 56.421875 -41.859375 C 60.460938 -39.109375 63.453125 -36.007812 65.390625 -32.5625 C 67.335938 -29.113281 68.3125 -25.664062 68.3125 -22.21875 C 68.3125 -16.9375 66.988281 -12.664062 64.34375 -9.40625 C 61.707031 -6.144531 57.988281 -3.757812 53.1875 -2.25 C 48.382812 -0.75 42.753906 0 36.296875 0 Z M 36.296875 -8.03125 C 38.867188 -8.03125 41.507812 -8.191406 44.21875 -8.515625 C 46.9375 -8.847656 49.445312 -9.488281 51.75 -10.4375 C 54.0625 -11.394531 55.929688 -12.789062 57.359375 -14.625 C 58.796875 -16.457031 59.515625 -18.914062 59.515625 -22 C 59.515625 -26.25 57.550781 -30.148438 53.625 -33.703125 C 49.695312 -37.265625 43.921875 -39.890625 36.296875 -41.578125 C 28.523438 -39.816406 22.710938 -37.175781 18.859375 -33.65625 C 15.015625 -30.132812 13.09375 -26.210938 13.09375 -21.890625 C 13.09375 -18.804688 13.804688 -16.347656 15.234375 -14.515625 C 16.660156 -12.679688 18.546875 -11.304688 20.890625 -10.390625 C 23.242188 -9.472656 25.773438 -8.847656 28.484375 -8.515625 C 31.203125 -8.191406 33.804688 -8.03125 36.296875 -8.03125 Z M 36.296875 -8.03125 "/>
</symbol>
<symbol overflow="visible" id="gurmukhi-abvm:id0:glyph0-2">
<path style="stroke:none;" d="M -17.484375 -63.46875 C -20.203125 -68.019531 -23.46875 -71.15625 -27.28125 -72.875 C -31.09375 -74.59375 -35.710938 -75.453125 -41.140625 -75.453125 L -43.234375 -75.453125 L -43.78125 -83.484375 C -43.414062 -83.554688 -43.007812 -83.59375 -42.5625 -83.59375 C -42.125 -83.59375 -41.757812 -83.59375 -41.46875 -83.59375 C -36.113281 -83.59375 -31.472656 -82.691406 -27.546875 -80.890625 C -23.628906 -79.097656 -20.238281 -76.445312 -17.375 -72.9375 C -19.582031 -79.457031 -22.476562 -84 -26.0625 -86.5625 C -29.65625 -89.132812 -34.128906 -90.421875 -39.484375 -90.421875 L -41.140625 -90.421875 L -41.578125 -98.5625 L -39.484375 -98.5625 C -31.203125 -98.5625 -24.601562 -96.140625 -19.6875 -91.296875 C -14.769531 -86.460938 -11.25 -78.582031 -9.125 -67.65625 L -13.640625 -67.3125 C -13.421875 -66.800781 -13.164062 -66.289062 -12.875 -65.78125 Z M -17.484375 -63.46875 "/>
</symbol>
</g>
<g>
<symbol overflow="visible" id="gurmukhi-abvm:id1:glyph0-0">
<path style="stroke:none;" d="M 5.375 -96.6875 L 69.828125 -96.6875 L 69.828125 0 L 5.375 0 Z M 8.0625 -2.6875 L 67.140625 -2.6875 L 67.140625 -94 L 8.0625 -94 Z M 8.0625 -2.6875 "/>
</symbol>
<symbol overflow="visible" id="gurmukhi-abvm:id1:glyph0-1">
<path style="stroke:none;" d="M 68.15625 -13.75 L 66.28125 -18.640625 L 88.09375 -27.390625 L 6.984375 -27.390625 L 6.984375 -34 L 88.09375 -34 L 66.28125 -42.75 L 68.15625 -47.640625 L 99.09375 -34.265625 L 99.09375 -27.125 Z M 68.15625 -13.75 "/>
</symbol>
</g>
<g>
<symbol overflow="visible" id="gurmukhi-abvm:id2:glyph0-0">
<path style="stroke:none;" d="M 10.34375 0 L 10.34375 -78.546875 L 55.546875 -78.546875 L 55.546875 0 Z M 15.953125 -5.609375 L 49.9375 -5.609375 L 49.9375 -72.9375 L 15.953125 -72.9375 Z M 15.953125 -5.609375 "/>
</symbol>
<symbol overflow="visible" id="gurmukhi-abvm:id2:glyph0-1">
<path style="stroke:none;" d="M 36.296875 0 C 30.503906 0 25.171875 -0.675781 20.296875 -2.03125 C 15.421875 -3.382812 11.535156 -5.675781 8.640625 -8.90625 C 5.742188 -12.132812 4.296875 -16.570312 4.296875 -22.21875 C 4.296875 -25.664062 5.265625 -29.09375 7.203125 -32.5 C 9.148438 -35.914062 12.15625 -39.015625 16.21875 -41.796875 C 20.289062 -44.585938 25.519531 -46.71875 31.90625 -48.1875 L 31.90625 -60.609375 L -0.765625 -60.609375 L -0.765625 -68.421875 L 73.375 -68.421875 L 73.375 -60.609375 L 40.703125 -60.609375 L 40.703125 -48.1875 C 47.148438 -46.71875 52.390625 -44.609375 56.421875 -41.859375 C 60.460938 -39.109375 63.453125 -36.007812 65.390625 -32.5625 C 67.335938 -29.113281 68.3125 -25.664062 68.3125 -22.21875 C 68.3125 -16.9375 66.988281 -12.664062 64.34375 -9.40625 C 61.707031 -6.144531 57.988281 -3.757812 53.1875 -2.25 C 48.382812 -0.75 42.753906 0 36.296875 0 Z M 36.296875 -8.03125 C 38.867188 -8.03125 41.507812 -8.191406 44.21875 -8.515625 C 46.9375 -8.847656 49.445312 -9.488281 51.75 -10.4375 C 54.0625 -11.394531 55.929688 -12.789062 57.359375 -14.625 C 58.796875 -16.457031 59.515625 -18.914062 59.515625 -22 C 59.515625 -26.25 57.550781 -30.148438 53.625 -33.703125 C 49.695312 -37.265625 43.921875 -39.890625 36.296875 -41.578125 C 28.523438 -39.816406 22.710938 -37.175781 18.859375 -33.65625 C 15.015625 -30.132812 13.09375 -26.210938 13.09375 -21.890625 C 13.09375 -18.804688 13.804688 -16.347656 15.234375 -14.515625 C 16.660156 -12.679688 18.546875 -11.304688 20.890625 -10.390625 C 23.242188 -9.472656 25.773438 -8.847656 28.484375 -8.515625 C 31.203125 -8.191406 33.804688 -8.03125 36.296875 -8.03125 Z M 36.296875 -8.03125 "/>
</symbol>
<symbol overflow="visible" id="gurmukhi-abvm:id2:glyph0-2">
<path style="stroke:none;" d="M -17.484375 -63.46875 C -20.203125 -68.019531 -23.46875 -71.15625 -27.28125 -72.875 C -31.09375 -74.59375 -35.710938 -75.453125 -41.140625 -75.453125 L -43.234375 -75.453125 L -43.78125 -83.484375 C -43.414062 -83.554688 -43.007812 -83.59375 -42.5625 -83.59375 C -42.125 -83.59375 -41.757812 -83.59375 -41.46875 -83.59375 C -36.113281 -83.59375 -31.472656 -82.691406 -27.546875 -80.890625 C -23.628906 -79.097656 -20.238281 -76.445312 -17.375 -72.9375 C -19.582031 -79.457031 -22.476562 -84 -26.0625 -86.5625 C -29.65625 -89.132812 -34.128906 -90.421875 -39.484375 -90.421875 L -41.140625 -90.421875 L -41.578125 -98.5625 L -39.484375 -98.5625 C -31.203125 -98.5625 -24.601562 -96.140625 -19.6875 -91.296875 C -14.769531 -86.460938 -11.25 -78.582031 -9.125 -67.65625 L -13.640625 -67.3125 C -13.421875 -66.800781 -13.164062 -66.289062 -12.875 -65.78125 Z M -17.484375 -63.46875 "/>
</symbol>
</g>
</defs>
  <g id="gurmukhi-abvm:id0:id0" transform="matrix(1.25,0,0,1.25,0.0,8.5546875)"><g id="gurmukhi-abvm:id0:surface1">
<g style="fill:rgb(0%,0%,0%);fill-opacity:1;">
  <use xlink:href="#gurmukhi-abvm:id0:glyph0-1" x="16" y="100.5625" class="c0"/>
  <use xlink:href="#gurmukhi-abvm:id0:glyph0-2" x="88.59375" y="100.5625" class="c1"/>
</g>
</g>
</g>
  <g id="gurmukhi-abvm:id1:id1" transform="matrix(1.25,0,0,1.25,130.7421875,0.0)"><g id="gurmukhi-abvm:id1:surface1">
<g style="fill:rgb(0%,0%,0%);fill-opacity:1;">
  <use xlink:href="#gurmukhi-abvm:id1:glyph0-1" x="0" y="120.84375" class="arrow"/>
</g>
</g>
</g>
  <g id="gurmukhi-abvm:id2:id2" transform="matrix(1.25,0,0,1.25,263.33984375,8.5546875)"><g id="gurmukhi-abvm:id2:surface1">
<g style="fill:rgb(0%,0%,0%);fill-opacity:1;">
  <use xlink:href="#gurmukhi-abvm:id2:glyph0-1" x="16" y="100.5625" class="c0"/>
  <use xlink:href="#gurmukhi-abvm:id2:glyph0-2" x="66.484375" y="100.5625" class="c1"/>
</g>
</g>
</g>
</svg>