<!DOCTYPE svg PUBLIC "-//W3C//DTD SVG 1.1//EN" "http://www.w3.org/Graphics/SVG/1.1/DTD/svg11.dtd">
<!-- Created with svg_stack (http://github.com/astraw/svg_stack) --><svg xmlns="http://www.w3.org/2000/svg" xmlns:sodipodi="http://sodipodi.sourceforge.net/DTD/sodipodi-0.dtd" xmlns:xlink="http://www.w3.org/1999/xlink" version="1.1" width="100%" id="gurmukhi-abvs" viewBox="0 0 394.62890625 201.40625">
  <defs><g>
<symbol overflow="visible" id="gurmukhi-abvs:id0:glyph0-0">
<path style="stroke:none;" d="M 10.34375 0 L 10.34375 -78.546875 L 55.546875 -78.546875 L 55.546875 0 Z M 15.953125 -5.609375 L 49.9375 -5.609375 L 49.9375 -72.9375 L 15.953125 -72.9375 Z M 15.953125 -5.609375 "/>
</symbol>
<symbol overflow="visible" id="gurmukhi-abvs:id0:glyph0-1">
<path style="stroke:none;" d="M 39.484375 0 C 32.960938 0 27.28125 -1.613281 22.4375 -4.84375 C 17.601562 -8.070312 13.863281 -13.09375 11.21875 -19.90625 C 8.582031 -26.726562 7.265625 -35.53125 7.265625 -46.3125 C 7.265625 -51.664062 7.519531 -56.429688 8.03125 -60.609375 L -0.765625 -60.609375 L -0.765625 -68.421875 L 9.5625 -68.421875 C 11.84375 -77.078125 16.132812 -83.382812 22.4375 -87.34375 C 25.882812 -89.46875 29.753906 -90.894531 34.046875 -91.625 C 38.335938 -92.363281 43.632812 -92.734375 49.9375 -92.734375 L 66.765625 -92.734375 L 66.328125 -84.921875 L 50.9375 -84.921875 C 44.769531 -84.921875 39.925781 -84.625 36.40625 -84.03125 C 32.882812 -83.445312 29.988281 -82.457031 27.71875 -81.0625 C 23.539062 -78.5 20.570312 -74.285156 18.8125 -68.421875 L 74.6875 -68.421875 L 74.6875 -60.609375 L 69.078125 -60.609375 C 68.710938 -52.910156 66.84375 -47.097656 63.46875 -43.171875 C 60.09375 -39.253906 55.988281 -36.5625 51.15625 -35.09375 C 55.257812 -33.332031 58.082031 -30.925781 59.625 -27.875 C 61.164062 -24.832031 61.9375 -21.957031 61.9375 -19.25 C 61.9375 -13.238281 60.0625 -8.523438 56.3125 -5.109375 C 52.570312 -1.703125 46.960938 0 39.484375 0 Z M 16.28125 -46.640625 C 16.28125 -44.222656 16.351562 -41.945312 16.5 -39.8125 L 30.90625 -39.8125 C 36.550781 -39.8125 40.878906 -40.050781 43.890625 -40.53125 C 46.898438 -41.007812 49.46875 -41.835938 51.59375 -43.015625 C 54.664062 -44.703125 56.84375 -46.972656 58.125 -49.828125 C 59.414062 -52.691406 60.132812 -56.285156 60.28125 -60.609375 L 17.046875 -60.609375 C 16.535156 -56.648438 16.28125 -51.992188 16.28125 -46.640625 Z M 29.15625 -32.015625 L 17.265625 -32.015625 C 18.296875 -25.484375 19.945312 -20.492188 22.21875 -17.046875 C 24.488281 -13.597656 27.09375 -11.234375 30.03125 -9.953125 C 32.96875 -8.671875 35.972656 -8.03125 39.046875 -8.03125 C 43.890625 -8.03125 47.410156 -8.960938 49.609375 -10.828125 C 51.804688 -12.703125 52.90625 -15.546875 52.90625 -19.359375 C 52.90625 -23.609375 51.289062 -26.722656 48.0625 -28.703125 C 46.894531 -29.441406 45.628906 -30.046875 44.265625 -30.515625 C 42.910156 -30.992188 41.078125 -31.363281 38.765625 -31.625 C 36.460938 -31.882812 33.257812 -32.015625 29.15625 -32.015625 Z M 29.15625 -32.015625 "/>
</symbol>
<symbol overflow="visible" id="gurmukhi-abvs:id0:glyph0-2">
<path style="stroke:none;" d="M -14.1875 -75.34375 C -19.320312 -75.34375 -23.28125 -76.9375 -26.0625 -80.125 C -28.851562 -83.320312 -30.359375 -88.257812 -30.578125 -94.9375 L -22.328125 -95.484375 C -22.328125 -90.492188 -21.648438 -87.117188 -20.296875 -85.359375 C -18.941406 -83.597656 -16.941406 -82.71875 -14.296875 -82.71875 C -11.585938 -82.71875 -9.570312 -83.613281 -8.25 -85.40625 C -6.925781 -87.207031 -6.265625 -90.566406 -6.265625 -95.484375 L 2.09375 -94.9375 C 1.875 -88.257812 0.390625 -83.320312 -2.359375 -80.125 C -5.109375 -76.9375 -9.050781 -75.34375 -14.1875 -75.34375 Z M -14.1875 -75.34375 "/>
</symbol>
</g>
<g>
<symbol overflow="visible" id="gurmukhi-abvs:id1:glyph0-0">
<path style="stroke:none;" d="M 5.375 -96.6875 L 69.828125 -96.6875 L 69.828125 0 L 5.375 0 Z M 8.0625 -2.6875 L 67.140625 -2.6875 L 67.140625 -94 L 8.0625 -94 Z M 8.0625 -2.6875 "/>
</symbol>
<symbol overflow="visible" id="gurmukhi-abvs:id1:glyph0-1">
<path style="stroke:none;" d="M 68.15625 -13.75 L 66.28125 -18.640625 L 88.09375 -27.390625 L 6.984375 -27.390625 L 6.984375 -34 L 88.09375 -34 L 66.28125 -42.75 L 68.15625 -47.640625 L 99.09375 -34.265625 L 99.09375 -27.125 Z M 68.15625 -13.75 "/>
</symbol>
</g>
<g>
<symbol overflow="visible" id="gurmukhi-abvs:id2:glyph0-0">
<path style="stroke:none;" d="M 10.34375 0 L 10.34375 -78.546875 L 55.546875 -78.546875 L 55.546875 0 Z M 15.953125 -5.609375 L 49.9375 -5.609375 L 49.9375 -72.9375 L 15.953125 -72.9375 Z M 15.953125 -5.609375 "/>
</symbol>
<symbol overflow="visible" id="gurmukhi-abvs:id2:glyph0-1">
<path style="stroke:none;" d="M 39.484375 0 C 32.960938 0 27.28125 -1.613281 22.4375 -4.84375 C 17.601562 -8.070312 13.863281 -13.09375 11.21875 -19.90625 C 8.582031 -26.726562 7.265625 -35.53125 7.265625 -46.3125 C 7.265625 -51.664062 7.519531 -56.429688 8.03125 -60.609375 L -0.765625 -60.609375 L -0.765625 -68.421875 L 9.5625 -68.421875 C 11.84375 -77.078125 16.132812 -83.382812 22.4375 -87.34375 C 25.882812 -89.46875 29.753906 -90.894531 34.046875 -91.625 C 38.335938 -92.363281 43.632812 -92.734375 49.9375 -92.734375 L 55.328125 -92.734375 C 55.253906 -93.460938 55.21875 -94.195312 55.21875 -94.9375 L 63.46875 -95.484375 C 63.46875 -90.492188 64.109375 -87.117188 65.390625 -85.359375 C 66.671875 -83.597656 68.523438 -82.71875 70.953125 -82.71875 C 73.441406 -82.71875 75.3125 -83.613281 76.5625 -85.40625 C 77.8125 -87.207031 78.4375 -90.566406 78.4375 -95.484375 L 86.796875 -94.9375 C 86.566406 -88.257812 85.113281 -83.320312 82.4375 -80.125 C 79.769531 -76.9375 75.976562 -75.34375 71.0625 -75.34375 C 64.019531 -75.34375 59.328125 -78.535156 56.984375 -84.921875 L 50.9375 -84.921875 C 44.769531 -84.921875 39.925781 -84.625 36.40625 -84.03125 C 32.882812 -83.445312 29.988281 -82.457031 27.71875 -81.0625 C 23.539062 -78.5 20.570312 -74.285156 18.8125 -68.421875 L 74.6875 -68.421875 L 74.6875 -60.609375 L 69.078125 -60.609375 C 68.710938 -52.910156 66.84375 -47.097656 63.46875 -43.171875 C 60.09375 -39.253906 55.988281 -36.5625 51.15625 -35.09375 C 55.257812 -33.332031 58.082031 -30.925781 59.625 -27.875 C 61.164062 -24.832031 61.9375 -21.957031 61.9375 -19.25 C 61.9375 -13.238281 60.0625 -8.523438 56.3125 -5.109375 C 52.570312 -1.703125 46.960938 0 39.484375 0 Z M 16.28125 -46.640625 C 16.28125 -44.222656 16.351562 -41.945312 16.5 -39.8125 L 30.90625 -39.8125 C 36.550781 -39.8125 40.878906 -40.050781 43.890625 -40.53125 C 46.898438 -41.007812 49.46875 -41.835938 51.59375 -43.015625 C 54.664062 -44.703125 56.84375 -46.972656 58.125 -49.828125 C 59.414062 -52.691406 60.132812 -56.285156 60.28125 -60.609375 L 17.046875 -60.609375 C 16.535156 -56.648438 16.28125 -51.992188 16.28125 -46.640625 Z M 29.15625 -32.015625 L 17.265625 -32.015625 C 18.296875 -25.484375 19.945312 -20.492188 22.21875 -17.046875 C 24.488281 -13.597656 27.09375 -11.234375 30.03125 -9.953125 C 32.96875 -8.671875 35.972656 -8.03125 39.046875 -8.03125 C 43.890625 -8.03125 47.410156 -8.960938 49.609375 -10.828125 C 51.804688 -12.703125 52.90625 -15.546875 52.90625 -19.359375 C 52.90625 -23.609375 51.289062 -26.722656 48.0625 -28.703125 C 46.894531 -29.441406 45.628906 -30.046875 44.265625 -30.515625 C 42.910156 -30.992188 41.078125 -31.363281 38.765625 -31.625 C 36.460938 -31.882812 33.257812 -32.015625 29.15625 -32.015625 Z M 29.15625 -32.015625 "/>
</symbol>
</g>
</defs>
  <g id="gurmukhi-abvs:id0:id0" transform="matrix(1.25,0,0,1.25,0.0,8.5546875)"><g id="gurmukhi-abvs:id0:surface1">
<g style="fill:rgb(0%,0%,0%);fill-opacity:1;">
  <use xlink:href="#gurmukhi-abvs:id0:glyph0-1" x="16" y="100.5625" class="c0"/>
  <use xlink:href="#gurmukhi-abvs:id0:glyph0-2" x="88.8125" y="100.5625" class="c1"/>
</g>
</g>
</g>
  <g id="gurmukhi-abvs:id1:id1" transform="matrix(1.25,0,0,1.25,131.015625,0.0)"><g id="gurmukhi-abvs:id1:surface1">
<g style="fill:rgb(0%,0%,0%);fill-opacity:1;">
  <use xlink:href="#gurmukhi-abvs:id1:glyph0-1" x="0" y="120.84375" class="arrow"/>
</g>
</g>
</g>
  <g id="gurmukhi-abvs:id2:id2" transform="matrix(1.25,0,0,1.25,263.61328125,8.5546875)"><g id="gurmukhi-abvs:id2:surface1">
<g style="fill:rgb(0%,0%,0%);fill-opacity:1;">
  <use xlink:href="#gurmukhi-abvs:id2:glyph0-1" x="16" y="100.5625" class="c2"/>
</g>
</g>
</g>
</svg>