<!DOCTYPE svg PUBLIC "-//W3C//DTD SVG 1.1//EN" "http://www.w3.org/Graphics/SVG/1.1/DTD/svg11.dtd">
<!-- Created with svg_stack (http://github.com/astraw/svg_stack) --><svg xmlns="http://www.w3.org/2000/svg" xmlns:sodipodi="http://sodipodi.sourceforge.net/DTD/sodipodi-0.dtd" xmlns:xlink="http://www.w3.org/1999/xlink" version="1.1" width="100%" id="gurmukhi-haln" viewBox="0 0 380.87890625 202.16796875">
  <defs><g>
<symbol overflow="visible" id="gurmukhi-haln:id0:glyph0-0">
<path style="stroke:none;" d="M 10.34375 0 L 10.34375 -78.546875 L 55.546875 -78.546875 L 55.546875 0 Z M 15.953125 -5.609375 L 49.9375 -5.609375 L 49.9375 -72.9375 L 15.953125 -72.9375 Z M 15.953125 -5.609375 "/>
</symbol>
<symbol overflow="visible" id="gurmukhi-haln:id0:glyph0-1">
<path style="stroke:none;" d="M 54.890625 -61.046875 C 55.328125 -59.503906 55.546875 -57.890625 55.546875 -56.203125 C 55.546875 -53.054688 54.738281 -50.109375 53.125 -47.359375 C 51.507812 -44.609375 49.273438 -42.390625 46.421875 -40.703125 C 49.867188 -39.085938 52.617188 -36.90625 54.671875 -34.15625 C 56.722656 -31.40625 57.75 -28.304688 57.75 -24.859375 C 57.75 -21.554688 56.90625 -18.660156 55.21875 -16.171875 C 53.53125 -13.679688 51.257812 -11.738281 48.40625 -10.34375 L 59.515625 2.96875 L 58.953125 3.734375 L 51.046875 3.734375 L 42.015625 -8.140625 C 40.253906 -7.703125 38.128906 -7.484375 35.640625 -7.484375 C 32.847656 -7.484375 29.691406 -7.867188 26.171875 -8.640625 C 22.660156 -9.410156 19.289062 -10.597656 16.0625 -12.203125 L 27.9375 2.859375 L 27.28125 3.734375 L 19.140625 3.734375 L 4.625 -20.234375 L 6.9375 -22.546875 C 9.207031 -20.929688 11.828125 -19.554688 14.796875 -18.421875 C 17.765625 -17.285156 20.769531 -16.421875 23.8125 -15.828125 C 26.851562 -15.242188 29.625 -14.953125 32.125 -14.953125 C 37.101562 -14.953125 41.257812 -15.960938 44.59375 -17.984375 C 47.9375 -20.003906 49.609375 -22.8125 49.609375 -26.40625 C 49.609375 -28.3125 48.945312 -30.253906 47.625 -32.234375 C 46.3125 -34.210938 44.113281 -35.785156 41.03125 -36.953125 C 38.46875 -36.003906 35.753906 -35.304688 32.890625 -34.859375 C 30.023438 -34.421875 27.3125 -34.203125 24.75 -34.203125 C 21.300781 -34.203125 18.328125 -34.71875 15.828125 -35.75 C 13.335938 -36.78125 12.09375 -38.320312 12.09375 -40.375 C 12.09375 -42.425781 13.285156 -43.910156 15.671875 -44.828125 C 18.054688 -45.742188 20.9375 -46.203125 24.3125 -46.203125 C 27.3125 -46.203125 30.257812 -45.941406 33.15625 -45.421875 C 36.0625 -44.910156 38.578125 -44.179688 40.703125 -43.234375 C 42.535156 -44.253906 44.070312 -45.847656 45.3125 -48.015625 C 46.5625 -50.179688 47.1875 -52.582031 47.1875 -55.21875 C 47.1875 -57.125 46.859375 -59.066406 46.203125 -61.046875 L -1.4375 -61.046875 L -3.84375 -67.4375 L -3.296875 -68.421875 L 68.75 -68.421875 L 71.171875 -62.15625 L 70.734375 -61.046875 Z M 54.890625 -61.046875 "/>
</symbol>
<symbol overflow="visible" id="gurmukhi-haln:id0:glyph0-2">
<path style="stroke:none;" d="M -22.65625 14.515625 L -24.640625 6.265625 C -23.535156 6.117188 -22.414062 6.007812 -21.28125 5.9375 C -20.144531 5.863281 -18.988281 5.828125 -17.8125 5.828125 C -14.882812 5.828125 -12.375 6.140625 -10.28125 6.765625 C -8.195312 7.390625 -6.273438 8.488281 -4.515625 10.0625 C -2.753906 11.644531 -0.90625 13.847656 1.03125 16.671875 C 2.976562 19.492188 5.3125 23.101562 8.03125 27.5 L 4.515625 29.703125 C 1.722656 25.296875 -0.675781 21.992188 -2.6875 19.796875 C -4.707031 17.597656 -6.78125 16.113281 -8.90625 15.34375 C -11.03125 14.570312 -13.597656 14.1875 -16.609375 14.1875 C -18.515625 14.1875 -20.53125 14.296875 -22.65625 14.515625 Z M -22.65625 14.515625 "/>
</symbol>
</g>
<g>
<symbol overflow="visible" id="gurmukhi-haln:id1:glyph0-0">
<path style="stroke:none;" d="M 5.375 -96.6875 L 69.828125 -96.6875 L 69.828125 0 L 5.375 0 Z M 8.0625 -2.6875 L 67.140625 -2.6875 L 67.140625 -94 L 8.0625 -94 Z M 8.0625 -2.6875 "/>
</symbol>
<symbol overflow="visible" id="gurmukhi-haln:id1:glyph0-1">
<path style="stroke:none;" d="M 68.15625 -13.75 L 66.28125 -18.640625 L 88.09375 -27.390625 L 6.984375 -27.390625 L 6.984375 -34 L 88.09375 -34 L 66.28125 -42.75 L 68.15625 -47.640625 L 99.09375 -34.265625 L 99.09375 -27.125 Z M 68.15625 -13.75 "/>
</symbol>
</g>
<g>
<symbol overflow="visible" id="gurmukhi-haln:id2:glyph0-0">
<path style="stroke:none;" d="M 10.34375 0 L 10.34375 -78.546875 L 55.546875 -78.546875 L 55.546875 0 Z M 15.953125 -5.609375 L 49.9375 -5.609375 L 49.9375 -72.9375 L 15.953125 -72.9375 Z M 15.953125 -5.609375 "/>
</symbol>
<symbol overflow="visible" id="gurmukhi-haln:id2:glyph0-1">
<path style="stroke:none;" d="M 54.890625 -61.046875 C 55.328125 -59.503906 55.546875 -57.890625 55.546875 -56.203125 C 55.546875 -53.054688 54.738281 -50.109375 53.125 -47.359375 C 51.507812 -44.609375 49.273438 -42.390625 46.421875 -40.703125 C 49.867188 -39.085938 52.617188 -36.90625 54.671875 -34.15625 C 56.722656 -31.40625 57.75 -28.304688 57.75 -24.859375 C 57.75 -21.554688 56.90625 -18.660156 55.21875 -16.171875 C 53.53125 -13.679688 51.257812 -11.738281 48.40625 -10.34375 L 59.515625 2.96875 L 58.953125 3.734375 L 51.046875 3.734375 L 42.015625 -8.140625 C 40.253906 -7.703125 38.128906 -7.484375 35.640625 -7.484375 C 32.847656 -7.484375 29.691406 -7.867188 26.171875 -8.640625 C 22.660156 -9.410156 19.289062 -10.597656 16.0625 -12.203125 L 27.9375 2.859375 L 27.28125 3.734375 L 19.140625 3.734375 L 4.625 -20.234375 L 6.9375 -22.546875 C 9.207031 -20.929688 11.828125 -19.554688 14.796875 -18.421875 C 17.765625 -17.285156 20.769531 -16.421875 23.8125 -15.828125 C 26.851562 -15.242188 29.625 -14.953125 32.125 -14.953125 C 37.101562 -14.953125 41.257812 -15.960938 44.59375 -17.984375 C 47.9375 -20.003906 49.609375 -22.8125 49.609375 -26.40625 C 49.609375 -28.3125 48.945312 -30.253906 47.625 -32.234375 C 46.3125 -34.210938 44.113281 -35.785156 41.03125 -36.953125 C 38.46875 -36.003906 35.753906 -35.304688 32.890625 -34.859375 C 30.023438 -34.421875 27.3125 -34.203125 24.75 -34.203125 C 21.300781 -34.203125 18.328125 -34.71875 15.828125 -35.75 C 13.335938 -36.78125 12.09375 -38.320312 12.09375 -40.375 C 12.09375 -42.425781 13.285156 -43.910156 15.671875 -44.828125 C 18.054688 -45.742188 20.9375 -46.203125 24.3125 -46.203125 C 27.3125 -46.203125 30.257812 -45.941406 33.15625 -45.421875 C 36.0625 -44.910156 38.578125 -44.179688 40.703125 -43.234375 C 42.535156 -44.253906 44.070312 -45.847656 45.3125 -48.015625 C 46.5625 -50.179688 47.1875 -52.582031 47.1875 -55.21875 C 47.1875 -57.125 46.859375 -59.066406 46.203125 -61.046875 L -1.4375 -61.046875 L -3.84375 -67.4375 L -3.296875 -68.421875 L 68.75 -68.421875 L 71.171875 -62.15625 L 70.734375 -61.046875 Z M 54.890625 -61.046875 "/>
</symbol>
<symbol overflow="visible" id="gurmukhi-haln:id2:glyph0-2">
<path style="stroke:none;" d="M -22.65625 14.515625 L -24.640625 6.265625 C -23.535156 6.117188 -22.414062 6.007812 -21.28125 5.9375 C -20.144531 5.863281 -18.988281 5.828125 -17.8125 5.828125 C -14.882812 5.828125 -12.375 6.140625 -10.28125 6.765625 C -8.195312 7.390625 -6.273438 8.488281 -4.515625 10.0625 C -2.753906 11.644531 -0.90625 13.847656 1.03125 16.671875 C 2.976562 19.492188 5.3125 23.101562 8.03125 27.5 L 4.515625 29.703125 C 1.722656 25.296875 -0.675781 21.992188 -2.6875 19.796875 C -4.707031 17.597656 -6.78125 16.113281 -8.90625 15.34375 C -11.03125 14.570312 -13.597656 14.1875 -16.609375 14.1875 C -18.515625 14.1875 -20.53125 14.296875 -22.65625 14.515625 Z M -22.65625 14.515625 "/>
</symbol>
</g>
</defs>
  <g id="gurmukhi-haln:id0:id0" transform="matrix(1.25,0,0,1.25,0.0,0.0)"><g id="gurmukhi-haln:id0:surface1">
<g style="fill:rgb(0%,0%,0%);fill-opacity:1;">
  <use xlink:href="#gurmukhi-haln:id0:glyph0-1" x="16" y="112.65625" class="c0"/>
  <use xlink:href="#gurmukhi-haln:id0:glyph0-2" x="83.3125" y="112.65625" class="c1"/>
</g>
</g>
</g>
  <g id="gurmukhi-haln:id1:id1" transform="matrix(1.25,0,0,1.25,124.140625,0.380859375)"><g id="gurmukhi-haln:id1:surface1">
<g style="fill:rgb(0%,0%,0%);fill-opacity:1;">
  <use xlink:href="#gurmukhi-haln:id1:glyph0-1" x="0" y="120.84375" class="arrow"/>
</g>
</g>
</g>
  <g id="gurmukhi-haln:id2:id2" transform="matrix(1.25,0,0,1.25,256.73828125,0.0)"><g id="gurmukhi-haln:id2:surface1">
<g style="fill:rgb(0%,0%,0%);fill-opacity:1;">
  <use xlink:href="#gurmukhi-haln:id2:glyph0-1" x="16" y="112.65625" class="c2"/>
  <use xlink:href="#gurmukhi-haln:id2:glyph0-2" x="81.453125" y="113.859375" class="c2"/>
</g>
</g>
</g>
</svg>
