<?xml version="1.0" standalone="no"?>
<!DOCTYPE svg PUBLIC "-//W3C//DTD SVG 1.1//EN"
 "http://www.w3.org/Graphics/SVG/1.1/DTD/svg11.dtd">
<!-- Created with svg_stack (http://github.com/astraw/svg_stack) -->
<svg xmlns="http://www.w3.org/2000/svg" xmlns:sodipodi="http://sodipodi.sourceforge.net/DTD/sodipodi-0.dtd" xmlns:xlink="http://www.w3.org/1999/xlink" version="1.1" width="418.02734375" height="202.16796875">
  <defs><g>
<symbol overflow="visible" id="id0:glyph0-0">
<path style="stroke:none;" d="M 10.34375 0 L 10.34375 -78.546875 L 55.546875 -78.546875 L 55.546875 0 Z M 15.953125 -5.609375 L 49.9375 -5.609375 L 49.9375 -72.9375 L 15.953125 -72.9375 Z M 15.953125 -5.609375 "/>
</symbol>
<symbol overflow="visible" id="id0:glyph0-1">
<path style="stroke:none;" d="M 85.46875 -61.046875 L 56.765625 -61.046875 C 56.242188 -58.191406 55.597656 -55.203125 54.828125 -52.078125 C 54.066406 -48.960938 53.0625 -45.867188 51.8125 -42.796875 C 54.894531 -40.734375 57.695312 -38.382812 60.21875 -35.75 C 62.75 -33.113281 64.785156 -30.179688 66.328125 -26.953125 C 67.867188 -23.722656 68.640625 -20.203125 68.640625 -16.390625 C 68.640625 -12.941406 67.847656 -9.785156 66.265625 -6.921875 C 64.691406 -4.066406 62.160156 -1.796875 58.671875 -0.109375 C 55.191406 1.578125 50.628906 2.382812 44.984375 2.3125 L 43.890625 0.984375 L 43.890625 -6.703125 C 49.898438 -6.628906 54.296875 -7.691406 57.078125 -9.890625 C 59.867188 -12.097656 61.265625 -15 61.265625 -18.59375 C 61.265625 -22.257812 60.128906 -25.6875 57.859375 -28.875 C 55.585938 -32.0625 52.726562 -34.789062 49.28125 -37.0625 C 47.59375 -33.476562 45.664062 -29.976562 43.5 -26.5625 C 41.34375 -23.15625 38.90625 -19.984375 36.1875 -17.046875 C 33.84375 -19.617188 31.679688 -22.460938 29.703125 -25.578125 C 27.722656 -28.691406 25.925781 -31.9375 24.3125 -35.3125 C 20.789062 -33.257812 17.835938 -30.785156 15.453125 -27.890625 C 13.066406 -24.992188 11.875 -21.710938 11.875 -18.046875 C 11.875 -14.378906 13.394531 -11.550781 16.4375 -9.5625 C 19.488281 -7.582031 23.539062 -6.628906 28.59375 -6.703125 L 29.59375 -5.28125 L 29.59375 2.3125 C 23.726562 2.53125 18.941406 1.5625 15.234375 -0.59375 C 11.535156 -2.757812 8.820312 -5.566406 7.09375 -9.015625 C 5.375 -12.460938 4.515625 -15.984375 4.515625 -19.578125 C 4.515625 -24.566406 5.960938 -29.039062 8.859375 -33 C 11.753906 -36.957031 15.617188 -40.367188 20.453125 -43.234375 C 19.359375 -46.304688 18.425781 -49.363281 17.65625 -52.40625 C 16.882812 -55.457031 16.316406 -58.335938 15.953125 -61.046875 L -1.4375 -61.046875 L -3.84375 -67.4375 L -3.296875 -68.421875 L 83.59375 -68.421875 L 86.015625 -62.15625 Z M 35.203125 -27.71875 C 37.328125 -30.4375 39.285156 -33.628906 41.078125 -37.296875 C 42.878906 -40.960938 44.4375 -44.863281 45.75 -49 C 47.070312 -53.144531 48.066406 -57.160156 48.734375 -61.046875 L 22.546875 -61.046875 C 23.054688 -57.160156 23.914062 -53.128906 25.125 -48.953125 C 26.34375 -44.773438 27.832031 -40.832031 29.59375 -37.125 C 31.351562 -33.414062 33.222656 -30.28125 35.203125 -27.71875 Z M 68.53125 -3.953125 C 68.53125 -5.640625 69.097656 -7.035156 70.234375 -8.140625 C 71.367188 -9.242188 72.78125 -9.796875 74.46875 -9.796875 C 76.226562 -9.796875 77.675781 -9.207031 78.8125 -8.03125 C 79.945312 -6.851562 80.515625 -5.421875 80.515625 -3.734375 C 80.515625 -2.117188 79.960938 -0.726562 78.859375 0.4375 C 77.765625 1.613281 76.335938 2.203125 74.578125 2.203125 C 72.816406 2.203125 71.367188 1.613281 70.234375 0.4375 C 69.097656 -0.726562 68.53125 -2.191406 68.53125 -3.953125 Z M 68.53125 -3.953125 "/>
</symbol>
<symbol overflow="visible" id="id0:glyph0-2">
<path style="stroke:none;" d="M -22.65625 14.515625 L -24.640625 6.265625 C -23.535156 6.117188 -22.414062 6.007812 -21.28125 5.9375 C -20.144531 5.863281 -18.988281 5.828125 -17.8125 5.828125 C -14.882812 5.828125 -12.375 6.140625 -10.28125 6.765625 C -8.195312 7.390625 -6.273438 8.488281 -4.515625 10.0625 C -2.753906 11.644531 -0.90625 13.847656 1.03125 16.671875 C 2.976562 19.492188 5.3125 23.101562 8.03125 27.5 L 4.515625 29.703125 C 1.722656 25.296875 -0.675781 21.992188 -2.6875 19.796875 C -4.707031 17.597656 -6.78125 16.113281 -8.90625 15.34375 C -11.03125 14.570312 -13.597656 14.1875 -16.609375 14.1875 C -18.515625 14.1875 -20.53125 14.296875 -22.65625 14.515625 Z M -22.65625 14.515625 "/>
</symbol>
</g>
<g>
<symbol overflow="visible" id="id1:glyph0-0">
<path style="stroke:none;" d="M 5.375 -96.6875 L 69.828125 -96.6875 L 69.828125 0 L 5.375 0 Z M 8.0625 -2.6875 L 67.140625 -2.6875 L 67.140625 -94 L 8.0625 -94 Z M 8.0625 -2.6875 "/>
</symbol>
<symbol overflow="visible" id="id1:glyph0-1">
<path style="stroke:none;" d="M 68.15625 -13.75 L 66.28125 -18.640625 L 88.09375 -27.390625 L 6.984375 -27.390625 L 6.984375 -34 L 88.09375 -34 L 66.28125 -42.75 L 68.15625 -47.640625 L 99.09375 -34.265625 L 99.09375 -27.125 Z M 68.15625 -13.75 "/>
</symbol>
</g>
<g>
<symbol overflow="visible" id="id2:glyph0-0">
<path style="stroke:none;" d="M 10.34375 0 L 10.34375 -78.546875 L 55.546875 -78.546875 L 55.546875 0 Z M 15.953125 -5.609375 L 49.9375 -5.609375 L 49.9375 -72.9375 L 15.953125 -72.9375 Z M 15.953125 -5.609375 "/>
</symbol>
<symbol overflow="visible" id="id2:glyph0-1">
<path style="stroke:none;" d="M 85.46875 -61.046875 L 56.765625 -61.046875 C 56.242188 -58.191406 55.597656 -55.203125 54.828125 -52.078125 C 54.066406 -48.960938 53.0625 -45.867188 51.8125 -42.796875 C 54.894531 -40.734375 57.695312 -38.382812 60.21875 -35.75 C 62.75 -33.113281 64.785156 -30.179688 66.328125 -26.953125 C 67.867188 -23.722656 68.640625 -20.203125 68.640625 -16.390625 C 68.640625 -12.941406 67.847656 -9.785156 66.265625 -6.921875 C 64.691406 -4.066406 62.160156 -1.796875 58.671875 -0.109375 C 55.191406 1.578125 50.628906 2.382812 44.984375 2.3125 L 43.890625 0.984375 L 43.890625 -6.703125 C 49.898438 -6.628906 54.296875 -7.691406 57.078125 -9.890625 C 59.867188 -12.097656 61.265625 -15 61.265625 -18.59375 C 61.265625 -22.257812 60.128906 -25.6875 57.859375 -28.875 C 55.585938 -32.0625 52.726562 -34.789062 49.28125 -37.0625 C 47.59375 -33.476562 45.664062 -29.976562 43.5 -26.5625 C 41.34375 -23.15625 38.90625 -19.984375 36.1875 -17.046875 C 33.84375 -19.617188 31.679688 -22.460938 29.703125 -25.578125 C 27.722656 -28.691406 25.925781 -31.9375 24.3125 -35.3125 C 20.789062 -33.257812 17.835938 -30.785156 15.453125 -27.890625 C 13.066406 -24.992188 11.875 -21.710938 11.875 -18.046875 C 11.875 -14.378906 13.394531 -11.550781 16.4375 -9.5625 C 19.488281 -7.582031 23.539062 -6.628906 28.59375 -6.703125 L 29.59375 -5.28125 L 29.59375 2.3125 C 23.726562 2.53125 18.941406 1.5625 15.234375 -0.59375 C 11.535156 -2.757812 8.820312 -5.566406 7.09375 -9.015625 C 5.375 -12.460938 4.515625 -15.984375 4.515625 -19.578125 C 4.515625 -24.566406 5.960938 -29.039062 8.859375 -33 C 11.753906 -36.957031 15.617188 -40.367188 20.453125 -43.234375 C 19.359375 -46.304688 18.425781 -49.363281 17.65625 -52.40625 C 16.882812 -55.457031 16.316406 -58.335938 15.953125 -61.046875 L -1.4375 -61.046875 L -3.84375 -67.4375 L -3.296875 -68.421875 L 83.59375 -68.421875 L 86.015625 -62.15625 Z M 35.203125 -27.71875 C 37.328125 -30.4375 39.285156 -33.628906 41.078125 -37.296875 C 42.878906 -40.960938 44.4375 -44.863281 45.75 -49 C 47.070312 -53.144531 48.066406 -57.160156 48.734375 -61.046875 L 22.546875 -61.046875 C 23.054688 -57.160156 23.914062 -53.128906 25.125 -48.953125 C 26.34375 -44.773438 27.832031 -40.832031 29.59375 -37.125 C 31.351562 -33.414062 33.222656 -30.28125 35.203125 -27.71875 Z M 68.53125 -3.953125 C 68.53125 -5.640625 69.097656 -7.035156 70.234375 -8.140625 C 71.367188 -9.242188 72.78125 -9.796875 74.46875 -9.796875 C 76.226562 -9.796875 77.675781 -9.207031 78.8125 -8.03125 C 79.945312 -6.851562 80.515625 -5.421875 80.515625 -3.734375 C 80.515625 -2.117188 79.960938 -0.726562 78.859375 0.4375 C 77.765625 1.613281 76.335938 2.203125 74.578125 2.203125 C 72.816406 2.203125 71.367188 1.613281 70.234375 0.4375 C 69.097656 -0.726562 68.53125 -2.191406 68.53125 -3.953125 Z M 68.53125 -3.953125 "/>
</symbol>
<symbol overflow="visible" id="id2:glyph0-2">
<path style="stroke:none;" d="M -22.65625 14.515625 L -24.640625 6.265625 C -23.535156 6.117188 -22.414062 6.007812 -21.28125 5.9375 C -20.144531 5.863281 -18.988281 5.828125 -17.8125 5.828125 C -14.882812 5.828125 -12.375 6.140625 -10.28125 6.765625 C -8.195312 7.390625 -6.273438 8.488281 -4.515625 10.0625 C -2.753906 11.644531 -0.90625 13.847656 1.03125 16.671875 C 2.976562 19.492188 5.3125 23.101562 8.03125 27.5 L 4.515625 29.703125 C 1.722656 25.296875 -0.675781 21.992188 -2.6875 19.796875 C -4.707031 17.597656 -6.78125 16.113281 -8.90625 15.34375 C -11.03125 14.570312 -13.597656 14.1875 -16.609375 14.1875 C -18.515625 14.1875 -20.53125 14.296875 -22.65625 14.515625 Z M -22.65625 14.515625 "/>
</symbol>
</g>
</defs>
  <g id="id0:id0" transform="matrix(1.25,0,0,1.25,0.0,0.0)"><g id="id0:surface1">
<g style="fill:rgb(0%,0%,0%);fill-opacity:1;">
  <use xlink:href="#id0:glyph0-1" x="16" y="112.65625"/>
  <use xlink:href="#id0:glyph0-2" x="98.171875" y="112.65625"/>
</g>
</g>
</g>
  <g id="id1:id1" transform="matrix(1.25,0,0,1.25,142.71484375,0.380859375)"><g id="id1:surface1">
<g style="fill:rgb(0%,0%,0%);fill-opacity:1;">
  <use xlink:href="#id1:glyph0-1" x="0" y="120.84375"/>
</g>
</g>
</g>
  <g id="id2:id2" transform="matrix(1.25,0,0,1.25,275.3125,0.0)"><g id="id2:surface1">
<g style="fill:rgb(0%,0%,0%);fill-opacity:1;">
  <use xlink:href="#id2:glyph0-1" x="16" y="112.65625"/>
  <use xlink:href="#id2:glyph0-2" x="98.171875" y="112.65625"/>
</g>
</g>
</g>
</svg>
