<!DOCTYPE svg PUBLIC "-//W3C//DTD SVG 1.1//EN" "http://www.w3.org/Graphics/SVG/1.1/DTD/svg11.dtd">
<!-- Created with svg_stack (http://github.com/astraw/svg_stack) --><svg xmlns="http://www.w3.org/2000/svg" xmlns:sodipodi="http://sodipodi.sourceforge.net/DTD/sodipodi-0.dtd" xmlns:xlink="http://www.w3.org/1999/xlink" version="1.1" width="100%" id="gurmukhi-nukt" viewBox="0 0 455.29296875 201.40625">
  <defs><g>
<symbol overflow="visible" id="gurmukhi-nukt:id0:glyph0-0">
<path style="stroke:none;" d="M 10.34375 0 L 10.34375 -78.546875 L 55.546875 -78.546875 L 55.546875 0 Z M 15.953125 -5.609375 L 49.9375 -5.609375 L 49.9375 -72.9375 L 15.953125 -72.9375 Z M 15.953125 -5.609375 "/>
</symbol>
<symbol overflow="visible" id="gurmukhi-nukt:id0:glyph0-1">
<path style="stroke:none;" d="M 46.859375 0 L 46.859375 -28.703125 L 21.125 -28.703125 C 20.832031 -22.691406 19.894531 -17.890625 18.3125 -14.296875 C 16.738281 -10.703125 14.484375 -8.90625 11.546875 -8.90625 C 10.078125 -8.90625 8.847656 -9.34375 7.859375 -10.21875 C 6.867188 -11.101562 6.375 -12.796875 6.375 -15.296875 C 6.375 -16.898438 6.8125 -19.28125 7.6875 -22.4375 C 8.570312 -25.59375 10.375 -28.675781 13.09375 -31.6875 C 12.875 -36.445312 12.285156 -41.335938 11.328125 -46.359375 C 10.378906 -51.390625 9.0625 -56.140625 7.375 -60.609375 L -0.765625 -60.609375 L -0.765625 -68.421875 L 66.328125 -68.421875 L 66.328125 -60.609375 L 55.765625 -60.609375 L 55.765625 0 Z M 21.234375 -36.515625 L 46.859375 -36.515625 L 46.859375 -60.609375 L 16.828125 -60.609375 C 18.296875 -56.210938 19.378906 -51.957031 20.078125 -47.84375 C 20.773438 -43.738281 21.160156 -39.960938 21.234375 -36.515625 Z M 21.234375 -36.515625 "/>
</symbol>
<symbol overflow="visible" id="gurmukhi-nukt:id0:glyph0-2">
<path style="stroke:none;" d="M 31.015625 -50.265625 C 28.960938 -50.265625 27.9375 -51.328125 27.9375 -53.453125 C 27.9375 -55.515625 28.960938 -56.546875 31.015625 -56.546875 C 33.210938 -56.546875 34.3125 -55.515625 34.3125 -53.453125 C 34.3125 -51.328125 33.210938 -50.265625 31.015625 -50.265625 Z M 45.3125 -44.765625 C 43.1875 -44.765625 42.125 -45.828125 42.125 -47.953125 C 42.125 -50.085938 43.1875 -51.15625 45.3125 -51.15625 C 47.445312 -51.15625 48.515625 -50.085938 48.515625 -47.953125 C 48.515625 -45.828125 47.445312 -44.765625 45.3125 -44.765625 Z M 16.828125 -44.765625 C 14.773438 -44.765625 13.75 -45.828125 13.75 -47.953125 C 13.75 -50.085938 14.773438 -51.15625 16.828125 -51.15625 C 18.953125 -51.15625 20.015625 -50.085938 20.015625 -47.953125 C 20.015625 -45.828125 18.953125 -44.765625 16.828125 -44.765625 Z M 11.984375 -31.125 C 9.859375 -31.125 8.796875 -32.1875 8.796875 -34.3125 C 8.796875 -36.375 9.859375 -37.40625 11.984375 -37.40625 C 14.035156 -37.40625 15.0625 -36.375 15.0625 -34.3125 C 15.0625 -32.1875 14.035156 -31.125 11.984375 -31.125 Z M 50.265625 -31.125 C 48.140625 -31.125 47.078125 -32.1875 47.078125 -34.3125 C 47.078125 -36.375 48.140625 -37.40625 50.265625 -37.40625 C 52.390625 -37.40625 53.453125 -36.375 53.453125 -34.3125 C 53.453125 -32.1875 52.390625 -31.125 50.265625 -31.125 Z M 16.828125 -17.375 C 14.773438 -17.375 13.75 -18.4375 13.75 -20.5625 C 13.75 -22.695312 14.773438 -23.765625 16.828125 -23.765625 C 18.953125 -23.765625 20.015625 -22.695312 20.015625 -20.5625 C 20.015625 -18.4375 18.953125 -17.375 16.828125 -17.375 Z M 45.3125 -17.375 C 43.1875 -17.375 42.125 -18.4375 42.125 -20.5625 C 42.125 -22.695312 43.1875 -23.765625 45.3125 -23.765625 C 47.445312 -23.765625 48.515625 -22.695312 48.515625 -20.5625 C 48.515625 -18.4375 47.445312 -17.375 45.3125 -17.375 Z M 31.015625 -11.875 C 28.960938 -11.875 27.9375 -12.9375 27.9375 -15.0625 C 27.9375 -17.195312 28.960938 -18.265625 31.015625 -18.265625 C 33.210938 -18.265625 34.3125 -17.195312 34.3125 -15.0625 C 34.3125 -12.9375 33.210938 -11.875 31.015625 -11.875 Z M 31.015625 -11.875 "/>
</symbol>
<symbol overflow="visible" id="gurmukhi-nukt:id0:glyph0-3">
<path style="stroke:none;" d="M -31.125 21.015625 C -32.738281 21.015625 -34.148438 20.460938 -35.359375 19.359375 C -36.578125 18.253906 -37.1875 16.710938 -37.1875 14.734375 C -37.1875 12.753906 -36.578125 11.210938 -35.359375 10.109375 C -34.148438 9.015625 -32.738281 8.46875 -31.125 8.46875 C -29.4375 8.46875 -28.003906 9.015625 -26.828125 10.109375 C -25.660156 11.210938 -25.078125 12.753906 -25.078125 14.734375 C -25.078125 16.710938 -25.644531 18.253906 -26.78125 19.359375 C -27.914062 20.460938 -29.363281 21.015625 -31.125 21.015625 Z M -31.125 21.015625 "/>
</symbol>
</g>
<g>
<symbol overflow="visible" id="gurmukhi-nukt:id1:glyph0-0">
<path style="stroke:none;" d="M 5.375 -96.6875 L 69.828125 -96.6875 L 69.828125 0 L 5.375 0 Z M 8.0625 -2.6875 L 67.140625 -2.6875 L 67.140625 -94 L 8.0625 -94 Z M 8.0625 -2.6875 "/>
</symbol>
<symbol overflow="visible" id="gurmukhi-nukt:id1:glyph0-1">
<path style="stroke:none;" d="M 68.15625 -13.75 L 66.28125 -18.640625 L 88.09375 -27.390625 L 6.984375 -27.390625 L 6.984375 -34 L 88.09375 -34 L 66.28125 -42.75 L 68.15625 -47.640625 L 99.09375 -34.265625 L 99.09375 -27.125 Z M 68.15625 -13.75 "/>
</symbol>
</g>
<g>
<symbol overflow="visible" id="gurmukhi-nukt:id2:glyph0-0">
<path style="stroke:none;" d="M 10.34375 0 L 10.34375 -78.546875 L 55.546875 -78.546875 L 55.546875 0 Z M 15.953125 -5.609375 L 49.9375 -5.609375 L 49.9375 -72.9375 L 15.953125 -72.9375 Z M 15.953125 -5.609375 "/>
</symbol>
<symbol overflow="visible" id="gurmukhi-nukt:id2:glyph0-1">
<path style="stroke:none;" d="M 47.625 0 L 47.625 -28.703125 L 21.125 -28.703125 C 20.832031 -22.691406 19.894531 -17.890625 18.3125 -14.296875 C 16.738281 -10.703125 14.484375 -8.90625 11.546875 -8.90625 C 10.078125 -8.90625 8.847656 -9.34375 7.859375 -10.21875 C 6.867188 -11.101562 6.375 -12.796875 6.375 -15.296875 C 6.375 -16.898438 6.8125 -19.28125 7.6875 -22.4375 C 8.570312 -25.59375 10.375 -28.675781 13.09375 -31.6875 C 12.875 -36.445312 12.285156 -41.335938 11.328125 -46.359375 C 10.378906 -51.390625 9.0625 -56.140625 7.375 -60.609375 L -0.765625 -60.609375 L -0.765625 -68.421875 L 67.09375 -68.421875 L 67.09375 -60.609375 L 56.546875 -60.609375 L 56.546875 0 Z M 21.234375 -36.515625 L 47.625 -36.515625 L 47.625 -60.609375 L 16.828125 -60.609375 C 18.296875 -56.210938 19.378906 -51.957031 20.078125 -47.84375 C 20.773438 -43.738281 21.160156 -39.960938 21.234375 -36.515625 Z M 30.90625 0.984375 C 29.21875 0.984375 27.785156 0.4375 26.609375 -0.65625 C 25.441406 -1.757812 24.859375 -3.300781 24.859375 -5.28125 C 24.859375 -7.257812 25.441406 -8.796875 26.609375 -9.890625 C 27.785156 -10.992188 29.21875 -11.546875 30.90625 -11.546875 C 32.59375 -11.546875 34.019531 -10.992188 35.1875 -9.890625 C 36.363281 -8.796875 36.953125 -7.257812 36.953125 -5.28125 C 36.953125 -3.300781 36.382812 -1.757812 35.25 -0.65625 C 34.113281 0.4375 32.664062 0.984375 30.90625 0.984375 Z M 30.90625 0.984375 "/>
</symbol>
</g>
</defs>
  <g id="gurmukhi-nukt:id0:id0" transform="matrix(1.25,0,0,1.25,0.0,8.5546875)"><g id="gurmukhi-nukt:id0:surface1">
<g style="fill:rgb(0%,0%,0%);fill-opacity:1;">
  <use xlink:href="#gurmukhi-nukt:id0:glyph0-1" x="16" y="100.5625" class="c0"/>
  <use xlink:href="#gurmukhi-nukt:id0:glyph0-2" x="81.5625" y="100.5625" class="dc"/>
  <use xlink:href="#gurmukhi-nukt:id0:glyph0-3" x="143.828125" y="100.5625" class="c1"/>
</g>
</g>
</g>
  <g id="gurmukhi-nukt:id1:id1" transform="matrix(1.25,0,0,1.25,199.78515625,0.0)"><g id="gurmukhi-nukt:id1:surface1">
<g style="fill:rgb(0%,0%,0%);fill-opacity:1;">
  <use xlink:href="#gurmukhi-nukt:id1:glyph0-1" x="0" y="120.84375" class="arrow"/>
</g>
</g>
</g>
  <g id="gurmukhi-nukt:id2:id2" transform="matrix(1.25,0,0,1.25,332.3828125,8.5546875)"><g id="gurmukhi-nukt:id2:surface1">
<g style="fill:rgb(0%,0%,0%);fill-opacity:1;">
  <use xlink:href="#gurmukhi-nukt:id2:glyph0-1" x="16" y="100.5625" class="c2"/>
</g>
</g>
</g>
</svg>