<!DOCTYPE svg PUBLIC "-//W3C//DTD SVG 1.1//EN" "http://www.w3.org/Graphics/SVG/1.1/DTD/svg11.dtd">
<!-- Created with svg_stack (http://github.com/astraw/svg_stack) --><svg xmlns="http://www.w3.org/2000/svg" xmlns:sodipodi="http://sodipodi.sourceforge.net/DTD/sodipodi-0.dtd" xmlns:xlink="http://www.w3.org/1999/xlink" version="1.1" width="100%" id="gurmukhi-blwm" viewBox="0 0 417.48046875 202.16796875">
  <defs><g>
<symbol overflow="visible" id="gurmukhi-blwm:id0:glyph0-0">
<path style="stroke:none;" d="M 10.34375 0 L 10.34375 -78.546875 L 55.546875 -78.546875 L 55.546875 0 Z M 15.953125 -5.609375 L 49.9375 -5.609375 L 49.9375 -72.9375 L 15.953125 -72.9375 Z M 15.953125 -5.609375 "/>
</symbol>
<symbol overflow="visible" id="gurmukhi-blwm:id0:glyph0-1">
<path style="stroke:none;" d="M 85.796875 -62.15625 L 85.359375 -61.046875 L 72.265625 -61.046875 L 72.265625 2.640625 L 71.171875 3.1875 L 63.25 -0.875 L 63.25 -61.046875 L 45.65625 -61.046875 L 45.65625 -19.6875 C 45.65625 -12.28125 44.441406 -6.816406 42.015625 -3.296875 C 39.597656 0.222656 35.96875 1.984375 31.125 1.984375 C 27.75 1.984375 24.375 1.050781 21 -0.8125 C 17.632812 -2.6875 14.59375 -5.144531 11.875 -8.1875 C 9.164062 -11.238281 6.984375 -14.519531 5.328125 -18.03125 C 3.679688 -21.550781 2.859375 -24.960938 2.859375 -28.265625 C 2.859375 -30.835938 3.425781 -33.296875 4.5625 -35.640625 C 5.695312 -37.984375 7.601562 -39.890625 10.28125 -41.359375 C 12.957031 -42.828125 16.570312 -43.5625 21.125 -43.5625 L 36.84375 -43.5625 L 36.84375 -61.046875 L -1.4375 -61.046875 L -3.84375 -67.4375 L -3.296875 -68.421875 L 83.375 -68.421875 Z M 29.046875 -4.515625 C 32.046875 -4.515625 34.09375 -5.796875 35.1875 -8.359375 C 36.289062 -10.921875 36.84375 -14.695312 36.84375 -19.6875 L 36.84375 -36.1875 L 24.421875 -36.1875 C 19.941406 -36.1875 16.691406 -35.285156 14.671875 -33.484375 C 12.660156 -31.691406 11.65625 -29.21875 11.65625 -26.0625 C 11.65625 -23.570312 12.1875 -21.0625 13.25 -18.53125 C 14.3125 -16 15.703125 -13.671875 17.421875 -11.546875 C 19.148438 -9.421875 21.039062 -7.71875 23.09375 -6.4375 C 25.15625 -5.15625 27.140625 -4.515625 29.046875 -4.515625 Z M 29.046875 -4.515625 "/>
</symbol>
<symbol overflow="visible" id="gurmukhi-blwm:id0:glyph0-2">
<path style="stroke:none;" d="M 5.5 21.015625 L 7.375 29.265625 C 6.34375 29.335938 5.238281 29.425781 4.0625 29.53125 C 2.894531 29.644531 1.757812 29.703125 0.65625 29.703125 C -2.34375 29.703125 -4.941406 29.316406 -7.140625 28.546875 C -9.347656 27.773438 -11.367188 26.546875 -13.203125 24.859375 C -15.035156 23.171875 -16.90625 20.953125 -18.8125 18.203125 C -20.71875 15.453125 -22.878906 12.0625 -25.296875 8.03125 L -21.671875 5.828125 C -19.097656 9.640625 -16.835938 12.679688 -14.890625 14.953125 C -12.953125 17.234375 -10.898438 18.867188 -8.734375 19.859375 C -6.578125 20.847656 -3.882812 21.34375 -0.65625 21.34375 C 1.25 21.34375 3.300781 21.234375 5.5 21.015625 Z M 5.5 21.015625 "/>
</symbol>
</g>
<g>
<symbol overflow="visible" id="gurmukhi-blwm:id1:glyph0-0">
<path style="stroke:none;" d="M 5.375 -96.6875 L 69.828125 -96.6875 L 69.828125 0 L 5.375 0 Z M 8.0625 -2.6875 L 67.140625 -2.6875 L 67.140625 -94 L 8.0625 -94 Z M 8.0625 -2.6875 "/>
</symbol>
<symbol overflow="visible" id="gurmukhi-blwm:id1:glyph0-1">
<path style="stroke:none;" d="M 68.15625 -13.75 L 66.28125 -18.640625 L 88.09375 -27.390625 L 6.984375 -27.390625 L 6.984375 -34 L 88.09375 -34 L 66.28125 -42.75 L 68.15625 -47.640625 L 99.09375 -34.265625 L 99.09375 -27.125 Z M 68.15625 -13.75 "/>
</symbol>
</g>
<g>
<symbol overflow="visible" id="gurmukhi-blwm:id2:glyph0-0">
<path style="stroke:none;" d="M 10.34375 0 L 10.34375 -78.546875 L 55.546875 -78.546875 L 55.546875 0 Z M 15.953125 -5.609375 L 49.9375 -5.609375 L 49.9375 -72.9375 L 15.953125 -72.9375 Z M 15.953125 -5.609375 "/>
</symbol>
<symbol overflow="visible" id="gurmukhi-blwm:id2:glyph0-1">
<path style="stroke:none;" d="M 85.796875 -62.15625 L 85.359375 -61.046875 L 72.265625 -61.046875 L 72.265625 2.640625 L 71.171875 3.1875 L 63.25 -0.875 L 63.25 -61.046875 L 45.65625 -61.046875 L 45.65625 -19.6875 C 45.65625 -12.28125 44.441406 -6.816406 42.015625 -3.296875 C 39.597656 0.222656 35.96875 1.984375 31.125 1.984375 C 27.75 1.984375 24.375 1.050781 21 -0.8125 C 17.632812 -2.6875 14.59375 -5.144531 11.875 -8.1875 C 9.164062 -11.238281 6.984375 -14.519531 5.328125 -18.03125 C 3.679688 -21.550781 2.859375 -24.960938 2.859375 -28.265625 C 2.859375 -30.835938 3.425781 -33.296875 4.5625 -35.640625 C 5.695312 -37.984375 7.601562 -39.890625 10.28125 -41.359375 C 12.957031 -42.828125 16.570312 -43.5625 21.125 -43.5625 L 36.84375 -43.5625 L 36.84375 -61.046875 L -1.4375 -61.046875 L -3.84375 -67.4375 L -3.296875 -68.421875 L 83.375 -68.421875 Z M 29.046875 -4.515625 C 32.046875 -4.515625 34.09375 -5.796875 35.1875 -8.359375 C 36.289062 -10.921875 36.84375 -14.695312 36.84375 -19.6875 L 36.84375 -36.1875 L 24.421875 -36.1875 C 19.941406 -36.1875 16.691406 -35.285156 14.671875 -33.484375 C 12.660156 -31.691406 11.65625 -29.21875 11.65625 -26.0625 C 11.65625 -23.570312 12.1875 -21.0625 13.25 -18.53125 C 14.3125 -16 15.703125 -13.671875 17.421875 -11.546875 C 19.148438 -9.421875 21.039062 -7.71875 23.09375 -6.4375 C 25.15625 -5.15625 27.140625 -4.515625 29.046875 -4.515625 Z M 29.046875 -4.515625 "/>
</symbol>
<symbol overflow="visible" id="gurmukhi-blwm:id2:glyph0-2">
<path style="stroke:none;" d="M 5.5 21.015625 L 7.375 29.265625 C 6.34375 29.335938 5.238281 29.425781 4.0625 29.53125 C 2.894531 29.644531 1.757812 29.703125 0.65625 29.703125 C -2.34375 29.703125 -4.941406 29.316406 -7.140625 28.546875 C -9.347656 27.773438 -11.367188 26.546875 -13.203125 24.859375 C -15.035156 23.171875 -16.90625 20.953125 -18.8125 18.203125 C -20.71875 15.453125 -22.878906 12.0625 -25.296875 8.03125 L -21.671875 5.828125 C -19.097656 9.640625 -16.835938 12.679688 -14.890625 14.953125 C -12.953125 17.234375 -10.898438 18.867188 -8.734375 19.859375 C -6.578125 20.847656 -3.882812 21.34375 -0.65625 21.34375 C 1.25 21.34375 3.300781 21.234375 5.5 21.015625 Z M 5.5 21.015625 "/>
</symbol>
</g>
</defs>
  <g id="gurmukhi-blwm:id0:id0" transform="matrix(1.25,0,0,1.25,0.0,0.0)"><g id="gurmukhi-blwm:id0:surface1">
<g style="fill:rgb(0%,0%,0%);fill-opacity:1;">
  <use xlink:href="#gurmukhi-blwm:id0:glyph0-1" x="16" y="112.65625" class="c0"/>
  <use xlink:href="#gurmukhi-blwm:id0:glyph0-2" x="97.953125" y="112.65625" class="c1"/>
</g>
</g>
</g>
  <g id="gurmukhi-blwm:id1:id1" transform="matrix(1.25,0,0,1.25,142.44140625,0.380859375)"><g id="gurmukhi-blwm:id1:surface1">
<g style="fill:rgb(0%,0%,0%);fill-opacity:1;">
  <use xlink:href="#gurmukhi-blwm:id1:glyph0-1" x="0" y="120.84375" class="arrow"/>
</g>
</g>
</g>
  <g id="gurmukhi-blwm:id2:id2" transform="matrix(1.25,0,0,1.25,275.0390625,0.0)"><g id="gurmukhi-blwm:id2:surface1">
<g style="fill:rgb(0%,0%,0%);fill-opacity:1;">
  <use xlink:href="#gurmukhi-blwm:id2:glyph0-1" x="16" y="112.65625" class="c0"/>
  <use xlink:href="#gurmukhi-blwm:id2:glyph0-2" x="103.890625" y="112.65625" class="c1"/>
</g>
</g>
</g>
</svg>
