<!DOCTYPE svg PUBLIC "-//W3C//DTD SVG 1.1//EN" "http://www.w3.org/Graphics/SVG/1.1/DTD/svg11.dtd">
<!-- Created with svg_stack (http://github.com/astraw/svg_stack) --><svg xmlns="http://www.w3.org/2000/svg" xmlns:sodipodi="http://sodipodi.sourceforge.net/DTD/sodipodi-0.dtd" xmlns:xlink="http://www.w3.org/1999/xlink" version="1.1" width="447.87109375" height="201.40625" id="gurmukhi-blwf-ra">
  <defs><g>
<symbol overflow="visible" id="gurmukhi-blwf-ra:id0:glyph0-0">
<path style="stroke:none;" d="M 10.34375 0 L 10.34375 -78.546875 L 55.546875 -78.546875 L 55.546875 0 Z M 15.953125 -5.609375 L 49.9375 -5.609375 L 49.9375 -72.9375 L 15.953125 -72.9375 Z M 15.953125 -5.609375 "/>
</symbol>
<symbol overflow="visible" id="gurmukhi-blwf-ra:id0:glyph0-1">
<path style="stroke:none;" d="M 31.015625 -50.265625 C 28.960938 -50.265625 27.9375 -51.328125 27.9375 -53.453125 C 27.9375 -55.515625 28.960938 -56.546875 31.015625 -56.546875 C 33.210938 -56.546875 34.3125 -55.515625 34.3125 -53.453125 C 34.3125 -51.328125 33.210938 -50.265625 31.015625 -50.265625 Z M 45.3125 -44.765625 C 43.1875 -44.765625 42.125 -45.828125 42.125 -47.953125 C 42.125 -50.085938 43.1875 -51.15625 45.3125 -51.15625 C 47.445312 -51.15625 48.515625 -50.085938 48.515625 -47.953125 C 48.515625 -45.828125 47.445312 -44.765625 45.3125 -44.765625 Z M 16.828125 -44.765625 C 14.773438 -44.765625 13.75 -45.828125 13.75 -47.953125 C 13.75 -50.085938 14.773438 -51.15625 16.828125 -51.15625 C 18.953125 -51.15625 20.015625 -50.085938 20.015625 -47.953125 C 20.015625 -45.828125 18.953125 -44.765625 16.828125 -44.765625 Z M 11.984375 -31.125 C 9.859375 -31.125 8.796875 -32.1875 8.796875 -34.3125 C 8.796875 -36.375 9.859375 -37.40625 11.984375 -37.40625 C 14.035156 -37.40625 15.0625 -36.375 15.0625 -34.3125 C 15.0625 -32.1875 14.035156 -31.125 11.984375 -31.125 Z M 50.265625 -31.125 C 48.140625 -31.125 47.078125 -32.1875 47.078125 -34.3125 C 47.078125 -36.375 48.140625 -37.40625 50.265625 -37.40625 C 52.390625 -37.40625 53.453125 -36.375 53.453125 -34.3125 C 53.453125 -32.1875 52.390625 -31.125 50.265625 -31.125 Z M 16.828125 -17.375 C 14.773438 -17.375 13.75 -18.4375 13.75 -20.5625 C 13.75 -22.695312 14.773438 -23.765625 16.828125 -23.765625 C 18.953125 -23.765625 20.015625 -22.695312 20.015625 -20.5625 C 20.015625 -18.4375 18.953125 -17.375 16.828125 -17.375 Z M 45.3125 -17.375 C 43.1875 -17.375 42.125 -18.4375 42.125 -20.5625 C 42.125 -22.695312 43.1875 -23.765625 45.3125 -23.765625 C 47.445312 -23.765625 48.515625 -22.695312 48.515625 -20.5625 C 48.515625 -18.4375 47.445312 -17.375 45.3125 -17.375 Z M 31.015625 -11.875 C 28.960938 -11.875 27.9375 -12.9375 27.9375 -15.0625 C 27.9375 -17.195312 28.960938 -18.265625 31.015625 -18.265625 C 33.210938 -18.265625 34.3125 -17.195312 34.3125 -15.0625 C 34.3125 -12.9375 33.210938 -11.875 31.015625 -11.875 Z M 31.015625 -11.875 "/>
</symbol>
<symbol overflow="visible" id="gurmukhi-blwf-ra:id0:glyph0-2">
<path style="stroke:none;" d="M 2.859375 27.0625 C 1.097656 22.582031 -0.929688 19.296875 -3.234375 17.203125 C -5.546875 15.117188 -7.910156 13.765625 -10.328125 13.140625 C -12.753906 12.515625 -15.03125 12.203125 -17.15625 12.203125 C -17.519531 12.203125 -17.90625 12.203125 -18.3125 12.203125 C -18.71875 12.203125 -19.140625 12.238281 -19.578125 12.3125 L -20.125 3.953125 C -19.539062 3.878906 -19.007812 3.84375 -18.53125 3.84375 C -18.050781 3.84375 -17.664062 3.84375 -17.375 3.84375 C -13.5625 3.84375 -9.910156 4.46875 -6.421875 5.71875 C -2.941406 6.96875 0.257812 9.113281 3.1875 12.15625 C 6.125 15.195312 8.582031 19.394531 10.5625 24.75 Z M 2.859375 27.0625 "/>
</symbol>
<symbol overflow="visible" id="gurmukhi-blwf-ra:id0:glyph0-3">
<path style="stroke:none;" d="M 34.09375 0 C 30.132812 0 26.359375 -0.785156 22.765625 -2.359375 C 19.171875 -3.941406 15.960938 -6.070312 13.140625 -8.75 C 10.316406 -11.425781 8.097656 -14.46875 6.484375 -17.875 C 4.867188 -21.28125 4.0625 -24.78125 4.0625 -28.375 C 4.0625 -31.019531 4.519531 -33.273438 5.4375 -35.140625 C 6.351562 -37.015625 7.546875 -38.613281 9.015625 -39.9375 C 10.992188 -41.613281 13.503906 -42.851562 16.546875 -43.65625 C 19.597656 -44.46875 24.054688 -44.875 29.921875 -44.875 L 44.984375 -44.875 L 44.984375 -60.609375 L -0.765625 -60.609375 L -0.765625 -68.421875 L 64.453125 -68.421875 L 64.453125 -60.609375 L 53.90625 -60.609375 L 53.90625 -18.921875 C 53.90625 -12.535156 52.289062 -7.785156 49.0625 -4.671875 C 45.832031 -1.554688 40.84375 0 34.09375 0 Z M 34.875 -8.03125 C 36.5625 -8.03125 38.097656 -8.210938 39.484375 -8.578125 C 40.878906 -8.941406 42.019531 -9.601562 42.90625 -10.5625 C 43.5625 -11.363281 44.070312 -12.40625 44.4375 -13.6875 C 44.800781 -14.976562 44.984375 -17.125 44.984375 -20.125 L 44.984375 -37.0625 L 31.015625 -37.0625 C 26.472656 -37.0625 23.0625 -36.859375 20.78125 -36.453125 C 18.507812 -36.054688 16.753906 -35.304688 15.515625 -34.203125 C 14.554688 -33.398438 13.894531 -32.445312 13.53125 -31.34375 C 13.164062 -30.25 12.984375 -29.039062 12.984375 -27.71875 C 12.984375 -25.375 13.601562 -23.023438 14.84375 -20.671875 C 16.09375 -18.328125 17.757812 -16.203125 19.84375 -14.296875 C 21.9375 -12.390625 24.285156 -10.867188 26.890625 -9.734375 C 29.492188 -8.597656 32.15625 -8.03125 34.875 -8.03125 Z M 34.875 -8.03125 "/>
</symbol>
</g>
<g>
<symbol overflow="visible" id="gurmukhi-blwf-ra:id1:glyph0-0">
<path style="stroke:none;" d="M 5.375 -96.6875 L 69.828125 -96.6875 L 69.828125 0 L 5.375 0 Z M 8.0625 -2.6875 L 67.140625 -2.6875 L 67.140625 -94 L 8.0625 -94 Z M 8.0625 -2.6875 "/>
</symbol>
<symbol overflow="visible" id="gurmukhi-blwf-ra:id1:glyph0-1">
<path style="stroke:none;" d="M 68.15625 -13.75 L 66.28125 -18.640625 L 88.09375 -27.390625 L 6.984375 -27.390625 L 6.984375 -34 L 88.09375 -34 L 66.28125 -42.75 L 68.15625 -47.640625 L 99.09375 -34.265625 L 99.09375 -27.125 Z M 68.15625 -13.75 "/>
</symbol>
</g>
<g>
<symbol overflow="visible" id="gurmukhi-blwf-ra:id2:glyph0-0">
<path style="stroke:none;" d="M 10.34375 0 L 10.34375 -78.546875 L 55.546875 -78.546875 L 55.546875 0 Z M 15.953125 -5.609375 L 49.9375 -5.609375 L 49.9375 -72.9375 L 15.953125 -72.9375 Z M 15.953125 -5.609375 "/>
</symbol>
<symbol overflow="visible" id="gurmukhi-blwf-ra:id2:glyph0-1">
<path style="stroke:none;" d="M 31.015625 -50.265625 C 28.960938 -50.265625 27.9375 -51.328125 27.9375 -53.453125 C 27.9375 -55.515625 28.960938 -56.546875 31.015625 -56.546875 C 33.210938 -56.546875 34.3125 -55.515625 34.3125 -53.453125 C 34.3125 -51.328125 33.210938 -50.265625 31.015625 -50.265625 Z M 45.3125 -44.765625 C 43.1875 -44.765625 42.125 -45.828125 42.125 -47.953125 C 42.125 -50.085938 43.1875 -51.15625 45.3125 -51.15625 C 47.445312 -51.15625 48.515625 -50.085938 48.515625 -47.953125 C 48.515625 -45.828125 47.445312 -44.765625 45.3125 -44.765625 Z M 16.828125 -44.765625 C 14.773438 -44.765625 13.75 -45.828125 13.75 -47.953125 C 13.75 -50.085938 14.773438 -51.15625 16.828125 -51.15625 C 18.953125 -51.15625 20.015625 -50.085938 20.015625 -47.953125 C 20.015625 -45.828125 18.953125 -44.765625 16.828125 -44.765625 Z M 11.984375 -31.125 C 9.859375 -31.125 8.796875 -32.1875 8.796875 -34.3125 C 8.796875 -36.375 9.859375 -37.40625 11.984375 -37.40625 C 14.035156 -37.40625 15.0625 -36.375 15.0625 -34.3125 C 15.0625 -32.1875 14.035156 -31.125 11.984375 -31.125 Z M 50.265625 -31.125 C 48.140625 -31.125 47.078125 -32.1875 47.078125 -34.3125 C 47.078125 -36.375 48.140625 -37.40625 50.265625 -37.40625 C 52.390625 -37.40625 53.453125 -36.375 53.453125 -34.3125 C 53.453125 -32.1875 52.390625 -31.125 50.265625 -31.125 Z M 16.828125 -17.375 C 14.773438 -17.375 13.75 -18.4375 13.75 -20.5625 C 13.75 -22.695312 14.773438 -23.765625 16.828125 -23.765625 C 18.953125 -23.765625 20.015625 -22.695312 20.015625 -20.5625 C 20.015625 -18.4375 18.953125 -17.375 16.828125 -17.375 Z M 45.3125 -17.375 C 43.1875 -17.375 42.125 -18.4375 42.125 -20.5625 C 42.125 -22.695312 43.1875 -23.765625 45.3125 -23.765625 C 47.445312 -23.765625 48.515625 -22.695312 48.515625 -20.5625 C 48.515625 -18.4375 47.445312 -17.375 45.3125 -17.375 Z M 31.015625 -11.875 C 28.960938 -11.875 27.9375 -12.9375 27.9375 -15.0625 C 27.9375 -17.195312 28.960938 -18.265625 31.015625 -18.265625 C 33.210938 -18.265625 34.3125 -17.195312 34.3125 -15.0625 C 34.3125 -12.9375 33.210938 -11.875 31.015625 -11.875 Z M 31.015625 -11.875 "/>
</symbol>
<symbol overflow="visible" id="gurmukhi-blwf-ra:id2:glyph0-2">
<path style="stroke:none;" d="M -1.546875 29.484375 C -3.304688 26.910156 -5.265625 24.523438 -7.421875 22.328125 C -9.585938 20.128906 -12.0625 18.332031 -14.84375 16.9375 C -16.09375 18.257812 -17.597656 19.304688 -19.359375 20.078125 C -21.117188 20.847656 -23.207031 21.234375 -25.625 21.234375 C -28.195312 21.234375 -30.398438 20.71875 -32.234375 19.6875 C -34.066406 18.664062 -34.984375 16.90625 -34.984375 14.40625 C -34.984375 11.914062 -33.972656 10.175781 -31.953125 9.1875 C -29.941406 8.195312 -27.578125 7.703125 -24.859375 7.703125 C -23.828125 7.703125 -22.816406 7.773438 -21.828125 7.921875 C -20.835938 8.066406 -19.867188 8.210938 -18.921875 8.359375 C -18.847656 8.066406 -18.789062 7.753906 -18.75 7.421875 C -18.71875 7.097656 -18.703125 6.675781 -18.703125 6.15625 L -18.703125 0 L -9.796875 0 L -9.796875 1.875 C -9.796875 4.070312 -9.882812 5.828125 -10.0625 7.140625 C -10.25 8.460938 -10.5625 9.640625 -11 10.671875 C -7.914062 12.066406 -5.09375 13.988281 -2.53125 16.4375 C 0.03125 18.894531 2.523438 21.8125 4.953125 25.1875 Z M -1.546875 29.484375 "/>
</symbol>
</g>
</defs>
  <g id="gurmukhi-blwf-ra:id0:id0" transform="matrix(1.25,0,0,1.25,0.0,8.5546875)"><g id="gurmukhi-blwf-ra:id0:surface1">
<g style="fill:rgb(0%,0%,0%);fill-opacity:1;">
  <use xlink:href="#gurmukhi-blwf-ra:id0:glyph0-1" x="16" y="100.5625" class="dc"/>
  <use xlink:href="#gurmukhi-blwf-ra:id0:glyph0-2" x="78.265625" y="100.5625" class="c0"/>
  <use xlink:href="#gurmukhi-blwf-ra:id0:glyph0-3" x="78.265625" y="100.5625" class="c1"/>
</g>
</g>
</g>
  <g id="gurmukhi-blwf-ra:id1:id1" transform="matrix(1.25,0,0,1.25,197.44140625,0.0)"><g id="gurmukhi-blwf-ra:id1:surface1">
<g style="fill:rgb(0%,0%,0%);fill-opacity:1;">
  <use xlink:href="#gurmukhi-blwf-ra:id1:glyph0-1" x="0" y="120.84375" class="arrow"/>
</g>
</g>
</g>
  <g id="gurmukhi-blwf-ra:id2:id2" transform="matrix(1.25,0,0,1.25,330.0390625,8.5546875)"><g id="gurmukhi-blwf-ra:id2:surface1">
<g style="fill:rgb(0%,0%,0%);fill-opacity:1;">
  <use xlink:href="#gurmukhi-blwf-ra:id2:glyph0-1" x="16" y="100.5625" class="dc"/>
  <use xlink:href="#gurmukhi-blwf-ra:id2:glyph0-2" x="78.265625" y="100.5625" class="c1"/>
</g>
</g>
</g>
</svg>
