<!DOCTYPE svg PUBLIC "-//W3C//DTD SVG 1.1//EN" "http://www.w3.org/Graphics/SVG/1.1/DTD/svg11.dtd">
<!-- Created with svg_stack (http://github.com/astraw/svg_stack) --><svg xmlns="http://www.w3.org/2000/svg" xmlns:sodipodi="http://sodipodi.sourceforge.net/DTD/sodipodi-0.dtd" xmlns:xlink="http://www.w3.org/1999/xlink" version="1.1" width="100%" id="gurmukhi-nukt" viewBox="0 0 457.75390625 202.16796875">
  <defs><g>
<symbol overflow="visible" id="gurmukhi-nukt:id0:glyph0-0">
<path style="stroke:none;" d="M 10.34375 0 L 10.34375 -78.546875 L 55.546875 -78.546875 L 55.546875 0 Z M 15.953125 -5.609375 L 49.9375 -5.609375 L 49.9375 -72.9375 L 15.953125 -72.9375 Z M 15.953125 -5.609375 "/>
</symbol>
<symbol overflow="visible" id="gurmukhi-nukt:id0:glyph0-1">
<path style="stroke:none;" d="M 67.3125 -62.15625 L 66.875 -61.046875 L 51.59375 -61.046875 C 51.738281 -60.316406 51.882812 -59.566406 52.03125 -58.796875 C 52.175781 -58.023438 52.25 -57.273438 52.25 -56.546875 C 52.25 -53.171875 51.382812 -50.144531 49.65625 -47.46875 C 47.9375 -44.789062 45.613281 -42.609375 42.6875 -40.921875 C 46.789062 -38.722656 50.179688 -35.769531 52.859375 -32.0625 C 55.535156 -28.363281 56.875 -24.019531 56.875 -19.03125 C 56.875 -14.332031 55.625 -10.28125 53.125 -6.875 C 50.632812 -3.46875 47.28125 -0.847656 43.0625 0.984375 C 38.84375 2.816406 34.207031 3.734375 29.15625 3.734375 C 24.238281 3.734375 19.875 2.960938 16.0625 1.421875 C 12.25 -0.109375 9.273438 -2.175781 7.140625 -4.78125 C 5.015625 -7.382812 3.953125 -10.300781 3.953125 -13.53125 C 3.953125 -16.019531 4.628906 -18.289062 5.984375 -20.34375 C 7.347656 -22.40625 9.273438 -24.078125 11.765625 -25.359375 C 14.265625 -26.640625 17.195312 -27.28125 20.5625 -27.28125 C 24.675781 -27.28125 29.003906 -26.140625 33.546875 -23.859375 C 38.097656 -21.585938 42.390625 -17.664062 46.421875 -12.09375 C 47.148438 -13.269531 47.71875 -14.535156 48.125 -15.890625 C 48.53125 -17.253906 48.734375 -18.738281 48.734375 -20.34375 C 48.734375 -24.007812 47.6875 -27.421875 45.59375 -30.578125 C 43.5 -33.734375 40.507812 -36.082031 36.625 -37.625 C 34.207031 -36.8125 31.640625 -36.238281 28.921875 -35.90625 C 26.210938 -35.582031 23.578125 -35.421875 21.015625 -35.421875 C 17.566406 -35.421875 14.59375 -35.859375 12.09375 -36.734375 C 9.601562 -37.617188 8.359375 -39.085938 8.359375 -41.140625 C 8.359375 -43.117188 9.550781 -44.53125 11.9375 -45.375 C 14.320312 -46.21875 17.125 -46.640625 20.34375 -46.640625 C 23.425781 -46.640625 26.429688 -46.378906 29.359375 -45.859375 C 32.296875 -45.347656 34.828125 -44.617188 36.953125 -43.671875 C 38.785156 -44.691406 40.328125 -46.25 41.578125 -48.34375 C 42.828125 -50.4375 43.453125 -52.800781 43.453125 -55.4375 C 43.453125 -57.34375 43.117188 -59.210938 42.453125 -61.046875 L -1.4375 -61.046875 L -3.84375 -67.4375 L -3.296875 -68.421875 L 64.90625 -68.421875 Z M 26.515625 -2.53125 C 33.546875 -2.53125 39.15625 -4.4375 43.34375 -8.25 C 40.1875 -12.5 36.847656 -15.578125 33.328125 -17.484375 C 29.804688 -19.390625 26.359375 -20.34375 22.984375 -20.34375 C 19.535156 -20.34375 16.859375 -19.5 14.953125 -17.8125 C 13.046875 -16.132812 12.09375 -14.117188 12.09375 -11.765625 C 12.09375 -9.203125 13.375 -7.019531 15.9375 -5.21875 C 18.507812 -3.425781 22.035156 -2.53125 26.515625 -2.53125 Z M 26.515625 -2.53125 "/>
</symbol>
<symbol overflow="visible" id="gurmukhi-nukt:id0:glyph0-2">
<path style="stroke:none;" d="M 32.671875 -59.40625 C 33.472656 -59.40625 34.148438 -59.128906 34.703125 -58.578125 C 35.253906 -58.023438 35.53125 -57.347656 35.53125 -56.546875 C 35.53125 -55.804688 35.253906 -55.144531 34.703125 -54.5625 C 34.148438 -53.976562 33.472656 -53.6875 32.671875 -53.6875 C 31.929688 -53.6875 31.269531 -53.976562 30.6875 -54.5625 C 30.101562 -55.144531 29.8125 -55.804688 29.8125 -56.546875 C 29.8125 -57.347656 30.101562 -58.023438 30.6875 -58.578125 C 31.269531 -59.128906 31.929688 -59.40625 32.671875 -59.40625 Z M 23.4375 -57.421875 C 24.238281 -57.421875 24.914062 -57.144531 25.46875 -56.59375 C 26.019531 -56.039062 26.296875 -55.363281 26.296875 -54.5625 C 26.296875 -53.820312 26.019531 -53.160156 25.46875 -52.578125 C 24.914062 -51.992188 24.238281 -51.703125 23.4375 -51.703125 C 22.695312 -51.703125 22.03125 -51.992188 21.4375 -52.578125 C 20.851562 -53.160156 20.5625 -53.820312 20.5625 -54.5625 C 20.5625 -55.363281 20.851562 -56.039062 21.4375 -56.59375 C 22.03125 -57.144531 22.695312 -57.421875 23.4375 -57.421875 Z M 41.90625 -57.421875 C 42.71875 -57.421875 43.394531 -57.144531 43.9375 -56.59375 C 44.488281 -56.039062 44.765625 -55.363281 44.765625 -54.5625 C 44.765625 -53.820312 44.488281 -53.160156 43.9375 -52.578125 C 43.394531 -51.992188 42.71875 -51.703125 41.90625 -51.703125 C 41.175781 -51.703125 40.515625 -51.992188 39.921875 -52.578125 C 39.335938 -53.160156 39.046875 -53.820312 39.046875 -54.5625 C 39.046875 -55.363281 39.335938 -56.039062 39.921875 -56.59375 C 40.515625 -57.144531 41.175781 -57.421875 41.90625 -57.421875 Z M 12.4375 -49.390625 C 12.4375 -50.191406 12.726562 -50.867188 13.3125 -51.421875 C 13.894531 -51.972656 14.554688 -52.25 15.296875 -52.25 C 16.097656 -52.25 16.773438 -51.972656 17.328125 -51.421875 C 17.878906 -50.867188 18.15625 -50.191406 18.15625 -49.390625 C 18.15625 -48.660156 17.878906 -48 17.328125 -47.40625 C 16.773438 -46.820312 16.097656 -46.53125 15.296875 -46.53125 C 14.554688 -46.53125 13.894531 -46.820312 13.3125 -47.40625 C 12.726562 -48 12.4375 -48.660156 12.4375 -49.390625 Z M 47.1875 -49.390625 C 47.1875 -50.191406 47.476562 -50.867188 48.0625 -51.421875 C 48.65625 -51.972656 49.316406 -52.25 50.046875 -52.25 C 50.859375 -52.25 51.535156 -51.972656 52.078125 -51.421875 C 52.628906 -50.867188 52.90625 -50.191406 52.90625 -49.390625 C 52.90625 -48.660156 52.628906 -48 52.078125 -47.40625 C 51.535156 -46.820312 50.859375 -46.53125 50.046875 -46.53125 C 49.316406 -46.53125 48.65625 -46.820312 48.0625 -47.40625 C 47.476562 -48 47.1875 -48.660156 47.1875 -49.390625 Z M 7.265625 -41.25 C 7.265625 -42.050781 7.554688 -42.726562 8.140625 -43.28125 C 8.722656 -43.832031 9.382812 -44.109375 10.125 -44.109375 C 10.925781 -44.109375 11.601562 -43.832031 12.15625 -43.28125 C 12.707031 -42.726562 12.984375 -42.050781 12.984375 -41.25 C 12.984375 -40.519531 12.707031 -39.859375 12.15625 -39.265625 C 11.601562 -38.679688 10.925781 -38.390625 10.125 -38.390625 C 9.382812 -38.390625 8.722656 -38.679688 8.140625 -39.265625 C 7.554688 -39.859375 7.265625 -40.519531 7.265625 -41.25 Z M 52.359375 -41.25 C 52.359375 -42.050781 52.648438 -42.726562 53.234375 -43.28125 C 53.828125 -43.832031 54.488281 -44.109375 55.21875 -44.109375 C 56.03125 -44.109375 56.707031 -43.832031 57.25 -43.28125 C 57.800781 -42.726562 58.078125 -42.050781 58.078125 -41.25 C 58.078125 -40.519531 57.800781 -39.859375 57.25 -39.265625 C 56.707031 -38.679688 56.03125 -38.390625 55.21875 -38.390625 C 54.488281 -38.390625 53.828125 -38.679688 53.234375 -39.265625 C 52.648438 -39.859375 52.359375 -40.519531 52.359375 -41.25 Z M 5.28125 -32.015625 C 5.28125 -32.816406 5.570312 -33.492188 6.15625 -34.046875 C 6.75 -34.597656 7.410156 -34.875 8.140625 -34.875 C 8.941406 -34.875 9.617188 -34.597656 10.171875 -34.046875 C 10.722656 -33.492188 11 -32.816406 11 -32.015625 C 11 -31.273438 10.722656 -30.613281 10.171875 -30.03125 C 9.617188 -29.445312 8.941406 -29.15625 8.140625 -29.15625 C 7.410156 -29.15625 6.75 -29.445312 6.15625 -30.03125 C 5.570312 -30.613281 5.28125 -31.273438 5.28125 -32.015625 Z M 54.34375 -32.015625 C 54.34375 -32.816406 54.632812 -33.492188 55.21875 -34.046875 C 55.800781 -34.597656 56.460938 -34.875 57.203125 -34.875 C 58.003906 -34.875 58.679688 -34.597656 59.234375 -34.046875 C 59.785156 -33.492188 60.0625 -32.816406 60.0625 -32.015625 C 60.0625 -31.273438 59.785156 -30.613281 59.234375 -30.03125 C 58.679688 -29.445312 58.003906 -29.15625 57.203125 -29.15625 C 56.460938 -29.15625 55.800781 -29.445312 55.21875 -30.03125 C 54.632812 -30.613281 54.34375 -31.273438 54.34375 -32.015625 Z M 7.265625 -22.765625 C 7.265625 -23.578125 7.554688 -24.253906 8.140625 -24.796875 C 8.722656 -25.347656 9.382812 -25.625 10.125 -25.625 C 10.925781 -25.625 11.601562 -25.347656 12.15625 -24.796875 C 12.707031 -24.253906 12.984375 -23.578125 12.984375 -22.765625 C 12.984375 -22.035156 12.707031 -21.375 12.15625 -20.78125 C 11.601562 -20.195312 10.925781 -19.90625 10.125 -19.90625 C 9.382812 -19.90625 8.722656 -20.195312 8.140625 -20.78125 C 7.554688 -21.375 7.265625 -22.035156 7.265625 -22.765625 Z M 52.359375 -22.765625 C 52.359375 -23.578125 52.648438 -24.253906 53.234375 -24.796875 C 53.828125 -25.347656 54.488281 -25.625 55.21875 -25.625 C 56.03125 -25.625 56.707031 -25.347656 57.25 -24.796875 C 57.800781 -24.253906 58.078125 -23.578125 58.078125 -22.765625 C 58.078125 -22.035156 57.800781 -21.375 57.25 -20.78125 C 56.707031 -20.195312 56.03125 -19.90625 55.21875 -19.90625 C 54.488281 -19.90625 53.828125 -20.195312 53.234375 -20.78125 C 52.648438 -21.375 52.359375 -22.035156 52.359375 -22.765625 Z M 12.4375 -14.625 C 12.4375 -15.4375 12.726562 -16.113281 13.3125 -16.65625 C 13.894531 -17.207031 14.554688 -17.484375 15.296875 -17.484375 C 16.097656 -17.484375 16.773438 -17.207031 17.328125 -16.65625 C 17.878906 -16.113281 18.15625 -15.4375 18.15625 -14.625 C 18.15625 -13.894531 17.878906 -13.234375 17.328125 -12.640625 C 16.773438 -12.054688 16.097656 -11.765625 15.296875 -11.765625 C 14.554688 -11.765625 13.894531 -12.054688 13.3125 -12.640625 C 12.726562 -13.234375 12.4375 -13.894531 12.4375 -14.625 Z M 47.1875 -14.625 C 47.1875 -15.4375 47.476562 -16.113281 48.0625 -16.65625 C 48.65625 -17.207031 49.316406 -17.484375 50.046875 -17.484375 C 50.859375 -17.484375 51.535156 -17.207031 52.078125 -16.65625 C 52.628906 -16.113281 52.90625 -15.4375 52.90625 -14.625 C 52.90625 -13.894531 52.628906 -13.234375 52.078125 -12.640625 C 51.535156 -12.054688 50.859375 -11.765625 50.046875 -11.765625 C 49.316406 -11.765625 48.65625 -12.054688 48.0625 -12.640625 C 47.476562 -13.234375 47.1875 -13.894531 47.1875 -14.625 Z M 23.4375 -12.3125 C 24.238281 -12.3125 24.914062 -12.035156 25.46875 -11.484375 C 26.019531 -10.941406 26.296875 -10.265625 26.296875 -9.453125 C 26.296875 -8.722656 26.019531 -8.0625 25.46875 -7.46875 C 24.914062 -6.882812 24.238281 -6.59375 23.4375 -6.59375 C 22.695312 -6.59375 22.03125 -6.882812 21.4375 -7.46875 C 20.851562 -8.0625 20.5625 -8.722656 20.5625 -9.453125 C 20.5625 -10.265625 20.851562 -10.941406 21.4375 -11.484375 C 22.03125 -12.035156 22.695312 -12.3125 23.4375 -12.3125 Z M 41.90625 -12.3125 C 42.71875 -12.3125 43.394531 -12.035156 43.9375 -11.484375 C 44.488281 -10.941406 44.765625 -10.265625 44.765625 -9.453125 C 44.765625 -8.722656 44.488281 -8.0625 43.9375 -7.46875 C 43.394531 -6.882812 42.71875 -6.59375 41.90625 -6.59375 C 41.175781 -6.59375 40.515625 -6.882812 39.921875 -7.46875 C 39.335938 -8.0625 39.046875 -8.722656 39.046875 -9.453125 C 39.046875 -10.265625 39.335938 -10.941406 39.921875 -11.484375 C 40.515625 -12.035156 41.175781 -12.3125 41.90625 -12.3125 Z M 32.671875 -10.34375 C 33.472656 -10.34375 34.148438 -10.066406 34.703125 -9.515625 C 35.253906 -8.960938 35.53125 -8.285156 35.53125 -7.484375 C 35.53125 -6.742188 35.253906 -6.082031 34.703125 -5.5 C 34.148438 -4.914062 33.472656 -4.625 32.671875 -4.625 C 31.929688 -4.625 31.269531 -4.914062 30.6875 -5.5 C 30.101562 -6.082031 29.8125 -6.742188 29.8125 -7.484375 C 29.8125 -8.285156 30.101562 -8.960938 30.6875 -9.515625 C 31.269531 -10.066406 31.929688 -10.34375 32.671875 -10.34375 Z M 32.671875 -10.34375 "/>
</symbol>
<symbol overflow="visible" id="gurmukhi-nukt:id0:glyph0-3">
<path style="stroke:none;" d="M -5.9375 6.15625 C -5.9375 4.46875 -5.367188 3.070312 -4.234375 1.96875 C -3.097656 0.875 -1.6875 0.328125 0 0.328125 C 1.757812 0.328125 3.207031 0.910156 4.34375 2.078125 C 5.476562 3.253906 6.046875 4.6875 6.046875 6.375 C 6.046875 7.988281 5.492188 9.378906 4.390625 10.546875 C 3.296875 11.722656 1.867188 12.3125 0.109375 12.3125 C -1.648438 12.3125 -3.097656 11.722656 -4.234375 10.546875 C -5.367188 9.378906 -5.9375 7.914062 -5.9375 6.15625 Z M -5.9375 6.15625 "/>
</symbol>
</g>
<g>
<symbol overflow="visible" id="gurmukhi-nukt:id1:glyph0-0">
<path style="stroke:none;" d="M 5.375 -96.6875 L 69.828125 -96.6875 L 69.828125 0 L 5.375 0 Z M 8.0625 -2.6875 L 67.140625 -2.6875 L 67.140625 -94 L 8.0625 -94 Z M 8.0625 -2.6875 "/>
</symbol>
<symbol overflow="visible" id="gurmukhi-nukt:id1:glyph0-1">
<path style="stroke:none;" d="M 68.15625 -13.75 L 66.28125 -18.640625 L 88.09375 -27.390625 L 6.984375 -27.390625 L 6.984375 -34 L 88.09375 -34 L 66.28125 -42.75 L 68.15625 -47.640625 L 99.09375 -34.265625 L 99.09375 -27.125 Z M 68.15625 -13.75 "/>
</symbol>
</g>
<g>
<symbol overflow="visible" id="gurmukhi-nukt:id2:glyph0-0">
<path style="stroke:none;" d="M 10.34375 0 L 10.34375 -78.546875 L 55.546875 -78.546875 L 55.546875 0 Z M 15.953125 -5.609375 L 49.9375 -5.609375 L 49.9375 -72.9375 L 15.953125 -72.9375 Z M 15.953125 -5.609375 "/>
</symbol>
<symbol overflow="visible" id="gurmukhi-nukt:id2:glyph0-1">
<path style="stroke:none;" d="M 54.890625 -61.046875 C 55.328125 -59.503906 55.546875 -57.890625 55.546875 -56.203125 C 55.546875 -53.054688 54.738281 -50.109375 53.125 -47.359375 C 51.507812 -44.609375 49.273438 -42.390625 46.421875 -40.703125 C 49.867188 -39.085938 52.617188 -36.90625 54.671875 -34.15625 C 56.722656 -31.40625 57.75 -28.304688 57.75 -24.859375 C 57.75 -21.554688 56.90625 -18.660156 55.21875 -16.171875 C 53.53125 -13.679688 51.257812 -11.738281 48.40625 -10.34375 L 59.515625 2.96875 L 58.953125 3.734375 L 51.046875 3.734375 L 42.015625 -8.140625 C 40.253906 -7.703125 38.128906 -7.484375 35.640625 -7.484375 C 32.847656 -7.484375 29.691406 -7.867188 26.171875 -8.640625 C 22.660156 -9.410156 19.289062 -10.597656 16.0625 -12.203125 L 27.9375 2.859375 L 27.28125 3.734375 L 19.140625 3.734375 L 4.625 -20.234375 L 6.9375 -22.546875 C 9.207031 -20.929688 11.828125 -19.554688 14.796875 -18.421875 C 17.765625 -17.285156 20.769531 -16.421875 23.8125 -15.828125 C 26.851562 -15.242188 29.625 -14.953125 32.125 -14.953125 C 37.101562 -14.953125 41.257812 -15.960938 44.59375 -17.984375 C 47.9375 -20.003906 49.609375 -22.8125 49.609375 -26.40625 C 49.609375 -28.3125 48.945312 -30.253906 47.625 -32.234375 C 46.3125 -34.210938 44.113281 -35.785156 41.03125 -36.953125 C 38.46875 -36.003906 35.753906 -35.304688 32.890625 -34.859375 C 30.023438 -34.421875 27.3125 -34.203125 24.75 -34.203125 C 21.300781 -34.203125 18.328125 -34.71875 15.828125 -35.75 C 13.335938 -36.78125 12.09375 -38.320312 12.09375 -40.375 C 12.09375 -42.425781 13.285156 -43.910156 15.671875 -44.828125 C 18.054688 -45.742188 20.9375 -46.203125 24.3125 -46.203125 C 27.3125 -46.203125 30.257812 -45.941406 33.15625 -45.421875 C 36.0625 -44.910156 38.578125 -44.179688 40.703125 -43.234375 C 42.535156 -44.253906 44.070312 -45.847656 45.3125 -48.015625 C 46.5625 -50.179688 47.1875 -52.582031 47.1875 -55.21875 C 47.1875 -57.125 46.859375 -59.066406 46.203125 -61.046875 L -1.4375 -61.046875 L -3.84375 -67.4375 L -3.296875 -68.421875 L 68.75 -68.421875 L 71.171875 -62.15625 L 70.734375 -61.046875 Z M 54.890625 -61.046875 "/>
</symbol>
</g>
</defs>
  <g id="gurmukhi-nukt:id0:id0" transform="matrix(1.25,0,0,1.25,0.0,0.0)"><g id="gurmukhi-nukt:id0:surface1">
<g style="fill:rgb(0%,0%,0%);fill-opacity:1;">
  <use xlink:href="#gurmukhi-nukt:id0:glyph0-1" x="16" y="112.65625" class="c0"/>
  <use xlink:href="#gurmukhi-nukt:id0:glyph0-2" x="79.46875" y="112.65625" class="dc"/>
  <use xlink:href="#gurmukhi-nukt:id0:glyph0-3" x="144.8125" y="112.65625" class="c1"/>
</g>
</g>
</g>
  <g id="gurmukhi-nukt:id1:id1" transform="matrix(1.25,0,0,1.25,201.015625,0.380859375)"><g id="gurmukhi-nukt:id1:surface1">
<g style="fill:rgb(0%,0%,0%);fill-opacity:1;">
  <use xlink:href="#gurmukhi-nukt:id1:glyph0-1" x="0" y="120.84375" class="arrow"/>
</g>
</g>
</g>
  <g id="gurmukhi-nukt:id2:id2" transform="matrix(1.25,0,0,1.25,333.61328125,0.0)"><g id="gurmukhi-nukt:id2:surface1">
<g style="fill:rgb(0%,0%,0%);fill-opacity:1;">
  <use xlink:href="#gurmukhi-nukt:id2:glyph0-1" x="16" y="112.65625" class="c2"/>
</g>
</g>
</g>
</svg>
