<!DOCTYPE svg PUBLIC "-//W3C//DTD SVG 1.1//EN" "http://www.w3.org/Graphics/SVG/1.1/DTD/svg11.dtd">
<!-- Created with svg_stack (http://github.com/astraw/svg_stack) --><svg xmlns="http://www.w3.org/2000/svg" xmlns:sodipodi="http://sodipodi.sourceforge.net/DTD/sodipodi-0.dtd" xmlns:xlink="http://www.w3.org/1999/xlink" version="1.1" width="100%" id="sinhala-vatu-ra-1" viewBox="0 0 478.26171875 201.40625">
  <defs><g>
<symbol overflow="visible" id="sinhala-vatu-ra-1:id0:glyph0-0">
<path style="stroke:none;" d="M 10.34375 -78.546875 L 55.546875 -78.546875 L 55.546875 0 L 10.34375 0 Z M 49.9375 -5.609375 L 49.9375 -72.9375 L 15.953125 -72.9375 L 15.953125 -5.609375 Z M 49.9375 -5.609375 "/>
</symbol>
<symbol overflow="visible" id="sinhala-vatu-ra-1:id0:glyph0-1">
<path style="stroke:none;" d="M 38.171875 -56.09375 C 38.171875 -53.382812 36.882812 -52.03125 34.3125 -52.03125 C 31.601562 -52.03125 30.25 -53.382812 30.25 -56.09375 C 30.25 -58.738281 31.601562 -60.0625 34.3125 -60.0625 C 36.882812 -60.0625 38.171875 -58.738281 38.171875 -56.09375 Z M 20.453125 -49.171875 C 20.453125 -46.523438 19.097656 -45.203125 16.390625 -45.203125 C 13.753906 -45.203125 12.4375 -46.523438 12.4375 -49.171875 C 12.4375 -51.878906 13.753906 -53.234375 16.390625 -53.234375 C 19.097656 -53.234375 20.453125 -51.878906 20.453125 -49.171875 Z M 55.984375 -49.171875 C 55.984375 -46.523438 54.664062 -45.203125 52.03125 -45.203125 C 49.382812 -45.203125 48.0625 -46.523438 48.0625 -49.171875 C 48.0625 -51.878906 49.382812 -53.234375 52.03125 -53.234375 C 54.664062 -53.234375 55.984375 -51.878906 55.984375 -49.171875 Z M 62.046875 -31.90625 C 62.046875 -29.257812 60.757812 -27.9375 58.1875 -27.9375 C 55.476562 -27.9375 54.125 -29.257812 54.125 -31.90625 C 54.125 -34.613281 55.476562 -35.96875 58.1875 -35.96875 C 60.757812 -35.96875 62.046875 -34.613281 62.046875 -31.90625 Z M 14.1875 -31.90625 C 14.1875 -29.257812 12.90625 -27.9375 10.34375 -27.9375 C 7.625 -27.9375 6.265625 -29.257812 6.265625 -31.90625 C 6.265625 -34.613281 7.625 -35.96875 10.34375 -35.96875 C 12.90625 -35.96875 14.1875 -34.613281 14.1875 -31.90625 Z M 20.453125 -14.625 C 20.453125 -11.914062 19.097656 -10.5625 16.390625 -10.5625 C 13.753906 -10.5625 12.4375 -11.914062 12.4375 -14.625 C 12.4375 -17.269531 13.753906 -18.59375 16.390625 -18.59375 C 19.097656 -18.59375 20.453125 -17.269531 20.453125 -14.625 Z M 55.984375 -14.625 C 55.984375 -11.914062 54.664062 -10.5625 52.03125 -10.5625 C 49.382812 -10.5625 48.0625 -11.914062 48.0625 -14.625 C 48.0625 -17.269531 49.382812 -18.59375 52.03125 -18.59375 C 54.664062 -18.59375 55.984375 -17.269531 55.984375 -14.625 Z M 38.171875 -7.703125 C 38.171875 -5.054688 36.882812 -3.734375 34.3125 -3.734375 C 31.601562 -3.734375 30.25 -5.054688 30.25 -7.703125 C 30.25 -10.410156 31.601562 -11.765625 34.3125 -11.765625 C 36.882812 -11.765625 38.171875 -10.410156 38.171875 -7.703125 Z M 38.171875 -7.703125 "/>
</symbol>
<symbol overflow="visible" id="sinhala-vatu-ra-1:id0:glyph0-2">
<path style="stroke:none;" d="M -9.6875 -105.9375 C -6.601562 -105.9375 -4.234375 -104.925781 -2.578125 -102.90625 C -0.929688 -100.882812 -0.109375 -98.335938 -0.109375 -95.265625 C -0.109375 -92.179688 -0.894531 -89.628906 -2.46875 -87.609375 C -4.050781 -85.597656 -6.492188 -84.59375 -9.796875 -84.59375 C -10.742188 -84.59375 -11.75 -84.753906 -12.8125 -85.078125 C -13.875 -85.410156 -14.847656 -85.945312 -15.734375 -86.6875 C -15.660156 -85.582031 -15.625 -84.476562 -15.625 -83.375 C -15.625 -82.28125 -15.625 -81.179688 -15.625 -80.078125 L -15.625 -53.796875 L -21.34375 -53.796875 L -21.34375 -93.28125 C -21.34375 -96.0625 -21.890625 -97.910156 -22.984375 -98.828125 C -24.085938 -99.742188 -25.191406 -100.203125 -26.296875 -100.203125 C -26.953125 -100.203125 -27.5 -100.179688 -27.9375 -100.140625 C -28.375 -100.109375 -28.707031 -100.054688 -28.9375 -99.984375 L -29.8125 -104.9375 C -29.226562 -105.226562 -28.550781 -105.46875 -27.78125 -105.65625 C -27.007812 -105.84375 -25.960938 -105.9375 -24.640625 -105.9375 C -23.316406 -105.9375 -22.066406 -105.585938 -20.890625 -104.890625 C -19.722656 -104.191406 -18.738281 -103.179688 -17.9375 -101.859375 C -15.65625 -104.578125 -12.90625 -105.9375 -9.6875 -105.9375 Z M -10.5625 -101.09375 C -11.8125 -101.09375 -12.851562 -100.722656 -13.6875 -99.984375 C -14.53125 -99.253906 -15.175781 -98.265625 -15.625 -97.015625 L -15.625 -93.390625 C -15.175781 -92.210938 -14.550781 -91.273438 -13.75 -90.578125 C -12.945312 -89.890625 -11.8125 -89.546875 -10.34375 -89.546875 C -7.332031 -89.546875 -5.828125 -91.414062 -5.828125 -95.15625 C -5.828125 -99.113281 -7.40625 -101.09375 -10.5625 -101.09375 Z M -10.5625 -101.09375 "/>
</symbol>
<symbol overflow="visible" id="sinhala-vatu-ra-1:id0:glyph0-3">
<path style="stroke:none;" d="M 17.8125 -88.21875 L 4.40625 -75.125 L 17.8125 -61.9375 L 13.3125 -57.53125 L 3.1875 -67.65625 L 3.1875 22.65625 L -3.1875 22.65625 L -3.1875 -67.65625 L -13.3125 -57.53125 L -17.8125 -61.9375 L -4.40625 -75.125 L -17.8125 -88.21875 L -13.3125 -92.625 L 0 -79.3125 L 13.3125 -92.625 Z M 17.8125 -88.21875 "/>
</symbol>
<symbol overflow="visible" id="sinhala-vatu-ra-1:id0:glyph0-4">
<path style="stroke:none;" d="M 37.84375 1.09375 C 27.207031 1.09375 18.992188 -1.78125 13.203125 -7.53125 C 7.410156 -13.289062 4.515625 -21.117188 4.515625 -31.015625 C 4.515625 -38.640625 6.582031 -45.144531 10.71875 -50.53125 C 14.863281 -55.925781 20.382812 -59.578125 27.28125 -61.484375 C 32.632812 -65.296875 37.835938 -69.179688 42.890625 -73.140625 C 47.953125 -77.109375 52.609375 -80.90625 56.859375 -84.53125 C 61.117188 -88.164062 64.753906 -91.375 67.765625 -94.15625 L 73.046875 -88 C 70.472656 -85.65625 67.316406 -83.035156 63.578125 -80.140625 C 59.835938 -77.242188 55.878906 -74.289062 51.703125 -71.28125 C 47.523438 -68.269531 43.453125 -65.484375 39.484375 -62.921875 C 46.015625 -62.703125 51.660156 -61.144531 56.421875 -58.25 C 61.191406 -55.351562 64.84375 -51.535156 67.375 -46.796875 C 69.90625 -42.066406 71.171875 -36.804688 71.171875 -31.015625 C 71.171875 -20.753906 68.179688 -12.835938 62.203125 -7.265625 C 56.222656 -1.691406 48.101562 1.09375 37.84375 1.09375 Z M 37.953125 -10.453125 C 42.566406 -10.453125 46.875 -11.179688 50.875 -12.640625 C 54.875 -14.109375 58.097656 -16.566406 60.546875 -20.015625 C 63.003906 -23.460938 64.234375 -28.15625 64.234375 -34.09375 C 64.234375 -39.15625 62.988281 -43.425781 60.5 -46.90625 C 58.007812 -50.394531 54.765625 -53.019531 50.765625 -54.78125 C 46.765625 -56.539062 42.457031 -57.421875 37.84375 -57.421875 C 33 -57.421875 28.578125 -56.484375 24.578125 -54.609375 C 20.585938 -52.742188 17.398438 -50.050781 15.015625 -46.53125 C 12.628906 -43.007812 11.4375 -38.753906 11.4375 -33.765625 C 11.4375 -27.972656 12.679688 -23.367188 15.171875 -19.953125 C 17.671875 -16.546875 20.9375 -14.109375 24.96875 -12.640625 C 29 -11.179688 33.328125 -10.453125 37.953125 -10.453125 Z M 37.953125 -10.453125 "/>
</symbol>
</g>
<g>
<symbol overflow="visible" id="sinhala-vatu-ra-1:id1:glyph0-0">
<path style="stroke:none;" d="M 5.375 -96.6875 L 69.828125 -96.6875 L 69.828125 0 L 5.375 0 Z M 8.0625 -2.6875 L 67.140625 -2.6875 L 67.140625 -94 L 8.0625 -94 Z M 8.0625 -2.6875 "/>
</symbol>
<symbol overflow="visible" id="sinhala-vatu-ra-1:id1:glyph0-1">
<path style="stroke:none;" d="M 68.15625 -13.75 L 66.28125 -18.640625 L 88.09375 -27.390625 L 6.984375 -27.390625 L 6.984375 -34 L 88.09375 -34 L 66.28125 -42.75 L 68.15625 -47.640625 L 99.09375 -34.265625 L 99.09375 -27.125 Z M 68.15625 -13.75 "/>
</symbol>
</g>
<g>
<symbol overflow="visible" id="sinhala-vatu-ra-1:id2:glyph0-0">
<path style="stroke:none;" d="M 10.34375 -78.546875 L 55.546875 -78.546875 L 55.546875 0 L 10.34375 0 Z M 49.9375 -5.609375 L 49.9375 -72.9375 L 15.953125 -72.9375 L 15.953125 -5.609375 Z M 49.9375 -5.609375 "/>
</symbol>
<symbol overflow="visible" id="sinhala-vatu-ra-1:id2:glyph0-1">
<path style="stroke:none;" d="M 38.171875 -56.09375 C 38.171875 -53.382812 36.882812 -52.03125 34.3125 -52.03125 C 31.601562 -52.03125 30.25 -53.382812 30.25 -56.09375 C 30.25 -58.738281 31.601562 -60.0625 34.3125 -60.0625 C 36.882812 -60.0625 38.171875 -58.738281 38.171875 -56.09375 Z M 20.453125 -49.171875 C 20.453125 -46.523438 19.097656 -45.203125 16.390625 -45.203125 C 13.753906 -45.203125 12.4375 -46.523438 12.4375 -49.171875 C 12.4375 -51.878906 13.753906 -53.234375 16.390625 -53.234375 C 19.097656 -53.234375 20.453125 -51.878906 20.453125 -49.171875 Z M 55.984375 -49.171875 C 55.984375 -46.523438 54.664062 -45.203125 52.03125 -45.203125 C 49.382812 -45.203125 48.0625 -46.523438 48.0625 -49.171875 C 48.0625 -51.878906 49.382812 -53.234375 52.03125 -53.234375 C 54.664062 -53.234375 55.984375 -51.878906 55.984375 -49.171875 Z M 62.046875 -31.90625 C 62.046875 -29.257812 60.757812 -27.9375 58.1875 -27.9375 C 55.476562 -27.9375 54.125 -29.257812 54.125 -31.90625 C 54.125 -34.613281 55.476562 -35.96875 58.1875 -35.96875 C 60.757812 -35.96875 62.046875 -34.613281 62.046875 -31.90625 Z M 14.1875 -31.90625 C 14.1875 -29.257812 12.90625 -27.9375 10.34375 -27.9375 C 7.625 -27.9375 6.265625 -29.257812 6.265625 -31.90625 C 6.265625 -34.613281 7.625 -35.96875 10.34375 -35.96875 C 12.90625 -35.96875 14.1875 -34.613281 14.1875 -31.90625 Z M 20.453125 -14.625 C 20.453125 -11.914062 19.097656 -10.5625 16.390625 -10.5625 C 13.753906 -10.5625 12.4375 -11.914062 12.4375 -14.625 C 12.4375 -17.269531 13.753906 -18.59375 16.390625 -18.59375 C 19.097656 -18.59375 20.453125 -17.269531 20.453125 -14.625 Z M 55.984375 -14.625 C 55.984375 -11.914062 54.664062 -10.5625 52.03125 -10.5625 C 49.382812 -10.5625 48.0625 -11.914062 48.0625 -14.625 C 48.0625 -17.269531 49.382812 -18.59375 52.03125 -18.59375 C 54.664062 -18.59375 55.984375 -17.269531 55.984375 -14.625 Z M 38.171875 -7.703125 C 38.171875 -5.054688 36.882812 -3.734375 34.3125 -3.734375 C 31.601562 -3.734375 30.25 -5.054688 30.25 -7.703125 C 30.25 -10.410156 31.601562 -11.765625 34.3125 -11.765625 C 36.882812 -11.765625 38.171875 -10.410156 38.171875 -7.703125 Z M 38.171875 -7.703125 "/>
</symbol>
<symbol overflow="visible" id="sinhala-vatu-ra-1:id2:glyph0-2">
<path style="stroke:none;" d="M -37.40625 29.59375 C -43.488281 29.59375 -48.507812 28.910156 -52.46875 27.546875 C -56.425781 26.191406 -59.523438 24.378906 -61.765625 22.109375 C -64.003906 19.835938 -65.582031 17.269531 -66.5 14.40625 C -67.414062 11.550781 -67.875 8.617188 -67.875 5.609375 L -67.875 4.515625 L -62.15625 4.734375 C -61.925781 9.640625 -59.941406 13.597656 -56.203125 16.609375 C -52.460938 19.617188 -46.34375 21.125 -37.84375 21.125 C -29.988281 21.125 -23.878906 19.453125 -19.515625 16.109375 C -15.160156 12.773438 -12.984375 7.882812 -12.984375 1.4375 C -12.984375 -0.769531 -13.179688 -2.753906 -13.578125 -4.515625 C -13.984375 -6.273438 -14.476562 -7.8125 -15.0625 -9.125 L -9.90625 -12.09375 C -9.164062 -10.488281 -8.484375 -8.492188 -7.859375 -6.109375 C -7.242188 -3.722656 -6.9375 -0.695312 -6.9375 2.96875 C -6.9375 6.125 -7.375 9.257812 -8.25 12.375 C -9.125 15.488281 -10.660156 18.347656 -12.859375 20.953125 C -15.066406 23.554688 -18.164062 25.644531 -22.15625 27.21875 C -26.15625 28.800781 -31.238281 29.59375 -37.40625 29.59375 Z M -37.40625 29.59375 "/>
</symbol>
</g>
</defs>
  <g id="sinhala-vatu-ra-1:id0:id0" transform="matrix(1.25,0,0,1.25,0.0,8.5546875)"><g id="sinhala-vatu-ra-1:id0:surface1">
<g style="fill:rgb(0%,0%,0%);fill-opacity:1;">
  <use xlink:href="#sinhala-vatu-ra-1:id0:glyph0-1" x="16" y="111.671875" class="dc"/>
  <use xlink:href="#sinhala-vatu-ra-1:id0:glyph0-2" x="84.421875" y="111.671875" class="c0"/>
  <use xlink:href="#sinhala-vatu-ra-1:id0:glyph0-3" x="84.421875" y="111.671875" class="z"/>
  <use xlink:href="#sinhala-vatu-ra-1:id0:glyph0-4" x="84.421875" y="111.671875" class="c1"/>
</g>
</g>
</g>
  <g id="sinhala-vatu-ra-1:id1:id1" transform="matrix(1.25,0,0,1.25,220.13671875,0.0)"><g id="sinhala-vatu-ra-1:id1:surface1">
<g style="fill:rgb(0%,0%,0%);fill-opacity:1;">
  <use xlink:href="#sinhala-vatu-ra-1:id1:glyph0-1" x="0" y="120.84375" class="arrow"/>
</g>
</g>
</g>
  <g id="sinhala-vatu-ra-1:id2:id2" transform="matrix(1.25,0,0,1.25,352.734375,8.5546875)"><g id="sinhala-vatu-ra-1:id2:surface1">
<g style="fill:rgb(0%,0%,0%);fill-opacity:1;">
  <use xlink:href="#sinhala-vatu-ra-1:id2:glyph0-1" x="16" y="111.671875" class="dc"/>
  <use xlink:href="#sinhala-vatu-ra-1:id2:glyph0-2" x="84.421875" y="111.671875" class="c1"/>
</g>
</g>
</g>
</svg>