<?xml version="1.0" standalone="no"?>
<!DOCTYPE svg PUBLIC "-//W3C//DTD SVG 1.1//EN"
 "http://www.w3.org/Graphics/SVG/1.1/DTD/svg11.dtd">
<!-- Created with svg_stack (http://github.com/astraw/svg_stack) -->
<svg xmlns="http://www.w3.org/2000/svg" xmlns:sodipodi="http://sodipodi.sourceforge.net/DTD/sodipodi-0.dtd" xmlns:xlink="http://www.w3.org/1999/xlink" version="1.1" width="729.1796875" height="201.40625">
  <defs><g>
<symbol overflow="visible" id="id0:glyph0-0">
<path style="stroke:none;" d="M 10.34375 -78.546875 L 55.546875 -78.546875 L 55.546875 0 L 10.34375 0 Z M 49.9375 -5.609375 L 49.9375 -72.9375 L 15.953125 -72.9375 L 15.953125 -5.609375 Z M 49.9375 -5.609375 "/>
</symbol>
<symbol overflow="visible" id="id0:glyph0-1">
<path style="stroke:none;" d="M 57.53125 1.09375 C 53.789062 1.09375 50.507812 -0.0195312 47.6875 -2.25 C 44.863281 -4.488281 42.972656 -7.734375 42.015625 -11.984375 C 40.847656 -8.316406 39.050781 -5.21875 36.625 -2.6875 C 34.207031 -0.164062 30.726562 1.09375 26.1875 1.09375 C 22.957031 1.09375 20.222656 0.269531 17.984375 -1.375 C 15.742188 -3.019531 14.070312 -5.21875 12.96875 -7.96875 C 11.875 -10.71875 11.328125 -13.671875 11.328125 -16.828125 C 11.328125 -17.117188 11.328125 -17.410156 11.328125 -17.703125 L 6.59375 -18.375 L 1.875 -22.109375 C 7.15625 -27.535156 12.007812 -32.359375 16.4375 -36.578125 C 20.875 -40.796875 25 -44.476562 28.8125 -47.625 C 27.570312 -50.488281 26.179688 -52.691406 24.640625 -54.234375 C 23.097656 -55.773438 21.226562 -56.546875 19.03125 -56.546875 C 16.757812 -56.546875 15.203125 -55.753906 14.359375 -54.171875 C 13.515625 -52.597656 13.09375 -51.039062 13.09375 -49.5 C 13.09375 -47.957031 13.253906 -46.597656 13.578125 -45.421875 C 13.910156 -44.253906 14.257812 -43.265625 14.625 -42.453125 L 6.265625 -40.375 C 5.535156 -41.46875 4.929688 -42.835938 4.453125 -44.484375 C 3.972656 -46.140625 3.734375 -47.738281 3.734375 -49.28125 C 3.734375 -53.820312 5.085938 -57.210938 7.796875 -59.453125 C 10.515625 -61.691406 13.894531 -62.8125 17.9375 -62.8125 C 21.75 -62.8125 24.914062 -61.671875 27.4375 -59.390625 C 29.96875 -57.117188 31.96875 -54.410156 33.4375 -51.265625 C 37.914062 -54.628906 42.113281 -57.300781 46.03125 -59.28125 C 49.957031 -61.269531 53.828125 -62.6875 57.640625 -63.53125 C 61.453125 -64.375 65.445312 -64.796875 69.625 -64.796875 C 77.914062 -64.796875 84.753906 -63.195312 90.140625 -60 C 95.535156 -56.8125 99.570312 -52.519531 102.25 -47.125 C 104.925781 -41.738281 106.265625 -35.710938 106.265625 -29.046875 C 106.265625 -19.953125 104.226562 -12.691406 100.15625 -7.265625 C 96.082031 -1.835938 90.125 0.875 82.28125 0.875 C 80.445312 0.875 78.648438 0.742188 76.890625 0.484375 C 75.128906 0.234375 73.585938 -0.179688 72.265625 -0.765625 L 73.703125 -6.265625 C 74.503906 -5.898438 75.546875 -5.570312 76.828125 -5.28125 C 78.117188 -4.988281 79.609375 -4.84375 81.296875 -4.84375 C 85.691406 -4.84375 89.191406 -5.773438 91.796875 -7.640625 C 94.398438 -9.515625 96.285156 -12.0625 97.453125 -15.28125 C 98.628906 -18.507812 99.21875 -22.144531 99.21875 -26.1875 C 99.21875 -32.707031 97.859375 -38.128906 95.140625 -42.453125 C 92.429688 -46.785156 88.675781 -50.03125 83.875 -52.1875 C 79.070312 -54.351562 73.515625 -55.4375 67.203125 -55.4375 C 61.859375 -55.4375 57.078125 -54.976562 52.859375 -54.0625 C 48.640625 -53.144531 44.179688 -51.257812 39.484375 -48.40625 C 41.242188 -48.550781 42.894531 -48.625 44.4375 -48.625 C 54.632812 -48.625 62.332031 -46.238281 67.53125 -41.46875 C 72.738281 -36.695312 75.34375 -30.171875 75.34375 -21.890625 C 75.34375 -14.847656 73.820312 -9.253906 70.78125 -5.109375 C 67.738281 -0.972656 63.320312 1.09375 57.53125 1.09375 Z M 44.65625 -22 C 44.875 -17.601562 46.175781 -14.578125 48.5625 -12.921875 C 50.945312 -11.273438 53.9375 -10.453125 57.53125 -10.453125 C 61.488281 -10.453125 64.421875 -11.441406 66.328125 -13.421875 C 68.234375 -15.398438 69.1875 -18.515625 69.1875 -22.765625 C 69.1875 -25.992188 68.394531 -29.164062 66.8125 -32.28125 C 65.238281 -35.394531 62.5625 -37.960938 58.78125 -39.984375 C 55.007812 -42.003906 49.863281 -43.015625 43.34375 -43.015625 C 40.769531 -43.015625 38.53125 -42.976562 36.625 -42.90625 C 34.71875 -42.832031 33.070312 -42.757812 31.6875 -42.6875 C 28.75 -40.332031 25.644531 -37.613281 22.375 -34.53125 C 19.113281 -31.457031 15.613281 -27.941406 11.875 -23.984375 L 17.59375 -23.546875 C 17.300781 -22.734375 17.15625 -21.738281 17.15625 -20.5625 C 17.15625 -16.75 18.050781 -14.109375 19.84375 -12.640625 C 21.644531 -11.179688 24.085938 -10.453125 27.171875 -10.453125 C 31.203125 -10.453125 34.1875 -11.476562 36.125 -13.53125 C 38.070312 -15.582031 39.046875 -18.40625 39.046875 -22 Z M 44.65625 -22 "/>
</symbol>
<symbol overflow="visible" id="id0:glyph0-2">
<path style="stroke:none;" d="M 38.171875 -56.09375 C 38.171875 -53.382812 36.882812 -52.03125 34.3125 -52.03125 C 31.601562 -52.03125 30.25 -53.382812 30.25 -56.09375 C 30.25 -58.738281 31.601562 -60.0625 34.3125 -60.0625 C 36.882812 -60.0625 38.171875 -58.738281 38.171875 -56.09375 Z M 20.453125 -49.171875 C 20.453125 -46.523438 19.097656 -45.203125 16.390625 -45.203125 C 13.753906 -45.203125 12.4375 -46.523438 12.4375 -49.171875 C 12.4375 -51.878906 13.753906 -53.234375 16.390625 -53.234375 C 19.097656 -53.234375 20.453125 -51.878906 20.453125 -49.171875 Z M 55.984375 -49.171875 C 55.984375 -46.523438 54.664062 -45.203125 52.03125 -45.203125 C 49.382812 -45.203125 48.0625 -46.523438 48.0625 -49.171875 C 48.0625 -51.878906 49.382812 -53.234375 52.03125 -53.234375 C 54.664062 -53.234375 55.984375 -51.878906 55.984375 -49.171875 Z M 62.046875 -31.90625 C 62.046875 -29.257812 60.757812 -27.9375 58.1875 -27.9375 C 55.476562 -27.9375 54.125 -29.257812 54.125 -31.90625 C 54.125 -34.613281 55.476562 -35.96875 58.1875 -35.96875 C 60.757812 -35.96875 62.046875 -34.613281 62.046875 -31.90625 Z M 14.1875 -31.90625 C 14.1875 -29.257812 12.90625 -27.9375 10.34375 -27.9375 C 7.625 -27.9375 6.265625 -29.257812 6.265625 -31.90625 C 6.265625 -34.613281 7.625 -35.96875 10.34375 -35.96875 C 12.90625 -35.96875 14.1875 -34.613281 14.1875 -31.90625 Z M 20.453125 -14.625 C 20.453125 -11.914062 19.097656 -10.5625 16.390625 -10.5625 C 13.753906 -10.5625 12.4375 -11.914062 12.4375 -14.625 C 12.4375 -17.269531 13.753906 -18.59375 16.390625 -18.59375 C 19.097656 -18.59375 20.453125 -17.269531 20.453125 -14.625 Z M 55.984375 -14.625 C 55.984375 -11.914062 54.664062 -10.5625 52.03125 -10.5625 C 49.382812 -10.5625 48.0625 -11.914062 48.0625 -14.625 C 48.0625 -17.269531 49.382812 -18.59375 52.03125 -18.59375 C 54.664062 -18.59375 55.984375 -17.269531 55.984375 -14.625 Z M 38.171875 -7.703125 C 38.171875 -5.054688 36.882812 -3.734375 34.3125 -3.734375 C 31.601562 -3.734375 30.25 -5.054688 30.25 -7.703125 C 30.25 -10.410156 31.601562 -11.765625 34.3125 -11.765625 C 36.882812 -11.765625 38.171875 -10.410156 38.171875 -7.703125 Z M 38.171875 -7.703125 "/>
</symbol>
<symbol overflow="visible" id="id0:glyph0-3">
<path style="stroke:none;" d="M -9.6875 -105.9375 C -6.601562 -105.9375 -4.234375 -104.925781 -2.578125 -102.90625 C -0.929688 -100.882812 -0.109375 -98.335938 -0.109375 -95.265625 C -0.109375 -92.179688 -0.894531 -89.628906 -2.46875 -87.609375 C -4.050781 -85.597656 -6.492188 -84.59375 -9.796875 -84.59375 C -10.742188 -84.59375 -11.75 -84.753906 -12.8125 -85.078125 C -13.875 -85.410156 -14.847656 -85.945312 -15.734375 -86.6875 C -15.660156 -85.582031 -15.625 -84.476562 -15.625 -83.375 C -15.625 -82.28125 -15.625 -81.179688 -15.625 -80.078125 L -15.625 -53.796875 L -21.34375 -53.796875 L -21.34375 -93.28125 C -21.34375 -96.0625 -21.890625 -97.910156 -22.984375 -98.828125 C -24.085938 -99.742188 -25.191406 -100.203125 -26.296875 -100.203125 C -26.953125 -100.203125 -27.5 -100.179688 -27.9375 -100.140625 C -28.375 -100.109375 -28.707031 -100.054688 -28.9375 -99.984375 L -29.8125 -104.9375 C -29.226562 -105.226562 -28.550781 -105.46875 -27.78125 -105.65625 C -27.007812 -105.84375 -25.960938 -105.9375 -24.640625 -105.9375 C -23.316406 -105.9375 -22.066406 -105.585938 -20.890625 -104.890625 C -19.722656 -104.191406 -18.738281 -103.179688 -17.9375 -101.859375 C -15.65625 -104.578125 -12.90625 -105.9375 -9.6875 -105.9375 Z M -10.5625 -101.09375 C -11.8125 -101.09375 -12.851562 -100.722656 -13.6875 -99.984375 C -14.53125 -99.253906 -15.175781 -98.265625 -15.625 -97.015625 L -15.625 -93.390625 C -15.175781 -92.210938 -14.550781 -91.273438 -13.75 -90.578125 C -12.945312 -89.890625 -11.8125 -89.546875 -10.34375 -89.546875 C -7.332031 -89.546875 -5.828125 -91.414062 -5.828125 -95.15625 C -5.828125 -99.113281 -7.40625 -101.09375 -10.5625 -101.09375 Z M -10.5625 -101.09375 "/>
</symbol>
<symbol overflow="visible" id="id0:glyph0-4">
<path style="stroke:none;" d="M 17.8125 -88.21875 L 4.40625 -75.125 L 17.8125 -61.9375 L 13.3125 -57.53125 L 3.1875 -67.65625 L 3.1875 22.65625 L -3.1875 22.65625 L -3.1875 -67.65625 L -13.3125 -57.53125 L -17.8125 -61.9375 L -4.40625 -75.125 L -17.8125 -88.21875 L -13.3125 -92.625 L 0 -79.3125 L 13.3125 -92.625 Z M 17.8125 -88.21875 "/>
</symbol>
<symbol overflow="visible" id="id0:glyph0-5">
<path style="stroke:none;" d="M 42.34375 1.09375 C 29.957031 1.09375 20.554688 -1.320312 14.140625 -6.15625 C 7.722656 -11 4.515625 -17.710938 4.515625 -26.296875 C 4.515625 -33.398438 6.820312 -38.894531 11.4375 -42.78125 C 16.0625 -46.675781 23.394531 -48.625 33.4375 -48.625 L 34.765625 -48.625 C 34.242188 -51.257812 33.117188 -53.601562 31.390625 -55.65625 C 29.671875 -57.707031 27.054688 -58.734375 23.546875 -58.734375 C 19.140625 -58.734375 16.9375 -56.789062 16.9375 -52.90625 C 16.9375 -51.664062 17.15625 -50.3125 17.59375 -48.84375 L 9.6875 -46.859375 C 8.289062 -48.984375 7.59375 -51.332031 7.59375 -53.90625 C 7.59375 -57.5 8.945312 -60.210938 11.65625 -62.046875 C 14.375 -63.878906 17.710938 -64.796875 21.671875 -64.796875 C 27.898438 -64.796875 32.679688 -62.941406 36.015625 -59.234375 C 39.359375 -55.535156 41.03125 -50.640625 41.03125 -44.546875 L 41.03125 -43.015625 L 34.203125 -43.015625 C 29.515625 -43.015625 25.425781 -42.570312 21.9375 -41.6875 C 18.457031 -40.8125 15.78125 -39.289062 13.90625 -37.125 C 12.039062 -34.957031 11.109375 -31.929688 11.109375 -28.046875 C 11.109375 -22.253906 13.765625 -17.875 19.078125 -14.90625 C 24.398438 -11.9375 32.15625 -10.453125 42.34375 -10.453125 C 52.757812 -10.453125 60.609375 -11.953125 65.890625 -14.953125 C 71.171875 -17.960938 73.8125 -22.328125 73.8125 -28.046875 C 73.8125 -31.859375 72.859375 -34.90625 70.953125 -37.1875 C 69.484375 -36.15625 67.867188 -35.304688 66.109375 -34.640625 C 64.347656 -33.984375 62.515625 -33.4375 60.609375 -33 C 61.265625 -32.414062 61.796875 -31.679688 62.203125 -30.796875 C 62.609375 -29.921875 62.8125 -28.859375 62.8125 -27.609375 C 62.8125 -25.554688 62.1875 -23.6875 60.9375 -22 C 59.6875 -20.3125 57.519531 -18.953125 54.4375 -17.921875 C 51.363281 -16.898438 47.078125 -16.390625 41.578125 -16.390625 C 34.828125 -16.390625 29.835938 -17.34375 26.609375 -19.25 C 23.390625 -21.15625 21.78125 -23.941406 21.78125 -27.609375 C 21.78125 -30.328125 22.515625 -32.378906 23.984375 -33.765625 C 25.453125 -35.160156 27.300781 -36.132812 29.53125 -36.6875 C 31.769531 -37.238281 34.023438 -37.515625 36.296875 -37.515625 L 47.953125 -37.515625 C 51.109375 -37.515625 54.351562 -37.675781 57.6875 -38 C 61.03125 -38.332031 63.910156 -39.195312 66.328125 -40.59375 C 64.421875 -41.46875 62.144531 -42.085938 59.5 -42.453125 C 56.863281 -42.828125 53.929688 -43.015625 50.703125 -43.015625 L 44.546875 -43.015625 L 44.546875 -43.5625 C 44.546875 -50.082031 46.304688 -55.25 49.828125 -59.0625 C 53.347656 -62.882812 57.894531 -64.796875 63.46875 -64.796875 C 68.3125 -64.796875 71.957031 -63.53125 74.40625 -61 C 76.863281 -58.46875 78.09375 -55.035156 78.09375 -50.703125 C 78.09375 -48.722656 77.835938 -46.945312 77.328125 -45.375 C 76.816406 -43.800781 76.082031 -42.390625 75.125 -41.140625 C 78.644531 -37.398438 80.40625 -32.414062 80.40625 -26.1875 C 80.40625 -17.675781 77.175781 -11 70.71875 -6.15625 C 64.269531 -1.320312 54.8125 1.09375 42.34375 1.09375 Z M 51.484375 -48.625 C 55.515625 -48.625 59.101562 -48.273438 62.25 -47.578125 C 65.40625 -46.878906 68.160156 -45.90625 70.515625 -44.65625 C 71.316406 -46.195312 71.71875 -47.992188 71.71875 -50.046875 C 71.71875 -52.835938 70.851562 -54.890625 69.125 -56.203125 C 67.40625 -57.523438 65.265625 -58.1875 62.703125 -58.1875 C 59.179688 -58.1875 56.484375 -57.285156 54.609375 -55.484375 C 52.742188 -53.691406 51.519531 -51.40625 50.9375 -48.625 Z M 28.375 -27.5 C 28.375 -25.8125 29.269531 -24.472656 31.0625 -23.484375 C 32.863281 -22.492188 36.476562 -22 41.90625 -22 C 47.476562 -22 51.253906 -22.566406 53.234375 -23.703125 C 55.210938 -24.835938 56.203125 -26.320312 56.203125 -28.15625 C 56.203125 -29.914062 55.398438 -31.203125 53.796875 -32.015625 C 52.035156 -31.867188 50.238281 -31.796875 48.40625 -31.796875 L 35.640625 -31.796875 C 33.367188 -31.796875 31.585938 -31.484375 30.296875 -30.859375 C 29.015625 -30.234375 28.375 -29.113281 28.375 -27.5 Z M 28.375 -27.5 "/>
</symbol>
</g>
<g>
<symbol overflow="visible" id="id1:glyph0-0">
<path style="stroke:none;" d="M 5.375 -96.6875 L 69.828125 -96.6875 L 69.828125 0 L 5.375 0 Z M 8.0625 -2.6875 L 67.140625 -2.6875 L 67.140625 -94 L 8.0625 -94 Z M 8.0625 -2.6875 "/>
</symbol>
<symbol overflow="visible" id="id1:glyph0-1">
<path style="stroke:none;" d="M 68.15625 -13.75 L 66.28125 -18.640625 L 88.09375 -27.390625 L 6.984375 -27.390625 L 6.984375 -34 L 88.09375 -34 L 66.28125 -42.75 L 68.15625 -47.640625 L 99.09375 -34.265625 L 99.09375 -27.125 Z M 68.15625 -13.75 "/>
</symbol>
</g>
<g>
<symbol overflow="visible" id="id2:glyph0-0">
<path style="stroke:none;" d="M 10.34375 -78.546875 L 55.546875 -78.546875 L 55.546875 0 L 10.34375 0 Z M 49.9375 -5.609375 L 49.9375 -72.9375 L 15.953125 -72.9375 L 15.953125 -5.609375 Z M 49.9375 -5.609375 "/>
</symbol>
<symbol overflow="visible" id="id2:glyph0-1">
<path style="stroke:none;" d="M 57.53125 1.09375 C 53.789062 1.09375 50.507812 -0.0195312 47.6875 -2.25 C 44.863281 -4.488281 42.972656 -7.734375 42.015625 -11.984375 C 40.847656 -8.316406 39.050781 -5.21875 36.625 -2.6875 C 34.207031 -0.164062 30.726562 1.09375 26.1875 1.09375 C 22.957031 1.09375 20.222656 0.269531 17.984375 -1.375 C 15.742188 -3.019531 14.070312 -5.21875 12.96875 -7.96875 C 11.875 -10.71875 11.328125 -13.671875 11.328125 -16.828125 C 11.328125 -17.117188 11.328125 -17.410156 11.328125 -17.703125 L 6.59375 -18.375 L 1.875 -22.109375 C 7.15625 -27.535156 11.992188 -32.359375 16.390625 -36.578125 C 20.785156 -40.796875 24.890625 -44.476562 28.703125 -47.625 C 27.535156 -50.488281 26.179688 -52.691406 24.640625 -54.234375 C 23.097656 -55.773438 21.226562 -56.546875 19.03125 -56.546875 C 16.757812 -56.546875 15.203125 -55.753906 14.359375 -54.171875 C 13.515625 -52.597656 13.09375 -51.039062 13.09375 -49.5 C 13.09375 -47.957031 13.253906 -46.597656 13.578125 -45.421875 C 13.910156 -44.253906 14.257812 -43.265625 14.625 -42.453125 L 6.265625 -40.375 C 5.535156 -41.46875 4.929688 -42.835938 4.453125 -44.484375 C 3.972656 -46.140625 3.734375 -47.738281 3.734375 -49.28125 C 3.734375 -53.820312 5.085938 -57.210938 7.796875 -59.453125 C 10.515625 -61.691406 13.894531 -62.8125 17.9375 -62.8125 C 21.75 -62.8125 24.914062 -61.671875 27.4375 -59.390625 C 29.96875 -57.117188 31.96875 -54.445312 33.4375 -51.375 C 37.914062 -54.664062 42.171875 -57.300781 46.203125 -59.28125 C 50.234375 -61.269531 54.242188 -62.6875 58.234375 -63.53125 C 62.234375 -64.375 66.4375 -64.796875 70.84375 -64.796875 C 72.675781 -64.796875 74.414062 -64.738281 76.0625 -64.625 C 77.71875 -64.507812 79.3125 -64.34375 80.84375 -64.125 C 82.382812 -64.570312 84.070312 -64.796875 85.90625 -64.796875 C 92.144531 -64.796875 96.929688 -62.941406 100.265625 -59.234375 C 103.597656 -55.535156 105.265625 -50.640625 105.265625 -44.546875 L 105.265625 -43.015625 L 98.453125 -43.015625 C 93.753906 -43.015625 89.660156 -42.570312 86.171875 -41.6875 C 82.691406 -40.8125 80.015625 -39.289062 78.140625 -37.125 C 76.273438 -34.957031 75.34375 -31.929688 75.34375 -28.046875 C 75.34375 -22.253906 78 -17.875 83.3125 -14.90625 C 88.632812 -11.9375 96.394531 -10.453125 106.59375 -10.453125 C 117 -10.453125 124.84375 -11.953125 130.125 -14.953125 C 135.40625 -17.960938 138.046875 -22.328125 138.046875 -28.046875 C 138.046875 -31.859375 137.09375 -34.90625 135.1875 -37.1875 C 133.71875 -36.15625 132.101562 -35.304688 130.34375 -34.640625 C 128.582031 -33.984375 126.75 -33.4375 124.84375 -33 C 125.507812 -32.414062 126.039062 -31.679688 126.4375 -30.796875 C 126.84375 -29.921875 127.046875 -28.859375 127.046875 -27.609375 C 127.046875 -25.554688 126.421875 -23.6875 125.171875 -22 C 123.929688 -20.3125 121.769531 -18.953125 118.6875 -17.921875 C 115.601562 -16.898438 111.3125 -16.390625 105.8125 -16.390625 C 99.070312 -16.390625 94.085938 -17.34375 90.859375 -19.25 C 87.628906 -21.15625 86.015625 -23.941406 86.015625 -27.609375 C 86.015625 -30.328125 86.75 -32.378906 88.21875 -33.765625 C 89.6875 -35.160156 91.535156 -36.132812 93.765625 -36.6875 C 96.003906 -37.238281 98.265625 -37.515625 100.546875 -37.515625 L 112.203125 -37.515625 C 115.359375 -37.515625 118.601562 -37.675781 121.9375 -38 C 125.269531 -38.332031 128.144531 -39.195312 130.5625 -40.59375 C 128.65625 -41.46875 126.382812 -42.085938 123.75 -42.453125 C 121.113281 -42.828125 118.179688 -43.015625 114.953125 -43.015625 L 108.796875 -43.015625 L 108.796875 -43.5625 C 108.796875 -50.082031 110.550781 -55.25 114.0625 -59.0625 C 117.582031 -62.882812 122.128906 -64.796875 127.703125 -64.796875 C 132.546875 -64.796875 136.195312 -63.53125 138.65625 -61 C 141.113281 -58.46875 142.34375 -55.035156 142.34375 -50.703125 C 142.34375 -48.722656 142.082031 -46.945312 141.5625 -45.375 C 141.050781 -43.800781 140.320312 -42.390625 139.375 -41.140625 C 142.894531 -37.398438 144.65625 -32.414062 144.65625 -26.1875 C 144.65625 -17.675781 141.425781 -11 134.96875 -6.15625 C 128.519531 -1.320312 119.0625 1.09375 106.59375 1.09375 C 98.082031 1.09375 91.039062 -0.0390625 85.46875 -2.3125 C 79.894531 -4.582031 75.789062 -7.878906 73.15625 -12.203125 C 72.125 -7.878906 70.320312 -4.582031 67.75 -2.3125 C 65.1875 -0.0390625 61.78125 1.09375 57.53125 1.09375 Z M 44.4375 -48.625 C 51.332031 -48.625 57 -47.539062 61.4375 -45.375 C 65.875 -43.207031 69.15625 -40.144531 71.28125 -36.1875 C 72.894531 -40.21875 75.828125 -43.296875 80.078125 -45.421875 C 84.328125 -47.554688 90.195312 -48.625 97.6875 -48.625 L 99 -48.625 C 98.488281 -51.257812 97.367188 -53.601562 95.640625 -55.65625 C 93.921875 -57.707031 91.300781 -58.734375 87.78125 -58.734375 C 83.382812 -58.734375 81.1875 -56.789062 81.1875 -52.90625 C 81.1875 -51.664062 81.40625 -50.3125 81.84375 -48.84375 L 73.921875 -46.859375 C 72.523438 -48.984375 71.828125 -51.332031 71.828125 -53.90625 C 71.828125 -55.8125 72.304688 -57.53125 73.265625 -59.0625 C 72.378906 -59.0625 71.5 -59.0625 70.625 -59.0625 C 64.90625 -59.0625 59.550781 -58.179688 54.5625 -56.421875 C 49.570312 -54.671875 44.398438 -51.960938 39.046875 -48.296875 C 41.023438 -48.515625 42.820312 -48.625 44.4375 -48.625 Z M 115.71875 -48.625 C 119.75 -48.625 123.34375 -48.273438 126.5 -47.578125 C 129.65625 -46.878906 132.40625 -45.90625 134.75 -44.65625 C 135.550781 -46.195312 135.953125 -47.992188 135.953125 -50.046875 C 135.953125 -52.835938 135.09375 -54.890625 133.375 -56.203125 C 131.65625 -57.523438 129.507812 -58.1875 126.9375 -58.1875 C 123.414062 -58.1875 120.71875 -57.285156 118.84375 -55.484375 C 116.976562 -53.691406 115.753906 -51.40625 115.171875 -48.625 Z M 44.65625 -22 C 44.875 -17.601562 46.175781 -14.578125 48.5625 -12.921875 C 50.945312 -11.273438 53.9375 -10.453125 57.53125 -10.453125 C 61.488281 -10.453125 64.421875 -11.441406 66.328125 -13.421875 C 68.234375 -15.398438 69.1875 -18.515625 69.1875 -22.765625 C 69.1875 -25.992188 68.394531 -29.164062 66.8125 -32.28125 C 65.238281 -35.394531 62.5625 -37.960938 58.78125 -39.984375 C 55.007812 -42.003906 49.863281 -43.015625 43.34375 -43.015625 C 40.769531 -43.015625 38.53125 -42.976562 36.625 -42.90625 C 34.71875 -42.832031 33.070312 -42.757812 31.6875 -42.6875 C 28.75 -40.332031 25.644531 -37.613281 22.375 -34.53125 C 19.113281 -31.457031 15.613281 -27.941406 11.875 -23.984375 L 17.59375 -23.546875 C 17.300781 -22.734375 17.15625 -21.738281 17.15625 -20.5625 C 17.15625 -16.75 18.050781 -14.109375 19.84375 -12.640625 C 21.644531 -11.179688 24.085938 -10.453125 27.171875 -10.453125 C 31.203125 -10.453125 34.1875 -11.476562 36.125 -13.53125 C 38.070312 -15.582031 39.046875 -18.40625 39.046875 -22 Z M 92.625 -27.5 C 92.625 -25.8125 93.519531 -24.472656 95.3125 -23.484375 C 97.113281 -22.492188 100.726562 -22 106.15625 -22 C 111.726562 -22 115.503906 -22.566406 117.484375 -23.703125 C 119.460938 -24.835938 120.453125 -26.320312 120.453125 -28.15625 C 120.453125 -29.914062 119.644531 -31.203125 118.03125 -32.015625 C 116.269531 -31.867188 114.472656 -31.796875 112.640625 -31.796875 L 99.875 -31.796875 C 97.601562 -31.796875 95.828125 -31.484375 94.546875 -30.859375 C 93.265625 -30.234375 92.625 -29.113281 92.625 -27.5 Z M 92.625 -27.5 "/>
</symbol>
</g>
</defs>
  <g id="id0:id0" transform="matrix(1.25,0,0,1.25,0.0,8.5546875)"><g id="id0:surface1">
<g style="fill:rgb(0%,0%,0%);fill-opacity:1;">
  <use xlink:href="#id0:glyph0-1" x="16" y="111.671875"/>
  <use xlink:href="#id0:glyph0-2" x="126.765625" y="111.671875"/>
  <use xlink:href="#id0:glyph0-3" x="195.1875" y="111.671875"/>
  <use xlink:href="#id0:glyph0-4" x="195.1875" y="111.671875"/>
  <use xlink:href="#id0:glyph0-5" x="195.1875" y="111.671875"/>
</g>
</g>
</g>
  <g id="id1:id1" transform="matrix(1.25,0,0,1.25,370.13671875,0.0)"><g id="id1:surface1">
<g style="fill:rgb(0%,0%,0%);fill-opacity:1;">
  <use xlink:href="#id1:glyph0-1" x="0" y="120.84375"/>
</g>
</g>
</g>
  <g id="id2:id2" transform="matrix(1.25,0,0,1.25,502.734375,8.5546875)"><g id="id2:surface1">
<g style="fill:rgb(0%,0%,0%);fill-opacity:1;">
  <use xlink:href="#id2:glyph0-1" x="16" y="111.671875"/>
</g>
</g>
</g>
</svg>
