<!DOCTYPE svg PUBLIC "-//W3C//DTD SVG 1.1//EN" "http://www.w3.org/Graphics/SVG/1.1/DTD/svg11.dtd">
<!-- Created with svg_stack (http://github.com/astraw/svg_stack) --><svg xmlns="http://www.w3.org/2000/svg" xmlns:sodipodi="http://sodipodi.sourceforge.net/DTD/sodipodi-0.dtd" xmlns:xlink="http://www.w3.org/1999/xlink" version="1.1" width="100%" id="sinhala-psts" viewBox="0 0 808.76953125 201.40625">
  <defs><g>
<symbol overflow="visible" id="sinhala-psts:id0:glyph0-0">
<path style="stroke:none;" d="M 55.546875 -78.546875 L 55.546875 0 L 10.34375 0 L 10.34375 -78.546875 Z M 49.9375 -72.9375 L 15.953125 -72.9375 L 15.953125 -5.609375 L 49.9375 -5.609375 Z M 49.9375 -72.9375 "/>
</symbol>
<symbol overflow="visible" id="sinhala-psts:id0:glyph0-1">
<path style="stroke:none;" d="M 36.84375 1.203125 C 30.6875 1.203125 25.5 0.328125 21.28125 -1.421875 C 17.0625 -3.179688 13.671875 -5.53125 11.109375 -8.46875 C 8.546875 -11.40625 6.691406 -14.722656 5.546875 -18.421875 C 4.410156 -22.128906 3.84375 -25.890625 3.84375 -29.703125 C 3.84375 -36.003906 5.3125 -41.5 8.25 -46.1875 C 11.1875 -50.882812 15.289062 -54.550781 20.5625 -57.1875 C 25.84375 -59.832031 32.039062 -61.15625 39.15625 -61.15625 C 44.582031 -61.15625 49.382812 -60.769531 53.5625 -60 C 57.75 -59.226562 61.929688 -58 66.109375 -56.3125 L 63.25 -49.0625 C 58.925781 -50.894531 54.929688 -52.101562 51.265625 -52.6875 C 47.597656 -53.269531 43.488281 -53.5625 38.9375 -53.5625 C 34.101562 -53.5625 29.628906 -52.753906 25.515625 -51.140625 C 21.410156 -49.535156 18.109375 -46.972656 15.609375 -43.453125 C 13.117188 -39.929688 11.875 -35.273438 11.875 -29.484375 C 11.875 -26.765625 12.273438 -24.046875 13.078125 -21.328125 C 13.890625 -18.617188 15.25 -16.164062 17.15625 -13.96875 C 19.0625 -11.769531 21.609375 -9.988281 24.796875 -8.625 C 27.992188 -7.269531 32.007812 -6.59375 36.84375 -6.59375 C 42.34375 -6.59375 46.671875 -7.269531 49.828125 -8.625 C 52.984375 -9.988281 55.21875 -11.804688 56.53125 -14.078125 C 57.851562 -16.347656 58.515625 -18.84375 58.515625 -21.5625 C 58.515625 -24.050781 57.925781 -26.523438 56.75 -28.984375 C 55.582031 -31.441406 53.203125 -33.257812 49.609375 -34.4375 C 49.972656 -33.40625 50.226562 -32.375 50.375 -31.34375 C 50.519531 -30.320312 50.59375 -29.367188 50.59375 -28.484375 C 50.59375 -24.015625 49.347656 -20.898438 46.859375 -19.140625 C 44.367188 -17.378906 41.328125 -16.5 37.734375 -16.5 C 33.773438 -16.5 30.507812 -17.597656 27.9375 -19.796875 C 25.375 -21.992188 24.09375 -25.222656 24.09375 -29.484375 C 24.09375 -33.585938 25.6875 -36.789062 28.875 -39.09375 C 32.0625 -41.40625 36.222656 -42.5625 41.359375 -42.5625 C 46.929688 -42.5625 51.566406 -41.644531 55.265625 -39.8125 C 58.972656 -37.976562 61.757812 -35.503906 63.625 -32.390625 C 65.5 -29.273438 66.4375 -25.847656 66.4375 -22.109375 C 66.4375 -17.640625 65.445312 -13.644531 63.46875 -10.125 C 61.488281 -6.601562 58.316406 -3.832031 53.953125 -1.8125 C 49.585938 0.195312 43.882812 1.203125 36.84375 1.203125 Z M 31.90625 -29.265625 C 31.90625 -27.867188 32.328125 -26.601562 33.171875 -25.46875 C 34.015625 -24.332031 35.460938 -23.765625 37.515625 -23.765625 C 39.421875 -23.765625 40.832031 -24.273438 41.75 -25.296875 C 42.664062 -26.328125 43.125 -27.6875 43.125 -29.375 C 43.125 -30.175781 43.03125 -31.144531 42.84375 -32.28125 C 42.65625 -33.414062 42.269531 -34.460938 41.6875 -35.421875 L 40.703125 -35.421875 C 37.910156 -35.421875 35.742188 -34.867188 34.203125 -33.765625 C 32.671875 -32.671875 31.90625 -31.171875 31.90625 -29.265625 Z M 31.90625 -29.265625 "/>
</symbol>
<symbol overflow="visible" id="sinhala-psts:id0:glyph0-2">
<path style="stroke:none;" d="M 37.84375 1.203125 C 31.019531 1.203125 25.078125 0.195312 20.015625 -1.8125 C 14.960938 -3.832031 11.019531 -6.835938 8.1875 -10.828125 C 5.363281 -14.828125 3.953125 -19.757812 3.953125 -25.625 C 3.953125 -30.46875 5 -34.554688 7.09375 -37.890625 C 9.1875 -41.234375 11.957031 -43.820312 15.40625 -45.65625 C 17.457031 -46.75 19.617188 -47.625 21.890625 -48.28125 C 24.160156 -48.945312 26.851562 -49.40625 29.96875 -49.65625 C 33.09375 -49.914062 36.890625 -50.046875 41.359375 -50.046875 L 52.359375 -50.046875 C 52.140625 -53.492188 51.054688 -56.023438 49.109375 -57.640625 C 47.171875 -59.253906 44.734375 -60.0625 41.796875 -60.0625 C 38.941406 -60.0625 36.78125 -59.53125 35.3125 -58.46875 C 33.84375 -57.40625 33.109375 -55.957031 33.109375 -54.125 C 33.109375 -53.832031 33.109375 -53.535156 33.109375 -53.234375 C 33.109375 -52.941406 33.144531 -52.6875 33.21875 -52.46875 L 25.296875 -51.484375 C 25.222656 -52.066406 25.164062 -52.632812 25.125 -53.1875 C 25.09375 -53.738281 25.078125 -54.304688 25.078125 -54.890625 C 25.078125 -58.921875 26.503906 -62 29.359375 -64.125 C 32.222656 -66.25 36.1875 -67.3125 41.25 -67.3125 C 47.332031 -67.3125 52.003906 -65.609375 55.265625 -62.203125 C 58.535156 -58.796875 60.171875 -53.828125 60.171875 -47.296875 L 60.171875 -42.796875 L 42.234375 -42.796875 C 37.398438 -42.796875 33.535156 -42.644531 30.640625 -42.34375 C 27.742188 -42.050781 25.394531 -41.613281 23.59375 -41.03125 C 21.800781 -40.445312 20.171875 -39.675781 18.703125 -38.71875 C 14.441406 -36.007812 12.3125 -31.5 12.3125 -25.1875 C 12.3125 -22.03125 13.15625 -19.019531 14.84375 -16.15625 C 16.53125 -13.300781 19.300781 -10.992188 23.15625 -9.234375 C 27.007812 -7.472656 32.195312 -6.59375 38.71875 -6.59375 C 42.53125 -6.59375 46.175781 -6.976562 49.65625 -7.75 C 53.144531 -8.519531 56.6875 -9.75 60.28125 -11.4375 L 62.59375 -4.0625 C 60.90625 -3.1875 59.195312 -2.453125 57.46875 -1.859375 C 55.75 -1.273438 54.046875 -0.765625 52.359375 -0.328125 C 47.441406 3.628906 44.984375 8.101562 44.984375 13.09375 C 44.984375 19.25 48.503906 22.328125 55.546875 22.328125 C 56.867188 22.328125 58.207031 22.179688 59.5625 21.890625 C 60.914062 21.597656 62.179688 21.195312 63.359375 20.6875 L 65.125 27.71875 C 63.363281 28.53125 61.566406 29.082031 59.734375 29.375 C 57.898438 29.664062 55.957031 29.8125 53.90625 29.8125 C 48.40625 29.8125 44.1875 28.34375 41.25 25.40625 C 38.3125 22.476562 36.84375 18.445312 36.84375 13.3125 C 36.84375 11.039062 37.242188 8.875 38.046875 6.8125 C 38.859375 4.757812 40 2.851562 41.46875 1.09375 C 40.289062 1.164062 39.082031 1.203125 37.84375 1.203125 Z M 37.84375 1.203125 "/>
</symbol>
<symbol overflow="visible" id="sinhala-psts:id0:glyph0-3">
<path style="stroke:none;" d="M 40.484375 1.203125 C 35.929688 1.203125 31.800781 0.488281 28.09375 -0.9375 C 24.394531 -2.363281 20.421875 -4.398438 16.171875 -7.046875 C 14.335938 -8.210938 12.722656 -9.015625 11.328125 -9.453125 C 10.671875 -7.773438 10.175781 -6.054688 9.84375 -4.296875 C 9.507812 -2.535156 9.234375 -0.921875 9.015625 0.546875 L 1.203125 -0.984375 C 1.359375 -5.535156 2.585938 -10.03125 4.890625 -14.46875 C 7.203125 -18.90625 10.15625 -24.019531 13.75 -29.8125 C 15.945312 -33.40625 17.851562 -37 19.46875 -40.59375 C 21.082031 -44.1875 21.890625 -47.707031 21.890625 -51.15625 C 21.890625 -54.082031 21.285156 -56.296875 20.078125 -57.796875 C 18.867188 -59.304688 17.195312 -60.0625 15.0625 -60.0625 C 12.789062 -60.0625 11.175781 -59.4375 10.21875 -58.1875 C 9.269531 -56.9375 8.796875 -55.472656 8.796875 -53.796875 C 8.796875 -53.273438 8.847656 -52.722656 8.953125 -52.140625 C 9.066406 -51.554688 9.160156 -50.96875 9.234375 -50.375 L 1.546875 -49.0625 C 1.242188 -49.863281 1.035156 -50.8125 0.921875 -51.90625 C 0.816406 -53.007812 0.765625 -53.894531 0.765625 -54.5625 C 0.765625 -58.882812 2.175781 -62.085938 5 -64.171875 C 7.820312 -66.265625 11.140625 -67.3125 14.953125 -67.3125 C 19.285156 -67.3125 22.863281 -65.992188 25.6875 -63.359375 C 28.507812 -60.722656 29.921875 -56.800781 29.921875 -51.59375 C 29.921875 -48 29.390625 -44.625 28.328125 -41.46875 C 27.265625 -38.3125 25.925781 -35.300781 24.3125 -32.4375 C 22.695312 -29.582031 21.007812 -26.800781 19.25 -24.09375 C 18.445312 -22.84375 17.640625 -21.578125 16.828125 -20.296875 C 16.023438 -19.015625 15.289062 -17.75 14.625 -16.5 C 15.800781 -16.0625 17.066406 -15.472656 18.421875 -14.734375 C 19.773438 -14.003906 21.257812 -13.195312 22.875 -12.3125 C 25.738281 -10.707031 28.472656 -9.351562 31.078125 -8.25 C 33.679688 -7.144531 36.78125 -6.59375 40.375 -6.59375 C 45.28125 -6.59375 49.238281 -7.910156 52.25 -10.546875 C 55.257812 -13.191406 56.765625 -17.523438 56.765625 -23.546875 C 56.765625 -30.210938 54.617188 -35.101562 50.328125 -38.21875 C 46.035156 -41.34375 40.441406 -42.941406 33.546875 -43.015625 L 33.546875 -45.3125 C 33.546875 -49.644531 34.09375 -53.457031 35.1875 -56.75 C 36.289062 -60.050781 38.070312 -62.632812 40.53125 -64.5 C 42.988281 -66.375 46.269531 -67.3125 50.375 -67.3125 C 54.925781 -67.3125 58.375 -66.210938 60.71875 -64.015625 C 63.0625 -61.816406 64.234375 -58.664062 64.234375 -54.5625 C 64.234375 -52.65625 64.015625 -50.820312 63.578125 -49.0625 L 55.765625 -50.375 C 56.054688 -51.40625 56.203125 -52.46875 56.203125 -53.5625 C 56.203125 -55.695312 55.707031 -57.3125 54.71875 -58.40625 C 53.726562 -59.507812 52.023438 -60.0625 49.609375 -60.0625 C 47.265625 -60.0625 45.359375 -59.234375 43.890625 -57.578125 C 42.421875 -55.929688 41.578125 -53.457031 41.359375 -50.15625 C 45.609375 -49.570312 49.507812 -48.234375 53.0625 -46.140625 C 56.625 -44.054688 59.46875 -41.160156 61.59375 -37.453125 C 63.726562 -33.753906 64.796875 -29.191406 64.796875 -23.765625 C 64.796875 -17.890625 63.726562 -13.117188 61.59375 -9.453125 C 59.46875 -5.785156 56.570312 -3.09375 52.90625 -1.375 C 49.238281 0.34375 45.097656 1.203125 40.484375 1.203125 Z M 40.484375 1.203125 "/>
</symbol>
<symbol overflow="visible" id="sinhala-psts:id0:glyph0-4">
<path style="stroke:none;" d="M 10.015625 1.203125 C 8.398438 1.203125 6.835938 1.070312 5.328125 0.8125 C 3.828125 0.5625 2.378906 0.253906 0.984375 -0.109375 L 2.421875 -7.265625 C 4.328125 -6.671875 6.488281 -6.375 8.90625 -6.375 C 10.957031 -6.375 12.9375 -6.6875 14.84375 -7.3125 C 16.75 -7.9375 18.472656 -9.09375 20.015625 -10.78125 C 21.554688 -12.46875 22.765625 -14.847656 23.640625 -17.921875 C 24.523438 -21.003906 24.96875 -25.003906 24.96875 -29.921875 C 24.96875 -34.835938 24.523438 -38.832031 23.640625 -41.90625 C 22.765625 -44.988281 21.554688 -47.375 20.015625 -49.0625 C 18.472656 -50.75 16.75 -51.898438 14.84375 -52.515625 C 12.9375 -53.140625 10.957031 -53.453125 8.90625 -53.453125 C 7.507812 -53.453125 6.296875 -53.359375 5.265625 -53.171875 C 4.242188 -52.992188 3.296875 -52.757812 2.421875 -52.46875 L 0.984375 -59.625 C 2.523438 -60.132812 4.082031 -60.5 5.65625 -60.71875 C 7.238281 -60.9375 8.691406 -61.046875 10.015625 -61.046875 C 12.722656 -61.046875 15.429688 -60.601562 18.140625 -59.71875 C 20.859375 -58.84375 23.351562 -57.269531 25.625 -55 C 27.90625 -52.726562 29.738281 -49.554688 31.125 -45.484375 C 32.519531 -41.410156 33.21875 -36.222656 33.21875 -29.921875 C 33.21875 -23.609375 32.519531 -18.414062 31.125 -14.34375 C 29.738281 -10.28125 27.90625 -7.113281 25.625 -4.84375 C 23.351562 -2.570312 20.859375 -0.992188 18.140625 -0.109375 C 15.429688 0.765625 12.722656 1.203125 10.015625 1.203125 Z M 14.859375 -57.640625 L 14.859375 -89.765625 C 14.859375 -92.984375 14.523438 -95.253906 13.859375 -96.578125 C 13.054688 -98.265625 11.554688 -99.507812 9.359375 -100.3125 L 12.21875 -107.03125 C 14.195312 -106.445312 15.734375 -105.734375 16.828125 -104.890625 C 17.929688 -104.046875 18.773438 -103 19.359375 -101.75 C 20.097656 -103.289062 21.179688 -104.554688 22.609375 -105.546875 C 24.035156 -106.535156 25.8125 -107.03125 27.9375 -107.03125 C 30.726562 -107.03125 33.054688 -106.1875 34.921875 -104.5 C 36.796875 -102.8125 37.734375 -100.242188 37.734375 -96.796875 C 37.734375 -93.566406 36.78125 -90.941406 34.875 -88.921875 C 32.96875 -86.910156 30 -85.90625 25.96875 -85.90625 C 24.71875 -85.90625 23.503906 -85.976562 22.328125 -86.125 L 22.328125 -57.640625 Z M 27.390625 -100.875 C 25.335938 -100.875 23.976562 -100.285156 23.3125 -99.109375 C 22.65625 -97.929688 22.328125 -96.316406 22.328125 -94.265625 L 22.328125 -92.40625 C 23.429688 -92.175781 24.460938 -92.0625 25.421875 -92.0625 C 29.378906 -92.0625 31.359375 -93.601562 31.359375 -96.6875 C 31.359375 -98.082031 30.988281 -99.128906 30.25 -99.828125 C 29.519531 -100.523438 28.566406 -100.875 27.390625 -100.875 Z M 27.390625 -100.875 "/>
</symbol>
</g>
<g>
<symbol overflow="visible" id="sinhala-psts:id1:glyph0-0">
<path style="stroke:none;" d="M 5.375 -96.6875 L 69.828125 -96.6875 L 69.828125 0 L 5.375 0 Z M 8.0625 -2.6875 L 67.140625 -2.6875 L 67.140625 -94 L 8.0625 -94 Z M 8.0625 -2.6875 "/>
</symbol>
<symbol overflow="visible" id="sinhala-psts:id1:glyph0-1">
<path style="stroke:none;" d="M 68.15625 -13.75 L 66.28125 -18.640625 L 88.09375 -27.390625 L 6.984375 -27.390625 L 6.984375 -34 L 88.09375 -34 L 66.28125 -42.75 L 68.15625 -47.640625 L 99.09375 -34.265625 L 99.09375 -27.125 Z M 68.15625 -13.75 "/>
</symbol>
</g>
<g>
<symbol overflow="visible" id="sinhala-psts:id2:glyph0-0">
<path style="stroke:none;" d="M 55.546875 -78.546875 L 55.546875 0 L 10.34375 0 L 10.34375 -78.546875 Z M 49.9375 -72.9375 L 15.953125 -72.9375 L 15.953125 -5.609375 L 49.9375 -5.609375 Z M 49.9375 -72.9375 "/>
</symbol>
<symbol overflow="visible" id="sinhala-psts:id2:glyph0-1">
<path style="stroke:none;" d="M 36.84375 1.203125 C 30.6875 1.203125 25.5 0.328125 21.28125 -1.421875 C 17.0625 -3.179688 13.671875 -5.53125 11.109375 -8.46875 C 8.546875 -11.40625 6.691406 -14.722656 5.546875 -18.421875 C 4.410156 -22.128906 3.84375 -25.890625 3.84375 -29.703125 C 3.84375 -36.003906 5.3125 -41.5 8.25 -46.1875 C 11.1875 -50.882812 15.289062 -54.550781 20.5625 -57.1875 C 25.84375 -59.832031 32.039062 -61.15625 39.15625 -61.15625 C 44.582031 -61.15625 49.382812 -60.769531 53.5625 -60 C 57.75 -59.226562 61.929688 -58 66.109375 -56.3125 L 63.25 -49.0625 C 58.925781 -50.894531 54.929688 -52.101562 51.265625 -52.6875 C 47.597656 -53.269531 43.488281 -53.5625 38.9375 -53.5625 C 34.101562 -53.5625 29.628906 -52.753906 25.515625 -51.140625 C 21.410156 -49.535156 18.109375 -46.972656 15.609375 -43.453125 C 13.117188 -39.929688 11.875 -35.273438 11.875 -29.484375 C 11.875 -26.765625 12.273438 -24.046875 13.078125 -21.328125 C 13.890625 -18.617188 15.25 -16.164062 17.15625 -13.96875 C 19.0625 -11.769531 21.609375 -9.988281 24.796875 -8.625 C 27.992188 -7.269531 32.007812 -6.59375 36.84375 -6.59375 C 42.34375 -6.59375 46.671875 -7.269531 49.828125 -8.625 C 52.984375 -9.988281 55.21875 -11.804688 56.53125 -14.078125 C 57.851562 -16.347656 58.515625 -18.84375 58.515625 -21.5625 C 58.515625 -24.050781 57.925781 -26.523438 56.75 -28.984375 C 55.582031 -31.441406 53.203125 -33.257812 49.609375 -34.4375 C 49.972656 -33.40625 50.226562 -32.375 50.375 -31.34375 C 50.519531 -30.320312 50.59375 -29.367188 50.59375 -28.484375 C 50.59375 -24.015625 49.347656 -20.898438 46.859375 -19.140625 C 44.367188 -17.378906 41.328125 -16.5 37.734375 -16.5 C 33.773438 -16.5 30.507812 -17.597656 27.9375 -19.796875 C 25.375 -21.992188 24.09375 -25.222656 24.09375 -29.484375 C 24.09375 -33.585938 25.6875 -36.789062 28.875 -39.09375 C 32.0625 -41.40625 36.222656 -42.5625 41.359375 -42.5625 C 46.929688 -42.5625 51.566406 -41.644531 55.265625 -39.8125 C 58.972656 -37.976562 61.757812 -35.503906 63.625 -32.390625 C 65.5 -29.273438 66.4375 -25.847656 66.4375 -22.109375 C 66.4375 -17.640625 65.445312 -13.644531 63.46875 -10.125 C 61.488281 -6.601562 58.316406 -3.832031 53.953125 -1.8125 C 49.585938 0.195312 43.882812 1.203125 36.84375 1.203125 Z M 31.90625 -29.265625 C 31.90625 -27.867188 32.328125 -26.601562 33.171875 -25.46875 C 34.015625 -24.332031 35.460938 -23.765625 37.515625 -23.765625 C 39.421875 -23.765625 40.832031 -24.273438 41.75 -25.296875 C 42.664062 -26.328125 43.125 -27.6875 43.125 -29.375 C 43.125 -30.175781 43.03125 -31.144531 42.84375 -32.28125 C 42.65625 -33.414062 42.269531 -34.460938 41.6875 -35.421875 L 40.703125 -35.421875 C 37.910156 -35.421875 35.742188 -34.867188 34.203125 -33.765625 C 32.671875 -32.671875 31.90625 -31.171875 31.90625 -29.265625 Z M 31.90625 -29.265625 "/>
</symbol>
<symbol overflow="visible" id="sinhala-psts:id2:glyph0-2">
<path style="stroke:none;" d="M 37.84375 1.203125 C 31.019531 1.203125 25.078125 0.195312 20.015625 -1.8125 C 14.960938 -3.832031 11.019531 -6.835938 8.1875 -10.828125 C 5.363281 -14.828125 3.953125 -19.757812 3.953125 -25.625 C 3.953125 -30.46875 5 -34.554688 7.09375 -37.890625 C 9.1875 -41.234375 11.957031 -43.820312 15.40625 -45.65625 C 17.457031 -46.75 19.617188 -47.625 21.890625 -48.28125 C 24.160156 -48.945312 26.851562 -49.40625 29.96875 -49.65625 C 33.09375 -49.914062 36.890625 -50.046875 41.359375 -50.046875 L 52.359375 -50.046875 C 52.140625 -53.492188 51.054688 -56.023438 49.109375 -57.640625 C 47.171875 -59.253906 44.734375 -60.0625 41.796875 -60.0625 C 38.941406 -60.0625 36.78125 -59.53125 35.3125 -58.46875 C 33.84375 -57.40625 33.109375 -55.957031 33.109375 -54.125 C 33.109375 -53.832031 33.109375 -53.535156 33.109375 -53.234375 C 33.109375 -52.941406 33.144531 -52.6875 33.21875 -52.46875 L 25.296875 -51.484375 C 25.222656 -52.066406 25.164062 -52.632812 25.125 -53.1875 C 25.09375 -53.738281 25.078125 -54.304688 25.078125 -54.890625 C 25.078125 -58.921875 26.503906 -62 29.359375 -64.125 C 32.222656 -66.25 36.1875 -67.3125 41.25 -67.3125 C 47.332031 -67.3125 52.003906 -65.609375 55.265625 -62.203125 C 58.535156 -58.796875 60.171875 -53.828125 60.171875 -47.296875 L 60.171875 -42.796875 L 42.234375 -42.796875 C 37.398438 -42.796875 33.535156 -42.644531 30.640625 -42.34375 C 27.742188 -42.050781 25.394531 -41.613281 23.59375 -41.03125 C 21.800781 -40.445312 20.171875 -39.675781 18.703125 -38.71875 C 14.441406 -36.007812 12.3125 -31.5 12.3125 -25.1875 C 12.3125 -22.03125 13.15625 -19.019531 14.84375 -16.15625 C 16.53125 -13.300781 19.300781 -10.992188 23.15625 -9.234375 C 27.007812 -7.472656 32.195312 -6.59375 38.71875 -6.59375 C 42.53125 -6.59375 46.175781 -6.976562 49.65625 -7.75 C 53.144531 -8.519531 56.6875 -9.75 60.28125 -11.4375 L 62.59375 -4.0625 C 60.90625 -3.1875 59.195312 -2.453125 57.46875 -1.859375 C 55.75 -1.273438 54.046875 -0.765625 52.359375 -0.328125 C 47.441406 3.628906 44.984375 8.101562 44.984375 13.09375 C 44.984375 19.25 48.503906 22.328125 55.546875 22.328125 C 56.867188 22.328125 58.207031 22.179688 59.5625 21.890625 C 60.914062 21.597656 62.179688 21.195312 63.359375 20.6875 L 65.125 27.71875 C 63.363281 28.53125 61.566406 29.082031 59.734375 29.375 C 57.898438 29.664062 55.957031 29.8125 53.90625 29.8125 C 48.40625 29.8125 44.1875 28.34375 41.25 25.40625 C 38.3125 22.476562 36.84375 18.445312 36.84375 13.3125 C 36.84375 11.039062 37.242188 8.875 38.046875 6.8125 C 38.859375 4.757812 40 2.851562 41.46875 1.09375 C 40.289062 1.164062 39.082031 1.203125 37.84375 1.203125 Z M 37.84375 1.203125 "/>
</symbol>
<symbol overflow="visible" id="sinhala-psts:id2:glyph0-3">
<path style="stroke:none;" d="M 40.484375 1.203125 C 35.929688 1.203125 31.800781 0.488281 28.09375 -0.9375 C 24.394531 -2.363281 20.421875 -4.398438 16.171875 -7.046875 C 14.335938 -8.210938 12.722656 -9.015625 11.328125 -9.453125 C 10.671875 -7.773438 10.175781 -6.054688 9.84375 -4.296875 C 9.507812 -2.535156 9.234375 -0.921875 9.015625 0.546875 L 1.203125 -0.984375 C 1.359375 -5.535156 2.585938 -10.03125 4.890625 -14.46875 C 7.203125 -18.90625 10.15625 -24.019531 13.75 -29.8125 C 15.945312 -33.40625 17.851562 -37 19.46875 -40.59375 C 21.082031 -44.1875 21.890625 -47.707031 21.890625 -51.15625 C 21.890625 -54.082031 21.285156 -56.296875 20.078125 -57.796875 C 18.867188 -59.304688 17.195312 -60.0625 15.0625 -60.0625 C 12.789062 -60.0625 11.175781 -59.4375 10.21875 -58.1875 C 9.269531 -56.9375 8.796875 -55.472656 8.796875 -53.796875 C 8.796875 -53.273438 8.847656 -52.722656 8.953125 -52.140625 C 9.066406 -51.554688 9.160156 -50.96875 9.234375 -50.375 L 1.546875 -49.0625 C 1.242188 -49.863281 1.035156 -50.8125 0.921875 -51.90625 C 0.816406 -53.007812 0.765625 -53.894531 0.765625 -54.5625 C 0.765625 -58.882812 2.175781 -62.085938 5 -64.171875 C 7.820312 -66.265625 11.140625 -67.3125 14.953125 -67.3125 C 19.285156 -67.3125 22.863281 -65.992188 25.6875 -63.359375 C 28.507812 -60.722656 29.921875 -56.800781 29.921875 -51.59375 C 29.921875 -48 29.390625 -44.625 28.328125 -41.46875 C 27.265625 -38.3125 25.925781 -35.300781 24.3125 -32.4375 C 22.695312 -29.582031 21.007812 -26.800781 19.25 -24.09375 C 18.445312 -22.84375 17.640625 -21.578125 16.828125 -20.296875 C 16.023438 -19.015625 15.289062 -17.75 14.625 -16.5 C 15.800781 -16.0625 17.066406 -15.472656 18.421875 -14.734375 C 19.773438 -14.003906 21.257812 -13.195312 22.875 -12.3125 C 25.738281 -10.707031 28.472656 -9.351562 31.078125 -8.25 C 33.679688 -7.144531 36.78125 -6.59375 40.375 -6.59375 C 45.28125 -6.59375 49.238281 -7.910156 52.25 -10.546875 C 55.257812 -13.191406 56.765625 -17.523438 56.765625 -23.546875 C 56.765625 -30.210938 54.617188 -35.101562 50.328125 -38.21875 C 46.035156 -41.34375 40.441406 -42.941406 33.546875 -43.015625 L 33.546875 -45.3125 C 33.546875 -49.644531 34.09375 -53.457031 35.1875 -56.75 C 36.289062 -60.050781 38.070312 -62.632812 40.53125 -64.5 C 42.988281 -66.375 46.269531 -67.3125 50.375 -67.3125 C 54.925781 -67.3125 58.375 -66.210938 60.71875 -64.015625 C 63.0625 -61.816406 64.234375 -58.664062 64.234375 -54.5625 C 64.234375 -52.65625 64.015625 -50.820312 63.578125 -49.0625 L 55.765625 -50.375 C 56.054688 -51.40625 56.203125 -52.46875 56.203125 -53.5625 C 56.203125 -55.695312 55.707031 -57.3125 54.71875 -58.40625 C 53.726562 -59.507812 52.023438 -60.0625 49.609375 -60.0625 C 47.265625 -60.0625 45.359375 -59.234375 43.890625 -57.578125 C 42.421875 -55.929688 41.578125 -53.457031 41.359375 -50.15625 C 45.609375 -49.570312 49.507812 -48.234375 53.0625 -46.140625 C 56.625 -44.054688 59.46875 -41.160156 61.59375 -37.453125 C 63.726562 -33.753906 64.796875 -29.191406 64.796875 -23.765625 C 64.796875 -17.890625 63.726562 -13.117188 61.59375 -9.453125 C 59.46875 -5.785156 56.570312 -3.09375 52.90625 -1.375 C 49.238281 0.34375 45.097656 1.203125 40.484375 1.203125 Z M 40.484375 1.203125 "/>
</symbol>
<symbol overflow="visible" id="sinhala-psts:id2:glyph0-4">
<path style="stroke:none;" d="M 10.015625 1.203125 C 8.398438 1.203125 6.835938 1.070312 5.328125 0.8125 C 3.828125 0.5625 2.378906 0.253906 0.984375 -0.109375 L 2.421875 -7.265625 C 4.328125 -6.671875 6.488281 -6.375 8.90625 -6.375 C 10.957031 -6.375 12.9375 -6.6875 14.84375 -7.3125 C 16.75 -7.9375 18.472656 -9.09375 20.015625 -10.78125 C 21.554688 -12.46875 22.765625 -14.847656 23.640625 -17.921875 C 24.523438 -21.003906 24.96875 -25.003906 24.96875 -29.921875 C 24.96875 -34.835938 24.523438 -38.832031 23.640625 -41.90625 C 22.765625 -44.988281 21.554688 -47.375 20.015625 -49.0625 C 18.472656 -50.75 16.75 -51.898438 14.84375 -52.515625 C 12.9375 -53.140625 10.957031 -53.453125 8.90625 -53.453125 C 7.507812 -53.453125 6.296875 -53.359375 5.265625 -53.171875 C 4.242188 -52.992188 3.296875 -52.757812 2.421875 -52.46875 L 0.984375 -59.625 C 2.523438 -60.132812 4.082031 -60.5 5.65625 -60.71875 C 7.238281 -60.9375 8.691406 -61.046875 10.015625 -61.046875 C 12.722656 -61.046875 15.429688 -60.601562 18.140625 -59.71875 C 20.859375 -58.84375 23.351562 -57.269531 25.625 -55 C 27.90625 -52.726562 29.738281 -49.554688 31.125 -45.484375 C 32.519531 -41.410156 33.21875 -36.222656 33.21875 -29.921875 C 33.21875 -23.609375 32.519531 -18.414062 31.125 -14.34375 C 29.738281 -10.28125 27.90625 -7.113281 25.625 -4.84375 C 23.351562 -2.570312 20.859375 -0.992188 18.140625 -0.109375 C 15.429688 0.765625 12.722656 1.203125 10.015625 1.203125 Z M 14.859375 -57.640625 L 14.859375 -89.765625 C 14.859375 -92.984375 14.523438 -95.253906 13.859375 -96.578125 C 13.054688 -98.265625 11.554688 -99.507812 9.359375 -100.3125 L 12.21875 -107.03125 C 14.195312 -106.445312 15.734375 -105.734375 16.828125 -104.890625 C 17.929688 -104.046875 18.773438 -103 19.359375 -101.75 C 20.097656 -103.289062 21.179688 -104.554688 22.609375 -105.546875 C 24.035156 -106.535156 25.8125 -107.03125 27.9375 -107.03125 C 30.726562 -107.03125 33.054688 -106.1875 34.921875 -104.5 C 36.796875 -102.8125 37.734375 -100.242188 37.734375 -96.796875 C 37.734375 -93.566406 36.78125 -90.941406 34.875 -88.921875 C 32.96875 -86.910156 30 -85.90625 25.96875 -85.90625 C 24.71875 -85.90625 23.503906 -85.976562 22.328125 -86.125 L 22.328125 -57.640625 Z M 27.390625 -100.875 C 25.335938 -100.875 23.976562 -100.285156 23.3125 -99.109375 C 22.65625 -97.929688 22.328125 -96.316406 22.328125 -94.265625 L 22.328125 -92.40625 C 23.429688 -92.175781 24.460938 -92.0625 25.421875 -92.0625 C 29.378906 -92.0625 31.359375 -93.601562 31.359375 -96.6875 C 31.359375 -98.082031 30.988281 -99.128906 30.25 -99.828125 C 29.519531 -100.523438 28.566406 -100.875 27.390625 -100.875 Z M 27.390625 -100.875 "/>
</symbol>
</g>
</defs>
  <g id="sinhala-psts:id0:id0" transform="matrix(1.25,0,0,1.25,0.0,8.5546875)"><g id="sinhala-psts:id0:surface1">
<g style="fill:rgb(0%,0%,0%);fill-opacity:1;">
  <use xlink:href="#sinhala-psts:id0:glyph0-1" x="16" y="113.203125" class="c0"/>
  <use xlink:href="#sinhala-psts:id0:glyph0-2" x="85.40625" y="113.203125" class="c1"/>
  <use xlink:href="#sinhala-psts:id0:glyph0-3" x="148.875" y="113.203125" class="c2"/>
  <use xlink:href="#sinhala-psts:id0:glyph0-4" x="216.734375" y="113.203125" class="c3"/>
</g>
</g>
</g>
  <g id="sinhala-psts:id1:id1" transform="matrix(1.25,0,0,1.25,338.0859375,0.0)"><g id="sinhala-psts:id1:surface1">
<g style="fill:rgb(0%,0%,0%);fill-opacity:1;">
  <use xlink:href="#sinhala-psts:id1:glyph0-1" x="0" y="120.84375" class="arrow"/>
</g>
</g>
</g>
  <g id="sinhala-psts:id2:id2" transform="matrix(1.25,0,0,1.25,470.68359375,8.5546875)"><g id="sinhala-psts:id2:surface1">
<g style="fill:rgb(0%,0%,0%);fill-opacity:1;">
  <use xlink:href="#sinhala-psts:id2:glyph0-1" x="16" y="113.203125" class="c0"/>
  <use xlink:href="#sinhala-psts:id2:glyph0-2" x="85.40625" y="113.203125" class="c1"/>
  <use xlink:href="#sinhala-psts:id2:glyph0-3" x="148.875" y="113.203125" class="c2"/>
  <use xlink:href="#sinhala-psts:id2:glyph0-4" x="216.734375" y="113.203125" class="c3"/>
</g>
</g>
</g>
</svg>