<?xml version="1.0" standalone="no"?>
<!DOCTYPE svg PUBLIC "-//W3C//DTD SVG 1.1//EN"
 "http://www.w3.org/Graphics/SVG/1.1/DTD/svg11.dtd">
<!-- Created with svg_stack (http://github.com/astraw/svg_stack) -->
<svg xmlns="http://www.w3.org/2000/svg" xmlns:sodipodi="http://sodipodi.sourceforge.net/DTD/sodipodi-0.dtd" xmlns:xlink="http://www.w3.org/1999/xlink" version="1.1" width="1073.8671875" height="201.40625">
  <defs><g>
<symbol overflow="visible" id="id0:glyph0-0">
<path style="stroke:none;" d="M 10.34375 -78.546875 L 55.546875 -78.546875 L 55.546875 0 L 10.34375 0 Z M 49.9375 -5.609375 L 49.9375 -72.9375 L 15.953125 -72.9375 L 15.953125 -5.609375 Z M 49.9375 -5.609375 "/>
</symbol>
<symbol overflow="visible" id="id0:glyph0-1">
<path style="stroke:none;" d="M 4.40625 -29.703125 C 4.40625 -35.492188 5.742188 -40.570312 8.421875 -44.9375 C 11.097656 -49.300781 14.925781 -52.691406 19.90625 -55.109375 C 24.894531 -57.523438 30.910156 -58.734375 37.953125 -58.734375 C 42.421875 -58.734375 46.34375 -58.421875 49.71875 -57.796875 C 53.09375 -57.179688 56.171875 -56.320312 58.953125 -55.21875 C 61.742188 -54.113281 64.457031 -52.832031 67.09375 -51.375 L 64.015625 -45.984375 C 60.710938 -48.179688 56.898438 -49.921875 52.578125 -51.203125 C 48.253906 -52.484375 43.414062 -53.125 38.0625 -53.125 C 32.925781 -53.125 28.304688 -52.316406 24.203125 -50.703125 C 20.097656 -49.097656 16.867188 -46.625 14.515625 -43.28125 C 12.171875 -39.945312 11 -35.75 11 -30.6875 C 11 -26.726562 11.859375 -23.132812 13.578125 -19.90625 C 15.304688 -16.675781 18.039062 -14.125 21.78125 -12.25 C 25.519531 -10.382812 30.46875 -9.453125 36.625 -9.453125 C 42.570312 -9.453125 47.191406 -10.203125 50.484375 -11.703125 C 53.785156 -13.210938 56.097656 -15.140625 57.421875 -17.484375 C 58.742188 -19.835938 59.40625 -22.296875 59.40625 -24.859375 C 59.40625 -27.722656 58.359375 -30.398438 56.265625 -32.890625 C 54.171875 -35.378906 50.78125 -37.03125 46.09375 -37.84375 C 47.40625 -36.882812 48.316406 -35.707031 48.828125 -34.3125 C 49.347656 -32.925781 49.609375 -31.570312 49.609375 -30.25 C 49.609375 -26.4375 48.429688 -23.554688 46.078125 -21.609375 C 43.734375 -19.671875 40.617188 -18.703125 36.734375 -18.703125 C 32.554688 -18.703125 29.332031 -19.816406 27.0625 -22.046875 C 24.789062 -24.285156 23.65625 -27.203125 23.65625 -30.796875 C 23.65625 -34.679688 25.101562 -37.816406 28 -40.203125 C 30.894531 -42.585938 35.128906 -43.78125 40.703125 -43.78125 C 46.273438 -43.78125 50.894531 -42.863281 54.5625 -41.03125 C 58.226562 -39.195312 60.992188 -36.757812 62.859375 -33.71875 C 64.734375 -30.675781 65.671875 -27.285156 65.671875 -23.546875 C 65.671875 -18.773438 64.609375 -14.535156 62.484375 -10.828125 C 60.359375 -7.128906 57.1875 -4.21875 52.96875 -2.09375 C 48.75 0.03125 43.410156 1.09375 36.953125 1.09375 C 29.253906 1.09375 23.019531 -0.296875 18.25 -3.078125 C 13.488281 -5.867188 9.988281 -9.609375 7.75 -14.296875 C 5.519531 -18.992188 4.40625 -24.128906 4.40625 -29.703125 Z M 43.34375 -31.015625 C 43.34375 -32.628906 42.828125 -34.078125 41.796875 -35.359375 C 40.773438 -36.648438 39.050781 -37.296875 36.625 -37.296875 C 34.71875 -37.296875 33.125 -36.722656 31.84375 -35.578125 C 30.5625 -34.441406 29.921875 -32.921875 29.921875 -31.015625 C 29.921875 -29.035156 30.46875 -27.421875 31.5625 -26.171875 C 32.664062 -24.929688 34.390625 -24.3125 36.734375 -24.3125 C 38.785156 -24.3125 40.398438 -24.859375 41.578125 -25.953125 C 42.753906 -27.054688 43.34375 -28.742188 43.34375 -31.015625 Z M 43.34375 -31.015625 "/>
</symbol>
<symbol overflow="visible" id="id0:glyph0-2">
<path style="stroke:none;" d="M 38.171875 -56.09375 C 38.171875 -53.382812 36.882812 -52.03125 34.3125 -52.03125 C 31.601562 -52.03125 30.25 -53.382812 30.25 -56.09375 C 30.25 -58.738281 31.601562 -60.0625 34.3125 -60.0625 C 36.882812 -60.0625 38.171875 -58.738281 38.171875 -56.09375 Z M 20.453125 -49.171875 C 20.453125 -46.523438 19.097656 -45.203125 16.390625 -45.203125 C 13.753906 -45.203125 12.4375 -46.523438 12.4375 -49.171875 C 12.4375 -51.878906 13.753906 -53.234375 16.390625 -53.234375 C 19.097656 -53.234375 20.453125 -51.878906 20.453125 -49.171875 Z M 55.984375 -49.171875 C 55.984375 -46.523438 54.664062 -45.203125 52.03125 -45.203125 C 49.382812 -45.203125 48.0625 -46.523438 48.0625 -49.171875 C 48.0625 -51.878906 49.382812 -53.234375 52.03125 -53.234375 C 54.664062 -53.234375 55.984375 -51.878906 55.984375 -49.171875 Z M 62.046875 -31.90625 C 62.046875 -29.257812 60.757812 -27.9375 58.1875 -27.9375 C 55.476562 -27.9375 54.125 -29.257812 54.125 -31.90625 C 54.125 -34.613281 55.476562 -35.96875 58.1875 -35.96875 C 60.757812 -35.96875 62.046875 -34.613281 62.046875 -31.90625 Z M 14.1875 -31.90625 C 14.1875 -29.257812 12.90625 -27.9375 10.34375 -27.9375 C 7.625 -27.9375 6.265625 -29.257812 6.265625 -31.90625 C 6.265625 -34.613281 7.625 -35.96875 10.34375 -35.96875 C 12.90625 -35.96875 14.1875 -34.613281 14.1875 -31.90625 Z M 20.453125 -14.625 C 20.453125 -11.914062 19.097656 -10.5625 16.390625 -10.5625 C 13.753906 -10.5625 12.4375 -11.914062 12.4375 -14.625 C 12.4375 -17.269531 13.753906 -18.59375 16.390625 -18.59375 C 19.097656 -18.59375 20.453125 -17.269531 20.453125 -14.625 Z M 55.984375 -14.625 C 55.984375 -11.914062 54.664062 -10.5625 52.03125 -10.5625 C 49.382812 -10.5625 48.0625 -11.914062 48.0625 -14.625 C 48.0625 -17.269531 49.382812 -18.59375 52.03125 -18.59375 C 54.664062 -18.59375 55.984375 -17.269531 55.984375 -14.625 Z M 38.171875 -7.703125 C 38.171875 -5.054688 36.882812 -3.734375 34.3125 -3.734375 C 31.601562 -3.734375 30.25 -5.054688 30.25 -7.703125 C 30.25 -10.410156 31.601562 -11.765625 34.3125 -11.765625 C 36.882812 -11.765625 38.171875 -10.410156 38.171875 -7.703125 Z M 38.171875 -7.703125 "/>
</symbol>
<symbol overflow="visible" id="id0:glyph0-3">
<path style="stroke:none;" d="M 38.390625 1.09375 C 27.535156 1.09375 19.394531 -1.160156 13.96875 -5.671875 C 8.539062 -10.179688 5.828125 -16.320312 5.828125 -24.09375 C 5.828125 -28.195312 6.925781 -31.9375 9.125 -35.3125 C 11.332031 -38.6875 14.226562 -41.363281 17.8125 -43.34375 C 16.0625 -43.195312 14.101562 -43.101562 11.9375 -43.0625 C 9.769531 -43.03125 7.804688 -43.015625 6.046875 -43.015625 L 2.203125 -43.015625 L 2.203125 -48.625 L 40.59375 -48.625 C 40.070312 -51.1875 38.988281 -53.507812 37.34375 -55.59375 C 35.695312 -57.6875 33.039062 -58.734375 29.375 -58.734375 C 24.96875 -58.734375 22.765625 -56.789062 22.765625 -52.90625 C 22.765625 -52.613281 22.800781 -52.226562 22.875 -51.75 C 22.945312 -51.28125 23.019531 -50.859375 23.09375 -50.484375 L 14.078125 -49.71875 C 13.859375 -50.300781 13.691406 -51.03125 13.578125 -51.90625 C 13.472656 -52.789062 13.421875 -53.457031 13.421875 -53.90625 C 13.421875 -57.5 14.773438 -60.210938 17.484375 -62.046875 C 20.203125 -63.878906 23.539062 -64.796875 27.5 -64.796875 C 33.726562 -64.796875 38.507812 -62.941406 41.84375 -59.234375 C 45.1875 -55.535156 46.859375 -50.640625 46.859375 -44.546875 L 46.859375 -43.015625 L 28.15625 -43.015625 C 23.25 -41.546875 19.4375 -39.4375 16.71875 -36.6875 C 14.007812 -33.9375 12.65625 -30.691406 12.65625 -26.953125 C 12.65625 -23.578125 13.457031 -20.660156 15.0625 -18.203125 C 16.675781 -15.742188 19.316406 -13.835938 22.984375 -12.484375 C 26.648438 -11.128906 31.601562 -10.453125 37.84375 -10.453125 C 45.03125 -10.453125 51.0625 -11.332031 55.9375 -13.09375 C 60.8125 -14.851562 64.695312 -17.234375 67.59375 -20.234375 C 70.488281 -23.242188 72.578125 -26.597656 73.859375 -30.296875 C 75.148438 -34.003906 75.796875 -37.800781 75.796875 -41.6875 C 75.796875 -47.769531 74.765625 -52.882812 72.703125 -57.03125 C 70.648438 -61.175781 67.804688 -64.476562 64.171875 -66.9375 C 60.546875 -69.394531 56.332031 -71.15625 51.53125 -72.21875 C 46.726562 -73.28125 41.613281 -73.8125 36.1875 -73.8125 C 30.6875 -73.8125 25.695312 -73.40625 21.21875 -72.59375 C 16.75 -71.789062 11.800781 -70.546875 6.375 -68.859375 L 4.625 -74.578125 C 6.164062 -75.015625 7.722656 -75.4375 9.296875 -75.84375 C 10.867188 -76.25 12.425781 -76.632812 13.96875 -77 C 12.945312 -78.394531 12.140625 -79.878906 11.546875 -81.453125 C 10.960938 -83.023438 10.671875 -84.769531 10.671875 -86.6875 C 10.671875 -89.90625 11.675781 -92.816406 13.6875 -95.421875 C 15.707031 -98.023438 18.828125 -100.097656 23.046875 -101.640625 C 27.265625 -103.179688 32.632812 -103.953125 39.15625 -103.953125 C 46.925781 -103.953125 53.25 -103.269531 58.125 -101.90625 C 63.007812 -100.550781 66.753906 -98.8125 69.359375 -96.6875 C 71.960938 -94.5625 73.757812 -92.269531 74.75 -89.8125 C 75.738281 -87.351562 76.234375 -84.988281 76.234375 -82.71875 C 76.234375 -79.707031 75.738281 -77.117188 74.75 -74.953125 C 73.757812 -72.796875 72.421875 -70.910156 70.734375 -69.296875 C 74.398438 -66.140625 77.3125 -62.140625 79.46875 -57.296875 C 81.632812 -52.460938 82.71875 -46.632812 82.71875 -39.8125 C 82.71875 -34.3125 81.875 -29.101562 80.1875 -24.1875 C 78.5 -19.28125 75.859375 -14.921875 72.265625 -11.109375 C 68.671875 -7.296875 64.085938 -4.304688 58.515625 -2.140625 C 52.941406 0.015625 46.234375 1.09375 38.390625 1.09375 Z M 37.84375 -79.53125 C 42.820312 -79.53125 47.675781 -79.015625 52.40625 -77.984375 C 57.144531 -76.960938 61.457031 -75.351562 65.34375 -73.15625 C 68.644531 -74.988281 70.296875 -77.773438 70.296875 -81.515625 C 70.296875 -83.859375 69.394531 -86.09375 67.59375 -88.21875 C 65.800781 -90.34375 62.648438 -92.082031 58.140625 -93.4375 C 53.628906 -94.800781 47.226562 -95.484375 38.9375 -95.484375 C 33.363281 -95.484375 28.984375 -95.039062 25.796875 -94.15625 C 22.609375 -93.28125 20.351562 -92.070312 19.03125 -90.53125 C 17.707031 -88.988281 17.046875 -87.265625 17.046875 -85.359375 C 17.046875 -83.960938 17.265625 -82.660156 17.703125 -81.453125 C 18.148438 -80.242188 18.847656 -79.125 19.796875 -78.09375 C 22.585938 -78.539062 25.46875 -78.890625 28.4375 -79.140625 C 31.40625 -79.398438 34.539062 -79.53125 37.84375 -79.53125 Z M 37.84375 -79.53125 "/>
</symbol>
<symbol overflow="visible" id="id0:glyph0-4">
<path style="stroke:none;" d="M 35.859375 1.09375 C 28.960938 1.09375 23.1875 -0.296875 18.53125 -3.078125 C 13.875 -5.867188 10.375 -9.703125 8.03125 -14.578125 C 5.6875 -19.453125 4.515625 -25.003906 4.515625 -31.234375 C 4.515625 -31.753906 4.53125 -32.210938 4.5625 -32.609375 C 4.601562 -33.015625 4.660156 -33.398438 4.734375 -33.765625 L 10.34375 -33.328125 C 10.269531 -32.816406 10.195312 -32.378906 10.125 -32.015625 C 10.5625 -31.941406 10.960938 -31.90625 11.328125 -31.90625 C 13.304688 -31.90625 15.15625 -32.175781 16.875 -32.71875 C 18.601562 -33.269531 20.53125 -34.460938 22.65625 -36.296875 C 24.78125 -38.128906 27.421875 -40.878906 30.578125 -44.546875 C 30.867188 -44.910156 31.179688 -45.273438 31.515625 -45.640625 C 31.847656 -46.015625 32.195312 -46.382812 32.5625 -46.75 C 31.3125 -49.90625 29.894531 -52.328125 28.3125 -54.015625 C 26.738281 -55.703125 24.78125 -56.546875 22.4375 -56.546875 C 20.164062 -56.546875 18.609375 -55.753906 17.765625 -54.171875 C 16.921875 -52.597656 16.5 -51.039062 16.5 -49.5 C 16.5 -48.101562 16.644531 -46.816406 16.9375 -45.640625 C 17.226562 -44.472656 17.632812 -43.445312 18.15625 -42.5625 L 9.6875 -40.375 C 8.945312 -41.46875 8.335938 -42.835938 7.859375 -44.484375 C 7.390625 -46.140625 7.15625 -47.738281 7.15625 -49.28125 C 7.15625 -53.820312 8.507812 -57.210938 11.21875 -59.453125 C 13.9375 -61.691406 17.3125 -62.8125 21.34375 -62.8125 C 25.082031 -62.8125 28.304688 -61.726562 31.015625 -59.5625 C 33.734375 -57.394531 35.75 -54.773438 37.0625 -51.703125 C 40.582031 -55.296875 44.578125 -58.375 49.046875 -60.9375 C 53.523438 -63.507812 59.101562 -64.796875 65.78125 -64.796875 C 69.957031 -64.796875 74.132812 -64.171875 78.3125 -62.921875 C 80.664062 -64.171875 83.53125 -64.796875 86.90625 -64.796875 C 93.425781 -64.796875 98.316406 -62.976562 101.578125 -59.34375 C 104.847656 -55.71875 106.484375 -50.785156 106.484375 -44.546875 L 106.484375 -43.015625 L 94.484375 -43.015625 C 85.460938 -43.015625 78.769531 -41.5625 74.40625 -38.65625 C 70.050781 -35.757812 67.875 -30.832031 67.875 -23.875 C 67.875 -20.425781 68.71875 -17.289062 70.40625 -14.46875 C 72.09375 -11.644531 74.53125 -9.40625 77.71875 -7.75 C 80.90625 -6.101562 84.734375 -5.28125 89.203125 -5.28125 C 92.210938 -5.28125 94.78125 -5.535156 96.90625 -6.046875 C 99.03125 -6.554688 101.632812 -7.507812 104.71875 -8.90625 L 108.90625 -6.265625 C 109.050781 -5.390625 109.195312 -4.050781 109.34375 -2.25 C 109.488281 -0.457031 109.5625 1.390625 109.5625 3.296875 C 109.5625 6.597656 109.140625 9.785156 108.296875 12.859375 C 107.453125 15.941406 106.054688 18.726562 104.109375 21.21875 C 102.171875 23.71875 99.515625 25.703125 96.140625 27.171875 C 92.765625 28.640625 88.546875 29.375 83.484375 29.375 C 76.742188 29.375 71.445312 28.269531 67.59375 26.0625 C 63.738281 23.863281 61.003906 20.859375 59.390625 17.046875 C 57.785156 13.234375 56.984375 8.945312 56.984375 4.1875 C 56.984375 3.664062 57 3.113281 57.03125 2.53125 C 57.070312 1.945312 57.128906 1.394531 57.203125 0.875 L 62.8125 1.4375 C 62.738281 1.726562 62.703125 2.035156 62.703125 2.359375 C 62.703125 2.691406 62.703125 2.96875 62.703125 3.1875 C 62.703125 9.195312 64.382812 13.648438 67.75 16.546875 C 71.125 19.453125 76.257812 20.90625 83.15625 20.90625 C 89.6875 20.90625 94.710938 19.304688 98.234375 16.109375 C 101.753906 12.921875 103.515625 8.101562 103.515625 1.65625 C 103.515625 1.28125 103.515625 0.816406 103.515625 0.265625 C 103.515625 -0.273438 103.441406 -0.953125 103.296875 -1.765625 C 100.796875 -0.804688 98.113281 -0.09375 95.25 0.375 C 92.394531 0.851562 89.6875 1.09375 87.125 1.09375 C 80.59375 1.09375 75.070312 -0.0546875 70.5625 -2.359375 C 66.050781 -4.671875 62.769531 -7.953125 60.71875 -12.203125 C 59.03125 -8.535156 56.242188 -5.398438 52.359375 -2.796875 C 48.472656 -0.203125 42.972656 1.09375 35.859375 1.09375 Z M 65.234375 -59.0625 C 60.828125 -59.0625 56.921875 -58.203125 53.515625 -56.484375 C 50.109375 -54.765625 46.3125 -52.109375 42.125 -48.515625 C 52.101562 -47.847656 58.554688 -43.847656 61.484375 -36.515625 C 63.390625 -39.742188 66.066406 -42.238281 69.515625 -44 C 72.960938 -45.757812 76.90625 -46.96875 81.34375 -47.625 C 85.78125 -48.289062 90.421875 -48.625 95.265625 -48.625 L 100.3125 -48.625 C 99.875 -51.40625 98.773438 -53.785156 97.015625 -55.765625 C 95.253906 -57.742188 92.429688 -58.734375 88.546875 -58.734375 C 86.054688 -58.734375 84.40625 -58.109375 83.59375 -56.859375 C 82.789062 -55.617188 82.390625 -54.300781 82.390625 -52.90625 C 82.390625 -51.664062 82.535156 -50.601562 82.828125 -49.71875 L 74.25 -48.625 C 73.957031 -49.207031 73.679688 -49.898438 73.421875 -50.703125 C 73.171875 -51.515625 73.046875 -52.582031 73.046875 -53.90625 C 73.046875 -55.363281 73.300781 -56.71875 73.8125 -57.96875 C 72.414062 -58.332031 71.003906 -58.601562 69.578125 -58.78125 C 68.148438 -58.96875 66.703125 -59.0625 65.234375 -59.0625 Z M 11.984375 -25.953125 C 11.546875 -25.953125 11.109375 -25.988281 10.671875 -26.0625 C 11.691406 -21.664062 14.238281 -17.960938 18.3125 -14.953125 C 22.382812 -11.953125 28.234375 -10.453125 35.859375 -10.453125 C 42.828125 -10.453125 48.289062 -11.972656 52.25 -15.015625 C 56.207031 -18.054688 58.1875 -22.328125 58.1875 -27.828125 C 58.1875 -32.523438 56.59375 -36.226562 53.40625 -38.9375 C 50.21875 -41.65625 45.46875 -43.015625 39.15625 -43.015625 C 38.351562 -43.015625 37.582031 -43.015625 36.84375 -43.015625 C 36.40625 -42.492188 35.96875 -41.957031 35.53125 -41.40625 C 35.09375 -40.863281 34.613281 -40.296875 34.09375 -39.703125 C 31.164062 -36.035156 28.472656 -33.210938 26.015625 -31.234375 C 23.554688 -29.253906 21.207031 -27.878906 18.96875 -27.109375 C 16.738281 -26.335938 14.410156 -25.953125 11.984375 -25.953125 Z M 11.984375 -25.953125 "/>
</symbol>
<symbol overflow="visible" id="id0:glyph0-5">
<path style="stroke:none;" d="M 37.0625 -27.28125 C 37.0625 -17.082031 35.320312 -9.800781 31.84375 -5.4375 C 28.363281 -1.082031 23.613281 1.09375 17.59375 1.09375 C 13.34375 1.09375 9.804688 0.03125 6.984375 -2.09375 C 4.160156 -4.21875 1.832031 -7.1875 0 -11 L 5.609375 -13.75 C 6.929688 -11.113281 8.398438 -8.894531 10.015625 -7.09375 C 11.628906 -5.300781 13.789062 -4.40625 16.5 -4.40625 C 20.164062 -4.40625 22.894531 -6.203125 24.6875 -9.796875 C 26.488281 -13.390625 27.390625 -19.21875 27.390625 -27.28125 C 27.390625 -35.34375 26.488281 -41.132812 24.6875 -44.65625 C 22.894531 -48.175781 20.164062 -49.9375 16.5 -49.9375 C 13.789062 -49.9375 11.609375 -49.070312 9.953125 -47.34375 C 8.304688 -45.625 6.894531 -43.519531 5.71875 -41.03125 L 0 -43.78125 C 1.976562 -47.226562 4.378906 -50.03125 7.203125 -52.1875 C 10.023438 -54.351562 13.488281 -55.4375 17.59375 -55.4375 C 23.613281 -55.4375 28.363281 -53.269531 31.84375 -48.9375 C 35.320312 -44.613281 37.0625 -37.394531 37.0625 -27.28125 Z M 37.0625 -27.28125 "/>
</symbol>
</g>
<g>
<symbol overflow="visible" id="id1:glyph0-0">
<path style="stroke:none;" d="M 5.375 -96.6875 L 69.828125 -96.6875 L 69.828125 0 L 5.375 0 Z M 8.0625 -2.6875 L 67.140625 -2.6875 L 67.140625 -94 L 8.0625 -94 Z M 8.0625 -2.6875 "/>
</symbol>
<symbol overflow="visible" id="id1:glyph0-1">
<path style="stroke:none;" d="M 68.15625 -13.75 L 66.28125 -18.640625 L 88.09375 -27.390625 L 6.984375 -27.390625 L 6.984375 -34 L 88.09375 -34 L 66.28125 -42.75 L 68.15625 -47.640625 L 99.09375 -34.265625 L 99.09375 -27.125 Z M 68.15625 -13.75 "/>
</symbol>
</g>
<g>
<symbol overflow="visible" id="id2:glyph0-0">
<path style="stroke:none;" d="M 10.34375 -78.546875 L 55.546875 -78.546875 L 55.546875 0 L 10.34375 0 Z M 49.9375 -5.609375 L 49.9375 -72.9375 L 15.953125 -72.9375 L 15.953125 -5.609375 Z M 49.9375 -5.609375 "/>
</symbol>
<symbol overflow="visible" id="id2:glyph0-1">
<path style="stroke:none;" d="M 38.390625 1.09375 C 27.535156 1.09375 19.394531 -1.160156 13.96875 -5.671875 C 8.539062 -10.179688 5.828125 -16.320312 5.828125 -24.09375 C 5.828125 -28.195312 6.925781 -31.9375 9.125 -35.3125 C 11.332031 -38.6875 14.226562 -41.363281 17.8125 -43.34375 C 16.0625 -43.195312 14.101562 -43.101562 11.9375 -43.0625 C 9.769531 -43.03125 7.804688 -43.015625 6.046875 -43.015625 L 2.203125 -43.015625 L 2.203125 -48.625 L 40.59375 -48.625 C 40.070312 -51.1875 38.988281 -53.507812 37.34375 -55.59375 C 35.695312 -57.6875 33.039062 -58.734375 29.375 -58.734375 C 24.96875 -58.734375 22.765625 -56.789062 22.765625 -52.90625 C 22.765625 -52.613281 22.800781 -52.226562 22.875 -51.75 C 22.945312 -51.28125 23.019531 -50.859375 23.09375 -50.484375 L 14.078125 -49.71875 C 13.859375 -50.300781 13.691406 -51.03125 13.578125 -51.90625 C 13.472656 -52.789062 13.421875 -53.457031 13.421875 -53.90625 C 13.421875 -57.5 14.773438 -60.210938 17.484375 -62.046875 C 20.203125 -63.878906 23.539062 -64.796875 27.5 -64.796875 C 33.726562 -64.796875 38.507812 -62.941406 41.84375 -59.234375 C 45.1875 -55.535156 46.859375 -50.640625 46.859375 -44.546875 L 46.859375 -43.015625 L 28.15625 -43.015625 C 23.25 -41.546875 19.4375 -39.4375 16.71875 -36.6875 C 14.007812 -33.9375 12.65625 -30.691406 12.65625 -26.953125 C 12.65625 -23.578125 13.457031 -20.660156 15.0625 -18.203125 C 16.675781 -15.742188 19.316406 -13.835938 22.984375 -12.484375 C 26.648438 -11.128906 31.601562 -10.453125 37.84375 -10.453125 C 45.03125 -10.453125 51.0625 -11.332031 55.9375 -13.09375 C 60.8125 -14.851562 64.695312 -17.234375 67.59375 -20.234375 C 70.488281 -23.242188 72.578125 -26.597656 73.859375 -30.296875 C 75.148438 -34.003906 75.796875 -37.800781 75.796875 -41.6875 C 75.796875 -47.769531 74.765625 -52.882812 72.703125 -57.03125 C 70.648438 -61.175781 67.804688 -64.476562 64.171875 -66.9375 C 60.546875 -69.394531 56.332031 -71.15625 51.53125 -72.21875 C 46.726562 -73.28125 41.613281 -73.8125 36.1875 -73.8125 C 30.6875 -73.8125 25.695312 -73.40625 21.21875 -72.59375 C 16.75 -71.789062 11.800781 -70.546875 6.375 -68.859375 L 4.625 -74.578125 C 6.164062 -75.015625 7.722656 -75.4375 9.296875 -75.84375 C 10.867188 -76.25 12.425781 -76.632812 13.96875 -77 C 12.945312 -78.394531 12.140625 -79.878906 11.546875 -81.453125 C 10.960938 -83.023438 10.671875 -84.769531 10.671875 -86.6875 C 10.671875 -89.90625 11.675781 -92.816406 13.6875 -95.421875 C 15.707031 -98.023438 18.828125 -100.097656 23.046875 -101.640625 C 27.265625 -103.179688 32.632812 -103.953125 39.15625 -103.953125 C 46.925781 -103.953125 53.25 -103.269531 58.125 -101.90625 C 63.007812 -100.550781 66.753906 -98.8125 69.359375 -96.6875 C 71.960938 -94.5625 73.757812 -92.269531 74.75 -89.8125 C 75.738281 -87.351562 76.234375 -84.988281 76.234375 -82.71875 C 76.234375 -79.707031 75.738281 -77.117188 74.75 -74.953125 C 73.757812 -72.796875 72.421875 -70.910156 70.734375 -69.296875 C 74.398438 -66.140625 77.3125 -62.140625 79.46875 -57.296875 C 81.632812 -52.460938 82.71875 -46.632812 82.71875 -39.8125 C 82.71875 -34.3125 81.875 -29.101562 80.1875 -24.1875 C 78.5 -19.28125 75.859375 -14.921875 72.265625 -11.109375 C 68.671875 -7.296875 64.085938 -4.304688 58.515625 -2.140625 C 52.941406 0.015625 46.234375 1.09375 38.390625 1.09375 Z M 37.84375 -79.53125 C 42.820312 -79.53125 47.675781 -79.015625 52.40625 -77.984375 C 57.144531 -76.960938 61.457031 -75.351562 65.34375 -73.15625 C 68.644531 -74.988281 70.296875 -77.773438 70.296875 -81.515625 C 70.296875 -83.859375 69.394531 -86.09375 67.59375 -88.21875 C 65.800781 -90.34375 62.648438 -92.082031 58.140625 -93.4375 C 53.628906 -94.800781 47.226562 -95.484375 38.9375 -95.484375 C 33.363281 -95.484375 28.984375 -95.039062 25.796875 -94.15625 C 22.609375 -93.28125 20.351562 -92.070312 19.03125 -90.53125 C 17.707031 -88.988281 17.046875 -87.265625 17.046875 -85.359375 C 17.046875 -83.960938 17.265625 -82.660156 17.703125 -81.453125 C 18.148438 -80.242188 18.847656 -79.125 19.796875 -78.09375 C 22.585938 -78.539062 25.46875 -78.890625 28.4375 -79.140625 C 31.40625 -79.398438 34.539062 -79.53125 37.84375 -79.53125 Z M 37.84375 -79.53125 "/>
</symbol>
<symbol overflow="visible" id="id2:glyph0-2">
<path style="stroke:none;" d="M 4.40625 -29.703125 C 4.40625 -35.492188 5.742188 -40.570312 8.421875 -44.9375 C 11.097656 -49.300781 14.925781 -52.691406 19.90625 -55.109375 C 24.894531 -57.523438 30.910156 -58.734375 37.953125 -58.734375 C 42.421875 -58.734375 46.34375 -58.421875 49.71875 -57.796875 C 53.09375 -57.179688 56.171875 -56.320312 58.953125 -55.21875 C 61.742188 -54.113281 64.457031 -52.832031 67.09375 -51.375 L 64.015625 -45.984375 C 60.710938 -48.179688 56.898438 -49.921875 52.578125 -51.203125 C 48.253906 -52.484375 43.414062 -53.125 38.0625 -53.125 C 32.925781 -53.125 28.304688 -52.316406 24.203125 -50.703125 C 20.097656 -49.097656 16.867188 -46.625 14.515625 -43.28125 C 12.171875 -39.945312 11 -35.75 11 -30.6875 C 11 -26.726562 11.859375 -23.132812 13.578125 -19.90625 C 15.304688 -16.675781 18.039062 -14.125 21.78125 -12.25 C 25.519531 -10.382812 30.46875 -9.453125 36.625 -9.453125 C 42.570312 -9.453125 47.191406 -10.203125 50.484375 -11.703125 C 53.785156 -13.210938 56.097656 -15.140625 57.421875 -17.484375 C 58.742188 -19.835938 59.40625 -22.296875 59.40625 -24.859375 C 59.40625 -27.722656 58.359375 -30.398438 56.265625 -32.890625 C 54.171875 -35.378906 50.78125 -37.03125 46.09375 -37.84375 C 47.40625 -36.882812 48.316406 -35.707031 48.828125 -34.3125 C 49.347656 -32.925781 49.609375 -31.570312 49.609375 -30.25 C 49.609375 -26.4375 48.429688 -23.554688 46.078125 -21.609375 C 43.734375 -19.671875 40.617188 -18.703125 36.734375 -18.703125 C 32.554688 -18.703125 29.332031 -19.816406 27.0625 -22.046875 C 24.789062 -24.285156 23.65625 -27.203125 23.65625 -30.796875 C 23.65625 -34.679688 25.101562 -37.816406 28 -40.203125 C 30.894531 -42.585938 35.128906 -43.78125 40.703125 -43.78125 C 46.273438 -43.78125 50.894531 -42.863281 54.5625 -41.03125 C 58.226562 -39.195312 60.992188 -36.757812 62.859375 -33.71875 C 64.734375 -30.675781 65.671875 -27.285156 65.671875 -23.546875 C 65.671875 -18.773438 64.609375 -14.535156 62.484375 -10.828125 C 60.359375 -7.128906 57.1875 -4.21875 52.96875 -2.09375 C 48.75 0.03125 43.410156 1.09375 36.953125 1.09375 C 29.253906 1.09375 23.019531 -0.296875 18.25 -3.078125 C 13.488281 -5.867188 9.988281 -9.609375 7.75 -14.296875 C 5.519531 -18.992188 4.40625 -24.128906 4.40625 -29.703125 Z M 43.34375 -31.015625 C 43.34375 -32.628906 42.828125 -34.078125 41.796875 -35.359375 C 40.773438 -36.648438 39.050781 -37.296875 36.625 -37.296875 C 34.71875 -37.296875 33.125 -36.722656 31.84375 -35.578125 C 30.5625 -34.441406 29.921875 -32.921875 29.921875 -31.015625 C 29.921875 -29.035156 30.46875 -27.421875 31.5625 -26.171875 C 32.664062 -24.929688 34.390625 -24.3125 36.734375 -24.3125 C 38.785156 -24.3125 40.398438 -24.859375 41.578125 -25.953125 C 42.753906 -27.054688 43.34375 -28.742188 43.34375 -31.015625 Z M 43.34375 -31.015625 "/>
</symbol>
<symbol overflow="visible" id="id2:glyph0-3">
<path style="stroke:none;" d="M 35.859375 1.09375 C 28.960938 1.09375 23.1875 -0.296875 18.53125 -3.078125 C 13.875 -5.867188 10.375 -9.703125 8.03125 -14.578125 C 5.6875 -19.453125 4.515625 -25.003906 4.515625 -31.234375 C 4.515625 -31.753906 4.53125 -32.210938 4.5625 -32.609375 C 4.601562 -33.015625 4.660156 -33.398438 4.734375 -33.765625 L 10.34375 -33.328125 C 10.269531 -32.816406 10.195312 -32.378906 10.125 -32.015625 C 10.5625 -31.941406 10.960938 -31.90625 11.328125 -31.90625 C 13.304688 -31.90625 15.15625 -32.175781 16.875 -32.71875 C 18.601562 -33.269531 20.53125 -34.460938 22.65625 -36.296875 C 24.78125 -38.128906 27.421875 -40.878906 30.578125 -44.546875 C 30.867188 -44.910156 31.179688 -45.273438 31.515625 -45.640625 C 31.847656 -46.015625 32.195312 -46.382812 32.5625 -46.75 C 31.3125 -49.90625 29.894531 -52.328125 28.3125 -54.015625 C 26.738281 -55.703125 24.78125 -56.546875 22.4375 -56.546875 C 20.164062 -56.546875 18.609375 -55.753906 17.765625 -54.171875 C 16.921875 -52.597656 16.5 -51.039062 16.5 -49.5 C 16.5 -48.101562 16.644531 -46.816406 16.9375 -45.640625 C 17.226562 -44.472656 17.632812 -43.445312 18.15625 -42.5625 L 9.6875 -40.375 C 8.945312 -41.46875 8.335938 -42.835938 7.859375 -44.484375 C 7.390625 -46.140625 7.15625 -47.738281 7.15625 -49.28125 C 7.15625 -53.820312 8.507812 -57.210938 11.21875 -59.453125 C 13.9375 -61.691406 17.3125 -62.8125 21.34375 -62.8125 C 25.082031 -62.8125 28.304688 -61.726562 31.015625 -59.5625 C 33.734375 -57.394531 35.75 -54.773438 37.0625 -51.703125 C 40.582031 -55.296875 44.578125 -58.375 49.046875 -60.9375 C 53.523438 -63.507812 59.101562 -64.796875 65.78125 -64.796875 C 69.957031 -64.796875 74.132812 -64.171875 78.3125 -62.921875 C 80.664062 -64.171875 83.53125 -64.796875 86.90625 -64.796875 C 93.425781 -64.796875 98.316406 -62.976562 101.578125 -59.34375 C 104.847656 -55.71875 106.484375 -50.785156 106.484375 -44.546875 L 106.484375 -43.015625 L 94.484375 -43.015625 C 85.460938 -43.015625 78.769531 -41.5625 74.40625 -38.65625 C 70.050781 -35.757812 67.875 -30.832031 67.875 -23.875 C 67.875 -20.425781 68.71875 -17.289062 70.40625 -14.46875 C 72.09375 -11.644531 74.53125 -9.40625 77.71875 -7.75 C 80.90625 -6.101562 84.734375 -5.28125 89.203125 -5.28125 C 92.210938 -5.28125 94.78125 -5.535156 96.90625 -6.046875 C 99.03125 -6.554688 101.632812 -7.507812 104.71875 -8.90625 L 108.90625 -6.265625 C 109.050781 -5.390625 109.195312 -4.050781 109.34375 -2.25 C 109.488281 -0.457031 109.5625 1.390625 109.5625 3.296875 C 109.5625 6.597656 109.140625 9.785156 108.296875 12.859375 C 107.453125 15.941406 106.054688 18.726562 104.109375 21.21875 C 102.171875 23.71875 99.515625 25.703125 96.140625 27.171875 C 92.765625 28.640625 88.546875 29.375 83.484375 29.375 C 76.742188 29.375 71.445312 28.269531 67.59375 26.0625 C 63.738281 23.863281 61.003906 20.859375 59.390625 17.046875 C 57.785156 13.234375 56.984375 8.945312 56.984375 4.1875 C 56.984375 3.664062 57 3.113281 57.03125 2.53125 C 57.070312 1.945312 57.128906 1.394531 57.203125 0.875 L 62.8125 1.4375 C 62.738281 1.726562 62.703125 2.035156 62.703125 2.359375 C 62.703125 2.691406 62.703125 2.96875 62.703125 3.1875 C 62.703125 9.195312 64.382812 13.648438 67.75 16.546875 C 71.125 19.453125 76.257812 20.90625 83.15625 20.90625 C 89.6875 20.90625 94.710938 19.304688 98.234375 16.109375 C 101.753906 12.921875 103.515625 8.101562 103.515625 1.65625 C 103.515625 1.28125 103.515625 0.816406 103.515625 0.265625 C 103.515625 -0.273438 103.441406 -0.953125 103.296875 -1.765625 C 100.796875 -0.804688 98.113281 -0.09375 95.25 0.375 C 92.394531 0.851562 89.6875 1.09375 87.125 1.09375 C 80.59375 1.09375 75.070312 -0.0546875 70.5625 -2.359375 C 66.050781 -4.671875 62.769531 -7.953125 60.71875 -12.203125 C 59.03125 -8.535156 56.242188 -5.398438 52.359375 -2.796875 C 48.472656 -0.203125 42.972656 1.09375 35.859375 1.09375 Z M 65.234375 -59.0625 C 60.828125 -59.0625 56.921875 -58.203125 53.515625 -56.484375 C 50.109375 -54.765625 46.3125 -52.109375 42.125 -48.515625 C 52.101562 -47.847656 58.554688 -43.847656 61.484375 -36.515625 C 63.390625 -39.742188 66.066406 -42.238281 69.515625 -44 C 72.960938 -45.757812 76.90625 -46.96875 81.34375 -47.625 C 85.78125 -48.289062 90.421875 -48.625 95.265625 -48.625 L 100.3125 -48.625 C 99.875 -51.40625 98.773438 -53.785156 97.015625 -55.765625 C 95.253906 -57.742188 92.429688 -58.734375 88.546875 -58.734375 C 86.054688 -58.734375 84.40625 -58.109375 83.59375 -56.859375 C 82.789062 -55.617188 82.390625 -54.300781 82.390625 -52.90625 C 82.390625 -51.664062 82.535156 -50.601562 82.828125 -49.71875 L 74.25 -48.625 C 73.957031 -49.207031 73.679688 -49.898438 73.421875 -50.703125 C 73.171875 -51.515625 73.046875 -52.582031 73.046875 -53.90625 C 73.046875 -55.363281 73.300781 -56.71875 73.8125 -57.96875 C 72.414062 -58.332031 71.003906 -58.601562 69.578125 -58.78125 C 68.148438 -58.96875 66.703125 -59.0625 65.234375 -59.0625 Z M 11.984375 -25.953125 C 11.546875 -25.953125 11.109375 -25.988281 10.671875 -26.0625 C 11.691406 -21.664062 14.238281 -17.960938 18.3125 -14.953125 C 22.382812 -11.953125 28.234375 -10.453125 35.859375 -10.453125 C 42.828125 -10.453125 48.289062 -11.972656 52.25 -15.015625 C 56.207031 -18.054688 58.1875 -22.328125 58.1875 -27.828125 C 58.1875 -32.523438 56.59375 -36.226562 53.40625 -38.9375 C 50.21875 -41.65625 45.46875 -43.015625 39.15625 -43.015625 C 38.351562 -43.015625 37.582031 -43.015625 36.84375 -43.015625 C 36.40625 -42.492188 35.96875 -41.957031 35.53125 -41.40625 C 35.09375 -40.863281 34.613281 -40.296875 34.09375 -39.703125 C 31.164062 -36.035156 28.472656 -33.210938 26.015625 -31.234375 C 23.554688 -29.253906 21.207031 -27.878906 18.96875 -27.109375 C 16.738281 -26.335938 14.410156 -25.953125 11.984375 -25.953125 Z M 11.984375 -25.953125 "/>
</symbol>
<symbol overflow="visible" id="id2:glyph0-4">
<path style="stroke:none;" d="M 37.0625 -27.28125 C 37.0625 -17.082031 35.320312 -9.800781 31.84375 -5.4375 C 28.363281 -1.082031 23.613281 1.09375 17.59375 1.09375 C 13.34375 1.09375 9.804688 0.03125 6.984375 -2.09375 C 4.160156 -4.21875 1.832031 -7.1875 0 -11 L 5.609375 -13.75 C 6.929688 -11.113281 8.398438 -8.894531 10.015625 -7.09375 C 11.628906 -5.300781 13.789062 -4.40625 16.5 -4.40625 C 20.164062 -4.40625 22.894531 -6.203125 24.6875 -9.796875 C 26.488281 -13.390625 27.390625 -19.21875 27.390625 -27.28125 C 27.390625 -35.34375 26.488281 -41.132812 24.6875 -44.65625 C 22.894531 -48.175781 20.164062 -49.9375 16.5 -49.9375 C 13.789062 -49.9375 11.609375 -49.070312 9.953125 -47.34375 C 8.304688 -45.625 6.894531 -43.519531 5.71875 -41.03125 L 0 -43.78125 C 1.976562 -47.226562 4.378906 -50.03125 7.203125 -52.1875 C 10.023438 -54.351562 13.488281 -55.4375 17.59375 -55.4375 C 23.613281 -55.4375 28.363281 -53.269531 31.84375 -48.9375 C 35.320312 -44.613281 37.0625 -37.394531 37.0625 -27.28125 Z M 37.0625 -27.28125 "/>
</symbol>
</g>
</defs>
  <g id="id0:id0" transform="matrix(1.25,0,0,1.25,0.0,8.5546875)"><g id="id0:surface1">
<g style="fill:rgb(0%,0%,0%);fill-opacity:1;">
  <use xlink:href="#id0:glyph0-1" x="16" y="111.671875"/>
  <use xlink:href="#id0:glyph0-2" x="85.734375" y="111.671875"/>
  <use xlink:href="#id0:glyph0-3" x="154.15625" y="111.671875"/>
  <use xlink:href="#id0:glyph0-4" x="241.28125" y="111.671875"/>
  <use xlink:href="#id0:glyph0-5" x="353.03125" y="111.671875"/>
</g>
</g>
</g>
  <g id="id1:id1" transform="matrix(1.25,0,0,1.25,513.3984375,0.0)"><g id="id1:surface1">
<g style="fill:rgb(0%,0%,0%);fill-opacity:1;">
  <use xlink:href="#id1:glyph0-1" x="0" y="120.84375"/>
</g>
</g>
</g>
  <g id="id2:id2" transform="matrix(1.25,0,0,1.25,645.99609375,8.5546875)"><g id="id2:surface1">
<g style="fill:rgb(0%,0%,0%);fill-opacity:1;">
  <use xlink:href="#id2:glyph0-1" x="16" y="111.671875"/>
  <use xlink:href="#id2:glyph0-2" x="103.125" y="111.671875"/>
  <use xlink:href="#id2:glyph0-3" x="172.859375" y="111.671875"/>
  <use xlink:href="#id2:glyph0-4" x="284.609375" y="111.671875"/>
</g>
</g>
</g>
</svg>
