<!DOCTYPE svg PUBLIC "-//W3C//DTD SVG 1.1//EN" "http://www.w3.org/Graphics/SVG/1.1/DTD/svg11.dtd">
<!-- Created with svg_stack (http://github.com/astraw/svg_stack) --><svg xmlns="http://www.w3.org/2000/svg" xmlns:sodipodi="http://sodipodi.sourceforge.net/DTD/sodipodi-0.dtd" xmlns:xlink="http://www.w3.org/1999/xlink" version="1.1" width="100%" id="sinhala-vatu-va-1" viewBox="0 0 579.1796875 201.40625">
  <defs><g>
<symbol overflow="visible" id="sinhala-vatu-va-1:id0:glyph0-0">
<path style="stroke:none;" d="M 10.34375 -78.546875 L 55.546875 -78.546875 L 55.546875 0 L 10.34375 0 Z M 49.9375 -5.609375 L 49.9375 -72.9375 L 15.953125 -72.9375 L 15.953125 -5.609375 Z M 49.9375 -5.609375 "/>
</symbol>
<symbol overflow="visible" id="sinhala-vatu-va-1:id0:glyph0-1">
<path style="stroke:none;" d="M 38.171875 -56.09375 C 38.171875 -53.382812 36.882812 -52.03125 34.3125 -52.03125 C 31.601562 -52.03125 30.25 -53.382812 30.25 -56.09375 C 30.25 -58.738281 31.601562 -60.0625 34.3125 -60.0625 C 36.882812 -60.0625 38.171875 -58.738281 38.171875 -56.09375 Z M 20.453125 -49.171875 C 20.453125 -46.523438 19.097656 -45.203125 16.390625 -45.203125 C 13.753906 -45.203125 12.4375 -46.523438 12.4375 -49.171875 C 12.4375 -51.878906 13.753906 -53.234375 16.390625 -53.234375 C 19.097656 -53.234375 20.453125 -51.878906 20.453125 -49.171875 Z M 55.984375 -49.171875 C 55.984375 -46.523438 54.664062 -45.203125 52.03125 -45.203125 C 49.382812 -45.203125 48.0625 -46.523438 48.0625 -49.171875 C 48.0625 -51.878906 49.382812 -53.234375 52.03125 -53.234375 C 54.664062 -53.234375 55.984375 -51.878906 55.984375 -49.171875 Z M 62.046875 -31.90625 C 62.046875 -29.257812 60.757812 -27.9375 58.1875 -27.9375 C 55.476562 -27.9375 54.125 -29.257812 54.125 -31.90625 C 54.125 -34.613281 55.476562 -35.96875 58.1875 -35.96875 C 60.757812 -35.96875 62.046875 -34.613281 62.046875 -31.90625 Z M 14.1875 -31.90625 C 14.1875 -29.257812 12.90625 -27.9375 10.34375 -27.9375 C 7.625 -27.9375 6.265625 -29.257812 6.265625 -31.90625 C 6.265625 -34.613281 7.625 -35.96875 10.34375 -35.96875 C 12.90625 -35.96875 14.1875 -34.613281 14.1875 -31.90625 Z M 20.453125 -14.625 C 20.453125 -11.914062 19.097656 -10.5625 16.390625 -10.5625 C 13.753906 -10.5625 12.4375 -11.914062 12.4375 -14.625 C 12.4375 -17.269531 13.753906 -18.59375 16.390625 -18.59375 C 19.097656 -18.59375 20.453125 -17.269531 20.453125 -14.625 Z M 55.984375 -14.625 C 55.984375 -11.914062 54.664062 -10.5625 52.03125 -10.5625 C 49.382812 -10.5625 48.0625 -11.914062 48.0625 -14.625 C 48.0625 -17.269531 49.382812 -18.59375 52.03125 -18.59375 C 54.664062 -18.59375 55.984375 -17.269531 55.984375 -14.625 Z M 38.171875 -7.703125 C 38.171875 -5.054688 36.882812 -3.734375 34.3125 -3.734375 C 31.601562 -3.734375 30.25 -5.054688 30.25 -7.703125 C 30.25 -10.410156 31.601562 -11.765625 34.3125 -11.765625 C 36.882812 -11.765625 38.171875 -10.410156 38.171875 -7.703125 Z M 38.171875 -7.703125 "/>
</symbol>
<symbol overflow="visible" id="sinhala-vatu-va-1:id0:glyph0-2">
<path style="stroke:none;" d="M -9.6875 -105.9375 C -6.601562 -105.9375 -4.234375 -104.925781 -2.578125 -102.90625 C -0.929688 -100.882812 -0.109375 -98.335938 -0.109375 -95.265625 C -0.109375 -92.179688 -0.894531 -89.628906 -2.46875 -87.609375 C -4.050781 -85.597656 -6.492188 -84.59375 -9.796875 -84.59375 C -10.742188 -84.59375 -11.75 -84.753906 -12.8125 -85.078125 C -13.875 -85.410156 -14.847656 -85.945312 -15.734375 -86.6875 C -15.660156 -85.582031 -15.625 -84.476562 -15.625 -83.375 C -15.625 -82.28125 -15.625 -81.179688 -15.625 -80.078125 L -15.625 -53.796875 L -21.34375 -53.796875 L -21.34375 -93.28125 C -21.34375 -96.0625 -21.890625 -97.910156 -22.984375 -98.828125 C -24.085938 -99.742188 -25.191406 -100.203125 -26.296875 -100.203125 C -26.953125 -100.203125 -27.5 -100.179688 -27.9375 -100.140625 C -28.375 -100.109375 -28.707031 -100.054688 -28.9375 -99.984375 L -29.8125 -104.9375 C -29.226562 -105.226562 -28.550781 -105.46875 -27.78125 -105.65625 C -27.007812 -105.84375 -25.960938 -105.9375 -24.640625 -105.9375 C -23.316406 -105.9375 -22.066406 -105.585938 -20.890625 -104.890625 C -19.722656 -104.191406 -18.738281 -103.179688 -17.9375 -101.859375 C -15.65625 -104.578125 -12.90625 -105.9375 -9.6875 -105.9375 Z M -10.5625 -101.09375 C -11.8125 -101.09375 -12.851562 -100.722656 -13.6875 -99.984375 C -14.53125 -99.253906 -15.175781 -98.265625 -15.625 -97.015625 L -15.625 -93.390625 C -15.175781 -92.210938 -14.550781 -91.273438 -13.75 -90.578125 C -12.945312 -89.890625 -11.8125 -89.546875 -10.34375 -89.546875 C -7.332031 -89.546875 -5.828125 -91.414062 -5.828125 -95.15625 C -5.828125 -99.113281 -7.40625 -101.09375 -10.5625 -101.09375 Z M -10.5625 -101.09375 "/>
</symbol>
<symbol overflow="visible" id="sinhala-vatu-va-1:id0:glyph0-3">
<path style="stroke:none;" d="M 17.8125 -88.21875 L 4.40625 -75.125 L 17.8125 -61.9375 L 13.3125 -57.53125 L 3.1875 -67.65625 L 3.1875 22.65625 L -3.1875 22.65625 L -3.1875 -67.65625 L -13.3125 -57.53125 L -17.8125 -61.9375 L -4.40625 -75.125 L -17.8125 -88.21875 L -13.3125 -92.625 L 0 -79.3125 L 13.3125 -92.625 Z M 17.8125 -88.21875 "/>
</symbol>
<symbol overflow="visible" id="sinhala-vatu-va-1:id0:glyph0-4">
<path style="stroke:none;" d="M 63.140625 1.09375 C 57.566406 1.09375 53.257812 -0.351562 50.21875 -3.25 C 47.175781 -6.144531 44.921875 -9.753906 43.453125 -14.078125 C 42.566406 -11.441406 41.242188 -8.96875 39.484375 -6.65625 C 37.722656 -4.34375 35.523438 -2.472656 32.890625 -1.046875 C 30.253906 0.378906 27.175781 1.09375 23.65625 1.09375 C 17.851562 1.09375 13.191406 -0.8125 9.671875 -4.625 C 6.160156 -8.4375 4.40625 -14.265625 4.40625 -22.109375 C 4.40625 -27.679688 5.554688 -32.460938 7.859375 -36.453125 C 10.171875 -40.453125 13.363281 -43.550781 17.4375 -45.75 C 21.507812 -47.957031 26.179688 -49.0625 31.453125 -49.0625 C 32.265625 -49.0625 33.203125 -49.039062 34.265625 -49 C 35.328125 -48.96875 36.148438 -48.878906 36.734375 -48.734375 L 36.1875 -43.125 C 35.3125 -43.269531 34.503906 -43.34375 33.765625 -43.34375 C 33.035156 -43.34375 32.191406 -43.34375 31.234375 -43.34375 C 27.710938 -43.34375 24.410156 -42.695312 21.328125 -41.40625 C 18.253906 -40.125 15.765625 -38.125 13.859375 -35.40625 C 11.953125 -32.695312 11 -29.179688 11 -24.859375 C 11 -20.242188 12.226562 -16.6875 14.6875 -14.1875 C 17.144531 -11.695312 20.535156 -10.453125 24.859375 -10.453125 C 28.304688 -10.453125 31.070312 -11 33.15625 -12.09375 C 35.25 -13.195312 36.878906 -14.664062 38.046875 -16.5 C 39.222656 -18.332031 40.070312 -20.3125 40.59375 -22.4375 L 46.421875 -22.4375 C 46.859375 -18.695312 48.429688 -15.765625 51.140625 -13.640625 C 53.859375 -11.515625 57.34375 -10.453125 61.59375 -10.453125 C 66.144531 -10.453125 69.6875 -11.601562 72.21875 -13.90625 C 74.75 -16.21875 76.015625 -19.613281 76.015625 -24.09375 C 76.015625 -27.757812 75.039062 -31.019531 73.09375 -33.875 C 71.15625 -36.738281 68.113281 -38.976562 63.96875 -40.59375 C 59.820312 -42.207031 54.410156 -43.015625 47.734375 -43.015625 L 46.3125 -43.015625 L 46.3125 -43.5625 C 46.3125 -50.3125 48.109375 -55.535156 51.703125 -59.234375 C 55.296875 -62.941406 59.804688 -64.796875 65.234375 -64.796875 C 70.367188 -64.796875 74.070312 -63.546875 76.34375 -61.046875 C 78.613281 -58.554688 79.75 -55.367188 79.75 -51.484375 C 79.75 -49.796875 79.617188 -48.304688 79.359375 -47.015625 C 79.109375 -45.734375 78.800781 -44.617188 78.4375 -43.671875 L 72.8125 -45.4375 C 73.1875 -46.238281 73.445312 -47.113281 73.59375 -48.0625 C 73.738281 -49.019531 73.8125 -49.863281 73.8125 -50.59375 C 73.8125 -53.164062 72.96875 -55.070312 71.28125 -56.3125 C 69.59375 -57.5625 67.242188 -58.1875 64.234375 -58.1875 C 60.867188 -58.1875 58.25 -57.269531 56.375 -55.4375 C 54.5 -53.601562 53.269531 -51.296875 52.6875 -48.515625 C 58.039062 -48.296875 62.988281 -47.25 67.53125 -45.375 C 72.082031 -43.5 75.734375 -40.691406 78.484375 -36.953125 C 81.234375 -33.210938 82.609375 -28.410156 82.609375 -22.546875 C 82.609375 -15.359375 80.9375 -9.617188 77.59375 -5.328125 C 74.257812 -1.046875 69.441406 1.09375 63.140625 1.09375 Z M 63.140625 1.09375 "/>
</symbol>
</g>
<g>
<symbol overflow="visible" id="sinhala-vatu-va-1:id1:glyph0-0">
<path style="stroke:none;" d="M 5.375 -96.6875 L 69.828125 -96.6875 L 69.828125 0 L 5.375 0 Z M 8.0625 -2.6875 L 67.140625 -2.6875 L 67.140625 -94 L 8.0625 -94 Z M 8.0625 -2.6875 "/>
</symbol>
<symbol overflow="visible" id="sinhala-vatu-va-1:id1:glyph0-1">
<path style="stroke:none;" d="M 68.15625 -13.75 L 66.28125 -18.640625 L 88.09375 -27.390625 L 6.984375 -27.390625 L 6.984375 -34 L 88.09375 -34 L 66.28125 -42.75 L 68.15625 -47.640625 L 99.09375 -34.265625 L 99.09375 -27.125 Z M 68.15625 -13.75 "/>
</symbol>
</g>
<g>
<symbol overflow="visible" id="sinhala-vatu-va-1:id2:glyph0-0">
<path style="stroke:none;" d="M 10.34375 -78.546875 L 55.546875 -78.546875 L 55.546875 0 L 10.34375 0 Z M 49.9375 -5.609375 L 49.9375 -72.9375 L 15.953125 -72.9375 L 15.953125 -5.609375 Z M 49.9375 -5.609375 "/>
</symbol>
<symbol overflow="visible" id="sinhala-vatu-va-1:id2:glyph0-1">
<path style="stroke:none;" d="M 38.171875 -56.09375 C 38.171875 -53.382812 36.882812 -52.03125 34.3125 -52.03125 C 31.601562 -52.03125 30.25 -53.382812 30.25 -56.09375 C 30.25 -58.738281 31.601562 -60.0625 34.3125 -60.0625 C 36.882812 -60.0625 38.171875 -58.738281 38.171875 -56.09375 Z M 20.453125 -49.171875 C 20.453125 -46.523438 19.097656 -45.203125 16.390625 -45.203125 C 13.753906 -45.203125 12.4375 -46.523438 12.4375 -49.171875 C 12.4375 -51.878906 13.753906 -53.234375 16.390625 -53.234375 C 19.097656 -53.234375 20.453125 -51.878906 20.453125 -49.171875 Z M 55.984375 -49.171875 C 55.984375 -46.523438 54.664062 -45.203125 52.03125 -45.203125 C 49.382812 -45.203125 48.0625 -46.523438 48.0625 -49.171875 C 48.0625 -51.878906 49.382812 -53.234375 52.03125 -53.234375 C 54.664062 -53.234375 55.984375 -51.878906 55.984375 -49.171875 Z M 62.046875 -31.90625 C 62.046875 -29.257812 60.757812 -27.9375 58.1875 -27.9375 C 55.476562 -27.9375 54.125 -29.257812 54.125 -31.90625 C 54.125 -34.613281 55.476562 -35.96875 58.1875 -35.96875 C 60.757812 -35.96875 62.046875 -34.613281 62.046875 -31.90625 Z M 14.1875 -31.90625 C 14.1875 -29.257812 12.90625 -27.9375 10.34375 -27.9375 C 7.625 -27.9375 6.265625 -29.257812 6.265625 -31.90625 C 6.265625 -34.613281 7.625 -35.96875 10.34375 -35.96875 C 12.90625 -35.96875 14.1875 -34.613281 14.1875 -31.90625 Z M 20.453125 -14.625 C 20.453125 -11.914062 19.097656 -10.5625 16.390625 -10.5625 C 13.753906 -10.5625 12.4375 -11.914062 12.4375 -14.625 C 12.4375 -17.269531 13.753906 -18.59375 16.390625 -18.59375 C 19.097656 -18.59375 20.453125 -17.269531 20.453125 -14.625 Z M 55.984375 -14.625 C 55.984375 -11.914062 54.664062 -10.5625 52.03125 -10.5625 C 49.382812 -10.5625 48.0625 -11.914062 48.0625 -14.625 C 48.0625 -17.269531 49.382812 -18.59375 52.03125 -18.59375 C 54.664062 -18.59375 55.984375 -17.269531 55.984375 -14.625 Z M 38.171875 -7.703125 C 38.171875 -5.054688 36.882812 -3.734375 34.3125 -3.734375 C 31.601562 -3.734375 30.25 -5.054688 30.25 -7.703125 C 30.25 -10.410156 31.601562 -11.765625 34.3125 -11.765625 C 36.882812 -11.765625 38.171875 -10.410156 38.171875 -7.703125 Z M 38.171875 -7.703125 "/>
</symbol>
<symbol overflow="visible" id="sinhala-vatu-va-1:id2:glyph0-2">
<path style="stroke:none;" d="M 44.21875 1.09375 C 40.988281 1.09375 37.941406 0.5625 35.078125 -0.5 C 32.222656 -1.5625 28.925781 -3.117188 25.1875 -5.171875 C 22.101562 -6.859375 19.625 -7.992188 17.75 -8.578125 C 15.882812 -9.160156 14.222656 -9.453125 12.765625 -9.453125 C 11.441406 -9.453125 10.300781 -9.304688 9.34375 -9.015625 C 8.832031 -7.546875 8.410156 -6.023438 8.078125 -4.453125 C 7.753906 -2.878906 7.554688 -1.25 7.484375 0.4375 L 0.984375 -0.546875 C 1.203125 -4.804688 2.0625 -8.691406 3.5625 -12.203125 C 5.070312 -15.722656 6.867188 -19.039062 8.953125 -22.15625 C 11.046875 -25.28125 13.117188 -28.328125 15.171875 -31.296875 C 17.234375 -34.265625 18.941406 -37.269531 20.296875 -40.3125 C 21.648438 -43.351562 22.328125 -46.5625 22.328125 -49.9375 C 22.328125 -53.164062 21.648438 -55.492188 20.296875 -56.921875 C 18.941406 -58.347656 17.195312 -59.0625 15.0625 -59.0625 C 13.007812 -59.0625 11.394531 -58.398438 10.21875 -57.078125 C 9.050781 -55.765625 8.46875 -53.972656 8.46875 -51.703125 C 8.46875 -48.984375 8.875 -46.488281 9.6875 -44.21875 L 2.75 -42.90625 C 2.238281 -44.070312 1.796875 -45.515625 1.421875 -47.234375 C 1.054688 -48.960938 0.875 -50.414062 0.875 -51.59375 C 0.875 -55.476562 2.140625 -58.648438 4.671875 -61.109375 C 7.203125 -63.566406 10.707031 -64.796875 15.1875 -64.796875 C 19.289062 -64.796875 22.609375 -63.566406 25.140625 -61.109375 C 27.671875 -58.648438 28.9375 -55.035156 28.9375 -50.265625 C 28.9375 -47.117188 28.398438 -44.113281 27.328125 -41.25 C 26.265625 -38.382812 24.890625 -35.578125 23.203125 -32.828125 C 21.523438 -30.078125 19.726562 -27.34375 17.8125 -24.625 C 15.90625 -21.914062 14.1875 -19.097656 12.65625 -16.171875 C 13.96875 -16.609375 15.359375 -16.828125 16.828125 -16.828125 C 18.878906 -16.828125 20.800781 -16.609375 22.59375 -16.171875 C 24.394531 -15.734375 26.800781 -14.851562 29.8125 -13.53125 C 32.082031 -12.570312 34.351562 -11.765625 36.625 -11.109375 C 38.90625 -10.453125 41.328125 -10.125 43.890625 -10.125 C 48.066406 -10.125 51.457031 -11.3125 54.0625 -13.6875 C 56.664062 -16.070312 57.96875 -19.539062 57.96875 -24.09375 C 57.96875 -29.519531 55.914062 -33.953125 51.8125 -37.390625 C 47.707031 -40.835938 41.179688 -42.710938 32.234375 -43.015625 L 32.015625 -43.015625 L 32.015625 -43.453125 C 32.015625 -47.554688 32.765625 -51.222656 34.265625 -54.453125 C 35.765625 -57.679688 37.90625 -60.210938 40.6875 -62.046875 C 43.476562 -63.878906 46.742188 -64.796875 50.484375 -64.796875 C 55.398438 -64.796875 58.972656 -63.546875 61.203125 -61.046875 C 63.441406 -58.554688 64.5625 -55.367188 64.5625 -51.484375 C 64.5625 -49.796875 64.429688 -48.304688 64.171875 -47.015625 C 63.921875 -45.734375 63.613281 -44.617188 63.25 -43.671875 L 57.640625 -45.4375 C 58.003906 -46.238281 58.257812 -47.113281 58.40625 -48.0625 C 58.550781 -49.019531 58.625 -49.863281 58.625 -50.59375 C 58.625 -53.164062 57.800781 -55.070312 56.15625 -56.3125 C 54.507812 -57.5625 52.289062 -58.1875 49.5 -58.1875 C 46.269531 -58.1875 43.753906 -57.269531 41.953125 -55.4375 C 40.160156 -53.601562 38.9375 -51.222656 38.28125 -48.296875 C 42.75 -47.703125 47 -46.46875 51.03125 -44.59375 C 55.070312 -42.726562 58.335938 -40.050781 60.828125 -36.5625 C 63.316406 -33.082031 64.5625 -28.519531 64.5625 -22.875 C 64.5625 -15.539062 62.820312 -9.710938 59.34375 -5.390625 C 55.863281 -1.066406 50.820312 1.09375 44.21875 1.09375 Z M 44.21875 1.09375 "/>
</symbol>
</g>
</defs>
  <g id="sinhala-vatu-va-1:id0:id0" transform="matrix(1.25,0,0,1.25,0.0,8.5546875)"><g id="sinhala-vatu-va-1:id0:surface1">
<g style="fill:rgb(0%,0%,0%);fill-opacity:1;">
  <use xlink:href="#sinhala-vatu-va-1:id0:glyph0-1" x="16" y="111.671875" class="dc"/>
  <use xlink:href="#sinhala-vatu-va-1:id0:glyph0-2" x="84.421875" y="111.671875" class="c0"/>
  <use xlink:href="#sinhala-vatu-va-1:id0:glyph0-3" x="84.421875" y="111.671875" class="z"/>
  <use xlink:href="#sinhala-vatu-va-1:id0:glyph0-4" x="84.421875" y="111.671875" class="c1"/>
</g>
</g>
</g>
  <g id="sinhala-vatu-va-1:id1:id1" transform="matrix(1.25,0,0,1.25,234.43359375,0.0)"><g id="sinhala-vatu-va-1:id1:surface1">
<g style="fill:rgb(0%,0%,0%);fill-opacity:1;">
  <use xlink:href="#sinhala-vatu-va-1:id1:glyph0-1" x="0" y="120.84375" class="arrow"/>
</g>
</g>
</g>
  <g id="sinhala-vatu-va-1:id2:id2" transform="matrix(1.25,0,0,1.25,367.03125,8.5546875)"><g id="sinhala-vatu-va-1:id2:surface1">
<g style="fill:rgb(0%,0%,0%);fill-opacity:1;">
  <use xlink:href="#sinhala-vatu-va-1:id2:glyph0-1" x="16" y="111.671875" class="dc"/>
  <use xlink:href="#sinhala-vatu-va-1:id2:glyph0-2" x="84.421875" y="111.671875" class="c1"/>
</g>
</g>
</g>
</svg>