<?xml version="1.0" standalone="no"?>
<!DOCTYPE svg PUBLIC "-//W3C//DTD SVG 1.1//EN"
 "http://www.w3.org/Graphics/SVG/1.1/DTD/svg11.dtd">
<!-- Created with svg_stack (http://github.com/astraw/svg_stack) -->
<svg xmlns="http://www.w3.org/2000/svg" xmlns:sodipodi="http://sodipodi.sourceforge.net/DTD/sodipodi-0.dtd" xmlns:xlink="http://www.w3.org/1999/xlink" version="1.1" width="643.515625" height="201.40625">
  <defs><g>
<symbol overflow="visible" id="id0:glyph0-0">
<path style="stroke:none;" d="M 10.34375 -78.546875 L 55.546875 -78.546875 L 55.546875 0 L 10.34375 0 Z M 49.9375 -5.609375 L 49.9375 -72.9375 L 15.953125 -72.9375 L 15.953125 -5.609375 Z M 49.9375 -5.609375 "/>
</symbol>
<symbol overflow="visible" id="id0:glyph0-1">
<path style="stroke:none;" d="M 4.40625 -29.703125 C 4.40625 -35.492188 5.742188 -40.570312 8.421875 -44.9375 C 11.097656 -49.300781 14.925781 -52.691406 19.90625 -55.109375 C 24.894531 -57.523438 30.910156 -58.734375 37.953125 -58.734375 C 42.421875 -58.734375 46.34375 -58.421875 49.71875 -57.796875 C 53.09375 -57.179688 56.171875 -56.320312 58.953125 -55.21875 C 61.742188 -54.113281 64.457031 -52.832031 67.09375 -51.375 L 64.015625 -45.984375 C 60.710938 -48.179688 56.898438 -49.921875 52.578125 -51.203125 C 48.253906 -52.484375 43.414062 -53.125 38.0625 -53.125 C 32.925781 -53.125 28.304688 -52.316406 24.203125 -50.703125 C 20.097656 -49.097656 16.867188 -46.625 14.515625 -43.28125 C 12.171875 -39.945312 11 -35.75 11 -30.6875 C 11 -26.726562 11.859375 -23.132812 13.578125 -19.90625 C 15.304688 -16.675781 18.039062 -14.125 21.78125 -12.25 C 25.519531 -10.382812 30.46875 -9.453125 36.625 -9.453125 C 42.570312 -9.453125 47.191406 -10.203125 50.484375 -11.703125 C 53.785156 -13.210938 56.097656 -15.140625 57.421875 -17.484375 C 58.742188 -19.835938 59.40625 -22.296875 59.40625 -24.859375 C 59.40625 -27.722656 58.359375 -30.398438 56.265625 -32.890625 C 54.171875 -35.378906 50.78125 -37.03125 46.09375 -37.84375 C 47.40625 -36.882812 48.316406 -35.707031 48.828125 -34.3125 C 49.347656 -32.925781 49.609375 -31.570312 49.609375 -30.25 C 49.609375 -26.4375 48.429688 -23.554688 46.078125 -21.609375 C 43.734375 -19.671875 40.617188 -18.703125 36.734375 -18.703125 C 32.554688 -18.703125 29.332031 -19.816406 27.0625 -22.046875 C 24.789062 -24.285156 23.65625 -27.203125 23.65625 -30.796875 C 23.65625 -34.679688 25.101562 -37.816406 28 -40.203125 C 30.894531 -42.585938 35.128906 -43.78125 40.703125 -43.78125 C 46.273438 -43.78125 50.894531 -42.863281 54.5625 -41.03125 C 58.226562 -39.195312 60.992188 -36.757812 62.859375 -33.71875 C 64.734375 -30.675781 65.671875 -27.285156 65.671875 -23.546875 C 65.671875 -18.773438 64.609375 -14.535156 62.484375 -10.828125 C 60.359375 -7.128906 57.1875 -4.21875 52.96875 -2.09375 C 48.75 0.03125 43.410156 1.09375 36.953125 1.09375 C 29.253906 1.09375 23.019531 -0.296875 18.25 -3.078125 C 13.488281 -5.867188 9.988281 -9.609375 7.75 -14.296875 C 5.519531 -18.992188 4.40625 -24.128906 4.40625 -29.703125 Z M 43.34375 -31.015625 C 43.34375 -32.628906 42.828125 -34.078125 41.796875 -35.359375 C 40.773438 -36.648438 39.050781 -37.296875 36.625 -37.296875 C 34.71875 -37.296875 33.125 -36.722656 31.84375 -35.578125 C 30.5625 -34.441406 29.921875 -32.921875 29.921875 -31.015625 C 29.921875 -29.035156 30.46875 -27.421875 31.5625 -26.171875 C 32.664062 -24.929688 34.390625 -24.3125 36.734375 -24.3125 C 38.785156 -24.3125 40.398438 -24.859375 41.578125 -25.953125 C 42.753906 -27.054688 43.34375 -28.742188 43.34375 -31.015625 Z M 43.34375 -31.015625 "/>
</symbol>
<symbol overflow="visible" id="id0:glyph0-2">
<path style="stroke:none;" d="M 38.171875 -56.09375 C 38.171875 -53.382812 36.882812 -52.03125 34.3125 -52.03125 C 31.601562 -52.03125 30.25 -53.382812 30.25 -56.09375 C 30.25 -58.738281 31.601562 -60.0625 34.3125 -60.0625 C 36.882812 -60.0625 38.171875 -58.738281 38.171875 -56.09375 Z M 20.453125 -49.171875 C 20.453125 -46.523438 19.097656 -45.203125 16.390625 -45.203125 C 13.753906 -45.203125 12.4375 -46.523438 12.4375 -49.171875 C 12.4375 -51.878906 13.753906 -53.234375 16.390625 -53.234375 C 19.097656 -53.234375 20.453125 -51.878906 20.453125 -49.171875 Z M 55.984375 -49.171875 C 55.984375 -46.523438 54.664062 -45.203125 52.03125 -45.203125 C 49.382812 -45.203125 48.0625 -46.523438 48.0625 -49.171875 C 48.0625 -51.878906 49.382812 -53.234375 52.03125 -53.234375 C 54.664062 -53.234375 55.984375 -51.878906 55.984375 -49.171875 Z M 62.046875 -31.90625 C 62.046875 -29.257812 60.757812 -27.9375 58.1875 -27.9375 C 55.476562 -27.9375 54.125 -29.257812 54.125 -31.90625 C 54.125 -34.613281 55.476562 -35.96875 58.1875 -35.96875 C 60.757812 -35.96875 62.046875 -34.613281 62.046875 -31.90625 Z M 14.1875 -31.90625 C 14.1875 -29.257812 12.90625 -27.9375 10.34375 -27.9375 C 7.625 -27.9375 6.265625 -29.257812 6.265625 -31.90625 C 6.265625 -34.613281 7.625 -35.96875 10.34375 -35.96875 C 12.90625 -35.96875 14.1875 -34.613281 14.1875 -31.90625 Z M 20.453125 -14.625 C 20.453125 -11.914062 19.097656 -10.5625 16.390625 -10.5625 C 13.753906 -10.5625 12.4375 -11.914062 12.4375 -14.625 C 12.4375 -17.269531 13.753906 -18.59375 16.390625 -18.59375 C 19.097656 -18.59375 20.453125 -17.269531 20.453125 -14.625 Z M 55.984375 -14.625 C 55.984375 -11.914062 54.664062 -10.5625 52.03125 -10.5625 C 49.382812 -10.5625 48.0625 -11.914062 48.0625 -14.625 C 48.0625 -17.269531 49.382812 -18.59375 52.03125 -18.59375 C 54.664062 -18.59375 55.984375 -17.269531 55.984375 -14.625 Z M 38.171875 -7.703125 C 38.171875 -5.054688 36.882812 -3.734375 34.3125 -3.734375 C 31.601562 -3.734375 30.25 -5.054688 30.25 -7.703125 C 30.25 -10.410156 31.601562 -11.765625 34.3125 -11.765625 C 36.882812 -11.765625 38.171875 -10.410156 38.171875 -7.703125 Z M 38.171875 -7.703125 "/>
</symbol>
<symbol overflow="visible" id="id0:glyph0-3">
<path style="stroke:none;" d="M -9.6875 -105.9375 C -6.601562 -105.9375 -4.234375 -104.925781 -2.578125 -102.90625 C -0.929688 -100.882812 -0.109375 -98.335938 -0.109375 -95.265625 C -0.109375 -92.179688 -0.894531 -89.628906 -2.46875 -87.609375 C -4.050781 -85.597656 -6.492188 -84.59375 -9.796875 -84.59375 C -10.742188 -84.59375 -11.75 -84.753906 -12.8125 -85.078125 C -13.875 -85.410156 -14.847656 -85.945312 -15.734375 -86.6875 C -15.660156 -85.582031 -15.625 -84.476562 -15.625 -83.375 C -15.625 -82.28125 -15.625 -81.179688 -15.625 -80.078125 L -15.625 -53.796875 L -21.34375 -53.796875 L -21.34375 -93.28125 C -21.34375 -96.0625 -21.890625 -97.910156 -22.984375 -98.828125 C -24.085938 -99.742188 -25.191406 -100.203125 -26.296875 -100.203125 C -26.953125 -100.203125 -27.5 -100.179688 -27.9375 -100.140625 C -28.375 -100.109375 -28.707031 -100.054688 -28.9375 -99.984375 L -29.8125 -104.9375 C -29.226562 -105.226562 -28.550781 -105.46875 -27.78125 -105.65625 C -27.007812 -105.84375 -25.960938 -105.9375 -24.640625 -105.9375 C -23.316406 -105.9375 -22.066406 -105.585938 -20.890625 -104.890625 C -19.722656 -104.191406 -18.738281 -103.179688 -17.9375 -101.859375 C -15.65625 -104.578125 -12.90625 -105.9375 -9.6875 -105.9375 Z M -10.5625 -101.09375 C -11.8125 -101.09375 -12.851562 -100.722656 -13.6875 -99.984375 C -14.53125 -99.253906 -15.175781 -98.265625 -15.625 -97.015625 L -15.625 -93.390625 C -15.175781 -92.210938 -14.550781 -91.273438 -13.75 -90.578125 C -12.945312 -89.890625 -11.8125 -89.546875 -10.34375 -89.546875 C -7.332031 -89.546875 -5.828125 -91.414062 -5.828125 -95.15625 C -5.828125 -99.113281 -7.40625 -101.09375 -10.5625 -101.09375 Z M -10.5625 -101.09375 "/>
</symbol>
</g>
<g>
<symbol overflow="visible" id="id1:glyph0-0">
<path style="stroke:none;" d="M 5.375 -96.6875 L 69.828125 -96.6875 L 69.828125 0 L 5.375 0 Z M 8.0625 -2.6875 L 67.140625 -2.6875 L 67.140625 -94 L 8.0625 -94 Z M 8.0625 -2.6875 "/>
</symbol>
<symbol overflow="visible" id="id1:glyph0-1">
<path style="stroke:none;" d="M 68.15625 -13.75 L 66.28125 -18.640625 L 88.09375 -27.390625 L 6.984375 -27.390625 L 6.984375 -34 L 88.09375 -34 L 66.28125 -42.75 L 68.15625 -47.640625 L 99.09375 -34.265625 L 99.09375 -27.125 Z M 68.15625 -13.75 "/>
</symbol>
</g>
<g>
<symbol overflow="visible" id="id2:glyph0-0">
<path style="stroke:none;" d="M 10.34375 -78.546875 L 55.546875 -78.546875 L 55.546875 0 L 10.34375 0 Z M 49.9375 -5.609375 L 49.9375 -72.9375 L 15.953125 -72.9375 L 15.953125 -5.609375 Z M 49.9375 -5.609375 "/>
</symbol>
<symbol overflow="visible" id="id2:glyph0-1">
<path style="stroke:none;" d="M 4.40625 -29.703125 C 4.40625 -35.492188 5.742188 -40.570312 8.421875 -44.9375 C 11.097656 -49.300781 14.925781 -52.691406 19.90625 -55.109375 C 24.894531 -57.523438 30.910156 -58.734375 37.953125 -58.734375 C 42.421875 -58.734375 46.34375 -58.421875 49.71875 -57.796875 C 53.09375 -57.179688 56.171875 -56.320312 58.953125 -55.21875 C 61.742188 -54.113281 64.457031 -52.832031 67.09375 -51.375 L 64.015625 -45.984375 C 60.710938 -48.179688 56.898438 -49.921875 52.578125 -51.203125 C 48.253906 -52.484375 43.414062 -53.125 38.0625 -53.125 C 32.925781 -53.125 28.304688 -52.316406 24.203125 -50.703125 C 20.097656 -49.097656 16.867188 -46.625 14.515625 -43.28125 C 12.171875 -39.945312 11 -35.75 11 -30.6875 C 11 -26.726562 11.859375 -23.132812 13.578125 -19.90625 C 15.304688 -16.675781 18.039062 -14.125 21.78125 -12.25 C 25.519531 -10.382812 30.46875 -9.453125 36.625 -9.453125 C 42.570312 -9.453125 47.191406 -10.203125 50.484375 -11.703125 C 53.785156 -13.210938 56.097656 -15.140625 57.421875 -17.484375 C 58.742188 -19.835938 59.40625 -22.296875 59.40625 -24.859375 C 59.40625 -27.722656 58.359375 -30.398438 56.265625 -32.890625 C 54.171875 -35.378906 50.78125 -37.03125 46.09375 -37.84375 C 47.40625 -36.882812 48.316406 -35.707031 48.828125 -34.3125 C 49.347656 -32.925781 49.609375 -31.570312 49.609375 -30.25 C 49.609375 -26.4375 48.429688 -23.554688 46.078125 -21.609375 C 43.734375 -19.671875 40.617188 -18.703125 36.734375 -18.703125 C 32.554688 -18.703125 29.332031 -19.816406 27.0625 -22.046875 C 24.789062 -24.285156 23.65625 -27.203125 23.65625 -30.796875 C 23.65625 -34.679688 25.101562 -37.816406 28 -40.203125 C 30.894531 -42.585938 35.128906 -43.78125 40.703125 -43.78125 C 46.273438 -43.78125 50.894531 -42.863281 54.5625 -41.03125 C 58.226562 -39.195312 60.992188 -36.757812 62.859375 -33.71875 C 64.734375 -30.675781 65.671875 -27.285156 65.671875 -23.546875 C 65.671875 -18.773438 64.609375 -14.535156 62.484375 -10.828125 C 60.359375 -7.128906 57.1875 -4.21875 52.96875 -2.09375 C 48.75 0.03125 43.410156 1.09375 36.953125 1.09375 C 29.253906 1.09375 23.019531 -0.296875 18.25 -3.078125 C 13.488281 -5.867188 9.988281 -9.609375 7.75 -14.296875 C 5.519531 -18.992188 4.40625 -24.128906 4.40625 -29.703125 Z M 43.34375 -31.015625 C 43.34375 -32.628906 42.828125 -34.078125 41.796875 -35.359375 C 40.773438 -36.648438 39.050781 -37.296875 36.625 -37.296875 C 34.71875 -37.296875 33.125 -36.722656 31.84375 -35.578125 C 30.5625 -34.441406 29.921875 -32.921875 29.921875 -31.015625 C 29.921875 -29.035156 30.46875 -27.421875 31.5625 -26.171875 C 32.664062 -24.929688 34.390625 -24.3125 36.734375 -24.3125 C 38.785156 -24.3125 40.398438 -24.859375 41.578125 -25.953125 C 42.753906 -27.054688 43.34375 -28.742188 43.34375 -31.015625 Z M 43.34375 -31.015625 "/>
</symbol>
<symbol overflow="visible" id="id2:glyph0-2">
<path style="stroke:none;" d="M 38.171875 -56.09375 C 38.171875 -53.382812 36.882812 -52.03125 34.3125 -52.03125 C 31.601562 -52.03125 30.25 -53.382812 30.25 -56.09375 C 30.25 -58.738281 31.601562 -60.0625 34.3125 -60.0625 C 36.882812 -60.0625 38.171875 -58.738281 38.171875 -56.09375 Z M 20.453125 -49.171875 C 20.453125 -46.523438 19.097656 -45.203125 16.390625 -45.203125 C 13.753906 -45.203125 12.4375 -46.523438 12.4375 -49.171875 C 12.4375 -51.878906 13.753906 -53.234375 16.390625 -53.234375 C 19.097656 -53.234375 20.453125 -51.878906 20.453125 -49.171875 Z M 55.984375 -49.171875 C 55.984375 -46.523438 54.664062 -45.203125 52.03125 -45.203125 C 49.382812 -45.203125 48.0625 -46.523438 48.0625 -49.171875 C 48.0625 -51.878906 49.382812 -53.234375 52.03125 -53.234375 C 54.664062 -53.234375 55.984375 -51.878906 55.984375 -49.171875 Z M 62.046875 -31.90625 C 62.046875 -29.257812 60.757812 -27.9375 58.1875 -27.9375 C 55.476562 -27.9375 54.125 -29.257812 54.125 -31.90625 C 54.125 -34.613281 55.476562 -35.96875 58.1875 -35.96875 C 60.757812 -35.96875 62.046875 -34.613281 62.046875 -31.90625 Z M 14.1875 -31.90625 C 14.1875 -29.257812 12.90625 -27.9375 10.34375 -27.9375 C 7.625 -27.9375 6.265625 -29.257812 6.265625 -31.90625 C 6.265625 -34.613281 7.625 -35.96875 10.34375 -35.96875 C 12.90625 -35.96875 14.1875 -34.613281 14.1875 -31.90625 Z M 20.453125 -14.625 C 20.453125 -11.914062 19.097656 -10.5625 16.390625 -10.5625 C 13.753906 -10.5625 12.4375 -11.914062 12.4375 -14.625 C 12.4375 -17.269531 13.753906 -18.59375 16.390625 -18.59375 C 19.097656 -18.59375 20.453125 -17.269531 20.453125 -14.625 Z M 55.984375 -14.625 C 55.984375 -11.914062 54.664062 -10.5625 52.03125 -10.5625 C 49.382812 -10.5625 48.0625 -11.914062 48.0625 -14.625 C 48.0625 -17.269531 49.382812 -18.59375 52.03125 -18.59375 C 54.664062 -18.59375 55.984375 -17.269531 55.984375 -14.625 Z M 38.171875 -7.703125 C 38.171875 -5.054688 36.882812 -3.734375 34.3125 -3.734375 C 31.601562 -3.734375 30.25 -5.054688 30.25 -7.703125 C 30.25 -10.410156 31.601562 -11.765625 34.3125 -11.765625 C 36.882812 -11.765625 38.171875 -10.410156 38.171875 -7.703125 Z M 38.171875 -7.703125 "/>
</symbol>
<symbol overflow="visible" id="id2:glyph0-3">
<path style="stroke:none;" d="M -9.6875 -105.9375 C -6.601562 -105.9375 -4.234375 -104.925781 -2.578125 -102.90625 C -0.929688 -100.882812 -0.109375 -98.335938 -0.109375 -95.265625 C -0.109375 -92.179688 -0.894531 -89.628906 -2.46875 -87.609375 C -4.050781 -85.597656 -6.492188 -84.59375 -9.796875 -84.59375 C -10.742188 -84.59375 -11.75 -84.753906 -12.8125 -85.078125 C -13.875 -85.410156 -14.847656 -85.945312 -15.734375 -86.6875 C -15.660156 -85.582031 -15.625 -84.476562 -15.625 -83.375 C -15.625 -82.28125 -15.625 -81.179688 -15.625 -80.078125 L -15.625 -53.796875 L -21.34375 -53.796875 L -21.34375 -93.28125 C -21.34375 -96.0625 -21.890625 -97.910156 -22.984375 -98.828125 C -24.085938 -99.742188 -25.191406 -100.203125 -26.296875 -100.203125 C -26.953125 -100.203125 -27.5 -100.179688 -27.9375 -100.140625 C -28.375 -100.109375 -28.707031 -100.054688 -28.9375 -99.984375 L -29.8125 -104.9375 C -29.226562 -105.226562 -28.550781 -105.46875 -27.78125 -105.65625 C -27.007812 -105.84375 -25.960938 -105.9375 -24.640625 -105.9375 C -23.316406 -105.9375 -22.066406 -105.585938 -20.890625 -104.890625 C -19.722656 -104.191406 -18.738281 -103.179688 -17.9375 -101.859375 C -15.65625 -104.578125 -12.90625 -105.9375 -9.6875 -105.9375 Z M -10.5625 -101.09375 C -11.8125 -101.09375 -12.851562 -100.722656 -13.6875 -99.984375 C -14.53125 -99.253906 -15.175781 -98.265625 -15.625 -97.015625 L -15.625 -93.390625 C -15.175781 -92.210938 -14.550781 -91.273438 -13.75 -90.578125 C -12.945312 -89.890625 -11.8125 -89.546875 -10.34375 -89.546875 C -7.332031 -89.546875 -5.828125 -91.414062 -5.828125 -95.15625 C -5.828125 -99.113281 -7.40625 -101.09375 -10.5625 -101.09375 Z M -10.5625 -101.09375 "/>
</symbol>
</g>
</defs>
  <g id="id0:id0" transform="matrix(1.25,0,0,1.25,0.0,8.5546875)"><g id="id0:surface1">
<g style="fill:rgb(0%,0%,0%);fill-opacity:1;">
  <use xlink:href="#id0:glyph0-1" x="16" y="111.671875"/>
  <use xlink:href="#id0:glyph0-2" x="85.734375" y="111.671875"/>
  <use xlink:href="#id0:glyph0-3" x="154.15625" y="111.671875"/>
</g>
</g>
</g>
  <g id="id1:id1" transform="matrix(1.25,0,0,1.25,212.6953125,0.0)"><g id="id1:surface1">
<g style="fill:rgb(0%,0%,0%);fill-opacity:1;">
  <use xlink:href="#id1:glyph0-1" x="0" y="120.84375"/>
</g>
</g>
</g>
  <g id="id2:id2" transform="matrix(1.25,0,0,1.25,345.29296875,8.5546875)"><g id="id2:surface1">
<g style="fill:rgb(0%,0%,0%);fill-opacity:1;">
  <use xlink:href="#id2:glyph0-1" x="16" y="111.671875"/>
  <use xlink:href="#id2:glyph0-2" x="85.734375" y="111.671875"/>
  <use xlink:href="#id2:glyph0-2" x="154.15625" y="111.671875"/>
  <use xlink:href="#id2:glyph0-3" x="222.578125" y="111.671875"/>
</g>
</g>
</g>
</svg>
