<?xml version="1.0" standalone="no"?>
<!DOCTYPE svg PUBLIC "-//W3C//DTD SVG 1.1//EN"
 "http://www.w3.org/Graphics/SVG/1.1/DTD/svg11.dtd">
<!-- Created with svg_stack (http://github.com/astraw/svg_stack) -->
<svg xmlns="http://www.w3.org/2000/svg" xmlns:sodipodi="http://sodipodi.sourceforge.net/DTD/sodipodi-0.dtd" xmlns:xlink="http://www.w3.org/1999/xlink" version="1.1" width="443.88671875" height="201.40625">
  <defs><g>
<symbol overflow="visible" id="id0:glyph0-0">
<path style="stroke:none;" d="M 10.34375 -78.546875 L 55.546875 -78.546875 L 55.546875 0 L 10.34375 0 Z M 49.9375 -5.609375 L 49.9375 -72.9375 L 15.953125 -72.9375 L 15.953125 -5.609375 Z M 49.9375 -5.609375 "/>
</symbol>
<symbol overflow="visible" id="id0:glyph0-1">
<path style="stroke:none;" d="M 60.28125 1.09375 C 55.957031 1.09375 52.53125 0.0859375 50 -1.921875 C 47.46875 -3.941406 46.203125 -6.96875 46.203125 -11 C 46.203125 -13.195312 46.601562 -15.175781 47.40625 -16.9375 C 48.21875 -18.695312 49.132812 -20.4375 50.15625 -22.15625 C 51.1875 -23.882812 52.101562 -25.679688 52.90625 -27.546875 C 53.71875 -29.421875 54.125 -31.566406 54.125 -33.984375 C 54.125 -39.265625 52.363281 -43.257812 48.84375 -45.96875 C 45.320312 -48.6875 40.59375 -50.046875 34.65625 -50.046875 C 27.6875 -50.046875 22.019531 -47.9375 17.65625 -43.71875 C 13.289062 -39.507812 11.109375 -33.476562 11.109375 -25.625 C 11.109375 -21.738281 11.546875 -18.566406 12.421875 -16.109375 C 13.304688 -13.660156 14.628906 -11.367188 16.390625 -9.234375 C 15.878906 -10.484375 15.625 -11.769531 15.625 -13.09375 C 15.625 -17.125 16.882812 -20.144531 19.40625 -22.15625 C 21.9375 -24.175781 25 -25.1875 28.59375 -25.1875 C 33.144531 -25.1875 36.609375 -23.976562 38.984375 -21.5625 C 41.367188 -19.144531 42.5625 -16.023438 42.5625 -12.203125 C 42.5625 -8.023438 41.332031 -4.765625 38.875 -2.421875 C 36.425781 -0.078125 33.035156 1.09375 28.703125 1.09375 C 24.015625 1.09375 19.835938 -0.09375 16.171875 -2.46875 C 12.503906 -4.851562 9.644531 -8.191406 7.59375 -12.484375 C 5.539062 -16.773438 4.515625 -21.742188 4.515625 -27.390625 C 4.515625 -32.960938 5.375 -37.800781 7.09375 -41.90625 C 8.820312 -46.007812 11.171875 -49.414062 14.140625 -52.125 C 17.109375 -54.84375 20.460938 -56.878906 24.203125 -58.234375 C 27.941406 -59.597656 31.828125 -60.28125 35.859375 -60.28125 C 41.648438 -60.28125 46.46875 -59.269531 50.3125 -57.25 C 54.164062 -55.238281 57.082031 -52.523438 59.0625 -49.109375 C 61.050781 -45.703125 62.046875 -41.910156 62.046875 -37.734375 C 62.046875 -34.722656 61.625 -32.117188 60.78125 -29.921875 C 59.9375 -27.722656 58.941406 -25.742188 57.796875 -23.984375 C 56.660156 -22.222656 55.671875 -20.550781 54.828125 -18.96875 C 53.984375 -17.394531 53.5625 -15.726562 53.5625 -13.96875 C 53.5625 -10.664062 55.765625 -9.015625 60.171875 -9.015625 C 63.398438 -9.015625 66.609375 -10.132812 69.796875 -12.375 C 72.984375 -14.613281 75.617188 -18.023438 77.703125 -22.609375 C 79.796875 -27.191406 80.84375 -33.003906 80.84375 -40.046875 C 80.84375 -45.984375 80.144531 -51.535156 78.75 -56.703125 C 77.363281 -61.867188 75.164062 -66.394531 72.15625 -70.28125 C 69.15625 -74.175781 65.269531 -77.222656 60.5 -79.421875 C 55.726562 -81.617188 49.972656 -82.71875 43.234375 -82.71875 C 35.972656 -82.71875 29.59375 -81.800781 24.09375 -79.96875 C 18.59375 -78.132812 13.3125 -75.421875 8.25 -71.828125 L 4.515625 -76.890625 C 9.566406 -80.191406 15.15625 -82.941406 21.28125 -85.140625 C 27.40625 -87.335938 34.757812 -88.4375 43.34375 -88.4375 C 57.789062 -88.4375 68.804688 -84 76.390625 -75.125 C 83.984375 -66.25 87.78125 -53.820312 87.78125 -37.84375 C 87.78125 -29.039062 86.492188 -21.757812 83.921875 -16 C 81.359375 -10.25 77.988281 -5.960938 73.8125 -3.140625 C 69.632812 -0.316406 65.125 1.09375 60.28125 1.09375 Z M 28.59375 -19.578125 C 26.394531 -19.578125 24.617188 -18.9375 23.265625 -17.65625 C 21.910156 -16.375 21.234375 -14.445312 21.234375 -11.875 C 21.234375 -10.039062 21.800781 -8.390625 22.9375 -6.921875 C 24.070312 -5.460938 25.992188 -4.734375 28.703125 -4.734375 C 30.910156 -4.734375 32.726562 -5.375 34.15625 -6.65625 C 35.582031 -7.9375 36.296875 -9.675781 36.296875 -11.875 C 36.296875 -14.226562 35.691406 -16.097656 34.484375 -17.484375 C 33.273438 -18.878906 31.3125 -19.578125 28.59375 -19.578125 Z M 28.59375 -19.578125 "/>
</symbol>
<symbol overflow="visible" id="id0:glyph0-2">
<path style="stroke:none;" d="M -35.421875 -93.71875 C -29.265625 -93.71875 -24.039062 -93.113281 -19.75 -91.90625 C -15.457031 -90.695312 -12.007812 -89.101562 -9.40625 -87.125 C -6.800781 -85.144531 -4.894531 -82.976562 -3.6875 -80.625 C -2.476562 -78.28125 -1.875 -75.972656 -1.875 -73.703125 C -1.875 -70.253906 -2.878906 -67.351562 -4.890625 -65 C -6.910156 -62.65625 -10.191406 -61.484375 -14.734375 -61.484375 C -18.398438 -61.484375 -21.40625 -62.453125 -23.75 -64.390625 C -26.101562 -66.335938 -27.28125 -69.222656 -27.28125 -73.046875 C -27.28125 -76.117188 -26.453125 -78.550781 -24.796875 -80.34375 C -23.148438 -82.144531 -21.226562 -83.378906 -19.03125 -84.046875 C -21.59375 -84.703125 -24.25 -85.15625 -27 -85.40625 C -29.75 -85.664062 -32.484375 -85.796875 -35.203125 -85.796875 C -42.828125 -85.796875 -48.707031 -84.75 -52.84375 -82.65625 C -56.988281 -80.570312 -59.0625 -77.441406 -59.0625 -73.265625 C -59.0625 -71.359375 -58.625 -69.613281 -57.75 -68.03125 C -56.875 -66.457031 -55.519531 -64.898438 -53.6875 -63.359375 L -57.859375 -60.171875 C -59.984375 -62.148438 -61.757812 -64.347656 -63.1875 -66.765625 C -64.625 -69.191406 -65.34375 -72.125 -65.34375 -75.5625 C -65.34375 -77.550781 -64.882812 -79.609375 -63.96875 -81.734375 C -63.050781 -83.859375 -61.488281 -85.816406 -59.28125 -87.609375 C -57.082031 -89.410156 -54.039062 -90.878906 -50.15625 -92.015625 C -46.269531 -93.148438 -41.359375 -93.71875 -35.421875 -93.71875 Z M -7.703125 -73.59375 C -7.703125 -75.5 -8.304688 -77.070312 -9.515625 -78.3125 C -10.722656 -79.5625 -12.460938 -80.1875 -14.734375 -80.1875 C -16.785156 -80.1875 -18.453125 -79.582031 -19.734375 -78.375 C -21.023438 -77.164062 -21.671875 -75.5 -21.671875 -73.375 C -21.671875 -71.164062 -20.988281 -69.507812 -19.625 -68.40625 C -18.269531 -67.3125 -16.640625 -66.765625 -14.734375 -66.765625 C -12.390625 -66.765625 -10.628906 -67.40625 -9.453125 -68.6875 C -8.285156 -69.976562 -7.703125 -71.613281 -7.703125 -73.59375 Z M -7.703125 -73.59375 "/>
</symbol>
</g>
<g>
<symbol overflow="visible" id="id1:glyph0-0">
<path style="stroke:none;" d="M 5.375 -96.6875 L 69.828125 -96.6875 L 69.828125 0 L 5.375 0 Z M 8.0625 -2.6875 L 67.140625 -2.6875 L 67.140625 -94 L 8.0625 -94 Z M 8.0625 -2.6875 "/>
</symbol>
<symbol overflow="visible" id="id1:glyph0-1">
<path style="stroke:none;" d="M 68.15625 -13.75 L 66.28125 -18.640625 L 88.09375 -27.390625 L 6.984375 -27.390625 L 6.984375 -34 L 88.09375 -34 L 66.28125 -42.75 L 68.15625 -47.640625 L 99.09375 -34.265625 L 99.09375 -27.125 Z M 68.15625 -13.75 "/>
</symbol>
</g>
<g>
<symbol overflow="visible" id="id2:glyph0-0">
<path style="stroke:none;" d="M 10.34375 -78.546875 L 55.546875 -78.546875 L 55.546875 0 L 10.34375 0 Z M 49.9375 -5.609375 L 49.9375 -72.9375 L 15.953125 -72.9375 L 15.953125 -5.609375 Z M 49.9375 -5.609375 "/>
</symbol>
<symbol overflow="visible" id="id2:glyph0-1">
<path style="stroke:none;" d="M 60.28125 1.09375 C 55.957031 1.09375 52.53125 0.0859375 50 -1.921875 C 47.46875 -3.941406 46.203125 -6.96875 46.203125 -11 C 46.203125 -13.195312 46.601562 -15.175781 47.40625 -16.9375 C 48.21875 -18.695312 49.132812 -20.4375 50.15625 -22.15625 C 51.1875 -23.882812 52.101562 -25.679688 52.90625 -27.546875 C 53.71875 -29.421875 54.125 -31.566406 54.125 -33.984375 C 54.125 -39.265625 52.363281 -43.257812 48.84375 -45.96875 C 45.320312 -48.6875 40.59375 -50.046875 34.65625 -50.046875 C 27.6875 -50.046875 22.019531 -47.9375 17.65625 -43.71875 C 13.289062 -39.507812 11.109375 -33.476562 11.109375 -25.625 C 11.109375 -21.738281 11.546875 -18.566406 12.421875 -16.109375 C 13.304688 -13.660156 14.628906 -11.367188 16.390625 -9.234375 C 15.878906 -10.484375 15.625 -11.769531 15.625 -13.09375 C 15.625 -17.125 16.882812 -20.144531 19.40625 -22.15625 C 21.9375 -24.175781 25 -25.1875 28.59375 -25.1875 C 33.144531 -25.1875 36.609375 -23.976562 38.984375 -21.5625 C 41.367188 -19.144531 42.5625 -16.023438 42.5625 -12.203125 C 42.5625 -8.023438 41.332031 -4.765625 38.875 -2.421875 C 36.425781 -0.078125 33.035156 1.09375 28.703125 1.09375 C 24.015625 1.09375 19.835938 -0.09375 16.171875 -2.46875 C 12.503906 -4.851562 9.644531 -8.191406 7.59375 -12.484375 C 5.539062 -16.773438 4.515625 -21.742188 4.515625 -27.390625 C 4.515625 -32.960938 5.375 -37.800781 7.09375 -41.90625 C 8.820312 -46.007812 11.171875 -49.414062 14.140625 -52.125 C 17.109375 -54.84375 20.460938 -56.878906 24.203125 -58.234375 C 27.941406 -59.597656 31.828125 -60.28125 35.859375 -60.28125 C 41.648438 -60.28125 46.46875 -59.269531 50.3125 -57.25 C 54.164062 -55.238281 57.082031 -52.523438 59.0625 -49.109375 C 61.050781 -45.703125 62.046875 -41.910156 62.046875 -37.734375 C 62.046875 -34.722656 61.625 -32.117188 60.78125 -29.921875 C 59.9375 -27.722656 58.941406 -25.742188 57.796875 -23.984375 C 56.660156 -22.222656 55.671875 -20.550781 54.828125 -18.96875 C 53.984375 -17.394531 53.5625 -15.726562 53.5625 -13.96875 C 53.5625 -10.664062 55.765625 -9.015625 60.171875 -9.015625 C 63.546875 -9.015625 66.804688 -10.097656 69.953125 -12.265625 C 73.109375 -14.429688 75.710938 -17.65625 77.765625 -21.9375 C 79.816406 -26.226562 80.84375 -31.492188 80.84375 -37.734375 C 80.84375 -42.566406 80.203125 -47.09375 78.921875 -51.3125 C 77.640625 -55.53125 75.515625 -59.234375 72.546875 -62.421875 C 69.578125 -65.609375 65.613281 -68.097656 60.65625 -69.890625 C 55.707031 -71.691406 49.566406 -72.59375 42.234375 -72.59375 L 30.6875 -72.59375 C 24.675781 -72.59375 20.222656 -73.859375 17.328125 -76.390625 C 14.429688 -78.921875 12.984375 -82.425781 12.984375 -86.90625 C 12.984375 -89.90625 14.023438 -92.707031 16.109375 -95.3125 C 18.203125 -97.914062 21.445312 -100.003906 25.84375 -101.578125 C 30.25 -103.160156 35.898438 -103.953125 42.796875 -103.953125 C 51.660156 -103.953125 58.859375 -102.960938 64.390625 -100.984375 C 69.929688 -99.003906 74.003906 -96.398438 76.609375 -93.171875 C 79.210938 -89.941406 80.515625 -86.457031 80.515625 -82.71875 C 80.515625 -79.632812 79.835938 -77.046875 78.484375 -74.953125 C 77.128906 -72.867188 74.984375 -71.5 72.046875 -70.84375 C 77.398438 -67.25 81.359375 -62.441406 83.921875 -56.421875 C 86.492188 -50.410156 87.78125 -43.375 87.78125 -35.3125 C 87.78125 -27.238281 86.492188 -20.507812 83.921875 -15.125 C 81.359375 -9.738281 77.988281 -5.6875 73.8125 -2.96875 C 69.632812 -0.257812 65.125 1.09375 60.28125 1.09375 Z M 42.015625 -78.3125 C 47.148438 -78.3125 51.84375 -77.910156 56.09375 -77.109375 C 55.4375 -78.648438 55.109375 -80.410156 55.109375 -82.390625 C 55.109375 -85.546875 55.988281 -87.984375 57.75 -89.703125 C 59.507812 -91.429688 61.523438 -92.585938 63.796875 -93.171875 C 61.523438 -93.898438 58.609375 -94.539062 55.046875 -95.09375 C 51.492188 -95.644531 47.445312 -95.921875 42.90625 -95.921875 C 36.8125 -95.921875 32.078125 -95.476562 28.703125 -94.59375 C 25.335938 -93.71875 22.972656 -92.523438 21.609375 -91.015625 C 20.253906 -89.515625 19.578125 -87.773438 19.578125 -85.796875 C 19.578125 -84.472656 19.890625 -83.242188 20.515625 -82.109375 C 21.140625 -80.972656 22.296875 -80.054688 23.984375 -79.359375 C 25.671875 -78.660156 28.125 -78.3125 31.34375 -78.3125 Z M 74.6875 -82.5 C 74.6875 -84.40625 74.082031 -85.976562 72.875 -87.21875 C 71.664062 -88.46875 69.925781 -89.09375 67.65625 -89.09375 C 65.59375 -89.09375 63.921875 -88.488281 62.640625 -87.28125 C 61.359375 -86.070312 60.71875 -84.40625 60.71875 -82.28125 C 60.71875 -80.082031 61.394531 -78.429688 62.75 -77.328125 C 64.113281 -76.234375 65.75 -75.6875 67.65625 -75.6875 C 70 -75.6875 71.753906 -76.328125 72.921875 -77.609375 C 74.097656 -78.890625 74.6875 -80.519531 74.6875 -82.5 Z M 28.59375 -19.578125 C 26.394531 -19.578125 24.617188 -18.9375 23.265625 -17.65625 C 21.910156 -16.375 21.234375 -14.445312 21.234375 -11.875 C 21.234375 -10.039062 21.800781 -8.390625 22.9375 -6.921875 C 24.070312 -5.460938 25.992188 -4.734375 28.703125 -4.734375 C 30.910156 -4.734375 32.726562 -5.375 34.15625 -6.65625 C 35.582031 -7.9375 36.296875 -9.675781 36.296875 -11.875 C 36.296875 -14.226562 35.691406 -16.097656 34.484375 -17.484375 C 33.273438 -18.878906 31.3125 -19.578125 28.59375 -19.578125 Z M 28.59375 -19.578125 "/>
</symbol>
</g>
</defs>
  <g id="id0:id0" transform="matrix(1.25,0,0,1.25,0.0,8.5546875)"><g id="id0:surface1">
<g style="fill:rgb(0%,0%,0%);fill-opacity:1;">
  <use xlink:href="#id0:glyph0-1" x="16" y="111.671875"/>
  <use xlink:href="#id0:glyph0-2" x="108.515625" y="111.671875"/>
</g>
</g>
</g>
  <g id="id1:id1" transform="matrix(1.25,0,0,1.25,155.64453125,0.0)"><g id="id1:surface1">
<g style="fill:rgb(0%,0%,0%);fill-opacity:1;">
  <use xlink:href="#id1:glyph0-1" x="0" y="120.84375"/>
</g>
</g>
</g>
  <g id="id2:id2" transform="matrix(1.25,0,0,1.25,288.2421875,8.5546875)"><g id="id2:surface1">
<g style="fill:rgb(0%,0%,0%);fill-opacity:1;">
  <use xlink:href="#id2:glyph0-1" x="16" y="111.671875"/>
</g>
</g>
</g>
</svg>
