<!DOCTYPE svg PUBLIC "-//W3C//DTD SVG 1.1//EN" "http://www.w3.org/Graphics/SVG/1.1/DTD/svg11.dtd">
<!-- Created with svg_stack (http://github.com/astraw/svg_stack) --><svg xmlns="http://www.w3.org/2000/svg" xmlns:sodipodi="http://sodipodi.sourceforge.net/DTD/sodipodi-0.dtd" xmlns:xlink="http://www.w3.org/1999/xlink" version="1.1" width="100%" id="sinhala-psts" viewBox="0 0 472.05078125 201.40625">
  <defs><g>
<symbol overflow="visible" id="sinhala-psts:id0:glyph0-0">
<path style="stroke:none;" d="M 55.546875 -78.546875 L 55.546875 0 L 10.34375 0 L 10.34375 -78.546875 Z M 49.9375 -72.9375 L 15.953125 -72.9375 L 15.953125 -5.609375 L 49.9375 -5.609375 Z M 49.9375 -72.9375 "/>
</symbol>
<symbol overflow="visible" id="sinhala-psts:id0:glyph0-1">
<path style="stroke:none;" d="M 37.84375 1.09375 C 27.207031 1.09375 18.992188 -1.78125 13.203125 -7.53125 C 7.410156 -13.289062 4.515625 -21.117188 4.515625 -31.015625 C 4.515625 -38.640625 6.582031 -45.144531 10.71875 -50.53125 C 14.863281 -55.925781 20.382812 -59.578125 27.28125 -61.484375 C 32.632812 -65.296875 37.835938 -69.179688 42.890625 -73.140625 C 47.953125 -77.109375 52.609375 -80.90625 56.859375 -84.53125 C 61.117188 -88.164062 64.753906 -91.375 67.765625 -94.15625 L 73.046875 -88 C 70.472656 -85.65625 67.316406 -83.035156 63.578125 -80.140625 C 59.835938 -77.242188 55.878906 -74.289062 51.703125 -71.28125 C 47.523438 -68.269531 43.453125 -65.484375 39.484375 -62.921875 C 46.015625 -62.703125 51.660156 -61.144531 56.421875 -58.25 C 61.191406 -55.351562 64.84375 -51.535156 67.375 -46.796875 C 69.90625 -42.066406 71.171875 -36.804688 71.171875 -31.015625 C 71.171875 -20.753906 68.179688 -12.835938 62.203125 -7.265625 C 56.222656 -1.691406 48.101562 1.09375 37.84375 1.09375 Z M 37.953125 -10.453125 C 42.566406 -10.453125 46.875 -11.179688 50.875 -12.640625 C 54.875 -14.109375 58.097656 -16.566406 60.546875 -20.015625 C 63.003906 -23.460938 64.234375 -28.15625 64.234375 -34.09375 C 64.234375 -39.15625 62.988281 -43.425781 60.5 -46.90625 C 58.007812 -50.394531 54.765625 -53.019531 50.765625 -54.78125 C 46.765625 -56.539062 42.457031 -57.421875 37.84375 -57.421875 C 33 -57.421875 28.578125 -56.484375 24.578125 -54.609375 C 20.585938 -52.742188 17.398438 -50.050781 15.015625 -46.53125 C 12.628906 -43.007812 11.4375 -38.753906 11.4375 -33.765625 C 11.4375 -27.972656 12.679688 -23.367188 15.171875 -19.953125 C 17.671875 -16.546875 20.9375 -14.109375 24.96875 -12.640625 C 29 -11.179688 33.328125 -10.453125 37.953125 -10.453125 Z M 37.953125 -10.453125 "/>
</symbol>
<symbol overflow="visible" id="sinhala-psts:id0:glyph0-2">
<path style="stroke:none;" d="M 20.796875 19.90625 C 17.421875 19.90625 14.320312 19.300781 11.5 18.09375 C 8.675781 16.882812 6.421875 15.066406 4.734375 12.640625 C 3.046875 10.222656 2.203125 7.179688 2.203125 3.515625 C 2.203125 -0.367188 3.265625 -3.847656 5.390625 -6.921875 C 7.515625 -10.003906 10.28125 -12.773438 13.6875 -15.234375 C 17.101562 -17.691406 20.644531 -19.875 24.3125 -21.78125 C 22.625 -21.5625 20.71875 -21.394531 18.59375 -21.28125 C 16.46875 -21.175781 13.609375 -21.125 10.015625 -21.125 L 5.390625 -21.125 L 3.1875 -27.0625 C 6.5625 -29.113281 9.84375 -31.019531 13.03125 -32.78125 C 16.21875 -34.539062 19.5 -36.191406 22.875 -37.734375 C 21.113281 -37.515625 19.078125 -37.367188 16.765625 -37.296875 C 14.460938 -37.222656 12.140625 -37.1875 9.796875 -37.1875 L 1.09375 -37.1875 L 1.09375 -43.015625 L 27.609375 -43.015625 L 30.03125 -36.515625 C 27.539062 -34.753906 24.5 -32.957031 20.90625 -31.125 C 17.3125 -29.289062 13.609375 -27.566406 9.796875 -25.953125 C 13.753906 -26.398438 17.820312 -26.625 22 -26.625 L 27.5 -26.625 L 30.03125 -20.34375 C 25.550781 -17.488281 21.972656 -14.90625 19.296875 -12.59375 C 16.628906 -10.28125 14.707031 -7.929688 13.53125 -5.546875 C 12.351562 -3.171875 11.765625 -0.515625 11.765625 2.421875 C 11.765625 5.941406 12.863281 8.707031 15.0625 10.71875 C 17.269531 12.738281 20.28125 13.75 24.09375 13.75 C 26.21875 13.75 28.03125 13.488281 29.53125 12.96875 C 31.039062 12.457031 32.675781 11.617188 34.4375 10.453125 L 36.953125 15.296875 C 34.535156 16.828125 32.039062 17.976562 29.46875 18.75 C 26.90625 19.519531 24.015625 19.90625 20.796875 19.90625 Z M 20.796875 19.90625 "/>
</symbol>
</g>
<g>
<symbol overflow="visible" id="sinhala-psts:id1:glyph0-0">
<path style="stroke:none;" d="M 5.375 -96.6875 L 69.828125 -96.6875 L 69.828125 0 L 5.375 0 Z M 8.0625 -2.6875 L 67.140625 -2.6875 L 67.140625 -94 L 8.0625 -94 Z M 8.0625 -2.6875 "/>
</symbol>
<symbol overflow="visible" id="sinhala-psts:id1:glyph0-1">
<path style="stroke:none;" d="M 68.15625 -13.75 L 66.28125 -18.640625 L 88.09375 -27.390625 L 6.984375 -27.390625 L 6.984375 -34 L 88.09375 -34 L 66.28125 -42.75 L 68.15625 -47.640625 L 99.09375 -34.265625 L 99.09375 -27.125 Z M 68.15625 -13.75 "/>
</symbol>
</g>
<g>
<symbol overflow="visible" id="sinhala-psts:id2:glyph0-0">
<path style="stroke:none;" d="M 55.546875 -78.546875 L 55.546875 0 L 10.34375 0 L 10.34375 -78.546875 Z M 49.9375 -72.9375 L 15.953125 -72.9375 L 15.953125 -5.609375 L 49.9375 -5.609375 Z M 49.9375 -72.9375 "/>
</symbol>
<symbol overflow="visible" id="sinhala-psts:id2:glyph0-1">
<path style="stroke:none;" d="M 37.84375 1.09375 C 27.207031 1.09375 18.992188 -1.78125 13.203125 -7.53125 C 7.410156 -13.289062 4.515625 -21.117188 4.515625 -31.015625 C 4.515625 -38.640625 6.601562 -45.144531 10.78125 -50.53125 C 14.957031 -55.925781 20.457031 -59.578125 27.28125 -61.484375 C 35.050781 -66.910156 41.960938 -72.117188 48.015625 -77.109375 C 54.066406 -82.097656 59.398438 -86.644531 64.015625 -90.75 L 81.625 -90.75 L 85.359375 -86.125 C 83.234375 -83.414062 81.125 -80.90625 79.03125 -78.59375 C 76.945312 -76.28125 74.765625 -74.023438 72.484375 -71.828125 C 75.054688 -72.046875 77.660156 -72.15625 80.296875 -72.15625 L 87.453125 -72.15625 L 90.859375 -67.3125 C 87.847656 -62.914062 84.910156 -58.222656 82.046875 -53.234375 C 79.191406 -48.253906 76.847656 -43.160156 75.015625 -37.953125 C 73.179688 -32.742188 72.265625 -27.460938 72.265625 -22.109375 C 72.265625 -18.148438 72.796875 -15.109375 73.859375 -12.984375 C 74.921875 -10.859375 76.296875 -9.390625 77.984375 -8.578125 C 79.671875 -7.773438 81.503906 -7.375 83.484375 -7.375 C 86.640625 -7.375 89.039062 -8.34375 90.6875 -10.28125 C 92.34375 -12.226562 93.460938 -15.328125 94.046875 -19.578125 L 99.65625 -18.59375 C 98.925781 -12.5 97.128906 -7.691406 94.265625 -4.171875 C 91.410156 -0.660156 87.523438 1.09375 82.609375 1.09375 C 78.722656 1.09375 75.273438 0.0507812 72.265625 -2.03125 C 69.265625 -4.125 67.25 -8.03125 66.21875 -13.75 C 61.15625 -3.851562 51.695312 1.09375 37.84375 1.09375 Z M 70.515625 -84.921875 L 68.640625 -84.921875 C 64.171875 -81.253906 59.40625 -77.492188 54.34375 -73.640625 C 49.28125 -69.796875 44.289062 -66.222656 39.375 -62.921875 C 47.519531 -62.628906 54.117188 -60.445312 59.171875 -56.375 C 64.234375 -52.300781 67.535156 -47.003906 69.078125 -40.484375 C 70.910156 -45.535156 73.21875 -50.207031 76 -54.5 C 78.789062 -58.789062 81.617188 -62.988281 84.484375 -67.09375 C 82.648438 -66.945312 80.664062 -66.835938 78.53125 -66.765625 C 76.40625 -66.691406 74.351562 -66.65625 72.375 -66.65625 L 67.765625 -66.65625 L 65.015625 -70.625 C 66.921875 -72.96875 69.046875 -75.421875 71.390625 -77.984375 C 73.734375 -80.554688 76.082031 -82.976562 78.4375 -85.25 C 76.226562 -85.03125 73.585938 -84.921875 70.515625 -84.921875 Z M 37.953125 -10.453125 C 42.566406 -10.453125 46.875 -11.179688 50.875 -12.640625 C 54.875 -14.109375 58.097656 -16.566406 60.546875 -20.015625 C 63.003906 -23.460938 64.234375 -28.15625 64.234375 -34.09375 C 64.234375 -39.15625 62.988281 -43.425781 60.5 -46.90625 C 58.007812 -50.394531 54.765625 -53.019531 50.765625 -54.78125 C 46.765625 -56.539062 42.457031 -57.421875 37.84375 -57.421875 C 33 -57.421875 28.578125 -56.484375 24.578125 -54.609375 C 20.585938 -52.742188 17.398438 -50.050781 15.015625 -46.53125 C 12.628906 -43.007812 11.4375 -38.753906 11.4375 -33.765625 C 11.4375 -27.972656 12.679688 -23.367188 15.171875 -19.953125 C 17.671875 -16.546875 20.9375 -14.109375 24.96875 -12.640625 C 29 -11.179688 33.328125 -10.453125 37.953125 -10.453125 Z M 37.953125 -10.453125 "/>
</symbol>
</g>
</defs>
  <g id="sinhala-psts:id0:id0" transform="matrix(1.25,0,0,1.25,0.0,8.5546875)"><g id="sinhala-psts:id0:surface1">
<g style="fill:rgb(0%,0%,0%);fill-opacity:1;">
  <use xlink:href="#sinhala-psts:id0:glyph0-1" x="16" y="111.671875" class="c0"/>
  <use xlink:href="#sinhala-psts:id0:glyph0-2" x="90.796875" y="111.671875" class="c1"/>
</g>
</g>
</g>
  <g id="sinhala-psts:id1:id1" transform="matrix(1.25,0,0,1.25,174.609375,0.0)"><g id="sinhala-psts:id1:surface1">
<g style="fill:rgb(0%,0%,0%);fill-opacity:1;">
  <use xlink:href="#sinhala-psts:id1:glyph0-1" x="0" y="120.84375" class="arrow"/>
</g>
</g>
</g>
  <g id="sinhala-psts:id2:id2" transform="matrix(1.25,0,0,1.25,307.20703125,8.5546875)"><g id="sinhala-psts:id2:surface1">
<g style="fill:rgb(0%,0%,0%);fill-opacity:1;">
  <use xlink:href="#sinhala-psts:id2:glyph0-1" x="16" y="111.671875" class="c2"/>
</g>
</g>
</g>
</svg>
