<?xml version="1.0" standalone="no"?>
<!DOCTYPE svg PUBLIC "-//W3C//DTD SVG 1.1//EN"
 "http://www.w3.org/Graphics/SVG/1.1/DTD/svg11.dtd">
<!-- Created with svg_stack (http://github.com/astraw/svg_stack) -->
<svg xmlns="http://www.w3.org/2000/svg" xmlns:sodipodi="http://sodipodi.sourceforge.net/DTD/sodipodi-0.dtd" xmlns:xlink="http://www.w3.org/1999/xlink" version="1.1" width="427.63671875" height="201.40625">
  <defs><g>
<symbol overflow="visible" id="id0:glyph0-0">
<path style="stroke:none;" d="M 10.34375 -78.546875 L 55.546875 -78.546875 L 55.546875 0 L 10.34375 0 Z M 49.9375 -5.609375 L 49.9375 -72.9375 L 15.953125 -72.9375 L 15.953125 -5.609375 Z M 49.9375 -5.609375 "/>
</symbol>
<symbol overflow="visible" id="id0:glyph0-1">
<path style="stroke:none;" d="M 37.953125 1.09375 C 31.128906 1.09375 25.207031 -0.0546875 20.1875 -2.359375 C 15.164062 -4.671875 11.28125 -8.082031 8.53125 -12.59375 C 5.78125 -17.101562 4.40625 -22.660156 4.40625 -29.265625 C 4.40625 -34.835938 5.648438 -39.566406 8.140625 -43.453125 C 10.628906 -47.335938 14.09375 -50.304688 18.53125 -52.359375 C 22.96875 -54.410156 28.117188 -55.4375 33.984375 -55.4375 C 36.335938 -55.4375 38.578125 -55.304688 40.703125 -55.046875 C 42.828125 -54.796875 44.695312 -54.488281 46.3125 -54.125 L 45.203125 -48.515625 C 43.523438 -48.878906 41.675781 -49.171875 39.65625 -49.390625 C 37.632812 -49.609375 35.632812 -49.71875 33.65625 -49.71875 C 26.03125 -49.71875 20.363281 -47.992188 16.65625 -44.546875 C 12.957031 -41.097656 11.109375 -36.476562 11.109375 -30.6875 C 11.109375 -23.789062 13.5625 -18.691406 18.46875 -15.390625 C 23.382812 -12.097656 29.953125 -10.453125 38.171875 -10.453125 C 45.140625 -10.453125 50.96875 -11.441406 55.65625 -13.421875 C 60.351562 -15.398438 64.09375 -18.039062 66.875 -21.34375 C 69.664062 -24.644531 71.664062 -28.347656 72.875 -32.453125 C 74.082031 -36.554688 74.6875 -40.695312 74.6875 -44.875 C 74.6875 -50.75 73.859375 -55.8125 72.203125 -60.0625 C 70.554688 -64.3125 68.269531 -67.90625 65.34375 -70.84375 C 63.875 -68.125 62 -65.828125 59.71875 -63.953125 C 57.445312 -62.085938 54.476562 -61.15625 50.8125 -61.15625 C 47.664062 -61.15625 45.117188 -61.832031 43.171875 -63.1875 C 41.234375 -64.550781 39.710938 -66.367188 38.609375 -68.640625 C 37.503906 -70.910156 36.625 -73.332031 35.96875 -75.90625 C 35.382812 -78.175781 34.742188 -79.820312 34.046875 -80.84375 C 33.347656 -81.875 32.671875 -82.609375 32.015625 -83.046875 C 31.273438 -83.117188 30.503906 -83.15625 29.703125 -83.15625 L 30.46875 -89.3125 C 37.507812 -88.800781 44.109375 -87.570312 50.265625 -85.625 C 56.429688 -83.6875 61.878906 -80.921875 66.609375 -77.328125 C 71.335938 -73.734375 75.019531 -69.203125 77.65625 -63.734375 C 80.300781 -58.273438 81.625 -51.804688 81.625 -44.328125 C 81.625 -35.597656 80.0625 -27.804688 76.9375 -20.953125 C 73.820312 -14.097656 69.035156 -8.707031 62.578125 -4.78125 C 56.128906 -0.863281 47.921875 1.09375 37.953125 1.09375 Z M 42.015625 -76.5625 C 42.828125 -73.550781 43.945312 -71.347656 45.375 -69.953125 C 46.800781 -68.566406 48.875 -67.875 51.59375 -67.875 C 53.644531 -67.875 55.398438 -68.441406 56.859375 -69.578125 C 58.328125 -70.710938 59.578125 -72.414062 60.609375 -74.6875 C 57.597656 -76.738281 54.273438 -78.367188 50.640625 -79.578125 C 47.015625 -80.796875 43.222656 -81.695312 39.265625 -82.28125 C 40.441406 -80.738281 41.359375 -78.832031 42.015625 -76.5625 Z M 42.015625 -76.5625 "/>
</symbol>
<symbol overflow="visible" id="id0:glyph0-2">
<path style="stroke:none;" d="M -34.09375 -95.15625 C -29.113281 -95.15625 -24.972656 -94.53125 -21.671875 -93.28125 C -18.367188 -92.03125 -15.742188 -90.394531 -13.796875 -88.375 C -11.859375 -86.363281 -10.484375 -84.164062 -9.671875 -81.78125 C -8.867188 -79.394531 -8.46875 -77.101562 -8.46875 -74.90625 C -8.46875 -71.09375 -9.085938 -67.976562 -10.328125 -65.5625 C -11.578125 -63.144531 -13.117188 -60.976562 -14.953125 -59.0625 L -19.6875 -63.140625 C -18.21875 -64.316406 -16.96875 -65.765625 -15.9375 -67.484375 C -14.914062 -69.203125 -14.40625 -71.457031 -14.40625 -74.25 C -14.40625 -76.445312 -15.03125 -78.585938 -16.28125 -80.671875 C -17.53125 -82.765625 -19.582031 -84.507812 -22.4375 -85.90625 C -25.300781 -87.300781 -29.1875 -88 -34.09375 -88 C -40.695312 -88 -45.390625 -86.785156 -48.171875 -84.359375 C -50.960938 -81.941406 -52.359375 -79.050781 -52.359375 -75.6875 C -52.359375 -72.894531 -51.53125 -70.507812 -49.875 -68.53125 C -48.226562 -66.550781 -45.460938 -65.304688 -41.578125 -64.796875 C -42.753906 -65.742188 -43.578125 -66.820312 -44.046875 -68.03125 C -44.523438 -69.238281 -44.765625 -70.503906 -44.765625 -71.828125 C -44.765625 -74.691406 -43.738281 -76.984375 -41.6875 -78.703125 C -39.632812 -80.429688 -36.957031 -81.296875 -33.65625 -81.296875 C -29.988281 -81.296875 -27.164062 -80.300781 -25.1875 -78.3125 C -23.207031 -76.332031 -22.21875 -73.84375 -22.21875 -70.84375 C -22.21875 -67.46875 -23.554688 -64.679688 -26.234375 -62.484375 C -28.910156 -60.285156 -32.78125 -59.1875 -37.84375 -59.1875 C -44.738281 -59.1875 -49.90625 -60.757812 -53.34375 -63.90625 C -56.789062 -67.0625 -58.515625 -71.207031 -58.515625 -76.34375 C -58.515625 -79.863281 -57.578125 -83.050781 -55.703125 -85.90625 C -53.835938 -88.769531 -51.085938 -91.023438 -47.453125 -92.671875 C -43.828125 -94.328125 -39.375 -95.15625 -34.09375 -95.15625 Z M -38.71875 -70.625 C -38.71875 -69.15625 -38.296875 -67.941406 -37.453125 -66.984375 C -36.609375 -66.035156 -35.304688 -65.5625 -33.546875 -65.5625 C -32.078125 -65.5625 -30.847656 -66.019531 -29.859375 -66.9375 C -28.867188 -67.851562 -28.375 -69.117188 -28.375 -70.734375 C -28.375 -72.046875 -28.738281 -73.21875 -29.46875 -74.25 C -30.207031 -75.28125 -31.53125 -75.796875 -33.4375 -75.796875 C -35.125 -75.796875 -36.425781 -75.335938 -37.34375 -74.421875 C -38.257812 -73.503906 -38.71875 -72.238281 -38.71875 -70.625 Z M -38.71875 -70.625 "/>
</symbol>
</g>
<g>
<symbol overflow="visible" id="id1:glyph0-0">
<path style="stroke:none;" d="M 5.375 -96.6875 L 69.828125 -96.6875 L 69.828125 0 L 5.375 0 Z M 8.0625 -2.6875 L 67.140625 -2.6875 L 67.140625 -94 L 8.0625 -94 Z M 8.0625 -2.6875 "/>
</symbol>
<symbol overflow="visible" id="id1:glyph0-1">
<path style="stroke:none;" d="M 68.15625 -13.75 L 66.28125 -18.640625 L 88.09375 -27.390625 L 6.984375 -27.390625 L 6.984375 -34 L 88.09375 -34 L 66.28125 -42.75 L 68.15625 -47.640625 L 99.09375 -34.265625 L 99.09375 -27.125 Z M 68.15625 -13.75 "/>
</symbol>
</g>
<g>
<symbol overflow="visible" id="id2:glyph0-0">
<path style="stroke:none;" d="M 10.34375 -78.546875 L 55.546875 -78.546875 L 55.546875 0 L 10.34375 0 Z M 49.9375 -5.609375 L 49.9375 -72.9375 L 15.953125 -72.9375 L 15.953125 -5.609375 Z M 49.9375 -5.609375 "/>
</symbol>
<symbol overflow="visible" id="id2:glyph0-1">
<path style="stroke:none;" d="M 37.953125 1.09375 C 31.128906 1.09375 25.207031 -0.0546875 20.1875 -2.359375 C 15.164062 -4.671875 11.28125 -8.082031 8.53125 -12.59375 C 5.78125 -17.101562 4.40625 -22.660156 4.40625 -29.265625 C 4.40625 -34.835938 5.648438 -39.566406 8.140625 -43.453125 C 10.628906 -47.335938 14.09375 -50.304688 18.53125 -52.359375 C 22.96875 -54.410156 28.117188 -55.4375 33.984375 -55.4375 C 36.335938 -55.4375 38.578125 -55.304688 40.703125 -55.046875 C 42.828125 -54.796875 44.695312 -54.488281 46.3125 -54.125 L 45.203125 -48.515625 C 43.523438 -48.878906 41.675781 -49.171875 39.65625 -49.390625 C 37.632812 -49.609375 35.632812 -49.71875 33.65625 -49.71875 C 26.03125 -49.71875 20.363281 -47.992188 16.65625 -44.546875 C 12.957031 -41.097656 11.109375 -36.476562 11.109375 -30.6875 C 11.109375 -23.789062 13.5625 -18.691406 18.46875 -15.390625 C 23.382812 -12.097656 29.953125 -10.453125 38.171875 -10.453125 C 45.140625 -10.453125 50.96875 -11.441406 55.65625 -13.421875 C 60.351562 -15.398438 64.09375 -18.039062 66.875 -21.34375 C 69.664062 -24.644531 71.664062 -28.347656 72.875 -32.453125 C 74.082031 -36.554688 74.6875 -40.695312 74.6875 -44.875 C 74.6875 -50.894531 73.84375 -56.007812 72.15625 -60.21875 C 70.46875 -64.4375 68.195312 -67.976562 65.34375 -70.84375 C 63.875 -68.125 62 -65.828125 59.71875 -63.953125 C 57.445312 -62.085938 54.476562 -61.15625 50.8125 -61.15625 C 46.925781 -61.15625 43.972656 -62.144531 41.953125 -64.125 C 39.941406 -66.101562 38.390625 -68.5625 37.296875 -71.5 C 36.046875 -70.175781 34.394531 -69.128906 32.34375 -68.359375 C 30.289062 -67.585938 27.832031 -67.203125 24.96875 -67.203125 C 18.070312 -67.203125 12.898438 -68.78125 9.453125 -71.9375 C 6.015625 -75.09375 4.296875 -79.238281 4.296875 -84.375 C 4.296875 -87.894531 5.226562 -91.082031 7.09375 -93.9375 C 8.96875 -96.800781 11.71875 -99.054688 15.34375 -100.703125 C 18.976562 -102.359375 23.429688 -103.1875 28.703125 -103.1875 C 34.941406 -103.1875 39.894531 -102.226562 43.5625 -100.3125 C 47.226562 -98.40625 49.867188 -96.003906 51.484375 -93.109375 C 53.097656 -90.210938 54.015625 -87.226562 54.234375 -84.15625 C 59.660156 -82.019531 64.425781 -79.175781 68.53125 -75.625 C 72.632812 -72.070312 75.84375 -67.707031 78.15625 -62.53125 C 80.46875 -57.363281 81.625 -51.296875 81.625 -44.328125 C 81.625 -35.597656 80.0625 -27.804688 76.9375 -20.953125 C 73.820312 -14.097656 69.035156 -8.707031 62.578125 -4.78125 C 56.128906 -0.863281 47.921875 1.09375 37.953125 1.09375 Z M 10.453125 -83.703125 C 10.453125 -80.921875 11.273438 -78.539062 12.921875 -76.5625 C 14.578125 -74.582031 17.347656 -73.332031 21.234375 -72.8125 C 20.054688 -73.769531 19.226562 -74.851562 18.75 -76.0625 C 18.28125 -77.269531 18.046875 -78.535156 18.046875 -79.859375 C 18.046875 -82.722656 19.070312 -85.015625 21.125 -86.734375 C 23.175781 -88.453125 25.851562 -89.3125 29.15625 -89.3125 C 30.03125 -89.3125 30.875 -89.238281 31.6875 -89.09375 C 37.476562 -88.65625 42.863281 -87.738281 47.84375 -86.34375 C 46.820312 -89.0625 44.804688 -91.351562 41.796875 -93.21875 C 38.796875 -95.09375 34.429688 -96.03125 28.703125 -96.03125 C 22.253906 -96.03125 17.597656 -94.816406 14.734375 -92.390625 C 11.878906 -89.972656 10.453125 -87.078125 10.453125 -83.703125 Z M 24.09375 -78.65625 C 24.09375 -77.1875 24.515625 -75.972656 25.359375 -75.015625 C 26.203125 -74.066406 27.503906 -73.59375 29.265625 -73.59375 C 30.722656 -73.59375 31.945312 -74.050781 32.9375 -74.96875 C 33.9375 -75.882812 34.4375 -77.148438 34.4375 -78.765625 C 34.4375 -80.078125 34.066406 -81.242188 33.328125 -82.265625 C 32.597656 -83.296875 31.28125 -83.8125 29.375 -83.8125 C 27.6875 -83.8125 26.382812 -83.351562 25.46875 -82.4375 C 24.550781 -81.519531 24.09375 -80.257812 24.09375 -78.65625 Z M 42.015625 -76.5625 C 42.828125 -73.550781 43.945312 -71.347656 45.375 -69.953125 C 46.800781 -68.566406 48.875 -67.875 51.59375 -67.875 C 53.644531 -67.875 55.398438 -68.441406 56.859375 -69.578125 C 58.328125 -70.710938 59.578125 -72.453125 60.609375 -74.796875 C 57.523438 -76.847656 54.164062 -78.460938 50.53125 -79.640625 C 46.90625 -80.816406 43.257812 -81.695312 39.59375 -82.28125 C 39.664062 -82.0625 39.703125 -81.84375 39.703125 -81.625 C 40.734375 -80.226562 41.503906 -78.539062 42.015625 -76.5625 Z M 42.015625 -76.5625 "/>
</symbol>
</g>
</defs>
  <g id="id0:id0" transform="matrix(1.25,0,0,1.25,0.0,8.5546875)"><g id="id0:surface1">
<g style="fill:rgb(0%,0%,0%);fill-opacity:1;">
  <use xlink:href="#id0:glyph0-1" x="16" y="111.671875"/>
  <use xlink:href="#id0:glyph0-2" x="102.015625" y="111.671875"/>
</g>
</g>
</g>
  <g id="id1:id1" transform="matrix(1.25,0,0,1.25,147.51953125,0.0)"><g id="id1:surface1">
<g style="fill:rgb(0%,0%,0%);fill-opacity:1;">
  <use xlink:href="#id1:glyph0-1" x="0" y="120.84375"/>
</g>
</g>
</g>
  <g id="id2:id2" transform="matrix(1.25,0,0,1.25,280.1171875,8.5546875)"><g id="id2:surface1">
<g style="fill:rgb(0%,0%,0%);fill-opacity:1;">
  <use xlink:href="#id2:glyph0-1" x="16" y="111.671875"/>
</g>
</g>
</g>
</svg>
