<!DOCTYPE svg PUBLIC "-//W3C//DTD SVG 1.1//EN" "http://www.w3.org/Graphics/SVG/1.1/DTD/svg11.dtd">
<!-- Created with svg_stack (http://github.com/astraw/svg_stack) --><svg xmlns="http://www.w3.org/2000/svg" xmlns:sodipodi="http://sodipodi.sourceforge.net/DTD/sodipodi-0.dtd" xmlns:xlink="http://www.w3.org/1999/xlink" version="1.1" width="960.8984375" height="201.40625" id="sinhala-reph-position">
  <defs><g>
<symbol overflow="visible" id="sinhala-reph-position:id0:glyph0-0">
<path style="stroke:none;" d="M 10.34375 -78.546875 L 55.546875 -78.546875 L 55.546875 0 L 10.34375 0 Z M 49.9375 -5.609375 L 49.9375 -72.9375 L 15.953125 -72.9375 L 15.953125 -5.609375 Z M 49.9375 -5.609375 "/>
</symbol>
<symbol overflow="visible" id="sinhala-reph-position:id0:glyph0-1">
<path style="stroke:none;" d="M -34.09375 -95.15625 C -29.113281 -95.15625 -24.972656 -94.53125 -21.671875 -93.28125 C -18.367188 -92.03125 -15.742188 -90.394531 -13.796875 -88.375 C -11.859375 -86.363281 -10.484375 -84.164062 -9.671875 -81.78125 C -8.867188 -79.394531 -8.46875 -77.101562 -8.46875 -74.90625 C -8.46875 -71.09375 -9.085938 -67.976562 -10.328125 -65.5625 C -11.578125 -63.144531 -13.117188 -60.976562 -14.953125 -59.0625 L -19.6875 -63.140625 C -18.21875 -64.316406 -16.96875 -65.765625 -15.9375 -67.484375 C -14.914062 -69.203125 -14.40625 -71.457031 -14.40625 -74.25 C -14.40625 -76.445312 -15.03125 -78.585938 -16.28125 -80.671875 C -17.53125 -82.765625 -19.582031 -84.507812 -22.4375 -85.90625 C -25.300781 -87.300781 -29.1875 -88 -34.09375 -88 C -40.695312 -88 -45.390625 -86.785156 -48.171875 -84.359375 C -50.960938 -81.941406 -52.359375 -79.050781 -52.359375 -75.6875 C -52.359375 -72.894531 -51.53125 -70.507812 -49.875 -68.53125 C -48.226562 -66.550781 -45.460938 -65.304688 -41.578125 -64.796875 C -42.753906 -65.742188 -43.578125 -66.820312 -44.046875 -68.03125 C -44.523438 -69.238281 -44.765625 -70.503906 -44.765625 -71.828125 C -44.765625 -74.691406 -43.738281 -76.984375 -41.6875 -78.703125 C -39.632812 -80.429688 -36.957031 -81.296875 -33.65625 -81.296875 C -29.988281 -81.296875 -27.164062 -80.300781 -25.1875 -78.3125 C -23.207031 -76.332031 -22.21875 -73.84375 -22.21875 -70.84375 C -22.21875 -67.46875 -23.554688 -64.679688 -26.234375 -62.484375 C -28.910156 -60.285156 -32.78125 -59.1875 -37.84375 -59.1875 C -44.738281 -59.1875 -49.90625 -60.757812 -53.34375 -63.90625 C -56.789062 -67.0625 -58.515625 -71.207031 -58.515625 -76.34375 C -58.515625 -79.863281 -57.578125 -83.050781 -55.703125 -85.90625 C -53.835938 -88.769531 -51.085938 -91.023438 -47.453125 -92.671875 C -43.828125 -94.328125 -39.375 -95.15625 -34.09375 -95.15625 Z M -38.71875 -70.625 C -38.71875 -69.15625 -38.296875 -67.941406 -37.453125 -66.984375 C -36.609375 -66.035156 -35.304688 -65.5625 -33.546875 -65.5625 C -32.078125 -65.5625 -30.847656 -66.019531 -29.859375 -66.9375 C -28.867188 -67.851562 -28.375 -69.117188 -28.375 -70.734375 C -28.375 -72.046875 -28.738281 -73.21875 -29.46875 -74.25 C -30.207031 -75.28125 -31.53125 -75.796875 -33.4375 -75.796875 C -35.125 -75.796875 -36.425781 -75.335938 -37.34375 -74.421875 C -38.257812 -73.503906 -38.71875 -72.238281 -38.71875 -70.625 Z M -38.71875 -70.625 "/>
</symbol>
<symbol overflow="visible" id="sinhala-reph-position:id0:glyph0-2">
<path style="stroke:none;" d="M 38.171875 -56.09375 C 38.171875 -53.382812 36.882812 -52.03125 34.3125 -52.03125 C 31.601562 -52.03125 30.25 -53.382812 30.25 -56.09375 C 30.25 -58.738281 31.601562 -60.0625 34.3125 -60.0625 C 36.882812 -60.0625 38.171875 -58.738281 38.171875 -56.09375 Z M 20.453125 -49.171875 C 20.453125 -46.523438 19.097656 -45.203125 16.390625 -45.203125 C 13.753906 -45.203125 12.4375 -46.523438 12.4375 -49.171875 C 12.4375 -51.878906 13.753906 -53.234375 16.390625 -53.234375 C 19.097656 -53.234375 20.453125 -51.878906 20.453125 -49.171875 Z M 55.984375 -49.171875 C 55.984375 -46.523438 54.664062 -45.203125 52.03125 -45.203125 C 49.382812 -45.203125 48.0625 -46.523438 48.0625 -49.171875 C 48.0625 -51.878906 49.382812 -53.234375 52.03125 -53.234375 C 54.664062 -53.234375 55.984375 -51.878906 55.984375 -49.171875 Z M 62.046875 -31.90625 C 62.046875 -29.257812 60.757812 -27.9375 58.1875 -27.9375 C 55.476562 -27.9375 54.125 -29.257812 54.125 -31.90625 C 54.125 -34.613281 55.476562 -35.96875 58.1875 -35.96875 C 60.757812 -35.96875 62.046875 -34.613281 62.046875 -31.90625 Z M 14.1875 -31.90625 C 14.1875 -29.257812 12.90625 -27.9375 10.34375 -27.9375 C 7.625 -27.9375 6.265625 -29.257812 6.265625 -31.90625 C 6.265625 -34.613281 7.625 -35.96875 10.34375 -35.96875 C 12.90625 -35.96875 14.1875 -34.613281 14.1875 -31.90625 Z M 20.453125 -14.625 C 20.453125 -11.914062 19.097656 -10.5625 16.390625 -10.5625 C 13.753906 -10.5625 12.4375 -11.914062 12.4375 -14.625 C 12.4375 -17.269531 13.753906 -18.59375 16.390625 -18.59375 C 19.097656 -18.59375 20.453125 -17.269531 20.453125 -14.625 Z M 55.984375 -14.625 C 55.984375 -11.914062 54.664062 -10.5625 52.03125 -10.5625 C 49.382812 -10.5625 48.0625 -11.914062 48.0625 -14.625 C 48.0625 -17.269531 49.382812 -18.59375 52.03125 -18.59375 C 54.664062 -18.59375 55.984375 -17.269531 55.984375 -14.625 Z M 38.171875 -7.703125 C 38.171875 -5.054688 36.882812 -3.734375 34.3125 -3.734375 C 31.601562 -3.734375 30.25 -5.054688 30.25 -7.703125 C 30.25 -10.410156 31.601562 -11.765625 34.3125 -11.765625 C 36.882812 -11.765625 38.171875 -10.410156 38.171875 -7.703125 Z M 38.171875 -7.703125 "/>
</symbol>
<symbol overflow="visible" id="sinhala-reph-position:id0:glyph0-3">
<path style="stroke:none;" d="M 37.625 1.09375 C 34.613281 1.09375 31.550781 0.765625 28.4375 0.109375 C 25.320312 -0.546875 22.441406 -1.609375 19.796875 -3.078125 C 17.160156 -4.546875 15.035156 -6.523438 13.421875 -9.015625 C 11.804688 -11.515625 11 -14.597656 11 -18.265625 L 6.703125 -18.921875 L 1.875 -22.65625 C 6.78125 -27.425781 11.453125 -31.9375 15.890625 -36.1875 C 20.328125 -40.4375 24.597656 -44.25 28.703125 -47.625 C 27.535156 -50.488281 26.179688 -52.691406 24.640625 -54.234375 C 23.097656 -55.773438 21.226562 -56.546875 19.03125 -56.546875 C 16.757812 -56.546875 15.203125 -55.753906 14.359375 -54.171875 C 13.515625 -52.597656 13.09375 -51.039062 13.09375 -49.5 C 13.09375 -47.957031 13.253906 -46.597656 13.578125 -45.421875 C 13.910156 -44.253906 14.257812 -43.265625 14.625 -42.453125 L 6.265625 -40.375 C 5.535156 -41.46875 4.929688 -42.835938 4.453125 -44.484375 C 3.972656 -46.140625 3.734375 -47.738281 3.734375 -49.28125 C 3.734375 -53.820312 5.085938 -57.210938 7.796875 -59.453125 C 10.515625 -61.691406 13.894531 -62.8125 17.9375 -62.8125 C 21.75 -62.8125 24.914062 -61.691406 27.4375 -59.453125 C 29.96875 -57.210938 31.96875 -54.519531 33.4375 -51.375 C 38.9375 -55.550781 44.414062 -58.832031 49.875 -61.21875 C 55.34375 -63.601562 61.082031 -64.796875 67.09375 -64.796875 C 73.695312 -64.796875 79.726562 -63.75 85.1875 -61.65625 C 90.65625 -59.5625 95.625 -57.269531 100.09375 -54.78125 L 98.234375 -48.625 C 96.617188 -48.988281 94.96875 -49.257812 93.28125 -49.4375 C 91.59375 -49.625 89.722656 -49.71875 87.671875 -49.71875 C 80.335938 -49.71875 74.835938 -47.992188 71.171875 -44.546875 C 67.503906 -41.097656 65.671875 -36.476562 65.671875 -30.6875 C 65.671875 -23.789062 68.125 -18.691406 73.03125 -15.390625 C 77.945312 -12.097656 84.515625 -10.453125 92.734375 -10.453125 C 99.703125 -10.453125 105.53125 -11.441406 110.21875 -13.421875 C 114.914062 -15.398438 118.65625 -18.039062 121.4375 -21.34375 C 124.226562 -24.644531 126.226562 -28.347656 127.4375 -32.453125 C 128.644531 -36.554688 129.25 -40.695312 129.25 -44.875 C 129.25 -50.75 128.421875 -55.8125 126.765625 -60.0625 C 125.117188 -64.3125 122.832031 -67.90625 119.90625 -70.84375 C 118.4375 -68.125 116.5625 -65.828125 114.28125 -63.953125 C 112.007812 -62.085938 109.039062 -61.15625 105.375 -61.15625 C 102.226562 -61.15625 99.679688 -61.832031 97.734375 -63.1875 C 95.785156 -64.550781 94.257812 -66.367188 93.15625 -68.640625 C 92.0625 -70.910156 91.1875 -73.332031 90.53125 -75.90625 C 89.945312 -78.175781 89.304688 -79.820312 88.609375 -80.84375 C 87.910156 -81.875 87.226562 -82.609375 86.5625 -83.046875 C 85.832031 -83.117188 85.066406 -83.15625 84.265625 -83.15625 L 85.03125 -89.3125 C 92.070312 -88.800781 98.671875 -87.570312 104.828125 -85.625 C 110.984375 -83.6875 116.425781 -80.921875 121.15625 -77.328125 C 125.894531 -73.734375 129.582031 -69.203125 132.21875 -63.734375 C 134.863281 -58.273438 136.1875 -51.804688 136.1875 -44.328125 C 136.1875 -35.597656 134.625 -27.804688 131.5 -20.953125 C 128.382812 -14.097656 123.597656 -8.707031 117.140625 -4.78125 C 110.691406 -0.863281 102.484375 1.09375 92.515625 1.09375 C 85.398438 1.09375 79.328125 -0.148438 74.296875 -2.640625 C 69.273438 -5.128906 65.519531 -8.832031 63.03125 -13.75 C 62.21875 -11.113281 60.875 -8.675781 59 -6.4375 C 57.132812 -4.195312 54.476562 -2.378906 51.03125 -0.984375 C 47.59375 0.398438 43.125 1.09375 37.625 1.09375 Z M 96.578125 -76.5625 C 97.390625 -73.550781 98.507812 -71.347656 99.9375 -69.953125 C 101.363281 -68.566406 103.4375 -67.875 106.15625 -67.875 C 108.207031 -67.875 109.960938 -68.441406 111.421875 -69.578125 C 112.890625 -70.710938 114.140625 -72.414062 115.171875 -74.6875 C 112.160156 -76.738281 108.835938 -78.367188 105.203125 -79.578125 C 101.578125 -80.796875 97.785156 -81.695312 93.828125 -82.28125 C 95.003906 -80.738281 95.921875 -78.832031 96.578125 -76.5625 Z M 66.65625 -58.84375 C 61.75 -58.84375 57.203125 -58.019531 53.015625 -56.375 C 48.835938 -54.726562 44.289062 -52.144531 39.375 -48.625 C 45.46875 -48.550781 50.21875 -47.539062 53.625 -45.59375 C 57.03125 -43.65625 59.503906 -41.328125 61.046875 -38.609375 C 62.660156 -44.109375 65.773438 -48.195312 70.390625 -50.875 C 75.015625 -53.550781 80.703125 -54.890625 87.453125 -54.890625 C 84.222656 -56.140625 80.972656 -57.109375 77.703125 -57.796875 C 74.441406 -58.492188 70.757812 -58.84375 66.65625 -58.84375 Z M 16.609375 -21.890625 C 16.609375 -19.023438 17.597656 -16.75 19.578125 -15.0625 C 21.554688 -13.382812 24.125 -12.195312 27.28125 -11.5 C 30.4375 -10.800781 33.8125 -10.453125 37.40625 -10.453125 C 45.25 -10.453125 50.859375 -11.953125 54.234375 -14.953125 C 57.609375 -17.960938 59.296875 -21.664062 59.296875 -26.0625 C 59.296875 -28.925781 58.707031 -31.640625 57.53125 -34.203125 C 56.351562 -36.773438 54.1875 -38.882812 51.03125 -40.53125 C 47.882812 -42.1875 43.34375 -43.015625 37.40625 -43.015625 C 37.101562 -43.015625 36.457031 -43.015625 35.46875 -43.015625 C 34.476562 -43.015625 33.328125 -42.976562 32.015625 -42.90625 C 28.421875 -40.039062 24.988281 -37.085938 21.71875 -34.046875 C 18.457031 -31.003906 15.320312 -27.90625 12.3125 -24.75 L 16.9375 -24.09375 C 16.863281 -23.570312 16.789062 -23.164062 16.71875 -22.875 C 16.644531 -22.582031 16.609375 -22.253906 16.609375 -21.890625 Z M 16.609375 -21.890625 "/>
</symbol>
<symbol overflow="visible" id="sinhala-reph-position:id0:glyph0-4">
<path style="stroke:none;" d="M 44.21875 1.09375 C 40.988281 1.09375 37.941406 0.5625 35.078125 -0.5 C 32.222656 -1.5625 28.925781 -3.117188 25.1875 -5.171875 C 22.101562 -6.859375 19.625 -7.992188 17.75 -8.578125 C 15.882812 -9.160156 14.222656 -9.453125 12.765625 -9.453125 C 11.441406 -9.453125 10.300781 -9.304688 9.34375 -9.015625 C 8.832031 -7.546875 8.410156 -6.023438 8.078125 -4.453125 C 7.753906 -2.878906 7.554688 -1.25 7.484375 0.4375 L 0.984375 -0.546875 C 1.203125 -4.804688 2.0625 -8.691406 3.5625 -12.203125 C 5.070312 -15.722656 6.867188 -19.039062 8.953125 -22.15625 C 11.046875 -25.28125 13.117188 -28.328125 15.171875 -31.296875 C 17.234375 -34.265625 18.941406 -37.269531 20.296875 -40.3125 C 21.648438 -43.351562 22.328125 -46.5625 22.328125 -49.9375 C 22.328125 -53.164062 21.648438 -55.492188 20.296875 -56.921875 C 18.941406 -58.347656 17.195312 -59.0625 15.0625 -59.0625 C 13.007812 -59.0625 11.394531 -58.398438 10.21875 -57.078125 C 9.050781 -55.765625 8.46875 -53.972656 8.46875 -51.703125 C 8.46875 -48.984375 8.875 -46.488281 9.6875 -44.21875 L 2.75 -42.90625 C 2.238281 -44.070312 1.796875 -45.515625 1.421875 -47.234375 C 1.054688 -48.960938 0.875 -50.414062 0.875 -51.59375 C 0.875 -55.476562 2.140625 -58.648438 4.671875 -61.109375 C 7.203125 -63.566406 10.707031 -64.796875 15.1875 -64.796875 C 19.289062 -64.796875 22.609375 -63.566406 25.140625 -61.109375 C 27.671875 -58.648438 28.9375 -55.035156 28.9375 -50.265625 C 28.9375 -47.117188 28.398438 -44.113281 27.328125 -41.25 C 26.265625 -38.382812 24.890625 -35.578125 23.203125 -32.828125 C 21.523438 -30.078125 19.726562 -27.34375 17.8125 -24.625 C 15.90625 -21.914062 14.1875 -19.097656 12.65625 -16.171875 C 13.96875 -16.609375 15.359375 -16.828125 16.828125 -16.828125 C 18.878906 -16.828125 20.800781 -16.609375 22.59375 -16.171875 C 24.394531 -15.734375 26.800781 -14.851562 29.8125 -13.53125 C 32.082031 -12.570312 34.351562 -11.765625 36.625 -11.109375 C 38.90625 -10.453125 41.328125 -10.125 43.890625 -10.125 C 48.066406 -10.125 51.457031 -11.3125 54.0625 -13.6875 C 56.664062 -16.070312 57.96875 -19.539062 57.96875 -24.09375 C 57.96875 -29.519531 55.914062 -33.953125 51.8125 -37.390625 C 47.707031 -40.835938 41.179688 -42.710938 32.234375 -43.015625 L 32.015625 -43.015625 L 32.015625 -43.453125 C 32.015625 -47.554688 32.765625 -51.222656 34.265625 -54.453125 C 35.765625 -57.679688 37.90625 -60.210938 40.6875 -62.046875 C 43.476562 -63.878906 46.742188 -64.796875 50.484375 -64.796875 C 55.398438 -64.796875 58.972656 -63.546875 61.203125 -61.046875 C 63.441406 -58.554688 64.5625 -55.367188 64.5625 -51.484375 C 64.5625 -49.796875 64.429688 -48.304688 64.171875 -47.015625 C 63.921875 -45.734375 63.613281 -44.617188 63.25 -43.671875 L 57.640625 -45.4375 C 58.003906 -46.238281 58.257812 -47.113281 58.40625 -48.0625 C 58.550781 -49.019531 58.625 -49.863281 58.625 -50.59375 C 58.625 -53.164062 57.800781 -55.070312 56.15625 -56.3125 C 54.507812 -57.5625 52.289062 -58.1875 49.5 -58.1875 C 46.269531 -58.1875 43.753906 -57.269531 41.953125 -55.4375 C 40.160156 -53.601562 38.9375 -51.222656 38.28125 -48.296875 C 42.75 -47.703125 47 -46.46875 51.03125 -44.59375 C 55.070312 -42.726562 58.335938 -40.050781 60.828125 -36.5625 C 63.316406 -33.082031 64.5625 -28.519531 64.5625 -22.875 C 64.5625 -15.539062 62.820312 -9.710938 59.34375 -5.390625 C 55.863281 -1.066406 50.820312 1.09375 44.21875 1.09375 Z M 44.21875 1.09375 "/>
</symbol>
<symbol overflow="visible" id="sinhala-reph-position:id0:glyph0-5">
<path style="stroke:none;" d="M 20.796875 19.90625 C 17.421875 19.90625 14.320312 19.300781 11.5 18.09375 C 8.675781 16.882812 6.421875 15.066406 4.734375 12.640625 C 3.046875 10.222656 2.203125 7.179688 2.203125 3.515625 C 2.203125 -0.367188 3.265625 -3.847656 5.390625 -6.921875 C 7.515625 -10.003906 10.28125 -12.773438 13.6875 -15.234375 C 17.101562 -17.691406 20.644531 -19.875 24.3125 -21.78125 C 22.625 -21.5625 20.71875 -21.394531 18.59375 -21.28125 C 16.46875 -21.175781 13.609375 -21.125 10.015625 -21.125 L 5.390625 -21.125 L 3.1875 -27.0625 C 6.5625 -29.113281 9.84375 -31.019531 13.03125 -32.78125 C 16.21875 -34.539062 19.5 -36.191406 22.875 -37.734375 C 21.113281 -37.515625 19.078125 -37.367188 16.765625 -37.296875 C 14.460938 -37.222656 12.140625 -37.1875 9.796875 -37.1875 L 1.09375 -37.1875 L 1.09375 -43.015625 L 27.609375 -43.015625 L 30.03125 -36.515625 C 27.539062 -34.753906 24.5 -32.957031 20.90625 -31.125 C 17.3125 -29.289062 13.609375 -27.566406 9.796875 -25.953125 C 13.753906 -26.398438 17.820312 -26.625 22 -26.625 L 27.5 -26.625 L 30.03125 -20.34375 C 25.550781 -17.488281 21.972656 -14.90625 19.296875 -12.59375 C 16.628906 -10.28125 14.707031 -7.953125 13.53125 -5.609375 C 12.351562 -3.265625 11.765625 -0.585938 11.765625 2.421875 C 11.765625 5.941406 12.863281 8.707031 15.0625 10.71875 C 17.269531 12.738281 20.28125 13.75 24.09375 13.75 C 26.21875 13.75 28.03125 13.488281 29.53125 12.96875 C 31.039062 12.457031 32.675781 11.617188 34.4375 10.453125 L 36.953125 15.296875 C 34.535156 16.828125 32.039062 17.976562 29.46875 18.75 C 26.90625 19.519531 24.015625 19.90625 20.796875 19.90625 Z M 20.796875 19.90625 "/>
</symbol>
</g>
<g>
<symbol overflow="visible" id="sinhala-reph-position:id1:glyph0-0">
<path style="stroke:none;" d="M 5.375 -96.6875 L 69.828125 -96.6875 L 69.828125 0 L 5.375 0 Z M 8.0625 -2.6875 L 67.140625 -2.6875 L 67.140625 -94 L 8.0625 -94 Z M 8.0625 -2.6875 "/>
</symbol>
<symbol overflow="visible" id="sinhala-reph-position:id1:glyph0-1">
<path style="stroke:none;" d="M 68.15625 -13.75 L 66.28125 -18.640625 L 88.09375 -27.390625 L 6.984375 -27.390625 L 6.984375 -34 L 88.09375 -34 L 66.28125 -42.75 L 68.15625 -47.640625 L 99.09375 -34.265625 L 99.09375 -27.125 Z M 68.15625 -13.75 "/>
</symbol>
</g>
<g>
<symbol overflow="visible" id="sinhala-reph-position:id2:glyph0-0">
<path style="stroke:none;" d="M 10.34375 -78.546875 L 55.546875 -78.546875 L 55.546875 0 L 10.34375 0 Z M 49.9375 -5.609375 L 49.9375 -72.9375 L 15.953125 -72.9375 L 15.953125 -5.609375 Z M 49.9375 -5.609375 "/>
</symbol>
<symbol overflow="visible" id="sinhala-reph-position:id2:glyph0-1">
<path style="stroke:none;" d="M 37.625 1.09375 C 34.613281 1.09375 31.550781 0.765625 28.4375 0.109375 C 25.320312 -0.546875 22.441406 -1.609375 19.796875 -3.078125 C 17.160156 -4.546875 15.035156 -6.523438 13.421875 -9.015625 C 11.804688 -11.515625 11 -14.597656 11 -18.265625 L 6.703125 -18.921875 L 1.875 -22.65625 C 6.78125 -27.425781 11.453125 -31.9375 15.890625 -36.1875 C 20.328125 -40.4375 24.597656 -44.25 28.703125 -47.625 C 27.535156 -50.488281 26.179688 -52.691406 24.640625 -54.234375 C 23.097656 -55.773438 21.226562 -56.546875 19.03125 -56.546875 C 16.757812 -56.546875 15.203125 -55.753906 14.359375 -54.171875 C 13.515625 -52.597656 13.09375 -51.039062 13.09375 -49.5 C 13.09375 -47.957031 13.253906 -46.597656 13.578125 -45.421875 C 13.910156 -44.253906 14.257812 -43.265625 14.625 -42.453125 L 6.265625 -40.375 C 5.535156 -41.46875 4.929688 -42.835938 4.453125 -44.484375 C 3.972656 -46.140625 3.734375 -47.738281 3.734375 -49.28125 C 3.734375 -53.820312 5.085938 -57.210938 7.796875 -59.453125 C 10.515625 -61.691406 13.894531 -62.8125 17.9375 -62.8125 C 21.75 -62.8125 24.914062 -61.691406 27.4375 -59.453125 C 29.96875 -57.210938 31.96875 -54.519531 33.4375 -51.375 C 38.9375 -55.550781 44.414062 -58.832031 49.875 -61.21875 C 55.34375 -63.601562 61.082031 -64.796875 67.09375 -64.796875 C 73.695312 -64.796875 79.726562 -63.75 85.1875 -61.65625 C 90.65625 -59.5625 95.625 -57.269531 100.09375 -54.78125 L 98.234375 -48.625 C 96.617188 -48.988281 94.96875 -49.257812 93.28125 -49.4375 C 91.59375 -49.625 89.722656 -49.71875 87.671875 -49.71875 C 80.335938 -49.71875 74.835938 -47.992188 71.171875 -44.546875 C 67.503906 -41.097656 65.671875 -36.476562 65.671875 -30.6875 C 65.671875 -23.789062 68.125 -18.691406 73.03125 -15.390625 C 77.945312 -12.097656 84.515625 -10.453125 92.734375 -10.453125 C 99.703125 -10.453125 105.53125 -11.441406 110.21875 -13.421875 C 114.914062 -15.398438 118.65625 -18.039062 121.4375 -21.34375 C 124.226562 -24.644531 126.226562 -28.347656 127.4375 -32.453125 C 128.644531 -36.554688 129.25 -40.695312 129.25 -44.875 C 129.25 -50.75 128.421875 -55.8125 126.765625 -60.0625 C 125.117188 -64.3125 122.832031 -67.90625 119.90625 -70.84375 C 118.4375 -68.125 116.5625 -65.828125 114.28125 -63.953125 C 112.007812 -62.085938 109.039062 -61.15625 105.375 -61.15625 C 102.226562 -61.15625 99.679688 -61.832031 97.734375 -63.1875 C 95.785156 -64.550781 94.257812 -66.367188 93.15625 -68.640625 C 92.0625 -70.910156 91.1875 -73.332031 90.53125 -75.90625 C 89.945312 -78.175781 89.304688 -79.820312 88.609375 -80.84375 C 87.910156 -81.875 87.226562 -82.609375 86.5625 -83.046875 C 85.832031 -83.117188 85.066406 -83.15625 84.265625 -83.15625 L 85.03125 -89.3125 C 92.070312 -88.800781 98.671875 -87.570312 104.828125 -85.625 C 110.984375 -83.6875 116.425781 -80.921875 121.15625 -77.328125 C 125.894531 -73.734375 129.582031 -69.203125 132.21875 -63.734375 C 134.863281 -58.273438 136.1875 -51.804688 136.1875 -44.328125 C 136.1875 -35.597656 134.625 -27.804688 131.5 -20.953125 C 128.382812 -14.097656 123.597656 -8.707031 117.140625 -4.78125 C 110.691406 -0.863281 102.484375 1.09375 92.515625 1.09375 C 85.398438 1.09375 79.328125 -0.148438 74.296875 -2.640625 C 69.273438 -5.128906 65.519531 -8.832031 63.03125 -13.75 C 62.21875 -11.113281 60.875 -8.675781 59 -6.4375 C 57.132812 -4.195312 54.476562 -2.378906 51.03125 -0.984375 C 47.59375 0.398438 43.125 1.09375 37.625 1.09375 Z M 96.578125 -76.5625 C 97.390625 -73.550781 98.507812 -71.347656 99.9375 -69.953125 C 101.363281 -68.566406 103.4375 -67.875 106.15625 -67.875 C 108.207031 -67.875 109.960938 -68.441406 111.421875 -69.578125 C 112.890625 -70.710938 114.140625 -72.414062 115.171875 -74.6875 C 112.160156 -76.738281 108.835938 -78.367188 105.203125 -79.578125 C 101.578125 -80.796875 97.785156 -81.695312 93.828125 -82.28125 C 95.003906 -80.738281 95.921875 -78.832031 96.578125 -76.5625 Z M 66.65625 -58.84375 C 61.75 -58.84375 57.203125 -58.019531 53.015625 -56.375 C 48.835938 -54.726562 44.289062 -52.144531 39.375 -48.625 C 45.46875 -48.550781 50.21875 -47.539062 53.625 -45.59375 C 57.03125 -43.65625 59.503906 -41.328125 61.046875 -38.609375 C 62.660156 -44.109375 65.773438 -48.195312 70.390625 -50.875 C 75.015625 -53.550781 80.703125 -54.890625 87.453125 -54.890625 C 84.222656 -56.140625 80.972656 -57.109375 77.703125 -57.796875 C 74.441406 -58.492188 70.757812 -58.84375 66.65625 -58.84375 Z M 16.609375 -21.890625 C 16.609375 -19.023438 17.597656 -16.75 19.578125 -15.0625 C 21.554688 -13.382812 24.125 -12.195312 27.28125 -11.5 C 30.4375 -10.800781 33.8125 -10.453125 37.40625 -10.453125 C 45.25 -10.453125 50.859375 -11.953125 54.234375 -14.953125 C 57.609375 -17.960938 59.296875 -21.664062 59.296875 -26.0625 C 59.296875 -28.925781 58.707031 -31.640625 57.53125 -34.203125 C 56.351562 -36.773438 54.1875 -38.882812 51.03125 -40.53125 C 47.882812 -42.1875 43.34375 -43.015625 37.40625 -43.015625 C 37.101562 -43.015625 36.457031 -43.015625 35.46875 -43.015625 C 34.476562 -43.015625 33.328125 -42.976562 32.015625 -42.90625 C 28.421875 -40.039062 24.988281 -37.085938 21.71875 -34.046875 C 18.457031 -31.003906 15.320312 -27.90625 12.3125 -24.75 L 16.9375 -24.09375 C 16.863281 -23.570312 16.789062 -23.164062 16.71875 -22.875 C 16.644531 -22.582031 16.609375 -22.253906 16.609375 -21.890625 Z M 16.609375 -21.890625 "/>
</symbol>
<symbol overflow="visible" id="sinhala-reph-position:id2:glyph0-2">
<path style="stroke:none;" d="M 44.21875 1.09375 C 40.988281 1.09375 37.941406 0.5625 35.078125 -0.5 C 32.222656 -1.5625 28.925781 -3.117188 25.1875 -5.171875 C 22.101562 -6.859375 19.625 -7.992188 17.75 -8.578125 C 15.882812 -9.160156 14.222656 -9.453125 12.765625 -9.453125 C 11.441406 -9.453125 10.300781 -9.304688 9.34375 -9.015625 C 8.832031 -7.546875 8.410156 -6.023438 8.078125 -4.453125 C 7.753906 -2.878906 7.554688 -1.25 7.484375 0.4375 L 0.984375 -0.546875 C 1.203125 -4.804688 2.0625 -8.691406 3.5625 -12.203125 C 5.070312 -15.722656 6.867188 -19.039062 8.953125 -22.15625 C 11.046875 -25.28125 13.117188 -28.328125 15.171875 -31.296875 C 17.234375 -34.265625 18.941406 -37.269531 20.296875 -40.3125 C 21.648438 -43.351562 22.328125 -46.5625 22.328125 -49.9375 C 22.328125 -53.164062 21.648438 -55.492188 20.296875 -56.921875 C 18.941406 -58.347656 17.195312 -59.0625 15.0625 -59.0625 C 13.007812 -59.0625 11.394531 -58.398438 10.21875 -57.078125 C 9.050781 -55.765625 8.46875 -53.972656 8.46875 -51.703125 C 8.46875 -48.984375 8.875 -46.488281 9.6875 -44.21875 L 2.75 -42.90625 C 2.238281 -44.070312 1.796875 -45.515625 1.421875 -47.234375 C 1.054688 -48.960938 0.875 -50.414062 0.875 -51.59375 C 0.875 -55.476562 2.140625 -58.648438 4.671875 -61.109375 C 7.203125 -63.566406 10.707031 -64.796875 15.1875 -64.796875 C 19.289062 -64.796875 22.609375 -63.566406 25.140625 -61.109375 C 27.671875 -58.648438 28.9375 -55.035156 28.9375 -50.265625 C 28.9375 -47.117188 28.398438 -44.113281 27.328125 -41.25 C 26.265625 -38.382812 24.890625 -35.578125 23.203125 -32.828125 C 21.523438 -30.078125 19.726562 -27.34375 17.8125 -24.625 C 15.90625 -21.914062 14.1875 -19.097656 12.65625 -16.171875 C 13.96875 -16.609375 15.359375 -16.828125 16.828125 -16.828125 C 18.878906 -16.828125 20.800781 -16.609375 22.59375 -16.171875 C 24.394531 -15.734375 26.800781 -14.851562 29.8125 -13.53125 C 32.082031 -12.570312 34.351562 -11.765625 36.625 -11.109375 C 38.90625 -10.453125 41.328125 -10.125 43.890625 -10.125 C 48.066406 -10.125 51.457031 -11.3125 54.0625 -13.6875 C 56.664062 -16.070312 57.96875 -19.539062 57.96875 -24.09375 C 57.96875 -29.519531 55.914062 -33.953125 51.8125 -37.390625 C 47.707031 -40.835938 41.179688 -42.710938 32.234375 -43.015625 L 32.015625 -43.015625 L 32.015625 -43.453125 C 32.015625 -47.554688 32.765625 -51.222656 34.265625 -54.453125 C 35.765625 -57.679688 37.90625 -60.210938 40.6875 -62.046875 C 43.476562 -63.878906 46.742188 -64.796875 50.484375 -64.796875 C 55.398438 -64.796875 58.972656 -63.546875 61.203125 -61.046875 C 63.441406 -58.554688 64.5625 -55.367188 64.5625 -51.484375 C 64.5625 -49.796875 64.429688 -48.304688 64.171875 -47.015625 C 63.921875 -45.734375 63.613281 -44.617188 63.25 -43.671875 L 57.640625 -45.4375 C 58.003906 -46.238281 58.257812 -47.113281 58.40625 -48.0625 C 58.550781 -49.019531 58.625 -49.863281 58.625 -50.59375 C 58.625 -53.164062 57.800781 -55.070312 56.15625 -56.3125 C 54.507812 -57.5625 52.289062 -58.1875 49.5 -58.1875 C 46.269531 -58.1875 43.753906 -57.269531 41.953125 -55.4375 C 40.160156 -53.601562 38.9375 -51.222656 38.28125 -48.296875 C 42.75 -47.703125 47 -46.46875 51.03125 -44.59375 C 55.070312 -42.726562 58.335938 -40.050781 60.828125 -36.5625 C 63.316406 -33.082031 64.5625 -28.519531 64.5625 -22.875 C 64.5625 -15.539062 62.820312 -9.710938 59.34375 -5.390625 C 55.863281 -1.066406 50.820312 1.09375 44.21875 1.09375 Z M 44.21875 1.09375 "/>
</symbol>
<symbol overflow="visible" id="sinhala-reph-position:id2:glyph0-3">
<path style="stroke:none;" d="M 20.796875 19.90625 C 17.421875 19.90625 14.320312 19.300781 11.5 18.09375 C 8.675781 16.882812 6.421875 15.066406 4.734375 12.640625 C 3.046875 10.222656 2.203125 7.179688 2.203125 3.515625 C 2.203125 -0.367188 3.265625 -3.847656 5.390625 -6.921875 C 7.515625 -10.003906 10.28125 -12.773438 13.6875 -15.234375 C 17.101562 -17.691406 20.644531 -19.875 24.3125 -21.78125 C 22.625 -21.5625 20.71875 -21.394531 18.59375 -21.28125 C 16.46875 -21.175781 13.609375 -21.125 10.015625 -21.125 L 5.390625 -21.125 L 3.1875 -27.0625 C 6.5625 -29.113281 9.84375 -31.019531 13.03125 -32.78125 C 16.21875 -34.539062 19.5 -36.191406 22.875 -37.734375 C 21.113281 -37.515625 19.078125 -37.367188 16.765625 -37.296875 C 14.460938 -37.222656 12.140625 -37.1875 9.796875 -37.1875 L 1.09375 -37.1875 L 1.09375 -43.015625 L 27.609375 -43.015625 L 30.03125 -36.515625 C 27.539062 -34.753906 24.5 -32.957031 20.90625 -31.125 C 17.3125 -29.289062 13.609375 -27.566406 9.796875 -25.953125 C 13.753906 -26.398438 17.820312 -26.625 22 -26.625 L 27.5 -26.625 L 30.03125 -20.34375 C 25.550781 -17.488281 21.972656 -14.90625 19.296875 -12.59375 C 16.628906 -10.28125 14.707031 -7.953125 13.53125 -5.609375 C 12.351562 -3.265625 11.765625 -0.585938 11.765625 2.421875 C 11.765625 5.941406 12.863281 8.707031 15.0625 10.71875 C 17.269531 12.738281 20.28125 13.75 24.09375 13.75 C 26.21875 13.75 28.03125 13.488281 29.53125 12.96875 C 31.039062 12.457031 32.675781 11.617188 34.4375 10.453125 L 36.953125 15.296875 C 34.535156 16.828125 32.039062 17.976562 29.46875 18.75 C 26.90625 19.519531 24.015625 19.90625 20.796875 19.90625 Z M 20.796875 19.90625 "/>
</symbol>
<symbol overflow="visible" id="sinhala-reph-position:id2:glyph0-4">
<path style="stroke:none;" d="M -34.09375 -95.15625 C -29.113281 -95.15625 -24.972656 -94.53125 -21.671875 -93.28125 C -18.367188 -92.03125 -15.742188 -90.394531 -13.796875 -88.375 C -11.859375 -86.363281 -10.484375 -84.164062 -9.671875 -81.78125 C -8.867188 -79.394531 -8.46875 -77.101562 -8.46875 -74.90625 C -8.46875 -71.09375 -9.085938 -67.976562 -10.328125 -65.5625 C -11.578125 -63.144531 -13.117188 -60.976562 -14.953125 -59.0625 L -19.6875 -63.140625 C -18.21875 -64.316406 -16.96875 -65.765625 -15.9375 -67.484375 C -14.914062 -69.203125 -14.40625 -71.457031 -14.40625 -74.25 C -14.40625 -76.445312 -15.03125 -78.585938 -16.28125 -80.671875 C -17.53125 -82.765625 -19.582031 -84.507812 -22.4375 -85.90625 C -25.300781 -87.300781 -29.1875 -88 -34.09375 -88 C -40.695312 -88 -45.390625 -86.785156 -48.171875 -84.359375 C -50.960938 -81.941406 -52.359375 -79.050781 -52.359375 -75.6875 C -52.359375 -72.894531 -51.53125 -70.507812 -49.875 -68.53125 C -48.226562 -66.550781 -45.460938 -65.304688 -41.578125 -64.796875 C -42.753906 -65.742188 -43.578125 -66.820312 -44.046875 -68.03125 C -44.523438 -69.238281 -44.765625 -70.503906 -44.765625 -71.828125 C -44.765625 -74.691406 -43.738281 -76.984375 -41.6875 -78.703125 C -39.632812 -80.429688 -36.957031 -81.296875 -33.65625 -81.296875 C -29.988281 -81.296875 -27.164062 -80.300781 -25.1875 -78.3125 C -23.207031 -76.332031 -22.21875 -73.84375 -22.21875 -70.84375 C -22.21875 -67.46875 -23.554688 -64.679688 -26.234375 -62.484375 C -28.910156 -60.285156 -32.78125 -59.1875 -37.84375 -59.1875 C -44.738281 -59.1875 -49.90625 -60.757812 -53.34375 -63.90625 C -56.789062 -67.0625 -58.515625 -71.207031 -58.515625 -76.34375 C -58.515625 -79.863281 -57.578125 -83.050781 -55.703125 -85.90625 C -53.835938 -88.769531 -51.085938 -91.023438 -47.453125 -92.671875 C -43.828125 -94.328125 -39.375 -95.15625 -34.09375 -95.15625 Z M -38.71875 -70.625 C -38.71875 -69.15625 -38.296875 -67.941406 -37.453125 -66.984375 C -36.609375 -66.035156 -35.304688 -65.5625 -33.546875 -65.5625 C -32.078125 -65.5625 -30.847656 -66.019531 -29.859375 -66.9375 C -28.867188 -67.851562 -28.375 -69.117188 -28.375 -70.734375 C -28.375 -72.046875 -28.738281 -73.21875 -29.46875 -74.25 C -30.207031 -75.28125 -31.53125 -75.796875 -33.4375 -75.796875 C -35.125 -75.796875 -36.425781 -75.335938 -37.34375 -74.421875 C -38.257812 -73.503906 -38.71875 -72.238281 -38.71875 -70.625 Z M -38.71875 -70.625 "/>
</symbol>
</g>
</defs>
  <g id="sinhala-reph-position:id0:id0" transform="matrix(1.25,0,0,1.25,0.0,8.5546875)"><g id="sinhala-reph-position:id0:surface1">
<g style="fill:rgb(0%,0%,0%);fill-opacity:1;">
  <use xlink:href="#sinhala-reph-position:id0:glyph0-1" x="64" y="111.671875" class="c0"/>
  <use xlink:href="#sinhala-reph-position:id0:glyph0-2" x="64" y="111.671875" class="dc"/>
  <use xlink:href="#sinhala-reph-position:id0:glyph0-3" x="132.421875" y="111.671875" class="c1"/>
  <use xlink:href="#sinhala-reph-position:id0:glyph0-4" x="273" y="111.671875" class="c2"/>
  <use xlink:href="#sinhala-reph-position:id0:glyph0-5" x="340.640625" y="111.671875" class="c3"/>
</g>
</g>
</g>
  <g id="sinhala-reph-position:id1:id1" transform="matrix(1.25,0,0,1.25,486.9140625,0.0)"><g id="sinhala-reph-position:id1:surface1">
<g style="fill:rgb(0%,0%,0%);fill-opacity:1;">
  <use xlink:href="#sinhala-reph-position:id1:glyph0-1" x="0" y="120.84375" class="arrow"/>
</g>
</g>
</g>
  <g id="sinhala-reph-position:id2:id2" transform="matrix(1.25,0,0,1.25,619.51171875,8.5546875)"><g id="sinhala-reph-position:id2:surface1">
<g style="fill:rgb(0%,0%,0%);fill-opacity:1;">
  <use xlink:href="#sinhala-reph-position:id2:glyph0-1" x="16" y="111.671875" class="c1"/>
  <use xlink:href="#sinhala-reph-position:id2:glyph0-2" x="156.578125" y="111.671875" class="c2"/>
  <use xlink:href="#sinhala-reph-position:id2:glyph0-3" x="224.21875" y="111.671875" class="c3"/>
  <use xlink:href="#sinhala-reph-position:id2:glyph0-4" x="257.109375" y="111.671875" class="c0"/>
</g>
</g>
</g>
</svg>
