<!DOCTYPE svg PUBLIC "-//W3C//DTD SVG 1.1//EN" "http://www.w3.org/Graphics/SVG/1.1/DTD/svg11.dtd">
<!-- Created with svg_stack (http://github.com/astraw/svg_stack) --><svg xmlns="http://www.w3.org/2000/svg" xmlns:sodipodi="http://sodipodi.sourceforge.net/DTD/sodipodi-0.dtd" xmlns:xlink="http://www.w3.org/1999/xlink" version="1.1" width="100%" id="sinhala-abvm" viewBox="0 0 435.33203125 201.40625">
  <defs><g>
<symbol overflow="visible" id="sinhala-abvm:id0:glyph0-0">
<path style="stroke:none;" d="M 55.546875 -78.546875 L 55.546875 0 L 10.34375 0 L 10.34375 -78.546875 Z M 49.9375 -72.9375 L 15.953125 -72.9375 L 15.953125 -5.609375 L 49.9375 -5.609375 Z M 49.9375 -72.9375 "/>
</symbol>
<symbol overflow="visible" id="sinhala-abvm:id0:glyph0-1">
<path style="stroke:none;" d="M 57.640625 1.09375 C 56.835938 1.09375 55.9375 1.054688 54.9375 0.984375 C 53.945312 0.910156 53.125 0.800781 52.46875 0.65625 L 53.015625 -4.953125 C 53.898438 -4.804688 54.78125 -4.710938 55.65625 -4.671875 C 56.539062 -4.640625 57.164062 -4.625 57.53125 -4.625 C 64.351562 -4.625 69.335938 -6.800781 72.484375 -11.15625 C 75.640625 -15.519531 77.21875 -21.957031 77.21875 -30.46875 C 77.21875 -37.800781 75.804688 -43.59375 72.984375 -47.84375 C 70.160156 -52.101562 66.476562 -54.234375 61.9375 -54.234375 C 57.75 -54.234375 54.410156 -52.835938 51.921875 -50.046875 C 49.429688 -47.265625 47.960938 -43.269531 47.515625 -38.0625 L 41.6875 -38.0625 C 41.394531 -40.988281 40.734375 -43.679688 39.703125 -46.140625 C 38.679688 -48.597656 37.195312 -50.5625 35.25 -52.03125 C 33.3125 -53.5 30.765625 -54.234375 27.609375 -54.234375 C 24.828125 -54.234375 22.242188 -53.296875 19.859375 -51.421875 C 17.472656 -49.554688 15.546875 -46.789062 14.078125 -43.125 C 12.609375 -39.457031 11.875 -35.019531 11.875 -29.8125 C 11.875 -21.375 13.378906 -15.066406 16.390625 -10.890625 C 19.398438 -6.710938 24.203125 -4.625 30.796875 -4.625 C 32.410156 -4.625 33.988281 -4.734375 35.53125 -4.953125 L 36.1875 0.65625 C 35.3125 0.875 34.429688 1 33.546875 1.03125 C 32.671875 1.070312 31.789062 1.09375 30.90625 1.09375 C 22.332031 1.09375 15.863281 -1.726562 11.5 -7.375 C 7.132812 -13.019531 4.953125 -21.160156 4.953125 -31.796875 C 4.953125 -37.804688 5.847656 -43.300781 7.640625 -48.28125 C 9.441406 -53.269531 12.023438 -57.269531 15.390625 -60.28125 C 18.765625 -63.289062 22.800781 -64.796875 27.5 -64.796875 C 31.019531 -64.796875 33.914062 -63.988281 36.1875 -62.375 C 38.457031 -60.757812 40.253906 -58.648438 41.578125 -56.046875 C 42.898438 -53.441406 43.890625 -50.742188 44.546875 -47.953125 C 45.359375 -51.035156 46.515625 -53.84375 48.015625 -56.375 C 49.515625 -58.90625 51.472656 -60.941406 53.890625 -62.484375 C 56.316406 -64.023438 59.328125 -64.796875 62.921875 -64.796875 C 67.242188 -64.796875 71 -63.34375 74.1875 -60.4375 C 77.382812 -57.539062 79.84375 -53.617188 81.5625 -48.671875 C 83.289062 -43.722656 84.15625 -38.171875 84.15625 -32.015625 C 84.15625 -20.796875 81.863281 -12.472656 77.28125 -7.046875 C 72.695312 -1.617188 66.148438 1.09375 57.640625 1.09375 Z M 57.640625 1.09375 "/>
</symbol>
<symbol overflow="visible" id="sinhala-abvm:id0:glyph0-2">
<path style="stroke:none;" d="M -35.421875 -93.71875 C -29.265625 -93.71875 -24.039062 -93.113281 -19.75 -91.90625 C -15.457031 -90.695312 -12.007812 -89.101562 -9.40625 -87.125 C -6.800781 -85.144531 -4.894531 -82.976562 -3.6875 -80.625 C -2.476562 -78.28125 -1.875 -75.972656 -1.875 -73.703125 C -1.875 -70.253906 -2.878906 -67.351562 -4.890625 -65 C -6.910156 -62.65625 -10.191406 -61.484375 -14.734375 -61.484375 C -18.398438 -61.484375 -21.40625 -62.453125 -23.75 -64.390625 C -26.101562 -66.335938 -27.28125 -69.222656 -27.28125 -73.046875 C -27.28125 -76.117188 -26.453125 -78.550781 -24.796875 -80.34375 C -23.148438 -82.144531 -21.226562 -83.378906 -19.03125 -84.046875 C -21.59375 -84.703125 -24.25 -85.15625 -27 -85.40625 C -29.75 -85.664062 -32.484375 -85.796875 -35.203125 -85.796875 C -42.828125 -85.796875 -48.707031 -84.75 -52.84375 -82.65625 C -56.988281 -80.570312 -59.0625 -77.441406 -59.0625 -73.265625 C -59.0625 -71.359375 -58.625 -69.613281 -57.75 -68.03125 C -56.875 -66.457031 -55.519531 -64.898438 -53.6875 -63.359375 L -57.859375 -60.171875 C -59.984375 -62.148438 -61.757812 -64.347656 -63.1875 -66.765625 C -64.625 -69.191406 -65.34375 -72.125 -65.34375 -75.5625 C -65.34375 -77.550781 -64.882812 -79.609375 -63.96875 -81.734375 C -63.050781 -83.859375 -61.488281 -85.816406 -59.28125 -87.609375 C -57.082031 -89.410156 -54.039062 -90.878906 -50.15625 -92.015625 C -46.269531 -93.148438 -41.359375 -93.71875 -35.421875 -93.71875 Z M -7.703125 -73.59375 C -7.703125 -75.5 -8.304688 -77.070312 -9.515625 -78.3125 C -10.722656 -79.5625 -12.460938 -80.1875 -14.734375 -80.1875 C -16.785156 -80.1875 -18.453125 -79.582031 -19.734375 -78.375 C -21.023438 -77.164062 -21.671875 -75.5 -21.671875 -73.375 C -21.671875 -71.164062 -20.988281 -69.507812 -19.625 -68.40625 C -18.269531 -67.3125 -16.640625 -66.765625 -14.734375 -66.765625 C -12.390625 -66.765625 -10.628906 -67.40625 -9.453125 -68.6875 C -8.285156 -69.976562 -7.703125 -71.613281 -7.703125 -73.59375 Z M -7.703125 -73.59375 "/>
</symbol>
</g>
<g>
<symbol overflow="visible" id="sinhala-abvm:id1:glyph0-0">
<path style="stroke:none;" d="M 5.375 -96.6875 L 69.828125 -96.6875 L 69.828125 0 L 5.375 0 Z M 8.0625 -2.6875 L 67.140625 -2.6875 L 67.140625 -94 L 8.0625 -94 Z M 8.0625 -2.6875 "/>
</symbol>
<symbol overflow="visible" id="sinhala-abvm:id1:glyph0-1">
<path style="stroke:none;" d="M 68.15625 -13.75 L 66.28125 -18.640625 L 88.09375 -27.390625 L 6.984375 -27.390625 L 6.984375 -34 L 88.09375 -34 L 66.28125 -42.75 L 68.15625 -47.640625 L 99.09375 -34.265625 L 99.09375 -27.125 Z M 68.15625 -13.75 "/>
</symbol>
</g>
<g>
<symbol overflow="visible" id="sinhala-abvm:id2:glyph0-0">
<path style="stroke:none;" d="M 55.546875 -78.546875 L 55.546875 0 L 10.34375 0 L 10.34375 -78.546875 Z M 49.9375 -72.9375 L 15.953125 -72.9375 L 15.953125 -5.609375 L 49.9375 -5.609375 Z M 49.9375 -72.9375 "/>
</symbol>
<symbol overflow="visible" id="sinhala-abvm:id2:glyph0-1">
<path style="stroke:none;" d="M 57.640625 1.09375 C 56.835938 1.09375 55.9375 1.054688 54.9375 0.984375 C 53.945312 0.910156 53.125 0.800781 52.46875 0.65625 L 53.015625 -4.953125 C 53.898438 -4.804688 54.78125 -4.710938 55.65625 -4.671875 C 56.539062 -4.640625 57.164062 -4.625 57.53125 -4.625 C 64.351562 -4.625 69.335938 -6.800781 72.484375 -11.15625 C 75.640625 -15.519531 77.21875 -21.957031 77.21875 -30.46875 C 77.21875 -37.800781 75.804688 -43.59375 72.984375 -47.84375 C 70.160156 -52.101562 66.476562 -54.234375 61.9375 -54.234375 C 57.75 -54.234375 54.410156 -52.835938 51.921875 -50.046875 C 49.429688 -47.265625 47.960938 -43.269531 47.515625 -38.0625 L 41.6875 -38.0625 C 41.394531 -40.988281 40.734375 -43.679688 39.703125 -46.140625 C 38.679688 -48.597656 37.195312 -50.5625 35.25 -52.03125 C 33.3125 -53.5 30.765625 -54.234375 27.609375 -54.234375 C 24.828125 -54.234375 22.242188 -53.296875 19.859375 -51.421875 C 17.472656 -49.554688 15.546875 -46.789062 14.078125 -43.125 C 12.609375 -39.457031 11.875 -35.019531 11.875 -29.8125 C 11.875 -21.375 13.378906 -15.066406 16.390625 -10.890625 C 19.398438 -6.710938 24.203125 -4.625 30.796875 -4.625 C 32.410156 -4.625 33.988281 -4.734375 35.53125 -4.953125 L 36.1875 0.65625 C 35.3125 0.875 34.429688 1 33.546875 1.03125 C 32.671875 1.070312 31.789062 1.09375 30.90625 1.09375 C 22.332031 1.09375 15.863281 -1.726562 11.5 -7.375 C 7.132812 -13.019531 4.953125 -21.160156 4.953125 -31.796875 C 4.953125 -38.679688 6.140625 -44.910156 8.515625 -50.484375 C 10.898438 -56.054688 14.257812 -60.054688 18.59375 -62.484375 C 17.050781 -64.242188 15.800781 -66.164062 14.84375 -68.25 C 13.894531 -70.34375 13.421875 -72.78125 13.421875 -75.5625 C 13.421875 -77.550781 13.878906 -79.609375 14.796875 -81.734375 C 15.710938 -83.859375 17.269531 -85.816406 19.46875 -87.609375 C 21.664062 -89.410156 24.707031 -90.878906 28.59375 -92.015625 C 32.488281 -93.148438 37.40625 -93.71875 43.34375 -93.71875 C 49.5 -93.71875 54.722656 -93.113281 59.015625 -91.90625 C 63.304688 -90.695312 66.753906 -89.101562 69.359375 -87.125 C 71.960938 -85.144531 73.867188 -82.976562 75.078125 -80.625 C 76.285156 -78.28125 76.890625 -75.972656 76.890625 -73.703125 C 76.890625 -71.203125 76.359375 -69.015625 75.296875 -67.140625 C 74.234375 -65.273438 72.601562 -63.90625 70.40625 -63.03125 C 74.65625 -60.832031 78.007812 -56.945312 80.46875 -51.375 C 82.925781 -45.800781 84.15625 -39.347656 84.15625 -32.015625 C 84.15625 -20.796875 81.863281 -12.472656 77.28125 -7.046875 C 72.695312 -1.617188 66.148438 1.09375 57.640625 1.09375 Z M 27.5 -64.796875 C 31.019531 -64.796875 33.914062 -63.988281 36.1875 -62.375 C 38.457031 -60.757812 40.253906 -58.648438 41.578125 -56.046875 C 42.898438 -53.441406 43.890625 -50.742188 44.546875 -47.953125 C 45.503906 -51.472656 46.914062 -54.679688 48.78125 -57.578125 C 50.65625 -60.484375 53.242188 -62.519531 56.546875 -63.6875 C 55.003906 -64.570312 53.773438 -65.800781 52.859375 -67.375 C 51.941406 -68.945312 51.484375 -70.945312 51.484375 -73.375 C 51.484375 -76.375 52.304688 -78.734375 53.953125 -80.453125 C 55.609375 -82.179688 57.535156 -83.378906 59.734375 -84.046875 C 57.160156 -84.703125 54.5 -85.15625 51.75 -85.40625 C 49 -85.664062 46.269531 -85.796875 43.5625 -85.796875 C 35.9375 -85.796875 30.050781 -84.75 25.90625 -82.65625 C 21.757812 -80.570312 19.6875 -77.441406 19.6875 -73.265625 C 19.6875 -70.109375 21.082031 -67.171875 23.875 -64.453125 C 25.039062 -64.679688 26.25 -64.796875 27.5 -64.796875 Z M 71.0625 -73.59375 C 71.0625 -75.5 70.457031 -77.070312 69.25 -78.3125 C 68.039062 -79.5625 66.296875 -80.1875 64.015625 -80.1875 C 61.960938 -80.1875 60.296875 -79.582031 59.015625 -78.375 C 57.734375 -77.164062 57.09375 -75.5 57.09375 -73.375 C 57.09375 -71.164062 57.769531 -69.507812 59.125 -68.40625 C 60.476562 -67.3125 62.109375 -66.765625 64.015625 -66.765625 C 66.367188 -66.765625 68.128906 -67.40625 69.296875 -68.6875 C 70.472656 -69.976562 71.0625 -71.613281 71.0625 -73.59375 Z M 71.0625 -73.59375 "/>
</symbol>
</g>
</defs>
  <g id="sinhala-abvm:id0:id0" transform="matrix(1.25,0,0,1.25,0.0,8.5546875)"><g id="sinhala-abvm:id0:surface1">
<g style="fill:rgb(0%,0%,0%);fill-opacity:1;">
  <use xlink:href="#sinhala-abvm:id0:glyph0-1" x="16" y="111.671875" class="c0"/>
  <use xlink:href="#sinhala-abvm:id0:glyph0-2" x="105.09375" y="111.671875" class="c1"/>
</g>
</g>
</g>
  <g id="sinhala-abvm:id1:id1" transform="matrix(1.25,0,0,1.25,151.3671875,0.0)"><g id="sinhala-abvm:id1:surface1">
<g style="fill:rgb(0%,0%,0%);fill-opacity:1;">
  <use xlink:href="#sinhala-abvm:id1:glyph0-1" x="0" y="120.84375" class="arrow"/>
</g>
</g>
</g>
  <g id="sinhala-abvm:id2:id2" transform="matrix(1.25,0,0,1.25,283.96484375,8.5546875)"><g id="sinhala-abvm:id2:surface1">
<g style="fill:rgb(0%,0%,0%);fill-opacity:1;">
  <use xlink:href="#sinhala-abvm:id2:glyph0-1" x="16" y="111.671875" class="c0"/>
</g>
</g>
</g>
</svg>
