<!DOCTYPE svg PUBLIC "-//W3C//DTD SVG 1.1//EN" "http://www.w3.org/Graphics/SVG/1.1/DTD/svg11.dtd">
<!-- Created with svg_stack (http://github.com/astraw/svg_stack) --><svg xmlns="http://www.w3.org/2000/svg" xmlns:sodipodi="http://sodipodi.sourceforge.net/DTD/sodipodi-0.dtd" xmlns:xlink="http://www.w3.org/1999/xlink" version="1.1" width="100%" id="sinhala-blws" viewBox="0 0 469.70703125 201.40625">
  <defs><g>
<symbol overflow="visible" id="sinhala-blws:id0:glyph0-0">
<path style="stroke:none;" d="M 10.34375 -78.546875 L 55.546875 -78.546875 L 55.546875 0 L 10.34375 0 Z M 49.9375 -5.609375 L 49.9375 -72.9375 L 15.953125 -72.9375 L 15.953125 -5.609375 Z M 49.9375 -5.609375 "/>
</symbol>
<symbol overflow="visible" id="sinhala-blws:id0:glyph0-1">
<path style="stroke:none;" d="M 35.203125 1.09375 C 26.328125 1.09375 19.359375 -1.160156 14.296875 -5.671875 C 9.234375 -10.179688 6.703125 -16.210938 6.703125 -23.765625 C 6.703125 -28.015625 7.800781 -31.84375 10 -35.25 C 12.207031 -38.664062 15.144531 -41.363281 18.8125 -43.34375 C 16.976562 -43.195312 14.976562 -43.101562 12.8125 -43.0625 C 10.644531 -43.03125 8.6875 -43.015625 6.9375 -43.015625 L 2.640625 -43.015625 L 2.640625 -48.625 L 36.734375 -48.625 C 36.222656 -51.1875 35.140625 -53.507812 33.484375 -55.59375 C 31.835938 -57.6875 29.179688 -58.734375 25.515625 -58.734375 C 21.117188 -58.734375 18.921875 -56.789062 18.921875 -52.90625 C 18.921875 -52.613281 18.957031 -52.226562 19.03125 -51.75 C 19.101562 -51.28125 19.175781 -50.859375 19.25 -50.484375 L 10.234375 -49.71875 C 10.015625 -50.300781 9.847656 -51.03125 9.734375 -51.90625 C 9.617188 -52.789062 9.5625 -53.457031 9.5625 -53.90625 C 9.5625 -57.5 10.914062 -60.210938 13.625 -62.046875 C 16.34375 -63.878906 19.6875 -64.796875 23.65625 -64.796875 C 29.882812 -64.796875 34.664062 -62.941406 38 -59.234375 C 41.34375 -55.535156 43.015625 -50.640625 43.015625 -44.546875 L 43.015625 -43.015625 L 29.046875 -43.015625 C 24.054688 -41.546875 20.222656 -39.414062 17.546875 -36.625 C 14.867188 -33.84375 13.53125 -30.25 13.53125 -25.84375 C 13.53125 -21.226562 15.195312 -17.507812 18.53125 -14.6875 C 21.875 -11.863281 27.429688 -10.453125 35.203125 -10.453125 C 40.773438 -10.453125 45.132812 -11.09375 48.28125 -12.375 C 51.4375 -13.65625 53.691406 -15.285156 55.046875 -17.265625 C 56.410156 -19.242188 57.09375 -21.335938 57.09375 -23.546875 C 57.09375 -26.691406 56.265625 -28.757812 54.609375 -29.75 C 52.960938 -30.738281 51.003906 -31.234375 48.734375 -31.234375 C 47.992188 -31.234375 47.476562 -31.210938 47.1875 -31.171875 C 46.894531 -31.140625 46.457031 -31.085938 45.875 -31.015625 L 41.796875 -32.125 C 43.484375 -43.195312 46.984375 -51.410156 52.296875 -56.765625 C 57.617188 -62.117188 64.054688 -64.796875 71.609375 -64.796875 C 77.398438 -64.796875 82.273438 -63.328125 86.234375 -60.390625 C 90.203125 -57.453125 93.210938 -53.472656 95.265625 -48.453125 C 97.316406 -43.429688 98.34375 -37.84375 98.34375 -31.6875 C 98.34375 -23.976562 97.054688 -17.738281 94.484375 -12.96875 C 91.921875 -8.207031 88.492188 -4.707031 84.203125 -2.46875 C 79.910156 -0.238281 75.125 0.875 69.84375 0.875 C 65.445312 0.875 61.894531 0.507812 59.1875 -0.21875 L 60.609375 -5.9375 C 61.929688 -5.570312 63.269531 -5.296875 64.625 -5.109375 C 65.976562 -4.929688 67.679688 -4.84375 69.734375 -4.84375 C 76.628906 -4.84375 81.945312 -6.945312 85.6875 -11.15625 C 89.425781 -15.375 91.296875 -21.300781 91.296875 -28.9375 C 91.296875 -36.78125 89.515625 -43.101562 85.953125 -47.90625 C 82.398438 -52.707031 77.144531 -55.109375 70.1875 -55.109375 C 64.53125 -55.109375 59.925781 -53.515625 56.375 -50.328125 C 52.820312 -47.140625 50.164062 -42.609375 48.40625 -36.734375 C 48.769531 -36.734375 49.171875 -36.734375 49.609375 -36.734375 C 53.640625 -36.734375 56.972656 -35.613281 59.609375 -33.375 C 62.253906 -31.144531 63.578125 -27.425781 63.578125 -22.21875 C 63.578125 -19.4375 63.082031 -16.671875 62.09375 -13.921875 C 61.101562 -11.171875 59.507812 -8.65625 57.3125 -6.375 C 55.113281 -4.101562 52.195312 -2.289062 48.5625 -0.9375 C 44.9375 0.414062 40.484375 1.09375 35.203125 1.09375 Z M 35.203125 1.09375 "/>
</symbol>
<symbol overflow="visible" id="sinhala-blws:id0:glyph0-2">
<path style="stroke:none;" d="M -68.3125 18.046875 C -68.3125 13.929688 -67.007812 10.664062 -64.40625 8.25 C -61.800781 5.832031 -58.375 4.625 -54.125 4.625 C -52 4.625 -50.035156 4.859375 -48.234375 5.328125 C -46.441406 5.804688 -44.8125 6.453125 -43.34375 7.265625 L -45.4375 12.203125 C -46.457031 11.691406 -47.679688 11.234375 -49.109375 10.828125 C -50.546875 10.429688 -52.144531 10.234375 -53.90625 10.234375 C -56.757812 10.234375 -58.828125 10.945312 -60.109375 12.375 C -61.398438 13.800781 -62.046875 15.726562 -62.046875 18.15625 C -62.046875 20.351562 -61.363281 22.203125 -60 23.703125 C -58.644531 25.203125 -56.5 25.953125 -53.5625 25.953125 C -50.5625 25.953125 -48.050781 25.53125 -46.03125 24.6875 C -44.019531 23.851562 -41.546875 22.59375 -38.609375 20.90625 C -35.160156 18.925781 -32.265625 17.421875 -29.921875 16.390625 C -27.578125 15.359375 -25.117188 14.84375 -22.546875 14.84375 C -19.546875 14.84375 -16.851562 15.445312 -14.46875 16.65625 C -12.082031 17.875 -9.457031 19.875 -6.59375 22.65625 C -6.664062 21.1875 -6.71875 19.738281 -6.75 18.3125 C -6.789062 16.882812 -6.8125 15.4375 -6.8125 13.96875 L -6.8125 -7.921875 L -0.4375 -7.921875 L -0.4375 31.234375 L -5.390625 31.234375 C -7.660156 28.816406 -9.65625 26.816406 -11.375 25.234375 C -13.101562 23.660156 -14.789062 22.507812 -16.4375 21.78125 C -18.09375 21.050781 -20.019531 20.6875 -22.21875 20.6875 C -23.539062 20.6875 -24.769531 20.847656 -25.90625 21.171875 C -27.039062 21.503906 -28.320312 22.035156 -29.75 22.765625 C -31.1875 23.503906 -33.003906 24.53125 -35.203125 25.84375 C -37.691406 27.3125 -40.492188 28.671875 -43.609375 29.921875 C -46.734375 31.171875 -50.015625 31.796875 -53.453125 31.796875 C -58.296875 31.796875 -61.984375 30.457031 -64.515625 27.78125 C -67.046875 25.101562 -68.3125 21.859375 -68.3125 18.046875 Z M -68.3125 18.046875 "/>
</symbol>
</g>
<g>
<symbol overflow="visible" id="sinhala-blws:id1:glyph0-0">
<path style="stroke:none;" d="M 5.375 -96.6875 L 69.828125 -96.6875 L 69.828125 0 L 5.375 0 Z M 8.0625 -2.6875 L 67.140625 -2.6875 L 67.140625 -94 L 8.0625 -94 Z M 8.0625 -2.6875 "/>
</symbol>
<symbol overflow="visible" id="sinhala-blws:id1:glyph0-1">
<path style="stroke:none;" d="M 68.15625 -13.75 L 66.28125 -18.640625 L 88.09375 -27.390625 L 6.984375 -27.390625 L 6.984375 -34 L 88.09375 -34 L 66.28125 -42.75 L 68.15625 -47.640625 L 99.09375 -34.265625 L 99.09375 -27.125 Z M 68.15625 -13.75 "/>
</symbol>
</g>
<g>
<symbol overflow="visible" id="sinhala-blws:id2:glyph0-0">
<path style="stroke:none;" d="M 10.34375 -78.546875 L 55.546875 -78.546875 L 55.546875 0 L 10.34375 0 Z M 49.9375 -5.609375 L 49.9375 -72.9375 L 15.953125 -72.9375 L 15.953125 -5.609375 Z M 49.9375 -5.609375 "/>
</symbol>
<symbol overflow="visible" id="sinhala-blws:id2:glyph0-1">
<path style="stroke:none;" d="M 35.203125 1.09375 C 26.328125 1.09375 19.359375 -1.160156 14.296875 -5.671875 C 9.234375 -10.179688 6.703125 -16.210938 6.703125 -23.765625 C 6.703125 -28.015625 7.800781 -31.84375 10 -35.25 C 12.207031 -38.664062 15.144531 -41.363281 18.8125 -43.34375 C 16.976562 -43.195312 14.976562 -43.101562 12.8125 -43.0625 C 10.644531 -43.03125 8.6875 -43.015625 6.9375 -43.015625 L 2.640625 -43.015625 L 2.640625 -48.625 L 36.734375 -48.625 C 36.222656 -51.1875 35.140625 -53.507812 33.484375 -55.59375 C 31.835938 -57.6875 29.179688 -58.734375 25.515625 -58.734375 C 21.117188 -58.734375 18.921875 -56.789062 18.921875 -52.90625 C 18.921875 -52.613281 18.957031 -52.226562 19.03125 -51.75 C 19.101562 -51.28125 19.175781 -50.859375 19.25 -50.484375 L 10.234375 -49.71875 C 10.015625 -50.300781 9.847656 -51.03125 9.734375 -51.90625 C 9.617188 -52.789062 9.5625 -53.457031 9.5625 -53.90625 C 9.5625 -57.5 10.914062 -60.210938 13.625 -62.046875 C 16.34375 -63.878906 19.6875 -64.796875 23.65625 -64.796875 C 29.882812 -64.796875 34.664062 -62.941406 38 -59.234375 C 41.34375 -55.535156 43.015625 -50.640625 43.015625 -44.546875 L 43.015625 -43.015625 L 29.046875 -43.015625 C 24.054688 -41.546875 20.222656 -39.414062 17.546875 -36.625 C 14.867188 -33.84375 13.53125 -30.25 13.53125 -25.84375 C 13.53125 -21.226562 15.195312 -17.507812 18.53125 -14.6875 C 21.875 -11.863281 27.429688 -10.453125 35.203125 -10.453125 C 40.773438 -10.453125 45.132812 -11.09375 48.28125 -12.375 C 51.4375 -13.65625 53.691406 -15.285156 55.046875 -17.265625 C 56.410156 -19.242188 57.09375 -21.335938 57.09375 -23.546875 C 57.09375 -26.691406 56.265625 -28.757812 54.609375 -29.75 C 52.960938 -30.738281 51.003906 -31.234375 48.734375 -31.234375 C 47.992188 -31.234375 47.476562 -31.210938 47.1875 -31.171875 C 46.894531 -31.140625 46.457031 -31.085938 45.875 -31.015625 L 41.796875 -32.125 C 43.484375 -43.195312 46.984375 -51.410156 52.296875 -56.765625 C 57.617188 -62.117188 64.054688 -64.796875 71.609375 -64.796875 C 77.398438 -64.796875 82.273438 -63.328125 86.234375 -60.390625 C 90.203125 -57.453125 93.210938 -53.472656 95.265625 -48.453125 C 97.316406 -43.429688 98.34375 -37.84375 98.34375 -31.6875 C 98.34375 -24.269531 97.128906 -18.195312 94.703125 -13.46875 C 92.285156 -8.738281 89.039062 -5.21875 84.96875 -2.90625 C 80.90625 -0.601562 76.378906 0.65625 71.390625 0.875 L 80.078125 6.9375 L 77.875 11 C 77.363281 10.925781 76.648438 10.867188 75.734375 10.828125 C 74.816406 10.796875 73.882812 10.78125 72.9375 10.78125 C 69.5625 10.78125 66.882812 11.164062 64.90625 11.9375 C 62.925781 12.707031 61.9375 14.265625 61.9375 16.609375 C 61.9375 18.878906 63.109375 20.582031 65.453125 21.71875 C 67.796875 22.863281 71.128906 23.4375 75.453125 23.4375 C 80.222656 23.4375 83.984375 22.519531 86.734375 20.6875 C 89.484375 18.851562 90.859375 15.804688 90.859375 11.546875 C 90.859375 10.960938 90.835938 10.285156 90.796875 9.515625 C 90.765625 8.742188 90.675781 7.992188 90.53125 7.265625 L 96.140625 6.59375 C 96.359375 7.695312 96.484375 8.722656 96.515625 9.671875 C 96.554688 10.628906 96.578125 11.507812 96.578125 12.3125 C 96.578125 18.625 94.796875 23.445312 91.234375 26.78125 C 87.679688 30.125 82.421875 31.796875 75.453125 31.796875 C 69.441406 31.796875 64.675781 30.566406 61.15625 28.109375 C 57.632812 25.648438 55.875 22.070312 55.875 17.375 C 55.875 13.707031 57.191406 10.898438 59.828125 8.953125 C 62.472656 7.015625 66.253906 5.972656 71.171875 5.828125 L 62.484375 0.4375 C 61.160156 0.21875 60.0625 0 59.1875 -0.21875 L 60.609375 -5.9375 C 61.929688 -5.570312 63.269531 -5.296875 64.625 -5.109375 C 65.976562 -4.929688 67.679688 -4.84375 69.734375 -4.84375 C 76.628906 -4.84375 81.945312 -6.945312 85.6875 -11.15625 C 89.425781 -15.375 91.296875 -21.300781 91.296875 -28.9375 C 91.296875 -36.78125 89.515625 -43.101562 85.953125 -47.90625 C 82.398438 -52.707031 77.144531 -55.109375 70.1875 -55.109375 C 64.53125 -55.109375 59.925781 -53.515625 56.375 -50.328125 C 52.820312 -47.140625 50.164062 -42.609375 48.40625 -36.734375 C 48.769531 -36.734375 49.171875 -36.734375 49.609375 -36.734375 C 53.640625 -36.734375 56.972656 -35.613281 59.609375 -33.375 C 62.253906 -31.144531 63.578125 -27.425781 63.578125 -22.21875 C 63.578125 -19.4375 63.082031 -16.671875 62.09375 -13.921875 C 61.101562 -11.171875 59.507812 -8.65625 57.3125 -6.375 C 55.113281 -4.101562 52.195312 -2.289062 48.5625 -0.9375 C 44.9375 0.414062 40.484375 1.09375 35.203125 1.09375 Z M 35.203125 1.09375 "/>
</symbol>
</g>
</defs>
  <g id="sinhala-blws:id0:id0" transform="matrix(1.25,0,0,1.25,0.0,8.5546875)"><g id="sinhala-blws:id0:surface1">
<g style="fill:rgb(0%,0%,0%);fill-opacity:1;">
  <use xlink:href="#sinhala-blws:id0:glyph0-1" x="16" y="111.671875" class="c0"/>
  <use xlink:href="#sinhala-blws:id0:glyph0-2" x="118.84375" y="111.671875" class="c1"/>
</g>
</g>
</g>
  <g id="sinhala-blws:id1:id1" transform="matrix(1.25,0,0,1.25,168.5546875,0.0)"><g id="sinhala-blws:id1:surface1">
<g style="fill:rgb(0%,0%,0%);fill-opacity:1;">
  <use xlink:href="#sinhala-blws:id1:glyph0-1" x="0" y="120.84375" class="arrow"/>
</g>
</g>
</g>
  <g id="sinhala-blws:id2:id2" transform="matrix(1.25,0,0,1.25,301.15234375,8.5546875)"><g id="sinhala-blws:id2:surface1">
<g style="fill:rgb(0%,0%,0%);fill-opacity:1;">
  <use xlink:href="#sinhala-blws:id2:glyph0-1" x="16" y="111.671875" class="c2"/>
</g>
</g>
</g>
</svg>