<!DOCTYPE svg PUBLIC "-//W3C//DTD SVG 1.1//EN" "http://www.w3.org/Graphics/SVG/1.1/DTD/svg11.dtd">
<!-- Created with svg_stack (http://github.com/astraw/svg_stack) --><svg xmlns="http://www.w3.org/2000/svg" xmlns:sodipodi="http://sodipodi.sourceforge.net/DTD/sodipodi-0.dtd" xmlns:xlink="http://www.w3.org/1999/xlink" version="1.1" width="752.421875" height="201.40625" id="sinhala-akhn-touching">
  <defs><g>
<symbol overflow="visible" id="sinhala-akhn-touching:id0:glyph0-0">
<path style="stroke:none;" d="M 10.34375 -78.546875 L 55.546875 -78.546875 L 55.546875 0 L 10.34375 0 Z M 49.9375 -5.609375 L 49.9375 -72.9375 L 15.953125 -72.9375 L 15.953125 -5.609375 Z M 49.9375 -5.609375 "/>
</symbol>
<symbol overflow="visible" id="sinhala-akhn-touching:id0:glyph0-1">
<path style="stroke:none;" d="M 65.890625 0.875 C 61.492188 0.875 57.9375 0.507812 55.21875 -0.21875 L 56.65625 -5.9375 C 57.96875 -5.570312 59.300781 -5.296875 60.65625 -5.109375 C 62.019531 -4.929688 63.726562 -4.84375 65.78125 -4.84375 C 72.675781 -4.84375 77.992188 -6.945312 81.734375 -11.15625 C 85.472656 -15.375 87.34375 -21.300781 87.34375 -28.9375 C 87.34375 -36.78125 85.5625 -43.101562 82 -47.90625 C 78.445312 -52.707031 73.1875 -55.109375 66.21875 -55.109375 C 60.570312 -55.109375 55.96875 -53.515625 52.40625 -50.328125 C 48.851562 -47.140625 46.195312 -42.609375 44.4375 -36.734375 C 44.800781 -36.734375 45.207031 -36.734375 45.65625 -36.734375 C 49.6875 -36.734375 53.019531 -35.578125 55.65625 -33.265625 C 58.300781 -30.960938 59.625 -27.023438 59.625 -21.453125 C 59.625 -18.878906 59.179688 -16.273438 58.296875 -13.640625 C 57.421875 -11.003906 55.972656 -8.566406 53.953125 -6.328125 C 51.941406 -4.085938 49.285156 -2.289062 45.984375 -0.9375 C 42.679688 0.414062 38.644531 1.09375 33.875 1.09375 C 27.5 1.09375 22.128906 -0.242188 17.765625 -2.921875 C 13.398438 -5.597656 10.097656 -9.351562 7.859375 -14.1875 C 5.628906 -19.03125 4.515625 -24.640625 4.515625 -31.015625 C 4.515625 -38.566406 5.941406 -44.835938 8.796875 -49.828125 C 11.660156 -54.816406 15.546875 -58.554688 20.453125 -61.046875 C 25.367188 -63.546875 30.867188 -64.796875 36.953125 -64.796875 C 37.984375 -64.796875 39.15625 -64.753906 40.46875 -64.671875 C 41.789062 -64.597656 42.859375 -64.488281 43.671875 -64.34375 L 43.234375 -58.625 C 42.492188 -58.769531 41.609375 -58.878906 40.578125 -58.953125 C 39.554688 -59.023438 38.382812 -59.0625 37.0625 -59.0625 C 29.363281 -59.0625 23.128906 -56.789062 18.359375 -52.25 C 13.597656 -47.707031 11.21875 -41.253906 11.21875 -32.890625 C 11.21875 -26.285156 13.050781 -20.894531 16.71875 -16.71875 C 20.382812 -12.539062 26.175781 -10.453125 34.09375 -10.453125 C 39.007812 -10.453125 42.84375 -11.09375 45.59375 -12.375 C 48.34375 -13.65625 50.285156 -15.265625 51.421875 -17.203125 C 52.554688 -19.148438 53.125 -21.113281 53.125 -23.09375 C 53.125 -26.46875 52.300781 -28.664062 50.65625 -29.6875 C 49.007812 -30.71875 47.046875 -31.234375 44.765625 -31.234375 C 44.328125 -31.234375 43.890625 -31.210938 43.453125 -31.171875 C 43.015625 -31.140625 42.5 -31.085938 41.90625 -31.015625 L 37.84375 -32.125 C 39.53125 -43.195312 43.03125 -51.410156 48.34375 -56.765625 C 53.65625 -62.117188 60.09375 -64.796875 67.65625 -64.796875 C 73.519531 -64.796875 78.429688 -63.328125 82.390625 -60.390625 C 86.347656 -57.453125 89.332031 -53.472656 91.34375 -48.453125 C 93.363281 -43.429688 94.375 -37.84375 94.375 -31.6875 C 94.375 -23.976562 93.09375 -17.738281 90.53125 -12.96875 C 87.96875 -8.207031 84.539062 -4.707031 80.25 -2.46875 C 75.957031 -0.238281 71.171875 0.875 65.890625 0.875 Z M 65.890625 0.875 "/>
</symbol>
<symbol overflow="visible" id="sinhala-akhn-touching:id0:glyph0-2">
<path style="stroke:none;" d="M 17.8125 -88.21875 L 4.40625 -75.125 L 17.8125 -61.9375 L 13.3125 -57.53125 L 3.1875 -67.65625 L 3.1875 22.65625 L -3.1875 22.65625 L -3.1875 -67.65625 L -13.3125 -57.53125 L -17.8125 -61.9375 L -4.40625 -75.125 L -17.8125 -88.21875 L -13.3125 -92.625 L 0 -79.3125 L 13.3125 -92.625 Z M 17.8125 -88.21875 "/>
</symbol>
<symbol overflow="visible" id="sinhala-akhn-touching:id0:glyph0-3">
<path style="stroke:none;" d="M 38.171875 -56.09375 C 38.171875 -53.382812 36.882812 -52.03125 34.3125 -52.03125 C 31.601562 -52.03125 30.25 -53.382812 30.25 -56.09375 C 30.25 -58.738281 31.601562 -60.0625 34.3125 -60.0625 C 36.882812 -60.0625 38.171875 -58.738281 38.171875 -56.09375 Z M 20.453125 -49.171875 C 20.453125 -46.523438 19.097656 -45.203125 16.390625 -45.203125 C 13.753906 -45.203125 12.4375 -46.523438 12.4375 -49.171875 C 12.4375 -51.878906 13.753906 -53.234375 16.390625 -53.234375 C 19.097656 -53.234375 20.453125 -51.878906 20.453125 -49.171875 Z M 55.984375 -49.171875 C 55.984375 -46.523438 54.664062 -45.203125 52.03125 -45.203125 C 49.382812 -45.203125 48.0625 -46.523438 48.0625 -49.171875 C 48.0625 -51.878906 49.382812 -53.234375 52.03125 -53.234375 C 54.664062 -53.234375 55.984375 -51.878906 55.984375 -49.171875 Z M 62.046875 -31.90625 C 62.046875 -29.257812 60.757812 -27.9375 58.1875 -27.9375 C 55.476562 -27.9375 54.125 -29.257812 54.125 -31.90625 C 54.125 -34.613281 55.476562 -35.96875 58.1875 -35.96875 C 60.757812 -35.96875 62.046875 -34.613281 62.046875 -31.90625 Z M 14.1875 -31.90625 C 14.1875 -29.257812 12.90625 -27.9375 10.34375 -27.9375 C 7.625 -27.9375 6.265625 -29.257812 6.265625 -31.90625 C 6.265625 -34.613281 7.625 -35.96875 10.34375 -35.96875 C 12.90625 -35.96875 14.1875 -34.613281 14.1875 -31.90625 Z M 20.453125 -14.625 C 20.453125 -11.914062 19.097656 -10.5625 16.390625 -10.5625 C 13.753906 -10.5625 12.4375 -11.914062 12.4375 -14.625 C 12.4375 -17.269531 13.753906 -18.59375 16.390625 -18.59375 C 19.097656 -18.59375 20.453125 -17.269531 20.453125 -14.625 Z M 55.984375 -14.625 C 55.984375 -11.914062 54.664062 -10.5625 52.03125 -10.5625 C 49.382812 -10.5625 48.0625 -11.914062 48.0625 -14.625 C 48.0625 -17.269531 49.382812 -18.59375 52.03125 -18.59375 C 54.664062 -18.59375 55.984375 -17.269531 55.984375 -14.625 Z M 38.171875 -7.703125 C 38.171875 -5.054688 36.882812 -3.734375 34.3125 -3.734375 C 31.601562 -3.734375 30.25 -5.054688 30.25 -7.703125 C 30.25 -10.410156 31.601562 -11.765625 34.3125 -11.765625 C 36.882812 -11.765625 38.171875 -10.410156 38.171875 -7.703125 Z M 38.171875 -7.703125 "/>
</symbol>
<symbol overflow="visible" id="sinhala-akhn-touching:id0:glyph0-4">
<path style="stroke:none;" d="M -9.6875 -105.9375 C -6.601562 -105.9375 -4.234375 -104.925781 -2.578125 -102.90625 C -0.929688 -100.882812 -0.109375 -98.335938 -0.109375 -95.265625 C -0.109375 -92.179688 -0.894531 -89.628906 -2.46875 -87.609375 C -4.050781 -85.597656 -6.492188 -84.59375 -9.796875 -84.59375 C -10.742188 -84.59375 -11.75 -84.753906 -12.8125 -85.078125 C -13.875 -85.410156 -14.847656 -85.945312 -15.734375 -86.6875 C -15.660156 -85.582031 -15.625 -84.476562 -15.625 -83.375 C -15.625 -82.28125 -15.625 -81.179688 -15.625 -80.078125 L -15.625 -53.796875 L -21.34375 -53.796875 L -21.34375 -93.28125 C -21.34375 -96.0625 -21.890625 -97.910156 -22.984375 -98.828125 C -24.085938 -99.742188 -25.191406 -100.203125 -26.296875 -100.203125 C -26.953125 -100.203125 -27.5 -100.179688 -27.9375 -100.140625 C -28.375 -100.109375 -28.707031 -100.054688 -28.9375 -99.984375 L -29.8125 -104.9375 C -29.226562 -105.226562 -28.550781 -105.46875 -27.78125 -105.65625 C -27.007812 -105.84375 -25.960938 -105.9375 -24.640625 -105.9375 C -23.316406 -105.9375 -22.066406 -105.585938 -20.890625 -104.890625 C -19.722656 -104.191406 -18.738281 -103.179688 -17.9375 -101.859375 C -15.65625 -104.578125 -12.90625 -105.9375 -9.6875 -105.9375 Z M -10.5625 -101.09375 C -11.8125 -101.09375 -12.851562 -100.722656 -13.6875 -99.984375 C -14.53125 -99.253906 -15.175781 -98.265625 -15.625 -97.015625 L -15.625 -93.390625 C -15.175781 -92.210938 -14.550781 -91.273438 -13.75 -90.578125 C -12.945312 -89.890625 -11.8125 -89.546875 -10.34375 -89.546875 C -7.332031 -89.546875 -5.828125 -91.414062 -5.828125 -95.15625 C -5.828125 -99.113281 -7.40625 -101.09375 -10.5625 -101.09375 Z M -10.5625 -101.09375 "/>
</symbol>
<symbol overflow="visible" id="sinhala-akhn-touching:id0:glyph0-5">
<path style="stroke:none;" d="M 27.5 1.09375 C 20.820312 1.09375 15.445312 -0.679688 11.375 -4.234375 C 7.3125 -7.785156 5.28125 -13.226562 5.28125 -20.5625 C 5.28125 -26.0625 6.523438 -30.679688 9.015625 -34.421875 C 11.515625 -38.171875 14.78125 -41.109375 18.8125 -43.234375 C 17.125 -43.160156 15.289062 -43.101562 13.3125 -43.0625 C 11.332031 -43.03125 9.535156 -43.015625 7.921875 -43.015625 L 2.640625 -43.015625 L 2.640625 -48.625 L 37.1875 -48.625 C 36.664062 -51.1875 35.578125 -53.507812 33.921875 -55.59375 C 32.273438 -57.6875 29.617188 -58.734375 25.953125 -58.734375 C 21.554688 -58.734375 19.359375 -56.789062 19.359375 -52.90625 C 19.359375 -52.613281 19.394531 -52.226562 19.46875 -51.75 C 19.539062 -51.28125 19.613281 -50.859375 19.6875 -50.484375 L 10.671875 -49.71875 C 10.453125 -50.300781 10.285156 -51.03125 10.171875 -51.90625 C 10.066406 -52.789062 10.015625 -53.457031 10.015625 -53.90625 C 10.015625 -57.5 11.367188 -60.210938 14.078125 -62.046875 C 16.796875 -63.878906 20.132812 -64.796875 24.09375 -64.796875 C 30.320312 -64.796875 35.101562 -62.941406 38.4375 -59.234375 C 41.78125 -55.535156 43.453125 -50.640625 43.453125 -44.546875 L 43.453125 -43.015625 L 30.578125 -43.015625 C 24.273438 -41.617188 19.617188 -39.160156 16.609375 -35.640625 C 13.597656 -32.117188 12.09375 -28.085938 12.09375 -23.546875 C 12.09375 -20.023438 12.734375 -17.253906 14.015625 -15.234375 C 15.304688 -13.210938 17.015625 -11.78125 19.140625 -10.9375 C 21.265625 -10.101562 23.613281 -9.6875 26.1875 -9.6875 C 28.3125 -9.6875 30.066406 -9.757812 31.453125 -9.90625 C 29.472656 -11.957031 28.484375 -14.375 28.484375 -17.15625 C 28.484375 -20.820312 29.894531 -23.644531 32.71875 -25.625 C 35.539062 -27.601562 39.410156 -28.59375 44.328125 -28.59375 C 49.316406 -28.59375 53.222656 -27.601562 56.046875 -25.625 C 58.867188 -23.644531 60.28125 -20.820312 60.28125 -17.15625 C 60.28125 -14.300781 59.328125 -11.882812 57.421875 -9.90625 C 58.296875 -9.832031 59.15625 -9.773438 60 -9.734375 C 60.84375 -9.703125 61.671875 -9.6875 62.484375 -9.6875 C 66.734375 -9.6875 70.195312 -10.785156 72.875 -12.984375 C 75.550781 -15.179688 76.890625 -18.773438 76.890625 -23.765625 C 76.890625 -29.410156 74.6875 -34.03125 70.28125 -37.625 C 65.882812 -41.21875 58.703125 -43.015625 48.734375 -43.015625 L 46.96875 -43.015625 L 46.96875 -43.671875 C 46.96875 -47.992188 47.773438 -51.734375 49.390625 -54.890625 C 51.003906 -58.046875 53.203125 -60.484375 55.984375 -62.203125 C 58.773438 -63.929688 61.929688 -64.796875 65.453125 -64.796875 C 70.441406 -64.796875 74.070312 -63.546875 76.34375 -61.046875 C 78.613281 -58.554688 79.75 -55.367188 79.75 -51.484375 C 79.75 -50.085938 79.617188 -48.75 79.359375 -47.46875 C 79.109375 -46.1875 78.757812 -44.921875 78.3125 -43.671875 L 72.8125 -45.4375 C 73.1875 -46.238281 73.445312 -47.113281 73.59375 -48.0625 C 73.738281 -49.019531 73.8125 -49.863281 73.8125 -50.59375 C 73.8125 -53.164062 72.984375 -55.070312 71.328125 -56.3125 C 69.679688 -57.5625 67.46875 -58.1875 64.6875 -58.1875 C 61.382812 -58.1875 58.816406 -57.269531 56.984375 -55.4375 C 55.148438 -53.601562 53.9375 -51.296875 53.34375 -48.515625 C 58.695312 -48.296875 63.664062 -47.25 68.25 -45.375 C 72.832031 -43.5 76.515625 -40.671875 79.296875 -36.890625 C 82.085938 -33.117188 83.484375 -28.191406 83.484375 -22.109375 C 83.484375 -14.992188 81.757812 -9.347656 78.3125 -5.171875 C 74.875 -0.992188 69.191406 1.09375 61.265625 1.09375 C 58.847656 1.09375 56.484375 0.851562 54.171875 0.375 C 51.859375 -0.09375 49.972656 -0.582031 48.515625 -1.09375 L 50.375 -11 C 52.582031 -12.539062 53.6875 -14.445312 53.6875 -16.71875 C 53.6875 -18.257812 53.039062 -19.671875 51.75 -20.953125 C 50.46875 -22.234375 47.992188 -22.875 44.328125 -22.875 C 40.734375 -22.875 38.296875 -22.234375 37.015625 -20.953125 C 35.734375 -19.671875 35.09375 -18.257812 35.09375 -16.71875 C 35.09375 -15.539062 35.363281 -14.507812 35.90625 -13.625 C 36.457031 -12.75 37.285156 -11.875 38.390625 -11 L 40.265625 -1.09375 C 38.867188 -0.4375 37.015625 0.0859375 34.703125 0.484375 C 32.390625 0.890625 29.988281 1.09375 27.5 1.09375 Z M 27.5 1.09375 "/>
</symbol>
</g>
<g>
<symbol overflow="visible" id="sinhala-akhn-touching:id1:glyph0-0">
<path style="stroke:none;" d="M 5.375 -96.6875 L 69.828125 -96.6875 L 69.828125 0 L 5.375 0 Z M 8.0625 -2.6875 L 67.140625 -2.6875 L 67.140625 -94 L 8.0625 -94 Z M 8.0625 -2.6875 "/>
</symbol>
<symbol overflow="visible" id="sinhala-akhn-touching:id1:glyph0-1">
<path style="stroke:none;" d="M 68.15625 -13.75 L 66.28125 -18.640625 L 88.09375 -27.390625 L 6.984375 -27.390625 L 6.984375 -34 L 88.09375 -34 L 66.28125 -42.75 L 68.15625 -47.640625 L 99.09375 -34.265625 L 99.09375 -27.125 Z M 68.15625 -13.75 "/>
</symbol>
</g>
<g>
<symbol overflow="visible" id="sinhala-akhn-touching:id2:glyph0-0">
<path style="stroke:none;" d="M 10.34375 -78.546875 L 55.546875 -78.546875 L 55.546875 0 L 10.34375 0 Z M 49.9375 -5.609375 L 49.9375 -72.9375 L 15.953125 -72.9375 L 15.953125 -5.609375 Z M 49.9375 -5.609375 "/>
</symbol>
<symbol overflow="visible" id="sinhala-akhn-touching:id2:glyph0-1">
<path style="stroke:none;" d="M 65.890625 0.875 C 61.492188 0.875 57.9375 0.507812 55.21875 -0.21875 L 56.65625 -5.9375 C 57.96875 -5.570312 59.300781 -5.296875 60.65625 -5.109375 C 62.019531 -4.929688 63.726562 -4.84375 65.78125 -4.84375 C 72.675781 -4.84375 77.992188 -6.945312 81.734375 -11.15625 C 85.472656 -15.375 87.34375 -21.300781 87.34375 -28.9375 C 87.34375 -36.78125 85.5625 -43.101562 82 -47.90625 C 78.445312 -52.707031 73.1875 -55.109375 66.21875 -55.109375 C 60.570312 -55.109375 55.96875 -53.515625 52.40625 -50.328125 C 48.851562 -47.140625 46.195312 -42.609375 44.4375 -36.734375 C 44.800781 -36.734375 45.207031 -36.734375 45.65625 -36.734375 C 49.6875 -36.734375 53.019531 -35.578125 55.65625 -33.265625 C 58.300781 -30.960938 59.625 -27.023438 59.625 -21.453125 C 59.625 -18.878906 59.179688 -16.273438 58.296875 -13.640625 C 57.421875 -11.003906 55.972656 -8.566406 53.953125 -6.328125 C 51.941406 -4.085938 49.285156 -2.289062 45.984375 -0.9375 C 42.679688 0.414062 38.644531 1.09375 33.875 1.09375 C 27.5 1.09375 22.128906 -0.242188 17.765625 -2.921875 C 13.398438 -5.597656 10.097656 -9.351562 7.859375 -14.1875 C 5.628906 -19.03125 4.515625 -24.640625 4.515625 -31.015625 C 4.515625 -38.566406 5.941406 -44.835938 8.796875 -49.828125 C 11.660156 -54.816406 15.546875 -58.554688 20.453125 -61.046875 C 25.367188 -63.546875 30.867188 -64.796875 36.953125 -64.796875 C 37.984375 -64.796875 39.15625 -64.753906 40.46875 -64.671875 C 41.789062 -64.597656 42.859375 -64.488281 43.671875 -64.34375 L 43.234375 -58.625 C 42.492188 -58.769531 41.609375 -58.878906 40.578125 -58.953125 C 39.554688 -59.023438 38.382812 -59.0625 37.0625 -59.0625 C 29.363281 -59.0625 23.128906 -56.789062 18.359375 -52.25 C 13.597656 -47.707031 11.21875 -41.253906 11.21875 -32.890625 C 11.21875 -26.285156 13.050781 -20.894531 16.71875 -16.71875 C 20.382812 -12.539062 26.175781 -10.453125 34.09375 -10.453125 C 39.007812 -10.453125 42.84375 -11.09375 45.59375 -12.375 C 48.34375 -13.65625 50.285156 -15.265625 51.421875 -17.203125 C 52.554688 -19.148438 53.125 -21.113281 53.125 -23.09375 C 53.125 -26.46875 52.300781 -28.664062 50.65625 -29.6875 C 49.007812 -30.71875 47.046875 -31.234375 44.765625 -31.234375 C 44.328125 -31.234375 43.890625 -31.210938 43.453125 -31.171875 C 43.015625 -31.140625 42.5 -31.085938 41.90625 -31.015625 L 37.84375 -32.125 C 39.53125 -43.195312 43.03125 -51.410156 48.34375 -56.765625 C 53.65625 -62.117188 60.09375 -64.796875 67.65625 -64.796875 C 73.519531 -64.796875 78.429688 -63.328125 82.390625 -60.390625 C 86.347656 -57.453125 89.332031 -53.472656 91.34375 -48.453125 C 93.363281 -43.429688 94.375 -37.84375 94.375 -31.6875 C 94.375 -23.976562 93.09375 -17.738281 90.53125 -12.96875 C 87.96875 -8.207031 84.539062 -4.707031 80.25 -2.46875 C 75.957031 -0.238281 71.171875 0.875 65.890625 0.875 Z M 65.890625 0.875 "/>
</symbol>
<symbol overflow="visible" id="sinhala-akhn-touching:id2:glyph0-2">
<path style="stroke:none;" d="M 27.5 1.09375 C 20.820312 1.09375 15.445312 -0.679688 11.375 -4.234375 C 7.3125 -7.785156 5.28125 -13.226562 5.28125 -20.5625 C 5.28125 -26.0625 6.523438 -30.679688 9.015625 -34.421875 C 11.515625 -38.171875 14.78125 -41.109375 18.8125 -43.234375 C 17.125 -43.160156 15.289062 -43.101562 13.3125 -43.0625 C 11.332031 -43.03125 9.535156 -43.015625 7.921875 -43.015625 L 2.640625 -43.015625 L 2.640625 -48.625 L 37.1875 -48.625 C 36.664062 -51.1875 35.578125 -53.507812 33.921875 -55.59375 C 32.273438 -57.6875 29.617188 -58.734375 25.953125 -58.734375 C 21.554688 -58.734375 19.359375 -56.789062 19.359375 -52.90625 C 19.359375 -52.613281 19.394531 -52.226562 19.46875 -51.75 C 19.539062 -51.28125 19.613281 -50.859375 19.6875 -50.484375 L 10.671875 -49.71875 C 10.453125 -50.300781 10.285156 -51.03125 10.171875 -51.90625 C 10.066406 -52.789062 10.015625 -53.457031 10.015625 -53.90625 C 10.015625 -57.5 11.367188 -60.210938 14.078125 -62.046875 C 16.796875 -63.878906 20.132812 -64.796875 24.09375 -64.796875 C 30.320312 -64.796875 35.101562 -62.941406 38.4375 -59.234375 C 41.78125 -55.535156 43.453125 -50.640625 43.453125 -44.546875 L 43.453125 -43.015625 L 30.578125 -43.015625 C 24.273438 -41.617188 19.617188 -39.160156 16.609375 -35.640625 C 13.597656 -32.117188 12.09375 -28.085938 12.09375 -23.546875 C 12.09375 -20.023438 12.734375 -17.253906 14.015625 -15.234375 C 15.304688 -13.210938 17.015625 -11.78125 19.140625 -10.9375 C 21.265625 -10.101562 23.613281 -9.6875 26.1875 -9.6875 C 28.3125 -9.6875 30.066406 -9.757812 31.453125 -9.90625 C 29.472656 -11.957031 28.484375 -14.375 28.484375 -17.15625 C 28.484375 -20.820312 29.894531 -23.644531 32.71875 -25.625 C 35.539062 -27.601562 39.410156 -28.59375 44.328125 -28.59375 C 49.316406 -28.59375 53.222656 -27.601562 56.046875 -25.625 C 58.867188 -23.644531 60.28125 -20.820312 60.28125 -17.15625 C 60.28125 -14.300781 59.328125 -11.882812 57.421875 -9.90625 C 58.296875 -9.832031 59.15625 -9.773438 60 -9.734375 C 60.84375 -9.703125 61.671875 -9.6875 62.484375 -9.6875 C 66.734375 -9.6875 70.195312 -10.785156 72.875 -12.984375 C 75.550781 -15.179688 76.890625 -18.773438 76.890625 -23.765625 C 76.890625 -29.410156 74.6875 -34.03125 70.28125 -37.625 C 65.882812 -41.21875 58.703125 -43.015625 48.734375 -43.015625 L 46.96875 -43.015625 L 46.96875 -43.671875 C 46.96875 -47.992188 47.773438 -51.734375 49.390625 -54.890625 C 51.003906 -58.046875 53.203125 -60.484375 55.984375 -62.203125 C 58.773438 -63.929688 61.929688 -64.796875 65.453125 -64.796875 C 70.441406 -64.796875 74.070312 -63.546875 76.34375 -61.046875 C 78.613281 -58.554688 79.75 -55.367188 79.75 -51.484375 C 79.75 -50.085938 79.617188 -48.75 79.359375 -47.46875 C 79.109375 -46.1875 78.757812 -44.921875 78.3125 -43.671875 L 72.8125 -45.4375 C 73.1875 -46.238281 73.445312 -47.113281 73.59375 -48.0625 C 73.738281 -49.019531 73.8125 -49.863281 73.8125 -50.59375 C 73.8125 -53.164062 72.984375 -55.070312 71.328125 -56.3125 C 69.679688 -57.5625 67.46875 -58.1875 64.6875 -58.1875 C 61.382812 -58.1875 58.816406 -57.269531 56.984375 -55.4375 C 55.148438 -53.601562 53.9375 -51.296875 53.34375 -48.515625 C 58.695312 -48.296875 63.664062 -47.25 68.25 -45.375 C 72.832031 -43.5 76.515625 -40.671875 79.296875 -36.890625 C 82.085938 -33.117188 83.484375 -28.191406 83.484375 -22.109375 C 83.484375 -14.992188 81.757812 -9.347656 78.3125 -5.171875 C 74.875 -0.992188 69.191406 1.09375 61.265625 1.09375 C 58.847656 1.09375 56.484375 0.851562 54.171875 0.375 C 51.859375 -0.09375 49.972656 -0.582031 48.515625 -1.09375 L 50.375 -11 C 52.582031 -12.539062 53.6875 -14.445312 53.6875 -16.71875 C 53.6875 -18.257812 53.039062 -19.671875 51.75 -20.953125 C 50.46875 -22.234375 47.992188 -22.875 44.328125 -22.875 C 40.734375 -22.875 38.296875 -22.234375 37.015625 -20.953125 C 35.734375 -19.671875 35.09375 -18.257812 35.09375 -16.71875 C 35.09375 -15.539062 35.363281 -14.507812 35.90625 -13.625 C 36.457031 -12.75 37.285156 -11.875 38.390625 -11 L 40.265625 -1.09375 C 38.867188 -0.4375 37.015625 0.0859375 34.703125 0.484375 C 32.390625 0.890625 29.988281 1.09375 27.5 1.09375 Z M 27.5 1.09375 "/>
</symbol>
</g>
</defs>
  <g id="sinhala-akhn-touching:id0:id0" transform="matrix(1.25,0,0,1.25,0.0,8.5546875)"><g id="sinhala-akhn-touching:id0:surface1">
<g style="fill:rgb(0%,0%,0%);fill-opacity:1;">
  <use xlink:href="#sinhala-akhn-touching:id0:glyph0-1" x="16" y="111.671875" class="c0"/>
  <use xlink:href="#sinhala-akhn-touching:id0:glyph0-2" x="115" y="111.671875" class="z"/>
  <use xlink:href="#sinhala-akhn-touching:id0:glyph0-3" x="115" y="111.671875" class="dc"/>
  <use xlink:href="#sinhala-akhn-touching:id0:glyph0-4" x="183.421875" y="111.671875" class="c1"/>
  <use xlink:href="#sinhala-akhn-touching:id0:glyph0-5" x="183.421875" y="111.671875" class="c2"/>
</g>
</g>
</g>
  <g id="sinhala-akhn-touching:id1:id1" transform="matrix(1.25,0,0,1.25,359.27734375,0.0)"><g id="sinhala-akhn-touching:id1:surface1">
<g style="fill:rgb(0%,0%,0%);fill-opacity:1;">
  <use xlink:href="#sinhala-akhn-touching:id1:glyph0-1" x="0" y="120.84375" class="arrow"/>
</g>
</g>
</g>
  <g id="sinhala-akhn-touching:id2:id2" transform="matrix(1.25,0,0,1.25,491.875,8.5546875)"><g id="sinhala-akhn-touching:id2:surface1">
<g style="fill:rgb(0%,0%,0%);fill-opacity:1;">
  <use xlink:href="#sinhala-akhn-touching:id2:glyph0-1" x="16" y="111.671875" class="c3"/>
  <use xlink:href="#sinhala-akhn-touching:id2:glyph0-2" x="104.4375" y="111.671875" class="c4"/>
</g>
</g>
</g>
</svg>
