<?xml version="1.0" standalone="no"?>
<!DOCTYPE svg PUBLIC "-//W3C//DTD SVG 1.1//EN"
 "http://www.w3.org/Graphics/SVG/1.1/DTD/svg11.dtd">
<!-- Created with svg_stack (http://github.com/astraw/svg_stack) -->
<svg xmlns="http://www.w3.org/2000/svg" xmlns:sodipodi="http://sodipodi.sourceforge.net/DTD/sodipodi-0.dtd" xmlns:xlink="http://www.w3.org/1999/xlink" version="1.1" width="731.81640625" height="201.40625">
  <defs><g>
<symbol overflow="visible" id="id0:glyph0-0">
<path style="stroke:none;" d="M 10.34375 -78.546875 L 55.546875 -78.546875 L 55.546875 0 L 10.34375 0 Z M 49.9375 -5.609375 L 49.9375 -72.9375 L 15.953125 -72.9375 L 15.953125 -5.609375 Z M 49.9375 -5.609375 "/>
</symbol>
<symbol overflow="visible" id="id0:glyph0-1">
<path style="stroke:none;" d="M 28.703125 1.09375 C 24.015625 1.09375 19.835938 -0.09375 16.171875 -2.46875 C 12.503906 -4.851562 9.644531 -8.191406 7.59375 -12.484375 C 5.539062 -16.773438 4.515625 -21.742188 4.515625 -27.390625 C 4.515625 -32.960938 5.375 -37.800781 7.09375 -41.90625 C 8.820312 -46.007812 11.171875 -49.414062 14.140625 -52.125 C 17.109375 -54.84375 20.476562 -56.878906 24.25 -58.234375 C 28.03125 -59.597656 31.9375 -60.28125 35.96875 -60.28125 C 41.6875 -60.28125 46.503906 -59.195312 50.421875 -57.03125 C 54.347656 -54.875 57.335938 -51.941406 59.390625 -48.234375 C 61.453125 -44.535156 62.484375 -40.335938 62.484375 -35.640625 C 62.484375 -32.773438 62.078125 -29.894531 61.265625 -27 C 60.460938 -24.101562 59.4375 -21.300781 58.1875 -18.59375 L 61.59375 -18.59375 C 61.738281 -16.164062 62.363281 -14.144531 63.46875 -12.53125 C 64.570312 -10.925781 66.585938 -10.125 69.515625 -10.125 C 70.984375 -10.125 72.503906 -10.507812 74.078125 -11.28125 C 75.660156 -12.050781 77.128906 -13.441406 78.484375 -15.453125 C 79.835938 -17.472656 80.9375 -20.316406 81.78125 -23.984375 C 82.625 -27.648438 83.046875 -32.378906 83.046875 -38.171875 C 83.046875 -47.410156 81.613281 -55.363281 78.75 -62.03125 C 75.894531 -68.707031 71.515625 -73.820312 65.609375 -77.375 C 59.710938 -80.9375 52.253906 -82.71875 43.234375 -82.71875 C 36.191406 -82.71875 29.898438 -81.816406 24.359375 -80.015625 C 18.828125 -78.222656 13.457031 -75.492188 8.25 -71.828125 L 4.515625 -76.890625 C 7.960938 -79.160156 11.535156 -81.15625 15.234375 -82.875 C 18.941406 -84.601562 23.066406 -85.960938 27.609375 -86.953125 C 32.160156 -87.941406 37.367188 -88.4375 43.234375 -88.4375 C 52.910156 -88.4375 61.234375 -86.546875 68.203125 -82.765625 C 75.171875 -78.992188 80.539062 -73.296875 84.3125 -65.671875 C 88.09375 -58.046875 89.984375 -48.507812 89.984375 -37.0625 C 89.984375 -29.726562 89.429688 -23.601562 88.328125 -18.6875 C 87.234375 -13.78125 85.726562 -9.878906 83.8125 -6.984375 C 81.90625 -4.085938 79.742188 -2.015625 77.328125 -0.765625 C 74.910156 0.472656 72.378906 1.09375 69.734375 1.09375 C 66.585938 1.09375 64.113281 0.453125 62.3125 -0.828125 C 60.519531 -2.109375 59.179688 -3.753906 58.296875 -5.765625 C 57.421875 -7.785156 56.835938 -9.859375 56.546875 -11.984375 L 54.78125 -11.984375 C 53.75 -9.859375 52.773438 -7.710938 51.859375 -5.546875 C 50.941406 -3.390625 50.046875 -1.210938 49.171875 0.984375 L 43.125 -1.203125 C 44.363281 -3.992188 45.515625 -6.453125 46.578125 -8.578125 C 47.648438 -10.703125 48.769531 -12.90625 49.9375 -15.1875 C 51.40625 -17.820312 52.5625 -20.625 53.40625 -23.59375 C 54.25 -26.5625 54.671875 -29.179688 54.671875 -31.453125 C 54.671875 -37.617188 52.816406 -42.257812 49.109375 -45.375 C 45.410156 -48.488281 40.59375 -50.046875 34.65625 -50.046875 C 27.6875 -50.046875 22.019531 -47.9375 17.65625 -43.71875 C 13.289062 -39.507812 11.109375 -33.476562 11.109375 -25.625 C 11.109375 -21.738281 11.546875 -18.566406 12.421875 -16.109375 C 13.304688 -13.660156 14.628906 -11.367188 16.390625 -9.234375 C 15.878906 -10.484375 15.625 -11.769531 15.625 -13.09375 C 15.625 -16.976562 16.882812 -19.960938 19.40625 -22.046875 C 21.9375 -24.140625 25 -25.1875 28.59375 -25.1875 C 33.144531 -25.1875 36.609375 -23.976562 38.984375 -21.5625 C 41.367188 -19.144531 42.5625 -16.023438 42.5625 -12.203125 C 42.5625 -8.023438 41.332031 -4.765625 38.875 -2.421875 C 36.425781 -0.078125 33.035156 1.09375 28.703125 1.09375 Z M 28.59375 -19.578125 C 26.394531 -19.578125 24.617188 -18.9375 23.265625 -17.65625 C 21.910156 -16.375 21.234375 -14.445312 21.234375 -11.875 C 21.234375 -10.039062 21.800781 -8.390625 22.9375 -6.921875 C 24.070312 -5.460938 25.992188 -4.734375 28.703125 -4.734375 C 30.910156 -4.734375 32.726562 -5.375 34.15625 -6.65625 C 35.582031 -7.9375 36.296875 -9.675781 36.296875 -11.875 C 36.296875 -14.226562 35.691406 -16.097656 34.484375 -17.484375 C 33.273438 -18.878906 31.3125 -19.578125 28.59375 -19.578125 Z M 28.59375 -19.578125 "/>
</symbol>
<symbol overflow="visible" id="id0:glyph0-2">
<path style="stroke:none;" d="M 17.8125 -88.21875 L 4.40625 -75.125 L 17.8125 -61.9375 L 13.3125 -57.53125 L 3.1875 -67.65625 L 3.1875 22.65625 L -3.1875 22.65625 L -3.1875 -67.65625 L -13.3125 -57.53125 L -17.8125 -61.9375 L -4.40625 -75.125 L -17.8125 -88.21875 L -13.3125 -92.625 L 0 -79.3125 L 13.3125 -92.625 Z M 17.8125 -88.21875 "/>
</symbol>
<symbol overflow="visible" id="id0:glyph0-3">
<path style="stroke:none;" d="M 38.171875 -56.09375 C 38.171875 -53.382812 36.882812 -52.03125 34.3125 -52.03125 C 31.601562 -52.03125 30.25 -53.382812 30.25 -56.09375 C 30.25 -58.738281 31.601562 -60.0625 34.3125 -60.0625 C 36.882812 -60.0625 38.171875 -58.738281 38.171875 -56.09375 Z M 20.453125 -49.171875 C 20.453125 -46.523438 19.097656 -45.203125 16.390625 -45.203125 C 13.753906 -45.203125 12.4375 -46.523438 12.4375 -49.171875 C 12.4375 -51.878906 13.753906 -53.234375 16.390625 -53.234375 C 19.097656 -53.234375 20.453125 -51.878906 20.453125 -49.171875 Z M 55.984375 -49.171875 C 55.984375 -46.523438 54.664062 -45.203125 52.03125 -45.203125 C 49.382812 -45.203125 48.0625 -46.523438 48.0625 -49.171875 C 48.0625 -51.878906 49.382812 -53.234375 52.03125 -53.234375 C 54.664062 -53.234375 55.984375 -51.878906 55.984375 -49.171875 Z M 62.046875 -31.90625 C 62.046875 -29.257812 60.757812 -27.9375 58.1875 -27.9375 C 55.476562 -27.9375 54.125 -29.257812 54.125 -31.90625 C 54.125 -34.613281 55.476562 -35.96875 58.1875 -35.96875 C 60.757812 -35.96875 62.046875 -34.613281 62.046875 -31.90625 Z M 14.1875 -31.90625 C 14.1875 -29.257812 12.90625 -27.9375 10.34375 -27.9375 C 7.625 -27.9375 6.265625 -29.257812 6.265625 -31.90625 C 6.265625 -34.613281 7.625 -35.96875 10.34375 -35.96875 C 12.90625 -35.96875 14.1875 -34.613281 14.1875 -31.90625 Z M 20.453125 -14.625 C 20.453125 -11.914062 19.097656 -10.5625 16.390625 -10.5625 C 13.753906 -10.5625 12.4375 -11.914062 12.4375 -14.625 C 12.4375 -17.269531 13.753906 -18.59375 16.390625 -18.59375 C 19.097656 -18.59375 20.453125 -17.269531 20.453125 -14.625 Z M 55.984375 -14.625 C 55.984375 -11.914062 54.664062 -10.5625 52.03125 -10.5625 C 49.382812 -10.5625 48.0625 -11.914062 48.0625 -14.625 C 48.0625 -17.269531 49.382812 -18.59375 52.03125 -18.59375 C 54.664062 -18.59375 55.984375 -17.269531 55.984375 -14.625 Z M 38.171875 -7.703125 C 38.171875 -5.054688 36.882812 -3.734375 34.3125 -3.734375 C 31.601562 -3.734375 30.25 -5.054688 30.25 -7.703125 C 30.25 -10.410156 31.601562 -11.765625 34.3125 -11.765625 C 36.882812 -11.765625 38.171875 -10.410156 38.171875 -7.703125 Z M 38.171875 -7.703125 "/>
</symbol>
<symbol overflow="visible" id="id0:glyph0-4">
<path style="stroke:none;" d="M -9.6875 -105.9375 C -6.601562 -105.9375 -4.234375 -104.925781 -2.578125 -102.90625 C -0.929688 -100.882812 -0.109375 -98.335938 -0.109375 -95.265625 C -0.109375 -92.179688 -0.894531 -89.628906 -2.46875 -87.609375 C -4.050781 -85.597656 -6.492188 -84.59375 -9.796875 -84.59375 C -10.742188 -84.59375 -11.75 -84.753906 -12.8125 -85.078125 C -13.875 -85.410156 -14.847656 -85.945312 -15.734375 -86.6875 C -15.660156 -85.582031 -15.625 -84.476562 -15.625 -83.375 C -15.625 -82.28125 -15.625 -81.179688 -15.625 -80.078125 L -15.625 -53.796875 L -21.34375 -53.796875 L -21.34375 -93.28125 C -21.34375 -96.0625 -21.890625 -97.910156 -22.984375 -98.828125 C -24.085938 -99.742188 -25.191406 -100.203125 -26.296875 -100.203125 C -26.953125 -100.203125 -27.5 -100.179688 -27.9375 -100.140625 C -28.375 -100.109375 -28.707031 -100.054688 -28.9375 -99.984375 L -29.8125 -104.9375 C -29.226562 -105.226562 -28.550781 -105.46875 -27.78125 -105.65625 C -27.007812 -105.84375 -25.960938 -105.9375 -24.640625 -105.9375 C -23.316406 -105.9375 -22.066406 -105.585938 -20.890625 -104.890625 C -19.722656 -104.191406 -18.738281 -103.179688 -17.9375 -101.859375 C -15.65625 -104.578125 -12.90625 -105.9375 -9.6875 -105.9375 Z M -10.5625 -101.09375 C -11.8125 -101.09375 -12.851562 -100.722656 -13.6875 -99.984375 C -14.53125 -99.253906 -15.175781 -98.265625 -15.625 -97.015625 L -15.625 -93.390625 C -15.175781 -92.210938 -14.550781 -91.273438 -13.75 -90.578125 C -12.945312 -89.890625 -11.8125 -89.546875 -10.34375 -89.546875 C -7.332031 -89.546875 -5.828125 -91.414062 -5.828125 -95.15625 C -5.828125 -99.113281 -7.40625 -101.09375 -10.5625 -101.09375 Z M -10.5625 -101.09375 "/>
</symbol>
<symbol overflow="visible" id="id0:glyph0-5">
<path style="stroke:none;" d="M 42.34375 1.09375 C 29.957031 1.09375 20.554688 -1.34375 14.140625 -6.21875 C 7.722656 -11.09375 4.515625 -17.859375 4.515625 -26.515625 C 4.515625 -33.472656 6.820312 -38.894531 11.4375 -42.78125 C 16.0625 -46.675781 23.394531 -48.625 33.4375 -48.625 L 34.765625 -48.625 C 34.242188 -51.257812 33.117188 -53.601562 31.390625 -55.65625 C 29.671875 -57.707031 27.054688 -58.734375 23.546875 -58.734375 C 19.140625 -58.734375 16.9375 -56.789062 16.9375 -52.90625 C 16.9375 -51.664062 17.15625 -50.3125 17.59375 -48.84375 L 9.6875 -46.859375 C 8.945312 -47.890625 8.410156 -49.007812 8.078125 -50.21875 C 7.753906 -51.425781 7.59375 -52.65625 7.59375 -53.90625 C 7.59375 -57.5 8.945312 -60.210938 11.65625 -62.046875 C 14.375 -63.878906 17.710938 -64.796875 21.671875 -64.796875 C 27.898438 -64.796875 32.679688 -62.941406 36.015625 -59.234375 C 39.359375 -55.535156 41.03125 -50.640625 41.03125 -44.546875 L 41.03125 -43.015625 L 34.203125 -43.015625 C 29.585938 -43.015625 25.535156 -42.570312 22.046875 -41.6875 C 18.566406 -40.8125 15.875 -39.289062 13.96875 -37.125 C 12.0625 -34.957031 11.109375 -31.96875 11.109375 -28.15625 C 11.109375 -22.363281 13.765625 -17.960938 19.078125 -14.953125 C 24.398438 -11.953125 32.15625 -10.453125 42.34375 -10.453125 C 52.757812 -10.453125 60.609375 -11.953125 65.890625 -14.953125 C 71.171875 -17.960938 73.8125 -22.328125 73.8125 -28.046875 C 73.8125 -31.929688 72.875 -34.957031 71 -37.125 C 69.132812 -39.289062 66.476562 -40.8125 63.03125 -41.6875 C 59.582031 -42.570312 55.472656 -43.015625 50.703125 -43.015625 L 44.546875 -43.015625 L 44.546875 -43.5625 C 44.546875 -48.25 45.476562 -52.257812 47.34375 -55.59375 C 49.21875 -58.9375 51.769531 -61.378906 55 -62.921875 C 56.101562 -69.003906 58.78125 -74.046875 63.03125 -78.046875 C 67.28125 -82.046875 72.488281 -84.882812 78.65625 -86.5625 L 81.1875 -78.4375 C 76.34375 -77.1875 72.210938 -75.570312 68.796875 -73.59375 C 65.390625 -71.613281 62.988281 -68.644531 61.59375 -64.6875 C 62.257812 -64.757812 62.957031 -64.796875 63.6875 -64.796875 C 68.238281 -64.796875 71.6875 -63.765625 74.03125 -61.703125 C 76.375 -59.648438 77.546875 -56.898438 77.546875 -53.453125 C 77.546875 -48.765625 75.273438 -45.796875 70.734375 -44.546875 C 74.035156 -42.640625 76.472656 -40.144531 78.046875 -37.0625 C 79.617188 -33.988281 80.40625 -30.398438 80.40625 -26.296875 C 80.40625 -17.710938 77.175781 -11 70.71875 -6.15625 C 64.269531 -1.320312 54.8125 1.09375 42.34375 1.09375 Z M 60.28125 -56.3125 C 60.28125 -53.820312 60.71875 -51.914062 61.59375 -50.59375 C 62.476562 -49.28125 63.945312 -48.625 66 -48.625 C 67.539062 -48.625 68.769531 -49.007812 69.6875 -49.78125 C 70.601562 -50.550781 71.0625 -51.851562 71.0625 -53.6875 C 71.0625 -54.34375 70.859375 -55.128906 70.453125 -56.046875 C 70.046875 -56.960938 69.328125 -57.769531 68.296875 -58.46875 C 67.273438 -59.164062 65.773438 -59.515625 63.796875 -59.515625 C 62.628906 -59.515625 61.492188 -59.40625 60.390625 -59.1875 C 60.316406 -58.300781 60.28125 -57.34375 60.28125 -56.3125 Z M 51.484375 -48.625 C 53.316406 -48.625 55.078125 -48.550781 56.765625 -48.40625 C 55.296875 -50.53125 54.5625 -53.09375 54.5625 -56.09375 L 54.5625 -56.3125 C 52.363281 -54.332031 51.003906 -51.769531 50.484375 -48.625 Z M 51.484375 -48.625 "/>
</symbol>
</g>
<g>
<symbol overflow="visible" id="id1:glyph0-0">
<path style="stroke:none;" d="M 5.375 -96.6875 L 69.828125 -96.6875 L 69.828125 0 L 5.375 0 Z M 8.0625 -2.6875 L 67.140625 -2.6875 L 67.140625 -94 L 8.0625 -94 Z M 8.0625 -2.6875 "/>
</symbol>
<symbol overflow="visible" id="id1:glyph0-1">
<path style="stroke:none;" d="M 68.15625 -13.75 L 66.28125 -18.640625 L 88.09375 -27.390625 L 6.984375 -27.390625 L 6.984375 -34 L 88.09375 -34 L 66.28125 -42.75 L 68.15625 -47.640625 L 99.09375 -34.265625 L 99.09375 -27.125 Z M 68.15625 -13.75 "/>
</symbol>
</g>
<g>
<symbol overflow="visible" id="id2:glyph0-0">
<path style="stroke:none;" d="M 10.34375 -78.546875 L 55.546875 -78.546875 L 55.546875 0 L 10.34375 0 Z M 49.9375 -5.609375 L 49.9375 -72.9375 L 15.953125 -72.9375 L 15.953125 -5.609375 Z M 49.9375 -5.609375 "/>
</symbol>
<symbol overflow="visible" id="id2:glyph0-1">
<path style="stroke:none;" d="M 28.703125 1.09375 C 24.015625 1.09375 19.835938 -0.09375 16.171875 -2.46875 C 12.503906 -4.851562 9.644531 -8.191406 7.59375 -12.484375 C 5.539062 -16.773438 4.515625 -21.742188 4.515625 -27.390625 C 4.515625 -32.960938 5.375 -37.800781 7.09375 -41.90625 C 8.820312 -46.007812 11.171875 -49.414062 14.140625 -52.125 C 17.109375 -54.84375 20.476562 -56.878906 24.25 -58.234375 C 28.03125 -59.597656 31.9375 -60.28125 35.96875 -60.28125 C 41.6875 -60.28125 46.503906 -59.195312 50.421875 -57.03125 C 54.347656 -54.875 57.335938 -51.941406 59.390625 -48.234375 C 61.453125 -44.535156 62.484375 -40.335938 62.484375 -35.640625 C 62.484375 -32.773438 62.078125 -29.894531 61.265625 -27 C 60.460938 -24.101562 59.4375 -21.300781 58.1875 -18.59375 L 61.59375 -18.59375 C 61.738281 -16.164062 62.363281 -14.144531 63.46875 -12.53125 C 64.570312 -10.925781 66.585938 -10.125 69.515625 -10.125 C 70.984375 -10.125 72.503906 -10.507812 74.078125 -11.28125 C 75.660156 -12.050781 77.128906 -13.441406 78.484375 -15.453125 C 79.835938 -17.472656 80.9375 -20.316406 81.78125 -23.984375 C 82.625 -27.648438 83.046875 -32.378906 83.046875 -38.171875 C 83.046875 -47.410156 81.613281 -55.363281 78.75 -62.03125 C 75.894531 -68.707031 71.515625 -73.820312 65.609375 -77.375 C 59.710938 -80.9375 52.253906 -82.71875 43.234375 -82.71875 C 36.191406 -82.71875 29.898438 -81.816406 24.359375 -80.015625 C 18.828125 -78.222656 13.457031 -75.492188 8.25 -71.828125 L 4.515625 -76.890625 C 7.960938 -79.160156 11.535156 -81.15625 15.234375 -82.875 C 18.941406 -84.601562 23.066406 -85.960938 27.609375 -86.953125 C 32.160156 -87.941406 37.367188 -88.4375 43.234375 -88.4375 C 52.910156 -88.4375 61.234375 -86.546875 68.203125 -82.765625 C 75.171875 -78.992188 80.539062 -73.296875 84.3125 -65.671875 C 88.09375 -58.046875 89.984375 -48.507812 89.984375 -37.0625 C 89.984375 -29.726562 89.429688 -23.601562 88.328125 -18.6875 C 87.234375 -13.78125 85.726562 -9.878906 83.8125 -6.984375 C 81.90625 -4.085938 79.742188 -2.015625 77.328125 -0.765625 C 74.910156 0.472656 72.378906 1.09375 69.734375 1.09375 C 66.585938 1.09375 64.113281 0.453125 62.3125 -0.828125 C 60.519531 -2.109375 59.179688 -3.753906 58.296875 -5.765625 C 57.421875 -7.785156 56.835938 -9.859375 56.546875 -11.984375 L 54.78125 -11.984375 C 53.75 -9.859375 52.773438 -7.710938 51.859375 -5.546875 C 50.941406 -3.390625 50.046875 -1.210938 49.171875 0.984375 L 43.125 -1.203125 C 44.363281 -3.992188 45.515625 -6.453125 46.578125 -8.578125 C 47.648438 -10.703125 48.769531 -12.90625 49.9375 -15.1875 C 51.40625 -17.820312 52.5625 -20.625 53.40625 -23.59375 C 54.25 -26.5625 54.671875 -29.179688 54.671875 -31.453125 C 54.671875 -37.617188 52.816406 -42.257812 49.109375 -45.375 C 45.410156 -48.488281 40.59375 -50.046875 34.65625 -50.046875 C 27.6875 -50.046875 22.019531 -47.9375 17.65625 -43.71875 C 13.289062 -39.507812 11.109375 -33.476562 11.109375 -25.625 C 11.109375 -21.738281 11.546875 -18.566406 12.421875 -16.109375 C 13.304688 -13.660156 14.628906 -11.367188 16.390625 -9.234375 C 15.878906 -10.484375 15.625 -11.769531 15.625 -13.09375 C 15.625 -16.976562 16.882812 -19.960938 19.40625 -22.046875 C 21.9375 -24.140625 25 -25.1875 28.59375 -25.1875 C 33.144531 -25.1875 36.609375 -23.976562 38.984375 -21.5625 C 41.367188 -19.144531 42.5625 -16.023438 42.5625 -12.203125 C 42.5625 -8.023438 41.332031 -4.765625 38.875 -2.421875 C 36.425781 -0.078125 33.035156 1.09375 28.703125 1.09375 Z M 28.59375 -19.578125 C 26.394531 -19.578125 24.617188 -18.9375 23.265625 -17.65625 C 21.910156 -16.375 21.234375 -14.445312 21.234375 -11.875 C 21.234375 -10.039062 21.800781 -8.390625 22.9375 -6.921875 C 24.070312 -5.460938 25.992188 -4.734375 28.703125 -4.734375 C 30.910156 -4.734375 32.726562 -5.375 34.15625 -6.65625 C 35.582031 -7.9375 36.296875 -9.675781 36.296875 -11.875 C 36.296875 -14.226562 35.691406 -16.097656 34.484375 -17.484375 C 33.273438 -18.878906 31.3125 -19.578125 28.59375 -19.578125 Z M 28.59375 -19.578125 "/>
</symbol>
<symbol overflow="visible" id="id2:glyph0-2">
<path style="stroke:none;" d="M 42.34375 1.09375 C 29.957031 1.09375 20.554688 -1.34375 14.140625 -6.21875 C 7.722656 -11.09375 4.515625 -17.859375 4.515625 -26.515625 C 4.515625 -33.472656 6.820312 -38.894531 11.4375 -42.78125 C 16.0625 -46.675781 23.394531 -48.625 33.4375 -48.625 L 34.765625 -48.625 C 34.242188 -51.257812 33.117188 -53.601562 31.390625 -55.65625 C 29.671875 -57.707031 27.054688 -58.734375 23.546875 -58.734375 C 19.140625 -58.734375 16.9375 -56.789062 16.9375 -52.90625 C 16.9375 -51.664062 17.15625 -50.3125 17.59375 -48.84375 L 9.6875 -46.859375 C 8.945312 -47.890625 8.410156 -49.007812 8.078125 -50.21875 C 7.753906 -51.425781 7.59375 -52.65625 7.59375 -53.90625 C 7.59375 -57.5 8.945312 -60.210938 11.65625 -62.046875 C 14.375 -63.878906 17.710938 -64.796875 21.671875 -64.796875 C 27.898438 -64.796875 32.679688 -62.941406 36.015625 -59.234375 C 39.359375 -55.535156 41.03125 -50.640625 41.03125 -44.546875 L 41.03125 -43.015625 L 34.203125 -43.015625 C 29.585938 -43.015625 25.535156 -42.570312 22.046875 -41.6875 C 18.566406 -40.8125 15.875 -39.289062 13.96875 -37.125 C 12.0625 -34.957031 11.109375 -31.96875 11.109375 -28.15625 C 11.109375 -22.363281 13.765625 -17.960938 19.078125 -14.953125 C 24.398438 -11.953125 32.15625 -10.453125 42.34375 -10.453125 C 52.757812 -10.453125 60.609375 -11.953125 65.890625 -14.953125 C 71.171875 -17.960938 73.8125 -22.328125 73.8125 -28.046875 C 73.8125 -31.929688 72.875 -34.957031 71 -37.125 C 69.132812 -39.289062 66.476562 -40.8125 63.03125 -41.6875 C 59.582031 -42.570312 55.472656 -43.015625 50.703125 -43.015625 L 44.546875 -43.015625 L 44.546875 -43.5625 C 44.546875 -48.25 45.476562 -52.257812 47.34375 -55.59375 C 49.21875 -58.9375 51.769531 -61.378906 55 -62.921875 C 56.101562 -69.003906 58.78125 -74.046875 63.03125 -78.046875 C 67.28125 -82.046875 72.488281 -84.882812 78.65625 -86.5625 L 81.1875 -78.4375 C 76.34375 -77.1875 72.210938 -75.570312 68.796875 -73.59375 C 65.390625 -71.613281 62.988281 -68.644531 61.59375 -64.6875 C 62.257812 -64.757812 62.957031 -64.796875 63.6875 -64.796875 C 68.238281 -64.796875 71.6875 -63.765625 74.03125 -61.703125 C 76.375 -59.648438 77.546875 -56.898438 77.546875 -53.453125 C 77.546875 -48.765625 75.273438 -45.796875 70.734375 -44.546875 C 74.035156 -42.640625 76.472656 -40.144531 78.046875 -37.0625 C 79.617188 -33.988281 80.40625 -30.398438 80.40625 -26.296875 C 80.40625 -17.710938 77.175781 -11 70.71875 -6.15625 C 64.269531 -1.320312 54.8125 1.09375 42.34375 1.09375 Z M 60.28125 -56.3125 C 60.28125 -53.820312 60.71875 -51.914062 61.59375 -50.59375 C 62.476562 -49.28125 63.945312 -48.625 66 -48.625 C 67.539062 -48.625 68.769531 -49.007812 69.6875 -49.78125 C 70.601562 -50.550781 71.0625 -51.851562 71.0625 -53.6875 C 71.0625 -54.34375 70.859375 -55.128906 70.453125 -56.046875 C 70.046875 -56.960938 69.328125 -57.769531 68.296875 -58.46875 C 67.273438 -59.164062 65.773438 -59.515625 63.796875 -59.515625 C 62.628906 -59.515625 61.492188 -59.40625 60.390625 -59.1875 C 60.316406 -58.300781 60.28125 -57.34375 60.28125 -56.3125 Z M 51.484375 -48.625 C 53.316406 -48.625 55.078125 -48.550781 56.765625 -48.40625 C 55.296875 -50.53125 54.5625 -53.09375 54.5625 -56.09375 L 54.5625 -56.3125 C 52.363281 -54.332031 51.003906 -51.769531 50.484375 -48.625 Z M 51.484375 -48.625 "/>
</symbol>
</g>
</defs>
  <g id="id0:id0" transform="matrix(1.25,0,0,1.25,0.0,8.5546875)"><g id="id0:surface1">
<g style="fill:rgb(0%,0%,0%);fill-opacity:1;">
  <use xlink:href="#id0:glyph0-1" x="16" y="111.671875"/>
  <use xlink:href="#id0:glyph0-2" x="110.9375" y="111.671875"/>
  <use xlink:href="#id0:glyph0-3" x="110.9375" y="111.671875"/>
  <use xlink:href="#id0:glyph0-4" x="179.359375" y="111.671875"/>
  <use xlink:href="#id0:glyph0-5" x="179.359375" y="111.671875"/>
</g>
</g>
</g>
  <g id="id1:id1" transform="matrix(1.25,0,0,1.25,350.3515625,0.0)"><g id="id1:surface1">
<g style="fill:rgb(0%,0%,0%);fill-opacity:1;">
  <use xlink:href="#id1:glyph0-1" x="0" y="120.84375"/>
</g>
</g>
</g>
  <g id="id2:id2" transform="matrix(1.25,0,0,1.25,482.94921875,8.5546875)"><g id="id2:surface1">
<g style="fill:rgb(0%,0%,0%);fill-opacity:1;">
  <use xlink:href="#id2:glyph0-1" x="16" y="111.671875"/>
  <use xlink:href="#id2:glyph0-2" x="98.171875" y="111.671875"/>
</g>
</g>
</g>
</svg>
