<!DOCTYPE svg PUBLIC "-//W3C//DTD SVG 1.1//EN" "http://www.w3.org/Graphics/SVG/1.1/DTD/svg11.dtd">
<!-- Created with svg_stack (http://github.com/astraw/svg_stack) --><svg xmlns="http://www.w3.org/2000/svg" xmlns:sodipodi="http://sodipodi.sourceforge.net/DTD/sodipodi-0.dtd" xmlns:xlink="http://www.w3.org/1999/xlink" version="1.1" width="100%" id="sinhala-blwm" viewBox="0 0 485.41015625 201.40625">
  <defs><g>
<symbol overflow="visible" id="sinhala-blwm:id0:glyph0-0">
<path style="stroke:none;" d="M 55.546875 -78.546875 L 55.546875 0 L 10.34375 0 L 10.34375 -78.546875 Z M 49.9375 -72.9375 L 15.953125 -72.9375 L 15.953125 -5.609375 L 49.9375 -5.609375 Z M 49.9375 -72.9375 "/>
</symbol>
<symbol overflow="visible" id="sinhala-blwm:id0:glyph0-1">
<path style="stroke:none;" d="M 4.734375 -30.578125 C 4.734375 -36.960938 6.144531 -42.222656 8.96875 -46.359375 C 11.789062 -50.503906 15.53125 -53.601562 20.1875 -55.65625 C 24.84375 -57.707031 29.882812 -58.734375 35.3125 -58.734375 C 39.632812 -58.734375 43.390625 -58.515625 46.578125 -58.078125 C 49.773438 -57.640625 53.132812 -57.050781 56.65625 -56.3125 L 54.78125 -49.609375 C 54.050781 -49.679688 53.445312 -49.71875 52.96875 -49.71875 C 52.488281 -49.71875 52.03125 -49.71875 51.59375 -49.71875 C 43.894531 -49.71875 38.0625 -47.753906 34.09375 -43.828125 C 30.132812 -39.910156 28.15625 -34.320312 28.15625 -27.0625 C 28.15625 -21.195312 29.472656 -16.960938 32.109375 -14.359375 C 34.753906 -11.753906 38.425781 -10.453125 43.125 -10.453125 C 46.34375 -10.453125 48.960938 -11.019531 50.984375 -12.15625 C 53.003906 -13.289062 54.582031 -14.773438 55.71875 -16.609375 C 56.851562 -18.441406 57.675781 -20.382812 58.1875 -22.4375 L 64.015625 -22.4375 C 64.378906 -18.40625 66.046875 -15.398438 69.015625 -13.421875 C 71.992188 -11.441406 75.5 -10.453125 79.53125 -10.453125 C 82.832031 -10.453125 85.820312 -11.3125 88.5 -13.03125 C 91.175781 -14.757812 93.300781 -17.53125 94.875 -21.34375 C 96.445312 -25.15625 97.234375 -30.140625 97.234375 -36.296875 C 97.234375 -44.140625 96.003906 -50.941406 93.546875 -56.703125 C 91.097656 -62.460938 87.632812 -67.25 83.15625 -71.0625 C 81.6875 -68.269531 79.796875 -65.921875 77.484375 -64.015625 C 75.179688 -62.109375 72.195312 -61.15625 68.53125 -61.15625 C 65.375 -61.15625 62.820312 -61.832031 60.875 -63.1875 C 58.9375 -64.550781 57.414062 -66.347656 56.3125 -68.578125 C 55.21875 -70.816406 54.34375 -73.257812 53.6875 -75.90625 C 53.09375 -78.175781 52.445312 -79.820312 51.75 -80.84375 C 51.050781 -81.875 50.375 -82.609375 49.71875 -83.046875 C 48.988281 -83.046875 48.21875 -83.082031 47.40625 -83.15625 L 48.1875 -89.3125 C 55.664062 -88.726562 62.757812 -87.300781 69.46875 -85.03125 C 76.175781 -82.757812 82.132812 -79.492188 87.34375 -75.234375 C 92.550781 -70.984375 96.65625 -65.59375 99.65625 -59.0625 C 102.664062 -52.539062 104.171875 -44.695312 104.171875 -35.53125 C 104.171875 -26.65625 103.144531 -19.539062 101.09375 -14.1875 C 99.039062 -8.832031 96.269531 -4.945312 92.78125 -2.53125 C 89.300781 -0.113281 85.394531 1.09375 81.0625 1.09375 C 75.488281 1.09375 71.160156 -0.28125 68.078125 -3.03125 C 65.003906 -5.78125 62.660156 -9.5 61.046875 -14.1875 C 60.242188 -11.625 59.015625 -9.164062 57.359375 -6.8125 C 55.710938 -4.46875 53.625 -2.5625 51.09375 -1.09375 C 48.5625 0.363281 45.535156 1.09375 42.015625 1.09375 C 35.203125 1.09375 30.070312 -1.210938 26.625 -5.828125 C 23.175781 -10.453125 21.453125 -16.796875 21.453125 -24.859375 C 21.453125 -33.078125 23.300781 -39.515625 27 -44.171875 C 30.707031 -48.828125 35.710938 -51.882812 42.015625 -53.34375 C 40.328125 -53.414062 38.640625 -53.453125 36.953125 -53.453125 C 29.328125 -53.453125 23.148438 -51.488281 18.421875 -47.5625 C 13.691406 -43.644531 11.328125 -37.691406 11.328125 -29.703125 C 11.328125 -25.816406 11.929688 -21.835938 13.140625 -17.765625 C 14.347656 -13.691406 16.347656 -9.382812 19.140625 -4.84375 L 13.640625 -1.875 C 11.003906 -6.269531 8.859375 -10.90625 7.203125 -15.78125 C 5.554688 -20.65625 4.734375 -25.585938 4.734375 -30.578125 Z M 59.734375 -76.5625 C 60.535156 -73.550781 61.648438 -71.347656 63.078125 -69.953125 C 64.515625 -68.566406 66.585938 -67.875 69.296875 -67.875 C 71.347656 -67.875 73.085938 -68.441406 74.515625 -69.578125 C 75.953125 -70.710938 77.179688 -72.414062 78.203125 -74.6875 C 75.273438 -76.519531 72.015625 -78.0625 68.421875 -79.3125 C 64.828125 -80.5625 61.015625 -81.515625 56.984375 -82.171875 C 58.148438 -80.628906 59.066406 -78.757812 59.734375 -76.5625 Z M 59.734375 -76.5625 "/>
</symbol>
<symbol overflow="visible" id="sinhala-blwm:id0:glyph0-2">
<path style="stroke:none;" d="M -68.3125 17.703125 C -68.3125 13.742188 -67.007812 10.570312 -64.40625 8.1875 C -61.800781 5.8125 -58.375 4.625 -54.125 4.625 C -52 4.625 -50.019531 4.859375 -48.1875 5.328125 C -46.351562 5.804688 -44.703125 6.453125 -43.234375 7.265625 L -45.3125 12.203125 C -46.34375 11.691406 -47.570312 11.234375 -49 10.828125 C -50.4375 10.429688 -52.070312 10.234375 -53.90625 10.234375 C -56.757812 10.234375 -58.828125 10.925781 -60.109375 12.3125 C -61.398438 13.707031 -62.046875 15.394531 -62.046875 17.375 C -62.046875 20.75 -60.59375 22.875 -57.6875 23.75 C -54.789062 24.632812 -50.742188 25.078125 -45.546875 25.078125 L -6.8125 25.078125 L -6.8125 -7.921875 L -0.4375 -7.921875 L -0.4375 31.234375 L -47.1875 31.234375 C -54.59375 31.234375 -59.960938 30.097656 -63.296875 27.828125 C -66.640625 25.554688 -68.3125 22.179688 -68.3125 17.703125 Z M -68.3125 17.703125 "/>
</symbol>
</g>
<g>
<symbol overflow="visible" id="sinhala-blwm:id1:glyph0-0">
<path style="stroke:none;" d="M 5.375 -96.6875 L 69.828125 -96.6875 L 69.828125 0 L 5.375 0 Z M 8.0625 -2.6875 L 67.140625 -2.6875 L 67.140625 -94 L 8.0625 -94 Z M 8.0625 -2.6875 "/>
</symbol>
<symbol overflow="visible" id="sinhala-blwm:id1:glyph0-1">
<path style="stroke:none;" d="M 68.15625 -13.75 L 66.28125 -18.640625 L 88.09375 -27.390625 L 6.984375 -27.390625 L 6.984375 -34 L 88.09375 -34 L 66.28125 -42.75 L 68.15625 -47.640625 L 99.09375 -34.265625 L 99.09375 -27.125 Z M 68.15625 -13.75 "/>
</symbol>
</g>
<g>
<symbol overflow="visible" id="sinhala-blwm:id2:glyph0-0">
<path style="stroke:none;" d="M 55.546875 -78.546875 L 55.546875 0 L 10.34375 0 L 10.34375 -78.546875 Z M 49.9375 -72.9375 L 15.953125 -72.9375 L 15.953125 -5.609375 L 49.9375 -5.609375 Z M 49.9375 -72.9375 "/>
</symbol>
<symbol overflow="visible" id="sinhala-blwm:id2:glyph0-1">
<path style="stroke:none;" d="M 24.09375 17.703125 C 24.09375 13.742188 25.394531 10.570312 28 8.1875 C 30.601562 5.8125 34.03125 4.625 38.28125 4.625 C 40.40625 4.625 42.382812 4.859375 44.21875 5.328125 C 46.050781 5.804688 47.703125 6.453125 49.171875 7.265625 L 47.078125 12.203125 C 46.054688 11.691406 44.828125 11.234375 43.390625 10.828125 C 41.960938 10.429688 40.332031 10.234375 38.5 10.234375 C 35.632812 10.234375 33.5625 10.945312 32.28125 12.375 C 31 13.800781 30.359375 15.539062 30.359375 17.59375 C 30.359375 21.039062 31.804688 23.222656 34.703125 24.140625 C 37.597656 25.054688 41.648438 25.515625 46.859375 25.515625 L 93.0625 25.515625 L 93.0625 8.578125 C 93.0625 6.597656 93.097656 4.65625 93.171875 2.75 C 93.242188 0.84375 93.351562 -1.0625 93.5 -2.96875 C 91.664062 -1.570312 89.703125 -0.546875 87.609375 0.109375 C 85.523438 0.765625 83.34375 1.09375 81.0625 1.09375 C 75.488281 1.09375 71.160156 -0.28125 68.078125 -3.03125 C 65.003906 -5.78125 62.660156 -9.5 61.046875 -14.1875 C 60.242188 -11.625 59.015625 -9.164062 57.359375 -6.8125 C 55.710938 -4.46875 53.625 -2.5625 51.09375 -1.09375 C 48.5625 0.363281 45.535156 1.09375 42.015625 1.09375 C 35.203125 1.09375 30.070312 -1.210938 26.625 -5.828125 C 23.175781 -10.453125 21.453125 -16.796875 21.453125 -24.859375 C 21.453125 -33.078125 23.300781 -39.515625 27 -44.171875 C 30.707031 -48.828125 35.710938 -51.882812 42.015625 -53.34375 C 40.328125 -53.414062 38.640625 -53.453125 36.953125 -53.453125 C 29.328125 -53.453125 23.148438 -51.488281 18.421875 -47.5625 C 13.691406 -43.644531 11.328125 -37.691406 11.328125 -29.703125 C 11.328125 -25.816406 11.929688 -21.835938 13.140625 -17.765625 C 14.347656 -13.691406 16.347656 -9.382812 19.140625 -4.84375 L 13.640625 -1.875 C 11.003906 -6.269531 8.859375 -10.90625 7.203125 -15.78125 C 5.554688 -20.65625 4.734375 -25.585938 4.734375 -30.578125 C 4.734375 -36.960938 6.144531 -42.222656 8.96875 -46.359375 C 11.789062 -50.503906 15.53125 -53.601562 20.1875 -55.65625 C 24.84375 -57.707031 29.882812 -58.734375 35.3125 -58.734375 C 39.632812 -58.734375 43.390625 -58.515625 46.578125 -58.078125 C 49.773438 -57.640625 53.132812 -57.050781 56.65625 -56.3125 L 54.78125 -49.609375 C 54.050781 -49.679688 53.445312 -49.71875 52.96875 -49.71875 C 52.488281 -49.71875 52.03125 -49.71875 51.59375 -49.71875 C 43.894531 -49.71875 38.0625 -47.753906 34.09375 -43.828125 C 30.132812 -39.910156 28.15625 -34.320312 28.15625 -27.0625 C 28.15625 -21.195312 29.472656 -16.960938 32.109375 -14.359375 C 34.753906 -11.753906 38.425781 -10.453125 43.125 -10.453125 C 46.34375 -10.453125 48.960938 -11.019531 50.984375 -12.15625 C 53.003906 -13.289062 54.582031 -14.773438 55.71875 -16.609375 C 56.851562 -18.441406 57.675781 -20.382812 58.1875 -22.4375 L 64.015625 -22.4375 C 64.378906 -18.40625 66.046875 -15.398438 69.015625 -13.421875 C 71.992188 -11.441406 75.5 -10.453125 79.53125 -10.453125 C 82.832031 -10.453125 85.820312 -11.3125 88.5 -13.03125 C 91.175781 -14.757812 93.300781 -17.53125 94.875 -21.34375 C 96.445312 -25.15625 97.234375 -30.140625 97.234375 -36.296875 C 97.234375 -44.140625 96.003906 -50.941406 93.546875 -56.703125 C 91.097656 -62.460938 87.632812 -67.25 83.15625 -71.0625 C 81.6875 -68.269531 79.796875 -65.921875 77.484375 -64.015625 C 75.179688 -62.109375 72.195312 -61.15625 68.53125 -61.15625 C 65.375 -61.15625 62.820312 -61.832031 60.875 -63.1875 C 58.9375 -64.550781 57.414062 -66.347656 56.3125 -68.578125 C 55.21875 -70.816406 54.34375 -73.257812 53.6875 -75.90625 C 53.09375 -78.175781 52.445312 -79.820312 51.75 -80.84375 C 51.050781 -81.875 50.375 -82.609375 49.71875 -83.046875 C 48.988281 -83.046875 48.21875 -83.082031 47.40625 -83.15625 L 48.1875 -89.3125 C 55.664062 -88.726562 62.757812 -87.300781 69.46875 -85.03125 C 76.175781 -82.757812 82.132812 -79.492188 87.34375 -75.234375 C 92.550781 -70.984375 96.65625 -65.59375 99.65625 -59.0625 C 102.664062 -52.539062 104.171875 -44.695312 104.171875 -35.53125 C 104.171875 -30.03125 103.75 -25.207031 102.90625 -21.0625 C 102.0625 -16.914062 100.90625 -13.378906 99.4375 -10.453125 L 99.4375 31.234375 L 44.765625 31.234375 C 37.648438 31.234375 32.425781 30.148438 29.09375 27.984375 C 25.757812 25.828125 24.09375 22.398438 24.09375 17.703125 Z M 59.734375 -76.5625 C 60.535156 -73.550781 61.648438 -71.347656 63.078125 -69.953125 C 64.515625 -68.566406 66.585938 -67.875 69.296875 -67.875 C 71.347656 -67.875 73.085938 -68.441406 74.515625 -69.578125 C 75.953125 -70.710938 77.179688 -72.414062 78.203125 -74.6875 C 75.273438 -76.519531 72.015625 -78.0625 68.421875 -79.3125 C 64.828125 -80.5625 61.015625 -81.515625 56.984375 -82.171875 C 58.148438 -80.628906 59.066406 -78.757812 59.734375 -76.5625 Z M 59.734375 -76.5625 "/>
</symbol>
</g>
</defs>
  <g id="sinhala-blwm:id0:id0" transform="matrix(1.25,0,0,1.25,0.0,8.5546875)"><g id="sinhala-blwm:id0:surface1">
<g style="fill:rgb(0%,0%,0%);fill-opacity:1;">
  <use xlink:href="#sinhala-blwm:id0:glyph0-1" x="16" y="111.671875" class="c0"/>
  <use xlink:href="#sinhala-blwm:id0:glyph0-2" x="125.125" y="111.671875" class="c1"/>
</g>
</g>
</g>
  <g id="sinhala-blwm:id1:id1" transform="matrix(1.25,0,0,1.25,176.40625,0.0)"><g id="sinhala-blwm:id1:surface1">
<g style="fill:rgb(0%,0%,0%);fill-opacity:1;">
  <use xlink:href="#sinhala-blwm:id1:glyph0-1" x="0" y="120.84375" class="arrow"/>
</g>
</g>
</g>
  <g id="sinhala-blwm:id2:id2" transform="matrix(1.25,0,0,1.25,309.00390625,8.5546875)"><g id="sinhala-blwm:id2:surface1">
<g style="fill:rgb(0%,0%,0%);fill-opacity:1;">
  <use xlink:href="#sinhala-blwm:id2:glyph0-1" x="16" y="111.671875" class="c0"/>
</g>
</g>
</g>
</svg>
