<!DOCTYPE svg PUBLIC "-//W3C//DTD SVG 1.1//EN" "http://www.w3.org/Graphics/SVG/1.1/DTD/svg11.dtd">
<!-- Created with svg_stack (http://github.com/astraw/svg_stack) --><svg xmlns="http://www.w3.org/2000/svg" xmlns:sodipodi="http://sodipodi.sourceforge.net/DTD/sodipodi-0.dtd" xmlns:xlink="http://www.w3.org/1999/xlink" version="1.1" width="502.44140625" height="201.40625" id="sinhala-blwm">
  <defs><g>
<symbol overflow="visible" id="sinhala-blwm:id0:glyph0-0">
<path style="stroke:none;" d="M 10.34375 -78.546875 L 55.546875 -78.546875 L 55.546875 0 L 10.34375 0 Z M 49.9375 -5.609375 L 49.9375 -72.9375 L 15.953125 -72.9375 L 15.953125 -5.609375 Z M 49.9375 -5.609375 "/>
</symbol>
<symbol overflow="visible" id="sinhala-blwm:id0:glyph0-1">
<path style="stroke:none;" d="M 4.953125 -33.546875 C 4.953125 -39.117188 5.847656 -43.882812 7.640625 -47.84375 C 9.441406 -51.8125 11.898438 -55.039062 15.015625 -57.53125 C 18.128906 -60.019531 21.6875 -61.851562 25.6875 -63.03125 C 29.6875 -64.207031 33.882812 -64.796875 38.28125 -64.796875 C 41.21875 -64.796875 44.28125 -64.570312 47.46875 -64.125 C 50.65625 -63.6875 53.753906 -63.066406 56.765625 -62.265625 L 55 -55.546875 L 53.34375 -55.546875 C 48.144531 -55.546875 43.765625 -54.460938 40.203125 -52.296875 C 36.648438 -50.140625 33.972656 -47.226562 32.171875 -43.5625 C 30.378906 -39.894531 29.484375 -35.785156 29.484375 -31.234375 C 29.484375 -27.566406 30.234375 -24.140625 31.734375 -20.953125 C 33.234375 -17.765625 35.597656 -15.21875 38.828125 -13.3125 C 42.054688 -11.40625 46.203125 -10.453125 51.265625 -10.453125 C 56.171875 -10.453125 59.976562 -11.09375 62.6875 -12.375 C 65.40625 -13.65625 67.332031 -15.265625 68.46875 -17.203125 C 69.613281 -19.148438 70.1875 -21.113281 70.1875 -23.09375 C 70.1875 -26.46875 69.359375 -28.664062 67.703125 -29.6875 C 66.054688 -30.71875 64.09375 -31.234375 61.8125 -31.234375 C 61.375 -31.234375 60.9375 -31.210938 60.5 -31.171875 C 60.0625 -31.140625 59.546875 -31.085938 58.953125 -31.015625 L 54.890625 -32.125 C 56.578125 -43.195312 60.078125 -51.410156 65.390625 -56.765625 C 70.710938 -62.117188 77.148438 -64.796875 84.703125 -64.796875 C 90.566406 -64.796875 95.476562 -63.328125 99.4375 -60.390625 C 103.394531 -57.453125 106.382812 -53.472656 108.40625 -48.453125 C 110.425781 -43.429688 111.4375 -37.84375 111.4375 -31.6875 C 111.4375 -23.976562 110.148438 -17.738281 107.578125 -12.96875 C 105.015625 -8.207031 101.585938 -4.707031 97.296875 -2.46875 C 93.003906 -0.238281 88.21875 0.875 82.9375 0.875 C 78.539062 0.875 74.984375 0.507812 72.265625 -0.21875 L 73.703125 -5.9375 C 75.023438 -5.570312 76.363281 -5.296875 77.71875 -5.109375 C 79.070312 -4.929688 80.773438 -4.84375 82.828125 -4.84375 C 89.722656 -4.84375 95.039062 -6.945312 98.78125 -11.15625 C 102.519531 -15.375 104.390625 -21.300781 104.390625 -28.9375 C 104.390625 -36.78125 102.609375 -43.101562 99.046875 -47.90625 C 95.492188 -52.707031 90.234375 -55.109375 83.265625 -55.109375 C 77.617188 -55.109375 73.015625 -53.515625 69.453125 -50.328125 C 65.898438 -47.140625 63.242188 -42.609375 61.484375 -36.734375 C 61.859375 -36.734375 62.265625 -36.734375 62.703125 -36.734375 C 66.734375 -36.734375 70.066406 -35.578125 72.703125 -33.265625 C 75.347656 -30.960938 76.671875 -27.023438 76.671875 -21.453125 C 76.671875 -18.878906 76.210938 -16.273438 75.296875 -13.640625 C 74.378906 -11.003906 72.910156 -8.566406 70.890625 -6.328125 C 68.878906 -4.085938 66.238281 -2.289062 62.96875 -0.9375 C 59.707031 0.414062 55.695312 1.09375 50.9375 1.09375 C 44.769531 1.09375 39.597656 -0.203125 35.421875 -2.796875 C 31.242188 -5.398438 28.085938 -9.03125 25.953125 -13.6875 C 23.828125 -18.351562 22.765625 -23.765625 22.765625 -29.921875 C 22.765625 -37.765625 24.671875 -44.21875 28.484375 -49.28125 C 32.296875 -54.34375 37.648438 -57.679688 44.546875 -59.296875 C 43.523438 -59.367188 42.535156 -59.40625 41.578125 -59.40625 C 40.628906 -59.40625 39.710938 -59.40625 38.828125 -59.40625 C 33.617188 -59.40625 28.941406 -58.453125 24.796875 -56.546875 C 20.660156 -54.640625 17.414062 -51.722656 15.0625 -47.796875 C 12.71875 -43.867188 11.546875 -38.828125 11.546875 -32.671875 C 11.546875 -27.390625 12.40625 -22.65625 14.125 -18.46875 C 15.851562 -14.289062 18.078125 -10.003906 20.796875 -5.609375 L 15.296875 -2.640625 C 12.648438 -6.742188 10.265625 -11.414062 8.140625 -16.65625 C 6.015625 -21.90625 4.953125 -27.535156 4.953125 -33.546875 Z M 4.953125 -33.546875 "/>
</symbol>
<symbol overflow="visible" id="sinhala-blwm:id0:glyph0-2">
<path style="stroke:none;" d="M -37.40625 29.59375 C -43.488281 29.59375 -48.507812 28.910156 -52.46875 27.546875 C -56.425781 26.191406 -59.523438 24.378906 -61.765625 22.109375 C -64.003906 19.835938 -65.582031 17.269531 -66.5 14.40625 C -67.414062 11.550781 -67.875 8.617188 -67.875 5.609375 L -67.875 4.515625 L -62.15625 4.734375 C -61.925781 9.640625 -59.941406 13.597656 -56.203125 16.609375 C -52.460938 19.617188 -46.34375 21.125 -37.84375 21.125 C -29.988281 21.125 -23.878906 19.453125 -19.515625 16.109375 C -15.160156 12.773438 -12.984375 7.882812 -12.984375 1.4375 C -12.984375 -0.769531 -13.179688 -2.753906 -13.578125 -4.515625 C -13.984375 -6.273438 -14.476562 -7.8125 -15.0625 -9.125 L -9.90625 -12.09375 C -9.164062 -10.488281 -8.484375 -8.492188 -7.859375 -6.109375 C -7.242188 -3.722656 -6.9375 -0.695312 -6.9375 2.96875 C -6.9375 6.125 -7.375 9.257812 -8.25 12.375 C -9.125 15.488281 -10.660156 18.347656 -12.859375 20.953125 C -15.066406 23.554688 -18.164062 25.644531 -22.15625 27.21875 C -26.15625 28.800781 -31.238281 29.59375 -37.40625 29.59375 Z M -37.40625 29.59375 "/>
</symbol>
</g>
<g>
<symbol overflow="visible" id="sinhala-blwm:id1:glyph0-0">
<path style="stroke:none;" d="M 5.375 -96.6875 L 69.828125 -96.6875 L 69.828125 0 L 5.375 0 Z M 8.0625 -2.6875 L 67.140625 -2.6875 L 67.140625 -94 L 8.0625 -94 Z M 8.0625 -2.6875 "/>
</symbol>
<symbol overflow="visible" id="sinhala-blwm:id1:glyph0-1">
<path style="stroke:none;" d="M 68.15625 -13.75 L 66.28125 -18.640625 L 88.09375 -27.390625 L 6.984375 -27.390625 L 6.984375 -34 L 88.09375 -34 L 66.28125 -42.75 L 68.15625 -47.640625 L 99.09375 -34.265625 L 99.09375 -27.125 Z M 68.15625 -13.75 "/>
</symbol>
</g>
<g>
<symbol overflow="visible" id="sinhala-blwm:id2:glyph0-0">
<path style="stroke:none;" d="M 10.34375 -78.546875 L 55.546875 -78.546875 L 55.546875 0 L 10.34375 0 Z M 49.9375 -5.609375 L 49.9375 -72.9375 L 15.953125 -72.9375 L 15.953125 -5.609375 Z M 49.9375 -5.609375 "/>
</symbol>
<symbol overflow="visible" id="sinhala-blwm:id2:glyph0-1">
<path style="stroke:none;" d="M 4.953125 -33.546875 C 4.953125 -39.117188 5.847656 -43.882812 7.640625 -47.84375 C 9.441406 -51.8125 11.898438 -55.039062 15.015625 -57.53125 C 18.128906 -60.019531 21.6875 -61.851562 25.6875 -63.03125 C 29.6875 -64.207031 33.882812 -64.796875 38.28125 -64.796875 C 41.21875 -64.796875 44.28125 -64.570312 47.46875 -64.125 C 50.65625 -63.6875 53.753906 -63.066406 56.765625 -62.265625 L 55 -55.546875 L 53.34375 -55.546875 C 48.144531 -55.546875 43.765625 -54.460938 40.203125 -52.296875 C 36.648438 -50.140625 33.972656 -47.226562 32.171875 -43.5625 C 30.378906 -39.894531 29.484375 -35.785156 29.484375 -31.234375 C 29.484375 -27.566406 30.234375 -24.140625 31.734375 -20.953125 C 33.234375 -17.765625 35.597656 -15.21875 38.828125 -13.3125 C 42.054688 -11.40625 46.203125 -10.453125 51.265625 -10.453125 C 56.171875 -10.453125 59.976562 -11.09375 62.6875 -12.375 C 65.40625 -13.65625 67.332031 -15.265625 68.46875 -17.203125 C 69.613281 -19.148438 70.1875 -21.113281 70.1875 -23.09375 C 70.1875 -26.46875 69.359375 -28.664062 67.703125 -29.6875 C 66.054688 -30.71875 64.09375 -31.234375 61.8125 -31.234375 C 61.375 -31.234375 60.9375 -31.210938 60.5 -31.171875 C 60.0625 -31.140625 59.546875 -31.085938 58.953125 -31.015625 L 54.890625 -32.125 C 56.578125 -43.195312 60.078125 -51.410156 65.390625 -56.765625 C 70.710938 -62.117188 77.148438 -64.796875 84.703125 -64.796875 C 90.566406 -64.796875 95.476562 -63.328125 99.4375 -60.390625 C 103.394531 -57.453125 106.382812 -53.472656 108.40625 -48.453125 C 110.425781 -43.429688 111.4375 -37.84375 111.4375 -31.6875 C 111.4375 -23.976562 110.148438 -17.738281 107.578125 -12.96875 C 105.015625 -8.207031 101.585938 -4.707031 97.296875 -2.46875 C 93.003906 -0.238281 88.21875 0.875 82.9375 0.875 C 78.539062 0.875 74.984375 0.507812 72.265625 -0.21875 L 73.703125 -5.9375 C 75.023438 -5.570312 76.363281 -5.296875 77.71875 -5.109375 C 79.070312 -4.929688 80.773438 -4.84375 82.828125 -4.84375 C 89.722656 -4.84375 95.039062 -6.945312 98.78125 -11.15625 C 102.519531 -15.375 104.390625 -21.300781 104.390625 -28.9375 C 104.390625 -36.78125 102.609375 -43.101562 99.046875 -47.90625 C 95.492188 -52.707031 90.234375 -55.109375 83.265625 -55.109375 C 77.617188 -55.109375 73.015625 -53.515625 69.453125 -50.328125 C 65.898438 -47.140625 63.242188 -42.609375 61.484375 -36.734375 C 61.859375 -36.734375 62.265625 -36.734375 62.703125 -36.734375 C 66.734375 -36.734375 70.066406 -35.578125 72.703125 -33.265625 C 75.347656 -30.960938 76.671875 -27.023438 76.671875 -21.453125 C 76.671875 -18.878906 76.210938 -16.273438 75.296875 -13.640625 C 74.378906 -11.003906 72.910156 -8.566406 70.890625 -6.328125 C 68.878906 -4.085938 66.238281 -2.289062 62.96875 -0.9375 C 59.707031 0.414062 55.695312 1.09375 50.9375 1.09375 C 44.769531 1.09375 39.597656 -0.203125 35.421875 -2.796875 C 31.242188 -5.398438 28.085938 -9.03125 25.953125 -13.6875 C 23.828125 -18.351562 22.765625 -23.765625 22.765625 -29.921875 C 22.765625 -37.765625 24.671875 -44.21875 28.484375 -49.28125 C 32.296875 -54.34375 37.648438 -57.679688 44.546875 -59.296875 C 43.523438 -59.367188 42.535156 -59.40625 41.578125 -59.40625 C 40.628906 -59.40625 39.710938 -59.40625 38.828125 -59.40625 C 33.617188 -59.40625 28.941406 -58.453125 24.796875 -56.546875 C 20.660156 -54.640625 17.414062 -51.722656 15.0625 -47.796875 C 12.71875 -43.867188 11.546875 -38.828125 11.546875 -32.671875 C 11.546875 -27.390625 12.40625 -22.65625 14.125 -18.46875 C 15.851562 -14.289062 18.078125 -10.003906 20.796875 -5.609375 L 15.296875 -2.640625 C 12.648438 -6.742188 10.265625 -11.414062 8.140625 -16.65625 C 6.015625 -21.90625 4.953125 -27.535156 4.953125 -33.546875 Z M 4.953125 -33.546875 "/>
</symbol>
<symbol overflow="visible" id="sinhala-blwm:id2:glyph0-2">
<path style="stroke:none;" d="M -50.484375 30.90625 C -59.066406 30.90625 -66 30.171875 -71.28125 28.703125 C -76.5625 27.242188 -80.59375 25.25 -83.375 22.71875 C -86.164062 20.1875 -88.070312 17.285156 -89.09375 14.015625 C -90.125 10.753906 -90.640625 7.363281 -90.640625 3.84375 C -90.640625 3.476562 -90.617188 3.019531 -90.578125 2.46875 C -90.546875 1.925781 -90.492188 1.359375 -90.421875 0.765625 L -84.8125 1.4375 C -84.882812 1.726562 -84.921875 1.984375 -84.921875 2.203125 C -84.921875 2.421875 -84.921875 2.640625 -84.921875 2.859375 C -84.921875 6.816406 -83.945312 10.257812 -82 13.1875 C -80.050781 16.125 -76.617188 18.398438 -71.703125 20.015625 C -66.796875 21.628906 -59.832031 22.4375 -50.8125 22.4375 C -38.570312 22.4375 -29.644531 20.582031 -24.03125 16.875 C -18.414062 13.175781 -15.609375 8.101562 -15.609375 1.65625 C -15.609375 -0.695312 -15.847656 -2.695312 -16.328125 -4.34375 C -16.804688 -5.988281 -17.265625 -7.253906 -17.703125 -8.140625 L -12.09375 -11.109375 C -11.363281 -9.492188 -10.738281 -7.492188 -10.21875 -5.109375 C -9.707031 -2.734375 -9.453125 -0.00390625 -9.453125 3.078125 C -9.453125 5.566406 -9.742188 8.113281 -10.328125 10.71875 C -10.921875 13.320312 -12.039062 15.816406 -13.6875 18.203125 C -15.34375 20.585938 -17.691406 22.734375 -20.734375 24.640625 C -23.773438 26.546875 -27.710938 28.066406 -32.546875 29.203125 C -37.390625 30.335938 -43.367188 30.90625 -50.484375 30.90625 Z M -50.484375 30.90625 "/>
</symbol>
</g>
</defs>
  <g id="sinhala-blwm:id0:id0" transform="matrix(1.25,0,0,1.25,0.0,8.5546875)"><g id="sinhala-blwm:id0:surface1">
<g style="fill:rgb(0%,0%,0%);fill-opacity:1;">
  <use xlink:href="#sinhala-blwm:id0:glyph0-1" x="16" y="111.671875" class="c0"/>
  <use xlink:href="#sinhala-blwm:id0:glyph0-2" x="131.9375" y="111.671875" class="c1"/>
</g>
</g>
</g>
  <g id="sinhala-blwm:id1:id1" transform="matrix(1.25,0,0,1.25,184.921875,0.0)"><g id="sinhala-blwm:id1:surface1">
<g style="fill:rgb(0%,0%,0%);fill-opacity:1;">
  <use xlink:href="#sinhala-blwm:id1:glyph0-1" x="0" y="120.84375" class="arrow"/>
</g>
</g>
</g>
  <g id="sinhala-blwm:id2:id2" transform="matrix(1.25,0,0,1.25,317.51953125,8.5546875)"><g id="sinhala-blwm:id2:surface1">
<g style="fill:rgb(0%,0%,0%);fill-opacity:1;">
  <use xlink:href="#sinhala-blwm:id2:glyph0-1" x="16" y="111.671875" class="c0"/>
  <use xlink:href="#sinhala-blwm:id2:glyph0-2" x="131.9375" y="111.671875" class="c1"/>
</g>
</g>
</g>
</svg>
