<!DOCTYPE svg PUBLIC "-//W3C//DTD SVG 1.1//EN" "http://www.w3.org/Graphics/SVG/1.1/DTD/svg11.dtd">
<!-- Created with svg_stack (http://github.com/astraw/svg_stack) --><svg xmlns="http://www.w3.org/2000/svg" xmlns:sodipodi="http://sodipodi.sourceforge.net/DTD/sodipodi-0.dtd" xmlns:xlink="http://www.w3.org/1999/xlink" version="1.1" width="538.26171875" height="201.40625" id="sinhala-rphf-1">
  <defs><g>
<symbol overflow="visible" id="sinhala-rphf-1:id0:glyph0-0">
<path style="stroke:none;" d="M 10.34375 -78.546875 L 55.546875 -78.546875 L 55.546875 0 L 10.34375 0 Z M 49.9375 -5.609375 L 49.9375 -72.9375 L 15.953125 -72.9375 L 15.953125 -5.609375 Z M 49.9375 -5.609375 "/>
</symbol>
<symbol overflow="visible" id="sinhala-rphf-1:id0:glyph0-1">
<path style="stroke:none;" d="M 37.84375 1.09375 C 27.207031 1.09375 18.992188 -1.78125 13.203125 -7.53125 C 7.410156 -13.289062 4.515625 -21.117188 4.515625 -31.015625 C 4.515625 -38.128906 6.347656 -44.289062 10.015625 -49.5 C 13.679688 -54.707031 18.59375 -58.445312 24.75 -60.71875 L 24.75 -93.28125 C 24.75 -96.0625 24.195312 -97.910156 23.09375 -98.828125 C 22 -99.742188 20.898438 -100.203125 19.796875 -100.203125 C 19.140625 -100.203125 18.585938 -100.179688 18.140625 -100.140625 C 17.703125 -100.109375 17.375 -100.054688 17.15625 -99.984375 L 16.28125 -104.9375 C 16.863281 -105.226562 17.539062 -105.46875 18.3125 -105.65625 C 19.082031 -105.84375 20.128906 -105.9375 21.453125 -105.9375 C 22.773438 -105.9375 24.019531 -105.585938 25.1875 -104.890625 C 26.363281 -104.191406 27.351562 -103.179688 28.15625 -101.859375 C 30.425781 -104.578125 33.175781 -105.9375 36.40625 -105.9375 C 39.488281 -105.9375 41.851562 -104.925781 43.5 -102.90625 C 45.15625 -100.882812 45.984375 -98.335938 45.984375 -95.265625 C 45.984375 -92.179688 45.191406 -89.628906 43.609375 -87.609375 C 42.035156 -85.597656 39.597656 -84.59375 36.296875 -84.59375 C 35.347656 -84.59375 34.34375 -84.753906 33.28125 -85.078125 C 32.21875 -85.410156 31.242188 -85.945312 30.359375 -86.6875 C 30.429688 -85.582031 30.46875 -84.476562 30.46875 -83.375 C 30.46875 -82.28125 30.46875 -81.179688 30.46875 -80.078125 L 30.46875 -63.796875 C 35.457031 -67.390625 40.257812 -71.019531 44.875 -74.6875 C 49.5 -78.351562 53.769531 -81.875 57.6875 -85.25 C 61.613281 -88.625 64.972656 -91.59375 67.765625 -94.15625 L 73.046875 -88 C 70.472656 -85.65625 67.316406 -83.035156 63.578125 -80.140625 C 59.835938 -77.242188 55.878906 -74.289062 51.703125 -71.28125 C 47.523438 -68.269531 43.453125 -65.484375 39.484375 -62.921875 C 46.015625 -62.703125 51.660156 -61.144531 56.421875 -58.25 C 61.191406 -55.351562 64.84375 -51.535156 67.375 -46.796875 C 69.90625 -42.066406 71.171875 -36.804688 71.171875 -31.015625 C 71.171875 -20.753906 68.179688 -12.835938 62.203125 -7.265625 C 56.222656 -1.691406 48.101562 1.09375 37.84375 1.09375 Z M 35.53125 -101.09375 C 34.28125 -101.09375 33.234375 -100.722656 32.390625 -99.984375 C 31.546875 -99.253906 30.90625 -98.265625 30.46875 -97.015625 L 30.46875 -93.390625 C 30.90625 -92.210938 31.523438 -91.273438 32.328125 -90.578125 C 33.140625 -89.890625 34.28125 -89.546875 35.75 -89.546875 C 38.757812 -89.546875 40.265625 -91.414062 40.265625 -95.15625 C 40.265625 -99.113281 38.6875 -101.09375 35.53125 -101.09375 Z M 37.953125 -10.453125 C 42.566406 -10.453125 46.875 -11.179688 50.875 -12.640625 C 54.875 -14.109375 58.097656 -16.566406 60.546875 -20.015625 C 63.003906 -23.460938 64.234375 -28.15625 64.234375 -34.09375 C 64.234375 -39.15625 62.988281 -43.425781 60.5 -46.90625 C 58.007812 -50.394531 54.765625 -53.019531 50.765625 -54.78125 C 46.765625 -56.539062 42.457031 -57.421875 37.84375 -57.421875 C 33 -57.421875 28.578125 -56.484375 24.578125 -54.609375 C 20.585938 -52.742188 17.398438 -50.050781 15.015625 -46.53125 C 12.628906 -43.007812 11.4375 -38.753906 11.4375 -33.765625 C 11.4375 -27.972656 12.679688 -23.367188 15.171875 -19.953125 C 17.671875 -16.546875 20.9375 -14.109375 24.96875 -12.640625 C 29 -11.179688 33.328125 -10.453125 37.953125 -10.453125 Z M 37.953125 -10.453125 "/>
</symbol>
<symbol overflow="visible" id="sinhala-rphf-1:id0:glyph0-2">
<path style="stroke:none;" d="M 17.8125 -88.21875 L 4.40625 -75.125 L 17.8125 -61.9375 L 13.3125 -57.53125 L 3.1875 -67.65625 L 3.1875 22.65625 L -3.1875 22.65625 L -3.1875 -67.65625 L -13.3125 -57.53125 L -17.8125 -61.9375 L -4.40625 -75.125 L -17.8125 -88.21875 L -13.3125 -92.625 L 0 -79.3125 L 13.3125 -92.625 Z M 17.8125 -88.21875 "/>
</symbol>
<symbol overflow="visible" id="sinhala-rphf-1:id0:glyph0-3">
<path style="stroke:none;" d="M 38.171875 -56.09375 C 38.171875 -53.382812 36.882812 -52.03125 34.3125 -52.03125 C 31.601562 -52.03125 30.25 -53.382812 30.25 -56.09375 C 30.25 -58.738281 31.601562 -60.0625 34.3125 -60.0625 C 36.882812 -60.0625 38.171875 -58.738281 38.171875 -56.09375 Z M 20.453125 -49.171875 C 20.453125 -46.523438 19.097656 -45.203125 16.390625 -45.203125 C 13.753906 -45.203125 12.4375 -46.523438 12.4375 -49.171875 C 12.4375 -51.878906 13.753906 -53.234375 16.390625 -53.234375 C 19.097656 -53.234375 20.453125 -51.878906 20.453125 -49.171875 Z M 55.984375 -49.171875 C 55.984375 -46.523438 54.664062 -45.203125 52.03125 -45.203125 C 49.382812 -45.203125 48.0625 -46.523438 48.0625 -49.171875 C 48.0625 -51.878906 49.382812 -53.234375 52.03125 -53.234375 C 54.664062 -53.234375 55.984375 -51.878906 55.984375 -49.171875 Z M 62.046875 -31.90625 C 62.046875 -29.257812 60.757812 -27.9375 58.1875 -27.9375 C 55.476562 -27.9375 54.125 -29.257812 54.125 -31.90625 C 54.125 -34.613281 55.476562 -35.96875 58.1875 -35.96875 C 60.757812 -35.96875 62.046875 -34.613281 62.046875 -31.90625 Z M 14.1875 -31.90625 C 14.1875 -29.257812 12.90625 -27.9375 10.34375 -27.9375 C 7.625 -27.9375 6.265625 -29.257812 6.265625 -31.90625 C 6.265625 -34.613281 7.625 -35.96875 10.34375 -35.96875 C 12.90625 -35.96875 14.1875 -34.613281 14.1875 -31.90625 Z M 20.453125 -14.625 C 20.453125 -11.914062 19.097656 -10.5625 16.390625 -10.5625 C 13.753906 -10.5625 12.4375 -11.914062 12.4375 -14.625 C 12.4375 -17.269531 13.753906 -18.59375 16.390625 -18.59375 C 19.097656 -18.59375 20.453125 -17.269531 20.453125 -14.625 Z M 55.984375 -14.625 C 55.984375 -11.914062 54.664062 -10.5625 52.03125 -10.5625 C 49.382812 -10.5625 48.0625 -11.914062 48.0625 -14.625 C 48.0625 -17.269531 49.382812 -18.59375 52.03125 -18.59375 C 54.664062 -18.59375 55.984375 -17.269531 55.984375 -14.625 Z M 38.171875 -7.703125 C 38.171875 -5.054688 36.882812 -3.734375 34.3125 -3.734375 C 31.601562 -3.734375 30.25 -5.054688 30.25 -7.703125 C 30.25 -10.410156 31.601562 -11.765625 34.3125 -11.765625 C 36.882812 -11.765625 38.171875 -10.410156 38.171875 -7.703125 Z M 38.171875 -7.703125 "/>
</symbol>
</g>
<g>
<symbol overflow="visible" id="sinhala-rphf-1:id1:glyph0-0">
<path style="stroke:none;" d="M 5.375 -96.6875 L 69.828125 -96.6875 L 69.828125 0 L 5.375 0 Z M 8.0625 -2.6875 L 67.140625 -2.6875 L 67.140625 -94 L 8.0625 -94 Z M 8.0625 -2.6875 "/>
</symbol>
<symbol overflow="visible" id="sinhala-rphf-1:id1:glyph0-1">
<path style="stroke:none;" d="M 68.15625 -13.75 L 66.28125 -18.640625 L 88.09375 -27.390625 L 6.984375 -27.390625 L 6.984375 -34 L 88.09375 -34 L 66.28125 -42.75 L 68.15625 -47.640625 L 99.09375 -34.265625 L 99.09375 -27.125 Z M 68.15625 -13.75 "/>
</symbol>
</g>
<g>
<symbol overflow="visible" id="sinhala-rphf-1:id2:glyph0-0">
<path style="stroke:none;" d="M 10.34375 -78.546875 L 55.546875 -78.546875 L 55.546875 0 L 10.34375 0 Z M 49.9375 -5.609375 L 49.9375 -72.9375 L 15.953125 -72.9375 L 15.953125 -5.609375 Z M 49.9375 -5.609375 "/>
</symbol>
<symbol overflow="visible" id="sinhala-rphf-1:id2:glyph0-1">
<path style="stroke:none;" d="M -34.09375 -95.15625 C -29.113281 -95.15625 -24.972656 -94.53125 -21.671875 -93.28125 C -18.367188 -92.03125 -15.742188 -90.394531 -13.796875 -88.375 C -11.859375 -86.363281 -10.484375 -84.164062 -9.671875 -81.78125 C -8.867188 -79.394531 -8.46875 -77.101562 -8.46875 -74.90625 C -8.46875 -71.09375 -9.085938 -67.976562 -10.328125 -65.5625 C -11.578125 -63.144531 -13.117188 -60.976562 -14.953125 -59.0625 L -19.6875 -63.140625 C -18.21875 -64.316406 -16.96875 -65.765625 -15.9375 -67.484375 C -14.914062 -69.203125 -14.40625 -71.457031 -14.40625 -74.25 C -14.40625 -76.445312 -15.03125 -78.585938 -16.28125 -80.671875 C -17.53125 -82.765625 -19.582031 -84.507812 -22.4375 -85.90625 C -25.300781 -87.300781 -29.1875 -88 -34.09375 -88 C -40.695312 -88 -45.390625 -86.785156 -48.171875 -84.359375 C -50.960938 -81.941406 -52.359375 -79.050781 -52.359375 -75.6875 C -52.359375 -72.894531 -51.53125 -70.507812 -49.875 -68.53125 C -48.226562 -66.550781 -45.460938 -65.304688 -41.578125 -64.796875 C -42.753906 -65.742188 -43.578125 -66.820312 -44.046875 -68.03125 C -44.523438 -69.238281 -44.765625 -70.503906 -44.765625 -71.828125 C -44.765625 -74.691406 -43.738281 -76.984375 -41.6875 -78.703125 C -39.632812 -80.429688 -36.957031 -81.296875 -33.65625 -81.296875 C -29.988281 -81.296875 -27.164062 -80.300781 -25.1875 -78.3125 C -23.207031 -76.332031 -22.21875 -73.84375 -22.21875 -70.84375 C -22.21875 -67.46875 -23.554688 -64.679688 -26.234375 -62.484375 C -28.910156 -60.285156 -32.78125 -59.1875 -37.84375 -59.1875 C -44.738281 -59.1875 -49.90625 -60.757812 -53.34375 -63.90625 C -56.789062 -67.0625 -58.515625 -71.207031 -58.515625 -76.34375 C -58.515625 -79.863281 -57.578125 -83.050781 -55.703125 -85.90625 C -53.835938 -88.769531 -51.085938 -91.023438 -47.453125 -92.671875 C -43.828125 -94.328125 -39.375 -95.15625 -34.09375 -95.15625 Z M -38.71875 -70.625 C -38.71875 -69.15625 -38.296875 -67.941406 -37.453125 -66.984375 C -36.609375 -66.035156 -35.304688 -65.5625 -33.546875 -65.5625 C -32.078125 -65.5625 -30.847656 -66.019531 -29.859375 -66.9375 C -28.867188 -67.851562 -28.375 -69.117188 -28.375 -70.734375 C -28.375 -72.046875 -28.738281 -73.21875 -29.46875 -74.25 C -30.207031 -75.28125 -31.53125 -75.796875 -33.4375 -75.796875 C -35.125 -75.796875 -36.425781 -75.335938 -37.34375 -74.421875 C -38.257812 -73.503906 -38.71875 -72.238281 -38.71875 -70.625 Z M -38.71875 -70.625 "/>
</symbol>
<symbol overflow="visible" id="sinhala-rphf-1:id2:glyph0-2">
<path style="stroke:none;" d="M 38.171875 -56.09375 C 38.171875 -53.382812 36.882812 -52.03125 34.3125 -52.03125 C 31.601562 -52.03125 30.25 -53.382812 30.25 -56.09375 C 30.25 -58.738281 31.601562 -60.0625 34.3125 -60.0625 C 36.882812 -60.0625 38.171875 -58.738281 38.171875 -56.09375 Z M 20.453125 -49.171875 C 20.453125 -46.523438 19.097656 -45.203125 16.390625 -45.203125 C 13.753906 -45.203125 12.4375 -46.523438 12.4375 -49.171875 C 12.4375 -51.878906 13.753906 -53.234375 16.390625 -53.234375 C 19.097656 -53.234375 20.453125 -51.878906 20.453125 -49.171875 Z M 55.984375 -49.171875 C 55.984375 -46.523438 54.664062 -45.203125 52.03125 -45.203125 C 49.382812 -45.203125 48.0625 -46.523438 48.0625 -49.171875 C 48.0625 -51.878906 49.382812 -53.234375 52.03125 -53.234375 C 54.664062 -53.234375 55.984375 -51.878906 55.984375 -49.171875 Z M 62.046875 -31.90625 C 62.046875 -29.257812 60.757812 -27.9375 58.1875 -27.9375 C 55.476562 -27.9375 54.125 -29.257812 54.125 -31.90625 C 54.125 -34.613281 55.476562 -35.96875 58.1875 -35.96875 C 60.757812 -35.96875 62.046875 -34.613281 62.046875 -31.90625 Z M 14.1875 -31.90625 C 14.1875 -29.257812 12.90625 -27.9375 10.34375 -27.9375 C 7.625 -27.9375 6.265625 -29.257812 6.265625 -31.90625 C 6.265625 -34.613281 7.625 -35.96875 10.34375 -35.96875 C 12.90625 -35.96875 14.1875 -34.613281 14.1875 -31.90625 Z M 20.453125 -14.625 C 20.453125 -11.914062 19.097656 -10.5625 16.390625 -10.5625 C 13.753906 -10.5625 12.4375 -11.914062 12.4375 -14.625 C 12.4375 -17.269531 13.753906 -18.59375 16.390625 -18.59375 C 19.097656 -18.59375 20.453125 -17.269531 20.453125 -14.625 Z M 55.984375 -14.625 C 55.984375 -11.914062 54.664062 -10.5625 52.03125 -10.5625 C 49.382812 -10.5625 48.0625 -11.914062 48.0625 -14.625 C 48.0625 -17.269531 49.382812 -18.59375 52.03125 -18.59375 C 54.664062 -18.59375 55.984375 -17.269531 55.984375 -14.625 Z M 38.171875 -7.703125 C 38.171875 -5.054688 36.882812 -3.734375 34.3125 -3.734375 C 31.601562 -3.734375 30.25 -5.054688 30.25 -7.703125 C 30.25 -10.410156 31.601562 -11.765625 34.3125 -11.765625 C 36.882812 -11.765625 38.171875 -10.410156 38.171875 -7.703125 Z M 38.171875 -7.703125 "/>
</symbol>
</g>
</defs>
  <g id="sinhala-rphf-1:id0:id0" transform="matrix(1.25,0,0,1.25,0.0,8.5546875)"><g id="sinhala-rphf-1:id0:surface1">
<g style="fill:rgb(0%,0%,0%);fill-opacity:1;">
  <use xlink:href="#sinhala-rphf-1:id0:glyph0-1" x="16" y="111.671875" class="c0"/>
  <use xlink:href="#sinhala-rphf-1:id0:glyph0-2" x="91.6875" y="111.671875" class="z"/>
  <use xlink:href="#sinhala-rphf-1:id0:glyph0-3" x="91.6875" y="111.671875" class="dc"/>
</g>
</g>
</g>
  <g id="sinhala-rphf-1:id1:id1" transform="matrix(1.25,0,0,1.25,220.13671875,0.0)"><g id="sinhala-rphf-1:id1:surface1">
<g style="fill:rgb(0%,0%,0%);fill-opacity:1;">
  <use xlink:href="#sinhala-rphf-1:id1:glyph0-1" x="0" y="120.84375" class="arrow"/>
</g>
</g>
</g>
  <g id="sinhala-rphf-1:id2:id2" transform="matrix(1.25,0,0,1.25,352.734375,8.5546875)"><g id="sinhala-rphf-1:id2:surface1">
<g style="fill:rgb(0%,0%,0%);fill-opacity:1;">
  <use xlink:href="#sinhala-rphf-1:id2:glyph0-1" x="64" y="111.671875" class="c0"/>
  <use xlink:href="#sinhala-rphf-1:id2:glyph0-2" x="64" y="111.671875" class="dc"/>
</g>
</g>
</g>
</svg>
