<?xml version="1.0" standalone="no"?>
<!DOCTYPE svg PUBLIC "-//W3C//DTD SVG 1.1//EN"
 "http://www.w3.org/Graphics/SVG/1.1/DTD/svg11.dtd">
<!-- Created with svg_stack (http://github.com/astraw/svg_stack) -->
<svg xmlns="http://www.w3.org/2000/svg" xmlns:sodipodi="http://sodipodi.sourceforge.net/DTD/sodipodi-0.dtd" xmlns:xlink="http://www.w3.org/1999/xlink" version="1.1" width="603.10546875" height="204.1015625">
  <defs><g>
<symbol overflow="visible" id="id0:glyph0-0">
<path style="stroke:none;" d="M 11 13.203125 L 99 13.203125 L 99 -96.796875 L 11 -96.796875 Z M 55 -46.3125 L 20.015625 -91.296875 L 89.984375 -91.296875 Z M 58.515625 -41.796875 L 93.5 -86.796875 L 93.5 3.1875 Z M 20.015625 7.703125 L 55 -37.296875 L 89.984375 7.703125 Z M 16.5 -86.796875 L 51.484375 -41.796875 L 16.5 3.1875 Z M 16.5 -86.796875 "/>
</symbol>
<symbol overflow="visible" id="id0:glyph0-1">
<path style="stroke:none;" d="M 16.609375 -82.5 L 16.609375 -74.90625 L 75.5625 -74.90625 C 75.5625 -71.390625 75.5625 -67.4375 75.34375 -63.140625 L 14.1875 -60.9375 L 15.296875 -53.5625 L 74.796875 -56.546875 C 74.359375 -52.25 73.703125 -47.515625 72.59375 -42.234375 L 81.40625 -41.359375 C 84.375 -55.765625 84.375 -66.4375 84.375 -75.015625 L 84.375 -82.5 Z M 16.609375 -82.5 "/>
</symbol>
<symbol overflow="visible" id="id0:glyph0-2">
<path style="stroke:none;" d=""/>
</symbol>
<symbol overflow="visible" id="id0:glyph0-3">
<path style="stroke:none;" d="M -55.109375 -32.125 L -55.109375 -11.765625 L -95.703125 -11.765625 L -95.703125 -3.84375 L -5.5 -3.84375 L -5.5 -11.765625 L -46.421875 -11.765625 L -46.421875 -32.125 Z M -55.109375 -32.125 "/>
</symbol>
<symbol overflow="visible" id="id0:glyph0-4">
<path style="stroke:none;" d="M 11 13.203125 L 99 13.203125 L 99 -96.796875 L 11 -96.796875 Z M 55 -46.3125 L 20.015625 -91.296875 L 89.984375 -91.296875 Z M 58.515625 -41.796875 L 93.5 -86.796875 L 93.5 3.1875 Z M 20.015625 7.703125 L 55 -37.296875 L 89.984375 7.703125 Z M 16.5 -86.796875 L 51.484375 -41.796875 L 16.5 3.1875 Z M 16.5 -86.796875 "/>
</symbol>
</g>
<g>
<symbol overflow="visible" id="id1:glyph0-0">
<path style="stroke:none;" d="M 5.375 -96.6875 L 69.828125 -96.6875 L 69.828125 0 L 5.375 0 Z M 8.0625 -2.6875 L 67.140625 -2.6875 L 67.140625 -94 L 8.0625 -94 Z M 8.0625 -2.6875 "/>
</symbol>
<symbol overflow="visible" id="id1:glyph0-1">
<path style="stroke:none;" d="M 68.15625 -13.75 L 66.28125 -18.640625 L 88.09375 -27.390625 L 6.984375 -27.390625 L 6.984375 -34 L 88.09375 -34 L 66.28125 -42.75 L 68.15625 -47.640625 L 99.09375 -34.265625 L 99.09375 -27.125 Z M 68.15625 -13.75 "/>
</symbol>
</g>
<g>
<symbol overflow="visible" id="id2:glyph0-0">
<path style="stroke:none;" d="M 11 13.203125 L 99 13.203125 L 99 -96.796875 L 11 -96.796875 Z M 55 -46.3125 L 20.015625 -91.296875 L 89.984375 -91.296875 Z M 58.515625 -41.796875 L 93.5 -86.796875 L 93.5 3.1875 Z M 20.015625 7.703125 L 55 -37.296875 L 89.984375 7.703125 Z M 16.5 -86.796875 L 51.484375 -41.796875 L 16.5 3.1875 Z M 16.5 -86.796875 "/>
</symbol>
<symbol overflow="visible" id="id2:glyph0-1">
<path style="stroke:none;" d="M 17.15625 -87.890625 L 17.15625 -81.1875 L 75.6875 -81.1875 C 75.6875 -78.765625 75.6875 -76.015625 75.453125 -72.9375 L 14.953125 -70.734375 L 16.0625 -63.796875 L 74.796875 -66.65625 C 74.46875 -63.578125 73.8125 -60.171875 72.9375 -56.4375 L 81.1875 -55.65625 C 83.9375 -67.09375 83.9375 -75.796875 83.9375 -82.171875 L 83.9375 -87.890625 Z M 17.15625 -87.890625 "/>
</symbol>
<symbol overflow="visible" id="id2:glyph0-2">
<path style="stroke:none;" d=""/>
</symbol>
<symbol overflow="visible" id="id2:glyph0-3">
<path style="stroke:none;" d="M -55.109375 -52.46875 L -55.109375 -43.125 L -95.703125 -43.125 L -95.703125 -35.75 L -5.609375 -35.75 L -5.609375 -43.125 L -46.421875 -43.125 L -46.421875 -52.46875 Z M -55.109375 -52.46875 "/>
</symbol>
<symbol overflow="visible" id="id2:glyph0-4">
<path style="stroke:none;" d="M -61.375 -25.1875 L -61.375 8.25 L -38.71875 8.25 L -38.71875 -25.1875 L -45.546875 -25.1875 L -45.546875 -14.84375 L -54.453125 -14.84375 L -54.453125 -25.1875 Z M -54.453125 -8.90625 L -45.546875 -8.90625 L -45.546875 2.3125 L -54.453125 2.3125 Z M -86.5625 2.3125 L -86.5625 8.25 L -82.9375 8.25 C -77 8.25 -71.171875 8.359375 -62.921875 6.703125 L -63.6875 0.875 C -70.0625 2.09375 -75.125 2.3125 -79.859375 2.3125 L -79.859375 -5.828125 L -64.90625 -5.828125 L -64.90625 -24.640625 L -86.796875 -24.640625 L -86.796875 -18.8125 L -71.609375 -18.8125 L -71.609375 -11.546875 L -86.5625 -11.546875 Z M -36.078125 1.765625 L -36.078125 8.25 L -13.53125 8.25 L -13.53125 1.765625 L -28.265625 1.765625 L -28.265625 -18.15625 L -14.515625 -18.15625 L -14.515625 -24.640625 L -36.078125 -24.640625 Z M -36.078125 1.765625 "/>
</symbol>
</g>
</defs>
  <g id="id0:id0" transform="matrix(1.25,0,0,1.25,0.0,0.0)"><g id="id0:surface1">
<g style="fill:rgb(0%,0%,0%);fill-opacity:1;">
  <use xlink:href="#id0:glyph0-1" x="16" y="129.59375"/>
  <use xlink:href="#id0:glyph0-2" x="117.203125" y="129.59375"/>
  <use xlink:href="#id0:glyph0-3" x="117.203125" y="129.59375"/>
  <use xlink:href="#id0:glyph0-2" x="117.203125" y="129.59375"/>
  <use xlink:href="#id0:glyph0-4" x="117.203125" y="129.59375"/>
</g>
</g>
</g>
  <g id="id1:id1" transform="matrix(1.25,0,0,1.25,304.00390625,1.34765625)"><g id="id1:surface1">
<g style="fill:rgb(0%,0%,0%);fill-opacity:1;">
  <use xlink:href="#id1:glyph0-1" x="0" y="120.84375"/>
</g>
</g>
</g>
  <g id="id2:id2" transform="matrix(1.25,0,0,1.25,436.6015625,0.0)"><g id="id2:surface1">
<g style="fill:rgb(0%,0%,0%);fill-opacity:1;">
  <use xlink:href="#id2:glyph0-1" x="16" y="129.59375"/>
  <use xlink:href="#id2:glyph0-2" x="117.203125" y="129.59375"/>
  <use xlink:href="#id2:glyph0-3" x="117.203125" y="129.59375"/>
  <use xlink:href="#id2:glyph0-2" x="117.203125" y="129.59375"/>
  <use xlink:href="#id2:glyph0-4" x="117.203125" y="129.59375"/>
</g>
</g>
</g>
</svg>
