<?xml version="1.0" standalone="no"?>
<!DOCTYPE svg PUBLIC "-//W3C//DTD SVG 1.1//EN"
 "http://www.w3.org/Graphics/SVG/1.1/DTD/svg11.dtd">
<!-- Created with svg_stack (http://github.com/astraw/svg_stack) -->
<svg xmlns="http://www.w3.org/2000/svg" xmlns:sodipodi="http://sodipodi.sourceforge.net/DTD/sodipodi-0.dtd" xmlns:xlink="http://www.w3.org/1999/xlink" version="1.1" width="876.7578125" height="202.578125">
  <defs><g>
<symbol overflow="visible" id="id0:glyph0-0">
<path style="stroke:none;" d="M 11 13.203125 L 99 13.203125 L 99 -96.796875 L 11 -96.796875 Z M 55 -46.3125 L 20.015625 -91.296875 L 89.984375 -91.296875 Z M 58.515625 -41.796875 L 93.5 -86.796875 L 93.5 3.1875 Z M 20.015625 7.703125 L 55 -37.296875 L 89.984375 7.703125 Z M 16.5 -86.796875 L 51.484375 -41.796875 L 16.5 3.1875 Z M 16.5 -86.796875 "/>
</symbol>
<symbol overflow="visible" id="id0:glyph0-1">
<path style="stroke:none;" d="M 29.921875 -69.078125 C 26.625 -68.96875 23.203125 -69.078125 20.015625 -69.515625 L 19.359375 -68.203125 C 19.140625 -67.875 19.25 -67.546875 19.6875 -67.203125 C 22.109375 -65.453125 25.296875 -63.6875 28.59375 -62.59375 C 30.359375 -63.140625 33.765625 -63.90625 36.078125 -64.125 C 46.421875 -64.453125 62.484375 -66 73.265625 -67.546875 C 72.59375 -62.046875 71.71875 -56.546875 70.734375 -52.03125 C 70.625 -51.15625 70.734375 -50.8125 71.28125 -50.703125 L 73.921875 -50.15625 C 74.46875 -50.15625 75.015625 -50.375 75.34375 -50.9375 C 79.09375 -59.40625 82.390625 -71.9375 83.375 -80.734375 L 84.921875 -84.265625 C 85.140625 -84.8125 85.140625 -85.25 84.703125 -85.6875 C 83.703125 -86.234375 81.296875 -87.671875 79.859375 -88.328125 C 79.421875 -88.546875 78.65625 -88.546875 78.203125 -88.328125 L 74.46875 -86.453125 C 67.546875 -86.015625 38.828125 -85.46875 33.765625 -85.578125 C 30.796875 -85.578125 26.40625 -86.015625 23.203125 -86.6875 L 22.546875 -85.25 C 22.4375 -84.921875 22.546875 -84.484375 22.984375 -84.15625 C 25.40625 -82.171875 28.8125 -80.1875 32.125 -79.09375 C 34.65625 -79.859375 39.15625 -80.734375 41.578125 -80.84375 C 45.984375 -81.1875 66.4375 -81.515625 74.25 -81.515625 C 74.25 -78.65625 74.03125 -75.234375 73.703125 -71.71875 C 61.375 -70.296875 40.921875 -69.1875 29.921875 -69.078125 Z M 29.921875 -69.078125 "/>
</symbol>
<symbol overflow="visible" id="id0:glyph0-2">
<path style="stroke:none;" d=""/>
</symbol>
<symbol overflow="visible" id="id0:glyph0-3">
<path style="stroke:none;" d="M 56.875 -56.546875 L 57.421875 -61.15625 C 57.421875 -62.046875 57.203125 -62.59375 56.3125 -62.921875 C 53.453125 -63.796875 47.296875 -64.5625 43.78125 -64.6875 C 43.015625 -64.6875 42.6875 -64.453125 42.5625 -64.125 L 42.015625 -61.703125 C 44.765625 -60.828125 47.515625 -59.40625 49.0625 -57.96875 L 49.171875 -27.609375 C 33.875 -27.390625 19.140625 -27.28125 15.84375 -27.28125 C 12.4375 -27.28125 7.265625 -27.71875 3.625 -28.375 L 2.859375 -26.84375 C 2.75 -26.515625 2.859375 -26.1875 3.1875 -25.84375 C 5.9375 -23.65625 9.90625 -21.34375 13.96875 -20.125 C 16.609375 -21.015625 22.21875 -22 24.96875 -22.21875 C 30.796875 -22.546875 81.1875 -23.203125 88.875 -23.09375 C 92.1875 -23.09375 98.671875 -22.875 101.53125 -22.546875 C 102.625 -23.09375 103.953125 -24.75 103.953125 -26.625 C 103.953125 -27.5 103.296875 -28.15625 102.40625 -28.375 C 99.875 -29.265625 94.15625 -29.921875 90.09375 -30.03125 L 86.125 -28.375 C 82.828125 -28.15625 70.296875 -27.828125 56.65625 -27.71875 Z M 56.875 -56.546875 "/>
</symbol>
<symbol overflow="visible" id="id0:glyph0-4">
<path style="stroke:none;" d="M 42.6875 -21.234375 C 42.5625 -21.671875 42.234375 -21.78125 41.796875 -21.671875 C 36.1875 -20.015625 27.0625 -18.703125 21.125 -18.59375 C 19.796875 -18.59375 19.359375 -19.140625 19.359375 -20.234375 L 19.359375 -38.0625 L 36.40625 -38.828125 C 36.84375 -39.265625 37.515625 -40.265625 37.515625 -41.359375 C 37.515625 -41.6875 37.40625 -42.015625 36.953125 -42.34375 L 35.421875 -43.234375 C 36.078125 -47.40625 36.84375 -55.984375 36.84375 -60.5 L 37.953125 -63.25 C 38.171875 -63.90625 38.171875 -64.234375 37.734375 -64.5625 C 37.0625 -65.125 35.3125 -66 34.546875 -66.328125 C 33.984375 -66.546875 33.328125 -66.546875 32.890625 -66.328125 L 30.46875 -65.34375 C 27.5 -65.015625 18.703125 -64.796875 16.171875 -64.90625 C 14.1875 -64.90625 11.328125 -65.015625 9.234375 -65.453125 L 8.46875 -64.125 C 8.359375 -63.796875 8.46875 -63.46875 8.90625 -63.03125 C 10.5625 -61.59375 12.765625 -60.0625 15.0625 -59.0625 C 16.609375 -59.515625 18.8125 -60.0625 20.34375 -60.171875 C 21.78125 -60.390625 26.953125 -60.5 29.59375 -60.5 C 29.8125 -57.09375 29.703125 -47.078125 29.484375 -43.234375 L 28.484375 -42.90625 L 19.359375 -42.34375 C 17.15625 -42.5625 11.875 -42.6875 9.5625 -42.6875 C 8.796875 -42.6875 8.578125 -42.453125 8.46875 -42.125 L 8.03125 -40.15625 C 9.90625 -39.703125 11.4375 -38.828125 12.4375 -37.84375 L 12.4375 -21.34375 C 12.4375 -19.140625 12.546875 -17.375 12.875 -16.828125 C 14.078125 -13.96875 15.953125 -12.546875 19.46875 -12.546875 C 20.234375 -12.546875 21.78125 -12.546875 22.765625 -12.765625 C 28.59375 -13.3125 37.0625 -15.734375 42.6875 -18.59375 C 43.125 -18.8125 43.234375 -19.140625 43.125 -19.46875 Z M 67.546875 -60.9375 L 67.765625 -64.5625 C 67.875 -65.453125 67.546875 -65.890625 66.765625 -66.328125 C 64.6875 -67.203125 60.9375 -68.09375 58.296875 -68.3125 C 57.53125 -68.3125 57.3125 -68.203125 57.09375 -67.765625 L 56.203125 -65.234375 C 58.296875 -64.34375 59.84375 -63.25 60.609375 -62.046875 L 60.609375 -45.203125 L 49.71875 -45.09375 L 49.828125 -58.1875 L 49.9375 -61.8125 C 49.9375 -62.703125 49.71875 -63.25 48.953125 -63.46875 C 46.96875 -64.125 43.5625 -64.90625 41.03125 -65.015625 C 40.265625 -65.015625 39.9375 -64.796875 39.8125 -64.453125 L 39.046875 -61.9375 C 40.8125 -61.265625 42.234375 -60.171875 42.90625 -59.1875 L 43.453125 -18.375 C 43.453125 -16.609375 43.78125 -14.1875 44.21875 -12.65625 L 47.734375 -12.65625 C 48.40625 -13.53125 48.953125 -14.625 49.28125 -16.28125 L 66.765625 -16.390625 L 66 -14.84375 C 65.453125 -14.296875 65.453125 -13.859375 65.890625 -13.640625 L 66.984375 -12.875 C 67.546875 -12.546875 67.984375 -12.546875 68.53125 -13.09375 C 74.46875 -20.5625 79.09375 -28.375 82.390625 -36.1875 L 91.734375 -17.046875 C 92.1875 -16.171875 92.84375 -15.1875 93.390625 -14.84375 C 94.265625 -14.296875 95.921875 -14.515625 96.6875 -15.40625 C 97.125 -15.84375 97.234375 -16.71875 97.125 -18.046875 C 96.90625 -20.015625 95.921875 -23.765625 95.046875 -26.296875 L 91.625 -29.15625 L 84.703125 -42.015625 C 86.796875 -47.953125 88.109375 -53.90625 88.765625 -59.625 C 88.875 -60.171875 88.984375 -61.046875 88.875 -61.703125 C 88.875 -62.59375 88.546875 -63.25 87.78125 -63.6875 C 85.6875 -65.125 80.515625 -66.984375 76.78125 -67.765625 C 76.015625 -67.875 75.796875 -67.65625 75.5625 -67.203125 L 74.25 -64.90625 C 76.890625 -63.578125 79.3125 -61.59375 80.40625 -59.953125 C 79.203125 -47.734375 75.015625 -33.21875 68.640625 -19.90625 C 68.640625 -20.234375 68.53125 -20.34375 68.203125 -20.5625 L 66.21875 -21.234375 C 66.765625 -23.875 67.203125 -28.046875 67.203125 -31.015625 Z M 49.71875 -40.15625 L 60.609375 -40.375 L 60.609375 -21.34375 L 49.609375 -21.234375 Z M 49.71875 -40.15625 "/>
</symbol>
</g>
<g>
<symbol overflow="visible" id="id1:glyph0-0">
<path style="stroke:none;" d="M 5.375 -96.6875 L 69.828125 -96.6875 L 69.828125 0 L 5.375 0 Z M 8.0625 -2.6875 L 67.140625 -2.6875 L 67.140625 -94 L 8.0625 -94 Z M 8.0625 -2.6875 "/>
</symbol>
<symbol overflow="visible" id="id1:glyph0-1">
<path style="stroke:none;" d="M 68.15625 -13.75 L 66.28125 -18.640625 L 88.09375 -27.390625 L 6.984375 -27.390625 L 6.984375 -34 L 88.09375 -34 L 66.28125 -42.75 L 68.15625 -47.640625 L 99.09375 -34.265625 L 99.09375 -27.125 Z M 68.15625 -13.75 "/>
</symbol>
</g>
<g>
<symbol overflow="visible" id="id2:glyph0-0">
<path style="stroke:none;" d="M 11 13.203125 L 99 13.203125 L 99 -96.796875 L 11 -96.796875 Z M 55 -46.3125 L 20.015625 -91.296875 L 89.984375 -91.296875 Z M 58.515625 -41.796875 L 93.5 -86.796875 L 93.5 3.1875 Z M 20.015625 7.703125 L 55 -37.296875 L 89.984375 7.703125 Z M 16.5 -86.796875 L 51.484375 -41.796875 L 16.5 3.1875 Z M 16.5 -86.796875 "/>
</symbol>
<symbol overflow="visible" id="id2:glyph0-1">
<path style="stroke:none;" d="M 26.296875 -53.015625 C 22.765625 -53.015625 18.703125 -53.234375 15.296875 -53.796875 L 14.625 -52.25 C 14.40625 -51.921875 14.515625 -51.59375 14.953125 -51.15625 C 17.59375 -49.171875 21.234375 -47.078125 24.859375 -45.765625 C 26.734375 -46.421875 30.46875 -47.1875 32.671875 -47.296875 C 45.4375 -47.953125 66.4375 -49.9375 77.984375 -51.921875 C 77.328125 -43.453125 76.453125 -34.765625 75.234375 -27.71875 C 75.125 -26.84375 75.34375 -26.515625 75.90625 -26.40625 L 78.09375 -25.953125 C 78.65625 -25.953125 79.203125 -26.1875 79.421875 -26.84375 C 84.046875 -40.59375 87.78125 -60.71875 88 -73.921875 L 89.65625 -77.546875 C 89.875 -78.09375 89.875 -78.546875 89.4375 -78.984375 C 88.328125 -79.75 85.90625 -81.296875 84.59375 -81.953125 C 84.046875 -82.28125 83.375 -82.28125 82.71875 -81.953125 L 78.65625 -80.078125 C 70.296875 -79.640625 35.640625 -79.09375 29.8125 -79.09375 C 26.84375 -79.09375 22.546875 -79.421875 19.25 -80.078125 L 18.59375 -78.765625 C 18.375 -78.3125 18.375 -77.984375 18.921875 -77.546875 C 21.34375 -75.5625 24.96875 -73.484375 28.265625 -72.15625 C 30.90625 -73.046875 35.859375 -73.921875 38.71875 -74.03125 C 44.109375 -74.46875 69.515625 -74.90625 78.875 -74.796875 C 78.875 -69.625 78.65625 -63.25 78.203125 -56.546875 C 65.5625 -54.890625 39.59375 -53.125 26.296875 -53.015625 Z M 53.453125 -29.265625 L 54.015625 -33.875 C 54.125 -34.765625 53.796875 -35.3125 52.90625 -35.640625 C 50.046875 -36.515625 44 -37.296875 40.484375 -37.296875 C 39.703125 -37.296875 39.484375 -37.0625 39.375 -36.84375 L 38.71875 -34.3125 C 41.46875 -33.4375 44.109375 -32.015625 45.65625 -30.578125 L 45.765625 -11.328125 L 15.84375 -11.109375 C 12.4375 -11.109375 7.265625 -11.546875 3.625 -12.3125 L 2.859375 -10.671875 C 2.75 -10.34375 2.859375 -10.015625 3.1875 -9.796875 C 5.9375 -7.484375 10.015625 -5.171875 13.96875 -3.953125 C 16.609375 -4.84375 22.21875 -5.828125 24.96875 -6.046875 C 30.796875 -6.484375 81.1875 -7.046875 88.875 -6.9375 C 92.1875 -6.9375 98.671875 -6.703125 101.640625 -6.375 C 102.625 -6.9375 103.953125 -8.578125 103.953125 -10.453125 C 103.953125 -11.4375 103.296875 -11.984375 102.515625 -12.3125 C 99.984375 -13.09375 94.15625 -13.859375 90.203125 -13.96875 L 86.234375 -12.203125 C 82.609375 -11.984375 68.203125 -11.765625 53.234375 -11.4375 Z M 53.453125 -29.265625 "/>
</symbol>
<symbol overflow="visible" id="id2:glyph0-2">
<path style="stroke:none;" d=""/>
</symbol>
<symbol overflow="visible" id="id2:glyph0-3">
<path style="stroke:none;" d="M 42.6875 -21.234375 C 42.5625 -21.671875 42.234375 -21.78125 41.796875 -21.671875 C 36.1875 -20.015625 27.0625 -18.703125 21.125 -18.59375 C 19.796875 -18.59375 19.359375 -19.140625 19.359375 -20.234375 L 19.359375 -38.0625 L 36.40625 -38.828125 C 36.84375 -39.265625 37.515625 -40.265625 37.515625 -41.359375 C 37.515625 -41.6875 37.40625 -42.015625 36.953125 -42.34375 L 35.421875 -43.234375 C 36.078125 -47.40625 36.84375 -55.984375 36.84375 -60.5 L 37.953125 -63.25 C 38.171875 -63.90625 38.171875 -64.234375 37.734375 -64.5625 C 37.0625 -65.125 35.3125 -66 34.546875 -66.328125 C 33.984375 -66.546875 33.328125 -66.546875 32.890625 -66.328125 L 30.46875 -65.34375 C 27.5 -65.015625 18.703125 -64.796875 16.171875 -64.90625 C 14.1875 -64.90625 11.328125 -65.015625 9.234375 -65.453125 L 8.46875 -64.125 C 8.359375 -63.796875 8.46875 -63.46875 8.90625 -63.03125 C 10.5625 -61.59375 12.765625 -60.0625 15.0625 -59.0625 C 16.609375 -59.515625 18.8125 -60.0625 20.34375 -60.171875 C 21.78125 -60.390625 26.953125 -60.5 29.59375 -60.5 C 29.8125 -57.09375 29.703125 -47.078125 29.484375 -43.234375 L 28.484375 -42.90625 L 19.359375 -42.34375 C 17.15625 -42.5625 11.875 -42.6875 9.5625 -42.6875 C 8.796875 -42.6875 8.578125 -42.453125 8.46875 -42.125 L 8.03125 -40.15625 C 9.90625 -39.703125 11.4375 -38.828125 12.4375 -37.84375 L 12.4375 -21.34375 C 12.4375 -19.140625 12.546875 -17.375 12.875 -16.828125 C 14.078125 -13.96875 15.953125 -12.546875 19.46875 -12.546875 C 20.234375 -12.546875 21.78125 -12.546875 22.765625 -12.765625 C 28.59375 -13.3125 37.0625 -15.734375 42.6875 -18.59375 C 43.125 -18.8125 43.234375 -19.140625 43.125 -19.46875 Z M 67.546875 -60.9375 L 67.765625 -64.5625 C 67.875 -65.453125 67.546875 -65.890625 66.765625 -66.328125 C 64.6875 -67.203125 60.9375 -68.09375 58.296875 -68.3125 C 57.53125 -68.3125 57.3125 -68.203125 57.09375 -67.765625 L 56.203125 -65.234375 C 58.296875 -64.34375 59.84375 -63.25 60.609375 -62.046875 L 60.609375 -45.203125 L 49.71875 -45.09375 L 49.828125 -58.1875 L 49.9375 -61.8125 C 49.9375 -62.703125 49.71875 -63.25 48.953125 -63.46875 C 46.96875 -64.125 43.5625 -64.90625 41.03125 -65.015625 C 40.265625 -65.015625 39.9375 -64.796875 39.8125 -64.453125 L 39.046875 -61.9375 C 40.8125 -61.265625 42.234375 -60.171875 42.90625 -59.1875 L 43.453125 -18.375 C 43.453125 -16.609375 43.78125 -14.1875 44.21875 -12.65625 L 47.734375 -12.65625 C 48.40625 -13.53125 48.953125 -14.625 49.28125 -16.28125 L 66.765625 -16.390625 L 66 -14.84375 C 65.453125 -14.296875 65.453125 -13.859375 65.890625 -13.640625 L 66.984375 -12.875 C 67.546875 -12.546875 67.984375 -12.546875 68.53125 -13.09375 C 74.46875 -20.5625 79.09375 -28.375 82.390625 -36.1875 L 91.734375 -17.046875 C 92.1875 -16.171875 92.84375 -15.1875 93.390625 -14.84375 C 94.265625 -14.296875 95.921875 -14.515625 96.6875 -15.40625 C 97.125 -15.84375 97.234375 -16.71875 97.125 -18.046875 C 96.90625 -20.015625 95.921875 -23.765625 95.046875 -26.296875 L 91.625 -29.15625 L 84.703125 -42.015625 C 86.796875 -47.953125 88.109375 -53.90625 88.765625 -59.625 C 88.875 -60.171875 88.984375 -61.046875 88.875 -61.703125 C 88.875 -62.59375 88.546875 -63.25 87.78125 -63.6875 C 85.6875 -65.125 80.515625 -66.984375 76.78125 -67.765625 C 76.015625 -67.875 75.796875 -67.65625 75.5625 -67.203125 L 74.25 -64.90625 C 76.890625 -63.578125 79.3125 -61.59375 80.40625 -59.953125 C 79.203125 -47.734375 75.015625 -33.21875 68.640625 -19.90625 C 68.640625 -20.234375 68.53125 -20.34375 68.203125 -20.5625 L 66.21875 -21.234375 C 66.765625 -23.875 67.203125 -28.046875 67.203125 -31.015625 Z M 49.71875 -40.15625 L 60.609375 -40.375 L 60.609375 -21.34375 L 49.609375 -21.234375 Z M 49.71875 -40.15625 "/>
</symbol>
</g>
</defs>
  <g id="id0:id0" transform="matrix(1.25,0,0,1.25,0.0,0.0)"><g id="id0:surface1">
<g style="fill:rgb(0%,0%,0%);fill-opacity:1;">
  <use xlink:href="#id0:glyph0-1" x="16" y="128.609375"/>
  <use xlink:href="#id0:glyph0-2" x="122.265625" y="128.609375"/>
  <use xlink:href="#id0:glyph0-3" x="122.265625" y="128.609375"/>
  <use xlink:href="#id0:glyph0-2" x="228.53125" y="128.609375"/>
  <use xlink:href="#id0:glyph0-4" x="228.53125" y="128.609375"/>
</g>
</g>
</g>
  <g id="id1:id1" transform="matrix(1.25,0,0,1.25,438.49609375,0.5859375)"><g id="id1:surface1">
<g style="fill:rgb(0%,0%,0%);fill-opacity:1;">
  <use xlink:href="#id1:glyph0-1" x="0" y="120.84375"/>
</g>
</g>
</g>
  <g id="id2:id2" transform="matrix(1.25,0,0,1.25,571.09375,0.0)"><g id="id2:surface1">
<g style="fill:rgb(0%,0%,0%);fill-opacity:1;">
  <use xlink:href="#id2:glyph0-1" x="16" y="128.609375"/>
  <use xlink:href="#id2:glyph0-2" x="122.265625" y="128.609375"/>
  <use xlink:href="#id2:glyph0-3" x="122.265625" y="128.609375"/>
</g>
</g>
</g>
</svg>
