<?xml version="1.0" standalone="no"?>
<!DOCTYPE svg PUBLIC "-//W3C//DTD SVG 1.1//EN"
 "http://www.w3.org/Graphics/SVG/1.1/DTD/svg11.dtd">
<!-- Created with svg_stack (http://github.com/astraw/svg_stack) -->
<svg xmlns="http://www.w3.org/2000/svg" xmlns:sodipodi="http://sodipodi.sourceforge.net/DTD/sodipodi-0.dtd" xmlns:xlink="http://www.w3.org/1999/xlink" version="1.1" width="743.92578125" height="202.578125">
  <defs><g>
<symbol overflow="visible" id="id0:glyph0-0">
<path style="stroke:none;" d="M 11 13.203125 L 99 13.203125 L 99 -96.796875 L 11 -96.796875 Z M 55 -46.3125 L 20.015625 -91.296875 L 89.984375 -91.296875 Z M 58.515625 -41.796875 L 93.5 -86.796875 L 93.5 3.1875 Z M 20.015625 7.703125 L 55 -37.296875 L 89.984375 7.703125 Z M 16.5 -86.796875 L 51.484375 -41.796875 L 16.5 3.1875 Z M 16.5 -86.796875 "/>
</symbol>
<symbol overflow="visible" id="id0:glyph0-1">
<path style="stroke:none;" d="M 81.734375 -81.40625 L 83.046875 -85.140625 C 83.265625 -85.796875 83.265625 -86.234375 82.828125 -86.453125 C 81.84375 -87.125 79.3125 -88.4375 77.984375 -88.875 C 77.4375 -89.203125 76.671875 -89.203125 76.234375 -88.875 L 72.59375 -86.90625 C 63.359375 -86.453125 43.5625 -86.34375 34.4375 -86.34375 C 31.34375 -87.015625 25.1875 -87.5625 21.890625 -87.5625 C 21.234375 -87.5625 20.90625 -87.34375 20.796875 -87.015625 L 20.234375 -84.484375 C 22.4375 -83.9375 24.96875 -82.609375 26.1875 -81.40625 L 28.15625 -58.078125 C 28.265625 -56.3125 28.703125 -54.34375 29.265625 -52.90625 L 33.546875 -52.90625 C 34.203125 -53.796875 34.65625 -54.78125 34.875 -56.09375 L 80.296875 -56.65625 C 80.953125 -57.203125 81.625 -58.625 81.625 -60.0625 C 81.625 -60.609375 81.296875 -61.046875 80.84375 -61.265625 L 78.984375 -62.046875 C 80.296875 -68.3125 81.296875 -75.234375 81.734375 -81.40625 Z M 34.65625 -81.515625 C 46.421875 -81.734375 61.265625 -81.84375 73.265625 -81.84375 L 72.484375 -62.265625 L 70.1875 -61.59375 C 62.265625 -61.15625 44.984375 -60.828125 35.09375 -60.9375 Z M 80.625 -7.921875 C 81.0625 -8.359375 81.625 -9.453125 81.625 -10.5625 C 81.625 -11 81.515625 -11.328125 81.0625 -11.546875 L 79.09375 -12.4375 C 79.96875 -14.953125 80.953125 -20.125 81.296875 -23.203125 L 82.609375 -25.734375 C 82.828125 -26.40625 82.828125 -26.84375 82.28125 -27.171875 C 81.40625 -27.828125 79.203125 -28.9375 78.09375 -29.375 C 77.4375 -29.59375 76.78125 -29.59375 76.34375 -29.375 L 73.15625 -27.828125 L 69.84375 -27.71875 C 70.734375 -30.796875 71.390625 -35.09375 71.390625 -38.390625 L 71.390625 -41.359375 L 88.875 -41.46875 C 92.1875 -41.46875 98.671875 -41.25 101.640625 -40.921875 C 102.625 -41.46875 103.953125 -43.015625 103.953125 -44.875 C 103.953125 -45.765625 103.296875 -46.421875 102.515625 -46.640625 C 99.984375 -47.515625 94.15625 -48.1875 90.203125 -48.296875 L 86.234375 -46.640625 C 78.546875 -46.09375 22.546875 -45.4375 15.84375 -45.546875 C 12.4375 -45.546875 7.265625 -45.984375 3.625 -46.640625 L 2.859375 -45.09375 C 2.75 -44.765625 2.859375 -44.4375 3.1875 -44.109375 C 5.9375 -41.90625 10.015625 -39.703125 13.96875 -38.5 C 16.609375 -39.375 22.21875 -40.375 24.96875 -40.59375 L 35.859375 -40.921875 L 35.859375 -35.75 C 35.859375 -33.328125 35.96875 -30.03125 36.296875 -27.28125 L 31.125 -27.28125 C 28.375 -27.28125 24.203125 -27.609375 21.34375 -28.15625 L 20.6875 -27.0625 C 20.5625 -26.625 20.5625 -26.296875 21.015625 -25.953125 C 23.3125 -24.203125 26.40625 -22.4375 29.703125 -21.34375 C 32.34375 -22.109375 36.40625 -22.875 38.5 -22.984375 C 43.125 -23.203125 65.5625 -23.4375 72.703125 -23.3125 C 72.8125 -21.125 72.703125 -15.0625 72.375 -12.65625 L 70.515625 -12.09375 C 66.21875 -11.875 42.90625 -11.65625 35.09375 -11.65625 C 32.34375 -11.984375 25.078125 -12.203125 22.109375 -12.203125 C 21.453125 -12.203125 21.125 -11.984375 21.015625 -11.65625 L 20.5625 -9.5625 C 23.09375 -9.125 25.40625 -8.140625 26.84375 -6.8125 L 26.84375 2.53125 C 26.84375 7.484375 28.703125 9.453125 34.65625 9.453125 L 85.6875 9.234375 C 86.234375 9.234375 86.796875 9.015625 87.125 8.6875 C 87.671875 8.140625 88.328125 6.8125 88.328125 4.953125 C 88.328125 4.1875 87.78125 3.625 86.90625 3.515625 C 84.8125 3.078125 80.296875 2.75 77.328125 2.75 L 74.03125 4.40625 C 67.4375 4.734375 45.65625 4.84375 36.84375 4.734375 C 35.421875 4.734375 34.875 4.1875 34.875 2.75 L 34.875 -7.375 Z M 63.796875 -41.25 L 63.796875 -36.84375 C 63.796875 -34.203125 63.90625 -30.46875 64.234375 -27.609375 L 42.125 -27.390625 C 43.015625 -30.359375 43.453125 -34.3125 43.453125 -37.296875 L 43.453125 -41.03125 Z M 63.796875 -41.25 "/>
</symbol>
</g>
<g>
<symbol overflow="visible" id="id1:glyph0-0">
<path style="stroke:none;" d="M 5.375 -96.6875 L 69.828125 -96.6875 L 69.828125 0 L 5.375 0 Z M 8.0625 -2.6875 L 67.140625 -2.6875 L 67.140625 -94 L 8.0625 -94 Z M 8.0625 -2.6875 "/>
</symbol>
<symbol overflow="visible" id="id1:glyph0-1">
<path style="stroke:none;" d="M 68.15625 -13.75 L 66.28125 -18.640625 L 88.09375 -27.390625 L 6.984375 -27.390625 L 6.984375 -34 L 88.09375 -34 L 66.28125 -42.75 L 68.15625 -47.640625 L 99.09375 -34.265625 L 99.09375 -27.125 Z M 68.15625 -13.75 "/>
</symbol>
</g>
<g>
<symbol overflow="visible" id="id2:glyph0-0">
<path style="stroke:none;" d="M 11 13.203125 L 99 13.203125 L 99 -96.796875 L 11 -96.796875 Z M 55 -46.3125 L 20.015625 -91.296875 L 89.984375 -91.296875 Z M 58.515625 -41.796875 L 93.5 -86.796875 L 93.5 3.1875 Z M 20.015625 7.703125 L 55 -37.296875 L 89.984375 7.703125 Z M 16.5 -86.796875 L 51.484375 -41.796875 L 16.5 3.1875 Z M 16.5 -86.796875 "/>
</symbol>
<symbol overflow="visible" id="id2:glyph0-1">
<path style="stroke:none;" d="M 79.75 -58.515625 C 80.40625 -59.1875 81.0625 -60.5 81.0625 -61.9375 C 81.0625 -62.484375 80.734375 -62.8125 80.296875 -63.03125 L 78.09375 -64.015625 C 79.3125 -69.296875 80.296875 -75.234375 80.734375 -80.40625 L 82.0625 -84.15625 C 82.28125 -84.703125 82.28125 -85.25 81.84375 -85.46875 C 80.84375 -86.125 78.3125 -87.34375 77 -87.890625 C 76.453125 -88.109375 75.6875 -88.109375 75.234375 -87.890625 L 71.609375 -85.90625 C 63.03125 -85.46875 44.4375 -85.359375 35.640625 -85.359375 C 32.453125 -85.90625 26.40625 -86.5625 23.09375 -86.5625 C 22.328125 -86.5625 22.109375 -86.34375 22 -86.015625 L 21.453125 -83.484375 C 23.65625 -82.828125 26.0625 -81.515625 27.28125 -80.296875 L 29.046875 -59.40625 C 29.265625 -57.421875 29.59375 -55.4375 30.25 -54.234375 L 34.65625 -54.234375 C 35.421875 -55.21875 35.859375 -56.3125 35.96875 -57.96875 Z M 35.859375 -80.625 C 47.078125 -80.84375 60.9375 -80.953125 72.265625 -80.953125 L 71.609375 -63.796875 L 69.953125 -63.359375 C 62.375 -62.921875 46.421875 -62.59375 36.1875 -62.703125 Z M 35.859375 -80.625 "/>
</symbol>
<symbol overflow="visible" id="id2:glyph0-2">
<path style="stroke:none;" d=""/>
</symbol>
<symbol overflow="visible" id="id2:glyph0-3">
<path style="stroke:none;" d="M 86.234375 -46.421875 C 78.546875 -45.984375 22.546875 -45.203125 15.84375 -45.3125 C 12.4375 -45.4375 7.265625 -45.875 3.625 -46.53125 L 2.859375 -44.875 C 2.75 -44.546875 2.859375 -44.21875 3.1875 -44 C 5.9375 -41.6875 10.015625 -39.375 13.96875 -38.171875 C 16.609375 -39.046875 22.21875 -40.046875 24.96875 -40.265625 L 34.09375 -40.59375 L 34.09375 -34.203125 C 34.09375 -31.34375 34.3125 -27.171875 34.765625 -24.3125 L 39.59375 -24.3125 C 40.921875 -27.171875 41.6875 -32.015625 41.6875 -35.75 L 41.6875 -40.703125 L 65.453125 -41.03125 L 65.453125 -34.765625 C 65.453125 -31.90625 65.5625 -27.71875 66.109375 -24.859375 L 70.953125 -24.859375 C 72.15625 -27.71875 73.046875 -32.5625 73.046875 -36.296875 L 73.046875 -41.03125 L 88.875 -41.140625 C 92.1875 -41.140625 98.671875 -40.921875 101.640625 -40.59375 C 102.625 -41.140625 103.953125 -42.796875 103.953125 -44.65625 C 103.953125 -45.65625 103.296875 -46.203125 102.515625 -46.53125 C 99.984375 -47.40625 94.15625 -48.0625 90.203125 -48.1875 Z M 86.234375 -46.421875 "/>
</symbol>
<symbol overflow="visible" id="id2:glyph0-4">
<path style="stroke:none;" d="M 80.1875 -5.171875 C 80.515625 -5.609375 80.953125 -6.59375 80.953125 -7.703125 C 80.953125 -8.140625 80.84375 -8.46875 80.40625 -8.6875 L 78.3125 -9.6875 C 79.203125 -11.65625 80.078125 -15.625 80.40625 -17.8125 L 71.71875 -18.15625 L 80.40625 -17.8125 L 81.625 -20.34375 C 81.953125 -21.015625 81.84375 -21.5625 81.40625 -21.890625 C 80.515625 -22.4375 78.3125 -23.546875 77.21875 -23.984375 C 76.5625 -24.3125 75.90625 -24.3125 75.34375 -23.984375 L 72.15625 -22.4375 C 65.125 -22.21875 38.171875 -22 32.015625 -22 C 29.265625 -22 25.1875 -22.328125 22.328125 -22.984375 L 21.671875 -21.78125 C 21.5625 -21.453125 21.5625 -21.125 22 -20.6875 C 24.3125 -19.03125 27.390625 -17.375 30.6875 -16.28125 C 33.21875 -17.046875 37.296875 -17.8125 39.375 -17.9375 C 43.890625 -18.15625 65.015625 -18.265625 71.71875 -18.15625 C 71.828125 -16.171875 71.71875 -11.4375 71.5 -9.5625 L 70.40625 -9.234375 C 66.109375 -9.015625 43.234375 -8.90625 35.96875 -8.90625 C 33.109375 -9.234375 25.953125 -9.453125 22.984375 -9.453125 C 22.328125 -9.453125 21.890625 -9.234375 21.78125 -8.90625 L 21.453125 -6.8125 C 23.875 -6.375 26.1875 -5.390625 27.609375 -4.0625 L 27.609375 2.421875 C 27.609375 7.265625 29.703125 9.234375 36.40625 9.234375 L 84.8125 8.796875 C 85.359375 8.796875 85.796875 8.6875 86.125 8.359375 C 86.5625 7.8125 87.234375 6.484375 87.234375 4.734375 C 87.234375 3.953125 86.6875 3.40625 85.90625 3.296875 C 83.9375 2.75 79.3125 2.53125 76.34375 2.53125 L 73.15625 4.1875 C 66.765625 4.625 45.4375 4.84375 37.625 4.734375 C 36.296875 4.734375 35.75 4.1875 35.75 2.75 L 35.75 -4.84375 Z M 80.1875 -5.171875 "/>
</symbol>
</g>
</defs>
  <g id="id0:id0" transform="matrix(1.25,0,0,1.25,0.0,0.0)"><g id="id0:surface1">
<g style="fill:rgb(0%,0%,0%);fill-opacity:1;">
  <use xlink:href="#id0:glyph0-1" x="16" y="128.609375"/>
</g>
</g>
</g>
  <g id="id1:id1" transform="matrix(1.25,0,0,1.25,172.83203125,0.5859375)"><g id="id1:surface1">
<g style="fill:rgb(0%,0%,0%);fill-opacity:1;">
  <use xlink:href="#id1:glyph0-1" x="0" y="120.84375"/>
</g>
</g>
</g>
  <g id="id2:id2" transform="matrix(1.25,0,0,1.25,305.4296875,0.0)"><g id="id2:surface1">
<g style="fill:rgb(0%,0%,0%);fill-opacity:1;">
  <use xlink:href="#id2:glyph0-1" x="16" y="128.609375"/>
  <use xlink:href="#id2:glyph0-2" x="122.265625" y="128.609375"/>
  <use xlink:href="#id2:glyph0-3" x="122.265625" y="128.609375"/>
  <use xlink:href="#id2:glyph0-2" x="228.53125" y="128.609375"/>
  <use xlink:href="#id2:glyph0-4" x="228.53125" y="128.609375"/>
</g>
</g>
</g>
</svg>
