<!DOCTYPE svg PUBLIC "-//W3C//DTD SVG 1.1//EN" "http://www.w3.org/Graphics/SVG/1.1/DTD/svg11.dtd">
<!-- Created with svg_stack (http://github.com/astraw/svg_stack) --><svg xmlns="http://www.w3.org/2000/svg" xmlns:sodipodi="http://sodipodi.sourceforge.net/DTD/sodipodi-0.dtd" xmlns:xlink="http://www.w3.org/1999/xlink" version="1.1" width="100%" id="hangul-ljmo" viewBox="0 0 1009.58984375 202.578125">
  <defs><g>
<symbol overflow="visible" id="hangul-ljmo:id0:glyph0-0">
<path style="stroke:none;" d="M 11 13.203125 L 99 13.203125 L 99 -96.796875 L 11 -96.796875 Z M 55 -46.3125 L 20.015625 -91.296875 L 89.984375 -91.296875 Z M 58.515625 -41.796875 L 93.5 -86.796875 L 93.5 3.1875 Z M 20.015625 7.703125 L 55 -37.296875 L 89.984375 7.703125 Z M 16.5 -86.796875 L 51.484375 -41.796875 L 16.5 3.1875 Z M 16.5 -86.796875 "/>
</symbol>
<symbol overflow="visible" id="hangul-ljmo:id0:glyph0-1">
<path style="stroke:none;" d="M 29.921875 -69.078125 C 26.625 -68.96875 23.203125 -69.078125 20.015625 -69.515625 L 19.359375 -68.203125 C 19.140625 -67.875 19.25 -67.546875 19.6875 -67.203125 C 22.109375 -65.453125 25.296875 -63.6875 28.59375 -62.59375 C 30.359375 -63.140625 33.765625 -63.90625 36.078125 -64.125 C 46.421875 -64.453125 62.484375 -66 73.265625 -67.546875 C 72.59375 -62.046875 71.71875 -56.546875 70.734375 -52.03125 C 70.625 -51.15625 70.734375 -50.8125 71.28125 -50.703125 L 73.921875 -50.15625 C 74.46875 -50.15625 75.015625 -50.375 75.34375 -50.9375 C 79.09375 -59.40625 82.390625 -71.9375 83.375 -80.734375 L 84.921875 -84.265625 C 85.140625 -84.8125 85.140625 -85.25 84.703125 -85.6875 C 83.703125 -86.234375 81.296875 -87.671875 79.859375 -88.328125 C 79.421875 -88.546875 78.65625 -88.546875 78.203125 -88.328125 L 74.46875 -86.453125 C 67.546875 -86.015625 38.828125 -85.46875 33.765625 -85.578125 C 30.796875 -85.578125 26.40625 -86.015625 23.203125 -86.6875 L 22.546875 -85.25 C 22.4375 -84.921875 22.546875 -84.484375 22.984375 -84.15625 C 25.40625 -82.171875 28.8125 -80.1875 32.125 -79.09375 C 34.65625 -79.859375 39.15625 -80.734375 41.578125 -80.84375 C 45.984375 -81.1875 66.4375 -81.515625 74.25 -81.515625 C 74.25 -78.65625 74.03125 -75.234375 73.703125 -71.71875 C 61.375 -70.296875 40.921875 -69.1875 29.921875 -69.078125 Z M 29.921875 -69.078125 "/>
</symbol>
<symbol overflow="visible" id="hangul-ljmo:id0:glyph0-2">
<path style="stroke:none;" d=""/>
</symbol>
<symbol overflow="visible" id="hangul-ljmo:id0:glyph0-3">
<path style="stroke:none;" d="M 58.078125 -46.640625 L 58.625 -51.046875 C 58.734375 -51.921875 58.40625 -52.578125 57.53125 -52.796875 C 55 -53.5625 49.609375 -54.234375 46.3125 -54.34375 C 45.4375 -54.34375 45.203125 -54.015625 45.09375 -53.796875 L 44.328125 -51.375 C 46.75 -50.59375 49.171875 -49.171875 50.375 -47.734375 L 50.375 -41.6875 C 34.65625 -41.46875 19.140625 -41.359375 15.84375 -41.359375 C 12.4375 -41.46875 7.265625 -41.90625 3.625 -42.5625 L 2.859375 -41.03125 C 2.75 -40.59375 2.859375 -40.265625 3.1875 -40.046875 C 5.9375 -37.84375 10.015625 -35.53125 13.96875 -34.3125 C 16.609375 -35.203125 22.21875 -36.296875 24.96875 -36.515625 C 30.796875 -36.84375 81.1875 -37.515625 88.875 -37.40625 C 92.1875 -37.40625 98.671875 -37.1875 101.640625 -36.84375 C 102.625 -37.296875 103.953125 -38.9375 103.953125 -40.8125 C 103.953125 -41.6875 103.296875 -42.34375 102.515625 -42.5625 C 99.984375 -43.453125 94.15625 -44.109375 90.203125 -44.21875 L 86.234375 -42.453125 C 82.9375 -42.234375 71.0625 -42.015625 57.859375 -41.796875 Z M 58.078125 -46.640625 "/>
</symbol>
<symbol overflow="visible" id="hangul-ljmo:id0:glyph0-4">
<path style="stroke:none;" d="M 82.828125 -3.953125 L 74.25 -12.875 C 75.125 -14.515625 75.90625 -16.28125 76.453125 -18.046875 C 76.5625 -18.703125 76.671875 -19.46875 76.671875 -20.34375 C 76.671875 -21.234375 76.234375 -21.890625 75.453125 -22.546875 C 73.375 -23.875 67.875 -26.1875 64.234375 -26.953125 C 63.46875 -27.0625 63.140625 -26.953125 62.8125 -26.515625 L 61.59375 -24.203125 C 64.234375 -22.765625 66.875 -20.34375 67.765625 -18.484375 C 65.125 -9.125 57.859375 1.203125 48.1875 9.6875 C 47.625 10.015625 47.625 10.453125 47.953125 10.671875 L 49.171875 11.65625 C 49.5 11.984375 49.828125 11.984375 50.375 11.546875 C 59.625 5.828125 66.875 -1.09375 71.71875 -8.46875 L 85.46875 7.484375 C 86.015625 8.25 86.90625 9.015625 87.5625 9.125 C 88.65625 9.5625 90.421875 8.90625 91.078125 7.703125 C 91.296875 7.15625 91.296875 6.375 90.859375 5.171875 C 90.203125 3.40625 88.546875 0.328125 87.234375 -1.765625 Z M 49.28125 -7.703125 L 43.015625 -13.640625 C 43.890625 -14.953125 44.65625 -16.390625 45.3125 -17.703125 C 45.65625 -18.265625 45.765625 -19.03125 45.765625 -20.015625 C 45.765625 -20.90625 45.3125 -21.5625 44.4375 -22 C 42.34375 -23.3125 37.1875 -24.96875 33.328125 -25.625 C 32.671875 -25.734375 32.34375 -25.515625 32.125 -25.1875 L 30.796875 -22.765625 C 33.328125 -21.5625 35.75 -19.578125 36.84375 -18.046875 C 32.890625 -9.234375 24.09375 0.109375 12.765625 7.375 C 12.3125 7.703125 12.3125 8.140625 12.65625 8.46875 L 13.75 9.453125 C 14.1875 9.6875 14.40625 9.6875 14.953125 9.34375 C 25.625 4.40625 34.3125 -2.3125 40.15625 -9.6875 L 50.15625 1.4375 C 50.703125 2.09375 51.59375 2.75 52.140625 2.859375 C 53.234375 2.96875 54.78125 2.421875 55.328125 1.3125 C 55.546875 0.765625 55.4375 0.109375 55.21875 -0.765625 C 54.78125 -2.3125 53.6875 -4.734375 52.6875 -6.375 Z M 49.28125 -7.703125 "/>
</symbol>
</g>
<g>
<symbol overflow="visible" id="hangul-ljmo:id1:glyph0-0">
<path style="stroke:none;" d="M 5.375 -96.6875 L 69.828125 -96.6875 L 69.828125 0 L 5.375 0 Z M 8.0625 -2.6875 L 67.140625 -2.6875 L 67.140625 -94 L 8.0625 -94 Z M 8.0625 -2.6875 "/>
</symbol>
<symbol overflow="visible" id="hangul-ljmo:id1:glyph0-1">
<path style="stroke:none;" d="M 68.15625 -13.75 L 66.28125 -18.640625 L 88.09375 -27.390625 L 6.984375 -27.390625 L 6.984375 -34 L 88.09375 -34 L 66.28125 -42.75 L 68.15625 -47.640625 L 99.09375 -34.265625 L 99.09375 -27.125 Z M 68.15625 -13.75 "/>
</symbol>
</g>
<g>
<symbol overflow="visible" id="hangul-ljmo:id2:glyph0-0">
<path style="stroke:none;" d="M 11 13.203125 L 99 13.203125 L 99 -96.796875 L 11 -96.796875 Z M 55 -46.3125 L 20.015625 -91.296875 L 89.984375 -91.296875 Z M 58.515625 -41.796875 L 93.5 -86.796875 L 93.5 3.1875 Z M 20.015625 7.703125 L 55 -37.296875 L 89.984375 7.703125 Z M 16.5 -86.796875 L 51.484375 -41.796875 L 16.5 3.1875 Z M 16.5 -86.796875 "/>
</symbol>
<symbol overflow="visible" id="hangul-ljmo:id2:glyph0-1">
<path style="stroke:none;" d="M 26.953125 -63.25 C 23.65625 -63.140625 19.796875 -63.359375 16.390625 -63.796875 L 15.625 -62.375 C 15.40625 -61.9375 15.515625 -61.59375 15.953125 -61.265625 C 18.59375 -59.296875 22.109375 -57.3125 25.515625 -55.984375 C 27.5 -56.765625 31.125 -57.421875 33.328125 -57.640625 C 45.09375 -58.1875 63.6875 -60.0625 75.125 -61.8125 C 74.578125 -55.21875 73.8125 -48.515625 72.8125 -43.125 C 72.703125 -42.125 72.9375 -41.90625 73.484375 -41.796875 L 75.796875 -41.25 C 76.234375 -41.25 76.78125 -41.46875 77.109375 -42.015625 C 81.1875 -52.25 84.59375 -67.09375 85.03125 -77.4375 L 86.6875 -80.953125 C 86.90625 -81.515625 86.90625 -81.953125 86.453125 -82.390625 C 85.578125 -83.046875 83.046875 -84.59375 81.734375 -85.25 C 81.1875 -85.46875 80.515625 -85.46875 79.859375 -85.25 L 75.5625 -83.15625 C 67.546875 -82.828125 36.40625 -82.390625 31.015625 -82.390625 C 27.9375 -82.390625 23.65625 -82.71875 20.453125 -83.375 L 19.796875 -82.0625 C 19.6875 -81.625 19.6875 -81.40625 20.125 -80.953125 C 22.546875 -78.984375 26.0625 -76.78125 29.484375 -75.5625 C 32.015625 -76.453125 36.953125 -77.328125 39.703125 -77.4375 C 44.65625 -77.765625 67.546875 -78.203125 75.90625 -78.203125 C 75.90625 -74.796875 75.796875 -70.625 75.453125 -66.21875 C 62.703125 -64.796875 39.375 -63.359375 26.953125 -63.25 Z M 26.953125 -63.25 "/>
</symbol>
<symbol overflow="visible" id="hangul-ljmo:id2:glyph0-2">
<path style="stroke:none;" d=""/>
</symbol>
<symbol overflow="visible" id="hangul-ljmo:id2:glyph0-3">
<path style="stroke:none;" d="M 58.078125 -46.640625 L 58.625 -51.046875 C 58.734375 -51.921875 58.40625 -52.578125 57.53125 -52.796875 C 55 -53.5625 49.609375 -54.234375 46.3125 -54.34375 C 45.4375 -54.34375 45.203125 -54.015625 45.09375 -53.796875 L 44.328125 -51.375 C 46.75 -50.59375 49.171875 -49.171875 50.375 -47.734375 L 50.375 -41.6875 C 34.65625 -41.46875 19.140625 -41.359375 15.84375 -41.359375 C 12.4375 -41.46875 7.265625 -41.90625 3.625 -42.5625 L 2.859375 -41.03125 C 2.75 -40.59375 2.859375 -40.265625 3.1875 -40.046875 C 5.9375 -37.84375 10.015625 -35.53125 13.96875 -34.3125 C 16.609375 -35.203125 22.21875 -36.296875 24.96875 -36.515625 C 30.796875 -36.84375 81.1875 -37.515625 88.875 -37.40625 C 92.1875 -37.40625 98.671875 -37.1875 101.640625 -36.84375 C 102.625 -37.296875 103.953125 -38.9375 103.953125 -40.8125 C 103.953125 -41.6875 103.296875 -42.34375 102.515625 -42.5625 C 99.984375 -43.453125 94.15625 -44.109375 90.203125 -44.21875 L 86.234375 -42.453125 C 82.9375 -42.234375 71.0625 -42.015625 57.859375 -41.796875 Z M 58.078125 -46.640625 "/>
</symbol>
<symbol overflow="visible" id="hangul-ljmo:id2:glyph0-4">
<path style="stroke:none;" d="M 82.828125 -3.953125 L 74.25 -12.875 C 75.125 -14.515625 75.90625 -16.28125 76.453125 -18.046875 C 76.5625 -18.703125 76.671875 -19.46875 76.671875 -20.34375 C 76.671875 -21.234375 76.234375 -21.890625 75.453125 -22.546875 C 73.375 -23.875 67.875 -26.1875 64.234375 -26.953125 C 63.46875 -27.0625 63.140625 -26.953125 62.8125 -26.515625 L 61.59375 -24.203125 C 64.234375 -22.765625 66.875 -20.34375 67.765625 -18.484375 C 65.125 -9.125 57.859375 1.203125 48.1875 9.6875 C 47.625 10.015625 47.625 10.453125 47.953125 10.671875 L 49.171875 11.65625 C 49.5 11.984375 49.828125 11.984375 50.375 11.546875 C 59.625 5.828125 66.875 -1.09375 71.71875 -8.46875 L 85.46875 7.484375 C 86.015625 8.25 86.90625 9.015625 87.5625 9.125 C 88.65625 9.5625 90.421875 8.90625 91.078125 7.703125 C 91.296875 7.15625 91.296875 6.375 90.859375 5.171875 C 90.203125 3.40625 88.546875 0.328125 87.234375 -1.765625 Z M 49.28125 -7.703125 L 43.015625 -13.640625 C 43.890625 -14.953125 44.65625 -16.390625 45.3125 -17.703125 C 45.65625 -18.265625 45.765625 -19.03125 45.765625 -20.015625 C 45.765625 -20.90625 45.3125 -21.5625 44.4375 -22 C 42.34375 -23.3125 37.1875 -24.96875 33.328125 -25.625 C 32.671875 -25.734375 32.34375 -25.515625 32.125 -25.1875 L 30.796875 -22.765625 C 33.328125 -21.5625 35.75 -19.578125 36.84375 -18.046875 C 32.890625 -9.234375 24.09375 0.109375 12.765625 7.375 C 12.3125 7.703125 12.3125 8.140625 12.65625 8.46875 L 13.75 9.453125 C 14.1875 9.6875 14.40625 9.6875 14.953125 9.34375 C 25.625 4.40625 34.3125 -2.3125 40.15625 -9.6875 L 50.15625 1.4375 C 50.703125 2.09375 51.59375 2.75 52.140625 2.859375 C 53.234375 2.96875 54.78125 2.421875 55.328125 1.3125 C 55.546875 0.765625 55.4375 0.109375 55.21875 -0.765625 C 54.78125 -2.3125 53.6875 -4.734375 52.6875 -6.375 Z M 49.28125 -7.703125 "/>
</symbol>
</g>
</defs>
  <g id="hangul-ljmo:id0:id0" transform="matrix(1.25,0,0,1.25,0.0,0.0)"><g id="hangul-ljmo:id0:surface1">
<g style="fill:rgb(0%,0%,0%);fill-opacity:1;">
  <use xlink:href="#hangul-ljmo:id0:glyph0-1" x="16" y="128.609375" class="c0"/>
  <use xlink:href="#hangul-ljmo:id0:glyph0-2" x="122.265625" y="128.609375" class="z"/>
  <use xlink:href="#hangul-ljmo:id0:glyph0-3" x="122.265625" y="128.609375" class="c1"/>
  <use xlink:href="#hangul-ljmo:id0:glyph0-2" x="228.53125" y="128.609375" class="z"/>
  <use xlink:href="#hangul-ljmo:id0:glyph0-4" x="228.53125" y="128.609375" class="c2"/>
</g>
</g>
</g>
  <g id="hangul-ljmo:id1:id1" transform="matrix(1.25,0,0,1.25,438.49609375,0.5859375)"><g id="hangul-ljmo:id1:surface1">
<g style="fill:rgb(0%,0%,0%);fill-opacity:1;">
  <use xlink:href="#hangul-ljmo:id1:glyph0-1" x="0" y="120.84375" class="arrow"/>
</g>
</g>
</g>
  <g id="hangul-ljmo:id2:id2" transform="matrix(1.25,0,0,1.25,571.09375,0.0)"><g id="hangul-ljmo:id2:surface1">
<g style="fill:rgb(0%,0%,0%);fill-opacity:1;">
  <use xlink:href="#hangul-ljmo:id2:glyph0-1" x="16" y="128.609375" class="c0"/>
  <use xlink:href="#hangul-ljmo:id2:glyph0-2" x="122.265625" y="128.609375" class="z"/>
  <use xlink:href="#hangul-ljmo:id2:glyph0-3" x="122.265625" y="128.609375" class="c1"/>
  <use xlink:href="#hangul-ljmo:id2:glyph0-2" x="228.53125" y="128.609375" class="z"/>
  <use xlink:href="#hangul-ljmo:id2:glyph0-4" x="228.53125" y="128.609375" class="c2"/>
</g>
</g>
</g>
</svg>