<!DOCTYPE svg PUBLIC "-//W3C//DTD SVG 1.1//EN" "http://www.w3.org/Graphics/SVG/1.1/DTD/svg11.dtd">
<!-- Created with svg_stack (http://github.com/astraw/svg_stack) --><svg xmlns="http://www.w3.org/2000/svg" xmlns:sodipodi="http://sodipodi.sourceforge.net/DTD/sodipodi-0.dtd" xmlns:xlink="http://www.w3.org/1999/xlink" version="1.1" width="611.09375" height="202.578125" id="hangul-tjmo">
  <defs><g>
<symbol overflow="visible" id="hangul-tjmo:id0:glyph0-0">
<path style="stroke:none;" d="M 11 13.203125 L 99 13.203125 L 99 -96.796875 L 11 -96.796875 Z M 55 -46.3125 L 20.015625 -91.296875 L 89.984375 -91.296875 Z M 58.515625 -41.796875 L 93.5 -86.796875 L 93.5 3.1875 Z M 20.015625 7.703125 L 55 -37.296875 L 89.984375 7.703125 Z M 16.5 -86.796875 L 51.484375 -41.796875 L 16.5 3.1875 Z M 16.5 -86.796875 "/>
</symbol>
<symbol overflow="visible" id="hangul-tjmo:id0:glyph0-1">
<path style="stroke:none;" d="M 26.296875 -53.015625 C 22.765625 -53.015625 18.703125 -53.234375 15.296875 -53.796875 L 14.625 -52.25 C 14.40625 -51.921875 14.515625 -51.59375 14.953125 -51.15625 C 17.59375 -49.171875 21.234375 -47.078125 24.859375 -45.765625 C 26.734375 -46.421875 30.46875 -47.1875 32.671875 -47.296875 C 45.4375 -47.953125 66.4375 -49.9375 77.984375 -51.921875 C 77.328125 -43.453125 76.453125 -34.765625 75.234375 -27.71875 C 75.125 -26.84375 75.34375 -26.515625 75.90625 -26.40625 L 78.09375 -25.953125 C 78.65625 -25.953125 79.203125 -26.1875 79.421875 -26.84375 C 84.046875 -40.59375 87.78125 -60.71875 88 -73.921875 L 89.65625 -77.546875 C 89.875 -78.09375 89.875 -78.546875 89.4375 -78.984375 C 88.328125 -79.75 85.90625 -81.296875 84.59375 -81.953125 C 84.046875 -82.28125 83.375 -82.28125 82.71875 -81.953125 L 78.65625 -80.078125 C 70.296875 -79.640625 35.640625 -79.09375 29.8125 -79.09375 C 26.84375 -79.09375 22.546875 -79.421875 19.25 -80.078125 L 18.59375 -78.765625 C 18.375 -78.3125 18.375 -77.984375 18.921875 -77.546875 C 21.34375 -75.5625 24.96875 -73.484375 28.265625 -72.15625 C 30.90625 -73.046875 35.859375 -73.921875 38.71875 -74.03125 C 44.109375 -74.46875 69.515625 -74.90625 78.875 -74.796875 C 78.875 -69.625 78.65625 -63.25 78.203125 -56.546875 C 65.5625 -54.890625 39.59375 -53.125 26.296875 -53.015625 Z M 53.453125 -29.265625 L 54.015625 -33.875 C 54.125 -34.765625 53.796875 -35.3125 52.90625 -35.640625 C 50.046875 -36.515625 44 -37.296875 40.484375 -37.296875 C 39.703125 -37.296875 39.484375 -37.0625 39.375 -36.84375 L 38.71875 -34.3125 C 41.46875 -33.4375 44.109375 -32.015625 45.65625 -30.578125 L 45.765625 -11.328125 L 15.84375 -11.109375 C 12.4375 -11.109375 7.265625 -11.546875 3.625 -12.3125 L 2.859375 -10.671875 C 2.75 -10.34375 2.859375 -10.015625 3.1875 -9.796875 C 5.9375 -7.484375 10.015625 -5.171875 13.96875 -3.953125 C 16.609375 -4.84375 22.21875 -5.828125 24.96875 -6.046875 C 30.796875 -6.484375 81.1875 -7.046875 88.875 -6.9375 C 92.1875 -6.9375 98.671875 -6.703125 101.640625 -6.375 C 102.625 -6.9375 103.953125 -8.578125 103.953125 -10.453125 C 103.953125 -11.4375 103.296875 -11.984375 102.515625 -12.3125 C 99.984375 -13.09375 94.15625 -13.859375 90.203125 -13.96875 L 86.234375 -12.203125 C 82.609375 -11.984375 68.203125 -11.765625 53.234375 -11.4375 Z M 53.453125 -29.265625 "/>
</symbol>
<symbol overflow="visible" id="hangul-tjmo:id0:glyph0-2">
<path style="stroke:none;" d=""/>
</symbol>
<symbol overflow="visible" id="hangul-tjmo:id0:glyph0-3">
<path style="stroke:none;" d="M 82.828125 -3.953125 L 74.25 -12.875 C 75.125 -14.515625 75.90625 -16.28125 76.453125 -18.046875 C 76.5625 -18.703125 76.671875 -19.46875 76.671875 -20.34375 C 76.671875 -21.234375 76.234375 -21.890625 75.453125 -22.546875 C 73.375 -23.875 67.875 -26.1875 64.234375 -26.953125 C 63.46875 -27.0625 63.140625 -26.953125 62.8125 -26.515625 L 61.59375 -24.203125 C 64.234375 -22.765625 66.875 -20.34375 67.765625 -18.484375 C 65.125 -9.125 57.859375 1.203125 48.1875 9.6875 C 47.625 10.015625 47.625 10.453125 47.953125 10.671875 L 49.171875 11.65625 C 49.5 11.984375 49.828125 11.984375 50.375 11.546875 C 59.625 5.828125 66.875 -1.09375 71.71875 -8.46875 L 85.46875 7.484375 C 86.015625 8.25 86.90625 9.015625 87.5625 9.125 C 88.65625 9.5625 90.421875 8.90625 91.078125 7.703125 C 91.296875 7.15625 91.296875 6.375 90.859375 5.171875 C 90.203125 3.40625 88.546875 0.328125 87.234375 -1.765625 Z M 49.28125 -7.703125 L 43.015625 -13.640625 C 43.890625 -14.953125 44.65625 -16.390625 45.3125 -17.703125 C 45.65625 -18.265625 45.765625 -19.03125 45.765625 -20.015625 C 45.765625 -20.90625 45.3125 -21.5625 44.4375 -22 C 42.34375 -23.3125 37.1875 -24.96875 33.328125 -25.625 C 32.671875 -25.734375 32.34375 -25.515625 32.125 -25.1875 L 30.796875 -22.765625 C 33.328125 -21.5625 35.75 -19.578125 36.84375 -18.046875 C 32.890625 -9.234375 24.09375 0.109375 12.765625 7.375 C 12.3125 7.703125 12.3125 8.140625 12.65625 8.46875 L 13.75 9.453125 C 14.1875 9.6875 14.40625 9.6875 14.953125 9.34375 C 25.625 4.40625 34.3125 -2.3125 40.15625 -9.6875 L 50.15625 1.4375 C 50.703125 2.09375 51.59375 2.75 52.140625 2.859375 C 53.234375 2.96875 54.78125 2.421875 55.328125 1.3125 C 55.546875 0.765625 55.4375 0.109375 55.21875 -0.765625 C 54.78125 -2.3125 53.6875 -4.734375 52.6875 -6.375 Z M 49.28125 -7.703125 "/>
</symbol>
</g>
<g>
<symbol overflow="visible" id="hangul-tjmo:id1:glyph0-0">
<path style="stroke:none;" d="M 5.375 -96.6875 L 69.828125 -96.6875 L 69.828125 0 L 5.375 0 Z M 8.0625 -2.6875 L 67.140625 -2.6875 L 67.140625 -94 L 8.0625 -94 Z M 8.0625 -2.6875 "/>
</symbol>
<symbol overflow="visible" id="hangul-tjmo:id1:glyph0-1">
<path style="stroke:none;" d="M 68.15625 -13.75 L 66.28125 -18.640625 L 88.09375 -27.390625 L 6.984375 -27.390625 L 6.984375 -34 L 88.09375 -34 L 66.28125 -42.75 L 68.15625 -47.640625 L 99.09375 -34.265625 L 99.09375 -27.125 Z M 68.15625 -13.75 "/>
</symbol>
</g>
<g>
<symbol overflow="visible" id="hangul-tjmo:id2:glyph0-0">
<path style="stroke:none;" d="M 11 13.203125 L 99 13.203125 L 99 -96.796875 L 11 -96.796875 Z M 55 -46.3125 L 20.015625 -91.296875 L 89.984375 -91.296875 Z M 58.515625 -41.796875 L 93.5 -86.796875 L 93.5 3.1875 Z M 20.015625 7.703125 L 55 -37.296875 L 89.984375 7.703125 Z M 16.5 -86.796875 L 51.484375 -41.796875 L 16.5 3.1875 Z M 16.5 -86.796875 "/>
</symbol>
<symbol overflow="visible" id="hangul-tjmo:id2:glyph0-1">
<path style="stroke:none;" d="M 55.875 -50.375 L 56.4375 -54.890625 C 56.546875 -55.875 56.203125 -56.4375 55.21875 -56.765625 C 52.578125 -57.53125 46.75 -58.1875 43.34375 -58.1875 C 42.453125 -58.1875 42.234375 -57.96875 42.125 -57.75 L 41.46875 -55.21875 C 44.109375 -54.453125 46.640625 -53.015625 47.953125 -51.59375 L 47.84375 -41.46875 L 15.84375 -41.25 C 12.4375 -41.25 7.265625 -41.6875 3.625 -42.34375 L 2.859375 -40.8125 C 2.75 -40.484375 2.859375 -40.15625 3.1875 -39.8125 C 5.9375 -37.625 10.015625 -35.3125 13.96875 -34.09375 C 16.609375 -34.984375 22.21875 -35.96875 24.96875 -36.1875 C 30.796875 -36.515625 81.1875 -37.1875 88.875 -37.0625 C 92.1875 -37.0625 98.671875 -36.84375 101.640625 -36.515625 C 102.625 -37.0625 103.953125 -38.71875 103.953125 -40.59375 C 103.953125 -41.46875 103.296875 -42.125 102.515625 -42.34375 C 99.984375 -43.234375 94.15625 -43.890625 90.203125 -44 L 86.234375 -42.34375 C 82.828125 -42.125 69.625 -41.796875 55.546875 -41.578125 Z M 26.1875 -68.53125 C 22.984375 -68.421875 19.359375 -68.53125 16.171875 -68.96875 L 15.40625 -67.65625 C 15.296875 -67.203125 15.296875 -66.984375 15.734375 -66.65625 C 18.15625 -64.796875 21.453125 -63.03125 24.75 -61.703125 C 26.625 -62.375 30.140625 -63.25 32.453125 -63.359375 C 44.984375 -63.90625 65.453125 -65.78125 76.890625 -67.65625 C 76.453125 -62.265625 75.796875 -56.765625 74.90625 -52.359375 C 74.796875 -51.484375 75.125 -51.265625 75.5625 -51.046875 L 77.765625 -50.59375 C 78.3125 -50.59375 78.875 -50.8125 79.203125 -51.375 C 82.71875 -59.953125 85.796875 -72.59375 86.453125 -81.515625 L 88 -85.03125 C 88.21875 -85.578125 88.21875 -86.015625 87.78125 -86.453125 C 86.90625 -87.125 84.265625 -88.546875 83.046875 -89.09375 C 82.5 -89.3125 81.734375 -89.3125 81.1875 -89.09375 L 77.4375 -87.34375 C 69.84375 -86.90625 36.953125 -86.453125 31.234375 -86.5625 C 28.15625 -86.5625 23.875 -87.015625 20.5625 -87.671875 L 19.796875 -86.234375 C 19.6875 -85.796875 19.796875 -85.46875 20.234375 -85.03125 C 22.765625 -83.046875 26.296875 -80.953125 29.59375 -79.75 C 32.015625 -80.625 36.625 -81.515625 39.15625 -81.625 C 44.21875 -81.84375 68.3125 -82.171875 77.328125 -82.0625 C 77.4375 -79.09375 77.328125 -75.5625 77.109375 -71.9375 C 64.5625 -70.296875 39.265625 -68.640625 26.1875 -68.53125 Z M 82.9375 -2.859375 L 73.59375 -12.984375 C 75.125 -15.734375 76.34375 -18.59375 77.109375 -21.34375 C 77.328125 -21.890625 77.4375 -22.765625 77.4375 -23.65625 C 77.4375 -24.53125 77.109375 -25.1875 76.234375 -25.734375 C 74.140625 -27.171875 68.640625 -29.375 65.015625 -30.140625 C 64.34375 -30.25 63.90625 -30.140625 63.6875 -29.8125 L 62.484375 -27.5 C 65.015625 -25.953125 67.65625 -23.546875 68.640625 -21.671875 C 66 -11.4375 58.625 0.109375 48.515625 9.5625 C 47.953125 10.015625 47.953125 10.34375 48.40625 10.671875 L 49.390625 11.65625 C 49.828125 11.984375 50.15625 11.984375 50.8125 11.546875 C 59.40625 5.609375 66.21875 -1.3125 70.953125 -8.46875 L 85.46875 8.796875 C 86.015625 9.6875 86.90625 10.453125 87.5625 10.671875 C 88.65625 11 90.53125 10.34375 91.1875 9.234375 C 91.40625 8.578125 91.40625 7.8125 90.96875 6.59375 C 90.3125 4.734375 88.765625 1.4375 87.34375 -0.65625 Z M 49.171875 -7.921875 L 41.6875 -15.1875 C 42.796875 -17.046875 43.78125 -18.921875 44.65625 -20.90625 C 44.875 -21.5625 45.09375 -22.328125 45.09375 -23.203125 C 45.09375 -24.09375 44.765625 -24.75 43.890625 -25.296875 C 41.6875 -26.515625 36.515625 -28.265625 32.78125 -28.8125 C 32.015625 -28.9375 31.6875 -28.8125 31.453125 -28.375 L 30.140625 -26.0625 C 32.671875 -24.75 35.09375 -22.875 36.1875 -21.234375 C 32.34375 -11.546875 23.4375 -0.875 11.875 7.59375 C 11.328125 7.921875 11.21875 8.25 11.65625 8.578125 L 12.765625 9.5625 C 13.09375 9.90625 13.421875 9.90625 13.96875 9.5625 C 24.640625 3.953125 33.109375 -3.296875 38.9375 -11.109375 L 49.9375 1.203125 C 50.59375 1.875 51.375 2.53125 52.03125 2.640625 C 53.015625 2.859375 54.453125 2.203125 55 1.09375 C 55.21875 0.65625 55.109375 0 54.890625 -0.984375 C 54.453125 -2.421875 53.34375 -4.84375 52.46875 -6.59375 Z M 49.171875 -7.921875 "/>
</symbol>
</g>
</defs>
  <g id="hangul-tjmo:id0:id0" transform="matrix(1.25,0,0,1.25,0.0,0.0)"><g id="hangul-tjmo:id0:surface1">
<g style="fill:rgb(0%,0%,0%);fill-opacity:1;">
  <use xlink:href="#hangul-tjmo:id0:glyph0-1" x="16" y="128.609375" class="c0"/>
  <use xlink:href="#hangul-tjmo:id0:glyph0-2" x="122.265625" y="128.609375" class="z"/>
  <use xlink:href="#hangul-tjmo:id0:glyph0-3" x="122.265625" y="128.609375" class="c1"/>
</g>
</g>
</g>
  <g id="hangul-tjmo:id1:id1" transform="matrix(1.25,0,0,1.25,305.6640625,0.5859375)"><g id="hangul-tjmo:id1:surface1">
<g style="fill:rgb(0%,0%,0%);fill-opacity:1;">
  <use xlink:href="#hangul-tjmo:id1:glyph0-1" x="0" y="120.84375" class="arrow"/>
</g>
</g>
</g>
  <g id="hangul-tjmo:id2:id2" transform="matrix(1.25,0,0,1.25,438.26171875,0.0)"><g id="hangul-tjmo:id2:surface1">
<g style="fill:rgb(0%,0%,0%);fill-opacity:1;">
  <use xlink:href="#hangul-tjmo:id2:glyph0-1" x="16" y="128.609375" class="c2"/>
</g>
</g>
</g>
</svg>
