<svg xmlns="http://www.w3.org/2000/svg" xmlns:xlink="http://www.w3.org/1999/xlink" width="138.265625pt" height="162.0625pt" viewBox="0 0 138.265625 162.0625" version="1.1" id="hangul-lv-syllable">
<defs>
<g>
<symbol overflow="visible" id="hangul-lv-syllable:glyph0-0">
<path style="stroke:none;" d="M 11 13.203125 L 99 13.203125 L 99 -96.796875 L 11 -96.796875 Z M 55 -46.3125 L 20.015625 -91.296875 L 89.984375 -91.296875 Z M 58.515625 -41.796875 L 93.5 -86.796875 L 93.5 3.1875 Z M 20.015625 7.703125 L 55 -37.296875 L 89.984375 7.703125 Z M 16.5 -86.796875 L 51.484375 -41.796875 L 16.5 3.1875 Z M 16.5 -86.796875 "/>
</symbol>
<symbol overflow="visible" id="hangul-lv-syllable:glyph0-1">
<path style="stroke:none;" d="M 90.75 11.875 C 92.40625 5.9375 93.390625 -3.953125 93.390625 -10.015625 L 93.390625 -83.59375 L 93.609375 -88.984375 C 93.71875 -89.984375 93.390625 -90.75 92.296875 -91.078125 C 89.546875 -92.40625 82.9375 -93.71875 79.203125 -93.828125 C 78.4375 -93.828125 78.09375 -93.609375 77.875 -93.171875 L 77.109375 -90.640625 C 80.625 -89.4375 83.9375 -87.5625 85.6875 -85.359375 L 85.6875 -7.375 C 85.6875 -2.640625 85.90625 7.59375 86.34375 11.875 Z M 18.921875 -79.75 C 18.703125 -79.3125 18.703125 -79.09375 19.03125 -78.65625 C 20.5625 -76.453125 22.765625 -74.25 24.75 -73.046875 C 25.296875 -72.703125 25.734375 -72.703125 26.625 -72.703125 C 31.234375 -73.046875 38.71875 -73.046875 43.671875 -73.046875 C 44.328125 -73.046875 44.765625 -73.15625 45.203125 -73.703125 C 45.765625 -74.46875 45.984375 -76.78125 45.546875 -77.875 C 45.203125 -78.65625 44.765625 -78.765625 43.78125 -78.765625 C 36.953125 -78.875 28.703125 -79.203125 19.6875 -80.625 Z M 56.765625 -44.21875 C 54.234375 -44.21875 51.375 -44.328125 49.0625 -44.546875 L 48.40625 -43.453125 C 48.296875 -43.015625 48.40625 -42.6875 48.734375 -42.34375 C 50.484375 -40.703125 52.796875 -39.15625 55.328125 -37.953125 C 57.203125 -38.71875 59.953125 -39.375 61.703125 -39.484375 L 67.203125 -39.9375 L 67.203125 -14.515625 C 67.203125 -9.90625 67.3125 -0.21875 67.875 4.1875 L 72.046875 4.1875 C 73.59375 -1.546875 74.578125 -11.109375 74.578125 -17.15625 L 74.578125 -76.671875 L 74.90625 -81.515625 C 74.90625 -82.5 74.578125 -83.15625 73.703125 -83.484375 C 71.0625 -84.703125 65.015625 -86.015625 61.484375 -86.125 C 60.71875 -86.125 60.390625 -85.90625 60.28125 -85.46875 L 59.40625 -82.9375 C 62.59375 -81.84375 65.671875 -80.078125 67.203125 -78.203125 L 67.203125 -44.65625 C 63.796875 -44.328125 59.296875 -44.21875 56.765625 -44.21875 Z M 6.375 -12.3125 C 6.703125 -12.09375 7.046875 -12.203125 7.484375 -12.546875 C 18.59375 -18.703125 28.9375 -27.171875 36.953125 -36.296875 L 51.8125 -17.59375 C 52.359375 -16.828125 53.234375 -15.953125 53.90625 -15.625 C 55 -15.1875 56.984375 -15.625 57.640625 -16.828125 C 57.859375 -17.375 57.859375 -18.265625 57.421875 -19.578125 C 56.65625 -21.5625 55.21875 -25.1875 53.90625 -27.5 L 49.171875 -29.921875 L 40.375 -40.375 C 45.203125 -46.3125 48.953125 -52.46875 51.375 -58.296875 L 53.125 -61.59375 C 53.453125 -62.046875 53.453125 -62.59375 52.90625 -62.921875 C 52.140625 -63.46875 49.828125 -64.5625 48.734375 -65.015625 C 48.1875 -65.34375 47.296875 -65.34375 46.859375 -65.015625 L 43.5625 -63.359375 C 38.71875 -63.03125 21.125 -62.921875 17.484375 -62.921875 C 15.0625 -62.921875 11.546875 -63.03125 8.90625 -63.359375 L 8.25 -62.265625 C 8.140625 -61.9375 8.25 -61.59375 8.578125 -61.265625 C 10.5625 -59.515625 13.53125 -57.640625 16.171875 -56.4375 C 18.046875 -57.09375 21.671875 -57.859375 23.65625 -57.96875 C 26.1875 -58.296875 36.953125 -58.515625 42.234375 -58.625 C 35.75 -43.890625 22.328125 -26.953125 5.0625 -14.40625 C 4.734375 -13.96875 4.84375 -13.640625 5.0625 -13.421875 Z M 6.375 -12.3125 "/>
</symbol>
</g>
</defs>
<g id="hangul-lv-syllable:surface1">
<g style="fill:rgb(0%,0%,0%);fill-opacity:1;">
  <use xlink:href="#hangul-lv-syllable:glyph0-1" x="16" y="128.609375" class="c0"/>
</g>
</g>
</svg>
