<!DOCTYPE svg PUBLIC "-//W3C//DTD SVG 1.1//EN" "http://www.w3.org/Graphics/SVG/1.1/DTD/svg11.dtd">
<!-- Created with svg_stack (http://github.com/astraw/svg_stack) --><svg xmlns="http://www.w3.org/2000/svg" xmlns:sodipodi="http://sodipodi.sourceforge.net/DTD/sodipodi-0.dtd" xmlns:xlink="http://www.w3.org/1999/xlink" version="1.1" width="671.85546875" height="204.1015625" id="hangul-tone">
  <defs><g>
<symbol overflow="visible" id="hangul-tone:id0:glyph0-0">
<path style="stroke:none;" d="M 11 13.203125 L 99 13.203125 L 99 -96.796875 L 11 -96.796875 Z M 55 -46.3125 L 20.015625 -91.296875 L 89.984375 -91.296875 Z M 58.515625 -41.796875 L 93.5 -86.796875 L 93.5 3.1875 Z M 20.015625 7.703125 L 55 -37.296875 L 89.984375 7.703125 Z M 16.5 -86.796875 L 51.484375 -41.796875 L 16.5 3.1875 Z M 16.5 -86.796875 "/>
</symbol>
<symbol overflow="visible" id="hangul-tone:id0:glyph0-1">
<path style="stroke:none;" d="M 21.453125 -24.53125 L 21.453125 -17.046875 L 81.0625 -17.046875 L 81.0625 8.6875 L 90.3125 8.6875 L 90.3125 -24.53125 Z M 6.703125 -32.78125 C 20.125 -32.78125 41.03125 -33.328125 56.984375 -36.296875 L 56.3125 -43.015625 C 50.265625 -42.125 43.234375 -41.578125 36.078125 -41.140625 L 36.078125 -51.046875 L 53.015625 -51.046875 L 53.015625 -58.296875 L 45.4375 -58.296875 L 45.4375 -77.109375 L 53.5625 -77.109375 L 53.5625 -84.484375 L 9.125 -84.484375 L 9.125 -77.109375 L 17.265625 -77.109375 L 17.265625 -58.296875 L 9.015625 -58.296875 L 9.015625 -51.046875 L 27.0625 -51.046875 L 27.0625 -40.8125 C 19.140625 -40.59375 11.546875 -40.484375 5.609375 -40.484375 Z M 25.515625 -77.109375 L 37.0625 -77.109375 L 37.0625 -58.296875 L 25.515625 -58.296875 Z M 81.515625 -91.078125 L 81.515625 -62.265625 L 69.515625 -62.265625 L 69.515625 -89.203125 L 60.9375 -89.203125 L 60.9375 -30.90625 L 69.515625 -30.90625 L 69.515625 -54.78125 L 81.515625 -54.78125 L 81.515625 -29.703125 L 90.3125 -29.703125 L 90.3125 -91.078125 Z M 81.515625 -91.078125 "/>
</symbol>
<symbol overflow="visible" id="hangul-tone:id0:glyph0-2">
<path style="stroke:none;" d=""/>
</symbol>
<symbol overflow="visible" id="hangul-tone:id0:glyph0-3">
<path style="stroke:none;" d="M 13.75 -61.265625 C 9.34375 -61.265625 5.828125 -57.640625 5.828125 -53.234375 C 5.828125 -48.953125 9.34375 -45.3125 13.75 -45.3125 C 18.15625 -45.3125 21.671875 -48.953125 21.671875 -53.234375 C 21.671875 -57.640625 18.15625 -61.265625 13.75 -61.265625 Z M 13.75 -38.28125 C 9.34375 -38.28125 5.828125 -34.65625 5.828125 -30.359375 C 5.828125 -25.953125 9.34375 -22.328125 13.75 -22.328125 C 18.15625 -22.328125 21.671875 -25.953125 21.671875 -30.359375 C 21.671875 -34.65625 18.15625 -38.28125 13.75 -38.28125 Z M 13.75 -38.28125 "/>
</symbol>
<symbol overflow="visible" id="hangul-tone:id0:glyph0-4">
<path style="stroke:none;" d="M 55.21875 -88.546875 C 55.21875 -86.34375 53.34375 -84.375 51.046875 -84.375 C 48.734375 -84.375 46.859375 -86.34375 46.859375 -88.546875 C 46.859375 -90.859375 48.734375 -92.734375 51.046875 -92.734375 C 53.34375 -92.734375 55.21875 -90.859375 55.21875 -88.546875 Z M 70.625 -87.34375 C 70.625 -85.03125 68.75 -83.15625 66.4375 -83.15625 C 64.015625 -83.15625 62.265625 -85.03125 62.265625 -87.34375 C 62.265625 -89.65625 64.015625 -91.40625 66.4375 -91.40625 C 68.75 -91.40625 70.625 -89.65625 70.625 -87.34375 Z M 84.8125 -81.1875 C 84.8125 -78.875 82.9375 -76.890625 80.515625 -76.890625 C 78.3125 -76.890625 76.453125 -78.875 76.453125 -81.1875 C 76.453125 -83.375 78.3125 -85.25 80.515625 -85.25 C 82.9375 -85.25 84.8125 -83.375 84.8125 -81.1875 Z M 96.25 -70.734375 C 96.25 -68.421875 94.375 -66.4375 91.953125 -66.4375 C 89.765625 -66.4375 87.890625 -68.421875 87.890625 -70.734375 C 87.890625 -72.9375 89.765625 -74.796875 91.953125 -74.796875 C 94.375 -74.796875 96.25 -72.9375 96.25 -70.734375 Z M 103.625 -57.09375 C 103.625 -54.671875 101.75 -52.90625 99.4375 -52.90625 C 97.015625 -52.90625 95.265625 -54.671875 95.265625 -57.09375 C 95.265625 -59.40625 97.015625 -61.265625 99.4375 -61.265625 C 101.75 -61.265625 103.625 -59.40625 103.625 -57.09375 Z M 106.265625 -41.796875 C 106.265625 -39.484375 104.390625 -37.515625 102.078125 -37.515625 C 99.65625 -37.515625 97.796875 -39.484375 97.796875 -41.796875 C 97.796875 -44 99.65625 -45.984375 102.078125 -45.984375 C 104.390625 -45.984375 106.265625 -44 106.265625 -41.796875 Z M 103.625 -26.515625 C 103.625 -24.09375 101.859375 -22.21875 99.4375 -22.21875 C 97.125 -22.21875 95.375 -24.09375 95.375 -26.515625 C 95.375 -28.703125 97.125 -30.578125 99.4375 -30.578125 C 101.859375 -30.578125 103.625 -28.703125 103.625 -26.515625 Z M 96.25 -12.875 C 96.25 -10.453125 94.484375 -8.6875 92.0625 -8.6875 C 89.765625 -8.6875 87.890625 -10.453125 87.890625 -12.875 C 87.890625 -15.1875 89.765625 -16.9375 92.0625 -16.9375 C 94.484375 -16.9375 96.25 -15.1875 96.25 -12.875 Z M 84.921875 -2.3125 C 84.921875 0 83.046875 1.765625 80.625 1.765625 C 78.4375 1.765625 76.5625 0 76.5625 -2.3125 C 76.5625 -4.734375 78.4375 -6.484375 80.625 -6.484375 C 83.046875 -6.484375 84.921875 -4.734375 84.921875 -2.3125 Z M 70.734375 3.84375 C 70.734375 6.265625 68.859375 8.03125 66.546875 8.03125 C 64.125 8.03125 62.375 6.265625 62.375 3.84375 C 62.375 1.546875 64.125 -0.21875 66.546875 -0.21875 C 68.859375 -0.21875 70.734375 1.546875 70.734375 3.84375 Z M 55.328125 5.171875 C 55.328125 7.484375 53.453125 9.34375 51.15625 9.34375 C 48.734375 9.34375 46.859375 7.484375 46.859375 5.171875 C 46.859375 2.859375 48.734375 0.984375 51.15625 0.984375 C 53.453125 0.984375 55.328125 2.859375 55.328125 5.171875 Z M 40.375 1.3125 C 40.375 3.734375 38.390625 5.609375 36.078125 5.609375 C 33.765625 5.609375 31.90625 3.734375 31.90625 1.3125 C 31.90625 -0.875 33.765625 -2.75 36.078125 -2.75 C 38.390625 -2.75 40.375 -0.875 40.375 1.3125 Z M 27.390625 -7.046875 C 27.390625 -4.734375 25.40625 -2.96875 23.203125 -2.96875 C 20.796875 -2.96875 19.03125 -4.734375 19.03125 -7.046875 C 19.03125 -9.453125 20.796875 -11.21875 23.203125 -11.21875 C 25.40625 -11.21875 27.390625 -9.453125 27.390625 -7.046875 Z M 17.8125 -19.359375 C 17.8125 -16.9375 15.953125 -15.1875 13.640625 -15.1875 C 11.328125 -15.1875 9.453125 -16.9375 9.453125 -19.359375 C 9.453125 -21.671875 11.328125 -23.4375 13.640625 -23.4375 C 15.953125 -23.4375 17.8125 -21.671875 17.8125 -19.359375 Z M 12.875 -33.875 C 12.875 -31.5625 10.890625 -29.703125 8.578125 -29.703125 C 6.265625 -29.703125 4.40625 -31.5625 4.40625 -33.875 C 4.40625 -36.1875 6.265625 -38.0625 8.578125 -38.0625 C 10.890625 -38.0625 12.875 -36.1875 12.875 -33.875 Z M 12.875 -49.390625 C 12.875 -47.078125 10.890625 -45.203125 8.578125 -45.203125 C 6.265625 -45.203125 4.40625 -47.078125 4.40625 -49.390625 C 4.40625 -51.703125 6.265625 -53.5625 8.578125 -53.5625 C 10.890625 -53.5625 12.875 -51.703125 12.875 -49.390625 Z M 17.8125 -64.125 C 17.8125 -61.703125 15.953125 -59.84375 13.640625 -59.84375 C 11.21875 -59.84375 9.34375 -61.703125 9.34375 -64.125 C 9.34375 -66.328125 11.21875 -68.203125 13.640625 -68.203125 C 15.953125 -68.203125 17.8125 -66.328125 17.8125 -64.125 Z M 27.28125 -76.34375 C 27.28125 -73.921875 25.40625 -72.046875 23.09375 -72.046875 C 20.6875 -72.046875 18.921875 -73.921875 18.921875 -76.34375 C 18.921875 -78.546875 20.6875 -80.40625 23.09375 -80.40625 C 25.40625 -80.40625 27.28125 -78.546875 27.28125 -76.34375 Z M 40.265625 -84.703125 C 40.265625 -82.390625 38.390625 -80.625 36.078125 -80.625 C 33.65625 -80.625 31.796875 -82.390625 31.796875 -84.703125 C 31.796875 -87.125 33.65625 -88.875 36.078125 -88.875 C 38.390625 -88.875 40.265625 -87.125 40.265625 -84.703125 Z M 40.265625 -84.703125 "/>
</symbol>
</g>
<g>
<symbol overflow="visible" id="hangul-tone:id1:glyph0-0">
<path style="stroke:none;" d="M 5.375 -96.6875 L 69.828125 -96.6875 L 69.828125 0 L 5.375 0 Z M 8.0625 -2.6875 L 67.140625 -2.6875 L 67.140625 -94 L 8.0625 -94 Z M 8.0625 -2.6875 "/>
</symbol>
<symbol overflow="visible" id="hangul-tone:id1:glyph0-1">
<path style="stroke:none;" d="M 68.15625 -13.75 L 66.28125 -18.640625 L 88.09375 -27.390625 L 6.984375 -27.390625 L 6.984375 -34 L 88.09375 -34 L 66.28125 -42.75 L 68.15625 -47.640625 L 99.09375 -34.265625 L 99.09375 -27.125 Z M 68.15625 -13.75 "/>
</symbol>
</g>
<g>
<symbol overflow="visible" id="hangul-tone:id2:glyph0-0">
<path style="stroke:none;" d="M 11 13.203125 L 99 13.203125 L 99 -96.796875 L 11 -96.796875 Z M 55 -46.3125 L 20.015625 -91.296875 L 89.984375 -91.296875 Z M 58.515625 -41.796875 L 93.5 -86.796875 L 93.5 3.1875 Z M 20.015625 7.703125 L 55 -37.296875 L 89.984375 7.703125 Z M 16.5 -86.796875 L 51.484375 -41.796875 L 16.5 3.1875 Z M 16.5 -86.796875 "/>
</symbol>
<symbol overflow="visible" id="hangul-tone:id2:glyph0-1">
<path style="stroke:none;" d="M 13.75 -61.265625 C 9.34375 -61.265625 5.828125 -57.640625 5.828125 -53.234375 C 5.828125 -48.953125 9.34375 -45.3125 13.75 -45.3125 C 18.15625 -45.3125 21.671875 -48.953125 21.671875 -53.234375 C 21.671875 -57.640625 18.15625 -61.265625 13.75 -61.265625 Z M 13.75 -38.28125 C 9.34375 -38.28125 5.828125 -34.65625 5.828125 -30.359375 C 5.828125 -25.953125 9.34375 -22.328125 13.75 -22.328125 C 18.15625 -22.328125 21.671875 -25.953125 21.671875 -30.359375 C 21.671875 -34.65625 18.15625 -38.28125 13.75 -38.28125 Z M 13.75 -38.28125 "/>
</symbol>
<symbol overflow="visible" id="hangul-tone:id2:glyph0-2">
<path style="stroke:none;" d="M 21.453125 -24.53125 L 21.453125 -17.046875 L 81.0625 -17.046875 L 81.0625 8.6875 L 90.3125 8.6875 L 90.3125 -24.53125 Z M 6.703125 -32.78125 C 20.125 -32.78125 41.03125 -33.328125 56.984375 -36.296875 L 56.3125 -43.015625 C 50.265625 -42.125 43.234375 -41.578125 36.078125 -41.140625 L 36.078125 -51.046875 L 53.015625 -51.046875 L 53.015625 -58.296875 L 45.4375 -58.296875 L 45.4375 -77.109375 L 53.5625 -77.109375 L 53.5625 -84.484375 L 9.125 -84.484375 L 9.125 -77.109375 L 17.265625 -77.109375 L 17.265625 -58.296875 L 9.015625 -58.296875 L 9.015625 -51.046875 L 27.0625 -51.046875 L 27.0625 -40.8125 C 19.140625 -40.59375 11.546875 -40.484375 5.609375 -40.484375 Z M 25.515625 -77.109375 L 37.0625 -77.109375 L 37.0625 -58.296875 L 25.515625 -58.296875 Z M 81.515625 -91.078125 L 81.515625 -62.265625 L 69.515625 -62.265625 L 69.515625 -89.203125 L 60.9375 -89.203125 L 60.9375 -30.90625 L 69.515625 -30.90625 L 69.515625 -54.78125 L 81.515625 -54.78125 L 81.515625 -29.703125 L 90.3125 -29.703125 L 90.3125 -91.078125 Z M 81.515625 -91.078125 "/>
</symbol>
</g>
</defs>
  <g id="hangul-tone:id0:id0" transform="matrix(1.25,0,0,1.25,0.0,0.0)"><g id="hangul-tone:id0:surface1">
<g style="fill:rgb(0%,0%,0%);fill-opacity:1;">
  <use xlink:href="#hangul-tone:id0:glyph0-1" x="16" y="129.59375" class="c0"/>
  <use xlink:href="#hangul-tone:id0:glyph0-2" x="117.203125" y="129.59375" class="z"/>
  <use xlink:href="#hangul-tone:id0:glyph0-3" x="117.203125" y="129.59375" class="dc"/>
  <use xlink:href="#hangul-tone:id0:glyph0-4" x="144.703125" y="129.59375" class="c1"/>
</g>
</g>
</g>
  <g id="hangul-tone:id1:id1" transform="matrix(1.25,0,0,1.25,338.37890625,1.34765625)"><g id="hangul-tone:id1:surface1">
<g style="fill:rgb(0%,0%,0%);fill-opacity:1;">
  <use xlink:href="#hangul-tone:id1:glyph0-1" x="0" y="120.84375" class="arrow"/>
</g>
</g>
</g>
  <g id="hangul-tone:id2:id2" transform="matrix(1.25,0,0,1.25,470.9765625,0.0)"><g id="hangul-tone:id2:surface1">
<g style="fill:rgb(0%,0%,0%);fill-opacity:1;">
  <use xlink:href="#hangul-tone:id2:glyph0-1" x="16" y="129.59375" class="c1"/>
  <use xlink:href="#hangul-tone:id2:glyph0-2" x="43.5" y="129.59375" class="c0"/>
</g>
</g>
</g>
</svg>
