<svg xmlns="http://www.w3.org/2000/svg" xmlns:xlink="http://www.w3.org/1999/xlink" width="138.265625pt" height="162.0625pt" viewBox="0 0 138.265625 162.0625" version="1.1" id="hangul-lvt-syllable">
<defs>
<g>
<symbol overflow="visible" id="hangul-lvt-syllable:glyph0-0">
<path style="stroke:none;" d="M 11 13.203125 L 99 13.203125 L 99 -96.796875 L 11 -96.796875 Z M 55 -46.3125 L 20.015625 -91.296875 L 89.984375 -91.296875 Z M 58.515625 -41.796875 L 93.5 -86.796875 L 93.5 3.1875 Z M 20.015625 7.703125 L 55 -37.296875 L 89.984375 7.703125 Z M 16.5 -86.796875 L 51.484375 -41.796875 L 16.5 3.1875 Z M 16.5 -86.796875 "/>
</symbol>
<symbol overflow="visible" id="hangul-lvt-syllable:glyph0-1">
<path style="stroke:none;" d="M 18.921875 -84.8125 C 18.703125 -84.375 18.8125 -84.15625 19.03125 -83.703125 C 20.6875 -81.515625 22.765625 -79.421875 24.75 -78.203125 C 25.296875 -77.765625 25.625 -77.765625 26.515625 -77.875 C 31.125 -78.09375 38.609375 -78.203125 43.5625 -78.3125 C 44.21875 -78.3125 44.65625 -78.4375 45.09375 -78.984375 C 45.65625 -79.640625 45.875 -81.953125 45.3125 -83.046875 C 45.09375 -83.8125 44.65625 -84.046875 43.78125 -84.046875 C 36.84375 -84.046875 28.8125 -84.375 19.6875 -85.6875 Z M 90.96875 -27.0625 C 92.296875 -31.453125 93.390625 -39.265625 93.390625 -45.09375 L 93.390625 -83.59375 L 93.609375 -88.984375 C 93.71875 -89.984375 93.390625 -90.75 92.296875 -91.078125 C 89.546875 -92.40625 82.9375 -93.71875 79.203125 -93.828125 C 78.4375 -93.828125 78.09375 -93.609375 77.875 -93.171875 L 77.109375 -90.640625 C 80.625 -89.4375 83.9375 -87.5625 85.6875 -85.359375 L 85.6875 -42.5625 C 85.6875 -38.609375 85.90625 -30.796875 86.34375 -27.0625 Z M 7.265625 -25.84375 C 7.59375 -25.734375 8.03125 -25.84375 8.46875 -26.0625 C 19.25 -31.234375 29.265625 -38.609375 37.40625 -46.53125 L 52.140625 -31.34375 C 52.796875 -30.6875 53.6875 -30.03125 54.234375 -29.8125 C 55.4375 -29.484375 57.3125 -30.359375 57.859375 -31.453125 C 58.078125 -32.015625 58.078125 -32.78125 57.53125 -33.875 C 56.875 -35.640625 55.328125 -38.5 54.015625 -40.484375 L 49.0625 -42.34375 L 40.8125 -50.15625 C 45.546875 -55.21875 49.28125 -60.609375 51.921875 -65.78125 L 54.015625 -68.96875 C 54.34375 -69.40625 54.34375 -69.953125 53.796875 -70.296875 C 52.90625 -70.84375 50.59375 -72.046875 49.28125 -72.59375 C 48.84375 -72.8125 48.0625 -72.8125 47.515625 -72.59375 L 43.890625 -70.734375 C 38.828125 -70.40625 21.453125 -70.1875 18.046875 -70.1875 C 15.515625 -70.1875 11.984375 -70.40625 9.453125 -70.953125 L 8.796875 -69.625 C 8.6875 -69.296875 8.796875 -68.96875 9.125 -68.640625 C 11.109375 -66.984375 14.078125 -65.234375 16.71875 -64.125 C 18.59375 -64.796875 22.4375 -65.5625 24.3125 -65.671875 C 26.734375 -65.890625 37.734375 -66.109375 42.90625 -66.21875 C 35.96875 -53.125 22.65625 -38.5 6.046875 -28.046875 C 5.71875 -27.609375 5.828125 -27.28125 6.15625 -27.0625 Z M 72.046875 -27.28125 C 73.375 -31.453125 74.359375 -38.71875 74.359375 -45.09375 L 74.359375 -77.765625 L 74.578125 -82.5 C 74.6875 -83.59375 74.25 -84.265625 73.484375 -84.59375 C 70.734375 -85.796875 64.796875 -87.125 61.265625 -87.234375 C 60.5 -87.234375 60.171875 -87.015625 59.953125 -86.5625 L 59.0625 -84.046875 C 62.375 -82.9375 65.34375 -81.1875 66.875 -79.203125 L 66.875 -54.5625 L 56.765625 -54.34375 C 54.453125 -54.34375 51.921875 -54.5625 49.828125 -54.890625 L 49.171875 -53.796875 C 49.0625 -53.453125 49.0625 -53.015625 49.5 -52.6875 C 51.046875 -51.265625 53.234375 -49.828125 55.4375 -48.734375 C 57.3125 -49.5 59.953125 -49.9375 61.703125 -50.046875 C 62.8125 -50.15625 64.90625 -50.265625 66.875 -50.15625 L 66.875 -42.6875 C 66.875 -38.390625 67.09375 -31.015625 67.546875 -27.28125 Z M 46.859375 -7.265625 L 46.859375 -17.046875 L 91.953125 -17.375 C 92.515625 -17.375 93.0625 -17.59375 93.5 -18.046875 C 94.046875 -18.59375 94.484375 -19.796875 94.484375 -21.453125 C 94.484375 -22.21875 94.046875 -22.765625 93.171875 -22.984375 C 90.75 -23.3125 86.453125 -23.546875 83.484375 -23.546875 L 80.40625 -22 C 75.015625 -21.78125 53.90625 -21.5625 47.078125 -21.671875 C 44.328125 -22.328125 37.734375 -22.765625 34.765625 -22.765625 C 33.984375 -22.765625 33.65625 -22.546875 33.546875 -22.21875 L 33 -19.578125 C 35.421875 -18.921875 37.625 -17.703125 38.9375 -16.28125 L 38.9375 -0.4375 C 38.9375 5.28125 41.578125 8.140625 48.296875 8.140625 L 93.9375 7.8125 C 94.484375 7.8125 95.046875 7.59375 95.375 7.265625 C 95.921875 6.703125 96.578125 5.390625 96.578125 3.734375 C 96.578125 2.859375 96.140625 2.3125 95.15625 2.203125 C 93.171875 1.65625 88.109375 1.3125 84.921875 1.3125 L 81.625 2.96875 C 75.453125 3.1875 56.203125 3.40625 49.390625 3.296875 C 47.515625 3.296875 46.859375 2.53125 46.859375 0.546875 Z M 46.859375 -7.265625 "/>
</symbol>
</g>
</defs>
<g id="hangul-lvt-syllable:surface1">
<g style="fill:rgb(0%,0%,0%);fill-opacity:1;">
  <use xlink:href="#hangul-lvt-syllable:glyph0-1" x="16" y="128.609375" class="c0"/>
</g>
</g>
</svg>