<!DOCTYPE svg PUBLIC "-//W3C//DTD SVG 1.1//EN" "http://www.w3.org/Graphics/SVG/1.1/DTD/svg11.dtd">
<!-- Created with svg_stack (http://github.com/astraw/svg_stack) --><svg xmlns="http://www.w3.org/2000/svg" xmlns:sodipodi="http://sodipodi.sourceforge.net/DTD/sodipodi-0.dtd" xmlns:xlink="http://www.w3.org/1999/xlink" version="1.1" width="718.61328125" height="204.1015625" id="hangul-decompose">
  <defs><g>
<symbol overflow="visible" id="hangul-decompose:id0:glyph0-0">
<path style="stroke:none;" d="M 11 13.203125 L 99 13.203125 L 99 -96.796875 L 11 -96.796875 Z M 55 -46.3125 L 20.015625 -91.296875 L 89.984375 -91.296875 Z M 58.515625 -41.796875 L 93.5 -86.796875 L 93.5 3.1875 Z M 20.015625 7.703125 L 55 -37.296875 L 89.984375 7.703125 Z M 16.5 -86.796875 L 51.484375 -41.796875 L 16.5 3.1875 Z M 16.5 -86.796875 "/>
</symbol>
<symbol overflow="visible" id="hangul-decompose:id0:glyph0-1">
<path style="stroke:none;" d="M 17.15625 -87.671875 L 17.15625 -57.3125 L 83.703125 -57.3125 L 83.703125 -87.671875 Z M 74.6875 -80.40625 L 74.6875 -64.5625 L 26.0625 -64.5625 L 26.0625 -80.40625 Z M 16.609375 0.328125 L 16.609375 7.484375 L 86.796875 7.484375 L 86.796875 0.328125 L 25.515625 0.328125 L 25.515625 -9.5625 L 83.8125 -9.5625 L 83.8125 -32.015625 L 71.609375 -32.015625 L 71.609375 -41.796875 L 95.375 -41.796875 L 95.375 -49.28125 L 5.5 -49.28125 L 5.5 -41.796875 L 30.03125 -41.796875 L 30.03125 -32.015625 L 16.390625 -32.015625 L 16.390625 -24.96875 L 74.90625 -24.96875 L 74.90625 -16.28125 L 16.609375 -16.28125 Z M 39.046875 -41.796875 L 62.484375 -41.796875 L 62.484375 -32.015625 L 39.046875 -32.015625 Z M 39.046875 -41.796875 "/>
</symbol>
</g>
<g>
<symbol overflow="visible" id="hangul-decompose:id1:glyph0-0">
<path style="stroke:none;" d="M 5.375 -96.6875 L 69.828125 -96.6875 L 69.828125 0 L 5.375 0 Z M 8.0625 -2.6875 L 67.140625 -2.6875 L 67.140625 -94 L 8.0625 -94 Z M 8.0625 -2.6875 "/>
</symbol>
<symbol overflow="visible" id="hangul-decompose:id1:glyph0-1">
<path style="stroke:none;" d="M 68.15625 -13.75 L 66.28125 -18.640625 L 88.09375 -27.390625 L 6.984375 -27.390625 L 6.984375 -34 L 88.09375 -34 L 66.28125 -42.75 L 68.15625 -47.640625 L 99.09375 -34.265625 L 99.09375 -27.125 Z M 68.15625 -13.75 "/>
</symbol>
</g>
<g>
<symbol overflow="visible" id="hangul-decompose:id2:glyph0-0">
<path style="stroke:none;" d="M 11 13.203125 L 99 13.203125 L 99 -96.796875 L 11 -96.796875 Z M 55 -46.3125 L 20.015625 -91.296875 L 89.984375 -91.296875 Z M 58.515625 -41.796875 L 93.5 -86.796875 L 93.5 3.1875 Z M 20.015625 7.703125 L 55 -37.296875 L 89.984375 7.703125 Z M 16.5 -86.796875 L 51.484375 -41.796875 L 16.5 3.1875 Z M 16.5 -86.796875 "/>
</symbol>
<symbol overflow="visible" id="hangul-decompose:id2:glyph0-1">
<path style="stroke:none;" d="M 20.015625 -67.3125 L 20.015625 -15.296875 L 82.171875 -15.296875 L 82.171875 -67.3125 Z M 73.046875 -59.84375 L 73.046875 -22.765625 L 29.15625 -22.765625 L 29.15625 -59.84375 Z M 73.046875 -59.84375 "/>
</symbol>
<symbol overflow="visible" id="hangul-decompose:id2:glyph0-2">
<path style="stroke:none;" d=""/>
</symbol>
<symbol overflow="visible" id="hangul-decompose:id2:glyph0-3">
<path style="stroke:none;" d="M 5.71875 -57.3125 L 5.71875 -49.828125 L 29.375 -49.828125 L 29.375 -7.046875 L 38.5 -7.046875 L 38.5 -49.828125 L 62.046875 -49.828125 L 62.046875 -7.046875 L 71.171875 -7.046875 L 71.171875 -49.828125 L 95.265625 -49.828125 L 95.265625 -57.3125 Z M 5.71875 -57.3125 "/>
</symbol>
<symbol overflow="visible" id="hangul-decompose:id2:glyph0-4">
<path style="stroke:none;" d="M 19.578125 -21.890625 L 19.578125 -14.296875 L 83.375 -14.296875 L 83.375 -21.890625 L 28.265625 -21.890625 L 28.265625 -38.0625 L 81.625 -38.0625 L 81.625 -68.53125 L 19.359375 -68.53125 L 19.359375 -61.15625 L 72.9375 -61.15625 L 72.9375 -45.3125 L 19.578125 -45.3125 Z M 19.578125 -21.890625 "/>
</symbol>
</g>
</defs>
  <g id="hangul-decompose:id0:id0" transform="matrix(1.25,0,0,1.25,0.0,0.0)"><g id="hangul-decompose:id0:surface1">
<g style="fill:rgb(0%,0%,0%);fill-opacity:1;">
  <use xlink:href="#hangul-decompose:id0:glyph0-1" x="16" y="129.59375" class="c0"/>
</g>
</g>
</g>
  <g id="hangul-decompose:id1:id1" transform="matrix(1.25,0,0,1.25,166.50390625,1.34765625)"><g id="hangul-decompose:id1:surface1">
<g style="fill:rgb(0%,0%,0%);fill-opacity:1;">
  <use xlink:href="#hangul-decompose:id1:glyph0-1" x="0" y="120.84375" class="arrow"/>
</g>
</g>
</g>
  <g id="hangul-decompose:id2:id2" transform="matrix(1.25,0,0,1.25,299.1015625,0.0)"><g id="hangul-decompose:id2:surface1">
<g style="fill:rgb(0%,0%,0%);fill-opacity:1;">
  <use xlink:href="#hangul-decompose:id2:glyph0-1" x="16" y="129.59375" class="c1"/>
  <use xlink:href="#hangul-decompose:id2:glyph0-2" x="117.203125" y="129.59375" class="z"/>
  <use xlink:href="#hangul-decompose:id2:glyph0-3" x="117.203125" y="129.59375" class="c2"/>
  <use xlink:href="#hangul-decompose:id2:glyph0-2" x="218.40625" y="129.59375" class="z"/>
  <use xlink:href="#hangul-decompose:id2:glyph0-4" x="218.40625" y="129.59375" class="c3"/>
</g>
</g>
</g>
</svg>
