<?xml version="1.0" standalone="no"?>
<!DOCTYPE svg PUBLIC "-//W3C//DTD SVG 1.1//EN"
 "http://www.w3.org/Graphics/SVG/1.1/DTD/svg11.dtd">
<!-- Created with svg_stack (http://github.com/astraw/svg_stack) -->
<svg xmlns="http://www.w3.org/2000/svg" xmlns:sodipodi="http://sodipodi.sourceforge.net/DTD/sodipodi-0.dtd" xmlns:xlink="http://www.w3.org/1999/xlink" version="1.1" width="881.42578125" height="202.578125">
  <defs><g>
<symbol overflow="visible" id="id0:glyph0-0">
<path style="stroke:none;" d="M 11 13.203125 L 99 13.203125 L 99 -96.796875 L 11 -96.796875 Z M 55 -46.3125 L 20.015625 -91.296875 L 89.984375 -91.296875 Z M 58.515625 -41.796875 L 93.5 -86.796875 L 93.5 3.1875 Z M 20.015625 7.703125 L 55 -37.296875 L 89.984375 7.703125 Z M 16.5 -86.796875 L 51.484375 -41.796875 L 16.5 3.1875 Z M 16.5 -86.796875 "/>
</symbol>
<symbol overflow="visible" id="id0:glyph0-1">
<path style="stroke:none;" d="M 26.953125 -63.25 C 23.65625 -63.140625 19.796875 -63.359375 16.390625 -63.796875 L 15.625 -62.375 C 15.40625 -61.9375 15.515625 -61.59375 15.953125 -61.265625 C 18.59375 -59.296875 22.109375 -57.3125 25.515625 -55.984375 C 27.5 -56.765625 31.125 -57.421875 33.328125 -57.640625 C 45.09375 -58.1875 63.6875 -60.0625 75.125 -61.8125 C 74.578125 -55.21875 73.8125 -48.515625 72.8125 -43.125 C 72.703125 -42.125 72.9375 -41.90625 73.484375 -41.796875 L 75.796875 -41.25 C 76.234375 -41.25 76.78125 -41.46875 77.109375 -42.015625 C 81.1875 -52.25 84.59375 -67.09375 85.03125 -77.4375 L 86.6875 -80.953125 C 86.90625 -81.515625 86.90625 -81.953125 86.453125 -82.390625 C 85.578125 -83.046875 83.046875 -84.59375 81.734375 -85.25 C 81.1875 -85.46875 80.515625 -85.46875 79.859375 -85.25 L 75.5625 -83.15625 C 67.546875 -82.828125 36.40625 -82.390625 31.015625 -82.390625 C 27.9375 -82.390625 23.65625 -82.71875 20.453125 -83.375 L 19.796875 -82.0625 C 19.6875 -81.625 19.6875 -81.40625 20.125 -80.953125 C 22.546875 -78.984375 26.0625 -76.78125 29.484375 -75.5625 C 32.015625 -76.453125 36.953125 -77.328125 39.703125 -77.4375 C 44.65625 -77.765625 67.546875 -78.203125 75.90625 -78.203125 C 75.90625 -74.796875 75.796875 -70.625 75.453125 -66.21875 C 62.703125 -64.796875 39.375 -63.359375 26.953125 -63.25 Z M 26.953125 -63.25 "/>
</symbol>
<symbol overflow="visible" id="id0:glyph0-2">
<path style="stroke:none;" d=""/>
</symbol>
<symbol overflow="visible" id="id0:glyph0-3">
<path style="stroke:none;" d="M 58.078125 -46.640625 L 58.625 -51.046875 C 58.734375 -51.921875 58.40625 -52.578125 57.53125 -52.796875 C 55 -53.5625 49.609375 -54.234375 46.3125 -54.34375 C 45.4375 -54.34375 45.203125 -54.015625 45.09375 -53.796875 L 44.328125 -51.375 C 46.75 -50.59375 49.171875 -49.171875 50.375 -47.734375 L 50.375 -41.6875 C 34.65625 -41.46875 19.140625 -41.359375 15.84375 -41.359375 C 12.4375 -41.46875 7.265625 -41.90625 3.625 -42.5625 L 2.859375 -41.03125 C 2.75 -40.59375 2.859375 -40.265625 3.1875 -40.046875 C 5.9375 -37.84375 10.015625 -35.53125 13.96875 -34.3125 C 16.609375 -35.203125 22.21875 -36.296875 24.96875 -36.515625 C 30.796875 -36.84375 81.1875 -37.515625 88.875 -37.40625 C 92.1875 -37.40625 98.671875 -37.1875 101.640625 -36.84375 C 102.625 -37.296875 103.953125 -38.9375 103.953125 -40.8125 C 103.953125 -41.6875 103.296875 -42.34375 102.515625 -42.5625 C 99.984375 -43.453125 94.15625 -44.109375 90.203125 -44.21875 L 86.234375 -42.453125 C 82.9375 -42.234375 71.0625 -42.015625 57.859375 -41.796875 Z M 58.078125 -46.640625 "/>
</symbol>
<symbol overflow="visible" id="id0:glyph0-4">
<path style="stroke:none;" d="M 37.625 -5.0625 C 38.171875 -5.28125 38.71875 -6.15625 38.71875 -7.15625 C 38.71875 -7.484375 38.5 -7.703125 38.171875 -7.921875 L 36.84375 -8.6875 C 37.40625 -11 37.953125 -15.1875 38.171875 -17.484375 L 39.15625 -20.125 C 39.265625 -20.6875 39.265625 -21.015625 38.9375 -21.34375 C 38.390625 -21.78125 36.84375 -22.65625 36.078125 -22.984375 C 35.640625 -23.203125 34.984375 -23.203125 34.546875 -22.984375 L 31.90625 -22 C 29.59375 -21.5625 24.203125 -21.453125 22.65625 -21.453125 C 21.015625 -21.453125 18.921875 -21.5625 17.265625 -21.890625 L 16.609375 -20.796875 C 16.5 -20.34375 16.609375 -19.90625 17.046875 -19.578125 C 18.265625 -18.484375 19.90625 -17.15625 21.671875 -16.28125 C 22.765625 -16.71875 24.203125 -17.046875 25.40625 -17.265625 L 31.34375 -17.59375 C 31.453125 -15.734375 31.453125 -10.78125 31.234375 -8.578125 L 30.90625 -8.46875 C 29.046875 -8.140625 27.609375 -8.03125 25.625 -7.8125 C 23.65625 -8.03125 19.796875 -8.140625 18.15625 -8.140625 C 17.59375 -8.140625 17.375 -8.03125 17.15625 -7.703125 L 16.71875 -5.71875 C 18.046875 -5.171875 19.03125 -4.40625 19.578125 -3.40625 L 19.578125 3.296875 C 19.578125 5.390625 19.6875 6.9375 20.015625 7.59375 C 21.125 10.125 22.984375 11.546875 26.0625 11.546875 C 26.734375 11.546875 28.265625 11.4375 29.15625 11.328125 C 33 10.890625 38.609375 9.125 42.234375 7.046875 C 42.6875 6.703125 42.796875 6.484375 42.6875 6.15625 L 42.234375 4.625 C 42.234375 4.296875 41.796875 4.0625 41.46875 4.1875 C 37.625 5.28125 31.6875 5.9375 27.828125 5.9375 C 26.515625 5.9375 26.0625 5.390625 26.0625 4.296875 L 26.0625 -4.296875 Z M 79.75 5.0625 C 78.4375 5.0625 77.875 4.625 77.875 3.296875 L 77.875 -19.140625 L 89.09375 -19.578125 C 89.546875 -19.578125 89.984375 -19.6875 90.203125 -20.015625 C 90.75 -20.453125 91.078125 -21.78125 91.078125 -23.203125 C 91.078125 -23.875 90.75 -24.3125 90.09375 -24.53125 C 88.875 -24.75 86.34375 -25.078125 84.8125 -25.1875 L 83.15625 -23.875 C 82.28125 -23.65625 79.53125 -23.546875 77.984375 -23.546875 C 76.125 -23.984375 71.9375 -24.203125 69.953125 -24.203125 C 69.296875 -24.203125 68.96875 -24.09375 68.859375 -23.765625 L 68.421875 -21.78125 C 69.84375 -21.125 70.953125 -20.125 71.609375 -19.03125 L 71.609375 2.640625 C 71.609375 7.8125 73.375 9.796875 78.984375 9.5625 L 90.421875 9.125 C 90.859375 9.125 91.296875 9.015625 91.515625 8.6875 C 91.953125 8.140625 92.40625 7.265625 92.40625 5.390625 C 92.40625 4.734375 91.953125 4.1875 91.078125 4.0625 C 89.875 3.734375 87.5625 3.625 86.015625 3.734375 L 84.046875 4.84375 C 83.15625 5.0625 80.734375 5.0625 79.75 5.0625 Z M 66 -17.703125 L 66.21875 -20.796875 C 66.21875 -21.5625 66 -22 65.125 -22.328125 C 63.46875 -23.09375 60.609375 -23.875 58.296875 -24.203125 C 57.75 -24.203125 57.421875 -24.09375 57.3125 -23.65625 L 56.546875 -21.453125 C 58.296875 -20.6875 59.625 -19.6875 60.171875 -18.8125 L 60.171875 -11 L 50.703125 -10.671875 L 50.8125 -16.5 L 50.9375 -19.46875 C 50.9375 -20.453125 50.703125 -20.90625 49.9375 -21.125 C 48.1875 -21.671875 45.3125 -22.328125 43.125 -22.4375 C 42.453125 -22.4375 42.234375 -22.328125 42.125 -22 L 41.359375 -19.6875 C 43.125 -19.03125 44.328125 -18.15625 44.984375 -17.265625 L 45.4375 7.265625 C 45.4375 8.6875 45.65625 10.34375 46.09375 11.4375 L 48.953125 11.4375 C 49.390625 11 49.9375 10.234375 50.15625 9.234375 L 66 9.015625 C 66.4375 8.578125 66.984375 7.484375 66.984375 6.484375 C 66.984375 5.9375 66.765625 5.609375 66.109375 5.28125 L 64.6875 4.734375 C 65.34375 2.96875 65.671875 0.765625 65.671875 -1.4375 Z M 50.703125 -6.375 L 60.171875 -6.703125 L 60.171875 4.625 L 50.59375 4.734375 Z M 50.703125 -6.375 "/>
</symbol>
</g>
<g>
<symbol overflow="visible" id="id1:glyph0-0">
<path style="stroke:none;" d="M 5.375 -96.6875 L 69.828125 -96.6875 L 69.828125 0 L 5.375 0 Z M 8.0625 -2.6875 L 67.140625 -2.6875 L 67.140625 -94 L 8.0625 -94 Z M 8.0625 -2.6875 "/>
</symbol>
<symbol overflow="visible" id="id1:glyph0-1">
<path style="stroke:none;" d="M 68.15625 -13.75 L 66.28125 -18.640625 L 88.09375 -27.390625 L 6.984375 -27.390625 L 6.984375 -34 L 88.09375 -34 L 66.28125 -42.75 L 68.15625 -47.640625 L 99.09375 -34.265625 L 99.09375 -27.125 Z M 68.15625 -13.75 "/>
</symbol>
</g>
<g>
<symbol overflow="visible" id="id2:glyph0-0">
<path style="stroke:none;" d="M 11 13.203125 L 99 13.203125 L 99 -96.796875 L 11 -96.796875 Z M 55 -46.3125 L 20.015625 -91.296875 L 89.984375 -91.296875 Z M 58.515625 -41.796875 L 93.5 -86.796875 L 93.5 3.1875 Z M 20.015625 7.703125 L 55 -37.296875 L 89.984375 7.703125 Z M 16.5 -86.796875 L 51.484375 -41.796875 L 16.5 3.1875 Z M 16.5 -86.796875 "/>
</symbol>
<symbol overflow="visible" id="id2:glyph0-1">
<path style="stroke:none;" d="M 26.953125 -63.25 C 23.65625 -63.140625 19.796875 -63.359375 16.390625 -63.796875 L 15.625 -62.375 C 15.40625 -61.9375 15.515625 -61.59375 15.953125 -61.265625 C 18.59375 -59.296875 22.109375 -57.3125 25.515625 -55.984375 C 27.5 -56.765625 31.125 -57.421875 33.328125 -57.640625 C 45.09375 -58.1875 63.6875 -60.0625 75.125 -61.8125 C 74.578125 -55.21875 73.8125 -48.515625 72.8125 -43.125 C 72.703125 -42.125 72.9375 -41.90625 73.484375 -41.796875 L 75.796875 -41.25 C 76.234375 -41.25 76.78125 -41.46875 77.109375 -42.015625 C 81.1875 -52.25 84.59375 -67.09375 85.03125 -77.4375 L 86.6875 -80.953125 C 86.90625 -81.515625 86.90625 -81.953125 86.453125 -82.390625 C 85.578125 -83.046875 83.046875 -84.59375 81.734375 -85.25 C 81.1875 -85.46875 80.515625 -85.46875 79.859375 -85.25 L 75.5625 -83.15625 C 67.546875 -82.828125 36.40625 -82.390625 31.015625 -82.390625 C 27.9375 -82.390625 23.65625 -82.71875 20.453125 -83.375 L 19.796875 -82.0625 C 19.6875 -81.625 19.6875 -81.40625 20.125 -80.953125 C 22.546875 -78.984375 26.0625 -76.78125 29.484375 -75.5625 C 32.015625 -76.453125 36.953125 -77.328125 39.703125 -77.4375 C 44.65625 -77.765625 67.546875 -78.203125 75.90625 -78.203125 C 75.90625 -74.796875 75.796875 -70.625 75.453125 -66.21875 C 62.703125 -64.796875 39.375 -63.359375 26.953125 -63.25 Z M 26.953125 -63.25 "/>
</symbol>
<symbol overflow="visible" id="id2:glyph0-2">
<path style="stroke:none;" d=""/>
</symbol>
<symbol overflow="visible" id="id2:glyph0-3">
<path style="stroke:none;" d="M -20.015625 -15.0625 C -23.3125 -14.84375 -35.3125 -14.625 -48.515625 -14.40625 L -48.1875 -27.5 L -47.625 -32.125 C -47.515625 -33 -47.84375 -33.65625 -48.734375 -33.875 C -51.484375 -34.765625 -57.640625 -35.421875 -61.15625 -35.421875 C -61.9375 -35.421875 -62.265625 -35.203125 -62.375 -34.984375 L -63.03125 -32.453125 C -60.28125 -31.6875 -57.421875 -30.25 -55.984375 -28.703125 L -55.984375 -14.296875 C -71.609375 -14.078125 -87.125 -13.859375 -90.421875 -13.96875 C -93.828125 -13.96875 -99 -14.40625 -102.625 -15.0625 L -103.40625 -13.53125 C -103.515625 -13.09375 -103.40625 -12.765625 -103.0625 -12.546875 C -100.3125 -10.234375 -96.25 -8.03125 -92.296875 -6.703125 C -89.65625 -7.59375 -84.046875 -8.6875 -81.296875 -8.90625 C -75.453125 -9.234375 -25.078125 -9.90625 -17.375 -9.796875 C -14.078125 -9.796875 -7.59375 -9.5625 -4.625 -9.234375 C -3.625 -9.6875 -2.3125 -11.4375 -2.3125 -13.3125 C -2.3125 -14.1875 -2.96875 -14.84375 -3.734375 -15.0625 C -6.265625 -15.953125 -12.09375 -16.609375 -16.0625 -16.71875 Z M -20.015625 -15.0625 "/>
</symbol>
<symbol overflow="visible" id="id2:glyph0-4">
<path style="stroke:none;" d="M 11 13.203125 L 99 13.203125 L 99 -96.796875 L 11 -96.796875 Z M 55 -46.3125 L 20.015625 -91.296875 L 89.984375 -91.296875 Z M 58.515625 -41.796875 L 93.5 -86.796875 L 93.5 3.1875 Z M 20.015625 7.703125 L 55 -37.296875 L 89.984375 7.703125 Z M 16.5 -86.796875 L 51.484375 -41.796875 L 16.5 3.1875 Z M 16.5 -86.796875 "/>
</symbol>
</g>
</defs>
  <g id="id0:id0" transform="matrix(1.25,0,0,1.25,0.0,0.0)"><g id="id0:surface1">
<g style="fill:rgb(0%,0%,0%);fill-opacity:1;">
  <use xlink:href="#id0:glyph0-1" x="16" y="128.609375"/>
  <use xlink:href="#id0:glyph0-2" x="122.265625" y="128.609375"/>
  <use xlink:href="#id0:glyph0-3" x="122.265625" y="128.609375"/>
  <use xlink:href="#id0:glyph0-2" x="228.53125" y="128.609375"/>
  <use xlink:href="#id0:glyph0-4" x="228.53125" y="128.609375"/>
</g>
</g>
</g>
  <g id="id1:id1" transform="matrix(1.25,0,0,1.25,438.49609375,0.5859375)"><g id="id1:surface1">
<g style="fill:rgb(0%,0%,0%);fill-opacity:1;">
  <use xlink:href="#id1:glyph0-1" x="0" y="120.84375"/>
</g>
</g>
</g>
  <g id="id2:id2" transform="matrix(1.25,0,0,1.25,571.09375,0.0)"><g id="id2:surface1">
<g style="fill:rgb(0%,0%,0%);fill-opacity:1;">
  <use xlink:href="#id2:glyph0-1" x="16" y="128.609375"/>
  <use xlink:href="#id2:glyph0-2" x="122.265625" y="128.609375"/>
  <use xlink:href="#id2:glyph0-3" x="122.265625" y="128.609375"/>
  <use xlink:href="#id2:glyph0-2" x="122.265625" y="128.609375"/>
  <use xlink:href="#id2:glyph0-4" x="122.265625" y="128.609375"/>
</g>
</g>
</g>
</svg>
