<?xml version="1.0" standalone="no"?>
<!DOCTYPE svg PUBLIC "-//W3C//DTD SVG 1.1//EN"
 "http://www.w3.org/Graphics/SVG/1.1/DTD/svg11.dtd">
<!-- Created with svg_stack (http://github.com/astraw/svg_stack) -->
<svg xmlns="http://www.w3.org/2000/svg" xmlns:sodipodi="http://sodipodi.sourceforge.net/DTD/sodipodi-0.dtd" xmlns:xlink="http://www.w3.org/1999/xlink" version="1.1" width="752.51953125" height="202.578125">
  <defs><g>
<symbol overflow="visible" id="id0:glyph0-0">
<path style="stroke:none;" d="M 11 13.203125 L 99 13.203125 L 99 -96.796875 L 11 -96.796875 Z M 55 -46.3125 L 20.015625 -91.296875 L 89.984375 -91.296875 Z M 58.515625 -41.796875 L 93.5 -86.796875 L 93.5 3.1875 Z M 20.015625 7.703125 L 55 -37.296875 L 89.984375 7.703125 Z M 16.5 -86.796875 L 51.484375 -41.796875 L 16.5 3.1875 Z M 16.5 -86.796875 "/>
</symbol>
<symbol overflow="visible" id="id0:glyph0-1">
<path style="stroke:none;" d="M 26.296875 -53.015625 C 22.765625 -53.015625 18.703125 -53.234375 15.296875 -53.796875 L 14.625 -52.25 C 14.40625 -51.921875 14.515625 -51.59375 14.953125 -51.15625 C 17.59375 -49.171875 21.234375 -47.078125 24.859375 -45.765625 C 26.734375 -46.421875 30.46875 -47.1875 32.671875 -47.296875 C 45.4375 -47.953125 66.4375 -49.9375 77.984375 -51.921875 C 77.328125 -43.453125 76.453125 -34.765625 75.234375 -27.71875 C 75.125 -26.84375 75.34375 -26.515625 75.90625 -26.40625 L 78.09375 -25.953125 C 78.65625 -25.953125 79.203125 -26.1875 79.421875 -26.84375 C 84.046875 -40.59375 87.78125 -60.71875 88 -73.921875 L 89.65625 -77.546875 C 89.875 -78.09375 89.875 -78.546875 89.4375 -78.984375 C 88.328125 -79.75 85.90625 -81.296875 84.59375 -81.953125 C 84.046875 -82.28125 83.375 -82.28125 82.71875 -81.953125 L 78.65625 -80.078125 C 70.296875 -79.640625 35.640625 -79.09375 29.8125 -79.09375 C 26.84375 -79.09375 22.546875 -79.421875 19.25 -80.078125 L 18.59375 -78.765625 C 18.375 -78.3125 18.375 -77.984375 18.921875 -77.546875 C 21.34375 -75.5625 24.96875 -73.484375 28.265625 -72.15625 C 30.90625 -73.046875 35.859375 -73.921875 38.71875 -74.03125 C 44.109375 -74.46875 69.515625 -74.90625 78.875 -74.796875 C 78.875 -69.625 78.65625 -63.25 78.203125 -56.546875 C 65.5625 -54.890625 39.59375 -53.125 26.296875 -53.015625 Z M 53.453125 -29.265625 L 54.015625 -33.875 C 54.125 -34.765625 53.796875 -35.3125 52.90625 -35.640625 C 50.046875 -36.515625 44 -37.296875 40.484375 -37.296875 C 39.703125 -37.296875 39.484375 -37.0625 39.375 -36.84375 L 38.71875 -34.3125 C 41.46875 -33.4375 44.109375 -32.015625 45.65625 -30.578125 L 45.765625 -11.328125 L 15.84375 -11.109375 C 12.4375 -11.109375 7.265625 -11.546875 3.625 -12.3125 L 2.859375 -10.671875 C 2.75 -10.34375 2.859375 -10.015625 3.1875 -9.796875 C 5.9375 -7.484375 10.015625 -5.171875 13.96875 -3.953125 C 16.609375 -4.84375 22.21875 -5.828125 24.96875 -6.046875 C 30.796875 -6.484375 81.1875 -7.046875 88.875 -6.9375 C 92.1875 -6.9375 98.671875 -6.703125 101.640625 -6.375 C 102.625 -6.9375 103.953125 -8.578125 103.953125 -10.453125 C 103.953125 -11.4375 103.296875 -11.984375 102.515625 -12.3125 C 99.984375 -13.09375 94.15625 -13.859375 90.203125 -13.96875 L 86.234375 -12.203125 C 82.609375 -11.984375 68.203125 -11.765625 53.234375 -11.4375 Z M 53.453125 -29.265625 "/>
</symbol>
<symbol overflow="visible" id="id0:glyph0-2">
<path style="stroke:none;" d=""/>
</symbol>
<symbol overflow="visible" id="id0:glyph0-3">
<path style="stroke:none;" d="M 42.6875 -21.234375 C 42.5625 -21.671875 42.234375 -21.78125 41.796875 -21.671875 C 36.1875 -20.015625 27.0625 -18.703125 21.125 -18.59375 C 19.796875 -18.59375 19.359375 -19.140625 19.359375 -20.234375 L 19.359375 -38.0625 L 36.40625 -38.828125 C 36.84375 -39.265625 37.515625 -40.265625 37.515625 -41.359375 C 37.515625 -41.6875 37.40625 -42.015625 36.953125 -42.34375 L 35.421875 -43.234375 C 36.078125 -47.40625 36.84375 -55.984375 36.84375 -60.5 L 37.953125 -63.25 C 38.171875 -63.90625 38.171875 -64.234375 37.734375 -64.5625 C 37.0625 -65.125 35.3125 -66 34.546875 -66.328125 C 33.984375 -66.546875 33.328125 -66.546875 32.890625 -66.328125 L 30.46875 -65.34375 C 27.5 -65.015625 18.703125 -64.796875 16.171875 -64.90625 C 14.1875 -64.90625 11.328125 -65.015625 9.234375 -65.453125 L 8.46875 -64.125 C 8.359375 -63.796875 8.46875 -63.46875 8.90625 -63.03125 C 10.5625 -61.59375 12.765625 -60.0625 15.0625 -59.0625 C 16.609375 -59.515625 18.8125 -60.0625 20.34375 -60.171875 C 21.78125 -60.390625 26.953125 -60.5 29.59375 -60.5 C 29.8125 -57.09375 29.703125 -47.078125 29.484375 -43.234375 L 28.484375 -42.90625 L 19.359375 -42.34375 C 17.15625 -42.5625 11.875 -42.6875 9.5625 -42.6875 C 8.796875 -42.6875 8.578125 -42.453125 8.46875 -42.125 L 8.03125 -40.15625 C 9.90625 -39.703125 11.4375 -38.828125 12.4375 -37.84375 L 12.4375 -21.34375 C 12.4375 -19.140625 12.546875 -17.375 12.875 -16.828125 C 14.078125 -13.96875 15.953125 -12.546875 19.46875 -12.546875 C 20.234375 -12.546875 21.78125 -12.546875 22.765625 -12.765625 C 28.59375 -13.3125 37.0625 -15.734375 42.6875 -18.59375 C 43.125 -18.8125 43.234375 -19.140625 43.125 -19.46875 Z M 67.546875 -60.9375 L 67.765625 -64.5625 C 67.875 -65.453125 67.546875 -65.890625 66.765625 -66.328125 C 64.6875 -67.203125 60.9375 -68.09375 58.296875 -68.3125 C 57.53125 -68.3125 57.3125 -68.203125 57.09375 -67.765625 L 56.203125 -65.234375 C 58.296875 -64.34375 59.84375 -63.25 60.609375 -62.046875 L 60.609375 -45.203125 L 49.71875 -45.09375 L 49.828125 -58.1875 L 49.9375 -61.8125 C 49.9375 -62.703125 49.71875 -63.25 48.953125 -63.46875 C 46.96875 -64.125 43.5625 -64.90625 41.03125 -65.015625 C 40.265625 -65.015625 39.9375 -64.796875 39.8125 -64.453125 L 39.046875 -61.9375 C 40.8125 -61.265625 42.234375 -60.171875 42.90625 -59.1875 L 43.453125 -18.375 C 43.453125 -16.609375 43.78125 -14.1875 44.21875 -12.65625 L 47.734375 -12.65625 C 48.40625 -13.53125 48.953125 -14.625 49.28125 -16.28125 L 66.765625 -16.390625 L 66 -14.84375 C 65.453125 -14.296875 65.453125 -13.859375 65.890625 -13.640625 L 66.984375 -12.875 C 67.546875 -12.546875 67.984375 -12.546875 68.53125 -13.09375 C 74.46875 -20.5625 79.09375 -28.375 82.390625 -36.1875 L 91.734375 -17.046875 C 92.1875 -16.171875 92.84375 -15.1875 93.390625 -14.84375 C 94.265625 -14.296875 95.921875 -14.515625 96.6875 -15.40625 C 97.125 -15.84375 97.234375 -16.71875 97.125 -18.046875 C 96.90625 -20.015625 95.921875 -23.765625 95.046875 -26.296875 L 91.625 -29.15625 L 84.703125 -42.015625 C 86.796875 -47.953125 88.109375 -53.90625 88.765625 -59.625 C 88.875 -60.171875 88.984375 -61.046875 88.875 -61.703125 C 88.875 -62.59375 88.546875 -63.25 87.78125 -63.6875 C 85.6875 -65.125 80.515625 -66.984375 76.78125 -67.765625 C 76.015625 -67.875 75.796875 -67.65625 75.5625 -67.203125 L 74.25 -64.90625 C 76.890625 -63.578125 79.3125 -61.59375 80.40625 -59.953125 C 79.203125 -47.734375 75.015625 -33.21875 68.640625 -19.90625 C 68.640625 -20.234375 68.53125 -20.34375 68.203125 -20.5625 L 66.21875 -21.234375 C 66.765625 -23.875 67.203125 -28.046875 67.203125 -31.015625 Z M 49.71875 -40.15625 L 60.609375 -40.375 L 60.609375 -21.34375 L 49.609375 -21.234375 Z M 49.71875 -40.15625 "/>
</symbol>
</g>
<g>
<symbol overflow="visible" id="id1:glyph0-0">
<path style="stroke:none;" d="M 5.375 -96.6875 L 69.828125 -96.6875 L 69.828125 0 L 5.375 0 Z M 8.0625 -2.6875 L 67.140625 -2.6875 L 67.140625 -94 L 8.0625 -94 Z M 8.0625 -2.6875 "/>
</symbol>
<symbol overflow="visible" id="id1:glyph0-1">
<path style="stroke:none;" d="M 68.15625 -13.75 L 66.28125 -18.640625 L 88.09375 -27.390625 L 6.984375 -27.390625 L 6.984375 -34 L 88.09375 -34 L 66.28125 -42.75 L 68.15625 -47.640625 L 99.09375 -34.265625 L 99.09375 -27.125 Z M 68.15625 -13.75 "/>
</symbol>
</g>
<g>
<symbol overflow="visible" id="id2:glyph0-0">
<path style="stroke:none;" d="M 11 13.203125 L 99 13.203125 L 99 -96.796875 L 11 -96.796875 Z M 55 -46.3125 L 20.015625 -91.296875 L 89.984375 -91.296875 Z M 58.515625 -41.796875 L 93.5 -86.796875 L 93.5 3.1875 Z M 20.015625 7.703125 L 55 -37.296875 L 89.984375 7.703125 Z M 16.5 -86.796875 L 51.484375 -41.796875 L 16.5 3.1875 Z M 16.5 -86.796875 "/>
</symbol>
<symbol overflow="visible" id="id2:glyph0-1">
<path style="stroke:none;" d="M 26.296875 -53.015625 C 22.765625 -53.015625 18.703125 -53.234375 15.296875 -53.796875 L 14.625 -52.25 C 14.40625 -51.921875 14.515625 -51.59375 14.953125 -51.15625 C 17.59375 -49.171875 21.234375 -47.078125 24.859375 -45.765625 C 26.734375 -46.421875 30.46875 -47.1875 32.671875 -47.296875 C 45.4375 -47.953125 66.4375 -49.9375 77.984375 -51.921875 C 77.328125 -43.453125 76.453125 -34.765625 75.234375 -27.71875 C 75.125 -26.84375 75.34375 -26.515625 75.90625 -26.40625 L 78.09375 -25.953125 C 78.65625 -25.953125 79.203125 -26.1875 79.421875 -26.84375 C 84.046875 -40.59375 87.78125 -60.71875 88 -73.921875 L 89.65625 -77.546875 C 89.875 -78.09375 89.875 -78.546875 89.4375 -78.984375 C 88.328125 -79.75 85.90625 -81.296875 84.59375 -81.953125 C 84.046875 -82.28125 83.375 -82.28125 82.71875 -81.953125 L 78.65625 -80.078125 C 70.296875 -79.640625 35.640625 -79.09375 29.8125 -79.09375 C 26.84375 -79.09375 22.546875 -79.421875 19.25 -80.078125 L 18.59375 -78.765625 C 18.375 -78.3125 18.375 -77.984375 18.921875 -77.546875 C 21.34375 -75.5625 24.96875 -73.484375 28.265625 -72.15625 C 30.90625 -73.046875 35.859375 -73.921875 38.71875 -74.03125 C 44.109375 -74.46875 69.515625 -74.90625 78.875 -74.796875 C 78.875 -69.625 78.65625 -63.25 78.203125 -56.546875 C 65.5625 -54.890625 39.59375 -53.125 26.296875 -53.015625 Z M 53.453125 -29.265625 L 54.015625 -33.875 C 54.125 -34.765625 53.796875 -35.3125 52.90625 -35.640625 C 50.046875 -36.515625 44 -37.296875 40.484375 -37.296875 C 39.703125 -37.296875 39.484375 -37.0625 39.375 -36.84375 L 38.71875 -34.3125 C 41.46875 -33.4375 44.109375 -32.015625 45.65625 -30.578125 L 45.765625 -11.328125 L 15.84375 -11.109375 C 12.4375 -11.109375 7.265625 -11.546875 3.625 -12.3125 L 2.859375 -10.671875 C 2.75 -10.34375 2.859375 -10.015625 3.1875 -9.796875 C 5.9375 -7.484375 10.015625 -5.171875 13.96875 -3.953125 C 16.609375 -4.84375 22.21875 -5.828125 24.96875 -6.046875 C 30.796875 -6.484375 81.1875 -7.046875 88.875 -6.9375 C 92.1875 -6.9375 98.671875 -6.703125 101.640625 -6.375 C 102.625 -6.9375 103.953125 -8.578125 103.953125 -10.453125 C 103.953125 -11.4375 103.296875 -11.984375 102.515625 -12.3125 C 99.984375 -13.09375 94.15625 -13.859375 90.203125 -13.96875 L 86.234375 -12.203125 C 82.609375 -11.984375 68.203125 -11.765625 53.234375 -11.4375 Z M 53.453125 -29.265625 "/>
</symbol>
<symbol overflow="visible" id="id2:glyph0-2">
<path style="stroke:none;" d=""/>
</symbol>
<symbol overflow="visible" id="id2:glyph0-3">
<path style="stroke:none;" d="M 37.625 -4.953125 C 38.171875 -5.28125 38.71875 -6.15625 38.71875 -7.046875 C 38.71875 -7.484375 38.5 -7.703125 38.171875 -7.921875 L 36.84375 -8.6875 C 37.40625 -11 37.953125 -15.1875 38.171875 -17.484375 L 39.15625 -20.125 C 39.265625 -20.6875 39.265625 -21.015625 38.9375 -21.34375 C 38.390625 -21.78125 36.84375 -22.65625 36.078125 -22.984375 C 35.640625 -23.203125 34.984375 -23.203125 34.546875 -22.984375 L 31.90625 -22 C 29.8125 -21.5625 24.421875 -21.453125 22.765625 -21.453125 C 21.234375 -21.453125 19.140625 -21.5625 17.484375 -21.890625 L 16.71875 -20.796875 C 16.609375 -20.34375 16.71875 -19.90625 17.15625 -19.578125 C 18.375 -18.484375 20.125 -17.15625 21.890625 -16.28125 C 22.875 -16.71875 24.421875 -17.046875 25.515625 -17.265625 L 31.34375 -17.59375 C 31.453125 -15.734375 31.453125 -10.78125 31.234375 -8.578125 L 30.90625 -8.46875 C 29.046875 -8.140625 27.71875 -8.03125 25.84375 -7.921875 C 23.65625 -8.03125 20.015625 -8.140625 18.375 -8.140625 C 17.703125 -8.140625 17.484375 -7.921875 17.265625 -7.59375 L 16.828125 -5.71875 C 18.265625 -5.171875 19.25 -4.40625 19.796875 -3.40625 L 19.796875 3.296875 C 19.796875 5.390625 19.90625 6.9375 20.234375 7.59375 C 21.234375 10.125 23.09375 11.546875 26.1875 11.546875 C 26.953125 11.546875 28.484375 11.4375 29.375 11.328125 C 33.109375 10.890625 38.71875 9.125 42.34375 7.046875 C 42.796875 6.703125 43.015625 6.484375 42.90625 6.15625 L 42.34375 4.625 C 42.34375 4.296875 42.015625 4.0625 41.578125 4.1875 C 37.84375 5.28125 31.90625 5.9375 27.9375 5.9375 C 26.734375 5.9375 26.296875 5.390625 26.296875 4.296875 L 26.296875 -4.296875 Z M 86.90625 -0.65625 L 81.296875 -8.140625 C 82.828125 -11.984375 83.703125 -15.734375 84.15625 -19.359375 C 84.15625 -19.796875 84.15625 -20.34375 84.15625 -20.90625 C 84.15625 -21.5625 83.9375 -22.109375 83.375 -22.4375 C 81.734375 -23.3125 78.3125 -24.3125 76.015625 -24.640625 C 75.234375 -24.75 74.796875 -24.53125 74.578125 -24.3125 L 73.375 -22.21875 C 75.015625 -21.453125 76.5625 -20.125 77 -19.03125 C 76.125 -10.671875 72.265625 -0.765625 66.21875 7.703125 L 66.4375 6.484375 C 66.4375 5.9375 66.21875 5.609375 65.671875 5.28125 L 64.234375 4.84375 C 64.90625 2.96875 65.234375 0.765625 65.34375 -1.4375 L 65.5625 -17.703125 L 65.671875 -20.796875 C 65.78125 -21.5625 65.5625 -22 64.6875 -22.328125 C 63.03125 -23.203125 60.171875 -23.984375 57.859375 -24.203125 C 57.203125 -24.203125 56.984375 -24.09375 56.765625 -23.65625 L 55.984375 -21.453125 C 57.75 -20.6875 59.0625 -19.6875 59.625 -18.8125 L 59.625 -11 L 50.375 -10.78125 L 50.484375 -16.5 L 50.59375 -19.578125 C 50.59375 -20.453125 50.375 -20.90625 49.609375 -21.125 C 47.84375 -21.78125 44.875 -22.328125 42.6875 -22.546875 C 42.015625 -22.546875 41.796875 -22.328125 41.6875 -22 L 40.921875 -19.6875 C 42.5625 -19.03125 43.890625 -18.15625 44.546875 -17.265625 L 44.984375 7.265625 C 44.984375 8.6875 45.203125 10.34375 45.65625 11.4375 L 48.625 11.4375 C 49.0625 11 49.609375 10.234375 49.828125 9.234375 L 65.34375 9.015625 C 65.125 9.34375 65.125 9.6875 65.5625 10.015625 L 67.203125 11.109375 C 67.4375 11.328125 67.875 11.21875 68.421875 10.78125 C 73.046875 6.15625 76.671875 1.203125 79.3125 -3.953125 L 87.015625 8.359375 C 87.453125 9.015625 88.109375 9.6875 88.65625 9.796875 C 89.4375 10.125 90.859375 9.796875 91.40625 8.90625 C 91.625 8.578125 91.734375 8.03125 91.625 7.15625 C 91.515625 5.828125 90.859375 3.296875 90.203125 1.765625 Z M 50.375 -6.375 L 59.625 -6.703125 L 59.625 4.625 L 50.265625 4.734375 Z M 50.375 -6.375 "/>
</symbol>
</g>
</defs>
  <g id="id0:id0" transform="matrix(1.25,0,0,1.25,0.0,0.0)"><g id="id0:surface1">
<g style="fill:rgb(0%,0%,0%);fill-opacity:1;">
  <use xlink:href="#id0:glyph0-1" x="16" y="128.609375"/>
  <use xlink:href="#id0:glyph0-2" x="122.265625" y="128.609375"/>
  <use xlink:href="#id0:glyph0-3" x="122.265625" y="128.609375"/>
</g>
</g>
</g>
  <g id="id1:id1" transform="matrix(1.25,0,0,1.25,305.6640625,0.5859375)"><g id="id1:surface1">
<g style="fill:rgb(0%,0%,0%);fill-opacity:1;">
  <use xlink:href="#id1:glyph0-1" x="0" y="120.84375"/>
</g>
</g>
</g>
  <g id="id2:id2" transform="matrix(1.25,0,0,1.25,438.26171875,0.0)"><g id="id2:surface1">
<g style="fill:rgb(0%,0%,0%);fill-opacity:1;">
  <use xlink:href="#id2:glyph0-1" x="16" y="128.609375"/>
  <use xlink:href="#id2:glyph0-2" x="122.265625" y="128.609375"/>
  <use xlink:href="#id2:glyph0-2" x="122.265625" y="128.609375"/>
  <use xlink:href="#id2:glyph0-3" x="129.140625" y="128.609375"/>
</g>
</g>
</g>
</svg>
