<?xml version="1.0" standalone="no"?>
<!DOCTYPE svg PUBLIC "-//W3C//DTD SVG 1.1//EN"
 "http://www.w3.org/Graphics/SVG/1.1/DTD/svg11.dtd">
<!-- Created with svg_stack (http://github.com/astraw/svg_stack) -->
<svg xmlns="http://www.w3.org/2000/svg" xmlns:sodipodi="http://sodipodi.sourceforge.net/DTD/sodipodi-0.dtd" xmlns:xlink="http://www.w3.org/1999/xlink" version="1.1" width="718.61328125" height="204.1015625">
  <defs><g>
<symbol overflow="visible" id="id0:glyph0-0">
<path style="stroke:none;" d="M 11 13.203125 L 99 13.203125 L 99 -96.796875 L 11 -96.796875 Z M 55 -46.3125 L 20.015625 -91.296875 L 89.984375 -91.296875 Z M 58.515625 -41.796875 L 93.5 -86.796875 L 93.5 3.1875 Z M 20.015625 7.703125 L 55 -37.296875 L 89.984375 7.703125 Z M 16.5 -86.796875 L 51.484375 -41.796875 L 16.5 3.1875 Z M 16.5 -86.796875 "/>
</symbol>
<symbol overflow="visible" id="id0:glyph0-1">
<path style="stroke:none;" d="M 17.15625 -87.671875 L 17.15625 -57.3125 L 83.703125 -57.3125 L 83.703125 -87.671875 Z M 74.6875 -80.40625 L 74.6875 -64.5625 L 26.0625 -64.5625 L 26.0625 -80.40625 Z M 16.609375 0.328125 L 16.609375 7.484375 L 86.796875 7.484375 L 86.796875 0.328125 L 25.515625 0.328125 L 25.515625 -9.5625 L 83.8125 -9.5625 L 83.8125 -32.015625 L 71.609375 -32.015625 L 71.609375 -41.796875 L 95.375 -41.796875 L 95.375 -49.28125 L 5.5 -49.28125 L 5.5 -41.796875 L 30.03125 -41.796875 L 30.03125 -32.015625 L 16.390625 -32.015625 L 16.390625 -24.96875 L 74.90625 -24.96875 L 74.90625 -16.28125 L 16.609375 -16.28125 Z M 39.046875 -41.796875 L 62.484375 -41.796875 L 62.484375 -32.015625 L 39.046875 -32.015625 Z M 39.046875 -41.796875 "/>
</symbol>
</g>
<g>
<symbol overflow="visible" id="id1:glyph0-0">
<path style="stroke:none;" d="M 5.375 -96.6875 L 69.828125 -96.6875 L 69.828125 0 L 5.375 0 Z M 8.0625 -2.6875 L 67.140625 -2.6875 L 67.140625 -94 L 8.0625 -94 Z M 8.0625 -2.6875 "/>
</symbol>
<symbol overflow="visible" id="id1:glyph0-1">
<path style="stroke:none;" d="M 68.15625 -13.75 L 66.28125 -18.640625 L 88.09375 -27.390625 L 6.984375 -27.390625 L 6.984375 -34 L 88.09375 -34 L 66.28125 -42.75 L 68.15625 -47.640625 L 99.09375 -34.265625 L 99.09375 -27.125 Z M 68.15625 -13.75 "/>
</symbol>
</g>
<g>
<symbol overflow="visible" id="id2:glyph0-0">
<path style="stroke:none;" d="M 11 13.203125 L 99 13.203125 L 99 -96.796875 L 11 -96.796875 Z M 55 -46.3125 L 20.015625 -91.296875 L 89.984375 -91.296875 Z M 58.515625 -41.796875 L 93.5 -86.796875 L 93.5 3.1875 Z M 20.015625 7.703125 L 55 -37.296875 L 89.984375 7.703125 Z M 16.5 -86.796875 L 51.484375 -41.796875 L 16.5 3.1875 Z M 16.5 -86.796875 "/>
</symbol>
<symbol overflow="visible" id="id2:glyph0-1">
<path style="stroke:none;" d="M 16.609375 -82.71875 L 16.609375 -43.78125 L 84.375 -43.78125 L 84.375 -82.71875 Z M 75.5625 -75.34375 L 75.5625 -51.046875 L 25.296875 -51.046875 L 25.296875 -75.34375 Z M 75.5625 -75.34375 "/>
</symbol>
<symbol overflow="visible" id="id2:glyph0-2">
<path style="stroke:none;" d=""/>
</symbol>
<symbol overflow="visible" id="id2:glyph0-3">
<path style="stroke:none;" d="M 5.5 -43.890625 L 5.5 -36.734375 L 29.8125 -36.734375 L 29.8125 -27.609375 L 38.5 -27.609375 L 38.5 -36.734375 L 62.484375 -36.734375 L 62.484375 -27.609375 L 71.171875 -27.609375 L 71.171875 -36.734375 L 95.59375 -36.734375 L 95.59375 -43.890625 Z M 5.5 -43.890625 "/>
</symbol>
<symbol overflow="visible" id="id2:glyph0-4">
<path style="stroke:none;" d="M 17.375 3.84375 L 17.375 10.34375 L 84.15625 10.34375 L 84.15625 3.84375 L 26.0625 3.84375 L 26.0625 -3.625 L 83.9375 -3.625 L 83.9375 -23.09375 L 17.15625 -23.09375 L 17.15625 -17.15625 L 75.234375 -17.15625 L 75.234375 -9.90625 L 17.375 -9.90625 Z M 17.375 3.84375 "/>
</symbol>
</g>
</defs>
  <g id="id0:id0" transform="matrix(1.25,0,0,1.25,0.0,0.0)"><g id="id0:surface1">
<g style="fill:rgb(0%,0%,0%);fill-opacity:1;">
  <use xlink:href="#id0:glyph0-1" x="16" y="129.59375"/>
</g>
</g>
</g>
  <g id="id1:id1" transform="matrix(1.25,0,0,1.25,166.50390625,1.34765625)"><g id="id1:surface1">
<g style="fill:rgb(0%,0%,0%);fill-opacity:1;">
  <use xlink:href="#id1:glyph0-1" x="0" y="120.84375"/>
</g>
</g>
</g>
  <g id="id2:id2" transform="matrix(1.25,0,0,1.25,299.1015625,0.0)"><g id="id2:surface1">
<g style="fill:rgb(0%,0%,0%);fill-opacity:1;">
  <use xlink:href="#id2:glyph0-1" x="16" y="129.59375"/>
  <use xlink:href="#id2:glyph0-2" x="117.203125" y="129.59375"/>
  <use xlink:href="#id2:glyph0-3" x="117.203125" y="129.59375"/>
  <use xlink:href="#id2:glyph0-2" x="218.40625" y="129.59375"/>
  <use xlink:href="#id2:glyph0-4" x="218.40625" y="129.59375"/>
</g>
</g>
</g>
</svg>
