<?xml version="1.0" standalone="no"?>
<!DOCTYPE svg PUBLIC "-//W3C//DTD SVG 1.1//EN"
 "http://www.w3.org/Graphics/SVG/1.1/DTD/svg11.dtd">
<!-- Created with svg_stack (http://github.com/astraw/svg_stack) -->
<svg xmlns="http://www.w3.org/2000/svg" xmlns:sodipodi="http://sodipodi.sourceforge.net/DTD/sodipodi-0.dtd" xmlns:xlink="http://www.w3.org/1999/xlink" version="1.1" width="718.61328125" height="204.1015625">
  <defs><g>
<symbol overflow="visible" id="id0:glyph0-0">
<path style="stroke:none;" d="M 11 13.203125 L 99 13.203125 L 99 -96.796875 L 11 -96.796875 Z M 55 -46.3125 L 20.015625 -91.296875 L 89.984375 -91.296875 Z M 58.515625 -41.796875 L 93.5 -86.796875 L 93.5 3.1875 Z M 20.015625 7.703125 L 55 -37.296875 L 89.984375 7.703125 Z M 16.5 -86.796875 L 51.484375 -41.796875 L 16.5 3.1875 Z M 16.5 -86.796875 "/>
</symbol>
<symbol overflow="visible" id="id0:glyph0-1">
<path style="stroke:none;" d="M 53.90625 -82.609375 L 53.90625 -44.546875 L 84.375 -44.546875 L 84.375 -82.609375 L 76.34375 -82.609375 L 76.34375 -71.5 L 61.9375 -71.5 L 61.9375 -82.609375 Z M 61.9375 -65.015625 L 76.34375 -65.015625 L 76.34375 -51.265625 L 61.9375 -51.265625 Z M 16.71875 -82.609375 L 16.71875 -44.546875 L 47.1875 -44.546875 L 47.1875 -82.609375 L 39.15625 -82.609375 L 39.15625 -71.5 L 24.75 -71.5 L 24.75 -82.609375 Z M 24.75 -65.015625 L 39.15625 -65.015625 L 39.15625 -51.265625 L 24.75 -51.265625 Z M 24.75 -65.015625 "/>
</symbol>
<symbol overflow="visible" id="id0:glyph0-2">
<path style="stroke:none;" d=""/>
</symbol>
<symbol overflow="visible" id="id0:glyph0-3">
<path style="stroke:none;" d="M 77.21875 -90.859375 L 77.21875 -32.015625 L 85.6875 -32.015625 L 85.6875 -90.859375 Z M 7.265625 -36.515625 C 15.0625 -36.515625 23.875 -36.734375 32.890625 -37.1875 L 32.890625 -30.46875 L 40.703125 -30.46875 L 40.703125 -37.625 C 50.703125 -38.28125 60.828125 -39.265625 70.296875 -40.59375 L 69.734375 -47.1875 C 49.5 -44.765625 24.96875 -44.21875 5.9375 -44.109375 Z M 7.265625 -36.515625 "/>
</symbol>
<symbol overflow="visible" id="id0:glyph0-4">
<path style="stroke:none;" d="M 17.375 -23.09375 L 17.375 8.359375 L 84.046875 8.359375 L 84.046875 -23.09375 L 75.5625 -23.09375 L 75.5625 -14.515625 L 25.84375 -14.515625 L 25.84375 -23.09375 Z M 25.84375 -7.921875 L 75.5625 -7.921875 L 75.5625 1.65625 L 25.84375 1.65625 Z M 25.84375 -7.921875 "/>
</symbol>
</g>
<g>
<symbol overflow="visible" id="id1:glyph0-0">
<path style="stroke:none;" d="M 5.375 -96.6875 L 69.828125 -96.6875 L 69.828125 0 L 5.375 0 Z M 8.0625 -2.6875 L 67.140625 -2.6875 L 67.140625 -94 L 8.0625 -94 Z M 8.0625 -2.6875 "/>
</symbol>
<symbol overflow="visible" id="id1:glyph0-1">
<path style="stroke:none;" d="M 68.15625 -13.75 L 66.28125 -18.640625 L 88.09375 -27.390625 L 6.984375 -27.390625 L 6.984375 -34 L 88.09375 -34 L 66.28125 -42.75 L 68.15625 -47.640625 L 99.09375 -34.265625 L 99.09375 -27.125 Z M 68.15625 -13.75 "/>
</symbol>
</g>
<g>
<symbol overflow="visible" id="id2:glyph0-0">
<path style="stroke:none;" d="M 11 13.203125 L 99 13.203125 L 99 -96.796875 L 11 -96.796875 Z M 55 -46.3125 L 20.015625 -91.296875 L 89.984375 -91.296875 Z M 58.515625 -41.796875 L 93.5 -86.796875 L 93.5 3.1875 Z M 20.015625 7.703125 L 55 -37.296875 L 89.984375 7.703125 Z M 16.5 -86.796875 L 51.484375 -41.796875 L 16.5 3.1875 Z M 16.5 -86.796875 "/>
</symbol>
<symbol overflow="visible" id="id2:glyph0-1">
<path style="stroke:none;" d="M 77.984375 -90.859375 L 77.984375 -31.34375 L 86.6875 -31.34375 L 86.6875 -90.859375 Z M 9.453125 -86.5625 L 9.453125 -54.890625 L 35.53125 -54.890625 L 35.53125 -86.5625 L 28.15625 -86.5625 L 28.15625 -77.765625 L 16.71875 -77.765625 L 16.71875 -86.5625 Z M 16.71875 -70.84375 L 28.15625 -70.84375 L 28.15625 -62.15625 L 16.71875 -62.15625 Z M 40.484375 -86.5625 L 40.484375 -54.890625 L 66.4375 -54.890625 L 66.4375 -86.5625 L 59.0625 -86.5625 L 59.0625 -77.65625 L 47.734375 -77.65625 L 47.734375 -86.5625 Z M 47.734375 -70.625 L 59.0625 -70.625 L 59.0625 -62.15625 L 47.734375 -62.15625 Z M 19.90625 -27.71875 L 19.90625 7.703125 L 86.6875 7.703125 L 86.6875 -27.71875 L 77.65625 -27.71875 L 77.65625 -16.71875 L 28.9375 -16.71875 L 28.9375 -27.71875 Z M 28.9375 -9.90625 L 77.65625 -9.90625 L 77.65625 0.546875 L 28.9375 0.546875 Z M 6.375 -39.375 C 15.0625 -39.484375 24.203125 -39.703125 33.328125 -40.046875 L 33.328125 -26.40625 L 42.453125 -26.40625 L 42.453125 -40.484375 C 52.578125 -40.921875 62.59375 -41.578125 72.046875 -42.453125 L 71.28125 -49.390625 C 50.265625 -48.0625 27.0625 -47.40625 5.171875 -47.296875 Z M 6.375 -39.375 "/>
</symbol>
</g>
</defs>
  <g id="id0:id0" transform="matrix(1.25,0,0,1.25,0.0,0.0)"><g id="id0:surface1">
<g style="fill:rgb(0%,0%,0%);fill-opacity:1;">
  <use xlink:href="#id0:glyph0-1" x="16" y="129.59375"/>
  <use xlink:href="#id0:glyph0-2" x="117.203125" y="129.59375"/>
  <use xlink:href="#id0:glyph0-3" x="117.203125" y="129.59375"/>
  <use xlink:href="#id0:glyph0-2" x="218.40625" y="129.59375"/>
  <use xlink:href="#id0:glyph0-4" x="218.40625" y="129.59375"/>
</g>
</g>
</g>
  <g id="id1:id1" transform="matrix(1.25,0,0,1.25,419.51171875,1.34765625)"><g id="id1:surface1">
<g style="fill:rgb(0%,0%,0%);fill-opacity:1;">
  <use xlink:href="#id1:glyph0-1" x="0" y="120.84375"/>
</g>
</g>
</g>
  <g id="id2:id2" transform="matrix(1.25,0,0,1.25,552.109375,0.0)"><g id="id2:surface1">
<g style="fill:rgb(0%,0%,0%);fill-opacity:1;">
  <use xlink:href="#id2:glyph0-1" x="16" y="129.59375"/>
</g>
</g>
</g>
</svg>
