<!DOCTYPE svg PUBLIC "-//W3C//DTD SVG 1.1//EN" "http://www.w3.org/Graphics/SVG/1.1/DTD/svg11.dtd">
<!-- Created with svg_stack (http://github.com/astraw/svg_stack) --><svg xmlns="http://www.w3.org/2000/svg" xmlns:sodipodi="http://sodipodi.sourceforge.net/DTD/sodipodi-0.dtd" xmlns:xlink="http://www.w3.org/1999/xlink" version="1.1" width="876.7578125" height="202.578125" id="hangul-vjmo">
  <defs><g>
<symbol overflow="visible" id="hangul-vjmo:id0:glyph0-0">
<path style="stroke:none;" d="M 11 13.203125 L 99 13.203125 L 99 -96.796875 L 11 -96.796875 Z M 55 -46.3125 L 20.015625 -91.296875 L 89.984375 -91.296875 Z M 58.515625 -41.796875 L 93.5 -86.796875 L 93.5 3.1875 Z M 20.015625 7.703125 L 55 -37.296875 L 89.984375 7.703125 Z M 16.5 -86.796875 L 51.484375 -41.796875 L 16.5 3.1875 Z M 16.5 -86.796875 "/>
</symbol>
<symbol overflow="visible" id="hangul-vjmo:id0:glyph0-1">
<path style="stroke:none;" d="M 26.953125 -63.25 C 23.65625 -63.140625 19.796875 -63.359375 16.390625 -63.796875 L 15.625 -62.375 C 15.40625 -61.9375 15.515625 -61.59375 15.953125 -61.265625 C 18.59375 -59.296875 22.109375 -57.3125 25.515625 -55.984375 C 27.5 -56.765625 31.125 -57.421875 33.328125 -57.640625 C 45.09375 -58.1875 63.6875 -60.0625 75.125 -61.8125 C 74.578125 -55.21875 73.8125 -48.515625 72.8125 -43.125 C 72.703125 -42.125 72.9375 -41.90625 73.484375 -41.796875 L 75.796875 -41.25 C 76.234375 -41.25 76.78125 -41.46875 77.109375 -42.015625 C 81.1875 -52.25 84.59375 -67.09375 85.03125 -77.4375 L 86.6875 -80.953125 C 86.90625 -81.515625 86.90625 -81.953125 86.453125 -82.390625 C 85.578125 -83.046875 83.046875 -84.59375 81.734375 -85.25 C 81.1875 -85.46875 80.515625 -85.46875 79.859375 -85.25 L 75.5625 -83.15625 C 67.546875 -82.828125 36.40625 -82.390625 31.015625 -82.390625 C 27.9375 -82.390625 23.65625 -82.71875 20.453125 -83.375 L 19.796875 -82.0625 C 19.6875 -81.625 19.6875 -81.40625 20.125 -80.953125 C 22.546875 -78.984375 26.0625 -76.78125 29.484375 -75.5625 C 32.015625 -76.453125 36.953125 -77.328125 39.703125 -77.4375 C 44.65625 -77.765625 67.546875 -78.203125 75.90625 -78.203125 C 75.90625 -74.796875 75.796875 -70.625 75.453125 -66.21875 C 62.703125 -64.796875 39.375 -63.359375 26.953125 -63.25 Z M 26.953125 -63.25 "/>
</symbol>
<symbol overflow="visible" id="hangul-vjmo:id0:glyph0-2">
<path style="stroke:none;" d=""/>
</symbol>
<symbol overflow="visible" id="hangul-vjmo:id0:glyph0-3">
<path style="stroke:none;" d="M 58.078125 -46.640625 L 58.625 -51.046875 C 58.734375 -51.921875 58.40625 -52.578125 57.53125 -52.796875 C 55 -53.5625 49.609375 -54.234375 46.3125 -54.34375 C 45.4375 -54.34375 45.203125 -54.015625 45.09375 -53.796875 L 44.328125 -51.375 C 46.75 -50.59375 49.171875 -49.171875 50.375 -47.734375 L 50.375 -41.6875 C 34.65625 -41.46875 19.140625 -41.359375 15.84375 -41.359375 C 12.4375 -41.46875 7.265625 -41.90625 3.625 -42.5625 L 2.859375 -41.03125 C 2.75 -40.59375 2.859375 -40.265625 3.1875 -40.046875 C 5.9375 -37.84375 10.015625 -35.53125 13.96875 -34.3125 C 16.609375 -35.203125 22.21875 -36.296875 24.96875 -36.515625 C 30.796875 -36.84375 81.1875 -37.515625 88.875 -37.40625 C 92.1875 -37.40625 98.671875 -37.1875 101.640625 -36.84375 C 102.625 -37.296875 103.953125 -38.9375 103.953125 -40.8125 C 103.953125 -41.6875 103.296875 -42.34375 102.515625 -42.5625 C 99.984375 -43.453125 94.15625 -44.109375 90.203125 -44.21875 L 86.234375 -42.453125 C 82.9375 -42.234375 71.0625 -42.015625 57.859375 -41.796875 Z M 58.078125 -46.640625 "/>
</symbol>
<symbol overflow="visible" id="hangul-vjmo:id0:glyph0-4">
<path style="stroke:none;" d="M 82.828125 -3.953125 L 74.25 -12.875 C 75.125 -14.515625 75.90625 -16.28125 76.453125 -18.046875 C 76.5625 -18.703125 76.671875 -19.46875 76.671875 -20.34375 C 76.671875 -21.234375 76.234375 -21.890625 75.453125 -22.546875 C 73.375 -23.875 67.875 -26.1875 64.234375 -26.953125 C 63.46875 -27.0625 63.140625 -26.953125 62.8125 -26.515625 L 61.59375 -24.203125 C 64.234375 -22.765625 66.875 -20.34375 67.765625 -18.484375 C 65.125 -9.125 57.859375 1.203125 48.1875 9.6875 C 47.625 10.015625 47.625 10.453125 47.953125 10.671875 L 49.171875 11.65625 C 49.5 11.984375 49.828125 11.984375 50.375 11.546875 C 59.625 5.828125 66.875 -1.09375 71.71875 -8.46875 L 85.46875 7.484375 C 86.015625 8.25 86.90625 9.015625 87.5625 9.125 C 88.65625 9.5625 90.421875 8.90625 91.078125 7.703125 C 91.296875 7.15625 91.296875 6.375 90.859375 5.171875 C 90.203125 3.40625 88.546875 0.328125 87.234375 -1.765625 Z M 49.28125 -7.703125 L 43.015625 -13.640625 C 43.890625 -14.953125 44.65625 -16.390625 45.3125 -17.703125 C 45.65625 -18.265625 45.765625 -19.03125 45.765625 -20.015625 C 45.765625 -20.90625 45.3125 -21.5625 44.4375 -22 C 42.34375 -23.3125 37.1875 -24.96875 33.328125 -25.625 C 32.671875 -25.734375 32.34375 -25.515625 32.125 -25.1875 L 30.796875 -22.765625 C 33.328125 -21.5625 35.75 -19.578125 36.84375 -18.046875 C 32.890625 -9.234375 24.09375 0.109375 12.765625 7.375 C 12.3125 7.703125 12.3125 8.140625 12.65625 8.46875 L 13.75 9.453125 C 14.1875 9.6875 14.40625 9.6875 14.953125 9.34375 C 25.625 4.40625 34.3125 -2.3125 40.15625 -9.6875 L 50.15625 1.4375 C 50.703125 2.09375 51.59375 2.75 52.140625 2.859375 C 53.234375 2.96875 54.78125 2.421875 55.328125 1.3125 C 55.546875 0.765625 55.4375 0.109375 55.21875 -0.765625 C 54.78125 -2.3125 53.6875 -4.734375 52.6875 -6.375 Z M 49.28125 -7.703125 "/>
</symbol>
</g>
<g>
<symbol overflow="visible" id="hangul-vjmo:id1:glyph0-0">
<path style="stroke:none;" d="M 5.375 -96.6875 L 69.828125 -96.6875 L 69.828125 0 L 5.375 0 Z M 8.0625 -2.6875 L 67.140625 -2.6875 L 67.140625 -94 L 8.0625 -94 Z M 8.0625 -2.6875 "/>
</symbol>
<symbol overflow="visible" id="hangul-vjmo:id1:glyph0-1">
<path style="stroke:none;" d="M 68.15625 -13.75 L 66.28125 -18.640625 L 88.09375 -27.390625 L 6.984375 -27.390625 L 6.984375 -34 L 88.09375 -34 L 66.28125 -42.75 L 68.15625 -47.640625 L 99.09375 -34.265625 L 99.09375 -27.125 Z M 68.15625 -13.75 "/>
</symbol>
</g>
<g>
<symbol overflow="visible" id="hangul-vjmo:id2:glyph0-0">
<path style="stroke:none;" d="M 11 13.203125 L 99 13.203125 L 99 -96.796875 L 11 -96.796875 Z M 55 -46.3125 L 20.015625 -91.296875 L 89.984375 -91.296875 Z M 58.515625 -41.796875 L 93.5 -86.796875 L 93.5 3.1875 Z M 20.015625 7.703125 L 55 -37.296875 L 89.984375 7.703125 Z M 16.5 -86.796875 L 51.484375 -41.796875 L 16.5 3.1875 Z M 16.5 -86.796875 "/>
</symbol>
<symbol overflow="visible" id="hangul-vjmo:id2:glyph0-1">
<path style="stroke:none;" d="M 26.296875 -53.015625 C 22.765625 -53.015625 18.703125 -53.234375 15.296875 -53.796875 L 14.625 -52.25 C 14.40625 -51.921875 14.515625 -51.59375 14.953125 -51.15625 C 17.59375 -49.171875 21.234375 -47.078125 24.859375 -45.765625 C 26.734375 -46.421875 30.46875 -47.1875 32.671875 -47.296875 C 45.4375 -47.953125 66.4375 -49.9375 77.984375 -51.921875 C 77.328125 -43.453125 76.453125 -34.765625 75.234375 -27.71875 C 75.125 -26.84375 75.34375 -26.515625 75.90625 -26.40625 L 78.09375 -25.953125 C 78.65625 -25.953125 79.203125 -26.1875 79.421875 -26.84375 C 84.046875 -40.59375 87.78125 -60.71875 88 -73.921875 L 89.65625 -77.546875 C 89.875 -78.09375 89.875 -78.546875 89.4375 -78.984375 C 88.328125 -79.75 85.90625 -81.296875 84.59375 -81.953125 C 84.046875 -82.28125 83.375 -82.28125 82.71875 -81.953125 L 78.65625 -80.078125 C 70.296875 -79.640625 35.640625 -79.09375 29.8125 -79.09375 C 26.84375 -79.09375 22.546875 -79.421875 19.25 -80.078125 L 18.59375 -78.765625 C 18.375 -78.3125 18.375 -77.984375 18.921875 -77.546875 C 21.34375 -75.5625 24.96875 -73.484375 28.265625 -72.15625 C 30.90625 -73.046875 35.859375 -73.921875 38.71875 -74.03125 C 44.109375 -74.46875 69.515625 -74.90625 78.875 -74.796875 C 78.875 -69.625 78.65625 -63.25 78.203125 -56.546875 C 65.5625 -54.890625 39.59375 -53.125 26.296875 -53.015625 Z M 53.453125 -29.265625 L 54.015625 -33.875 C 54.125 -34.765625 53.796875 -35.3125 52.90625 -35.640625 C 50.046875 -36.515625 44 -37.296875 40.484375 -37.296875 C 39.703125 -37.296875 39.484375 -37.0625 39.375 -36.84375 L 38.71875 -34.3125 C 41.46875 -33.4375 44.109375 -32.015625 45.65625 -30.578125 L 45.765625 -11.328125 L 15.84375 -11.109375 C 12.4375 -11.109375 7.265625 -11.546875 3.625 -12.3125 L 2.859375 -10.671875 C 2.75 -10.34375 2.859375 -10.015625 3.1875 -9.796875 C 5.9375 -7.484375 10.015625 -5.171875 13.96875 -3.953125 C 16.609375 -4.84375 22.21875 -5.828125 24.96875 -6.046875 C 30.796875 -6.484375 81.1875 -7.046875 88.875 -6.9375 C 92.1875 -6.9375 98.671875 -6.703125 101.640625 -6.375 C 102.625 -6.9375 103.953125 -8.578125 103.953125 -10.453125 C 103.953125 -11.4375 103.296875 -11.984375 102.515625 -12.3125 C 99.984375 -13.09375 94.15625 -13.859375 90.203125 -13.96875 L 86.234375 -12.203125 C 82.609375 -11.984375 68.203125 -11.765625 53.234375 -11.4375 Z M 53.453125 -29.265625 "/>
</symbol>
<symbol overflow="visible" id="hangul-vjmo:id2:glyph0-2">
<path style="stroke:none;" d=""/>
</symbol>
<symbol overflow="visible" id="hangul-vjmo:id2:glyph0-3">
<path style="stroke:none;" d="M 82.828125 -3.953125 L 74.25 -12.875 C 75.125 -14.515625 75.90625 -16.28125 76.453125 -18.046875 C 76.5625 -18.703125 76.671875 -19.46875 76.671875 -20.34375 C 76.671875 -21.234375 76.234375 -21.890625 75.453125 -22.546875 C 73.375 -23.875 67.875 -26.1875 64.234375 -26.953125 C 63.46875 -27.0625 63.140625 -26.953125 62.8125 -26.515625 L 61.59375 -24.203125 C 64.234375 -22.765625 66.875 -20.34375 67.765625 -18.484375 C 65.125 -9.125 57.859375 1.203125 48.1875 9.6875 C 47.625 10.015625 47.625 10.453125 47.953125 10.671875 L 49.171875 11.65625 C 49.5 11.984375 49.828125 11.984375 50.375 11.546875 C 59.625 5.828125 66.875 -1.09375 71.71875 -8.46875 L 85.46875 7.484375 C 86.015625 8.25 86.90625 9.015625 87.5625 9.125 C 88.65625 9.5625 90.421875 8.90625 91.078125 7.703125 C 91.296875 7.15625 91.296875 6.375 90.859375 5.171875 C 90.203125 3.40625 88.546875 0.328125 87.234375 -1.765625 Z M 49.28125 -7.703125 L 43.015625 -13.640625 C 43.890625 -14.953125 44.65625 -16.390625 45.3125 -17.703125 C 45.65625 -18.265625 45.765625 -19.03125 45.765625 -20.015625 C 45.765625 -20.90625 45.3125 -21.5625 44.4375 -22 C 42.34375 -23.3125 37.1875 -24.96875 33.328125 -25.625 C 32.671875 -25.734375 32.34375 -25.515625 32.125 -25.1875 L 30.796875 -22.765625 C 33.328125 -21.5625 35.75 -19.578125 36.84375 -18.046875 C 32.890625 -9.234375 24.09375 0.109375 12.765625 7.375 C 12.3125 7.703125 12.3125 8.140625 12.65625 8.46875 L 13.75 9.453125 C 14.1875 9.6875 14.40625 9.6875 14.953125 9.34375 C 25.625 4.40625 34.3125 -2.3125 40.15625 -9.6875 L 50.15625 1.4375 C 50.703125 2.09375 51.59375 2.75 52.140625 2.859375 C 53.234375 2.96875 54.78125 2.421875 55.328125 1.3125 C 55.546875 0.765625 55.4375 0.109375 55.21875 -0.765625 C 54.78125 -2.3125 53.6875 -4.734375 52.6875 -6.375 Z M 49.28125 -7.703125 "/>
</symbol>
</g>
</defs>
  <g id="hangul-vjmo:id0:id0" transform="matrix(1.25,0,0,1.25,0.0,0.0)"><g id="hangul-vjmo:id0:surface1">
<g style="fill:rgb(0%,0%,0%);fill-opacity:1;">
  <use xlink:href="#hangul-vjmo:id0:glyph0-1" x="16" y="128.609375" class="c0"/>
  <use xlink:href="#hangul-vjmo:id0:glyph0-2" x="122.265625" y="128.609375" class="z"/>
  <use xlink:href="#hangul-vjmo:id0:glyph0-3" x="122.265625" y="128.609375" class="c1"/>
  <use xlink:href="#hangul-vjmo:id0:glyph0-2" x="228.53125" y="128.609375" class="z"/>
  <use xlink:href="#hangul-vjmo:id0:glyph0-4" x="228.53125" y="128.609375" class="c2"/>
</g>
</g>
</g>
  <g id="hangul-vjmo:id1:id1" transform="matrix(1.25,0,0,1.25,438.49609375,0.5859375)"><g id="hangul-vjmo:id1:surface1">
<g style="fill:rgb(0%,0%,0%);fill-opacity:1;">
  <use xlink:href="#hangul-vjmo:id1:glyph0-1" x="0" y="120.84375" class="arrow"/>
</g>
</g>
</g>
  <g id="hangul-vjmo:id2:id2" transform="matrix(1.25,0,0,1.25,571.09375,0.0)"><g id="hangul-vjmo:id2:surface1">
<g style="fill:rgb(0%,0%,0%);fill-opacity:1;">
  <use xlink:href="#hangul-vjmo:id2:glyph0-1" x="16" y="128.609375" class="c3"/>
  <use xlink:href="#hangul-vjmo:id2:glyph0-2" x="122.265625" y="128.609375" class="z"/>
  <use xlink:href="#hangul-vjmo:id2:glyph0-3" x="122.265625" y="128.609375" class="c2"/>
</g>
</g>
</g>
</svg>
