<?xml version="1.0" standalone="no"?>
<!DOCTYPE svg PUBLIC "-//W3C//DTD SVG 1.1//EN"
 "http://www.w3.org/Graphics/SVG/1.1/DTD/svg11.dtd">
<!-- Created with svg_stack (http://github.com/astraw/svg_stack) -->
<svg xmlns="http://www.w3.org/2000/svg" xmlns:sodipodi="http://sodipodi.sourceforge.net/DTD/sodipodi-0.dtd" xmlns:xlink="http://www.w3.org/1999/xlink" version="1.1" width="743.92578125" height="202.578125">
  <defs><g>
<symbol overflow="visible" id="id0:glyph0-0">
<path style="stroke:none;" d="M 11 13.203125 L 99 13.203125 L 99 -96.796875 L 11 -96.796875 Z M 55 -46.3125 L 20.015625 -91.296875 L 89.984375 -91.296875 Z M 58.515625 -41.796875 L 93.5 -86.796875 L 93.5 3.1875 Z M 20.015625 7.703125 L 55 -37.296875 L 89.984375 7.703125 Z M 16.5 -86.796875 L 51.484375 -41.796875 L 16.5 3.1875 Z M 16.5 -86.796875 "/>
</symbol>
<symbol overflow="visible" id="id0:glyph0-1">
<path style="stroke:none;" d="M 27.171875 -54.125 C 27.71875 -54.78125 28.265625 -55.65625 28.59375 -57.09375 L 50.15625 -57.203125 C 50.59375 -57.640625 51.046875 -58.734375 51.046875 -59.84375 C 51.046875 -60.5 50.8125 -60.828125 50.265625 -60.9375 L 48.40625 -61.59375 C 49.0625 -63.140625 49.28125 -64.90625 49.28125 -66.984375 L 49.5 -80.734375 L 49.71875 -84.265625 C 49.71875 -85.140625 49.390625 -85.578125 48.625 -86.015625 C 46.421875 -86.796875 42.453125 -87.5625 39.59375 -87.78125 C 38.9375 -87.890625 38.609375 -87.671875 38.5 -87.34375 L 37.625 -84.8125 C 39.8125 -84.046875 41.6875 -82.828125 42.796875 -81.625 L 42.796875 -75.453125 L 29.265625 -75.234375 L 29.375 -77.984375 L 29.484375 -81.734375 C 29.484375 -82.609375 29.15625 -83.046875 28.375 -83.375 C 26.0625 -84.15625 22.21875 -84.703125 19.359375 -84.921875 C 18.59375 -84.921875 18.375 -84.703125 18.15625 -84.375 L 17.265625 -81.84375 C 19.46875 -81.1875 21.453125 -80.078125 22.4375 -78.984375 L 22.875 -59.296875 C 22.875 -57.640625 23.09375 -55.546875 23.765625 -54.125 Z M 42.796875 -61.59375 L 29.046875 -61.484375 L 29.265625 -71.171875 L 42.796875 -71.390625 Z M 85.359375 -84.046875 L 85.578125 -87.671875 C 85.578125 -88.4375 85.25 -88.875 84.484375 -89.3125 C 82.390625 -90.09375 78.4375 -90.859375 75.5625 -91.078125 C 74.90625 -91.078125 74.578125 -90.96875 74.46875 -90.640625 L 73.59375 -88.109375 C 75.796875 -87.34375 77.65625 -86.125 78.765625 -84.921875 L 78.765625 -77 L 64.453125 -76.78125 L 64.5625 -81.515625 L 64.796875 -85.25 C 64.796875 -86.125 64.453125 -86.5625 63.6875 -86.90625 C 61.484375 -87.671875 57.75 -88.21875 55 -88.328125 C 54.234375 -88.328125 54.015625 -88.21875 53.796875 -87.890625 L 52.90625 -85.359375 C 55.109375 -84.703125 56.875 -83.59375 57.859375 -82.5 L 58.296875 -60.171875 C 58.296875 -58.40625 58.515625 -56.3125 59.0625 -55 L 62.484375 -55 C 63.03125 -55.65625 63.6875 -56.65625 64.015625 -58.078125 L 85.6875 -58.296875 C 86.234375 -58.734375 86.5625 -59.84375 86.5625 -60.9375 C 86.5625 -61.484375 86.34375 -61.8125 85.796875 -62.046875 L 84.265625 -62.484375 C 84.8125 -64.125 85.140625 -66 85.140625 -68.09375 Z M 64.453125 -72.703125 L 78.765625 -72.9375 L 78.765625 -62.703125 L 64.34375 -62.59375 Z M 64.453125 -72.703125 "/>
</symbol>
<symbol overflow="visible" id="id0:glyph0-2">
<path style="stroke:none;" d=""/>
</symbol>
<symbol overflow="visible" id="id0:glyph0-3">
<path style="stroke:none;" d="M 88.328125 -28.484375 C 89.875 -32.34375 90.859375 -39.15625 90.859375 -45.65625 L 90.859375 -83.15625 L 91.078125 -88.765625 C 91.1875 -89.875 90.75 -90.640625 89.875 -90.96875 C 86.796875 -92.296875 79.96875 -93.71875 76.125 -93.828125 C 75.234375 -93.828125 74.90625 -93.609375 74.796875 -93.28125 L 73.921875 -90.53125 C 77.765625 -89.3125 81.1875 -87.34375 83.046875 -85.140625 L 83.046875 -49.9375 C 66.21875 -46.75 33 -43.890625 15.734375 -43.5625 C 12.203125 -43.453125 7.921875 -43.78125 4.515625 -44.546875 L 3.734375 -43.015625 C 3.515625 -42.5625 3.625 -42.234375 4.0625 -41.90625 C 6.8125 -39.59375 10.671875 -37.296875 14.296875 -35.640625 C 16.28125 -36.515625 20.5625 -37.40625 22.875 -37.625 C 26.84375 -37.84375 31.5625 -38.28125 36.84375 -38.828125 L 36.84375 -37.40625 C 36.84375 -34.203125 37.0625 -29.375 37.625 -26.296875 L 42.5625 -26.296875 C 43.78125 -29.484375 44.65625 -35.09375 44.65625 -39.15625 L 44.65625 -39.703125 C 58.734375 -41.359375 74.03125 -43.78125 83.046875 -45.765625 L 83.046875 -43.234375 C 83.046875 -39.15625 83.265625 -32.015625 83.703125 -28.484375 Z M 88.328125 -28.484375 "/>
</symbol>
<symbol overflow="visible" id="id0:glyph0-4">
<path style="stroke:none;" d="M 79.96875 -18.59375 L 80.296875 -22.875 C 80.296875 -23.765625 80.078125 -24.203125 79.203125 -24.640625 C 76.453125 -25.734375 70.625 -26.734375 67.09375 -26.953125 C 66.328125 -26.953125 66 -26.84375 65.890625 -26.40625 L 65.015625 -23.765625 C 67.984375 -22.765625 70.625 -21.34375 72.265625 -19.90625 L 72.265625 -12.203125 L 36.734375 -11.875 L 36.84375 -16.390625 L 36.953125 -20.796875 C 36.953125 -21.78125 36.625 -22.21875 35.75 -22.546875 C 33.109375 -23.3125 27.5 -23.875 24.203125 -23.875 C 23.4375 -23.875 23.09375 -23.65625 22.984375 -23.3125 L 22.328125 -20.90625 C 24.96875 -20.234375 27.609375 -18.8125 29.046875 -17.484375 L 29.59375 5.609375 C 29.59375 7.375 29.921875 9.90625 30.46875 11.4375 L 34.546875 11.4375 C 35.203125 10.671875 35.859375 9.5625 36.1875 8.03125 L 80.84375 7.703125 C 81.40625 7.265625 81.84375 6.15625 81.84375 4.953125 C 81.84375 4.296875 81.625 4.0625 81.0625 3.84375 L 78.875 2.96875 C 79.421875 0.4375 79.75 -3.078125 79.75 -6.046875 Z M 72.265625 -7.703125 L 72.265625 3.078125 L 36.515625 3.296875 L 36.734375 -7.375 Z M 72.265625 -7.703125 "/>
</symbol>
</g>
<g>
<symbol overflow="visible" id="id1:glyph0-0">
<path style="stroke:none;" d="M 5.375 -96.6875 L 69.828125 -96.6875 L 69.828125 0 L 5.375 0 Z M 8.0625 -2.6875 L 67.140625 -2.6875 L 67.140625 -94 L 8.0625 -94 Z M 8.0625 -2.6875 "/>
</symbol>
<symbol overflow="visible" id="id1:glyph0-1">
<path style="stroke:none;" d="M 68.15625 -13.75 L 66.28125 -18.640625 L 88.09375 -27.390625 L 6.984375 -27.390625 L 6.984375 -34 L 88.09375 -34 L 66.28125 -42.75 L 68.15625 -47.640625 L 99.09375 -34.265625 L 99.09375 -27.125 Z M 68.15625 -13.75 "/>
</symbol>
</g>
<g>
<symbol overflow="visible" id="id2:glyph0-0">
<path style="stroke:none;" d="M 11 13.203125 L 99 13.203125 L 99 -96.796875 L 11 -96.796875 Z M 55 -46.3125 L 20.015625 -91.296875 L 89.984375 -91.296875 Z M 58.515625 -41.796875 L 93.5 -86.796875 L 93.5 3.1875 Z M 20.015625 7.703125 L 55 -37.296875 L 89.984375 7.703125 Z M 16.5 -86.796875 L 51.484375 -41.796875 L 16.5 3.1875 Z M 16.5 -86.796875 "/>
</symbol>
<symbol overflow="visible" id="id2:glyph0-1">
<path style="stroke:none;" d="M 52.25 -57.09375 L 52.359375 -67.546875 L 64.234375 -67.875 L 64.234375 -57.203125 Z M 71.28125 -80.953125 L 71.390625 -84.59375 C 71.390625 -85.46875 71.171875 -85.90625 70.296875 -86.234375 C 68.3125 -87.015625 64.90625 -87.78125 62.375 -88 C 61.59375 -88.109375 61.265625 -87.890625 61.15625 -87.5625 L 60.28125 -85.140625 C 62.15625 -84.265625 63.6875 -83.15625 64.234375 -82.171875 L 64.234375 -72.8125 L 52.46875 -72.484375 L 52.578125 -78.875 L 52.6875 -82.609375 C 52.6875 -83.59375 52.359375 -84.046875 51.59375 -84.375 C 49.609375 -85.03125 46.3125 -85.796875 43.78125 -85.90625 C 43.125 -85.90625 42.796875 -85.796875 42.6875 -85.359375 L 41.6875 -82.71875 C 43.671875 -82.0625 45.203125 -81.0625 45.875 -80.078125 L 46.203125 -54.671875 C 46.203125 -52.90625 46.53125 -50.703125 47.078125 -49.28125 L 50.484375 -49.28125 C 51.046875 -49.9375 51.59375 -50.8125 51.921875 -52.140625 L 70.84375 -52.359375 C 71.5 -52.90625 71.828125 -54.015625 71.828125 -55.21875 C 71.828125 -55.65625 71.71875 -56.09375 71.171875 -56.4375 L 69.84375 -56.984375 C 70.40625 -59.515625 70.734375 -63.25 70.734375 -66.328125 Z M 38.71875 -76.234375 L 38.9375 -79.75 C 38.9375 -80.515625 38.71875 -81.0625 37.953125 -81.40625 C 35.96875 -82.28125 32.671875 -83.046875 30.140625 -83.265625 C 29.484375 -83.265625 29.15625 -83.15625 29.046875 -82.828125 L 28.15625 -80.296875 C 30.140625 -79.421875 31.6875 -78.4375 32.453125 -77.4375 L 32.453125 -70.296875 L 20.453125 -69.953125 L 20.453125 -73.59375 L 20.5625 -77.4375 C 20.6875 -78.3125 20.34375 -78.765625 19.46875 -79.09375 C 17.484375 -79.75 13.859375 -80.40625 11.109375 -80.515625 C 10.34375 -80.625 10.015625 -80.40625 9.90625 -80.078125 L 9.125 -77.328125 C 11.21875 -76.671875 12.875 -75.796875 13.859375 -74.6875 L 14.296875 -52.90625 C 14.296875 -51.15625 14.625 -48.953125 15.0625 -47.515625 L 18.59375 -47.515625 C 19.140625 -48.1875 19.6875 -49.171875 20.015625 -50.484375 L 38.390625 -50.703125 C 38.9375 -51.265625 39.375 -52.25 39.375 -53.453125 C 39.375 -54.015625 39.265625 -54.34375 38.609375 -54.671875 L 37.515625 -55.21875 C 38.0625 -57.640625 38.5 -61.265625 38.5 -64.125 Z M 20.453125 -65.015625 L 32.453125 -65.34375 L 32.453125 -55.4375 L 20.34375 -55.328125 Z M 87.453125 -27.171875 C 88.984375 -31.234375 89.984375 -38.171875 89.984375 -44.765625 L 89.984375 -83.265625 L 90.203125 -88.765625 C 90.3125 -89.875 89.875 -90.640625 88.984375 -91.078125 C 85.90625 -92.296875 79.203125 -93.71875 75.34375 -93.828125 C 74.46875 -93.828125 74.25 -93.609375 74.140625 -93.28125 L 73.265625 -90.640625 C 77 -89.3125 80.40625 -87.453125 82.390625 -85.140625 L 82.390625 -46.859375 C 65.34375 -43.78125 33 -41.25 16.171875 -41.03125 C 12.4375 -41.03125 7.921875 -41.25 4.1875 -42.015625 L 3.515625 -40.703125 C 3.296875 -40.15625 3.40625 -39.8125 3.84375 -39.484375 C 6.8125 -37.0625 10.78125 -34.65625 14.625 -33 C 16.609375 -33.765625 21.015625 -34.765625 23.09375 -34.875 C 27.28125 -35.09375 32.453125 -35.640625 38.0625 -36.1875 L 38.0625 -32.453125 C 38.0625 -29.265625 38.28125 -24.421875 38.71875 -21.34375 L 43.78125 -21.34375 C 44.984375 -24.640625 45.875 -30.140625 45.875 -34.203125 L 45.875 -37.0625 C 59.1875 -38.71875 73.484375 -40.921875 82.390625 -42.90625 L 82.390625 -42.34375 C 82.390625 -38.171875 82.5 -30.6875 82.9375 -27.171875 Z M 89.4375 -17.8125 L 89.765625 -22.109375 C 89.765625 -22.875 89.546875 -23.4375 88.65625 -23.765625 C 85.90625 -24.859375 79.96875 -25.953125 76.34375 -26.1875 C 75.5625 -26.1875 75.234375 -25.953125 75.125 -25.625 L 74.25 -22.984375 C 77.21875 -22 79.96875 -20.5625 81.515625 -19.03125 L 81.515625 -10.78125 L 45.546875 -10.453125 L 45.546875 -13.53125 L 45.65625 -18.046875 C 45.65625 -18.921875 45.4375 -19.46875 44.546875 -19.6875 C 41.90625 -20.453125 36.078125 -21.125 32.671875 -21.125 C 31.90625 -21.125 31.453125 -20.90625 31.34375 -20.5625 L 30.6875 -18.046875 C 33.328125 -17.375 35.96875 -15.953125 37.40625 -14.625 L 38.0625 6.484375 C 38.0625 8.25 38.390625 10.78125 39.046875 12.4375 L 43.234375 12.4375 C 43.890625 11.765625 44.4375 10.671875 44.875 9.234375 C 54.5625 9.125 80.953125 8.90625 90.421875 9.015625 C 90.96875 8.46875 91.40625 7.265625 91.40625 5.9375 C 91.40625 5.28125 91.078125 5.0625 90.640625 4.734375 L 88.4375 3.953125 C 88.984375 1.546875 89.4375 -2.3125 89.4375 -5.171875 Z M 81.515625 -5.828125 L 81.515625 4.0625 L 45.3125 4.296875 L 45.4375 -5.609375 Z M 81.515625 -5.828125 "/>
</symbol>
</g>
</defs>
  <g id="id0:id0" transform="matrix(1.25,0,0,1.25,0.0,0.0)"><g id="id0:surface1">
<g style="fill:rgb(0%,0%,0%);fill-opacity:1;">
  <use xlink:href="#id0:glyph0-1" x="16" y="128.609375"/>
  <use xlink:href="#id0:glyph0-2" x="122.265625" y="128.609375"/>
  <use xlink:href="#id0:glyph0-3" x="122.265625" y="128.609375"/>
  <use xlink:href="#id0:glyph0-2" x="228.53125" y="128.609375"/>
  <use xlink:href="#id0:glyph0-4" x="228.53125" y="128.609375"/>
</g>
</g>
</g>
  <g id="id1:id1" transform="matrix(1.25,0,0,1.25,438.49609375,0.5859375)"><g id="id1:surface1">
<g style="fill:rgb(0%,0%,0%);fill-opacity:1;">
  <use xlink:href="#id1:glyph0-1" x="0" y="120.84375"/>
</g>
</g>
</g>
  <g id="id2:id2" transform="matrix(1.25,0,0,1.25,571.09375,0.0)"><g id="id2:surface1">
<g style="fill:rgb(0%,0%,0%);fill-opacity:1;">
  <use xlink:href="#id2:glyph0-1" x="16" y="128.609375"/>
</g>
</g>
</g>
</svg>
