<!DOCTYPE svg PUBLIC "-//W3C//DTD SVG 1.1//EN" "http://www.w3.org/Graphics/SVG/1.1/DTD/svg11.dtd">
<!-- Created with svg_stack (http://github.com/astraw/svg_stack) --><svg xmlns="http://www.w3.org/2000/svg" xmlns:sodipodi="http://sodipodi.sourceforge.net/DTD/sodipodi-0.dtd" xmlns:xlink="http://www.w3.org/1999/xlink" version="1.1" width="387.48046875" height="392.0703125" id="tibetan-calt">
  <defs><g>
<symbol overflow="visible" id="tibetan-calt:id0:glyph0-0">
<path style="stroke:none;" d="M 10.34375 0 L 10.34375 -78.4375 L 55.546875 -78.4375 L 55.546875 0 Z M 15.953125 -5.5 L 49.9375 -5.5 L 49.9375 -72.8125 L 15.953125 -72.8125 Z M 15.953125 -5.5 "/>
</symbol>
<symbol overflow="visible" id="tibetan-calt:id0:glyph0-1">
<path style="stroke:none;" d="M 60.390625 -74.578125 C 60.828125 -79.421875 61.046875 -84.628906 61.046875 -90.203125 C 65.671875 -90.203125 69.46875 -90.492188 72.4375 -91.078125 C 75.40625 -91.660156 77.988281 -92.503906 80.1875 -93.609375 L 79.09375 -85.796875 C 77.1875 -84.472656 75.09375 -83.410156 72.8125 -82.609375 C 70.539062 -81.804688 67.976562 -81.332031 65.125 -81.1875 C 64.976562 -80.082031 64.789062 -78.960938 64.5625 -77.828125 C 64.34375 -76.691406 64.085938 -75.609375 63.796875 -74.578125 L 61.59375 -65.125 L 38.828125 -65.125 C 39.191406 -63.726562 39.445312 -62.273438 39.59375 -60.765625 C 39.738281 -59.265625 39.8125 -57.742188 39.8125 -56.203125 C 39.8125 -55.109375 39.738281 -54.082031 39.59375 -53.125 C 41.800781 -54.007812 44.257812 -54.453125 46.96875 -54.453125 C 52.757812 -54.453125 57.304688 -52.707031 60.609375 -49.21875 C 63.910156 -45.738281 65.5625 -41.140625 65.5625 -35.421875 C 65.5625 -30.722656 64.476562 -26.648438 62.3125 -23.203125 C 60.144531 -19.765625 57.191406 -17.109375 53.453125 -15.234375 C 49.710938 -13.367188 45.5 -12.4375 40.8125 -12.4375 C 36.039062 -12.4375 32.023438 -13.238281 28.765625 -14.84375 C 25.503906 -16.457031 22.695312 -18.617188 20.34375 -21.328125 C 18 -24.046875 15.875 -27.128906 13.96875 -30.578125 C 12.0625 -34.023438 10.097656 -37.597656 8.078125 -41.296875 C 6.066406 -45.003906 3.738281 -48.582031 1.09375 -52.03125 L 4.84375 -54.453125 C 8.070312 -51.222656 11.207031 -48.816406 14.25 -47.234375 C 17.289062 -45.660156 20.644531 -44.875 24.3125 -44.875 C 27.6875 -44.875 30.304688 -45.734375 32.171875 -47.453125 C 34.046875 -49.179688 34.984375 -51.515625 34.984375 -54.453125 C 34.984375 -56.285156 34.707031 -58.097656 34.15625 -59.890625 C 33.601562 -61.691406 32.664062 -63.4375 31.34375 -65.125 L 10.015625 -65.125 L 12.203125 -74.578125 Z M 45.203125 -44.765625 C 42.347656 -44.765625 39.859375 -44.378906 37.734375 -43.609375 C 35.609375 -42.835938 33.515625 -42.050781 31.453125 -41.25 C 29.398438 -40.445312 26.984375 -40.046875 24.203125 -40.046875 C 22.078125 -40.046875 20.207031 -40.335938 18.59375 -40.921875 L 18.375 -40.484375 C 21.226562 -36.453125 23.921875 -32.765625 26.453125 -29.421875 C 28.984375 -26.085938 31.695312 -23.429688 34.59375 -21.453125 C 37.488281 -19.472656 40.953125 -18.484375 44.984375 -18.484375 C 49.171875 -18.484375 52.5625 -19.726562 55.15625 -22.21875 C 57.757812 -24.707031 59.0625 -28.082031 59.0625 -32.34375 C 59.0625 -36.15625 57.925781 -39.175781 55.65625 -41.40625 C 53.382812 -43.644531 49.898438 -44.765625 45.203125 -44.765625 Z M 45.203125 -44.765625 "/>
</symbol>
<symbol overflow="visible" id="tibetan-calt:id0:glyph0-2">
<path style="stroke:none;" d="M 41.796875 -96.46875 C 37.035156 -100.132812 32.984375 -102.898438 29.640625 -104.765625 C 26.304688 -106.640625 23.410156 -107.890625 20.953125 -108.515625 C 18.492188 -109.140625 16.09375 -109.453125 13.75 -109.453125 C 11.039062 -109.453125 8.289062 -109.007812 5.5 -108.125 L 7.15625 -117.15625 C 8.394531 -117.738281 9.710938 -118.140625 11.109375 -118.359375 C 12.503906 -118.578125 13.898438 -118.6875 15.296875 -118.6875 C 17.640625 -118.6875 19.960938 -118.265625 22.265625 -117.421875 C 24.578125 -116.578125 27.203125 -115.019531 30.140625 -112.75 C 33.078125 -110.476562 36.671875 -107.140625 40.921875 -102.734375 C 42.753906 -106.847656 45.117188 -109.785156 48.015625 -111.546875 C 50.910156 -113.304688 54.445312 -114.367188 58.625 -114.734375 C 62.144531 -115.097656 65.351562 -115.257812 68.25 -115.21875 C 71.144531 -115.1875 73.914062 -115.316406 76.5625 -115.609375 C 80.007812 -116.046875 82.6875 -116.773438 84.59375 -117.796875 C 86.5 -118.828125 88.070312 -120.1875 89.3125 -121.875 L 92.84375 -118.25 C 91.007812 -114.945312 88.828125 -112.394531 86.296875 -110.59375 C 83.765625 -108.800781 80.265625 -107.539062 75.796875 -106.8125 C 72.710938 -106.300781 69.554688 -106.023438 66.328125 -105.984375 C 63.097656 -105.953125 60.203125 -105.859375 57.640625 -105.703125 C 53.753906 -105.410156 50.617188 -104.625 48.234375 -103.34375 C 45.847656 -102.0625 43.703125 -99.769531 41.796875 -96.46875 Z M 49.5 -78.09375 C 42.894531 -82.425781 37.359375 -85.691406 32.890625 -87.890625 C 28.421875 -90.085938 24.515625 -91.550781 21.171875 -92.28125 C 17.835938 -93.019531 14.628906 -93.390625 11.546875 -93.390625 C 8.835938 -93.390625 6.085938 -92.945312 3.296875 -92.0625 L 4.953125 -101.09375 C 6.191406 -101.675781 7.507812 -102.078125 8.90625 -102.296875 C 10.300781 -102.515625 11.695312 -102.625 13.09375 -102.625 C 15.875 -102.625 18.65625 -102.257812 21.4375 -101.53125 C 24.226562 -100.800781 27.289062 -99.460938 30.625 -97.515625 C 33.96875 -95.566406 37.945312 -92.757812 42.5625 -89.09375 C 44.320312 -92.25 46.503906 -94.539062 49.109375 -95.96875 C 51.710938 -97.40625 54.882812 -98.304688 58.625 -98.671875 C 62.144531 -99.035156 65.351562 -99.195312 68.25 -99.15625 C 71.144531 -99.125 73.914062 -99.253906 76.5625 -99.546875 C 80.007812 -99.984375 82.6875 -100.789062 84.59375 -101.96875 C 86.5 -103.144531 88.070312 -104.648438 89.3125 -106.484375 L 92.84375 -102.84375 C 91.007812 -99.40625 88.804688 -96.710938 86.234375 -94.765625 C 83.671875 -92.816406 80.191406 -91.476562 75.796875 -90.75 C 72.710938 -90.238281 69.554688 -89.960938 66.328125 -89.921875 C 63.097656 -89.890625 60.203125 -89.800781 57.640625 -89.65625 C 54.847656 -89.425781 52.570312 -89.070312 50.8125 -88.59375 C 49.0625 -88.125 47.488281 -87.300781 46.09375 -86.125 C 47.707031 -84.738281 49.394531 -83.273438 51.15625 -81.734375 Z M 49.5 -78.09375 "/>
</symbol>
</g>
<g>
<symbol overflow="visible" id="tibetan-calt:id1:glyph0-0">
<path style="stroke:none;" d="M 5.375 -96.6875 L 69.828125 -96.6875 L 69.828125 0 L 5.375 0 Z M 8.0625 -2.6875 L 67.140625 -2.6875 L 67.140625 -94 L 8.0625 -94 Z M 8.0625 -2.6875 "/>
</symbol>
<symbol overflow="visible" id="tibetan-calt:id1:glyph0-1">
<path style="stroke:none;" d="M 68.15625 -13.75 L 66.28125 -18.640625 L 88.09375 -27.390625 L 6.984375 -27.390625 L 6.984375 -34 L 88.09375 -34 L 66.28125 -42.75 L 68.15625 -47.640625 L 99.09375 -34.265625 L 99.09375 -27.125 Z M 68.15625 -13.75 "/>
</symbol>
</g>
<g>
<symbol overflow="visible" id="tibetan-calt:id2:glyph0-0">
<path style="stroke:none;" d="M 10.34375 0 L 10.34375 -78.4375 L 55.546875 -78.4375 L 55.546875 0 Z M 15.953125 -5.5 L 49.9375 -5.5 L 49.9375 -72.8125 L 15.953125 -72.8125 Z M 15.953125 -5.5 "/>
</symbol>
<symbol overflow="visible" id="tibetan-calt:id2:glyph0-1">
<path style="stroke:none;" d="M 60.390625 -74.578125 C 60.828125 -79.421875 61.046875 -84.628906 61.046875 -90.203125 C 65.671875 -90.203125 69.46875 -90.492188 72.4375 -91.078125 C 75.40625 -91.660156 77.988281 -92.503906 80.1875 -93.609375 L 79.09375 -85.796875 C 77.1875 -84.472656 75.09375 -83.410156 72.8125 -82.609375 C 70.539062 -81.804688 67.976562 -81.332031 65.125 -81.1875 C 64.976562 -80.082031 64.789062 -78.960938 64.5625 -77.828125 C 64.34375 -76.691406 64.085938 -75.609375 63.796875 -74.578125 L 61.59375 -65.125 L 38.828125 -65.125 C 39.191406 -63.726562 39.445312 -62.273438 39.59375 -60.765625 C 39.738281 -59.265625 39.8125 -57.742188 39.8125 -56.203125 C 39.8125 -55.109375 39.738281 -54.082031 39.59375 -53.125 C 41.800781 -54.007812 44.257812 -54.453125 46.96875 -54.453125 C 52.757812 -54.453125 57.304688 -52.707031 60.609375 -49.21875 C 63.910156 -45.738281 65.5625 -41.140625 65.5625 -35.421875 C 65.5625 -30.722656 64.476562 -26.648438 62.3125 -23.203125 C 60.144531 -19.765625 57.191406 -17.109375 53.453125 -15.234375 C 49.710938 -13.367188 45.5 -12.4375 40.8125 -12.4375 C 36.039062 -12.4375 32.023438 -13.238281 28.765625 -14.84375 C 25.503906 -16.457031 22.695312 -18.617188 20.34375 -21.328125 C 18 -24.046875 15.875 -27.128906 13.96875 -30.578125 C 12.0625 -34.023438 10.097656 -37.597656 8.078125 -41.296875 C 6.066406 -45.003906 3.738281 -48.582031 1.09375 -52.03125 L 4.84375 -54.453125 C 8.070312 -51.222656 11.207031 -48.816406 14.25 -47.234375 C 17.289062 -45.660156 20.644531 -44.875 24.3125 -44.875 C 27.6875 -44.875 30.304688 -45.734375 32.171875 -47.453125 C 34.046875 -49.179688 34.984375 -51.515625 34.984375 -54.453125 C 34.984375 -56.285156 34.707031 -58.097656 34.15625 -59.890625 C 33.601562 -61.691406 32.664062 -63.4375 31.34375 -65.125 L 10.015625 -65.125 L 12.203125 -74.578125 Z M 45.203125 -44.765625 C 42.347656 -44.765625 39.859375 -44.378906 37.734375 -43.609375 C 35.609375 -42.835938 33.515625 -42.050781 31.453125 -41.25 C 29.398438 -40.445312 26.984375 -40.046875 24.203125 -40.046875 C 22.078125 -40.046875 20.207031 -40.335938 18.59375 -40.921875 L 18.375 -40.484375 C 21.226562 -36.453125 23.921875 -32.765625 26.453125 -29.421875 C 28.984375 -26.085938 31.695312 -23.429688 34.59375 -21.453125 C 37.488281 -19.472656 40.953125 -18.484375 44.984375 -18.484375 C 49.171875 -18.484375 52.5625 -19.726562 55.15625 -22.21875 C 57.757812 -24.707031 59.0625 -28.082031 59.0625 -32.34375 C 59.0625 -36.15625 57.925781 -39.175781 55.65625 -41.40625 C 53.382812 -43.644531 49.898438 -44.765625 45.203125 -44.765625 Z M 45.203125 -44.765625 "/>
</symbol>
<symbol overflow="visible" id="tibetan-calt:id2:glyph0-2">
<path style="stroke:none;" d="M 36.296875 -96.46875 C 32.335938 -100.132812 28.984375 -102.898438 26.234375 -104.765625 C 23.484375 -106.640625 21.082031 -107.890625 19.03125 -108.515625 C 16.976562 -109.140625 14.960938 -109.453125 12.984375 -109.453125 C 10.554688 -109.453125 8.0625 -109.007812 5.5 -108.125 L 7.15625 -117.15625 C 8.175781 -117.738281 9.3125 -118.140625 10.5625 -118.359375 C 11.8125 -118.578125 13.019531 -118.6875 14.1875 -118.6875 C 16.164062 -118.6875 18.125 -118.28125 20.0625 -117.46875 C 22.007812 -116.664062 24.191406 -115.144531 26.609375 -112.90625 C 29.035156 -110.675781 32.007812 -107.4375 35.53125 -103.1875 C 37.144531 -107.289062 39.175781 -110.382812 41.625 -112.46875 C 44.082031 -114.5625 47.035156 -116.050781 50.484375 -116.9375 C 53.492188 -117.664062 56.226562 -118.175781 58.6875 -118.46875 C 61.144531 -118.757812 63.507812 -119.203125 65.78125 -119.796875 C 68.5625 -120.523438 70.703125 -121.472656 72.203125 -122.640625 C 73.710938 -123.816406 74.945312 -125.539062 75.90625 -127.8125 L 79.421875 -124.1875 C 78.023438 -120.226562 76.226562 -117.332031 74.03125 -115.5 C 71.832031 -113.664062 68.898438 -112.234375 65.234375 -111.203125 C 62.515625 -110.472656 59.742188 -109.8125 56.921875 -109.21875 C 54.097656 -108.632812 51.625 -108.050781 49.5 -107.46875 C 46.34375 -106.59375 43.753906 -105.421875 41.734375 -103.953125 C 39.722656 -102.484375 37.910156 -99.988281 36.296875 -96.46875 Z M 44 -78.09375 C 38.351562 -82.425781 33.601562 -85.691406 29.75 -87.890625 C 25.90625 -90.085938 22.570312 -91.550781 19.75 -92.28125 C 16.925781 -93.019531 14.191406 -93.390625 11.546875 -93.390625 C 8.835938 -93.390625 6.085938 -92.945312 3.296875 -92.0625 L 4.953125 -101.09375 C 6.191406 -101.675781 7.507812 -102.078125 8.90625 -102.296875 C 10.300781 -102.515625 11.695312 -102.625 13.09375 -102.625 C 15.4375 -102.625 17.765625 -102.273438 20.078125 -101.578125 C 22.390625 -100.890625 24.9375 -99.628906 27.71875 -97.796875 C 30.507812 -95.960938 33.738281 -93.320312 37.40625 -89.875 C 38.351562 -92.363281 39.359375 -94.34375 40.421875 -95.8125 C 41.484375 -97.28125 42.726562 -98.4375 44.15625 -99.28125 C 45.59375 -100.125 47.375 -100.835938 49.5 -101.421875 C 52.289062 -102.222656 55.132812 -102.84375 58.03125 -103.28125 C 60.925781 -103.726562 63.507812 -104.351562 65.78125 -105.15625 C 68.125 -105.96875 69.9375 -106.847656 71.21875 -107.796875 C 72.507812 -108.753906 73.628906 -110.039062 74.578125 -111.65625 L 77.765625 -107.90625 C 76.378906 -105.050781 74.769531 -102.816406 72.9375 -101.203125 C 71.101562 -99.585938 68.570312 -98.15625 65.34375 -96.90625 C 62.769531 -95.957031 60.144531 -95.207031 57.46875 -94.65625 C 54.789062 -94.101562 52.5 -93.535156 50.59375 -92.953125 C 47.8125 -92.140625 45.6875 -91.328125 44.21875 -90.515625 C 42.75 -89.710938 41.539062 -88.507812 40.59375 -86.90625 C 42.132812 -85.363281 43.820312 -83.640625 45.65625 -81.734375 Z M 44 -78.09375 "/>
</symbol>
</g>
</defs>
  <g id="tibetan-calt:id0:id0" transform="matrix(1.25,0,0,1.25,0.0,0.0)"><g id="tibetan-calt:id0:surface1">
<g style="fill:rgb(0%,0%,0%);fill-opacity:1;">
  <use xlink:href="#tibetan-calt:id0:glyph0-1" x="16" y="163.265625" class="c0"/>
  <use xlink:href="#tibetan-calt:id0:glyph0-2" x="9.40625" y="163.265625" class="c1"/>
</g>
</g>
</g>
  <g id="tibetan-calt:id1:id1" transform="matrix(1.25,0,0,1.25,127.44140625,95.33203125)"><g id="tibetan-calt:id1:surface1">
<g style="fill:rgb(0%,0%,0%);fill-opacity:1;">
  <use xlink:href="#tibetan-calt:id1:glyph0-1" x="0" y="120.84375" class="arrow"/>
</g>
</g>
</g>
  <g id="tibetan-calt:id2:id2" transform="matrix(1.25,0,0,1.25,260.0390625,0.0)"><g id="tibetan-calt:id2:surface1">
<g style="fill:rgb(0%,0%,0%);fill-opacity:1;">
  <use xlink:href="#tibetan-calt:id2:glyph0-1" x="16" y="163.265625" class="c0"/>
  <use xlink:href="#tibetan-calt:id2:glyph0-2" x="14.90625" y="163.265625" class="c1"/>
</g>
</g>
</g>
</svg>
