<!DOCTYPE svg PUBLIC "-//W3C//DTD SVG 1.1//EN" "http://www.w3.org/Graphics/SVG/1.1/DTD/svg11.dtd">
<!-- Created with svg_stack (http://github.com/astraw/svg_stack) --><svg xmlns="http://www.w3.org/2000/svg" xmlns:sodipodi="http://sodipodi.sourceforge.net/DTD/sodipodi-0.dtd" xmlns:xlink="http://www.w3.org/1999/xlink" version="1.1" width="100%" id="tibetan-liga" viewBox="0 0 352.83203125 392.0703125">
  <defs><g>
<symbol overflow="visible" id="tibetan-liga:id0:glyph0-0">
<path style="stroke:none;" d="M 10.34375 0 L 10.34375 -78.4375 L 55.546875 -78.4375 L 55.546875 0 Z M 15.953125 -5.5 L 49.9375 -5.5 L 49.9375 -72.8125 L 15.953125 -72.8125 Z M 15.953125 -5.5 "/>
</symbol>
<symbol overflow="visible" id="tibetan-liga:id0:glyph0-1">
<path style="stroke:none;" d="M 27.9375 -67.546875 C 30.132812 -67.546875 31.234375 -66.515625 31.234375 -64.453125 C 31.234375 -62.328125 30.132812 -61.265625 27.9375 -61.265625 C 25.882812 -61.265625 24.859375 -62.328125 24.859375 -64.453125 C 24.859375 -66.515625 25.882812 -67.546875 27.9375 -67.546875 Z M 42.234375 -62.15625 C 44.367188 -62.15625 45.4375 -61.085938 45.4375 -58.953125 C 45.4375 -56.828125 44.367188 -55.765625 42.234375 -55.765625 C 40.109375 -55.765625 39.046875 -56.828125 39.046875 -58.953125 C 39.046875 -61.085938 40.109375 -62.15625 42.234375 -62.15625 Z M 13.75 -62.15625 C 15.875 -62.15625 16.9375 -61.085938 16.9375 -58.953125 C 16.9375 -56.828125 15.875 -55.765625 13.75 -55.765625 C 11.695312 -55.765625 10.671875 -56.828125 10.671875 -58.953125 C 10.671875 -61.085938 11.695312 -62.15625 13.75 -62.15625 Z M 8.90625 -48.40625 C 10.957031 -48.40625 11.984375 -47.375 11.984375 -45.3125 C 11.984375 -43.1875 10.957031 -42.125 8.90625 -42.125 C 6.78125 -42.125 5.71875 -43.1875 5.71875 -45.3125 C 5.71875 -47.375 6.78125 -48.40625 8.90625 -48.40625 Z M 47.1875 -48.40625 C 49.3125 -48.40625 50.375 -47.375 50.375 -45.3125 C 50.375 -43.1875 49.3125 -42.125 47.1875 -42.125 C 45.0625 -42.125 44 -43.1875 44 -45.3125 C 44 -47.375 45.0625 -48.40625 47.1875 -48.40625 Z M 13.75 -34.765625 C 15.875 -34.765625 16.9375 -33.695312 16.9375 -31.5625 C 16.9375 -29.4375 15.875 -28.375 13.75 -28.375 C 11.695312 -28.375 10.671875 -29.4375 10.671875 -31.5625 C 10.671875 -33.695312 11.695312 -34.765625 13.75 -34.765625 Z M 42.234375 -34.765625 C 44.367188 -34.765625 45.4375 -33.695312 45.4375 -31.5625 C 45.4375 -29.4375 44.367188 -28.375 42.234375 -28.375 C 40.109375 -28.375 39.046875 -29.4375 39.046875 -31.5625 C 39.046875 -33.695312 40.109375 -34.765625 42.234375 -34.765625 Z M 27.9375 -29.265625 C 30.132812 -29.265625 31.234375 -28.195312 31.234375 -26.0625 C 31.234375 -23.9375 30.132812 -22.875 27.9375 -22.875 C 25.882812 -22.875 24.859375 -23.9375 24.859375 -26.0625 C 24.859375 -28.195312 25.882812 -29.265625 27.9375 -29.265625 Z M 27.9375 -29.265625 "/>
</symbol>
<symbol overflow="visible" id="tibetan-liga:id0:glyph0-2">
<path style="stroke:none;" d="M 54.671875 -23.3125 L 52.46875 -13.859375 L 11.546875 -13.859375 C 10.222656 -10.484375 9.050781 -7.109375 8.03125 -3.734375 C 11.1875 -4.472656 14.5625 -5.003906 18.15625 -5.328125 C 21.75 -5.660156 25.082031 -5.828125 28.15625 -5.828125 C 34.09375 -5.828125 39.257812 -5.019531 43.65625 -3.40625 C 48.0625 -1.789062 52.242188 0.8125 56.203125 4.40625 C 60.171875 8 64.351562 12.835938 68.75 18.921875 L 64.015625 20.015625 C 59.984375 15.984375 56.316406 12.8125 53.015625 10.5 C 49.710938 8.195312 46.226562 6.566406 42.5625 5.609375 C 38.894531 4.660156 34.5 4.1875 29.375 4.1875 C 25.78125 4.1875 21.765625 4.367188 17.328125 4.734375 C 12.890625 5.097656 8.800781 5.609375 5.0625 6.265625 L 2.3125 2.3125 C 3.476562 -4.070312 4.832031 -10.160156 6.375 -15.953125 C 7.914062 -21.742188 9.53125 -27.132812 11.21875 -32.125 L 7.046875 -32.125 L 9.234375 -41.578125 L 60.828125 -41.578125 L 58.625 -32.125 L 19.90625 -32.125 C 18.363281 -29.332031 16.898438 -26.394531 15.515625 -23.3125 Z M 54.671875 -23.3125 "/>
</symbol>
<symbol overflow="visible" id="tibetan-liga:id0:glyph0-3">
<path style="stroke:none;" d="M 3.078125 -74.578125 C 3.515625 -79.421875 3.734375 -84.628906 3.734375 -90.203125 C 8.359375 -90.203125 12.15625 -90.492188 15.125 -91.078125 C 18.09375 -91.660156 20.675781 -92.503906 22.875 -93.609375 L 21.78125 -85.796875 C 19.875 -84.472656 17.78125 -83.410156 15.5 -82.609375 C 13.226562 -81.804688 10.664062 -81.332031 7.8125 -81.1875 C 7.664062 -80.082031 7.484375 -78.960938 7.265625 -77.828125 C 7.046875 -76.691406 6.785156 -75.609375 6.484375 -74.578125 Z M 3.078125 -74.578125 "/>
</symbol>
<symbol overflow="visible" id="tibetan-liga:id0:glyph0-4">
<path style="stroke:none;" d="M 25.1875 0.546875 C 23.0625 -1.285156 21.007812 -2.769531 19.03125 -3.90625 C 17.050781 -5.039062 14.882812 -5.9375 12.53125 -6.59375 C 10.1875 -7.257812 7.328125 -7.773438 3.953125 -8.140625 L 2.09375 -12.765625 C 3.257812 -16.359375 4.59375 -19.800781 6.09375 -23.09375 C 7.601562 -26.394531 9.203125 -29.476562 10.890625 -32.34375 L 6.9375 -32.34375 L 9.125 -41.578125 L 51.703125 -41.578125 L 49.5 -32.34375 L 20.234375 -32.34375 C 17.816406 -29.84375 15.617188 -27.253906 13.640625 -24.578125 C 11.660156 -21.898438 9.972656 -19.316406 8.578125 -16.828125 C 12.171875 -16.171875 15.25 -15.035156 17.8125 -13.421875 C 22.726562 -19.359375 29.144531 -22.328125 37.0625 -22.328125 C 42.71875 -22.328125 47.117188 -20.894531 50.265625 -18.03125 C 53.421875 -15.175781 55 -11.363281 55 -6.59375 C 55 -3.882812 54.59375 -1.210938 53.78125 1.421875 C 52.976562 4.066406 51.550781 6.910156 49.5 9.953125 C 47.445312 12.992188 44.601562 16.363281 40.96875 20.0625 C 37.34375 23.769531 32.707031 28.046875 27.0625 32.890625 L 25.296875 28.375 C 29.628906 23.757812 33.128906 19.800781 35.796875 16.5 C 38.472656 13.195312 40.546875 10.316406 42.015625 7.859375 C 43.484375 5.410156 44.492188 3.210938 45.046875 1.265625 C 45.597656 -0.679688 45.875 -2.535156 45.875 -4.296875 C 45.875 -7.515625 44.863281 -9.96875 42.84375 -11.65625 C 40.820312 -13.34375 37.867188 -14.1875 33.984375 -14.1875 C 31.347656 -14.1875 29.003906 -13.875 26.953125 -13.25 C 24.898438 -12.625 23.101562 -11.765625 21.5625 -10.671875 C 24.195312 -8.328125 26.835938 -4.953125 29.484375 -0.546875 Z M 25.1875 0.546875 "/>
</symbol>
</g>
<g>
<symbol overflow="visible" id="tibetan-liga:id1:glyph0-0">
<path style="stroke:none;" d="M 5.375 -96.6875 L 69.828125 -96.6875 L 69.828125 0 L 5.375 0 Z M 8.0625 -2.6875 L 67.140625 -2.6875 L 67.140625 -94 L 8.0625 -94 Z M 8.0625 -2.6875 "/>
</symbol>
<symbol overflow="visible" id="tibetan-liga:id1:glyph0-1">
<path style="stroke:none;" d="M 68.15625 -13.75 L 66.28125 -18.640625 L 88.09375 -27.390625 L 6.984375 -27.390625 L 6.984375 -34 L 88.09375 -34 L 66.28125 -42.75 L 68.15625 -47.640625 L 99.09375 -34.265625 L 99.09375 -27.125 Z M 68.15625 -13.75 "/>
</symbol>
</g>
<g>
<symbol overflow="visible" id="tibetan-liga:id2:glyph0-0">
<path style="stroke:none;" d="M 10.34375 0 L 10.34375 -78.4375 L 55.546875 -78.4375 L 55.546875 0 Z M 15.953125 -5.5 L 49.9375 -5.5 L 49.9375 -72.8125 L 15.953125 -72.8125 Z M 15.953125 -5.5 "/>
</symbol>
<symbol overflow="visible" id="tibetan-liga:id2:glyph0-1">
<path style="stroke:none;" d="M 27.9375 -67.546875 C 30.132812 -67.546875 31.234375 -66.515625 31.234375 -64.453125 C 31.234375 -62.328125 30.132812 -61.265625 27.9375 -61.265625 C 25.882812 -61.265625 24.859375 -62.328125 24.859375 -64.453125 C 24.859375 -66.515625 25.882812 -67.546875 27.9375 -67.546875 Z M 42.234375 -62.15625 C 44.367188 -62.15625 45.4375 -61.085938 45.4375 -58.953125 C 45.4375 -56.828125 44.367188 -55.765625 42.234375 -55.765625 C 40.109375 -55.765625 39.046875 -56.828125 39.046875 -58.953125 C 39.046875 -61.085938 40.109375 -62.15625 42.234375 -62.15625 Z M 13.75 -62.15625 C 15.875 -62.15625 16.9375 -61.085938 16.9375 -58.953125 C 16.9375 -56.828125 15.875 -55.765625 13.75 -55.765625 C 11.695312 -55.765625 10.671875 -56.828125 10.671875 -58.953125 C 10.671875 -61.085938 11.695312 -62.15625 13.75 -62.15625 Z M 8.90625 -48.40625 C 10.957031 -48.40625 11.984375 -47.375 11.984375 -45.3125 C 11.984375 -43.1875 10.957031 -42.125 8.90625 -42.125 C 6.78125 -42.125 5.71875 -43.1875 5.71875 -45.3125 C 5.71875 -47.375 6.78125 -48.40625 8.90625 -48.40625 Z M 47.1875 -48.40625 C 49.3125 -48.40625 50.375 -47.375 50.375 -45.3125 C 50.375 -43.1875 49.3125 -42.125 47.1875 -42.125 C 45.0625 -42.125 44 -43.1875 44 -45.3125 C 44 -47.375 45.0625 -48.40625 47.1875 -48.40625 Z M 13.75 -34.765625 C 15.875 -34.765625 16.9375 -33.695312 16.9375 -31.5625 C 16.9375 -29.4375 15.875 -28.375 13.75 -28.375 C 11.695312 -28.375 10.671875 -29.4375 10.671875 -31.5625 C 10.671875 -33.695312 11.695312 -34.765625 13.75 -34.765625 Z M 42.234375 -34.765625 C 44.367188 -34.765625 45.4375 -33.695312 45.4375 -31.5625 C 45.4375 -29.4375 44.367188 -28.375 42.234375 -28.375 C 40.109375 -28.375 39.046875 -29.4375 39.046875 -31.5625 C 39.046875 -33.695312 40.109375 -34.765625 42.234375 -34.765625 Z M 27.9375 -29.265625 C 30.132812 -29.265625 31.234375 -28.195312 31.234375 -26.0625 C 31.234375 -23.9375 30.132812 -22.875 27.9375 -22.875 C 25.882812 -22.875 24.859375 -23.9375 24.859375 -26.0625 C 24.859375 -28.195312 25.882812 -29.265625 27.9375 -29.265625 Z M 27.9375 -29.265625 "/>
</symbol>
<symbol overflow="visible" id="tibetan-liga:id2:glyph0-2">
<path style="stroke:none;" d="M 54.671875 -23.3125 L 52.46875 -13.859375 L 11.546875 -13.859375 C 10.222656 -10.484375 9.050781 -7.109375 8.03125 -3.734375 C 11.1875 -4.472656 14.5625 -5.003906 18.15625 -5.328125 C 21.75 -5.660156 25.082031 -5.828125 28.15625 -5.828125 C 34.09375 -5.828125 39.257812 -5.019531 43.65625 -3.40625 C 48.0625 -1.789062 52.242188 0.8125 56.203125 4.40625 C 60.171875 8 64.351562 12.835938 68.75 18.921875 L 64.015625 20.015625 C 59.984375 15.984375 56.316406 12.8125 53.015625 10.5 C 49.710938 8.195312 46.226562 6.566406 42.5625 5.609375 C 38.894531 4.660156 34.5 4.1875 29.375 4.1875 C 25.78125 4.1875 21.765625 4.367188 17.328125 4.734375 C 12.890625 5.097656 8.800781 5.609375 5.0625 6.265625 L 2.3125 2.3125 C 3.476562 -4.070312 4.832031 -10.160156 6.375 -15.953125 C 7.914062 -21.742188 9.53125 -27.132812 11.21875 -32.125 L 7.046875 -32.125 L 9.234375 -41.578125 L 57.421875 -41.578125 C 59.035156 -43.554688 60.351562 -45.570312 61.375 -47.625 C 62.40625 -49.675781 63.140625 -51.84375 63.578125 -54.125 C 67.460938 -54.125 70.613281 -54.304688 73.03125 -54.671875 C 75.457031 -55.035156 77.585938 -55.546875 79.421875 -56.203125 L 78.3125 -48.40625 C 76.40625 -47.445312 74.332031 -46.691406 72.09375 -46.140625 C 69.863281 -45.585938 67.316406 -45.238281 64.453125 -45.09375 C 63.941406 -44.507812 63.375 -43.921875 62.75 -43.328125 C 62.125 -42.742188 61.484375 -42.160156 60.828125 -41.578125 L 58.625 -32.125 L 19.90625 -32.125 C 18.363281 -29.332031 16.898438 -26.394531 15.515625 -23.3125 Z M 54.671875 -23.3125 "/>
</symbol>
<symbol overflow="visible" id="tibetan-liga:id2:glyph0-3">
<path style="stroke:none;" d="M 54.453125 -27.28125 L 52.6875 -19.578125 L 11.109375 -19.578125 C 9.710938 -16.867188 8.503906 -14.15625 7.484375 -11.4375 C 10.785156 -12.175781 14.269531 -12.726562 17.9375 -13.09375 C 21.601562 -13.457031 25.007812 -13.640625 28.15625 -13.640625 C 32.632812 -13.640625 36.503906 -13.289062 39.765625 -12.59375 C 43.023438 -11.894531 46.117188 -10.773438 49.046875 -9.234375 C 51.984375 -7.703125 55.101562 -5.648438 58.40625 -3.078125 L 54.234375 -1.546875 C 51.222656 -2.566406 48.46875 -3.351562 45.96875 -3.90625 C 43.476562 -4.457031 40.894531 -4.84375 38.21875 -5.0625 C 35.539062 -5.28125 32.296875 -5.390625 28.484375 -5.390625 C 25.035156 -5.390625 21.164062 -5.207031 16.875 -4.84375 C 12.59375 -4.476562 8.65625 -3.960938 5.0625 -3.296875 L 2.3125 -7.265625 C 3.476562 -12.242188 4.847656 -16.96875 6.421875 -21.4375 C 8.003906 -25.914062 9.675781 -30.0625 11.4375 -33.875 L 7.484375 -33.875 L 9.234375 -41.578125 L 57.421875 -41.578125 C 58.222656 -43.484375 58.863281 -45.460938 59.34375 -47.515625 C 59.820312 -49.566406 60.132812 -51.734375 60.28125 -54.015625 C 64.164062 -54.015625 67.316406 -54.195312 69.734375 -54.5625 C 72.160156 -54.925781 74.289062 -55.472656 76.125 -56.203125 L 75.015625 -48.40625 C 73.328125 -47.445312 71.492188 -46.671875 69.515625 -46.078125 C 67.535156 -45.492188 65.265625 -45.128906 62.703125 -44.984375 C 62.109375 -43.816406 61.484375 -42.679688 60.828125 -41.578125 L 59.0625 -33.875 L 19.796875 -33.875 C 18.253906 -31.820312 16.789062 -29.625 15.40625 -27.28125 Z M 12.984375 10.78125 L 15.1875 1.3125 L 61.046875 1.3125 L 58.84375 10.78125 L 25.515625 10.78125 C 23.316406 12.757812 21.300781 14.789062 19.46875 16.875 C 17.632812 18.96875 16.054688 21.003906 14.734375 22.984375 C 18.546875 23.429688 21.847656 24.203125 24.640625 25.296875 C 27.347656 22.441406 30.441406 20.332031 33.921875 18.96875 C 37.410156 17.613281 41.503906 16.9375 46.203125 16.9375 C 52.066406 16.9375 56.570312 18.109375 59.71875 20.453125 C 62.875 22.804688 64.453125 25.78125 64.453125 29.375 C 64.453125 31.863281 63.738281 34.113281 62.3125 36.125 C 60.882812 38.144531 58.226562 40.144531 54.34375 42.125 C 50.457031 44.101562 44.8125 46.269531 37.40625 48.625 L 36.078125 43.890625 C 41.359375 41.835938 45.351562 40.078125 48.0625 38.609375 C 50.78125 37.140625 52.632812 35.800781 53.625 34.59375 C 54.613281 33.382812 55.109375 32.191406 55.109375 31.015625 C 55.109375 27.054688 51.1875 25.078125 43.34375 25.078125 C 37.320312 25.078125 32.554688 25.882812 29.046875 27.5 C 31.898438 29.1875 34.722656 31.644531 37.515625 34.875 L 33.109375 35.859375 C 30.835938 34.910156 28.617188 34.160156 26.453125 33.609375 C 24.285156 33.054688 21.898438 32.597656 19.296875 32.234375 C 16.703125 31.867188 13.570312 31.609375 9.90625 31.453125 L 8.03125 26.84375 C 9.132812 23.90625 10.414062 21.078125 11.875 18.359375 C 13.34375 15.648438 14.882812 13.125 16.5 10.78125 Z M 12.984375 10.78125 "/>
</symbol>
</g>
</defs>
  <g id="tibetan-liga:id0:id0" transform="matrix(1.25,0,0,1.25,0.0,0.0)"><g id="tibetan-liga:id0:surface1">
<g style="fill:rgb(0%,0%,0%);fill-opacity:1;">
  <use xlink:href="#tibetan-liga:id0:glyph0-1" x="16" y="163.265625" class="dc"/>
  <use xlink:href="#tibetan-liga:id0:glyph0-2" x="6.65625" y="189" class="c0"/>
  <use xlink:href="#tibetan-liga:id0:glyph0-3" x="61" y="222" class="c1"/>
  <use xlink:href="#tibetan-liga:id0:glyph0-4" x="11.5" y="251.703125" class="c2"/>
</g>
</g>
</g>
  <g id="tibetan-liga:id1:id1" transform="matrix(1.25,0,0,1.25,110.1171875,95.33203125)"><g id="tibetan-liga:id1:surface1">
<g style="fill:rgb(0%,0%,0%);fill-opacity:1;">
  <use xlink:href="#tibetan-liga:id1:glyph0-1" x="0" y="120.84375" class="arrow"/>
</g>
</g>
</g>
  <g id="tibetan-liga:id2:id2" transform="matrix(1.25,0,0,1.25,242.71484375,0.0)"><g id="tibetan-liga:id2:surface1">
<g style="fill:rgb(0%,0%,0%);fill-opacity:1;">
  <use xlink:href="#tibetan-liga:id2:glyph0-1" x="16" y="163.265625" class="dc"/>
  <use xlink:href="#tibetan-liga:id2:glyph0-2" x="6.65625" y="189" class="c0"/>
  <use xlink:href="#tibetan-liga:id2:glyph0-3" x="6.65625" y="251.703125" class="c1"/>
</g>
</g>
</g>
</svg>