<!DOCTYPE svg PUBLIC "-//W3C//DTD SVG 1.1//EN" "http://www.w3.org/Graphics/SVG/1.1/DTD/svg11.dtd">
<!-- Created with svg_stack (http://github.com/astraw/svg_stack) --><svg xmlns="http://www.w3.org/2000/svg" xmlns:sodipodi="http://sodipodi.sourceforge.net/DTD/sodipodi-0.dtd" xmlns:xlink="http://www.w3.org/1999/xlink" version="1.1" width="359.70703125" height="392.0703125" id="tibetan-abvs">
  <defs><g>
<symbol overflow="visible" id="tibetan-abvs:id0:glyph0-0">
<path style="stroke:none;" d="M 10.34375 0 L 10.34375 -78.4375 L 55.546875 -78.4375 L 55.546875 0 Z M 15.953125 -5.5 L 49.9375 -5.5 L 49.9375 -72.8125 L 15.953125 -72.8125 Z M 15.953125 -5.5 "/>
</symbol>
<symbol overflow="visible" id="tibetan-abvs:id0:glyph0-1">
<path style="stroke:none;" d="M 6.484375 -43.234375 C 5.535156 -44.617188 4.875 -46.023438 4.5 -47.453125 C 4.132812 -48.890625 3.953125 -50.488281 3.953125 -52.25 C 3.953125 -56.570312 5.289062 -60.601562 7.96875 -64.34375 C 10.644531 -68.082031 14.550781 -71.492188 19.6875 -74.578125 L 49.828125 -74.578125 L 47.84375 -66 C 48.65625 -63.65625 49.0625 -61.160156 49.0625 -58.515625 C 49.0625 -53.972656 47.890625 -49.648438 45.546875 -45.546875 C 48.617188 -43.710938 51.050781 -41.144531 52.84375 -37.84375 C 54.644531 -34.539062 55.546875 -30.65625 55.546875 -26.1875 C 55.546875 -22.144531 55.066406 -17.847656 54.109375 -13.296875 C 53.160156 -8.753906 51.4375 -3.535156 48.9375 2.359375 C 46.445312 8.265625 43.003906 15.234375 38.609375 23.265625 C 34.210938 31.296875 28.53125 40.847656 21.5625 51.921875 L 18.703125 47.625 C 23.460938 38.90625 27.472656 31.257812 30.734375 24.6875 C 34.003906 18.125 36.664062 12.382812 38.71875 7.46875 C 40.769531 2.5625 42.328125 -1.738281 43.390625 -5.4375 C 44.453125 -9.144531 45.1875 -12.460938 45.59375 -15.390625 C 46 -18.328125 46.203125 -21.15625 46.203125 -23.875 C 46.203125 -29.664062 44.734375 -34.207031 41.796875 -37.5 C 38.867188 -40.800781 34.691406 -42.453125 29.265625 -42.453125 C 25.003906 -42.453125 21.847656 -41.5 19.796875 -39.59375 C 17.742188 -37.6875 16.71875 -35.125 16.71875 -31.90625 C 16.71875 -28.96875 17.851562 -26.34375 20.125 -24.03125 C 22.40625 -21.71875 25.890625 -19.757812 30.578125 -18.15625 L 24.75 -10.671875 C 20.050781 -12.140625 16.363281 -14.335938 13.6875 -17.265625 C 11.019531 -20.203125 9.6875 -24.015625 9.6875 -28.703125 C 9.6875 -32.296875 10.582031 -35.632812 12.375 -38.71875 C 14.164062 -41.800781 16.726562 -44.273438 20.0625 -46.140625 C 23.40625 -48.015625 27.425781 -48.953125 32.125 -48.953125 C 35.5 -48.953125 38.578125 -48.4375 41.359375 -47.40625 C 41.867188 -48.582031 42.21875 -49.773438 42.40625 -50.984375 C 42.59375 -52.191406 42.6875 -53.382812 42.6875 -54.5625 C 42.6875 -58.664062 41.582031 -62.1875 39.375 -65.125 L 14.625 -65.125 C 13.601562 -63.875 12.796875 -62.441406 12.203125 -60.828125 C 11.617188 -59.210938 11.328125 -57.453125 11.328125 -55.546875 C 11.328125 -54.523438 11.472656 -53.59375 11.765625 -52.75 C 12.054688 -51.90625 12.460938 -51.039062 12.984375 -50.15625 Z M 6.484375 -43.234375 "/>
</symbol>
<symbol overflow="visible" id="tibetan-abvs:id0:glyph0-2">
<path style="stroke:none;" d="M 56.65625 -78.09375 C 50.632812 -81.175781 45.40625 -83.707031 40.96875 -85.6875 C 36.53125 -87.664062 32.625 -89.203125 29.25 -90.296875 C 25.882812 -91.398438 22.789062 -92.171875 19.96875 -92.609375 C 17.144531 -93.054688 14.335938 -93.28125 11.546875 -93.28125 C 8.835938 -93.28125 6.085938 -92.835938 3.296875 -91.953125 L 4.953125 -101.640625 C 6.191406 -102.222656 7.507812 -102.625 8.90625 -102.84375 C 10.300781 -103.070312 11.695312 -103.1875 13.09375 -103.1875 C 16.238281 -103.1875 19.5 -102.742188 22.875 -101.859375 C 26.25 -100.984375 30.15625 -99.296875 34.59375 -96.796875 C 39.03125 -94.304688 44.4375 -90.710938 50.8125 -86.015625 C 45.757812 -92.765625 41.453125 -97.914062 37.890625 -101.46875 C 34.335938 -105.03125 31.1875 -107.488281 28.4375 -108.84375 C 25.6875 -110.195312 22.988281 -110.875 20.34375 -110.875 C 18.289062 -110.875 16.273438 -110.4375 14.296875 -109.5625 L 15.953125 -119.234375 C 16.828125 -119.828125 17.796875 -120.234375 18.859375 -120.453125 C 19.921875 -120.671875 20.929688 -120.78125 21.890625 -120.78125 C 24.753906 -120.78125 27.375 -120.25 29.75 -119.1875 C 32.132812 -118.125 34.59375 -116.21875 37.125 -113.46875 C 39.65625 -110.71875 42.609375 -106.8125 45.984375 -101.75 C 49.359375 -96.6875 53.460938 -90.125 58.296875 -82.0625 Z M 56.65625 -78.09375 "/>
</symbol>
<symbol overflow="visible" id="tibetan-abvs:id0:glyph0-3">
<path style="stroke:none;" d="M 14.84375 -103.953125 C 18.289062 -103.953125 21.078125 -102.882812 23.203125 -100.75 C 25.335938 -98.625 26.40625 -95.84375 26.40625 -92.40625 C 26.40625 -88.957031 25.335938 -86.164062 23.203125 -84.03125 C 21.078125 -81.90625 18.289062 -80.84375 14.84375 -80.84375 C 11.476562 -80.84375 8.710938 -81.90625 6.546875 -84.03125 C 4.378906 -86.164062 3.296875 -88.957031 3.296875 -92.40625 C 3.296875 -95.84375 4.378906 -98.625 6.546875 -100.75 C 8.710938 -102.882812 11.476562 -103.953125 14.84375 -103.953125 Z M 14.84375 -98.453125 C 13.007812 -98.453125 11.539062 -97.898438 10.4375 -96.796875 C 9.34375 -95.703125 8.796875 -94.238281 8.796875 -92.40625 C 8.796875 -90.570312 9.34375 -89.101562 10.4375 -88 C 11.539062 -86.894531 13.007812 -86.34375 14.84375 -86.34375 C 16.675781 -86.34375 18.144531 -86.894531 19.25 -88 C 20.351562 -89.101562 20.90625 -90.570312 20.90625 -92.40625 C 20.90625 -94.238281 20.351562 -95.703125 19.25 -96.796875 C 18.144531 -97.898438 16.675781 -98.453125 14.84375 -98.453125 Z M 14.84375 -98.453125 "/>
</symbol>
</g>
<g>
<symbol overflow="visible" id="tibetan-abvs:id1:glyph0-0">
<path style="stroke:none;" d="M 5.375 -96.6875 L 69.828125 -96.6875 L 69.828125 0 L 5.375 0 Z M 8.0625 -2.6875 L 67.140625 -2.6875 L 67.140625 -94 L 8.0625 -94 Z M 8.0625 -2.6875 "/>
</symbol>
<symbol overflow="visible" id="tibetan-abvs:id1:glyph0-1">
<path style="stroke:none;" d="M 68.15625 -13.75 L 66.28125 -18.640625 L 88.09375 -27.390625 L 6.984375 -27.390625 L 6.984375 -34 L 88.09375 -34 L 66.28125 -42.75 L 68.15625 -47.640625 L 99.09375 -34.265625 L 99.09375 -27.125 Z M 68.15625 -13.75 "/>
</symbol>
</g>
<g>
<symbol overflow="visible" id="tibetan-abvs:id2:glyph0-0">
<path style="stroke:none;" d="M 10.34375 0 L 10.34375 -78.4375 L 55.546875 -78.4375 L 55.546875 0 Z M 15.953125 -5.5 L 49.9375 -5.5 L 49.9375 -72.8125 L 15.953125 -72.8125 Z M 15.953125 -5.5 "/>
</symbol>
<symbol overflow="visible" id="tibetan-abvs:id2:glyph0-1">
<path style="stroke:none;" d="M 6.484375 -43.234375 C 5.535156 -44.617188 4.875 -46.023438 4.5 -47.453125 C 4.132812 -48.890625 3.953125 -50.488281 3.953125 -52.25 C 3.953125 -56.570312 5.289062 -60.601562 7.96875 -64.34375 C 10.644531 -68.082031 14.550781 -71.492188 19.6875 -74.578125 L 49.828125 -74.578125 L 47.84375 -66 C 48.65625 -63.65625 49.0625 -61.160156 49.0625 -58.515625 C 49.0625 -53.972656 47.890625 -49.648438 45.546875 -45.546875 C 48.617188 -43.710938 51.050781 -41.144531 52.84375 -37.84375 C 54.644531 -34.539062 55.546875 -30.65625 55.546875 -26.1875 C 55.546875 -22.144531 55.066406 -17.847656 54.109375 -13.296875 C 53.160156 -8.753906 51.4375 -3.535156 48.9375 2.359375 C 46.445312 8.265625 43.003906 15.234375 38.609375 23.265625 C 34.210938 31.296875 28.53125 40.847656 21.5625 51.921875 L 18.703125 47.625 C 23.460938 38.90625 27.472656 31.257812 30.734375 24.6875 C 34.003906 18.125 36.664062 12.382812 38.71875 7.46875 C 40.769531 2.5625 42.328125 -1.738281 43.390625 -5.4375 C 44.453125 -9.144531 45.1875 -12.460938 45.59375 -15.390625 C 46 -18.328125 46.203125 -21.15625 46.203125 -23.875 C 46.203125 -29.664062 44.734375 -34.207031 41.796875 -37.5 C 38.867188 -40.800781 34.691406 -42.453125 29.265625 -42.453125 C 25.003906 -42.453125 21.847656 -41.5 19.796875 -39.59375 C 17.742188 -37.6875 16.71875 -35.125 16.71875 -31.90625 C 16.71875 -28.96875 17.851562 -26.34375 20.125 -24.03125 C 22.40625 -21.71875 25.890625 -19.757812 30.578125 -18.15625 L 24.75 -10.671875 C 20.050781 -12.140625 16.363281 -14.335938 13.6875 -17.265625 C 11.019531 -20.203125 9.6875 -24.015625 9.6875 -28.703125 C 9.6875 -32.296875 10.582031 -35.632812 12.375 -38.71875 C 14.164062 -41.800781 16.726562 -44.273438 20.0625 -46.140625 C 23.40625 -48.015625 27.425781 -48.953125 32.125 -48.953125 C 35.5 -48.953125 38.578125 -48.4375 41.359375 -47.40625 C 41.867188 -48.582031 42.21875 -49.773438 42.40625 -50.984375 C 42.59375 -52.191406 42.6875 -53.382812 42.6875 -54.5625 C 42.6875 -58.664062 41.582031 -62.1875 39.375 -65.125 L 14.625 -65.125 C 13.601562 -63.875 12.796875 -62.441406 12.203125 -60.828125 C 11.617188 -59.210938 11.328125 -57.453125 11.328125 -55.546875 C 11.328125 -54.523438 11.472656 -53.59375 11.765625 -52.75 C 12.054688 -51.90625 12.460938 -51.039062 12.984375 -50.15625 Z M 6.484375 -43.234375 "/>
</symbol>
<symbol overflow="visible" id="tibetan-abvs:id2:glyph0-2">
<path style="stroke:none;" d="M 51.15625 -128.15625 C 54.59375 -128.15625 57.375 -127.085938 59.5 -124.953125 C 61.632812 -122.828125 62.703125 -120.039062 62.703125 -116.59375 C 62.703125 -113.15625 61.632812 -110.367188 59.5 -108.234375 C 57.375 -106.109375 54.59375 -105.046875 51.15625 -105.046875 C 47.78125 -105.046875 45.007812 -106.109375 42.84375 -108.234375 C 40.675781 -110.367188 39.59375 -113.15625 39.59375 -116.59375 C 39.59375 -120.039062 40.675781 -122.828125 42.84375 -124.953125 C 45.007812 -127.085938 47.78125 -128.15625 51.15625 -128.15625 Z M 51.15625 -122.65625 C 49.320312 -122.65625 47.851562 -122.101562 46.75 -121 C 45.644531 -119.894531 45.09375 -118.425781 45.09375 -116.59375 C 45.09375 -114.757812 45.644531 -113.289062 46.75 -112.1875 C 47.851562 -111.09375 49.320312 -110.546875 51.15625 -110.546875 C 52.988281 -110.546875 54.453125 -111.09375 55.546875 -112.1875 C 56.648438 -113.289062 57.203125 -114.757812 57.203125 -116.59375 C 57.203125 -118.425781 56.648438 -119.894531 55.546875 -121 C 54.453125 -122.101562 52.988281 -122.65625 51.15625 -122.65625 Z M 56.65625 -78.09375 C 50.632812 -80.070312 45.40625 -81.6875 40.96875 -82.9375 C 36.53125 -84.1875 32.625 -85.175781 29.25 -85.90625 C 25.882812 -86.644531 22.789062 -87.140625 19.96875 -87.390625 C 17.144531 -87.648438 14.335938 -87.78125 11.546875 -87.78125 C 8.835938 -87.78125 6.085938 -87.335938 3.296875 -86.453125 L 4.953125 -95.703125 C 6.191406 -96.285156 7.507812 -96.6875 8.90625 -96.90625 C 10.300781 -97.125 11.695312 -97.234375 13.09375 -97.234375 C 16.320312 -97.234375 19.617188 -96.882812 22.984375 -96.1875 C 26.359375 -95.5 30.316406 -94.203125 34.859375 -92.296875 C 39.410156 -90.390625 44.953125 -87.5625 51.484375 -83.8125 C 45.691406 -89.164062 40.773438 -93.253906 36.734375 -96.078125 C 32.703125 -98.898438 29.144531 -100.84375 26.0625 -101.90625 C 22.988281 -102.976562 19.984375 -103.515625 17.046875 -103.515625 C 14.992188 -103.515625 12.976562 -103.179688 11 -102.515625 L 12.65625 -111.765625 C 13.53125 -112.203125 14.5 -112.507812 15.5625 -112.6875 C 16.625 -112.875 17.632812 -112.96875 18.59375 -112.96875 C 21.226562 -112.96875 23.789062 -112.5625 26.28125 -111.75 C 28.78125 -110.945312 31.492188 -109.445312 34.421875 -107.25 C 37.359375 -105.050781 40.75 -101.914062 44.59375 -97.84375 C 48.445312 -93.769531 53.015625 -88.507812 58.296875 -82.0625 Z M 56.65625 -78.09375 "/>
</symbol>
</g>
</defs>
  <g id="tibetan-abvs:id0:id0" transform="matrix(1.25,0,0,1.25,0.0,0.0)"><g id="tibetan-abvs:id0:surface1">
<g style="fill:rgb(0%,0%,0%);fill-opacity:1;">
  <use xlink:href="#tibetan-abvs:id0:glyph0-1" x="16" y="163.265625" class="c0"/>
  <use xlink:href="#tibetan-abvs:id0:glyph0-2" x="10.9375" y="163.265625" class="c1"/>
  <use xlink:href="#tibetan-abvs:id0:glyph0-3" x="26.890625" y="117.0625" class="c2"/>
</g>
</g>
</g>
  <g id="tibetan-abvs:id1:id1" transform="matrix(1.25,0,0,1.25,113.5546875,95.33203125)"><g id="tibetan-abvs:id1:surface1">
<g style="fill:rgb(0%,0%,0%);fill-opacity:1;">
  <use xlink:href="#tibetan-abvs:id1:glyph0-1" x="0" y="120.84375" class="arrow"/>
</g>
</g>
</g>
  <g id="tibetan-abvs:id2:id2" transform="matrix(1.25,0,0,1.25,246.15234375,0.0)"><g id="tibetan-abvs:id2:surface1">
<g style="fill:rgb(0%,0%,0%);fill-opacity:1;">
  <use xlink:href="#tibetan-abvs:id2:glyph0-1" x="16" y="163.265625" class="c0"/>
  <use xlink:href="#tibetan-abvs:id2:glyph0-2" x="10.9375" y="163.265625" class="c3"/>
</g>
</g>
</g>
</svg>
