<!DOCTYPE svg PUBLIC "-//W3C//DTD SVG 1.1//EN" "http://www.w3.org/Graphics/SVG/1.1/DTD/svg11.dtd">
<!-- Created with svg_stack (http://github.com/astraw/svg_stack) --><svg xmlns="http://www.w3.org/2000/svg" xmlns:sodipodi="http://sodipodi.sourceforge.net/DTD/sodipodi-0.dtd" xmlns:xlink="http://www.w3.org/1999/xlink" version="1.1" width="371.81640625" height="392.0703125" id="tibetan-mkmk">
  <defs><g>
<symbol overflow="visible" id="tibetan-mkmk:id0:glyph0-0">
<path style="stroke:none;" d="M 10.34375 0 L 10.34375 -78.4375 L 55.546875 -78.4375 L 55.546875 0 Z M 15.953125 -5.5 L 49.9375 -5.5 L 49.9375 -72.8125 L 15.953125 -72.8125 Z M 15.953125 -5.5 "/>
</symbol>
<symbol overflow="visible" id="tibetan-mkmk:id0:glyph0-1">
<path style="stroke:none;" d="M 45.546875 28.8125 C 49.210938 28.8125 52.363281 29.617188 55 31.234375 C 55.582031 29.773438 55.875 28.128906 55.875 26.296875 C 55.875 22.472656 54.921875 19.242188 53.015625 16.609375 L 30.796875 16.609375 C 29.554688 18.734375 28.9375 21.445312 28.9375 24.75 C 28.9375 26.875 29.242188 28.757812 29.859375 30.40625 C 30.484375 32.0625 31.421875 33.84375 32.671875 35.75 L 25.953125 42.6875 C 24.421875 40.476562 23.34375 38.273438 22.71875 36.078125 C 22.09375 33.878906 21.78125 31.644531 21.78125 29.375 C 21.78125 25.039062 22.914062 20.835938 25.1875 16.765625 C 27.457031 12.703125 30.722656 9.5 34.984375 7.15625 L 56.3125 7.15625 C 55.582031 -1.207031 54.722656 -8.03125 53.734375 -13.3125 C 52.742188 -18.59375 51.367188 -22.660156 49.609375 -25.515625 C 47.847656 -28.378906 45.425781 -30.359375 42.34375 -31.453125 C 39.269531 -32.554688 35.273438 -33.109375 30.359375 -33.109375 C 26.765625 -33.109375 22.988281 -32.960938 19.03125 -32.671875 C 15.070312 -32.378906 11.1875 -31.9375 7.375 -31.34375 L 3.515625 -34.875 C 4.472656 -40.375 5.628906 -45.6875 6.984375 -50.8125 C 8.335938 -55.945312 9.75 -60.71875 11.21875 -65.125 L 7.046875 -65.125 L 9.234375 -74.578125 L 58.625 -74.578125 L 56.4375 -65.125 L 19.90625 -65.125 C 17.707031 -61.382812 15.78125 -57.457031 14.125 -53.34375 C 12.476562 -49.238281 11.035156 -45.316406 9.796875 -41.578125 C 13.304688 -42.085938 16.914062 -42.488281 20.625 -42.78125 C 24.332031 -43.082031 27.941406 -43.234375 31.453125 -43.234375 C 36.953125 -43.234375 41.535156 -42.476562 45.203125 -40.96875 C 48.867188 -39.46875 51.800781 -36.882812 54 -33.21875 C 56.207031 -29.550781 57.859375 -24.4375 58.953125 -17.875 C 60.054688 -11.3125 60.828125 -2.96875 61.265625 7.15625 L 63.578125 7.15625 L 61.59375 15.84375 C 62.113281 17.675781 62.375 19.546875 62.375 21.453125 C 62.375 25.921875 60.941406 29.953125 58.078125 33.546875 C 59.984375 35.304688 61.890625 37.6875 63.796875 40.6875 C 65.703125 43.695312 67.789062 47.476562 70.0625 52.03125 L 65.671875 53.125 C 63.097656 49.382812 60.710938 46.46875 58.515625 44.375 C 56.316406 42.289062 54.023438 40.828125 51.640625 39.984375 C 49.253906 39.140625 46.5625 38.71875 43.5625 38.71875 C 42.820312 38.71875 42.066406 38.753906 41.296875 38.828125 C 40.535156 38.898438 39.785156 39.046875 39.046875 39.265625 L 40.15625 29.484375 C 41.84375 29.035156 43.640625 28.8125 45.546875 28.8125 Z M 45.546875 28.8125 "/>
</symbol>
<symbol overflow="visible" id="tibetan-mkmk:id0:glyph0-2">
<path style="stroke:none;" d="M -25.84375 5.5 C -22.40625 5.5 -19.617188 6.5625 -17.484375 8.6875 C -15.359375 10.8125 -14.296875 13.597656 -14.296875 17.046875 C -14.296875 20.492188 -15.359375 23.28125 -17.484375 25.40625 C -19.617188 27.53125 -22.40625 28.59375 -25.84375 28.59375 C -29.21875 28.59375 -31.988281 27.53125 -34.15625 25.40625 C -36.320312 23.28125 -37.40625 20.492188 -37.40625 17.046875 C -37.40625 13.597656 -36.320312 10.8125 -34.15625 8.6875 C -31.988281 6.5625 -29.21875 5.5 -25.84375 5.5 Z M -25.84375 11 C -27.675781 11 -29.144531 11.546875 -30.25 12.640625 C -31.351562 13.742188 -31.90625 15.210938 -31.90625 17.046875 C -31.90625 18.878906 -31.351562 20.34375 -30.25 21.4375 C -29.144531 22.539062 -27.675781 23.09375 -25.84375 23.09375 C -24.007812 23.09375 -22.539062 22.539062 -21.4375 21.4375 C -20.34375 20.34375 -19.796875 18.878906 -19.796875 17.046875 C -19.796875 15.210938 -20.34375 13.742188 -21.4375 12.640625 C -22.539062 11.546875 -24.007812 11 -25.84375 11 Z M -25.84375 45.765625 C -37.507812 45.765625 -45.03125 39.273438 -48.40625 26.296875 L -44.328125 23.765625 C -42.492188 28.304688 -40.128906 31.640625 -37.234375 33.765625 C -34.335938 35.890625 -30.539062 36.953125 -25.84375 36.953125 C -21.082031 36.953125 -17.269531 35.890625 -14.40625 33.765625 C -11.550781 31.640625 -9.207031 28.304688 -7.375 23.765625 L -3.296875 26.296875 C -6.671875 39.273438 -14.1875 45.765625 -25.84375 45.765625 Z M -25.84375 45.765625 "/>
</symbol>
</g>
<g>
<symbol overflow="visible" id="tibetan-mkmk:id1:glyph0-0">
<path style="stroke:none;" d="M 5.375 -96.6875 L 69.828125 -96.6875 L 69.828125 0 L 5.375 0 Z M 8.0625 -2.6875 L 67.140625 -2.6875 L 67.140625 -94 L 8.0625 -94 Z M 8.0625 -2.6875 "/>
</symbol>
<symbol overflow="visible" id="tibetan-mkmk:id1:glyph0-1">
<path style="stroke:none;" d="M 68.15625 -13.75 L 66.28125 -18.640625 L 88.09375 -27.390625 L 6.984375 -27.390625 L 6.984375 -34 L 88.09375 -34 L 66.28125 -42.75 L 68.15625 -47.640625 L 99.09375 -34.265625 L 99.09375 -27.125 Z M 68.15625 -13.75 "/>
</symbol>
</g>
<g>
<symbol overflow="visible" id="tibetan-mkmk:id2:glyph0-0">
<path style="stroke:none;" d="M 10.34375 0 L 10.34375 -78.4375 L 55.546875 -78.4375 L 55.546875 0 Z M 15.953125 -5.5 L 49.9375 -5.5 L 49.9375 -72.8125 L 15.953125 -72.8125 Z M 15.953125 -5.5 "/>
</symbol>
<symbol overflow="visible" id="tibetan-mkmk:id2:glyph0-1">
<path style="stroke:none;" d="M 45.546875 28.8125 C 49.210938 28.8125 52.363281 29.617188 55 31.234375 C 55.582031 29.773438 55.875 28.128906 55.875 26.296875 C 55.875 22.472656 54.921875 19.242188 53.015625 16.609375 L 30.796875 16.609375 C 29.554688 18.734375 28.9375 21.445312 28.9375 24.75 C 28.9375 26.875 29.242188 28.757812 29.859375 30.40625 C 30.484375 32.0625 31.421875 33.84375 32.671875 35.75 L 25.953125 42.6875 C 24.421875 40.476562 23.34375 38.273438 22.71875 36.078125 C 22.09375 33.878906 21.78125 31.644531 21.78125 29.375 C 21.78125 25.039062 22.914062 20.835938 25.1875 16.765625 C 27.457031 12.703125 30.722656 9.5 34.984375 7.15625 L 56.3125 7.15625 C 55.582031 -1.207031 54.722656 -8.03125 53.734375 -13.3125 C 52.742188 -18.59375 51.367188 -22.660156 49.609375 -25.515625 C 47.847656 -28.378906 45.425781 -30.359375 42.34375 -31.453125 C 39.269531 -32.554688 35.273438 -33.109375 30.359375 -33.109375 C 26.765625 -33.109375 22.988281 -32.960938 19.03125 -32.671875 C 15.070312 -32.378906 11.1875 -31.9375 7.375 -31.34375 L 3.515625 -34.875 C 4.472656 -40.375 5.628906 -45.6875 6.984375 -50.8125 C 8.335938 -55.945312 9.75 -60.71875 11.21875 -65.125 L 7.046875 -65.125 L 9.234375 -74.578125 L 58.625 -74.578125 L 56.4375 -65.125 L 19.90625 -65.125 C 17.707031 -61.382812 15.78125 -57.457031 14.125 -53.34375 C 12.476562 -49.238281 11.035156 -45.316406 9.796875 -41.578125 C 13.304688 -42.085938 16.914062 -42.488281 20.625 -42.78125 C 24.332031 -43.082031 27.941406 -43.234375 31.453125 -43.234375 C 36.953125 -43.234375 41.535156 -42.476562 45.203125 -40.96875 C 48.867188 -39.46875 51.800781 -36.882812 54 -33.21875 C 56.207031 -29.550781 57.859375 -24.4375 58.953125 -17.875 C 60.054688 -11.3125 60.828125 -2.96875 61.265625 7.15625 L 63.578125 7.15625 L 61.59375 15.84375 C 62.113281 17.675781 62.375 19.546875 62.375 21.453125 C 62.375 25.921875 60.941406 29.953125 58.078125 33.546875 C 59.984375 35.304688 61.890625 37.6875 63.796875 40.6875 C 65.703125 43.695312 67.789062 47.476562 70.0625 52.03125 L 65.671875 53.125 C 63.097656 49.382812 60.710938 46.46875 58.515625 44.375 C 56.316406 42.289062 54.023438 40.828125 51.640625 39.984375 C 49.253906 39.140625 46.5625 38.71875 43.5625 38.71875 C 42.820312 38.71875 42.066406 38.753906 41.296875 38.828125 C 40.535156 38.898438 39.785156 39.046875 39.046875 39.265625 L 40.15625 29.484375 C 41.84375 29.035156 43.640625 28.8125 45.546875 28.8125 Z M 45.546875 28.8125 "/>
</symbol>
<symbol overflow="visible" id="tibetan-mkmk:id2:glyph0-2">
<path style="stroke:none;" d="M -25.84375 5.5 C -22.40625 5.5 -19.617188 6.5625 -17.484375 8.6875 C -15.359375 10.8125 -14.296875 13.597656 -14.296875 17.046875 C -14.296875 20.492188 -15.359375 23.28125 -17.484375 25.40625 C -19.617188 27.53125 -22.40625 28.59375 -25.84375 28.59375 C -29.21875 28.59375 -31.988281 27.53125 -34.15625 25.40625 C -36.320312 23.28125 -37.40625 20.492188 -37.40625 17.046875 C -37.40625 13.597656 -36.320312 10.8125 -34.15625 8.6875 C -31.988281 6.5625 -29.21875 5.5 -25.84375 5.5 Z M -25.84375 11 C -27.675781 11 -29.144531 11.546875 -30.25 12.640625 C -31.351562 13.742188 -31.90625 15.210938 -31.90625 17.046875 C -31.90625 18.878906 -31.351562 20.34375 -30.25 21.4375 C -29.144531 22.539062 -27.675781 23.09375 -25.84375 23.09375 C -24.007812 23.09375 -22.539062 22.539062 -21.4375 21.4375 C -20.34375 20.34375 -19.796875 18.878906 -19.796875 17.046875 C -19.796875 15.210938 -20.34375 13.742188 -21.4375 12.640625 C -22.539062 11.546875 -24.007812 11 -25.84375 11 Z M -25.84375 45.765625 C -37.507812 45.765625 -45.03125 39.273438 -48.40625 26.296875 L -44.328125 23.765625 C -42.492188 28.304688 -40.128906 31.640625 -37.234375 33.765625 C -34.335938 35.890625 -30.539062 36.953125 -25.84375 36.953125 C -21.082031 36.953125 -17.269531 35.890625 -14.40625 33.765625 C -11.550781 31.640625 -9.207031 28.304688 -7.375 23.765625 L -3.296875 26.296875 C -6.671875 39.273438 -14.1875 45.765625 -25.84375 45.765625 Z M -25.84375 45.765625 "/>
</symbol>
</g>
</defs>
  <g id="tibetan-mkmk:id0:id0" transform="matrix(1.25,0,0,1.25,0.0,0.0)"><g id="tibetan-mkmk:id0:surface1">
<g style="fill:rgb(0%,0%,0%);fill-opacity:1;">
  <use xlink:href="#tibetan-mkmk:id0:glyph0-1" x="16" y="163.265625" class="c0"/>
  <use xlink:href="#tibetan-mkmk:id0:glyph0-2" x="78.921875" y="205.71875" class="c1"/>
</g>
</g>
</g>
  <g id="tibetan-mkmk:id1:id1" transform="matrix(1.25,0,0,1.25,119.609375,95.33203125)"><g id="tibetan-mkmk:id1:surface1">
<g style="fill:rgb(0%,0%,0%);fill-opacity:1;">
  <use xlink:href="#tibetan-mkmk:id1:glyph0-1" x="0" y="120.84375" class="arrow"/>
</g>
</g>
</g>
  <g id="tibetan-mkmk:id2:id2" transform="matrix(1.25,0,0,1.25,252.20703125,0.0)"><g id="tibetan-mkmk:id2:surface1">
<g style="fill:rgb(0%,0%,0%);fill-opacity:1;">
  <use xlink:href="#tibetan-mkmk:id2:glyph0-1" x="16" y="163.265625" class="c0"/>
  <use xlink:href="#tibetan-mkmk:id2:glyph0-2" x="78.921875" y="205.71875" class="c1"/>
</g>
</g>
</g>
</svg>
