<!DOCTYPE svg PUBLIC "-//W3C//DTD SVG 1.1//EN" "http://www.w3.org/Graphics/SVG/1.1/DTD/svg11.dtd">
<!-- Created with svg_stack (http://github.com/astraw/svg_stack) --><svg xmlns="http://www.w3.org/2000/svg" xmlns:sodipodi="http://sodipodi.sourceforge.net/DTD/sodipodi-0.dtd" xmlns:xlink="http://www.w3.org/1999/xlink" version="1.1" width="387.48046875" height="392.0703125" id="tibetan-blwm">
  <defs><g>
<symbol overflow="visible" id="tibetan-blwm:id0:glyph0-0">
<path style="stroke:none;" d="M 10.34375 0 L 10.34375 -78.4375 L 55.546875 -78.4375 L 55.546875 0 Z M 15.953125 -5.5 L 49.9375 -5.5 L 49.9375 -72.8125 L 15.953125 -72.8125 Z M 15.953125 -5.5 "/>
</symbol>
<symbol overflow="visible" id="tibetan-blwm:id0:glyph0-1">
<path style="stroke:none;" d="M 60.390625 -74.578125 C 60.828125 -79.421875 61.046875 -84.628906 61.046875 -90.203125 C 65.671875 -90.203125 69.46875 -90.492188 72.4375 -91.078125 C 75.40625 -91.660156 77.988281 -92.503906 80.1875 -93.609375 L 79.09375 -85.796875 C 77.1875 -84.472656 75.09375 -83.410156 72.8125 -82.609375 C 70.539062 -81.804688 67.976562 -81.332031 65.125 -81.1875 C 64.976562 -80.082031 64.789062 -78.960938 64.5625 -77.828125 C 64.34375 -76.691406 64.085938 -75.609375 63.796875 -74.578125 L 61.59375 -65.125 L 40.375 -65.125 C 40.59375 -64.019531 40.703125 -62.734375 40.703125 -61.265625 C 40.703125 -60.535156 40.664062 -59.878906 40.59375 -59.296875 C 42.570312 -59.734375 44.769531 -59.953125 47.1875 -59.953125 C 53.269531 -59.953125 57.851562 -58.722656 60.9375 -56.265625 C 64.019531 -53.804688 65.5625 -50.453125 65.5625 -46.203125 C 65.5625 -42.898438 64.5 -40.035156 62.375 -37.609375 C 60.25 -35.191406 57.367188 -33.320312 53.734375 -32 C 50.109375 -30.6875 45.984375 -30.03125 41.359375 -30.03125 C 36.515625 -30.03125 32.425781 -30.613281 29.09375 -31.78125 C 25.757812 -32.957031 22.898438 -34.515625 20.515625 -36.453125 C 18.128906 -38.398438 15.960938 -40.601562 14.015625 -43.0625 C 12.078125 -45.519531 10.097656 -48.050781 8.078125 -50.65625 C 6.066406 -53.257812 3.738281 -55.769531 1.09375 -58.1875 L 4.84375 -60.609375 C 8.070312 -58.265625 11.222656 -56.484375 14.296875 -55.265625 C 17.378906 -54.054688 20.71875 -53.453125 24.3125 -53.453125 C 27.976562 -53.453125 30.816406 -54.128906 32.828125 -55.484375 C 34.847656 -56.847656 35.859375 -58.628906 35.859375 -60.828125 C 35.859375 -62.367188 35.492188 -63.800781 34.765625 -65.125 L 10.015625 -65.125 L 12.203125 -74.578125 Z M 45.765625 -50.9375 C 41.722656 -50.9375 38.085938 -50.625 34.859375 -50 C 31.640625 -49.375 28.085938 -49.0625 24.203125 -49.0625 C 23.460938 -49.0625 22.765625 -49.097656 22.109375 -49.171875 C 21.453125 -49.242188 20.828125 -49.351562 20.234375 -49.5 L 19.90625 -49.171875 C 22.769531 -46.753906 25.46875 -44.585938 28 -42.671875 C 30.53125 -40.765625 33.222656 -39.242188 36.078125 -38.109375 C 38.941406 -36.972656 42.351562 -36.40625 46.3125 -36.40625 C 50.125 -36.40625 53.203125 -37.117188 55.546875 -38.546875 C 57.890625 -39.984375 59.0625 -41.835938 59.0625 -44.109375 C 59.0625 -46.160156 58 -47.8125 55.875 -49.0625 C 53.75 -50.3125 50.378906 -50.9375 45.765625 -50.9375 Z M 45.765625 -50.9375 "/>
</symbol>
<symbol overflow="visible" id="tibetan-blwm:id0:glyph0-2">
<path style="stroke:none;" d="M 32.34375 -22.546875 C 33.21875 -22.546875 34.0625 -22.507812 34.875 -22.4375 C 35.164062 -23.394531 35.3125 -24.421875 35.3125 -25.515625 C 35.3125 -28.085938 34.578125 -30.363281 33.109375 -32.34375 L 11.984375 -32.34375 C 11.617188 -31.238281 11.4375 -30.0625 11.4375 -28.8125 C 11.4375 -26.539062 11.894531 -24.503906 12.8125 -22.703125 C 13.726562 -20.910156 15.101562 -19.171875 16.9375 -17.484375 L 10.671875 -10.5625 C 8.398438 -12.46875 6.804688 -14.5 5.890625 -16.65625 C 4.972656 -18.820312 4.515625 -21.15625 4.515625 -23.65625 C 4.515625 -27.175781 5.429688 -30.582031 7.265625 -33.875 C 9.097656 -37.175781 11.660156 -39.816406 14.953125 -41.796875 L 42.125 -41.796875 L 40.375 -34.09375 C 40.957031 -32.40625 41.25 -30.722656 41.25 -29.046875 C 41.25 -26.472656 40.625 -24.085938 39.375 -21.890625 C 42.238281 -21.234375 45.265625 -20.113281 48.453125 -18.53125 C 51.640625 -16.957031 55.398438 -14.628906 59.734375 -11.546875 C 59.585938 -15.429688 59.253906 -19.171875 58.734375 -22.765625 C 58.222656 -26.359375 57.601562 -29.550781 56.875 -32.34375 L 52.796875 -32.34375 L 55 -41.796875 L 66.21875 -41.796875 L 64.015625 -32.34375 L 64.015625 -6.59375 L 58.953125 -7.703125 C 54.847656 -9.316406 51.21875 -10.5625 48.0625 -11.4375 C 44.914062 -12.320312 41.96875 -12.925781 39.21875 -13.25 C 36.46875 -13.582031 33.625 -13.75 30.6875 -13.75 C 29.664062 -13.75 28.546875 -13.691406 27.328125 -13.578125 C 26.117188 -13.472656 25.003906 -13.3125 23.984375 -13.09375 L 24.859375 -21.671875 C 26.035156 -22.035156 27.226562 -22.269531 28.4375 -22.375 C 29.644531 -22.488281 30.945312 -22.546875 32.34375 -22.546875 Z M 32.34375 -22.546875 "/>
</symbol>
<symbol overflow="visible" id="tibetan-blwm:id0:glyph0-3">
<path style="stroke:none;" d="M 8.6875 -21.015625 C 14.113281 -17.203125 18.84375 -13.660156 22.875 -10.390625 C 26.914062 -7.128906 30.53125 -4.210938 33.71875 -1.640625 C 36.90625 0.921875 39.925781 3.117188 42.78125 4.953125 C 45.644531 6.785156 48.578125 8.175781 51.578125 9.125 C 54.585938 10.082031 57.960938 10.5625 61.703125 10.5625 C 64.710938 10.5625 67.023438 9.972656 68.640625 8.796875 C 70.253906 7.628906 71.0625 6.238281 71.0625 4.625 C 71.0625 3.15625 70.472656 1.960938 69.296875 1.046875 C 68.128906 0.128906 66.476562 -0.328125 64.34375 -0.328125 C 60.820312 -0.328125 57.632812 0.695312 54.78125 2.75 L 53.34375 -6.375 C 55.625 -8.65625 58.632812 -9.796875 62.375 -9.796875 C 62.664062 -9.796875 62.921875 -9.796875 63.140625 -9.796875 C 60.578125 -11.921875 58.03125 -13.382812 55.5 -14.1875 C 52.96875 -15 50.085938 -15.40625 46.859375 -15.40625 C 45.390625 -15.40625 43.847656 -15.21875 42.234375 -14.84375 L 43.34375 -24.53125 C 44.144531 -24.675781 45.019531 -24.800781 45.96875 -24.90625 C 46.925781 -25.019531 47.882812 -25.078125 48.84375 -25.078125 C 52.4375 -25.078125 55.550781 -24.378906 58.1875 -22.984375 C 58.40625 -23.722656 58.515625 -24.566406 58.515625 -25.515625 C 58.515625 -28.085938 57.859375 -30.289062 56.546875 -32.125 L 33.875 -32.125 C 33.144531 -30.726562 32.78125 -28.929688 32.78125 -26.734375 C 32.78125 -25.265625 33.035156 -23.925781 33.546875 -22.71875 C 34.054688 -21.507812 34.828125 -20.207031 35.859375 -18.8125 L 29.15625 -11.875 C 27.90625 -13.632812 27.003906 -15.359375 26.453125 -17.046875 C 25.898438 -18.734375 25.625 -20.492188 25.625 -22.328125 C 25.625 -26.066406 26.722656 -29.695312 28.921875 -33.21875 C 31.128906 -36.738281 34.25 -39.523438 38.28125 -41.578125 L 66.546875 -41.578125 L 64.5625 -32.890625 C 64.789062 -31.929688 64.90625 -30.941406 64.90625 -29.921875 C 64.90625 -26.617188 63.726562 -23.613281 61.375 -20.90625 C 63.207031 -19.363281 65.039062 -17.34375 66.875 -14.84375 C 68.707031 -12.351562 70.648438 -9.273438 72.703125 -5.609375 C 75.054688 -3.117188 76.234375 -0.00390625 76.234375 3.734375 C 76.234375 8.359375 74.726562 12.226562 71.71875 15.34375 C 68.707031 18.457031 64.378906 20.015625 58.734375 20.015625 C 54.921875 20.015625 51.457031 19.410156 48.34375 18.203125 C 45.226562 16.992188 42.1875 15.25 39.21875 12.96875 C 36.25 10.695312 33.128906 7.96875 29.859375 4.78125 C 26.597656 1.59375 22.914062 -1.941406 18.8125 -5.828125 C 14.707031 -9.710938 9.941406 -13.894531 4.515625 -18.375 Z M 8.6875 -21.015625 "/>
</symbol>
</g>
<g>
<symbol overflow="visible" id="tibetan-blwm:id1:glyph0-0">
<path style="stroke:none;" d="M 5.375 -96.6875 L 69.828125 -96.6875 L 69.828125 0 L 5.375 0 Z M 8.0625 -2.6875 L 67.140625 -2.6875 L 67.140625 -94 L 8.0625 -94 Z M 8.0625 -2.6875 "/>
</symbol>
<symbol overflow="visible" id="tibetan-blwm:id1:glyph0-1">
<path style="stroke:none;" d="M 68.15625 -13.75 L 66.28125 -18.640625 L 88.09375 -27.390625 L 6.984375 -27.390625 L 6.984375 -34 L 88.09375 -34 L 66.28125 -42.75 L 68.15625 -47.640625 L 99.09375 -34.265625 L 99.09375 -27.125 Z M 68.15625 -13.75 "/>
</symbol>
</g>
<g>
<symbol overflow="visible" id="tibetan-blwm:id2:glyph0-0">
<path style="stroke:none;" d="M 10.34375 0 L 10.34375 -78.4375 L 55.546875 -78.4375 L 55.546875 0 Z M 15.953125 -5.5 L 49.9375 -5.5 L 49.9375 -72.8125 L 15.953125 -72.8125 Z M 15.953125 -5.5 "/>
</symbol>
<symbol overflow="visible" id="tibetan-blwm:id2:glyph0-1">
<path style="stroke:none;" d="M 60.390625 -74.578125 C 60.828125 -79.421875 61.046875 -84.628906 61.046875 -90.203125 C 65.671875 -90.203125 69.46875 -90.492188 72.4375 -91.078125 C 75.40625 -91.660156 77.988281 -92.503906 80.1875 -93.609375 L 79.09375 -85.796875 C 77.1875 -84.472656 75.09375 -83.410156 72.8125 -82.609375 C 70.539062 -81.804688 67.976562 -81.332031 65.125 -81.1875 C 64.976562 -80.082031 64.789062 -78.960938 64.5625 -77.828125 C 64.34375 -76.691406 64.085938 -75.609375 63.796875 -74.578125 L 61.59375 -65.125 L 40.375 -65.125 C 40.59375 -64.019531 40.703125 -62.734375 40.703125 -61.265625 C 40.703125 -60.535156 40.664062 -59.878906 40.59375 -59.296875 C 42.570312 -59.734375 44.769531 -59.953125 47.1875 -59.953125 C 53.269531 -59.953125 57.851562 -58.722656 60.9375 -56.265625 C 64.019531 -53.804688 65.5625 -50.453125 65.5625 -46.203125 C 65.5625 -42.898438 64.5 -40.035156 62.375 -37.609375 C 60.25 -35.191406 57.367188 -33.320312 53.734375 -32 C 50.109375 -30.6875 45.984375 -30.03125 41.359375 -30.03125 C 36.515625 -30.03125 32.425781 -30.613281 29.09375 -31.78125 C 25.757812 -32.957031 22.898438 -34.515625 20.515625 -36.453125 C 18.128906 -38.398438 15.960938 -40.601562 14.015625 -43.0625 C 12.078125 -45.519531 10.097656 -48.050781 8.078125 -50.65625 C 6.066406 -53.257812 3.738281 -55.769531 1.09375 -58.1875 L 4.84375 -60.609375 C 8.070312 -58.265625 11.222656 -56.484375 14.296875 -55.265625 C 17.378906 -54.054688 20.71875 -53.453125 24.3125 -53.453125 C 27.976562 -53.453125 30.816406 -54.128906 32.828125 -55.484375 C 34.847656 -56.847656 35.859375 -58.628906 35.859375 -60.828125 C 35.859375 -62.367188 35.492188 -63.800781 34.765625 -65.125 L 10.015625 -65.125 L 12.203125 -74.578125 Z M 45.765625 -50.9375 C 41.722656 -50.9375 38.085938 -50.625 34.859375 -50 C 31.640625 -49.375 28.085938 -49.0625 24.203125 -49.0625 C 23.460938 -49.0625 22.765625 -49.097656 22.109375 -49.171875 C 21.453125 -49.242188 20.828125 -49.351562 20.234375 -49.5 L 19.90625 -49.171875 C 22.769531 -46.753906 25.46875 -44.585938 28 -42.671875 C 30.53125 -40.765625 33.222656 -39.242188 36.078125 -38.109375 C 38.941406 -36.972656 42.351562 -36.40625 46.3125 -36.40625 C 50.125 -36.40625 53.203125 -37.117188 55.546875 -38.546875 C 57.890625 -39.984375 59.0625 -41.835938 59.0625 -44.109375 C 59.0625 -46.160156 58 -47.8125 55.875 -49.0625 C 53.75 -50.3125 50.378906 -50.9375 45.765625 -50.9375 Z M 45.765625 -50.9375 "/>
</symbol>
<symbol overflow="visible" id="tibetan-blwm:id2:glyph0-2">
<path style="stroke:none;" d="M 32.34375 -22.546875 C 33.21875 -22.546875 34.0625 -22.507812 34.875 -22.4375 C 35.164062 -23.394531 35.3125 -24.421875 35.3125 -25.515625 C 35.3125 -28.085938 34.578125 -30.363281 33.109375 -32.34375 L 11.984375 -32.34375 C 11.617188 -31.238281 11.4375 -30.0625 11.4375 -28.8125 C 11.4375 -26.539062 11.894531 -24.503906 12.8125 -22.703125 C 13.726562 -20.910156 15.101562 -19.171875 16.9375 -17.484375 L 10.671875 -10.5625 C 8.398438 -12.46875 6.804688 -14.5 5.890625 -16.65625 C 4.972656 -18.820312 4.515625 -21.15625 4.515625 -23.65625 C 4.515625 -27.175781 5.429688 -30.582031 7.265625 -33.875 C 9.097656 -37.175781 11.660156 -39.816406 14.953125 -41.796875 L 42.125 -41.796875 L 40.375 -34.09375 C 40.957031 -32.40625 41.25 -30.722656 41.25 -29.046875 C 41.25 -26.472656 40.625 -24.085938 39.375 -21.890625 C 42.238281 -21.234375 45.265625 -20.113281 48.453125 -18.53125 C 51.640625 -16.957031 55.398438 -14.628906 59.734375 -11.546875 C 59.585938 -15.429688 59.253906 -19.171875 58.734375 -22.765625 C 58.222656 -26.359375 57.601562 -29.550781 56.875 -32.34375 L 52.796875 -32.34375 L 55 -41.796875 L 66.21875 -41.796875 L 64.015625 -32.34375 L 64.015625 -6.59375 L 58.953125 -7.703125 C 54.847656 -9.316406 51.21875 -10.5625 48.0625 -11.4375 C 44.914062 -12.320312 41.96875 -12.925781 39.21875 -13.25 C 36.46875 -13.582031 33.625 -13.75 30.6875 -13.75 C 29.664062 -13.75 28.546875 -13.691406 27.328125 -13.578125 C 26.117188 -13.472656 25.003906 -13.3125 23.984375 -13.09375 L 24.859375 -21.671875 C 26.035156 -22.035156 27.226562 -22.269531 28.4375 -22.375 C 29.644531 -22.488281 30.945312 -22.546875 32.34375 -22.546875 Z M 32.34375 -22.546875 "/>
</symbol>
<symbol overflow="visible" id="tibetan-blwm:id2:glyph0-3">
<path style="stroke:none;" d="M 8.6875 -21.015625 C 14.113281 -17.203125 18.84375 -13.660156 22.875 -10.390625 C 26.914062 -7.128906 30.53125 -4.210938 33.71875 -1.640625 C 36.90625 0.921875 39.925781 3.117188 42.78125 4.953125 C 45.644531 6.785156 48.578125 8.175781 51.578125 9.125 C 54.585938 10.082031 57.960938 10.5625 61.703125 10.5625 C 64.710938 10.5625 67.023438 9.972656 68.640625 8.796875 C 70.253906 7.628906 71.0625 6.238281 71.0625 4.625 C 71.0625 3.15625 70.472656 1.960938 69.296875 1.046875 C 68.128906 0.128906 66.476562 -0.328125 64.34375 -0.328125 C 60.820312 -0.328125 57.632812 0.695312 54.78125 2.75 L 53.34375 -6.375 C 55.625 -8.65625 58.632812 -9.796875 62.375 -9.796875 C 62.664062 -9.796875 62.921875 -9.796875 63.140625 -9.796875 C 60.578125 -11.921875 58.03125 -13.382812 55.5 -14.1875 C 52.96875 -15 50.085938 -15.40625 46.859375 -15.40625 C 45.390625 -15.40625 43.847656 -15.21875 42.234375 -14.84375 L 43.34375 -24.53125 C 44.144531 -24.675781 45.019531 -24.800781 45.96875 -24.90625 C 46.925781 -25.019531 47.882812 -25.078125 48.84375 -25.078125 C 52.4375 -25.078125 55.550781 -24.378906 58.1875 -22.984375 C 58.40625 -23.722656 58.515625 -24.566406 58.515625 -25.515625 C 58.515625 -28.085938 57.859375 -30.289062 56.546875 -32.125 L 33.875 -32.125 C 33.144531 -30.726562 32.78125 -28.929688 32.78125 -26.734375 C 32.78125 -25.265625 33.035156 -23.925781 33.546875 -22.71875 C 34.054688 -21.507812 34.828125 -20.207031 35.859375 -18.8125 L 29.15625 -11.875 C 27.90625 -13.632812 27.003906 -15.359375 26.453125 -17.046875 C 25.898438 -18.734375 25.625 -20.492188 25.625 -22.328125 C 25.625 -26.066406 26.722656 -29.695312 28.921875 -33.21875 C 31.128906 -36.738281 34.25 -39.523438 38.28125 -41.578125 L 66.546875 -41.578125 L 64.5625 -32.890625 C 64.789062 -31.929688 64.90625 -30.941406 64.90625 -29.921875 C 64.90625 -26.617188 63.726562 -23.613281 61.375 -20.90625 C 63.207031 -19.363281 65.039062 -17.34375 66.875 -14.84375 C 68.707031 -12.351562 70.648438 -9.273438 72.703125 -5.609375 C 75.054688 -3.117188 76.234375 -0.00390625 76.234375 3.734375 C 76.234375 8.359375 74.726562 12.226562 71.71875 15.34375 C 68.707031 18.457031 64.378906 20.015625 58.734375 20.015625 C 54.921875 20.015625 51.457031 19.410156 48.34375 18.203125 C 45.226562 16.992188 42.1875 15.25 39.21875 12.96875 C 36.25 10.695312 33.128906 7.96875 29.859375 4.78125 C 26.597656 1.59375 22.914062 -1.941406 18.8125 -5.828125 C 14.707031 -9.710938 9.941406 -13.894531 4.515625 -18.375 Z M 8.6875 -21.015625 "/>
</symbol>
</g>
</defs>
  <g id="tibetan-blwm:id0:id0" transform="matrix(1.25,0,0,1.25,0.0,0.0)"><g id="tibetan-blwm:id0:surface1">
<g style="fill:rgb(0%,0%,0%);fill-opacity:1;">
  <use xlink:href="#tibetan-blwm:id0:glyph0-1" x="16" y="163.265625" class="c0"/>
  <use xlink:href="#tibetan-blwm:id0:glyph0-2" x="13.578125" y="178.671875" class="c1"/>
  <use xlink:href="#tibetan-blwm:id0:glyph0-3" x="13.25" y="212.546875" class="c2"/>
</g>
</g>
</g>
  <g id="tibetan-blwm:id1:id1" transform="matrix(1.25,0,0,1.25,127.44140625,95.33203125)"><g id="tibetan-blwm:id1:surface1">
<g style="fill:rgb(0%,0%,0%);fill-opacity:1;">
  <use xlink:href="#tibetan-blwm:id1:glyph0-1" x="0" y="120.84375" class="arrow"/>
</g>
</g>
</g>
  <g id="tibetan-blwm:id2:id2" transform="matrix(1.25,0,0,1.25,260.0390625,0.0)"><g id="tibetan-blwm:id2:surface1">
<g style="fill:rgb(0%,0%,0%);fill-opacity:1;">
  <use xlink:href="#tibetan-blwm:id2:glyph0-1" x="16" y="163.265625" class="c0"/>
  <use xlink:href="#tibetan-blwm:id2:glyph0-2" x="13.578125" y="178.671875" class="c1"/>
  <use xlink:href="#tibetan-blwm:id2:glyph0-3" x="13.25" y="212.546875" class="c2"/>
</g>
</g>
</g>
</svg>
