<?xml version="1.0" standalone="no"?>
<!DOCTYPE svg PUBLIC "-//W3C//DTD SVG 1.1//EN"
 "http://www.w3.org/Graphics/SVG/1.1/DTD/svg11.dtd">
<!-- Created with svg_stack (http://github.com/astraw/svg_stack) -->
<svg xmlns="http://www.w3.org/2000/svg" xmlns:sodipodi="http://sodipodi.sourceforge.net/DTD/sodipodi-0.dtd" xmlns:xlink="http://www.w3.org/1999/xlink" version="1.1" width="564.43359375" height="392.0703125">
  <defs><g>
<symbol overflow="visible" id="id0:glyph0-0">
<path style="stroke:none;" d="M 10.34375 0 L 10.34375 -78.4375 L 55.546875 -78.4375 L 55.546875 0 Z M 15.953125 -5.5 L 49.9375 -5.5 L 49.9375 -72.8125 L 15.953125 -72.8125 Z M 15.953125 -5.5 "/>
</symbol>
<symbol overflow="visible" id="id0:glyph0-1">
<path style="stroke:none;" d="M 27.9375 -67.546875 C 30.132812 -67.546875 31.234375 -66.515625 31.234375 -64.453125 C 31.234375 -62.328125 30.132812 -61.265625 27.9375 -61.265625 C 25.882812 -61.265625 24.859375 -62.328125 24.859375 -64.453125 C 24.859375 -66.515625 25.882812 -67.546875 27.9375 -67.546875 Z M 42.234375 -62.15625 C 44.367188 -62.15625 45.4375 -61.085938 45.4375 -58.953125 C 45.4375 -56.828125 44.367188 -55.765625 42.234375 -55.765625 C 40.109375 -55.765625 39.046875 -56.828125 39.046875 -58.953125 C 39.046875 -61.085938 40.109375 -62.15625 42.234375 -62.15625 Z M 13.75 -62.15625 C 15.875 -62.15625 16.9375 -61.085938 16.9375 -58.953125 C 16.9375 -56.828125 15.875 -55.765625 13.75 -55.765625 C 11.695312 -55.765625 10.671875 -56.828125 10.671875 -58.953125 C 10.671875 -61.085938 11.695312 -62.15625 13.75 -62.15625 Z M 8.90625 -48.40625 C 10.957031 -48.40625 11.984375 -47.375 11.984375 -45.3125 C 11.984375 -43.1875 10.957031 -42.125 8.90625 -42.125 C 6.78125 -42.125 5.71875 -43.1875 5.71875 -45.3125 C 5.71875 -47.375 6.78125 -48.40625 8.90625 -48.40625 Z M 47.1875 -48.40625 C 49.3125 -48.40625 50.375 -47.375 50.375 -45.3125 C 50.375 -43.1875 49.3125 -42.125 47.1875 -42.125 C 45.0625 -42.125 44 -43.1875 44 -45.3125 C 44 -47.375 45.0625 -48.40625 47.1875 -48.40625 Z M 13.75 -34.765625 C 15.875 -34.765625 16.9375 -33.695312 16.9375 -31.5625 C 16.9375 -29.4375 15.875 -28.375 13.75 -28.375 C 11.695312 -28.375 10.671875 -29.4375 10.671875 -31.5625 C 10.671875 -33.695312 11.695312 -34.765625 13.75 -34.765625 Z M 42.234375 -34.765625 C 44.367188 -34.765625 45.4375 -33.695312 45.4375 -31.5625 C 45.4375 -29.4375 44.367188 -28.375 42.234375 -28.375 C 40.109375 -28.375 39.046875 -29.4375 39.046875 -31.5625 C 39.046875 -33.695312 40.109375 -34.765625 42.234375 -34.765625 Z M 27.9375 -29.265625 C 30.132812 -29.265625 31.234375 -28.195312 31.234375 -26.0625 C 31.234375 -23.9375 30.132812 -22.875 27.9375 -22.875 C 25.882812 -22.875 24.859375 -23.9375 24.859375 -26.0625 C 24.859375 -28.195312 25.882812 -29.265625 27.9375 -29.265625 Z M 27.9375 -29.265625 "/>
</symbol>
<symbol overflow="visible" id="id0:glyph0-2">
<path style="stroke:none;" d="M 5.71875 -78.09375 L 4.0625 -82.0625 C 8.90625 -88.726562 13.175781 -94.257812 16.875 -98.65625 C 20.582031 -103.0625 23.976562 -106.566406 27.0625 -109.171875 C 30.144531 -111.773438 33.078125 -113.625 35.859375 -114.71875 C 38.648438 -115.820312 41.582031 -116.375 44.65625 -116.375 C 48.613281 -116.375 51.765625 -115.550781 54.109375 -113.90625 C 56.460938 -112.257812 58.148438 -110.207031 59.171875 -107.75 C 60.203125 -105.289062 60.71875 -102.890625 60.71875 -100.546875 C 60.71875 -96.066406 59.304688 -92.488281 56.484375 -89.8125 C 53.660156 -87.132812 49.976562 -85.796875 45.4375 -85.796875 C 43.820312 -85.796875 42.296875 -86.050781 40.859375 -86.5625 C 39.429688 -87.082031 38.242188 -87.851562 37.296875 -88.875 L 39.046875 -97.796875 C 40.078125 -96.835938 41.269531 -96.097656 42.625 -95.578125 C 43.976562 -95.066406 45.5 -94.8125 47.1875 -94.8125 C 49.53125 -94.8125 51.414062 -95.269531 52.84375 -96.1875 C 54.28125 -97.101562 55 -98.40625 55 -100.09375 C 55 -102.15625 54.117188 -103.804688 52.359375 -105.046875 C 50.597656 -106.296875 48.101562 -106.921875 44.875 -106.921875 C 42.457031 -106.921875 40.019531 -106.515625 37.5625 -105.703125 C 35.101562 -104.898438 32.40625 -103.453125 29.46875 -101.359375 C 26.539062 -99.273438 23.148438 -96.34375 19.296875 -92.5625 C 15.453125 -88.789062 10.925781 -83.96875 5.71875 -78.09375 Z M 34.65625 -74.578125 C 36.851562 -74.578125 37.953125 -73.550781 37.953125 -71.5 C 37.953125 -69.375 36.851562 -68.3125 34.65625 -68.3125 C 32.59375 -68.3125 31.5625 -69.375 31.5625 -71.5 C 31.5625 -73.550781 32.59375 -74.578125 34.65625 -74.578125 Z M 48.0625 -69.40625 C 50.195312 -69.40625 51.265625 -68.34375 51.265625 -66.21875 C 51.265625 -64.09375 50.195312 -63.03125 48.0625 -63.03125 C 45.9375 -63.03125 44.875 -64.09375 44.875 -66.21875 C 44.875 -68.34375 45.9375 -69.40625 48.0625 -69.40625 Z M 21.34375 -69.40625 C 23.46875 -69.40625 24.53125 -68.34375 24.53125 -66.21875 C 24.53125 -64.09375 23.46875 -63.03125 21.34375 -63.03125 C 19.289062 -63.03125 18.265625 -64.09375 18.265625 -66.21875 C 18.265625 -68.34375 19.289062 -69.40625 21.34375 -69.40625 Z M 16.71875 -56.546875 C 18.769531 -56.546875 19.796875 -55.515625 19.796875 -53.453125 C 19.796875 -51.328125 18.769531 -50.265625 16.71875 -50.265625 C 14.59375 -50.265625 13.53125 -51.328125 13.53125 -53.453125 C 13.53125 -55.515625 14.59375 -56.546875 16.71875 -56.546875 Z M 52.796875 -56.546875 C 54.921875 -56.546875 55.984375 -55.515625 55.984375 -53.453125 C 55.984375 -51.328125 54.921875 -50.265625 52.796875 -50.265625 C 50.671875 -50.265625 49.609375 -51.328125 49.609375 -53.453125 C 49.609375 -55.515625 50.671875 -56.546875 52.796875 -56.546875 Z M 21.34375 -43.78125 C 23.46875 -43.78125 24.53125 -42.71875 24.53125 -40.59375 C 24.53125 -38.46875 23.46875 -37.40625 21.34375 -37.40625 C 19.289062 -37.40625 18.265625 -38.46875 18.265625 -40.59375 C 18.265625 -42.71875 19.289062 -43.78125 21.34375 -43.78125 Z M 48.0625 -43.78125 C 50.195312 -43.78125 51.265625 -42.71875 51.265625 -40.59375 C 51.265625 -38.46875 50.195312 -37.40625 48.0625 -37.40625 C 45.9375 -37.40625 44.875 -38.46875 44.875 -40.59375 C 44.875 -42.71875 45.9375 -43.78125 48.0625 -43.78125 Z M 34.65625 -38.5 C 36.851562 -38.5 37.953125 -37.4375 37.953125 -35.3125 C 37.953125 -33.1875 36.851562 -32.125 34.65625 -32.125 C 32.59375 -32.125 31.5625 -33.1875 31.5625 -35.3125 C 31.5625 -37.4375 32.59375 -38.5 34.65625 -38.5 Z M 15.296875 -21.453125 C 19.253906 -21.453125 23.101562 -21.046875 26.84375 -20.234375 C 30.582031 -19.429688 34.394531 -18.039062 38.28125 -16.0625 C 42.164062 -14.082031 46.378906 -11.3125 50.921875 -7.75 C 55.472656 -4.195312 60.570312 0.289062 66.21875 5.71875 L 61.15625 7.046875 C 56.09375 3.222656 51.546875 0.0664062 47.515625 -2.421875 C 43.484375 -4.910156 39.722656 -6.851562 36.234375 -8.25 C 32.753906 -9.644531 29.363281 -10.613281 26.0625 -11.15625 C 22.769531 -11.707031 19.363281 -11.984375 15.84375 -11.984375 C 11.363281 -11.984375 7.179688 -11.546875 3.296875 -10.671875 L 4.40625 -20.125 C 7.476562 -21.007812 11.109375 -21.453125 15.296875 -21.453125 Z M 51.59375 31.453125 C 54.894531 31.453125 57.753906 32.1875 60.171875 33.65625 C 60.535156 32.488281 60.71875 31.242188 60.71875 29.921875 C 60.71875 26.765625 59.875 24.050781 58.1875 21.78125 L 38.71875 21.78125 C 37.769531 23.539062 37.296875 25.8125 37.296875 28.59375 C 37.296875 30.425781 37.550781 32.039062 38.0625 33.4375 C 38.570312 34.832031 39.378906 36.335938 40.484375 37.953125 L 33.765625 44.875 C 32.453125 42.96875 31.535156 41.078125 31.015625 39.203125 C 30.503906 37.335938 30.25 35.414062 30.25 33.4375 C 30.25 29.332031 31.328125 25.351562 33.484375 21.5 C 35.648438 17.65625 38.753906 14.59375 42.796875 12.3125 L 68.421875 12.3125 L 66.4375 21.015625 C 66.800781 22.328125 66.984375 23.753906 66.984375 25.296875 C 66.984375 29.109375 65.703125 32.628906 63.140625 35.859375 C 64.898438 37.472656 66.660156 39.671875 68.421875 42.453125 C 70.179688 45.242188 72.085938 48.691406 74.140625 52.796875 L 69.953125 53.90625 C 67.609375 50.601562 65.410156 48.035156 63.359375 46.203125 C 61.304688 44.367188 59.195312 43.066406 57.03125 42.296875 C 54.875 41.523438 52.398438 41.140625 49.609375 41.140625 C 48.953125 41.140625 48.289062 41.175781 47.625 41.25 C 46.96875 41.320312 46.347656 41.429688 45.765625 41.578125 L 46.859375 32.015625 C 47.585938 31.796875 48.351562 31.644531 49.15625 31.5625 C 49.96875 31.488281 50.78125 31.453125 51.59375 31.453125 Z M 51.59375 31.453125 "/>
</symbol>
</g>
<g>
<symbol overflow="visible" id="id1:glyph0-0">
<path style="stroke:none;" d="M 5.375 -96.6875 L 69.828125 -96.6875 L 69.828125 0 L 5.375 0 Z M 8.0625 -2.6875 L 67.140625 -2.6875 L 67.140625 -94 L 8.0625 -94 Z M 8.0625 -2.6875 "/>
</symbol>
<symbol overflow="visible" id="id1:glyph0-1">
<path style="stroke:none;" d="M 68.15625 -13.75 L 66.28125 -18.640625 L 88.09375 -27.390625 L 6.984375 -27.390625 L 6.984375 -34 L 88.09375 -34 L 66.28125 -42.75 L 68.15625 -47.640625 L 99.09375 -34.265625 L 99.09375 -27.125 Z M 68.15625 -13.75 "/>
</symbol>
</g>
<g>
<symbol overflow="visible" id="id2:glyph0-0">
<path style="stroke:none;" d="M 10.34375 0 L 10.34375 -78.4375 L 55.546875 -78.4375 L 55.546875 0 Z M 15.953125 -5.5 L 49.9375 -5.5 L 49.9375 -72.8125 L 15.953125 -72.8125 Z M 15.953125 -5.5 "/>
</symbol>
<symbol overflow="visible" id="id2:glyph0-1">
<path style="stroke:none;" d="M 27.9375 -67.546875 C 30.132812 -67.546875 31.234375 -66.515625 31.234375 -64.453125 C 31.234375 -62.328125 30.132812 -61.265625 27.9375 -61.265625 C 25.882812 -61.265625 24.859375 -62.328125 24.859375 -64.453125 C 24.859375 -66.515625 25.882812 -67.546875 27.9375 -67.546875 Z M 42.234375 -62.15625 C 44.367188 -62.15625 45.4375 -61.085938 45.4375 -58.953125 C 45.4375 -56.828125 44.367188 -55.765625 42.234375 -55.765625 C 40.109375 -55.765625 39.046875 -56.828125 39.046875 -58.953125 C 39.046875 -61.085938 40.109375 -62.15625 42.234375 -62.15625 Z M 13.75 -62.15625 C 15.875 -62.15625 16.9375 -61.085938 16.9375 -58.953125 C 16.9375 -56.828125 15.875 -55.765625 13.75 -55.765625 C 11.695312 -55.765625 10.671875 -56.828125 10.671875 -58.953125 C 10.671875 -61.085938 11.695312 -62.15625 13.75 -62.15625 Z M 8.90625 -48.40625 C 10.957031 -48.40625 11.984375 -47.375 11.984375 -45.3125 C 11.984375 -43.1875 10.957031 -42.125 8.90625 -42.125 C 6.78125 -42.125 5.71875 -43.1875 5.71875 -45.3125 C 5.71875 -47.375 6.78125 -48.40625 8.90625 -48.40625 Z M 47.1875 -48.40625 C 49.3125 -48.40625 50.375 -47.375 50.375 -45.3125 C 50.375 -43.1875 49.3125 -42.125 47.1875 -42.125 C 45.0625 -42.125 44 -43.1875 44 -45.3125 C 44 -47.375 45.0625 -48.40625 47.1875 -48.40625 Z M 13.75 -34.765625 C 15.875 -34.765625 16.9375 -33.695312 16.9375 -31.5625 C 16.9375 -29.4375 15.875 -28.375 13.75 -28.375 C 11.695312 -28.375 10.671875 -29.4375 10.671875 -31.5625 C 10.671875 -33.695312 11.695312 -34.765625 13.75 -34.765625 Z M 42.234375 -34.765625 C 44.367188 -34.765625 45.4375 -33.695312 45.4375 -31.5625 C 45.4375 -29.4375 44.367188 -28.375 42.234375 -28.375 C 40.109375 -28.375 39.046875 -29.4375 39.046875 -31.5625 C 39.046875 -33.695312 40.109375 -34.765625 42.234375 -34.765625 Z M 27.9375 -29.265625 C 30.132812 -29.265625 31.234375 -28.195312 31.234375 -26.0625 C 31.234375 -23.9375 30.132812 -22.875 27.9375 -22.875 C 25.882812 -22.875 24.859375 -23.9375 24.859375 -26.0625 C 24.859375 -28.195312 25.882812 -29.265625 27.9375 -29.265625 Z M 27.9375 -29.265625 "/>
</symbol>
<symbol overflow="visible" id="id2:glyph0-2">
<path style="stroke:none;" d="M 13.3125 -10.453125 C 17.707031 -10.453125 21.957031 -9.828125 26.0625 -8.578125 C 30.175781 -7.328125 34.503906 -5.125 39.046875 -1.96875 C 43.597656 1.175781 48.769531 5.644531 54.5625 11.4375 L 54.5625 -16.171875 L 59.625 -16.171875 L 59.625 19.140625 L 54.5625 18.046875 C 48.476562 12.910156 43.144531 8.984375 38.5625 6.265625 C 33.976562 3.554688 29.722656 1.671875 25.796875 0.609375 C 21.867188 -0.453125 17.78125 -0.984375 13.53125 -0.984375 C 9.644531 -0.984375 6.234375 -0.617188 3.296875 0.109375 L 4.40625 -9.34375 C 6.820312 -10.082031 9.789062 -10.453125 13.3125 -10.453125 Z M 13.3125 -10.453125 "/>
</symbol>
<symbol overflow="visible" id="id2:glyph0-3">
<path style="stroke:none;" d=""/>
</symbol>
<symbol overflow="visible" id="id2:glyph0-4">
<path style="stroke:none;" d="M 29.484375 -18.59375 C 33.367188 -18.59375 36.703125 -17.75 39.484375 -16.0625 C 40.148438 -17.75 40.484375 -19.65625 40.484375 -21.78125 C 40.484375 -25.8125 39.457031 -29.257812 37.40625 -32.125 L 13.859375 -32.125 C 12.390625 -29.769531 11.65625 -26.832031 11.65625 -23.3125 C 11.65625 -21.039062 12.003906 -19.003906 12.703125 -17.203125 C 13.398438 -15.410156 14.445312 -13.523438 15.84375 -11.546875 L 9.125 -4.625 C 7.4375 -6.96875 6.242188 -9.289062 5.546875 -11.59375 C 4.859375 -13.90625 4.515625 -16.273438 4.515625 -18.703125 C 4.515625 -23.171875 5.6875 -27.492188 8.03125 -31.671875 C 10.375 -35.859375 13.710938 -39.160156 18.046875 -41.578125 L 48.0625 -41.578125 L 46.09375 -32.890625 C 46.675781 -30.835938 46.96875 -28.75 46.96875 -26.625 C 46.96875 -21.925781 45.460938 -17.671875 42.453125 -13.859375 C 44.515625 -12.023438 46.535156 -9.53125 48.515625 -6.375 C 50.492188 -3.226562 52.65625 0.726562 55 5.5 L 50.59375 6.59375 C 47.957031 2.632812 45.460938 -0.441406 43.109375 -2.640625 C 40.765625 -4.835938 38.363281 -6.394531 35.90625 -7.3125 C 33.457031 -8.226562 30.65625 -8.6875 27.5 -8.6875 C 25.882812 -8.6875 24.269531 -8.503906 22.65625 -8.140625 L 23.765625 -17.9375 C 25.378906 -18.375 27.285156 -18.59375 29.484375 -18.59375 Z M 29.484375 -18.59375 "/>
</symbol>
<symbol overflow="visible" id="id2:glyph0-5">
<path style="stroke:none;" d="M 4.953125 -78.09375 L 3.296875 -82.0625 C 8.140625 -88.726562 12.410156 -94.257812 16.109375 -98.65625 C 19.816406 -103.0625 23.207031 -106.566406 26.28125 -109.171875 C 29.363281 -111.773438 32.296875 -113.625 35.078125 -114.71875 C 37.867188 -115.820312 40.804688 -116.375 43.890625 -116.375 C 47.847656 -116.375 51 -115.550781 53.34375 -113.90625 C 55.695312 -112.257812 57.382812 -110.207031 58.40625 -107.75 C 59.4375 -105.289062 59.953125 -102.890625 59.953125 -100.546875 C 59.953125 -96.066406 58.539062 -92.488281 55.71875 -89.8125 C 52.894531 -87.132812 49.207031 -85.796875 44.65625 -85.796875 C 43.039062 -85.796875 41.519531 -86.050781 40.09375 -86.5625 C 38.664062 -87.082031 37.472656 -87.851562 36.515625 -88.875 L 38.28125 -97.796875 C 39.300781 -96.835938 40.488281 -96.097656 41.84375 -95.578125 C 43.207031 -95.066406 44.734375 -94.8125 46.421875 -94.8125 C 48.765625 -94.8125 50.648438 -95.269531 52.078125 -96.1875 C 53.515625 -97.101562 54.234375 -98.40625 54.234375 -100.09375 C 54.234375 -102.15625 53.351562 -103.804688 51.59375 -105.046875 C 49.832031 -106.296875 47.335938 -106.921875 44.109375 -106.921875 C 41.691406 -106.921875 39.253906 -106.515625 36.796875 -105.703125 C 34.335938 -104.898438 31.640625 -103.453125 28.703125 -101.359375 C 25.773438 -99.273438 22.382812 -96.34375 18.53125 -92.5625 C 14.6875 -88.789062 10.160156 -83.96875 4.953125 -78.09375 Z M 4.953125 -78.09375 "/>
</symbol>
</g>
</defs>
  <g id="id0:id0" transform="matrix(1.25,0,0,1.25,0.0,0.0)"><g id="id0:surface1">
<g style="fill:rgb(0%,0%,0%);fill-opacity:1;">
  <use xlink:href="#id0:glyph0-1" x="72" y="163.265625"/>
  <use xlink:href="#id0:glyph0-2" x="128.09375" y="163.265625"/>
</g>
</g>
</g>
  <g id="id1:id1" transform="matrix(1.25,0,0,1.25,180.1171875,95.33203125)"><g id="id1:surface1">
<g style="fill:rgb(0%,0%,0%);fill-opacity:1;">
  <use xlink:href="#id1:glyph0-1" x="0" y="120.84375"/>
</g>
</g>
</g>
  <g id="id2:id2" transform="matrix(1.25,0,0,1.25,312.71484375,0.0)"><g id="id2:surface1">
<g style="fill:rgb(0%,0%,0%);fill-opacity:1;">
  <use xlink:href="#id2:glyph0-1" x="16" y="163.265625"/>
  <use xlink:href="#id2:glyph0-2" x="5.65625" y="163.59375"/>
  <use xlink:href="#id2:glyph0-3" x="72.09375" y="163.265625"/>
  <use xlink:href="#id2:glyph0-3" x="100.6875" y="163.265625"/>
  <use xlink:href="#id2:glyph0-4" x="129.28125" y="163.265625"/>
  <use xlink:href="#id2:glyph0-1" x="129.28125" y="163.265625"/>
  <use xlink:href="#id2:glyph0-5" x="131.15625" y="163.265625"/>
</g>
</g>
</g>
</svg>
