<!DOCTYPE svg PUBLIC "-//W3C//DTD SVG 1.1//EN" "http://www.w3.org/Graphics/SVG/1.1/DTD/svg11.dtd">
<!-- Created with svg_stack (http://github.com/astraw/svg_stack) --><svg xmlns="http://www.w3.org/2000/svg" xmlns:sodipodi="http://sodipodi.sourceforge.net/DTD/sodipodi-0.dtd" xmlns:xlink="http://www.w3.org/1999/xlink" version="1.1" width="411.97265625" height="392.0703125" id="tibetan-abvm">
  <defs><g>
<symbol overflow="visible" id="tibetan-abvm:id0:glyph0-0">
<path style="stroke:none;" d="M 10.34375 0 L 10.34375 -78.4375 L 55.546875 -78.4375 L 55.546875 0 Z M 15.953125 -5.5 L 49.9375 -5.5 L 49.9375 -72.8125 L 15.953125 -72.8125 Z M 15.953125 -5.5 "/>
</symbol>
<symbol overflow="visible" id="tibetan-abvm:id0:glyph0-1">
<path style="stroke:none;" d="M 43.015625 -74.578125 L 40.8125 -65.125 C 41.613281 -62.914062 42.21875 -60.582031 42.625 -58.125 C 43.03125 -55.675781 43.234375 -53.238281 43.234375 -50.8125 C 43.234375 -48.6875 43.125 -46.707031 42.90625 -44.875 C 48.175781 -44.144531 52.773438 -41.613281 56.703125 -37.28125 C 60.628906 -32.957031 64.5 -26.582031 68.3125 -18.15625 C 68.019531 -27.09375 67.414062 -35.613281 66.5 -43.71875 C 65.582031 -51.820312 64.5 -58.957031 63.25 -65.125 L 58.84375 -65.125 L 61.046875 -74.578125 L 74.90625 -74.578125 L 72.703125 -65.125 L 72.703125 -9.6875 L 67.65625 -10.78125 C 64.132812 -16.9375 60.90625 -21.773438 57.96875 -25.296875 C 55.03125 -28.816406 52.113281 -31.347656 49.21875 -32.890625 C 46.320312 -34.429688 43.148438 -35.238281 39.703125 -35.3125 C 36.628906 -30.175781 31.679688 -27.609375 24.859375 -27.609375 C 19.140625 -27.609375 14.882812 -29.476562 12.09375 -33.21875 C 9.3125 -36.957031 7.921875 -42.054688 7.921875 -48.515625 C 7.921875 -51.296875 8.140625 -54.171875 8.578125 -57.140625 C 9.015625 -60.109375 9.601562 -62.769531 10.34375 -65.125 L 5.828125 -65.125 L 8.03125 -74.578125 L 20.5625 -74.578125 C 18.144531 -70.765625 16.238281 -66.929688 14.84375 -63.078125 C 13.457031 -59.234375 12.765625 -55.40625 12.765625 -51.59375 C 12.765625 -46.601562 13.863281 -43.023438 16.0625 -40.859375 C 18.257812 -38.703125 21.375 -37.625 25.40625 -37.625 C 34.0625 -37.625 38.390625 -41.875 38.390625 -50.375 C 38.390625 -53.53125 37.835938 -56.316406 36.734375 -58.734375 C 35.640625 -61.160156 34.140625 -63.289062 32.234375 -65.125 L 34.4375 -74.578125 Z M 43.015625 -74.578125 "/>
</symbol>
<symbol overflow="visible" id="tibetan-abvm:id0:glyph0-2">
<path style="stroke:none;" d="M 17.9375 -125.953125 C 21.375 -125.953125 24.15625 -124.882812 26.28125 -122.75 C 28.414062 -120.625 29.484375 -117.84375 29.484375 -114.40625 C 29.484375 -110.957031 28.414062 -108.164062 26.28125 -106.03125 C 24.15625 -103.90625 21.375 -102.84375 17.9375 -102.84375 C 14.5625 -102.84375 11.789062 -103.90625 9.625 -106.03125 C 7.457031 -108.164062 6.375 -110.957031 6.375 -114.40625 C 6.375 -117.84375 7.457031 -120.625 9.625 -122.75 C 11.789062 -124.882812 14.5625 -125.953125 17.9375 -125.953125 Z M 17.9375 -120.453125 C 16.101562 -120.453125 14.632812 -119.898438 13.53125 -118.796875 C 12.425781 -117.703125 11.875 -116.238281 11.875 -114.40625 C 11.875 -112.570312 12.425781 -111.101562 13.53125 -110 C 14.632812 -108.894531 16.101562 -108.34375 17.9375 -108.34375 C 19.769531 -108.34375 21.234375 -108.894531 22.328125 -110 C 23.429688 -111.101562 23.984375 -112.570312 23.984375 -114.40625 C 23.984375 -116.238281 23.429688 -117.703125 22.328125 -118.796875 C 21.234375 -119.898438 19.769531 -120.453125 17.9375 -120.453125 Z M 4.953125 -78.09375 L 3.296875 -82.0625 C 8.722656 -87.414062 13.453125 -91.890625 17.484375 -95.484375 C 21.523438 -99.078125 25.15625 -101.914062 28.375 -104 C 31.601562 -106.09375 34.628906 -107.578125 37.453125 -108.453125 C 40.273438 -109.335938 43.15625 -109.78125 46.09375 -109.78125 C 49.539062 -109.78125 52.269531 -109.007812 54.28125 -107.46875 C 56.300781 -105.925781 57.75 -104.019531 58.625 -101.75 C 59.507812 -99.476562 59.953125 -97.242188 59.953125 -95.046875 C 59.953125 -90.929688 58.738281 -87.628906 56.3125 -85.140625 C 53.894531 -82.648438 50.742188 -81.40625 46.859375 -81.40625 C 45.242188 -81.40625 43.722656 -81.660156 42.296875 -82.171875 C 40.867188 -82.679688 39.675781 -83.453125 38.71875 -84.484375 L 40.484375 -93.390625 C 41.503906 -92.429688 42.691406 -91.695312 44.046875 -91.1875 C 45.410156 -90.675781 46.9375 -90.421875 48.625 -90.421875 C 50.3125 -90.421875 51.664062 -90.769531 52.6875 -91.46875 C 53.71875 -92.164062 54.234375 -93.207031 54.234375 -94.59375 C 54.234375 -96.28125 53.550781 -97.65625 52.1875 -98.71875 C 50.832031 -99.78125 48.875 -100.3125 46.3125 -100.3125 C 44.039062 -100.3125 41.675781 -100 39.21875 -99.375 C 36.757812 -98.757812 33.972656 -97.644531 30.859375 -96.03125 C 27.742188 -94.414062 24.09375 -92.160156 19.90625 -89.265625 C 15.726562 -86.367188 10.742188 -82.644531 4.953125 -78.09375 Z M 4.953125 -78.09375 "/>
</symbol>
</g>
<g>
<symbol overflow="visible" id="tibetan-abvm:id1:glyph0-0">
<path style="stroke:none;" d="M 5.375 -96.6875 L 69.828125 -96.6875 L 69.828125 0 L 5.375 0 Z M 8.0625 -2.6875 L 67.140625 -2.6875 L 67.140625 -94 L 8.0625 -94 Z M 8.0625 -2.6875 "/>
</symbol>
<symbol overflow="visible" id="tibetan-abvm:id1:glyph0-1">
<path style="stroke:none;" d="M 68.15625 -13.75 L 66.28125 -18.640625 L 88.09375 -27.390625 L 6.984375 -27.390625 L 6.984375 -34 L 88.09375 -34 L 66.28125 -42.75 L 68.15625 -47.640625 L 99.09375 -34.265625 L 99.09375 -27.125 Z M 68.15625 -13.75 "/>
</symbol>
</g>
<g>
<symbol overflow="visible" id="tibetan-abvm:id2:glyph0-0">
<path style="stroke:none;" d="M 10.34375 0 L 10.34375 -78.4375 L 55.546875 -78.4375 L 55.546875 0 Z M 15.953125 -5.5 L 49.9375 -5.5 L 49.9375 -72.8125 L 15.953125 -72.8125 Z M 15.953125 -5.5 "/>
</symbol>
<symbol overflow="visible" id="tibetan-abvm:id2:glyph0-1">
<path style="stroke:none;" d="M 43.015625 -74.578125 L 40.8125 -65.125 C 41.613281 -62.914062 42.21875 -60.582031 42.625 -58.125 C 43.03125 -55.675781 43.234375 -53.238281 43.234375 -50.8125 C 43.234375 -48.6875 43.125 -46.707031 42.90625 -44.875 C 48.175781 -44.144531 52.773438 -41.613281 56.703125 -37.28125 C 60.628906 -32.957031 64.5 -26.582031 68.3125 -18.15625 C 68.019531 -27.09375 67.414062 -35.613281 66.5 -43.71875 C 65.582031 -51.820312 64.5 -58.957031 63.25 -65.125 L 58.84375 -65.125 L 61.046875 -74.578125 L 74.90625 -74.578125 L 72.703125 -65.125 L 72.703125 -9.6875 L 67.65625 -10.78125 C 64.132812 -16.9375 60.90625 -21.773438 57.96875 -25.296875 C 55.03125 -28.816406 52.113281 -31.347656 49.21875 -32.890625 C 46.320312 -34.429688 43.148438 -35.238281 39.703125 -35.3125 C 36.628906 -30.175781 31.679688 -27.609375 24.859375 -27.609375 C 19.140625 -27.609375 14.882812 -29.476562 12.09375 -33.21875 C 9.3125 -36.957031 7.921875 -42.054688 7.921875 -48.515625 C 7.921875 -51.296875 8.140625 -54.171875 8.578125 -57.140625 C 9.015625 -60.109375 9.601562 -62.769531 10.34375 -65.125 L 5.828125 -65.125 L 8.03125 -74.578125 L 20.5625 -74.578125 C 18.144531 -70.765625 16.238281 -66.929688 14.84375 -63.078125 C 13.457031 -59.234375 12.765625 -55.40625 12.765625 -51.59375 C 12.765625 -46.601562 13.863281 -43.023438 16.0625 -40.859375 C 18.257812 -38.703125 21.375 -37.625 25.40625 -37.625 C 34.0625 -37.625 38.390625 -41.875 38.390625 -50.375 C 38.390625 -53.53125 37.835938 -56.316406 36.734375 -58.734375 C 35.640625 -61.160156 34.140625 -63.289062 32.234375 -65.125 L 34.4375 -74.578125 Z M 43.015625 -74.578125 "/>
</symbol>
<symbol overflow="visible" id="tibetan-abvm:id2:glyph0-2">
<path style="stroke:none;" d="M 17.9375 -125.953125 C 21.375 -125.953125 24.15625 -124.882812 26.28125 -122.75 C 28.414062 -120.625 29.484375 -117.84375 29.484375 -114.40625 C 29.484375 -110.957031 28.414062 -108.164062 26.28125 -106.03125 C 24.15625 -103.90625 21.375 -102.84375 17.9375 -102.84375 C 14.5625 -102.84375 11.789062 -103.90625 9.625 -106.03125 C 7.457031 -108.164062 6.375 -110.957031 6.375 -114.40625 C 6.375 -117.84375 7.457031 -120.625 9.625 -122.75 C 11.789062 -124.882812 14.5625 -125.953125 17.9375 -125.953125 Z M 17.9375 -120.453125 C 16.101562 -120.453125 14.632812 -119.898438 13.53125 -118.796875 C 12.425781 -117.703125 11.875 -116.238281 11.875 -114.40625 C 11.875 -112.570312 12.425781 -111.101562 13.53125 -110 C 14.632812 -108.894531 16.101562 -108.34375 17.9375 -108.34375 C 19.769531 -108.34375 21.234375 -108.894531 22.328125 -110 C 23.429688 -111.101562 23.984375 -112.570312 23.984375 -114.40625 C 23.984375 -116.238281 23.429688 -117.703125 22.328125 -118.796875 C 21.234375 -119.898438 19.769531 -120.453125 17.9375 -120.453125 Z M 4.953125 -78.09375 L 3.296875 -82.0625 C 8.722656 -87.414062 13.453125 -91.890625 17.484375 -95.484375 C 21.523438 -99.078125 25.15625 -101.914062 28.375 -104 C 31.601562 -106.09375 34.628906 -107.578125 37.453125 -108.453125 C 40.273438 -109.335938 43.15625 -109.78125 46.09375 -109.78125 C 49.539062 -109.78125 52.269531 -109.007812 54.28125 -107.46875 C 56.300781 -105.925781 57.75 -104.019531 58.625 -101.75 C 59.507812 -99.476562 59.953125 -97.242188 59.953125 -95.046875 C 59.953125 -90.929688 58.738281 -87.628906 56.3125 -85.140625 C 53.894531 -82.648438 50.742188 -81.40625 46.859375 -81.40625 C 45.242188 -81.40625 43.722656 -81.660156 42.296875 -82.171875 C 40.867188 -82.679688 39.675781 -83.453125 38.71875 -84.484375 L 40.484375 -93.390625 C 41.503906 -92.429688 42.691406 -91.695312 44.046875 -91.1875 C 45.410156 -90.675781 46.9375 -90.421875 48.625 -90.421875 C 50.3125 -90.421875 51.664062 -90.769531 52.6875 -91.46875 C 53.71875 -92.164062 54.234375 -93.207031 54.234375 -94.59375 C 54.234375 -96.28125 53.550781 -97.65625 52.1875 -98.71875 C 50.832031 -99.78125 48.875 -100.3125 46.3125 -100.3125 C 44.039062 -100.3125 41.675781 -100 39.21875 -99.375 C 36.757812 -98.757812 33.972656 -97.644531 30.859375 -96.03125 C 27.742188 -94.414062 24.09375 -92.160156 19.90625 -89.265625 C 15.726562 -86.367188 10.742188 -82.644531 4.953125 -78.09375 Z M 4.953125 -78.09375 "/>
</symbol>
</g>
</defs>
  <g id="tibetan-abvm:id0:id0" transform="matrix(1.25,0,0,1.25,0.0,0.0)"><g id="tibetan-abvm:id0:surface1">
<g style="fill:rgb(0%,0%,0%);fill-opacity:1;">
  <use xlink:href="#tibetan-abvm:id0:glyph0-1" x="16" y="163.265625" class="c0"/>
  <use xlink:href="#tibetan-abvm:id0:glyph0-2" x="19.078125" y="163.265625" class="c1"/>
</g>
</g>
</g>
  <g id="tibetan-abvm:id1:id1" transform="matrix(1.25,0,0,1.25,139.6875,95.33203125)"><g id="tibetan-abvm:id1:surface1">
<g style="fill:rgb(0%,0%,0%);fill-opacity:1;">
  <use xlink:href="#tibetan-abvm:id1:glyph0-1" x="0" y="120.84375" class="arrow"/>
</g>
</g>
</g>
  <g id="tibetan-abvm:id2:id2" transform="matrix(1.25,0,0,1.25,272.28515625,0.0)"><g id="tibetan-abvm:id2:surface1">
<g style="fill:rgb(0%,0%,0%);fill-opacity:1;">
  <use xlink:href="#tibetan-abvm:id2:glyph0-1" x="16" y="163.265625" class="c0"/>
  <use xlink:href="#tibetan-abvm:id2:glyph0-2" x="19.078125" y="163.265625" class="c1"/>
</g>
</g>
</g>
</svg>
