<!DOCTYPE svg PUBLIC "-//W3C//DTD SVG 1.1//EN" "http://www.w3.org/Graphics/SVG/1.1/DTD/svg11.dtd">
<!-- Created with svg_stack (http://github.com/astraw/svg_stack) --><svg xmlns="http://www.w3.org/2000/svg" xmlns:sodipodi="http://sodipodi.sourceforge.net/DTD/sodipodi-0.dtd" xmlns:xlink="http://www.w3.org/1999/xlink" version="1.1" width="375.68359375" height="392.0703125" id="tibetan-blws">
  <defs><g>
<symbol overflow="visible" id="tibetan-blws:id0:glyph0-0">
<path style="stroke:none;" d="M 10.34375 0 L 10.34375 -78.4375 L 55.546875 -78.4375 L 55.546875 0 Z M 15.953125 -5.5 L 49.9375 -5.5 L 49.9375 -72.8125 L 15.953125 -72.8125 Z M 15.953125 -5.5 "/>
</symbol>
<symbol overflow="visible" id="tibetan-blws:id0:glyph0-1">
<path style="stroke:none;" d="M 47.40625 -20.125 C 47.40625 -22.476562 47.40625 -24.789062 47.40625 -27.0625 C 47.40625 -29.332031 47.367188 -31.566406 47.296875 -33.765625 C 44.296875 -37.285156 40.703125 -39.046875 36.515625 -39.046875 C 29.328125 -39.046875 24.265625 -37.25 21.328125 -33.65625 C 18.398438 -30.0625 16.9375 -25.257812 16.9375 -19.25 C 16.9375 -16.238281 17.175781 -13.15625 17.65625 -10 C 18.132812 -6.851562 18.992188 -3.375 20.234375 0.4375 C 21.484375 4.25 23.242188 8.578125 25.515625 13.421875 C 27.796875 18.265625 30.710938 23.835938 34.265625 30.140625 C 37.816406 36.441406 42.160156 43.703125 47.296875 51.921875 L 40.8125 51.265625 C 34.132812 41.359375 28.628906 32.664062 24.296875 25.1875 C 19.972656 17.707031 16.582031 11.085938 14.125 5.328125 C 11.675781 -0.421875 9.957031 -5.550781 8.96875 -10.0625 C 7.976562 -14.570312 7.484375 -18.804688 7.484375 -22.765625 C 7.484375 -28.191406 8.546875 -32.90625 10.671875 -36.90625 C 12.796875 -40.90625 15.742188 -44.003906 19.515625 -46.203125 C 23.296875 -48.398438 27.679688 -49.5 32.671875 -49.5 C 39.046875 -49.5 43.882812 -47.113281 47.1875 -42.34375 C 47.113281 -46.53125 47.019531 -50.53125 46.90625 -54.34375 C 46.800781 -58.15625 46.710938 -61.75 46.640625 -65.125 L 5.9375 -65.125 L 8.140625 -74.578125 L 56.65625 -74.578125 C 56.0625 -68.640625 55.507812 -62.351562 55 -55.71875 C 54.488281 -49.082031 54.007812 -42.441406 53.5625 -35.796875 C 53.125 -29.160156 52.757812 -22.835938 52.46875 -16.828125 Z M 47.40625 -20.125 "/>
</symbol>
<symbol overflow="visible" id="tibetan-blws:id0:glyph0-2">
<path style="stroke:none;" d="M 12.09375 31.34375 L 7.046875 29.375 L 7.046875 -26.953125 L 65.78125 -26.953125 L 63.578125 -17.484375 C 64.460938 -12.128906 65.175781 -6.171875 65.71875 0.390625 C 66.269531 6.953125 66.582031 13.640625 66.65625 20.453125 L 62.265625 22.328125 C 57.710938 17.710938 53.035156 14.394531 48.234375 12.375 C 43.429688 10.351562 38.0625 9.34375 32.125 9.34375 C 31.601562 9.34375 30.992188 9.359375 30.296875 9.390625 C 29.609375 9.429688 28.96875 9.488281 28.375 9.5625 L 25.84375 6.375 C 26.800781 2.125 27.882812 -2.015625 29.09375 -6.046875 C 30.300781 -10.078125 31.566406 -13.890625 32.890625 -17.484375 L 16.171875 -17.484375 C 15.359375 -13.597656 14.675781 -9.472656 14.125 -5.109375 C 13.582031 -0.742188 13.164062 4.332031 12.875 10.125 C 12.582031 15.914062 12.320312 22.988281 12.09375 31.34375 Z M 32.890625 -0.546875 C 38.171875 -0.546875 43.226562 0.695312 48.0625 3.1875 C 52.90625 5.6875 57.53125 9.832031 61.9375 15.625 C 61.707031 9.976562 60.929688 4.332031 59.609375 -1.3125 C 58.296875 -6.96875 56.578125 -12.359375 54.453125 -17.484375 L 41.03125 -17.484375 C 39.34375 -14.703125 37.800781 -11.863281 36.40625 -8.96875 C 35.007812 -6.070312 33.765625 -3.265625 32.671875 -0.546875 Z M 32.890625 -0.546875 "/>
</symbol>
</g>
<g>
<symbol overflow="visible" id="tibetan-blws:id1:glyph0-0">
<path style="stroke:none;" d="M 5.375 -96.6875 L 69.828125 -96.6875 L 69.828125 0 L 5.375 0 Z M 8.0625 -2.6875 L 67.140625 -2.6875 L 67.140625 -94 L 8.0625 -94 Z M 8.0625 -2.6875 "/>
</symbol>
<symbol overflow="visible" id="tibetan-blws:id1:glyph0-1">
<path style="stroke:none;" d="M 68.15625 -13.75 L 66.28125 -18.640625 L 88.09375 -27.390625 L 6.984375 -27.390625 L 6.984375 -34 L 88.09375 -34 L 66.28125 -42.75 L 68.15625 -47.640625 L 99.09375 -34.265625 L 99.09375 -27.125 Z M 68.15625 -13.75 "/>
</symbol>
</g>
<g>
<symbol overflow="visible" id="tibetan-blws:id2:glyph0-0">
<path style="stroke:none;" d="M 10.34375 0 L 10.34375 -78.4375 L 55.546875 -78.4375 L 55.546875 0 Z M 15.953125 -5.5 L 49.9375 -5.5 L 49.9375 -72.8125 L 15.953125 -72.8125 Z M 15.953125 -5.5 "/>
</symbol>
<symbol overflow="visible" id="tibetan-blws:id2:glyph0-1">
<path style="stroke:none;" d="M 11.984375 31.453125 L 6.9375 29.484375 L 6.9375 -26.84375 L 22.546875 -26.84375 C 17.484375 -29.039062 13.707031 -31.347656 11.21875 -33.765625 C 8.726562 -36.191406 7.484375 -39.273438 7.484375 -43.015625 C 7.484375 -47.554688 9.515625 -51.128906 13.578125 -53.734375 C 17.648438 -56.335938 22.914062 -57.640625 29.375 -57.640625 C 34.351562 -57.640625 38.820312 -56.90625 42.78125 -55.4375 C 46.75 -53.96875 50.050781 -51.769531 52.6875 -48.84375 C 52.613281 -51.769531 52.519531 -54.585938 52.40625 -57.296875 C 52.300781 -60.015625 52.210938 -62.625 52.140625 -65.125 L 5.9375 -65.125 L 8.140625 -74.578125 L 62.15625 -74.578125 C 61.5625 -70.472656 61.007812 -66.070312 60.5 -61.375 C 59.988281 -56.6875 59.507812 -52.015625 59.0625 -47.359375 C 58.625 -42.703125 58.257812 -38.28125 57.96875 -34.09375 L 52.796875 -36.625 C 52.796875 -38.75 52.796875 -40.914062 52.796875 -43.125 C 49.867188 -45.175781 46.695312 -46.695312 43.28125 -47.6875 C 39.875 -48.675781 36.117188 -49.171875 32.015625 -49.171875 C 27.171875 -49.171875 23.445312 -48.453125 20.84375 -47.015625 C 18.238281 -45.585938 16.9375 -43.628906 16.9375 -41.140625 C 16.9375 -39.453125 17.539062 -37.890625 18.75 -36.453125 C 19.957031 -35.023438 21.9375 -33.5625 24.6875 -32.0625 C 27.4375 -30.5625 31.125 -28.820312 35.75 -26.84375 L 62.15625 -26.84375 L 59.953125 -17.375 C 60.898438 -12.164062 61.628906 -6.375 62.140625 0 C 62.660156 6.375 62.957031 12.898438 63.03125 19.578125 L 58.625 21.453125 C 54.375 16.972656 49.992188 13.757812 45.484375 11.8125 C 40.972656 9.875 35.894531 8.90625 30.25 8.90625 C 29.738281 8.90625 29.1875 8.921875 28.59375 8.953125 C 28.007812 8.992188 27.460938 9.050781 26.953125 9.125 L 24.421875 5.9375 C 25.296875 1.757812 26.300781 -2.285156 27.4375 -6.203125 C 28.582031 -10.128906 29.773438 -13.851562 31.015625 -17.375 L 16.0625 -17.375 C 15.25 -13.488281 14.566406 -9.363281 14.015625 -5 C 13.472656 -0.632812 13.050781 4.441406 12.75 10.234375 C 12.457031 16.023438 12.203125 23.097656 11.984375 31.453125 Z M 31.234375 -0.984375 C 36.222656 -0.984375 41.007812 0.257812 45.59375 2.75 C 50.175781 5.238281 54.445312 9.269531 58.40625 14.84375 C 58.113281 9.34375 57.328125 3.84375 56.046875 -1.65625 C 54.765625 -7.15625 53.0625 -12.394531 50.9375 -17.375 L 39.046875 -17.375 C 37.503906 -14.664062 36.070312 -11.914062 34.75 -9.125 C 33.4375 -6.34375 32.226562 -3.628906 31.125 -0.984375 Z M 31.234375 -0.984375 "/>
</symbol>
</g>
</defs>
  <g id="tibetan-blws:id0:id0" transform="matrix(1.25,0,0,1.25,0.0,0.0)"><g id="tibetan-blws:id0:surface1">
<g style="fill:rgb(0%,0%,0%);fill-opacity:1;">
  <use xlink:href="#tibetan-blws:id0:glyph0-1" x="16" y="163.265625" class="c0"/>
  <use xlink:href="#tibetan-blws:id0:glyph0-2" x="6.875" y="241.25" class="c1"/>
</g>
</g>
</g>
  <g id="tibetan-blws:id1:id1" transform="matrix(1.25,0,0,1.25,118.10546875,95.33203125)"><g id="tibetan-blws:id1:surface1">
<g style="fill:rgb(0%,0%,0%);fill-opacity:1;">
  <use xlink:href="#tibetan-blws:id1:glyph0-1" x="0" y="120.84375" class="arrow"/>
</g>
</g>
</g>
  <g id="tibetan-blws:id2:id2" transform="matrix(1.25,0,0,1.25,250.703125,0.0)"><g id="tibetan-blws:id2:surface1">
<g style="fill:rgb(0%,0%,0%);fill-opacity:1;">
  <use xlink:href="#tibetan-blws:id2:glyph0-1" x="16" y="163.265625" class="c2"/>
</g>
</g>
</g>
</svg>
