<?xml version="1.0" standalone="no"?>
<!DOCTYPE svg PUBLIC "-//W3C//DTD SVG 1.1//EN"
 "http://www.w3.org/Graphics/SVG/1.1/DTD/svg11.dtd">
<!-- Created with svg_stack (http://github.com/astraw/svg_stack) -->
<svg xmlns="http://www.w3.org/2000/svg" xmlns:sodipodi="http://sodipodi.sourceforge.net/DTD/sodipodi-0.dtd" xmlns:xlink="http://www.w3.org/1999/xlink" version="1.1" width="503.26171875" height="203.96484375">
  <defs><g>
<symbol overflow="visible" id="id0:glyph0-0">
<path style="stroke:none;" d="M 10.453125 0 L 10.453125 -78.546875 L 55.546875 -78.546875 L 55.546875 0 Z M 16.0625 -5.609375 L 50.046875 -5.609375 L 50.046875 -72.9375 L 16.0625 -72.9375 Z M 16.0625 -5.609375 "/>
</symbol>
<symbol overflow="visible" id="id0:glyph0-1">
<path style="stroke:none;" d="M 24.203125 0.546875 C 22.515625 0.546875 20.972656 0.179688 19.578125 -0.546875 C 18.179688 -1.285156 16.675781 -2.238281 15.0625 -3.40625 C 12.789062 -5.164062 11.269531 -6.78125 10.5 -8.25 C 9.726562 -9.71875 9.34375 -11.550781 9.34375 -13.75 L 9.34375 -65.890625 C 9.34375 -76.597656 11.910156 -84.703125 17.046875 -90.203125 C 22.179688 -95.703125 29.660156 -98.453125 39.484375 -98.453125 C 45.578125 -98.453125 51.460938 -97.695312 57.140625 -96.1875 C 62.828125 -94.6875 68.195312 -92.6875 73.25 -90.1875 C 78.3125 -87.695312 83.023438 -84.984375 87.390625 -82.046875 C 91.753906 -79.117188 95.660156 -76.265625 99.109375 -73.484375 L 95.703125 -70.1875 C 91.003906 -74.144531 85.648438 -77.644531 79.640625 -80.6875 C 73.628906 -83.726562 67.378906 -86.109375 60.890625 -87.828125 C 54.398438 -89.554688 48.070312 -90.421875 41.90625 -90.421875 C 33.625 -90.421875 27.613281 -88.164062 23.875 -83.65625 C 20.132812 -79.144531 18.265625 -72.453125 18.265625 -63.578125 L 18.265625 -6.703125 C 18.265625 -5.972656 18.59375 -5.609375 19.25 -5.609375 C 20.570312 -5.609375 22.019531 -6.03125 23.59375 -6.875 C 25.164062 -7.71875 26.539062 -8.835938 27.71875 -10.234375 L 32.234375 -2.75 C 31.347656 -2.019531 30.226562 -1.285156 28.875 -0.546875 C 27.519531 0.179688 25.960938 0.546875 24.203125 0.546875 Z M 24.203125 0.546875 "/>
</symbol>
<symbol overflow="visible" id="id0:glyph0-2">
<path style="stroke:none;" d="M 57.421875 21.671875 L 50.046875 16.0625 C 51.367188 15.25 52.320312 14.347656 52.90625 13.359375 C 53.5 12.367188 53.796875 11.328125 53.796875 10.234375 C 53.796875 8.765625 53.316406 7.40625 52.359375 6.15625 C 51.410156 4.914062 49.757812 3.632812 47.40625 2.3125 C 45.0625 0.988281 41.835938 -0.515625 37.734375 -2.203125 C 32.671875 -4.328125 28.34375 -6.125 24.75 -7.59375 C 21.15625 -9.0625 18.238281 -10.507812 16 -11.9375 C 13.769531 -13.363281 12.117188 -15.101562 11.046875 -17.15625 C 9.984375 -19.207031 9.453125 -21.8125 9.453125 -24.96875 L 9.453125 -67.3125 L 18.375 -63.6875 L 18.375 -21.78125 C 18.375 -19.289062 19.140625 -17.3125 20.671875 -15.84375 C 22.210938 -14.375 24.6875 -12.921875 28.09375 -11.484375 C 31.507812 -10.054688 36.003906 -8.207031 41.578125 -5.9375 C 44.066406 -4.914062 46.578125 -3.890625 49.109375 -2.859375 C 51.640625 -1.828125 53.96875 -0.65625 56.09375 0.65625 C 58.226562 1.976562 59.9375 3.570312 61.21875 5.4375 C 62.5 7.3125 63.140625 9.566406 63.140625 12.203125 C 63.140625 14.484375 62.570312 16.390625 61.4375 17.921875 C 60.300781 19.460938 58.960938 20.710938 57.421875 21.671875 Z M 85.140625 0.546875 C 83.523438 0.546875 81.984375 0.179688 80.515625 -0.546875 C 79.046875 -1.285156 77.546875 -2.238281 76.015625 -3.40625 C 73.804688 -5.164062 72.316406 -6.742188 71.546875 -8.140625 C 70.785156 -9.535156 70.40625 -11.40625 70.40625 -13.75 L 70.40625 -67.3125 L 79.203125 -63.6875 L 79.203125 -6.703125 C 79.203125 -5.972656 79.566406 -5.609375 80.296875 -5.609375 C 81.546875 -5.609375 82.957031 -6.03125 84.53125 -6.875 C 86.113281 -7.71875 87.488281 -8.835938 88.65625 -10.234375 L 93.28125 -2.75 C 92.320312 -2.019531 91.164062 -1.285156 89.8125 -0.546875 C 88.457031 0.179688 86.898438 0.546875 85.140625 0.546875 Z M 43.234375 -22.21875 C 39.421875 -22.21875 36.226562 -23.1875 33.65625 -25.125 C 31.09375 -27.070312 29.003906 -29.257812 27.390625 -31.6875 L 31.34375 -34.4375 C 32.59375 -33.039062 33.894531 -31.972656 35.25 -31.234375 C 36.613281 -30.503906 38.210938 -30.140625 40.046875 -30.140625 C 43.859375 -30.140625 46.769531 -31.585938 48.78125 -34.484375 C 50.800781 -37.378906 51.8125 -40.953125 51.8125 -45.203125 C 51.8125 -48.941406 50.929688 -51.894531 49.171875 -54.0625 C 47.410156 -56.226562 45.023438 -57.3125 42.015625 -57.3125 C 40.847656 -57.3125 39.675781 -57.109375 38.5 -56.703125 C 37.320312 -56.296875 36.222656 -55.800781 35.203125 -55.21875 L 30.03125 -64.125 C 31.28125 -64.570312 32.523438 -64.867188 33.765625 -65.015625 C 35.015625 -65.160156 36.226562 -65.234375 37.40625 -65.234375 C 40.332031 -65.234375 43.023438 -64.625 45.484375 -63.40625 C 47.941406 -62.195312 50.453125 -60.128906 53.015625 -57.203125 C 54.921875 -55.078125 56.40625 -53.171875 57.46875 -51.484375 C 58.53125 -49.796875 59.265625 -48.085938 59.671875 -46.359375 C 60.078125 -44.640625 60.28125 -42.644531 60.28125 -40.375 C 60.28125 -36.925781 59.582031 -33.828125 58.1875 -31.078125 C 56.789062 -28.328125 54.8125 -26.160156 52.25 -24.578125 C 49.6875 -23.003906 46.679688 -22.21875 43.234375 -22.21875 Z M 43.234375 -22.21875 "/>
</symbol>
<symbol overflow="visible" id="id0:glyph0-3">
<path style="stroke:none;" d="M -2.09375 -69.84375 C -3.40625 -70.875 -4.703125 -72.195312 -5.984375 -73.8125 C -7.273438 -75.425781 -8.359375 -77.222656 -9.234375 -79.203125 C -10.117188 -81.179688 -10.5625 -83.160156 -10.5625 -85.140625 C -10.5625 -89.609375 -8.984375 -92.960938 -5.828125 -95.203125 C -2.671875 -97.441406 1.140625 -98.5625 5.609375 -98.5625 C 7.367188 -98.5625 9 -98.414062 10.5 -98.125 C 12.007812 -97.832031 13.054688 -97.535156 13.640625 -97.234375 L 16.0625 -88.875 C 14.957031 -89.320312 13.632812 -89.671875 12.09375 -89.921875 C 10.5625 -90.179688 9.132812 -90.3125 7.8125 -90.3125 C 4.726562 -90.3125 2.195312 -89.59375 0.21875 -88.15625 C -1.757812 -86.726562 -2.75 -84.441406 -2.75 -81.296875 C -2.75 -79.015625 -2.085938 -76.9375 -0.765625 -75.0625 C 0.546875 -73.195312 1.972656 -71.457031 3.515625 -69.84375 Z M -2.09375 -69.84375 "/>
</symbol>
</g>
<g>
<symbol overflow="visible" id="id1:glyph0-0">
<path style="stroke:none;" d="M 5.375 -96.6875 L 69.828125 -96.6875 L 69.828125 0 L 5.375 0 Z M 8.0625 -2.6875 L 67.140625 -2.6875 L 67.140625 -94 L 8.0625 -94 Z M 8.0625 -2.6875 "/>
</symbol>
<symbol overflow="visible" id="id1:glyph0-1">
<path style="stroke:none;" d="M 68.15625 -13.75 L 66.28125 -18.640625 L 88.09375 -27.390625 L 6.984375 -27.390625 L 6.984375 -34 L 88.09375 -34 L 66.28125 -42.75 L 68.15625 -47.640625 L 99.09375 -34.265625 L 99.09375 -27.125 Z M 68.15625 -13.75 "/>
</symbol>
</g>
<g>
<symbol overflow="visible" id="id2:glyph0-0">
<path style="stroke:none;" d="M 10.453125 0 L 10.453125 -78.546875 L 55.546875 -78.546875 L 55.546875 0 Z M 16.0625 -5.609375 L 50.046875 -5.609375 L 50.046875 -72.9375 L 16.0625 -72.9375 Z M 16.0625 -5.609375 "/>
</symbol>
<symbol overflow="visible" id="id2:glyph0-1">
<path style="stroke:none;" d="M 24.203125 0.546875 C 22.515625 0.546875 20.972656 0.179688 19.578125 -0.546875 C 18.179688 -1.285156 16.675781 -2.238281 15.0625 -3.40625 C 12.789062 -5.164062 11.269531 -6.78125 10.5 -8.25 C 9.726562 -9.71875 9.34375 -11.550781 9.34375 -13.75 L 9.34375 -65.890625 C 9.34375 -76.597656 11.910156 -84.703125 17.046875 -90.203125 C 22.179688 -95.703125 29.660156 -98.453125 39.484375 -98.453125 C 46.378906 -98.453125 53 -97.5 59.34375 -95.59375 C 65.6875 -93.6875 71.644531 -91.242188 77.21875 -88.265625 C 82.789062 -85.296875 87.851562 -82.203125 92.40625 -78.984375 C 91.375 -81.253906 90.859375 -83.632812 90.859375 -86.125 C 90.859375 -90.675781 92.210938 -94.101562 94.921875 -96.40625 C 97.640625 -98.71875 100.941406 -99.875 104.828125 -99.875 C 106.585938 -99.875 108.238281 -99.707031 109.78125 -99.375 C 111.320312 -99.050781 112.347656 -98.78125 112.859375 -98.5625 L 115.28125 -90.203125 C 114.175781 -90.640625 112.875 -90.984375 111.375 -91.234375 C 109.875 -91.492188 108.460938 -91.625 107.140625 -91.625 C 103.472656 -91.625 100.757812 -90.722656 99 -88.921875 C 97.238281 -87.128906 96.359375 -84.953125 96.359375 -82.390625 C 96.359375 -80.992188 96.632812 -79.582031 97.1875 -78.15625 C 97.738281 -76.726562 98.523438 -75.132812 99.546875 -73.375 L 95.921875 -70.1875 C 91.222656 -74.144531 85.847656 -77.644531 79.796875 -80.6875 C 73.753906 -83.726562 67.488281 -86.109375 61 -87.828125 C 54.507812 -89.554688 48.144531 -90.421875 41.90625 -90.421875 C 33.625 -90.421875 27.613281 -88.164062 23.875 -83.65625 C 20.132812 -79.144531 18.265625 -72.453125 18.265625 -63.578125 L 18.265625 -6.703125 C 18.265625 -5.972656 18.59375 -5.609375 19.25 -5.609375 C 20.570312 -5.609375 22.019531 -6.03125 23.59375 -6.875 C 25.164062 -7.71875 26.539062 -8.835938 27.71875 -10.234375 L 32.234375 -2.75 C 31.347656 -2.019531 30.226562 -1.285156 28.875 -0.546875 C 27.519531 0.179688 25.960938 0.546875 24.203125 0.546875 Z M 24.203125 0.546875 "/>
</symbol>
<symbol overflow="visible" id="id2:glyph0-2">
<path style="stroke:none;" d="M 57.421875 21.671875 L 50.046875 16.0625 C 51.367188 15.25 52.320312 14.347656 52.90625 13.359375 C 53.5 12.367188 53.796875 11.328125 53.796875 10.234375 C 53.796875 8.765625 53.316406 7.40625 52.359375 6.15625 C 51.410156 4.914062 49.757812 3.632812 47.40625 2.3125 C 45.0625 0.988281 41.835938 -0.515625 37.734375 -2.203125 C 32.671875 -4.328125 28.34375 -6.125 24.75 -7.59375 C 21.15625 -9.0625 18.238281 -10.507812 16 -11.9375 C 13.769531 -13.363281 12.117188 -15.101562 11.046875 -17.15625 C 9.984375 -19.207031 9.453125 -21.8125 9.453125 -24.96875 L 9.453125 -67.3125 L 18.375 -63.6875 L 18.375 -21.78125 C 18.375 -19.289062 19.140625 -17.3125 20.671875 -15.84375 C 22.210938 -14.375 24.6875 -12.921875 28.09375 -11.484375 C 31.507812 -10.054688 36.003906 -8.207031 41.578125 -5.9375 C 44.066406 -4.914062 46.578125 -3.890625 49.109375 -2.859375 C 51.640625 -1.828125 53.96875 -0.65625 56.09375 0.65625 C 58.226562 1.976562 59.9375 3.570312 61.21875 5.4375 C 62.5 7.3125 63.140625 9.566406 63.140625 12.203125 C 63.140625 14.484375 62.570312 16.390625 61.4375 17.921875 C 60.300781 19.460938 58.960938 20.710938 57.421875 21.671875 Z M 85.140625 0.546875 C 83.523438 0.546875 81.984375 0.179688 80.515625 -0.546875 C 79.046875 -1.285156 77.546875 -2.238281 76.015625 -3.40625 C 73.804688 -5.164062 72.316406 -6.742188 71.546875 -8.140625 C 70.785156 -9.535156 70.40625 -11.40625 70.40625 -13.75 L 70.40625 -67.3125 L 79.203125 -63.6875 L 79.203125 -6.703125 C 79.203125 -5.972656 79.566406 -5.609375 80.296875 -5.609375 C 81.546875 -5.609375 82.957031 -6.03125 84.53125 -6.875 C 86.113281 -7.71875 87.488281 -8.835938 88.65625 -10.234375 L 93.28125 -2.75 C 92.320312 -2.019531 91.164062 -1.285156 89.8125 -0.546875 C 88.457031 0.179688 86.898438 0.546875 85.140625 0.546875 Z M 43.234375 -22.21875 C 39.421875 -22.21875 36.226562 -23.1875 33.65625 -25.125 C 31.09375 -27.070312 29.003906 -29.257812 27.390625 -31.6875 L 31.34375 -34.4375 C 32.59375 -33.039062 33.894531 -31.972656 35.25 -31.234375 C 36.613281 -30.503906 38.210938 -30.140625 40.046875 -30.140625 C 43.859375 -30.140625 46.769531 -31.585938 48.78125 -34.484375 C 50.800781 -37.378906 51.8125 -40.953125 51.8125 -45.203125 C 51.8125 -48.941406 50.929688 -51.894531 49.171875 -54.0625 C 47.410156 -56.226562 45.023438 -57.3125 42.015625 -57.3125 C 40.847656 -57.3125 39.675781 -57.109375 38.5 -56.703125 C 37.320312 -56.296875 36.222656 -55.800781 35.203125 -55.21875 L 30.03125 -64.125 C 31.28125 -64.570312 32.523438 -64.867188 33.765625 -65.015625 C 35.015625 -65.160156 36.226562 -65.234375 37.40625 -65.234375 C 40.332031 -65.234375 43.023438 -64.625 45.484375 -63.40625 C 47.941406 -62.195312 50.453125 -60.128906 53.015625 -57.203125 C 54.921875 -55.078125 56.40625 -53.171875 57.46875 -51.484375 C 58.53125 -49.796875 59.265625 -48.085938 59.671875 -46.359375 C 60.078125 -44.640625 60.28125 -42.644531 60.28125 -40.375 C 60.28125 -36.925781 59.582031 -33.828125 58.1875 -31.078125 C 56.789062 -28.328125 54.8125 -26.160156 52.25 -24.578125 C 49.6875 -23.003906 46.679688 -22.21875 43.234375 -22.21875 Z M 43.234375 -22.21875 "/>
</symbol>
<symbol overflow="visible" id="id2:glyph0-3">
<path style="stroke:none;" d=""/>
</symbol>
</g>
</defs>
  <g id="id0:id0" transform="matrix(1.25,0,0,1.25,0.0,0.0)"><g id="id0:surface1">
<g style="fill:rgb(0%,0%,0%);fill-opacity:1;">
  <use xlink:href="#id0:glyph0-1" x="16" y="111.671875"/>
  <use xlink:href="#id0:glyph0-2" x="43.609375" y="111.671875"/>
  <use xlink:href="#id0:glyph0-3" x="118.40625" y="111.671875"/>
</g>
</g>
</g>
  <g id="id1:id1" transform="matrix(1.25,0,0,1.25,185.33203125,1.279296875)"><g id="id1:surface1">
<g style="fill:rgb(0%,0%,0%);fill-opacity:1;">
  <use xlink:href="#id1:glyph0-1" x="0" y="120.84375"/>
</g>
</g>
</g>
  <g id="id2:id2" transform="matrix(1.25,0,0,1.25,317.9296875,0.0)"><g id="id2:surface1">
<g style="fill:rgb(0%,0%,0%);fill-opacity:1;">
  <use xlink:href="#id2:glyph0-1" x="16" y="111.671875"/>
  <use xlink:href="#id2:glyph0-2" x="43.609375" y="111.671875"/>
  <use xlink:href="#id2:glyph0-3" x="132.265625" y="111.671875"/>
</g>
</g>
</g>
</svg>
