<!DOCTYPE svg PUBLIC "-//W3C//DTD SVG 1.1//EN" "http://www.w3.org/Graphics/SVG/1.1/DTD/svg11.dtd">
<!-- Created with svg_stack (http://github.com/astraw/svg_stack) --><svg xmlns="http://www.w3.org/2000/svg" xmlns:sodipodi="http://sodipodi.sourceforge.net/DTD/sodipodi-0.dtd" xmlns:xlink="http://www.w3.org/1999/xlink" version="1.1" width="352.55859375" height="203.96484375" id="gujarati-blwm">
  <defs><g>
<symbol overflow="visible" id="gujarati-blwm:id0:glyph0-0">
<path style="stroke:none;" d="M 10.453125 0 L 10.453125 -78.546875 L 55.546875 -78.546875 L 55.546875 0 Z M 16.0625 -5.609375 L 50.046875 -5.609375 L 50.046875 -72.9375 L 16.0625 -72.9375 Z M 16.0625 -5.609375 "/>
</symbol>
<symbol overflow="visible" id="gujarati-blwm:id0:glyph0-1">
<path style="stroke:none;" d="M 34.875 23.765625 C 32.226562 23.765625 29.507812 23.503906 26.71875 22.984375 C 23.9375 22.472656 21.445312 21.628906 19.25 20.453125 C 17.488281 19.503906 15.707031 18.332031 13.90625 16.9375 C 12.113281 15.539062 10.628906 13.90625 9.453125 12.03125 C 8.285156 10.164062 7.703125 8.0625 7.703125 5.71875 C 7.703125 3.226562 8.414062 1.125 9.84375 -0.59375 C 11.269531 -2.320312 13.140625 -3.625 15.453125 -4.5 C 17.765625 -5.382812 20.164062 -5.828125 22.65625 -5.828125 C 23.175781 -5.828125 23.726562 -5.789062 24.3125 -5.71875 C 22.1875 -6.820312 20.476562 -8.066406 19.1875 -9.453125 C 17.90625 -10.847656 17.265625 -12.316406 17.265625 -13.859375 C 17.265625 -15.035156 17.671875 -16.097656 18.484375 -17.046875 C 16.578125 -17.859375 14.890625 -18.921875 13.421875 -20.234375 C 12.171875 -21.410156 10.957031 -22.75 9.78125 -24.25 C 8.613281 -25.757812 8.03125 -27.648438 8.03125 -29.921875 C 8.03125 -32.410156 8.875 -34.515625 10.5625 -36.234375 C 12.25 -37.960938 14.410156 -39.46875 17.046875 -40.75 C 19.691406 -42.039062 22.5 -43.195312 25.46875 -44.21875 C 28.4375 -45.25 31.238281 -46.238281 33.875 -47.1875 C 36.519531 -48.144531 38.6875 -49.171875 40.375 -50.265625 C 42.0625 -51.367188 42.90625 -52.65625 42.90625 -54.125 C 42.90625 -55.738281 42.28125 -56.800781 41.03125 -57.3125 C 39.78125 -57.820312 38.164062 -58.078125 36.1875 -58.078125 C 32.8125 -58.078125 29.398438 -57.5625 25.953125 -56.53125 C 22.515625 -55.507812 19.328125 -54.335938 16.390625 -53.015625 L 12.546875 -61.375 C 14.523438 -62.332031 17.179688 -63.304688 20.515625 -64.296875 C 23.847656 -65.285156 27.238281 -65.78125 30.6875 -65.78125 C 33.769531 -65.78125 36.410156 -65.320312 38.609375 -64.40625 C 40.804688 -63.488281 42.785156 -62.296875 44.546875 -60.828125 C 46.234375 -59.429688 47.625 -57.867188 48.71875 -56.140625 C 49.820312 -54.421875 50.375 -52.609375 50.375 -50.703125 C 50.375 -48.285156 49.53125 -46.234375 47.84375 -44.546875 C 46.15625 -42.859375 43.992188 -41.410156 41.359375 -40.203125 C 38.722656 -38.992188 35.9375 -37.894531 33 -36.90625 C 30.0625 -35.914062 27.273438 -34.941406 24.640625 -33.984375 C 22.003906 -33.035156 19.84375 -31.972656 18.15625 -30.796875 C 16.46875 -29.628906 15.625 -28.238281 15.625 -26.625 C 15.625 -24.644531 16.316406 -23.394531 17.703125 -22.875 C 19.097656 -22.363281 20.382812 -22.109375 21.5625 -22.109375 C 25.664062 -22.109375 30.0625 -22.820312 34.75 -24.25 C 39.445312 -25.6875 43.8125 -27.90625 47.84375 -30.90625 L 53.125 -22.984375 C 49.75 -20.710938 46.484375 -19.046875 43.328125 -17.984375 C 40.179688 -16.921875 37.328125 -16.097656 34.765625 -15.515625 C 32.117188 -14.921875 29.988281 -14.382812 28.375 -13.90625 C 26.757812 -13.4375 25.953125 -12.539062 25.953125 -11.21875 C 25.953125 -10.039062 26.703125 -9.085938 28.203125 -8.359375 C 29.710938 -7.628906 31.625 -6.953125 33.9375 -6.328125 C 36.25 -5.703125 38.613281 -4.875 41.03125 -3.84375 C 45.570312 -2.007812 48.796875 0.222656 50.703125 2.859375 C 52.609375 5.492188 53.5625 8.0625 53.5625 10.5625 C 53.5625 13.5625 52.585938 16.050781 50.640625 18.03125 C 48.703125 20.019531 46.300781 21.472656 43.4375 22.390625 C 40.582031 23.304688 37.726562 23.765625 34.875 23.765625 Z M 30.03125 18.046875 C 32.375 18.046875 34.628906 17.660156 36.796875 16.890625 C 38.960938 16.117188 40.738281 15 42.125 13.53125 C 43.519531 12.0625 44.21875 10.226562 44.21875 8.03125 C 44.21875 5.90625 43.578125 4.160156 42.296875 2.796875 C 41.015625 1.441406 39.363281 0.457031 37.34375 -0.15625 C 35.320312 -0.78125 33.25 -1.09375 31.125 -1.09375 C 28.78125 -1.09375 26.523438 -0.726562 24.359375 0 C 22.203125 0.726562 20.425781 1.84375 19.03125 3.34375 C 17.632812 4.851562 16.9375 6.707031 16.9375 8.90625 C 16.9375 10.957031 17.578125 12.660156 18.859375 14.015625 C 20.148438 15.378906 21.800781 16.390625 23.8125 17.046875 C 25.832031 17.710938 27.90625 18.046875 30.03125 18.046875 Z M 30.03125 18.046875 "/>
</symbol>
<symbol overflow="visible" id="gujarati-blwm:id0:glyph0-2">
<path style="stroke:none;" d="M 13.53125 43.453125 C 10.59375 43.453125 7.988281 42.921875 5.71875 41.859375 C 3.445312 40.796875 1.503906 39.457031 -0.109375 37.84375 C -1.210938 36.738281 -2.144531 35.546875 -2.90625 34.265625 C -3.675781 32.984375 -4.0625 31.609375 -4.0625 30.140625 C -4.0625 28.015625 -3.441406 26.179688 -2.203125 24.640625 C -3.222656 24.203125 -4.15625 23.707031 -5 23.15625 C -5.84375 22.601562 -6.632812 22 -7.375 21.34375 C -8.757812 20.09375 -9.816406 18.828125 -10.546875 17.546875 C -11.285156 16.265625 -11.65625 14.890625 -11.65625 13.421875 C -11.65625 10.703125 -10.316406 8.296875 -7.640625 6.203125 C -4.960938 4.117188 -1.019531 3.003906 4.1875 2.859375 L 9.234375 10.34375 C 8.140625 10.34375 6.820312 10.453125 5.28125 10.671875 C 3.738281 10.890625 2.195312 11.253906 0.65625 11.765625 C -0.882812 12.285156 -2.148438 12.945312 -3.140625 13.75 C -4.128906 14.550781 -4.625 15.503906 -4.625 16.609375 C -4.625 19.097656 -2.679688 20.34375 1.203125 20.34375 C 2.523438 20.34375 3.921875 20.195312 5.390625 19.90625 C 6.859375 19.613281 8.765625 19.175781 11.109375 18.59375 L 16.171875 25.953125 C 14.554688 26.179688 12.648438 26.550781 10.453125 27.0625 C 8.253906 27.570312 6.328125 28.285156 4.671875 29.203125 C 3.023438 30.117188 2.203125 31.238281 2.203125 32.5625 C 2.203125 33.507812 2.585938 34.296875 3.359375 34.921875 C 4.128906 35.546875 5.6875 35.859375 8.03125 35.859375 C 10.59375 35.859375 13.265625 35.453125 16.046875 34.640625 C 18.835938 33.835938 21.335938 32.703125 23.546875 31.234375 L 29.265625 37.953125 C 26.765625 39.929688 24.15625 41.34375 21.4375 42.1875 C 18.726562 43.03125 16.09375 43.453125 13.53125 43.453125 Z M 13.53125 43.453125 "/>
</symbol>
</g>
<g>
<symbol overflow="visible" id="gujarati-blwm:id1:glyph0-0">
<path style="stroke:none;" d="M 5.375 -96.6875 L 69.828125 -96.6875 L 69.828125 0 L 5.375 0 Z M 8.0625 -2.6875 L 67.140625 -2.6875 L 67.140625 -94 L 8.0625 -94 Z M 8.0625 -2.6875 "/>
</symbol>
<symbol overflow="visible" id="gujarati-blwm:id1:glyph0-1">
<path style="stroke:none;" d="M 68.15625 -13.75 L 66.28125 -18.640625 L 88.09375 -27.390625 L 6.984375 -27.390625 L 6.984375 -34 L 88.09375 -34 L 66.28125 -42.75 L 68.15625 -47.640625 L 99.09375 -34.265625 L 99.09375 -27.125 Z M 68.15625 -13.75 "/>
</symbol>
</g>
<g>
<symbol overflow="visible" id="gujarati-blwm:id2:glyph0-0">
<path style="stroke:none;" d="M 10.453125 0 L 10.453125 -78.546875 L 55.546875 -78.546875 L 55.546875 0 Z M 16.0625 -5.609375 L 50.046875 -5.609375 L 50.046875 -72.9375 L 16.0625 -72.9375 Z M 16.0625 -5.609375 "/>
</symbol>
<symbol overflow="visible" id="gujarati-blwm:id2:glyph0-1">
<path style="stroke:none;" d="M 34.875 23.765625 C 32.226562 23.765625 29.507812 23.503906 26.71875 22.984375 C 23.9375 22.472656 21.445312 21.628906 19.25 20.453125 C 17.488281 19.503906 15.707031 18.332031 13.90625 16.9375 C 12.113281 15.539062 10.628906 13.90625 9.453125 12.03125 C 8.285156 10.164062 7.703125 8.0625 7.703125 5.71875 C 7.703125 3.226562 8.414062 1.125 9.84375 -0.59375 C 11.269531 -2.320312 13.140625 -3.625 15.453125 -4.5 C 17.765625 -5.382812 20.164062 -5.828125 22.65625 -5.828125 C 23.175781 -5.828125 23.726562 -5.789062 24.3125 -5.71875 C 22.1875 -6.820312 20.476562 -8.066406 19.1875 -9.453125 C 17.90625 -10.847656 17.265625 -12.316406 17.265625 -13.859375 C 17.265625 -15.035156 17.671875 -16.097656 18.484375 -17.046875 C 16.578125 -17.859375 14.890625 -18.921875 13.421875 -20.234375 C 12.171875 -21.410156 10.957031 -22.75 9.78125 -24.25 C 8.613281 -25.757812 8.03125 -27.648438 8.03125 -29.921875 C 8.03125 -32.410156 8.875 -34.515625 10.5625 -36.234375 C 12.25 -37.960938 14.410156 -39.46875 17.046875 -40.75 C 19.691406 -42.039062 22.5 -43.195312 25.46875 -44.21875 C 28.4375 -45.25 31.238281 -46.238281 33.875 -47.1875 C 36.519531 -48.144531 38.6875 -49.171875 40.375 -50.265625 C 42.0625 -51.367188 42.90625 -52.65625 42.90625 -54.125 C 42.90625 -55.738281 42.28125 -56.800781 41.03125 -57.3125 C 39.78125 -57.820312 38.164062 -58.078125 36.1875 -58.078125 C 32.8125 -58.078125 29.398438 -57.5625 25.953125 -56.53125 C 22.515625 -55.507812 19.328125 -54.335938 16.390625 -53.015625 L 12.546875 -61.375 C 14.523438 -62.332031 17.179688 -63.304688 20.515625 -64.296875 C 23.847656 -65.285156 27.238281 -65.78125 30.6875 -65.78125 C 33.769531 -65.78125 36.410156 -65.320312 38.609375 -64.40625 C 40.804688 -63.488281 42.785156 -62.296875 44.546875 -60.828125 C 46.234375 -59.429688 47.625 -57.867188 48.71875 -56.140625 C 49.820312 -54.421875 50.375 -52.609375 50.375 -50.703125 C 50.375 -48.285156 49.53125 -46.234375 47.84375 -44.546875 C 46.15625 -42.859375 43.992188 -41.410156 41.359375 -40.203125 C 38.722656 -38.992188 35.9375 -37.894531 33 -36.90625 C 30.0625 -35.914062 27.273438 -34.941406 24.640625 -33.984375 C 22.003906 -33.035156 19.84375 -31.972656 18.15625 -30.796875 C 16.46875 -29.628906 15.625 -28.238281 15.625 -26.625 C 15.625 -24.644531 16.316406 -23.394531 17.703125 -22.875 C 19.097656 -22.363281 20.382812 -22.109375 21.5625 -22.109375 C 25.664062 -22.109375 30.0625 -22.820312 34.75 -24.25 C 39.445312 -25.6875 43.8125 -27.90625 47.84375 -30.90625 L 53.125 -22.984375 C 49.75 -20.710938 46.484375 -19.046875 43.328125 -17.984375 C 40.179688 -16.921875 37.328125 -16.097656 34.765625 -15.515625 C 32.117188 -14.921875 29.988281 -14.382812 28.375 -13.90625 C 26.757812 -13.4375 25.953125 -12.539062 25.953125 -11.21875 C 25.953125 -10.039062 26.703125 -9.085938 28.203125 -8.359375 C 29.710938 -7.628906 31.625 -6.953125 33.9375 -6.328125 C 36.25 -5.703125 38.613281 -4.875 41.03125 -3.84375 C 45.570312 -2.007812 48.796875 0.222656 50.703125 2.859375 C 52.609375 5.492188 53.5625 8.0625 53.5625 10.5625 C 53.5625 13.5625 52.585938 16.050781 50.640625 18.03125 C 48.703125 20.019531 46.300781 21.472656 43.4375 22.390625 C 40.582031 23.304688 37.726562 23.765625 34.875 23.765625 Z M 30.03125 18.046875 C 32.375 18.046875 34.628906 17.660156 36.796875 16.890625 C 38.960938 16.117188 40.738281 15 42.125 13.53125 C 43.519531 12.0625 44.21875 10.226562 44.21875 8.03125 C 44.21875 5.90625 43.578125 4.160156 42.296875 2.796875 C 41.015625 1.441406 39.363281 0.457031 37.34375 -0.15625 C 35.320312 -0.78125 33.25 -1.09375 31.125 -1.09375 C 28.78125 -1.09375 26.523438 -0.726562 24.359375 0 C 22.203125 0.726562 20.425781 1.84375 19.03125 3.34375 C 17.632812 4.851562 16.9375 6.707031 16.9375 8.90625 C 16.9375 10.957031 17.578125 12.660156 18.859375 14.015625 C 20.148438 15.378906 21.800781 16.390625 23.8125 17.046875 C 25.832031 17.710938 27.90625 18.046875 30.03125 18.046875 Z M 30.03125 18.046875 "/>
</symbol>
<symbol overflow="visible" id="gujarati-blwm:id2:glyph0-2">
<path style="stroke:none;" d="M 13.53125 43.453125 C 10.59375 43.453125 7.988281 42.921875 5.71875 41.859375 C 3.445312 40.796875 1.503906 39.457031 -0.109375 37.84375 C -1.210938 36.738281 -2.144531 35.546875 -2.90625 34.265625 C -3.675781 32.984375 -4.0625 31.609375 -4.0625 30.140625 C -4.0625 28.015625 -3.441406 26.179688 -2.203125 24.640625 C -3.222656 24.203125 -4.15625 23.707031 -5 23.15625 C -5.84375 22.601562 -6.632812 22 -7.375 21.34375 C -8.757812 20.09375 -9.816406 18.828125 -10.546875 17.546875 C -11.285156 16.265625 -11.65625 14.890625 -11.65625 13.421875 C -11.65625 10.703125 -10.316406 8.296875 -7.640625 6.203125 C -4.960938 4.117188 -1.019531 3.003906 4.1875 2.859375 L 9.234375 10.34375 C 8.140625 10.34375 6.820312 10.453125 5.28125 10.671875 C 3.738281 10.890625 2.195312 11.253906 0.65625 11.765625 C -0.882812 12.285156 -2.148438 12.945312 -3.140625 13.75 C -4.128906 14.550781 -4.625 15.503906 -4.625 16.609375 C -4.625 19.097656 -2.679688 20.34375 1.203125 20.34375 C 2.523438 20.34375 3.921875 20.195312 5.390625 19.90625 C 6.859375 19.613281 8.765625 19.175781 11.109375 18.59375 L 16.171875 25.953125 C 14.554688 26.179688 12.648438 26.550781 10.453125 27.0625 C 8.253906 27.570312 6.328125 28.285156 4.671875 29.203125 C 3.023438 30.117188 2.203125 31.238281 2.203125 32.5625 C 2.203125 33.507812 2.585938 34.296875 3.359375 34.921875 C 4.128906 35.546875 5.6875 35.859375 8.03125 35.859375 C 10.59375 35.859375 13.265625 35.453125 16.046875 34.640625 C 18.835938 33.835938 21.335938 32.703125 23.546875 31.234375 L 29.265625 37.953125 C 26.765625 39.929688 24.15625 41.34375 21.4375 42.1875 C 18.726562 43.03125 16.09375 43.453125 13.53125 43.453125 Z M 13.53125 43.453125 "/>
</symbol>
</g>
</defs>
  <g id="gujarati-blwm:id0:id0" transform="matrix(1.25,0,0,1.25,0.0,0.0)"><g id="gujarati-blwm:id0:surface1">
<g style="fill:rgb(0%,0%,0%);fill-opacity:1;">
  <use xlink:href="#gujarati-blwm:id0:glyph0-1" x="16" y="111.671875" class="c0"/>
  <use xlink:href="#gujarati-blwm:id0:glyph0-2" x="71.984375" y="111.671875" class="c1"/>
</g>
</g>
</g>
  <g id="gujarati-blwm:id1:id1" transform="matrix(1.25,0,0,1.25,109.98046875,1.279296875)"><g id="gujarati-blwm:id1:surface1">
<g style="fill:rgb(0%,0%,0%);fill-opacity:1;">
  <use xlink:href="#gujarati-blwm:id1:glyph0-1" x="0" y="120.84375" class="arrow"/>
</g>
</g>
</g>
  <g id="gujarati-blwm:id2:id2" transform="matrix(1.25,0,0,1.25,242.578125,0.0)"><g id="gujarati-blwm:id2:surface1">
<g style="fill:rgb(0%,0%,0%);fill-opacity:1;">
  <use xlink:href="#gujarati-blwm:id2:glyph0-1" x="16" y="111.671875" class="c0"/>
  <use xlink:href="#gujarati-blwm:id2:glyph0-2" x="71.984375" y="111.671875" class="c1"/>
</g>
</g>
</g>
</svg>
