<!DOCTYPE svg PUBLIC "-//W3C//DTD SVG 1.1//EN" "http://www.w3.org/Graphics/SVG/1.1/DTD/svg11.dtd">
<!-- Created with svg_stack (http://github.com/astraw/svg_stack) --><svg xmlns="http://www.w3.org/2000/svg" xmlns:sodipodi="http://sodipodi.sourceforge.net/DTD/sodipodi-0.dtd" xmlns:xlink="http://www.w3.org/1999/xlink" version="1.1" width="100%" id="gujarati-matra-position" viewBox="0 0 871.50390625 203.96484375">
  <defs><g>
<symbol overflow="visible" id="gujarati-matra-position:id0:glyph0-0">
<path style="stroke:none;" d="M 10.453125 0 L 55.546875 0 L 55.546875 -78.546875 L 10.453125 -78.546875 Z M 16.0625 -5.609375 L 16.0625 -72.9375 L 50.046875 -72.9375 L 50.046875 -5.609375 Z M 16.0625 -5.609375 "/>
</symbol>
<symbol overflow="visible" id="gujarati-matra-position:id0:glyph0-1">
<path style="stroke:none;" d="M 24.203125 0.546875 C 27.71875 0.546875 30.46875 -1.3125 32.234375 -2.75 L 27.71875 -10.234375 C 25.296875 -7.375 21.890625 -5.609375 19.25 -5.609375 C 18.59375 -5.609375 18.265625 -5.828125 18.265625 -6.703125 L 18.265625 -64.5625 C 18.265625 -81.953125 23.4375 -90.421875 36.734375 -90.421875 C 49.9375 -90.421875 63.90625 -82.5 73.8125 -70.1875 L 77.984375 -73.046875 C 68.75 -84.265625 53.5625 -98.453125 34.65625 -98.453125 C 17.9375 -98.453125 9.34375 -87.890625 9.34375 -66.875 L 9.34375 -13.75 C 9.34375 -9.34375 10.5625 -6.8125 15.0625 -3.40625 C 18.375 -0.875 20.796875 0.546875 24.203125 0.546875 Z M 24.203125 0.546875 "/>
</symbol>
<symbol overflow="visible" id="gujarati-matra-position:id0:glyph0-2">
<path style="stroke:none;" d="M 32.78125 -53.6875 C 34.3125 -53.6875 35.640625 -55 35.640625 -56.546875 C 35.640625 -58.078125 34.3125 -59.40625 32.78125 -59.40625 C 31.234375 -59.40625 29.921875 -58.078125 29.921875 -56.546875 C 29.921875 -55 31.234375 -53.6875 32.78125 -53.6875 Z M 23.546875 -51.703125 C 25.078125 -51.703125 26.40625 -53.015625 26.40625 -54.5625 C 26.40625 -56.09375 25.078125 -57.421875 23.546875 -57.421875 C 22 -57.421875 20.6875 -56.09375 20.6875 -54.5625 C 20.6875 -53.015625 22 -51.703125 23.546875 -51.703125 Z M 42.015625 -51.703125 C 43.5625 -51.703125 44.875 -53.015625 44.875 -54.5625 C 44.875 -56.09375 43.5625 -57.421875 42.015625 -57.421875 C 40.484375 -57.421875 39.15625 -56.09375 39.15625 -54.5625 C 39.15625 -53.015625 40.484375 -51.703125 42.015625 -51.703125 Z M 50.15625 -46.53125 C 51.703125 -46.53125 53.015625 -47.84375 53.015625 -49.390625 C 53.015625 -50.9375 51.703125 -52.25 50.15625 -52.25 C 48.625 -52.25 47.296875 -50.9375 47.296875 -49.390625 C 47.296875 -47.84375 48.625 -46.53125 50.15625 -46.53125 Z M 15.40625 -46.53125 C 16.9375 -46.53125 18.265625 -47.84375 18.265625 -49.390625 C 18.265625 -50.9375 16.9375 -52.25 15.40625 -52.25 C 13.859375 -52.25 12.546875 -50.9375 12.546875 -49.390625 C 12.546875 -47.84375 13.859375 -46.53125 15.40625 -46.53125 Z M 10.234375 -38.390625 C 11.765625 -38.390625 13.09375 -39.703125 13.09375 -41.25 C 13.09375 -42.796875 11.765625 -44.109375 10.234375 -44.109375 C 8.6875 -44.109375 7.375 -42.796875 7.375 -41.25 C 7.375 -39.703125 8.6875 -38.390625 10.234375 -38.390625 Z M 55.328125 -38.390625 C 56.875 -38.390625 58.1875 -39.703125 58.1875 -41.25 C 58.1875 -42.796875 56.875 -44.109375 55.328125 -44.109375 C 53.796875 -44.109375 52.46875 -42.796875 52.46875 -41.25 C 52.46875 -39.703125 53.796875 -38.390625 55.328125 -38.390625 Z M 8.25 -29.15625 C 9.796875 -29.15625 11.109375 -30.46875 11.109375 -32.015625 C 11.109375 -33.546875 9.796875 -34.875 8.25 -34.875 C 6.703125 -34.875 5.390625 -33.546875 5.390625 -32.015625 C 5.390625 -30.46875 6.703125 -29.15625 8.25 -29.15625 Z M 57.3125 -29.15625 C 58.84375 -29.15625 60.171875 -30.46875 60.171875 -32.015625 C 60.171875 -33.546875 58.84375 -34.875 57.3125 -34.875 C 55.765625 -34.875 54.453125 -33.546875 54.453125 -32.015625 C 54.453125 -30.46875 55.765625 -29.15625 57.3125 -29.15625 Z M 10.234375 -19.90625 C 11.765625 -19.90625 13.09375 -21.234375 13.09375 -22.765625 C 13.09375 -24.3125 11.765625 -25.625 10.234375 -25.625 C 8.6875 -25.625 7.375 -24.3125 7.375 -22.765625 C 7.375 -21.234375 8.6875 -19.90625 10.234375 -19.90625 Z M 55.328125 -19.90625 C 56.875 -19.90625 58.1875 -21.234375 58.1875 -22.765625 C 58.1875 -24.3125 56.875 -25.625 55.328125 -25.625 C 53.796875 -25.625 52.46875 -24.3125 52.46875 -22.765625 C 52.46875 -21.234375 53.796875 -19.90625 55.328125 -19.90625 Z M 15.40625 -11.765625 C 16.9375 -11.765625 18.265625 -13.09375 18.265625 -14.625 C 18.265625 -16.171875 16.9375 -17.484375 15.40625 -17.484375 C 13.859375 -17.484375 12.546875 -16.171875 12.546875 -14.625 C 12.546875 -13.09375 13.859375 -11.765625 15.40625 -11.765625 Z M 50.15625 -11.765625 C 51.703125 -11.765625 53.015625 -13.09375 53.015625 -14.625 C 53.015625 -16.171875 51.703125 -17.484375 50.15625 -17.484375 C 48.625 -17.484375 47.296875 -16.171875 47.296875 -14.625 C 47.296875 -13.09375 48.625 -11.765625 50.15625 -11.765625 Z M 23.546875 -6.59375 C 25.078125 -6.59375 26.40625 -7.921875 26.40625 -9.453125 C 26.40625 -11 25.078125 -12.3125 23.546875 -12.3125 C 22 -12.3125 20.6875 -11 20.6875 -9.453125 C 20.6875 -7.921875 22 -6.59375 23.546875 -6.59375 Z M 42.015625 -6.59375 C 43.5625 -6.59375 44.875 -7.921875 44.875 -9.453125 C 44.875 -11 43.5625 -12.3125 42.015625 -12.3125 C 40.484375 -12.3125 39.15625 -11 39.15625 -9.453125 C 39.15625 -7.921875 40.484375 -6.59375 42.015625 -6.59375 Z M 32.78125 -4.625 C 34.3125 -4.625 35.640625 -5.9375 35.640625 -7.484375 C 35.640625 -9.015625 34.3125 -10.34375 32.78125 -10.34375 C 31.234375 -10.34375 29.921875 -9.015625 29.921875 -7.484375 C 29.921875 -5.9375 31.234375 -4.625 32.78125 -4.625 Z M 32.78125 -4.625 "/>
</symbol>
<symbol overflow="visible" id="gujarati-matra-position:id0:glyph0-3">
<path style="stroke:none;" d="M 38.71875 0.4375 C 56.09375 0.4375 70.40625 -15.296875 70.40625 -34.4375 C 70.40625 -46.421875 65.78125 -54.125 60.609375 -60.0625 C 57.3125 -63.90625 53.015625 -66.546875 48.40625 -66.546875 C 40.921875 -66.546875 36.734375 -60.5 36.734375 -54.34375 C 36.734375 -39.9375 48.0625 -31.015625 59.1875 -25.625 C 54.453125 -14.40625 44.328125 -6.9375 31.796875 -6.9375 C 22.984375 -6.9375 18.59375 -12.09375 18.59375 -17.9375 C 18.59375 -27.28125 29.375 -29.703125 35.203125 -30.796875 L 31.234375 -39.046875 C 28.265625 -38.71875 24.75 -37.953125 21.453125 -36.625 C 17.265625 -40.265625 14.625 -44.21875 14.625 -49.609375 C 14.625 -55.875 19.359375 -58.1875 24.421875 -58.1875 C 25.734375 -58.1875 27.171875 -57.96875 28.375 -57.75 L 27.171875 -66.328125 C 25.515625 -66.65625 23.65625 -66.875 21.453125 -66.875 C 12.3125 -66.875 5.9375 -61.046875 5.9375 -52.578125 C 5.9375 -44.21875 11.328125 -38.171875 17.15625 -34.203125 C 13.203125 -31.5625 10.234375 -27.5 10.234375 -21.5625 C 10.234375 -15.953125 13.75 -11.21875 17.15625 -8.03125 C 25.625 0 33.765625 0.4375 38.71875 0.4375 Z M 45.4375 -50.15625 C 45.4375 -56.09375 48.953125 -58.515625 52.6875 -58.515625 C 57.96875 -58.515625 61.9375 -51.59375 61.9375 -39.9375 C 61.9375 -36.515625 61.484375 -33.328125 60.71875 -30.25 C 50.703125 -35.640625 45.4375 -42.796875 45.4375 -50.15625 Z M 45.4375 -50.15625 "/>
</symbol>
<symbol overflow="visible" id="gujarati-matra-position:id0:glyph0-4">
<path style="stroke:none;" d="M 18.375 28.046875 L 21.890625 26.296875 C 8.03125 8.25 4.0625 4.84375 -5.0625 4.84375 C -7.484375 4.84375 -10.234375 5.28125 -11.546875 5.609375 L -9.015625 13.640625 C -7.265625 13.09375 -5.0625 12.765625 -2.859375 12.765625 C 6.15625 12.765625 13.09375 22.21875 18.375 28.046875 Z M 18.375 28.046875 "/>
</symbol>
<symbol overflow="visible" id="gujarati-matra-position:id0:glyph0-5">
<path style="stroke:none;" d="M 24.75 -5.828125 L 27.828125 -9.34375 C 19.25 -15.953125 12.65625 -24.203125 12.65625 -34.65625 C 12.65625 -47.625 20.125 -56.3125 32.125 -58.078125 C 33.546875 -58.296875 35.203125 -58.40625 36.84375 -58.40625 L 36.84375 -40.046875 C 30.46875 -39.484375 28.8125 -37.0625 28.8125 -33.65625 C 28.8125 -27.609375 36.078125 -20.015625 41.578125 -20.015625 C 44.65625 -20.015625 45.765625 -21.5625 45.765625 -25.296875 L 45.765625 -30.796875 L 68.859375 -30.796875 L 68.859375 -35.203125 C 62.046875 -37.40625 52.46875 -39.046875 45.765625 -39.703125 L 45.765625 -48.1875 C 45.765625 -56.09375 45.765625 -57.3125 40.15625 -62.15625 C 37.515625 -64.34375 34.765625 -65.890625 29.265625 -65.890625 C 15.0625 -65.890625 4.84375 -54.453125 4.84375 -39.375 C 4.84375 -25.1875 14.515625 -12.546875 24.75 -5.828125 Z M 24.75 -5.828125 "/>
</symbol>
<symbol overflow="visible" id="gujarati-matra-position:id0:glyph0-6">
<path style="stroke:none;" d="M 37.40625 -4.1875 C 40.046875 -4.1875 41.03125 -5.5 41.03125 -8.796875 L 41.03125 -11.765625 L 52.90625 -11.765625 C 53.234375 -8.578125 54.671875 -6.375 58.515625 -3.40625 C 61.703125 -0.984375 64.234375 0.546875 67.65625 0.546875 C 71.171875 0.546875 73.921875 -1.3125 75.6875 -2.75 L 71.171875 -10.234375 C 68.75 -7.375 65.34375 -5.609375 62.703125 -5.609375 C 62.046875 -5.609375 61.703125 -5.828125 61.703125 -6.703125 L 61.703125 -63.6875 L 52.796875 -67.3125 L 52.796875 -17.265625 C 48.734375 -18.375 44.4375 -19.140625 41.03125 -19.578125 L 41.03125 -20.6875 C 41.03125 -25.296875 40.484375 -27.171875 36.078125 -31.90625 C 33.546875 -34.546875 30.796875 -37.1875 25.625 -37.1875 C 22.109375 -37.1875 19.90625 -35.640625 16.5 -35.640625 C 13.640625 -35.640625 11.328125 -37.296875 11.328125 -40.484375 C 11.328125 -50.8125 38.9375 -48.296875 38.9375 -61.046875 C 38.9375 -64.234375 37.0625 -67.875 32.34375 -71.5 L 28.59375 -68.421875 C 29.375 -67.546875 30.25 -66.328125 30.25 -64.6875 C 30.25 -56.203125 3.515625 -59.296875 3.515625 -44 C 3.515625 -39.375 6.15625 -36.40625 9.796875 -33.109375 C 13.09375 -30.140625 17.8125 -27.828125 22.4375 -27.828125 C 26.296875 -27.828125 28.046875 -29.15625 32.234375 -29.15625 L 32.234375 -19.796875 C 27.5 -19.359375 26.296875 -17.59375 26.296875 -14.84375 C 26.296875 -9.5625 32.5625 -4.1875 37.40625 -4.1875 Z M 37.40625 -4.1875 "/>
</symbol>
</g>
<g>
<symbol overflow="visible" id="gujarati-matra-position:id1:glyph0-0">
<path style="stroke:none;" d="M 5.375 -96.6875 L 69.828125 -96.6875 L 69.828125 0 L 5.375 0 Z M 8.0625 -2.6875 L 67.140625 -2.6875 L 67.140625 -94 L 8.0625 -94 Z M 8.0625 -2.6875 "/>
</symbol>
<symbol overflow="visible" id="gujarati-matra-position:id1:glyph0-1">
<path style="stroke:none;" d="M 68.15625 -13.75 L 66.28125 -18.640625 L 88.09375 -27.390625 L 6.984375 -27.390625 L 6.984375 -34 L 88.09375 -34 L 66.28125 -42.75 L 68.15625 -47.640625 L 99.09375 -34.265625 L 99.09375 -27.125 Z M 68.15625 -13.75 "/>
</symbol>
</g>
<g>
<symbol overflow="visible" id="gujarati-matra-position:id2:glyph0-0">
<path style="stroke:none;" d="M 10.453125 0 L 55.546875 0 L 55.546875 -78.546875 L 10.453125 -78.546875 Z M 16.0625 -5.609375 L 16.0625 -72.9375 L 50.046875 -72.9375 L 50.046875 -5.609375 Z M 16.0625 -5.609375 "/>
</symbol>
<symbol overflow="visible" id="gujarati-matra-position:id2:glyph0-1">
<path style="stroke:none;" d="M 38.71875 0.4375 C 56.09375 0.4375 70.40625 -15.296875 70.40625 -34.4375 C 70.40625 -46.421875 65.78125 -54.125 60.609375 -60.0625 C 57.3125 -63.90625 53.015625 -66.546875 48.40625 -66.546875 C 40.921875 -66.546875 36.734375 -60.5 36.734375 -54.34375 C 36.734375 -39.9375 48.0625 -31.015625 59.1875 -25.625 C 54.453125 -14.40625 44.328125 -6.9375 31.796875 -6.9375 C 22.984375 -6.9375 18.59375 -12.09375 18.59375 -17.9375 C 18.59375 -27.28125 29.375 -29.703125 35.203125 -30.796875 L 31.234375 -39.046875 C 28.265625 -38.71875 24.75 -37.953125 21.453125 -36.625 C 17.265625 -40.265625 14.625 -44.21875 14.625 -49.609375 C 14.625 -55.875 19.359375 -58.1875 24.421875 -58.1875 C 25.734375 -58.1875 27.171875 -57.96875 28.375 -57.75 L 27.171875 -66.328125 C 25.515625 -66.65625 23.65625 -66.875 21.453125 -66.875 C 12.3125 -66.875 5.9375 -61.046875 5.9375 -52.578125 C 5.9375 -44.21875 11.328125 -38.171875 17.15625 -34.203125 C 13.203125 -31.5625 10.234375 -27.5 10.234375 -21.5625 C 10.234375 -15.953125 13.75 -11.21875 17.15625 -8.03125 C 25.625 0 33.765625 0.4375 38.71875 0.4375 Z M 45.4375 -50.15625 C 45.4375 -56.09375 48.953125 -58.515625 52.6875 -58.515625 C 57.96875 -58.515625 61.9375 -51.59375 61.9375 -39.9375 C 61.9375 -36.515625 61.484375 -33.328125 60.71875 -30.25 C 50.703125 -35.640625 45.4375 -42.796875 45.4375 -50.15625 Z M 45.4375 -50.15625 "/>
</symbol>
<symbol overflow="visible" id="gujarati-matra-position:id2:glyph0-2">
<path style="stroke:none;" d="M 18.375 28.046875 L 21.890625 26.296875 C 8.03125 8.25 4.0625 4.84375 -5.0625 4.84375 C -7.484375 4.84375 -10.234375 5.28125 -11.546875 5.609375 L -9.015625 13.640625 C -7.265625 13.09375 -5.0625 12.765625 -2.859375 12.765625 C 6.15625 12.765625 13.09375 22.21875 18.375 28.046875 Z M 18.375 28.046875 "/>
</symbol>
<symbol overflow="visible" id="gujarati-matra-position:id2:glyph0-3">
<path style="stroke:none;" d="M 24.203125 0.546875 C 27.71875 0.546875 30.46875 -1.3125 32.234375 -2.75 L 27.71875 -10.234375 C 25.296875 -7.375 21.890625 -5.609375 19.25 -5.609375 C 18.59375 -5.609375 18.265625 -5.828125 18.265625 -6.703125 L 18.265625 -64.5625 C 18.265625 -81.953125 23.4375 -90.421875 36.734375 -90.421875 C 49.9375 -90.421875 63.90625 -82.5 73.8125 -70.1875 L 77.984375 -73.046875 C 68.75 -84.265625 53.5625 -98.453125 34.65625 -98.453125 C 17.9375 -98.453125 9.34375 -87.890625 9.34375 -66.875 L 9.34375 -13.75 C 9.34375 -9.34375 10.5625 -6.8125 15.0625 -3.40625 C 18.375 -0.875 20.796875 0.546875 24.203125 0.546875 Z M 24.203125 0.546875 "/>
</symbol>
<symbol overflow="visible" id="gujarati-matra-position:id2:glyph0-4">
<path style="stroke:none;" d="M 24.75 -5.828125 L 27.828125 -9.34375 C 19.25 -15.953125 12.65625 -24.203125 12.65625 -34.65625 C 12.65625 -47.625 20.125 -56.3125 32.125 -58.078125 C 33.546875 -58.296875 35.203125 -58.40625 36.84375 -58.40625 L 36.84375 -40.046875 C 30.46875 -39.484375 28.8125 -37.0625 28.8125 -33.65625 C 28.8125 -27.609375 36.078125 -20.015625 41.578125 -20.015625 C 44.65625 -20.015625 45.765625 -21.5625 45.765625 -25.296875 L 45.765625 -30.796875 L 68.859375 -30.796875 L 68.859375 -35.203125 C 62.046875 -37.40625 52.46875 -39.046875 45.765625 -39.703125 L 45.765625 -48.1875 C 45.765625 -56.09375 45.765625 -57.3125 40.15625 -62.15625 C 37.515625 -64.34375 34.765625 -65.890625 29.265625 -65.890625 C 15.0625 -65.890625 4.84375 -54.453125 4.84375 -39.375 C 4.84375 -25.1875 14.515625 -12.546875 24.75 -5.828125 Z M 24.75 -5.828125 "/>
</symbol>
<symbol overflow="visible" id="gujarati-matra-position:id2:glyph0-5">
<path style="stroke:none;" d="M 37.40625 -4.1875 C 40.046875 -4.1875 41.03125 -5.5 41.03125 -8.796875 L 41.03125 -11.765625 L 52.90625 -11.765625 C 53.234375 -8.578125 54.671875 -6.375 58.515625 -3.40625 C 61.703125 -0.984375 64.234375 0.546875 67.65625 0.546875 C 71.171875 0.546875 73.921875 -1.3125 75.6875 -2.75 L 71.171875 -10.234375 C 68.75 -7.375 65.34375 -5.609375 62.703125 -5.609375 C 62.046875 -5.609375 61.703125 -5.828125 61.703125 -6.703125 L 61.703125 -63.6875 L 52.796875 -67.3125 L 52.796875 -17.265625 C 48.734375 -18.375 44.4375 -19.140625 41.03125 -19.578125 L 41.03125 -20.6875 C 41.03125 -25.296875 40.484375 -27.171875 36.078125 -31.90625 C 33.546875 -34.546875 30.796875 -37.1875 25.625 -37.1875 C 22.109375 -37.1875 19.90625 -35.640625 16.5 -35.640625 C 13.640625 -35.640625 11.328125 -37.296875 11.328125 -40.484375 C 11.328125 -50.8125 38.9375 -48.296875 38.9375 -61.046875 C 38.9375 -64.234375 37.0625 -67.875 32.34375 -71.5 L 28.59375 -68.421875 C 29.375 -67.546875 30.25 -66.328125 30.25 -64.6875 C 30.25 -56.203125 3.515625 -59.296875 3.515625 -44 C 3.515625 -39.375 6.15625 -36.40625 9.796875 -33.109375 C 13.09375 -30.140625 17.8125 -27.828125 22.4375 -27.828125 C 26.296875 -27.828125 28.046875 -29.15625 32.234375 -29.15625 L 32.234375 -19.796875 C 27.5 -19.359375 26.296875 -17.59375 26.296875 -14.84375 C 26.296875 -9.5625 32.5625 -4.1875 37.40625 -4.1875 Z M 37.40625 -4.1875 "/>
</symbol>
</g>
</defs>
  <g id="gujarati-matra-position:id0:id0" transform="matrix(1.25,0,0,1.25,0.0,0.0)"><g id="gujarati-matra-position:id0:surface1">
<g style="fill:rgb(0%,0%,0%);fill-opacity:1;">
  <use xlink:href="#gujarati-matra-position:id0:glyph0-1" x="16" y="111.671875" class="c0"/>
  <use xlink:href="#gujarati-matra-position:id0:glyph0-2" x="43.609375" y="111.671875" class="dc"/>
  <use xlink:href="#gujarati-matra-position:id0:glyph0-3" x="109.171875" y="111.671875" class="c1"/>
  <use xlink:href="#gujarati-matra-position:id0:glyph0-4" x="152.515625" y="111.671875" class="c2"/>
  <use xlink:href="#gujarati-matra-position:id0:glyph0-5" x="183.53125" y="111.671875" class="c3"/>
  <use xlink:href="#gujarati-matra-position:id0:glyph0-6" x="241.28125" y="111.671875" class="c4"/>
</g>
</g>
</g>
  <g id="gujarati-matra-position:id1:id1" transform="matrix(1.25,0,0,1.25,410.4296875,1.279296875)"><g id="gujarati-matra-position:id1:surface1">
<g style="fill:rgb(0%,0%,0%);fill-opacity:1;">
  <use xlink:href="#gujarati-matra-position:id1:glyph0-1" x="0" y="120.84375" class="arrow"/>
</g>
</g>
</g>
  <g id="gujarati-matra-position:id2:id2" transform="matrix(1.25,0,0,1.25,543.02734375,0.0)"><g id="gujarati-matra-position:id2:surface1">
<g style="fill:rgb(0%,0%,0%);fill-opacity:1;">
  <use xlink:href="#gujarati-matra-position:id2:glyph0-1" x="16" y="111.671875" class="c1"/>
  <use xlink:href="#gujarati-matra-position:id2:glyph0-2" x="59.34375" y="111.671875" class="c2"/>
  <use xlink:href="#gujarati-matra-position:id2:glyph0-3" x="90.359375" y="111.671875" class="c0"/>
  <use xlink:href="#gujarati-matra-position:id2:glyph0-4" x="117.96875" y="111.671875" class="c3"/>
  <use xlink:href="#gujarati-matra-position:id2:glyph0-5" x="175.71875" y="111.671875" class="c4"/>
</g>
</g>
</g>
</svg>
