<?xml version="1.0" standalone="no"?>
<!DOCTYPE svg PUBLIC "-//W3C//DTD SVG 1.1//EN"
 "http://www.w3.org/Graphics/SVG/1.1/DTD/svg11.dtd">
<!-- Created with svg_stack (http://github.com/astraw/svg_stack) -->
<svg xmlns="http://www.w3.org/2000/svg" xmlns:sodipodi="http://sodipodi.sourceforge.net/DTD/sodipodi-0.dtd" xmlns:xlink="http://www.w3.org/1999/xlink" version="1.1" width="670.21484375" height="203.96484375">
  <defs><g>
<symbol overflow="visible" id="id0:glyph0-0">
<path style="stroke:none;" d="M 10.453125 0 L 10.453125 -78.546875 L 55.546875 -78.546875 L 55.546875 0 Z M 16.0625 -5.609375 L 50.046875 -5.609375 L 50.046875 -72.9375 L 16.0625 -72.9375 Z M 16.0625 -5.609375 "/>
</symbol>
<symbol overflow="visible" id="id0:glyph0-1">
<path style="stroke:none;" d="M 32.78125 -53.6875 C 32.050781 -53.6875 31.390625 -53.976562 30.796875 -54.5625 C 30.210938 -55.144531 29.921875 -55.804688 29.921875 -56.546875 C 29.921875 -57.347656 30.210938 -58.023438 30.796875 -58.578125 C 31.390625 -59.128906 32.050781 -59.40625 32.78125 -59.40625 C 33.582031 -59.40625 34.257812 -59.128906 34.8125 -58.578125 C 35.363281 -58.023438 35.640625 -57.347656 35.640625 -56.546875 C 35.640625 -55.804688 35.363281 -55.144531 34.8125 -54.5625 C 34.257812 -53.976562 33.582031 -53.6875 32.78125 -53.6875 Z M 23.546875 -51.703125 C 22.804688 -51.703125 22.144531 -51.992188 21.5625 -52.578125 C 20.976562 -53.160156 20.6875 -53.820312 20.6875 -54.5625 C 20.6875 -55.363281 20.976562 -56.039062 21.5625 -56.59375 C 22.144531 -57.144531 22.804688 -57.421875 23.546875 -57.421875 C 24.347656 -57.421875 25.023438 -57.144531 25.578125 -56.59375 C 26.128906 -56.039062 26.40625 -55.363281 26.40625 -54.5625 C 26.40625 -53.820312 26.128906 -53.160156 25.578125 -52.578125 C 25.023438 -51.992188 24.347656 -51.703125 23.546875 -51.703125 Z M 42.015625 -51.703125 C 41.285156 -51.703125 40.625 -51.992188 40.03125 -52.578125 C 39.445312 -53.160156 39.15625 -53.820312 39.15625 -54.5625 C 39.15625 -55.363281 39.445312 -56.039062 40.03125 -56.59375 C 40.625 -57.144531 41.285156 -57.421875 42.015625 -57.421875 C 42.828125 -57.421875 43.503906 -57.144531 44.046875 -56.59375 C 44.597656 -56.039062 44.875 -55.363281 44.875 -54.5625 C 44.875 -53.820312 44.597656 -53.160156 44.046875 -52.578125 C 43.503906 -51.992188 42.828125 -51.703125 42.015625 -51.703125 Z M 50.15625 -46.53125 C 49.425781 -46.53125 48.765625 -46.820312 48.171875 -47.40625 C 47.585938 -48 47.296875 -48.660156 47.296875 -49.390625 C 47.296875 -50.191406 47.585938 -50.867188 48.171875 -51.421875 C 48.765625 -51.972656 49.425781 -52.25 50.15625 -52.25 C 50.96875 -52.25 51.644531 -51.972656 52.1875 -51.421875 C 52.738281 -50.867188 53.015625 -50.191406 53.015625 -49.390625 C 53.015625 -48.660156 52.738281 -48 52.1875 -47.40625 C 51.644531 -46.820312 50.96875 -46.53125 50.15625 -46.53125 Z M 15.40625 -46.53125 C 14.664062 -46.53125 14.003906 -46.820312 13.421875 -47.40625 C 12.835938 -48 12.546875 -48.660156 12.546875 -49.390625 C 12.546875 -50.191406 12.835938 -50.867188 13.421875 -51.421875 C 14.003906 -51.972656 14.664062 -52.25 15.40625 -52.25 C 16.207031 -52.25 16.882812 -51.972656 17.4375 -51.421875 C 17.988281 -50.867188 18.265625 -50.191406 18.265625 -49.390625 C 18.265625 -48.660156 17.988281 -48 17.4375 -47.40625 C 16.882812 -46.820312 16.207031 -46.53125 15.40625 -46.53125 Z M 10.234375 -38.390625 C 9.492188 -38.390625 8.832031 -38.679688 8.25 -39.265625 C 7.664062 -39.859375 7.375 -40.519531 7.375 -41.25 C 7.375 -42.050781 7.664062 -42.726562 8.25 -43.28125 C 8.832031 -43.832031 9.492188 -44.109375 10.234375 -44.109375 C 11.035156 -44.109375 11.710938 -43.832031 12.265625 -43.28125 C 12.816406 -42.726562 13.09375 -42.050781 13.09375 -41.25 C 13.09375 -40.519531 12.816406 -39.859375 12.265625 -39.265625 C 11.710938 -38.679688 11.035156 -38.390625 10.234375 -38.390625 Z M 55.328125 -38.390625 C 54.597656 -38.390625 53.9375 -38.679688 53.34375 -39.265625 C 52.757812 -39.859375 52.46875 -40.519531 52.46875 -41.25 C 52.46875 -42.050781 52.757812 -42.726562 53.34375 -43.28125 C 53.9375 -43.832031 54.597656 -44.109375 55.328125 -44.109375 C 56.140625 -44.109375 56.816406 -43.832031 57.359375 -43.28125 C 57.910156 -42.726562 58.1875 -42.050781 58.1875 -41.25 C 58.1875 -40.519531 57.910156 -39.859375 57.359375 -39.265625 C 56.816406 -38.679688 56.140625 -38.390625 55.328125 -38.390625 Z M 8.25 -29.15625 C 7.519531 -29.15625 6.859375 -29.445312 6.265625 -30.03125 C 5.679688 -30.613281 5.390625 -31.273438 5.390625 -32.015625 C 5.390625 -32.816406 5.679688 -33.492188 6.265625 -34.046875 C 6.859375 -34.597656 7.519531 -34.875 8.25 -34.875 C 9.050781 -34.875 9.726562 -34.597656 10.28125 -34.046875 C 10.832031 -33.492188 11.109375 -32.816406 11.109375 -32.015625 C 11.109375 -31.273438 10.832031 -30.613281 10.28125 -30.03125 C 9.726562 -29.445312 9.050781 -29.15625 8.25 -29.15625 Z M 57.3125 -29.15625 C 56.570312 -29.15625 55.910156 -29.445312 55.328125 -30.03125 C 54.742188 -30.613281 54.453125 -31.273438 54.453125 -32.015625 C 54.453125 -32.816406 54.742188 -33.492188 55.328125 -34.046875 C 55.910156 -34.597656 56.570312 -34.875 57.3125 -34.875 C 58.113281 -34.875 58.789062 -34.597656 59.34375 -34.046875 C 59.894531 -33.492188 60.171875 -32.816406 60.171875 -32.015625 C 60.171875 -31.273438 59.894531 -30.613281 59.34375 -30.03125 C 58.789062 -29.445312 58.113281 -29.15625 57.3125 -29.15625 Z M 10.234375 -19.90625 C 9.492188 -19.90625 8.832031 -20.195312 8.25 -20.78125 C 7.664062 -21.375 7.375 -22.035156 7.375 -22.765625 C 7.375 -23.578125 7.664062 -24.253906 8.25 -24.796875 C 8.832031 -25.347656 9.492188 -25.625 10.234375 -25.625 C 11.035156 -25.625 11.710938 -25.347656 12.265625 -24.796875 C 12.816406 -24.253906 13.09375 -23.578125 13.09375 -22.765625 C 13.09375 -22.035156 12.816406 -21.375 12.265625 -20.78125 C 11.710938 -20.195312 11.035156 -19.90625 10.234375 -19.90625 Z M 55.328125 -19.90625 C 54.597656 -19.90625 53.9375 -20.195312 53.34375 -20.78125 C 52.757812 -21.375 52.46875 -22.035156 52.46875 -22.765625 C 52.46875 -23.578125 52.757812 -24.253906 53.34375 -24.796875 C 53.9375 -25.347656 54.597656 -25.625 55.328125 -25.625 C 56.140625 -25.625 56.816406 -25.347656 57.359375 -24.796875 C 57.910156 -24.253906 58.1875 -23.578125 58.1875 -22.765625 C 58.1875 -22.035156 57.910156 -21.375 57.359375 -20.78125 C 56.816406 -20.195312 56.140625 -19.90625 55.328125 -19.90625 Z M 15.40625 -11.765625 C 14.664062 -11.765625 14.003906 -12.054688 13.421875 -12.640625 C 12.835938 -13.234375 12.546875 -13.894531 12.546875 -14.625 C 12.546875 -15.4375 12.835938 -16.113281 13.421875 -16.65625 C 14.003906 -17.207031 14.664062 -17.484375 15.40625 -17.484375 C 16.207031 -17.484375 16.882812 -17.207031 17.4375 -16.65625 C 17.988281 -16.113281 18.265625 -15.4375 18.265625 -14.625 C 18.265625 -13.894531 17.988281 -13.234375 17.4375 -12.640625 C 16.882812 -12.054688 16.207031 -11.765625 15.40625 -11.765625 Z M 50.15625 -11.765625 C 49.425781 -11.765625 48.765625 -12.054688 48.171875 -12.640625 C 47.585938 -13.234375 47.296875 -13.894531 47.296875 -14.625 C 47.296875 -15.4375 47.585938 -16.113281 48.171875 -16.65625 C 48.765625 -17.207031 49.425781 -17.484375 50.15625 -17.484375 C 50.96875 -17.484375 51.644531 -17.207031 52.1875 -16.65625 C 52.738281 -16.113281 53.015625 -15.4375 53.015625 -14.625 C 53.015625 -13.894531 52.738281 -13.234375 52.1875 -12.640625 C 51.644531 -12.054688 50.96875 -11.765625 50.15625 -11.765625 Z M 23.546875 -6.59375 C 22.804688 -6.59375 22.144531 -6.882812 21.5625 -7.46875 C 20.976562 -8.0625 20.6875 -8.722656 20.6875 -9.453125 C 20.6875 -10.265625 20.976562 -10.941406 21.5625 -11.484375 C 22.144531 -12.035156 22.804688 -12.3125 23.546875 -12.3125 C 24.347656 -12.3125 25.023438 -12.035156 25.578125 -11.484375 C 26.128906 -10.941406 26.40625 -10.265625 26.40625 -9.453125 C 26.40625 -8.722656 26.128906 -8.0625 25.578125 -7.46875 C 25.023438 -6.882812 24.347656 -6.59375 23.546875 -6.59375 Z M 42.015625 -6.59375 C 41.285156 -6.59375 40.625 -6.882812 40.03125 -7.46875 C 39.445312 -8.0625 39.15625 -8.722656 39.15625 -9.453125 C 39.15625 -10.265625 39.445312 -10.941406 40.03125 -11.484375 C 40.625 -12.035156 41.285156 -12.3125 42.015625 -12.3125 C 42.828125 -12.3125 43.503906 -12.035156 44.046875 -11.484375 C 44.597656 -10.941406 44.875 -10.265625 44.875 -9.453125 C 44.875 -8.722656 44.597656 -8.0625 44.046875 -7.46875 C 43.503906 -6.882812 42.828125 -6.59375 42.015625 -6.59375 Z M 32.78125 -4.625 C 32.050781 -4.625 31.390625 -4.914062 30.796875 -5.5 C 30.210938 -6.082031 29.921875 -6.742188 29.921875 -7.484375 C 29.921875 -8.285156 30.210938 -8.960938 30.796875 -9.515625 C 31.390625 -10.066406 32.050781 -10.34375 32.78125 -10.34375 C 33.582031 -10.34375 34.257812 -10.066406 34.8125 -9.515625 C 35.363281 -8.960938 35.640625 -8.285156 35.640625 -7.484375 C 35.640625 -6.742188 35.363281 -6.082031 34.8125 -5.5 C 34.257812 -4.914062 33.582031 -4.625 32.78125 -4.625 Z M 32.78125 -4.625 "/>
</symbol>
<symbol overflow="visible" id="id0:glyph0-2">
<path style="stroke:none;" d="M -2.09375 -69.84375 C -3.40625 -70.875 -4.703125 -72.195312 -5.984375 -73.8125 C -7.273438 -75.425781 -8.359375 -77.222656 -9.234375 -79.203125 C -10.117188 -81.179688 -10.5625 -83.160156 -10.5625 -85.140625 C -10.5625 -89.609375 -8.984375 -92.960938 -5.828125 -95.203125 C -2.671875 -97.441406 1.140625 -98.5625 5.609375 -98.5625 C 7.367188 -98.5625 9 -98.414062 10.5 -98.125 C 12.007812 -97.832031 13.054688 -97.535156 13.640625 -97.234375 L 16.0625 -88.875 C 14.957031 -89.320312 13.632812 -89.671875 12.09375 -89.921875 C 10.5625 -90.179688 9.132812 -90.3125 7.8125 -90.3125 C 4.726562 -90.3125 2.195312 -89.59375 0.21875 -88.15625 C -1.757812 -86.726562 -2.75 -84.441406 -2.75 -81.296875 C -2.75 -79.015625 -2.085938 -76.9375 -0.765625 -75.0625 C 0.546875 -73.195312 1.972656 -71.457031 3.515625 -69.84375 Z M -2.09375 -69.84375 "/>
</symbol>
<symbol overflow="visible" id="id0:glyph0-3">
<path style="stroke:none;" d="M 12.3125 -25.078125 L 7.484375 -33 L 21.34375 -36.078125 C 18.769531 -37.691406 16.53125 -39.765625 14.625 -42.296875 C 12.71875 -44.828125 11.765625 -47.742188 11.765625 -51.046875 C 11.765625 -54.335938 12.660156 -57.117188 14.453125 -59.390625 C 16.253906 -61.671875 18.675781 -63.394531 21.71875 -64.5625 C 24.769531 -65.738281 28.203125 -66.328125 32.015625 -66.328125 C 33.109375 -66.328125 34.242188 -66.269531 35.421875 -66.15625 C 36.597656 -66.050781 37.695312 -65.925781 38.71875 -65.78125 L 40.703125 -57.3125 C 39.816406 -57.457031 38.84375 -57.566406 37.78125 -57.640625 C 36.71875 -57.710938 35.640625 -57.75 34.546875 -57.75 C 30.429688 -57.75 27.070312 -56.976562 24.46875 -55.4375 C 21.863281 -53.894531 20.5625 -51.476562 20.5625 -48.1875 C 20.5625 -46.125 21.078125 -44.269531 22.109375 -42.625 C 23.140625 -40.976562 24.421875 -39.457031 25.953125 -38.0625 L 57.640625 -38.0625 L 62.375 -30.46875 L 35.09375 -30.46875 C 36.925781 -29.738281 38.832031 -28.65625 40.8125 -27.21875 C 42.789062 -25.789062 44.457031 -23.992188 45.8125 -21.828125 C 47.164062 -19.671875 47.84375 -17.125 47.84375 -14.1875 C 47.84375 -9.71875 46.210938 -6.125 42.953125 -3.40625 C 39.691406 -0.695312 35.128906 0.65625 29.265625 0.65625 C 28.890625 0.65625 28.484375 0.65625 28.046875 0.65625 C 30.242188 3.15625 32.789062 4.84375 35.6875 5.71875 C 38.59375 6.601562 42.023438 7.046875 45.984375 7.046875 C 46.785156 7.046875 47.585938 7.023438 48.390625 6.984375 C 49.203125 6.953125 49.898438 6.894531 50.484375 6.8125 L 47.078125 16.5 C 41.210938 16.5 36.113281 14.90625 31.78125 11.71875 C 27.457031 8.53125 24.269531 4.585938 22.21875 -0.109375 C 18.695312 -0.835938 15.648438 -2.082031 13.078125 -3.84375 C 10.515625 -5.601562 9.234375 -7.804688 9.234375 -10.453125 C 9.234375 -12.210938 9.820312 -13.550781 11 -14.46875 C 12.175781 -15.382812 13.457031 -15.84375 14.84375 -15.84375 C 16.601562 -15.84375 18.179688 -15.328125 19.578125 -14.296875 C 20.972656 -13.273438 22.164062 -12.007812 23.15625 -10.5 C 24.144531 -9 24.929688 -7.476562 25.515625 -5.9375 C 29.703125 -5.9375 32.859375 -6.925781 34.984375 -8.90625 C 37.109375 -10.882812 38.171875 -13.34375 38.171875 -16.28125 C 38.171875 -18.988281 37.253906 -21.515625 35.421875 -23.859375 C 33.585938 -26.210938 31.460938 -28.085938 29.046875 -29.484375 Z M 12.3125 -25.078125 "/>
</symbol>
<symbol overflow="visible" id="id0:glyph0-4">
<path style="stroke:none;" d="M 16.0625 -22.984375 C 14.226562 -22.984375 12.300781 -23.695312 10.28125 -25.125 C 8.269531 -26.5625 6.546875 -28.378906 5.109375 -30.578125 C 3.679688 -32.773438 2.96875 -35.085938 2.96875 -37.515625 C 2.96875 -39.566406 3.789062 -41.140625 5.4375 -42.234375 C 7.09375 -43.335938 9.71875 -43.890625 13.3125 -43.890625 C 17.707031 -43.890625 22.015625 -43.648438 26.234375 -43.171875 C 30.453125 -42.691406 34.207031 -42.160156 37.5 -41.578125 C 40.800781 -40.992188 43.257812 -40.484375 44.875 -40.046875 L 44.875 -35.421875 L 27.9375 -35.421875 C 24.5625 -35.421875 22.46875 -35.179688 21.65625 -34.703125 C 20.851562 -34.222656 20.453125 -33.363281 20.453125 -32.125 L 20.453125 -28.375 C 20.453125 -24.78125 18.988281 -22.984375 16.0625 -22.984375 Z M 16.0625 -22.984375 "/>
</symbol>
<symbol overflow="visible" id="id0:glyph0-5">
<path style="stroke:none;" d="M 12.765625 -26.296875 C 9.898438 -26.296875 7.710938 -27.046875 6.203125 -28.546875 C 4.703125 -30.046875 3.953125 -31.785156 3.953125 -33.765625 C 3.953125 -35.304688 4.519531 -36.660156 5.65625 -37.828125 C 6.800781 -39.003906 8.398438 -39.59375 10.453125 -39.59375 C 12.796875 -39.59375 15.03125 -38.347656 17.15625 -35.859375 C 19.425781 -36.742188 21.40625 -37.988281 23.09375 -39.59375 C 24.78125 -41.207031 26.097656 -42.96875 27.046875 -44.875 C 28.003906 -46.78125 28.484375 -48.613281 28.484375 -50.375 C 28.484375 -52.425781 27.804688 -54.164062 26.453125 -55.59375 C 25.097656 -57.03125 22.84375 -57.75 19.6875 -57.75 C 18 -57.75 16.367188 -57.507812 14.796875 -57.03125 C 13.222656 -56.550781 11.703125 -56.019531 10.234375 -55.4375 L 5.390625 -64.234375 C 6.859375 -64.828125 8.453125 -65.304688 10.171875 -65.671875 C 11.898438 -66.035156 13.898438 -66.21875 16.171875 -66.21875 C 18.734375 -66.21875 21.1875 -65.503906 23.53125 -64.078125 C 25.882812 -62.648438 28.015625 -60.867188 29.921875 -58.734375 C 31.972656 -56.535156 33.566406 -54.445312 34.703125 -52.46875 C 35.835938 -50.488281 36.40625 -48.289062 36.40625 -45.875 C 36.40625 -43.007812 35.691406 -40.382812 34.265625 -38 C 32.835938 -35.625 30.929688 -33.535156 28.546875 -31.734375 C 26.160156 -29.941406 23.539062 -28.566406 20.6875 -27.609375 C 22.4375 -25.265625 24.335938 -23.578125 26.390625 -22.546875 C 28.453125 -21.523438 30.691406 -21.015625 33.109375 -21.015625 C 36.628906 -21.015625 39.765625 -21.765625 42.515625 -23.265625 C 45.265625 -24.765625 47.628906 -26.503906 49.609375 -28.484375 L 49.609375 -67.3125 L 58.515625 -63.6875 L 58.515625 -6.703125 C 58.515625 -5.972656 58.847656 -5.609375 59.515625 -5.609375 C 60.753906 -5.609375 62.179688 -6.03125 63.796875 -6.875 C 65.410156 -7.71875 66.804688 -8.835938 67.984375 -10.234375 L 72.484375 -2.75 C 71.609375 -2.019531 70.488281 -1.285156 69.125 -0.546875 C 67.769531 0.179688 66.210938 0.546875 64.453125 0.546875 C 62.773438 0.546875 61.238281 0.195312 59.84375 -0.5 C 58.445312 -1.195312 56.90625 -2.164062 55.21875 -3.40625 C 52.945312 -5.09375 51.441406 -6.6875 50.703125 -8.1875 C 49.972656 -9.695312 49.609375 -11.550781 49.609375 -13.75 L 49.609375 -17.375 C 47.992188 -16.351562 46.140625 -15.53125 44.046875 -14.90625 C 41.960938 -14.28125 39.597656 -13.96875 36.953125 -13.96875 C 33.210938 -13.96875 29.984375 -14.609375 27.265625 -15.890625 C 24.554688 -17.171875 22.25 -18.785156 20.34375 -20.734375 C 18.4375 -22.679688 16.898438 -24.609375 15.734375 -26.515625 C 14.703125 -26.367188 13.710938 -26.296875 12.765625 -26.296875 Z M 12.765625 -26.296875 "/>
</symbol>
<symbol overflow="visible" id="id0:glyph0-6">
<path style="stroke:none;" d="M 0.875 35.640625 C -1.613281 35.640625 -3.9375 34.976562 -6.09375 33.65625 C -8.257812 32.34375 -10.1875 30.804688 -11.875 29.046875 C -13.34375 27.503906 -14.570312 25.832031 -15.5625 24.03125 C -16.550781 22.238281 -17.046875 20.28125 -17.046875 18.15625 C -17.046875 14.5625 -15.613281 11.441406 -12.75 8.796875 C -9.894531 6.160156 -5.972656 4.84375 -0.984375 4.84375 C 3.117188 4.84375 6.859375 6.015625 10.234375 8.359375 C 13.609375 10.703125 17.050781 13.890625 20.5625 17.921875 C 24.082031 21.960938 28.15625 26.550781 32.78125 31.6875 L 27.0625 35.3125 C 23.90625 30.46875 21.0625 26.578125 18.53125 23.640625 C 16 20.710938 13.707031 18.492188 11.65625 16.984375 C 9.601562 15.484375 7.695312 14.457031 5.9375 13.90625 C 4.175781 13.363281 2.523438 13.09375 0.984375 13.09375 C -2.160156 13.09375 -4.648438 13.953125 -6.484375 15.671875 C -8.316406 17.398438 -9.234375 19.4375 -9.234375 21.78125 C -9.234375 23.90625 -8.484375 25.570312 -6.984375 26.78125 C -5.484375 27.988281 -3.816406 28.59375 -1.984375 28.59375 C -0.296875 28.59375 1.316406 28.28125 2.859375 27.65625 C 4.398438 27.039062 5.757812 26.253906 6.9375 25.296875 L 10.234375 33.4375 C 8.835938 34.175781 7.382812 34.726562 5.875 35.09375 C 4.375 35.457031 2.707031 35.640625 0.875 35.640625 Z M 0.875 35.640625 "/>
</symbol>
</g>
<g>
<symbol overflow="visible" id="id1:glyph0-0">
<path style="stroke:none;" d="M 5.375 -96.6875 L 69.828125 -96.6875 L 69.828125 0 L 5.375 0 Z M 8.0625 -2.6875 L 67.140625 -2.6875 L 67.140625 -94 L 8.0625 -94 Z M 8.0625 -2.6875 "/>
</symbol>
<symbol overflow="visible" id="id1:glyph0-1">
<path style="stroke:none;" d="M 68.15625 -13.75 L 66.28125 -18.640625 L 88.09375 -27.390625 L 6.984375 -27.390625 L 6.984375 -34 L 88.09375 -34 L 66.28125 -42.75 L 68.15625 -47.640625 L 99.09375 -34.265625 L 99.09375 -27.125 Z M 68.15625 -13.75 "/>
</symbol>
</g>
<g>
<symbol overflow="visible" id="id2:glyph0-0">
<path style="stroke:none;" d="M 10.453125 0 L 10.453125 -78.546875 L 55.546875 -78.546875 L 55.546875 0 Z M 16.0625 -5.609375 L 50.046875 -5.609375 L 50.046875 -72.9375 L 16.0625 -72.9375 Z M 16.0625 -5.609375 "/>
</symbol>
<symbol overflow="visible" id="id2:glyph0-1">
<path style="stroke:none;" d="M 12.3125 -25.078125 L 7.484375 -33 L 21.34375 -36.078125 C 18.769531 -37.691406 16.53125 -39.765625 14.625 -42.296875 C 12.71875 -44.828125 11.765625 -47.742188 11.765625 -51.046875 C 11.765625 -54.335938 12.660156 -57.117188 14.453125 -59.390625 C 16.253906 -61.671875 18.675781 -63.394531 21.71875 -64.5625 C 24.769531 -65.738281 28.203125 -66.328125 32.015625 -66.328125 C 33.109375 -66.328125 34.242188 -66.269531 35.421875 -66.15625 C 36.597656 -66.050781 37.695312 -65.925781 38.71875 -65.78125 L 40.703125 -57.3125 C 39.816406 -57.457031 38.84375 -57.566406 37.78125 -57.640625 C 36.71875 -57.710938 35.640625 -57.75 34.546875 -57.75 C 30.429688 -57.75 27.070312 -56.976562 24.46875 -55.4375 C 21.863281 -53.894531 20.5625 -51.476562 20.5625 -48.1875 C 20.5625 -46.125 21.078125 -44.269531 22.109375 -42.625 C 23.140625 -40.976562 24.421875 -39.457031 25.953125 -38.0625 L 57.640625 -38.0625 L 62.375 -30.46875 L 35.09375 -30.46875 C 36.925781 -29.738281 38.832031 -28.65625 40.8125 -27.21875 C 42.789062 -25.789062 44.457031 -23.992188 45.8125 -21.828125 C 47.164062 -19.671875 47.84375 -17.125 47.84375 -14.1875 C 47.84375 -9.71875 46.210938 -6.125 42.953125 -3.40625 C 39.691406 -0.695312 35.128906 0.65625 29.265625 0.65625 C 28.890625 0.65625 28.484375 0.65625 28.046875 0.65625 C 30.242188 3.15625 32.789062 4.84375 35.6875 5.71875 C 38.59375 6.601562 42.023438 7.046875 45.984375 7.046875 C 46.785156 7.046875 47.585938 7.023438 48.390625 6.984375 C 49.203125 6.953125 49.898438 6.894531 50.484375 6.8125 L 47.078125 16.5 C 41.210938 16.5 36.113281 14.90625 31.78125 11.71875 C 27.457031 8.53125 24.269531 4.585938 22.21875 -0.109375 C 18.695312 -0.835938 15.648438 -2.082031 13.078125 -3.84375 C 10.515625 -5.601562 9.234375 -7.804688 9.234375 -10.453125 C 9.234375 -12.210938 9.820312 -13.550781 11 -14.46875 C 12.175781 -15.382812 13.457031 -15.84375 14.84375 -15.84375 C 16.601562 -15.84375 18.179688 -15.328125 19.578125 -14.296875 C 20.972656 -13.273438 22.164062 -12.007812 23.15625 -10.5 C 24.144531 -9 24.929688 -7.476562 25.515625 -5.9375 C 29.703125 -5.9375 32.859375 -6.925781 34.984375 -8.90625 C 37.109375 -10.882812 38.171875 -13.34375 38.171875 -16.28125 C 38.171875 -18.988281 37.253906 -21.515625 35.421875 -23.859375 C 33.585938 -26.210938 31.460938 -28.085938 29.046875 -29.484375 Z M 12.3125 -25.078125 "/>
</symbol>
<symbol overflow="visible" id="id2:glyph0-2">
<path style="stroke:none;" d="M 16.0625 -22.984375 C 14.226562 -22.984375 12.300781 -23.695312 10.28125 -25.125 C 8.269531 -26.5625 6.546875 -28.378906 5.109375 -30.578125 C 3.679688 -32.773438 2.96875 -35.085938 2.96875 -37.515625 C 2.96875 -39.566406 3.789062 -41.140625 5.4375 -42.234375 C 7.09375 -43.335938 9.71875 -43.890625 13.3125 -43.890625 C 17.707031 -43.890625 22.015625 -43.648438 26.234375 -43.171875 C 30.453125 -42.691406 34.207031 -42.160156 37.5 -41.578125 C 40.800781 -40.992188 43.257812 -40.484375 44.875 -40.046875 L 44.875 -35.421875 L 27.9375 -35.421875 C 24.5625 -35.421875 22.46875 -35.179688 21.65625 -34.703125 C 20.851562 -34.222656 20.453125 -33.363281 20.453125 -32.125 L 20.453125 -28.375 C 20.453125 -24.78125 18.988281 -22.984375 16.0625 -22.984375 Z M 16.0625 -22.984375 "/>
</symbol>
<symbol overflow="visible" id="id2:glyph0-3">
<path style="stroke:none;" d="M 12.765625 -26.296875 C 9.898438 -26.296875 7.710938 -27.046875 6.203125 -28.546875 C 4.703125 -30.046875 3.953125 -31.785156 3.953125 -33.765625 C 3.953125 -35.304688 4.519531 -36.660156 5.65625 -37.828125 C 6.800781 -39.003906 8.398438 -39.59375 10.453125 -39.59375 C 12.796875 -39.59375 15.03125 -38.347656 17.15625 -35.859375 C 19.425781 -36.742188 21.40625 -37.988281 23.09375 -39.59375 C 24.78125 -41.207031 26.097656 -42.96875 27.046875 -44.875 C 28.003906 -46.78125 28.484375 -48.613281 28.484375 -50.375 C 28.484375 -52.425781 27.804688 -54.164062 26.453125 -55.59375 C 25.097656 -57.03125 22.84375 -57.75 19.6875 -57.75 C 18 -57.75 16.367188 -57.507812 14.796875 -57.03125 C 13.222656 -56.550781 11.703125 -56.019531 10.234375 -55.4375 L 5.390625 -64.234375 C 6.859375 -64.828125 8.453125 -65.304688 10.171875 -65.671875 C 11.898438 -66.035156 13.898438 -66.21875 16.171875 -66.21875 C 18.734375 -66.21875 21.1875 -65.503906 23.53125 -64.078125 C 25.882812 -62.648438 28.015625 -60.867188 29.921875 -58.734375 C 31.972656 -56.535156 33.566406 -54.445312 34.703125 -52.46875 C 35.835938 -50.488281 36.40625 -48.289062 36.40625 -45.875 C 36.40625 -43.007812 35.691406 -40.382812 34.265625 -38 C 32.835938 -35.625 30.929688 -33.535156 28.546875 -31.734375 C 26.160156 -29.941406 23.539062 -28.566406 20.6875 -27.609375 C 22.4375 -25.265625 24.335938 -23.578125 26.390625 -22.546875 C 28.453125 -21.523438 30.691406 -21.015625 33.109375 -21.015625 C 36.628906 -21.015625 39.765625 -21.765625 42.515625 -23.265625 C 45.265625 -24.765625 47.628906 -26.503906 49.609375 -28.484375 L 49.609375 -67.3125 L 58.515625 -63.6875 L 58.515625 -6.703125 C 58.515625 -5.972656 58.847656 -5.609375 59.515625 -5.609375 C 60.753906 -5.609375 62.179688 -6.03125 63.796875 -6.875 C 65.410156 -7.71875 66.804688 -8.835938 67.984375 -10.234375 L 72.484375 -2.75 C 71.609375 -2.019531 70.488281 -1.285156 69.125 -0.546875 C 67.769531 0.179688 66.210938 0.546875 64.453125 0.546875 C 62.773438 0.546875 61.238281 0.195312 59.84375 -0.5 C 58.445312 -1.195312 56.90625 -2.164062 55.21875 -3.40625 C 52.945312 -5.09375 51.441406 -6.6875 50.703125 -8.1875 C 49.972656 -9.695312 49.609375 -11.550781 49.609375 -13.75 L 49.609375 -17.375 C 47.992188 -16.351562 46.140625 -15.53125 44.046875 -14.90625 C 41.960938 -14.28125 39.597656 -13.96875 36.953125 -13.96875 C 33.210938 -13.96875 29.984375 -14.609375 27.265625 -15.890625 C 24.554688 -17.171875 22.25 -18.785156 20.34375 -20.734375 C 18.4375 -22.679688 16.898438 -24.609375 15.734375 -26.515625 C 14.703125 -26.367188 13.710938 -26.296875 12.765625 -26.296875 Z M 12.765625 -26.296875 "/>
</symbol>
<symbol overflow="visible" id="id2:glyph0-4">
<path style="stroke:none;" d="M 0.875 35.640625 C -1.613281 35.640625 -3.9375 34.976562 -6.09375 33.65625 C -8.257812 32.34375 -10.1875 30.804688 -11.875 29.046875 C -13.34375 27.503906 -14.570312 25.832031 -15.5625 24.03125 C -16.550781 22.238281 -17.046875 20.28125 -17.046875 18.15625 C -17.046875 14.5625 -15.613281 11.441406 -12.75 8.796875 C -9.894531 6.160156 -5.972656 4.84375 -0.984375 4.84375 C 3.117188 4.84375 6.859375 6.015625 10.234375 8.359375 C 13.609375 10.703125 17.050781 13.890625 20.5625 17.921875 C 24.082031 21.960938 28.15625 26.550781 32.78125 31.6875 L 27.0625 35.3125 C 23.90625 30.46875 21.0625 26.578125 18.53125 23.640625 C 16 20.710938 13.707031 18.492188 11.65625 16.984375 C 9.601562 15.484375 7.695312 14.457031 5.9375 13.90625 C 4.175781 13.363281 2.523438 13.09375 0.984375 13.09375 C -2.160156 13.09375 -4.648438 13.953125 -6.484375 15.671875 C -8.316406 17.398438 -9.234375 19.4375 -9.234375 21.78125 C -9.234375 23.90625 -8.484375 25.570312 -6.984375 26.78125 C -5.484375 27.988281 -3.816406 28.59375 -1.984375 28.59375 C -0.296875 28.59375 1.316406 28.28125 2.859375 27.65625 C 4.398438 27.039062 5.757812 26.253906 6.9375 25.296875 L 10.234375 33.4375 C 8.835938 34.175781 7.382812 34.726562 5.875 35.09375 C 4.375 35.457031 2.707031 35.640625 0.875 35.640625 Z M 0.875 35.640625 "/>
</symbol>
<symbol overflow="visible" id="id2:glyph0-5">
<path style="stroke:none;" d="M -2.09375 -69.84375 C -3.40625 -70.875 -4.703125 -72.195312 -5.984375 -73.8125 C -7.273438 -75.425781 -8.359375 -77.222656 -9.234375 -79.203125 C -10.117188 -81.179688 -10.5625 -83.160156 -10.5625 -85.140625 C -10.5625 -89.609375 -8.984375 -92.960938 -5.828125 -95.203125 C -2.671875 -97.441406 1.140625 -98.5625 5.609375 -98.5625 C 7.367188 -98.5625 9 -98.414062 10.5 -98.125 C 12.007812 -97.832031 13.054688 -97.535156 13.640625 -97.234375 L 16.0625 -88.875 C 14.957031 -89.320312 13.632812 -89.671875 12.09375 -89.921875 C 10.5625 -90.179688 9.132812 -90.3125 7.8125 -90.3125 C 4.726562 -90.3125 2.195312 -89.59375 0.21875 -88.15625 C -1.757812 -86.726562 -2.75 -84.441406 -2.75 -81.296875 C -2.75 -79.015625 -2.085938 -76.9375 -0.765625 -75.0625 C 0.546875 -73.195312 1.972656 -71.457031 3.515625 -69.84375 Z M -2.09375 -69.84375 "/>
</symbol>
</g>
</defs>
  <g id="id0:id0" transform="matrix(1.25,0,0,1.25,0.0,0.0)"><g id="id0:surface1">
<g style="fill:rgb(0%,0%,0%);fill-opacity:1;">
  <use xlink:href="#id0:glyph0-1" x="16" y="111.671875"/>
  <use xlink:href="#id0:glyph0-2" x="66.15625" y="111.671875"/>
  <use xlink:href="#id0:glyph0-3" x="81.5625" y="111.671875"/>
  <use xlink:href="#id0:glyph0-4" x="131.71875" y="111.671875"/>
  <use xlink:href="#id0:glyph0-5" x="163.953125" y="111.671875"/>
  <use xlink:href="#id0:glyph0-6" x="217.96875" y="111.671875"/>
</g>
</g>
</g>
  <g id="id1:id1" transform="matrix(1.25,0,0,1.25,309.78515625,1.279296875)"><g id="id1:surface1">
<g style="fill:rgb(0%,0%,0%);fill-opacity:1;">
  <use xlink:href="#id1:glyph0-1" x="0" y="120.84375"/>
</g>
</g>
</g>
  <g id="id2:id2" transform="matrix(1.25,0,0,1.25,442.3828125,0.0)"><g id="id2:surface1">
<g style="fill:rgb(0%,0%,0%);fill-opacity:1;">
  <use xlink:href="#id2:glyph0-1" x="16" y="111.671875"/>
  <use xlink:href="#id2:glyph0-2" x="66.15625" y="111.671875"/>
  <use xlink:href="#id2:glyph0-3" x="98.390625" y="111.671875"/>
  <use xlink:href="#id2:glyph0-4" x="152.40625" y="111.671875"/>
  <use xlink:href="#id2:glyph0-5" x="152.515625" y="111.671875"/>
</g>
</g>
</g>
</svg>
