<!DOCTYPE svg PUBLIC "-//W3C//DTD SVG 1.1//EN" "http://www.w3.org/Graphics/SVG/1.1/DTD/svg11.dtd">
<!-- Created with svg_stack (http://github.com/astraw/svg_stack) --><svg xmlns="http://www.w3.org/2000/svg" xmlns:sodipodi="http://sodipodi.sourceforge.net/DTD/sodipodi-0.dtd" xmlns:xlink="http://www.w3.org/1999/xlink" version="1.1" width="365.48828125" height="203.96484375" id="gujarati-abvm">
  <defs><g>
<symbol overflow="visible" id="gujarati-abvm:id0:glyph0-0">
<path style="stroke:none;" d="M 10.453125 0 L 10.453125 -78.546875 L 55.546875 -78.546875 L 55.546875 0 Z M 16.0625 -5.609375 L 50.046875 -5.609375 L 50.046875 -72.9375 L 16.0625 -72.9375 Z M 16.0625 -5.609375 "/>
</symbol>
<symbol overflow="visible" id="gujarati-abvm:id0:glyph0-1">
<path style="stroke:none;" d="M 43.890625 -19.578125 C 40.878906 -19.578125 38.035156 -20.195312 35.359375 -21.4375 C 32.679688 -22.6875 30.28125 -24.25 28.15625 -26.125 C 26.03125 -28 24.234375 -29.851562 22.765625 -31.6875 L 26.0625 -34.4375 C 28.414062 -32.082031 30.742188 -30.207031 33.046875 -28.8125 C 35.359375 -27.425781 37.835938 -26.734375 40.484375 -26.734375 C 42.023438 -26.734375 43.4375 -27.171875 44.71875 -28.046875 C 46 -28.929688 46.640625 -30.289062 46.640625 -32.125 C 46.640625 -33.8125 46.015625 -35.273438 44.765625 -36.515625 C 43.523438 -37.765625 41.96875 -38.9375 40.09375 -40.03125 C 38.226562 -41.132812 36.359375 -42.253906 34.484375 -43.390625 C 32.617188 -44.523438 31.0625 -45.84375 29.8125 -47.34375 C 28.5625 -48.851562 27.9375 -50.671875 27.9375 -52.796875 C 27.9375 -55.734375 28.851562 -58.097656 30.6875 -59.890625 C 32.519531 -61.691406 34.71875 -63.085938 37.28125 -64.078125 C 39.851562 -65.066406 42.238281 -65.78125 44.4375 -66.21875 L 48.0625 -58.625 C 44.695312 -57.820312 41.929688 -56.851562 39.765625 -55.71875 C 37.597656 -54.582031 36.515625 -52.910156 36.515625 -50.703125 C 36.515625 -49.242188 37.15625 -47.976562 38.4375 -46.90625 C 39.726562 -45.84375 41.328125 -44.796875 43.234375 -43.765625 C 45.140625 -42.742188 47.0625 -41.628906 49 -40.421875 C 50.945312 -39.210938 52.5625 -37.765625 53.84375 -36.078125 C 55.125 -34.390625 55.765625 -32.265625 55.765625 -29.703125 C 55.765625 -27.203125 54.773438 -24.890625 52.796875 -22.765625 C 50.816406 -20.640625 47.847656 -19.578125 43.890625 -19.578125 Z M 50.265625 0.546875 C 46.015625 0.546875 41.722656 -0.128906 37.390625 -1.484375 C 33.066406 -2.835938 28.632812 -4.984375 24.09375 -7.921875 C 19.46875 -11.003906 15.832031 -14.175781 13.1875 -17.4375 C 10.550781 -20.695312 8.679688 -23.921875 7.578125 -27.109375 C 6.484375 -30.304688 5.9375 -33.296875 5.9375 -36.078125 C 5.9375 -39.234375 6.335938 -42.039062 7.140625 -44.5 C 7.953125 -46.957031 8.945312 -49.023438 10.125 -50.703125 L 18.15625 -45.765625 C 17.125 -43.710938 16.296875 -41.65625 15.671875 -39.59375 C 15.046875 -37.539062 14.734375 -34.976562 14.734375 -31.90625 C 14.734375 -27.5 15.941406 -23.460938 18.359375 -19.796875 C 20.785156 -16.128906 24.179688 -13.195312 28.546875 -11 C 32.910156 -8.800781 37.953125 -7.703125 43.671875 -7.703125 C 45.796875 -7.703125 48.175781 -7.898438 50.8125 -8.296875 C 53.457031 -8.703125 55.769531 -9.347656 57.75 -10.234375 L 62.265625 -1.765625 C 60.648438 -0.804688 58.703125 -0.179688 56.421875 0.109375 C 54.148438 0.398438 52.097656 0.546875 50.265625 0.546875 Z M 50.265625 0.546875 "/>
</symbol>
<symbol overflow="visible" id="gujarati-abvm:id0:glyph0-2">
<path style="stroke:none;" d="M -2.09375 -69.84375 C -3.40625 -70.875 -4.703125 -72.195312 -5.984375 -73.8125 C -7.273438 -75.425781 -8.359375 -77.222656 -9.234375 -79.203125 C -10.117188 -81.179688 -10.5625 -83.160156 -10.5625 -85.140625 C -10.5625 -89.609375 -8.984375 -92.960938 -5.828125 -95.203125 C -2.671875 -97.441406 1.140625 -98.5625 5.609375 -98.5625 C 7.367188 -98.5625 9 -98.414062 10.5 -98.125 C 12.007812 -97.832031 13.054688 -97.535156 13.640625 -97.234375 L 16.0625 -88.875 C 14.957031 -89.320312 13.632812 -89.671875 12.09375 -89.921875 C 10.5625 -90.179688 9.132812 -90.3125 7.8125 -90.3125 C 4.726562 -90.3125 2.195312 -89.59375 0.21875 -88.15625 C -1.757812 -86.726562 -2.75 -84.441406 -2.75 -81.296875 C -2.75 -79.015625 -2.085938 -76.9375 -0.765625 -75.0625 C 0.546875 -73.195312 1.972656 -71.457031 3.515625 -69.84375 Z M -2.09375 -69.84375 "/>
</symbol>
</g>
<g>
<symbol overflow="visible" id="gujarati-abvm:id1:glyph0-0">
<path style="stroke:none;" d="M 5.375 -96.6875 L 69.828125 -96.6875 L 69.828125 0 L 5.375 0 Z M 8.0625 -2.6875 L 67.140625 -2.6875 L 67.140625 -94 L 8.0625 -94 Z M 8.0625 -2.6875 "/>
</symbol>
<symbol overflow="visible" id="gujarati-abvm:id1:glyph0-1">
<path style="stroke:none;" d="M 68.15625 -13.75 L 66.28125 -18.640625 L 88.09375 -27.390625 L 6.984375 -27.390625 L 6.984375 -34 L 88.09375 -34 L 66.28125 -42.75 L 68.15625 -47.640625 L 99.09375 -34.265625 L 99.09375 -27.125 Z M 68.15625 -13.75 "/>
</symbol>
</g>
<g>
<symbol overflow="visible" id="gujarati-abvm:id2:glyph0-0">
<path style="stroke:none;" d="M 10.453125 0 L 10.453125 -78.546875 L 55.546875 -78.546875 L 55.546875 0 Z M 16.0625 -5.609375 L 50.046875 -5.609375 L 50.046875 -72.9375 L 16.0625 -72.9375 Z M 16.0625 -5.609375 "/>
</symbol>
<symbol overflow="visible" id="gujarati-abvm:id2:glyph0-1">
<path style="stroke:none;" d="M 43.890625 -19.578125 C 40.878906 -19.578125 38.035156 -20.195312 35.359375 -21.4375 C 32.679688 -22.6875 30.28125 -24.25 28.15625 -26.125 C 26.03125 -28 24.234375 -29.851562 22.765625 -31.6875 L 26.0625 -34.4375 C 28.414062 -32.082031 30.742188 -30.207031 33.046875 -28.8125 C 35.359375 -27.425781 37.835938 -26.734375 40.484375 -26.734375 C 42.023438 -26.734375 43.4375 -27.171875 44.71875 -28.046875 C 46 -28.929688 46.640625 -30.289062 46.640625 -32.125 C 46.640625 -33.8125 46.015625 -35.273438 44.765625 -36.515625 C 43.523438 -37.765625 41.96875 -38.9375 40.09375 -40.03125 C 38.226562 -41.132812 36.359375 -42.253906 34.484375 -43.390625 C 32.617188 -44.523438 31.0625 -45.84375 29.8125 -47.34375 C 28.5625 -48.851562 27.9375 -50.671875 27.9375 -52.796875 C 27.9375 -55.734375 28.851562 -58.097656 30.6875 -59.890625 C 32.519531 -61.691406 34.71875 -63.085938 37.28125 -64.078125 C 39.851562 -65.066406 42.238281 -65.78125 44.4375 -66.21875 L 48.0625 -58.625 C 44.695312 -57.820312 41.929688 -56.851562 39.765625 -55.71875 C 37.597656 -54.582031 36.515625 -52.910156 36.515625 -50.703125 C 36.515625 -49.242188 37.15625 -47.976562 38.4375 -46.90625 C 39.726562 -45.84375 41.328125 -44.796875 43.234375 -43.765625 C 45.140625 -42.742188 47.0625 -41.628906 49 -40.421875 C 50.945312 -39.210938 52.5625 -37.765625 53.84375 -36.078125 C 55.125 -34.390625 55.765625 -32.265625 55.765625 -29.703125 C 55.765625 -27.203125 54.773438 -24.890625 52.796875 -22.765625 C 50.816406 -20.640625 47.847656 -19.578125 43.890625 -19.578125 Z M 50.265625 0.546875 C 46.015625 0.546875 41.722656 -0.128906 37.390625 -1.484375 C 33.066406 -2.835938 28.632812 -4.984375 24.09375 -7.921875 C 19.46875 -11.003906 15.832031 -14.175781 13.1875 -17.4375 C 10.550781 -20.695312 8.679688 -23.921875 7.578125 -27.109375 C 6.484375 -30.304688 5.9375 -33.296875 5.9375 -36.078125 C 5.9375 -39.234375 6.335938 -42.039062 7.140625 -44.5 C 7.953125 -46.957031 8.945312 -49.023438 10.125 -50.703125 L 18.15625 -45.765625 C 17.125 -43.710938 16.296875 -41.65625 15.671875 -39.59375 C 15.046875 -37.539062 14.734375 -34.976562 14.734375 -31.90625 C 14.734375 -27.5 15.941406 -23.460938 18.359375 -19.796875 C 20.785156 -16.128906 24.179688 -13.195312 28.546875 -11 C 32.910156 -8.800781 37.953125 -7.703125 43.671875 -7.703125 C 45.796875 -7.703125 48.175781 -7.898438 50.8125 -8.296875 C 53.457031 -8.703125 55.769531 -9.347656 57.75 -10.234375 L 62.265625 -1.765625 C 60.648438 -0.804688 58.703125 -0.179688 56.421875 0.109375 C 54.148438 0.398438 52.097656 0.546875 50.265625 0.546875 Z M 50.265625 0.546875 "/>
</symbol>
<symbol overflow="visible" id="gujarati-abvm:id2:glyph0-2">
<path style="stroke:none;" d="M -2.09375 -69.84375 C -3.40625 -70.875 -4.703125 -72.195312 -5.984375 -73.8125 C -7.273438 -75.425781 -8.359375 -77.222656 -9.234375 -79.203125 C -10.117188 -81.179688 -10.5625 -83.160156 -10.5625 -85.140625 C -10.5625 -89.609375 -8.984375 -92.960938 -5.828125 -95.203125 C -2.671875 -97.441406 1.140625 -98.5625 5.609375 -98.5625 C 7.367188 -98.5625 9 -98.414062 10.5 -98.125 C 12.007812 -97.832031 13.054688 -97.535156 13.640625 -97.234375 L 16.0625 -88.875 C 14.957031 -89.320312 13.632812 -89.671875 12.09375 -89.921875 C 10.5625 -90.179688 9.132812 -90.3125 7.8125 -90.3125 C 4.726562 -90.3125 2.195312 -89.59375 0.21875 -88.15625 C -1.757812 -86.726562 -2.75 -84.441406 -2.75 -81.296875 C -2.75 -79.015625 -2.085938 -76.9375 -0.765625 -75.0625 C 0.546875 -73.195312 1.972656 -71.457031 3.515625 -69.84375 Z M -2.09375 -69.84375 "/>
</symbol>
</g>
</defs>
  <g id="gujarati-abvm:id0:id0" transform="matrix(1.25,0,0,1.25,0.0,0.0)"><g id="gujarati-abvm:id0:surface1">
<g style="fill:rgb(0%,0%,0%);fill-opacity:1;">
  <use xlink:href="#gujarati-abvm:id0:glyph0-1" x="16" y="111.671875" class="c0"/>
  <use xlink:href="#gujarati-abvm:id0:glyph0-2" x="77.15625" y="111.671875" class="c1"/>
</g>
</g>
</g>
  <g id="gujarati-abvm:id1:id1" transform="matrix(1.25,0,0,1.25,116.4453125,1.279296875)"><g id="gujarati-abvm:id1:surface1">
<g style="fill:rgb(0%,0%,0%);fill-opacity:1;">
  <use xlink:href="#gujarati-abvm:id1:glyph0-1" x="0" y="120.84375" class="arrow"/>
</g>
</g>
</g>
  <g id="gujarati-abvm:id2:id2" transform="matrix(1.25,0,0,1.25,249.04296875,0.0)"><g id="gujarati-abvm:id2:surface1">
<g style="fill:rgb(0%,0%,0%);fill-opacity:1;">
  <use xlink:href="#gujarati-abvm:id2:glyph0-1" x="16" y="111.671875" class="c0"/>
  <use xlink:href="#gujarati-abvm:id2:glyph0-2" x="59.5625" y="111.671875" class="c1"/>
</g>
</g>
</g>
</svg>
