<?xml version="1.0" standalone="no"?>
<!DOCTYPE svg PUBLIC "-//W3C//DTD SVG 1.1//EN"
 "http://www.w3.org/Graphics/SVG/1.1/DTD/svg11.dtd">
<!-- Created with svg_stack (http://github.com/astraw/svg_stack) -->
<svg xmlns="http://www.w3.org/2000/svg" xmlns:sodipodi="http://sodipodi.sourceforge.net/DTD/sodipodi-0.dtd" xmlns:xlink="http://www.w3.org/1999/xlink" version="1.1" width="580.0" height="203.96484375">
  <defs><g>
<symbol overflow="visible" id="id0:glyph0-0">
<path style="stroke:none;" d="M 10.453125 0 L 10.453125 -78.546875 L 55.546875 -78.546875 L 55.546875 0 Z M 16.0625 -5.609375 L 50.046875 -5.609375 L 50.046875 -72.9375 L 16.0625 -72.9375 Z M 16.0625 -5.609375 "/>
</symbol>
<symbol overflow="visible" id="id0:glyph0-1">
<path style="stroke:none;" d="M 51.703125 0.546875 C 48.765625 0.546875 46.269531 0.0703125 44.21875 -0.875 C 42.164062 -1.832031 40.257812 -3.117188 38.5 -4.734375 C 36.519531 -6.566406 34.960938 -8.597656 33.828125 -10.828125 C 32.691406 -13.066406 32.125 -15.4375 32.125 -17.9375 C 32.125 -21.375 32.816406 -24.375 34.203125 -26.9375 C 35.597656 -29.507812 37.523438 -32.0625 39.984375 -34.59375 C 42.441406 -37.125 45.25 -40.039062 48.40625 -43.34375 L 48.734375 -43.671875 C 46.535156 -46.304688 44.113281 -48.671875 41.46875 -50.765625 C 38.832031 -52.859375 36.15625 -54.5625 33.4375 -55.875 C 34.90625 -53.09375 35.640625 -50.125 35.640625 -46.96875 C 35.640625 -42.425781 34.316406 -38.816406 31.671875 -36.140625 C 29.035156 -33.460938 25.332031 -32.125 20.5625 -32.125 C 18.070312 -32.125 15.671875 -32.632812 13.359375 -33.65625 C 11.054688 -34.6875 9.0625 -36.117188 7.375 -37.953125 C 5.90625 -39.566406 4.710938 -41.378906 3.796875 -43.390625 C 2.878906 -45.410156 2.421875 -47.554688 2.421875 -49.828125 C 2.421875 -54.597656 4.109375 -58.503906 7.484375 -61.546875 C 10.859375 -64.585938 15.476562 -66.109375 21.34375 -66.109375 C 26.476562 -66.109375 31.554688 -64.625 36.578125 -61.65625 C 41.597656 -58.6875 46.929688 -54.007812 52.578125 -47.625 L 71.5 -67.203125 L 78.09375 -60.828125 L 58.078125 -40.8125 C 64.316406 -32.300781 67.4375 -24.378906 67.4375 -17.046875 C 67.4375 -11.984375 66.078125 -7.785156 63.359375 -4.453125 C 60.648438 -1.117188 56.765625 0.546875 51.703125 0.546875 Z M 9.6875 -46.53125 C 9.6875 -44.039062 10.472656 -42.078125 12.046875 -40.640625 C 13.617188 -39.210938 15.429688 -38.5 17.484375 -38.5 C 19.984375 -38.5 22.054688 -39.140625 23.703125 -40.421875 C 25.359375 -41.703125 26.601562 -43.332031 27.4375 -45.3125 C 28.28125 -47.300781 28.703125 -49.394531 28.703125 -51.59375 C 28.703125 -53.644531 28.335938 -55.734375 27.609375 -57.859375 C 26.359375 -58.148438 25.148438 -58.296875 23.984375 -58.296875 C 19.722656 -58.296875 16.273438 -57.175781 13.640625 -54.9375 C 11.003906 -52.707031 9.6875 -49.90625 9.6875 -46.53125 Z M 39.703125 -15.1875 C 39.703125 -11.882812 40.675781 -9.550781 42.625 -8.1875 C 44.570312 -6.832031 46.570312 -6.15625 48.625 -6.15625 C 51.113281 -6.15625 53.398438 -7.347656 55.484375 -9.734375 C 57.578125 -12.117188 58.625 -15.769531 58.625 -20.6875 C 58.625 -23.25 58.203125 -25.867188 57.359375 -28.546875 C 56.515625 -31.222656 55.363281 -33.878906 53.90625 -36.515625 C 50.675781 -33.210938 48.015625 -30.390625 45.921875 -28.046875 C 43.835938 -25.703125 42.28125 -23.539062 41.25 -21.5625 C 40.21875 -19.582031 39.703125 -17.457031 39.703125 -15.1875 Z M 39.703125 -15.1875 "/>
</symbol>
<symbol overflow="visible" id="id0:glyph0-2">
<path style="stroke:none;" d="M 32.78125 -53.6875 C 32.050781 -53.6875 31.390625 -53.976562 30.796875 -54.5625 C 30.210938 -55.144531 29.921875 -55.804688 29.921875 -56.546875 C 29.921875 -57.347656 30.210938 -58.023438 30.796875 -58.578125 C 31.390625 -59.128906 32.050781 -59.40625 32.78125 -59.40625 C 33.582031 -59.40625 34.257812 -59.128906 34.8125 -58.578125 C 35.363281 -58.023438 35.640625 -57.347656 35.640625 -56.546875 C 35.640625 -55.804688 35.363281 -55.144531 34.8125 -54.5625 C 34.257812 -53.976562 33.582031 -53.6875 32.78125 -53.6875 Z M 23.546875 -51.703125 C 22.804688 -51.703125 22.144531 -51.992188 21.5625 -52.578125 C 20.976562 -53.160156 20.6875 -53.820312 20.6875 -54.5625 C 20.6875 -55.363281 20.976562 -56.039062 21.5625 -56.59375 C 22.144531 -57.144531 22.804688 -57.421875 23.546875 -57.421875 C 24.347656 -57.421875 25.023438 -57.144531 25.578125 -56.59375 C 26.128906 -56.039062 26.40625 -55.363281 26.40625 -54.5625 C 26.40625 -53.820312 26.128906 -53.160156 25.578125 -52.578125 C 25.023438 -51.992188 24.347656 -51.703125 23.546875 -51.703125 Z M 42.015625 -51.703125 C 41.285156 -51.703125 40.625 -51.992188 40.03125 -52.578125 C 39.445312 -53.160156 39.15625 -53.820312 39.15625 -54.5625 C 39.15625 -55.363281 39.445312 -56.039062 40.03125 -56.59375 C 40.625 -57.144531 41.285156 -57.421875 42.015625 -57.421875 C 42.828125 -57.421875 43.503906 -57.144531 44.046875 -56.59375 C 44.597656 -56.039062 44.875 -55.363281 44.875 -54.5625 C 44.875 -53.820312 44.597656 -53.160156 44.046875 -52.578125 C 43.503906 -51.992188 42.828125 -51.703125 42.015625 -51.703125 Z M 50.15625 -46.53125 C 49.425781 -46.53125 48.765625 -46.820312 48.171875 -47.40625 C 47.585938 -48 47.296875 -48.660156 47.296875 -49.390625 C 47.296875 -50.191406 47.585938 -50.867188 48.171875 -51.421875 C 48.765625 -51.972656 49.425781 -52.25 50.15625 -52.25 C 50.96875 -52.25 51.644531 -51.972656 52.1875 -51.421875 C 52.738281 -50.867188 53.015625 -50.191406 53.015625 -49.390625 C 53.015625 -48.660156 52.738281 -48 52.1875 -47.40625 C 51.644531 -46.820312 50.96875 -46.53125 50.15625 -46.53125 Z M 15.40625 -46.53125 C 14.664062 -46.53125 14.003906 -46.820312 13.421875 -47.40625 C 12.835938 -48 12.546875 -48.660156 12.546875 -49.390625 C 12.546875 -50.191406 12.835938 -50.867188 13.421875 -51.421875 C 14.003906 -51.972656 14.664062 -52.25 15.40625 -52.25 C 16.207031 -52.25 16.882812 -51.972656 17.4375 -51.421875 C 17.988281 -50.867188 18.265625 -50.191406 18.265625 -49.390625 C 18.265625 -48.660156 17.988281 -48 17.4375 -47.40625 C 16.882812 -46.820312 16.207031 -46.53125 15.40625 -46.53125 Z M 10.234375 -38.390625 C 9.492188 -38.390625 8.832031 -38.679688 8.25 -39.265625 C 7.664062 -39.859375 7.375 -40.519531 7.375 -41.25 C 7.375 -42.050781 7.664062 -42.726562 8.25 -43.28125 C 8.832031 -43.832031 9.492188 -44.109375 10.234375 -44.109375 C 11.035156 -44.109375 11.710938 -43.832031 12.265625 -43.28125 C 12.816406 -42.726562 13.09375 -42.050781 13.09375 -41.25 C 13.09375 -40.519531 12.816406 -39.859375 12.265625 -39.265625 C 11.710938 -38.679688 11.035156 -38.390625 10.234375 -38.390625 Z M 55.328125 -38.390625 C 54.597656 -38.390625 53.9375 -38.679688 53.34375 -39.265625 C 52.757812 -39.859375 52.46875 -40.519531 52.46875 -41.25 C 52.46875 -42.050781 52.757812 -42.726562 53.34375 -43.28125 C 53.9375 -43.832031 54.597656 -44.109375 55.328125 -44.109375 C 56.140625 -44.109375 56.816406 -43.832031 57.359375 -43.28125 C 57.910156 -42.726562 58.1875 -42.050781 58.1875 -41.25 C 58.1875 -40.519531 57.910156 -39.859375 57.359375 -39.265625 C 56.816406 -38.679688 56.140625 -38.390625 55.328125 -38.390625 Z M 8.25 -29.15625 C 7.519531 -29.15625 6.859375 -29.445312 6.265625 -30.03125 C 5.679688 -30.613281 5.390625 -31.273438 5.390625 -32.015625 C 5.390625 -32.816406 5.679688 -33.492188 6.265625 -34.046875 C 6.859375 -34.597656 7.519531 -34.875 8.25 -34.875 C 9.050781 -34.875 9.726562 -34.597656 10.28125 -34.046875 C 10.832031 -33.492188 11.109375 -32.816406 11.109375 -32.015625 C 11.109375 -31.273438 10.832031 -30.613281 10.28125 -30.03125 C 9.726562 -29.445312 9.050781 -29.15625 8.25 -29.15625 Z M 57.3125 -29.15625 C 56.570312 -29.15625 55.910156 -29.445312 55.328125 -30.03125 C 54.742188 -30.613281 54.453125 -31.273438 54.453125 -32.015625 C 54.453125 -32.816406 54.742188 -33.492188 55.328125 -34.046875 C 55.910156 -34.597656 56.570312 -34.875 57.3125 -34.875 C 58.113281 -34.875 58.789062 -34.597656 59.34375 -34.046875 C 59.894531 -33.492188 60.171875 -32.816406 60.171875 -32.015625 C 60.171875 -31.273438 59.894531 -30.613281 59.34375 -30.03125 C 58.789062 -29.445312 58.113281 -29.15625 57.3125 -29.15625 Z M 10.234375 -19.90625 C 9.492188 -19.90625 8.832031 -20.195312 8.25 -20.78125 C 7.664062 -21.375 7.375 -22.035156 7.375 -22.765625 C 7.375 -23.578125 7.664062 -24.253906 8.25 -24.796875 C 8.832031 -25.347656 9.492188 -25.625 10.234375 -25.625 C 11.035156 -25.625 11.710938 -25.347656 12.265625 -24.796875 C 12.816406 -24.253906 13.09375 -23.578125 13.09375 -22.765625 C 13.09375 -22.035156 12.816406 -21.375 12.265625 -20.78125 C 11.710938 -20.195312 11.035156 -19.90625 10.234375 -19.90625 Z M 55.328125 -19.90625 C 54.597656 -19.90625 53.9375 -20.195312 53.34375 -20.78125 C 52.757812 -21.375 52.46875 -22.035156 52.46875 -22.765625 C 52.46875 -23.578125 52.757812 -24.253906 53.34375 -24.796875 C 53.9375 -25.347656 54.597656 -25.625 55.328125 -25.625 C 56.140625 -25.625 56.816406 -25.347656 57.359375 -24.796875 C 57.910156 -24.253906 58.1875 -23.578125 58.1875 -22.765625 C 58.1875 -22.035156 57.910156 -21.375 57.359375 -20.78125 C 56.816406 -20.195312 56.140625 -19.90625 55.328125 -19.90625 Z M 15.40625 -11.765625 C 14.664062 -11.765625 14.003906 -12.054688 13.421875 -12.640625 C 12.835938 -13.234375 12.546875 -13.894531 12.546875 -14.625 C 12.546875 -15.4375 12.835938 -16.113281 13.421875 -16.65625 C 14.003906 -17.207031 14.664062 -17.484375 15.40625 -17.484375 C 16.207031 -17.484375 16.882812 -17.207031 17.4375 -16.65625 C 17.988281 -16.113281 18.265625 -15.4375 18.265625 -14.625 C 18.265625 -13.894531 17.988281 -13.234375 17.4375 -12.640625 C 16.882812 -12.054688 16.207031 -11.765625 15.40625 -11.765625 Z M 50.15625 -11.765625 C 49.425781 -11.765625 48.765625 -12.054688 48.171875 -12.640625 C 47.585938 -13.234375 47.296875 -13.894531 47.296875 -14.625 C 47.296875 -15.4375 47.585938 -16.113281 48.171875 -16.65625 C 48.765625 -17.207031 49.425781 -17.484375 50.15625 -17.484375 C 50.96875 -17.484375 51.644531 -17.207031 52.1875 -16.65625 C 52.738281 -16.113281 53.015625 -15.4375 53.015625 -14.625 C 53.015625 -13.894531 52.738281 -13.234375 52.1875 -12.640625 C 51.644531 -12.054688 50.96875 -11.765625 50.15625 -11.765625 Z M 23.546875 -6.59375 C 22.804688 -6.59375 22.144531 -6.882812 21.5625 -7.46875 C 20.976562 -8.0625 20.6875 -8.722656 20.6875 -9.453125 C 20.6875 -10.265625 20.976562 -10.941406 21.5625 -11.484375 C 22.144531 -12.035156 22.804688 -12.3125 23.546875 -12.3125 C 24.347656 -12.3125 25.023438 -12.035156 25.578125 -11.484375 C 26.128906 -10.941406 26.40625 -10.265625 26.40625 -9.453125 C 26.40625 -8.722656 26.128906 -8.0625 25.578125 -7.46875 C 25.023438 -6.882812 24.347656 -6.59375 23.546875 -6.59375 Z M 42.015625 -6.59375 C 41.285156 -6.59375 40.625 -6.882812 40.03125 -7.46875 C 39.445312 -8.0625 39.15625 -8.722656 39.15625 -9.453125 C 39.15625 -10.265625 39.445312 -10.941406 40.03125 -11.484375 C 40.625 -12.035156 41.285156 -12.3125 42.015625 -12.3125 C 42.828125 -12.3125 43.503906 -12.035156 44.046875 -11.484375 C 44.597656 -10.941406 44.875 -10.265625 44.875 -9.453125 C 44.875 -8.722656 44.597656 -8.0625 44.046875 -7.46875 C 43.503906 -6.882812 42.828125 -6.59375 42.015625 -6.59375 Z M 32.78125 -4.625 C 32.050781 -4.625 31.390625 -4.914062 30.796875 -5.5 C 30.210938 -6.082031 29.921875 -6.742188 29.921875 -7.484375 C 29.921875 -8.285156 30.210938 -8.960938 30.796875 -9.515625 C 31.390625 -10.066406 32.050781 -10.34375 32.78125 -10.34375 C 33.582031 -10.34375 34.257812 -10.066406 34.8125 -9.515625 C 35.363281 -8.960938 35.640625 -8.285156 35.640625 -7.484375 C 35.640625 -6.742188 35.363281 -6.082031 34.8125 -5.5 C 34.257812 -4.914062 33.582031 -4.625 32.78125 -4.625 Z M 32.78125 -4.625 "/>
</symbol>
<symbol overflow="visible" id="id0:glyph0-3">
<path style="stroke:none;" d="M 18.375 28.046875 C 16.613281 26.066406 14.664062 23.882812 12.53125 21.5 C 10.40625 19.125 8.0625 17.070312 5.5 15.34375 C 2.9375 13.625 0.148438 12.765625 -2.859375 12.765625 C -5.054688 12.765625 -7.109375 13.054688 -9.015625 13.640625 L -11.546875 5.609375 C -10.890625 5.460938 -9.9375 5.296875 -8.6875 5.109375 C -7.4375 4.929688 -6.226562 4.84375 -5.0625 4.84375 C -2.789062 4.84375 -0.738281 5.113281 1.09375 5.65625 C 2.925781 6.207031 4.773438 7.253906 6.640625 8.796875 C 8.515625 10.335938 10.660156 12.5 13.078125 15.28125 C 15.503906 18.070312 18.441406 21.742188 21.890625 26.296875 Z M 18.375 28.046875 "/>
</symbol>
<symbol overflow="visible" id="id0:glyph0-4">
<path style="stroke:none;" d="M 21.125 -21.34375 C 17.96875 -21.34375 15.175781 -21.984375 12.75 -23.265625 C 10.332031 -24.546875 8.222656 -26.210938 6.421875 -28.265625 C 4.628906 -30.316406 3.078125 -32.484375 1.765625 -34.765625 L 5.71875 -37.515625 C 7.40625 -34.796875 9.203125 -32.738281 11.109375 -31.34375 C 13.015625 -29.957031 15.328125 -29.265625 18.046875 -29.265625 C 22.148438 -29.265625 25.300781 -30.800781 27.5 -33.875 C 29.695312 -36.957031 30.796875 -40.734375 30.796875 -45.203125 C 30.796875 -49.972656 29.914062 -53.289062 28.15625 -55.15625 C 26.394531 -57.03125 24.015625 -57.96875 21.015625 -57.96875 C 19.546875 -57.96875 18.019531 -57.710938 16.4375 -57.203125 C 14.863281 -56.691406 13.414062 -56.03125 12.09375 -55.21875 L 6.484375 -64.015625 C 8.023438 -64.828125 9.691406 -65.414062 11.484375 -65.78125 C 13.285156 -66.144531 14.882812 -66.328125 16.28125 -66.328125 C 19.289062 -66.328125 22.019531 -65.722656 24.46875 -64.515625 C 26.925781 -63.304688 29.441406 -61.195312 32.015625 -58.1875 C 34.867188 -54.882812 36.789062 -51.785156 37.78125 -48.890625 C 38.769531 -45.992188 39.265625 -43.15625 39.265625 -40.375 C 40.878906 -39.925781 42.566406 -39.703125 44.328125 -39.703125 C 47.191406 -39.703125 49.6875 -40.101562 51.8125 -40.90625 C 53.9375 -41.71875 55.515625 -42.710938 56.546875 -43.890625 L 56.546875 -67.3125 L 65.453125 -63.6875 L 65.453125 -6.703125 C 65.453125 -5.972656 65.78125 -5.609375 66.4375 -5.609375 C 67.6875 -5.609375 69.117188 -6.03125 70.734375 -6.875 C 72.347656 -7.71875 73.738281 -8.835938 74.90625 -10.234375 L 79.421875 -2.75 C 78.535156 -2.019531 77.414062 -1.285156 76.0625 -0.546875 C 74.707031 0.179688 73.148438 0.546875 71.390625 0.546875 C 69.703125 0.546875 68.140625 0.195312 66.703125 -0.5 C 65.273438 -1.195312 63.757812 -2.164062 62.15625 -3.40625 C 59.875 -5.164062 58.367188 -6.78125 57.640625 -8.25 C 56.910156 -9.71875 56.546875 -11.550781 56.546875 -13.75 L 56.546875 -33.546875 C 55.804688 -33.179688 54.921875 -32.890625 53.890625 -32.671875 C 52.867188 -32.453125 51.476562 -32.34375 49.71875 -32.34375 C 47.519531 -32.34375 45.503906 -32.648438 43.671875 -33.265625 C 41.835938 -33.890625 40.222656 -34.679688 38.828125 -35.640625 C 37.953125 -31.460938 35.953125 -28.035156 32.828125 -25.359375 C 29.710938 -22.679688 25.8125 -21.34375 21.125 -21.34375 Z M 21.125 -21.34375 "/>
</symbol>
</g>
<g>
<symbol overflow="visible" id="id1:glyph0-0">
<path style="stroke:none;" d="M 5.375 -96.6875 L 69.828125 -96.6875 L 69.828125 0 L 5.375 0 Z M 8.0625 -2.6875 L 67.140625 -2.6875 L 67.140625 -94 L 8.0625 -94 Z M 8.0625 -2.6875 "/>
</symbol>
<symbol overflow="visible" id="id1:glyph0-1">
<path style="stroke:none;" d="M 68.15625 -13.75 L 66.28125 -18.640625 L 88.09375 -27.390625 L 6.984375 -27.390625 L 6.984375 -34 L 88.09375 -34 L 66.28125 -42.75 L 68.15625 -47.640625 L 99.09375 -34.265625 L 99.09375 -27.125 Z M 68.15625 -13.75 "/>
</symbol>
</g>
<g>
<symbol overflow="visible" id="id2:glyph0-0">
<path style="stroke:none;" d="M 10.453125 0 L 10.453125 -78.546875 L 55.546875 -78.546875 L 55.546875 0 Z M 16.0625 -5.609375 L 50.046875 -5.609375 L 50.046875 -72.9375 L 16.0625 -72.9375 Z M 16.0625 -5.609375 "/>
</symbol>
<symbol overflow="visible" id="id2:glyph0-1">
<path style="stroke:none;" d="M 26.953125 -4.296875 C 26.359375 -4.296875 25.769531 -4.296875 25.1875 -4.296875 C 27.382812 -1.796875 29.929688 -0.109375 32.828125 0.765625 C 35.734375 1.648438 39.164062 2.09375 43.125 2.09375 C 43.925781 2.09375 44.726562 2.070312 45.53125 2.03125 C 46.34375 2 47.039062 1.945312 47.625 1.875 L 44.21875 11.546875 C 38.351562 11.546875 33.253906 9.953125 28.921875 6.765625 C 24.597656 3.578125 21.410156 -0.363281 19.359375 -5.0625 C 15.835938 -5.789062 12.789062 -7.015625 10.21875 -8.734375 C 7.65625 -10.460938 6.375 -12.6875 6.375 -15.40625 C 6.375 -17.164062 6.960938 -18.503906 8.140625 -19.421875 C 9.316406 -20.335938 10.597656 -20.796875 11.984375 -20.796875 C 13.671875 -20.796875 15.226562 -20.28125 16.65625 -19.25 C 18.09375 -18.21875 19.304688 -16.953125 20.296875 -15.453125 C 21.285156 -13.953125 22.070312 -12.429688 22.65625 -10.890625 L 22.984375 -10.890625 C 27.023438 -10.890625 30.492188 -11.75 33.390625 -13.46875 C 36.285156 -15.195312 37.734375 -17.820312 37.734375 -21.34375 C 37.734375 -23.90625 37.035156 -26.046875 35.640625 -27.765625 C 34.242188 -29.492188 32.445312 -31.015625 30.25 -32.328125 C 28.050781 -33.648438 25.722656 -34.914062 23.265625 -36.125 C 20.804688 -37.34375 18.476562 -38.679688 16.28125 -40.140625 C 14.082031 -41.609375 12.285156 -43.367188 10.890625 -45.421875 C 9.492188 -47.484375 8.796875 -50.015625 8.796875 -53.015625 C 8.796875 -57.046875 10.097656 -60.269531 12.703125 -62.6875 C 15.304688 -65.113281 18.625 -66.328125 22.65625 -66.328125 C 25.519531 -66.328125 28.03125 -65.847656 30.1875 -64.890625 C 32.351562 -63.941406 34.296875 -62.769531 36.015625 -61.375 C 37.742188 -59.988281 39.378906 -58.578125 40.921875 -57.140625 C 42.460938 -55.710938 44.035156 -54.519531 45.640625 -53.5625 C 47.253906 -52.613281 49.054688 -52.140625 51.046875 -52.140625 C 52.578125 -52.140625 53.929688 -52.429688 55.109375 -53.015625 C 56.285156 -53.609375 57.273438 -54.378906 58.078125 -55.328125 L 58.078125 -67.3125 L 66.984375 -63.6875 L 66.984375 -6.703125 C 66.984375 -5.972656 67.316406 -5.609375 67.984375 -5.609375 C 69.296875 -5.609375 70.738281 -6.03125 72.3125 -6.875 C 73.894531 -7.71875 75.273438 -8.835938 76.453125 -10.234375 L 80.953125 -2.75 C 80.078125 -2.019531 78.957031 -1.285156 77.59375 -0.546875 C 76.238281 0.179688 74.6875 0.546875 72.9375 0.546875 C 71.25 0.546875 69.707031 0.179688 68.3125 -0.546875 C 66.914062 -1.285156 65.410156 -2.238281 63.796875 -3.40625 C 61.523438 -5.164062 60.003906 -6.78125 59.234375 -8.25 C 58.460938 -9.71875 58.078125 -11.550781 58.078125 -13.75 L 58.078125 -44.328125 C 56.984375 -43.816406 55.773438 -43.5625 54.453125 -43.5625 C 52.179688 -43.5625 50.128906 -44.035156 48.296875 -44.984375 C 46.460938 -45.941406 44.738281 -47.113281 43.125 -48.5 C 41.507812 -49.894531 39.910156 -51.304688 38.328125 -52.734375 C 36.753906 -54.171875 35.066406 -55.363281 33.265625 -56.3125 C 31.472656 -57.269531 29.515625 -57.75 27.390625 -57.75 C 24.828125 -57.75 22.753906 -57.03125 21.171875 -55.59375 C 19.597656 -54.164062 18.8125 -52.316406 18.8125 -50.046875 C 18.8125 -47.921875 19.503906 -46.085938 20.890625 -44.546875 C 22.285156 -43.003906 24.082031 -41.628906 26.28125 -40.421875 C 28.488281 -39.210938 30.816406 -38.003906 33.265625 -36.796875 C 35.722656 -35.585938 38.050781 -34.226562 40.25 -32.71875 C 42.457031 -31.21875 44.253906 -29.421875 45.640625 -27.328125 C 47.035156 -25.242188 47.734375 -22.695312 47.734375 -19.6875 C 47.734375 -16.457031 46.796875 -13.6875 44.921875 -11.375 C 43.054688 -9.070312 40.546875 -7.316406 37.390625 -6.109375 C 34.242188 -4.898438 30.765625 -4.296875 26.953125 -4.296875 Z M 26.953125 -4.296875 "/>
</symbol>
</g>
</defs>
  <g id="id0:id0" transform="matrix(1.25,0,0,1.25,0.0,0.0)"><g id="id0:surface1">
<g style="fill:rgb(0%,0%,0%);fill-opacity:1;">
  <use xlink:href="#id0:glyph0-1" x="16" y="111.671875"/>
  <use xlink:href="#id0:glyph0-2" x="93.21875" y="111.671875"/>
  <use xlink:href="#id0:glyph0-3" x="126" y="111.671875"/>
  <use xlink:href="#id0:glyph0-4" x="158.78125" y="111.671875"/>
</g>
</g>
</g>
  <g id="id1:id1" transform="matrix(1.25,0,0,1.25,311.97265625,1.279296875)"><g id="id1:surface1">
<g style="fill:rgb(0%,0%,0%);fill-opacity:1;">
  <use xlink:href="#id1:glyph0-1" x="0" y="120.84375"/>
</g>
</g>
</g>
  <g id="id2:id2" transform="matrix(1.25,0,0,1.25,444.5703125,0.0)"><g id="id2:surface1">
<g style="fill:rgb(0%,0%,0%);fill-opacity:1;">
  <use xlink:href="#id2:glyph0-1" x="16" y="111.671875"/>
</g>
</g>
</g>
</svg>
