<!DOCTYPE svg PUBLIC "-//W3C//DTD SVG 1.1//EN" "http://www.w3.org/Graphics/SVG/1.1/DTD/svg11.dtd">
<!-- Created with svg_stack (http://github.com/astraw/svg_stack) --><svg xmlns="http://www.w3.org/2000/svg" xmlns:sodipodi="http://sodipodi.sourceforge.net/DTD/sodipodi-0.dtd" xmlns:xlink="http://www.w3.org/1999/xlink" version="1.1" width="100%" id="gujarati-blws" viewBox="0 0 347.36328125 203.96484375">
  <defs><g>
<symbol overflow="visible" id="gujarati-blws:id0:glyph0-0">
<path style="stroke:none;" d="M 10.453125 0 L 55.546875 0 L 55.546875 -78.546875 L 10.453125 -78.546875 Z M 16.0625 -5.609375 L 16.0625 -72.9375 L 50.046875 -72.9375 L 50.046875 -5.609375 Z M 16.0625 -5.609375 "/>
</symbol>
<symbol overflow="visible" id="gujarati-blws:id0:glyph0-1">
<path style="stroke:none;" d="M 12.3125 -24.53125 L 29.59375 -29.15625 C 34.3125 -26.296875 38.171875 -21.453125 38.171875 -16.28125 C 38.171875 -10.34375 33.984375 -6.046875 25.515625 -5.9375 C 23.875 -10.5625 20.015625 -15.84375 14.84375 -15.84375 C 11.984375 -15.84375 9.234375 -13.96875 9.234375 -10.453125 C 9.234375 -5.171875 15.1875 -1.546875 22.21875 -0.109375 C 26.296875 9.34375 35.3125 16.5 47.078125 16.5 L 50.484375 6.8125 C 49.28125 6.9375 47.625 7.046875 45.984375 7.046875 C 38.0625 7.046875 32.453125 5.609375 28.046875 0.65625 C 28.484375 0.65625 28.8125 0.65625 29.265625 0.65625 C 40.921875 0.65625 47.84375 -5.28125 47.84375 -14.1875 C 47.84375 -23.09375 40.703125 -28.265625 34.984375 -30.46875 L 51.703125 -34.4375 L 46.96875 -42.234375 L 27.171875 -37.0625 C 23.4375 -40.046875 20.5625 -43.671875 20.5625 -48.1875 C 20.5625 -54.78125 26.296875 -57.75 34.546875 -57.75 C 36.734375 -57.75 38.9375 -57.53125 40.703125 -57.3125 L 38.71875 -65.78125 C 36.625 -66.109375 34.203125 -66.328125 32.015625 -66.328125 C 20.5625 -66.328125 11.765625 -60.9375 11.765625 -51.046875 C 11.765625 -44.21875 16.5 -38.9375 21.890625 -35.75 L 7.484375 -32.453125 Z M 12.3125 -24.53125 "/>
</symbol>
<symbol overflow="visible" id="gujarati-blws:id0:glyph0-2">
<path style="stroke:none;" d="M 5.828125 34.546875 C 14.625 34.546875 20.453125 28.9375 20.453125 21.671875 C 20.453125 18.265625 18.375 14.40625 16.28125 11.546875 C 13.421875 7.703125 9.234375 4.84375 3.734375 4.84375 C 0.4375 4.84375 -2.96875 5.828125 -6.9375 8.140625 L -1.3125 16.0625 C 0.546875 14.40625 3.734375 12.875 6.703125 12.875 C 10.125 12.875 13.75 14.515625 13.75 18.8125 C 13.75 23.09375 8.6875 27.390625 1.09375 27.390625 C -9.90625 27.390625 -17.15625 18.265625 -21.78125 10.34375 L -27.390625 15.0625 C -19.6875 24.75 -6.484375 34.546875 5.828125 34.546875 Z M 5.828125 34.546875 "/>
</symbol>
</g>
<g>
<symbol overflow="visible" id="gujarati-blws:id1:glyph0-0">
<path style="stroke:none;" d="M 5.375 -96.6875 L 69.828125 -96.6875 L 69.828125 0 L 5.375 0 Z M 8.0625 -2.6875 L 67.140625 -2.6875 L 67.140625 -94 L 8.0625 -94 Z M 8.0625 -2.6875 "/>
</symbol>
<symbol overflow="visible" id="gujarati-blws:id1:glyph0-1">
<path style="stroke:none;" d="M 68.15625 -13.75 L 66.28125 -18.640625 L 88.09375 -27.390625 L 6.984375 -27.390625 L 6.984375 -34 L 88.09375 -34 L 66.28125 -42.75 L 68.15625 -47.640625 L 99.09375 -34.265625 L 99.09375 -27.125 Z M 68.15625 -13.75 "/>
</symbol>
</g>
<g>
<symbol overflow="visible" id="gujarati-blws:id2:glyph0-0">
<path style="stroke:none;" d="M 10.453125 0 L 55.546875 0 L 55.546875 -78.546875 L 10.453125 -78.546875 Z M 16.0625 -5.609375 L 16.0625 -72.9375 L 50.046875 -72.9375 L 50.046875 -5.609375 Z M 16.0625 -5.609375 "/>
</symbol>
<symbol overflow="visible" id="gujarati-blws:id2:glyph0-1">
<path style="stroke:none;" d="M 12.3125 -24.53125 L 29.59375 -29.15625 C 34.3125 -26.296875 38.171875 -21.453125 38.171875 -16.28125 C 38.171875 -10.34375 33.984375 -6.046875 25.515625 -5.9375 C 23.875 -10.5625 20.015625 -15.84375 14.84375 -15.84375 C 11.984375 -15.84375 9.234375 -13.96875 9.234375 -10.453125 C 9.234375 -5.171875 15.1875 -1.546875 22.21875 -0.109375 C 26.296875 9.34375 35.3125 16.5 47.078125 16.5 L 50.484375 6.8125 C 49.28125 6.9375 47.625 7.046875 45.984375 7.046875 C 38.0625 7.046875 32.453125 5.609375 28.046875 0.65625 C 28.484375 0.65625 28.8125 0.65625 29.265625 0.65625 C 40.921875 0.65625 47.84375 -5.28125 47.84375 -14.1875 C 47.84375 -23.09375 40.703125 -28.265625 34.984375 -30.46875 L 51.703125 -34.4375 L 46.96875 -42.234375 L 27.171875 -37.0625 C 23.4375 -40.046875 20.5625 -43.671875 20.5625 -48.1875 C 20.5625 -54.78125 26.296875 -57.75 34.546875 -57.75 C 36.734375 -57.75 38.9375 -57.53125 40.703125 -57.3125 L 38.71875 -65.78125 C 36.625 -66.109375 34.203125 -66.328125 32.015625 -66.328125 C 20.5625 -66.328125 11.765625 -60.9375 11.765625 -51.046875 C 11.765625 -44.21875 16.5 -38.9375 21.890625 -35.75 L 7.484375 -32.453125 Z M 12.3125 -24.53125 "/>
</symbol>
<symbol overflow="visible" id="gujarati-blws:id2:glyph0-2">
<path style="stroke:none;" d="M 3.1875 30.46875 C 11.65625 30.46875 17.9375 26.515625 17.9375 19.90625 C 17.9375 16.171875 16.28125 12.4375 13.53125 9.453125 C 11 6.8125 7.484375 4.84375 3.734375 4.84375 C -0.4375 4.84375 -3.953125 6.9375 -7.703125 9.796875 L -2.53125 16.390625 C 1.875 12.875 4.734375 11.765625 7.921875 11.765625 C 10.453125 11.765625 11.875 13.203125 11.875 16.171875 C 11.875 20.6875 6.9375 24.75 0.546875 24.75 C -6.9375 24.75 -12.3125 18.921875 -16.828125 12.65625 L -22 17.046875 C -15.953125 23.65625 -7.59375 30.46875 3.1875 30.46875 Z M 3.1875 30.46875 "/>
</symbol>
</g>
</defs>
  <g id="gujarati-blws:id0:id0" transform="matrix(1.25,0,0,1.25,0.0,0.0)"><g id="gujarati-blws:id0:surface1">
<g style="fill:rgb(0%,0%,0%);fill-opacity:1;">
  <use xlink:href="#gujarati-blws:id0:glyph0-1" x="16" y="111.671875" class="c0"/>
  <use xlink:href="#gujarati-blws:id0:glyph0-2" x="44.265625" y="123.4375" class="c1"/>
</g>
</g>
</g>
  <g id="gujarati-blws:id1:id1" transform="matrix(1.25,0,0,1.25,107.3828125,1.279296875)"><g id="gujarati-blws:id1:surface1">
<g style="fill:rgb(0%,0%,0%);fill-opacity:1;">
  <use xlink:href="#gujarati-blws:id1:glyph0-1" x="0" y="120.84375" class="arrow"/>
</g>
</g>
</g>
  <g id="gujarati-blws:id2:id2" transform="matrix(1.25,0,0,1.25,239.98046875,0.0)"><g id="gujarati-blws:id2:surface1">
<g style="fill:rgb(0%,0%,0%);fill-opacity:1;">
  <use xlink:href="#gujarati-blws:id2:glyph0-1" x="16" y="111.671875" class="c0"/>
  <use xlink:href="#gujarati-blws:id2:glyph0-2" x="44.265625" y="123.4375" class="c1"/>
</g>
</g>
</g>
</svg>
