<?xml version="1.0" standalone="no"?>
<!DOCTYPE svg PUBLIC "-//W3C//DTD SVG 1.1//EN"
 "http://www.w3.org/Graphics/SVG/1.1/DTD/svg11.dtd">
<!-- Created with svg_stack (http://github.com/astraw/svg_stack) -->
<svg xmlns="http://www.w3.org/2000/svg" xmlns:sodipodi="http://sodipodi.sourceforge.net/DTD/sodipodi-0.dtd" xmlns:xlink="http://www.w3.org/1999/xlink" version="1.1" width="357.08984375" height="203.96484375">
  <defs><g>
<symbol overflow="visible" id="id0:glyph0-0">
<path style="stroke:none;" d="M 10.453125 0 L 10.453125 -78.546875 L 55.546875 -78.546875 L 55.546875 0 Z M 16.0625 -5.609375 L 50.046875 -5.609375 L 50.046875 -72.9375 L 16.0625 -72.9375 Z M 16.0625 -5.609375 "/>
</symbol>
<symbol overflow="visible" id="id0:glyph0-1">
<path style="stroke:none;" d="M 32.671875 0.328125 C 29.441406 0.328125 26.453125 -0.109375 23.703125 -0.984375 C 20.953125 -1.867188 18.222656 -3.335938 15.515625 -5.390625 C 12.867188 -7.367188 10.609375 -9.695312 8.734375 -12.375 C 6.867188 -15.050781 5.9375 -18.113281 5.9375 -21.5625 C 5.9375 -24.71875 6.757812 -27.484375 8.40625 -29.859375 C 10.0625 -32.242188 12.242188 -34.097656 14.953125 -35.421875 C 17.671875 -36.742188 20.609375 -37.40625 23.765625 -37.40625 C 24.566406 -37.40625 25.375 -37.367188 26.1875 -37.296875 C 22.8125 -38.898438 19.984375 -40.945312 17.703125 -43.4375 C 15.429688 -45.9375 14.296875 -48.800781 14.296875 -52.03125 C 14.296875 -56.71875 16.203125 -60.269531 20.015625 -62.6875 C 23.828125 -65.113281 28.671875 -66.328125 34.546875 -66.328125 C 35.710938 -66.328125 36.878906 -66.269531 38.046875 -66.15625 C 39.222656 -66.050781 40.328125 -65.925781 41.359375 -65.78125 L 43.34375 -57.3125 C 42.457031 -57.457031 41.484375 -57.566406 40.421875 -57.640625 C 39.359375 -57.710938 38.28125 -57.75 37.1875 -57.75 C 33 -57.75 29.601562 -57.085938 27 -55.765625 C 24.394531 -54.453125 23.09375 -52.398438 23.09375 -49.609375 C 23.09375 -47.484375 23.828125 -45.703125 25.296875 -44.265625 C 26.765625 -42.835938 28.765625 -41.460938 31.296875 -40.140625 C 33.828125 -38.828125 36.59375 -37.289062 39.59375 -35.53125 C 43.851562 -33.113281 47.023438 -30.234375 49.109375 -26.890625 C 51.203125 -23.554688 52.25 -20.164062 52.25 -16.71875 C 52.25 -13.707031 51.515625 -10.898438 50.046875 -8.296875 C 48.578125 -5.703125 46.394531 -3.613281 43.5 -2.03125 C 40.601562 -0.457031 36.992188 0.328125 32.671875 0.328125 Z M 28.484375 -5.71875 C 32.597656 -5.71875 36.066406 -7 38.890625 -9.5625 C 41.710938 -12.132812 43.125 -15.65625 43.125 -20.125 C 43.125 -23.71875 41.875 -26.757812 39.375 -29.25 C 36.882812 -31.75 33.734375 -33 29.921875 -33 C 27.347656 -33 24.941406 -32.429688 22.703125 -31.296875 C 20.472656 -30.160156 18.660156 -28.507812 17.265625 -26.34375 C 15.878906 -24.175781 15.1875 -21.59375 15.1875 -18.59375 C 15.1875 -16.46875 15.71875 -14.410156 16.78125 -12.421875 C 17.84375 -10.441406 19.378906 -8.828125 21.390625 -7.578125 C 23.410156 -6.335938 25.773438 -5.71875 28.484375 -5.71875 Z M 28.484375 -5.71875 "/>
</symbol>
<symbol overflow="visible" id="id0:glyph0-2">
<path style="stroke:none;" d="M 18.375 28.046875 C 16.613281 26.066406 14.664062 23.882812 12.53125 21.5 C 10.40625 19.125 8.0625 17.070312 5.5 15.34375 C 2.9375 13.625 0.148438 12.765625 -2.859375 12.765625 C -5.054688 12.765625 -7.109375 13.054688 -9.015625 13.640625 L -11.546875 5.609375 C -10.890625 5.460938 -9.9375 5.296875 -8.6875 5.109375 C -7.4375 4.929688 -6.226562 4.84375 -5.0625 4.84375 C -2.789062 4.84375 -0.738281 5.113281 1.09375 5.65625 C 2.925781 6.207031 4.773438 7.253906 6.640625 8.796875 C 8.515625 10.335938 10.660156 12.5 13.078125 15.28125 C 15.503906 18.070312 18.441406 21.742188 21.890625 26.296875 Z M 18.375 28.046875 "/>
</symbol>
</g>
<g>
<symbol overflow="visible" id="id1:glyph0-0">
<path style="stroke:none;" d="M 5.375 -96.6875 L 69.828125 -96.6875 L 69.828125 0 L 5.375 0 Z M 8.0625 -2.6875 L 67.140625 -2.6875 L 67.140625 -94 L 8.0625 -94 Z M 8.0625 -2.6875 "/>
</symbol>
<symbol overflow="visible" id="id1:glyph0-1">
<path style="stroke:none;" d="M 68.15625 -13.75 L 66.28125 -18.640625 L 88.09375 -27.390625 L 6.984375 -27.390625 L 6.984375 -34 L 88.09375 -34 L 66.28125 -42.75 L 68.15625 -47.640625 L 99.09375 -34.265625 L 99.09375 -27.125 Z M 68.15625 -13.75 "/>
</symbol>
</g>
<g>
<symbol overflow="visible" id="id2:glyph0-0">
<path style="stroke:none;" d="M 10.453125 0 L 10.453125 -78.546875 L 55.546875 -78.546875 L 55.546875 0 Z M 16.0625 -5.609375 L 50.046875 -5.609375 L 50.046875 -72.9375 L 16.0625 -72.9375 Z M 16.0625 -5.609375 "/>
</symbol>
<symbol overflow="visible" id="id2:glyph0-1">
<path style="stroke:none;" d="M 32.671875 0.328125 C 29.441406 0.328125 26.453125 -0.109375 23.703125 -0.984375 C 20.953125 -1.867188 18.222656 -3.335938 15.515625 -5.390625 C 12.867188 -7.367188 10.609375 -9.695312 8.734375 -12.375 C 6.867188 -15.050781 5.9375 -18.113281 5.9375 -21.5625 C 5.9375 -24.71875 6.757812 -27.484375 8.40625 -29.859375 C 10.0625 -32.242188 12.242188 -34.097656 14.953125 -35.421875 C 17.671875 -36.742188 20.609375 -37.40625 23.765625 -37.40625 C 24.566406 -37.40625 25.375 -37.367188 26.1875 -37.296875 C 22.8125 -38.898438 19.984375 -40.945312 17.703125 -43.4375 C 15.429688 -45.9375 14.296875 -48.800781 14.296875 -52.03125 C 14.296875 -56.71875 16.203125 -60.269531 20.015625 -62.6875 C 23.828125 -65.113281 28.671875 -66.328125 34.546875 -66.328125 C 35.710938 -66.328125 36.878906 -66.269531 38.046875 -66.15625 C 39.222656 -66.050781 40.328125 -65.925781 41.359375 -65.78125 L 43.34375 -57.3125 C 42.457031 -57.457031 41.484375 -57.566406 40.421875 -57.640625 C 39.359375 -57.710938 38.28125 -57.75 37.1875 -57.75 C 33 -57.75 29.601562 -57.085938 27 -55.765625 C 24.394531 -54.453125 23.09375 -52.398438 23.09375 -49.609375 C 23.09375 -47.484375 23.828125 -45.703125 25.296875 -44.265625 C 26.765625 -42.835938 28.765625 -41.460938 31.296875 -40.140625 C 33.828125 -38.828125 36.59375 -37.289062 39.59375 -35.53125 C 43.851562 -33.113281 47.023438 -30.234375 49.109375 -26.890625 C 51.203125 -23.554688 52.25 -20.164062 52.25 -16.71875 C 52.25 -13.707031 51.515625 -10.898438 50.046875 -8.296875 C 48.578125 -5.703125 46.394531 -3.613281 43.5 -2.03125 C 40.601562 -0.457031 36.992188 0.328125 32.671875 0.328125 Z M 28.484375 -5.71875 C 32.597656 -5.71875 36.066406 -7 38.890625 -9.5625 C 41.710938 -12.132812 43.125 -15.65625 43.125 -20.125 C 43.125 -23.71875 41.875 -26.757812 39.375 -29.25 C 36.882812 -31.75 33.734375 -33 29.921875 -33 C 27.347656 -33 24.941406 -32.429688 22.703125 -31.296875 C 20.472656 -30.160156 18.660156 -28.507812 17.265625 -26.34375 C 15.878906 -24.175781 15.1875 -21.59375 15.1875 -18.59375 C 15.1875 -16.46875 15.71875 -14.410156 16.78125 -12.421875 C 17.84375 -10.441406 19.378906 -8.828125 21.390625 -7.578125 C 23.410156 -6.335938 25.773438 -5.71875 28.484375 -5.71875 Z M 48.078125 28.046875 C 46.316406 26.066406 44.367188 23.882812 42.234375 21.5 C 40.109375 19.125 37.765625 17.070312 35.203125 15.34375 C 32.640625 13.625 29.851562 12.765625 26.84375 12.765625 C 24.644531 12.765625 22.59375 13.054688 20.6875 13.640625 L 18.15625 5.609375 C 18.8125 5.460938 19.765625 5.296875 21.015625 5.109375 C 22.265625 4.929688 23.472656 4.84375 24.640625 4.84375 C 26.910156 4.84375 28.960938 5.113281 30.796875 5.65625 C 32.628906 6.207031 34.476562 7.253906 36.34375 8.796875 C 38.21875 10.335938 40.363281 12.5 42.78125 15.28125 C 45.207031 18.070312 48.144531 21.742188 51.59375 26.296875 Z M 48.078125 28.046875 "/>
</symbol>
</g>
</defs>
  <g id="id0:id0" transform="matrix(1.25,0,0,1.25,0.0,0.0)"><g id="id0:surface1">
<g style="fill:rgb(0%,0%,0%);fill-opacity:1;">
  <use xlink:href="#id0:glyph0-1" x="16" y="111.671875"/>
  <use xlink:href="#id0:glyph0-2" x="69.796875" y="111.671875"/>
</g>
</g>
</g>
  <g id="id1:id1" transform="matrix(1.25,0,0,1.25,117.24609375,1.279296875)"><g id="id1:surface1">
<g style="fill:rgb(0%,0%,0%);fill-opacity:1;">
  <use xlink:href="#id1:glyph0-1" x="0" y="120.84375"/>
</g>
</g>
</g>
  <g id="id2:id2" transform="matrix(1.25,0,0,1.25,249.84375,0.0)"><g id="id2:surface1">
<g style="fill:rgb(0%,0%,0%);fill-opacity:1;">
  <use xlink:href="#id2:glyph0-1" x="16" y="111.671875"/>
</g>
</g>
</g>
</svg>
