<!DOCTYPE svg PUBLIC "-//W3C//DTD SVG 1.1//EN" "http://www.w3.org/Graphics/SVG/1.1/DTD/svg11.dtd">
<!-- Created with svg_stack (http://github.com/astraw/svg_stack) --><svg xmlns="http://www.w3.org/2000/svg" xmlns:sodipodi="http://sodipodi.sourceforge.net/DTD/sodipodi-0.dtd" xmlns:xlink="http://www.w3.org/1999/xlink" version="1.1" width="100%" id="gujarati-psts" viewBox="0 0 358.203125 203.96484375">
  <defs><g>
<symbol overflow="visible" id="gujarati-psts:id0:glyph0-0">
<path style="stroke:none;" d="M 10.453125 0 L 10.453125 -78.546875 L 55.546875 -78.546875 L 55.546875 0 Z M 16.0625 -5.609375 L 50.046875 -5.609375 L 50.046875 -72.9375 L 16.0625 -72.9375 Z M 16.0625 -5.609375 "/>
</symbol>
<symbol overflow="visible" id="gujarati-psts:id0:glyph0-1">
<path style="stroke:none;" d="M 14.078125 -20.90625 C 11.367188 -20.90625 9.039062 -21.671875 7.09375 -23.203125 C 5.15625 -24.742188 4.1875 -26.65625 4.1875 -28.9375 C 4.1875 -30.6875 4.863281 -32.078125 6.21875 -33.109375 C 7.570312 -34.140625 9.09375 -34.65625 10.78125 -34.65625 C 12.101562 -34.65625 13.421875 -34.269531 14.734375 -33.5 C 16.054688 -32.726562 17.195312 -31.789062 18.15625 -30.6875 C 23.875 -32.445312 28.050781 -34.921875 30.6875 -38.109375 C 33.332031 -41.304688 34.65625 -44.40625 34.65625 -47.40625 C 34.65625 -50.050781 33.71875 -52.304688 31.84375 -54.171875 C 29.976562 -56.046875 27.25 -56.984375 23.65625 -56.984375 C 21.59375 -56.984375 19.625 -56.78125 17.75 -56.375 C 15.882812 -55.96875 14 -55.398438 12.09375 -54.671875 L 7.15625 -63.90625 C 8.6875 -64.425781 10.40625 -64.847656 12.3125 -65.171875 C 14.226562 -65.503906 16.320312 -65.671875 18.59375 -65.671875 C 21.738281 -65.671875 24.613281 -65.101562 27.21875 -63.96875 C 29.820312 -62.832031 32.445312 -60.90625 35.09375 -58.1875 C 39.78125 -53.425781 42.125 -48.585938 42.125 -43.671875 C 42.125 -40.296875 41.171875 -37.160156 39.265625 -34.265625 C 37.359375 -31.367188 34.882812 -28.875 31.84375 -26.78125 C 28.800781 -24.695312 25.554688 -23.140625 22.109375 -22.109375 C 23.285156 -19.691406 24.84375 -17.492188 26.78125 -15.515625 C 28.726562 -13.535156 31.273438 -11.9375 34.421875 -10.71875 C 37.578125 -9.507812 41.539062 -8.90625 46.3125 -8.90625 C 46.457031 -8.90625 46.710938 -8.921875 47.078125 -8.953125 C 47.441406 -8.992188 47.695312 -9.015625 47.84375 -9.015625 L 44.328125 0.984375 C 40.585938 0.984375 37.25 0.289062 34.3125 -1.09375 C 31.382812 -2.488281 28.800781 -4.304688 26.5625 -6.546875 C 24.320312 -8.785156 22.378906 -11.1875 20.734375 -13.75 C 19.085938 -16.3125 17.640625 -18.734375 16.390625 -21.015625 C 15.585938 -20.941406 14.816406 -20.90625 14.078125 -20.90625 Z M 14.078125 -20.90625 "/>
</symbol>
<symbol overflow="visible" id="gujarati-psts:id0:glyph0-2">
<path style="stroke:none;" d="M 5.828125 34.546875 C 1.722656 34.546875 -2.378906 33.585938 -6.484375 31.671875 C -10.597656 29.765625 -14.46875 27.328125 -18.09375 24.359375 C -21.726562 21.390625 -24.828125 18.289062 -27.390625 15.0625 L -21.78125 10.34375 C -20.238281 12.976562 -18.382812 15.597656 -16.21875 18.203125 C -14.0625 20.804688 -11.550781 22.988281 -8.6875 24.75 C -5.832031 26.507812 -2.570312 27.390625 1.09375 27.390625 C 4.90625 27.390625 7.96875 26.488281 10.28125 24.6875 C 12.59375 22.894531 13.75 20.9375 13.75 18.8125 C 13.75 16.6875 12.992188 15.164062 11.484375 14.25 C 9.984375 13.332031 8.390625 12.875 6.703125 12.875 C 5.242188 12.875 3.78125 13.203125 2.3125 13.859375 C 0.84375 14.515625 -0.363281 15.25 -1.3125 16.0625 L -6.9375 8.140625 C -3.1875 5.941406 0.367188 4.84375 3.734375 4.84375 C 6.523438 4.84375 8.960938 5.484375 11.046875 6.765625 C 13.140625 8.046875 14.882812 9.640625 16.28125 11.546875 C 17.300781 12.941406 18.25 14.554688 19.125 16.390625 C 20.007812 18.222656 20.453125 19.984375 20.453125 21.671875 C 20.453125 25.265625 19.113281 28.304688 16.4375 30.796875 C 13.769531 33.296875 10.234375 34.546875 5.828125 34.546875 Z M 5.828125 34.546875 "/>
</symbol>
</g>
<g>
<symbol overflow="visible" id="gujarati-psts:id1:glyph0-0">
<path style="stroke:none;" d="M 5.375 -96.6875 L 69.828125 -96.6875 L 69.828125 0 L 5.375 0 Z M 8.0625 -2.6875 L 67.140625 -2.6875 L 67.140625 -94 L 8.0625 -94 Z M 8.0625 -2.6875 "/>
</symbol>
<symbol overflow="visible" id="gujarati-psts:id1:glyph0-1">
<path style="stroke:none;" d="M 68.15625 -13.75 L 66.28125 -18.640625 L 88.09375 -27.390625 L 6.984375 -27.390625 L 6.984375 -34 L 88.09375 -34 L 66.28125 -42.75 L 68.15625 -47.640625 L 99.09375 -34.265625 L 99.09375 -27.125 Z M 68.15625 -13.75 "/>
</symbol>
</g>
<g>
<symbol overflow="visible" id="gujarati-psts:id2:glyph0-0">
<path style="stroke:none;" d="M 10.453125 0 L 10.453125 -78.546875 L 55.546875 -78.546875 L 55.546875 0 Z M 16.0625 -5.609375 L 50.046875 -5.609375 L 50.046875 -72.9375 L 16.0625 -72.9375 Z M 16.0625 -5.609375 "/>
</symbol>
<symbol overflow="visible" id="gujarati-psts:id2:glyph0-1">
<path style="stroke:none;" d="M 44.328125 0.984375 C 40.585938 0.984375 37.25 0.289062 34.3125 -1.09375 C 31.382812 -2.488281 28.800781 -4.304688 26.5625 -6.546875 C 24.320312 -8.785156 22.378906 -11.164062 20.734375 -13.6875 C 19.085938 -16.21875 17.640625 -18.660156 16.390625 -21.015625 C 15.734375 -20.941406 15.070312 -20.90625 14.40625 -20.90625 C 11.476562 -20.90625 9.039062 -21.65625 7.09375 -23.15625 C 5.15625 -24.65625 4.1875 -26.582031 4.1875 -28.9375 C 4.1875 -30.84375 4.863281 -32.269531 6.21875 -33.21875 C 7.570312 -34.175781 9.09375 -34.65625 10.78125 -34.65625 C 12.101562 -34.65625 13.421875 -34.269531 14.734375 -33.5 C 16.054688 -32.726562 17.195312 -31.789062 18.15625 -30.6875 C 23.875 -32.445312 28.050781 -34.921875 30.6875 -38.109375 C 33.332031 -41.304688 34.65625 -44.40625 34.65625 -47.40625 C 34.65625 -50.050781 33.71875 -52.304688 31.84375 -54.171875 C 29.976562 -56.046875 27.25 -56.984375 23.65625 -56.984375 C 21.59375 -56.984375 19.625 -56.78125 17.75 -56.375 C 15.882812 -55.96875 14 -55.398438 12.09375 -54.671875 L 7.15625 -63.90625 C 8.6875 -64.425781 10.40625 -64.847656 12.3125 -65.171875 C 14.226562 -65.503906 16.320312 -65.671875 18.59375 -65.671875 C 21.738281 -65.671875 24.613281 -65.101562 27.21875 -63.96875 C 29.820312 -62.832031 32.445312 -60.90625 35.09375 -58.1875 C 39.414062 -53.789062 41.578125 -49.28125 41.578125 -44.65625 C 41.578125 -44 41.539062 -43.378906 41.46875 -42.796875 C 43.007812 -43.597656 44.550781 -44.195312 46.09375 -44.59375 C 47.632812 -45 49.207031 -45.203125 50.8125 -45.203125 C 53.382812 -45.203125 55.9375 -44.539062 58.46875 -43.21875 C 61 -41.90625 63.179688 -39.816406 65.015625 -36.953125 C 65.960938 -35.566406 66.800781 -34.03125 67.53125 -32.34375 C 68.269531 -30.65625 68.640625 -28.859375 68.640625 -26.953125 C 68.640625 -23.867188 67.628906 -21.003906 65.609375 -18.359375 C 63.597656 -15.722656 60.722656 -13.859375 56.984375 -12.765625 L 52.25 -20.5625 C 55.039062 -21.445312 57.332031 -22.804688 59.125 -24.640625 C 60.914062 -26.472656 61.8125 -28.523438 61.8125 -30.796875 C 61.8125 -33.066406 60.96875 -34.71875 59.28125 -35.75 C 57.601562 -36.78125 55.695312 -37.296875 53.5625 -37.296875 C 50.125 -37.296875 47.175781 -36.648438 44.71875 -35.359375 C 42.257812 -34.078125 39.304688 -32.191406 35.859375 -29.703125 C 33.804688 -28.160156 31.625 -26.707031 29.3125 -25.34375 C 27 -23.988281 24.597656 -22.910156 22.109375 -22.109375 C 23.285156 -19.691406 24.84375 -17.492188 26.78125 -15.515625 C 28.726562 -13.535156 31.273438 -11.9375 34.421875 -10.71875 C 37.578125 -9.507812 41.539062 -8.90625 46.3125 -8.90625 C 46.457031 -8.90625 46.710938 -8.921875 47.078125 -8.953125 C 47.441406 -8.992188 47.695312 -9.015625 47.84375 -9.015625 Z M 44.328125 0.984375 "/>
</symbol>
</g>
</defs>
  <g id="gujarati-psts:id0:id0" transform="matrix(1.25,0,0,1.25,0.0,0.0)"><g id="gujarati-psts:id0:surface1">
<g style="fill:rgb(0%,0%,0%);fill-opacity:1;">
  <use xlink:href="#gujarati-psts:id0:glyph0-1" x="16" y="111.671875" class="c0"/>
  <use xlink:href="#gujarati-psts:id0:glyph0-2" x="41.84375" y="111.671875" class="c1"/>
</g>
</g>
</g>
  <g id="gujarati-psts:id1:id1" transform="matrix(1.25,0,0,1.25,99.2578125,1.279296875)"><g id="gujarati-psts:id1:surface1">
<g style="fill:rgb(0%,0%,0%);fill-opacity:1;">
  <use xlink:href="#gujarati-psts:id1:glyph0-1" x="0" y="120.84375" class="arrow"/>
</g>
</g>
</g>
  <g id="gujarati-psts:id2:id2" transform="matrix(1.25,0,0,1.25,231.85546875,0.0)"><g id="gujarati-psts:id2:surface1">
<g style="fill:rgb(0%,0%,0%);fill-opacity:1;">
  <use xlink:href="#gujarati-psts:id2:glyph0-1" x="16" y="111.671875" class="c2"/>
</g>
</g>
</g>
</svg>
