<?xml version="1.0" standalone="no"?>
<!DOCTYPE svg PUBLIC "-//W3C//DTD SVG 1.1//EN"
 "http://www.w3.org/Graphics/SVG/1.1/DTD/svg11.dtd">
<!-- Created with svg_stack (http://github.com/astraw/svg_stack) -->
<svg xmlns="http://www.w3.org/2000/svg" xmlns:sodipodi="http://sodipodi.sourceforge.net/DTD/sodipodi-0.dtd" xmlns:xlink="http://www.w3.org/1999/xlink" version="1.1" width="473.84765625" height="203.96484375">
  <defs><g>
<symbol overflow="visible" id="id0:glyph0-0">
<path style="stroke:none;" d="M 10.453125 0 L 10.453125 -78.546875 L 55.546875 -78.546875 L 55.546875 0 Z M 16.0625 -5.609375 L 50.046875 -5.609375 L 50.046875 -72.9375 L 16.0625 -72.9375 Z M 16.0625 -5.609375 "/>
</symbol>
<symbol overflow="visible" id="id0:glyph0-1">
<path style="stroke:none;" d="M 30.25 -23.3125 L 23.875 -29.375 L 45.765625 -50.375 C 42.972656 -52.28125 40.128906 -53.875 37.234375 -55.15625 C 34.335938 -56.445312 31.457031 -57.347656 28.59375 -57.859375 C 30.0625 -54.992188 30.796875 -51.84375 30.796875 -48.40625 C 30.796875 -45.90625 30.242188 -43.59375 29.140625 -41.46875 C 28.046875 -39.34375 26.523438 -37.617188 24.578125 -36.296875 C 22.640625 -34.972656 20.382812 -34.3125 17.8125 -34.3125 C 15.6875 -34.3125 13.671875 -34.75 11.765625 -35.625 C 9.859375 -36.507812 8.207031 -37.648438 6.8125 -39.046875 C 3.882812 -42.128906 2.421875 -45.722656 2.421875 -49.828125 C 2.421875 -54.597656 4.085938 -58.503906 7.421875 -61.546875 C 10.765625 -64.585938 15.367188 -66.109375 21.234375 -66.109375 C 27.898438 -66.109375 34.476562 -64.382812 40.96875 -60.9375 C 47.457031 -57.488281 53.601562 -52.648438 59.40625 -46.421875 C 64.238281 -50.960938 69.035156 -54.992188 73.796875 -58.515625 C 78.566406 -62.035156 82.710938 -64.96875 86.234375 -67.3125 L 95.046875 -63.6875 L 95.046875 -6.703125 C 95.046875 -5.972656 95.410156 -5.609375 96.140625 -5.609375 C 97.390625 -5.609375 98.800781 -6.03125 100.375 -6.875 C 101.945312 -7.71875 103.320312 -8.835938 104.5 -10.234375 L 109.125 -2.75 C 108.164062 -2.019531 107.007812 -1.285156 105.65625 -0.546875 C 104.300781 0.179688 102.742188 0.546875 100.984375 0.546875 C 99.367188 0.546875 97.863281 0.195312 96.46875 -0.5 C 95.070312 -1.195312 93.53125 -2.164062 91.84375 -3.40625 C 89.570312 -5.238281 88.066406 -6.867188 87.328125 -8.296875 C 86.597656 -9.734375 86.234375 -11.550781 86.234375 -13.75 L 86.234375 -57.09375 C 82.566406 -54.59375 78.992188 -51.929688 75.515625 -49.109375 C 72.035156 -46.285156 68.535156 -43.226562 65.015625 -39.9375 C 68.304688 -35.75 70.773438 -31.75 72.421875 -27.9375 C 74.078125 -24.125 74.90625 -20.3125 74.90625 -16.5 C 74.90625 -11.582031 73.53125 -7.507812 70.78125 -4.28125 C 68.03125 -1.0625 64.164062 0.546875 59.1875 0.546875 C 56.25 0.546875 53.753906 0.0703125 51.703125 -0.875 C 49.648438 -1.832031 47.742188 -3.117188 45.984375 -4.734375 C 44.003906 -6.566406 42.441406 -8.597656 41.296875 -10.828125 C 40.160156 -13.066406 39.59375 -15.4375 39.59375 -17.9375 C 39.59375 -21.082031 40.253906 -23.898438 41.578125 -26.390625 C 42.898438 -28.890625 44.734375 -31.40625 47.078125 -33.9375 C 49.421875 -36.46875 52.132812 -39.269531 55.21875 -42.34375 L 54.890625 -42.6875 C 53.785156 -43.851562 52.613281 -44.953125 51.375 -45.984375 Z M 9.6875 -46.53125 C 9.6875 -44.695312 10.179688 -43.25 11.171875 -42.1875 C 12.160156 -41.125 13.382812 -40.59375 14.84375 -40.59375 C 17.632812 -40.59375 19.835938 -41.765625 21.453125 -44.109375 C 23.066406 -46.453125 23.875 -49.421875 23.875 -53.015625 C 23.875 -54.773438 23.648438 -56.535156 23.203125 -58.296875 C 19.097656 -58.148438 15.816406 -56.976562 13.359375 -54.78125 C 10.910156 -52.582031 9.6875 -49.832031 9.6875 -46.53125 Z M 47.1875 -15.1875 C 47.1875 -11.882812 48.15625 -9.550781 50.09375 -8.1875 C 52.039062 -6.832031 54.039062 -6.15625 56.09375 -6.15625 C 57.707031 -6.15625 59.265625 -6.59375 60.765625 -7.46875 C 62.273438 -8.351562 63.539062 -9.785156 64.5625 -11.765625 C 65.59375 -13.742188 66.109375 -16.347656 66.109375 -19.578125 C 66.109375 -22.296875 65.613281 -25.007812 64.625 -27.71875 C 63.632812 -30.4375 62.257812 -33.113281 60.5 -35.75 C 55.875 -31.207031 52.5 -27.46875 50.375 -24.53125 C 48.25 -21.59375 47.1875 -18.476562 47.1875 -15.1875 Z M 47.1875 -15.1875 "/>
</symbol>
</g>
<g>
<symbol overflow="visible" id="id1:glyph0-0">
<path style="stroke:none;" d="M 5.375 -96.6875 L 69.828125 -96.6875 L 69.828125 0 L 5.375 0 Z M 8.0625 -2.6875 L 67.140625 -2.6875 L 67.140625 -94 L 8.0625 -94 Z M 8.0625 -2.6875 "/>
</symbol>
<symbol overflow="visible" id="id1:glyph0-1">
<path style="stroke:none;" d="M 68.15625 -13.75 L 66.28125 -18.640625 L 88.09375 -27.390625 L 6.984375 -27.390625 L 6.984375 -34 L 88.09375 -34 L 66.28125 -42.75 L 68.15625 -47.640625 L 99.09375 -34.265625 L 99.09375 -27.125 Z M 68.15625 -13.75 "/>
</symbol>
</g>
<g>
<symbol overflow="visible" id="id2:glyph0-0">
<path style="stroke:none;" d="M 10.453125 0 L 10.453125 -78.546875 L 55.546875 -78.546875 L 55.546875 0 Z M 16.0625 -5.609375 L 50.046875 -5.609375 L 50.046875 -72.9375 L 16.0625 -72.9375 Z M 16.0625 -5.609375 "/>
</symbol>
<symbol overflow="visible" id="id2:glyph0-1">
<path style="stroke:none;" d="M 30.25 -23.3125 L 23.875 -29.375 L 45.765625 -50.375 C 42.972656 -52.28125 40.128906 -53.875 37.234375 -55.15625 C 34.335938 -56.445312 31.457031 -57.347656 28.59375 -57.859375 C 30.0625 -54.992188 30.796875 -51.84375 30.796875 -48.40625 C 30.796875 -45.90625 30.242188 -43.59375 29.140625 -41.46875 C 28.046875 -39.34375 26.523438 -37.617188 24.578125 -36.296875 C 22.640625 -34.972656 20.382812 -34.3125 17.8125 -34.3125 C 15.6875 -34.3125 13.671875 -34.75 11.765625 -35.625 C 9.859375 -36.507812 8.207031 -37.648438 6.8125 -39.046875 C 3.882812 -42.128906 2.421875 -45.722656 2.421875 -49.828125 C 2.421875 -54.597656 4.085938 -58.503906 7.421875 -61.546875 C 10.765625 -64.585938 15.367188 -66.109375 21.234375 -66.109375 C 27.898438 -66.109375 34.476562 -64.382812 40.96875 -60.9375 C 47.457031 -57.488281 53.601562 -52.648438 59.40625 -46.421875 C 64.238281 -50.960938 69.035156 -54.992188 73.796875 -58.515625 C 78.566406 -62.035156 82.710938 -64.96875 86.234375 -67.3125 L 95.046875 -63.6875 L 95.046875 -6.703125 C 95.046875 -5.972656 95.410156 -5.609375 96.140625 -5.609375 C 97.390625 -5.609375 98.800781 -6.03125 100.375 -6.875 C 101.945312 -7.71875 103.320312 -8.835938 104.5 -10.234375 L 109.125 -2.75 C 108.164062 -2.019531 107.007812 -1.285156 105.65625 -0.546875 C 104.300781 0.179688 102.742188 0.546875 100.984375 0.546875 C 99.367188 0.546875 97.863281 0.195312 96.46875 -0.5 C 95.070312 -1.195312 93.53125 -2.164062 91.84375 -3.40625 C 89.570312 -5.238281 88.066406 -6.867188 87.328125 -8.296875 C 86.597656 -9.734375 86.234375 -11.550781 86.234375 -13.75 L 86.234375 -57.09375 C 82.566406 -54.59375 78.992188 -51.929688 75.515625 -49.109375 C 72.035156 -46.285156 68.535156 -43.226562 65.015625 -39.9375 C 68.304688 -35.75 70.773438 -31.75 72.421875 -27.9375 C 74.078125 -24.125 74.90625 -20.3125 74.90625 -16.5 C 74.90625 -11.582031 73.53125 -7.507812 70.78125 -4.28125 C 68.03125 -1.0625 64.164062 0.546875 59.1875 0.546875 C 56.25 0.546875 53.753906 0.0703125 51.703125 -0.875 C 49.648438 -1.832031 47.742188 -3.117188 45.984375 -4.734375 C 44.003906 -6.566406 42.441406 -8.597656 41.296875 -10.828125 C 40.160156 -13.066406 39.59375 -15.4375 39.59375 -17.9375 C 39.59375 -21.082031 40.253906 -23.898438 41.578125 -26.390625 C 42.898438 -28.890625 44.734375 -31.40625 47.078125 -33.9375 C 49.421875 -36.46875 52.132812 -39.269531 55.21875 -42.34375 L 54.890625 -42.6875 C 53.785156 -43.851562 52.613281 -44.953125 51.375 -45.984375 Z M 9.6875 -46.53125 C 9.6875 -44.695312 10.179688 -43.25 11.171875 -42.1875 C 12.160156 -41.125 13.382812 -40.59375 14.84375 -40.59375 C 17.632812 -40.59375 19.835938 -41.765625 21.453125 -44.109375 C 23.066406 -46.453125 23.875 -49.421875 23.875 -53.015625 C 23.875 -54.773438 23.648438 -56.535156 23.203125 -58.296875 C 19.097656 -58.148438 15.816406 -56.976562 13.359375 -54.78125 C 10.910156 -52.582031 9.6875 -49.832031 9.6875 -46.53125 Z M 47.1875 -15.1875 C 47.1875 -11.882812 48.15625 -9.550781 50.09375 -8.1875 C 52.039062 -6.832031 54.039062 -6.15625 56.09375 -6.15625 C 57.707031 -6.15625 59.265625 -6.59375 60.765625 -7.46875 C 62.273438 -8.351562 63.539062 -9.785156 64.5625 -11.765625 C 65.59375 -13.742188 66.109375 -16.347656 66.109375 -19.578125 C 66.109375 -22.296875 65.613281 -25.007812 64.625 -27.71875 C 63.632812 -30.4375 62.257812 -33.113281 60.5 -35.75 C 55.875 -31.207031 52.5 -27.46875 50.375 -24.53125 C 48.25 -21.59375 47.1875 -18.476562 47.1875 -15.1875 Z M 47.1875 -15.1875 "/>
</symbol>
</g>
</defs>
  <g id="id0:id0" transform="matrix(1.25,0,0,1.25,0.0,0.0)"><g id="id0:surface1">
<g style="fill:rgb(0%,0%,0%);fill-opacity:1;">
  <use xlink:href="#id0:glyph0-1" x="16" y="111.671875"/>
</g>
</g>
</g>
  <g id="id1:id1" transform="matrix(1.25,0,0,1.25,170.625,1.279296875)"><g id="id1:surface1">
<g style="fill:rgb(0%,0%,0%);fill-opacity:1;">
  <use xlink:href="#id1:glyph0-1" x="0" y="120.84375"/>
</g>
</g>
</g>
  <g id="id2:id2" transform="matrix(1.25,0,0,1.25,303.22265625,0.0)"><g id="id2:surface1">
<g style="fill:rgb(0%,0%,0%);fill-opacity:1;">
  <use xlink:href="#id2:glyph0-1" x="16" y="111.671875"/>
</g>
</g>
</g>
</svg>
