<!DOCTYPE svg PUBLIC "-//W3C//DTD SVG 1.1//EN" "http://www.w3.org/Graphics/SVG/1.1/DTD/svg11.dtd">
<!-- Created with svg_stack (http://github.com/astraw/svg_stack) --><svg xmlns="http://www.w3.org/2000/svg" xmlns:sodipodi="http://sodipodi.sourceforge.net/DTD/sodipodi-0.dtd" xmlns:xlink="http://www.w3.org/1999/xlink" version="1.1" width="100%" id="gujarati-haln" viewBox="0 0 457.08984375 203.96484375">
  <defs><g>
<symbol overflow="visible" id="gujarati-haln:id0:glyph0-0">
<path style="stroke:none;" d="M 10.453125 0 L 10.453125 -78.546875 L 55.546875 -78.546875 L 55.546875 0 Z M 16.0625 -5.609375 L 50.046875 -5.609375 L 50.046875 -72.9375 L 16.0625 -72.9375 Z M 16.0625 -5.609375 "/>
</symbol>
<symbol overflow="visible" id="gujarati-haln:id0:glyph0-1">
<path style="stroke:none;" d="M 10.5625 -24.640625 L 7.703125 -33.765625 L 24.96875 -34.875 C 22.03125 -36.488281 19.40625 -38.671875 17.09375 -41.421875 C 14.789062 -44.171875 13.640625 -47.378906 13.640625 -51.046875 C 13.640625 -54.335938 14.535156 -57.117188 16.328125 -59.390625 C 18.128906 -61.671875 20.550781 -63.394531 23.59375 -64.5625 C 26.632812 -65.738281 30.023438 -66.328125 33.765625 -66.328125 C 34.941406 -66.328125 36.113281 -66.269531 37.28125 -66.15625 C 38.457031 -66.050781 39.5625 -65.925781 40.59375 -65.78125 L 42.5625 -57.3125 C 41.6875 -57.457031 40.71875 -57.566406 39.65625 -57.640625 C 38.59375 -57.710938 37.507812 -57.75 36.40625 -57.75 C 32.300781 -57.75 28.945312 -56.976562 26.34375 -55.4375 C 23.738281 -53.894531 22.4375 -51.476562 22.4375 -48.1875 C 22.4375 -45.46875 23.296875 -43.0625 25.015625 -40.96875 C 26.742188 -38.882812 28.816406 -37.035156 31.234375 -35.421875 L 62.59375 -38.5 C 60.757812 -39.75 59.144531 -41.453125 57.75 -43.609375 C 56.351562 -45.773438 55.65625 -48.253906 55.65625 -51.046875 C 55.65625 -54.335938 56.550781 -57.117188 58.34375 -59.390625 C 60.144531 -61.671875 62.566406 -63.394531 65.609375 -64.5625 C 68.660156 -65.738281 72.09375 -66.328125 75.90625 -66.328125 C 78.175781 -66.328125 80.410156 -66.144531 82.609375 -65.78125 L 84.703125 -57.3125 C 83.816406 -57.457031 82.84375 -57.566406 81.78125 -57.640625 C 80.71875 -57.710938 79.601562 -57.75 78.4375 -57.75 C 74.394531 -57.75 71.050781 -56.976562 68.40625 -55.4375 C 65.769531 -53.894531 64.453125 -51.476562 64.453125 -48.1875 C 64.453125 -46.351562 64.875 -44.679688 65.71875 -43.171875 C 66.5625 -41.671875 67.609375 -40.296875 68.859375 -39.046875 L 93.390625 -41.90625 L 95.8125 -33 L 77 -31.796875 C 79.125 -30.984375 81.320312 -29.820312 83.59375 -28.3125 C 85.875 -26.8125 87.800781 -24.890625 89.375 -22.546875 C 90.945312 -20.203125 91.734375 -17.414062 91.734375 -14.1875 C 91.734375 -9.71875 90.101562 -6.125 86.84375 -3.40625 C 83.582031 -0.695312 79.019531 0.65625 73.15625 0.65625 C 68.238281 0.65625 63.6875 -0.296875 59.5 -2.203125 C 55.320312 -4.109375 51.695312 -6.304688 48.625 -8.796875 C 47.519531 -5.867188 45.460938 -3.5625 42.453125 -1.875 C 39.453125 -0.1875 35.640625 0.65625 31.015625 0.65625 C 26.109375 0.65625 21.65625 -0.347656 17.65625 -2.359375 C 13.65625 -4.378906 10.265625 -6.597656 7.484375 -9.015625 L 10.234375 -13.09375 C 12.648438 -11.039062 15.25 -9.351562 18.03125 -8.03125 C 20.820312 -6.707031 23.832031 -6.046875 27.0625 -6.046875 C 31.3125 -6.046875 34.5 -7.015625 36.625 -8.953125 C 38.75 -10.898438 39.8125 -13.34375 39.8125 -16.28125 C 39.8125 -18.40625 39.242188 -20.4375 38.109375 -22.375 C 36.972656 -24.320312 35.523438 -25.992188 33.765625 -27.390625 Z M 81.953125 -16.28125 C 81.953125 -19.507812 80.757812 -22.476562 78.375 -25.1875 C 75.988281 -27.90625 73.296875 -29.882812 70.296875 -31.125 L 41.25 -28.265625 C 43.445312 -26.878906 45.390625 -25.046875 47.078125 -22.765625 C 48.765625 -20.492188 49.609375 -17.78125 49.609375 -14.625 C 52.472656 -12.132812 55.515625 -10.082031 58.734375 -8.46875 C 61.960938 -6.851562 65.410156 -6.046875 69.078125 -6.046875 C 73.398438 -6.046875 76.625 -7.015625 78.75 -8.953125 C 80.882812 -10.898438 81.953125 -13.34375 81.953125 -16.28125 Z M 81.953125 -16.28125 "/>
</symbol>
<symbol overflow="visible" id="gujarati-haln:id0:glyph0-2">
<path style="stroke:none;" d="M 0 6.265625 C -1.613281 6.265625 -2.988281 5.804688 -4.125 4.890625 C -5.257812 3.972656 -5.828125 2.34375 -5.828125 0 C -5.828125 -2.34375 -5.257812 -3.972656 -4.125 -4.890625 C -2.988281 -5.804688 -1.613281 -6.265625 0 -6.265625 C 1.613281 -6.265625 2.988281 -5.804688 4.125 -4.890625 C 5.257812 -3.972656 5.828125 -2.34375 5.828125 0 C 5.828125 2.34375 5.257812 3.972656 4.125 4.890625 C 2.988281 5.804688 1.613281 6.265625 0 6.265625 Z M 0 6.265625 "/>
</symbol>
<symbol overflow="visible" id="gujarati-haln:id0:glyph0-3">
<path style="stroke:none;" d="M 18.375 28.046875 C 16.613281 26.066406 14.664062 23.882812 12.53125 21.5 C 10.40625 19.125 8.0625 17.070312 5.5 15.34375 C 2.9375 13.625 0.148438 12.765625 -2.859375 12.765625 C -5.054688 12.765625 -7.109375 13.054688 -9.015625 13.640625 L -11.546875 5.609375 C -10.890625 5.460938 -9.9375 5.296875 -8.6875 5.109375 C -7.4375 4.929688 -6.226562 4.84375 -5.0625 4.84375 C -2.789062 4.84375 -0.738281 5.113281 1.09375 5.65625 C 2.925781 6.207031 4.773438 7.253906 6.640625 8.796875 C 8.515625 10.335938 10.660156 12.5 13.078125 15.28125 C 15.503906 18.070312 18.441406 21.742188 21.890625 26.296875 Z M 18.375 28.046875 "/>
</symbol>
</g>
<g>
<symbol overflow="visible" id="gujarati-haln:id1:glyph0-0">
<path style="stroke:none;" d="M 5.375 -96.6875 L 69.828125 -96.6875 L 69.828125 0 L 5.375 0 Z M 8.0625 -2.6875 L 67.140625 -2.6875 L 67.140625 -94 L 8.0625 -94 Z M 8.0625 -2.6875 "/>
</symbol>
<symbol overflow="visible" id="gujarati-haln:id1:glyph0-1">
<path style="stroke:none;" d="M 68.15625 -13.75 L 66.28125 -18.640625 L 88.09375 -27.390625 L 6.984375 -27.390625 L 6.984375 -34 L 88.09375 -34 L 66.28125 -42.75 L 68.15625 -47.640625 L 99.09375 -34.265625 L 99.09375 -27.125 Z M 68.15625 -13.75 "/>
</symbol>
</g>
<g>
<symbol overflow="visible" id="gujarati-haln:id2:glyph0-0">
<path style="stroke:none;" d="M 10.453125 0 L 10.453125 -78.546875 L 55.546875 -78.546875 L 55.546875 0 Z M 16.0625 -5.609375 L 50.046875 -5.609375 L 50.046875 -72.9375 L 16.0625 -72.9375 Z M 16.0625 -5.609375 "/>
</symbol>
<symbol overflow="visible" id="gujarati-haln:id2:glyph0-1">
<path style="stroke:none;" d="M 10.5625 -24.640625 L 7.703125 -33.765625 L 24.96875 -34.875 C 22.03125 -36.488281 19.40625 -38.671875 17.09375 -41.421875 C 14.789062 -44.171875 13.640625 -47.378906 13.640625 -51.046875 C 13.640625 -54.335938 14.535156 -57.117188 16.328125 -59.390625 C 18.128906 -61.671875 20.550781 -63.394531 23.59375 -64.5625 C 26.632812 -65.738281 30.023438 -66.328125 33.765625 -66.328125 C 34.941406 -66.328125 36.113281 -66.269531 37.28125 -66.15625 C 38.457031 -66.050781 39.5625 -65.925781 40.59375 -65.78125 L 42.5625 -57.3125 C 41.6875 -57.457031 40.71875 -57.566406 39.65625 -57.640625 C 38.59375 -57.710938 37.507812 -57.75 36.40625 -57.75 C 32.300781 -57.75 28.945312 -56.976562 26.34375 -55.4375 C 23.738281 -53.894531 22.4375 -51.476562 22.4375 -48.1875 C 22.4375 -45.46875 23.296875 -43.0625 25.015625 -40.96875 C 26.742188 -38.882812 28.816406 -37.035156 31.234375 -35.421875 L 62.59375 -38.5 C 60.757812 -39.75 59.144531 -41.453125 57.75 -43.609375 C 56.351562 -45.773438 55.65625 -48.253906 55.65625 -51.046875 C 55.65625 -54.335938 56.550781 -57.117188 58.34375 -59.390625 C 60.144531 -61.671875 62.566406 -63.394531 65.609375 -64.5625 C 68.660156 -65.738281 72.09375 -66.328125 75.90625 -66.328125 C 78.175781 -66.328125 80.410156 -66.144531 82.609375 -65.78125 L 84.703125 -57.3125 C 83.816406 -57.457031 82.84375 -57.566406 81.78125 -57.640625 C 80.71875 -57.710938 79.601562 -57.75 78.4375 -57.75 C 74.394531 -57.75 71.050781 -56.976562 68.40625 -55.4375 C 65.769531 -53.894531 64.453125 -51.476562 64.453125 -48.1875 C 64.453125 -46.351562 64.875 -44.679688 65.71875 -43.171875 C 66.5625 -41.671875 67.609375 -40.296875 68.859375 -39.046875 L 93.390625 -41.90625 L 95.8125 -33 L 77 -31.796875 C 79.125 -30.984375 81.320312 -29.820312 83.59375 -28.3125 C 85.875 -26.8125 87.800781 -24.890625 89.375 -22.546875 C 90.945312 -20.203125 91.734375 -17.414062 91.734375 -14.1875 C 91.734375 -9.71875 90.101562 -6.125 86.84375 -3.40625 C 83.582031 -0.695312 79.019531 0.65625 73.15625 0.65625 C 68.238281 0.65625 63.6875 -0.296875 59.5 -2.203125 C 55.320312 -4.109375 51.695312 -6.304688 48.625 -8.796875 C 47.519531 -5.867188 45.460938 -3.5625 42.453125 -1.875 C 39.453125 -0.1875 35.640625 0.65625 31.015625 0.65625 C 26.109375 0.65625 21.65625 -0.347656 17.65625 -2.359375 C 13.65625 -4.378906 10.265625 -6.597656 7.484375 -9.015625 L 10.234375 -13.09375 C 12.648438 -11.039062 15.25 -9.351562 18.03125 -8.03125 C 20.820312 -6.707031 23.832031 -6.046875 27.0625 -6.046875 C 31.3125 -6.046875 34.5 -7.015625 36.625 -8.953125 C 38.75 -10.898438 39.8125 -13.34375 39.8125 -16.28125 C 39.8125 -18.40625 39.242188 -20.4375 38.109375 -22.375 C 36.972656 -24.320312 35.523438 -25.992188 33.765625 -27.390625 Z M 81.953125 -16.28125 C 81.953125 -19.507812 80.757812 -22.476562 78.375 -25.1875 C 75.988281 -27.90625 73.296875 -29.882812 70.296875 -31.125 L 41.25 -28.265625 C 43.445312 -26.878906 45.390625 -25.046875 47.078125 -22.765625 C 48.765625 -20.492188 49.609375 -17.78125 49.609375 -14.625 C 52.472656 -12.132812 55.515625 -10.082031 58.734375 -8.46875 C 61.960938 -6.851562 65.410156 -6.046875 69.078125 -6.046875 C 73.398438 -6.046875 76.625 -7.015625 78.75 -8.953125 C 80.882812 -10.898438 81.953125 -13.34375 81.953125 -16.28125 Z M 81.953125 -16.28125 "/>
</symbol>
<symbol overflow="visible" id="gujarati-haln:id2:glyph0-2">
<path style="stroke:none;" d="M 0 6.265625 C -1.613281 6.265625 -2.988281 5.804688 -4.125 4.890625 C -5.257812 3.972656 -5.828125 2.34375 -5.828125 0 C -5.828125 -2.34375 -5.257812 -3.972656 -4.125 -4.890625 C -2.988281 -5.804688 -1.613281 -6.265625 0 -6.265625 C 1.613281 -6.265625 2.988281 -5.804688 4.125 -4.890625 C 5.257812 -3.972656 5.828125 -2.34375 5.828125 0 C 5.828125 2.34375 5.257812 3.972656 4.125 4.890625 C 2.988281 5.804688 1.613281 6.265625 0 6.265625 Z M 0 6.265625 "/>
</symbol>
<symbol overflow="visible" id="gujarati-haln:id2:glyph0-3">
<path style="stroke:none;" d="M 18.375 28.046875 C 16.613281 26.066406 14.664062 23.882812 12.53125 21.5 C 10.40625 19.125 8.0625 17.070312 5.5 15.34375 C 2.9375 13.625 0.148438 12.765625 -2.859375 12.765625 C -5.054688 12.765625 -7.109375 13.054688 -9.015625 13.640625 L -11.546875 5.609375 C -10.890625 5.460938 -9.9375 5.296875 -8.6875 5.109375 C -7.4375 4.929688 -6.226562 4.84375 -5.0625 4.84375 C -2.789062 4.84375 -0.738281 5.113281 1.09375 5.65625 C 2.925781 6.207031 4.773438 7.253906 6.640625 8.796875 C 8.515625 10.335938 10.660156 12.5 13.078125 15.28125 C 15.503906 18.070312 18.441406 21.742188 21.890625 26.296875 Z M 18.375 28.046875 "/>
</symbol>
</g>
</defs>
  <g id="gujarati-haln:id0:id0" transform="matrix(1.25,0,0,1.25,0.0,0.0)"><g id="gujarati-haln:id0:surface1">
<g style="fill:rgb(0%,0%,0%);fill-opacity:1;">
  <use xlink:href="#gujarati-haln:id0:glyph0-1" x="16" y="111.671875" class="c0"/>
  <use xlink:href="#gujarati-haln:id0:glyph0-2" x="113.796875" y="111.671875" class="c1"/>
  <use xlink:href="#gujarati-haln:id0:glyph0-3" x="113.796875" y="111.671875" class="c2"/>
</g>
</g>
</g>
  <g id="gujarati-haln:id1:id1" transform="matrix(1.25,0,0,1.25,162.24609375,1.279296875)"><g id="gujarati-haln:id1:surface1">
<g style="fill:rgb(0%,0%,0%);fill-opacity:1;">
  <use xlink:href="#gujarati-haln:id1:glyph0-1" x="0" y="120.84375" class="arrow"/>
</g>
</g>
</g>
  <g id="gujarati-haln:id2:id2" transform="matrix(1.25,0,0,1.25,294.84375,0.0)"><g id="gujarati-haln:id2:surface1">
<g style="fill:rgb(0%,0%,0%);fill-opacity:1;">
  <use xlink:href="#gujarati-haln:id2:glyph0-1" x="16" y="111.671875" class="c0"/>
  <use xlink:href="#gujarati-haln:id2:glyph0-2" x="113.796875" y="111.671875" class="c1"/>
  <use xlink:href="#gujarati-haln:id2:glyph0-3" x="113.796875" y="111.671875" class="c2"/>
</g>
</g>
</g>
</svg>