<!DOCTYPE svg PUBLIC "-//W3C//DTD SVG 1.1//EN" "http://www.w3.org/Graphics/SVG/1.1/DTD/svg11.dtd">
<!-- Created with svg_stack (http://github.com/astraw/svg_stack) --><svg xmlns="http://www.w3.org/2000/svg" xmlns:sodipodi="http://sodipodi.sourceforge.net/DTD/sodipodi-0.dtd" xmlns:xlink="http://www.w3.org/1999/xlink" version="1.1" width="100%" id="gujarati-half" viewBox="0 0 551.953125 203.96484375">
  <defs><g>
<symbol overflow="visible" id="gujarati-half:id0:glyph0-0">
<path style="stroke:none;" d="M 10.453125 0 L 10.453125 -78.546875 L 55.546875 -78.546875 L 55.546875 0 Z M 16.0625 -5.609375 L 50.046875 -5.609375 L 50.046875 -72.9375 L 16.0625 -72.9375 Z M 16.0625 -5.609375 "/>
</symbol>
<symbol overflow="visible" id="gujarati-half:id0:glyph0-1">
<path style="stroke:none;" d="M 21.015625 -14.734375 C 18.222656 -16.640625 15.597656 -19.023438 13.140625 -21.890625 C 10.679688 -24.753906 8.679688 -27.976562 7.140625 -31.5625 C 5.609375 -35.15625 4.84375 -38.9375 4.84375 -42.90625 C 4.84375 -47.300781 5.882812 -51.222656 7.96875 -54.671875 C 10.0625 -58.117188 12.957031 -60.847656 16.65625 -62.859375 C 20.363281 -64.878906 24.566406 -65.890625 29.265625 -65.890625 C 32.046875 -65.890625 34.222656 -65.539062 35.796875 -64.84375 C 37.378906 -64.144531 38.832031 -63.25 40.15625 -62.15625 C 42.0625 -60.539062 43.394531 -59.179688 44.15625 -58.078125 C 44.925781 -56.984375 45.382812 -55.71875 45.53125 -54.28125 C 45.6875 -52.851562 45.765625 -50.820312 45.765625 -48.1875 L 45.765625 -43.453125 C 48.398438 -43.234375 51.347656 -42.828125 54.609375 -42.234375 C 57.878906 -41.648438 60.976562 -40.921875 63.90625 -40.046875 L 63.90625 -67.3125 L 72.703125 -63.6875 L 72.703125 -6.703125 C 72.703125 -5.972656 73.035156 -5.609375 73.703125 -5.609375 C 75.023438 -5.609375 76.472656 -6.03125 78.046875 -6.875 C 79.617188 -7.71875 80.992188 -8.835938 82.171875 -10.234375 L 86.796875 -2.75 C 85.835938 -2.019531 84.679688 -1.285156 83.328125 -0.546875 C 81.972656 0.179688 80.414062 0.546875 78.65625 0.546875 C 77.039062 0.546875 75.515625 0.195312 74.078125 -0.5 C 72.648438 -1.195312 71.128906 -2.164062 69.515625 -3.40625 C 67.242188 -5.164062 65.738281 -6.78125 65 -8.25 C 64.269531 -9.71875 63.90625 -11.550781 63.90625 -13.75 L 63.90625 -13.96875 L 36.40625 0.875 L 31.453125 -6.9375 L 63.90625 -22.765625 L 63.90625 -34.546875 L 45.765625 -34.546875 L 45.765625 -29.046875 C 45.765625 -27.210938 45.453125 -25.875 44.828125 -25.03125 C 44.203125 -24.1875 43.117188 -23.765625 41.578125 -23.765625 C 39.742188 -23.765625 37.835938 -24.476562 35.859375 -25.90625 C 33.878906 -27.332031 32.207031 -29.109375 30.84375 -31.234375 C 29.488281 -33.367188 28.8125 -35.425781 28.8125 -37.40625 C 28.8125 -39.09375 29.34375 -40.503906 30.40625 -41.640625 C 31.476562 -42.773438 33.625 -43.488281 36.84375 -43.78125 L 36.84375 -58.40625 C 36.332031 -58.40625 35.835938 -58.40625 35.359375 -58.40625 C 34.890625 -58.40625 34.429688 -58.367188 33.984375 -58.296875 C 27.535156 -57.785156 22.367188 -55.769531 18.484375 -52.25 C 14.597656 -48.726562 12.65625 -44.070312 12.65625 -38.28125 C 12.65625 -34.175781 13.753906 -30.472656 15.953125 -27.171875 C 18.148438 -23.867188 20.863281 -20.9375 24.09375 -18.375 Z M 21.015625 -14.734375 "/>
</symbol>
<symbol overflow="visible" id="gujarati-half:id0:glyph0-2">
<path style="stroke:none;" d="M 32.78125 -53.6875 C 32.050781 -53.6875 31.390625 -53.976562 30.796875 -54.5625 C 30.210938 -55.144531 29.921875 -55.804688 29.921875 -56.546875 C 29.921875 -57.347656 30.210938 -58.023438 30.796875 -58.578125 C 31.390625 -59.128906 32.050781 -59.40625 32.78125 -59.40625 C 33.582031 -59.40625 34.257812 -59.128906 34.8125 -58.578125 C 35.363281 -58.023438 35.640625 -57.347656 35.640625 -56.546875 C 35.640625 -55.804688 35.363281 -55.144531 34.8125 -54.5625 C 34.257812 -53.976562 33.582031 -53.6875 32.78125 -53.6875 Z M 23.546875 -51.703125 C 22.804688 -51.703125 22.144531 -51.992188 21.5625 -52.578125 C 20.976562 -53.160156 20.6875 -53.820312 20.6875 -54.5625 C 20.6875 -55.363281 20.976562 -56.039062 21.5625 -56.59375 C 22.144531 -57.144531 22.804688 -57.421875 23.546875 -57.421875 C 24.347656 -57.421875 25.023438 -57.144531 25.578125 -56.59375 C 26.128906 -56.039062 26.40625 -55.363281 26.40625 -54.5625 C 26.40625 -53.820312 26.128906 -53.160156 25.578125 -52.578125 C 25.023438 -51.992188 24.347656 -51.703125 23.546875 -51.703125 Z M 42.015625 -51.703125 C 41.285156 -51.703125 40.625 -51.992188 40.03125 -52.578125 C 39.445312 -53.160156 39.15625 -53.820312 39.15625 -54.5625 C 39.15625 -55.363281 39.445312 -56.039062 40.03125 -56.59375 C 40.625 -57.144531 41.285156 -57.421875 42.015625 -57.421875 C 42.828125 -57.421875 43.503906 -57.144531 44.046875 -56.59375 C 44.597656 -56.039062 44.875 -55.363281 44.875 -54.5625 C 44.875 -53.820312 44.597656 -53.160156 44.046875 -52.578125 C 43.503906 -51.992188 42.828125 -51.703125 42.015625 -51.703125 Z M 50.15625 -46.53125 C 49.425781 -46.53125 48.765625 -46.820312 48.171875 -47.40625 C 47.585938 -48 47.296875 -48.660156 47.296875 -49.390625 C 47.296875 -50.191406 47.585938 -50.867188 48.171875 -51.421875 C 48.765625 -51.972656 49.425781 -52.25 50.15625 -52.25 C 50.96875 -52.25 51.644531 -51.972656 52.1875 -51.421875 C 52.738281 -50.867188 53.015625 -50.191406 53.015625 -49.390625 C 53.015625 -48.660156 52.738281 -48 52.1875 -47.40625 C 51.644531 -46.820312 50.96875 -46.53125 50.15625 -46.53125 Z M 15.40625 -46.53125 C 14.664062 -46.53125 14.003906 -46.820312 13.421875 -47.40625 C 12.835938 -48 12.546875 -48.660156 12.546875 -49.390625 C 12.546875 -50.191406 12.835938 -50.867188 13.421875 -51.421875 C 14.003906 -51.972656 14.664062 -52.25 15.40625 -52.25 C 16.207031 -52.25 16.882812 -51.972656 17.4375 -51.421875 C 17.988281 -50.867188 18.265625 -50.191406 18.265625 -49.390625 C 18.265625 -48.660156 17.988281 -48 17.4375 -47.40625 C 16.882812 -46.820312 16.207031 -46.53125 15.40625 -46.53125 Z M 10.234375 -38.390625 C 9.492188 -38.390625 8.832031 -38.679688 8.25 -39.265625 C 7.664062 -39.859375 7.375 -40.519531 7.375 -41.25 C 7.375 -42.050781 7.664062 -42.726562 8.25 -43.28125 C 8.832031 -43.832031 9.492188 -44.109375 10.234375 -44.109375 C 11.035156 -44.109375 11.710938 -43.832031 12.265625 -43.28125 C 12.816406 -42.726562 13.09375 -42.050781 13.09375 -41.25 C 13.09375 -40.519531 12.816406 -39.859375 12.265625 -39.265625 C 11.710938 -38.679688 11.035156 -38.390625 10.234375 -38.390625 Z M 55.328125 -38.390625 C 54.597656 -38.390625 53.9375 -38.679688 53.34375 -39.265625 C 52.757812 -39.859375 52.46875 -40.519531 52.46875 -41.25 C 52.46875 -42.050781 52.757812 -42.726562 53.34375 -43.28125 C 53.9375 -43.832031 54.597656 -44.109375 55.328125 -44.109375 C 56.140625 -44.109375 56.816406 -43.832031 57.359375 -43.28125 C 57.910156 -42.726562 58.1875 -42.050781 58.1875 -41.25 C 58.1875 -40.519531 57.910156 -39.859375 57.359375 -39.265625 C 56.816406 -38.679688 56.140625 -38.390625 55.328125 -38.390625 Z M 8.25 -29.15625 C 7.519531 -29.15625 6.859375 -29.445312 6.265625 -30.03125 C 5.679688 -30.613281 5.390625 -31.273438 5.390625 -32.015625 C 5.390625 -32.816406 5.679688 -33.492188 6.265625 -34.046875 C 6.859375 -34.597656 7.519531 -34.875 8.25 -34.875 C 9.050781 -34.875 9.726562 -34.597656 10.28125 -34.046875 C 10.832031 -33.492188 11.109375 -32.816406 11.109375 -32.015625 C 11.109375 -31.273438 10.832031 -30.613281 10.28125 -30.03125 C 9.726562 -29.445312 9.050781 -29.15625 8.25 -29.15625 Z M 57.3125 -29.15625 C 56.570312 -29.15625 55.910156 -29.445312 55.328125 -30.03125 C 54.742188 -30.613281 54.453125 -31.273438 54.453125 -32.015625 C 54.453125 -32.816406 54.742188 -33.492188 55.328125 -34.046875 C 55.910156 -34.597656 56.570312 -34.875 57.3125 -34.875 C 58.113281 -34.875 58.789062 -34.597656 59.34375 -34.046875 C 59.894531 -33.492188 60.171875 -32.816406 60.171875 -32.015625 C 60.171875 -31.273438 59.894531 -30.613281 59.34375 -30.03125 C 58.789062 -29.445312 58.113281 -29.15625 57.3125 -29.15625 Z M 10.234375 -19.90625 C 9.492188 -19.90625 8.832031 -20.195312 8.25 -20.78125 C 7.664062 -21.375 7.375 -22.035156 7.375 -22.765625 C 7.375 -23.578125 7.664062 -24.253906 8.25 -24.796875 C 8.832031 -25.347656 9.492188 -25.625 10.234375 -25.625 C 11.035156 -25.625 11.710938 -25.347656 12.265625 -24.796875 C 12.816406 -24.253906 13.09375 -23.578125 13.09375 -22.765625 C 13.09375 -22.035156 12.816406 -21.375 12.265625 -20.78125 C 11.710938 -20.195312 11.035156 -19.90625 10.234375 -19.90625 Z M 55.328125 -19.90625 C 54.597656 -19.90625 53.9375 -20.195312 53.34375 -20.78125 C 52.757812 -21.375 52.46875 -22.035156 52.46875 -22.765625 C 52.46875 -23.578125 52.757812 -24.253906 53.34375 -24.796875 C 53.9375 -25.347656 54.597656 -25.625 55.328125 -25.625 C 56.140625 -25.625 56.816406 -25.347656 57.359375 -24.796875 C 57.910156 -24.253906 58.1875 -23.578125 58.1875 -22.765625 C 58.1875 -22.035156 57.910156 -21.375 57.359375 -20.78125 C 56.816406 -20.195312 56.140625 -19.90625 55.328125 -19.90625 Z M 15.40625 -11.765625 C 14.664062 -11.765625 14.003906 -12.054688 13.421875 -12.640625 C 12.835938 -13.234375 12.546875 -13.894531 12.546875 -14.625 C 12.546875 -15.4375 12.835938 -16.113281 13.421875 -16.65625 C 14.003906 -17.207031 14.664062 -17.484375 15.40625 -17.484375 C 16.207031 -17.484375 16.882812 -17.207031 17.4375 -16.65625 C 17.988281 -16.113281 18.265625 -15.4375 18.265625 -14.625 C 18.265625 -13.894531 17.988281 -13.234375 17.4375 -12.640625 C 16.882812 -12.054688 16.207031 -11.765625 15.40625 -11.765625 Z M 50.15625 -11.765625 C 49.425781 -11.765625 48.765625 -12.054688 48.171875 -12.640625 C 47.585938 -13.234375 47.296875 -13.894531 47.296875 -14.625 C 47.296875 -15.4375 47.585938 -16.113281 48.171875 -16.65625 C 48.765625 -17.207031 49.425781 -17.484375 50.15625 -17.484375 C 50.96875 -17.484375 51.644531 -17.207031 52.1875 -16.65625 C 52.738281 -16.113281 53.015625 -15.4375 53.015625 -14.625 C 53.015625 -13.894531 52.738281 -13.234375 52.1875 -12.640625 C 51.644531 -12.054688 50.96875 -11.765625 50.15625 -11.765625 Z M 23.546875 -6.59375 C 22.804688 -6.59375 22.144531 -6.882812 21.5625 -7.46875 C 20.976562 -8.0625 20.6875 -8.722656 20.6875 -9.453125 C 20.6875 -10.265625 20.976562 -10.941406 21.5625 -11.484375 C 22.144531 -12.035156 22.804688 -12.3125 23.546875 -12.3125 C 24.347656 -12.3125 25.023438 -12.035156 25.578125 -11.484375 C 26.128906 -10.941406 26.40625 -10.265625 26.40625 -9.453125 C 26.40625 -8.722656 26.128906 -8.0625 25.578125 -7.46875 C 25.023438 -6.882812 24.347656 -6.59375 23.546875 -6.59375 Z M 42.015625 -6.59375 C 41.285156 -6.59375 40.625 -6.882812 40.03125 -7.46875 C 39.445312 -8.0625 39.15625 -8.722656 39.15625 -9.453125 C 39.15625 -10.265625 39.445312 -10.941406 40.03125 -11.484375 C 40.625 -12.035156 41.285156 -12.3125 42.015625 -12.3125 C 42.828125 -12.3125 43.503906 -12.035156 44.046875 -11.484375 C 44.597656 -10.941406 44.875 -10.265625 44.875 -9.453125 C 44.875 -8.722656 44.597656 -8.0625 44.046875 -7.46875 C 43.503906 -6.882812 42.828125 -6.59375 42.015625 -6.59375 Z M 32.78125 -4.625 C 32.050781 -4.625 31.390625 -4.914062 30.796875 -5.5 C 30.210938 -6.082031 29.921875 -6.742188 29.921875 -7.484375 C 29.921875 -8.285156 30.210938 -8.960938 30.796875 -9.515625 C 31.390625 -10.066406 32.050781 -10.34375 32.78125 -10.34375 C 33.582031 -10.34375 34.257812 -10.066406 34.8125 -9.515625 C 35.363281 -8.960938 35.640625 -8.285156 35.640625 -7.484375 C 35.640625 -6.742188 35.363281 -6.082031 34.8125 -5.5 C 34.257812 -4.914062 33.582031 -4.625 32.78125 -4.625 Z M 32.78125 -4.625 "/>
</symbol>
<symbol overflow="visible" id="gujarati-half:id0:glyph0-3">
<path style="stroke:none;" d="M 18.375 28.046875 C 16.613281 26.066406 14.664062 23.882812 12.53125 21.5 C 10.40625 19.125 8.0625 17.070312 5.5 15.34375 C 2.9375 13.625 0.148438 12.765625 -2.859375 12.765625 C -5.054688 12.765625 -7.109375 13.054688 -9.015625 13.640625 L -11.546875 5.609375 C -10.890625 5.460938 -9.9375 5.296875 -8.6875 5.109375 C -7.4375 4.929688 -6.226562 4.84375 -5.0625 4.84375 C -2.789062 4.84375 -0.738281 5.113281 1.09375 5.65625 C 2.925781 6.207031 4.773438 7.253906 6.640625 8.796875 C 8.515625 10.335938 10.660156 12.5 13.078125 15.28125 C 15.503906 18.070312 18.441406 21.742188 21.890625 26.296875 Z M 18.375 28.046875 "/>
</symbol>
</g>
<g>
<symbol overflow="visible" id="gujarati-half:id1:glyph0-0">
<path style="stroke:none;" d="M 5.375 -96.6875 L 69.828125 -96.6875 L 69.828125 0 L 5.375 0 Z M 8.0625 -2.6875 L 67.140625 -2.6875 L 67.140625 -94 L 8.0625 -94 Z M 8.0625 -2.6875 "/>
</symbol>
<symbol overflow="visible" id="gujarati-half:id1:glyph0-1">
<path style="stroke:none;" d="M 68.15625 -13.75 L 66.28125 -18.640625 L 88.09375 -27.390625 L 6.984375 -27.390625 L 6.984375 -34 L 88.09375 -34 L 66.28125 -42.75 L 68.15625 -47.640625 L 99.09375 -34.265625 L 99.09375 -27.125 Z M 68.15625 -13.75 "/>
</symbol>
</g>
<g>
<symbol overflow="visible" id="gujarati-half:id2:glyph0-0">
<path style="stroke:none;" d="M 10.453125 0 L 10.453125 -78.546875 L 55.546875 -78.546875 L 55.546875 0 Z M 16.0625 -5.609375 L 50.046875 -5.609375 L 50.046875 -72.9375 L 16.0625 -72.9375 Z M 16.0625 -5.609375 "/>
</symbol>
<symbol overflow="visible" id="gujarati-half:id2:glyph0-1">
<path style="stroke:none;" d="M 21.015625 -14.734375 C 18.222656 -16.640625 15.597656 -19.023438 13.140625 -21.890625 C 10.679688 -24.753906 8.679688 -27.976562 7.140625 -31.5625 C 5.609375 -35.15625 4.84375 -38.9375 4.84375 -42.90625 C 4.84375 -47.300781 5.882812 -51.222656 7.96875 -54.671875 C 10.0625 -58.117188 12.957031 -60.847656 16.65625 -62.859375 C 20.363281 -64.878906 24.566406 -65.890625 29.265625 -65.890625 C 32.046875 -65.890625 34.222656 -65.539062 35.796875 -64.84375 C 37.378906 -64.144531 38.832031 -63.25 40.15625 -62.15625 C 42.0625 -60.539062 43.394531 -59.179688 44.15625 -58.078125 C 44.925781 -56.984375 45.382812 -55.71875 45.53125 -54.28125 C 45.6875 -52.851562 45.765625 -50.820312 45.765625 -48.1875 L 45.765625 -43.5625 C 48.109375 -43.269531 50.742188 -42.898438 53.671875 -42.453125 C 56.609375 -42.015625 59.5625 -41.503906 62.53125 -40.921875 C 65.5 -40.335938 68.234375 -39.675781 70.734375 -38.9375 L 70.734375 -34.546875 L 45.765625 -34.546875 L 45.765625 -29.046875 C 45.765625 -27.210938 45.453125 -25.875 44.828125 -25.03125 C 44.203125 -24.1875 43.117188 -23.765625 41.578125 -23.765625 C 39.742188 -23.765625 37.835938 -24.476562 35.859375 -25.90625 C 33.878906 -27.332031 32.207031 -29.109375 30.84375 -31.234375 C 29.488281 -33.367188 28.8125 -35.425781 28.8125 -37.40625 C 28.8125 -39.09375 29.34375 -40.503906 30.40625 -41.640625 C 31.476562 -42.773438 33.625 -43.488281 36.84375 -43.78125 L 36.84375 -58.40625 C 36.332031 -58.40625 35.835938 -58.40625 35.359375 -58.40625 C 34.890625 -58.40625 34.429688 -58.367188 33.984375 -58.296875 C 27.535156 -57.785156 22.367188 -55.769531 18.484375 -52.25 C 14.597656 -48.726562 12.65625 -44.070312 12.65625 -38.28125 C 12.65625 -34.175781 13.753906 -30.472656 15.953125 -27.171875 C 18.148438 -23.867188 20.863281 -20.9375 24.09375 -18.375 Z M 36.40625 0.875 L 31.453125 -6.9375 L 71.0625 -26.1875 L 74.796875 -18.8125 Z M 36.40625 0.875 "/>
</symbol>
<symbol overflow="visible" id="gujarati-half:id2:glyph0-2">
<path style="stroke:none;" d="M 32.78125 -53.6875 C 32.050781 -53.6875 31.390625 -53.976562 30.796875 -54.5625 C 30.210938 -55.144531 29.921875 -55.804688 29.921875 -56.546875 C 29.921875 -57.347656 30.210938 -58.023438 30.796875 -58.578125 C 31.390625 -59.128906 32.050781 -59.40625 32.78125 -59.40625 C 33.582031 -59.40625 34.257812 -59.128906 34.8125 -58.578125 C 35.363281 -58.023438 35.640625 -57.347656 35.640625 -56.546875 C 35.640625 -55.804688 35.363281 -55.144531 34.8125 -54.5625 C 34.257812 -53.976562 33.582031 -53.6875 32.78125 -53.6875 Z M 23.546875 -51.703125 C 22.804688 -51.703125 22.144531 -51.992188 21.5625 -52.578125 C 20.976562 -53.160156 20.6875 -53.820312 20.6875 -54.5625 C 20.6875 -55.363281 20.976562 -56.039062 21.5625 -56.59375 C 22.144531 -57.144531 22.804688 -57.421875 23.546875 -57.421875 C 24.347656 -57.421875 25.023438 -57.144531 25.578125 -56.59375 C 26.128906 -56.039062 26.40625 -55.363281 26.40625 -54.5625 C 26.40625 -53.820312 26.128906 -53.160156 25.578125 -52.578125 C 25.023438 -51.992188 24.347656 -51.703125 23.546875 -51.703125 Z M 42.015625 -51.703125 C 41.285156 -51.703125 40.625 -51.992188 40.03125 -52.578125 C 39.445312 -53.160156 39.15625 -53.820312 39.15625 -54.5625 C 39.15625 -55.363281 39.445312 -56.039062 40.03125 -56.59375 C 40.625 -57.144531 41.285156 -57.421875 42.015625 -57.421875 C 42.828125 -57.421875 43.503906 -57.144531 44.046875 -56.59375 C 44.597656 -56.039062 44.875 -55.363281 44.875 -54.5625 C 44.875 -53.820312 44.597656 -53.160156 44.046875 -52.578125 C 43.503906 -51.992188 42.828125 -51.703125 42.015625 -51.703125 Z M 50.15625 -46.53125 C 49.425781 -46.53125 48.765625 -46.820312 48.171875 -47.40625 C 47.585938 -48 47.296875 -48.660156 47.296875 -49.390625 C 47.296875 -50.191406 47.585938 -50.867188 48.171875 -51.421875 C 48.765625 -51.972656 49.425781 -52.25 50.15625 -52.25 C 50.96875 -52.25 51.644531 -51.972656 52.1875 -51.421875 C 52.738281 -50.867188 53.015625 -50.191406 53.015625 -49.390625 C 53.015625 -48.660156 52.738281 -48 52.1875 -47.40625 C 51.644531 -46.820312 50.96875 -46.53125 50.15625 -46.53125 Z M 15.40625 -46.53125 C 14.664062 -46.53125 14.003906 -46.820312 13.421875 -47.40625 C 12.835938 -48 12.546875 -48.660156 12.546875 -49.390625 C 12.546875 -50.191406 12.835938 -50.867188 13.421875 -51.421875 C 14.003906 -51.972656 14.664062 -52.25 15.40625 -52.25 C 16.207031 -52.25 16.882812 -51.972656 17.4375 -51.421875 C 17.988281 -50.867188 18.265625 -50.191406 18.265625 -49.390625 C 18.265625 -48.660156 17.988281 -48 17.4375 -47.40625 C 16.882812 -46.820312 16.207031 -46.53125 15.40625 -46.53125 Z M 10.234375 -38.390625 C 9.492188 -38.390625 8.832031 -38.679688 8.25 -39.265625 C 7.664062 -39.859375 7.375 -40.519531 7.375 -41.25 C 7.375 -42.050781 7.664062 -42.726562 8.25 -43.28125 C 8.832031 -43.832031 9.492188 -44.109375 10.234375 -44.109375 C 11.035156 -44.109375 11.710938 -43.832031 12.265625 -43.28125 C 12.816406 -42.726562 13.09375 -42.050781 13.09375 -41.25 C 13.09375 -40.519531 12.816406 -39.859375 12.265625 -39.265625 C 11.710938 -38.679688 11.035156 -38.390625 10.234375 -38.390625 Z M 55.328125 -38.390625 C 54.597656 -38.390625 53.9375 -38.679688 53.34375 -39.265625 C 52.757812 -39.859375 52.46875 -40.519531 52.46875 -41.25 C 52.46875 -42.050781 52.757812 -42.726562 53.34375 -43.28125 C 53.9375 -43.832031 54.597656 -44.109375 55.328125 -44.109375 C 56.140625 -44.109375 56.816406 -43.832031 57.359375 -43.28125 C 57.910156 -42.726562 58.1875 -42.050781 58.1875 -41.25 C 58.1875 -40.519531 57.910156 -39.859375 57.359375 -39.265625 C 56.816406 -38.679688 56.140625 -38.390625 55.328125 -38.390625 Z M 8.25 -29.15625 C 7.519531 -29.15625 6.859375 -29.445312 6.265625 -30.03125 C 5.679688 -30.613281 5.390625 -31.273438 5.390625 -32.015625 C 5.390625 -32.816406 5.679688 -33.492188 6.265625 -34.046875 C 6.859375 -34.597656 7.519531 -34.875 8.25 -34.875 C 9.050781 -34.875 9.726562 -34.597656 10.28125 -34.046875 C 10.832031 -33.492188 11.109375 -32.816406 11.109375 -32.015625 C 11.109375 -31.273438 10.832031 -30.613281 10.28125 -30.03125 C 9.726562 -29.445312 9.050781 -29.15625 8.25 -29.15625 Z M 57.3125 -29.15625 C 56.570312 -29.15625 55.910156 -29.445312 55.328125 -30.03125 C 54.742188 -30.613281 54.453125 -31.273438 54.453125 -32.015625 C 54.453125 -32.816406 54.742188 -33.492188 55.328125 -34.046875 C 55.910156 -34.597656 56.570312 -34.875 57.3125 -34.875 C 58.113281 -34.875 58.789062 -34.597656 59.34375 -34.046875 C 59.894531 -33.492188 60.171875 -32.816406 60.171875 -32.015625 C 60.171875 -31.273438 59.894531 -30.613281 59.34375 -30.03125 C 58.789062 -29.445312 58.113281 -29.15625 57.3125 -29.15625 Z M 10.234375 -19.90625 C 9.492188 -19.90625 8.832031 -20.195312 8.25 -20.78125 C 7.664062 -21.375 7.375 -22.035156 7.375 -22.765625 C 7.375 -23.578125 7.664062 -24.253906 8.25 -24.796875 C 8.832031 -25.347656 9.492188 -25.625 10.234375 -25.625 C 11.035156 -25.625 11.710938 -25.347656 12.265625 -24.796875 C 12.816406 -24.253906 13.09375 -23.578125 13.09375 -22.765625 C 13.09375 -22.035156 12.816406 -21.375 12.265625 -20.78125 C 11.710938 -20.195312 11.035156 -19.90625 10.234375 -19.90625 Z M 55.328125 -19.90625 C 54.597656 -19.90625 53.9375 -20.195312 53.34375 -20.78125 C 52.757812 -21.375 52.46875 -22.035156 52.46875 -22.765625 C 52.46875 -23.578125 52.757812 -24.253906 53.34375 -24.796875 C 53.9375 -25.347656 54.597656 -25.625 55.328125 -25.625 C 56.140625 -25.625 56.816406 -25.347656 57.359375 -24.796875 C 57.910156 -24.253906 58.1875 -23.578125 58.1875 -22.765625 C 58.1875 -22.035156 57.910156 -21.375 57.359375 -20.78125 C 56.816406 -20.195312 56.140625 -19.90625 55.328125 -19.90625 Z M 15.40625 -11.765625 C 14.664062 -11.765625 14.003906 -12.054688 13.421875 -12.640625 C 12.835938 -13.234375 12.546875 -13.894531 12.546875 -14.625 C 12.546875 -15.4375 12.835938 -16.113281 13.421875 -16.65625 C 14.003906 -17.207031 14.664062 -17.484375 15.40625 -17.484375 C 16.207031 -17.484375 16.882812 -17.207031 17.4375 -16.65625 C 17.988281 -16.113281 18.265625 -15.4375 18.265625 -14.625 C 18.265625 -13.894531 17.988281 -13.234375 17.4375 -12.640625 C 16.882812 -12.054688 16.207031 -11.765625 15.40625 -11.765625 Z M 50.15625 -11.765625 C 49.425781 -11.765625 48.765625 -12.054688 48.171875 -12.640625 C 47.585938 -13.234375 47.296875 -13.894531 47.296875 -14.625 C 47.296875 -15.4375 47.585938 -16.113281 48.171875 -16.65625 C 48.765625 -17.207031 49.425781 -17.484375 50.15625 -17.484375 C 50.96875 -17.484375 51.644531 -17.207031 52.1875 -16.65625 C 52.738281 -16.113281 53.015625 -15.4375 53.015625 -14.625 C 53.015625 -13.894531 52.738281 -13.234375 52.1875 -12.640625 C 51.644531 -12.054688 50.96875 -11.765625 50.15625 -11.765625 Z M 23.546875 -6.59375 C 22.804688 -6.59375 22.144531 -6.882812 21.5625 -7.46875 C 20.976562 -8.0625 20.6875 -8.722656 20.6875 -9.453125 C 20.6875 -10.265625 20.976562 -10.941406 21.5625 -11.484375 C 22.144531 -12.035156 22.804688 -12.3125 23.546875 -12.3125 C 24.347656 -12.3125 25.023438 -12.035156 25.578125 -11.484375 C 26.128906 -10.941406 26.40625 -10.265625 26.40625 -9.453125 C 26.40625 -8.722656 26.128906 -8.0625 25.578125 -7.46875 C 25.023438 -6.882812 24.347656 -6.59375 23.546875 -6.59375 Z M 42.015625 -6.59375 C 41.285156 -6.59375 40.625 -6.882812 40.03125 -7.46875 C 39.445312 -8.0625 39.15625 -8.722656 39.15625 -9.453125 C 39.15625 -10.265625 39.445312 -10.941406 40.03125 -11.484375 C 40.625 -12.035156 41.285156 -12.3125 42.015625 -12.3125 C 42.828125 -12.3125 43.503906 -12.035156 44.046875 -11.484375 C 44.597656 -10.941406 44.875 -10.265625 44.875 -9.453125 C 44.875 -8.722656 44.597656 -8.0625 44.046875 -7.46875 C 43.503906 -6.882812 42.828125 -6.59375 42.015625 -6.59375 Z M 32.78125 -4.625 C 32.050781 -4.625 31.390625 -4.914062 30.796875 -5.5 C 30.210938 -6.082031 29.921875 -6.742188 29.921875 -7.484375 C 29.921875 -8.285156 30.210938 -8.960938 30.796875 -9.515625 C 31.390625 -10.066406 32.050781 -10.34375 32.78125 -10.34375 C 33.582031 -10.34375 34.257812 -10.066406 34.8125 -9.515625 C 35.363281 -8.960938 35.640625 -8.285156 35.640625 -7.484375 C 35.640625 -6.742188 35.363281 -6.082031 34.8125 -5.5 C 34.257812 -4.914062 33.582031 -4.625 32.78125 -4.625 Z M 32.78125 -4.625 "/>
</symbol>
</g>
</defs>
  <g id="gujarati-half:id0:id0" transform="matrix(1.25,0,0,1.25,0.0,0.0)"><g id="gujarati-half:id0:surface1">
<g style="fill:rgb(0%,0%,0%);fill-opacity:1;">
  <use xlink:href="#gujarati-half:id0:glyph0-1" x="16" y="111.671875" class="c0"/>
  <use xlink:href="#gujarati-half:id0:glyph0-2" x="98.171875" y="111.671875" class="dc"/>
  <use xlink:href="#gujarati-half:id0:glyph0-3" x="130.953125" y="111.671875" class="c1"/>
</g>
</g>
</g>
  <g id="gujarati-half:id1:id1" transform="matrix(1.25,0,0,1.25,224.66796875,1.279296875)"><g id="gujarati-half:id1:surface1">
<g style="fill:rgb(0%,0%,0%);fill-opacity:1;">
  <use xlink:href="#gujarati-half:id1:glyph0-1" x="0" y="120.84375" class="arrow"/>
</g>
</g>
</g>
  <g id="gujarati-half:id2:id2" transform="matrix(1.25,0,0,1.25,357.265625,0.0)"><g id="gujarati-half:id2:surface1">
<g style="fill:rgb(0%,0%,0%);fill-opacity:1;">
  <use xlink:href="#gujarati-half:id2:glyph0-1" x="16" y="111.671875" class="c0"/>
  <use xlink:href="#gujarati-half:id2:glyph0-2" x="74.1875" y="111.671875" class="dc"/>
</g>
</g>
</g>
</svg>
