<?xml version="1.0" standalone="no"?>
<!DOCTYPE svg PUBLIC "-//W3C//DTD SVG 1.1//EN"
 "http://www.w3.org/Graphics/SVG/1.1/DTD/svg11.dtd">
<!-- Created with svg_stack (http://github.com/astraw/svg_stack) -->
<svg xmlns="http://www.w3.org/2000/svg" xmlns:sodipodi="http://sodipodi.sourceforge.net/DTD/sodipodi-0.dtd" xmlns:xlink="http://www.w3.org/1999/xlink" version="1.1" width="521.42578125" height="203.96484375">
  <defs><g>
<symbol overflow="visible" id="id0:glyph0-0">
<path style="stroke:none;" d="M 10.453125 0 L 10.453125 -78.546875 L 55.546875 -78.546875 L 55.546875 0 Z M 16.0625 -5.609375 L 50.046875 -5.609375 L 50.046875 -72.9375 L 16.0625 -72.9375 Z M 16.0625 -5.609375 "/>
</symbol>
<symbol overflow="visible" id="id0:glyph0-1">
<path style="stroke:none;" d="M 33.65625 0.328125 C 29.914062 0.328125 26.429688 -0.3125 23.203125 -1.59375 C 19.984375 -2.875 16.757812 -5.347656 13.53125 -9.015625 C 9.863281 -13.128906 8.03125 -17.347656 8.03125 -21.671875 C 8.03125 -24.597656 8.765625 -27.085938 10.234375 -29.140625 C 11.703125 -31.203125 13.609375 -32.890625 15.953125 -34.203125 C 13.378906 -35.890625 11.140625 -38.144531 9.234375 -40.96875 C 7.328125 -43.789062 6.375 -46.890625 6.375 -50.265625 C 6.375 -55.109375 8.1875 -58.90625 11.8125 -61.65625 C 15.445312 -64.40625 20.273438 -65.78125 26.296875 -65.78125 C 28.128906 -65.78125 29.867188 -65.707031 31.515625 -65.5625 C 33.160156 -65.414062 34.753906 -65.195312 36.296875 -64.90625 L 38.28125 -55.984375 C 36.664062 -56.285156 35.085938 -56.523438 33.546875 -56.703125 C 32.003906 -56.890625 30.390625 -56.984375 28.703125 -56.984375 C 26.722656 -56.984375 24.648438 -56.671875 22.484375 -56.046875 C 20.328125 -55.421875 18.492188 -54.390625 16.984375 -52.953125 C 15.484375 -51.523438 14.734375 -49.566406 14.734375 -47.078125 C 14.734375 -44.953125 15.171875 -43.046875 16.046875 -41.359375 C 16.929688 -39.671875 18.4375 -38.019531 20.5625 -36.40625 C 23.0625 -37.363281 25.722656 -38.0625 28.546875 -38.5 C 31.367188 -38.9375 34.023438 -39.191406 36.515625 -39.265625 L 40.59375 -30.796875 C 38.238281 -30.648438 35.628906 -30.359375 32.765625 -29.921875 C 29.910156 -29.484375 27.160156 -28.769531 24.515625 -27.78125 C 21.878906 -26.789062 19.71875 -25.488281 18.03125 -23.875 C 16.351562 -22.257812 15.515625 -20.164062 15.515625 -17.59375 C 15.515625 -14.664062 16.628906 -12.320312 18.859375 -10.5625 C 21.097656 -8.800781 24.234375 -7.921875 28.265625 -7.921875 C 31.492188 -7.921875 34.445312 -8.304688 37.125 -9.078125 C 39.800781 -9.847656 42.382812 -11.078125 44.875 -12.765625 L 50.59375 -5.28125 C 45.832031 -1.539062 40.1875 0.328125 33.65625 0.328125 Z M 33.65625 0.328125 "/>
</symbol>
<symbol overflow="visible" id="id0:glyph0-2">
<path style="stroke:none;" d="M 32.78125 -53.6875 C 32.050781 -53.6875 31.390625 -53.976562 30.796875 -54.5625 C 30.210938 -55.144531 29.921875 -55.804688 29.921875 -56.546875 C 29.921875 -57.347656 30.210938 -58.023438 30.796875 -58.578125 C 31.390625 -59.128906 32.050781 -59.40625 32.78125 -59.40625 C 33.582031 -59.40625 34.257812 -59.128906 34.8125 -58.578125 C 35.363281 -58.023438 35.640625 -57.347656 35.640625 -56.546875 C 35.640625 -55.804688 35.363281 -55.144531 34.8125 -54.5625 C 34.257812 -53.976562 33.582031 -53.6875 32.78125 -53.6875 Z M 23.546875 -51.703125 C 22.804688 -51.703125 22.144531 -51.992188 21.5625 -52.578125 C 20.976562 -53.160156 20.6875 -53.820312 20.6875 -54.5625 C 20.6875 -55.363281 20.976562 -56.039062 21.5625 -56.59375 C 22.144531 -57.144531 22.804688 -57.421875 23.546875 -57.421875 C 24.347656 -57.421875 25.023438 -57.144531 25.578125 -56.59375 C 26.128906 -56.039062 26.40625 -55.363281 26.40625 -54.5625 C 26.40625 -53.820312 26.128906 -53.160156 25.578125 -52.578125 C 25.023438 -51.992188 24.347656 -51.703125 23.546875 -51.703125 Z M 42.015625 -51.703125 C 41.285156 -51.703125 40.625 -51.992188 40.03125 -52.578125 C 39.445312 -53.160156 39.15625 -53.820312 39.15625 -54.5625 C 39.15625 -55.363281 39.445312 -56.039062 40.03125 -56.59375 C 40.625 -57.144531 41.285156 -57.421875 42.015625 -57.421875 C 42.828125 -57.421875 43.503906 -57.144531 44.046875 -56.59375 C 44.597656 -56.039062 44.875 -55.363281 44.875 -54.5625 C 44.875 -53.820312 44.597656 -53.160156 44.046875 -52.578125 C 43.503906 -51.992188 42.828125 -51.703125 42.015625 -51.703125 Z M 50.15625 -46.53125 C 49.425781 -46.53125 48.765625 -46.820312 48.171875 -47.40625 C 47.585938 -48 47.296875 -48.660156 47.296875 -49.390625 C 47.296875 -50.191406 47.585938 -50.867188 48.171875 -51.421875 C 48.765625 -51.972656 49.425781 -52.25 50.15625 -52.25 C 50.96875 -52.25 51.644531 -51.972656 52.1875 -51.421875 C 52.738281 -50.867188 53.015625 -50.191406 53.015625 -49.390625 C 53.015625 -48.660156 52.738281 -48 52.1875 -47.40625 C 51.644531 -46.820312 50.96875 -46.53125 50.15625 -46.53125 Z M 15.40625 -46.53125 C 14.664062 -46.53125 14.003906 -46.820312 13.421875 -47.40625 C 12.835938 -48 12.546875 -48.660156 12.546875 -49.390625 C 12.546875 -50.191406 12.835938 -50.867188 13.421875 -51.421875 C 14.003906 -51.972656 14.664062 -52.25 15.40625 -52.25 C 16.207031 -52.25 16.882812 -51.972656 17.4375 -51.421875 C 17.988281 -50.867188 18.265625 -50.191406 18.265625 -49.390625 C 18.265625 -48.660156 17.988281 -48 17.4375 -47.40625 C 16.882812 -46.820312 16.207031 -46.53125 15.40625 -46.53125 Z M 10.234375 -38.390625 C 9.492188 -38.390625 8.832031 -38.679688 8.25 -39.265625 C 7.664062 -39.859375 7.375 -40.519531 7.375 -41.25 C 7.375 -42.050781 7.664062 -42.726562 8.25 -43.28125 C 8.832031 -43.832031 9.492188 -44.109375 10.234375 -44.109375 C 11.035156 -44.109375 11.710938 -43.832031 12.265625 -43.28125 C 12.816406 -42.726562 13.09375 -42.050781 13.09375 -41.25 C 13.09375 -40.519531 12.816406 -39.859375 12.265625 -39.265625 C 11.710938 -38.679688 11.035156 -38.390625 10.234375 -38.390625 Z M 55.328125 -38.390625 C 54.597656 -38.390625 53.9375 -38.679688 53.34375 -39.265625 C 52.757812 -39.859375 52.46875 -40.519531 52.46875 -41.25 C 52.46875 -42.050781 52.757812 -42.726562 53.34375 -43.28125 C 53.9375 -43.832031 54.597656 -44.109375 55.328125 -44.109375 C 56.140625 -44.109375 56.816406 -43.832031 57.359375 -43.28125 C 57.910156 -42.726562 58.1875 -42.050781 58.1875 -41.25 C 58.1875 -40.519531 57.910156 -39.859375 57.359375 -39.265625 C 56.816406 -38.679688 56.140625 -38.390625 55.328125 -38.390625 Z M 8.25 -29.15625 C 7.519531 -29.15625 6.859375 -29.445312 6.265625 -30.03125 C 5.679688 -30.613281 5.390625 -31.273438 5.390625 -32.015625 C 5.390625 -32.816406 5.679688 -33.492188 6.265625 -34.046875 C 6.859375 -34.597656 7.519531 -34.875 8.25 -34.875 C 9.050781 -34.875 9.726562 -34.597656 10.28125 -34.046875 C 10.832031 -33.492188 11.109375 -32.816406 11.109375 -32.015625 C 11.109375 -31.273438 10.832031 -30.613281 10.28125 -30.03125 C 9.726562 -29.445312 9.050781 -29.15625 8.25 -29.15625 Z M 57.3125 -29.15625 C 56.570312 -29.15625 55.910156 -29.445312 55.328125 -30.03125 C 54.742188 -30.613281 54.453125 -31.273438 54.453125 -32.015625 C 54.453125 -32.816406 54.742188 -33.492188 55.328125 -34.046875 C 55.910156 -34.597656 56.570312 -34.875 57.3125 -34.875 C 58.113281 -34.875 58.789062 -34.597656 59.34375 -34.046875 C 59.894531 -33.492188 60.171875 -32.816406 60.171875 -32.015625 C 60.171875 -31.273438 59.894531 -30.613281 59.34375 -30.03125 C 58.789062 -29.445312 58.113281 -29.15625 57.3125 -29.15625 Z M 10.234375 -19.90625 C 9.492188 -19.90625 8.832031 -20.195312 8.25 -20.78125 C 7.664062 -21.375 7.375 -22.035156 7.375 -22.765625 C 7.375 -23.578125 7.664062 -24.253906 8.25 -24.796875 C 8.832031 -25.347656 9.492188 -25.625 10.234375 -25.625 C 11.035156 -25.625 11.710938 -25.347656 12.265625 -24.796875 C 12.816406 -24.253906 13.09375 -23.578125 13.09375 -22.765625 C 13.09375 -22.035156 12.816406 -21.375 12.265625 -20.78125 C 11.710938 -20.195312 11.035156 -19.90625 10.234375 -19.90625 Z M 55.328125 -19.90625 C 54.597656 -19.90625 53.9375 -20.195312 53.34375 -20.78125 C 52.757812 -21.375 52.46875 -22.035156 52.46875 -22.765625 C 52.46875 -23.578125 52.757812 -24.253906 53.34375 -24.796875 C 53.9375 -25.347656 54.597656 -25.625 55.328125 -25.625 C 56.140625 -25.625 56.816406 -25.347656 57.359375 -24.796875 C 57.910156 -24.253906 58.1875 -23.578125 58.1875 -22.765625 C 58.1875 -22.035156 57.910156 -21.375 57.359375 -20.78125 C 56.816406 -20.195312 56.140625 -19.90625 55.328125 -19.90625 Z M 15.40625 -11.765625 C 14.664062 -11.765625 14.003906 -12.054688 13.421875 -12.640625 C 12.835938 -13.234375 12.546875 -13.894531 12.546875 -14.625 C 12.546875 -15.4375 12.835938 -16.113281 13.421875 -16.65625 C 14.003906 -17.207031 14.664062 -17.484375 15.40625 -17.484375 C 16.207031 -17.484375 16.882812 -17.207031 17.4375 -16.65625 C 17.988281 -16.113281 18.265625 -15.4375 18.265625 -14.625 C 18.265625 -13.894531 17.988281 -13.234375 17.4375 -12.640625 C 16.882812 -12.054688 16.207031 -11.765625 15.40625 -11.765625 Z M 50.15625 -11.765625 C 49.425781 -11.765625 48.765625 -12.054688 48.171875 -12.640625 C 47.585938 -13.234375 47.296875 -13.894531 47.296875 -14.625 C 47.296875 -15.4375 47.585938 -16.113281 48.171875 -16.65625 C 48.765625 -17.207031 49.425781 -17.484375 50.15625 -17.484375 C 50.96875 -17.484375 51.644531 -17.207031 52.1875 -16.65625 C 52.738281 -16.113281 53.015625 -15.4375 53.015625 -14.625 C 53.015625 -13.894531 52.738281 -13.234375 52.1875 -12.640625 C 51.644531 -12.054688 50.96875 -11.765625 50.15625 -11.765625 Z M 23.546875 -6.59375 C 22.804688 -6.59375 22.144531 -6.882812 21.5625 -7.46875 C 20.976562 -8.0625 20.6875 -8.722656 20.6875 -9.453125 C 20.6875 -10.265625 20.976562 -10.941406 21.5625 -11.484375 C 22.144531 -12.035156 22.804688 -12.3125 23.546875 -12.3125 C 24.347656 -12.3125 25.023438 -12.035156 25.578125 -11.484375 C 26.128906 -10.941406 26.40625 -10.265625 26.40625 -9.453125 C 26.40625 -8.722656 26.128906 -8.0625 25.578125 -7.46875 C 25.023438 -6.882812 24.347656 -6.59375 23.546875 -6.59375 Z M 42.015625 -6.59375 C 41.285156 -6.59375 40.625 -6.882812 40.03125 -7.46875 C 39.445312 -8.0625 39.15625 -8.722656 39.15625 -9.453125 C 39.15625 -10.265625 39.445312 -10.941406 40.03125 -11.484375 C 40.625 -12.035156 41.285156 -12.3125 42.015625 -12.3125 C 42.828125 -12.3125 43.503906 -12.035156 44.046875 -11.484375 C 44.597656 -10.941406 44.875 -10.265625 44.875 -9.453125 C 44.875 -8.722656 44.597656 -8.0625 44.046875 -7.46875 C 43.503906 -6.882812 42.828125 -6.59375 42.015625 -6.59375 Z M 32.78125 -4.625 C 32.050781 -4.625 31.390625 -4.914062 30.796875 -5.5 C 30.210938 -6.082031 29.921875 -6.742188 29.921875 -7.484375 C 29.921875 -8.285156 30.210938 -8.960938 30.796875 -9.515625 C 31.390625 -10.066406 32.050781 -10.34375 32.78125 -10.34375 C 33.582031 -10.34375 34.257812 -10.066406 34.8125 -9.515625 C 35.363281 -8.960938 35.640625 -8.285156 35.640625 -7.484375 C 35.640625 -6.742188 35.363281 -6.082031 34.8125 -5.5 C 34.257812 -4.914062 33.582031 -4.625 32.78125 -4.625 Z M 32.78125 -4.625 "/>
</symbol>
<symbol overflow="visible" id="id0:glyph0-3">
<path style="stroke:none;" d="M 18.375 28.046875 C 16.613281 26.066406 14.664062 23.882812 12.53125 21.5 C 10.40625 19.125 8.0625 17.070312 5.5 15.34375 C 2.9375 13.625 0.148438 12.765625 -2.859375 12.765625 C -5.054688 12.765625 -7.109375 13.054688 -9.015625 13.640625 L -11.546875 5.609375 C -10.890625 5.460938 -9.9375 5.296875 -8.6875 5.109375 C -7.4375 4.929688 -6.226562 4.84375 -5.0625 4.84375 C -2.789062 4.84375 -0.738281 5.113281 1.09375 5.65625 C 2.925781 6.207031 4.773438 7.253906 6.640625 8.796875 C 8.515625 10.335938 10.660156 12.5 13.078125 15.28125 C 15.503906 18.070312 18.441406 21.742188 21.890625 26.296875 Z M 18.375 28.046875 "/>
</symbol>
<symbol overflow="visible" id="id0:glyph0-4">
<path style="stroke:none;" d="M 21.5625 -15.625 C 19.726562 -15.625 17.820312 -16.335938 15.84375 -17.765625 C 13.863281 -19.191406 12.191406 -20.96875 10.828125 -23.09375 C 9.472656 -25.226562 8.796875 -27.285156 8.796875 -29.265625 C 8.796875 -30.953125 9.328125 -32.363281 10.390625 -33.5 C 11.453125 -34.632812 13.597656 -35.347656 16.828125 -35.640625 L 16.828125 -58.84375 C 14.992188 -58.625 13.195312 -58.257812 11.4375 -57.75 C 9.675781 -57.238281 7.878906 -56.613281 6.046875 -55.875 L 1.984375 -64.234375 C 2.785156 -64.679688 3.898438 -65.140625 5.328125 -65.609375 C 6.765625 -66.085938 8.507812 -66.328125 10.5625 -66.328125 C 13.125 -66.328125 15.140625 -65.832031 16.609375 -64.84375 C 18.078125 -63.851562 19.4375 -62.660156 20.6875 -61.265625 C 22.144531 -59.722656 23.222656 -58.421875 23.921875 -57.359375 C 24.617188 -56.296875 25.078125 -55.234375 25.296875 -54.171875 C 25.515625 -53.109375 25.625 -51.769531 25.625 -50.15625 L 25.625 -35.421875 C 28.488281 -35.128906 31.734375 -34.6875 35.359375 -34.09375 C 38.992188 -33.507812 42.390625 -32.78125 45.546875 -31.90625 L 45.546875 -67.3125 L 54.34375 -63.6875 L 54.34375 -6.703125 C 54.34375 -5.972656 54.671875 -5.609375 55.328125 -5.609375 C 56.648438 -5.609375 58.097656 -6.03125 59.671875 -6.875 C 61.253906 -7.71875 62.628906 -8.835938 63.796875 -10.234375 L 68.421875 -2.75 C 67.460938 -2.019531 66.304688 -1.285156 64.953125 -0.546875 C 63.597656 0.179688 62.039062 0.546875 60.28125 0.546875 C 58.664062 0.546875 57.160156 0.195312 55.765625 -0.5 C 54.378906 -1.195312 52.84375 -2.164062 51.15625 -3.40625 C 48.875 -5.164062 47.367188 -6.78125 46.640625 -8.25 C 45.910156 -9.71875 45.546875 -11.550781 45.546875 -13.75 L 45.546875 -26.40625 L 25.625 -26.40625 L 25.625 -20.90625 C 25.625 -19.070312 25.332031 -17.734375 24.75 -16.890625 C 24.164062 -16.046875 23.101562 -15.625 21.5625 -15.625 Z M 21.5625 -15.625 "/>
</symbol>
</g>
<g>
<symbol overflow="visible" id="id1:glyph0-0">
<path style="stroke:none;" d="M 5.375 -96.6875 L 69.828125 -96.6875 L 69.828125 0 L 5.375 0 Z M 8.0625 -2.6875 L 67.140625 -2.6875 L 67.140625 -94 L 8.0625 -94 Z M 8.0625 -2.6875 "/>
</symbol>
<symbol overflow="visible" id="id1:glyph0-1">
<path style="stroke:none;" d="M 68.15625 -13.75 L 66.28125 -18.640625 L 88.09375 -27.390625 L 6.984375 -27.390625 L 6.984375 -34 L 88.09375 -34 L 66.28125 -42.75 L 68.15625 -47.640625 L 99.09375 -34.265625 L 99.09375 -27.125 Z M 68.15625 -13.75 "/>
</symbol>
</g>
<g>
<symbol overflow="visible" id="id2:glyph0-0">
<path style="stroke:none;" d="M 10.453125 0 L 10.453125 -78.546875 L 55.546875 -78.546875 L 55.546875 0 Z M 16.0625 -5.609375 L 50.046875 -5.609375 L 50.046875 -72.9375 L 16.0625 -72.9375 Z M 16.0625 -5.609375 "/>
</symbol>
<symbol overflow="visible" id="id2:glyph0-1">
<path style="stroke:none;" d="M 37.40625 -4.1875 C 35.789062 -4.1875 34.117188 -4.71875 32.390625 -5.78125 C 30.671875 -6.84375 29.222656 -8.175781 28.046875 -9.78125 C 26.878906 -11.394531 26.296875 -13.082031 26.296875 -14.84375 C 26.296875 -16.238281 26.695312 -17.359375 27.5 -18.203125 C 28.300781 -19.046875 29.878906 -19.578125 32.234375 -19.796875 L 32.234375 -29.15625 C 30.179688 -29.15625 28.507812 -28.929688 27.21875 -28.484375 C 25.9375 -28.046875 24.34375 -27.828125 22.4375 -27.828125 C 20.164062 -27.828125 17.910156 -28.335938 15.671875 -29.359375 C 13.429688 -30.390625 11.472656 -31.640625 9.796875 -33.109375 C 7.960938 -34.796875 6.457031 -36.460938 5.28125 -38.109375 C 4.101562 -39.765625 3.515625 -41.726562 3.515625 -44 C 3.515625 -46.5625 4.15625 -48.648438 5.4375 -50.265625 C 6.726562 -51.878906 8.378906 -53.21875 10.390625 -54.28125 C 12.410156 -55.34375 14.570312 -56.222656 16.875 -56.921875 C 19.1875 -57.617188 21.351562 -58.296875 23.375 -58.953125 C 25.394531 -59.617188 27.046875 -60.390625 28.328125 -61.265625 C 29.609375 -62.148438 30.25 -63.289062 30.25 -64.6875 C 30.25 -65.488281 30.066406 -66.203125 29.703125 -66.828125 C 29.335938 -67.453125 28.96875 -67.984375 28.59375 -68.421875 L 32.34375 -71.5 C 34.6875 -69.664062 36.367188 -67.867188 37.390625 -66.109375 C 38.421875 -64.347656 38.9375 -62.660156 38.9375 -61.046875 C 38.9375 -58.921875 38.273438 -57.160156 36.953125 -55.765625 C 35.640625 -54.378906 33.9375 -53.226562 31.84375 -52.3125 C 29.75 -51.394531 27.507812 -50.566406 25.125 -49.828125 C 22.75 -49.097656 20.515625 -48.347656 18.421875 -47.578125 C 16.335938 -46.804688 14.632812 -45.867188 13.3125 -44.765625 C 11.988281 -43.671875 11.328125 -42.242188 11.328125 -40.484375 C 11.328125 -38.867188 11.835938 -37.65625 12.859375 -36.84375 C 13.890625 -36.039062 15.101562 -35.640625 16.5 -35.640625 C 18.1875 -35.640625 19.6875 -35.894531 21 -36.40625 C 22.320312 -36.925781 23.863281 -37.1875 25.625 -37.1875 C 28.195312 -37.1875 30.269531 -36.632812 31.84375 -35.53125 C 33.414062 -34.425781 34.828125 -33.21875 36.078125 -31.90625 C 37.546875 -30.363281 38.628906 -29.039062 39.328125 -27.9375 C 40.023438 -26.84375 40.484375 -25.742188 40.703125 -24.640625 C 40.921875 -23.535156 41.03125 -22.21875 41.03125 -20.6875 L 41.03125 -19.578125 C 42.71875 -19.359375 44.585938 -19.066406 46.640625 -18.703125 C 48.691406 -18.335938 50.742188 -17.859375 52.796875 -17.265625 L 52.796875 -67.3125 L 61.703125 -63.6875 L 61.703125 -6.703125 C 61.703125 -5.972656 62.035156 -5.609375 62.703125 -5.609375 C 64.023438 -5.609375 65.472656 -6.03125 67.046875 -6.875 C 68.617188 -7.71875 69.992188 -8.835938 71.171875 -10.234375 L 75.6875 -2.75 C 74.800781 -2.019531 73.679688 -1.285156 72.328125 -0.546875 C 70.972656 0.179688 69.414062 0.546875 67.65625 0.546875 C 65.96875 0.546875 64.425781 0.179688 63.03125 -0.546875 C 61.632812 -1.285156 60.128906 -2.238281 58.515625 -3.40625 C 56.609375 -4.875 55.234375 -6.226562 54.390625 -7.46875 C 53.546875 -8.71875 53.050781 -10.148438 52.90625 -11.765625 L 41.03125 -11.765625 L 41.03125 -8.796875 C 41.03125 -7.179688 40.753906 -6.007812 40.203125 -5.28125 C 39.648438 -4.550781 38.71875 -4.1875 37.40625 -4.1875 Z M 37.40625 -4.1875 "/>
</symbol>
</g>
</defs>
  <g id="id0:id0" transform="matrix(1.25,0,0,1.25,0.0,0.0)"><g id="id0:surface1">
<g style="fill:rgb(0%,0%,0%);fill-opacity:1;">
  <use xlink:href="#id0:glyph0-1" x="16" y="111.671875"/>
  <use xlink:href="#id0:glyph0-2" x="62.640625" y="111.671875"/>
  <use xlink:href="#id0:glyph0-3" x="95.421875" y="111.671875"/>
  <use xlink:href="#id0:glyph0-4" x="128.203125" y="111.671875"/>
</g>
</g>
</g>
  <g id="id1:id1" transform="matrix(1.25,0,0,1.25,260.0,1.279296875)"><g id="id1:surface1">
<g style="fill:rgb(0%,0%,0%);fill-opacity:1;">
  <use xlink:href="#id1:glyph0-1" x="0" y="120.84375"/>
</g>
</g>
</g>
  <g id="id2:id2" transform="matrix(1.25,0,0,1.25,392.59765625,0.0)"><g id="id2:surface1">
<g style="fill:rgb(0%,0%,0%);fill-opacity:1;">
  <use xlink:href="#id2:glyph0-1" x="16" y="111.671875"/>
</g>
</g>
</g>
</svg>
