<!DOCTYPE svg PUBLIC "-//W3C//DTD SVG 1.1//EN" "http://www.w3.org/Graphics/SVG/1.1/DTD/svg11.dtd">
<!-- Created with svg_stack (http://github.com/astraw/svg_stack) --><svg xmlns="http://www.w3.org/2000/svg" xmlns:sodipodi="http://sodipodi.sourceforge.net/DTD/sodipodi-0.dtd" xmlns:xlink="http://www.w3.org/1999/xlink" version="1.1" width="583.88671875" height="201.40625" id="khmer-liga">
  <defs><g>
<symbol overflow="visible" id="khmer-liga:id0:glyph0-0">
<path style="stroke:none;" d="M 10.5625 0 L 10.5625 -78.546875 L 59.1875 -78.546875 L 59.1875 0 Z M 20.6875 -7.375 L 49.0625 -7.375 L 49.0625 -71.171875 L 20.6875 -71.171875 Z M 20.6875 -7.375 "/>
</symbol>
<symbol overflow="visible" id="khmer-liga:id0:glyph0-1">
<path style="stroke:none;" d="M 10.125 -58.515625 L 21.671875 -49.171875 L 21.671875 -27.0625 C 25.773438 -27.28125 28.832031 -26.414062 30.84375 -24.46875 C 32.863281 -22.53125 33.875 -19.910156 33.875 -16.609375 C 33.875 -15.285156 33.597656 -13.742188 33.046875 -11.984375 C 32.503906 -10.222656 31.367188 -8.332031 29.640625 -6.3125 C 27.921875 -4.300781 25.265625 -2.195312 21.671875 0 L 11.546875 0 L 11.546875 -46.640625 C 8.910156 -48.835938 6.910156 -50.5625 5.546875 -51.8125 C 4.191406 -53.0625 3.296875 -54.03125 2.859375 -54.71875 C 2.421875 -55.414062 2.203125 -56.023438 2.203125 -56.546875 C 2.203125 -57.273438 2.550781 -58.148438 3.25 -59.171875 C 3.945312 -60.203125 5.210938 -61.890625 7.046875 -64.234375 C 8.878906 -66.585938 11.476562 -70.109375 14.84375 -74.796875 C 17.195312 -73.253906 19.140625 -72.039062 20.671875 -71.15625 C 22.210938 -70.28125 23.695312 -69.695312 25.125 -69.40625 C 26.5625 -69.113281 28.195312 -69.039062 30.03125 -69.1875 C 30.03125 -67.351562 29.390625 -65.570312 28.109375 -63.84375 C 26.828125 -62.125 25.117188 -61.265625 22.984375 -61.265625 C 22.035156 -61.265625 20.914062 -61.519531 19.625 -62.03125 C 18.34375 -62.550781 16.75 -63.507812 14.84375 -64.90625 Z M 21.671875 -19.90625 L 21.671875 -9.796875 C 24.597656 -11.628906 26.0625 -13.863281 26.0625 -16.5 C 26.0625 -17.894531 25.640625 -18.8125 24.796875 -19.25 C 23.960938 -19.6875 22.921875 -19.90625 21.671875 -19.90625 Z M 21.671875 -19.90625 "/>
</symbol>
<symbol overflow="visible" id="khmer-liga:id0:glyph0-2">
<path style="stroke:none;" d="M 13.53125 -58.296875 L 24.859375 -49.171875 L 24.859375 0 L 14.734375 0 C 11.285156 -2.488281 8.679688 -4.703125 6.921875 -6.640625 C 5.171875 -8.585938 4 -10.332031 3.40625 -11.875 C 2.820312 -13.414062 2.53125 -14.8125 2.53125 -16.0625 C 2.53125 -17.457031 2.859375 -18.976562 3.515625 -20.625 C 4.179688 -22.269531 5.410156 -23.695312 7.203125 -24.90625 C 9.003906 -26.125 11.515625 -26.769531 14.734375 -26.84375 L 14.734375 -46.640625 C 12.097656 -48.835938 10.097656 -50.539062 8.734375 -51.75 C 7.378906 -52.957031 6.484375 -53.875 6.046875 -54.5 C 5.609375 -55.125 5.390625 -55.691406 5.390625 -56.203125 C 5.390625 -56.941406 5.738281 -57.84375 6.4375 -58.90625 C 7.132812 -59.96875 8.398438 -61.691406 10.234375 -64.078125 C 12.066406 -66.460938 14.671875 -70 18.046875 -74.6875 C 19.503906 -73.363281 20.691406 -72.410156 21.609375 -71.828125 C 22.523438 -71.242188 23.460938 -70.953125 24.421875 -70.953125 C 25.441406 -70.953125 26.390625 -71.222656 27.265625 -71.765625 C 28.148438 -72.316406 28.59375 -73.179688 28.59375 -74.359375 C 28.59375 -75.679688 27.914062 -76.851562 26.5625 -77.875 C 25.207031 -78.90625 23.503906 -79.421875 21.453125 -79.421875 C 21.453125 -81.691406 22.070312 -83.300781 23.3125 -84.25 C 24.5625 -85.207031 25.738281 -85.6875 26.84375 -85.6875 C 28.007812 -85.6875 29.234375 -85.242188 30.515625 -84.359375 C 31.804688 -83.484375 32.890625 -82.238281 33.765625 -80.625 C 34.648438 -79.007812 35.09375 -77.101562 35.09375 -74.90625 C 35.09375 -72.851562 34.632812 -70.890625 33.71875 -69.015625 C 32.800781 -67.148438 31.515625 -65.628906 29.859375 -64.453125 C 28.210938 -63.285156 26.328125 -62.703125 24.203125 -62.703125 C 22.953125 -62.703125 21.832031 -62.921875 20.84375 -63.359375 C 19.851562 -63.796875 19.03125 -64.273438 18.375 -64.796875 Z M 14.734375 -9.234375 L 14.734375 -19.359375 C 12.898438 -19.285156 11.632812 -18.914062 10.9375 -18.25 C 10.25 -17.59375 9.90625 -16.753906 9.90625 -15.734375 C 9.90625 -13.304688 11.515625 -11.140625 14.734375 -9.234375 Z M 14.734375 -9.234375 "/>
</symbol>
<symbol overflow="visible" id="khmer-liga:id0:glyph0-3">
<path style="stroke:none;" d="M 11.875 -57.3125 L 20.453125 -50.375 L 20.453125 20.90625 C 20.453125 24.269531 19.71875 26.976562 18.25 29.03125 C 16.789062 31.09375 14.796875 32.582031 12.265625 33.5 C 9.734375 34.414062 6.925781 34.875 3.84375 34.875 C 0.03125 34.875 -2.84375 34.488281 -4.78125 33.71875 C -6.726562 32.945312 -8.03125 32.082031 -8.6875 31.125 C -9.644531 32.007812 -10.910156 32.851562 -12.484375 33.65625 C -14.054688 34.46875 -16.828125 34.875 -20.796875 34.875 C -23.503906 34.875 -26.101562 34.503906 -28.59375 33.765625 C -31.09375 33.035156 -33.148438 31.695312 -34.765625 29.75 C -36.378906 27.8125 -37.1875 25.046875 -37.1875 21.453125 L -37.1875 15.0625 C -37.1875 14.257812 -37.515625 13.34375 -38.171875 12.3125 C -38.828125 11.289062 -40.515625 10.78125 -43.234375 10.78125 C -45.941406 10.78125 -47.625 11.289062 -48.28125 12.3125 C -48.945312 13.34375 -49.28125 14.257812 -49.28125 15.0625 L -49.28125 21.453125 C -45.976562 21.453125 -44.328125 23.066406 -44.328125 26.296875 C -44.328125 27.679688 -44.710938 29 -45.484375 30.25 C -46.253906 31.5 -47.519531 33.039062 -49.28125 34.875 L -58.953125 34.875 L -58.953125 17.15625 C -58.953125 12.832031 -57.671875 9.789062 -55.109375 8.03125 C -52.546875 6.269531 -48.585938 5.390625 -43.234375 5.390625 C -37.804688 5.390625 -33.828125 6.269531 -31.296875 8.03125 C -28.765625 9.789062 -27.5 12.832031 -27.5 17.15625 L -27.5 21.453125 C -27.5 23.503906 -26.835938 25.023438 -25.515625 26.015625 C -24.203125 27.003906 -22.515625 27.5 -20.453125 27.5 C -18.328125 27.5 -16.625 27.003906 -15.34375 26.015625 C -14.0625 25.023438 -13.421875 23.503906 -13.421875 21.453125 L -13.421875 6.484375 L -3.734375 6.484375 L -3.734375 21.453125 C -3.734375 23.503906 -3.054688 25.023438 -1.703125 26.015625 C -0.347656 27.003906 1.28125 27.5 3.1875 27.5 C 5.457031 27.5 7.21875 26.945312 8.46875 25.84375 C 9.71875 24.75 10.34375 23.285156 10.34375 21.453125 L 10.34375 -47.84375 C 7.332031 -50.125 5.40625 -51.796875 4.5625 -52.859375 C 3.71875 -53.921875 3.296875 -54.816406 3.296875 -55.546875 C 3.296875 -56.648438 3.878906 -58.097656 5.046875 -59.890625 C 6.222656 -61.691406 8.171875 -63.984375 10.890625 -66.765625 C 13.234375 -69.191406 15.539062 -71.171875 17.8125 -72.703125 C 20.09375 -74.242188 22.695312 -75.015625 25.625 -75.015625 C 28.34375 -75.015625 31.3125 -74.316406 34.53125 -72.921875 C 37.757812 -71.535156 41.28125 -69.59375 45.09375 -67.09375 C 47.226562 -65.78125 49.023438 -64.5 50.484375 -63.25 L 50.484375 -80.84375 C 50.484375 -82.675781 50.039062 -84.472656 49.15625 -86.234375 C 48.28125 -87.992188 46.925781 -89.316406 45.09375 -90.203125 C 45.09375 -92.035156 45.753906 -93.570312 47.078125 -94.8125 C 48.398438 -96.0625 50.160156 -96.6875 52.359375 -96.6875 C 55.367188 -96.6875 57.3125 -95.601562 58.1875 -93.4375 C 59.070312 -91.28125 59.515625 -88.40625 59.515625 -84.8125 L 59.515625 -66.546875 C 59.515625 -65.378906 59.347656 -63.878906 59.015625 -62.046875 C 58.679688 -60.210938 57.929688 -58.265625 56.765625 -56.203125 C 57.421875 -54.960938 57.875 -53.660156 58.125 -52.296875 C 58.382812 -50.941406 58.515625 -49.457031 58.515625 -47.84375 L 58.515625 0 L 48.40625 0 L 48.40625 -47.515625 C 48.40625 -50.085938 47.5625 -52.253906 45.875 -54.015625 C 44.1875 -55.773438 42.054688 -57.570312 39.484375 -59.40625 C 36.335938 -61.675781 33.71875 -63.359375 31.625 -64.453125 C 29.53125 -65.554688 27.382812 -66.109375 25.1875 -66.109375 C 22.40625 -66.109375 19.859375 -65.28125 17.546875 -63.625 C 15.234375 -61.976562 13.34375 -59.875 11.875 -57.3125 Z M 11.875 -57.3125 "/>
</symbol>
</g>
<g>
<symbol overflow="visible" id="khmer-liga:id1:glyph0-0">
<path style="stroke:none;" d="M 5.375 -96.6875 L 69.828125 -96.6875 L 69.828125 0 L 5.375 0 Z M 8.0625 -2.6875 L 67.140625 -2.6875 L 67.140625 -94 L 8.0625 -94 Z M 8.0625 -2.6875 "/>
</symbol>
<symbol overflow="visible" id="khmer-liga:id1:glyph0-1">
<path style="stroke:none;" d="M 68.15625 -13.75 L 66.28125 -18.640625 L 88.09375 -27.390625 L 6.984375 -27.390625 L 6.984375 -34 L 88.09375 -34 L 66.28125 -42.75 L 68.15625 -47.640625 L 99.09375 -34.265625 L 99.09375 -27.125 Z M 68.15625 -13.75 "/>
</symbol>
</g>
<g>
<symbol overflow="visible" id="khmer-liga:id2:glyph0-0">
<path style="stroke:none;" d="M 10.5625 0 L 10.5625 -78.546875 L 59.1875 -78.546875 L 59.1875 0 Z M 20.6875 -7.375 L 49.0625 -7.375 L 49.0625 -71.171875 L 20.6875 -71.171875 Z M 20.6875 -7.375 "/>
</symbol>
<symbol overflow="visible" id="khmer-liga:id2:glyph0-1">
<path style="stroke:none;" d="M 10.125 -58.515625 L 21.671875 -49.171875 L 21.671875 -27.0625 C 25.773438 -27.28125 28.832031 -26.414062 30.84375 -24.46875 C 32.863281 -22.53125 33.875 -19.910156 33.875 -16.609375 C 33.875 -15.285156 33.597656 -13.742188 33.046875 -11.984375 C 32.503906 -10.222656 31.367188 -8.332031 29.640625 -6.3125 C 27.921875 -4.300781 25.265625 -2.195312 21.671875 0 L 11.546875 0 L 11.546875 -46.640625 C 8.910156 -48.835938 6.910156 -50.5625 5.546875 -51.8125 C 4.191406 -53.0625 3.296875 -54.03125 2.859375 -54.71875 C 2.421875 -55.414062 2.203125 -56.023438 2.203125 -56.546875 C 2.203125 -57.273438 2.550781 -58.148438 3.25 -59.171875 C 3.945312 -60.203125 5.210938 -61.890625 7.046875 -64.234375 C 8.878906 -66.585938 11.476562 -70.109375 14.84375 -74.796875 C 17.195312 -73.253906 19.140625 -72.039062 20.671875 -71.15625 C 22.210938 -70.28125 23.695312 -69.695312 25.125 -69.40625 C 26.5625 -69.113281 28.195312 -69.039062 30.03125 -69.1875 C 30.03125 -67.351562 29.390625 -65.570312 28.109375 -63.84375 C 26.828125 -62.125 25.117188 -61.265625 22.984375 -61.265625 C 22.035156 -61.265625 20.914062 -61.519531 19.625 -62.03125 C 18.34375 -62.550781 16.75 -63.507812 14.84375 -64.90625 Z M 21.671875 -19.90625 L 21.671875 -9.796875 C 24.597656 -11.628906 26.0625 -13.863281 26.0625 -16.5 C 26.0625 -17.894531 25.640625 -18.8125 24.796875 -19.25 C 23.960938 -19.6875 22.921875 -19.90625 21.671875 -19.90625 Z M 21.671875 -19.90625 "/>
</symbol>
<symbol overflow="visible" id="khmer-liga:id2:glyph0-2">
<path style="stroke:none;" d="M 13.53125 -58.296875 L 24.859375 -49.171875 L 24.859375 0 L 14.734375 0 C 11.285156 -2.488281 8.679688 -4.703125 6.921875 -6.640625 C 5.171875 -8.585938 4 -10.332031 3.40625 -11.875 C 2.820312 -13.414062 2.53125 -14.8125 2.53125 -16.0625 C 2.53125 -17.457031 2.859375 -18.976562 3.515625 -20.625 C 4.179688 -22.269531 5.410156 -23.695312 7.203125 -24.90625 C 9.003906 -26.125 11.515625 -26.769531 14.734375 -26.84375 L 14.734375 -46.640625 C 12.097656 -48.835938 10.097656 -50.539062 8.734375 -51.75 C 7.378906 -52.957031 6.484375 -53.875 6.046875 -54.5 C 5.609375 -55.125 5.390625 -55.691406 5.390625 -56.203125 C 5.390625 -56.941406 5.738281 -57.84375 6.4375 -58.90625 C 7.132812 -59.96875 8.398438 -61.691406 10.234375 -64.078125 C 12.066406 -66.460938 14.671875 -70 18.046875 -74.6875 C 19.503906 -73.363281 20.691406 -72.410156 21.609375 -71.828125 C 22.523438 -71.242188 23.460938 -70.953125 24.421875 -70.953125 C 25.441406 -70.953125 26.390625 -71.222656 27.265625 -71.765625 C 28.148438 -72.316406 28.59375 -73.179688 28.59375 -74.359375 C 28.59375 -75.679688 27.914062 -76.851562 26.5625 -77.875 C 25.207031 -78.90625 23.503906 -79.421875 21.453125 -79.421875 C 21.453125 -81.691406 22.070312 -83.300781 23.3125 -84.25 C 24.5625 -85.207031 25.738281 -85.6875 26.84375 -85.6875 C 28.007812 -85.6875 29.234375 -85.242188 30.515625 -84.359375 C 31.804688 -83.484375 32.890625 -82.238281 33.765625 -80.625 C 34.648438 -79.007812 35.09375 -77.101562 35.09375 -74.90625 C 35.09375 -72.851562 34.632812 -70.890625 33.71875 -69.015625 C 32.800781 -67.148438 31.515625 -65.628906 29.859375 -64.453125 C 28.210938 -63.285156 26.328125 -62.703125 24.203125 -62.703125 C 22.953125 -62.703125 21.832031 -62.921875 20.84375 -63.359375 C 19.851562 -63.796875 19.03125 -64.273438 18.375 -64.796875 Z M 14.734375 -9.234375 L 14.734375 -19.359375 C 12.898438 -19.285156 11.632812 -18.914062 10.9375 -18.25 C 10.25 -17.59375 9.90625 -16.753906 9.90625 -15.734375 C 9.90625 -13.304688 11.515625 -11.140625 14.734375 -9.234375 Z M 14.734375 -9.234375 "/>
</symbol>
<symbol overflow="visible" id="khmer-liga:id2:glyph0-3">
<path style="stroke:none;" d="M 11.875 -57.3125 L 20.453125 -50.375 L 20.453125 20.90625 C 20.453125 24.269531 19.71875 26.976562 18.25 29.03125 C 16.789062 31.09375 14.796875 32.582031 12.265625 33.5 C 9.734375 34.414062 6.925781 34.875 3.84375 34.875 C 0.03125 34.875 -2.84375 34.488281 -4.78125 33.71875 C -6.726562 32.945312 -8.03125 32.082031 -8.6875 31.125 C -9.644531 32.007812 -10.910156 32.851562 -12.484375 33.65625 C -14.054688 34.46875 -16.828125 34.875 -20.796875 34.875 C -23.503906 34.875 -26.101562 34.503906 -28.59375 33.765625 C -31.09375 33.035156 -33.148438 31.695312 -34.765625 29.75 C -36.378906 27.8125 -37.1875 25.046875 -37.1875 21.453125 L -37.1875 15.0625 C -37.1875 14.257812 -37.515625 13.34375 -38.171875 12.3125 C -38.828125 11.289062 -40.515625 10.78125 -43.234375 10.78125 C -45.941406 10.78125 -47.625 11.289062 -48.28125 12.3125 C -48.945312 13.34375 -49.28125 14.257812 -49.28125 15.0625 L -49.28125 21.453125 C -45.976562 21.453125 -44.328125 23.066406 -44.328125 26.296875 C -44.328125 27.679688 -44.710938 29 -45.484375 30.25 C -46.253906 31.5 -47.519531 33.039062 -49.28125 34.875 L -58.953125 34.875 L -58.953125 17.15625 C -58.953125 12.832031 -57.671875 9.789062 -55.109375 8.03125 C -52.546875 6.269531 -48.585938 5.390625 -43.234375 5.390625 C -37.804688 5.390625 -33.828125 6.269531 -31.296875 8.03125 C -28.765625 9.789062 -27.5 12.832031 -27.5 17.15625 L -27.5 21.453125 C -27.5 23.503906 -26.835938 25.023438 -25.515625 26.015625 C -24.203125 27.003906 -22.515625 27.5 -20.453125 27.5 C -18.328125 27.5 -16.625 27.003906 -15.34375 26.015625 C -14.0625 25.023438 -13.421875 23.503906 -13.421875 21.453125 L -13.421875 6.484375 L -3.734375 6.484375 L -3.734375 21.453125 C -3.734375 23.503906 -3.054688 25.023438 -1.703125 26.015625 C -0.347656 27.003906 1.28125 27.5 3.1875 27.5 C 5.457031 27.5 7.21875 26.945312 8.46875 25.84375 C 9.71875 24.75 10.34375 23.285156 10.34375 21.453125 L 10.34375 -47.84375 C 7.332031 -50.125 5.40625 -51.796875 4.5625 -52.859375 C 3.71875 -53.921875 3.296875 -54.816406 3.296875 -55.546875 C 3.296875 -56.648438 3.878906 -58.097656 5.046875 -59.890625 C 6.222656 -61.691406 8.171875 -63.984375 10.890625 -66.765625 C 13.234375 -69.191406 15.539062 -71.171875 17.8125 -72.703125 C 20.09375 -74.242188 22.695312 -75.015625 25.625 -75.015625 C 28.34375 -75.015625 31.3125 -74.316406 34.53125 -72.921875 C 37.757812 -71.535156 41.28125 -69.59375 45.09375 -67.09375 C 47.226562 -65.78125 49.023438 -64.5 50.484375 -63.25 L 50.484375 -80.84375 C 50.484375 -82.675781 50.039062 -84.472656 49.15625 -86.234375 C 48.28125 -87.992188 46.925781 -89.316406 45.09375 -90.203125 C 45.09375 -92.035156 45.753906 -93.570312 47.078125 -94.8125 C 48.398438 -96.0625 50.160156 -96.6875 52.359375 -96.6875 C 55.367188 -96.6875 57.3125 -95.601562 58.1875 -93.4375 C 59.070312 -91.28125 59.515625 -88.40625 59.515625 -84.8125 L 59.515625 -66.546875 C 59.515625 -65.378906 59.347656 -63.878906 59.015625 -62.046875 C 58.679688 -60.210938 57.929688 -58.265625 56.765625 -56.203125 C 57.421875 -54.960938 57.875 -53.660156 58.125 -52.296875 C 58.382812 -50.941406 58.515625 -49.457031 58.515625 -47.84375 L 58.515625 0 L 48.40625 0 L 48.40625 -47.515625 C 48.40625 -50.085938 47.5625 -52.253906 45.875 -54.015625 C 44.1875 -55.773438 42.054688 -57.570312 39.484375 -59.40625 C 36.335938 -61.675781 33.71875 -63.359375 31.625 -64.453125 C 29.53125 -65.554688 27.382812 -66.109375 25.1875 -66.109375 C 22.40625 -66.109375 19.859375 -65.28125 17.546875 -63.625 C 15.234375 -61.976562 13.34375 -59.875 11.875 -57.3125 Z M 11.875 -57.3125 "/>
</symbol>
</g>
</defs>
  <g id="khmer-liga:id0:id0" transform="matrix(1.25,0,0,1.25,0.0,4.560546875)"><g id="khmer-liga:id0:surface1">
<g style="fill:rgb(0%,0%,0%);fill-opacity:1;">
  <use xlink:href="#khmer-liga:id0:glyph0-1" x="16" y="119.59375" class="c0"/>
  <use xlink:href="#khmer-liga:id0:glyph0-2" x="53.296875" y="119.59375" class="c1"/>
  <use xlink:href="#khmer-liga:id0:glyph0-3" x="88.828125" y="119.59375" class="c2"/>
</g>
</g>
</g>
  <g id="khmer-liga:id1:id1" transform="matrix(1.25,0,0,1.25,225.64453125,0.0)"><g id="khmer-liga:id1:surface1">
<g style="fill:rgb(0%,0%,0%);fill-opacity:1;">
  <use xlink:href="#khmer-liga:id1:glyph0-1" x="0" y="120.84375" class="arrow"/>
</g>
</g>
</g>
  <g id="khmer-liga:id2:id2" transform="matrix(1.25,0,0,1.25,358.2421875,4.560546875)"><g id="khmer-liga:id2:surface1">
<g style="fill:rgb(0%,0%,0%);fill-opacity:1;">
  <use xlink:href="#khmer-liga:id2:glyph0-1" x="16" y="119.59375" class="c0"/>
  <use xlink:href="#khmer-liga:id2:glyph0-2" x="53.296875" y="119.59375" class="c1"/>
  <use xlink:href="#khmer-liga:id2:glyph0-3" x="88.828125" y="119.59375" class="c2"/>
</g>
</g>
</g>
</svg>
