<?xml version="1.0" standalone="no"?>
<!DOCTYPE svg PUBLIC "-//W3C//DTD SVG 1.1//EN"
 "http://www.w3.org/Graphics/SVG/1.1/DTD/svg11.dtd">
<!-- Created with svg_stack (http://github.com/astraw/svg_stack) -->
<svg xmlns="http://www.w3.org/2000/svg" xmlns:sodipodi="http://sodipodi.sourceforge.net/DTD/sodipodi-0.dtd" xmlns:xlink="http://www.w3.org/1999/xlink" version="1.1" width="582.59765625" height="229.78515625">
  <defs><g>
<symbol overflow="visible" id="id0:glyph0-0">
<path style="stroke:none;" d="M 10.5625 0 L 10.5625 -78.546875 L 59.1875 -78.546875 L 59.1875 0 Z M 20.6875 -7.375 L 49.0625 -7.375 L 49.0625 -71.171875 L 20.6875 -71.171875 Z M 20.6875 -7.375 "/>
</symbol>
<symbol overflow="visible" id="id0:glyph0-1">
<path style="stroke:none;" d="M 20.6875 -39.046875 C 14.957031 -39.046875 12.09375 -40.953125 12.09375 -44.765625 L 12.09375 -58.953125 C 12.09375 -61.160156 12.679688 -63.234375 13.859375 -65.171875 C 15.035156 -67.117188 16.503906 -68.820312 18.265625 -70.28125 C 20.023438 -71.75 21.742188 -72.90625 23.421875 -73.75 C 25.109375 -74.59375 26.46875 -75.015625 27.5 -75.015625 C 29.695312 -75.015625 33.070312 -72.632812 37.625 -67.875 C 42.238281 -72.632812 45.644531 -75.015625 47.84375 -75.015625 C 48.875 -75.015625 50.210938 -74.59375 51.859375 -73.75 C 53.515625 -72.90625 55.222656 -71.75 56.984375 -70.28125 C 58.742188 -68.820312 60.207031 -67.117188 61.375 -65.171875 C 62.550781 -63.234375 63.140625 -61.160156 63.140625 -58.953125 L 63.140625 -50.9375 C 63.140625 -47.851562 61.429688 -44.734375 58.015625 -41.578125 C 54.609375 -38.421875 49.5 -35.082031 42.6875 -31.5625 L 22.21875 -21.015625 L 22.21875 -13.421875 C 22.21875 -9.609375 23.832031 -7.703125 27.0625 -7.703125 C 29.113281 -7.703125 31.054688 -8.472656 32.890625 -10.015625 C 36.921875 -13.378906 40.476562 -16.125 43.5625 -18.25 C 46.644531 -20.382812 49.796875 -21.453125 53.015625 -21.453125 L 53.015625 -26.734375 L 63.140625 -30.6875 L 63.140625 -4.84375 C 63.140625 0.507812 60.789062 3.1875 56.09375 3.1875 C 53.820312 3.1875 52.207031 2.671875 51.25 1.640625 C 50.300781 0.617188 49.828125 -0.515625 49.828125 -1.765625 C 51.078125 -2.640625 51.921875 -3.550781 52.359375 -4.5 C 52.796875 -5.457031 53.015625 -6.414062 53.015625 -7.375 L 53.015625 -14.296875 C 51.253906 -14.296875 49.21875 -13.46875 46.90625 -11.8125 C 44.601562 -10.164062 41.835938 -8.0625 38.609375 -5.5 C 36.335938 -3.664062 34.082031 -2.289062 31.84375 -1.375 C 29.601562 -0.457031 27.273438 0 24.859375 0 C 21.335938 0 18.328125 -1.0625 15.828125 -3.1875 C 13.335938 -5.3125 12.09375 -8.722656 12.09375 -13.421875 L 12.09375 -24.09375 L 37.625 -37.1875 C 47.882812 -42.382812 53.015625 -46.96875 53.015625 -50.9375 L 53.015625 -58.953125 C 53.015625 -60.710938 52.316406 -62.304688 50.921875 -63.734375 C 49.535156 -65.171875 48.179688 -65.890625 46.859375 -65.890625 C 44.441406 -65.890625 41.363281 -63.539062 37.625 -58.84375 C 33.882812 -63.539062 30.835938 -65.890625 28.484375 -65.890625 C 27.023438 -65.890625 25.613281 -65.132812 24.25 -63.625 C 22.894531 -62.125 22.21875 -60.566406 22.21875 -58.953125 L 22.21875 -55.984375 C 24.863281 -55.984375 27.023438 -55.34375 28.703125 -54.0625 C 30.390625 -52.78125 31.234375 -50.742188 31.234375 -47.953125 C 31.234375 -45.023438 30.28125 -42.804688 28.375 -41.296875 C 26.46875 -39.796875 23.90625 -39.046875 20.6875 -39.046875 Z M 22.21875 -51.703125 L 22.21875 -43.5625 C 23.320312 -43.5625 24.203125 -43.945312 24.859375 -44.71875 C 25.515625 -45.488281 25.84375 -46.53125 25.84375 -47.84375 C 25.84375 -50.414062 24.632812 -51.703125 22.21875 -51.703125 Z M 22.21875 -51.703125 "/>
</symbol>
<symbol overflow="visible" id="id0:glyph0-2">
<path style="stroke:none;" d="M 34.765625 -50.8125 C 34.023438 -50.8125 33.398438 -51.066406 32.890625 -51.578125 C 32.378906 -52.097656 32.125 -52.722656 32.125 -53.453125 C 32.125 -54.191406 32.378906 -54.816406 32.890625 -55.328125 C 33.398438 -55.835938 34.023438 -56.09375 34.765625 -56.09375 C 35.492188 -56.09375 36.113281 -55.835938 36.625 -55.328125 C 37.144531 -54.816406 37.40625 -54.191406 37.40625 -53.453125 C 37.40625 -52.722656 37.144531 -52.097656 36.625 -51.578125 C 36.113281 -51.066406 35.492188 -50.8125 34.765625 -50.8125 Z M 24.09375 -48.1875 C 23.351562 -48.1875 22.726562 -48.441406 22.21875 -48.953125 C 21.707031 -49.460938 21.453125 -50.082031 21.453125 -50.8125 C 21.453125 -51.550781 21.707031 -52.175781 22.21875 -52.6875 C 22.726562 -53.195312 23.351562 -53.453125 24.09375 -53.453125 C 24.820312 -53.453125 25.441406 -53.195312 25.953125 -52.6875 C 26.472656 -52.175781 26.734375 -51.550781 26.734375 -50.8125 C 26.734375 -50.082031 26.472656 -49.460938 25.953125 -48.953125 C 25.441406 -48.441406 24.820312 -48.1875 24.09375 -48.1875 Z M 45.4375 -48.1875 C 44.695312 -48.1875 44.070312 -48.441406 43.5625 -48.953125 C 43.050781 -49.460938 42.796875 -50.082031 42.796875 -50.8125 C 42.796875 -51.550781 43.050781 -52.175781 43.5625 -52.6875 C 44.070312 -53.195312 44.695312 -53.453125 45.4375 -53.453125 C 46.164062 -53.453125 46.785156 -53.195312 47.296875 -52.6875 C 47.804688 -52.175781 48.0625 -51.550781 48.0625 -50.8125 C 48.0625 -50.082031 47.804688 -49.460938 47.296875 -48.953125 C 46.785156 -48.441406 46.164062 -48.1875 45.4375 -48.1875 Z M 16.28125 -40.484375 C 15.550781 -40.484375 14.925781 -40.738281 14.40625 -41.25 C 13.894531 -41.757812 13.640625 -42.382812 13.640625 -43.125 C 13.640625 -43.851562 13.894531 -44.472656 14.40625 -44.984375 C 14.925781 -45.503906 15.550781 -45.765625 16.28125 -45.765625 C 17.007812 -45.765625 17.628906 -45.503906 18.140625 -44.984375 C 18.660156 -44.472656 18.921875 -43.851562 18.921875 -43.125 C 18.921875 -42.382812 18.660156 -41.757812 18.140625 -41.25 C 17.628906 -40.738281 17.007812 -40.484375 16.28125 -40.484375 Z M 53.125 -40.265625 C 52.394531 -40.265625 51.769531 -40.519531 51.25 -41.03125 C 50.738281 -41.539062 50.484375 -42.164062 50.484375 -42.90625 C 50.484375 -43.632812 50.738281 -44.253906 51.25 -44.765625 C 51.769531 -45.285156 52.394531 -45.546875 53.125 -45.546875 C 53.863281 -45.546875 54.488281 -45.285156 55 -44.765625 C 55.507812 -44.253906 55.765625 -43.632812 55.765625 -42.90625 C 55.765625 -42.164062 55.507812 -41.539062 55 -41.03125 C 54.488281 -40.519531 53.863281 -40.265625 53.125 -40.265625 Z M 13.421875 -29.375 C 12.679688 -29.375 12.054688 -29.628906 11.546875 -30.140625 C 11.035156 -30.648438 10.78125 -31.273438 10.78125 -32.015625 C 10.78125 -32.742188 11.035156 -33.363281 11.546875 -33.875 C 12.054688 -34.394531 12.679688 -34.65625 13.421875 -34.65625 C 14.148438 -34.65625 14.769531 -34.394531 15.28125 -33.875 C 15.800781 -33.363281 16.0625 -32.742188 16.0625 -32.015625 C 16.0625 -31.273438 15.800781 -30.648438 15.28125 -30.140625 C 14.769531 -29.628906 14.148438 -29.375 13.421875 -29.375 Z M 56.4375 -29.375 C 55.695312 -29.375 55.070312 -29.628906 54.5625 -30.140625 C 54.050781 -30.648438 53.796875 -31.273438 53.796875 -32.015625 C 53.796875 -32.742188 54.050781 -33.363281 54.5625 -33.875 C 55.070312 -34.394531 55.695312 -34.65625 56.4375 -34.65625 C 57.164062 -34.65625 57.785156 -34.394531 58.296875 -33.875 C 58.804688 -33.363281 59.0625 -32.742188 59.0625 -32.015625 C 59.0625 -31.273438 58.804688 -30.648438 58.296875 -30.140625 C 57.785156 -29.628906 57.164062 -29.375 56.4375 -29.375 Z M 53.34375 -19.03125 C 52.613281 -19.03125 51.988281 -19.285156 51.46875 -19.796875 C 50.957031 -20.304688 50.703125 -20.929688 50.703125 -21.671875 C 50.703125 -22.398438 50.957031 -23.019531 51.46875 -23.53125 C 51.988281 -24.050781 52.613281 -24.3125 53.34375 -24.3125 C 54.082031 -24.3125 54.707031 -24.050781 55.21875 -23.53125 C 55.726562 -23.019531 55.984375 -22.398438 55.984375 -21.671875 C 55.984375 -20.929688 55.726562 -20.304688 55.21875 -19.796875 C 54.707031 -19.285156 54.082031 -19.03125 53.34375 -19.03125 Z M 16.0625 -18.921875 C 15.320312 -18.921875 14.695312 -19.175781 14.1875 -19.6875 C 13.675781 -20.195312 13.421875 -20.820312 13.421875 -21.5625 C 13.421875 -22.289062 13.675781 -22.910156 14.1875 -23.421875 C 14.695312 -23.941406 15.320312 -24.203125 16.0625 -24.203125 C 16.789062 -24.203125 17.410156 -23.941406 17.921875 -23.421875 C 18.441406 -22.910156 18.703125 -22.289062 18.703125 -21.5625 C 18.703125 -20.820312 18.441406 -20.195312 17.921875 -19.6875 C 17.410156 -19.175781 16.789062 -18.921875 16.0625 -18.921875 Z M 45.546875 -11.109375 C 44.804688 -11.109375 44.179688 -11.363281 43.671875 -11.875 C 43.160156 -12.394531 42.90625 -13.019531 42.90625 -13.75 C 42.90625 -14.476562 43.160156 -15.097656 43.671875 -15.609375 C 44.179688 -16.128906 44.804688 -16.390625 45.546875 -16.390625 C 46.273438 -16.390625 46.894531 -16.128906 47.40625 -15.609375 C 47.925781 -15.097656 48.1875 -14.476562 48.1875 -13.75 C 48.1875 -13.019531 47.925781 -12.394531 47.40625 -11.875 C 46.894531 -11.363281 46.273438 -11.109375 45.546875 -11.109375 Z M 24.09375 -11 C 23.351562 -11 22.726562 -11.253906 22.21875 -11.765625 C 21.707031 -12.285156 21.453125 -12.910156 21.453125 -13.640625 C 21.453125 -14.367188 21.707031 -14.988281 22.21875 -15.5 C 22.726562 -16.019531 23.351562 -16.28125 24.09375 -16.28125 C 24.820312 -16.28125 25.441406 -16.019531 25.953125 -15.5 C 26.472656 -14.988281 26.734375 -14.367188 26.734375 -13.640625 C 26.734375 -12.910156 26.472656 -12.285156 25.953125 -11.765625 C 25.441406 -11.253906 24.820312 -11 24.09375 -11 Z M 34.765625 -8.03125 C 34.023438 -8.03125 33.398438 -8.285156 32.890625 -8.796875 C 32.378906 -9.304688 32.125 -9.929688 32.125 -10.671875 C 32.125 -11.398438 32.378906 -12.019531 32.890625 -12.53125 C 33.398438 -13.050781 34.023438 -13.3125 34.765625 -13.3125 C 35.492188 -13.3125 36.113281 -13.050781 36.625 -12.53125 C 37.144531 -12.019531 37.40625 -11.398438 37.40625 -10.671875 C 37.40625 -9.929688 37.144531 -9.304688 36.625 -8.796875 C 36.113281 -8.285156 35.492188 -8.03125 34.765625 -8.03125 Z M 34.765625 -8.03125 "/>
</symbol>
<symbol overflow="visible" id="id0:glyph0-3">
<path style="stroke:none;" d="M -36.734375 26.84375 L -36.734375 18.046875 L -47.515625 18.046875 L -47.515625 11.4375 L -36.734375 11.4375 L -36.734375 2.640625 L -28.703125 2.640625 L -28.703125 11.4375 L -17.9375 11.4375 L -17.9375 18.046875 L -28.703125 18.046875 L -28.703125 26.84375 Z M -36.734375 26.84375 "/>
</symbol>
<symbol overflow="visible" id="id0:glyph0-4">
<path style="stroke:none;" d="M 16.171875 -48.1875 C 18.734375 -48.1875 20.601562 -47.671875 21.78125 -46.640625 C 22.957031 -45.609375 23.546875 -44.175781 23.546875 -42.34375 L 23.546875 -10.015625 L 38.9375 -22.765625 L 54.34375 -10.015625 L 54.34375 -57.09375 C 50.3125 -60.164062 47.175781 -62.453125 44.9375 -63.953125 C 42.695312 -65.460938 41.007812 -66.472656 39.875 -66.984375 C 38.738281 -67.503906 37.765625 -67.765625 36.953125 -67.765625 C 35.421875 -67.765625 34.03125 -67.269531 32.78125 -66.28125 C 31.53125 -65.289062 30.335938 -64.148438 29.203125 -62.859375 C 28.066406 -61.578125 26.875 -60.441406 25.625 -59.453125 C 24.382812 -58.460938 22.957031 -57.96875 21.34375 -57.96875 C 19.144531 -57.96875 17.273438 -58.992188 15.734375 -61.046875 C 14.191406 -63.097656 13.421875 -65.773438 13.421875 -69.078125 C 13.421875 -70.984375 13.640625 -72.519531 14.078125 -73.6875 C 14.515625 -74.863281 14.953125 -75.984375 15.390625 -77.046875 C 15.835938 -78.117188 16.0625 -79.421875 16.0625 -80.953125 C 16.0625 -82.859375 15.617188 -84.210938 14.734375 -85.015625 C 13.859375 -85.828125 12.539062 -86.457031 10.78125 -86.90625 C 10.78125 -88.738281 11.421875 -90.273438 12.703125 -91.515625 C 13.984375 -92.765625 15.6875 -93.390625 17.8125 -93.390625 C 19.800781 -93.390625 21.5625 -92.671875 23.09375 -91.234375 C 24.632812 -89.804688 25.40625 -87.039062 25.40625 -82.9375 C 25.40625 -80.8125 25.222656 -79.125 24.859375 -77.875 C 24.492188 -76.632812 24.164062 -75.28125 23.875 -73.8125 C 23.582031 -72.34375 23.472656 -70.21875 23.546875 -67.4375 C 26.910156 -71.019531 29.617188 -73.546875 31.671875 -75.015625 C 33.734375 -76.484375 36.007812 -77.21875 38.5 -77.21875 C 39.75 -77.21875 41.160156 -76.976562 42.734375 -76.5 C 44.304688 -76.03125 46.195312 -75.023438 48.40625 -73.484375 L 59.40625 -65.78125 C 62.769531 -63.4375 64.453125 -60.359375 64.453125 -56.546875 L 64.453125 0 L 54.34375 0 L 38.9375 -12.65625 L 23.546875 0 L 13.421875 0 L 13.421875 -23.984375 C 10.265625 -23.984375 7.457031 -24.972656 5 -26.953125 C 2.539062 -28.929688 1.3125 -31.644531 1.3125 -35.09375 C 1.3125 -37.726562 2.007812 -40.035156 3.40625 -42.015625 C 4.800781 -43.992188 6.613281 -45.515625 8.84375 -46.578125 C 11.082031 -47.648438 13.523438 -48.1875 16.171875 -48.1875 Z M 13.421875 -31.34375 L 13.421875 -41.359375 C 12.242188 -41.359375 11.125 -40.878906 10.0625 -39.921875 C 9 -38.972656 8.46875 -37.65625 8.46875 -35.96875 C 8.46875 -34.351562 9 -33.175781 10.0625 -32.4375 C 11.125 -31.707031 12.242188 -31.34375 13.421875 -31.34375 Z M 13.421875 -31.34375 "/>
</symbol>
</g>
<g>
<symbol overflow="visible" id="id1:glyph0-0">
<path style="stroke:none;" d="M 5.375 -96.6875 L 69.828125 -96.6875 L 69.828125 0 L 5.375 0 Z M 8.0625 -2.6875 L 67.140625 -2.6875 L 67.140625 -94 L 8.0625 -94 Z M 8.0625 -2.6875 "/>
</symbol>
<symbol overflow="visible" id="id1:glyph0-1">
<path style="stroke:none;" d="M 68.15625 -13.75 L 66.28125 -18.640625 L 88.09375 -27.390625 L 6.984375 -27.390625 L 6.984375 -34 L 88.09375 -34 L 66.28125 -42.75 L 68.15625 -47.640625 L 99.09375 -34.265625 L 99.09375 -27.125 Z M 68.15625 -13.75 "/>
</symbol>
</g>
<g>
<symbol overflow="visible" id="id2:glyph0-0">
<path style="stroke:none;" d="M 10.5625 0 L 10.5625 -78.546875 L 59.1875 -78.546875 L 59.1875 0 Z M 20.6875 -7.375 L 49.0625 -7.375 L 49.0625 -71.171875 L 20.6875 -71.171875 Z M 20.6875 -7.375 "/>
</symbol>
<symbol overflow="visible" id="id2:glyph0-1">
<path style="stroke:none;" d="M 20.6875 -39.046875 C 14.957031 -39.046875 12.09375 -40.953125 12.09375 -44.765625 L 12.09375 -58.953125 C 12.09375 -61.160156 12.679688 -63.234375 13.859375 -65.171875 C 15.035156 -67.117188 16.503906 -68.820312 18.265625 -70.28125 C 20.023438 -71.75 21.742188 -72.90625 23.421875 -73.75 C 25.109375 -74.59375 26.46875 -75.015625 27.5 -75.015625 C 29.695312 -75.015625 33.070312 -72.632812 37.625 -67.875 C 42.238281 -72.632812 45.644531 -75.015625 47.84375 -75.015625 C 48.875 -75.015625 50.210938 -74.59375 51.859375 -73.75 C 53.515625 -72.90625 55.222656 -71.75 56.984375 -70.28125 C 58.742188 -68.820312 60.207031 -67.117188 61.375 -65.171875 C 62.550781 -63.234375 63.140625 -61.160156 63.140625 -58.953125 L 63.140625 -50.9375 C 63.140625 -47.851562 61.429688 -44.734375 58.015625 -41.578125 C 54.609375 -38.421875 49.5 -35.082031 42.6875 -31.5625 L 22.21875 -21.015625 L 22.21875 -13.421875 C 22.21875 -9.609375 23.832031 -7.703125 27.0625 -7.703125 C 29.113281 -7.703125 31.054688 -8.472656 32.890625 -10.015625 C 36.921875 -13.378906 40.476562 -16.125 43.5625 -18.25 C 46.644531 -20.382812 49.796875 -21.453125 53.015625 -21.453125 L 53.015625 -26.734375 L 63.140625 -30.6875 L 63.140625 -4.84375 C 63.140625 0.507812 60.789062 3.1875 56.09375 3.1875 C 53.820312 3.1875 52.207031 2.671875 51.25 1.640625 C 50.300781 0.617188 49.828125 -0.515625 49.828125 -1.765625 C 51.078125 -2.640625 51.921875 -3.550781 52.359375 -4.5 C 52.796875 -5.457031 53.015625 -6.414062 53.015625 -7.375 L 53.015625 -14.296875 C 51.253906 -14.296875 49.21875 -13.46875 46.90625 -11.8125 C 44.601562 -10.164062 41.835938 -8.0625 38.609375 -5.5 C 36.335938 -3.664062 34.082031 -2.289062 31.84375 -1.375 C 29.601562 -0.457031 27.273438 0 24.859375 0 C 21.335938 0 18.328125 -1.0625 15.828125 -3.1875 C 13.335938 -5.3125 12.09375 -8.722656 12.09375 -13.421875 L 12.09375 -24.09375 L 37.625 -37.1875 C 47.882812 -42.382812 53.015625 -46.96875 53.015625 -50.9375 L 53.015625 -58.953125 C 53.015625 -60.710938 52.316406 -62.304688 50.921875 -63.734375 C 49.535156 -65.171875 48.179688 -65.890625 46.859375 -65.890625 C 44.441406 -65.890625 41.363281 -63.539062 37.625 -58.84375 C 33.882812 -63.539062 30.835938 -65.890625 28.484375 -65.890625 C 27.023438 -65.890625 25.613281 -65.132812 24.25 -63.625 C 22.894531 -62.125 22.21875 -60.566406 22.21875 -58.953125 L 22.21875 -55.984375 C 24.863281 -55.984375 27.023438 -55.34375 28.703125 -54.0625 C 30.390625 -52.78125 31.234375 -50.742188 31.234375 -47.953125 C 31.234375 -45.023438 30.28125 -42.804688 28.375 -41.296875 C 26.46875 -39.796875 23.90625 -39.046875 20.6875 -39.046875 Z M 22.21875 -51.703125 L 22.21875 -43.5625 C 23.320312 -43.5625 24.203125 -43.945312 24.859375 -44.71875 C 25.515625 -45.488281 25.84375 -46.53125 25.84375 -47.84375 C 25.84375 -50.414062 24.632812 -51.703125 22.21875 -51.703125 Z M 22.21875 -51.703125 "/>
</symbol>
<symbol overflow="visible" id="id2:glyph0-2">
<path style="stroke:none;" d="M -17.265625 19.578125 C -14.484375 20.828125 -13.09375 22.367188 -13.09375 24.203125 L -13.09375 50.046875 L -21.5625 50.046875 L -34.546875 44 L -47.40625 50.046875 L -55.984375 50.046875 L -55.984375 41.796875 C -59.210938 41.796875 -61.707031 41.171875 -63.46875 39.921875 C -65.226562 38.679688 -66.109375 37 -66.109375 34.875 C -66.109375 32.226562 -64.929688 30.207031 -62.578125 28.8125 C -60.234375 27.425781 -57.226562 26.734375 -53.5625 26.734375 C -51.21875 26.734375 -49.601562 27.003906 -48.71875 27.546875 C -47.84375 28.097656 -47.40625 28.816406 -47.40625 29.703125 L -47.40625 44.109375 L -34.546875 38.0625 L -21.5625 44.109375 L -21.5625 23.984375 C -25.957031 22.078125 -29.238281 20.738281 -31.40625 19.96875 C -33.570312 19.195312 -35.164062 18.8125 -36.1875 18.8125 C -37.144531 18.8125 -38.28125 19.082031 -39.59375 19.625 C -40.914062 20.175781 -42.203125 20.894531 -43.453125 21.78125 C -44.617188 22.507812 -45.675781 22.984375 -46.625 23.203125 C -47.582031 23.429688 -48.46875 23.546875 -49.28125 23.546875 C -51.332031 23.546875 -52.960938 23.140625 -54.171875 22.328125 C -55.378906 21.523438 -55.984375 20.316406 -55.984375 18.703125 C -55.984375 17.453125 -55.800781 16.367188 -55.4375 15.453125 C -55.070312 14.535156 -54.890625 13.566406 -54.890625 12.546875 C -54.890625 11.515625 -55.144531 10.851562 -55.65625 10.5625 C -56.175781 10.269531 -56.835938 9.976562 -57.640625 9.6875 C -57.640625 8.800781 -57.144531 7.863281 -56.15625 6.875 C -55.164062 5.882812 -53.644531 5.390625 -51.59375 5.390625 C -50.195312 5.390625 -48.894531 5.773438 -47.6875 6.546875 C -46.476562 7.316406 -45.875 8.984375 -45.875 11.546875 C -45.875 12.429688 -45.984375 13.441406 -46.203125 14.578125 C -46.421875 15.710938 -46.820312 17.050781 -47.40625 18.59375 C -44.625 16.90625 -42.351562 15.601562 -40.59375 14.6875 C -38.832031 13.769531 -36.890625 13.3125 -34.765625 13.3125 C -33.734375 13.3125 -32.554688 13.457031 -31.234375 13.75 C -29.921875 14.039062 -28.347656 14.59375 -26.515625 15.40625 Z M -60.171875 34.3125 C -60.171875 35.34375 -59.710938 36.078125 -58.796875 36.515625 C -57.878906 36.960938 -56.941406 37.1875 -55.984375 37.1875 L -55.984375 31.34375 C -56.941406 31.34375 -57.878906 31.582031 -58.796875 32.0625 C -59.710938 32.539062 -60.171875 33.289062 -60.171875 34.3125 Z M -60.171875 34.3125 "/>
</symbol>
</g>
</defs>
  <g id="id0:id0" transform="matrix(1.25,0,0,1.25,0.0,0.0)"><g id="id0:surface1">
<g style="fill:rgb(0%,0%,0%);fill-opacity:1;">
  <use xlink:href="#id0:glyph0-1" x="16" y="119.59375"/>
  <use xlink:href="#id0:glyph0-2" x="90.140625" y="119.59375"/>
  <use xlink:href="#id0:glyph0-3" x="159.984375" y="119.59375"/>
  <use xlink:href="#id0:glyph0-4" x="159.984375" y="119.59375"/>
</g>
</g>
</g>
  <g id="id1:id1" transform="matrix(1.25,0,0,1.25,317.32421875,14.189453125)"><g id="id1:surface1">
<g style="fill:rgb(0%,0%,0%);fill-opacity:1;">
  <use xlink:href="#id1:glyph0-1" x="0" y="120.84375"/>
</g>
</g>
</g>
  <g id="id2:id2" transform="matrix(1.25,0,0,1.25,449.921875,0.0)"><g id="id2:surface1">
<g style="fill:rgb(0%,0%,0%);fill-opacity:1;">
  <use xlink:href="#id2:glyph0-1" x="16" y="119.59375"/>
  <use xlink:href="#id2:glyph0-2" x="85.515625" y="126.75"/>
</g>
</g>
</g>
</svg>
