<svg xmlns="http://www.w3.org/2000/svg" xmlns:xlink="http://www.w3.org/1999/xlink" width="101.84375pt" height="153.828125pt" viewBox="0 0 101.84375 153.828125" version="1.1" id="khmer-robat">
<defs>
<g>
<symbol overflow="visible" id="khmer-robat:glyph0-0">
<path style="stroke:none;" d="M 10.5625 0 L 10.5625 -78.546875 L 59.1875 -78.546875 L 59.1875 0 Z M 20.6875 -7.375 L 49.0625 -7.375 L 49.0625 -71.171875 L 20.6875 -71.171875 Z M 20.6875 -7.375 "/>
</symbol>
<symbol overflow="visible" id="khmer-robat:glyph0-1">
<path style="stroke:none;" d="M 34.765625 -50.8125 C 34.023438 -50.8125 33.398438 -51.066406 32.890625 -51.578125 C 32.378906 -52.097656 32.125 -52.722656 32.125 -53.453125 C 32.125 -54.191406 32.378906 -54.816406 32.890625 -55.328125 C 33.398438 -55.835938 34.023438 -56.09375 34.765625 -56.09375 C 35.492188 -56.09375 36.113281 -55.835938 36.625 -55.328125 C 37.144531 -54.816406 37.40625 -54.191406 37.40625 -53.453125 C 37.40625 -52.722656 37.144531 -52.097656 36.625 -51.578125 C 36.113281 -51.066406 35.492188 -50.8125 34.765625 -50.8125 Z M 24.09375 -48.1875 C 23.351562 -48.1875 22.726562 -48.441406 22.21875 -48.953125 C 21.707031 -49.460938 21.453125 -50.082031 21.453125 -50.8125 C 21.453125 -51.550781 21.707031 -52.175781 22.21875 -52.6875 C 22.726562 -53.195312 23.351562 -53.453125 24.09375 -53.453125 C 24.820312 -53.453125 25.441406 -53.195312 25.953125 -52.6875 C 26.472656 -52.175781 26.734375 -51.550781 26.734375 -50.8125 C 26.734375 -50.082031 26.472656 -49.460938 25.953125 -48.953125 C 25.441406 -48.441406 24.820312 -48.1875 24.09375 -48.1875 Z M 45.4375 -48.1875 C 44.695312 -48.1875 44.070312 -48.441406 43.5625 -48.953125 C 43.050781 -49.460938 42.796875 -50.082031 42.796875 -50.8125 C 42.796875 -51.550781 43.050781 -52.175781 43.5625 -52.6875 C 44.070312 -53.195312 44.695312 -53.453125 45.4375 -53.453125 C 46.164062 -53.453125 46.785156 -53.195312 47.296875 -52.6875 C 47.804688 -52.175781 48.0625 -51.550781 48.0625 -50.8125 C 48.0625 -50.082031 47.804688 -49.460938 47.296875 -48.953125 C 46.785156 -48.441406 46.164062 -48.1875 45.4375 -48.1875 Z M 16.28125 -40.484375 C 15.550781 -40.484375 14.925781 -40.738281 14.40625 -41.25 C 13.894531 -41.757812 13.640625 -42.382812 13.640625 -43.125 C 13.640625 -43.851562 13.894531 -44.472656 14.40625 -44.984375 C 14.925781 -45.503906 15.550781 -45.765625 16.28125 -45.765625 C 17.007812 -45.765625 17.628906 -45.503906 18.140625 -44.984375 C 18.660156 -44.472656 18.921875 -43.851562 18.921875 -43.125 C 18.921875 -42.382812 18.660156 -41.757812 18.140625 -41.25 C 17.628906 -40.738281 17.007812 -40.484375 16.28125 -40.484375 Z M 53.125 -40.265625 C 52.394531 -40.265625 51.769531 -40.519531 51.25 -41.03125 C 50.738281 -41.539062 50.484375 -42.164062 50.484375 -42.90625 C 50.484375 -43.632812 50.738281 -44.253906 51.25 -44.765625 C 51.769531 -45.285156 52.394531 -45.546875 53.125 -45.546875 C 53.863281 -45.546875 54.488281 -45.285156 55 -44.765625 C 55.507812 -44.253906 55.765625 -43.632812 55.765625 -42.90625 C 55.765625 -42.164062 55.507812 -41.539062 55 -41.03125 C 54.488281 -40.519531 53.863281 -40.265625 53.125 -40.265625 Z M 13.421875 -29.375 C 12.679688 -29.375 12.054688 -29.628906 11.546875 -30.140625 C 11.035156 -30.648438 10.78125 -31.273438 10.78125 -32.015625 C 10.78125 -32.742188 11.035156 -33.363281 11.546875 -33.875 C 12.054688 -34.394531 12.679688 -34.65625 13.421875 -34.65625 C 14.148438 -34.65625 14.769531 -34.394531 15.28125 -33.875 C 15.800781 -33.363281 16.0625 -32.742188 16.0625 -32.015625 C 16.0625 -31.273438 15.800781 -30.648438 15.28125 -30.140625 C 14.769531 -29.628906 14.148438 -29.375 13.421875 -29.375 Z M 56.4375 -29.375 C 55.695312 -29.375 55.070312 -29.628906 54.5625 -30.140625 C 54.050781 -30.648438 53.796875 -31.273438 53.796875 -32.015625 C 53.796875 -32.742188 54.050781 -33.363281 54.5625 -33.875 C 55.070312 -34.394531 55.695312 -34.65625 56.4375 -34.65625 C 57.164062 -34.65625 57.785156 -34.394531 58.296875 -33.875 C 58.804688 -33.363281 59.0625 -32.742188 59.0625 -32.015625 C 59.0625 -31.273438 58.804688 -30.648438 58.296875 -30.140625 C 57.785156 -29.628906 57.164062 -29.375 56.4375 -29.375 Z M 53.34375 -19.03125 C 52.613281 -19.03125 51.988281 -19.285156 51.46875 -19.796875 C 50.957031 -20.304688 50.703125 -20.929688 50.703125 -21.671875 C 50.703125 -22.398438 50.957031 -23.019531 51.46875 -23.53125 C 51.988281 -24.050781 52.613281 -24.3125 53.34375 -24.3125 C 54.082031 -24.3125 54.707031 -24.050781 55.21875 -23.53125 C 55.726562 -23.019531 55.984375 -22.398438 55.984375 -21.671875 C 55.984375 -20.929688 55.726562 -20.304688 55.21875 -19.796875 C 54.707031 -19.285156 54.082031 -19.03125 53.34375 -19.03125 Z M 16.0625 -18.921875 C 15.320312 -18.921875 14.695312 -19.175781 14.1875 -19.6875 C 13.675781 -20.195312 13.421875 -20.820312 13.421875 -21.5625 C 13.421875 -22.289062 13.675781 -22.910156 14.1875 -23.421875 C 14.695312 -23.941406 15.320312 -24.203125 16.0625 -24.203125 C 16.789062 -24.203125 17.410156 -23.941406 17.921875 -23.421875 C 18.441406 -22.910156 18.703125 -22.289062 18.703125 -21.5625 C 18.703125 -20.820312 18.441406 -20.195312 17.921875 -19.6875 C 17.410156 -19.175781 16.789062 -18.921875 16.0625 -18.921875 Z M 45.546875 -11.109375 C 44.804688 -11.109375 44.179688 -11.363281 43.671875 -11.875 C 43.160156 -12.394531 42.90625 -13.019531 42.90625 -13.75 C 42.90625 -14.476562 43.160156 -15.097656 43.671875 -15.609375 C 44.179688 -16.128906 44.804688 -16.390625 45.546875 -16.390625 C 46.273438 -16.390625 46.894531 -16.128906 47.40625 -15.609375 C 47.925781 -15.097656 48.1875 -14.476562 48.1875 -13.75 C 48.1875 -13.019531 47.925781 -12.394531 47.40625 -11.875 C 46.894531 -11.363281 46.273438 -11.109375 45.546875 -11.109375 Z M 24.09375 -11 C 23.351562 -11 22.726562 -11.253906 22.21875 -11.765625 C 21.707031 -12.285156 21.453125 -12.910156 21.453125 -13.640625 C 21.453125 -14.367188 21.707031 -14.988281 22.21875 -15.5 C 22.726562 -16.019531 23.351562 -16.28125 24.09375 -16.28125 C 24.820312 -16.28125 25.441406 -16.019531 25.953125 -15.5 C 26.472656 -14.988281 26.734375 -14.367188 26.734375 -13.640625 C 26.734375 -12.910156 26.472656 -12.285156 25.953125 -11.765625 C 25.441406 -11.253906 24.820312 -11 24.09375 -11 Z M 34.765625 -8.03125 C 34.023438 -8.03125 33.398438 -8.285156 32.890625 -8.796875 C 32.378906 -9.304688 32.125 -9.929688 32.125 -10.671875 C 32.125 -11.398438 32.378906 -12.019531 32.890625 -12.53125 C 33.398438 -13.050781 34.023438 -13.3125 34.765625 -13.3125 C 35.492188 -13.3125 36.113281 -13.050781 36.625 -12.53125 C 37.144531 -12.019531 37.40625 -11.398438 37.40625 -10.671875 C 37.40625 -9.929688 37.144531 -9.304688 36.625 -8.796875 C 36.113281 -8.285156 35.492188 -8.03125 34.765625 -8.03125 Z M 34.765625 -8.03125 "/>
</symbol>
<symbol overflow="visible" id="khmer-robat:glyph0-2">
<path style="stroke:none;" d="M -33.546875 -91.953125 C -35.453125 -94.960938 -37.832031 -96.90625 -40.6875 -97.78125 C -43.550781 -98.664062 -46.378906 -99.109375 -49.171875 -99.109375 C -52.023438 -99.109375 -54.609375 -98.796875 -56.921875 -98.171875 C -59.234375 -97.546875 -61.125 -96.941406 -62.59375 -96.359375 C -62.882812 -97.085938 -63.117188 -98.09375 -63.296875 -99.375 C -63.484375 -100.664062 -63.210938 -102.335938 -62.484375 -104.390625 C -61.742188 -106.515625 -60.492188 -108.785156 -58.734375 -111.203125 C -56.972656 -113.628906 -54.753906 -115.722656 -52.078125 -117.484375 C -49.398438 -119.242188 -46.34375 -120.125 -42.90625 -120.125 C -40.40625 -120.125 -38.3125 -119.703125 -36.625 -118.859375 C -34.9375 -118.015625 -33.378906 -117.1875 -31.953125 -116.375 C -30.523438 -115.570312 -28.96875 -115.171875 -27.28125 -115.171875 C -25.519531 -115.171875 -24 -115.71875 -22.71875 -116.8125 C -21.4375 -117.914062 -20.796875 -119.566406 -20.796875 -121.765625 C -18.660156 -121.765625 -16.914062 -121.394531 -15.5625 -120.65625 C -14.207031 -119.925781 -13.53125 -118.722656 -13.53125 -117.046875 C -13.53125 -115.285156 -14.222656 -113.796875 -15.609375 -112.578125 C -17.003906 -111.367188 -18.726562 -110.4375 -20.78125 -109.78125 C -22.84375 -109.125 -24.898438 -108.796875 -26.953125 -108.796875 C -29.441406 -108.796875 -31.566406 -109.175781 -33.328125 -109.9375 C -35.085938 -110.707031 -36.71875 -111.457031 -38.21875 -112.1875 C -39.726562 -112.925781 -41.4375 -113.296875 -43.34375 -113.296875 C -45.394531 -113.296875 -47.265625 -112.78125 -48.953125 -111.75 C -50.640625 -110.726562 -52.050781 -109.484375 -53.1875 -108.015625 C -54.320312 -106.546875 -55.144531 -105.15625 -55.65625 -103.84375 C -53.96875 -104.351562 -52.300781 -104.71875 -50.65625 -104.9375 C -49.007812 -105.15625 -47.378906 -105.265625 -45.765625 -105.265625 C -43.335938 -105.265625 -40.765625 -104.988281 -38.046875 -104.4375 C -35.335938 -103.894531 -33.03125 -103 -31.125 -101.75 C -29.21875 -100.5 -28.265625 -98.882812 -28.265625 -96.90625 C -28.265625 -95.289062 -28.832031 -94.0625 -29.96875 -93.21875 C -31.113281 -92.375 -32.304688 -91.953125 -33.546875 -91.953125 Z M -33.546875 -91.953125 "/>
</symbol>
</g>
</defs>
<g id="khmer-robat:surface1">
<g style="fill:rgb(0%,0%,0%);fill-opacity:1;">
  <use xlink:href="#khmer-robat:glyph0-1" x="16" y="119.59375" class="dc"/>
  <use xlink:href="#khmer-robat:glyph0-2" x="89.8125" y="145.546875" class="c0"/>
</g>
</g>
</svg>