<?xml version="1.0" standalone="no"?>
<!DOCTYPE svg PUBLIC "-//W3C//DTD SVG 1.1//EN"
 "http://www.w3.org/Graphics/SVG/1.1/DTD/svg11.dtd">
<!-- Created with svg_stack (http://github.com/astraw/svg_stack) -->
<svg xmlns="http://www.w3.org/2000/svg" xmlns:sodipodi="http://sodipodi.sourceforge.net/DTD/sodipodi-0.dtd" xmlns:xlink="http://www.w3.org/1999/xlink" version="1.1" width="489.51171875" height="249.78515625">
  <defs><g>
<symbol overflow="visible" id="id0:glyph0-0">
<path style="stroke:none;" d="M 10.5625 0 L 10.5625 -78.546875 L 59.1875 -78.546875 L 59.1875 0 Z M 20.6875 -7.375 L 49.0625 -7.375 L 49.0625 -71.171875 L 20.6875 -71.171875 Z M 20.6875 -7.375 "/>
</symbol>
<symbol overflow="visible" id="id0:glyph0-1">
<path style="stroke:none;" d="M 16.390625 -61.375 C 16.390625 -60.789062 16.828125 -59.929688 17.703125 -58.796875 C 18.585938 -57.660156 19.835938 -56.359375 21.453125 -54.890625 L 21.453125 -27.0625 C 25.554688 -27.28125 28.613281 -26.414062 30.625 -24.46875 C 32.644531 -22.53125 33.65625 -19.910156 33.65625 -16.609375 C 33.65625 -15.285156 33.378906 -13.742188 32.828125 -11.984375 C 32.285156 -10.222656 31.148438 -8.332031 29.421875 -6.3125 C 27.703125 -4.300781 25.046875 -2.195312 21.453125 0 L 11.328125 0 L 11.328125 -51.59375 C 7.734375 -55.257812 5.9375 -57.9375 5.9375 -59.625 C 5.9375 -60.425781 6.578125 -61.742188 7.859375 -63.578125 C 9.148438 -65.410156 10.820312 -67.28125 12.875 -69.1875 C 14.5625 -70.726562 16.320312 -72.082031 18.15625 -73.25 C 19.988281 -74.425781 21.488281 -75.015625 22.65625 -75.015625 C 23.539062 -75.015625 24.601562 -74.609375 25.84375 -73.796875 C 27.09375 -72.992188 28.597656 -71.828125 30.359375 -70.296875 C 31.679688 -69.117188 32.800781 -68.144531 33.71875 -67.375 C 34.632812 -66.601562 35.128906 -66.21875 35.203125 -66.21875 C 35.421875 -66.21875 36.023438 -66.675781 37.015625 -67.59375 C 38.003906 -68.507812 39.160156 -69.59375 40.484375 -70.84375 C 41.867188 -72.082031 43.078125 -73.085938 44.109375 -73.859375 C 45.140625 -74.628906 46.238281 -75.015625 47.40625 -75.015625 C 49.09375 -75.015625 50.832031 -74.484375 52.625 -73.421875 C 54.425781 -72.359375 56.0625 -70.945312 57.53125 -69.1875 C 59.65625 -71.164062 62.332031 -72.628906 65.5625 -73.578125 C 68.789062 -74.535156 72.421875 -75.015625 76.453125 -75.015625 C 83.640625 -75.015625 89.46875 -73.492188 93.9375 -70.453125 C 98.414062 -67.410156 100.65625 -62.695312 100.65625 -56.3125 L 100.65625 0 L 90.53125 0 L 90.53125 -56.3125 C 90.53125 -58.882812 89.847656 -61.015625 88.484375 -62.703125 C 87.128906 -64.390625 85.390625 -65.632812 83.265625 -66.4375 C 81.140625 -67.25 78.867188 -67.65625 76.453125 -67.65625 C 74.023438 -67.65625 71.75 -67.25 69.625 -66.4375 C 67.5 -65.632812 65.757812 -64.390625 64.40625 -62.703125 C 63.050781 -61.015625 62.375 -58.882812 62.375 -56.3125 L 62.375 0 L 52.25 0 L 52.25 -57.3125 C 52.25 -59.289062 51.53125 -61.066406 50.09375 -62.640625 C 48.664062 -64.222656 47.257812 -65.015625 45.875 -65.015625 C 44.84375 -65.015625 43.832031 -64.609375 42.84375 -63.796875 C 41.851562 -62.992188 40.828125 -62.0625 39.765625 -61 C 38.703125 -59.9375 37.582031 -59 36.40625 -58.1875 C 35.238281 -57.382812 33.992188 -56.984375 32.671875 -56.984375 C 31.347656 -56.984375 30.097656 -57.367188 28.921875 -58.140625 C 27.753906 -58.910156 26.65625 -59.804688 25.625 -60.828125 C 24.601562 -61.859375 23.648438 -62.757812 22.765625 -63.53125 C 21.890625 -64.300781 21.046875 -64.6875 20.234375 -64.6875 C 19.796875 -64.6875 19.359375 -64.570312 18.921875 -64.34375 C 18.484375 -64.125 18.078125 -63.832031 17.703125 -63.46875 C 16.828125 -62.738281 16.390625 -62.039062 16.390625 -61.375 Z M 21.453125 -19.90625 L 21.453125 -9.796875 C 24.378906 -11.628906 25.84375 -13.863281 25.84375 -16.5 C 25.84375 -17.894531 25.421875 -18.8125 24.578125 -19.25 C 23.734375 -19.6875 22.691406 -19.90625 21.453125 -19.90625 Z M 87.5625 11.875 C 87.5625 9.96875 88.109375 8.410156 89.203125 7.203125 C 90.304688 5.992188 91.921875 5.390625 94.046875 5.390625 C 96.617188 5.390625 98.4375 6.234375 99.5 7.921875 C 100.5625 9.609375 101.09375 11.878906 101.09375 14.734375 C 101.09375 18.773438 100.175781 22.078125 98.34375 24.640625 C 96.507812 27.203125 94.144531 29.109375 91.25 30.359375 C 88.351562 31.609375 85.289062 32.234375 82.0625 32.234375 C 78.757812 32.234375 75.820312 31.660156 73.25 30.515625 C 70.6875 29.378906 68.175781 27.875 65.71875 26 C 63.269531 24.132812 60.613281 22.140625 57.75 20.015625 C 53.5 16.941406 49.425781 14.78125 45.53125 13.53125 C 41.644531 12.28125 37.984375 11.65625 34.546875 11.65625 C 30.953125 11.65625 27.484375 12.222656 24.140625 13.359375 C 20.804688 14.492188 17.859375 16.09375 15.296875 18.15625 L 13.09375 18.15625 C 14.488281 13.820312 17.253906 10.609375 21.390625 8.515625 C 25.535156 6.429688 30.285156 5.390625 35.640625 5.390625 C 40.847656 5.390625 45.539062 6.304688 49.71875 8.140625 C 53.894531 9.972656 58.367188 12.613281 63.140625 16.0625 C 67.910156 19.507812 71.707031 21.875 74.53125 23.15625 C 77.351562 24.4375 80.046875 25.078125 82.609375 25.078125 C 85.472656 25.078125 87.910156 24.398438 89.921875 23.046875 C 91.941406 21.691406 92.953125 19.65625 92.953125 16.9375 C 92.953125 13.5625 91.15625 11.875 87.5625 11.875 Z M 87.5625 11.875 "/>
</symbol>
<symbol overflow="visible" id="id0:glyph0-2">
<path style="stroke:none;" d="M -24.421875 30.03125 C -27.429688 30.03125 -30.050781 29.367188 -32.28125 28.046875 C -34.519531 26.722656 -35.640625 24.816406 -35.640625 22.328125 C -35.640625 21.234375 -35.457031 20.003906 -35.09375 18.640625 C -34.726562 17.285156 -34.394531 16.132812 -34.09375 15.1875 L -33.765625 14.296875 C -34.648438 14.296875 -35.398438 13.960938 -36.015625 13.296875 C -36.640625 12.640625 -36.953125 11.726562 -36.953125 10.5625 C -36.953125 9.09375 -36.382812 7.863281 -35.25 6.875 C -34.113281 5.882812 -32.59375 5.390625 -30.6875 5.390625 C -28.925781 5.390625 -27.53125 5.847656 -26.5 6.765625 C -25.476562 7.679688 -24.96875 9.09375 -24.96875 11 C -24.96875 11.726562 -25.078125 12.566406 -25.296875 13.515625 C -25.515625 14.472656 -25.921875 15.832031 -26.515625 17.59375 C -27.023438 19.207031 -27.078125 20.507812 -26.671875 21.5 C -26.265625 22.488281 -25.257812 22.984375 -23.65625 22.984375 C -21.675781 22.984375 -20.113281 22.140625 -18.96875 20.453125 C -17.832031 18.773438 -16.570312 16.25 -15.1875 12.875 C -13.9375 9.863281 -12.925781 7.863281 -12.15625 6.875 C -11.382812 5.882812 -10.484375 5.390625 -9.453125 5.390625 C -8.648438 5.390625 -7.84375 5.679688 -7.03125 6.265625 C -6.226562 6.859375 -5.828125 7.882812 -5.828125 9.34375 C -5.828125 10.445312 -6.101562 12.113281 -6.65625 14.34375 C -7.207031 16.582031 -8.175781 18.910156 -9.5625 21.328125 C -10.957031 23.753906 -12.863281 25.8125 -15.28125 27.5 C -17.707031 29.1875 -20.753906 30.03125 -24.421875 30.03125 Z M -24.421875 30.03125 "/>
</symbol>
</g>
<g>
<symbol overflow="visible" id="id1:glyph0-0">
<path style="stroke:none;" d="M 5.375 -96.6875 L 69.828125 -96.6875 L 69.828125 0 L 5.375 0 Z M 8.0625 -2.6875 L 67.140625 -2.6875 L 67.140625 -94 L 8.0625 -94 Z M 8.0625 -2.6875 "/>
</symbol>
<symbol overflow="visible" id="id1:glyph0-1">
<path style="stroke:none;" d="M 68.15625 -13.75 L 66.28125 -18.640625 L 88.09375 -27.390625 L 6.984375 -27.390625 L 6.984375 -34 L 88.09375 -34 L 66.28125 -42.75 L 68.15625 -47.640625 L 99.09375 -34.265625 L 99.09375 -27.125 Z M 68.15625 -13.75 "/>
</symbol>
</g>
<g>
<symbol overflow="visible" id="id2:glyph0-0">
<path style="stroke:none;" d="M 10.5625 0 L 10.5625 -78.546875 L 59.1875 -78.546875 L 59.1875 0 Z M 20.6875 -7.375 L 49.0625 -7.375 L 49.0625 -71.171875 L 20.6875 -71.171875 Z M 20.6875 -7.375 "/>
</symbol>
<symbol overflow="visible" id="id2:glyph0-1">
<path style="stroke:none;" d="M 16.390625 -61.375 C 16.390625 -60.789062 16.828125 -59.929688 17.703125 -58.796875 C 18.585938 -57.660156 19.835938 -56.359375 21.453125 -54.890625 L 21.453125 -27.0625 C 25.554688 -27.28125 28.613281 -26.414062 30.625 -24.46875 C 32.644531 -22.53125 33.65625 -19.910156 33.65625 -16.609375 C 33.65625 -15.285156 33.378906 -13.742188 32.828125 -11.984375 C 32.285156 -10.222656 31.148438 -8.332031 29.421875 -6.3125 C 27.703125 -4.300781 25.046875 -2.195312 21.453125 0 L 11.328125 0 L 11.328125 -51.59375 C 7.734375 -55.257812 5.9375 -57.9375 5.9375 -59.625 C 5.9375 -60.425781 6.578125 -61.742188 7.859375 -63.578125 C 9.148438 -65.410156 10.820312 -67.28125 12.875 -69.1875 C 14.5625 -70.726562 16.320312 -72.082031 18.15625 -73.25 C 19.988281 -74.425781 21.488281 -75.015625 22.65625 -75.015625 C 23.539062 -75.015625 24.601562 -74.609375 25.84375 -73.796875 C 27.09375 -72.992188 28.597656 -71.828125 30.359375 -70.296875 C 31.679688 -69.117188 32.800781 -68.144531 33.71875 -67.375 C 34.632812 -66.601562 35.128906 -66.21875 35.203125 -66.21875 C 35.421875 -66.21875 36.023438 -66.675781 37.015625 -67.59375 C 38.003906 -68.507812 39.160156 -69.59375 40.484375 -70.84375 C 41.867188 -72.082031 43.078125 -73.085938 44.109375 -73.859375 C 45.140625 -74.628906 46.238281 -75.015625 47.40625 -75.015625 C 49.09375 -75.015625 50.832031 -74.484375 52.625 -73.421875 C 54.425781 -72.359375 56.0625 -70.945312 57.53125 -69.1875 C 59.65625 -71.164062 62.332031 -72.628906 65.5625 -73.578125 C 68.789062 -74.535156 72.421875 -75.015625 76.453125 -75.015625 C 83.640625 -75.015625 89.46875 -73.492188 93.9375 -70.453125 C 98.414062 -67.410156 100.65625 -62.695312 100.65625 -56.3125 L 100.65625 0 L 90.53125 0 L 90.53125 -56.3125 C 90.53125 -58.882812 89.847656 -61.015625 88.484375 -62.703125 C 87.128906 -64.390625 85.390625 -65.632812 83.265625 -66.4375 C 81.140625 -67.25 78.867188 -67.65625 76.453125 -67.65625 C 74.023438 -67.65625 71.75 -67.25 69.625 -66.4375 C 67.5 -65.632812 65.757812 -64.390625 64.40625 -62.703125 C 63.050781 -61.015625 62.375 -58.882812 62.375 -56.3125 L 62.375 0 L 52.25 0 L 52.25 -57.3125 C 52.25 -59.289062 51.53125 -61.066406 50.09375 -62.640625 C 48.664062 -64.222656 47.257812 -65.015625 45.875 -65.015625 C 44.84375 -65.015625 43.832031 -64.609375 42.84375 -63.796875 C 41.851562 -62.992188 40.828125 -62.0625 39.765625 -61 C 38.703125 -59.9375 37.582031 -59 36.40625 -58.1875 C 35.238281 -57.382812 33.992188 -56.984375 32.671875 -56.984375 C 31.347656 -56.984375 30.097656 -57.367188 28.921875 -58.140625 C 27.753906 -58.910156 26.65625 -59.804688 25.625 -60.828125 C 24.601562 -61.859375 23.648438 -62.757812 22.765625 -63.53125 C 21.890625 -64.300781 21.046875 -64.6875 20.234375 -64.6875 C 19.796875 -64.6875 19.359375 -64.570312 18.921875 -64.34375 C 18.484375 -64.125 18.078125 -63.832031 17.703125 -63.46875 C 16.828125 -62.738281 16.390625 -62.039062 16.390625 -61.375 Z M 21.453125 -19.90625 L 21.453125 -9.796875 C 24.378906 -11.628906 25.84375 -13.863281 25.84375 -16.5 C 25.84375 -17.894531 25.421875 -18.8125 24.578125 -19.25 C 23.734375 -19.6875 22.691406 -19.90625 21.453125 -19.90625 Z M 87.5625 11.875 C 87.5625 9.96875 88.109375 8.410156 89.203125 7.203125 C 90.304688 5.992188 91.921875 5.390625 94.046875 5.390625 C 96.617188 5.390625 98.4375 6.234375 99.5 7.921875 C 100.5625 9.609375 101.09375 11.878906 101.09375 14.734375 C 101.09375 18.773438 100.175781 22.078125 98.34375 24.640625 C 96.507812 27.203125 94.144531 29.109375 91.25 30.359375 C 88.351562 31.609375 85.289062 32.234375 82.0625 32.234375 C 78.757812 32.234375 75.820312 31.660156 73.25 30.515625 C 70.6875 29.378906 68.175781 27.875 65.71875 26 C 63.269531 24.132812 60.613281 22.140625 57.75 20.015625 C 53.5 16.941406 49.425781 14.78125 45.53125 13.53125 C 41.644531 12.28125 37.984375 11.65625 34.546875 11.65625 C 30.953125 11.65625 27.484375 12.222656 24.140625 13.359375 C 20.804688 14.492188 17.859375 16.09375 15.296875 18.15625 L 13.09375 18.15625 C 14.488281 13.820312 17.253906 10.609375 21.390625 8.515625 C 25.535156 6.429688 30.285156 5.390625 35.640625 5.390625 C 40.847656 5.390625 45.539062 6.304688 49.71875 8.140625 C 53.894531 9.972656 58.367188 12.613281 63.140625 16.0625 C 67.910156 19.507812 71.707031 21.875 74.53125 23.15625 C 77.351562 24.4375 80.046875 25.078125 82.609375 25.078125 C 85.472656 25.078125 87.910156 24.398438 89.921875 23.046875 C 91.941406 21.691406 92.953125 19.65625 92.953125 16.9375 C 92.953125 13.5625 91.15625 11.875 87.5625 11.875 Z M 87.5625 11.875 "/>
</symbol>
<symbol overflow="visible" id="id2:glyph0-2">
<path style="stroke:none;" d="M -24.421875 30.03125 C -27.429688 30.03125 -30.050781 29.367188 -32.28125 28.046875 C -34.519531 26.722656 -35.640625 24.816406 -35.640625 22.328125 C -35.640625 21.234375 -35.457031 20.003906 -35.09375 18.640625 C -34.726562 17.285156 -34.394531 16.132812 -34.09375 15.1875 L -33.765625 14.296875 C -34.648438 14.296875 -35.398438 13.960938 -36.015625 13.296875 C -36.640625 12.640625 -36.953125 11.726562 -36.953125 10.5625 C -36.953125 9.09375 -36.382812 7.863281 -35.25 6.875 C -34.113281 5.882812 -32.59375 5.390625 -30.6875 5.390625 C -28.925781 5.390625 -27.53125 5.847656 -26.5 6.765625 C -25.476562 7.679688 -24.96875 9.09375 -24.96875 11 C -24.96875 11.726562 -25.078125 12.566406 -25.296875 13.515625 C -25.515625 14.472656 -25.921875 15.832031 -26.515625 17.59375 C -27.023438 19.207031 -27.078125 20.507812 -26.671875 21.5 C -26.265625 22.488281 -25.257812 22.984375 -23.65625 22.984375 C -21.675781 22.984375 -20.113281 22.140625 -18.96875 20.453125 C -17.832031 18.773438 -16.570312 16.25 -15.1875 12.875 C -13.9375 9.863281 -12.925781 7.863281 -12.15625 6.875 C -11.382812 5.882812 -10.484375 5.390625 -9.453125 5.390625 C -8.648438 5.390625 -7.84375 5.679688 -7.03125 6.265625 C -6.226562 6.859375 -5.828125 7.882812 -5.828125 9.34375 C -5.828125 10.445312 -6.101562 12.113281 -6.65625 14.34375 C -7.207031 16.582031 -8.175781 18.910156 -9.5625 21.328125 C -10.957031 23.753906 -12.863281 25.8125 -15.28125 27.5 C -17.707031 29.1875 -20.753906 30.03125 -24.421875 30.03125 Z M -24.421875 30.03125 "/>
</symbol>
</g>
</defs>
  <g id="id0:id0" transform="matrix(1.25,0,0,1.25,0.0,0.0)"><g id="id0:surface1">
<g style="fill:rgb(0%,0%,0%);fill-opacity:1;">
  <use xlink:href="#id0:glyph0-1" x="16" y="119.59375"/>
  <use xlink:href="#id0:glyph0-2" x="126.765625" y="119.59375"/>
</g>
</g>
</g>
  <g id="id1:id1" transform="matrix(1.25,0,0,1.25,178.45703125,24.189453125)"><g id="id1:surface1">
<g style="fill:rgb(0%,0%,0%);fill-opacity:1;">
  <use xlink:href="#id1:glyph0-1" x="0" y="120.84375"/>
</g>
</g>
</g>
  <g id="id2:id2" transform="matrix(1.25,0,0,1.25,311.0546875,0.0)"><g id="id2:surface1">
<g style="fill:rgb(0%,0%,0%);fill-opacity:1;">
  <use xlink:href="#id2:glyph0-1" x="16" y="119.59375"/>
  <use xlink:href="#id2:glyph0-2" x="115.109375" y="153.578125"/>
</g>
</g>
</g>
</svg>
