<!DOCTYPE svg PUBLIC "-//W3C//DTD SVG 1.1//EN" "http://www.w3.org/Graphics/SVG/1.1/DTD/svg11.dtd">
<!-- Created with svg_stack (http://github.com/astraw/svg_stack) --><svg xmlns="http://www.w3.org/2000/svg" xmlns:sodipodi="http://sodipodi.sourceforge.net/DTD/sodipodi-0.dtd" xmlns:xlink="http://www.w3.org/1999/xlink" version="1.1" width="578.33984375" height="201.40625" id="khmer-pstf">
  <defs><g>
<symbol overflow="visible" id="khmer-pstf:id0:glyph0-0">
<path style="stroke:none;" d="M 10.5625 0 L 10.5625 -78.546875 L 59.1875 -78.546875 L 59.1875 0 Z M 20.6875 -7.375 L 49.0625 -7.375 L 49.0625 -71.171875 L 20.6875 -71.171875 Z M 20.6875 -7.375 "/>
</symbol>
<symbol overflow="visible" id="khmer-pstf:id0:glyph0-1">
<path style="stroke:none;" d="M 34.765625 -50.8125 C 34.023438 -50.8125 33.398438 -51.066406 32.890625 -51.578125 C 32.378906 -52.097656 32.125 -52.722656 32.125 -53.453125 C 32.125 -54.191406 32.378906 -54.816406 32.890625 -55.328125 C 33.398438 -55.835938 34.023438 -56.09375 34.765625 -56.09375 C 35.492188 -56.09375 36.113281 -55.835938 36.625 -55.328125 C 37.144531 -54.816406 37.40625 -54.191406 37.40625 -53.453125 C 37.40625 -52.722656 37.144531 -52.097656 36.625 -51.578125 C 36.113281 -51.066406 35.492188 -50.8125 34.765625 -50.8125 Z M 24.09375 -48.1875 C 23.351562 -48.1875 22.726562 -48.441406 22.21875 -48.953125 C 21.707031 -49.460938 21.453125 -50.082031 21.453125 -50.8125 C 21.453125 -51.550781 21.707031 -52.175781 22.21875 -52.6875 C 22.726562 -53.195312 23.351562 -53.453125 24.09375 -53.453125 C 24.820312 -53.453125 25.441406 -53.195312 25.953125 -52.6875 C 26.472656 -52.175781 26.734375 -51.550781 26.734375 -50.8125 C 26.734375 -50.082031 26.472656 -49.460938 25.953125 -48.953125 C 25.441406 -48.441406 24.820312 -48.1875 24.09375 -48.1875 Z M 45.4375 -48.1875 C 44.695312 -48.1875 44.070312 -48.441406 43.5625 -48.953125 C 43.050781 -49.460938 42.796875 -50.082031 42.796875 -50.8125 C 42.796875 -51.550781 43.050781 -52.175781 43.5625 -52.6875 C 44.070312 -53.195312 44.695312 -53.453125 45.4375 -53.453125 C 46.164062 -53.453125 46.785156 -53.195312 47.296875 -52.6875 C 47.804688 -52.175781 48.0625 -51.550781 48.0625 -50.8125 C 48.0625 -50.082031 47.804688 -49.460938 47.296875 -48.953125 C 46.785156 -48.441406 46.164062 -48.1875 45.4375 -48.1875 Z M 16.28125 -40.484375 C 15.550781 -40.484375 14.925781 -40.738281 14.40625 -41.25 C 13.894531 -41.757812 13.640625 -42.382812 13.640625 -43.125 C 13.640625 -43.851562 13.894531 -44.472656 14.40625 -44.984375 C 14.925781 -45.503906 15.550781 -45.765625 16.28125 -45.765625 C 17.007812 -45.765625 17.628906 -45.503906 18.140625 -44.984375 C 18.660156 -44.472656 18.921875 -43.851562 18.921875 -43.125 C 18.921875 -42.382812 18.660156 -41.757812 18.140625 -41.25 C 17.628906 -40.738281 17.007812 -40.484375 16.28125 -40.484375 Z M 53.125 -40.265625 C 52.394531 -40.265625 51.769531 -40.519531 51.25 -41.03125 C 50.738281 -41.539062 50.484375 -42.164062 50.484375 -42.90625 C 50.484375 -43.632812 50.738281 -44.253906 51.25 -44.765625 C 51.769531 -45.285156 52.394531 -45.546875 53.125 -45.546875 C 53.863281 -45.546875 54.488281 -45.285156 55 -44.765625 C 55.507812 -44.253906 55.765625 -43.632812 55.765625 -42.90625 C 55.765625 -42.164062 55.507812 -41.539062 55 -41.03125 C 54.488281 -40.519531 53.863281 -40.265625 53.125 -40.265625 Z M 13.421875 -29.375 C 12.679688 -29.375 12.054688 -29.628906 11.546875 -30.140625 C 11.035156 -30.648438 10.78125 -31.273438 10.78125 -32.015625 C 10.78125 -32.742188 11.035156 -33.363281 11.546875 -33.875 C 12.054688 -34.394531 12.679688 -34.65625 13.421875 -34.65625 C 14.148438 -34.65625 14.769531 -34.394531 15.28125 -33.875 C 15.800781 -33.363281 16.0625 -32.742188 16.0625 -32.015625 C 16.0625 -31.273438 15.800781 -30.648438 15.28125 -30.140625 C 14.769531 -29.628906 14.148438 -29.375 13.421875 -29.375 Z M 56.4375 -29.375 C 55.695312 -29.375 55.070312 -29.628906 54.5625 -30.140625 C 54.050781 -30.648438 53.796875 -31.273438 53.796875 -32.015625 C 53.796875 -32.742188 54.050781 -33.363281 54.5625 -33.875 C 55.070312 -34.394531 55.695312 -34.65625 56.4375 -34.65625 C 57.164062 -34.65625 57.785156 -34.394531 58.296875 -33.875 C 58.804688 -33.363281 59.0625 -32.742188 59.0625 -32.015625 C 59.0625 -31.273438 58.804688 -30.648438 58.296875 -30.140625 C 57.785156 -29.628906 57.164062 -29.375 56.4375 -29.375 Z M 53.34375 -19.03125 C 52.613281 -19.03125 51.988281 -19.285156 51.46875 -19.796875 C 50.957031 -20.304688 50.703125 -20.929688 50.703125 -21.671875 C 50.703125 -22.398438 50.957031 -23.019531 51.46875 -23.53125 C 51.988281 -24.050781 52.613281 -24.3125 53.34375 -24.3125 C 54.082031 -24.3125 54.707031 -24.050781 55.21875 -23.53125 C 55.726562 -23.019531 55.984375 -22.398438 55.984375 -21.671875 C 55.984375 -20.929688 55.726562 -20.304688 55.21875 -19.796875 C 54.707031 -19.285156 54.082031 -19.03125 53.34375 -19.03125 Z M 16.0625 -18.921875 C 15.320312 -18.921875 14.695312 -19.175781 14.1875 -19.6875 C 13.675781 -20.195312 13.421875 -20.820312 13.421875 -21.5625 C 13.421875 -22.289062 13.675781 -22.910156 14.1875 -23.421875 C 14.695312 -23.941406 15.320312 -24.203125 16.0625 -24.203125 C 16.789062 -24.203125 17.410156 -23.941406 17.921875 -23.421875 C 18.441406 -22.910156 18.703125 -22.289062 18.703125 -21.5625 C 18.703125 -20.820312 18.441406 -20.195312 17.921875 -19.6875 C 17.410156 -19.175781 16.789062 -18.921875 16.0625 -18.921875 Z M 45.546875 -11.109375 C 44.804688 -11.109375 44.179688 -11.363281 43.671875 -11.875 C 43.160156 -12.394531 42.90625 -13.019531 42.90625 -13.75 C 42.90625 -14.476562 43.160156 -15.097656 43.671875 -15.609375 C 44.179688 -16.128906 44.804688 -16.390625 45.546875 -16.390625 C 46.273438 -16.390625 46.894531 -16.128906 47.40625 -15.609375 C 47.925781 -15.097656 48.1875 -14.476562 48.1875 -13.75 C 48.1875 -13.019531 47.925781 -12.394531 47.40625 -11.875 C 46.894531 -11.363281 46.273438 -11.109375 45.546875 -11.109375 Z M 24.09375 -11 C 23.351562 -11 22.726562 -11.253906 22.21875 -11.765625 C 21.707031 -12.285156 21.453125 -12.910156 21.453125 -13.640625 C 21.453125 -14.367188 21.707031 -14.988281 22.21875 -15.5 C 22.726562 -16.019531 23.351562 -16.28125 24.09375 -16.28125 C 24.820312 -16.28125 25.441406 -16.019531 25.953125 -15.5 C 26.472656 -14.988281 26.734375 -14.367188 26.734375 -13.640625 C 26.734375 -12.910156 26.472656 -12.285156 25.953125 -11.765625 C 25.441406 -11.253906 24.820312 -11 24.09375 -11 Z M 34.765625 -8.03125 C 34.023438 -8.03125 33.398438 -8.285156 32.890625 -8.796875 C 32.378906 -9.304688 32.125 -9.929688 32.125 -10.671875 C 32.125 -11.398438 32.378906 -12.019531 32.890625 -12.53125 C 33.398438 -13.050781 34.023438 -13.3125 34.765625 -13.3125 C 35.492188 -13.3125 36.113281 -13.050781 36.625 -12.53125 C 37.144531 -12.019531 37.40625 -11.398438 37.40625 -10.671875 C 37.40625 -9.929688 37.144531 -9.304688 36.625 -8.796875 C 36.113281 -8.285156 35.492188 -8.03125 34.765625 -8.03125 Z M 34.765625 -8.03125 "/>
</symbol>
<symbol overflow="visible" id="khmer-pstf:id0:glyph0-2">
<path style="stroke:none;" d="M -36.734375 26.84375 L -36.734375 18.046875 L -47.515625 18.046875 L -47.515625 11.4375 L -36.734375 11.4375 L -36.734375 2.640625 L -28.703125 2.640625 L -28.703125 11.4375 L -17.9375 11.4375 L -17.9375 18.046875 L -28.703125 18.046875 L -28.703125 26.84375 Z M -36.734375 26.84375 "/>
</symbol>
<symbol overflow="visible" id="khmer-pstf:id0:glyph0-3">
<path style="stroke:none;" d="M 36.625 -50.8125 C 41.757812 -50.8125 46.210938 -50.113281 49.984375 -48.71875 C 53.765625 -47.332031 56.679688 -45.425781 58.734375 -43 C 60.785156 -40.582031 61.8125 -37.835938 61.8125 -34.765625 L 61.8125 -16.0625 C 61.8125 -14.664062 62.453125 -13.304688 63.734375 -11.984375 C 65.023438 -10.671875 66.75 -9.570312 68.90625 -8.6875 C 71.070312 -7.8125 73.40625 -7.375 75.90625 -7.375 C 78.46875 -7.375 80.8125 -7.8125 82.9375 -8.6875 C 85.0625 -9.570312 86.765625 -10.671875 88.046875 -11.984375 C 89.335938 -13.304688 89.984375 -14.664062 89.984375 -16.0625 L 89.984375 -46.640625 C 87.335938 -48.835938 85.335938 -50.5625 83.984375 -51.8125 C 82.628906 -53.0625 81.726562 -54.03125 81.28125 -54.71875 C 80.84375 -55.414062 80.625 -56.023438 80.625 -56.546875 C 80.625 -57.273438 80.972656 -58.148438 81.671875 -59.171875 C 82.367188 -60.203125 83.632812 -61.890625 85.46875 -64.234375 C 87.300781 -66.585938 89.90625 -70.109375 93.28125 -74.796875 C 95.625 -73.253906 97.566406 -72.039062 99.109375 -71.15625 C 100.648438 -70.28125 102.132812 -69.695312 103.5625 -69.40625 C 104.988281 -69.113281 106.617188 -69.039062 108.453125 -69.1875 C 108.453125 -67.351562 107.8125 -65.570312 106.53125 -63.84375 C 105.25 -62.125 103.546875 -61.265625 101.421875 -61.265625 C 100.460938 -61.265625 99.34375 -61.519531 98.0625 -62.03125 C 96.78125 -62.550781 95.1875 -63.507812 93.28125 -64.90625 L 88.546875 -58.515625 L 100.09375 -49.171875 L 100.09375 -16.0625 C 100.09375 -13.71875 99.066406 -11.296875 97.015625 -8.796875 C 94.960938 -6.304688 92.117188 -4.21875 88.484375 -2.53125 C 84.859375 -0.84375 80.664062 0 75.90625 0 C 71.132812 0 66.914062 -0.84375 63.25 -2.53125 C 59.582031 -4.21875 56.738281 -6.304688 54.71875 -8.796875 C 52.707031 -11.296875 51.703125 -13.71875 51.703125 -16.0625 L 51.703125 -35.09375 C 51.703125 -37.363281 50.234375 -39.320312 47.296875 -40.96875 C 44.367188 -42.625 40.738281 -43.453125 36.40625 -43.453125 C 31.863281 -43.453125 28.144531 -42.609375 25.25 -40.921875 C 22.351562 -39.234375 20.90625 -37.289062 20.90625 -35.09375 L 20.90625 -27.0625 C 25.007812 -27.28125 28.066406 -26.414062 30.078125 -24.46875 C 32.097656 -22.53125 33.109375 -19.910156 33.109375 -16.609375 C 33.109375 -15.285156 32.832031 -13.742188 32.28125 -11.984375 C 31.726562 -10.222656 30.59375 -8.332031 28.875 -6.3125 C 27.15625 -4.300781 24.5 -2.195312 20.90625 0 L 10.78125 0 L 10.78125 -34.765625 C 10.78125 -37.835938 11.914062 -40.617188 14.1875 -43.109375 C 16.457031 -45.609375 19.578125 -47.519531 23.546875 -48.84375 C 21.554688 -50.53125 19.992188 -51.921875 18.859375 -53.015625 C 17.722656 -54.117188 17.15625 -55.109375 17.15625 -55.984375 C 17.15625 -56.429688 17.265625 -56.960938 17.484375 -57.578125 C 17.703125 -58.203125 18.210938 -59.117188 19.015625 -60.328125 C 19.828125 -61.546875 21.09375 -63.328125 22.8125 -65.671875 C 24.539062 -68.015625 26.875 -71.128906 29.8125 -75.015625 C 32.59375 -73.398438 35.101562 -72.039062 37.34375 -70.9375 C 39.582031 -69.84375 41.984375 -69.296875 44.546875 -69.296875 C 44.546875 -67.242188 43.90625 -65.410156 42.625 -63.796875 C 41.34375 -62.179688 39.859375 -61.375 38.171875 -61.375 C 36.992188 -61.375 35.617188 -61.8125 34.046875 -62.6875 C 32.472656 -63.570312 31.171875 -64.382812 30.140625 -65.125 L 25.296875 -58.734375 L 34.875 -50.8125 C 35.457031 -50.8125 36.039062 -50.8125 36.625 -50.8125 Z M 20.90625 -19.90625 L 20.90625 -9.796875 C 23.832031 -11.628906 25.296875 -13.863281 25.296875 -16.5 C 25.296875 -17.894531 24.875 -18.8125 24.03125 -19.25 C 23.1875 -19.6875 22.144531 -19.90625 20.90625 -19.90625 Z M 20.90625 -19.90625 "/>
</symbol>
</g>
<g>
<symbol overflow="visible" id="khmer-pstf:id1:glyph0-0">
<path style="stroke:none;" d="M 5.375 -96.6875 L 69.828125 -96.6875 L 69.828125 0 L 5.375 0 Z M 8.0625 -2.6875 L 67.140625 -2.6875 L 67.140625 -94 L 8.0625 -94 Z M 8.0625 -2.6875 "/>
</symbol>
<symbol overflow="visible" id="khmer-pstf:id1:glyph0-1">
<path style="stroke:none;" d="M 68.15625 -13.75 L 66.28125 -18.640625 L 88.09375 -27.390625 L 6.984375 -27.390625 L 6.984375 -34 L 88.09375 -34 L 66.28125 -42.75 L 68.15625 -47.640625 L 99.09375 -34.265625 L 99.09375 -27.125 Z M 68.15625 -13.75 "/>
</symbol>
</g>
<g>
<symbol overflow="visible" id="khmer-pstf:id2:glyph0-0">
<path style="stroke:none;" d="M 10.5625 0 L 10.5625 -78.546875 L 59.1875 -78.546875 L 59.1875 0 Z M 20.6875 -7.375 L 49.0625 -7.375 L 49.0625 -71.171875 L 20.6875 -71.171875 Z M 20.6875 -7.375 "/>
</symbol>
<symbol overflow="visible" id="khmer-pstf:id2:glyph0-1">
<path style="stroke:none;" d="M 34.765625 -50.8125 C 34.023438 -50.8125 33.398438 -51.066406 32.890625 -51.578125 C 32.378906 -52.097656 32.125 -52.722656 32.125 -53.453125 C 32.125 -54.191406 32.378906 -54.816406 32.890625 -55.328125 C 33.398438 -55.835938 34.023438 -56.09375 34.765625 -56.09375 C 35.492188 -56.09375 36.113281 -55.835938 36.625 -55.328125 C 37.144531 -54.816406 37.40625 -54.191406 37.40625 -53.453125 C 37.40625 -52.722656 37.144531 -52.097656 36.625 -51.578125 C 36.113281 -51.066406 35.492188 -50.8125 34.765625 -50.8125 Z M 24.09375 -48.1875 C 23.351562 -48.1875 22.726562 -48.441406 22.21875 -48.953125 C 21.707031 -49.460938 21.453125 -50.082031 21.453125 -50.8125 C 21.453125 -51.550781 21.707031 -52.175781 22.21875 -52.6875 C 22.726562 -53.195312 23.351562 -53.453125 24.09375 -53.453125 C 24.820312 -53.453125 25.441406 -53.195312 25.953125 -52.6875 C 26.472656 -52.175781 26.734375 -51.550781 26.734375 -50.8125 C 26.734375 -50.082031 26.472656 -49.460938 25.953125 -48.953125 C 25.441406 -48.441406 24.820312 -48.1875 24.09375 -48.1875 Z M 45.4375 -48.1875 C 44.695312 -48.1875 44.070312 -48.441406 43.5625 -48.953125 C 43.050781 -49.460938 42.796875 -50.082031 42.796875 -50.8125 C 42.796875 -51.550781 43.050781 -52.175781 43.5625 -52.6875 C 44.070312 -53.195312 44.695312 -53.453125 45.4375 -53.453125 C 46.164062 -53.453125 46.785156 -53.195312 47.296875 -52.6875 C 47.804688 -52.175781 48.0625 -51.550781 48.0625 -50.8125 C 48.0625 -50.082031 47.804688 -49.460938 47.296875 -48.953125 C 46.785156 -48.441406 46.164062 -48.1875 45.4375 -48.1875 Z M 16.28125 -40.484375 C 15.550781 -40.484375 14.925781 -40.738281 14.40625 -41.25 C 13.894531 -41.757812 13.640625 -42.382812 13.640625 -43.125 C 13.640625 -43.851562 13.894531 -44.472656 14.40625 -44.984375 C 14.925781 -45.503906 15.550781 -45.765625 16.28125 -45.765625 C 17.007812 -45.765625 17.628906 -45.503906 18.140625 -44.984375 C 18.660156 -44.472656 18.921875 -43.851562 18.921875 -43.125 C 18.921875 -42.382812 18.660156 -41.757812 18.140625 -41.25 C 17.628906 -40.738281 17.007812 -40.484375 16.28125 -40.484375 Z M 53.125 -40.265625 C 52.394531 -40.265625 51.769531 -40.519531 51.25 -41.03125 C 50.738281 -41.539062 50.484375 -42.164062 50.484375 -42.90625 C 50.484375 -43.632812 50.738281 -44.253906 51.25 -44.765625 C 51.769531 -45.285156 52.394531 -45.546875 53.125 -45.546875 C 53.863281 -45.546875 54.488281 -45.285156 55 -44.765625 C 55.507812 -44.253906 55.765625 -43.632812 55.765625 -42.90625 C 55.765625 -42.164062 55.507812 -41.539062 55 -41.03125 C 54.488281 -40.519531 53.863281 -40.265625 53.125 -40.265625 Z M 13.421875 -29.375 C 12.679688 -29.375 12.054688 -29.628906 11.546875 -30.140625 C 11.035156 -30.648438 10.78125 -31.273438 10.78125 -32.015625 C 10.78125 -32.742188 11.035156 -33.363281 11.546875 -33.875 C 12.054688 -34.394531 12.679688 -34.65625 13.421875 -34.65625 C 14.148438 -34.65625 14.769531 -34.394531 15.28125 -33.875 C 15.800781 -33.363281 16.0625 -32.742188 16.0625 -32.015625 C 16.0625 -31.273438 15.800781 -30.648438 15.28125 -30.140625 C 14.769531 -29.628906 14.148438 -29.375 13.421875 -29.375 Z M 56.4375 -29.375 C 55.695312 -29.375 55.070312 -29.628906 54.5625 -30.140625 C 54.050781 -30.648438 53.796875 -31.273438 53.796875 -32.015625 C 53.796875 -32.742188 54.050781 -33.363281 54.5625 -33.875 C 55.070312 -34.394531 55.695312 -34.65625 56.4375 -34.65625 C 57.164062 -34.65625 57.785156 -34.394531 58.296875 -33.875 C 58.804688 -33.363281 59.0625 -32.742188 59.0625 -32.015625 C 59.0625 -31.273438 58.804688 -30.648438 58.296875 -30.140625 C 57.785156 -29.628906 57.164062 -29.375 56.4375 -29.375 Z M 53.34375 -19.03125 C 52.613281 -19.03125 51.988281 -19.285156 51.46875 -19.796875 C 50.957031 -20.304688 50.703125 -20.929688 50.703125 -21.671875 C 50.703125 -22.398438 50.957031 -23.019531 51.46875 -23.53125 C 51.988281 -24.050781 52.613281 -24.3125 53.34375 -24.3125 C 54.082031 -24.3125 54.707031 -24.050781 55.21875 -23.53125 C 55.726562 -23.019531 55.984375 -22.398438 55.984375 -21.671875 C 55.984375 -20.929688 55.726562 -20.304688 55.21875 -19.796875 C 54.707031 -19.285156 54.082031 -19.03125 53.34375 -19.03125 Z M 16.0625 -18.921875 C 15.320312 -18.921875 14.695312 -19.175781 14.1875 -19.6875 C 13.675781 -20.195312 13.421875 -20.820312 13.421875 -21.5625 C 13.421875 -22.289062 13.675781 -22.910156 14.1875 -23.421875 C 14.695312 -23.941406 15.320312 -24.203125 16.0625 -24.203125 C 16.789062 -24.203125 17.410156 -23.941406 17.921875 -23.421875 C 18.441406 -22.910156 18.703125 -22.289062 18.703125 -21.5625 C 18.703125 -20.820312 18.441406 -20.195312 17.921875 -19.6875 C 17.410156 -19.175781 16.789062 -18.921875 16.0625 -18.921875 Z M 45.546875 -11.109375 C 44.804688 -11.109375 44.179688 -11.363281 43.671875 -11.875 C 43.160156 -12.394531 42.90625 -13.019531 42.90625 -13.75 C 42.90625 -14.476562 43.160156 -15.097656 43.671875 -15.609375 C 44.179688 -16.128906 44.804688 -16.390625 45.546875 -16.390625 C 46.273438 -16.390625 46.894531 -16.128906 47.40625 -15.609375 C 47.925781 -15.097656 48.1875 -14.476562 48.1875 -13.75 C 48.1875 -13.019531 47.925781 -12.394531 47.40625 -11.875 C 46.894531 -11.363281 46.273438 -11.109375 45.546875 -11.109375 Z M 24.09375 -11 C 23.351562 -11 22.726562 -11.253906 22.21875 -11.765625 C 21.707031 -12.285156 21.453125 -12.910156 21.453125 -13.640625 C 21.453125 -14.367188 21.707031 -14.988281 22.21875 -15.5 C 22.726562 -16.019531 23.351562 -16.28125 24.09375 -16.28125 C 24.820312 -16.28125 25.441406 -16.019531 25.953125 -15.5 C 26.472656 -14.988281 26.734375 -14.367188 26.734375 -13.640625 C 26.734375 -12.910156 26.472656 -12.285156 25.953125 -11.765625 C 25.441406 -11.253906 24.820312 -11 24.09375 -11 Z M 34.765625 -8.03125 C 34.023438 -8.03125 33.398438 -8.285156 32.890625 -8.796875 C 32.378906 -9.304688 32.125 -9.929688 32.125 -10.671875 C 32.125 -11.398438 32.378906 -12.019531 32.890625 -12.53125 C 33.398438 -13.050781 34.023438 -13.3125 34.765625 -13.3125 C 35.492188 -13.3125 36.113281 -13.050781 36.625 -12.53125 C 37.144531 -12.019531 37.40625 -11.398438 37.40625 -10.671875 C 37.40625 -9.929688 37.144531 -9.304688 36.625 -8.796875 C 36.113281 -8.285156 35.492188 -8.03125 34.765625 -8.03125 Z M 34.765625 -8.03125 "/>
</symbol>
<symbol overflow="visible" id="khmer-pstf:id2:glyph0-2">
<path style="stroke:none;" d="M -19.03125 21.015625 L -19.03125 19.578125 C -20.789062 19.503906 -22.164062 18.828125 -23.15625 17.546875 C -24.144531 16.265625 -24.640625 14.816406 -24.640625 13.203125 C -24.640625 10.929688 -23.847656 9.0625 -22.265625 7.59375 C -20.691406 6.125 -18.441406 5.390625 -15.515625 5.390625 C -11.109375 5.390625 -8.90625 7.1875 -8.90625 10.78125 L -8.90625 20.34375 C -8.90625 25.113281 -4.210938 27.5 5.171875 27.5 C 14.554688 27.5 19.25 25.113281 19.25 20.34375 L 19.25 0 L 10.5625 0 L 10.5625 -7.375 L 19.25 -7.375 L 19.25 -46.640625 C 16.613281 -48.835938 14.613281 -50.5625 13.25 -51.8125 C 11.894531 -53.0625 11 -54.03125 10.5625 -54.71875 C 10.125 -55.414062 9.90625 -56.023438 9.90625 -56.546875 C 9.90625 -57.273438 10.25 -58.148438 10.9375 -59.171875 C 11.632812 -60.203125 12.898438 -61.890625 14.734375 -64.234375 C 16.566406 -66.585938 19.171875 -70.109375 22.546875 -74.796875 C 24.890625 -73.253906 26.832031 -72.039062 28.375 -71.15625 C 29.914062 -70.28125 31.398438 -69.695312 32.828125 -69.40625 C 34.265625 -69.113281 35.898438 -69.039062 37.734375 -69.1875 C 37.734375 -67.351562 37.085938 -65.570312 35.796875 -63.84375 C 34.515625 -62.125 32.8125 -61.265625 30.6875 -61.265625 C 29.738281 -61.265625 28.617188 -61.519531 27.328125 -62.03125 C 26.046875 -62.550781 24.453125 -63.507812 22.546875 -64.90625 L 17.8125 -58.515625 L 29.375 -49.171875 L 29.375 -7.375 L 37.40625 -7.375 L 37.40625 0 L 29.375 0 L 29.375 20.34375 C 29.375 24.820312 27.351562 28.363281 23.3125 30.96875 C 19.28125 33.570312 13.234375 34.875 5.171875 34.875 C -2.671875 34.875 -8.609375 33.644531 -12.640625 31.1875 C -16.679688 28.726562 -18.8125 25.335938 -19.03125 21.015625 Z M -19.03125 21.015625 "/>
</symbol>
</g>
</defs>
  <g id="khmer-pstf:id0:id0" transform="matrix(1.25,0,0,1.25,0.0,4.560546875)"><g id="khmer-pstf:id0:surface1">
<g style="fill:rgb(0%,0%,0%);fill-opacity:1;">
  <use xlink:href="#khmer-pstf:id0:glyph0-1" x="16" y="119.59375" class="dc"/>
  <use xlink:href="#khmer-pstf:id0:glyph0-2" x="85.84375" y="119.59375" class="c0"/>
  <use xlink:href="#khmer-pstf:id0:glyph0-3" x="85.84375" y="119.59375" class="c1"/>
</g>
</g>
</g>
  <g id="khmer-pstf:id1:id1" transform="matrix(1.25,0,0,1.25,264.94140625,0.0)"><g id="khmer-pstf:id1:surface1">
<g style="fill:rgb(0%,0%,0%);fill-opacity:1;">
  <use xlink:href="#khmer-pstf:id1:glyph0-1" x="0" y="120.84375" class="arrow"/>
</g>
</g>
</g>
  <g id="khmer-pstf:id2:id2" transform="matrix(1.25,0,0,1.25,397.5390625,4.560546875)"><g id="khmer-pstf:id2:surface1">
<g style="fill:rgb(0%,0%,0%);fill-opacity:1;">
  <use xlink:href="#khmer-pstf:id2:glyph0-1" x="16" y="119.59375" class="dc"/>
  <use xlink:href="#khmer-pstf:id2:glyph0-2" x="85.84375" y="119.59375" class="c1"/>
</g>
</g>
</g>
</svg>
