<?xml version="1.0" standalone="no"?>
<!DOCTYPE svg PUBLIC "-//W3C//DTD SVG 1.1//EN"
 "http://www.w3.org/Graphics/SVG/1.1/DTD/svg11.dtd">
<!-- Created with svg_stack (http://github.com/astraw/svg_stack) -->
<svg xmlns="http://www.w3.org/2000/svg" xmlns:sodipodi="http://sodipodi.sourceforge.net/DTD/sodipodi-0.dtd" xmlns:xlink="http://www.w3.org/1999/xlink" version="1.1" width="651.89453125" height="201.40625">
  <defs><g>
<symbol overflow="visible" id="id0:glyph0-0">
<path style="stroke:none;" d="M 10.5625 0 L 10.5625 -78.546875 L 59.1875 -78.546875 L 59.1875 0 Z M 20.6875 -7.375 L 49.0625 -7.375 L 49.0625 -71.171875 L 20.6875 -71.171875 Z M 20.6875 -7.375 "/>
</symbol>
<symbol overflow="visible" id="id0:glyph0-1">
<path style="stroke:none;" d="M 10.125 -58.515625 L 21.671875 -49.171875 L 21.671875 -27.0625 C 25.773438 -27.28125 28.832031 -26.414062 30.84375 -24.46875 C 32.863281 -22.53125 33.875 -19.910156 33.875 -16.609375 C 33.875 -15.285156 33.597656 -13.742188 33.046875 -11.984375 C 32.503906 -10.222656 31.367188 -8.332031 29.640625 -6.3125 C 27.921875 -4.300781 25.265625 -2.195312 21.671875 0 L 11.546875 0 L 11.546875 -46.640625 C 8.910156 -48.835938 6.910156 -50.5625 5.546875 -51.8125 C 4.191406 -53.0625 3.296875 -54.03125 2.859375 -54.71875 C 2.421875 -55.414062 2.203125 -56.023438 2.203125 -56.546875 C 2.203125 -57.273438 2.550781 -58.148438 3.25 -59.171875 C 3.945312 -60.203125 5.210938 -61.890625 7.046875 -64.234375 C 8.878906 -66.585938 11.476562 -70.109375 14.84375 -74.796875 C 17.195312 -73.253906 19.140625 -72.039062 20.671875 -71.15625 C 22.210938 -70.28125 23.695312 -69.695312 25.125 -69.40625 C 26.5625 -69.113281 28.195312 -69.039062 30.03125 -69.1875 C 30.03125 -67.351562 29.390625 -65.570312 28.109375 -63.84375 C 26.828125 -62.125 25.117188 -61.265625 22.984375 -61.265625 C 22.035156 -61.265625 20.914062 -61.519531 19.625 -62.03125 C 18.34375 -62.550781 16.75 -63.507812 14.84375 -64.90625 Z M 21.671875 -19.90625 L 21.671875 -9.796875 C 24.597656 -11.628906 26.0625 -13.863281 26.0625 -16.5 C 26.0625 -17.894531 25.640625 -18.8125 24.796875 -19.25 C 23.960938 -19.6875 22.921875 -19.90625 21.671875 -19.90625 Z M 21.671875 -19.90625 "/>
</symbol>
<symbol overflow="visible" id="id0:glyph0-2">
<path style="stroke:none;" d="M 34.765625 -50.8125 C 34.023438 -50.8125 33.398438 -51.066406 32.890625 -51.578125 C 32.378906 -52.097656 32.125 -52.722656 32.125 -53.453125 C 32.125 -54.191406 32.378906 -54.816406 32.890625 -55.328125 C 33.398438 -55.835938 34.023438 -56.09375 34.765625 -56.09375 C 35.492188 -56.09375 36.113281 -55.835938 36.625 -55.328125 C 37.144531 -54.816406 37.40625 -54.191406 37.40625 -53.453125 C 37.40625 -52.722656 37.144531 -52.097656 36.625 -51.578125 C 36.113281 -51.066406 35.492188 -50.8125 34.765625 -50.8125 Z M 24.09375 -48.1875 C 23.351562 -48.1875 22.726562 -48.441406 22.21875 -48.953125 C 21.707031 -49.460938 21.453125 -50.082031 21.453125 -50.8125 C 21.453125 -51.550781 21.707031 -52.175781 22.21875 -52.6875 C 22.726562 -53.195312 23.351562 -53.453125 24.09375 -53.453125 C 24.820312 -53.453125 25.441406 -53.195312 25.953125 -52.6875 C 26.472656 -52.175781 26.734375 -51.550781 26.734375 -50.8125 C 26.734375 -50.082031 26.472656 -49.460938 25.953125 -48.953125 C 25.441406 -48.441406 24.820312 -48.1875 24.09375 -48.1875 Z M 45.4375 -48.1875 C 44.695312 -48.1875 44.070312 -48.441406 43.5625 -48.953125 C 43.050781 -49.460938 42.796875 -50.082031 42.796875 -50.8125 C 42.796875 -51.550781 43.050781 -52.175781 43.5625 -52.6875 C 44.070312 -53.195312 44.695312 -53.453125 45.4375 -53.453125 C 46.164062 -53.453125 46.785156 -53.195312 47.296875 -52.6875 C 47.804688 -52.175781 48.0625 -51.550781 48.0625 -50.8125 C 48.0625 -50.082031 47.804688 -49.460938 47.296875 -48.953125 C 46.785156 -48.441406 46.164062 -48.1875 45.4375 -48.1875 Z M 16.28125 -40.484375 C 15.550781 -40.484375 14.925781 -40.738281 14.40625 -41.25 C 13.894531 -41.757812 13.640625 -42.382812 13.640625 -43.125 C 13.640625 -43.851562 13.894531 -44.472656 14.40625 -44.984375 C 14.925781 -45.503906 15.550781 -45.765625 16.28125 -45.765625 C 17.007812 -45.765625 17.628906 -45.503906 18.140625 -44.984375 C 18.660156 -44.472656 18.921875 -43.851562 18.921875 -43.125 C 18.921875 -42.382812 18.660156 -41.757812 18.140625 -41.25 C 17.628906 -40.738281 17.007812 -40.484375 16.28125 -40.484375 Z M 53.125 -40.265625 C 52.394531 -40.265625 51.769531 -40.519531 51.25 -41.03125 C 50.738281 -41.539062 50.484375 -42.164062 50.484375 -42.90625 C 50.484375 -43.632812 50.738281 -44.253906 51.25 -44.765625 C 51.769531 -45.285156 52.394531 -45.546875 53.125 -45.546875 C 53.863281 -45.546875 54.488281 -45.285156 55 -44.765625 C 55.507812 -44.253906 55.765625 -43.632812 55.765625 -42.90625 C 55.765625 -42.164062 55.507812 -41.539062 55 -41.03125 C 54.488281 -40.519531 53.863281 -40.265625 53.125 -40.265625 Z M 13.421875 -29.375 C 12.679688 -29.375 12.054688 -29.628906 11.546875 -30.140625 C 11.035156 -30.648438 10.78125 -31.273438 10.78125 -32.015625 C 10.78125 -32.742188 11.035156 -33.363281 11.546875 -33.875 C 12.054688 -34.394531 12.679688 -34.65625 13.421875 -34.65625 C 14.148438 -34.65625 14.769531 -34.394531 15.28125 -33.875 C 15.800781 -33.363281 16.0625 -32.742188 16.0625 -32.015625 C 16.0625 -31.273438 15.800781 -30.648438 15.28125 -30.140625 C 14.769531 -29.628906 14.148438 -29.375 13.421875 -29.375 Z M 56.4375 -29.375 C 55.695312 -29.375 55.070312 -29.628906 54.5625 -30.140625 C 54.050781 -30.648438 53.796875 -31.273438 53.796875 -32.015625 C 53.796875 -32.742188 54.050781 -33.363281 54.5625 -33.875 C 55.070312 -34.394531 55.695312 -34.65625 56.4375 -34.65625 C 57.164062 -34.65625 57.785156 -34.394531 58.296875 -33.875 C 58.804688 -33.363281 59.0625 -32.742188 59.0625 -32.015625 C 59.0625 -31.273438 58.804688 -30.648438 58.296875 -30.140625 C 57.785156 -29.628906 57.164062 -29.375 56.4375 -29.375 Z M 53.34375 -19.03125 C 52.613281 -19.03125 51.988281 -19.285156 51.46875 -19.796875 C 50.957031 -20.304688 50.703125 -20.929688 50.703125 -21.671875 C 50.703125 -22.398438 50.957031 -23.019531 51.46875 -23.53125 C 51.988281 -24.050781 52.613281 -24.3125 53.34375 -24.3125 C 54.082031 -24.3125 54.707031 -24.050781 55.21875 -23.53125 C 55.726562 -23.019531 55.984375 -22.398438 55.984375 -21.671875 C 55.984375 -20.929688 55.726562 -20.304688 55.21875 -19.796875 C 54.707031 -19.285156 54.082031 -19.03125 53.34375 -19.03125 Z M 16.0625 -18.921875 C 15.320312 -18.921875 14.695312 -19.175781 14.1875 -19.6875 C 13.675781 -20.195312 13.421875 -20.820312 13.421875 -21.5625 C 13.421875 -22.289062 13.675781 -22.910156 14.1875 -23.421875 C 14.695312 -23.941406 15.320312 -24.203125 16.0625 -24.203125 C 16.789062 -24.203125 17.410156 -23.941406 17.921875 -23.421875 C 18.441406 -22.910156 18.703125 -22.289062 18.703125 -21.5625 C 18.703125 -20.820312 18.441406 -20.195312 17.921875 -19.6875 C 17.410156 -19.175781 16.789062 -18.921875 16.0625 -18.921875 Z M 45.546875 -11.109375 C 44.804688 -11.109375 44.179688 -11.363281 43.671875 -11.875 C 43.160156 -12.394531 42.90625 -13.019531 42.90625 -13.75 C 42.90625 -14.476562 43.160156 -15.097656 43.671875 -15.609375 C 44.179688 -16.128906 44.804688 -16.390625 45.546875 -16.390625 C 46.273438 -16.390625 46.894531 -16.128906 47.40625 -15.609375 C 47.925781 -15.097656 48.1875 -14.476562 48.1875 -13.75 C 48.1875 -13.019531 47.925781 -12.394531 47.40625 -11.875 C 46.894531 -11.363281 46.273438 -11.109375 45.546875 -11.109375 Z M 24.09375 -11 C 23.351562 -11 22.726562 -11.253906 22.21875 -11.765625 C 21.707031 -12.285156 21.453125 -12.910156 21.453125 -13.640625 C 21.453125 -14.367188 21.707031 -14.988281 22.21875 -15.5 C 22.726562 -16.019531 23.351562 -16.28125 24.09375 -16.28125 C 24.820312 -16.28125 25.441406 -16.019531 25.953125 -15.5 C 26.472656 -14.988281 26.734375 -14.367188 26.734375 -13.640625 C 26.734375 -12.910156 26.472656 -12.285156 25.953125 -11.765625 C 25.441406 -11.253906 24.820312 -11 24.09375 -11 Z M 34.765625 -8.03125 C 34.023438 -8.03125 33.398438 -8.285156 32.890625 -8.796875 C 32.378906 -9.304688 32.125 -9.929688 32.125 -10.671875 C 32.125 -11.398438 32.378906 -12.019531 32.890625 -12.53125 C 33.398438 -13.050781 34.023438 -13.3125 34.765625 -13.3125 C 35.492188 -13.3125 36.113281 -13.050781 36.625 -12.53125 C 37.144531 -12.019531 37.40625 -11.398438 37.40625 -10.671875 C 37.40625 -9.929688 37.144531 -9.304688 36.625 -8.796875 C 36.113281 -8.285156 35.492188 -8.03125 34.765625 -8.03125 Z M 34.765625 -8.03125 "/>
</symbol>
<symbol overflow="visible" id="id0:glyph0-3">
<path style="stroke:none;" d="M -10.78125 -61.8125 C -11.800781 -62.476562 -12.550781 -63.269531 -13.03125 -64.1875 C -13.507812 -65.101562 -13.75 -65.960938 -13.75 -66.765625 C -13.75 -68.453125 -12.613281 -70.066406 -10.34375 -71.609375 C -8.800781 -72.640625 -7.148438 -73.460938 -5.390625 -74.078125 C -3.628906 -74.703125 -1.941406 -75.015625 -0.328125 -75.015625 C 2.898438 -75.015625 6.015625 -73.84375 9.015625 -71.5 L 19.359375 -63.359375 C 22.148438 -61.234375 23.546875 -58.484375 23.546875 -55.109375 L 23.546875 0 L 13.421875 0 L 13.421875 -55.765625 L 2.53125 -64.453125 C 0.695312 -65.992188 -0.878906 -66.765625 -2.203125 -66.765625 C -2.929688 -66.765625 -3.863281 -66.453125 -5 -65.828125 C -6.132812 -65.210938 -8.0625 -63.875 -10.78125 -61.8125 Z M -10.78125 -61.8125 "/>
</symbol>
</g>
<g>
<symbol overflow="visible" id="id1:glyph0-0">
<path style="stroke:none;" d="M 5.375 -96.6875 L 69.828125 -96.6875 L 69.828125 0 L 5.375 0 Z M 8.0625 -2.6875 L 67.140625 -2.6875 L 67.140625 -94 L 8.0625 -94 Z M 8.0625 -2.6875 "/>
</symbol>
<symbol overflow="visible" id="id1:glyph0-1">
<path style="stroke:none;" d="M 68.15625 -13.75 L 66.28125 -18.640625 L 88.09375 -27.390625 L 6.984375 -27.390625 L 6.984375 -34 L 88.09375 -34 L 66.28125 -42.75 L 68.15625 -47.640625 L 99.09375 -34.265625 L 99.09375 -27.125 Z M 68.15625 -13.75 "/>
</symbol>
</g>
<g>
<symbol overflow="visible" id="id2:glyph0-0">
<path style="stroke:none;" d="M 10.5625 0 L 10.5625 -78.546875 L 59.1875 -78.546875 L 59.1875 0 Z M 20.6875 -7.375 L 49.0625 -7.375 L 49.0625 -71.171875 L 20.6875 -71.171875 Z M 20.6875 -7.375 "/>
</symbol>
<symbol overflow="visible" id="id2:glyph0-1">
<path style="stroke:none;" d="M 10.125 -58.515625 L 21.671875 -49.171875 L 21.671875 -27.0625 C 25.773438 -27.28125 28.832031 -26.414062 30.84375 -24.46875 C 32.863281 -22.53125 33.875 -19.910156 33.875 -16.609375 C 33.875 -15.285156 33.597656 -13.742188 33.046875 -11.984375 C 32.503906 -10.222656 31.367188 -8.332031 29.640625 -6.3125 C 27.921875 -4.300781 25.265625 -2.195312 21.671875 0 L 11.546875 0 L 11.546875 -46.640625 C 8.910156 -48.835938 6.910156 -50.5625 5.546875 -51.8125 C 4.191406 -53.0625 3.296875 -54.03125 2.859375 -54.71875 C 2.421875 -55.414062 2.203125 -56.023438 2.203125 -56.546875 C 2.203125 -57.273438 2.550781 -58.148438 3.25 -59.171875 C 3.945312 -60.203125 5.210938 -61.890625 7.046875 -64.234375 C 8.878906 -66.585938 11.476562 -70.109375 14.84375 -74.796875 C 17.195312 -73.253906 19.140625 -72.039062 20.671875 -71.15625 C 22.210938 -70.28125 23.695312 -69.695312 25.125 -69.40625 C 26.5625 -69.113281 28.195312 -69.039062 30.03125 -69.1875 C 30.03125 -67.351562 29.390625 -65.570312 28.109375 -63.84375 C 26.828125 -62.125 25.117188 -61.265625 22.984375 -61.265625 C 22.035156 -61.265625 20.914062 -61.519531 19.625 -62.03125 C 18.34375 -62.550781 16.75 -63.507812 14.84375 -64.90625 Z M 21.671875 -19.90625 L 21.671875 -9.796875 C 24.597656 -11.628906 26.0625 -13.863281 26.0625 -16.5 C 26.0625 -17.894531 25.640625 -18.8125 24.796875 -19.25 C 23.960938 -19.6875 22.921875 -19.90625 21.671875 -19.90625 Z M 21.671875 -19.90625 "/>
</symbol>
<symbol overflow="visible" id="id2:glyph0-2">
<path style="stroke:none;" d="M 34.765625 -50.8125 C 34.023438 -50.8125 33.398438 -51.066406 32.890625 -51.578125 C 32.378906 -52.097656 32.125 -52.722656 32.125 -53.453125 C 32.125 -54.191406 32.378906 -54.816406 32.890625 -55.328125 C 33.398438 -55.835938 34.023438 -56.09375 34.765625 -56.09375 C 35.492188 -56.09375 36.113281 -55.835938 36.625 -55.328125 C 37.144531 -54.816406 37.40625 -54.191406 37.40625 -53.453125 C 37.40625 -52.722656 37.144531 -52.097656 36.625 -51.578125 C 36.113281 -51.066406 35.492188 -50.8125 34.765625 -50.8125 Z M 24.09375 -48.1875 C 23.351562 -48.1875 22.726562 -48.441406 22.21875 -48.953125 C 21.707031 -49.460938 21.453125 -50.082031 21.453125 -50.8125 C 21.453125 -51.550781 21.707031 -52.175781 22.21875 -52.6875 C 22.726562 -53.195312 23.351562 -53.453125 24.09375 -53.453125 C 24.820312 -53.453125 25.441406 -53.195312 25.953125 -52.6875 C 26.472656 -52.175781 26.734375 -51.550781 26.734375 -50.8125 C 26.734375 -50.082031 26.472656 -49.460938 25.953125 -48.953125 C 25.441406 -48.441406 24.820312 -48.1875 24.09375 -48.1875 Z M 45.4375 -48.1875 C 44.695312 -48.1875 44.070312 -48.441406 43.5625 -48.953125 C 43.050781 -49.460938 42.796875 -50.082031 42.796875 -50.8125 C 42.796875 -51.550781 43.050781 -52.175781 43.5625 -52.6875 C 44.070312 -53.195312 44.695312 -53.453125 45.4375 -53.453125 C 46.164062 -53.453125 46.785156 -53.195312 47.296875 -52.6875 C 47.804688 -52.175781 48.0625 -51.550781 48.0625 -50.8125 C 48.0625 -50.082031 47.804688 -49.460938 47.296875 -48.953125 C 46.785156 -48.441406 46.164062 -48.1875 45.4375 -48.1875 Z M 16.28125 -40.484375 C 15.550781 -40.484375 14.925781 -40.738281 14.40625 -41.25 C 13.894531 -41.757812 13.640625 -42.382812 13.640625 -43.125 C 13.640625 -43.851562 13.894531 -44.472656 14.40625 -44.984375 C 14.925781 -45.503906 15.550781 -45.765625 16.28125 -45.765625 C 17.007812 -45.765625 17.628906 -45.503906 18.140625 -44.984375 C 18.660156 -44.472656 18.921875 -43.851562 18.921875 -43.125 C 18.921875 -42.382812 18.660156 -41.757812 18.140625 -41.25 C 17.628906 -40.738281 17.007812 -40.484375 16.28125 -40.484375 Z M 53.125 -40.265625 C 52.394531 -40.265625 51.769531 -40.519531 51.25 -41.03125 C 50.738281 -41.539062 50.484375 -42.164062 50.484375 -42.90625 C 50.484375 -43.632812 50.738281 -44.253906 51.25 -44.765625 C 51.769531 -45.285156 52.394531 -45.546875 53.125 -45.546875 C 53.863281 -45.546875 54.488281 -45.285156 55 -44.765625 C 55.507812 -44.253906 55.765625 -43.632812 55.765625 -42.90625 C 55.765625 -42.164062 55.507812 -41.539062 55 -41.03125 C 54.488281 -40.519531 53.863281 -40.265625 53.125 -40.265625 Z M 13.421875 -29.375 C 12.679688 -29.375 12.054688 -29.628906 11.546875 -30.140625 C 11.035156 -30.648438 10.78125 -31.273438 10.78125 -32.015625 C 10.78125 -32.742188 11.035156 -33.363281 11.546875 -33.875 C 12.054688 -34.394531 12.679688 -34.65625 13.421875 -34.65625 C 14.148438 -34.65625 14.769531 -34.394531 15.28125 -33.875 C 15.800781 -33.363281 16.0625 -32.742188 16.0625 -32.015625 C 16.0625 -31.273438 15.800781 -30.648438 15.28125 -30.140625 C 14.769531 -29.628906 14.148438 -29.375 13.421875 -29.375 Z M 56.4375 -29.375 C 55.695312 -29.375 55.070312 -29.628906 54.5625 -30.140625 C 54.050781 -30.648438 53.796875 -31.273438 53.796875 -32.015625 C 53.796875 -32.742188 54.050781 -33.363281 54.5625 -33.875 C 55.070312 -34.394531 55.695312 -34.65625 56.4375 -34.65625 C 57.164062 -34.65625 57.785156 -34.394531 58.296875 -33.875 C 58.804688 -33.363281 59.0625 -32.742188 59.0625 -32.015625 C 59.0625 -31.273438 58.804688 -30.648438 58.296875 -30.140625 C 57.785156 -29.628906 57.164062 -29.375 56.4375 -29.375 Z M 53.34375 -19.03125 C 52.613281 -19.03125 51.988281 -19.285156 51.46875 -19.796875 C 50.957031 -20.304688 50.703125 -20.929688 50.703125 -21.671875 C 50.703125 -22.398438 50.957031 -23.019531 51.46875 -23.53125 C 51.988281 -24.050781 52.613281 -24.3125 53.34375 -24.3125 C 54.082031 -24.3125 54.707031 -24.050781 55.21875 -23.53125 C 55.726562 -23.019531 55.984375 -22.398438 55.984375 -21.671875 C 55.984375 -20.929688 55.726562 -20.304688 55.21875 -19.796875 C 54.707031 -19.285156 54.082031 -19.03125 53.34375 -19.03125 Z M 16.0625 -18.921875 C 15.320312 -18.921875 14.695312 -19.175781 14.1875 -19.6875 C 13.675781 -20.195312 13.421875 -20.820312 13.421875 -21.5625 C 13.421875 -22.289062 13.675781 -22.910156 14.1875 -23.421875 C 14.695312 -23.941406 15.320312 -24.203125 16.0625 -24.203125 C 16.789062 -24.203125 17.410156 -23.941406 17.921875 -23.421875 C 18.441406 -22.910156 18.703125 -22.289062 18.703125 -21.5625 C 18.703125 -20.820312 18.441406 -20.195312 17.921875 -19.6875 C 17.410156 -19.175781 16.789062 -18.921875 16.0625 -18.921875 Z M 45.546875 -11.109375 C 44.804688 -11.109375 44.179688 -11.363281 43.671875 -11.875 C 43.160156 -12.394531 42.90625 -13.019531 42.90625 -13.75 C 42.90625 -14.476562 43.160156 -15.097656 43.671875 -15.609375 C 44.179688 -16.128906 44.804688 -16.390625 45.546875 -16.390625 C 46.273438 -16.390625 46.894531 -16.128906 47.40625 -15.609375 C 47.925781 -15.097656 48.1875 -14.476562 48.1875 -13.75 C 48.1875 -13.019531 47.925781 -12.394531 47.40625 -11.875 C 46.894531 -11.363281 46.273438 -11.109375 45.546875 -11.109375 Z M 24.09375 -11 C 23.351562 -11 22.726562 -11.253906 22.21875 -11.765625 C 21.707031 -12.285156 21.453125 -12.910156 21.453125 -13.640625 C 21.453125 -14.367188 21.707031 -14.988281 22.21875 -15.5 C 22.726562 -16.019531 23.351562 -16.28125 24.09375 -16.28125 C 24.820312 -16.28125 25.441406 -16.019531 25.953125 -15.5 C 26.472656 -14.988281 26.734375 -14.367188 26.734375 -13.640625 C 26.734375 -12.910156 26.472656 -12.285156 25.953125 -11.765625 C 25.441406 -11.253906 24.820312 -11 24.09375 -11 Z M 34.765625 -8.03125 C 34.023438 -8.03125 33.398438 -8.285156 32.890625 -8.796875 C 32.378906 -9.304688 32.125 -9.929688 32.125 -10.671875 C 32.125 -11.398438 32.378906 -12.019531 32.890625 -12.53125 C 33.398438 -13.050781 34.023438 -13.3125 34.765625 -13.3125 C 35.492188 -13.3125 36.113281 -13.050781 36.625 -12.53125 C 37.144531 -12.019531 37.40625 -11.398438 37.40625 -10.671875 C 37.40625 -9.929688 37.144531 -9.304688 36.625 -8.796875 C 36.113281 -8.285156 35.492188 -8.03125 34.765625 -8.03125 Z M 34.765625 -8.03125 "/>
</symbol>
<symbol overflow="visible" id="id2:glyph0-3">
<path style="stroke:none;" d="M -10.78125 -61.8125 C -11.800781 -62.476562 -12.550781 -63.269531 -13.03125 -64.1875 C -13.507812 -65.101562 -13.75 -65.960938 -13.75 -66.765625 C -13.75 -68.453125 -12.613281 -70.066406 -10.34375 -71.609375 C -8.800781 -72.640625 -7.148438 -73.460938 -5.390625 -74.078125 C -3.628906 -74.703125 -1.941406 -75.015625 -0.328125 -75.015625 C 2.898438 -75.015625 6.015625 -73.84375 9.015625 -71.5 L 19.359375 -63.359375 C 22.148438 -61.234375 23.546875 -58.484375 23.546875 -55.109375 L 23.546875 0 L 13.421875 0 L 13.421875 -55.765625 L 2.53125 -64.453125 C 0.695312 -65.992188 -0.878906 -66.765625 -2.203125 -66.765625 C -2.929688 -66.765625 -3.863281 -66.453125 -5 -65.828125 C -6.132812 -65.210938 -8.0625 -63.875 -10.78125 -61.8125 Z M -10.78125 -61.8125 "/>
</symbol>
</g>
</defs>
  <g id="id0:id0" transform="matrix(1.25,0,0,1.25,0.0,4.560546875)"><g id="id0:surface1">
<g style="fill:rgb(0%,0%,0%);fill-opacity:1;">
  <use xlink:href="#id0:glyph0-1" x="16" y="119.59375"/>
  <use xlink:href="#id0:glyph0-2" x="53.296875" y="119.59375"/>
  <use xlink:href="#id0:glyph0-3" x="123.140625" y="119.59375"/>
</g>
</g>
</g>
  <g id="id1:id1" transform="matrix(1.25,0,0,1.25,215.99609375,0.0)"><g id="id1:surface1">
<g style="fill:rgb(0%,0%,0%);fill-opacity:1;">
  <use xlink:href="#id1:glyph0-1" x="0" y="120.84375"/>
</g>
</g>
</g>
  <g id="id2:id2" transform="matrix(1.25,0,0,1.25,348.59375,4.560546875)"><g id="id2:surface1">
<g style="fill:rgb(0%,0%,0%);fill-opacity:1;">
  <use xlink:href="#id2:glyph0-1" x="16" y="119.59375"/>
  <use xlink:href="#id2:glyph0-2" x="53.296875" y="119.59375"/>
  <use xlink:href="#id2:glyph0-2" x="123.140625" y="119.59375"/>
  <use xlink:href="#id2:glyph0-3" x="192.984375" y="119.59375"/>
</g>
</g>
</g>
</svg>
