<!DOCTYPE svg PUBLIC "-//W3C//DTD SVG 1.1//EN" "http://www.w3.org/Graphics/SVG/1.1/DTD/svg11.dtd">
<!-- Created with svg_stack (http://github.com/astraw/svg_stack) --><svg xmlns="http://www.w3.org/2000/svg" xmlns:sodipodi="http://sodipodi.sourceforge.net/DTD/sodipodi-0.dtd" xmlns:xlink="http://www.w3.org/1999/xlink" version="1.1" width="393.26171875" height="229.78515625" id="khmer-abvs">
  <defs><g>
<symbol overflow="visible" id="khmer-abvs:id0:glyph0-0">
<path style="stroke:none;" d="M 10.5625 0 L 10.5625 -78.546875 L 59.1875 -78.546875 L 59.1875 0 Z M 20.6875 -7.375 L 49.0625 -7.375 L 49.0625 -71.171875 L 20.6875 -71.171875 Z M 20.6875 -7.375 "/>
</symbol>
<symbol overflow="visible" id="khmer-abvs:id0:glyph0-1">
<path style="stroke:none;" d="M 16.390625 -61.375 C 16.390625 -60.789062 16.828125 -59.929688 17.703125 -58.796875 C 18.585938 -57.660156 19.835938 -56.359375 21.453125 -54.890625 L 21.453125 -27.0625 C 25.554688 -27.28125 28.613281 -26.414062 30.625 -24.46875 C 32.644531 -22.53125 33.65625 -19.910156 33.65625 -16.609375 C 33.65625 -15.285156 33.378906 -13.742188 32.828125 -11.984375 C 32.285156 -10.222656 31.148438 -8.332031 29.421875 -6.3125 C 27.703125 -4.300781 25.046875 -2.195312 21.453125 0 L 11.328125 0 L 11.328125 -51.59375 C 7.734375 -55.257812 5.9375 -57.9375 5.9375 -59.625 C 5.9375 -60.425781 6.578125 -61.742188 7.859375 -63.578125 C 9.148438 -65.410156 10.820312 -67.28125 12.875 -69.1875 C 14.5625 -70.726562 16.320312 -72.082031 18.15625 -73.25 C 19.988281 -74.425781 21.488281 -75.015625 22.65625 -75.015625 C 23.539062 -75.015625 24.601562 -74.609375 25.84375 -73.796875 C 27.09375 -72.992188 28.597656 -71.828125 30.359375 -70.296875 C 31.679688 -69.117188 32.800781 -68.144531 33.71875 -67.375 C 34.632812 -66.601562 35.128906 -66.21875 35.203125 -66.21875 C 35.421875 -66.21875 36.023438 -66.675781 37.015625 -67.59375 C 38.003906 -68.507812 39.160156 -69.59375 40.484375 -70.84375 C 41.867188 -72.082031 43.078125 -73.085938 44.109375 -73.859375 C 45.140625 -74.628906 46.238281 -75.015625 47.40625 -75.015625 C 49.675781 -75.015625 51.945312 -74.132812 54.21875 -72.375 C 56.5 -70.613281 58.425781 -68.375 60 -65.65625 C 61.582031 -62.945312 62.375 -60.164062 62.375 -57.3125 L 62.375 0 L 52.25 0 L 52.25 -57.3125 C 52.25 -59.289062 51.53125 -61.066406 50.09375 -62.640625 C 48.664062 -64.222656 47.257812 -65.015625 45.875 -65.015625 C 44.84375 -65.015625 43.832031 -64.609375 42.84375 -63.796875 C 41.851562 -62.992188 40.828125 -62.0625 39.765625 -61 C 38.703125 -59.9375 37.582031 -59 36.40625 -58.1875 C 35.238281 -57.382812 33.992188 -56.984375 32.671875 -56.984375 C 31.347656 -56.984375 30.097656 -57.367188 28.921875 -58.140625 C 27.753906 -58.910156 26.65625 -59.804688 25.625 -60.828125 C 24.601562 -61.859375 23.648438 -62.757812 22.765625 -63.53125 C 21.890625 -64.300781 21.046875 -64.6875 20.234375 -64.6875 C 19.796875 -64.6875 19.359375 -64.570312 18.921875 -64.34375 C 18.484375 -64.125 18.078125 -63.832031 17.703125 -63.46875 C 16.828125 -62.738281 16.390625 -62.039062 16.390625 -61.375 Z M 21.453125 -19.90625 L 21.453125 -9.796875 C 24.378906 -11.628906 25.84375 -13.863281 25.84375 -16.5 C 25.84375 -17.894531 25.421875 -18.8125 24.578125 -19.25 C 23.734375 -19.6875 22.691406 -19.90625 21.453125 -19.90625 Z M 21.453125 -19.90625 "/>
</symbol>
<symbol overflow="visible" id="khmer-abvs:id0:glyph0-2">
<path style="stroke:none;" d="M -62.8125 -101.75 C -62.8125 -105.632812 -61.4375 -108.894531 -58.6875 -111.53125 C -55.9375 -114.175781 -51.847656 -115.5 -46.421875 -115.5 C -37.472656 -115.5 -28.671875 -111.6875 -20.015625 -104.0625 C -18.109375 -102.445312 -16.75 -101.050781 -15.9375 -99.875 C -15.132812 -98.707031 -14.734375 -97.644531 -14.734375 -96.6875 C -14.734375 -95.882812 -15.082031 -95.222656 -15.78125 -94.703125 C -16.476562 -94.191406 -17.742188 -93.9375 -19.578125 -93.9375 L -55 -93.9375 C -60.207031 -93.9375 -62.8125 -96.539062 -62.8125 -101.75 Z M -55 -100.875 L -28.15625 -100.875 C -31.601562 -103.65625 -34.828125 -105.613281 -37.828125 -106.75 C -40.835938 -107.882812 -43.664062 -108.453125 -46.3125 -108.453125 C -49.613281 -108.453125 -51.882812 -107.71875 -53.125 -106.25 C -54.375 -104.789062 -55 -103 -55 -100.875 Z M -55 -100.875 "/>
</symbol>
<symbol overflow="visible" id="khmer-abvs:id0:glyph0-3">
<path style="stroke:none;" d="M -45.203125 -97.796875 C -45.203125 -96.328125 -44.742188 -95.078125 -43.828125 -94.046875 C -42.910156 -93.023438 -41.757812 -92.515625 -40.375 -92.515625 C -39.125 -92.515625 -38.078125 -92.894531 -37.234375 -93.65625 C -36.390625 -94.425781 -35.675781 -95.363281 -35.09375 -96.46875 C -31.28125 -96.46875 -29.375 -95.222656 -29.375 -92.734375 C -29.375 -91.335938 -30.453125 -90.050781 -32.609375 -88.875 C -34.773438 -87.707031 -37.472656 -87.125 -40.703125 -87.125 C -44.804688 -87.125 -47.921875 -88.203125 -50.046875 -90.359375 C -52.171875 -92.523438 -53.234375 -95.003906 -53.234375 -97.796875 C -53.234375 -101.015625 -52.039062 -103.632812 -49.65625 -105.65625 C -47.28125 -107.675781 -44.296875 -108.6875 -40.703125 -108.6875 C -38.722656 -108.6875 -37.160156 -108.425781 -36.015625 -107.90625 C -34.878906 -107.394531 -33.984375 -106.863281 -33.328125 -106.3125 C -32.671875 -105.757812 -32.082031 -105.484375 -31.5625 -105.484375 C -31.195312 -105.484375 -30.460938 -105.6875 -29.359375 -106.09375 C -28.265625 -106.5 -27.128906 -107.175781 -25.953125 -108.125 C -24.492188 -109.300781 -23.359375 -110.660156 -22.546875 -112.203125 C -21.742188 -113.742188 -21.34375 -114.953125 -21.34375 -115.828125 C -19.875 -116.046875 -18.476562 -115.898438 -17.15625 -115.390625 C -15.84375 -114.878906 -15.1875 -113.925781 -15.1875 -112.53125 C -15.1875 -111.132812 -16.117188 -109.570312 -17.984375 -107.84375 C -19.859375 -106.125 -22.078125 -104.53125 -24.640625 -103.0625 C -26.472656 -102.113281 -28.125 -101.34375 -29.59375 -100.75 C -31.0625 -100.164062 -32.085938 -99.875 -32.671875 -99.875 C -33.109375 -99.875 -33.566406 -100.164062 -34.046875 -100.75 C -34.523438 -101.34375 -35.164062 -101.914062 -35.96875 -102.46875 C -36.78125 -103.019531 -37.914062 -103.296875 -39.375 -103.296875 C -41.0625 -103.296875 -42.453125 -102.796875 -43.546875 -101.796875 C -44.648438 -100.804688 -45.203125 -99.472656 -45.203125 -97.796875 Z M -45.203125 -97.796875 "/>
</symbol>
</g>
<g>
<symbol overflow="visible" id="khmer-abvs:id1:glyph0-0">
<path style="stroke:none;" d="M 5.375 -96.6875 L 69.828125 -96.6875 L 69.828125 0 L 5.375 0 Z M 8.0625 -2.6875 L 67.140625 -2.6875 L 67.140625 -94 L 8.0625 -94 Z M 8.0625 -2.6875 "/>
</symbol>
<symbol overflow="visible" id="khmer-abvs:id1:glyph0-1">
<path style="stroke:none;" d="M 68.15625 -13.75 L 66.28125 -18.640625 L 88.09375 -27.390625 L 6.984375 -27.390625 L 6.984375 -34 L 88.09375 -34 L 66.28125 -42.75 L 68.15625 -47.640625 L 99.09375 -34.265625 L 99.09375 -27.125 Z M 68.15625 -13.75 "/>
</symbol>
</g>
<g>
<symbol overflow="visible" id="khmer-abvs:id2:glyph0-0">
<path style="stroke:none;" d="M 10.5625 0 L 10.5625 -78.546875 L 59.1875 -78.546875 L 59.1875 0 Z M 20.6875 -7.375 L 49.0625 -7.375 L 49.0625 -71.171875 L 20.6875 -71.171875 Z M 20.6875 -7.375 "/>
</symbol>
<symbol overflow="visible" id="khmer-abvs:id2:glyph0-1">
<path style="stroke:none;" d="M 16.390625 -61.375 C 16.390625 -60.789062 16.828125 -59.929688 17.703125 -58.796875 C 18.585938 -57.660156 19.835938 -56.359375 21.453125 -54.890625 L 21.453125 -27.0625 C 25.554688 -27.28125 28.613281 -26.414062 30.625 -24.46875 C 32.644531 -22.53125 33.65625 -19.910156 33.65625 -16.609375 C 33.65625 -15.285156 33.378906 -13.742188 32.828125 -11.984375 C 32.285156 -10.222656 31.148438 -8.332031 29.421875 -6.3125 C 27.703125 -4.300781 25.046875 -2.195312 21.453125 0 L 11.328125 0 L 11.328125 -51.59375 C 7.734375 -55.257812 5.9375 -57.9375 5.9375 -59.625 C 5.9375 -60.425781 6.578125 -61.742188 7.859375 -63.578125 C 9.148438 -65.410156 10.820312 -67.28125 12.875 -69.1875 C 14.5625 -70.726562 16.320312 -72.082031 18.15625 -73.25 C 19.988281 -74.425781 21.488281 -75.015625 22.65625 -75.015625 C 23.539062 -75.015625 24.601562 -74.609375 25.84375 -73.796875 C 27.09375 -72.992188 28.597656 -71.828125 30.359375 -70.296875 C 31.679688 -69.117188 32.800781 -68.144531 33.71875 -67.375 C 34.632812 -66.601562 35.128906 -66.21875 35.203125 -66.21875 C 35.421875 -66.21875 36.023438 -66.675781 37.015625 -67.59375 C 38.003906 -68.507812 39.160156 -69.59375 40.484375 -70.84375 C 41.867188 -72.082031 43.078125 -73.085938 44.109375 -73.859375 C 45.140625 -74.628906 46.238281 -75.015625 47.40625 -75.015625 C 49.675781 -75.015625 51.945312 -74.132812 54.21875 -72.375 C 56.5 -70.613281 58.425781 -68.375 60 -65.65625 C 61.582031 -62.945312 62.375 -60.164062 62.375 -57.3125 L 62.375 0 L 52.25 0 L 52.25 -57.3125 C 52.25 -59.289062 51.53125 -61.066406 50.09375 -62.640625 C 48.664062 -64.222656 47.257812 -65.015625 45.875 -65.015625 C 44.84375 -65.015625 43.832031 -64.609375 42.84375 -63.796875 C 41.851562 -62.992188 40.828125 -62.0625 39.765625 -61 C 38.703125 -59.9375 37.582031 -59 36.40625 -58.1875 C 35.238281 -57.382812 33.992188 -56.984375 32.671875 -56.984375 C 31.347656 -56.984375 30.097656 -57.367188 28.921875 -58.140625 C 27.753906 -58.910156 26.65625 -59.804688 25.625 -60.828125 C 24.601562 -61.859375 23.648438 -62.757812 22.765625 -63.53125 C 21.890625 -64.300781 21.046875 -64.6875 20.234375 -64.6875 C 19.796875 -64.6875 19.359375 -64.570312 18.921875 -64.34375 C 18.484375 -64.125 18.078125 -63.832031 17.703125 -63.46875 C 16.828125 -62.738281 16.390625 -62.039062 16.390625 -61.375 Z M 21.453125 -19.90625 L 21.453125 -9.796875 C 24.378906 -11.628906 25.84375 -13.863281 25.84375 -16.5 C 25.84375 -17.894531 25.421875 -18.8125 24.578125 -19.25 C 23.734375 -19.6875 22.691406 -19.90625 21.453125 -19.90625 Z M 21.453125 -19.90625 "/>
</symbol>
<symbol overflow="visible" id="khmer-abvs:id2:glyph0-2">
<path style="stroke:none;" d="M -26.0625 -111.65625 C -26.0625 -109.96875 -25.515625 -108.609375 -24.421875 -107.578125 C -24.203125 -107.429688 -23.945312 -107.25 -23.65625 -107.03125 C -22.914062 -106.59375 -22.109375 -106.375 -21.234375 -106.375 C -19.984375 -106.375 -18.9375 -106.757812 -18.09375 -107.53125 C -17.25 -108.300781 -16.535156 -109.234375 -15.953125 -110.328125 C -12.140625 -110.328125 -10.234375 -109.082031 -10.234375 -106.59375 C -10.234375 -105.488281 -10.890625 -104.457031 -12.203125 -103.5 C -13.523438 -102.550781 -15.210938 -101.859375 -17.265625 -101.421875 C -15.578125 -99.585938 -14.734375 -98.007812 -14.734375 -96.6875 C -14.734375 -95.882812 -15.082031 -95.222656 -15.78125 -94.703125 C -16.476562 -94.191406 -17.742188 -93.9375 -19.578125 -93.9375 L -55 -93.9375 C -60.207031 -93.9375 -62.8125 -96.539062 -62.8125 -101.75 C -62.8125 -105.632812 -61.4375 -108.894531 -58.6875 -111.53125 C -55.9375 -114.175781 -51.847656 -115.5 -46.421875 -115.5 C -42.316406 -115.5 -38.171875 -114.65625 -33.984375 -112.96875 C -33.617188 -115.832031 -32.28125 -118.144531 -29.96875 -119.90625 C -27.664062 -121.664062 -24.863281 -122.546875 -21.5625 -122.546875 C -19.582031 -122.546875 -18.023438 -122.285156 -16.890625 -121.765625 C -15.753906 -121.253906 -14.851562 -120.722656 -14.1875 -120.171875 C -13.53125 -119.617188 -12.945312 -119.34375 -12.4375 -119.34375 C -12.0625 -119.34375 -11.320312 -119.546875 -10.21875 -119.953125 C -9.125 -120.359375 -7.988281 -121.035156 -6.8125 -121.984375 C -5.351562 -123.160156 -4.21875 -124.519531 -3.40625 -126.0625 C -2.601562 -127.601562 -2.203125 -128.8125 -2.203125 -129.6875 C -0.734375 -129.90625 0.65625 -129.757812 1.96875 -129.25 C 3.289062 -128.738281 3.953125 -127.785156 3.953125 -126.390625 C 3.953125 -124.992188 3.015625 -123.429688 1.140625 -121.703125 C -0.722656 -119.984375 -2.9375 -118.394531 -5.5 -116.9375 C -7.332031 -115.976562 -8.984375 -115.203125 -10.453125 -114.609375 C -11.921875 -114.023438 -12.945312 -113.734375 -13.53125 -113.734375 C -13.96875 -113.734375 -14.425781 -114.023438 -14.90625 -114.609375 C -15.382812 -115.203125 -16.023438 -115.773438 -16.828125 -116.328125 C -17.640625 -116.878906 -18.773438 -117.15625 -20.234375 -117.15625 C -21.921875 -117.15625 -23.3125 -116.660156 -24.40625 -115.671875 C -25.507812 -114.679688 -26.0625 -113.34375 -26.0625 -111.65625 Z M -55 -100.875 L -28.15625 -100.875 C -31.601562 -103.65625 -34.828125 -105.613281 -37.828125 -106.75 C -40.835938 -107.882812 -43.664062 -108.453125 -46.3125 -108.453125 C -49.613281 -108.453125 -51.882812 -107.71875 -53.125 -106.25 C -54.375 -104.789062 -55 -103 -55 -100.875 Z M -55 -100.875 "/>
</symbol>
</g>
</defs>
  <g id="khmer-abvs:id0:id0" transform="matrix(1.25,0,0,1.25,0.0,0.0)"><g id="khmer-abvs:id0:surface1">
<g style="fill:rgb(0%,0%,0%);fill-opacity:1;">
  <use xlink:href="#khmer-abvs:id0:glyph0-1" x="16" y="149.59375" class="c0"/>
  <use xlink:href="#khmer-abvs:id0:glyph0-2" x="88.046875" y="159.9375" class="c1"/>
  <use xlink:href="#khmer-abvs:id0:glyph0-3" x="88.046875" y="126.0625" class="c2"/>
</g>
</g>
</g>
  <g id="khmer-abvs:id1:id1" transform="matrix(1.25,0,0,1.25,130.33203125,14.189453125)"><g id="khmer-abvs:id1:surface1">
<g style="fill:rgb(0%,0%,0%);fill-opacity:1;">
  <use xlink:href="#khmer-abvs:id1:glyph0-1" x="0" y="120.84375" class="arrow"/>
</g>
</g>
</g>
  <g id="khmer-abvs:id2:id2" transform="matrix(1.25,0,0,1.25,262.9296875,0.0)"><g id="khmer-abvs:id2:surface1">
<g style="fill:rgb(0%,0%,0%);fill-opacity:1;">
  <use xlink:href="#khmer-abvs:id2:glyph0-1" x="16" y="149.59375" class="c0"/>
  <use xlink:href="#khmer-abvs:id2:glyph0-2" x="88.046875" y="159.9375" class="c3"/>
</g>
</g>
</g>
</svg>
