<?xml version="1.0" standalone="no"?>
<!DOCTYPE svg PUBLIC "-//W3C//DTD SVG 1.1//EN"
 "http://www.w3.org/Graphics/SVG/1.1/DTD/svg11.dtd">
<!-- Created with svg_stack (http://github.com/astraw/svg_stack) -->
<svg xmlns="http://www.w3.org/2000/svg" xmlns:sodipodi="http://sodipodi.sourceforge.net/DTD/sodipodi-0.dtd" xmlns:xlink="http://www.w3.org/1999/xlink" version="1.1" width="577.51953125" height="201.40625">
  <defs><g>
<symbol overflow="visible" id="id0:glyph0-0">
<path style="stroke:none;" d="M 10.5625 0 L 10.5625 -78.546875 L 59.1875 -78.546875 L 59.1875 0 Z M 20.6875 -7.375 L 49.0625 -7.375 L 49.0625 -71.171875 L 20.6875 -71.171875 Z M 20.6875 -7.375 "/>
</symbol>
<symbol overflow="visible" id="id0:glyph0-1">
<path style="stroke:none;" d="M 14.078125 -56.65625 L 21.34375 -50.9375 L 21.34375 -27.0625 C 25.445312 -27.28125 28.503906 -26.414062 30.515625 -24.46875 C 32.535156 -22.53125 33.546875 -19.910156 33.546875 -16.609375 C 33.546875 -15.285156 33.269531 -13.742188 32.71875 -11.984375 C 32.175781 -10.222656 31.039062 -8.332031 29.3125 -6.3125 C 27.59375 -4.300781 24.9375 -2.195312 21.34375 0 L 11.21875 0 L 11.21875 -48.1875 C 8.800781 -50.3125 7.207031 -51.867188 6.4375 -52.859375 C 5.664062 -53.847656 5.28125 -54.707031 5.28125 -55.4375 C 5.28125 -56.175781 5.59375 -56.984375 6.21875 -57.859375 C 6.84375 -58.742188 7.957031 -59.953125 9.5625 -61.484375 C 11.175781 -63.023438 13.414062 -65.046875 16.28125 -67.546875 C 19.65625 -70.472656 22.566406 -72.445312 25.015625 -73.46875 C 27.472656 -74.5 30.023438 -75.015625 32.671875 -75.015625 C 35.085938 -75.015625 37.613281 -74.570312 40.25 -73.6875 C 42.894531 -72.8125 45.941406 -71.054688 49.390625 -68.421875 C 53.054688 -65.628906 55.675781 -62.859375 57.25 -60.109375 C 58.832031 -57.359375 59.625 -54.300781 59.625 -50.9375 L 59.625 -10.015625 L 73.59375 -21.5625 L 87.671875 -10.015625 L 87.671875 -48.1875 C 85.253906 -50.3125 83.660156 -51.882812 82.890625 -52.90625 C 82.117188 -53.9375 81.734375 -54.816406 81.734375 -55.546875 C 81.734375 -56.285156 82.039062 -57.09375 82.65625 -57.96875 C 83.28125 -58.851562 84.398438 -60.046875 86.015625 -61.546875 C 87.628906 -63.046875 89.867188 -65.046875 92.734375 -67.546875 C 96.109375 -70.472656 98.945312 -72.445312 101.25 -73.46875 C 103.5625 -74.5 106.078125 -75.015625 108.796875 -75.015625 C 111.140625 -75.015625 113.703125 -74.570312 116.484375 -73.6875 C 119.273438 -72.8125 122.394531 -71.054688 125.84375 -68.421875 C 129.507812 -65.628906 132.128906 -62.859375 133.703125 -60.109375 C 135.273438 -57.359375 136.0625 -54.300781 136.0625 -50.9375 L 136.0625 0 L 125.953125 0 L 125.953125 -51.046875 C 125.953125 -52.878906 125.398438 -54.765625 124.296875 -56.703125 C 123.203125 -58.648438 121.773438 -60.445312 120.015625 -62.09375 C 118.253906 -63.738281 116.328125 -65.078125 114.234375 -66.109375 C 112.140625 -67.140625 110.101562 -67.65625 108.125 -67.65625 C 105.851562 -67.65625 103.414062 -66.8125 100.8125 -65.125 C 98.207031 -63.4375 94.78125 -60.613281 90.53125 -56.65625 L 97.796875 -50.9375 L 97.796875 0 L 87.671875 0 L 73.59375 -11.546875 L 59.625 0 L 49.5 0 L 49.5 -51.046875 C 49.5 -52.878906 48.96875 -54.765625 47.90625 -56.703125 C 46.84375 -58.648438 45.429688 -60.445312 43.671875 -62.09375 C 41.910156 -63.738281 39.984375 -65.078125 37.890625 -66.109375 C 35.804688 -67.140625 33.773438 -67.65625 31.796875 -67.65625 C 29.515625 -67.65625 27.050781 -66.8125 24.40625 -65.125 C 21.769531 -63.4375 18.328125 -60.613281 14.078125 -56.65625 Z M 21.34375 -19.90625 L 21.34375 -9.796875 C 24.269531 -11.628906 25.734375 -13.863281 25.734375 -16.5 C 25.734375 -17.894531 25.3125 -18.8125 24.46875 -19.25 C 23.625 -19.6875 22.582031 -19.90625 21.34375 -19.90625 Z M 21.34375 -19.90625 "/>
</symbol>
<symbol overflow="visible" id="id0:glyph0-2">
<path style="stroke:none;" d="M -62.8125 -101.75 C -62.8125 -105.632812 -61.4375 -108.894531 -58.6875 -111.53125 C -55.9375 -114.175781 -51.847656 -115.5 -46.421875 -115.5 C -37.472656 -115.5 -28.671875 -111.6875 -20.015625 -104.0625 C -18.109375 -102.445312 -16.75 -101.050781 -15.9375 -99.875 C -15.132812 -98.707031 -14.734375 -97.644531 -14.734375 -96.6875 C -14.734375 -95.882812 -15.082031 -95.222656 -15.78125 -94.703125 C -16.476562 -94.191406 -17.742188 -93.9375 -19.578125 -93.9375 L -55 -93.9375 C -60.207031 -93.9375 -62.8125 -96.539062 -62.8125 -101.75 Z M -55 -100.875 L -28.15625 -100.875 C -31.601562 -103.65625 -34.828125 -105.613281 -37.828125 -106.75 C -40.835938 -107.882812 -43.664062 -108.453125 -46.3125 -108.453125 C -49.613281 -108.453125 -51.882812 -107.71875 -53.125 -106.25 C -54.375 -104.789062 -55 -103 -55 -100.875 Z M -55 -100.875 "/>
</symbol>
</g>
<g>
<symbol overflow="visible" id="id1:glyph0-0">
<path style="stroke:none;" d="M 5.375 -96.6875 L 69.828125 -96.6875 L 69.828125 0 L 5.375 0 Z M 8.0625 -2.6875 L 67.140625 -2.6875 L 67.140625 -94 L 8.0625 -94 Z M 8.0625 -2.6875 "/>
</symbol>
<symbol overflow="visible" id="id1:glyph0-1">
<path style="stroke:none;" d="M 68.15625 -13.75 L 66.28125 -18.640625 L 88.09375 -27.390625 L 6.984375 -27.390625 L 6.984375 -34 L 88.09375 -34 L 66.28125 -42.75 L 68.15625 -47.640625 L 99.09375 -34.265625 L 99.09375 -27.125 Z M 68.15625 -13.75 "/>
</symbol>
</g>
<g>
<symbol overflow="visible" id="id2:glyph0-0">
<path style="stroke:none;" d="M 10.5625 0 L 10.5625 -78.546875 L 59.1875 -78.546875 L 59.1875 0 Z M 20.6875 -7.375 L 49.0625 -7.375 L 49.0625 -71.171875 L 20.6875 -71.171875 Z M 20.6875 -7.375 "/>
</symbol>
<symbol overflow="visible" id="id2:glyph0-1">
<path style="stroke:none;" d="M 14.078125 -56.65625 L 21.34375 -50.9375 L 21.34375 -27.0625 C 25.445312 -27.28125 28.503906 -26.414062 30.515625 -24.46875 C 32.535156 -22.53125 33.546875 -19.910156 33.546875 -16.609375 C 33.546875 -15.285156 33.269531 -13.742188 32.71875 -11.984375 C 32.175781 -10.222656 31.039062 -8.332031 29.3125 -6.3125 C 27.59375 -4.300781 24.9375 -2.195312 21.34375 0 L 11.21875 0 L 11.21875 -48.1875 C 8.800781 -50.3125 7.207031 -51.867188 6.4375 -52.859375 C 5.664062 -53.847656 5.28125 -54.707031 5.28125 -55.4375 C 5.28125 -56.175781 5.59375 -56.984375 6.21875 -57.859375 C 6.84375 -58.742188 7.957031 -59.953125 9.5625 -61.484375 C 11.175781 -63.023438 13.414062 -65.046875 16.28125 -67.546875 C 19.65625 -70.472656 22.566406 -72.445312 25.015625 -73.46875 C 27.472656 -74.5 30.023438 -75.015625 32.671875 -75.015625 C 35.085938 -75.015625 37.613281 -74.570312 40.25 -73.6875 C 42.894531 -72.8125 45.941406 -71.054688 49.390625 -68.421875 C 53.054688 -65.628906 55.675781 -62.859375 57.25 -60.109375 C 58.832031 -57.359375 59.625 -54.300781 59.625 -50.9375 L 59.625 -10.015625 L 73.59375 -21.5625 L 87.671875 -10.015625 L 87.671875 -48.1875 C 85.253906 -50.3125 83.660156 -51.882812 82.890625 -52.90625 C 82.117188 -53.9375 81.734375 -54.816406 81.734375 -55.546875 C 81.734375 -56.285156 82.039062 -57.09375 82.65625 -57.96875 C 83.28125 -58.851562 84.398438 -60.046875 86.015625 -61.546875 C 87.628906 -63.046875 89.867188 -65.046875 92.734375 -67.546875 C 96.109375 -70.472656 98.945312 -72.445312 101.25 -73.46875 C 103.5625 -74.5 106.078125 -75.015625 108.796875 -75.015625 C 111.140625 -75.015625 113.703125 -74.570312 116.484375 -73.6875 C 119.273438 -72.8125 122.394531 -71.054688 125.84375 -68.421875 C 129.507812 -65.628906 132.128906 -62.859375 133.703125 -60.109375 C 135.273438 -57.359375 136.0625 -54.300781 136.0625 -50.9375 L 136.0625 0 L 125.953125 0 L 125.953125 -51.046875 C 125.953125 -52.878906 125.398438 -54.765625 124.296875 -56.703125 C 123.203125 -58.648438 121.773438 -60.445312 120.015625 -62.09375 C 118.253906 -63.738281 116.328125 -65.078125 114.234375 -66.109375 C 112.140625 -67.140625 110.101562 -67.65625 108.125 -67.65625 C 105.851562 -67.65625 103.414062 -66.8125 100.8125 -65.125 C 98.207031 -63.4375 94.78125 -60.613281 90.53125 -56.65625 L 97.796875 -50.9375 L 97.796875 0 L 87.671875 0 L 73.59375 -11.546875 L 59.625 0 L 49.5 0 L 49.5 -51.046875 C 49.5 -52.878906 48.96875 -54.765625 47.90625 -56.703125 C 46.84375 -58.648438 45.429688 -60.445312 43.671875 -62.09375 C 41.910156 -63.738281 39.984375 -65.078125 37.890625 -66.109375 C 35.804688 -67.140625 33.773438 -67.65625 31.796875 -67.65625 C 29.515625 -67.65625 27.050781 -66.8125 24.40625 -65.125 C 21.769531 -63.4375 18.328125 -60.613281 14.078125 -56.65625 Z M 21.34375 -19.90625 L 21.34375 -9.796875 C 24.269531 -11.628906 25.734375 -13.863281 25.734375 -16.5 C 25.734375 -17.894531 25.3125 -18.8125 24.46875 -19.25 C 23.625 -19.6875 22.582031 -19.90625 21.34375 -19.90625 Z M 21.34375 -19.90625 "/>
</symbol>
<symbol overflow="visible" id="id2:glyph0-2">
<path style="stroke:none;" d="M -62.8125 -101.75 C -62.8125 -105.632812 -61.4375 -108.894531 -58.6875 -111.53125 C -55.9375 -114.175781 -51.847656 -115.5 -46.421875 -115.5 C -37.472656 -115.5 -28.671875 -111.6875 -20.015625 -104.0625 C -18.109375 -102.445312 -16.75 -101.050781 -15.9375 -99.875 C -15.132812 -98.707031 -14.734375 -97.644531 -14.734375 -96.6875 C -14.734375 -95.882812 -15.082031 -95.222656 -15.78125 -94.703125 C -16.476562 -94.191406 -17.742188 -93.9375 -19.578125 -93.9375 L -55 -93.9375 C -60.207031 -93.9375 -62.8125 -96.539062 -62.8125 -101.75 Z M -55 -100.875 L -28.15625 -100.875 C -31.601562 -103.65625 -34.828125 -105.613281 -37.828125 -106.75 C -40.835938 -107.882812 -43.664062 -108.453125 -46.3125 -108.453125 C -49.613281 -108.453125 -51.882812 -107.71875 -53.125 -106.25 C -54.375 -104.789062 -55 -103 -55 -100.875 Z M -55 -100.875 "/>
</symbol>
</g>
</defs>
  <g id="id0:id0" transform="matrix(1.25,0,0,1.25,0.0,4.560546875)"><g id="id0:surface1">
<g style="fill:rgb(0%,0%,0%);fill-opacity:1;">
  <use xlink:href="#id0:glyph0-1" x="16" y="119.59375"/>
  <use xlink:href="#id0:glyph0-2" x="161.96875" y="119.59375"/>
</g>
</g>
</g>
  <g id="id1:id1" transform="matrix(1.25,0,0,1.25,222.4609375,0.0)"><g id="id1:surface1">
<g style="fill:rgb(0%,0%,0%);fill-opacity:1;">
  <use xlink:href="#id1:glyph0-1" x="0" y="120.84375"/>
</g>
</g>
</g>
  <g id="id2:id2" transform="matrix(1.25,0,0,1.25,355.05859375,4.560546875)"><g id="id2:surface1">
<g style="fill:rgb(0%,0%,0%);fill-opacity:1;">
  <use xlink:href="#id2:glyph0-1" x="16" y="119.59375"/>
  <use xlink:href="#id2:glyph0-2" x="128.421875" y="129.9375"/>
</g>
</g>
</g>
</svg>
