<!DOCTYPE svg PUBLIC "-//W3C//DTD SVG 1.1//EN" "http://www.w3.org/Graphics/SVG/1.1/DTD/svg11.dtd">
<!-- Created with svg_stack (http://github.com/astraw/svg_stack) --><svg xmlns="http://www.w3.org/2000/svg" xmlns:sodipodi="http://sodipodi.sourceforge.net/DTD/sodipodi-0.dtd" xmlns:xlink="http://www.w3.org/1999/xlink" version="1.1" width="514.94140625" height="201.40625" id="khmer-dist">
  <defs><g>
<symbol overflow="visible" id="khmer-dist:id0:glyph0-0">
<path style="stroke:none;" d="M 10.5625 0 L 10.5625 -78.546875 L 59.1875 -78.546875 L 59.1875 0 Z M 20.6875 -7.375 L 49.0625 -7.375 L 49.0625 -71.171875 L 20.6875 -71.171875 Z M 20.6875 -7.375 "/>
</symbol>
<symbol overflow="visible" id="khmer-dist:id0:glyph0-1">
<path style="stroke:none;" d="M 45.65625 -31.453125 L 45.65625 -38.828125 L 51.8125 -38.828125 L 51.8125 -46.640625 C 49.164062 -48.835938 47.164062 -50.5625 45.8125 -51.8125 C 44.457031 -53.0625 43.554688 -54.03125 43.109375 -54.71875 C 42.671875 -55.414062 42.453125 -56.023438 42.453125 -56.546875 C 42.453125 -57.273438 42.800781 -58.148438 43.5 -59.171875 C 44.195312 -60.203125 45.460938 -61.890625 47.296875 -64.234375 C 49.128906 -66.585938 51.734375 -70.109375 55.109375 -74.796875 C 57.453125 -73.253906 59.394531 -72.039062 60.9375 -71.15625 C 62.476562 -70.28125 63.960938 -69.695312 65.390625 -69.40625 C 66.828125 -69.113281 68.460938 -69.039062 70.296875 -69.1875 C 70.296875 -67.351562 69.648438 -65.570312 68.359375 -63.84375 C 67.078125 -62.125 65.375 -61.265625 63.25 -61.265625 C 62.289062 -61.265625 61.171875 -61.519531 59.890625 -62.03125 C 58.609375 -62.550781 57.015625 -63.507812 55.109375 -64.90625 L 50.375 -58.515625 L 61.9375 -49.171875 L 61.9375 -38.828125 L 72.484375 -38.828125 L 72.484375 -31.453125 L 61.9375 -31.453125 L 61.9375 -16.0625 C 61.9375 -13.269531 60.816406 -10.644531 58.578125 -8.1875 C 56.335938 -5.738281 53.363281 -3.757812 49.65625 -2.25 C 45.957031 -0.75 41.910156 0 37.515625 0 C 33.035156 0 28.941406 -0.769531 25.234375 -2.3125 C 21.535156 -3.851562 18.585938 -5.847656 16.390625 -8.296875 C 14.191406 -10.753906 13.09375 -13.34375 13.09375 -16.0625 L 13.09375 -46.640625 C 10.445312 -48.835938 8.445312 -50.5625 7.09375 -51.8125 C 5.738281 -53.0625 4.835938 -54.03125 4.390625 -54.71875 C 3.953125 -55.414062 3.734375 -56.023438 3.734375 -56.546875 C 3.734375 -57.273438 4.082031 -58.148438 4.78125 -59.171875 C 5.476562 -60.203125 6.742188 -61.890625 8.578125 -64.234375 C 10.410156 -66.585938 13.015625 -70.109375 16.390625 -74.796875 C 18.734375 -73.253906 20.675781 -72.039062 22.21875 -71.15625 C 23.757812 -70.28125 25.242188 -69.695312 26.671875 -69.40625 C 28.097656 -69.113281 29.726562 -69.039062 31.5625 -69.1875 C 31.5625 -67.351562 30.921875 -65.570312 29.640625 -63.84375 C 28.359375 -62.125 26.65625 -61.265625 24.53125 -61.265625 C 23.570312 -61.265625 22.453125 -61.519531 21.171875 -62.03125 C 19.890625 -62.550781 18.296875 -63.507812 16.390625 -64.90625 L 11.65625 -58.515625 L 23.203125 -49.171875 L 23.203125 -16.0625 C 23.203125 -14.59375 23.863281 -13.195312 25.1875 -11.875 C 26.507812 -10.5625 28.25 -9.484375 30.40625 -8.640625 C 32.570312 -7.796875 34.941406 -7.375 37.515625 -7.375 C 40.222656 -7.375 42.640625 -7.8125 44.765625 -8.6875 C 46.890625 -9.570312 48.59375 -10.671875 49.875 -11.984375 C 51.164062 -13.304688 51.8125 -14.664062 51.8125 -16.0625 L 51.8125 -31.453125 Z M 45.65625 -31.453125 "/>
</symbol>
<symbol overflow="visible" id="khmer-dist:id0:glyph0-2">
<path style="stroke:none;" d="M -44.328125 21.671875 C -48.140625 21.671875 -51.21875 21.023438 -53.5625 19.734375 C -55.914062 18.453125 -57.09375 16.675781 -57.09375 14.40625 C -57.09375 12.9375 -56.445312 11.632812 -55.15625 10.5 C -53.875 9.363281 -51.625 8.796875 -48.40625 8.796875 C -48.40625 11.066406 -47.722656 12.878906 -46.359375 14.234375 C -45.003906 15.597656 -42.972656 16.28125 -40.265625 16.28125 L -28.703125 16.28125 L -28.703125 5.390625 L -19.6875 5.390625 L -19.6875 16.28125 C -16.457031 16.425781 -13.707031 17.210938 -11.4375 18.640625 C -9.164062 20.078125 -8.03125 22.1875 -8.03125 24.96875 C -8.03125 27.164062 -8.816406 28.976562 -10.390625 30.40625 C -11.972656 31.84375 -14.226562 32.5625 -17.15625 32.5625 C -20.675781 32.5625 -23.332031 31.535156 -25.125 29.484375 C -26.925781 27.429688 -28.117188 24.828125 -28.703125 21.671875 Z M -14.296875 25.078125 C -14.296875 24.203125 -14.789062 23.414062 -15.78125 22.71875 C -16.769531 22.019531 -18.070312 21.671875 -19.6875 21.671875 C -19.6875 23.066406 -19.316406 24.3125 -18.578125 25.40625 C -17.847656 26.507812 -17.007812 27.0625 -16.0625 27.0625 C -15.476562 27.0625 -15.035156 26.835938 -14.734375 26.390625 C -14.441406 25.953125 -14.296875 25.515625 -14.296875 25.078125 Z M -14.296875 25.078125 "/>
</symbol>
<symbol overflow="visible" id="khmer-dist:id0:glyph0-3">
<path style="stroke:none;" d="M 19.578125 -58.515625 L 31.125 -49.171875 L 31.125 0 L 21.015625 0 C 17.566406 -2.488281 14.960938 -4.703125 13.203125 -6.640625 C 11.441406 -8.585938 10.265625 -10.332031 9.671875 -11.875 C 9.085938 -13.414062 8.796875 -14.8125 8.796875 -16.0625 C 8.796875 -17.457031 9.125 -18.976562 9.78125 -20.625 C 10.445312 -22.269531 11.675781 -23.695312 13.46875 -24.90625 C 15.269531 -26.125 17.785156 -26.769531 21.015625 -26.84375 L 21.015625 -46.640625 C 18.367188 -48.835938 16.367188 -50.5625 15.015625 -51.8125 C 13.660156 -53.0625 12.757812 -54.03125 12.3125 -54.71875 C 11.875 -55.414062 11.65625 -56.023438 11.65625 -56.546875 C 11.65625 -57.273438 12.003906 -58.148438 12.703125 -59.171875 C 13.398438 -60.203125 14.664062 -61.890625 16.5 -64.234375 C 18.332031 -66.585938 20.9375 -70.109375 24.3125 -74.796875 C 26.65625 -73.253906 28.597656 -72.039062 30.140625 -71.15625 C 31.679688 -70.28125 33.164062 -69.695312 34.59375 -69.40625 C 36.019531 -69.113281 37.648438 -69.039062 39.484375 -69.1875 C 39.484375 -67.351562 38.84375 -65.570312 37.5625 -63.84375 C 36.28125 -62.125 34.578125 -61.265625 32.453125 -61.265625 C 31.492188 -61.265625 30.375 -61.519531 29.09375 -62.03125 C 27.8125 -62.550781 26.21875 -63.507812 24.3125 -64.90625 Z M 21.015625 -9.234375 L 21.015625 -19.359375 C 19.179688 -19.285156 17.914062 -18.914062 17.21875 -18.25 C 16.519531 -17.59375 16.171875 -16.753906 16.171875 -15.734375 C 16.171875 -13.304688 17.785156 -11.140625 21.015625 -9.234375 Z M 21.015625 -9.234375 "/>
</symbol>
<symbol overflow="visible" id="khmer-dist:id0:glyph0-4">
<path style="stroke:none;" d="M -24.421875 30.03125 C -27.429688 30.03125 -30.050781 29.367188 -32.28125 28.046875 C -34.519531 26.722656 -35.640625 24.816406 -35.640625 22.328125 C -35.640625 21.234375 -35.457031 20.003906 -35.09375 18.640625 C -34.726562 17.285156 -34.394531 16.132812 -34.09375 15.1875 L -33.765625 14.296875 C -34.648438 14.296875 -35.398438 13.960938 -36.015625 13.296875 C -36.640625 12.640625 -36.953125 11.726562 -36.953125 10.5625 C -36.953125 9.09375 -36.382812 7.863281 -35.25 6.875 C -34.113281 5.882812 -32.59375 5.390625 -30.6875 5.390625 C -28.925781 5.390625 -27.53125 5.847656 -26.5 6.765625 C -25.476562 7.679688 -24.96875 9.09375 -24.96875 11 C -24.96875 11.726562 -25.078125 12.566406 -25.296875 13.515625 C -25.515625 14.472656 -25.921875 15.832031 -26.515625 17.59375 C -27.023438 19.207031 -27.078125 20.507812 -26.671875 21.5 C -26.265625 22.488281 -25.257812 22.984375 -23.65625 22.984375 C -21.675781 22.984375 -20.113281 22.140625 -18.96875 20.453125 C -17.832031 18.773438 -16.570312 16.25 -15.1875 12.875 C -13.9375 9.863281 -12.925781 7.863281 -12.15625 6.875 C -11.382812 5.882812 -10.484375 5.390625 -9.453125 5.390625 C -8.648438 5.390625 -7.84375 5.679688 -7.03125 6.265625 C -6.226562 6.859375 -5.828125 7.882812 -5.828125 9.34375 C -5.828125 10.445312 -6.101562 12.113281 -6.65625 14.34375 C -7.207031 16.582031 -8.175781 18.910156 -9.5625 21.328125 C -10.957031 23.753906 -12.863281 25.8125 -15.28125 27.5 C -17.707031 29.1875 -20.753906 30.03125 -24.421875 30.03125 Z M -24.421875 30.03125 "/>
</symbol>
</g>
<g>
<symbol overflow="visible" id="khmer-dist:id1:glyph0-0">
<path style="stroke:none;" d="M 5.375 -96.6875 L 69.828125 -96.6875 L 69.828125 0 L 5.375 0 Z M 8.0625 -2.6875 L 67.140625 -2.6875 L 67.140625 -94 L 8.0625 -94 Z M 8.0625 -2.6875 "/>
</symbol>
<symbol overflow="visible" id="khmer-dist:id1:glyph0-1">
<path style="stroke:none;" d="M 68.15625 -13.75 L 66.28125 -18.640625 L 88.09375 -27.390625 L 6.984375 -27.390625 L 6.984375 -34 L 88.09375 -34 L 66.28125 -42.75 L 68.15625 -47.640625 L 99.09375 -34.265625 L 99.09375 -27.125 Z M 68.15625 -13.75 "/>
</symbol>
</g>
<g>
<symbol overflow="visible" id="khmer-dist:id2:glyph0-0">
<path style="stroke:none;" d="M 10.5625 0 L 10.5625 -78.546875 L 59.1875 -78.546875 L 59.1875 0 Z M 20.6875 -7.375 L 49.0625 -7.375 L 49.0625 -71.171875 L 20.6875 -71.171875 Z M 20.6875 -7.375 "/>
</symbol>
<symbol overflow="visible" id="khmer-dist:id2:glyph0-1">
<path style="stroke:none;" d="M 45.65625 -31.453125 L 45.65625 -38.828125 L 51.8125 -38.828125 L 51.8125 -46.640625 C 49.164062 -48.835938 47.164062 -50.5625 45.8125 -51.8125 C 44.457031 -53.0625 43.554688 -54.03125 43.109375 -54.71875 C 42.671875 -55.414062 42.453125 -56.023438 42.453125 -56.546875 C 42.453125 -57.273438 42.800781 -58.148438 43.5 -59.171875 C 44.195312 -60.203125 45.460938 -61.890625 47.296875 -64.234375 C 49.128906 -66.585938 51.734375 -70.109375 55.109375 -74.796875 C 57.453125 -73.253906 59.394531 -72.039062 60.9375 -71.15625 C 62.476562 -70.28125 63.960938 -69.695312 65.390625 -69.40625 C 66.828125 -69.113281 68.460938 -69.039062 70.296875 -69.1875 C 70.296875 -67.351562 69.648438 -65.570312 68.359375 -63.84375 C 67.078125 -62.125 65.375 -61.265625 63.25 -61.265625 C 62.289062 -61.265625 61.171875 -61.519531 59.890625 -62.03125 C 58.609375 -62.550781 57.015625 -63.507812 55.109375 -64.90625 L 50.375 -58.515625 L 61.9375 -49.171875 L 61.9375 -38.828125 L 72.484375 -38.828125 L 72.484375 -31.453125 L 61.9375 -31.453125 L 61.9375 -16.0625 C 61.9375 -13.269531 60.816406 -10.644531 58.578125 -8.1875 C 56.335938 -5.738281 53.363281 -3.757812 49.65625 -2.25 C 45.957031 -0.75 41.910156 0 37.515625 0 C 33.035156 0 28.941406 -0.769531 25.234375 -2.3125 C 21.535156 -3.851562 18.585938 -5.847656 16.390625 -8.296875 C 14.191406 -10.753906 13.09375 -13.34375 13.09375 -16.0625 L 13.09375 -46.640625 C 10.445312 -48.835938 8.445312 -50.5625 7.09375 -51.8125 C 5.738281 -53.0625 4.835938 -54.03125 4.390625 -54.71875 C 3.953125 -55.414062 3.734375 -56.023438 3.734375 -56.546875 C 3.734375 -57.273438 4.082031 -58.148438 4.78125 -59.171875 C 5.476562 -60.203125 6.742188 -61.890625 8.578125 -64.234375 C 10.410156 -66.585938 13.015625 -70.109375 16.390625 -74.796875 C 18.734375 -73.253906 20.675781 -72.039062 22.21875 -71.15625 C 23.757812 -70.28125 25.242188 -69.695312 26.671875 -69.40625 C 28.097656 -69.113281 29.726562 -69.039062 31.5625 -69.1875 C 31.5625 -67.351562 30.921875 -65.570312 29.640625 -63.84375 C 28.359375 -62.125 26.65625 -61.265625 24.53125 -61.265625 C 23.570312 -61.265625 22.453125 -61.519531 21.171875 -62.03125 C 19.890625 -62.550781 18.296875 -63.507812 16.390625 -64.90625 L 11.65625 -58.515625 L 23.203125 -49.171875 L 23.203125 -16.0625 C 23.203125 -14.59375 23.863281 -13.195312 25.1875 -11.875 C 26.507812 -10.5625 28.25 -9.484375 30.40625 -8.640625 C 32.570312 -7.796875 34.941406 -7.375 37.515625 -7.375 C 40.222656 -7.375 42.640625 -7.8125 44.765625 -8.6875 C 46.890625 -9.570312 48.59375 -10.671875 49.875 -11.984375 C 51.164062 -13.304688 51.8125 -14.664062 51.8125 -16.0625 L 51.8125 -31.453125 Z M 45.65625 -31.453125 "/>
</symbol>
<symbol overflow="visible" id="khmer-dist:id2:glyph0-2">
<path style="stroke:none;" d="M -44.328125 21.671875 C -48.140625 21.671875 -51.21875 21.023438 -53.5625 19.734375 C -55.914062 18.453125 -57.09375 16.675781 -57.09375 14.40625 C -57.09375 12.9375 -56.445312 11.632812 -55.15625 10.5 C -53.875 9.363281 -51.625 8.796875 -48.40625 8.796875 C -48.40625 11.066406 -47.722656 12.878906 -46.359375 14.234375 C -45.003906 15.597656 -42.972656 16.28125 -40.265625 16.28125 L -28.703125 16.28125 L -28.703125 5.390625 L -19.6875 5.390625 L -19.6875 16.28125 C -16.457031 16.425781 -13.707031 17.210938 -11.4375 18.640625 C -9.164062 20.078125 -8.03125 22.1875 -8.03125 24.96875 C -8.03125 27.164062 -8.816406 28.976562 -10.390625 30.40625 C -11.972656 31.84375 -14.226562 32.5625 -17.15625 32.5625 C -20.675781 32.5625 -23.332031 31.535156 -25.125 29.484375 C -26.925781 27.429688 -28.117188 24.828125 -28.703125 21.671875 Z M -14.296875 25.078125 C -14.296875 24.203125 -14.789062 23.414062 -15.78125 22.71875 C -16.769531 22.019531 -18.070312 21.671875 -19.6875 21.671875 C -19.6875 23.066406 -19.316406 24.3125 -18.578125 25.40625 C -17.847656 26.507812 -17.007812 27.0625 -16.0625 27.0625 C -15.476562 27.0625 -15.035156 26.835938 -14.734375 26.390625 C -14.441406 25.953125 -14.296875 25.515625 -14.296875 25.078125 Z M -14.296875 25.078125 "/>
</symbol>
<symbol overflow="visible" id="khmer-dist:id2:glyph0-3">
<path style="stroke:none;" d="M 19.578125 -58.515625 L 31.125 -49.171875 L 31.125 0 L 21.015625 0 C 17.566406 -2.488281 14.960938 -4.703125 13.203125 -6.640625 C 11.441406 -8.585938 10.265625 -10.332031 9.671875 -11.875 C 9.085938 -13.414062 8.796875 -14.8125 8.796875 -16.0625 C 8.796875 -17.457031 9.125 -18.976562 9.78125 -20.625 C 10.445312 -22.269531 11.675781 -23.695312 13.46875 -24.90625 C 15.269531 -26.125 17.785156 -26.769531 21.015625 -26.84375 L 21.015625 -46.640625 C 18.367188 -48.835938 16.367188 -50.5625 15.015625 -51.8125 C 13.660156 -53.0625 12.757812 -54.03125 12.3125 -54.71875 C 11.875 -55.414062 11.65625 -56.023438 11.65625 -56.546875 C 11.65625 -57.273438 12.003906 -58.148438 12.703125 -59.171875 C 13.398438 -60.203125 14.664062 -61.890625 16.5 -64.234375 C 18.332031 -66.585938 20.9375 -70.109375 24.3125 -74.796875 C 26.65625 -73.253906 28.597656 -72.039062 30.140625 -71.15625 C 31.679688 -70.28125 33.164062 -69.695312 34.59375 -69.40625 C 36.019531 -69.113281 37.648438 -69.039062 39.484375 -69.1875 C 39.484375 -67.351562 38.84375 -65.570312 37.5625 -63.84375 C 36.28125 -62.125 34.578125 -61.265625 32.453125 -61.265625 C 31.492188 -61.265625 30.375 -61.519531 29.09375 -62.03125 C 27.8125 -62.550781 26.21875 -63.507812 24.3125 -64.90625 Z M 21.015625 -9.234375 L 21.015625 -19.359375 C 19.179688 -19.285156 17.914062 -18.914062 17.21875 -18.25 C 16.519531 -17.59375 16.171875 -16.753906 16.171875 -15.734375 C 16.171875 -13.304688 17.785156 -11.140625 21.015625 -9.234375 Z M 21.015625 -9.234375 "/>
</symbol>
<symbol overflow="visible" id="khmer-dist:id2:glyph0-4">
<path style="stroke:none;" d="M -24.421875 30.03125 C -27.429688 30.03125 -30.050781 29.367188 -32.28125 28.046875 C -34.519531 26.722656 -35.640625 24.816406 -35.640625 22.328125 C -35.640625 21.234375 -35.457031 20.003906 -35.09375 18.640625 C -34.726562 17.285156 -34.394531 16.132812 -34.09375 15.1875 L -33.765625 14.296875 C -34.648438 14.296875 -35.398438 13.960938 -36.015625 13.296875 C -36.640625 12.640625 -36.953125 11.726562 -36.953125 10.5625 C -36.953125 9.09375 -36.382812 7.863281 -35.25 6.875 C -34.113281 5.882812 -32.59375 5.390625 -30.6875 5.390625 C -28.925781 5.390625 -27.53125 5.847656 -26.5 6.765625 C -25.476562 7.679688 -24.96875 9.09375 -24.96875 11 C -24.96875 11.726562 -25.078125 12.566406 -25.296875 13.515625 C -25.515625 14.472656 -25.921875 15.832031 -26.515625 17.59375 C -27.023438 19.207031 -27.078125 20.507812 -26.671875 21.5 C -26.265625 22.488281 -25.257812 22.984375 -23.65625 22.984375 C -21.675781 22.984375 -20.113281 22.140625 -18.96875 20.453125 C -17.832031 18.773438 -16.570312 16.25 -15.1875 12.875 C -13.9375 9.863281 -12.925781 7.863281 -12.15625 6.875 C -11.382812 5.882812 -10.484375 5.390625 -9.453125 5.390625 C -8.648438 5.390625 -7.84375 5.679688 -7.03125 6.265625 C -6.226562 6.859375 -5.828125 7.882812 -5.828125 9.34375 C -5.828125 10.445312 -6.101562 12.113281 -6.65625 14.34375 C -7.207031 16.582031 -8.175781 18.910156 -9.5625 21.328125 C -10.957031 23.753906 -12.863281 25.8125 -15.28125 27.5 C -17.707031 29.1875 -20.753906 30.03125 -24.421875 30.03125 Z M -24.421875 30.03125 "/>
</symbol>
</g>
</defs>
  <g id="khmer-dist:id0:id0" transform="matrix(1.25,0,0,1.25,0.0,4.560546875)"><g id="khmer-dist:id0:surface1">
<g style="fill:rgb(0%,0%,0%);fill-opacity:1;">
  <use xlink:href="#khmer-dist:id0:glyph0-1" x="16" y="119.59375" class="c0"/>
  <use xlink:href="#khmer-dist:id0:glyph0-2" x="90.796875" y="121.359375" class="c1"/>
  <use xlink:href="#khmer-dist:id0:glyph0-3" x="90.140625" y="119.59375" class="c2"/>
  <use xlink:href="#khmer-dist:id0:glyph0-4" x="137.65625" y="121.359375" class="c3"/>
</g>
</g>
</g>
  <g id="khmer-dist:id1:id1" transform="matrix(1.25,0,0,1.25,184.51171875,0.0)"><g id="khmer-dist:id1:surface1">
<g style="fill:rgb(0%,0%,0%);fill-opacity:1;">
  <use xlink:href="#khmer-dist:id1:glyph0-1" x="0" y="120.84375" class="arrow"/>
</g>
</g>
</g>
  <g id="khmer-dist:id2:id2" transform="matrix(1.25,0,0,1.25,317.109375,4.560546875)"><g id="khmer-dist:id2:surface1">
<g style="fill:rgb(0%,0%,0%);fill-opacity:1;">
  <use xlink:href="#khmer-dist:id2:glyph0-1" x="16" y="119.59375" class="c0"/>
  <use xlink:href="#khmer-dist:id2:glyph0-2" x="90.796875" y="121.359375" class="c1"/>
  <use xlink:href="#khmer-dist:id2:glyph0-3" x="100.796875" y="119.59375" class="c2"/>
  <use xlink:href="#khmer-dist:id2:glyph0-4" x="148.3125" y="121.359375" class="c3"/>
</g>
</g>
</g>
</svg>
