<!DOCTYPE svg PUBLIC "-//W3C//DTD SVG 1.1//EN" "http://www.w3.org/Graphics/SVG/1.1/DTD/svg11.dtd">
<!-- Created with svg_stack (http://github.com/astraw/svg_stack) --><svg xmlns="http://www.w3.org/2000/svg" xmlns:sodipodi="http://sodipodi.sourceforge.net/DTD/sodipodi-0.dtd" xmlns:xlink="http://www.w3.org/1999/xlink" version="1.1" width="581.23046875" height="201.40625" id="khmer-pref-1">
  <defs><g>
<symbol overflow="visible" id="khmer-pref-1:id0:glyph0-0">
<path style="stroke:none;" d="M 10.5625 0 L 10.5625 -78.546875 L 59.1875 -78.546875 L 59.1875 0 Z M 20.6875 -7.375 L 49.0625 -7.375 L 49.0625 -71.171875 L 20.6875 -71.171875 Z M 20.6875 -7.375 "/>
</symbol>
<symbol overflow="visible" id="khmer-pref-1:id0:glyph0-1">
<path style="stroke:none;" d="M 54.890625 -48.1875 C 57.453125 -48.1875 59.320312 -47.671875 60.5 -46.640625 C 61.675781 -45.609375 62.265625 -44.175781 62.265625 -42.34375 L 62.265625 -15.734375 C 62.265625 -12.503906 61.492188 -9.710938 59.953125 -7.359375 C 58.410156 -5.015625 56.375 -3.203125 53.84375 -1.921875 C 51.3125 -0.640625 48.46875 0 45.3125 0 C 42.382812 0 40.078125 -0.507812 38.390625 -1.53125 C 36.703125 -2.5625 35.34375 -3.847656 34.3125 -5.390625 C 33.289062 -6.929688 32.265625 -8.507812 31.234375 -10.125 C 29.398438 -13.125 27.785156 -15.046875 26.390625 -15.890625 C 25.003906 -16.734375 23.320312 -17.191406 21.34375 -17.265625 L 21.34375 0 L 11.21875 0 C 7.40625 -3.738281 4.800781 -6.707031 3.40625 -8.90625 C 2.007812 -11.101562 1.3125 -13.269531 1.3125 -15.40625 C 1.3125 -18.1875 2.171875 -20.421875 3.890625 -22.109375 C 5.617188 -23.796875 8.0625 -24.640625 11.21875 -24.640625 L 11.21875 -48.734375 C 9.457031 -50.421875 8.117188 -51.90625 7.203125 -53.1875 C 6.285156 -54.46875 5.828125 -55.914062 5.828125 -57.53125 C 5.828125 -59.507812 6.394531 -61.234375 7.53125 -62.703125 C 8.664062 -64.171875 10.078125 -65.707031 11.765625 -67.3125 C 15.140625 -70.539062 17.6875 -72.59375 19.40625 -73.46875 C 21.132812 -74.351562 22.363281 -74.796875 23.09375 -74.796875 C 23.976562 -74.796875 25.003906 -74.335938 26.171875 -73.421875 C 27.347656 -72.503906 28.960938 -71.054688 31.015625 -69.078125 C 32.847656 -67.242188 34.128906 -66.03125 34.859375 -65.4375 C 35.597656 -64.851562 36.257812 -64.5625 36.84375 -64.5625 C 37.4375 -64.5625 38.097656 -64.890625 38.828125 -65.546875 C 39.566406 -66.210938 40.773438 -67.390625 42.453125 -69.078125 C 44.210938 -70.910156 45.695312 -72.320312 46.90625 -73.3125 C 48.125 -74.300781 49.171875 -74.796875 50.046875 -74.796875 C 51.222656 -74.796875 52.800781 -73.769531 54.78125 -71.71875 L 59.734375 -66.4375 C 60.679688 -65.414062 61.816406 -64.679688 63.140625 -64.234375 C 64.460938 -63.796875 65.96875 -63.722656 67.65625 -64.015625 C 67.0625 -60.796875 66.03125 -58.488281 64.5625 -57.09375 C 63.101562 -55.695312 61.566406 -55 59.953125 -55 C 58.484375 -55 57.289062 -55.398438 56.375 -56.203125 C 55.457031 -57.015625 54.613281 -57.96875 53.84375 -59.0625 C 53.070312 -60.164062 52.28125 -61.117188 51.46875 -61.921875 C 50.664062 -62.734375 49.644531 -63.140625 48.40625 -63.140625 C 47.375 -63.140625 46.363281 -62.753906 45.375 -61.984375 C 44.382812 -61.210938 43.335938 -60.316406 42.234375 -59.296875 C 40.617188 -57.898438 39.28125 -56.832031 38.21875 -56.09375 C 37.15625 -55.363281 36.113281 -55 35.09375 -55 C 33.914062 -55 32.648438 -55.421875 31.296875 -56.265625 C 29.941406 -57.109375 28.492188 -58.15625 26.953125 -59.40625 C 24.898438 -61.164062 23.46875 -62.335938 22.65625 -62.921875 C 21.851562 -63.503906 21.15625 -63.796875 20.5625 -63.796875 C 19.539062 -63.796875 18.476562 -63.320312 17.375 -62.375 C 16.28125 -61.414062 15.734375 -60.425781 15.734375 -59.40625 C 15.734375 -59.03125 15.84375 -58.625 16.0625 -58.1875 C 16.28125 -57.75 16.773438 -57.050781 17.546875 -56.09375 C 18.316406 -55.144531 19.582031 -53.71875 21.34375 -51.8125 L 21.34375 -24.640625 C 25.375 -24.640625 28.597656 -23.796875 31.015625 -22.109375 C 33.441406 -20.421875 35.457031 -18.070312 37.0625 -15.0625 C 38.019531 -13.3125 38.789062 -11.773438 39.375 -10.453125 C 39.96875 -9.128906 40.664062 -8.097656 41.46875 -7.359375 C 42.28125 -6.628906 43.523438 -6.265625 45.203125 -6.265625 C 47.703125 -6.265625 49.484375 -6.976562 50.546875 -8.40625 C 51.609375 -9.84375 52.140625 -11.515625 52.140625 -13.421875 L 52.140625 -23.984375 C 48.984375 -23.984375 46.175781 -24.972656 43.71875 -26.953125 C 41.269531 -28.929688 40.046875 -31.644531 40.046875 -35.09375 C 40.046875 -37.726562 40.738281 -40.035156 42.125 -42.015625 C 43.519531 -43.992188 45.335938 -45.515625 47.578125 -46.578125 C 49.816406 -47.648438 52.253906 -48.1875 54.890625 -48.1875 Z M 52.140625 -31.34375 L 52.140625 -41.359375 C 50.960938 -41.359375 49.84375 -40.878906 48.78125 -39.921875 C 47.71875 -38.972656 47.1875 -37.65625 47.1875 -35.96875 C 47.1875 -34.351562 47.71875 -33.175781 48.78125 -32.4375 C 49.84375 -31.707031 50.960938 -31.34375 52.140625 -31.34375 Z M 11.21875 -10.34375 L 11.21875 -17.265625 C 9.53125 -17.191406 8.6875 -16.347656 8.6875 -14.734375 C 8.6875 -13.421875 9.53125 -11.957031 11.21875 -10.34375 Z M 11.21875 -10.34375 "/>
</symbol>
<symbol overflow="visible" id="khmer-pref-1:id0:glyph0-2">
<path style="stroke:none;" d="M -36.734375 26.84375 L -36.734375 18.046875 L -47.515625 18.046875 L -47.515625 11.4375 L -36.734375 11.4375 L -36.734375 2.640625 L -28.703125 2.640625 L -28.703125 11.4375 L -17.9375 11.4375 L -17.9375 18.046875 L -28.703125 18.046875 L -28.703125 26.84375 Z M -36.734375 26.84375 "/>
</symbol>
<symbol overflow="visible" id="khmer-pref-1:id0:glyph0-3">
<path style="stroke:none;" d="M 19.578125 -58.515625 L 31.125 -49.171875 L 31.125 0 L 21.015625 0 C 17.566406 -2.488281 14.960938 -4.703125 13.203125 -6.640625 C 11.441406 -8.585938 10.265625 -10.332031 9.671875 -11.875 C 9.085938 -13.414062 8.796875 -14.8125 8.796875 -16.0625 C 8.796875 -17.457031 9.125 -18.976562 9.78125 -20.625 C 10.445312 -22.269531 11.675781 -23.695312 13.46875 -24.90625 C 15.269531 -26.125 17.785156 -26.769531 21.015625 -26.84375 L 21.015625 -46.640625 C 18.367188 -48.835938 16.367188 -50.5625 15.015625 -51.8125 C 13.660156 -53.0625 12.757812 -54.03125 12.3125 -54.71875 C 11.875 -55.414062 11.65625 -56.023438 11.65625 -56.546875 C 11.65625 -57.273438 12.003906 -58.148438 12.703125 -59.171875 C 13.398438 -60.203125 14.664062 -61.890625 16.5 -64.234375 C 18.332031 -66.585938 20.9375 -70.109375 24.3125 -74.796875 C 26.65625 -73.253906 28.597656 -72.039062 30.140625 -71.15625 C 31.679688 -70.28125 33.164062 -69.695312 34.59375 -69.40625 C 36.019531 -69.113281 37.648438 -69.039062 39.484375 -69.1875 C 39.484375 -67.351562 38.84375 -65.570312 37.5625 -63.84375 C 36.28125 -62.125 34.578125 -61.265625 32.453125 -61.265625 C 31.492188 -61.265625 30.375 -61.519531 29.09375 -62.03125 C 27.8125 -62.550781 26.21875 -63.507812 24.3125 -64.90625 Z M 21.015625 -9.234375 L 21.015625 -19.359375 C 19.179688 -19.285156 17.914062 -18.914062 17.21875 -18.25 C 16.519531 -17.59375 16.171875 -16.753906 16.171875 -15.734375 C 16.171875 -13.304688 17.785156 -11.140625 21.015625 -9.234375 Z M 21.015625 -9.234375 "/>
</symbol>
<symbol overflow="visible" id="khmer-pref-1:id0:glyph0-4">
<path style="stroke:none;" d="M 34.765625 -50.8125 C 34.023438 -50.8125 33.398438 -51.066406 32.890625 -51.578125 C 32.378906 -52.097656 32.125 -52.722656 32.125 -53.453125 C 32.125 -54.191406 32.378906 -54.816406 32.890625 -55.328125 C 33.398438 -55.835938 34.023438 -56.09375 34.765625 -56.09375 C 35.492188 -56.09375 36.113281 -55.835938 36.625 -55.328125 C 37.144531 -54.816406 37.40625 -54.191406 37.40625 -53.453125 C 37.40625 -52.722656 37.144531 -52.097656 36.625 -51.578125 C 36.113281 -51.066406 35.492188 -50.8125 34.765625 -50.8125 Z M 24.09375 -48.1875 C 23.351562 -48.1875 22.726562 -48.441406 22.21875 -48.953125 C 21.707031 -49.460938 21.453125 -50.082031 21.453125 -50.8125 C 21.453125 -51.550781 21.707031 -52.175781 22.21875 -52.6875 C 22.726562 -53.195312 23.351562 -53.453125 24.09375 -53.453125 C 24.820312 -53.453125 25.441406 -53.195312 25.953125 -52.6875 C 26.472656 -52.175781 26.734375 -51.550781 26.734375 -50.8125 C 26.734375 -50.082031 26.472656 -49.460938 25.953125 -48.953125 C 25.441406 -48.441406 24.820312 -48.1875 24.09375 -48.1875 Z M 45.4375 -48.1875 C 44.695312 -48.1875 44.070312 -48.441406 43.5625 -48.953125 C 43.050781 -49.460938 42.796875 -50.082031 42.796875 -50.8125 C 42.796875 -51.550781 43.050781 -52.175781 43.5625 -52.6875 C 44.070312 -53.195312 44.695312 -53.453125 45.4375 -53.453125 C 46.164062 -53.453125 46.785156 -53.195312 47.296875 -52.6875 C 47.804688 -52.175781 48.0625 -51.550781 48.0625 -50.8125 C 48.0625 -50.082031 47.804688 -49.460938 47.296875 -48.953125 C 46.785156 -48.441406 46.164062 -48.1875 45.4375 -48.1875 Z M 16.28125 -40.484375 C 15.550781 -40.484375 14.925781 -40.738281 14.40625 -41.25 C 13.894531 -41.757812 13.640625 -42.382812 13.640625 -43.125 C 13.640625 -43.851562 13.894531 -44.472656 14.40625 -44.984375 C 14.925781 -45.503906 15.550781 -45.765625 16.28125 -45.765625 C 17.007812 -45.765625 17.628906 -45.503906 18.140625 -44.984375 C 18.660156 -44.472656 18.921875 -43.851562 18.921875 -43.125 C 18.921875 -42.382812 18.660156 -41.757812 18.140625 -41.25 C 17.628906 -40.738281 17.007812 -40.484375 16.28125 -40.484375 Z M 53.125 -40.265625 C 52.394531 -40.265625 51.769531 -40.519531 51.25 -41.03125 C 50.738281 -41.539062 50.484375 -42.164062 50.484375 -42.90625 C 50.484375 -43.632812 50.738281 -44.253906 51.25 -44.765625 C 51.769531 -45.285156 52.394531 -45.546875 53.125 -45.546875 C 53.863281 -45.546875 54.488281 -45.285156 55 -44.765625 C 55.507812 -44.253906 55.765625 -43.632812 55.765625 -42.90625 C 55.765625 -42.164062 55.507812 -41.539062 55 -41.03125 C 54.488281 -40.519531 53.863281 -40.265625 53.125 -40.265625 Z M 13.421875 -29.375 C 12.679688 -29.375 12.054688 -29.628906 11.546875 -30.140625 C 11.035156 -30.648438 10.78125 -31.273438 10.78125 -32.015625 C 10.78125 -32.742188 11.035156 -33.363281 11.546875 -33.875 C 12.054688 -34.394531 12.679688 -34.65625 13.421875 -34.65625 C 14.148438 -34.65625 14.769531 -34.394531 15.28125 -33.875 C 15.800781 -33.363281 16.0625 -32.742188 16.0625 -32.015625 C 16.0625 -31.273438 15.800781 -30.648438 15.28125 -30.140625 C 14.769531 -29.628906 14.148438 -29.375 13.421875 -29.375 Z M 56.4375 -29.375 C 55.695312 -29.375 55.070312 -29.628906 54.5625 -30.140625 C 54.050781 -30.648438 53.796875 -31.273438 53.796875 -32.015625 C 53.796875 -32.742188 54.050781 -33.363281 54.5625 -33.875 C 55.070312 -34.394531 55.695312 -34.65625 56.4375 -34.65625 C 57.164062 -34.65625 57.785156 -34.394531 58.296875 -33.875 C 58.804688 -33.363281 59.0625 -32.742188 59.0625 -32.015625 C 59.0625 -31.273438 58.804688 -30.648438 58.296875 -30.140625 C 57.785156 -29.628906 57.164062 -29.375 56.4375 -29.375 Z M 53.34375 -19.03125 C 52.613281 -19.03125 51.988281 -19.285156 51.46875 -19.796875 C 50.957031 -20.304688 50.703125 -20.929688 50.703125 -21.671875 C 50.703125 -22.398438 50.957031 -23.019531 51.46875 -23.53125 C 51.988281 -24.050781 52.613281 -24.3125 53.34375 -24.3125 C 54.082031 -24.3125 54.707031 -24.050781 55.21875 -23.53125 C 55.726562 -23.019531 55.984375 -22.398438 55.984375 -21.671875 C 55.984375 -20.929688 55.726562 -20.304688 55.21875 -19.796875 C 54.707031 -19.285156 54.082031 -19.03125 53.34375 -19.03125 Z M 16.0625 -18.921875 C 15.320312 -18.921875 14.695312 -19.175781 14.1875 -19.6875 C 13.675781 -20.195312 13.421875 -20.820312 13.421875 -21.5625 C 13.421875 -22.289062 13.675781 -22.910156 14.1875 -23.421875 C 14.695312 -23.941406 15.320312 -24.203125 16.0625 -24.203125 C 16.789062 -24.203125 17.410156 -23.941406 17.921875 -23.421875 C 18.441406 -22.910156 18.703125 -22.289062 18.703125 -21.5625 C 18.703125 -20.820312 18.441406 -20.195312 17.921875 -19.6875 C 17.410156 -19.175781 16.789062 -18.921875 16.0625 -18.921875 Z M 45.546875 -11.109375 C 44.804688 -11.109375 44.179688 -11.363281 43.671875 -11.875 C 43.160156 -12.394531 42.90625 -13.019531 42.90625 -13.75 C 42.90625 -14.476562 43.160156 -15.097656 43.671875 -15.609375 C 44.179688 -16.128906 44.804688 -16.390625 45.546875 -16.390625 C 46.273438 -16.390625 46.894531 -16.128906 47.40625 -15.609375 C 47.925781 -15.097656 48.1875 -14.476562 48.1875 -13.75 C 48.1875 -13.019531 47.925781 -12.394531 47.40625 -11.875 C 46.894531 -11.363281 46.273438 -11.109375 45.546875 -11.109375 Z M 24.09375 -11 C 23.351562 -11 22.726562 -11.253906 22.21875 -11.765625 C 21.707031 -12.285156 21.453125 -12.910156 21.453125 -13.640625 C 21.453125 -14.367188 21.707031 -14.988281 22.21875 -15.5 C 22.726562 -16.019531 23.351562 -16.28125 24.09375 -16.28125 C 24.820312 -16.28125 25.441406 -16.019531 25.953125 -15.5 C 26.472656 -14.988281 26.734375 -14.367188 26.734375 -13.640625 C 26.734375 -12.910156 26.472656 -12.285156 25.953125 -11.765625 C 25.441406 -11.253906 24.820312 -11 24.09375 -11 Z M 34.765625 -8.03125 C 34.023438 -8.03125 33.398438 -8.285156 32.890625 -8.796875 C 32.378906 -9.304688 32.125 -9.929688 32.125 -10.671875 C 32.125 -11.398438 32.378906 -12.019531 32.890625 -12.53125 C 33.398438 -13.050781 34.023438 -13.3125 34.765625 -13.3125 C 35.492188 -13.3125 36.113281 -13.050781 36.625 -12.53125 C 37.144531 -12.019531 37.40625 -11.398438 37.40625 -10.671875 C 37.40625 -9.929688 37.144531 -9.304688 36.625 -8.796875 C 36.113281 -8.285156 35.492188 -8.03125 34.765625 -8.03125 Z M 34.765625 -8.03125 "/>
</symbol>
</g>
<g>
<symbol overflow="visible" id="khmer-pref-1:id1:glyph0-0">
<path style="stroke:none;" d="M 5.375 -96.6875 L 69.828125 -96.6875 L 69.828125 0 L 5.375 0 Z M 8.0625 -2.6875 L 67.140625 -2.6875 L 67.140625 -94 L 8.0625 -94 Z M 8.0625 -2.6875 "/>
</symbol>
<symbol overflow="visible" id="khmer-pref-1:id1:glyph0-1">
<path style="stroke:none;" d="M 68.15625 -13.75 L 66.28125 -18.640625 L 88.09375 -27.390625 L 6.984375 -27.390625 L 6.984375 -34 L 88.09375 -34 L 66.28125 -42.75 L 68.15625 -47.640625 L 99.09375 -34.265625 L 99.09375 -27.125 Z M 68.15625 -13.75 "/>
</symbol>
</g>
<g>
<symbol overflow="visible" id="khmer-pref-1:id2:glyph0-0">
<path style="stroke:none;" d="M 10.5625 0 L 10.5625 -78.546875 L 59.1875 -78.546875 L 59.1875 0 Z M 20.6875 -7.375 L 49.0625 -7.375 L 49.0625 -71.171875 L 20.6875 -71.171875 Z M 20.6875 -7.375 "/>
</symbol>
<symbol overflow="visible" id="khmer-pref-1:id2:glyph0-1">
<path style="stroke:none;" d="M 13.3125 -58.515625 L 24.859375 -49.171875 L 24.859375 21.234375 C 24.859375 25.410156 29.332031 27.5 38.28125 27.5 C 47.15625 27.5 51.59375 25.410156 51.59375 21.234375 L 51.59375 5.390625 L 61.703125 5.390625 L 61.703125 21.453125 C 61.703125 30.398438 53.894531 34.875 38.28125 34.875 C 22.582031 34.875 14.734375 30.398438 14.734375 21.453125 L 14.734375 -46.640625 C 12.097656 -48.835938 10.097656 -50.5625 8.734375 -51.8125 C 7.378906 -53.0625 6.484375 -54.03125 6.046875 -54.71875 C 5.609375 -55.414062 5.390625 -56.023438 5.390625 -56.546875 C 5.390625 -57.273438 5.738281 -58.148438 6.4375 -59.171875 C 7.132812 -60.203125 8.398438 -61.890625 10.234375 -64.234375 C 12.066406 -66.585938 14.671875 -70.109375 18.046875 -74.796875 C 20.390625 -73.253906 22.332031 -72.039062 23.875 -71.15625 C 25.414062 -70.28125 26.898438 -69.695312 28.328125 -69.40625 C 29.753906 -69.113281 31.382812 -69.039062 33.21875 -69.1875 C 33.21875 -67.351562 32.578125 -65.570312 31.296875 -63.84375 C 30.015625 -62.125 28.3125 -61.265625 26.1875 -61.265625 C 25.226562 -61.265625 24.109375 -61.519531 22.828125 -62.03125 C 21.546875 -62.550781 19.953125 -63.507812 18.046875 -64.90625 Z M 13.3125 -58.515625 "/>
</symbol>
<symbol overflow="visible" id="khmer-pref-1:id2:glyph0-2">
<path style="stroke:none;" d="M 54.890625 -48.1875 C 57.453125 -48.1875 59.320312 -47.671875 60.5 -46.640625 C 61.675781 -45.609375 62.265625 -44.175781 62.265625 -42.34375 L 62.265625 -15.734375 C 62.265625 -12.503906 61.492188 -9.710938 59.953125 -7.359375 C 58.410156 -5.015625 56.375 -3.203125 53.84375 -1.921875 C 51.3125 -0.640625 48.46875 0 45.3125 0 C 42.382812 0 40.078125 -0.507812 38.390625 -1.53125 C 36.703125 -2.5625 35.34375 -3.847656 34.3125 -5.390625 C 33.289062 -6.929688 32.265625 -8.507812 31.234375 -10.125 C 29.398438 -13.125 27.785156 -15.046875 26.390625 -15.890625 C 25.003906 -16.734375 23.320312 -17.191406 21.34375 -17.265625 L 21.34375 0 L 11.21875 0 C 7.40625 -3.738281 4.800781 -6.707031 3.40625 -8.90625 C 2.007812 -11.101562 1.3125 -13.269531 1.3125 -15.40625 C 1.3125 -18.1875 2.171875 -20.421875 3.890625 -22.109375 C 5.617188 -23.796875 8.0625 -24.640625 11.21875 -24.640625 L 11.21875 -48.734375 C 9.457031 -50.421875 8.117188 -51.90625 7.203125 -53.1875 C 6.285156 -54.46875 5.828125 -55.914062 5.828125 -57.53125 C 5.828125 -59.507812 6.394531 -61.234375 7.53125 -62.703125 C 8.664062 -64.171875 10.078125 -65.707031 11.765625 -67.3125 C 15.140625 -70.539062 17.6875 -72.59375 19.40625 -73.46875 C 21.132812 -74.351562 22.363281 -74.796875 23.09375 -74.796875 C 23.976562 -74.796875 25.003906 -74.335938 26.171875 -73.421875 C 27.347656 -72.503906 28.960938 -71.054688 31.015625 -69.078125 C 32.847656 -67.242188 34.128906 -66.03125 34.859375 -65.4375 C 35.597656 -64.851562 36.257812 -64.5625 36.84375 -64.5625 C 37.4375 -64.5625 38.097656 -64.890625 38.828125 -65.546875 C 39.566406 -66.210938 40.773438 -67.390625 42.453125 -69.078125 C 44.210938 -70.910156 45.695312 -72.320312 46.90625 -73.3125 C 48.125 -74.300781 49.171875 -74.796875 50.046875 -74.796875 C 51.222656 -74.796875 52.800781 -73.769531 54.78125 -71.71875 L 59.734375 -66.4375 C 60.679688 -65.414062 61.816406 -64.679688 63.140625 -64.234375 C 64.460938 -63.796875 65.96875 -63.722656 67.65625 -64.015625 C 67.0625 -60.796875 66.03125 -58.488281 64.5625 -57.09375 C 63.101562 -55.695312 61.566406 -55 59.953125 -55 C 58.484375 -55 57.289062 -55.398438 56.375 -56.203125 C 55.457031 -57.015625 54.613281 -57.96875 53.84375 -59.0625 C 53.070312 -60.164062 52.28125 -61.117188 51.46875 -61.921875 C 50.664062 -62.734375 49.644531 -63.140625 48.40625 -63.140625 C 47.375 -63.140625 46.363281 -62.753906 45.375 -61.984375 C 44.382812 -61.210938 43.335938 -60.316406 42.234375 -59.296875 C 40.617188 -57.898438 39.28125 -56.832031 38.21875 -56.09375 C 37.15625 -55.363281 36.113281 -55 35.09375 -55 C 33.914062 -55 32.648438 -55.421875 31.296875 -56.265625 C 29.941406 -57.109375 28.492188 -58.15625 26.953125 -59.40625 C 24.898438 -61.164062 23.46875 -62.335938 22.65625 -62.921875 C 21.851562 -63.503906 21.15625 -63.796875 20.5625 -63.796875 C 19.539062 -63.796875 18.476562 -63.320312 17.375 -62.375 C 16.28125 -61.414062 15.734375 -60.425781 15.734375 -59.40625 C 15.734375 -59.03125 15.84375 -58.625 16.0625 -58.1875 C 16.28125 -57.75 16.773438 -57.050781 17.546875 -56.09375 C 18.316406 -55.144531 19.582031 -53.71875 21.34375 -51.8125 L 21.34375 -24.640625 C 25.375 -24.640625 28.597656 -23.796875 31.015625 -22.109375 C 33.441406 -20.421875 35.457031 -18.070312 37.0625 -15.0625 C 38.019531 -13.3125 38.789062 -11.773438 39.375 -10.453125 C 39.96875 -9.128906 40.664062 -8.097656 41.46875 -7.359375 C 42.28125 -6.628906 43.523438 -6.265625 45.203125 -6.265625 C 47.703125 -6.265625 49.484375 -6.976562 50.546875 -8.40625 C 51.609375 -9.84375 52.140625 -11.515625 52.140625 -13.421875 L 52.140625 -23.984375 C 48.984375 -23.984375 46.175781 -24.972656 43.71875 -26.953125 C 41.269531 -28.929688 40.046875 -31.644531 40.046875 -35.09375 C 40.046875 -37.726562 40.738281 -40.035156 42.125 -42.015625 C 43.519531 -43.992188 45.335938 -45.515625 47.578125 -46.578125 C 49.816406 -47.648438 52.253906 -48.1875 54.890625 -48.1875 Z M 52.140625 -31.34375 L 52.140625 -41.359375 C 50.960938 -41.359375 49.84375 -40.878906 48.78125 -39.921875 C 47.71875 -38.972656 47.1875 -37.65625 47.1875 -35.96875 C 47.1875 -34.351562 47.71875 -33.175781 48.78125 -32.4375 C 49.84375 -31.707031 50.960938 -31.34375 52.140625 -31.34375 Z M 11.21875 -10.34375 L 11.21875 -17.265625 C 9.53125 -17.191406 8.6875 -16.347656 8.6875 -14.734375 C 8.6875 -13.421875 9.53125 -11.957031 11.21875 -10.34375 Z M 11.21875 -10.34375 "/>
</symbol>
</g>
</defs>
  <g id="khmer-pref-1:id0:id0" transform="matrix(1.25,0,0,1.25,0.0,4.560546875)"><g id="khmer-pref-1:id0:surface1">
<g style="fill:rgb(0%,0%,0%);fill-opacity:1;">
  <use xlink:href="#khmer-pref-1:id0:glyph0-1" x="16" y="119.59375" class="c0"/>
  <use xlink:href="#khmer-pref-1:id0:glyph0-2" x="87.390625" y="119.59375" class="c1"/>
  <use xlink:href="#khmer-pref-1:id0:glyph0-3" x="87.390625" y="119.59375" class="c2"/>
  <use xlink:href="#khmer-pref-1:id0:glyph0-4" x="128.859375" y="119.59375" class="dc"/>
</g>
</g>
</g>
  <g id="khmer-pref-1:id1:id1" transform="matrix(1.25,0,0,1.25,268.37890625,0.0)"><g id="khmer-pref-1:id1:surface1">
<g style="fill:rgb(0%,0%,0%);fill-opacity:1;">
  <use xlink:href="#khmer-pref-1:id1:glyph0-1" x="0" y="120.84375" class="arrow"/>
</g>
</g>
</g>
  <g id="khmer-pref-1:id2:id2" transform="matrix(1.25,0,0,1.25,400.9765625,4.560546875)"><g id="khmer-pref-1:id2:surface1">
<g style="fill:rgb(0%,0%,0%);fill-opacity:1;">
  <use xlink:href="#khmer-pref-1:id2:glyph0-1" x="16" y="119.59375" class="c2"/>
  <use xlink:href="#khmer-pref-1:id2:glyph0-2" x="56.8125" y="119.59375" class="c0"/>
</g>
</g>
</g>
</svg>
