<!DOCTYPE svg PUBLIC "-//W3C//DTD SVG 1.1//EN" "http://www.w3.org/Graphics/SVG/1.1/DTD/svg11.dtd">
<!-- Created with svg_stack (http://github.com/astraw/svg_stack) --><svg xmlns="http://www.w3.org/2000/svg" xmlns:sodipodi="http://sodipodi.sourceforge.net/DTD/sodipodi-0.dtd" xmlns:xlink="http://www.w3.org/1999/xlink" version="1.1" width="482.36328125" height="201.40625" id="khmer-clig">
  <defs><g>
<symbol overflow="visible" id="khmer-clig:id0:glyph0-0">
<path style="stroke:none;" d="M 10.5625 0 L 10.5625 -78.546875 L 59.1875 -78.546875 L 59.1875 0 Z M 20.6875 -7.375 L 49.0625 -7.375 L 49.0625 -71.171875 L 20.6875 -71.171875 Z M 20.6875 -7.375 "/>
</symbol>
<symbol overflow="visible" id="khmer-clig:id0:glyph0-1">
<path style="stroke:none;" d="M 97.796875 -50.046875 L 97.796875 0 L 87.671875 0 L 87.671875 -47.515625 C 87.671875 -50.085938 87.046875 -52.140625 85.796875 -53.671875 C 84.554688 -55.210938 82.210938 -57.125 78.765625 -59.40625 C 75.679688 -61.53125 73.421875 -62.921875 71.984375 -63.578125 C 70.554688 -64.234375 69.296875 -64.5625 68.203125 -64.5625 C 66.585938 -64.5625 65.007812 -64.101562 63.46875 -63.1875 C 61.925781 -62.269531 60.347656 -61.222656 58.734375 -60.046875 C 57.117188 -58.878906 55.453125 -57.835938 53.734375 -56.921875 C 52.015625 -56.003906 50.125 -55.546875 48.0625 -55.546875 C 46.007812 -55.546875 44.03125 -56.039062 42.125 -57.03125 C 40.21875 -58.019531 38.363281 -59.191406 36.5625 -60.546875 C 34.769531 -61.910156 32.957031 -63.085938 31.125 -64.078125 C 29.289062 -65.066406 27.347656 -65.5625 25.296875 -65.5625 C 24.347656 -65.5625 23.320312 -65.394531 22.21875 -65.0625 C 21.113281 -64.726562 19.867188 -64.125 18.484375 -63.25 C 17.597656 -62.738281 16.769531 -62.078125 16 -61.265625 C 15.226562 -60.460938 14.84375 -59.546875 14.84375 -58.515625 C 14.84375 -57.566406 15.316406 -56.6875 16.265625 -55.875 C 17.222656 -55.070312 18.472656 -54.15625 20.015625 -53.125 L 11.328125 -47.84375 C 9.273438 -49.3125 7.660156 -50.722656 6.484375 -52.078125 C 5.316406 -53.441406 4.734375 -55.039062 4.734375 -56.875 C 4.734375 -58.78125 5.554688 -60.6875 7.203125 -62.59375 C 8.859375 -64.5 11.554688 -66.660156 15.296875 -69.078125 C 18.734375 -71.347656 21.585938 -72.90625 23.859375 -73.75 C 26.140625 -74.59375 27.867188 -75.015625 29.046875 -75.015625 C 30.285156 -75.015625 31.800781 -74.5 33.59375 -73.46875 C 35.394531 -72.445312 37.765625 -70.984375 40.703125 -69.078125 C 42.828125 -67.679688 44.640625 -66.5625 46.140625 -65.71875 C 47.648438 -64.875 49.023438 -64.453125 50.265625 -64.453125 C 51.585938 -64.453125 52.90625 -64.925781 54.21875 -65.875 C 55.539062 -66.832031 57.453125 -68.15625 59.953125 -69.84375 C 62.296875 -71.457031 64.238281 -72.722656 65.78125 -73.640625 C 67.320312 -74.554688 68.710938 -75.015625 69.953125 -75.015625 C 71.421875 -75.015625 73.253906 -74.335938 75.453125 -72.984375 C 77.660156 -71.628906 80.632812 -69.664062 84.375 -67.09375 C 87.96875 -64.601562 90.734375 -62.492188 92.671875 -60.765625 C 94.617188 -59.046875 95.957031 -57.378906 96.6875 -55.765625 C 97.425781 -54.148438 97.796875 -52.242188 97.796875 -50.046875 Z M 59.296875 -34.765625 L 59.296875 0 L 49.171875 0 L 49.171875 -34.765625 C 49.171875 -36.222656 48.523438 -37.59375 47.234375 -38.875 C 45.953125 -40.164062 44.25 -41.195312 42.125 -41.96875 C 40 -42.738281 37.617188 -43.125 34.984375 -43.125 C 30.867188 -43.125 27.4375 -42.257812 24.6875 -40.53125 C 21.9375 -38.8125 20.5625 -36.890625 20.5625 -34.765625 L 20.5625 0 L 10.453125 0 L 10.453125 -34.765625 C 10.453125 -37.546875 11.566406 -40.128906 13.796875 -42.515625 C 16.035156 -44.898438 19.003906 -46.820312 22.703125 -48.28125 C 26.410156 -49.75 30.46875 -50.484375 34.875 -50.484375 C 39.414062 -50.484375 43.535156 -49.734375 47.234375 -48.234375 C 50.941406 -46.734375 53.878906 -44.789062 56.046875 -42.40625 C 58.210938 -40.019531 59.296875 -37.472656 59.296875 -34.765625 Z M 59.296875 -34.765625 "/>
</symbol>
</g>
<g>
<symbol overflow="visible" id="khmer-clig:id1:glyph0-0">
<path style="stroke:none;" d="M 5.375 -96.6875 L 69.828125 -96.6875 L 69.828125 0 L 5.375 0 Z M 8.0625 -2.6875 L 67.140625 -2.6875 L 67.140625 -94 L 8.0625 -94 Z M 8.0625 -2.6875 "/>
</symbol>
<symbol overflow="visible" id="khmer-clig:id1:glyph0-1">
<path style="stroke:none;" d="M 68.15625 -13.75 L 66.28125 -18.640625 L 88.09375 -27.390625 L 6.984375 -27.390625 L 6.984375 -34 L 88.09375 -34 L 66.28125 -42.75 L 68.15625 -47.640625 L 99.09375 -34.265625 L 99.09375 -27.125 Z M 68.15625 -13.75 "/>
</symbol>
</g>
<g>
<symbol overflow="visible" id="khmer-clig:id2:glyph0-0">
<path style="stroke:none;" d="M 10.5625 0 L 10.5625 -78.546875 L 59.1875 -78.546875 L 59.1875 0 Z M 20.6875 -7.375 L 49.0625 -7.375 L 49.0625 -71.171875 L 20.6875 -71.171875 Z M 20.6875 -7.375 "/>
</symbol>
<symbol overflow="visible" id="khmer-clig:id2:glyph0-1">
<path style="stroke:none;" d="M 97.796875 -50.046875 L 97.796875 0 L 87.671875 0 L 87.671875 -47.515625 C 87.671875 -50.085938 87.046875 -52.140625 85.796875 -53.671875 C 84.554688 -55.210938 82.210938 -57.125 78.765625 -59.40625 C 75.679688 -61.53125 73.421875 -62.921875 71.984375 -63.578125 C 70.554688 -64.234375 69.296875 -64.5625 68.203125 -64.5625 C 66.585938 -64.5625 65.007812 -64.101562 63.46875 -63.1875 C 61.925781 -62.269531 60.347656 -61.222656 58.734375 -60.046875 C 57.117188 -58.878906 55.453125 -57.835938 53.734375 -56.921875 C 52.015625 -56.003906 50.125 -55.546875 48.0625 -55.546875 C 46.007812 -55.546875 44.03125 -56.039062 42.125 -57.03125 C 40.21875 -58.019531 38.363281 -59.191406 36.5625 -60.546875 C 34.769531 -61.910156 32.957031 -63.085938 31.125 -64.078125 C 29.289062 -65.066406 27.347656 -65.5625 25.296875 -65.5625 C 24.347656 -65.5625 23.320312 -65.394531 22.21875 -65.0625 C 21.113281 -64.726562 19.867188 -64.125 18.484375 -63.25 C 17.597656 -62.738281 16.769531 -62.078125 16 -61.265625 C 15.226562 -60.460938 14.84375 -59.546875 14.84375 -58.515625 C 14.84375 -57.566406 15.316406 -56.6875 16.265625 -55.875 C 17.222656 -55.070312 18.472656 -54.15625 20.015625 -53.125 L 11.328125 -47.84375 C 9.273438 -49.3125 7.660156 -50.722656 6.484375 -52.078125 C 5.316406 -53.441406 4.734375 -55.039062 4.734375 -56.875 C 4.734375 -58.78125 5.554688 -60.6875 7.203125 -62.59375 C 8.859375 -64.5 11.554688 -66.660156 15.296875 -69.078125 C 18.734375 -71.347656 21.585938 -72.90625 23.859375 -73.75 C 26.140625 -74.59375 27.867188 -75.015625 29.046875 -75.015625 C 30.285156 -75.015625 31.800781 -74.5 33.59375 -73.46875 C 35.394531 -72.445312 37.765625 -70.984375 40.703125 -69.078125 C 42.828125 -67.679688 44.640625 -66.5625 46.140625 -65.71875 C 47.648438 -64.875 49.023438 -64.453125 50.265625 -64.453125 C 51.585938 -64.453125 52.90625 -64.925781 54.21875 -65.875 C 55.539062 -66.832031 57.453125 -68.15625 59.953125 -69.84375 C 62.296875 -71.457031 64.238281 -72.722656 65.78125 -73.640625 C 67.320312 -74.554688 68.710938 -75.015625 69.953125 -75.015625 C 71.421875 -75.015625 73.253906 -74.335938 75.453125 -72.984375 C 77.660156 -71.628906 80.632812 -69.664062 84.375 -67.09375 C 87.96875 -64.601562 90.734375 -62.492188 92.671875 -60.765625 C 94.617188 -59.046875 95.957031 -57.378906 96.6875 -55.765625 C 97.425781 -54.148438 97.796875 -52.242188 97.796875 -50.046875 Z M 59.296875 -34.765625 L 59.296875 0 L 49.171875 0 L 49.171875 -34.765625 C 49.171875 -36.222656 48.523438 -37.59375 47.234375 -38.875 C 45.953125 -40.164062 44.25 -41.195312 42.125 -41.96875 C 40 -42.738281 37.617188 -43.125 34.984375 -43.125 C 30.867188 -43.125 27.4375 -42.257812 24.6875 -40.53125 C 21.9375 -38.8125 20.5625 -36.890625 20.5625 -34.765625 L 20.5625 0 L 10.453125 0 L 10.453125 -34.765625 C 10.453125 -37.546875 11.566406 -40.128906 13.796875 -42.515625 C 16.035156 -44.898438 19.003906 -46.820312 22.703125 -48.28125 C 26.410156 -49.75 30.46875 -50.484375 34.875 -50.484375 C 39.414062 -50.484375 43.535156 -49.734375 47.234375 -48.234375 C 50.941406 -46.734375 53.878906 -44.789062 56.046875 -42.40625 C 58.210938 -40.019531 59.296875 -37.472656 59.296875 -34.765625 Z M 59.296875 -34.765625 "/>
</symbol>
</g>
</defs>
  <g id="khmer-clig:id0:id0" transform="matrix(1.25,0,0,1.25,0.0,4.560546875)"><g id="khmer-clig:id0:surface1">
<g style="fill:rgb(0%,0%,0%);fill-opacity:1;">
  <use xlink:href="#khmer-clig:id0:glyph0-1" x="16" y="119.59375" class="c1"/>
</g>
</g>
</g>
  <g id="khmer-clig:id1:id1" transform="matrix(1.25,0,0,1.25,174.8828125,0.0)"><g id="khmer-clig:id1:surface1">
<g style="fill:rgb(0%,0%,0%);fill-opacity:1;">
  <use xlink:href="#khmer-clig:id1:glyph0-1" x="0" y="120.84375" class="arrow"/>
</g>
</g>
</g>
  <g id="khmer-clig:id2:id2" transform="matrix(1.25,0,0,1.25,307.48046875,4.560546875)"><g id="khmer-clig:id2:surface1">
<g style="fill:rgb(0%,0%,0%);fill-opacity:1;">
  <use xlink:href="#khmer-clig:id2:glyph0-1" x="16" y="119.59375" class="c1"/>
</g>
</g>
</g>
</svg>
