<!DOCTYPE svg PUBLIC "-//W3C//DTD SVG 1.1//EN" "http://www.w3.org/Graphics/SVG/1.1/DTD/svg11.dtd">
<!-- Created with svg_stack (http://github.com/astraw/svg_stack) --><svg xmlns="http://www.w3.org/2000/svg" xmlns:sodipodi="http://sodipodi.sourceforge.net/DTD/sodipodi-0.dtd" xmlns:xlink="http://www.w3.org/1999/xlink" version="1.1" width="566.54296875" height="201.40625" id="nko-medi">
  <defs><g>
<symbol overflow="visible" id="nko-medi:id0:glyph0-0">
<path style="stroke:none;" d="M 10.34375 0 L 10.34375 -78.546875 L 55.546875 -78.546875 L 55.546875 0 Z M 15.953125 -5.609375 L 49.9375 -5.609375 L 49.9375 -72.9375 L 15.953125 -72.9375 Z M 15.953125 -5.609375 "/>
</symbol>
<symbol overflow="visible" id="nko-medi:id0:glyph0-1">
<path style="stroke:none;" d="M -3.734375 0 L -3.734375 -8.578125 L 49.609375 -8.578125 L 49.609375 0 Z M -3.734375 0 "/>
</symbol>
<symbol overflow="visible" id="nko-medi:id0:glyph0-2">
<path style="stroke:none;" d="M 5.390625 0 L 5.390625 -8.578125 L 25.953125 -8.578125 C 27.859375 -12.535156 29.75 -16.476562 31.625 -20.40625 C 33.5 -24.332031 35.054688 -27.796875 36.296875 -30.796875 L 46.421875 -30.796875 C 44.515625 -25.960938 42.296875 -21.066406 39.765625 -16.109375 C 37.234375 -11.160156 34.351562 -5.3125 31.125 1.4375 C 30.613281 2.53125 29.734375 4.210938 28.484375 6.484375 C 27.242188 8.765625 25.90625 11.222656 24.46875 13.859375 C 23.039062 16.492188 21.738281 18.914062 20.5625 21.125 C 21.226562 21.34375 22.070312 21.453125 23.09375 21.453125 C 25.8125 21.453125 28.34375 20.570312 30.6875 18.8125 C 33.03125 17.050781 35.023438 14.882812 36.671875 12.3125 C 38.328125 9.75 39.523438 7.257812 40.265625 4.84375 L 47.515625 4.84375 C 45.535156 13.269531 42.179688 19.554688 37.453125 23.703125 C 32.722656 27.847656 27.171875 29.921875 20.796875 29.921875 C 17.128906 29.921875 14.320312 29.222656 12.375 27.828125 C 10.425781 26.429688 9.453125 24.925781 9.453125 23.3125 C 9.453125 22.875 9.875 21.8125 10.71875 20.125 C 11.5625 18.4375 12.625 16.4375 13.90625 14.125 C 15.195312 11.820312 16.519531 9.476562 17.875 7.09375 C 19.226562 4.707031 20.382812 2.523438 21.34375 0.546875 C 21.414062 0.328125 21.523438 0.144531 21.671875 0 Z M 5.390625 0 "/>
</symbol>
</g>
<g>
<symbol overflow="visible" id="nko-medi:id1:glyph0-0">
<path style="stroke:none;" d="M 5.375 -96.6875 L 69.828125 -96.6875 L 69.828125 0 L 5.375 0 Z M 8.0625 -2.6875 L 67.140625 -2.6875 L 67.140625 -94 L 8.0625 -94 Z M 8.0625 -2.6875 "/>
</symbol>
<symbol overflow="visible" id="nko-medi:id1:glyph0-1">
<path style="stroke:none;" d="M 68.15625 -13.75 L 66.28125 -18.640625 L 88.09375 -27.390625 L 6.984375 -27.390625 L 6.984375 -34 L 88.09375 -34 L 66.28125 -42.75 L 68.15625 -47.640625 L 99.09375 -34.265625 L 99.09375 -27.125 Z M 68.15625 -13.75 "/>
</symbol>
</g>
<g>
<symbol overflow="visible" id="nko-medi:id2:glyph0-0">
<path style="stroke:none;" d="M 10.34375 0 L 10.34375 -78.546875 L 55.546875 -78.546875 L 55.546875 0 Z M 15.953125 -5.609375 L 49.9375 -5.609375 L 49.9375 -72.9375 L 15.953125 -72.9375 Z M 15.953125 -5.609375 "/>
</symbol>
<symbol overflow="visible" id="nko-medi:id2:glyph0-1">
<path style="stroke:none;" d="M -3.734375 0 L -3.734375 -8.578125 L 49.609375 -8.578125 L 49.609375 0 Z M -3.734375 0 "/>
</symbol>
<symbol overflow="visible" id="nko-medi:id2:glyph0-2">
<path style="stroke:none;" d="M 1.65625 0 C 0.988281 0 0.0703125 -0.179688 -1.09375 -0.546875 C -2.269531 -0.910156 -3.148438 -1.316406 -3.734375 -1.765625 L -3.734375 -8.578125 L 25.953125 -8.578125 C 27.859375 -12.535156 29.75 -16.492188 31.625 -20.453125 C 33.5 -24.421875 35.054688 -27.867188 36.296875 -30.796875 L 46.421875 -30.796875 C 45.242188 -27.796875 43.957031 -24.828125 42.5625 -21.890625 C 41.175781 -18.953125 39.640625 -15.800781 37.953125 -12.4375 C 40.078125 -9.863281 43.375 -8.578125 47.84375 -8.578125 L 53.5625 -8.578125 L 53.5625 0 L 48.296875 0 C 44.921875 0 42.332031 -0.53125 40.53125 -1.59375 C 38.738281 -2.65625 36.890625 -4.25 34.984375 -6.375 C 34.390625 -5.207031 33.765625 -3.960938 33.109375 -2.640625 C 32.453125 -1.316406 31.789062 0.0390625 31.125 1.4375 C 30.613281 2.53125 29.734375 4.210938 28.484375 6.484375 C 27.242188 8.765625 25.90625 11.222656 24.46875 13.859375 C 23.039062 16.492188 21.738281 18.914062 20.5625 21.125 C 21.226562 21.34375 22.070312 21.453125 23.09375 21.453125 C 24.125 21.453125 25.410156 21.210938 26.953125 20.734375 C 28.492188 20.253906 30.109375 19.320312 31.796875 17.9375 C 33.472656 16.46875 35.117188 14.503906 36.734375 12.046875 C 38.347656 9.585938 39.523438 7.1875 40.265625 4.84375 L 47.515625 4.84375 C 45.535156 13.269531 42.179688 19.554688 37.453125 23.703125 C 32.722656 27.847656 27.171875 29.921875 20.796875 29.921875 C 17.128906 29.921875 14.320312 29.222656 12.375 27.828125 C 10.425781 26.429688 9.453125 24.925781 9.453125 23.3125 C 9.453125 22.875 9.875 21.828125 10.71875 20.171875 C 11.5625 18.523438 12.609375 16.566406 13.859375 14.296875 C 15.109375 12.023438 16.410156 9.695312 17.765625 7.3125 C 19.117188 4.925781 20.273438 2.742188 21.234375 0.765625 C 21.378906 0.472656 21.523438 0.21875 21.671875 0 Z M 1.65625 0 "/>
</symbol>
</g>
</defs>
  <g id="nko-medi:id0:id0" transform="matrix(1.25,0,0,1.25,0.0,4.560546875)"><g id="nko-medi:id0:surface1">
<g style="fill:rgb(0%,0%,0%);fill-opacity:1;">
  <use xlink:href="#nko-medi:id0:glyph0-1" x="16" y="119.59375" class="c2"/>
  <use xlink:href="#nko-medi:id0:glyph0-2" x="61.875" y="119.59375" class="c1"/>
  <use xlink:href="#nko-medi:id0:glyph0-1" x="111.703125" y="119.59375" class="c0"/>
</g>
</g>
</g>
  <g id="nko-medi:id1:id1" transform="matrix(1.25,0,0,1.25,216.97265625,0.0)"><g id="nko-medi:id1:surface1">
<g style="fill:rgb(0%,0%,0%);fill-opacity:1;">
  <use xlink:href="#nko-medi:id1:glyph0-1" x="0" y="120.84375" class="arrow"/>
</g>
</g>
</g>
  <g id="nko-medi:id2:id2" transform="matrix(1.25,0,0,1.25,349.5703125,4.560546875)"><g id="nko-medi:id2:surface1">
<g style="fill:rgb(0%,0%,0%);fill-opacity:1;">
  <use xlink:href="#nko-medi:id2:glyph0-1" x="16" y="119.59375" class="c2"/>
  <use xlink:href="#nko-medi:id2:glyph0-2" x="61.875" y="119.59375" class="c1"/>
  <use xlink:href="#nko-medi:id2:glyph0-1" x="111.703125" y="119.59375" class="c0"/>
</g>
</g>
</g>
</svg>
