<!DOCTYPE svg PUBLIC "-//W3C//DTD SVG 1.1//EN" "http://www.w3.org/Graphics/SVG/1.1/DTD/svg11.dtd">
<!-- Created with svg_stack (http://github.com/astraw/svg_stack) --><svg xmlns="http://www.w3.org/2000/svg" xmlns:sodipodi="http://sodipodi.sourceforge.net/DTD/sodipodi-0.dtd" xmlns:xlink="http://www.w3.org/1999/xlink" version="1.1" width="471.66015625" height="201.40625" id="nko-fina">
  <defs><g>
<symbol overflow="visible" id="nko-fina:id0:glyph0-0">
<path style="stroke:none;" d="M 10.34375 0 L 10.34375 -78.546875 L 55.546875 -78.546875 L 55.546875 0 Z M 15.953125 -5.609375 L 49.9375 -5.609375 L 49.9375 -72.9375 L 15.953125 -72.9375 Z M 15.953125 -5.609375 "/>
</symbol>
<symbol overflow="visible" id="nko-fina:id0:glyph0-1">
<path style="stroke:none;" d="M 9.6875 0 L 9.6875 -30.6875 C 9.6875 -41.832031 15.585938 -47.40625 27.390625 -47.40625 L 38.28125 -47.40625 L 38.28125 -69.953125 L 10.78125 -69.953125 L 10.78125 -78.546875 L 48.0625 -78.546875 L 48.0625 0 Z M 19.46875 -29.921875 L 19.46875 -8.578125 L 38.28125 -8.578125 L 38.28125 -38.828125 L 26.625 -38.828125 C 23.90625 -38.828125 22.03125 -38.035156 21 -36.453125 C 19.976562 -34.878906 19.46875 -32.703125 19.46875 -29.921875 Z M 19.46875 -29.921875 "/>
</symbol>
<symbol overflow="visible" id="nko-fina:id0:glyph0-2">
<path style="stroke:none;" d="M -3.734375 0 L -3.734375 -8.578125 L 49.609375 -8.578125 L 49.609375 0 Z M -3.734375 0 "/>
</symbol>
</g>
<g>
<symbol overflow="visible" id="nko-fina:id1:glyph0-0">
<path style="stroke:none;" d="M 5.375 -96.6875 L 69.828125 -96.6875 L 69.828125 0 L 5.375 0 Z M 8.0625 -2.6875 L 67.140625 -2.6875 L 67.140625 -94 L 8.0625 -94 Z M 8.0625 -2.6875 "/>
</symbol>
<symbol overflow="visible" id="nko-fina:id1:glyph0-1">
<path style="stroke:none;" d="M 68.15625 -13.75 L 66.28125 -18.640625 L 88.09375 -27.390625 L 6.984375 -27.390625 L 6.984375 -34 L 88.09375 -34 L 66.28125 -42.75 L 68.15625 -47.640625 L 99.09375 -34.265625 L 99.09375 -27.125 Z M 68.15625 -13.75 "/>
</symbol>
</g>
<g>
<symbol overflow="visible" id="nko-fina:id2:glyph0-0">
<path style="stroke:none;" d="M 10.34375 0 L 10.34375 -78.546875 L 55.546875 -78.546875 L 55.546875 0 Z M 15.953125 -5.609375 L 49.9375 -5.609375 L 49.9375 -72.9375 L 15.953125 -72.9375 Z M 15.953125 -5.609375 "/>
</symbol>
<symbol overflow="visible" id="nko-fina:id2:glyph0-1">
<path style="stroke:none;" d="M 9.6875 0 L 9.6875 -30.6875 C 9.6875 -41.832031 15.585938 -47.40625 27.390625 -47.40625 L 38.28125 -47.40625 L 38.28125 -69.953125 L 10.78125 -69.953125 L 10.78125 -78.546875 L 48.0625 -78.546875 L 48.0625 -14.84375 C 49.976562 -10.664062 53.757812 -8.578125 59.40625 -8.578125 L 61.484375 -8.578125 L 61.484375 0 L 57.75 0 C 54.957031 0 52.789062 -0.507812 51.25 -1.53125 C 49.71875 -2.5625 48.179688 -4.101562 46.640625 -6.15625 C 45.535156 -4.03125 43.921875 -2.472656 41.796875 -1.484375 C 39.671875 -0.492188 37.289062 0 34.65625 0 Z M 19.46875 -29.921875 L 19.46875 -8.578125 L 38.28125 -8.578125 L 38.28125 -38.828125 L 26.625 -38.828125 C 23.90625 -38.828125 22.03125 -38.035156 21 -36.453125 C 19.976562 -34.878906 19.46875 -32.703125 19.46875 -29.921875 Z M 19.46875 -29.921875 "/>
</symbol>
<symbol overflow="visible" id="nko-fina:id2:glyph0-2">
<path style="stroke:none;" d="M -3.734375 0 L -3.734375 -8.578125 L 49.609375 -8.578125 L 49.609375 0 Z M -3.734375 0 "/>
</symbol>
</g>
</defs>
  <g id="nko-fina:id0:id0" transform="matrix(1.25,0,0,1.25,0.0,4.560546875)"><g id="nko-fina:id0:surface1">
<g style="fill:rgb(0%,0%,0%);fill-opacity:1;">
  <use xlink:href="#nko-fina:id0:glyph0-1" x="16" y="119.59375" class="c1"/>
  <use xlink:href="#nko-fina:id0:glyph0-2" x="73.75" y="119.59375" class="c0"/>
</g>
</g>
</g>
  <g id="nko-fina:id1:id1" transform="matrix(1.25,0,0,1.25,169.53125,0.0)"><g id="nko-fina:id1:surface1">
<g style="fill:rgb(0%,0%,0%);fill-opacity:1;">
  <use xlink:href="#nko-fina:id1:glyph0-1" x="0" y="120.84375" class="arrow"/>
</g>
</g>
</g>
  <g id="nko-fina:id2:id2" transform="matrix(1.25,0,0,1.25,302.12890625,4.560546875)"><g id="nko-fina:id2:surface1">
<g style="fill:rgb(0%,0%,0%);fill-opacity:1;">
  <use xlink:href="#nko-fina:id2:glyph0-1" x="16" y="119.59375" class="c1"/>
  <use xlink:href="#nko-fina:id2:glyph0-2" x="73.75" y="119.59375" class="c0"/>
</g>
</g>
</g>
</svg>
