<?xml version="1.0" standalone="no"?>
<!DOCTYPE svg PUBLIC "-//W3C//DTD SVG 1.1//EN"
 "http://www.w3.org/Graphics/SVG/1.1/DTD/svg11.dtd">
<!-- Created with svg_stack (http://github.com/astraw/svg_stack) -->
<svg xmlns="http://www.w3.org/2000/svg" xmlns:sodipodi="http://sodipodi.sourceforge.net/DTD/sodipodi-0.dtd" xmlns:xlink="http://www.w3.org/1999/xlink" version="1.1" width="506.03515625" height="201.40625">
  <defs><g>
<symbol overflow="visible" id="id0:glyph0-0">
<path style="stroke:none;" d="M 10.34375 0 L 10.34375 -78.546875 L 55.546875 -78.546875 L 55.546875 0 Z M 15.953125 -5.609375 L 49.9375 -5.609375 L 49.9375 -72.9375 L 15.953125 -72.9375 Z M 15.953125 -5.609375 "/>
</symbol>
<symbol overflow="visible" id="id0:glyph0-1">
<path style="stroke:none;" d="M -3.734375 0 L -3.734375 -8.578125 L 49.609375 -8.578125 L 49.609375 0 Z M -3.734375 0 "/>
</symbol>
<symbol overflow="visible" id="id0:glyph0-2">
<path style="stroke:none;" d="M 16.609375 0 L 16.609375 -47.84375 L 4.296875 -47.84375 L 4.296875 -56.4375 L 16.609375 -56.4375 L 16.609375 -78.546875 L 26.40625 -78.546875 L 26.40625 -56.4375 L 45.09375 -56.4375 L 45.09375 -78.546875 L 54.890625 -78.546875 L 54.890625 -56.4375 L 67.203125 -56.4375 L 67.203125 -47.84375 L 54.890625 -47.84375 L 54.890625 0 Z M 45.09375 -8.578125 L 45.09375 -47.84375 L 26.40625 -47.84375 L 26.40625 -8.578125 Z M 45.09375 -8.578125 "/>
</symbol>
</g>
<g>
<symbol overflow="visible" id="id1:glyph0-0">
<path style="stroke:none;" d="M 5.375 -96.6875 L 69.828125 -96.6875 L 69.828125 0 L 5.375 0 Z M 8.0625 -2.6875 L 67.140625 -2.6875 L 67.140625 -94 L 8.0625 -94 Z M 8.0625 -2.6875 "/>
</symbol>
<symbol overflow="visible" id="id1:glyph0-1">
<path style="stroke:none;" d="M 68.15625 -13.75 L 66.28125 -18.640625 L 88.09375 -27.390625 L 6.984375 -27.390625 L 6.984375 -34 L 88.09375 -34 L 66.28125 -42.75 L 68.15625 -47.640625 L 99.09375 -34.265625 L 99.09375 -27.125 Z M 68.15625 -13.75 "/>
</symbol>
</g>
<g>
<symbol overflow="visible" id="id2:glyph0-0">
<path style="stroke:none;" d="M 10.34375 0 L 10.34375 -78.546875 L 55.546875 -78.546875 L 55.546875 0 Z M 15.953125 -5.609375 L 49.9375 -5.609375 L 49.9375 -72.9375 L 15.953125 -72.9375 Z M 15.953125 -5.609375 "/>
</symbol>
<symbol overflow="visible" id="id2:glyph0-1">
<path style="stroke:none;" d="M -3.734375 0 L -3.734375 -8.578125 L 49.609375 -8.578125 L 49.609375 0 Z M -3.734375 0 "/>
</symbol>
<symbol overflow="visible" id="id2:glyph0-2">
<path style="stroke:none;" d="M 1.65625 0 C 0.988281 0 0.0703125 -0.179688 -1.09375 -0.546875 C -2.269531 -0.910156 -3.148438 -1.316406 -3.734375 -1.765625 L -3.734375 -8.578125 L 16.609375 -8.578125 L 16.609375 -47.84375 L 4.296875 -47.84375 L 4.296875 -56.4375 L 16.609375 -56.4375 L 16.609375 -78.546875 L 26.40625 -78.546875 L 26.40625 -56.4375 L 45.09375 -56.4375 L 45.09375 -78.546875 L 54.890625 -78.546875 L 54.890625 -56.4375 L 67.203125 -56.4375 L 67.203125 -47.84375 L 54.890625 -47.84375 L 54.890625 -12.875 C 54.890625 -8.394531 53.601562 -5.128906 51.03125 -3.078125 C 48.46875 -1.023438 45.28125 0 41.46875 0 L 36.078125 0 C 33.296875 0 31.132812 -0.507812 29.59375 -1.53125 C 28.050781 -2.5625 26.507812 -4.101562 24.96875 -6.15625 C 23.863281 -4.03125 22.25 -2.472656 20.125 -1.484375 C 18 -0.492188 15.617188 0 12.984375 0 Z M 37.734375 -8.578125 L 45.09375 -8.578125 L 45.09375 -47.84375 L 26.40625 -47.84375 L 26.40625 -14.84375 C 28.3125 -10.664062 32.085938 -8.578125 37.734375 -8.578125 Z M 37.734375 -8.578125 "/>
</symbol>
</g>
</defs>
  <g id="id0:id0" transform="matrix(1.25,0,0,1.25,0.0,4.560546875)"><g id="id0:surface1">
<g style="fill:rgb(0%,0%,0%);fill-opacity:1;">
  <use xlink:href="#id0:glyph0-1" x="16" y="119.59375"/>
  <use xlink:href="#id0:glyph0-2" x="61.875" y="119.59375"/>
</g>
</g>
</g>
  <g id="id1:id1" transform="matrix(1.25,0,0,1.25,186.71875,0.0)"><g id="id1:surface1">
<g style="fill:rgb(0%,0%,0%);fill-opacity:1;">
  <use xlink:href="#id1:glyph0-1" x="0" y="120.84375"/>
</g>
</g>
</g>
  <g id="id2:id2" transform="matrix(1.25,0,0,1.25,319.31640625,4.560546875)"><g id="id2:surface1">
<g style="fill:rgb(0%,0%,0%);fill-opacity:1;">
  <use xlink:href="#id2:glyph0-1" x="16" y="119.59375"/>
  <use xlink:href="#id2:glyph0-2" x="61.875" y="119.59375"/>
</g>
</g>
</g>
</svg>
