<?xml version="1.0" standalone="no"?>
<!DOCTYPE svg PUBLIC "-//W3C//DTD SVG 1.1//EN"
 "http://www.w3.org/Graphics/SVG/1.1/DTD/svg11.dtd">
<!-- Created with svg_stack (http://github.com/astraw/svg_stack) -->
<svg xmlns="http://www.w3.org/2000/svg" xmlns:sodipodi="http://sodipodi.sourceforge.net/DTD/sodipodi-0.dtd" xmlns:xlink="http://www.w3.org/1999/xlink" version="1.1" width="482.40234375" height="201.40625">
  <defs><g>
<symbol overflow="visible" id="id0:glyph0-0">
<path style="stroke:none;" d="M 10.34375 0 L 10.34375 -78.546875 L 55.546875 -78.546875 L 55.546875 0 Z M 15.953125 -5.609375 L 49.9375 -5.609375 L 49.9375 -72.9375 L 15.953125 -72.9375 Z M 15.953125 -5.609375 "/>
</symbol>
<symbol overflow="visible" id="id0:glyph0-1">
<path style="stroke:none;" d="M -21.015625 -88.65625 L -23.65625 -95.046875 L -6.375 -116.484375 L -0.546875 -111.546875 L -6.8125 -103.734375 C -7.695312 -102.628906 -8.722656 -101.398438 -9.890625 -100.046875 C -11.066406 -98.691406 -12.132812 -97.5 -13.09375 -96.46875 L 21.015625 -96.46875 L 21.015625 -88.65625 Z M -21.015625 -88.65625 "/>
</symbol>
<symbol overflow="visible" id="id0:glyph0-2">
<path style="stroke:none;" d="M 9.6875 0 L 9.6875 -78.546875 L 19.46875 -78.546875 L 19.46875 -47.40625 L 29.375 -47.40625 C 37.875 -47.40625 44.140625 -45.257812 48.171875 -40.96875 C 52.210938 -36.6875 54.234375 -30.914062 54.234375 -23.65625 C 54.234375 -19.175781 53.171875 -15.101562 51.046875 -11.4375 C 53.171875 -9.53125 56.140625 -8.578125 59.953125 -8.578125 L 65.78125 -8.578125 L 65.78125 0 L 58.296875 0 C 55.515625 0 53.351562 -0.53125 51.8125 -1.59375 C 50.269531 -2.65625 48.691406 -4.210938 47.078125 -6.265625 C 45.023438 -4.359375 42.566406 -2.835938 39.703125 -1.703125 C 36.847656 -0.566406 33.515625 0 29.703125 0 Z M 29.265625 -38.828125 L 19.46875 -38.828125 L 19.46875 -8.578125 L 30.03125 -8.578125 C 33.625 -8.578125 36.445312 -9.328125 38.5 -10.828125 C 40.550781 -12.335938 42.015625 -14.265625 42.890625 -16.609375 C 43.773438 -18.953125 44.21875 -21.300781 44.21875 -23.65625 C 44.21875 -28.414062 42.929688 -32.132812 40.359375 -34.8125 C 37.796875 -37.488281 34.097656 -38.828125 29.265625 -38.828125 Z M 29.265625 -38.828125 "/>
</symbol>
<symbol overflow="visible" id="id0:glyph0-3">
<path style="stroke:none;" d="M -3.734375 0 L -3.734375 -8.578125 L 49.609375 -8.578125 L 49.609375 0 Z M -3.734375 0 "/>
</symbol>
</g>
<g>
<symbol overflow="visible" id="id1:glyph0-0">
<path style="stroke:none;" d="M 5.375 -96.6875 L 69.828125 -96.6875 L 69.828125 0 L 5.375 0 Z M 8.0625 -2.6875 L 67.140625 -2.6875 L 67.140625 -94 L 8.0625 -94 Z M 8.0625 -2.6875 "/>
</symbol>
<symbol overflow="visible" id="id1:glyph0-1">
<path style="stroke:none;" d="M 68.15625 -13.75 L 66.28125 -18.640625 L 88.09375 -27.390625 L 6.984375 -27.390625 L 6.984375 -34 L 88.09375 -34 L 66.28125 -42.75 L 68.15625 -47.640625 L 99.09375 -34.265625 L 99.09375 -27.125 Z M 68.15625 -13.75 "/>
</symbol>
</g>
<g>
<symbol overflow="visible" id="id2:glyph0-0">
<path style="stroke:none;" d="M 10.34375 0 L 10.34375 -78.546875 L 55.546875 -78.546875 L 55.546875 0 Z M 15.953125 -5.609375 L 49.9375 -5.609375 L 49.9375 -72.9375 L 15.953125 -72.9375 Z M 15.953125 -5.609375 "/>
</symbol>
<symbol overflow="visible" id="id2:glyph0-1">
<path style="stroke:none;" d="M -21.015625 -88.65625 L -23.65625 -95.046875 L -6.375 -116.484375 L -0.546875 -111.546875 L -6.8125 -103.734375 C -7.695312 -102.628906 -8.722656 -101.398438 -9.890625 -100.046875 C -11.066406 -98.691406 -12.132812 -97.5 -13.09375 -96.46875 L 21.015625 -96.46875 L 21.015625 -88.65625 Z M -21.015625 -88.65625 "/>
</symbol>
<symbol overflow="visible" id="id2:glyph0-2">
<path style="stroke:none;" d="M 9.6875 0 L 9.6875 -78.546875 L 19.46875 -78.546875 L 19.46875 -47.40625 L 29.375 -47.40625 C 37.875 -47.40625 44.140625 -45.257812 48.171875 -40.96875 C 52.210938 -36.6875 54.234375 -30.914062 54.234375 -23.65625 C 54.234375 -19.175781 53.171875 -15.101562 51.046875 -11.4375 C 53.171875 -9.53125 56.140625 -8.578125 59.953125 -8.578125 L 65.78125 -8.578125 L 65.78125 0 L 58.296875 0 C 55.515625 0 53.351562 -0.53125 51.8125 -1.59375 C 50.269531 -2.65625 48.691406 -4.210938 47.078125 -6.265625 C 45.023438 -4.359375 42.566406 -2.835938 39.703125 -1.703125 C 36.847656 -0.566406 33.515625 0 29.703125 0 Z M 29.265625 -38.828125 L 19.46875 -38.828125 L 19.46875 -8.578125 L 30.03125 -8.578125 C 33.625 -8.578125 36.445312 -9.328125 38.5 -10.828125 C 40.550781 -12.335938 42.015625 -14.265625 42.890625 -16.609375 C 43.773438 -18.953125 44.21875 -21.300781 44.21875 -23.65625 C 44.21875 -28.414062 42.929688 -32.132812 40.359375 -34.8125 C 37.796875 -37.488281 34.097656 -38.828125 29.265625 -38.828125 Z M 29.265625 -38.828125 "/>
</symbol>
<symbol overflow="visible" id="id2:glyph0-3">
<path style="stroke:none;" d="M -3.734375 0 L -3.734375 -8.578125 L 49.609375 -8.578125 L 49.609375 0 Z M -3.734375 0 "/>
</symbol>
</g>
</defs>
  <g id="id0:id0" transform="matrix(1.25,0,0,1.25,0.0,4.560546875)"><g id="id0:surface1">
<g style="fill:rgb(0%,0%,0%);fill-opacity:1;">
  <use xlink:href="#id0:glyph0-1" x="16" y="119.59375"/>
  <use xlink:href="#id0:glyph0-2" x="16" y="119.59375"/>
  <use xlink:href="#id0:glyph0-3" x="78.046875" y="119.59375"/>
</g>
</g>
</g>
  <g id="id1:id1" transform="matrix(1.25,0,0,1.25,174.90234375,0.0)"><g id="id1:surface1">
<g style="fill:rgb(0%,0%,0%);fill-opacity:1;">
  <use xlink:href="#id1:glyph0-1" x="0" y="120.84375"/>
</g>
</g>
</g>
  <g id="id2:id2" transform="matrix(1.25,0,0,1.25,307.5,4.560546875)"><g id="id2:surface1">
<g style="fill:rgb(0%,0%,0%);fill-opacity:1;">
  <use xlink:href="#id2:glyph0-1" x="30.953125" y="119.59375"/>
  <use xlink:href="#id2:glyph0-2" x="16" y="119.59375"/>
  <use xlink:href="#id2:glyph0-3" x="78.046875" y="119.59375"/>
</g>
</g>
</g>
</svg>
