<!DOCTYPE svg PUBLIC "-//W3C//DTD SVG 1.1//EN" "http://www.w3.org/Graphics/SVG/1.1/DTD/svg11.dtd">
<!-- Created with svg_stack (http://github.com/astraw/svg_stack) --><svg xmlns="http://www.w3.org/2000/svg" xmlns:sodipodi="http://sodipodi.sourceforge.net/DTD/sodipodi-0.dtd" xmlns:xlink="http://www.w3.org/1999/xlink" version="1.1" width="100%" id="syriac-liga" viewBox="0 0 599.00390625 201.40625">
  <defs><g>
<symbol overflow="visible" id="syriac-liga:id0:glyph0-0">
<path style="stroke:none;" d="M 55.546875 -78.546875 L 55.546875 0 L 10.34375 0 L 10.34375 -78.546875 Z M 49.9375 -72.9375 L 15.953125 -72.9375 L 15.953125 -5.609375 L 49.9375 -5.609375 Z M 49.9375 -72.9375 "/>
</symbol>
<symbol overflow="visible" id="syriac-liga:id0:glyph0-1">
<path style="stroke:none;" d="M 90.75 0 C 85.394531 0 80.644531 -0.640625 76.5 -1.921875 C 72.363281 -3.203125 68.515625 -5.050781 64.953125 -7.46875 C 61.398438 -9.894531 57.789062 -12.757812 54.125 -16.0625 C 50.382812 -19.4375 46.625 -22.425781 42.84375 -25.03125 C 39.070312 -27.632812 35.09375 -29.664062 30.90625 -31.125 C 26.726562 -32.59375 22.144531 -33.328125 17.15625 -33.328125 L 16.390625 -33.328125 C 16.972656 -31.203125 17.664062 -28.285156 18.46875 -24.578125 C 19.28125 -20.878906 20.070312 -16.882812 20.84375 -12.59375 C 21.613281 -8.300781 22.289062 -4.101562 22.875 0 L 14.734375 0 C 14.222656 -3.445312 13.710938 -6.582031 13.203125 -9.40625 C 12.691406 -12.226562 12.125 -15.175781 11.5 -18.25 C 10.875 -21.332031 10.117188 -24.929688 9.234375 -29.046875 C 8.796875 -31.023438 8.484375 -32.546875 8.296875 -33.609375 C 8.117188 -34.671875 8.03125 -35.457031 8.03125 -35.96875 C 8.03125 -39.050781 9.09375 -40.882812 11.21875 -41.46875 C 13.632812 -41.101562 16.382812 -40.828125 19.46875 -40.640625 C 22.550781 -40.460938 25.445312 -40.351562 28.15625 -40.3125 C 30.875 -40.28125 32.851562 -40.265625 34.09375 -40.265625 C 39.300781 -40.265625 44.726562 -40.941406 50.375 -42.296875 C 56.019531 -43.648438 61.628906 -45.484375 67.203125 -47.796875 C 72.773438 -50.109375 78 -52.785156 82.875 -55.828125 C 87.757812 -58.867188 92 -62.078125 95.59375 -65.453125 L 101.421875 -60.171875 C 98.628906 -56.941406 95.035156 -53.804688 90.640625 -50.765625 C 86.242188 -47.722656 81.347656 -44.953125 75.953125 -42.453125 C 70.566406 -39.960938 65.03125 -37.925781 59.34375 -36.34375 C 53.65625 -34.769531 48.101562 -33.875 42.6875 -33.65625 L 42.6875 -33.21875 C 44.882812 -32.414062 47.285156 -31.148438 49.890625 -29.421875 C 52.492188 -27.703125 55.367188 -25.554688 58.515625 -22.984375 C 61.816406 -20.347656 65.097656 -17.910156 68.359375 -15.671875 C 71.628906 -13.429688 75.171875 -11.648438 78.984375 -10.328125 C 82.796875 -9.015625 87.15625 -8.359375 92.0625 -8.359375 L 117.046875 -8.359375 L 117.046875 0 Z M 90.75 0 "/>
</symbol>
<symbol overflow="visible" id="syriac-liga:id0:glyph0-2">
<path style="stroke:none;" d="M 0 0 C -1.175781 0 -2.1875 -0.363281 -3.03125 -1.09375 C -3.875 -1.832031 -4.296875 -2.863281 -4.296875 -4.1875 C -4.296875 -5.425781 -3.875 -6.429688 -3.03125 -7.203125 C -2.1875 -7.972656 -1.175781 -8.359375 0 -8.359375 L 22.4375 -8.359375 C 21.269531 -12.242188 19.75 -16.878906 17.875 -22.265625 C 16 -27.660156 13.90625 -33.53125 11.59375 -39.875 C 9.289062 -46.21875 6.851562 -52.78125 4.28125 -59.5625 C 1.71875 -66.34375 -0.84375 -73.070312 -3.40625 -79.75 L 4.515625 -82.828125 C 5.242188 -81.066406 6.226562 -78.5 7.46875 -75.125 C 8.71875 -71.75 10.128906 -67.9375 11.703125 -63.6875 C 13.285156 -59.4375 14.898438 -55.035156 16.546875 -50.484375 C 18.203125 -45.941406 19.78125 -41.539062 21.28125 -37.28125 C 22.789062 -33.03125 24.128906 -29.238281 25.296875 -25.90625 C 26.472656 -22.570312 27.351562 -20.023438 27.9375 -18.265625 C 28.75 -15.691406 29.375 -13.488281 29.8125 -11.65625 C 30.25 -9.820312 30.46875 -8.097656 30.46875 -6.484375 C 30.46875 -4.578125 30.023438 -3.019531 29.140625 -1.8125 C 28.265625 -0.601562 26.945312 0 25.1875 0 Z M 0 0 "/>
</symbol>
</g>
<g>
<symbol overflow="visible" id="syriac-liga:id1:glyph0-0">
<path style="stroke:none;" d="M 5.375 -96.6875 L 69.828125 -96.6875 L 69.828125 0 L 5.375 0 Z M 8.0625 -2.6875 L 67.140625 -2.6875 L 67.140625 -94 L 8.0625 -94 Z M 8.0625 -2.6875 "/>
</symbol>
<symbol overflow="visible" id="syriac-liga:id1:glyph0-1">
<path style="stroke:none;" d="M 68.15625 -13.75 L 66.28125 -18.640625 L 88.09375 -27.390625 L 6.984375 -27.390625 L 6.984375 -34 L 88.09375 -34 L 66.28125 -42.75 L 68.15625 -47.640625 L 99.09375 -34.265625 L 99.09375 -27.125 Z M 68.15625 -13.75 "/>
</symbol>
</g>
<g>
<symbol overflow="visible" id="syriac-liga:id2:glyph0-0">
<path style="stroke:none;" d="M 55.546875 -78.546875 L 55.546875 0 L 10.34375 0 L 10.34375 -78.546875 Z M 49.9375 -72.9375 L 15.953125 -72.9375 L 15.953125 -5.609375 L 49.9375 -5.609375 Z M 49.9375 -72.9375 "/>
</symbol>
<symbol overflow="visible" id="syriac-liga:id2:glyph0-1">
<path style="stroke:none;" d="M 90.75 0 C 85.394531 0 80.644531 -0.640625 76.5 -1.921875 C 72.363281 -3.203125 68.515625 -5.050781 64.953125 -7.46875 C 61.398438 -9.894531 57.789062 -12.757812 54.125 -16.0625 C 50.382812 -19.4375 46.625 -22.425781 42.84375 -25.03125 C 39.070312 -27.632812 35.09375 -29.664062 30.90625 -31.125 C 26.726562 -32.59375 22.144531 -33.328125 17.15625 -33.328125 L 16.390625 -33.328125 C 16.972656 -31.203125 17.664062 -28.285156 18.46875 -24.578125 C 19.28125 -20.878906 20.070312 -16.882812 20.84375 -12.59375 C 21.613281 -8.300781 22.289062 -4.101562 22.875 0 L 14.734375 0 C 14.222656 -3.445312 13.710938 -6.582031 13.203125 -9.40625 C 12.691406 -12.226562 12.125 -15.175781 11.5 -18.25 C 10.875 -21.332031 10.117188 -24.929688 9.234375 -29.046875 C 8.796875 -31.023438 8.484375 -32.546875 8.296875 -33.609375 C 8.117188 -34.671875 8.03125 -35.457031 8.03125 -35.96875 C 8.03125 -39.050781 9.09375 -40.882812 11.21875 -41.46875 C 13.632812 -41.101562 16.382812 -40.828125 19.46875 -40.640625 C 22.550781 -40.460938 25.445312 -40.351562 28.15625 -40.3125 C 30.875 -40.28125 32.851562 -40.265625 34.09375 -40.265625 C 39.300781 -40.265625 44.726562 -40.941406 50.375 -42.296875 C 56.019531 -43.648438 61.628906 -45.484375 67.203125 -47.796875 C 72.773438 -50.109375 78 -52.785156 82.875 -55.828125 C 87.757812 -58.867188 92 -62.078125 95.59375 -65.453125 L 101.421875 -60.171875 C 98.628906 -56.941406 95.035156 -53.804688 90.640625 -50.765625 C 86.242188 -47.722656 81.347656 -44.953125 75.953125 -42.453125 C 70.566406 -39.960938 65.03125 -37.925781 59.34375 -36.34375 C 53.65625 -34.769531 48.101562 -33.875 42.6875 -33.65625 L 42.6875 -33.21875 C 44.882812 -32.414062 47.285156 -31.148438 49.890625 -29.421875 C 52.492188 -27.703125 55.367188 -25.554688 58.515625 -22.984375 C 61.816406 -20.347656 65.097656 -17.910156 68.359375 -15.671875 C 71.628906 -13.429688 75.171875 -11.648438 78.984375 -10.328125 C 82.796875 -9.015625 87.15625 -8.359375 92.0625 -8.359375 L 117.046875 -8.359375 L 117.046875 0 Z M 90.75 0 "/>
</symbol>
<symbol overflow="visible" id="syriac-liga:id2:glyph0-2">
<path style="stroke:none;" d="M 0 0 C -1.175781 0 -2.1875 -0.363281 -3.03125 -1.09375 C -3.875 -1.832031 -4.296875 -2.863281 -4.296875 -4.1875 C -4.296875 -5.425781 -3.875 -6.429688 -3.03125 -7.203125 C -2.1875 -7.972656 -1.175781 -8.359375 0 -8.359375 L 22.4375 -8.359375 C 21.269531 -12.242188 19.75 -16.878906 17.875 -22.265625 C 16 -27.660156 13.90625 -33.53125 11.59375 -39.875 C 9.289062 -46.21875 6.851562 -52.78125 4.28125 -59.5625 C 1.71875 -66.34375 -0.84375 -73.070312 -3.40625 -79.75 L 4.515625 -82.828125 C 5.242188 -81.066406 6.226562 -78.5 7.46875 -75.125 C 8.71875 -71.75 10.128906 -67.9375 11.703125 -63.6875 C 13.285156 -59.4375 14.898438 -55.035156 16.546875 -50.484375 C 18.203125 -45.941406 19.78125 -41.539062 21.28125 -37.28125 C 22.789062 -33.03125 24.128906 -29.238281 25.296875 -25.90625 C 26.472656 -22.570312 27.351562 -20.023438 27.9375 -18.265625 C 28.75 -15.691406 29.375 -13.488281 29.8125 -11.65625 C 30.25 -9.820312 30.46875 -8.097656 30.46875 -6.484375 C 30.46875 -4.578125 30.023438 -3.019531 29.140625 -1.8125 C 28.265625 -0.601562 26.945312 0 25.1875 0 Z M 0 0 "/>
</symbol>
</g>
</defs>
  <g id="syriac-liga:id0:id0" transform="matrix(1.25,0,0,1.25,0.0,1.1328125)"><g id="syriac-liga:id0:surface1">
<g style="fill:rgb(0%,0%,0%);fill-opacity:1;">
  <use xlink:href="#syriac-liga:id0:glyph0-1" x="16" y="103.859375" class="c1"/>
  <use xlink:href="#syriac-liga:id0:glyph0-2" x="133.046875" y="103.859375" class="c0"/>
</g>
</g>
</g>
  <g id="syriac-liga:id1:id1" transform="matrix(1.25,0,0,1.25,233.203125,0.0)"><g id="syriac-liga:id1:surface1">
<g style="fill:rgb(0%,0%,0%);fill-opacity:1;">
  <use xlink:href="#syriac-liga:id1:glyph0-1" x="0" y="120.84375" class="arrow"/>
</g>
</g>
</g>
  <g id="syriac-liga:id2:id2" transform="matrix(1.25,0,0,1.25,365.80078125,1.1328125)"><g id="syriac-liga:id2:surface1">
<g style="fill:rgb(0%,0%,0%);fill-opacity:1;">
  <use xlink:href="#syriac-liga:id2:glyph0-1" x="16" y="103.859375" class="c3"/>
  <use xlink:href="#syriac-liga:id2:glyph0-2" x="133.046875" y="103.859375" class="c2"/>
</g>
</g>
</g>
</svg>