<!DOCTYPE svg PUBLIC "-//W3C//DTD SVG 1.1//EN" "http://www.w3.org/Graphics/SVG/1.1/DTD/svg11.dtd">
<!-- Created with svg_stack (http://github.com/astraw/svg_stack) --><svg xmlns="http://www.w3.org/2000/svg" xmlns:sodipodi="http://sodipodi.sourceforge.net/DTD/sodipodi-0.dtd" xmlns:xlink="http://www.w3.org/1999/xlink" version="1.1" width="100%" id="syriac-liga" viewBox="0 0 454.82421875 201.40625">
  <defs><g>
<symbol overflow="visible" id="syriac-liga:id0:glyph0-0">
<path style="stroke:none;" d=""/>
</symbol>
<symbol overflow="visible" id="syriac-liga:id0:glyph0-1">
<path style="stroke:none;" d="M 68.375 0 L 66.171875 0 C 59.546875 0 52.617188 -3.039062 45.390625 -9.125 C 38.398438 -14.96875 32.957031 -22.078125 29.0625 -30.453125 C 29.0625 -30.234375 29.078125 -29.785156 29.109375 -29.109375 C 29.148438 -28.429688 29.171875 -27.910156 29.171875 -27.546875 C 29.097656 -21.035156 27.789062 -14.828125 25.25 -8.921875 C 28.070312 -7.773438 30.898438 -6.609375 33.734375 -5.421875 C 37.203125 -3.847656 39.816406 -2.039062 41.578125 0 C 43.898438 2.71875 45.0625 6.117188 45.0625 10.203125 C 45.0625 15.285156 43.640625 19.335938 40.796875 22.359375 C 37.953125 25.390625 34.179688 26.90625 29.484375 26.90625 C 25.546875 26.90625 22.019531 25.382812 18.90625 22.34375 C 15.789062 19.300781 14.234375 15.847656 14.234375 11.984375 C 14.234375 7.359375 15.234375 2.703125 17.234375 -1.984375 C 13.734375 -3.304688 11.660156 -4.1875 11.015625 -4.625 C 9.046875 -5.90625 8.0625 -7.785156 8.0625 -10.265625 C 8.0625 -13.484375 8.957031 -17.023438 10.75 -20.890625 C 14.320312 -16.523438 17.863281 -13.210938 21.375 -10.953125 C 23.632812 -16.398438 24.765625 -22.039062 24.765625 -27.875 C 24.765625 -32.957031 24.367188 -36.109375 23.578125 -37.328125 C 21.066406 -41.191406 19.8125 -44.09375 19.8125 -46.03125 C 20.425781 -47.175781 22.578125 -49.644531 26.265625 -53.4375 C 30.273438 -43.050781 35.285156 -33.742188 41.296875 -25.515625 C 49.753906 -13.953125 58.046875 -8.171875 66.171875 -8.171875 L 68.375 -8.171875 Z M 40.015625 14.234375 C 40.015625 10.503906 38.757812 7.566406 36.25 5.421875 C 33.53125 3.054688 28.644531 1 21.59375 -0.75 C 20.800781 1.644531 20.40625 3.628906 20.40625 5.203125 C 20.40625 9.359375 22.320312 12.796875 26.15625 15.515625 C 29.269531 17.703125 32.296875 18.796875 35.234375 18.796875 C 38.421875 18.796875 40.015625 17.273438 40.015625 14.234375 Z M 40.015625 14.234375 "/>
</symbol>
<symbol overflow="visible" id="syriac-liga:id0:glyph0-2">
<path style="stroke:none;" d="M 59.34375 -16.59375 C 59.34375 -11.363281 57.859375 -7.226562 54.890625 -4.1875 C 52.128906 -1.394531 48.640625 0 44.421875 0 L -3.765625 0 L -3.765625 -8.171875 L 11.765625 -8.171875 C 9.296875 -10.460938 8.0625 -13.46875 8.0625 -17.1875 C 8.0625 -21.375 9.4375 -24.578125 12.1875 -26.796875 C 14.476562 -28.628906 17.253906 -29.546875 20.515625 -29.546875 C 23.703125 -29.546875 26.617188 -28.5625 29.265625 -26.59375 L 33.25 -23.046875 C 37.21875 -27.378906 41.800781 -29.546875 47 -29.546875 C 51.082031 -29.546875 54.234375 -28.164062 56.453125 -25.40625 C 58.378906 -23.039062 59.34375 -20.101562 59.34375 -16.59375 Z M 51.671875 -13.421875 C 51.671875 -15.785156 50.773438 -17.703125 48.984375 -19.171875 C 47.191406 -20.640625 44.953125 -21.375 42.265625 -21.375 C 40.835938 -21.375 39.363281 -20.710938 37.84375 -19.390625 C 36.320312 -18.066406 35.5625 -16.722656 35.5625 -15.359375 C 35.5625 -13.242188 36.472656 -11.453125 38.296875 -9.984375 C 39.867188 -8.773438 41.441406 -8.171875 43.015625 -8.171875 C 48.785156 -8.171875 51.671875 -9.921875 51.671875 -13.421875 Z M 32.125 -11.609375 C 32.125 -13.429688 31.015625 -15.414062 28.796875 -17.5625 C 26.210938 -20.101562 23.1875 -21.375 19.71875 -21.375 C 15.914062 -21.375 14.015625 -19.890625 14.015625 -16.921875 C 14.015625 -14.410156 15.269531 -12.296875 17.78125 -10.578125 C 20.101562 -8.972656 22.71875 -8.171875 25.625 -8.171875 C 26.800781 -8.171875 28.125 -8.488281 29.59375 -9.125 C 31.28125 -9.882812 32.125 -10.710938 32.125 -11.609375 Z M 32.125 -11.609375 "/>
</symbol>
</g>
<g>
<symbol overflow="visible" id="syriac-liga:id1:glyph0-0">
<path style="stroke:none;" d="M 5.375 -96.6875 L 69.828125 -96.6875 L 69.828125 0 L 5.375 0 Z M 8.0625 -2.6875 L 67.140625 -2.6875 L 67.140625 -94 L 8.0625 -94 Z M 8.0625 -2.6875 "/>
</symbol>
<symbol overflow="visible" id="syriac-liga:id1:glyph0-1">
<path style="stroke:none;" d="M 68.15625 -13.75 L 66.28125 -18.640625 L 88.09375 -27.390625 L 6.984375 -27.390625 L 6.984375 -34 L 88.09375 -34 L 66.28125 -42.75 L 68.15625 -47.640625 L 99.09375 -34.265625 L 99.09375 -27.125 Z M 68.15625 -13.75 "/>
</symbol>
</g>
<g>
<symbol overflow="visible" id="syriac-liga:id2:glyph0-0">
<path style="stroke:none;" d=""/>
</symbol>
<symbol overflow="visible" id="syriac-liga:id2:glyph0-1">
<path style="stroke:none;" d="M 40.015625 14.234375 C 40.015625 10.503906 38.757812 7.566406 36.25 5.421875 C 33.53125 3.054688 28.644531 1 21.59375 -0.75 C 20.800781 1.644531 20.40625 3.628906 20.40625 5.203125 C 20.40625 9.359375 22.320312 12.796875 26.15625 15.515625 C 29.269531 17.703125 32.296875 18.796875 35.234375 18.796875 C 38.421875 18.796875 40.015625 17.273438 40.015625 14.234375 Z M 34 -34.90625 C 29.164062 -34.90625 24.851562 -36.445312 21.0625 -39.53125 C 16.863281 -42.863281 14.765625 -47.050781 14.765625 -52.09375 C 14.765625 -56.289062 16.160156 -59.5 18.953125 -61.71875 C 21.210938 -63.539062 23.972656 -64.453125 27.234375 -64.453125 C 30.421875 -64.453125 33.359375 -63.503906 36.046875 -61.609375 C 37.328125 -60.460938 38.632812 -59.316406 39.96875 -58.171875 C 43.832031 -62.359375 48.414062 -64.453125 53.71875 -64.453125 C 57.789062 -64.453125 60.941406 -63.070312 63.171875 -60.3125 C 65.097656 -57.945312 66.0625 -55.015625 66.0625 -51.515625 C 66.0625 -46.285156 64.578125 -42.148438 61.609375 -39.109375 C 58.847656 -36.304688 55.359375 -34.90625 51.140625 -34.90625 L 41.03125 -34.90625 C 39.3125 -31.332031 36.734375 -26.859375 33.296875 -21.484375 C 28.140625 -13.492188 25.457031 -9.304688 25.25 -8.921875 C 28.21875 -7.660156 31.171875 -6.390625 34.109375 -5.109375 C 37.617188 -3.566406 40.175781 -1.847656 41.78125 0.046875 C 43.96875 2.628906 45.0625 6.015625 45.0625 10.203125 C 45.0625 15.285156 43.640625 19.335938 40.796875 22.359375 C 37.953125 25.390625 34.179688 26.90625 29.484375 26.90625 C 25.546875 26.90625 22.019531 25.382812 18.90625 22.34375 C 15.789062 19.300781 14.234375 15.847656 14.234375 11.984375 C 14.234375 7.359375 15.234375 2.703125 17.234375 -1.984375 C 13.734375 -3.304688 11.660156 -4.1875 11.015625 -4.625 C 9.046875 -5.90625 8.0625 -7.785156 8.0625 -10.265625 C 8.0625 -13.484375 8.957031 -17.023438 10.75 -20.890625 C 14.363281 -16.484375 17.941406 -13.132812 21.484375 -10.84375 C 23.628906 -14.144531 25.796875 -17.441406 27.984375 -20.734375 C 31.597656 -26.285156 34.300781 -31.007812 36.09375 -34.90625 Z M 58.390625 -48.34375 C 58.390625 -50.738281 57.5625 -52.660156 55.90625 -54.109375 C 54.257812 -55.566406 52.113281 -56.296875 49.46875 -56.296875 C 47.53125 -56.296875 45.863281 -55.765625 44.46875 -54.703125 C 43.070312 -53.648438 42.375 -52.265625 42.375 -50.546875 C 42.375 -48.359375 43.195312 -46.53125 44.84375 -45.0625 C 46.351562 -43.738281 47.984375 -43.078125 49.734375 -43.078125 C 55.503906 -43.078125 58.390625 -44.832031 58.390625 -48.34375 Z M 38.828125 -46.515625 C 38.828125 -48.335938 37.738281 -50.320312 35.5625 -52.46875 C 32.945312 -55.019531 29.921875 -56.296875 26.484375 -56.296875 C 22.679688 -56.296875 20.78125 -54.804688 20.78125 -51.828125 C 20.78125 -49.328125 22.019531 -47.21875 24.5 -45.5 C 26.820312 -43.882812 29.429688 -43.078125 32.328125 -43.078125 C 33.515625 -43.078125 34.84375 -43.398438 36.3125 -44.046875 C 37.988281 -44.796875 38.828125 -45.617188 38.828125 -46.515625 Z M 38.828125 -46.515625 "/>
</symbol>
</g>
</defs>
  <g id="syriac-liga:id0:id0" transform="matrix(1.25,0,0,1.25,0.0,24.072265625)"><g id="syriac-liga:id0:surface1">
<g style="fill:rgb(0%,0%,0%);fill-opacity:1;">
  <use xlink:href="#syriac-liga:id0:glyph0-1" x="16" y="85.796875" class="c1"/>
  <use xlink:href="#syriac-liga:id0:glyph0-2" x="84.375" y="85.796875" class="c0"/>
</g>
</g>
</g>
  <g id="syriac-liga:id1:id1" transform="matrix(1.25,0,0,1.25,199.6484375,0.0)"><g id="syriac-liga:id1:surface1">
<g style="fill:rgb(0%,0%,0%);fill-opacity:1;">
  <use xlink:href="#syriac-liga:id1:glyph0-1" x="0" y="120.84375" class="arrow"/>
</g>
</g>
</g>
  <g id="syriac-liga:id2:id2" transform="matrix(1.25,0,0,1.25,332.24609375,24.072265625)"><g id="syriac-liga:id2:surface1">
<g style="fill:rgb(0%,0%,0%);fill-opacity:1;">
  <use xlink:href="#syriac-liga:id2:glyph0-1" x="16" y="85.796875" class="c2"/>
</g>
</g>
</g>
</svg>
