<svg xmlns="http://www.w3.org/2000/svg" xmlns:xlink="http://www.w3.org/1999/xlink" width="539.796875pt" height="122.609375pt" viewBox="0 0 539.796875 122.609375" version="1.1" id="syriac-joining">
<defs>
<g>
<symbol overflow="visible" id="syriac-joining:glyph0-0">
<path style="stroke:none;" d=""/>
</symbol>
<symbol overflow="visible" id="syriac-joining:glyph0-1">
<path style="stroke:none;" d="M 68.375 0 L 66.171875 0 C 59.546875 0 52.617188 -3.039062 45.390625 -9.125 C 38.398438 -14.96875 32.957031 -22.078125 29.0625 -30.453125 C 29.0625 -30.234375 29.078125 -29.785156 29.109375 -29.109375 C 29.148438 -28.429688 29.171875 -27.910156 29.171875 -27.546875 C 29.097656 -21.035156 27.789062 -14.828125 25.25 -8.921875 C 28.070312 -7.773438 30.898438 -6.609375 33.734375 -5.421875 C 37.203125 -3.847656 39.816406 -2.039062 41.578125 0 C 43.898438 2.71875 45.0625 6.117188 45.0625 10.203125 C 45.0625 15.285156 43.640625 19.335938 40.796875 22.359375 C 37.953125 25.390625 34.179688 26.90625 29.484375 26.90625 C 25.546875 26.90625 22.019531 25.382812 18.90625 22.34375 C 15.789062 19.300781 14.234375 15.847656 14.234375 11.984375 C 14.234375 7.359375 15.234375 2.703125 17.234375 -1.984375 C 13.734375 -3.304688 11.660156 -4.1875 11.015625 -4.625 C 9.046875 -5.90625 8.0625 -7.785156 8.0625 -10.265625 C 8.0625 -13.484375 8.957031 -17.023438 10.75 -20.890625 C 14.320312 -16.523438 17.863281 -13.210938 21.375 -10.953125 C 23.632812 -16.398438 24.765625 -22.039062 24.765625 -27.875 C 24.765625 -32.957031 24.367188 -36.109375 23.578125 -37.328125 C 21.066406 -41.191406 19.8125 -44.09375 19.8125 -46.03125 C 20.425781 -47.175781 22.578125 -49.644531 26.265625 -53.4375 C 30.273438 -43.050781 35.285156 -33.742188 41.296875 -25.515625 C 49.753906 -13.953125 58.046875 -8.171875 66.171875 -8.171875 L 68.375 -8.171875 Z M 40.015625 14.234375 C 40.015625 10.503906 38.757812 7.566406 36.25 5.421875 C 33.53125 3.054688 28.644531 1 21.59375 -0.75 C 20.800781 1.644531 20.40625 3.628906 20.40625 5.203125 C 20.40625 9.359375 22.320312 12.796875 26.15625 15.515625 C 29.269531 17.703125 32.296875 18.796875 35.234375 18.796875 C 38.421875 18.796875 40.015625 17.273438 40.015625 14.234375 Z M 40.015625 14.234375 "/>
</symbol>
<symbol overflow="visible" id="syriac-joining:glyph0-2">
<path style="stroke:none;" d="M 42.0625 -6.0625 C 42.0625 -1.664062 37.742188 0.53125 29.109375 0.53125 C 20.878906 0.53125 14.648438 -1.039062 10.421875 -4.1875 C 8.597656 -2.320312 6.644531 -1.101562 4.5625 -0.53125 C 3.269531 -0.175781 1.265625 0 -1.453125 0 L -3.765625 0 L -3.765625 -8.171875 L -1.078125 -8.171875 C 0.785156 -8.171875 2.453125 -9.03125 3.921875 -10.75 C 4.773438 -11.707031 5.757812 -13.296875 6.875 -15.515625 C 7.738281 -17.203125 8.347656 -18.03125 8.703125 -18 C 9.347656 -17.675781 11.226562 -15.832031 14.34375 -12.46875 C 17.03125 -9.601562 19.320312 -8.171875 21.21875 -8.171875 C 24.226562 -8.171875 27.359375 -11.460938 30.609375 -18.046875 C 32.898438 -16.546875 35.175781 -14.753906 37.4375 -12.671875 C 40.519531 -9.804688 42.0625 -7.601562 42.0625 -6.0625 Z M 42.0625 -6.0625 "/>
</symbol>
<symbol overflow="visible" id="syriac-joining:glyph0-3">
<path style="stroke:none;" d=""/>
</symbol>
<symbol overflow="visible" id="syriac-joining:glyph0-4">
<path style="stroke:none;" d="M 66.65625 0 L 57.25 0 C 55.5 0.351562 53.566406 0.53125 51.453125 0.53125 C 43.179688 0.53125 36.929688 -1.039062 32.703125 -4.1875 C 29.660156 -1.039062 25.707031 0.53125 20.84375 0.53125 C 16.9375 0.53125 13.859375 -0.414062 11.609375 -2.3125 C 9.242188 -4.28125 8.0625 -7.109375 8.0625 -10.796875 C 8.0625 -13.117188 8.796875 -15.769531 10.265625 -18.75 C 11.617188 -11.695312 15.269531 -8.171875 21.21875 -8.171875 C 23.082031 -8.171875 24.765625 -9.03125 26.265625 -10.75 C 27.085938 -11.707031 28.070312 -13.296875 29.21875 -15.515625 C 30.082031 -17.203125 30.691406 -18.03125 31.046875 -18 C 31.648438 -17.675781 33.53125 -15.832031 36.6875 -12.46875 C 39.332031 -9.601562 41.601562 -8.171875 43.5 -8.171875 C 46.507812 -8.171875 49.660156 -11.460938 52.953125 -18.046875 C 58.296875 -14.578125 61.859375 -11.285156 63.640625 -8.171875 L 66.65625 -8.171875 Z M 66.65625 0 "/>
</symbol>
<symbol overflow="visible" id="syriac-joining:glyph0-5">
<path style="stroke:none;" d="M 59.140625 0 L 56.9375 0 C 50.3125 0 43.378906 -3.039062 36.140625 -9.125 C 29.160156 -14.96875 23.71875 -22.078125 19.8125 -30.453125 C 19.8125 -30.234375 19.832031 -29.785156 19.875 -29.109375 C 19.90625 -28.429688 19.921875 -27.910156 19.921875 -27.546875 C 19.847656 -20.492188 18.378906 -13.960938 15.515625 -7.953125 C 18.953125 -7.804688 22.625 -6.640625 26.53125 -4.453125 C 32.726562 -1.054688 35.828125 3.828125 35.828125 10.203125 C 35.828125 15.285156 34.398438 19.335938 31.546875 22.359375 C 28.703125 25.390625 24.9375 26.90625 20.25 26.90625 C 16.3125 26.90625 12.785156 25.382812 9.671875 22.34375 C 6.554688 19.300781 5 15.847656 5 11.984375 C 5 7.929688 5.75 3.9375 7.25 0 L -3.765625 0 L -3.765625 -8.171875 L 10.90625 -8.171875 C 13.976562 -14.398438 15.515625 -20.96875 15.515625 -27.875 C 15.515625 -32.957031 15.125 -36.109375 14.34375 -37.328125 C 11.875 -41.191406 10.640625 -44.09375 10.640625 -46.03125 C 11.210938 -47.175781 13.359375 -49.644531 17.078125 -53.4375 C 21.085938 -43.050781 26.082031 -33.742188 32.0625 -25.515625 C 40.507812 -13.953125 48.800781 -8.171875 56.9375 -8.171875 L 59.140625 -8.171875 Z M 30.828125 14.234375 C 30.828125 10.296875 29.269531 7.09375 26.15625 4.625 C 22.894531 2.007812 18.332031 0.519531 12.46875 0.15625 C 11.601562 1.019531 11.171875 2.703125 11.171875 5.203125 C 11.171875 9.359375 13.085938 12.796875 16.921875 15.515625 C 20.035156 17.703125 23.0625 18.796875 26 18.796875 C 29.21875 18.796875 30.828125 17.273438 30.828125 14.234375 Z M 30.828125 14.234375 "/>
</symbol>
<symbol overflow="visible" id="syriac-joining:glyph0-6">
<path style="stroke:none;" d="M 35.828125 10.203125 C 35.828125 15.285156 34.398438 19.335938 31.546875 22.359375 C 28.703125 25.390625 24.9375 26.90625 20.25 26.90625 C 16.3125 26.90625 12.785156 25.382812 9.671875 22.34375 C 6.554688 19.300781 5 15.847656 5 11.984375 C 5 7.929688 5.75 3.9375 7.25 0 L -3.765625 0 L -3.765625 -8.171875 L 10.46875 -8.171875 L 21.4375 -25.25 C 27.050781 -34.769531 29.859375 -41.875 29.859375 -46.5625 C 29.859375 -49.644531 29.359375 -51.992188 28.359375 -53.609375 C 27.960938 -54.179688 26.992188 -55.078125 25.453125 -56.296875 C 24.421875 -57.117188 23.90625 -58.132812 23.90625 -59.34375 C 23.90625 -60.207031 24.601562 -61.859375 26 -64.296875 C 27.46875 -66.867188 28.613281 -68.15625 29.4375 -68.15625 C 31.15625 -68.15625 32.675781 -65.847656 34 -61.234375 C 35.144531 -57.253906 35.71875 -53.582031 35.71875 -50.21875 C 35.71875 -44.664062 33.28125 -37.523438 28.40625 -28.796875 L 15.515625 -7.953125 C 18.953125 -7.804688 22.625 -6.640625 26.53125 -4.453125 C 32.726562 -1.054688 35.828125 3.828125 35.828125 10.203125 Z M 30.828125 14.234375 C 30.828125 10.296875 29.269531 7.09375 26.15625 4.625 C 22.894531 2.007812 18.332031 0.519531 12.46875 0.15625 C 11.601562 0.84375 11.171875 2.523438 11.171875 5.203125 C 11.171875 9.359375 13.085938 12.796875 16.921875 15.515625 C 20.035156 17.703125 23.0625 18.796875 26 18.796875 C 29.21875 18.796875 30.828125 17.273438 30.828125 14.234375 Z M 30.828125 14.234375 "/>
</symbol>
<symbol overflow="visible" id="syriac-joining:glyph0-7">
<path style="stroke:none;" d="M 45.0625 10.203125 C 45.0625 15.285156 43.640625 19.335938 40.796875 22.359375 C 37.953125 25.390625 34.179688 26.90625 29.484375 26.90625 C 25.546875 26.90625 22.019531 25.382812 18.90625 22.34375 C 15.789062 19.300781 14.234375 15.847656 14.234375 11.984375 C 14.234375 7.359375 15.234375 2.703125 17.234375 -1.984375 C 13.734375 -3.304688 11.660156 -4.1875 11.015625 -4.625 C 9.046875 -5.90625 8.0625 -7.785156 8.0625 -10.265625 C 8.0625 -13.484375 8.957031 -17.023438 10.75 -20.890625 C 14.363281 -16.484375 17.941406 -13.132812 21.484375 -10.84375 C 24.847656 -16.113281 28.195312 -21.363281 31.53125 -26.59375 C 36.582031 -35.21875 39.109375 -41.875 39.109375 -46.5625 C 39.109375 -49.644531 38.585938 -51.992188 37.546875 -53.609375 C 37.179688 -54.179688 36.234375 -55.078125 34.703125 -56.296875 C 33.660156 -57.117188 33.140625 -58.132812 33.140625 -59.34375 C 33.140625 -60.207031 33.835938 -61.859375 35.234375 -64.296875 C 36.703125 -66.867188 37.832031 -68.15625 38.625 -68.15625 C 40.34375 -68.15625 41.878906 -65.847656 43.234375 -61.234375 C 44.378906 -57.253906 44.953125 -53.582031 44.953125 -50.21875 C 44.953125 -44.664062 42.585938 -37.679688 37.859375 -29.265625 C 33.671875 -22.460938 29.46875 -15.679688 25.25 -8.921875 C 28.21875 -7.660156 31.171875 -6.390625 34.109375 -5.109375 C 37.617188 -3.566406 40.175781 -1.847656 41.78125 0.046875 C 43.96875 2.628906 45.0625 6.015625 45.0625 10.203125 Z M 40.015625 14.234375 C 40.015625 10.503906 38.757812 7.566406 36.25 5.421875 C 33.53125 3.054688 28.644531 1 21.59375 -0.75 C 20.800781 1.644531 20.40625 3.628906 20.40625 5.203125 C 20.40625 9.359375 22.320312 12.796875 26.15625 15.515625 C 29.269531 17.703125 32.296875 18.796875 35.234375 18.796875 C 38.421875 18.796875 40.015625 17.273438 40.015625 14.234375 Z M 40.015625 14.234375 "/>
</symbol>
</g>
</defs>
<g id="syriac-joining:surface1">
<g style="fill:rgb(0%,0%,0%);fill-opacity:1;">
  <use xlink:href="#syriac-joining:glyph0-1" x="16" y="85.796875" class="c0"/>
  <use xlink:href="#syriac-joining:glyph0-2" x="84.375" y="85.796875" class="c1"/>
  <use xlink:href="#syriac-joining:glyph0-3" x="126.4375" y="85.796875" class="dc"/>
  <use xlink:href="#syriac-joining:glyph0-4" x="153.828125" y="85.796875" class="c1"/>
  <use xlink:href="#syriac-joining:glyph0-5" x="220.484375" y="85.796875" class="c0"/>
  <use xlink:href="#syriac-joining:glyph0-2" x="279.625" y="85.796875" class="c1"/>
  <use xlink:href="#syriac-joining:glyph0-3" x="321.6875" y="85.796875" class="dc"/>
  <use xlink:href="#syriac-joining:glyph0-4" x="349.078125" y="85.796875" class="c1"/>
  <use xlink:href="#syriac-joining:glyph0-6" x="415.734375" y="85.796875" class="c0"/>
  <use xlink:href="#syriac-joining:glyph0-3" x="451.453125" y="85.796875" class="dc"/>
  <use xlink:href="#syriac-joining:glyph0-7" x="478.84375" y="85.796875" class="c0"/>
</g>
</g>
</svg>
