<!DOCTYPE svg PUBLIC "-//W3C//DTD SVG 1.1//EN" "http://www.w3.org/Graphics/SVG/1.1/DTD/svg11.dtd">
<!-- Created with svg_stack (http://github.com/astraw/svg_stack) --><svg xmlns="http://www.w3.org/2000/svg" xmlns:sodipodi="http://sodipodi.sourceforge.net/DTD/sodipodi-0.dtd" xmlns:xlink="http://www.w3.org/1999/xlink" version="1.1" width="100%" id="syriac-fin3" viewBox="0 0 389.84375 201.40625">
  <defs><g>
<symbol overflow="visible" id="syriac-fin3:id0:glyph0-0">
<path style="stroke:none;" d="M 55.546875 -78.546875 L 55.546875 0 L 10.34375 0 L 10.34375 -78.546875 Z M 49.9375 -72.9375 L 15.953125 -72.9375 L 15.953125 -5.609375 L 49.9375 -5.609375 Z M 49.9375 -72.9375 "/>
</symbol>
<symbol overflow="visible" id="syriac-fin3:id0:glyph0-1">
<path style="stroke:none;" d="M 15.1875 -74.796875 C 19.070312 -71.640625 21.707031 -68.46875 23.09375 -65.28125 C 24.488281 -62.09375 25.1875 -58.59375 25.1875 -54.78125 C 25.1875 -52.0625 24.851562 -49.050781 24.1875 -45.75 C 23.53125 -42.457031 22.140625 -38.0625 20.015625 -32.5625 C 18.109375 -27.425781 16.914062 -23.375 16.4375 -20.40625 C 15.96875 -17.4375 15.734375 -14.816406 15.734375 -12.546875 C 15.734375 -9.828125 15.929688 -7.070312 16.328125 -4.28125 C 16.734375 -1.5 17.671875 1.867188 19.140625 5.828125 L 13.53125 9.90625 L 12.09375 9.90625 C 10.257812 6.53125 9.03125 2.957031 8.40625 -0.8125 C 7.789062 -4.59375 7.484375 -8.097656 7.484375 -11.328125 C 7.484375 -18.878906 9.351562 -27.054688 13.09375 -35.859375 C 14.5625 -39.304688 15.640625 -42.492188 16.328125 -45.421875 C 17.023438 -48.359375 17.375 -51.070312 17.375 -53.5625 C 17.375 -56.71875 16.710938 -59.320312 15.390625 -61.375 C 14.078125 -63.425781 12.0625 -65.8125 9.34375 -68.53125 L 14.625 -74.796875 Z M 15.1875 -74.796875 "/>
</symbol>
<symbol overflow="visible" id="syriac-fin3:id0:glyph0-2">
<path style="stroke:none;" d="M 21.890625 -30.796875 C 24.523438 -30.796875 26.796875 -30.0625 28.703125 -28.59375 C 30.609375 -27.132812 32.078125 -25.191406 33.109375 -22.765625 C 34.140625 -20.347656 34.65625 -17.707031 34.65625 -14.84375 C 34.65625 -11.476562 33.773438 -8.085938 32.015625 -4.671875 C 30.253906 -1.265625 28.050781 2.03125 25.40625 5.21875 C 22.769531 8.414062 20.054688 11.441406 17.265625 14.296875 L 12.09375 9.796875 C 13.78125 8.035156 15.300781 6.203125 16.65625 4.296875 C 18.019531 2.390625 19.25 0.59375 20.34375 -1.09375 C 19.832031 -1.46875 19.335938 -1.875 18.859375 -2.3125 C 18.390625 -2.75 17.894531 -3.148438 17.375 -3.515625 C 14.664062 -5.710938 12.648438 -7.800781 11.328125 -9.78125 C 10.003906 -11.769531 9.34375 -14.117188 9.34375 -16.828125 C 9.34375 -18.734375 9.816406 -20.769531 10.765625 -22.9375 C 11.722656 -25.101562 13.132812 -26.953125 15 -28.484375 C 16.875 -30.023438 19.171875 -30.796875 21.890625 -30.796875 Z M -5.5 11.109375 C -5.5 6.929688 -3.703125 4.84375 -0.109375 4.84375 C 3.703125 4.84375 5.609375 6.929688 5.609375 11.109375 C 5.609375 15.210938 3.703125 17.265625 -0.109375 17.265625 C -1.722656 17.265625 -3.023438 16.785156 -4.015625 15.828125 C -5.003906 14.878906 -5.5 13.304688 -5.5 11.109375 Z M 3.1875 29.265625 C 3.1875 25.078125 4.984375 22.984375 8.578125 22.984375 C 12.390625 22.984375 14.296875 25.078125 14.296875 29.265625 C 14.296875 33.367188 12.390625 35.421875 8.578125 35.421875 C 6.960938 35.421875 5.660156 34.941406 4.671875 33.984375 C 3.679688 33.035156 3.1875 31.460938 3.1875 29.265625 Z M 3.1875 29.265625 "/>
</symbol>
</g>
<g>
<symbol overflow="visible" id="syriac-fin3:id1:glyph0-0">
<path style="stroke:none;" d="M 5.375 -96.6875 L 69.828125 -96.6875 L 69.828125 0 L 5.375 0 Z M 8.0625 -2.6875 L 67.140625 -2.6875 L 67.140625 -94 L 8.0625 -94 Z M 8.0625 -2.6875 "/>
</symbol>
<symbol overflow="visible" id="syriac-fin3:id1:glyph0-1">
<path style="stroke:none;" d="M 68.15625 -13.75 L 66.28125 -18.640625 L 88.09375 -27.390625 L 6.984375 -27.390625 L 6.984375 -34 L 88.09375 -34 L 66.28125 -42.75 L 68.15625 -47.640625 L 99.09375 -34.265625 L 99.09375 -27.125 Z M 68.15625 -13.75 "/>
</symbol>
</g>
<g>
<symbol overflow="visible" id="syriac-fin3:id2:glyph0-0">
<path style="stroke:none;" d="M 55.546875 -78.546875 L 55.546875 0 L 10.34375 0 L 10.34375 -78.546875 Z M 49.9375 -72.9375 L 15.953125 -72.9375 L 15.953125 -5.609375 L 49.9375 -5.609375 Z M 49.9375 -72.9375 "/>
</symbol>
<symbol overflow="visible" id="syriac-fin3:id2:glyph0-1">
<path style="stroke:none;" d="M 18.265625 -15.625 C 18.265625 -9.53125 17.859375 -4.285156 17.046875 0.109375 C 16.242188 4.503906 14.890625 7.914062 12.984375 10.34375 L 6.375 7.046875 C 7.476562 5.140625 8.394531 2.296875 9.125 -1.484375 C 9.863281 -5.265625 10.234375 -9.941406 10.234375 -15.515625 L 10.234375 -74.140625 L 18.265625 -74.140625 Z M 18.265625 -15.625 "/>
</symbol>
<symbol overflow="visible" id="syriac-fin3:id2:glyph0-2">
<path style="stroke:none;" d="M 21.890625 -30.796875 C 24.523438 -30.796875 26.796875 -30.0625 28.703125 -28.59375 C 30.609375 -27.132812 32.078125 -25.191406 33.109375 -22.765625 C 34.140625 -20.347656 34.65625 -17.707031 34.65625 -14.84375 C 34.65625 -11.476562 33.773438 -8.085938 32.015625 -4.671875 C 30.253906 -1.265625 28.050781 2.03125 25.40625 5.21875 C 22.769531 8.414062 20.054688 11.441406 17.265625 14.296875 L 12.09375 9.796875 C 13.78125 8.035156 15.300781 6.203125 16.65625 4.296875 C 18.019531 2.390625 19.25 0.59375 20.34375 -1.09375 C 19.832031 -1.46875 19.335938 -1.875 18.859375 -2.3125 C 18.390625 -2.75 17.894531 -3.148438 17.375 -3.515625 C 14.664062 -5.710938 12.648438 -7.800781 11.328125 -9.78125 C 10.003906 -11.769531 9.34375 -14.117188 9.34375 -16.828125 C 9.34375 -18.734375 9.816406 -20.769531 10.765625 -22.9375 C 11.722656 -25.101562 13.132812 -26.953125 15 -28.484375 C 16.875 -30.023438 19.171875 -30.796875 21.890625 -30.796875 Z M -5.5 11.109375 C -5.5 6.929688 -3.703125 4.84375 -0.109375 4.84375 C 3.703125 4.84375 5.609375 6.929688 5.609375 11.109375 C 5.609375 15.210938 3.703125 17.265625 -0.109375 17.265625 C -1.722656 17.265625 -3.023438 16.785156 -4.015625 15.828125 C -5.003906 14.878906 -5.5 13.304688 -5.5 11.109375 Z M 3.1875 29.265625 C 3.1875 25.078125 4.984375 22.984375 8.578125 22.984375 C 12.390625 22.984375 14.296875 25.078125 14.296875 29.265625 C 14.296875 33.367188 12.390625 35.421875 8.578125 35.421875 C 6.960938 35.421875 5.660156 34.941406 4.671875 33.984375 C 3.679688 33.035156 3.1875 31.460938 3.1875 29.265625 Z M 3.1875 29.265625 "/>
</symbol>
</g>
</defs>
  <g id="syriac-fin3:id0:id0" transform="matrix(1.25,0,0,1.25,0.0,1.1328125)"><g id="syriac-fin3:id0:surface1">
<g style="fill:rgb(0%,0%,0%);fill-opacity:1;">
  <use xlink:href="#syriac-fin3:id0:glyph0-1" x="16" y="103.859375" class="c1"/>
  <use xlink:href="#syriac-fin3:id0:glyph0-2" x="48.125" y="103.859375" class="c0"/>
</g>
</g>
</g>
  <g id="syriac-fin3:id1:id1" transform="matrix(1.25,0,0,1.25,131.4453125,0.0)"><g id="syriac-fin3:id1:surface1">
<g style="fill:rgb(0%,0%,0%);fill-opacity:1;">
  <use xlink:href="#syriac-fin3:id1:glyph0-1" x="0" y="120.84375" class="arrow"/>
</g>
</g>
</g>
  <g id="syriac-fin3:id2:id2" transform="matrix(1.25,0,0,1.25,264.04296875,1.1328125)"><g id="syriac-fin3:id2:surface1">
<g style="fill:rgb(0%,0%,0%);fill-opacity:1;">
  <use xlink:href="#syriac-fin3:id2:glyph0-1" x="16" y="103.859375" class="c1"/>
  <use xlink:href="#syriac-fin3:id2:glyph0-2" x="43.609375" y="103.859375" class="c0"/>
</g>
</g>
</g>
</svg>