<!DOCTYPE svg PUBLIC "-//W3C//DTD SVG 1.1//EN" "http://www.w3.org/Graphics/SVG/1.1/DTD/svg11.dtd">
<!-- Created with svg_stack (http://github.com/astraw/svg_stack) --><svg xmlns="http://www.w3.org/2000/svg" xmlns:sodipodi="http://sodipodi.sourceforge.net/DTD/sodipodi-0.dtd" xmlns:xlink="http://www.w3.org/1999/xlink" version="1.1" width="100%" id="syriac-kern" viewBox="0 0 498.984375 201.40625">
  <defs><g>
<symbol overflow="visible" id="syriac-kern:id0:glyph0-0">
<path style="stroke:none;" d=""/>
</symbol>
<symbol overflow="visible" id="syriac-kern:id0:glyph0-1">
<path style="stroke:none;" d="M 102.53125 23.46875 C 102.53125 28.019531 98.59375 30.296875 90.71875 30.296875 C 83.375 30.296875 72.789062 26.910156 58.96875 20.140625 C 53.0625 17.242188 43.628906 12.015625 30.671875 4.453125 C 15.597656 -4.347656 8.0625 -11.488281 8.0625 -16.96875 C 8.0625 -20.550781 9.6875 -23.289062 12.9375 -25.1875 C 13.15625 -22 14.050781 -19.109375 15.625 -16.515625 C 17.207031 -13.921875 24.78125 -8.113281 38.34375 0.90625 C 40.132812 2.09375 42.5 3.523438 45.4375 5.203125 L 52.421875 -2.53125 C 50.628906 -3.5625 48.945312 -4.546875 47.375 -5.484375 C 44.007812 -7.453125 40.644531 -9.4375 37.28125 -11.4375 C 32.125 -14.59375 28.988281 -16.8125 27.875 -18.09375 C 28.488281 -19.675781 30.742188 -20.859375 34.640625 -21.640625 L 75.03125 2.203125 C 80.332031 5.316406 85.632812 8.453125 90.9375 11.609375 C 98.664062 16.691406 102.53125 20.644531 102.53125 23.46875 Z M 93.890625 22.671875 C 93.890625 21.804688 93.132812 20.890625 91.625 19.921875 C 88.007812 17.597656 76.359375 10.921875 56.671875 -0.109375 L 49.6875 7.625 C 70.195312 18.90625 84.035156 24.546875 91.203125 24.546875 C 92.992188 24.546875 93.890625 23.921875 93.890625 22.671875 Z M 93.890625 22.671875 "/>
</symbol>
<symbol overflow="visible" id="syriac-kern:id0:glyph0-2">
<path style="stroke:none;" d="M 25.9375 -8.859375 C 25.9375 -4.203125 24.8125 0.164062 22.5625 4.25 C 19.945312 8.96875 16.398438 12.0625 11.921875 13.53125 C 14.429688 10.78125 15.828125 9.1875 16.109375 8.75 C 17.578125 6.707031 18.3125 4.613281 18.3125 2.46875 C 18.3125 0.644531 17.414062 -0.910156 15.625 -2.203125 L 10.6875 -5.796875 C 8.9375 -7.585938 8.0625 -10.0625 8.0625 -13.21875 C 8.0625 -16.082031 8.757812 -18.476562 10.15625 -20.40625 C 11.800781 -22.695312 14.144531 -23.84375 17.1875 -23.84375 C 20.375 -23.84375 22.738281 -22.019531 24.28125 -18.375 C 25.382812 -15.6875 25.9375 -12.515625 25.9375 -8.859375 Z M 23.578125 22.125 C 23.578125 22.914062 22.976562 23.910156 21.78125 25.109375 C 20.582031 26.304688 19.660156 26.90625 19.015625 26.90625 C 18.398438 26.90625 17.492188 26.304688 16.296875 25.109375 C 15.097656 23.910156 14.5 22.914062 14.5 22.125 C 14.5 21.34375 15.097656 20.347656 16.296875 19.140625 C 17.492188 17.941406 18.398438 17.34375 19.015625 17.34375 C 19.660156 17.34375 20.582031 17.941406 21.78125 19.140625 C 22.976562 20.347656 23.578125 21.34375 23.578125 22.125 Z M 23.578125 22.125 "/>
</symbol>
</g>
<g>
<symbol overflow="visible" id="syriac-kern:id1:glyph0-0">
<path style="stroke:none;" d="M 5.375 -96.6875 L 69.828125 -96.6875 L 69.828125 0 L 5.375 0 Z M 8.0625 -2.6875 L 67.140625 -2.6875 L 67.140625 -94 L 8.0625 -94 Z M 8.0625 -2.6875 "/>
</symbol>
<symbol overflow="visible" id="syriac-kern:id1:glyph0-1">
<path style="stroke:none;" d="M 68.15625 -13.75 L 66.28125 -18.640625 L 88.09375 -27.390625 L 6.984375 -27.390625 L 6.984375 -34 L 88.09375 -34 L 66.28125 -42.75 L 68.15625 -47.640625 L 99.09375 -34.265625 L 99.09375 -27.125 Z M 68.15625 -13.75 "/>
</symbol>
</g>
<g>
<symbol overflow="visible" id="syriac-kern:id2:glyph0-0">
<path style="stroke:none;" d=""/>
</symbol>
<symbol overflow="visible" id="syriac-kern:id2:glyph0-1">
<path style="stroke:none;" d="M 102.53125 23.46875 C 102.53125 28.019531 98.59375 30.296875 90.71875 30.296875 C 83.375 30.296875 72.789062 26.910156 58.96875 20.140625 C 53.0625 17.242188 43.628906 12.015625 30.671875 4.453125 C 15.597656 -4.347656 8.0625 -11.488281 8.0625 -16.96875 C 8.0625 -20.550781 9.6875 -23.289062 12.9375 -25.1875 C 13.15625 -22 14.050781 -19.109375 15.625 -16.515625 C 17.207031 -13.921875 24.78125 -8.113281 38.34375 0.90625 C 40.132812 2.09375 42.5 3.523438 45.4375 5.203125 L 52.421875 -2.53125 C 50.628906 -3.5625 48.945312 -4.546875 47.375 -5.484375 C 44.007812 -7.453125 40.644531 -9.4375 37.28125 -11.4375 C 32.125 -14.59375 28.988281 -16.8125 27.875 -18.09375 C 28.488281 -19.675781 30.742188 -20.859375 34.640625 -21.640625 L 75.03125 2.203125 C 80.332031 5.316406 85.632812 8.453125 90.9375 11.609375 C 98.664062 16.691406 102.53125 20.644531 102.53125 23.46875 Z M 93.890625 22.671875 C 93.890625 21.804688 93.132812 20.890625 91.625 19.921875 C 88.007812 17.597656 76.359375 10.921875 56.671875 -0.109375 L 49.6875 7.625 C 70.195312 18.90625 84.035156 24.546875 91.203125 24.546875 C 92.992188 24.546875 93.890625 23.921875 93.890625 22.671875 Z M 93.890625 22.671875 "/>
</symbol>
<symbol overflow="visible" id="syriac-kern:id2:glyph0-2">
<path style="stroke:none;" d="M 25.9375 -8.859375 C 25.9375 -4.203125 24.8125 0.164062 22.5625 4.25 C 19.945312 8.96875 16.398438 12.0625 11.921875 13.53125 C 14.429688 10.78125 15.828125 9.1875 16.109375 8.75 C 17.578125 6.707031 18.3125 4.613281 18.3125 2.46875 C 18.3125 0.644531 17.414062 -0.910156 15.625 -2.203125 L 10.6875 -5.796875 C 8.9375 -7.585938 8.0625 -10.0625 8.0625 -13.21875 C 8.0625 -16.082031 8.757812 -18.476562 10.15625 -20.40625 C 11.800781 -22.695312 14.144531 -23.84375 17.1875 -23.84375 C 20.375 -23.84375 22.738281 -22.019531 24.28125 -18.375 C 25.382812 -15.6875 25.9375 -12.515625 25.9375 -8.859375 Z M 23.578125 22.125 C 23.578125 22.914062 22.976562 23.910156 21.78125 25.109375 C 20.582031 26.304688 19.660156 26.90625 19.015625 26.90625 C 18.398438 26.90625 17.492188 26.304688 16.296875 25.109375 C 15.097656 23.910156 14.5 22.914062 14.5 22.125 C 14.5 21.34375 15.097656 20.347656 16.296875 19.140625 C 17.492188 17.941406 18.398438 17.34375 19.015625 17.34375 C 19.660156 17.34375 20.582031 17.941406 21.78125 19.140625 C 22.976562 20.347656 23.578125 21.34375 23.578125 22.125 Z M 23.578125 22.125 "/>
</symbol>
</g>
</defs>
  <g id="syriac-kern:id0:id0" transform="matrix(1.25,0,0,1.25,0.0,5.322265625)"><g id="syriac-kern:id0:surface1">
<g style="fill:rgb(0%,0%,0%);fill-opacity:1;">
  <use xlink:href="#syriac-kern:id0:glyph0-1" x="16" y="85.796875" class="c1"/>
  <use xlink:href="#syriac-kern:id0:glyph0-2" x="101.9375" y="85.796875" class="c0"/>
</g>
</g>
</g>
  <g id="syriac-kern:id1:id1" transform="matrix(1.25,0,0,1.25,179.84375,0.0)"><g id="syriac-kern:id1:surface1">
<g style="fill:rgb(0%,0%,0%);fill-opacity:1;">
  <use xlink:href="#syriac-kern:id1:glyph0-1" x="0" y="120.84375" class="arrow"/>
</g>
</g>
</g>
  <g id="syriac-kern:id2:id2" transform="matrix(1.25,0,0,1.25,312.44140625,5.322265625)"><g id="syriac-kern:id2:surface1">
<g style="fill:rgb(0%,0%,0%);fill-opacity:1;">
  <use xlink:href="#syriac-kern:id2:glyph0-1" x="16" y="85.796875" class="c1"/>
  <use xlink:href="#syriac-kern:id2:glyph0-2" x="107.296875" y="85.796875" class="c0"/>
</g>
</g>
</g>
</svg>
