<!DOCTYPE svg PUBLIC "-//W3C//DTD SVG 1.1//EN" "http://www.w3.org/Graphics/SVG/1.1/DTD/svg11.dtd">
<!-- Created with svg_stack (http://github.com/astraw/svg_stack) --><svg xmlns="http://www.w3.org/2000/svg" xmlns:sodipodi="http://sodipodi.sourceforge.net/DTD/sodipodi-0.dtd" xmlns:xlink="http://www.w3.org/1999/xlink" version="1.1" width="100%" id="syriac-rlig" viewBox="0 0 593.14453125 201.40625">
  <defs><g>
<symbol overflow="visible" id="syriac-rlig:id0:glyph0-0">
<path style="stroke:none;" d=""/>
</symbol>
<symbol overflow="visible" id="syriac-rlig:id0:glyph0-1">
<path style="stroke:none;" d="M 53.875 0 L 46.734375 0 C 46.265625 1.070312 45.707031 2.128906 45.0625 3.171875 L 45.0625 -0.15625 C 45.101562 -2.695312 45.125 -4.597656 45.125 -5.859375 C 45.125 -10.398438 44.492188 -13.191406 43.234375 -14.234375 C 42.304688 -13.835938 40.960938 -12.675781 39.203125 -10.75 C 35.515625 -6.695312 33.082031 -4.222656 31.90625 -3.328125 C 28.96875 -1.109375 25.65625 0 21.96875 0 C 17.988281 0 14.640625 -1.394531 11.921875 -4.1875 C 9.347656 -6.800781 8.0625 -9.789062 8.0625 -13.15625 C 8.0625 -17.957031 9.394531 -22.101562 12.0625 -25.59375 C 14.726562 -29.082031 18.03125 -30.828125 21.96875 -30.828125 C 25.15625 -30.828125 28.554688 -29.546875 32.171875 -26.984375 C 35.785156 -24.429688 38.273438 -21.578125 39.640625 -18.421875 C 40.242188 -18.890625 41.5 -20.25 43.40625 -22.5 C 45.007812 -24.46875 46.347656 -25.671875 47.421875 -26.109375 C 48.492188 -24.066406 49.03125 -20.359375 49.03125 -14.984375 C 49.03125 -12.265625 48.925781 -9.992188 48.71875 -8.171875 L 53.875 -8.171875 Z M 35.015625 -12.734375 C 34.367188 -15.597656 32.597656 -18.015625 29.703125 -19.984375 C 27.015625 -21.804688 24.3125 -22.71875 21.59375 -22.71875 C 19.875 -22.71875 17.976562 -22.414062 15.90625 -21.8125 C 13.394531 -21.09375 11.78125 -20.175781 11.0625 -19.0625 C 11.601562 -15.738281 13.628906 -13.09375 17.140625 -11.125 C 19.859375 -9.613281 22.4375 -8.859375 24.875 -8.859375 C 26.082031 -8.859375 27.800781 -9.203125 30.03125 -9.890625 C 32.78125 -10.710938 34.441406 -11.660156 35.015625 -12.734375 Z M 35.015625 -12.734375 "/>
</symbol>
<symbol overflow="visible" id="syriac-rlig:id0:glyph0-2">
<path style="stroke:none;" d="M 68.109375 0 L 53.921875 0 C 50.703125 0 47.226562 -1.804688 43.5 -5.421875 C 40.707031 -1.804688 37.019531 0 32.4375 0 L -3.765625 0 L -3.765625 -8.171875 L 40.34375 -8.171875 L -7.84375 -48.453125 C -7.226562 -49.773438 -6.171875 -51.707031 -4.671875 -54.25 C 8.972656 -43.144531 25.695312 -29.554688 45.5 -13.484375 C 49.613281 -10.117188 52.925781 -8.347656 55.4375 -8.171875 L 68.109375 -8.171875 Z M 68.109375 0 "/>
</symbol>
<symbol overflow="visible" id="syriac-rlig:id0:glyph0-3">
<path style="stroke:none;" d="M 57.953125 -4.03125 C 57.953125 -1.34375 57.128906 0 55.484375 0 C 54.554688 0 52.945312 -0.929688 50.65625 -2.796875 L 46.359375 -6.453125 C 43.054688 -2.148438 39.421875 0 35.453125 0 L -3.765625 0 L -3.765625 -8.171875 L 33.84375 -8.171875 C 38.175781 -8.171875 40.34375 -9.132812 40.34375 -11.0625 L -8 -49.625 C -7.394531 -50.914062 -6.335938 -52.851562 -4.828125 -55.4375 C 9.671875 -43.9375 27.269531 -29.953125 47.96875 -13.484375 C 54.625 -8.109375 57.953125 -4.957031 57.953125 -4.03125 Z M 57.953125 -4.03125 "/>
</symbol>
</g>
<g>
<symbol overflow="visible" id="syriac-rlig:id1:glyph0-0">
<path style="stroke:none;" d="M 5.375 -96.6875 L 69.828125 -96.6875 L 69.828125 0 L 5.375 0 Z M 8.0625 -2.6875 L 67.140625 -2.6875 L 67.140625 -94 L 8.0625 -94 Z M 8.0625 -2.6875 "/>
</symbol>
<symbol overflow="visible" id="syriac-rlig:id1:glyph0-1">
<path style="stroke:none;" d="M 68.15625 -13.75 L 66.28125 -18.640625 L 88.09375 -27.390625 L 6.984375 -27.390625 L 6.984375 -34 L 88.09375 -34 L 66.28125 -42.75 L 68.15625 -47.640625 L 99.09375 -34.265625 L 99.09375 -27.125 Z M 68.15625 -13.75 "/>
</symbol>
</g>
<g>
<symbol overflow="visible" id="syriac-rlig:id2:glyph0-0">
<path style="stroke:none;" d=""/>
</symbol>
<symbol overflow="visible" id="syriac-rlig:id2:glyph0-1">
<path style="stroke:none;" d="M 53.875 0 L 46.734375 0 C 46.265625 1.070312 45.707031 2.128906 45.0625 3.171875 L 45.0625 -0.15625 C 45.101562 -2.695312 45.125 -4.597656 45.125 -5.859375 C 45.125 -10.398438 44.492188 -13.191406 43.234375 -14.234375 C 42.304688 -13.835938 40.960938 -12.675781 39.203125 -10.75 C 35.515625 -6.695312 33.082031 -4.222656 31.90625 -3.328125 C 28.96875 -1.109375 25.65625 0 21.96875 0 C 17.988281 0 14.640625 -1.394531 11.921875 -4.1875 C 9.347656 -6.800781 8.0625 -9.789062 8.0625 -13.15625 C 8.0625 -17.957031 9.394531 -22.101562 12.0625 -25.59375 C 14.726562 -29.082031 18.03125 -30.828125 21.96875 -30.828125 C 25.15625 -30.828125 28.554688 -29.546875 32.171875 -26.984375 C 35.785156 -24.429688 38.273438 -21.578125 39.640625 -18.421875 C 40.242188 -18.890625 41.5 -20.25 43.40625 -22.5 C 45.007812 -24.46875 46.347656 -25.671875 47.421875 -26.109375 C 48.492188 -24.066406 49.03125 -20.359375 49.03125 -14.984375 C 49.03125 -12.265625 48.925781 -9.992188 48.71875 -8.171875 L 53.875 -8.171875 Z M 35.015625 -12.734375 C 34.367188 -15.597656 32.597656 -18.015625 29.703125 -19.984375 C 27.015625 -21.804688 24.3125 -22.71875 21.59375 -22.71875 C 19.875 -22.71875 17.976562 -22.414062 15.90625 -21.8125 C 13.394531 -21.09375 11.78125 -20.175781 11.0625 -19.0625 C 11.601562 -15.738281 13.628906 -13.09375 17.140625 -11.125 C 19.859375 -9.613281 22.4375 -8.859375 24.875 -8.859375 C 26.082031 -8.859375 27.800781 -9.203125 30.03125 -9.890625 C 32.78125 -10.710938 34.441406 -11.660156 35.015625 -12.734375 Z M 35.015625 -12.734375 "/>
</symbol>
<symbol overflow="visible" id="syriac-rlig:id2:glyph0-2">
<path style="stroke:none;" d="M -3.765625 -8.171875 L 28.6875 -8.171875 C 32.375 -8.171875 34.570312 -9.007812 35.28125 -10.6875 L -13.640625 -49.625 C -12.992188 -51.382812 -11.9375 -53.320312 -10.46875 -55.4375 C 11.726562 -37.675781 29.328125 -23.691406 42.328125 -13.484375 C 46.222656 -10.367188 48.640625 -8.46875 49.578125 -7.78125 C 51.222656 -6.675781 52.582031 -6.125 53.65625 -6.125 C 54.875 -6.125 56.109375 -6.660156 57.359375 -7.734375 C 58.398438 -8.660156 59.15625 -9.644531 59.625 -10.6875 L 10.6875 -49.625 C 11.332031 -51.382812 12.390625 -53.320312 13.859375 -55.4375 C 36.023438 -37.675781 53.625 -23.691406 66.65625 -13.484375 C 68.59375 -12.015625 70.523438 -10.5625 72.453125 -9.125 C 75.640625 -6.582031 77.234375 -4.863281 77.234375 -3.96875 C 77.234375 -1.320312 76.359375 0 74.609375 0 C 73.785156 0 70.597656 -2.148438 65.046875 -6.453125 C 62.328125 -3.515625 60.445312 -1.6875 59.40625 -0.96875 C 57.90625 0.03125 55.972656 0.53125 53.609375 0.53125 C 49.953125 0.53125 45.65625 -1.796875 40.71875 -6.453125 C 38.0625 -3.546875 36.234375 -1.804688 35.234375 -1.234375 C 33.765625 -0.410156 31.347656 0 27.984375 0 L -3.765625 0 Z M -3.765625 -8.171875 "/>
</symbol>
</g>
</defs>
  <g id="syriac-rlig:id0:id0" transform="matrix(1.25,0,0,1.25,0.0,24.072265625)"><g id="syriac-rlig:id0:surface1">
<g style="fill:rgb(0%,0%,0%);fill-opacity:1;">
  <use xlink:href="#syriac-rlig:id0:glyph0-1" x="16" y="85.796875" class="c2"/>
  <use xlink:href="#syriac-rlig:id0:glyph0-2" x="69.875" y="85.796875" class="c1"/>
  <use xlink:href="#syriac-rlig:id0:glyph0-3" x="131.265625" y="85.796875" class="c0"/>
</g>
</g>
</g>
  <g id="syriac-rlig:id1:id1" transform="matrix(1.25,0,0,1.25,256.5234375,0.0)"><g id="syriac-rlig:id1:surface1">
<g style="fill:rgb(0%,0%,0%);fill-opacity:1;">
  <use xlink:href="#syriac-rlig:id1:glyph0-1" x="0" y="120.84375" class="arrow"/>
</g>
</g>
</g>
  <g id="syriac-rlig:id2:id2" transform="matrix(1.25,0,0,1.25,389.12109375,24.072265625)"><g id="syriac-rlig:id2:surface1">
<g style="fill:rgb(0%,0%,0%);fill-opacity:1;">
  <use xlink:href="#syriac-rlig:id2:glyph0-1" x="16" y="85.796875" class="c2"/>
  <use xlink:href="#syriac-rlig:id2:glyph0-2" x="69.875" y="85.796875" class="c3"/>
</g>
</g>
</g>
</svg>
