<!DOCTYPE svg PUBLIC "-//W3C//DTD SVG 1.1//EN" "http://www.w3.org/Graphics/SVG/1.1/DTD/svg11.dtd">
<!-- Created with svg_stack (http://github.com/astraw/svg_stack) --><svg xmlns="http://www.w3.org/2000/svg" xmlns:sodipodi="http://sodipodi.sourceforge.net/DTD/sodipodi-0.dtd" xmlns:xlink="http://www.w3.org/1999/xlink" version="1.1" width="100%" id="syriac-mkmk" viewBox="0 0 373.45703125 201.40625">
  <defs><g>
<symbol overflow="visible" id="syriac-mkmk:id0:glyph0-0">
<path style="stroke:none;" d=""/>
</symbol>
<symbol overflow="visible" id="syriac-mkmk:id0:glyph0-1">
<path style="stroke:none;" d="M 30.71875 -5.6875 C 27.320312 -1.894531 23.082031 0 18 0 C 16.632812 0 14.644531 -0.375 12.03125 -1.125 C 9.414062 -1.84375 7.445312 -2.203125 6.125 -2.203125 C 4.875 -2.203125 3.441406 -1.769531 1.828125 -0.90625 L 1.015625 -1.609375 C 3.171875 -5.335938 5.320312 -7.203125 7.46875 -7.203125 C 9.1875 -7.203125 11.691406 -6.753906 14.984375 -5.859375 C 18.273438 -4.960938 20.78125 -4.515625 22.5 -4.515625 C 24.257812 -4.515625 26.769531 -5.140625 30.03125 -6.390625 Z M 30.71875 -5.6875 "/>
</symbol>
<symbol overflow="visible" id="syriac-mkmk:id0:glyph0-2">
<path style="stroke:none;" d="M 22.078125 -15.09375 L 5.15625 0.59375 L 3.765625 -1.671875 L 11.0625 -8.484375 L 8.21875 -11.4375 L 0.859375 -4.828125 L -0.484375 -6.828125 L 15.796875 -21.921875 L 17.03125 -19.984375 L 10.53125 -13.421875 L 13.046875 -10.953125 L 20.25 -16.921875 Z M 22.078125 -15.09375 "/>
</symbol>
<symbol overflow="visible" id="syriac-mkmk:id0:glyph0-3">
<path style="stroke:none;" d="M 64.34375 -6.0625 C 64.34375 -1.664062 60.046875 0.53125 51.453125 0.53125 C 43.179688 0.53125 36.929688 -1.039062 32.703125 -4.1875 C 29.660156 -1.039062 25.707031 0.53125 20.84375 0.53125 C 16.9375 0.53125 13.859375 -0.414062 11.609375 -2.3125 C 9.242188 -4.28125 8.0625 -7.109375 8.0625 -10.796875 C 8.0625 -13.117188 8.796875 -15.769531 10.265625 -18.75 C 11.617188 -11.695312 15.269531 -8.171875 21.21875 -8.171875 C 23.082031 -8.171875 24.765625 -9.03125 26.265625 -10.75 C 27.085938 -11.707031 28.070312 -13.296875 29.21875 -15.515625 C 30.082031 -17.203125 30.691406 -18.03125 31.046875 -18 C 31.648438 -17.675781 33.53125 -15.832031 36.6875 -12.46875 C 39.332031 -9.601562 41.601562 -8.171875 43.5 -8.171875 C 46.507812 -8.171875 49.660156 -11.460938 52.953125 -18.046875 C 55.242188 -16.546875 57.519531 -14.753906 59.78125 -12.671875 C 62.820312 -9.804688 64.34375 -7.601562 64.34375 -6.0625 Z M 64.34375 -6.0625 "/>
</symbol>
</g>
<g>
<symbol overflow="visible" id="syriac-mkmk:id1:glyph0-0">
<path style="stroke:none;" d="M 5.375 -96.6875 L 69.828125 -96.6875 L 69.828125 0 L 5.375 0 Z M 8.0625 -2.6875 L 67.140625 -2.6875 L 67.140625 -94 L 8.0625 -94 Z M 8.0625 -2.6875 "/>
</symbol>
<symbol overflow="visible" id="syriac-mkmk:id1:glyph0-1">
<path style="stroke:none;" d="M 68.15625 -13.75 L 66.28125 -18.640625 L 88.09375 -27.390625 L 6.984375 -27.390625 L 6.984375 -34 L 88.09375 -34 L 66.28125 -42.75 L 68.15625 -47.640625 L 99.09375 -34.265625 L 99.09375 -27.125 Z M 68.15625 -13.75 "/>
</symbol>
</g>
<g>
<symbol overflow="visible" id="syriac-mkmk:id2:glyph0-0">
<path style="stroke:none;" d=""/>
</symbol>
<symbol overflow="visible" id="syriac-mkmk:id2:glyph0-1">
<path style="stroke:none;" d="M 30.71875 -5.6875 C 27.320312 -1.894531 23.082031 0 18 0 C 16.632812 0 14.644531 -0.375 12.03125 -1.125 C 9.414062 -1.84375 7.445312 -2.203125 6.125 -2.203125 C 4.875 -2.203125 3.441406 -1.769531 1.828125 -0.90625 L 1.015625 -1.609375 C 3.171875 -5.335938 5.320312 -7.203125 7.46875 -7.203125 C 9.1875 -7.203125 11.691406 -6.753906 14.984375 -5.859375 C 18.273438 -4.960938 20.78125 -4.515625 22.5 -4.515625 C 24.257812 -4.515625 26.769531 -5.140625 30.03125 -6.390625 Z M 30.71875 -5.6875 "/>
</symbol>
<symbol overflow="visible" id="syriac-mkmk:id2:glyph0-2">
<path style="stroke:none;" d="M 22.078125 -15.09375 L 5.15625 0.59375 L 3.765625 -1.671875 L 11.0625 -8.484375 L 8.21875 -11.4375 L 0.859375 -4.828125 L -0.484375 -6.828125 L 15.796875 -21.921875 L 17.03125 -19.984375 L 10.53125 -13.421875 L 13.046875 -10.953125 L 20.25 -16.921875 Z M 22.078125 -15.09375 "/>
</symbol>
<symbol overflow="visible" id="syriac-mkmk:id2:glyph0-3">
<path style="stroke:none;" d="M 64.34375 -6.0625 C 64.34375 -1.664062 60.046875 0.53125 51.453125 0.53125 C 43.179688 0.53125 36.929688 -1.039062 32.703125 -4.1875 C 29.660156 -1.039062 25.707031 0.53125 20.84375 0.53125 C 16.9375 0.53125 13.859375 -0.414062 11.609375 -2.3125 C 9.242188 -4.28125 8.0625 -7.109375 8.0625 -10.796875 C 8.0625 -13.117188 8.796875 -15.769531 10.265625 -18.75 C 11.617188 -11.695312 15.269531 -8.171875 21.21875 -8.171875 C 23.082031 -8.171875 24.765625 -9.03125 26.265625 -10.75 C 27.085938 -11.707031 28.070312 -13.296875 29.21875 -15.515625 C 30.082031 -17.203125 30.691406 -18.03125 31.046875 -18 C 31.648438 -17.675781 33.53125 -15.832031 36.6875 -12.46875 C 39.332031 -9.601562 41.601562 -8.171875 43.5 -8.171875 C 46.507812 -8.171875 49.660156 -11.460938 52.953125 -18.046875 C 55.242188 -16.546875 57.519531 -14.753906 59.78125 -12.671875 C 62.820312 -9.804688 64.34375 -7.601562 64.34375 -6.0625 Z M 64.34375 -6.0625 "/>
</symbol>
</g>
</defs>
  <g id="syriac-mkmk:id0:id0" transform="matrix(1.25,0,0,1.25,0.0,24.072265625)"><g id="syriac-mkmk:id0:surface1">
<g style="fill:rgb(0%,0%,0%);fill-opacity:1;">
  <use xlink:href="#syriac-mkmk:id0:glyph0-1" x="43.390625" y="48.46875" class="c2"/>
  <use xlink:href="#syriac-mkmk:id0:glyph0-2" x="47.421875" y="52.5" class="c1"/>
  <use xlink:href="#syriac-mkmk:id0:glyph0-3" x="16" y="85.796875" class="c0"/>
</g>
</g>
</g>
  <g id="syriac-mkmk:id1:id1" transform="matrix(1.25,0,0,1.25,120.4296875,0.0)"><g id="syriac-mkmk:id1:surface1">
<g style="fill:rgb(0%,0%,0%);fill-opacity:1;">
  <use xlink:href="#syriac-mkmk:id1:glyph0-1" x="0" y="120.84375" class="arrow"/>
</g>
</g>
</g>
  <g id="syriac-mkmk:id2:id2" transform="matrix(1.25,0,0,1.25,253.02734375,24.072265625)"><g id="syriac-mkmk:id2:surface1">
<g style="fill:rgb(0%,0%,0%);fill-opacity:1;">
  <use xlink:href="#syriac-mkmk:id2:glyph0-1" x="50.640625" y="17.046875" class="c2"/>
  <use xlink:href="#syriac-mkmk:id2:glyph0-2" x="47.421875" y="52.5" class="c1"/>
  <use xlink:href="#syriac-mkmk:id2:glyph0-3" x="16" y="85.796875" class="c0"/>
</g>
</g>
</g>
</svg>
