<!DOCTYPE svg PUBLIC "-//W3C//DTD SVG 1.1//EN" "http://www.w3.org/Graphics/SVG/1.1/DTD/svg11.dtd">
<!-- Created with svg_stack (http://github.com/astraw/svg_stack) --><svg xmlns="http://www.w3.org/2000/svg" xmlns:sodipodi="http://sodipodi.sourceforge.net/DTD/sodipodi-0.dtd" xmlns:xlink="http://www.w3.org/1999/xlink" version="1.1" width="100%" id="syriac-init" viewBox="0 0 600.64453125 201.40625">
  <defs><g>
<symbol overflow="visible" id="syriac-init:id0:glyph0-0">
<path style="stroke:none;" d=""/>
</symbol>
<symbol overflow="visible" id="syriac-init:id0:glyph0-1">
<path style="stroke:none;" d="M 55.640625 0 L 41.40625 0 C 39.800781 0.539062 38.117188 0.8125 36.359375 0.8125 C 32.640625 0.8125 29.488281 -0.675781 26.90625 -3.65625 C 25.4375 -5.332031 23.878906 -8 22.234375 -11.65625 C 21.054688 -6.101562 18.691406 0.429688 15.140625 7.953125 C 11.097656 16.578125 7 22.929688 2.84375 27.015625 C 5.132812 21.285156 7.425781 15.578125 9.71875 9.890625 C 11.863281 3.617188 12.9375 -2.453125 12.9375 -8.328125 C 12.9375 -13.410156 12.078125 -17.90625 10.359375 -21.8125 C 8.828125 -25.351562 8.0625 -27.679688 8.0625 -28.796875 C 8.769531 -30.222656 10.71875 -32.457031 13.90625 -35.5 C 15.945312 -32.03125 18.671875 -27.695312 22.078125 -22.5 C 25.515625 -27.519531 30.421875 -30.03125 36.796875 -30.03125 C 41.085938 -30.03125 44.722656 -28.4375 47.703125 -25.25 C 50.378906 -22.382812 51.71875 -19.234375 51.71875 -15.796875 C 51.71875 -12.960938 51.238281 -10.421875 50.28125 -8.171875 L 55.640625 -8.171875 Z M 45.125 -11.171875 C 45.125 -13.753906 43.582031 -16.570312 40.5 -19.625 C 37.414062 -22.6875 34.5 -24.21875 31.75 -24.21875 C 29.988281 -24.21875 28.359375 -23.59375 26.859375 -22.34375 C 25.535156 -21.195312 24.875 -20.195312 24.875 -19.34375 C 24.875 -16.9375 26.632812 -14.335938 30.15625 -11.546875 C 33.6875 -8.753906 36.9375 -7.359375 39.90625 -7.359375 C 41.050781 -7.359375 42.207031 -7.742188 43.375 -8.515625 C 44.539062 -9.285156 45.125 -10.171875 45.125 -11.171875 Z M 45.125 -11.171875 "/>
</symbol>
<symbol overflow="visible" id="syriac-init:id0:glyph0-2">
<path style="stroke:none;" d="M 44.3125 0 L 34.96875 0 C 33.175781 0.351562 31.222656 0.53125 29.109375 0.53125 C 20.878906 0.53125 14.648438 -1.039062 10.421875 -4.1875 C 8.597656 -2.320312 6.644531 -1.101562 4.5625 -0.53125 C 3.269531 -0.175781 1.265625 0 -1.453125 0 L -3.765625 0 L -3.765625 -8.171875 L -1.078125 -8.171875 C 0.785156 -8.171875 2.453125 -9.03125 3.921875 -10.75 C 4.773438 -11.707031 5.757812 -13.296875 6.875 -15.515625 C 7.738281 -17.203125 8.347656 -18.03125 8.703125 -18 C 9.347656 -17.675781 11.226562 -15.832031 14.34375 -12.46875 C 17.03125 -9.601562 19.320312 -8.171875 21.21875 -8.171875 C 24.226562 -8.171875 27.359375 -11.460938 30.609375 -18.046875 C 35.953125 -14.578125 39.535156 -11.285156 41.359375 -8.171875 L 44.3125 -8.171875 Z M 44.3125 0 "/>
</symbol>
<symbol overflow="visible" id="syriac-init:id0:glyph0-3">
<path style="stroke:none;" d="M 66.8125 -10.90625 C 66.8125 -3.632812 63.25 0 56.125 0 L 21.75 0 C 17.707031 0 14.46875 -0.84375 12.03125 -2.53125 C 9.382812 -4.3125 8.0625 -6.867188 8.0625 -10.203125 C 8.0625 -13.242188 9.007812 -16.679688 10.90625 -20.515625 C 11.625 -16.148438 12.679688 -13.144531 14.078125 -11.5 C 15.898438 -9.28125 19.015625 -8.171875 23.421875 -8.171875 L 56.34375 -8.171875 C 57.132812 -8.171875 57.742188 -8.472656 58.171875 -9.078125 C 58.523438 -9.578125 58.703125 -10.132812 58.703125 -10.75 C 58.703125 -12.75 57.453125 -14.734375 54.953125 -16.703125 C 50.398438 -20.242188 43.8125 -22.015625 35.1875 -22.015625 C 34.039062 -22.015625 32.570312 -21.925781 30.78125 -21.75 C 28.664062 -21.539062 27.375 -21.4375 26.90625 -21.4375 C 28.375 -26.84375 33.171875 -29.546875 41.296875 -29.546875 C 46.671875 -29.546875 52.097656 -27.828125 57.578125 -24.390625 C 63.734375 -20.515625 66.8125 -16.019531 66.8125 -10.90625 Z M 66.8125 -10.90625 "/>
</symbol>
</g>
<g>
<symbol overflow="visible" id="syriac-init:id1:glyph0-0">
<path style="stroke:none;" d="M 5.375 -96.6875 L 69.828125 -96.6875 L 69.828125 0 L 5.375 0 Z M 8.0625 -2.6875 L 67.140625 -2.6875 L 67.140625 -94 L 8.0625 -94 Z M 8.0625 -2.6875 "/>
</symbol>
<symbol overflow="visible" id="syriac-init:id1:glyph0-1">
<path style="stroke:none;" d="M 68.15625 -13.75 L 66.28125 -18.640625 L 88.09375 -27.390625 L 6.984375 -27.390625 L 6.984375 -34 L 88.09375 -34 L 66.28125 -42.75 L 68.15625 -47.640625 L 99.09375 -34.265625 L 99.09375 -27.125 Z M 68.15625 -13.75 "/>
</symbol>
</g>
<g>
<symbol overflow="visible" id="syriac-init:id2:glyph0-0">
<path style="stroke:none;" d=""/>
</symbol>
<symbol overflow="visible" id="syriac-init:id2:glyph0-1">
<path style="stroke:none;" d="M 55.640625 0 L 41.40625 0 C 39.800781 0.539062 38.117188 0.8125 36.359375 0.8125 C 32.640625 0.8125 29.488281 -0.675781 26.90625 -3.65625 C 25.4375 -5.332031 23.878906 -8 22.234375 -11.65625 C 21.054688 -6.101562 18.691406 0.429688 15.140625 7.953125 C 11.097656 16.578125 7 22.929688 2.84375 27.015625 C 5.132812 21.285156 7.425781 15.578125 9.71875 9.890625 C 11.863281 3.617188 12.9375 -2.453125 12.9375 -8.328125 C 12.9375 -13.410156 12.078125 -17.90625 10.359375 -21.8125 C 8.828125 -25.351562 8.0625 -27.679688 8.0625 -28.796875 C 8.769531 -30.222656 10.71875 -32.457031 13.90625 -35.5 C 15.945312 -32.03125 18.671875 -27.695312 22.078125 -22.5 C 25.515625 -27.519531 30.421875 -30.03125 36.796875 -30.03125 C 41.085938 -30.03125 44.722656 -28.4375 47.703125 -25.25 C 50.378906 -22.382812 51.71875 -19.234375 51.71875 -15.796875 C 51.71875 -12.960938 51.238281 -10.421875 50.28125 -8.171875 L 55.640625 -8.171875 Z M 45.125 -11.171875 C 45.125 -13.753906 43.582031 -16.570312 40.5 -19.625 C 37.414062 -22.6875 34.5 -24.21875 31.75 -24.21875 C 29.988281 -24.21875 28.359375 -23.59375 26.859375 -22.34375 C 25.535156 -21.195312 24.875 -20.195312 24.875 -19.34375 C 24.875 -16.9375 26.632812 -14.335938 30.15625 -11.546875 C 33.6875 -8.753906 36.9375 -7.359375 39.90625 -7.359375 C 41.050781 -7.359375 42.207031 -7.742188 43.375 -8.515625 C 44.539062 -9.285156 45.125 -10.171875 45.125 -11.171875 Z M 45.125 -11.171875 "/>
</symbol>
<symbol overflow="visible" id="syriac-init:id2:glyph0-2">
<path style="stroke:none;" d="M 44.3125 0 L 34.96875 0 C 33.175781 0.351562 31.222656 0.53125 29.109375 0.53125 C 20.878906 0.53125 14.648438 -1.039062 10.421875 -4.1875 C 8.597656 -2.320312 6.644531 -1.101562 4.5625 -0.53125 C 3.269531 -0.175781 1.265625 0 -1.453125 0 L -3.765625 0 L -3.765625 -8.171875 L -1.078125 -8.171875 C 0.785156 -8.171875 2.453125 -9.03125 3.921875 -10.75 C 4.773438 -11.707031 5.757812 -13.296875 6.875 -15.515625 C 7.738281 -17.203125 8.347656 -18.03125 8.703125 -18 C 9.347656 -17.675781 11.226562 -15.832031 14.34375 -12.46875 C 17.03125 -9.601562 19.320312 -8.171875 21.21875 -8.171875 C 24.226562 -8.171875 27.359375 -11.460938 30.609375 -18.046875 C 35.953125 -14.578125 39.535156 -11.285156 41.359375 -8.171875 L 44.3125 -8.171875 Z M 44.3125 0 "/>
</symbol>
<symbol overflow="visible" id="syriac-init:id2:glyph0-3">
<path style="stroke:none;" d="M 43.71875 -10.90625 C 43.71875 -3.632812 40.15625 0 33.03125 0 L -3.765625 0 L -3.765625 -8.171875 L 33.25 -8.171875 C 34.03125 -8.171875 34.640625 -8.472656 35.078125 -9.078125 C 35.429688 -9.578125 35.609375 -10.132812 35.609375 -10.75 C 35.609375 -12.75 34.351562 -14.734375 31.84375 -16.703125 C 27.300781 -20.242188 20.710938 -22.015625 12.078125 -22.015625 C 10.929688 -22.015625 9.46875 -21.925781 7.6875 -21.75 C 5.570312 -21.539062 4.28125 -21.4375 3.8125 -21.4375 C 5.28125 -26.84375 10.078125 -29.546875 18.203125 -29.546875 C 23.578125 -29.546875 29.003906 -27.828125 34.484375 -24.390625 C 40.640625 -20.515625 43.71875 -16.019531 43.71875 -10.90625 Z M 43.71875 -10.90625 "/>
</symbol>
</g>
</defs>
  <g id="syriac-init:id0:id0" transform="matrix(1.25,0,0,1.25,0.0,24.072265625)"><g id="syriac-init:id0:surface1">
<g style="fill:rgb(0%,0%,0%);fill-opacity:1;">
  <use xlink:href="#syriac-init:id0:glyph0-1" x="16" y="85.796875" class="c2"/>
  <use xlink:href="#syriac-init:id0:glyph0-2" x="71.640625" y="85.796875" class="c1"/>
  <use xlink:href="#syriac-init:id0:glyph0-3" x="115.953125" y="85.796875" class="c0"/>
</g>
</g>
</g>
  <g id="syriac-init:id1:id1" transform="matrix(1.25,0,0,1.25,248.45703125,0.0)"><g id="syriac-init:id1:surface1">
<g style="fill:rgb(0%,0%,0%);fill-opacity:1;">
  <use xlink:href="#syriac-init:id1:glyph0-1" x="0" y="120.84375" class="arrow"/>
</g>
</g>
</g>
  <g id="syriac-init:id2:id2" transform="matrix(1.25,0,0,1.25,381.0546875,24.072265625)"><g id="syriac-init:id2:surface1">
<g style="fill:rgb(0%,0%,0%);fill-opacity:1;">
  <use xlink:href="#syriac-init:id2:glyph0-1" x="16" y="85.796875" class="c2"/>
  <use xlink:href="#syriac-init:id2:glyph0-2" x="71.640625" y="85.796875" class="c1"/>
  <use xlink:href="#syriac-init:id2:glyph0-3" x="115.953125" y="85.796875" class="c0"/>
</g>
</g>
</g>
</svg>
