<!DOCTYPE svg PUBLIC "-//W3C//DTD SVG 1.1//EN" "http://www.w3.org/Graphics/SVG/1.1/DTD/svg11.dtd">
<!-- Created with svg_stack (http://github.com/astraw/svg_stack) --><svg xmlns="http://www.w3.org/2000/svg" xmlns:sodipodi="http://sodipodi.sourceforge.net/DTD/sodipodi-0.dtd" xmlns:xlink="http://www.w3.org/1999/xlink" version="1.1" width="100%" id="syriac-ccmp" viewBox="0 0 348.22265625 201.40625">
  <defs><g>
<symbol overflow="visible" id="syriac-ccmp:id0:glyph0-0">
<path style="stroke:none;" d=""/>
</symbol>
<symbol overflow="visible" id="syriac-ccmp:id0:glyph0-1">
<path style="stroke:none;" d="M 18.15625 -57.734375 C 18.15625 -56.234375 17.617188 -54.8125 16.546875 -53.46875 C 15.472656 -52.125 14.203125 -51.453125 12.734375 -51.453125 C 10.691406 -51.453125 9.671875 -52.632812 9.671875 -55 C 9.671875 -56.5 10.207031 -57.929688 11.28125 -59.296875 C 12.351562 -60.660156 13.625 -61.34375 15.09375 -61.34375 C 17.132812 -61.34375 18.15625 -60.140625 18.15625 -57.734375 Z M 8.21875 3.59375 C 8.21875 5.101562 7.695312 6.5 6.65625 7.78125 C 5.582031 9.1875 4.3125 9.890625 2.84375 9.890625 C 0.800781 9.890625 -0.21875 8.6875 -0.21875 6.28125 C -0.21875 4.78125 0.304688 3.359375 1.359375 2.015625 C 2.421875 0.671875 3.6875 0 5.15625 0 C 7.195312 0 8.21875 1.195312 8.21875 3.59375 Z M 8.21875 3.59375 "/>
</symbol>
<symbol overflow="visible" id="syriac-ccmp:id0:glyph0-2">
<path style="stroke:none;" d="M 48.171875 -37.4375 C 48.171875 -35.96875 47.457031 -35.234375 46.03125 -35.234375 C 44.488281 -35.234375 43.71875 -35.96875 43.71875 -37.4375 C 43.71875 -38.90625 44.488281 -39.640625 46.03125 -39.640625 C 47.457031 -39.640625 48.171875 -38.90625 48.171875 -37.4375 Z M 41.515625 -41.78125 C 41.515625 -40.351562 40.800781 -39.640625 39.375 -39.640625 C 37.832031 -39.640625 37.0625 -40.351562 37.0625 -41.78125 C 37.0625 -43.320312 37.832031 -44.09375 39.375 -44.09375 C 40.800781 -44.09375 41.515625 -43.320312 41.515625 -41.78125 Z M 52.6875 -30.78125 C 52.6875 -29.238281 51.914062 -28.46875 50.375 -28.46875 C 48.90625 -28.46875 48.171875 -29.238281 48.171875 -30.78125 C 48.171875 -32.25 48.941406 -32.984375 50.484375 -32.984375 C 51.953125 -32.984375 52.6875 -32.25 52.6875 -30.78125 Z M 33.671875 -43.453125 C 33.671875 -41.953125 32.957031 -41.203125 31.53125 -41.203125 C 30.0625 -41.203125 29.328125 -41.953125 29.328125 -43.453125 C 29.328125 -44.921875 30.0625 -45.65625 31.53125 -45.65625 C 32.957031 -45.65625 33.671875 -44.921875 33.671875 -43.453125 Z M 54.25 -22.9375 C 54.25 -21.46875 53.515625 -20.734375 52.046875 -20.734375 C 50.503906 -20.734375 49.734375 -21.46875 49.734375 -22.9375 C 49.734375 -24.40625 50.503906 -25.140625 52.046875 -25.140625 C 53.515625 -25.140625 54.25 -24.40625 54.25 -22.9375 Z M 25.9375 -41.78125 C 25.9375 -40.351562 25.1875 -39.640625 23.6875 -39.640625 C 22.21875 -39.640625 21.484375 -40.351562 21.484375 -41.78125 C 21.484375 -43.320312 22.21875 -44.09375 23.6875 -44.09375 C 25.1875 -44.09375 25.9375 -43.320312 25.9375 -41.78125 Z M 52.6875 -15.09375 C 52.6875 -13.625 51.914062 -12.890625 50.375 -12.890625 C 48.90625 -12.890625 48.171875 -13.625 48.171875 -15.09375 C 48.171875 -16.632812 48.90625 -17.40625 50.375 -17.40625 C 51.914062 -17.40625 52.6875 -16.632812 52.6875 -15.09375 Z M 19.28125 -37.4375 C 19.28125 -35.96875 18.53125 -35.234375 17.03125 -35.234375 C 15.5625 -35.234375 14.828125 -35.929688 14.828125 -37.328125 C 14.828125 -38.867188 15.5625 -39.640625 17.03125 -39.640625 C 18.53125 -39.640625 19.28125 -38.90625 19.28125 -37.4375 Z M 48.171875 -8.4375 C 48.171875 -6.96875 47.457031 -6.234375 46.03125 -6.234375 C 44.5625 -6.234375 43.828125 -6.96875 43.828125 -8.4375 C 43.828125 -9.976562 44.5625 -10.75 46.03125 -10.75 C 47.457031 -10.75 48.171875 -9.976562 48.171875 -8.4375 Z M 41.515625 -4.078125 C 41.515625 -2.609375 40.800781 -1.875 39.375 -1.875 C 37.90625 -1.875 37.171875 -2.609375 37.171875 -4.078125 C 37.171875 -5.585938 37.90625 -6.34375 39.375 -6.34375 C 40.800781 -6.34375 41.515625 -5.585938 41.515625 -4.078125 Z M 14.828125 -30.78125 C 14.828125 -29.238281 14.128906 -28.46875 12.734375 -28.46875 C 11.222656 -28.46875 10.46875 -29.238281 10.46875 -30.78125 C 10.46875 -32.25 11.1875 -32.984375 12.625 -32.984375 C 14.09375 -32.984375 14.828125 -32.25 14.828125 -30.78125 Z M 13.265625 -22.9375 C 13.265625 -21.46875 12.53125 -20.734375 11.0625 -20.734375 C 9.5625 -20.734375 8.8125 -21.46875 8.8125 -22.9375 C 8.8125 -24.40625 9.5625 -25.140625 11.0625 -25.140625 C 12.53125 -25.140625 13.265625 -24.40625 13.265625 -22.9375 Z M 33.671875 -2.53125 C 33.671875 -0.988281 32.957031 -0.21875 31.53125 -0.21875 C 30.0625 -0.21875 29.328125 -0.988281 29.328125 -2.53125 C 29.328125 -4 30.0625 -4.734375 31.53125 -4.734375 C 32.957031 -4.734375 33.671875 -4 33.671875 -2.53125 Z M 25.9375 -4.1875 C 25.9375 -2.644531 25.1875 -1.875 23.6875 -1.875 C 22.21875 -1.875 21.484375 -2.609375 21.484375 -4.078125 C 21.484375 -5.585938 22.21875 -6.34375 23.6875 -6.34375 C 25.1875 -6.34375 25.9375 -5.625 25.9375 -4.1875 Z M 14.828125 -15.09375 C 14.828125 -13.625 14.09375 -12.890625 12.625 -12.890625 C 11.1875 -12.890625 10.46875 -13.625 10.46875 -15.09375 C 10.46875 -16.632812 11.1875 -17.40625 12.625 -17.40625 C 14.09375 -17.40625 14.828125 -16.632812 14.828125 -15.09375 Z M 19.28125 -8.4375 C 19.28125 -6.96875 18.566406 -6.234375 17.140625 -6.234375 C 15.597656 -6.234375 14.828125 -6.96875 14.828125 -8.4375 C 14.828125 -9.976562 15.5625 -10.75 17.03125 -10.75 C 18.53125 -10.75 19.28125 -9.976562 19.28125 -8.4375 Z M 19.28125 -8.4375 "/>
</symbol>
</g>
<g>
<symbol overflow="visible" id="syriac-ccmp:id1:glyph0-0">
<path style="stroke:none;" d="M 5.375 -96.6875 L 69.828125 -96.6875 L 69.828125 0 L 5.375 0 Z M 8.0625 -2.6875 L 67.140625 -2.6875 L 67.140625 -94 L 8.0625 -94 Z M 8.0625 -2.6875 "/>
</symbol>
<symbol overflow="visible" id="syriac-ccmp:id1:glyph0-1">
<path style="stroke:none;" d="M 68.15625 -13.75 L 66.28125 -18.640625 L 88.09375 -27.390625 L 6.984375 -27.390625 L 6.984375 -34 L 88.09375 -34 L 66.28125 -42.75 L 68.15625 -47.640625 L 99.09375 -34.265625 L 99.09375 -27.125 Z M 68.15625 -13.75 "/>
</symbol>
</g>
<g>
<symbol overflow="visible" id="syriac-ccmp:id2:glyph0-0">
<path style="stroke:none;" d=""/>
</symbol>
<symbol overflow="visible" id="syriac-ccmp:id2:glyph0-1">
<path style="stroke:none;" d="M 8.4375 -6.28125 C 8.4375 -4.738281 7.914062 -3.328125 6.875 -2.046875 C 5.800781 -0.648438 4.53125 0.046875 3.0625 0.046875 C 1.019531 0.046875 0 -1.148438 0 -3.546875 C 0 -5.046875 0.523438 -6.46875 1.578125 -7.8125 C 2.640625 -9.15625 3.90625 -9.828125 5.375 -9.828125 C 7.414062 -9.828125 8.4375 -8.644531 8.4375 -6.28125 Z M 8.4375 -6.28125 "/>
</symbol>
<symbol overflow="visible" id="syriac-ccmp:id2:glyph0-2">
<path style="stroke:none;" d="M 8.4375 3.59375 C 8.4375 5.132812 7.914062 6.550781 6.875 7.84375 C 5.800781 9.238281 4.53125 9.9375 3.0625 9.9375 C 1.019531 9.9375 0 8.738281 0 6.34375 C 0 4.832031 0.523438 3.40625 1.578125 2.0625 C 2.640625 0.71875 3.90625 0.046875 5.375 0.046875 C 7.414062 0.046875 8.4375 1.226562 8.4375 3.59375 Z M 8.4375 3.59375 "/>
</symbol>
<symbol overflow="visible" id="syriac-ccmp:id2:glyph0-3">
<path style="stroke:none;" d="M 48.171875 -37.4375 C 48.171875 -35.96875 47.457031 -35.234375 46.03125 -35.234375 C 44.488281 -35.234375 43.71875 -35.96875 43.71875 -37.4375 C 43.71875 -38.90625 44.488281 -39.640625 46.03125 -39.640625 C 47.457031 -39.640625 48.171875 -38.90625 48.171875 -37.4375 Z M 41.515625 -41.78125 C 41.515625 -40.351562 40.800781 -39.640625 39.375 -39.640625 C 37.832031 -39.640625 37.0625 -40.351562 37.0625 -41.78125 C 37.0625 -43.320312 37.832031 -44.09375 39.375 -44.09375 C 40.800781 -44.09375 41.515625 -43.320312 41.515625 -41.78125 Z M 52.6875 -30.78125 C 52.6875 -29.238281 51.914062 -28.46875 50.375 -28.46875 C 48.90625 -28.46875 48.171875 -29.238281 48.171875 -30.78125 C 48.171875 -32.25 48.941406 -32.984375 50.484375 -32.984375 C 51.953125 -32.984375 52.6875 -32.25 52.6875 -30.78125 Z M 33.671875 -43.453125 C 33.671875 -41.953125 32.957031 -41.203125 31.53125 -41.203125 C 30.0625 -41.203125 29.328125 -41.953125 29.328125 -43.453125 C 29.328125 -44.921875 30.0625 -45.65625 31.53125 -45.65625 C 32.957031 -45.65625 33.671875 -44.921875 33.671875 -43.453125 Z M 54.25 -22.9375 C 54.25 -21.46875 53.515625 -20.734375 52.046875 -20.734375 C 50.503906 -20.734375 49.734375 -21.46875 49.734375 -22.9375 C 49.734375 -24.40625 50.503906 -25.140625 52.046875 -25.140625 C 53.515625 -25.140625 54.25 -24.40625 54.25 -22.9375 Z M 25.9375 -41.78125 C 25.9375 -40.351562 25.1875 -39.640625 23.6875 -39.640625 C 22.21875 -39.640625 21.484375 -40.351562 21.484375 -41.78125 C 21.484375 -43.320312 22.21875 -44.09375 23.6875 -44.09375 C 25.1875 -44.09375 25.9375 -43.320312 25.9375 -41.78125 Z M 52.6875 -15.09375 C 52.6875 -13.625 51.914062 -12.890625 50.375 -12.890625 C 48.90625 -12.890625 48.171875 -13.625 48.171875 -15.09375 C 48.171875 -16.632812 48.90625 -17.40625 50.375 -17.40625 C 51.914062 -17.40625 52.6875 -16.632812 52.6875 -15.09375 Z M 19.28125 -37.4375 C 19.28125 -35.96875 18.53125 -35.234375 17.03125 -35.234375 C 15.5625 -35.234375 14.828125 -35.929688 14.828125 -37.328125 C 14.828125 -38.867188 15.5625 -39.640625 17.03125 -39.640625 C 18.53125 -39.640625 19.28125 -38.90625 19.28125 -37.4375 Z M 48.171875 -8.4375 C 48.171875 -6.96875 47.457031 -6.234375 46.03125 -6.234375 C 44.5625 -6.234375 43.828125 -6.96875 43.828125 -8.4375 C 43.828125 -9.976562 44.5625 -10.75 46.03125 -10.75 C 47.457031 -10.75 48.171875 -9.976562 48.171875 -8.4375 Z M 41.515625 -4.078125 C 41.515625 -2.609375 40.800781 -1.875 39.375 -1.875 C 37.90625 -1.875 37.171875 -2.609375 37.171875 -4.078125 C 37.171875 -5.585938 37.90625 -6.34375 39.375 -6.34375 C 40.800781 -6.34375 41.515625 -5.585938 41.515625 -4.078125 Z M 14.828125 -30.78125 C 14.828125 -29.238281 14.128906 -28.46875 12.734375 -28.46875 C 11.222656 -28.46875 10.46875 -29.238281 10.46875 -30.78125 C 10.46875 -32.25 11.1875 -32.984375 12.625 -32.984375 C 14.09375 -32.984375 14.828125 -32.25 14.828125 -30.78125 Z M 13.265625 -22.9375 C 13.265625 -21.46875 12.53125 -20.734375 11.0625 -20.734375 C 9.5625 -20.734375 8.8125 -21.46875 8.8125 -22.9375 C 8.8125 -24.40625 9.5625 -25.140625 11.0625 -25.140625 C 12.53125 -25.140625 13.265625 -24.40625 13.265625 -22.9375 Z M 33.671875 -2.53125 C 33.671875 -0.988281 32.957031 -0.21875 31.53125 -0.21875 C 30.0625 -0.21875 29.328125 -0.988281 29.328125 -2.53125 C 29.328125 -4 30.0625 -4.734375 31.53125 -4.734375 C 32.957031 -4.734375 33.671875 -4 33.671875 -2.53125 Z M 25.9375 -4.1875 C 25.9375 -2.644531 25.1875 -1.875 23.6875 -1.875 C 22.21875 -1.875 21.484375 -2.609375 21.484375 -4.078125 C 21.484375 -5.585938 22.21875 -6.34375 23.6875 -6.34375 C 25.1875 -6.34375 25.9375 -5.625 25.9375 -4.1875 Z M 14.828125 -15.09375 C 14.828125 -13.625 14.09375 -12.890625 12.625 -12.890625 C 11.1875 -12.890625 10.46875 -13.625 10.46875 -15.09375 C 10.46875 -16.632812 11.1875 -17.40625 12.625 -17.40625 C 14.09375 -17.40625 14.828125 -16.632812 14.828125 -15.09375 Z M 19.28125 -8.4375 C 19.28125 -6.96875 18.566406 -6.234375 17.140625 -6.234375 C 15.597656 -6.234375 14.828125 -6.96875 14.828125 -8.4375 C 14.828125 -9.976562 15.5625 -10.75 17.03125 -10.75 C 18.53125 -10.75 19.28125 -9.976562 19.28125 -8.4375 Z M 19.28125 -8.4375 "/>
</symbol>
</g>
</defs>
  <g id="syriac-ccmp:id0:id0" transform="matrix(1.25,0,0,1.25,0.0,24.072265625)"><g id="syriac-ccmp:id0:surface1">
<g style="fill:rgb(0%,0%,0%);fill-opacity:1;">
  <use xlink:href="#syriac-ccmp:id0:glyph0-1" x="16" y="85.796875" class="c0"/>
  <use xlink:href="#syriac-ccmp:id0:glyph0-2" x="16" y="85.796875" class="dc"/>
</g>
</g>
</g>
  <g id="syriac-ccmp:id1:id1" transform="matrix(1.25,0,0,1.25,107.8125,0.0)"><g id="syriac-ccmp:id1:surface1">
<g style="fill:rgb(0%,0%,0%);fill-opacity:1;">
  <use xlink:href="#syriac-ccmp:id1:glyph0-1" x="0" y="120.84375" class="arrow"/>
</g>
</g>
</g>
  <g id="syriac-ccmp:id2:id2" transform="matrix(1.25,0,0,1.25,240.41015625,24.072265625)"><g id="syriac-ccmp:id2:surface1">
<g style="fill:rgb(0%,0%,0%);fill-opacity:1;">
  <use xlink:href="#syriac-ccmp:id2:glyph0-1" x="44.734375" y="27.78125" class="c2"/>
  <use xlink:href="#syriac-ccmp:id2:glyph0-2" x="43.65625" y="99.5" class="c1"/>
  <use xlink:href="#syriac-ccmp:id2:glyph0-3" x="16" y="85.796875" class="dc"/>
</g>
</g>
</g>
</svg>
