<!DOCTYPE svg PUBLIC "-//W3C//DTD SVG 1.1//EN" "http://www.w3.org/Graphics/SVG/1.1/DTD/svg11.dtd">
<!-- Created with svg_stack (http://github.com/astraw/svg_stack) --><svg xmlns="http://www.w3.org/2000/svg" xmlns:sodipodi="http://sodipodi.sourceforge.net/DTD/sodipodi-0.dtd" xmlns:xlink="http://www.w3.org/1999/xlink" version="1.1" width="100%" id="syriac-stch" viewBox="0 0 548.75 201.40625">
  <defs><g>
<symbol overflow="visible" id="syriac-stch:id0:glyph0-0">
<path style="stroke:none;" d=""/>
</symbol>
<symbol overflow="visible" id="syriac-stch:id0:glyph0-1">
<path style="stroke:none;" d="M 54.296875 0 L 39.109375 0 C 39.109375 5.832031 37.675781 12.257812 34.8125 19.28125 C 31.65625 26.945312 28.070312 31.816406 24.0625 33.890625 C 28.394531 22.648438 30.5625 12.910156 30.5625 4.671875 C 30.5625 3.304688 30.4375 1.75 30.1875 0 L 24.109375 0 C 18.992188 0 15.21875 -0.644531 12.78125 -1.9375 C 9.632812 -3.65625 8.0625 -6.644531 8.0625 -10.90625 C 8.0625 -12.625 8.847656 -14.554688 10.421875 -16.703125 C 10.523438 -14.015625 11.742188 -11.867188 14.078125 -10.265625 C 16.148438 -8.828125 18.65625 -8.109375 21.59375 -8.109375 C 24.207031 -8.109375 26.410156 -8.914062 28.203125 -10.53125 C 29.304688 -11.53125 30.394531 -13.035156 31.46875 -15.046875 C 32.332031 -16.648438 32.941406 -17.453125 33.296875 -17.453125 C 34.734375 -17.453125 37.1875 -15.914062 40.65625 -12.84375 C 44.132812 -9.726562 47.609375 -8.171875 51.078125 -8.171875 L 54.296875 -8.171875 Z M 54.296875 0 "/>
</symbol>
<symbol overflow="visible" id="syriac-stch:id0:glyph0-2">
<path style="stroke:none;" d="M 60.265625 0 L 47.375 0 C 45.832031 0.539062 44.148438 0.8125 42.328125 0.8125 C 38.421875 0.8125 34.835938 -0.265625 31.578125 -2.421875 C 31.148438 -1.773438 30.15625 -1.207031 28.59375 -0.71875 C 27.039062 -0.238281 25.601562 0 24.28125 0 L -3.765625 0 L -3.765625 -8.171875 L 25.140625 -8.171875 L 14.71875 -16.96875 C 8.914062 -21.875 5.675781 -24.898438 5 -26.046875 C 5.175781 -26.796875 5.851562 -27.941406 7.03125 -29.484375 C 8.394531 -31.273438 9.523438 -32.222656 10.421875 -32.328125 C 10.773438 -32.148438 13.257812 -30.082031 17.875 -26.125 C 22.5 -22.175781 25.78125 -19.285156 27.71875 -17.453125 C 28.4375 -19.640625 29.847656 -21.753906 31.953125 -23.796875 C 34.960938 -26.734375 38.492188 -28.203125 42.546875 -28.203125 C 46.515625 -28.203125 49.789062 -26.585938 52.375 -23.359375 C 54.769531 -20.359375 55.96875 -16.816406 55.96875 -12.734375 C 55.96875 -11.191406 55.71875 -9.671875 55.21875 -8.171875 L 60.265625 -8.171875 Z M 49.953125 -10.6875 C 49.953125 -13.050781 48.375 -15.269531 45.21875 -17.34375 C 42.425781 -19.132812 40.03125 -20.03125 38.03125 -20.03125 C 36.238281 -20.03125 34.734375 -19.644531 33.515625 -18.875 C 32.296875 -18.101562 31.6875 -17.113281 31.6875 -15.90625 C 31.6875 -14 33.441406 -12.023438 36.953125 -9.984375 C 39.992188 -8.234375 42.285156 -7.359375 43.828125 -7.359375 C 47.910156 -7.359375 49.953125 -8.46875 49.953125 -10.6875 Z M 49.953125 -10.6875 "/>
</symbol>
<symbol overflow="visible" id="syriac-stch:id0:glyph0-3">
<path style="stroke:none;" d="M 20.03125 -18.953125 L 1.453125 -0.109375 L -0.640625 -2.046875 L 3.21875 -6.125 L 0.90625 -19.28125 L 14.390625 -17.296875 L 17.890625 -20.890625 Z M 11.921875 -14.828125 L 4.453125 -15.6875 L 5.6875 -8.640625 Z M 11.921875 -14.828125 "/>
</symbol>
<symbol overflow="visible" id="syriac-stch:id0:glyph0-4">
<path style="stroke:none;" d="M 18.859375 -13.859375 C 18.859375 -10.023438 17.753906 -6.753906 15.546875 -4.046875 C 13.347656 -1.347656 10.796875 0 7.890625 0 L -3.765625 0 L -3.765625 -8.171875 L 11.703125 -8.171875 L 10.46875 -13.421875 C 9.71875 -16.398438 9.34375 -18.316406 9.34375 -19.171875 C 9.34375 -21.390625 9.71875 -23.09375 10.46875 -24.28125 C 11.476562 -25.851562 13.578125 -27.484375 16.765625 -29.171875 C 18.160156 -19.710938 18.859375 -14.609375 18.859375 -13.859375 Z M 18.859375 -13.859375 "/>
</symbol>
<symbol overflow="visible" id="syriac-stch:id0:glyph0-5">
<path style="stroke:none;" d="M 11.875 -72.078125 C 11.875 -70.503906 11.101562 -69.71875 9.5625 -69.71875 C 8.632812 -69.71875 7.953125 -70.113281 7.515625 -70.90625 L 2.953125 -70.90625 C 2.773438 -70.539062 2.523438 -70.269531 2.203125 -70.09375 L 2.203125 6.234375 L 0 6.234375 L 0 -69.9375 C -0.46875 -70.113281 -0.828125 -70.4375 -1.078125 -70.90625 L -5.640625 -70.90625 C -6.066406 -70.113281 -6.75 -69.71875 -7.6875 -69.71875 C -9.21875 -69.71875 -9.984375 -70.503906 -9.984375 -72.078125 C -9.984375 -73.617188 -9.21875 -74.390625 -7.6875 -74.390625 C -6.570312 -74.390625 -5.816406 -73.867188 -5.421875 -72.828125 L -1.296875 -72.828125 C -0.898438 -73.867188 -0.144531 -74.390625 0.96875 -74.390625 C 2.039062 -74.390625 2.773438 -73.867188 3.171875 -72.828125 L 7.3125 -72.828125 C 7.695312 -73.867188 8.445312 -74.390625 9.5625 -74.390625 C 11.101562 -74.390625 11.875 -73.617188 11.875 -72.078125 Z M 11.875 -72.078125 "/>
</symbol>
</g>
<g>
<symbol overflow="visible" id="syriac-stch:id1:glyph0-0">
<path style="stroke:none;" d="M 5.375 -96.6875 L 69.828125 -96.6875 L 69.828125 0 L 5.375 0 Z M 8.0625 -2.6875 L 67.140625 -2.6875 L 67.140625 -94 L 8.0625 -94 Z M 8.0625 -2.6875 "/>
</symbol>
<symbol overflow="visible" id="syriac-stch:id1:glyph0-1">
<path style="stroke:none;" d="M 68.15625 -13.75 L 66.28125 -18.640625 L 88.09375 -27.390625 L 6.984375 -27.390625 L 6.984375 -34 L 88.09375 -34 L 66.28125 -42.75 L 68.15625 -47.640625 L 99.09375 -34.265625 L 99.09375 -27.125 Z M 68.15625 -13.75 "/>
</symbol>
</g>
<g>
<symbol overflow="visible" id="syriac-stch:id2:glyph0-0">
<path style="stroke:none;" d=""/>
</symbol>
<symbol overflow="visible" id="syriac-stch:id2:glyph0-1">
<path style="stroke:none;" d="M 54.296875 0 L 39.109375 0 C 39.109375 5.832031 37.675781 12.257812 34.8125 19.28125 C 31.65625 26.945312 28.070312 31.816406 24.0625 33.890625 C 28.394531 22.648438 30.5625 12.910156 30.5625 4.671875 C 30.5625 3.304688 30.4375 1.75 30.1875 0 L 24.109375 0 C 18.992188 0 15.21875 -0.644531 12.78125 -1.9375 C 9.632812 -3.65625 8.0625 -6.644531 8.0625 -10.90625 C 8.0625 -12.625 8.847656 -14.554688 10.421875 -16.703125 C 10.523438 -14.015625 11.742188 -11.867188 14.078125 -10.265625 C 16.148438 -8.828125 18.65625 -8.109375 21.59375 -8.109375 C 24.207031 -8.109375 26.410156 -8.914062 28.203125 -10.53125 C 29.304688 -11.53125 30.394531 -13.035156 31.46875 -15.046875 C 32.332031 -16.648438 32.941406 -17.453125 33.296875 -17.453125 C 34.734375 -17.453125 37.1875 -15.914062 40.65625 -12.84375 C 44.132812 -9.726562 47.609375 -8.171875 51.078125 -8.171875 L 54.296875 -8.171875 Z M 54.296875 0 "/>
</symbol>
<symbol overflow="visible" id="syriac-stch:id2:glyph0-2">
<path style="stroke:none;" d="M 60.265625 0 L 47.375 0 C 45.832031 0.539062 44.148438 0.8125 42.328125 0.8125 C 38.421875 0.8125 34.835938 -0.265625 31.578125 -2.421875 C 31.148438 -1.773438 30.15625 -1.207031 28.59375 -0.71875 C 27.039062 -0.238281 25.601562 0 24.28125 0 L -3.765625 0 L -3.765625 -8.171875 L 25.140625 -8.171875 L 14.71875 -16.96875 C 8.914062 -21.875 5.675781 -24.898438 5 -26.046875 C 5.175781 -26.796875 5.851562 -27.941406 7.03125 -29.484375 C 8.394531 -31.273438 9.523438 -32.222656 10.421875 -32.328125 C 10.773438 -32.148438 13.257812 -30.082031 17.875 -26.125 C 22.5 -22.175781 25.78125 -19.285156 27.71875 -17.453125 C 28.4375 -19.640625 29.847656 -21.753906 31.953125 -23.796875 C 34.960938 -26.734375 38.492188 -28.203125 42.546875 -28.203125 C 46.515625 -28.203125 49.789062 -26.585938 52.375 -23.359375 C 54.769531 -20.359375 55.96875 -16.816406 55.96875 -12.734375 C 55.96875 -11.191406 55.71875 -9.671875 55.21875 -8.171875 L 60.265625 -8.171875 Z M 49.953125 -10.6875 C 49.953125 -13.050781 48.375 -15.269531 45.21875 -17.34375 C 42.425781 -19.132812 40.03125 -20.03125 38.03125 -20.03125 C 36.238281 -20.03125 34.734375 -19.644531 33.515625 -18.875 C 32.296875 -18.101562 31.6875 -17.113281 31.6875 -15.90625 C 31.6875 -14 33.441406 -12.023438 36.953125 -9.984375 C 39.992188 -8.234375 42.285156 -7.359375 43.828125 -7.359375 C 47.910156 -7.359375 49.953125 -8.46875 49.953125 -10.6875 Z M 49.953125 -10.6875 "/>
</symbol>
<symbol overflow="visible" id="syriac-stch:id2:glyph0-3">
<path style="stroke:none;" d="M 20.03125 -18.953125 L 1.453125 -0.109375 L -0.640625 -2.046875 L 3.21875 -6.125 L 0.90625 -19.28125 L 14.390625 -17.296875 L 17.890625 -20.890625 Z M 11.921875 -14.828125 L 4.453125 -15.6875 L 5.6875 -8.640625 Z M 11.921875 -14.828125 "/>
</symbol>
<symbol overflow="visible" id="syriac-stch:id2:glyph0-4">
<path style="stroke:none;" d="M 18.859375 -13.859375 C 18.859375 -10.023438 17.753906 -6.753906 15.546875 -4.046875 C 13.347656 -1.347656 10.796875 0 7.890625 0 L -3.765625 0 L -3.765625 -8.171875 L 11.703125 -8.171875 L 10.46875 -13.421875 C 9.71875 -16.398438 9.34375 -18.316406 9.34375 -19.171875 C 9.34375 -21.390625 9.71875 -23.09375 10.46875 -24.28125 C 11.476562 -25.851562 13.578125 -27.484375 16.765625 -29.171875 C 18.160156 -19.710938 18.859375 -14.609375 18.859375 -13.859375 Z M 18.859375 -13.859375 "/>
</symbol>
<symbol overflow="visible" id="syriac-stch:id2:glyph0-5">
<path style="stroke:none;" d="M 18.796875 -72.140625 L 15.140625 -72.140625 C 14.640625 -70.921875 13.867188 -69.960938 12.828125 -69.265625 C 11.796875 -68.566406 10.597656 -68.21875 9.234375 -68.21875 C 8.304688 -68.21875 7.445312 -68.382812 6.65625 -68.71875 C 5.875 -69.0625 5.1875 -69.523438 4.59375 -70.109375 C 4 -70.703125 3.53125 -71.394531 3.1875 -72.1875 C 2.851562 -72.976562 2.6875 -73.835938 2.6875 -74.765625 C 2.6875 -75.660156 2.851562 -76.5 3.1875 -77.28125 C 3.53125 -78.070312 4 -78.765625 4.59375 -79.359375 C 5.1875 -79.953125 5.875 -80.414062 6.65625 -80.75 C 7.445312 -81.09375 8.304688 -81.265625 9.234375 -81.265625 C 10.597656 -81.265625 11.796875 -80.894531 12.828125 -80.15625 C 13.867188 -79.425781 14.640625 -78.488281 15.140625 -77.34375 L 18.796875 -77.34375 Z M 18.796875 -72.140625 "/>
</symbol>
<symbol overflow="visible" id="syriac-stch:id2:glyph0-6">
<path style="stroke:none;" d="M -0.53125 -77.34375 L 11.28125 -77.34375 L 11.28125 -72.140625 L -0.53125 -72.140625 Z M -0.53125 -77.34375 "/>
</symbol>
<symbol overflow="visible" id="syriac-stch:id2:glyph0-7">
<path style="stroke:none;" d="M 18.796875 -72.140625 L 15.046875 -72.140625 C 14.535156 -70.992188 13.742188 -70.050781 12.671875 -69.3125 C 11.597656 -68.582031 10.382812 -68.21875 9.03125 -68.21875 C 7.664062 -68.21875 6.460938 -68.566406 5.421875 -69.265625 C 4.390625 -69.960938 3.617188 -70.921875 3.109375 -72.140625 L -0.53125 -72.140625 L -0.53125 -77.34375 L 3.109375 -77.34375 C 3.617188 -78.488281 4.390625 -79.425781 5.421875 -80.15625 C 6.460938 -80.894531 7.664062 -81.265625 9.03125 -81.265625 C 10.382812 -81.265625 11.597656 -80.894531 12.671875 -80.15625 C 13.742188 -79.425781 14.535156 -78.488281 15.046875 -77.34375 L 18.796875 -77.34375 Z M 18.796875 -72.140625 "/>
</symbol>
<symbol overflow="visible" id="syriac-stch:id2:glyph0-8">
<path style="stroke:none;" d="M -0.53125 -77.34375 L 3.109375 -77.34375 C 3.617188 -78.488281 4.390625 -79.425781 5.421875 -80.15625 C 6.460938 -80.894531 7.664062 -81.265625 9.03125 -81.265625 C 9.914062 -81.265625 10.757812 -81.09375 11.5625 -80.75 C 12.375 -80.414062 13.078125 -79.953125 13.671875 -79.359375 C 14.265625 -78.765625 14.726562 -78.070312 15.0625 -77.28125 C 15.40625 -76.5 15.578125 -75.660156 15.578125 -74.765625 C 15.578125 -73.835938 15.40625 -72.976562 15.0625 -72.1875 C 14.726562 -71.394531 14.265625 -70.703125 13.671875 -70.109375 C 13.078125 -69.523438 12.375 -69.0625 11.5625 -68.71875 C 10.757812 -68.382812 9.914062 -68.21875 9.03125 -68.21875 C 7.664062 -68.21875 6.460938 -68.566406 5.421875 -69.265625 C 4.390625 -69.960938 3.617188 -70.921875 3.109375 -72.140625 L -0.53125 -72.140625 Z M -0.53125 -77.34375 "/>
</symbol>
</g>
</defs>
  <g id="syriac-stch:id0:id0" transform="matrix(1.25,0,0,1.25,0.0,24.072265625)"><g id="syriac-stch:id0:surface1">
<g style="fill:rgb(0%,0%,0%);fill-opacity:1;">
  <use xlink:href="#syriac-stch:id0:glyph0-1" x="16" y="85.796875" class="c3"/>
  <use xlink:href="#syriac-stch:id0:glyph0-2" x="70.296875" y="85.796875" class="c2"/>
  <use xlink:href="#syriac-stch:id0:glyph0-3" x="132.171875" y="49.265625" class="c1"/>
  <use xlink:href="#syriac-stch:id0:glyph0-4" x="130.5625" y="85.796875" class="c0"/>
  <use xlink:href="#syriac-stch:id0:glyph0-5" x="149.359375" y="85.796875" class="dc"/>
</g>
</g>
</g>
  <g id="syriac-stch:id1:id1" transform="matrix(1.25,0,0,1.25,209.453125,0.0)"><g id="syriac-stch:id1:surface1">
<g style="fill:rgb(0%,0%,0%);fill-opacity:1;">
  <use xlink:href="#syriac-stch:id1:glyph0-1" x="0" y="120.84375" class="arrow"/>
</g>
</g>
</g>
  <g id="syriac-stch:id2:id2" transform="matrix(1.25,0,0,1.25,342.05078125,24.072265625)"><g id="syriac-stch:id2:surface1">
<g style="fill:rgb(0%,0%,0%);fill-opacity:1;">
  <use xlink:href="#syriac-stch:id2:glyph0-1" x="16" y="85.796875" class="c3"/>
  <use xlink:href="#syriac-stch:id2:glyph0-2" x="70.296875" y="85.796875" class="c2"/>
  <use xlink:href="#syriac-stch:id2:glyph0-3" x="132.171875" y="49.265625" class="c1"/>
  <use xlink:href="#syriac-stch:id2:glyph0-4" x="130.5625" y="85.796875" class="c0"/>
  <use xlink:href="#syriac-stch:id2:glyph0-5" x="15.96875" y="85.796875" class="c8"/>
  <use xlink:href="#syriac-stch:id2:glyph0-6" x="34.234375" y="85.796875" class="c7"/>
  <use xlink:href="#syriac-stch:id2:glyph0-6" x="43.75" y="85.796875" class="c6"/>
  <use xlink:href="#syriac-stch:id2:glyph0-6" x="53.265625" y="85.796875" class="c5"/>
  <use xlink:href="#syriac-stch:id2:glyph0-6" x="62.78125" y="85.796875" class="c4"/>
  <use xlink:href="#syriac-stch:id2:glyph0-7" x="73.53125" y="85.796875" class="c9"/>
  <use xlink:href="#syriac-stch:id2:glyph0-6" x="91.796875" y="85.796875" class="c8"/>
  <use xlink:href="#syriac-stch:id2:glyph0-6" x="101.3125" y="85.796875" class="c7"/>
  <use xlink:href="#syriac-stch:id2:glyph0-6" x="110.828125" y="85.796875" class="c6"/>
  <use xlink:href="#syriac-stch:id2:glyph0-6" x="120.34375" y="85.796875" class="c5"/>
  <use xlink:href="#syriac-stch:id2:glyph0-8" x="131.09375" y="85.796875" class="c4"/>
</g>
</g>
</g>
</svg>
