<!DOCTYPE svg PUBLIC "-//W3C//DTD SVG 1.1//EN" "http://www.w3.org/Graphics/SVG/1.1/DTD/svg11.dtd">
<!-- Created with svg_stack (http://github.com/astraw/svg_stack) --><svg xmlns="http://www.w3.org/2000/svg" xmlns:sodipodi="http://sodipodi.sourceforge.net/DTD/sodipodi-0.dtd" xmlns:xlink="http://www.w3.org/1999/xlink" version="1.1" width="100%" id="syriac-dlig" viewBox="0 0 495.8984375 201.40625">
  <defs><g>
<symbol overflow="visible" id="syriac-dlig:id0:glyph0-0">
<path style="stroke:none;" d=""/>
</symbol>
<symbol overflow="visible" id="syriac-dlig:id0:glyph0-1">
<path style="stroke:none;" d="M 22.5 -50.65625 C 22.5 -47.394531 20.941406 -42.613281 17.828125 -36.3125 C 14.679688 -29.96875 13.109375 -25.707031 13.109375 -23.53125 C 13.109375 -21.5625 13.84375 -18.660156 15.3125 -14.828125 C 16.738281 -10.992188 17.453125 -8.109375 17.453125 -6.171875 C 17.453125 -3.703125 16.9375 -1.484375 15.90625 0.484375 C 15.332031 1.660156 14.054688 3.488281 12.078125 5.96875 C 11.003906 4 10.039062 0.414062 9.1875 -4.78125 C 8.4375 -9.363281 8.0625 -12.960938 8.0625 -15.578125 C 8.0625 -20.015625 9.632812 -25.347656 12.78125 -31.578125 C 15.894531 -37.773438 17.453125 -41.84375 17.453125 -43.78125 C 17.453125 -47.101562 16.253906 -49.96875 13.859375 -52.375 C 11.421875 -54.769531 10.203125 -56.363281 10.203125 -57.15625 C 10.203125 -59.875 11.347656 -62.304688 13.640625 -64.453125 C 15.753906 -63.453125 17.757812 -61.460938 19.65625 -58.484375 C 21.550781 -55.515625 22.5 -52.90625 22.5 -50.65625 Z M 22.5 -50.65625 "/>
</symbol>
<symbol overflow="visible" id="syriac-dlig:id0:glyph0-2">
<path style="stroke:none;" d=""/>
</symbol>
<symbol overflow="visible" id="syriac-dlig:id0:glyph0-3">
<path style="stroke:none;" d="M 94.375 -3.96875 C 94.375 -1.320312 93.492188 0 91.734375 0 C 90.953125 0 87.765625 -2.148438 82.171875 -6.453125 C 79.347656 -3.367188 77.488281 -1.539062 76.59375 -0.96875 C 74.945312 0.03125 72.492188 0.53125 69.234375 0.53125 C 67.046875 0.53125 64.164062 -0.914062 60.59375 -3.8125 C 45.800781 -15.519531 28.289062 -29.394531 8.0625 -45.4375 C 8.664062 -46.90625 9.828125 -48.769531 11.546875 -51.03125 C 34.210938 -32.875 51.8125 -18.925781 64.34375 -9.1875 C 66.957031 -7.144531 68.765625 -6.125 69.765625 -6.125 C 71.234375 -6.125 72.703125 -6.660156 74.171875 -7.734375 C 75.460938 -8.660156 76.320312 -9.644531 76.75 -10.6875 L 27.828125 -49.625 C 28.472656 -51.382812 29.523438 -53.320312 30.984375 -55.4375 C 45.492188 -43.9375 63.097656 -29.953125 83.796875 -13.484375 C 85.722656 -12.015625 87.65625 -10.5625 89.59375 -9.125 C 92.78125 -6.582031 94.375 -4.863281 94.375 -3.96875 Z M 94.375 -3.96875 "/>
</symbol>
</g>
<g>
<symbol overflow="visible" id="syriac-dlig:id1:glyph0-0">
<path style="stroke:none;" d="M 5.375 -96.6875 L 69.828125 -96.6875 L 69.828125 0 L 5.375 0 Z M 8.0625 -2.6875 L 67.140625 -2.6875 L 67.140625 -94 L 8.0625 -94 Z M 8.0625 -2.6875 "/>
</symbol>
<symbol overflow="visible" id="syriac-dlig:id1:glyph0-1">
<path style="stroke:none;" d="M 68.15625 -13.75 L 66.28125 -18.640625 L 88.09375 -27.390625 L 6.984375 -27.390625 L 6.984375 -34 L 88.09375 -34 L 66.28125 -42.75 L 68.15625 -47.640625 L 99.09375 -34.265625 L 99.09375 -27.125 Z M 68.15625 -13.75 "/>
</symbol>
</g>
<g>
<symbol overflow="visible" id="syriac-dlig:id2:glyph0-0">
<path style="stroke:none;" d=""/>
</symbol>
<symbol overflow="visible" id="syriac-dlig:id2:glyph0-1">
<path style="stroke:none;" d="M 35.984375 -33.734375 C 34.015625 -29.753906 32.90625 -26.78125 32.65625 -24.8125 C 40.175781 -18.875 46.800781 -13.664062 52.53125 -9.1875 C 55.144531 -7.144531 56.953125 -6.125 57.953125 -6.125 C 59.421875 -6.125 60.890625 -6.660156 62.359375 -7.734375 C 63.648438 -8.660156 64.507812 -9.644531 64.9375 -10.6875 Z M 41.953125 -50.65625 C 41.953125 -47.789062 40.929688 -44.117188 38.890625 -39.640625 L 71.96875 -13.484375 C 73.90625 -12.015625 75.84375 -10.5625 77.78125 -9.125 C 80.957031 -6.582031 82.546875 -4.863281 82.546875 -3.96875 C 82.546875 -1.320312 81.671875 0 79.921875 0 C 79.128906 0 75.941406 -2.148438 70.359375 -6.453125 C 67.535156 -3.367188 65.675781 -1.539062 64.78125 -0.96875 C 63.132812 0.03125 60.679688 0.53125 57.421875 0.53125 C 55.234375 0.53125 52.332031 -0.9375 48.71875 -3.875 C 45.101562 -6.769531 40.394531 -10.523438 34.59375 -15.140625 C 36.132812 -11.097656 36.90625 -8.109375 36.90625 -6.171875 C 36.90625 -3.703125 36.382812 -1.484375 35.34375 0.484375 C 34.769531 1.660156 33.5 3.488281 31.53125 5.96875 C 30.457031 4 29.488281 0.414062 28.625 -4.78125 C 27.875 -9.363281 27.5 -12.960938 27.5 -15.578125 C 27.5 -17.148438 27.660156 -18.757812 27.984375 -20.40625 L -3.765625 -45.4375 C -3.148438 -46.90625 -1.984375 -48.769531 -0.265625 -51.03125 L 30.03125 -26.859375 C 30.488281 -27.960938 31.828125 -30.753906 34.046875 -35.234375 L 16 -49.625 C 16.644531 -51.382812 17.703125 -53.320312 19.171875 -55.4375 C 23.148438 -52.175781 28.953125 -47.519531 36.578125 -41.46875 C 36.796875 -42.289062 36.90625 -43.0625 36.90625 -43.78125 C 36.90625 -47.101562 35.703125 -49.96875 33.296875 -52.375 C 30.867188 -54.769531 29.65625 -56.363281 29.65625 -57.15625 C 29.65625 -59.875 30.800781 -62.304688 33.09375 -64.453125 C 35.195312 -63.453125 37.195312 -61.460938 39.09375 -58.484375 C 41 -55.515625 41.953125 -52.90625 41.953125 -50.65625 Z M 41.953125 -50.65625 "/>
</symbol>
</g>
</defs>
  <g id="syriac-dlig:id0:id0" transform="matrix(1.25,0,0,1.25,0.0,24.072265625)"><g id="syriac-dlig:id0:surface1">
<g style="fill:rgb(0%,0%,0%);fill-opacity:1;">
  <use xlink:href="#syriac-dlig:id0:glyph0-1" x="16" y="85.796875" class="c2"/>
  <use xlink:href="#syriac-dlig:id0:glyph0-2" x="38.5" y="85.796875" class="c1"/>
  <use xlink:href="#syriac-dlig:id0:glyph0-3" x="65.890625" y="85.796875" class="c0"/>
</g>
</g>
</g>
  <g id="syriac-dlig:id1:id1" transform="matrix(1.25,0,0,1.25,220.1171875,0.0)"><g id="syriac-dlig:id1:surface1">
<g style="fill:rgb(0%,0%,0%);fill-opacity:1;">
  <use xlink:href="#syriac-dlig:id1:glyph0-1" x="0" y="120.84375" class="arrow"/>
</g>
</g>
</g>
  <g id="syriac-dlig:id2:id2" transform="matrix(1.25,0,0,1.25,352.71484375,24.072265625)"><g id="syriac-dlig:id2:surface1">
<g style="fill:rgb(0%,0%,0%);fill-opacity:1;">
  <use xlink:href="#syriac-dlig:id2:glyph0-1" x="16" y="85.796875" class="c3"/>
</g>
</g>
</g>
</svg>
