<svg xmlns="http://www.w3.org/2000/svg" xmlns:xlink="http://www.w3.org/1999/xlink" width="109.8125pt" height="122.609375pt" viewBox="0 0 109.8125 122.609375" version="1.1" id="syriac-dalath-rish">
<defs>
<g>
<symbol overflow="visible" id="syriac-dalath-rish:glyph0-0">
<path style="stroke:none;" d=""/>
</symbol>
<symbol overflow="visible" id="syriac-dalath-rish:glyph0-1">
<path style="stroke:none;" d="M 25.9375 -8.859375 C 25.9375 -4.203125 24.8125 0.164062 22.5625 4.25 C 19.945312 8.96875 16.398438 12.0625 11.921875 13.53125 C 14.429688 10.78125 15.828125 9.1875 16.109375 8.75 C 17.578125 6.707031 18.3125 4.613281 18.3125 2.46875 C 18.3125 0.644531 17.414062 -0.910156 15.625 -2.203125 L 10.6875 -5.796875 C 8.9375 -7.585938 8.0625 -10.0625 8.0625 -13.21875 C 8.0625 -16.082031 8.757812 -18.476562 10.15625 -20.40625 C 11.800781 -22.695312 14.144531 -23.84375 17.1875 -23.84375 C 20.375 -23.84375 22.738281 -22.019531 24.28125 -18.375 C 25.382812 -15.6875 25.9375 -12.515625 25.9375 -8.859375 Z M 25.9375 -8.859375 "/>
</symbol>
<symbol overflow="visible" id="syriac-dalath-rish:glyph0-2">
<path style="stroke:none;" d="M 21.21875 -39.53125 C 21.21875 -38.675781 20.582031 -37.617188 19.3125 -36.359375 C 18.039062 -35.109375 17.082031 -34.484375 16.4375 -34.484375 C 15.789062 -34.484375 14.832031 -35.109375 13.5625 -36.359375 C 12.289062 -37.617188 11.65625 -38.675781 11.65625 -39.53125 C 11.65625 -40.351562 12.289062 -41.390625 13.5625 -42.640625 C 14.832031 -43.898438 15.789062 -44.53125 16.4375 -44.53125 C 17.082031 -44.53125 18.039062 -43.898438 19.3125 -42.640625 C 20.582031 -41.390625 21.21875 -40.351562 21.21875 -39.53125 Z M 25.9375 -8.859375 C 25.9375 -4.203125 24.8125 0.164062 22.5625 4.25 C 19.945312 8.96875 16.398438 12.0625 11.921875 13.53125 C 14.429688 10.78125 15.828125 9.1875 16.109375 8.75 C 17.578125 6.707031 18.3125 4.613281 18.3125 2.46875 C 18.3125 0.644531 17.414062 -0.910156 15.625 -2.203125 L 10.6875 -5.796875 C 8.9375 -7.585938 8.0625 -10.0625 8.0625 -13.21875 C 8.0625 -16.082031 8.757812 -18.476562 10.15625 -20.40625 C 11.800781 -22.695312 14.144531 -23.84375 17.1875 -23.84375 C 20.375 -23.84375 22.738281 -22.019531 24.28125 -18.375 C 25.382812 -15.6875 25.9375 -12.515625 25.9375 -8.859375 Z M 25.9375 -8.859375 "/>
</symbol>
<symbol overflow="visible" id="syriac-dalath-rish:glyph0-3">
<path style="stroke:none;" d="M 25.9375 -8.859375 C 25.9375 -4.203125 24.8125 0.164062 22.5625 4.25 C 19.945312 8.96875 16.398438 12.0625 11.921875 13.53125 C 14.429688 10.78125 15.828125 9.1875 16.109375 8.75 C 17.578125 6.707031 18.3125 4.613281 18.3125 2.46875 C 18.3125 0.644531 17.414062 -0.910156 15.625 -2.203125 L 10.6875 -5.796875 C 8.9375 -7.585938 8.0625 -10.0625 8.0625 -13.21875 C 8.0625 -16.082031 8.757812 -18.476562 10.15625 -20.40625 C 11.800781 -22.695312 14.144531 -23.84375 17.1875 -23.84375 C 20.375 -23.84375 22.738281 -22.019531 24.28125 -18.375 C 25.382812 -15.6875 25.9375 -12.515625 25.9375 -8.859375 Z M 23.578125 22.125 C 23.578125 22.914062 22.976562 23.910156 21.78125 25.109375 C 20.582031 26.304688 19.660156 26.90625 19.015625 26.90625 C 18.398438 26.90625 17.492188 26.304688 16.296875 25.109375 C 15.097656 23.910156 14.5 22.914062 14.5 22.125 C 14.5 21.34375 15.097656 20.347656 16.296875 19.140625 C 17.492188 17.941406 18.398438 17.34375 19.015625 17.34375 C 19.660156 17.34375 20.582031 17.941406 21.78125 19.140625 C 22.976562 20.347656 23.578125 21.34375 23.578125 22.125 Z M 23.578125 22.125 "/>
</symbol>
</g>
</defs>
<g id="syriac-dalath-rish:surface1">
<g style="fill:rgb(0%,0%,0%);fill-opacity:1;">
  <use xlink:href="#syriac-dalath-rish:glyph0-1" x="16" y="85.796875" class="c0"/>
  <use xlink:href="#syriac-dalath-rish:glyph0-2" x="41.9375" y="85.796875" class="c1"/>
  <use xlink:href="#syriac-dalath-rish:glyph0-3" x="67.875" y="85.796875" class="c2"/>
</g>
</g>
</svg>
