<!DOCTYPE svg PUBLIC "-//W3C//DTD SVG 1.1//EN" "http://www.w3.org/Graphics/SVG/1.1/DTD/svg11.dtd">
<!-- Created with svg_stack (http://github.com/astraw/svg_stack) --><svg xmlns="http://www.w3.org/2000/svg" xmlns:sodipodi="http://sodipodi.sourceforge.net/DTD/sodipodi-0.dtd" xmlns:xlink="http://www.w3.org/1999/xlink" version="1.1" width="100%" id="syriac-mark" viewBox="0 0 425.99609375 201.40625">
  <defs><g>
<symbol overflow="visible" id="syriac-mark:id0:glyph0-0">
<path style="stroke:none;" d="M 55.546875 -78.546875 L 55.546875 0 L 10.34375 0 L 10.34375 -78.546875 Z M 49.9375 -72.9375 L 15.953125 -72.9375 L 15.953125 -5.609375 L 49.9375 -5.609375 Z M 49.9375 -72.9375 "/>
</symbol>
<symbol overflow="visible" id="syriac-mark:id0:glyph0-1">
<path style="stroke:none;" d="M -4.625 -65.015625 C -5.28125 -66.472656 -5.769531 -67.84375 -6.09375 -69.125 C -6.425781 -70.414062 -6.59375 -71.757812 -6.59375 -73.15625 C -6.59375 -75.789062 -5.894531 -78.0625 -4.5 -79.96875 C -3.113281 -81.875 -1.0625 -82.828125 1.65625 -82.828125 C 3.925781 -82.828125 5.644531 -82.164062 6.8125 -80.84375 C 7.988281 -79.53125 8.578125 -77.921875 8.578125 -76.015625 C 8.578125 -74.984375 8.335938 -73.789062 7.859375 -72.4375 C 7.390625 -71.082031 6.347656 -69.5625 4.734375 -67.875 C 3.410156 -66.550781 1.882812 -65.191406 0.15625 -63.796875 C -1.5625 -62.398438 -4.035156 -60.601562 -7.265625 -58.40625 L -9.5625 -61.484375 Z M -1.203125 -67.65625 C 0.0351562 -68.675781 1.097656 -69.628906 1.984375 -70.515625 C 3.671875 -72.273438 4.515625 -73.957031 4.515625 -75.5625 C 4.515625 -77.769531 3.488281 -78.875 1.4375 -78.875 C -0.175781 -78.875 -1.257812 -78.210938 -1.8125 -76.890625 C -2.363281 -75.566406 -2.640625 -74.320312 -2.640625 -73.15625 C -2.640625 -71.019531 -2.160156 -69.1875 -1.203125 -67.65625 Z M -1.203125 -67.65625 "/>
</symbol>
<symbol overflow="visible" id="syriac-mark:id0:glyph0-2">
<path style="stroke:none;" d="M 26.40625 0 C 20.675781 0 16.015625 -0.769531 12.421875 -2.3125 C 8.835938 -3.851562 6.492188 -5.941406 5.390625 -8.578125 L 10.34375 -15.1875 C 12.25 -12.46875 14.59375 -10.648438 17.375 -9.734375 C 20.164062 -8.816406 23.976562 -8.359375 28.8125 -8.359375 L 69.734375 -8.359375 L 69.734375 -38.828125 L 53.796875 -38.828125 C 49.535156 -38.828125 45.515625 -38.972656 41.734375 -39.265625 C 37.960938 -39.554688 35.269531 -39.925781 33.65625 -40.375 L 33.65625 -48.1875 C 35.707031 -47.8125 38.566406 -47.492188 42.234375 -47.234375 C 45.898438 -46.984375 49.566406 -46.859375 53.234375 -46.859375 L 77.875 -46.859375 L 77.875 -5.9375 L 73.484375 0 Z M 26.40625 0 "/>
</symbol>
</g>
<g>
<symbol overflow="visible" id="syriac-mark:id1:glyph0-0">
<path style="stroke:none;" d="M 5.375 -96.6875 L 69.828125 -96.6875 L 69.828125 0 L 5.375 0 Z M 8.0625 -2.6875 L 67.140625 -2.6875 L 67.140625 -94 L 8.0625 -94 Z M 8.0625 -2.6875 "/>
</symbol>
<symbol overflow="visible" id="syriac-mark:id1:glyph0-1">
<path style="stroke:none;" d="M 68.15625 -13.75 L 66.28125 -18.640625 L 88.09375 -27.390625 L 6.984375 -27.390625 L 6.984375 -34 L 88.09375 -34 L 66.28125 -42.75 L 68.15625 -47.640625 L 99.09375 -34.265625 L 99.09375 -27.125 Z M 68.15625 -13.75 "/>
</symbol>
</g>
<g>
<symbol overflow="visible" id="syriac-mark:id2:glyph0-0">
<path style="stroke:none;" d="M 55.546875 -78.546875 L 55.546875 0 L 10.34375 0 L 10.34375 -78.546875 Z M 49.9375 -72.9375 L 15.953125 -72.9375 L 15.953125 -5.609375 L 49.9375 -5.609375 Z M 49.9375 -72.9375 "/>
</symbol>
<symbol overflow="visible" id="syriac-mark:id2:glyph0-1">
<path style="stroke:none;" d="M -4.625 -65.015625 C -5.28125 -66.472656 -5.769531 -67.84375 -6.09375 -69.125 C -6.425781 -70.414062 -6.59375 -71.757812 -6.59375 -73.15625 C -6.59375 -75.789062 -5.894531 -78.0625 -4.5 -79.96875 C -3.113281 -81.875 -1.0625 -82.828125 1.65625 -82.828125 C 3.925781 -82.828125 5.644531 -82.164062 6.8125 -80.84375 C 7.988281 -79.53125 8.578125 -77.921875 8.578125 -76.015625 C 8.578125 -74.984375 8.335938 -73.789062 7.859375 -72.4375 C 7.390625 -71.082031 6.347656 -69.5625 4.734375 -67.875 C 3.410156 -66.550781 1.882812 -65.191406 0.15625 -63.796875 C -1.5625 -62.398438 -4.035156 -60.601562 -7.265625 -58.40625 L -9.5625 -61.484375 Z M -1.203125 -67.65625 C 0.0351562 -68.675781 1.097656 -69.628906 1.984375 -70.515625 C 3.671875 -72.273438 4.515625 -73.957031 4.515625 -75.5625 C 4.515625 -77.769531 3.488281 -78.875 1.4375 -78.875 C -0.175781 -78.875 -1.257812 -78.210938 -1.8125 -76.890625 C -2.363281 -75.566406 -2.640625 -74.320312 -2.640625 -73.15625 C -2.640625 -71.019531 -2.160156 -69.1875 -1.203125 -67.65625 Z M -1.203125 -67.65625 "/>
</symbol>
<symbol overflow="visible" id="syriac-mark:id2:glyph0-2">
<path style="stroke:none;" d="M 26.40625 0 C 20.675781 0 16.015625 -0.769531 12.421875 -2.3125 C 8.835938 -3.851562 6.492188 -5.941406 5.390625 -8.578125 L 10.34375 -15.1875 C 12.25 -12.46875 14.59375 -10.648438 17.375 -9.734375 C 20.164062 -8.816406 23.976562 -8.359375 28.8125 -8.359375 L 69.734375 -8.359375 L 69.734375 -38.828125 L 53.796875 -38.828125 C 49.535156 -38.828125 45.515625 -38.972656 41.734375 -39.265625 C 37.960938 -39.554688 35.269531 -39.925781 33.65625 -40.375 L 33.65625 -48.1875 C 35.707031 -47.8125 38.566406 -47.492188 42.234375 -47.234375 C 45.898438 -46.984375 49.566406 -46.859375 53.234375 -46.859375 L 77.875 -46.859375 L 77.875 -5.9375 L 73.484375 0 Z M 26.40625 0 "/>
</symbol>
</g>
</defs>
  <g id="syriac-mark:id0:id0" transform="matrix(1.25,0,0,1.25,0.0,1.1328125)"><g id="syriac-mark:id0:surface1">
<g style="fill:rgb(0%,0%,0%);fill-opacity:1;">
  <use xlink:href="#syriac-mark:id0:glyph0-1" x="16" y="103.859375" class="c1"/>
  <use xlink:href="#syriac-mark:id0:glyph0-2" x="16" y="103.859375" class="c0"/>
</g>
</g>
</g>
  <g id="syriac-mark:id1:id1" transform="matrix(1.25,0,0,1.25,146.69921875,0.0)"><g id="syriac-mark:id1:surface1">
<g style="fill:rgb(0%,0%,0%);fill-opacity:1;">
  <use xlink:href="#syriac-mark:id1:glyph0-1" x="0" y="120.84375" class="arrow"/>
</g>
</g>
</g>
  <g id="syriac-mark:id2:id2" transform="matrix(1.25,0,0,1.25,279.296875,1.1328125)"><g id="syriac-mark:id2:surface1">
<g style="fill:rgb(0%,0%,0%);fill-opacity:1;">
  <use xlink:href="#syriac-mark:id2:glyph0-1" x="71" y="105.953125" class="c1"/>
  <use xlink:href="#syriac-mark:id2:glyph0-2" x="16" y="103.859375" class="c0"/>
</g>
</g>
</g>
</svg>