<svg xmlns="http://www.w3.org/2000/svg" xmlns:xlink="http://www.w3.org/1999/xlink" width="203.9375pt" height="159.3125pt" viewBox="0 0 203.9375 159.3125" version="1.1" id="syriac-dalath-rish">
<defs>
<g>
<symbol overflow="visible" id="syriac-dalath-rish:glyph0-0">
<path style="stroke:none;" d="M 55.546875 -78.546875 L 55.546875 0 L 10.34375 0 L 10.34375 -78.546875 Z M 49.9375 -72.9375 L 15.953125 -72.9375 L 15.953125 -5.609375 L 49.9375 -5.609375 Z M 49.9375 -72.9375 "/>
</symbol>
<symbol overflow="visible" id="syriac-dalath-rish:glyph0-1">
<path style="stroke:none;" d="M 8.578125 -8.359375 L 34.4375 -8.359375 C 37.070312 -8.359375 38.773438 -9 39.546875 -10.28125 C 40.316406 -11.5625 40.703125 -13.15625 40.703125 -15.0625 C 40.703125 -22.25 39.234375 -28.0625 36.296875 -32.5 C 33.367188 -36.9375 28.894531 -39.15625 22.875 -39.15625 C 20.675781 -39.15625 18.515625 -38.953125 16.390625 -38.546875 C 14.265625 -38.148438 12.101562 -37.4375 9.90625 -36.40625 L 9.90625 -43.890625 C 11.59375 -44.921875 13.570312 -45.742188 15.84375 -46.359375 C 18.113281 -46.984375 20.601562 -47.296875 23.3125 -47.296875 C 31.820312 -47.296875 38.203125 -44.398438 42.453125 -38.609375 C 46.710938 -32.816406 48.84375 -24.929688 48.84375 -14.953125 C 48.84375 -12.609375 48.53125 -10.28125 47.90625 -7.96875 C 47.28125 -5.664062 45.957031 -3.757812 43.9375 -2.25 C 41.925781 -0.75 38.796875 0 34.546875 0 L 8.578125 0 Z M 8.578125 -8.359375 "/>
</symbol>
<symbol overflow="visible" id="syriac-dalath-rish:glyph0-2">
<path style="stroke:none;" d="M 22.984375 -66.765625 L 32.015625 -66.765625 L 32.015625 -57.421875 L 22.984375 -57.421875 Z M 8.578125 -8.359375 L 34.4375 -8.359375 C 37.070312 -8.359375 38.773438 -9 39.546875 -10.28125 C 40.316406 -11.5625 40.703125 -13.15625 40.703125 -15.0625 C 40.703125 -22.25 39.234375 -28.0625 36.296875 -32.5 C 33.367188 -36.9375 28.894531 -39.15625 22.875 -39.15625 C 20.675781 -39.15625 18.515625 -38.953125 16.390625 -38.546875 C 14.265625 -38.148438 12.101562 -37.4375 9.90625 -36.40625 L 9.90625 -43.890625 C 11.59375 -44.921875 13.570312 -45.742188 15.84375 -46.359375 C 18.113281 -46.984375 20.601562 -47.296875 23.3125 -47.296875 C 31.820312 -47.296875 38.203125 -44.398438 42.453125 -38.609375 C 46.710938 -32.816406 48.84375 -24.929688 48.84375 -14.953125 C 48.84375 -12.609375 48.53125 -10.28125 47.90625 -7.96875 C 47.28125 -5.664062 45.957031 -3.757812 43.9375 -2.25 C 41.925781 -0.75 38.796875 0 34.546875 0 L 8.578125 0 Z M 8.578125 -8.359375 "/>
</symbol>
<symbol overflow="visible" id="syriac-dalath-rish:glyph0-3">
<path style="stroke:none;" d="M 8.578125 -8.359375 L 34.4375 -8.359375 C 37.070312 -8.359375 38.773438 -9 39.546875 -10.28125 C 40.316406 -11.5625 40.703125 -13.15625 40.703125 -15.0625 C 40.703125 -22.25 39.234375 -28.0625 36.296875 -32.5 C 33.367188 -36.9375 28.894531 -39.15625 22.875 -39.15625 C 20.675781 -39.15625 18.515625 -38.953125 16.390625 -38.546875 C 14.265625 -38.148438 12.101562 -37.4375 9.90625 -36.40625 L 9.90625 -43.890625 C 11.59375 -44.921875 13.570312 -45.742188 15.84375 -46.359375 C 18.113281 -46.984375 20.601562 -47.296875 23.3125 -47.296875 C 31.820312 -47.296875 38.203125 -44.398438 42.453125 -38.609375 C 46.710938 -32.816406 48.84375 -24.929688 48.84375 -14.953125 C 48.84375 -12.609375 48.53125 -10.28125 47.90625 -7.96875 C 47.28125 -5.664062 45.957031 -3.757812 43.9375 -2.25 C 41.925781 -0.75 38.796875 0 34.546875 0 L 8.578125 0 Z M 22.328125 10.234375 L 31.34375 10.234375 L 31.34375 19.578125 L 22.328125 19.578125 Z M 22.328125 10.234375 "/>
</symbol>
</g>
</defs>
<g id="syriac-dalath-rish:surface1">
<g style="fill:rgb(0%,0%,0%);fill-opacity:1;">
  <use xlink:href="#syriac-dalath-rish:glyph0-1" x="16" y="103.859375" class="c2"/>
  <use xlink:href="#syriac-dalath-rish:glyph0-2" x="73.3125" y="103.859375" class="c1"/>
  <use xlink:href="#syriac-dalath-rish:glyph0-3" x="130.625" y="103.859375" class="c0"/>
</g>
</g>
</svg>