<!DOCTYPE svg PUBLIC "-//W3C//DTD SVG 1.1//EN" "http://www.w3.org/Graphics/SVG/1.1/DTD/svg11.dtd">
<!-- Created with svg_stack (http://github.com/astraw/svg_stack) --><svg xmlns="http://www.w3.org/2000/svg" xmlns:sodipodi="http://sodipodi.sourceforge.net/DTD/sodipodi-0.dtd" xmlns:xlink="http://www.w3.org/1999/xlink" version="1.1" width="100%" id="syriac-fin2" viewBox="0 0 529.0234375 201.40625">
  <defs><g>
<symbol overflow="visible" id="syriac-fin2:id0:glyph0-0">
<path style="stroke:none;" d="M 6.875 0 L 6.875 -83.796875 L 48.125 -83.796875 L 48.125 0 Z M 13.75 -6.875 L 41.25 -6.875 L 41.25 -76.921875 L 13.75 -76.921875 Z M 13.75 -6.875 "/>
</symbol>
<symbol overflow="visible" id="syriac-fin2:id0:glyph0-1">
<path style="stroke:none;" d="M 24.015625 -47.53125 C 24.015625 -45.03125 22.535156 -40.535156 19.578125 -34.046875 C 16.617188 -27.566406 15.140625 -24.039062 15.140625 -23.46875 C 15.140625 -21.5 15.75 -18.632812 16.96875 -14.875 C 18.1875 -11.113281 18.796875 -8.25 18.796875 -6.28125 C 18.796875 -3.664062 18.832031 -2.253906 18.90625 -2.046875 L 18.953125 -2.46875 C 18.847656 -0.96875 18.3125 0.410156 17.34375 1.671875 C 15.375 4.242188 13.765625 5.53125 12.515625 5.53125 C 11.046875 5.53125 10.3125 4.882812 10.3125 3.59375 C 10.3125 2.882812 10.445312 1.8125 10.71875 0.375 C 10.988281 -1.050781 11.125 -2.125 11.125 -2.84375 C 11.125 -4.414062 10.765625 -6.742188 10.046875 -9.828125 C 9.328125 -12.910156 8.96875 -15.238281 8.96875 -16.8125 C 8.96875 -18.882812 12.28125 -26.757812 18.90625 -40.4375 C 18.90625 -42.269531 18.117188 -44.171875 16.546875 -46.140625 L 12.078125 -50.75 C 12.078125 -51.789062 12.90625 -53.53125 14.5625 -55.96875 C 14.882812 -56.4375 15.3125 -57.347656 15.84375 -58.703125 C 16.0625 -59.273438 16.332031 -59.5625 16.65625 -59.5625 C 17.875 -59.5625 19.320312 -58.503906 21 -56.390625 C 23.007812 -53.847656 24.015625 -50.894531 24.015625 -47.53125 Z M 24.015625 -47.53125 "/>
</symbol>
<symbol overflow="visible" id="syriac-fin2:id0:glyph0-2">
<path style="stroke:none;" d="M 61.984375 0 L 57.953125 0 C 49.679688 0 42.34375 -3.648438 35.9375 -10.953125 C 32.175781 -15.253906 27.695312 -22.539062 22.5 -32.8125 L 22.5 -32.390625 C 22.46875 -31.816406 22.566406 -30.960938 22.796875 -29.828125 C 23.035156 -28.703125 23.15625 -27.875 23.15625 -27.34375 C 23.15625 -21.039062 21.398438 -15.5625 17.890625 -10.90625 C 18.710938 -11.007812 19.515625 -11.0625 20.296875 -11.0625 C 24.128906 -11.0625 27.515625 -9.71875 30.453125 -7.03125 C 32.523438 -5.132812 33.5625 -3.414062 33.5625 -1.875 C 33.5625 1.019531 32.957031 3.597656 31.75 5.859375 C 31.53125 6.253906 31.023438 6.429688 30.234375 6.390625 L 24.5 1.609375 C 21.664062 -0.503906 19.425781 -1.5625 17.78125 -1.5625 C 15.445312 -1.5625 12.347656 -0.234375 8.484375 2.421875 C 7.585938 2.453125 7.050781 2.09375 6.875 1.34375 L 6.875 -0.90625 C 7.050781 -1.34375 7.910156 -2.757812 9.453125 -5.15625 C 14.328125 -12.820312 16.765625 -19.710938 16.765625 -25.828125 C 16.765625 -27.484375 16.441406 -31.367188 15.796875 -37.484375 C 15.109375 -43.859375 14.601562 -47.132812 14.28125 -47.3125 L 18.6875 -49.890625 C 18.90625 -50.003906 19.5 -50.546875 20.46875 -51.515625 C 21.21875 -52.265625 21.878906 -52.640625 22.453125 -52.640625 C 22.773438 -52.640625 23.273438 -51.332031 23.953125 -48.71875 C 25.023438 -44.632812 26.097656 -41.195312 27.171875 -38.40625 C 30.179688 -30.457031 34.03125 -23.90625 38.71875 -18.75 C 44.664062 -12.15625 51.164062 -8.859375 58.21875 -8.859375 L 61.984375 -8.859375 Z M 61.984375 0 "/>
</symbol>
<symbol overflow="visible" id="syriac-fin2:id0:glyph0-3">
<path style="stroke:none;" d="M 43.453125 -11.21875 C 43.453125 -9.863281 42.484375 -8.039062 40.546875 -5.75 C 38.941406 -3.8125 37.367188 -2.328125 35.828125 -1.296875 C 34.578125 -0.429688 32.550781 0 29.75 0 L -4.9375 0 L -4.9375 -8.859375 L 30.40625 -8.859375 C 32.195312 -8.859375 33.195312 -9.34375 33.40625 -10.3125 C 33.445312 -10.488281 33.394531 -10.828125 33.25 -11.328125 C 32.53125 -14.160156 29.039062 -16.703125 22.78125 -18.953125 C 17.40625 -20.929688 12.910156 -21.921875 9.296875 -21.921875 C 4.710938 -21.921875 2.203125 -21.613281 1.765625 -21 L 0.8125 -20.671875 L 0.640625 -20.890625 C 0.640625 -21.828125 1.445312 -23.691406 3.0625 -26.484375 C 4.75 -29.421875 7.578125 -30.890625 11.546875 -30.890625 C 17.378906 -30.890625 24.773438 -28.628906 33.734375 -24.109375 C 35.984375 -22.960938 38.113281 -21.15625 40.125 -18.6875 C 42.34375 -15.96875 43.453125 -13.476562 43.453125 -11.21875 Z M 43.453125 -11.21875 "/>
</symbol>
</g>
<g>
<symbol overflow="visible" id="syriac-fin2:id1:glyph0-0">
<path style="stroke:none;" d="M 5.375 -96.6875 L 69.828125 -96.6875 L 69.828125 0 L 5.375 0 Z M 8.0625 -2.6875 L 67.140625 -2.6875 L 67.140625 -94 L 8.0625 -94 Z M 8.0625 -2.6875 "/>
</symbol>
<symbol overflow="visible" id="syriac-fin2:id1:glyph0-1">
<path style="stroke:none;" d="M 68.15625 -13.75 L 66.28125 -18.640625 L 88.09375 -27.390625 L 6.984375 -27.390625 L 6.984375 -34 L 88.09375 -34 L 66.28125 -42.75 L 68.15625 -47.640625 L 99.09375 -34.265625 L 99.09375 -27.125 Z M 68.15625 -13.75 "/>
</symbol>
</g>
<g>
<symbol overflow="visible" id="syriac-fin2:id2:glyph0-0">
<path style="stroke:none;" d="M 6.875 0 L 6.875 -83.796875 L 48.125 -83.796875 L 48.125 0 Z M 13.75 -6.875 L 41.25 -6.875 L 41.25 -76.921875 L 13.75 -76.921875 Z M 13.75 -6.875 "/>
</symbol>
<symbol overflow="visible" id="syriac-fin2:id2:glyph0-1">
<path style="stroke:none;" d="M 18.796875 -17.515625 C 18.796875 -7.660156 16.179688 -0.800781 10.953125 3.0625 C 8.628906 4.78125 6.769531 5.640625 5.375 5.640625 C 5.050781 5.640625 4.582031 5.585938 3.96875 5.484375 C 5.476562 3.515625 7.289062 0.0546875 9.40625 -4.890625 C 9.757812 -5.710938 9.9375 -9.921875 9.9375 -17.515625 L 9.9375 -54.890625 C 9.9375 -55.753906 11.222656 -57.257812 13.796875 -59.40625 C 15.660156 -60.945312 17.039062 -61.71875 17.9375 -61.71875 C 18.507812 -61.71875 18.796875 -60.785156 18.796875 -58.921875 Z M 18.796875 -17.515625 "/>
</symbol>
<symbol overflow="visible" id="syriac-fin2:id2:glyph0-2">
<path style="stroke:none;" d="M 61.984375 0 L 57.953125 0 C 49.679688 0 42.34375 -3.648438 35.9375 -10.953125 C 32.175781 -15.253906 27.695312 -22.539062 22.5 -32.8125 L 22.5 -32.390625 C 22.46875 -31.816406 22.566406 -30.960938 22.796875 -29.828125 C 23.035156 -28.703125 23.15625 -27.875 23.15625 -27.34375 C 23.15625 -21.039062 21.398438 -15.5625 17.890625 -10.90625 C 18.710938 -11.007812 19.515625 -11.0625 20.296875 -11.0625 C 24.128906 -11.0625 27.515625 -9.71875 30.453125 -7.03125 C 32.523438 -5.132812 33.5625 -3.414062 33.5625 -1.875 C 33.5625 1.019531 32.957031 3.597656 31.75 5.859375 C 31.53125 6.253906 31.023438 6.429688 30.234375 6.390625 L 24.5 1.609375 C 21.664062 -0.503906 19.425781 -1.5625 17.78125 -1.5625 C 15.445312 -1.5625 12.347656 -0.234375 8.484375 2.421875 C 7.585938 2.453125 7.050781 2.09375 6.875 1.34375 L 6.875 -0.90625 C 7.050781 -1.34375 7.910156 -2.757812 9.453125 -5.15625 C 14.328125 -12.820312 16.765625 -19.710938 16.765625 -25.828125 C 16.765625 -27.484375 16.441406 -31.367188 15.796875 -37.484375 C 15.109375 -43.859375 14.601562 -47.132812 14.28125 -47.3125 L 18.6875 -49.890625 C 18.90625 -50.003906 19.5 -50.546875 20.46875 -51.515625 C 21.21875 -52.265625 21.878906 -52.640625 22.453125 -52.640625 C 22.773438 -52.640625 23.273438 -51.332031 23.953125 -48.71875 C 25.023438 -44.632812 26.097656 -41.195312 27.171875 -38.40625 C 30.179688 -30.457031 34.03125 -23.90625 38.71875 -18.75 C 44.664062 -12.15625 51.164062 -8.859375 58.21875 -8.859375 L 61.984375 -8.859375 Z M 61.984375 0 "/>
</symbol>
<symbol overflow="visible" id="syriac-fin2:id2:glyph0-3">
<path style="stroke:none;" d="M 43.453125 -11.21875 C 43.453125 -9.863281 42.484375 -8.039062 40.546875 -5.75 C 38.941406 -3.8125 37.367188 -2.328125 35.828125 -1.296875 C 34.578125 -0.429688 32.550781 0 29.75 0 L -4.9375 0 L -4.9375 -8.859375 L 30.40625 -8.859375 C 32.195312 -8.859375 33.195312 -9.34375 33.40625 -10.3125 C 33.445312 -10.488281 33.394531 -10.828125 33.25 -11.328125 C 32.53125 -14.160156 29.039062 -16.703125 22.78125 -18.953125 C 17.40625 -20.929688 12.910156 -21.921875 9.296875 -21.921875 C 4.710938 -21.921875 2.203125 -21.613281 1.765625 -21 L 0.8125 -20.671875 L 0.640625 -20.890625 C 0.640625 -21.828125 1.445312 -23.691406 3.0625 -26.484375 C 4.75 -29.421875 7.578125 -30.890625 11.546875 -30.890625 C 17.378906 -30.890625 24.773438 -28.628906 33.734375 -24.109375 C 35.984375 -22.960938 38.113281 -21.15625 40.125 -18.6875 C 42.34375 -15.96875 43.453125 -13.476562 43.453125 -11.21875 Z M 43.453125 -11.21875 "/>
</symbol>
</g>
</defs>
  <g id="syriac-fin2:id0:id0" transform="matrix(1.25,0,0,1.25,0.0,21.0546875)"><g id="syriac-fin2:id0:surface1">
<g style="fill:rgb(0%,0%,0%);fill-opacity:1;">
  <use xlink:href="#syriac-fin2:id0:glyph0-1" x="16" y="85.796875" class="c2"/>
  <use xlink:href="#syriac-fin2:id0:glyph0-2" x="40.96875" y="85.796875" class="c1"/>
  <use xlink:href="#syriac-fin2:id0:glyph0-3" x="102.953125" y="85.796875" class="c0"/>
</g>
</g>
</g>
  <g id="syriac-fin2:id1:id1" transform="matrix(1.25,0,0,1.25,202.0703125,0.0)"><g id="syriac-fin2:id1:surface1">
<g style="fill:rgb(0%,0%,0%);fill-opacity:1;">
  <use xlink:href="#syriac-fin2:id1:glyph0-1" x="0" y="120.84375" class="arrow"/>
</g>
</g>
</g>
  <g id="syriac-fin2:id2:id2" transform="matrix(1.25,0,0,1.25,334.66796875,21.0546875)"><g id="syriac-fin2:id2:surface1">
<g style="fill:rgb(0%,0%,0%);fill-opacity:1;">
  <use xlink:href="#syriac-fin2:id2:glyph0-1" x="16" y="85.796875" class="c2"/>
  <use xlink:href="#syriac-fin2:id2:glyph0-2" x="34.796875" y="85.796875" class="c1"/>
  <use xlink:href="#syriac-fin2:id2:glyph0-3" x="96.78125" y="85.796875" class="c0"/>
</g>
</g>
</g>
</svg>
