<!DOCTYPE svg PUBLIC "-//W3C//DTD SVG 1.1//EN" "http://www.w3.org/Graphics/SVG/1.1/DTD/svg11.dtd">
<!-- Created with svg_stack (http://github.com/astraw/svg_stack) --><svg xmlns="http://www.w3.org/2000/svg" xmlns:sodipodi="http://sodipodi.sourceforge.net/DTD/sodipodi-0.dtd" xmlns:xlink="http://www.w3.org/1999/xlink" version="1.1" width="484.453125" height="201.40625" id="syriac-fin2">
  <defs><g>
<symbol overflow="visible" id="syriac-fin2:id0:glyph0-0">
<path style="stroke:none;" d="M 55.546875 -78.546875 L 55.546875 0 L 10.34375 0 L 10.34375 -78.546875 Z M 49.9375 -72.9375 L 15.953125 -72.9375 L 15.953125 -5.609375 L 49.9375 -5.609375 Z M 49.9375 -72.9375 "/>
</symbol>
<symbol overflow="visible" id="syriac-fin2:id0:glyph0-1">
<path style="stroke:none;" d="M 15.1875 -74.796875 C 19.070312 -71.640625 21.707031 -68.46875 23.09375 -65.28125 C 24.488281 -62.09375 25.1875 -58.59375 25.1875 -54.78125 C 25.1875 -52.0625 24.851562 -49.050781 24.1875 -45.75 C 23.53125 -42.457031 22.140625 -38.0625 20.015625 -32.5625 C 18.109375 -27.425781 16.914062 -23.375 16.4375 -20.40625 C 15.96875 -17.4375 15.734375 -14.816406 15.734375 -12.546875 C 15.734375 -9.828125 15.929688 -7.070312 16.328125 -4.28125 C 16.734375 -1.5 17.671875 1.867188 19.140625 5.828125 L 13.53125 9.90625 L 12.09375 9.90625 C 10.257812 6.53125 9.03125 2.957031 8.40625 -0.8125 C 7.789062 -4.59375 7.484375 -8.097656 7.484375 -11.328125 C 7.484375 -18.878906 9.351562 -27.054688 13.09375 -35.859375 C 14.5625 -39.304688 15.640625 -42.492188 16.328125 -45.421875 C 17.023438 -48.359375 17.375 -51.070312 17.375 -53.5625 C 17.375 -56.71875 16.710938 -59.320312 15.390625 -61.375 C 14.078125 -63.425781 12.0625 -65.8125 9.34375 -68.53125 L 14.625 -74.796875 Z M 15.1875 -74.796875 "/>
</symbol>
<symbol overflow="visible" id="syriac-fin2:id0:glyph0-2">
<path style="stroke:none;" d="M 61.8125 -30.6875 C 60.863281 -28.78125 59.488281 -26.597656 57.6875 -24.140625 C 55.894531 -21.679688 54.15625 -19.425781 52.46875 -17.375 C 51.289062 -12.09375 48.554688 -7.875 44.265625 -4.71875 C 39.984375 -1.570312 34.757812 0 28.59375 0 C 23.90625 0 19.78125 -0.988281 16.21875 -2.96875 C 12.664062 -4.945312 9.898438 -7.675781 7.921875 -11.15625 C 5.941406 -14.644531 4.953125 -18.660156 4.953125 -23.203125 C 4.953125 -27.828125 5.976562 -31.84375 8.03125 -35.25 C 10.082031 -38.664062 12.832031 -41.289062 16.28125 -43.125 C 19.726562 -44.957031 23.503906 -45.875 27.609375 -45.875 C 33.910156 -45.875 39.222656 -44.296875 43.546875 -41.140625 C 47.878906 -37.984375 50.671875 -33.800781 51.921875 -28.59375 L 52.25 -28.59375 C 53.71875 -30.5 55.144531 -32.71875 56.53125 -35.25 C 57.925781 -37.78125 59.210938 -40.21875 60.390625 -42.5625 L 66.65625 -43.890625 C 67.539062 -41.984375 68.289062 -39.742188 68.90625 -37.171875 C 69.53125 -34.609375 70.007812 -32.003906 70.34375 -29.359375 C 70.675781 -26.722656 70.84375 -24.304688 70.84375 -22.109375 C 70.84375 -17.785156 70.65625 -13.753906 70.28125 -10.015625 C 69.914062 -6.273438 69.222656 -2.679688 68.203125 0.765625 L 61.15625 -0.4375 C 61.59375 -2.5625 62.050781 -5.550781 62.53125 -9.40625 C 63.007812 -13.257812 63.25 -17.054688 63.25 -20.796875 C 63.25 -22.992188 63.140625 -25.023438 62.921875 -26.890625 C 62.703125 -28.765625 62.484375 -30.066406 62.265625 -30.796875 Z M 29.703125 -8.359375 C 32.410156 -8.359375 34.921875 -8.890625 37.234375 -9.953125 C 39.546875 -11.015625 41.414062 -12.628906 42.84375 -14.796875 C 44.269531 -16.960938 44.984375 -19.65625 44.984375 -22.875 C 44.984375 -27.207031 43.425781 -30.785156 40.3125 -33.609375 C 37.195312 -36.429688 32.960938 -37.84375 27.609375 -37.84375 C 23.578125 -37.84375 20.113281 -36.578125 17.21875 -34.046875 C 14.320312 -31.515625 12.875 -28.085938 12.875 -23.765625 C 12.875 -19.429688 14.335938 -15.78125 17.265625 -12.8125 C 20.203125 -9.84375 24.347656 -8.359375 29.703125 -8.359375 Z M 29.703125 -8.359375 "/>
</symbol>
</g>
<g>
<symbol overflow="visible" id="syriac-fin2:id1:glyph0-0">
<path style="stroke:none;" d="M 5.375 -96.6875 L 69.828125 -96.6875 L 69.828125 0 L 5.375 0 Z M 8.0625 -2.6875 L 67.140625 -2.6875 L 67.140625 -94 L 8.0625 -94 Z M 8.0625 -2.6875 "/>
</symbol>
<symbol overflow="visible" id="syriac-fin2:id1:glyph0-1">
<path style="stroke:none;" d="M 68.15625 -13.75 L 66.28125 -18.640625 L 88.09375 -27.390625 L 6.984375 -27.390625 L 6.984375 -34 L 88.09375 -34 L 66.28125 -42.75 L 68.15625 -47.640625 L 99.09375 -34.265625 L 99.09375 -27.125 Z M 68.15625 -13.75 "/>
</symbol>
</g>
<g>
<symbol overflow="visible" id="syriac-fin2:id2:glyph0-0">
<path style="stroke:none;" d="M 55.546875 -78.546875 L 55.546875 0 L 10.34375 0 L 10.34375 -78.546875 Z M 49.9375 -72.9375 L 15.953125 -72.9375 L 15.953125 -5.609375 L 49.9375 -5.609375 Z M 49.9375 -72.9375 "/>
</symbol>
<symbol overflow="visible" id="syriac-fin2:id2:glyph0-1">
<path style="stroke:none;" d="M 18.265625 -15.625 C 18.265625 -9.53125 17.859375 -4.285156 17.046875 0.109375 C 16.242188 4.503906 14.890625 7.914062 12.984375 10.34375 L 6.375 7.046875 C 7.476562 5.140625 8.394531 2.296875 9.125 -1.484375 C 9.863281 -5.265625 10.234375 -9.941406 10.234375 -15.515625 L 10.234375 -74.140625 L 18.265625 -74.140625 Z M 18.265625 -15.625 "/>
</symbol>
<symbol overflow="visible" id="syriac-fin2:id2:glyph0-2">
<path style="stroke:none;" d="M 61.8125 -30.6875 C 60.863281 -28.78125 59.488281 -26.597656 57.6875 -24.140625 C 55.894531 -21.679688 54.15625 -19.425781 52.46875 -17.375 C 51.289062 -12.09375 48.554688 -7.875 44.265625 -4.71875 C 39.984375 -1.570312 34.757812 0 28.59375 0 C 23.90625 0 19.78125 -0.988281 16.21875 -2.96875 C 12.664062 -4.945312 9.898438 -7.675781 7.921875 -11.15625 C 5.941406 -14.644531 4.953125 -18.660156 4.953125 -23.203125 C 4.953125 -27.828125 5.976562 -31.84375 8.03125 -35.25 C 10.082031 -38.664062 12.832031 -41.289062 16.28125 -43.125 C 19.726562 -44.957031 23.503906 -45.875 27.609375 -45.875 C 33.910156 -45.875 39.222656 -44.296875 43.546875 -41.140625 C 47.878906 -37.984375 50.671875 -33.800781 51.921875 -28.59375 L 52.25 -28.59375 C 53.71875 -30.5 55.144531 -32.71875 56.53125 -35.25 C 57.925781 -37.78125 59.210938 -40.21875 60.390625 -42.5625 L 66.65625 -43.890625 C 67.539062 -41.984375 68.289062 -39.742188 68.90625 -37.171875 C 69.53125 -34.609375 70.007812 -32.003906 70.34375 -29.359375 C 70.675781 -26.722656 70.84375 -24.304688 70.84375 -22.109375 C 70.84375 -17.785156 70.65625 -13.753906 70.28125 -10.015625 C 69.914062 -6.273438 69.222656 -2.679688 68.203125 0.765625 L 61.15625 -0.4375 C 61.59375 -2.5625 62.050781 -5.550781 62.53125 -9.40625 C 63.007812 -13.257812 63.25 -17.054688 63.25 -20.796875 C 63.25 -22.992188 63.140625 -25.023438 62.921875 -26.890625 C 62.703125 -28.765625 62.484375 -30.066406 62.265625 -30.796875 Z M 29.703125 -8.359375 C 32.410156 -8.359375 34.921875 -8.890625 37.234375 -9.953125 C 39.546875 -11.015625 41.414062 -12.628906 42.84375 -14.796875 C 44.269531 -16.960938 44.984375 -19.65625 44.984375 -22.875 C 44.984375 -27.207031 43.425781 -30.785156 40.3125 -33.609375 C 37.195312 -36.429688 32.960938 -37.84375 27.609375 -37.84375 C 23.578125 -37.84375 20.113281 -36.578125 17.21875 -34.046875 C 14.320312 -31.515625 12.875 -28.085938 12.875 -23.765625 C 12.875 -19.429688 14.335938 -15.78125 17.265625 -12.8125 C 20.203125 -9.84375 24.347656 -8.359375 29.703125 -8.359375 Z M 29.703125 -8.359375 "/>
</symbol>
</g>
</defs>
  <g id="syriac-fin2:id0:id0" transform="matrix(1.25,0,0,1.25,0.0,1.1328125)"><g id="syriac-fin2:id0:surface1">
<g style="fill:rgb(0%,0%,0%);fill-opacity:1;">
  <use xlink:href="#syriac-fin2:id0:glyph0-1" x="16" y="103.859375" class="c1"/>
  <use xlink:href="#syriac-fin2:id0:glyph0-2" x="48.125" y="103.859375" class="c0"/>
</g>
</g>
</g>
  <g id="syriac-fin2:id1:id1" transform="matrix(1.25,0,0,1.25,178.75,0.0)"><g id="syriac-fin2:id1:surface1">
<g style="fill:rgb(0%,0%,0%);fill-opacity:1;">
  <use xlink:href="#syriac-fin2:id1:glyph0-1" x="0" y="120.84375" class="arrow"/>
</g>
</g>
</g>
  <g id="syriac-fin2:id2:id2" transform="matrix(1.25,0,0,1.25,311.34765625,1.1328125)"><g id="syriac-fin2:id2:surface1">
<g style="fill:rgb(0%,0%,0%);fill-opacity:1;">
  <use xlink:href="#syriac-fin2:id2:glyph0-1" x="16" y="103.859375" class="c1"/>
  <use xlink:href="#syriac-fin2:id2:glyph0-2" x="43.609375" y="103.859375" class="c0"/>
</g>
</g>
</g>
</svg>
