<?xml version="1.0" standalone="no"?>
<!DOCTYPE svg PUBLIC "-//W3C//DTD SVG 1.1//EN"
 "http://www.w3.org/Graphics/SVG/1.1/DTD/svg11.dtd">
<!-- Created with svg_stack (http://github.com/astraw/svg_stack) -->
<svg xmlns="http://www.w3.org/2000/svg" xmlns:sodipodi="http://sodipodi.sourceforge.net/DTD/sodipodi-0.dtd" xmlns:xlink="http://www.w3.org/1999/xlink" version="1.1" width="820.60546875" height="201.40625">
  <defs><g>
<symbol overflow="visible" id="id0:glyph0-0">
<path style="stroke:none;" d="M 55.546875 -78.546875 L 55.546875 0 L 10.34375 0 L 10.34375 -78.546875 Z M 49.9375 -72.9375 L 15.953125 -72.9375 L 15.953125 -5.609375 L 49.9375 -5.609375 Z M 49.9375 -72.9375 "/>
</symbol>
<symbol overflow="visible" id="id0:glyph0-1">
<path style="stroke:none;" d="M 15.515625 7.375 L 14.296875 7.375 L 7.921875 0 L 6.484375 -0.65625 L 6.484375 -8.359375 L 9.125 -8.359375 C 13.3125 -15.109375 16.375 -21.34375 18.3125 -27.0625 C 20.257812 -32.78125 21.234375 -38.535156 21.234375 -44.328125 C 21.234375 -49.242188 20.425781 -52.691406 18.8125 -54.671875 L 10.78125 -58.296875 L 14.625 -66.109375 C 19.46875 -65.671875 23.097656 -63.875 25.515625 -60.71875 C 27.941406 -57.5625 29.15625 -52.28125 29.15625 -44.875 C 29.15625 -38.207031 28.109375 -31.847656 26.015625 -25.796875 C 23.921875 -19.742188 21.148438 -14.003906 17.703125 -8.578125 L 17.703125 -8.140625 C 19.097656 -8.210938 20.507812 -8.265625 21.9375 -8.296875 C 23.375 -8.335938 24.789062 -8.359375 26.1875 -8.359375 L 39.15625 -8.359375 L 39.15625 0 L 15.625 0 Z M 15.515625 7.375 "/>
</symbol>
<symbol overflow="visible" id="id0:glyph0-2">
<path style="stroke:none;" d="M 2.96875 -80.296875 L -4.84375 -70.625 L -8.140625 -73.046875 L -0.328125 -82.828125 Z M 6.8125 -69.296875 L -0.984375 -59.625 L -4.296875 -62.046875 L 3.515625 -71.828125 Z M 6.8125 -69.296875 "/>
</symbol>
<symbol overflow="visible" id="id0:glyph0-3">
<path style="stroke:none;" d="M 0 0 C -1.175781 0 -2.1875 -0.363281 -3.03125 -1.09375 C -3.875 -1.832031 -4.296875 -2.863281 -4.296875 -4.1875 C -4.296875 -5.425781 -3.875 -6.429688 -3.03125 -7.203125 C -2.1875 -7.972656 -1.175781 -8.359375 0 -8.359375 L 34.3125 -8.359375 C 32.332031 -11.585938 31.34375 -15.582031 31.34375 -20.34375 C 31.34375 -20.9375 31.34375 -21.488281 31.34375 -22 C 31.34375 -22.507812 31.378906 -23.023438 31.453125 -23.546875 L 21.453125 -31.015625 C 16.828125 -34.460938 12.972656 -37.523438 9.890625 -40.203125 C 6.816406 -42.878906 4.472656 -45.023438 2.859375 -46.640625 L 8.25 -52.796875 C 9.570312 -51.472656 11.3125 -49.820312 13.46875 -47.84375 C 15.632812 -45.863281 18.914062 -43.1875 23.3125 -39.8125 L 33.65625 -32.015625 C 34.90625 -34.941406 36.628906 -37.503906 38.828125 -39.703125 C 42.859375 -43.597656 47.957031 -45.546875 54.125 -45.546875 C 57.5 -45.546875 60.484375 -44.9375 63.078125 -43.71875 C 65.679688 -42.507812 68.007812 -40.734375 70.0625 -38.390625 C 74.101562 -33.691406 76.125 -27.675781 76.125 -20.34375 C 76.125 -13.75 74.160156 -8.617188 70.234375 -4.953125 C 66.304688 -1.285156 60.789062 0.546875 53.6875 0.546875 C 49.9375 0.546875 46.6875 0.0703125 43.9375 -0.875 C 41.1875 -1.832031 38.859375 -3.226562 36.953125 -5.0625 L 36.734375 -5.0625 L 34.765625 0 Z M 68.3125 -20.5625 C 68.3125 -25.625 66.972656 -29.734375 64.296875 -32.890625 C 61.617188 -36.046875 58.082031 -37.625 53.6875 -37.625 C 49.28125 -37.625 45.71875 -35.988281 43 -32.71875 C 40.289062 -29.457031 38.9375 -25.40625 38.9375 -20.5625 C 38.9375 -16.238281 40.128906 -12.941406 42.515625 -10.671875 C 44.898438 -8.398438 48.625 -7.265625 53.6875 -7.265625 C 58.738281 -7.265625 62.4375 -8.398438 64.78125 -10.671875 C 67.132812 -12.941406 68.3125 -16.238281 68.3125 -20.5625 Z M 68.3125 -20.5625 "/>
</symbol>
<symbol overflow="visible" id="id0:glyph0-4">
<path style="stroke:none;" d="M 7.59375 34.4375 L 20.125 34.4375 C 22.476562 34.4375 25.101562 34.523438 28 34.703125 C 30.894531 34.890625 33.914062 35.164062 37.0625 35.53125 L 37.1875 35.09375 C 29.113281 31.9375 22.398438 26.398438 17.046875 18.484375 C 11.765625 10.628906 9.125 2.195312 9.125 -6.8125 C 9.125 -9.3125 9.253906 -11.710938 9.515625 -14.015625 C 9.773438 -16.328125 10.304688 -18.695312 11.109375 -21.125 L 18.15625 -21.34375 C 18.59375 -19.144531 19.46875 -17.050781 20.78125 -15.0625 C 22.101562 -13.082031 23.769531 -11.46875 25.78125 -10.21875 C 27.800781 -8.976562 30.023438 -8.359375 32.453125 -8.359375 C 35.753906 -8.359375 38.46875 -9.363281 40.59375 -11.375 C 42.71875 -13.394531 44.367188 -16.679688 45.546875 -21.234375 L 52.03125 -21.234375 L 54.5625 -14.953125 C 56.394531 -10.554688 58.59375 -8.359375 61.15625 -8.359375 L 61.15625 0 C 58.226562 0 55.847656 -0.710938 54.015625 -2.140625 C 52.179688 -3.578125 50.53125 -5.796875 49.0625 -8.796875 C 48.914062 -9.160156 48.734375 -9.546875 48.515625 -9.953125 C 48.296875 -10.359375 48.109375 -10.742188 47.953125 -11.109375 L 47.515625 -11.109375 C 46.046875 -7.078125 44.082031 -4.21875 41.625 -2.53125 C 39.175781 -0.84375 35.9375 0 31.90625 0 C 28.164062 0 24.878906 -1.113281 22.046875 -3.34375 C 19.222656 -5.582031 17.226562 -8.570312 16.0625 -12.3125 L 15.734375 -12.203125 C 15.804688 -11.910156 15.859375 -11.582031 15.890625 -11.21875 C 15.929688 -10.851562 15.988281 -10.488281 16.0625 -10.125 C 16.0625 -1.101562 19.007812 7.347656 24.90625 15.234375 C 30.8125 23.117188 39.335938 29.847656 50.484375 35.421875 L 48.953125 41.90625 L 7.59375 41.90625 Z M 7.59375 34.4375 "/>
</symbol>
<symbol overflow="visible" id="id0:glyph0-5">
<path style="stroke:none;" d="M -1.4375 -85.6875 L -9.453125 -85.6875 L -9.453125 -89.4375 L 10.671875 -89.4375 L 10.671875 -85.6875 L 2.640625 -85.6875 L 2.640625 9.90625 L -1.4375 9.90625 Z M -1.4375 -85.6875 "/>
</symbol>
<symbol overflow="visible" id="id0:glyph0-6">
<path style="stroke:none;" d="M -0.875 11.984375 C -1.25 12.796875 -1.875 13.203125 -2.75 13.203125 C -3.257812 13.203125 -3.734375 13.035156 -4.171875 12.703125 C -4.617188 12.367188 -4.84375 11.945312 -4.84375 11.4375 C -4.84375 11 -4.734375 10.523438 -4.515625 10.015625 L -1.203125 2.203125 C -0.835938 1.390625 -0.21875 0.984375 0.65625 0.984375 C 1.175781 0.984375 1.65625 1.128906 2.09375 1.421875 C 2.53125 1.722656 2.75 2.164062 2.75 2.75 C 2.75 3.113281 2.640625 3.59375 2.421875 4.1875 Z M -0.875 11.984375 "/>
</symbol>
<symbol overflow="visible" id="id0:glyph0-7">
<path style="stroke:none;" d="M 1.203125 -61.9375 C 0.835938 -61.125 0.21875 -60.71875 -0.65625 -60.71875 C -1.175781 -60.71875 -1.65625 -60.878906 -2.09375 -61.203125 C -2.53125 -61.535156 -2.75 -61.960938 -2.75 -62.484375 C -2.75 -62.921875 -2.640625 -63.394531 -2.421875 -63.90625 L 0.875 -71.71875 C 1.25 -72.53125 1.875 -72.9375 2.75 -72.9375 C 3.257812 -72.9375 3.734375 -72.785156 4.171875 -72.484375 C 4.617188 -72.191406 4.84375 -71.753906 4.84375 -71.171875 C 4.84375 -70.804688 4.734375 -70.328125 4.515625 -69.734375 Z M 1.203125 -61.9375 "/>
</symbol>
<symbol overflow="visible" id="id0:glyph0-8">
<path style="stroke:none;" d="M 0 0 C -1.175781 0 -2.1875 -0.363281 -3.03125 -1.09375 C -3.875 -1.832031 -4.296875 -2.863281 -4.296875 -4.1875 C -4.296875 -5.425781 -3.875 -6.429688 -3.03125 -7.203125 C -2.1875 -7.972656 -1.175781 -8.359375 0 -8.359375 L 43.5625 -8.359375 L 43.5625 -38.828125 L 27.609375 -38.828125 C 23.359375 -38.828125 19.34375 -38.972656 15.5625 -39.265625 C 11.789062 -39.554688 9.097656 -39.925781 7.484375 -40.375 L 7.484375 -48.1875 C 9.535156 -47.8125 12.394531 -47.492188 16.0625 -47.234375 C 19.726562 -46.984375 23.394531 -46.859375 27.0625 -46.859375 L 51.703125 -46.859375 L 51.703125 -5.9375 L 47.40625 0 Z M 0 0 "/>
</symbol>
</g>
<g>
<symbol overflow="visible" id="id1:glyph0-0">
<path style="stroke:none;" d="M 5.375 -96.6875 L 69.828125 -96.6875 L 69.828125 0 L 5.375 0 Z M 8.0625 -2.6875 L 67.140625 -2.6875 L 67.140625 -94 L 8.0625 -94 Z M 8.0625 -2.6875 "/>
</symbol>
<symbol overflow="visible" id="id1:glyph0-1">
<path style="stroke:none;" d="M 68.15625 -13.75 L 66.28125 -18.640625 L 88.09375 -27.390625 L 6.984375 -27.390625 L 6.984375 -34 L 88.09375 -34 L 66.28125 -42.75 L 68.15625 -47.640625 L 99.09375 -34.265625 L 99.09375 -27.125 Z M 68.15625 -13.75 "/>
</symbol>
</g>
<g>
<symbol overflow="visible" id="id2:glyph0-0">
<path style="stroke:none;" d="M 55.546875 -78.546875 L 55.546875 0 L 10.34375 0 L 10.34375 -78.546875 Z M 49.9375 -72.9375 L 15.953125 -72.9375 L 15.953125 -5.609375 L 49.9375 -5.609375 Z M 49.9375 -72.9375 "/>
</symbol>
<symbol overflow="visible" id="id2:glyph0-1">
<path style="stroke:none;" d="M 15.515625 7.375 L 14.296875 7.375 L 7.921875 0 L 6.484375 -0.65625 L 6.484375 -8.359375 L 9.125 -8.359375 C 13.3125 -15.109375 16.375 -21.34375 18.3125 -27.0625 C 20.257812 -32.78125 21.234375 -38.535156 21.234375 -44.328125 C 21.234375 -49.242188 20.425781 -52.691406 18.8125 -54.671875 L 10.78125 -58.296875 L 14.625 -66.109375 C 19.46875 -65.671875 23.097656 -63.875 25.515625 -60.71875 C 27.941406 -57.5625 29.15625 -52.28125 29.15625 -44.875 C 29.15625 -38.207031 28.109375 -31.847656 26.015625 -25.796875 C 23.921875 -19.742188 21.148438 -14.003906 17.703125 -8.578125 L 17.703125 -8.140625 C 19.097656 -8.210938 20.507812 -8.265625 21.9375 -8.296875 C 23.375 -8.335938 24.789062 -8.359375 26.1875 -8.359375 L 39.15625 -8.359375 L 39.15625 0 L 15.625 0 Z M 15.515625 7.375 "/>
</symbol>
<symbol overflow="visible" id="id2:glyph0-2">
<path style="stroke:none;" d="M 2.96875 -80.296875 L -4.84375 -70.625 L -8.140625 -73.046875 L -0.328125 -82.828125 Z M 6.8125 -69.296875 L -0.984375 -59.625 L -4.296875 -62.046875 L 3.515625 -71.828125 Z M 6.8125 -69.296875 "/>
</symbol>
<symbol overflow="visible" id="id2:glyph0-3">
<path style="stroke:none;" d="M 0 0 C -1.175781 0 -2.1875 -0.363281 -3.03125 -1.09375 C -3.875 -1.832031 -4.296875 -2.863281 -4.296875 -4.1875 C -4.296875 -5.425781 -3.875 -6.429688 -3.03125 -7.203125 C -2.1875 -7.972656 -1.175781 -8.359375 0 -8.359375 L 34.3125 -8.359375 C 32.332031 -11.585938 31.34375 -15.582031 31.34375 -20.34375 C 31.34375 -20.9375 31.34375 -21.488281 31.34375 -22 C 31.34375 -22.507812 31.378906 -23.023438 31.453125 -23.546875 L 21.453125 -31.015625 C 16.828125 -34.460938 12.972656 -37.523438 9.890625 -40.203125 C 6.816406 -42.878906 4.472656 -45.023438 2.859375 -46.640625 L 8.25 -52.796875 C 9.570312 -51.472656 11.3125 -49.820312 13.46875 -47.84375 C 15.632812 -45.863281 18.914062 -43.1875 23.3125 -39.8125 L 33.65625 -32.015625 C 34.90625 -34.941406 36.628906 -37.503906 38.828125 -39.703125 C 42.859375 -43.597656 47.957031 -45.546875 54.125 -45.546875 C 57.5 -45.546875 60.484375 -44.9375 63.078125 -43.71875 C 65.679688 -42.507812 68.007812 -40.734375 70.0625 -38.390625 C 74.101562 -33.691406 76.125 -27.675781 76.125 -20.34375 C 76.125 -13.75 74.160156 -8.617188 70.234375 -4.953125 C 66.304688 -1.285156 60.789062 0.546875 53.6875 0.546875 C 49.9375 0.546875 46.6875 0.0703125 43.9375 -0.875 C 41.1875 -1.832031 38.859375 -3.226562 36.953125 -5.0625 L 36.734375 -5.0625 L 34.765625 0 Z M 68.3125 -20.5625 C 68.3125 -25.625 66.972656 -29.734375 64.296875 -32.890625 C 61.617188 -36.046875 58.082031 -37.625 53.6875 -37.625 C 49.28125 -37.625 45.71875 -35.988281 43 -32.71875 C 40.289062 -29.457031 38.9375 -25.40625 38.9375 -20.5625 C 38.9375 -16.238281 40.128906 -12.941406 42.515625 -10.671875 C 44.898438 -8.398438 48.625 -7.265625 53.6875 -7.265625 C 58.738281 -7.265625 62.4375 -8.398438 64.78125 -10.671875 C 67.132812 -12.941406 68.3125 -16.238281 68.3125 -20.5625 Z M 68.3125 -20.5625 "/>
</symbol>
<symbol overflow="visible" id="id2:glyph0-4">
<path style="stroke:none;" d="M 7.59375 34.4375 L 20.125 34.4375 C 22.476562 34.4375 25.101562 34.523438 28 34.703125 C 30.894531 34.890625 33.914062 35.164062 37.0625 35.53125 L 37.1875 35.09375 C 29.113281 31.9375 22.398438 26.398438 17.046875 18.484375 C 11.765625 10.628906 9.125 2.195312 9.125 -6.8125 C 9.125 -9.3125 9.253906 -11.710938 9.515625 -14.015625 C 9.773438 -16.328125 10.304688 -18.695312 11.109375 -21.125 L 18.15625 -21.34375 C 18.59375 -19.144531 19.46875 -17.050781 20.78125 -15.0625 C 22.101562 -13.082031 23.769531 -11.46875 25.78125 -10.21875 C 27.800781 -8.976562 30.023438 -8.359375 32.453125 -8.359375 C 35.753906 -8.359375 38.46875 -9.363281 40.59375 -11.375 C 42.71875 -13.394531 44.367188 -16.679688 45.546875 -21.234375 L 52.03125 -21.234375 L 54.5625 -14.953125 C 56.394531 -10.554688 58.59375 -8.359375 61.15625 -8.359375 L 61.15625 0 C 58.226562 0 55.847656 -0.710938 54.015625 -2.140625 C 52.179688 -3.578125 50.53125 -5.796875 49.0625 -8.796875 C 48.914062 -9.160156 48.734375 -9.546875 48.515625 -9.953125 C 48.296875 -10.359375 48.109375 -10.742188 47.953125 -11.109375 L 47.515625 -11.109375 C 46.046875 -7.078125 44.082031 -4.21875 41.625 -2.53125 C 39.175781 -0.84375 35.9375 0 31.90625 0 C 28.164062 0 24.878906 -1.113281 22.046875 -3.34375 C 19.222656 -5.582031 17.226562 -8.570312 16.0625 -12.3125 L 15.734375 -12.203125 C 15.804688 -11.910156 15.859375 -11.582031 15.890625 -11.21875 C 15.929688 -10.851562 15.988281 -10.488281 16.0625 -10.125 C 16.0625 -1.101562 19.007812 7.347656 24.90625 15.234375 C 30.8125 23.117188 39.335938 29.847656 50.484375 35.421875 L 48.953125 41.90625 L 7.59375 41.90625 Z M 7.59375 34.4375 "/>
</symbol>
<symbol overflow="visible" id="id2:glyph0-5">
<path style="stroke:none;" d="M -1.4375 -85.6875 L -9.453125 -85.6875 L -9.453125 -89.4375 L 10.671875 -89.4375 L 10.671875 -85.6875 L 2.640625 -85.6875 L 2.640625 9.90625 L -1.4375 9.90625 Z M -1.4375 -85.6875 "/>
</symbol>
<symbol overflow="visible" id="id2:glyph0-6">
<path style="stroke:none;" d="M -0.875 11.984375 C -1.25 12.796875 -1.875 13.203125 -2.75 13.203125 C -3.257812 13.203125 -3.734375 13.035156 -4.171875 12.703125 C -4.617188 12.367188 -4.84375 11.945312 -4.84375 11.4375 C -4.84375 11 -4.734375 10.523438 -4.515625 10.015625 L -1.203125 2.203125 C -0.835938 1.390625 -0.21875 0.984375 0.65625 0.984375 C 1.175781 0.984375 1.65625 1.128906 2.09375 1.421875 C 2.53125 1.722656 2.75 2.164062 2.75 2.75 C 2.75 3.113281 2.640625 3.59375 2.421875 4.1875 Z M -0.875 11.984375 "/>
</symbol>
<symbol overflow="visible" id="id2:glyph0-7">
<path style="stroke:none;" d="M 1.203125 -61.9375 C 0.835938 -61.125 0.21875 -60.71875 -0.65625 -60.71875 C -1.175781 -60.71875 -1.65625 -60.878906 -2.09375 -61.203125 C -2.53125 -61.535156 -2.75 -61.960938 -2.75 -62.484375 C -2.75 -62.921875 -2.640625 -63.394531 -2.421875 -63.90625 L 0.875 -71.71875 C 1.25 -72.53125 1.875 -72.9375 2.75 -72.9375 C 3.257812 -72.9375 3.734375 -72.785156 4.171875 -72.484375 C 4.617188 -72.191406 4.84375 -71.753906 4.84375 -71.171875 C 4.84375 -70.804688 4.734375 -70.328125 4.515625 -69.734375 Z M 1.203125 -61.9375 "/>
</symbol>
<symbol overflow="visible" id="id2:glyph0-8">
<path style="stroke:none;" d="M 0 0 C -1.175781 0 -2.1875 -0.363281 -3.03125 -1.09375 C -3.875 -1.832031 -4.296875 -2.863281 -4.296875 -4.1875 C -4.296875 -5.425781 -3.875 -6.429688 -3.03125 -7.203125 C -2.1875 -7.972656 -1.175781 -8.359375 0 -8.359375 L 43.5625 -8.359375 L 43.5625 -38.828125 L 27.609375 -38.828125 C 23.359375 -38.828125 19.34375 -38.972656 15.5625 -39.265625 C 11.789062 -39.554688 9.097656 -39.925781 7.484375 -40.375 L 7.484375 -48.1875 C 9.535156 -47.8125 12.394531 -47.492188 16.0625 -47.234375 C 19.726562 -46.984375 23.394531 -46.859375 27.0625 -46.859375 L 51.703125 -46.859375 L 51.703125 -5.9375 L 47.40625 0 Z M 0 0 "/>
</symbol>
</g>
</defs>
  <g id="id0:id0" transform="matrix(1.25,0,0,1.25,0.0,1.1328125)"><g id="id0:surface1">
<g style="fill:rgb(0%,0%,0%);fill-opacity:1;">
  <use xlink:href="#id0:glyph0-1" x="16" y="103.859375"/>
  <use xlink:href="#id0:glyph0-2" x="109.28125" y="105.734375"/>
  <use xlink:href="#id0:glyph0-3" x="55.15625" y="103.859375"/>
  <use xlink:href="#id0:glyph0-4" x="138.859375" y="103.859375"/>
  <use xlink:href="#id0:glyph0-5" x="200.015625" y="103.859375"/>
  <use xlink:href="#id0:glyph0-6" x="221.6875" y="114.640625"/>
  <use xlink:href="#id0:glyph0-7" x="228.953125" y="105.734375"/>
  <use xlink:href="#id0:glyph0-8" x="200.015625" y="103.859375"/>
</g>
</g>
</g>
  <g id="id1:id1" transform="matrix(1.25,0,0,1.25,344.00390625,0.0)"><g id="id1:surface1">
<g style="fill:rgb(0%,0%,0%);fill-opacity:1;">
  <use xlink:href="#id1:glyph0-1" x="0" y="120.84375"/>
</g>
</g>
</g>
  <g id="id2:id2" transform="matrix(1.25,0,0,1.25,476.6015625,1.1328125)"><g id="id2:surface1">
<g style="fill:rgb(0%,0%,0%);fill-opacity:1;">
  <use xlink:href="#id2:glyph0-1" x="16" y="103.859375"/>
  <use xlink:href="#id2:glyph0-2" x="109.28125" y="105.734375"/>
  <use xlink:href="#id2:glyph0-3" x="55.15625" y="103.859375"/>
  <use xlink:href="#id2:glyph0-4" x="138.859375" y="103.859375"/>
  <use xlink:href="#id2:glyph0-5" x="200.015625" y="103.859375"/>
  <use xlink:href="#id2:glyph0-6" x="221.6875" y="114.640625"/>
  <use xlink:href="#id2:glyph0-7" x="228.953125" y="105.734375"/>
  <use xlink:href="#id2:glyph0-8" x="200.015625" y="103.859375"/>
</g>
</g>
</g>
</svg>
