<!DOCTYPE svg PUBLIC "-//W3C//DTD SVG 1.1//EN" "http://www.w3.org/Graphics/SVG/1.1/DTD/svg11.dtd">
<!-- Created with svg_stack (http://github.com/astraw/svg_stack) --><svg xmlns="http://www.w3.org/2000/svg" xmlns:sodipodi="http://sodipodi.sourceforge.net/DTD/sodipodi-0.dtd" xmlns:xlink="http://www.w3.org/1999/xlink" version="1.1" width="100%" id="syriac-mark" viewBox="0 0 474.86328125 201.40625">
  <defs><g>
<symbol overflow="visible" id="syriac-mark:id0:glyph0-0">
<path style="stroke:none;" d=""/>
</symbol>
<symbol overflow="visible" id="syriac-mark:id0:glyph0-1">
<path style="stroke:none;" d="M 15.84375 -16.375 C 15.84375 -13.65625 14.113281 -10.503906 10.65625 -6.921875 C 7.207031 -3.347656 3.671875 -1.078125 0.046875 -0.109375 C 2.160156 -1.898438 4.5625 -4.207031 7.25 -7.03125 C 5.957031 -8.5 5.3125 -10.664062 5.3125 -13.53125 C 5.3125 -15.570312 5.867188 -17.4375 6.984375 -19.125 C 8.273438 -21.050781 9.972656 -22.015625 12.078125 -22.015625 C 14.585938 -22.015625 15.84375 -20.132812 15.84375 -16.375 Z M 13.046875 -16.375 C 13.046875 -18.03125 12.597656 -18.859375 11.703125 -18.859375 C 9.304688 -18.859375 8.109375 -17.082031 8.109375 -13.53125 C 8.109375 -11.632812 8.539062 -10.132812 9.40625 -9.03125 C 11.832031 -12.320312 13.046875 -14.769531 13.046875 -16.375 Z M 13.046875 -16.375 "/>
</symbol>
<symbol overflow="visible" id="syriac-mark:id0:glyph0-2">
<path style="stroke:none;" d="M 48.171875 -37.4375 C 48.171875 -35.96875 47.457031 -35.234375 46.03125 -35.234375 C 44.488281 -35.234375 43.71875 -35.96875 43.71875 -37.4375 C 43.71875 -38.90625 44.488281 -39.640625 46.03125 -39.640625 C 47.457031 -39.640625 48.171875 -38.90625 48.171875 -37.4375 Z M 41.515625 -41.78125 C 41.515625 -40.351562 40.800781 -39.640625 39.375 -39.640625 C 37.832031 -39.640625 37.0625 -40.351562 37.0625 -41.78125 C 37.0625 -43.320312 37.832031 -44.09375 39.375 -44.09375 C 40.800781 -44.09375 41.515625 -43.320312 41.515625 -41.78125 Z M 52.6875 -30.78125 C 52.6875 -29.238281 51.914062 -28.46875 50.375 -28.46875 C 48.90625 -28.46875 48.171875 -29.238281 48.171875 -30.78125 C 48.171875 -32.25 48.941406 -32.984375 50.484375 -32.984375 C 51.953125 -32.984375 52.6875 -32.25 52.6875 -30.78125 Z M 33.671875 -43.453125 C 33.671875 -41.953125 32.957031 -41.203125 31.53125 -41.203125 C 30.0625 -41.203125 29.328125 -41.953125 29.328125 -43.453125 C 29.328125 -44.921875 30.0625 -45.65625 31.53125 -45.65625 C 32.957031 -45.65625 33.671875 -44.921875 33.671875 -43.453125 Z M 54.25 -22.9375 C 54.25 -21.46875 53.515625 -20.734375 52.046875 -20.734375 C 50.503906 -20.734375 49.734375 -21.46875 49.734375 -22.9375 C 49.734375 -24.40625 50.503906 -25.140625 52.046875 -25.140625 C 53.515625 -25.140625 54.25 -24.40625 54.25 -22.9375 Z M 25.9375 -41.78125 C 25.9375 -40.351562 25.1875 -39.640625 23.6875 -39.640625 C 22.21875 -39.640625 21.484375 -40.351562 21.484375 -41.78125 C 21.484375 -43.320312 22.21875 -44.09375 23.6875 -44.09375 C 25.1875 -44.09375 25.9375 -43.320312 25.9375 -41.78125 Z M 52.6875 -15.09375 C 52.6875 -13.625 51.914062 -12.890625 50.375 -12.890625 C 48.90625 -12.890625 48.171875 -13.625 48.171875 -15.09375 C 48.171875 -16.632812 48.90625 -17.40625 50.375 -17.40625 C 51.914062 -17.40625 52.6875 -16.632812 52.6875 -15.09375 Z M 19.28125 -37.4375 C 19.28125 -35.96875 18.53125 -35.234375 17.03125 -35.234375 C 15.5625 -35.234375 14.828125 -35.929688 14.828125 -37.328125 C 14.828125 -38.867188 15.5625 -39.640625 17.03125 -39.640625 C 18.53125 -39.640625 19.28125 -38.90625 19.28125 -37.4375 Z M 48.171875 -8.4375 C 48.171875 -6.96875 47.457031 -6.234375 46.03125 -6.234375 C 44.5625 -6.234375 43.828125 -6.96875 43.828125 -8.4375 C 43.828125 -9.976562 44.5625 -10.75 46.03125 -10.75 C 47.457031 -10.75 48.171875 -9.976562 48.171875 -8.4375 Z M 41.515625 -4.078125 C 41.515625 -2.609375 40.800781 -1.875 39.375 -1.875 C 37.90625 -1.875 37.171875 -2.609375 37.171875 -4.078125 C 37.171875 -5.585938 37.90625 -6.34375 39.375 -6.34375 C 40.800781 -6.34375 41.515625 -5.585938 41.515625 -4.078125 Z M 14.828125 -30.78125 C 14.828125 -29.238281 14.128906 -28.46875 12.734375 -28.46875 C 11.222656 -28.46875 10.46875 -29.238281 10.46875 -30.78125 C 10.46875 -32.25 11.1875 -32.984375 12.625 -32.984375 C 14.09375 -32.984375 14.828125 -32.25 14.828125 -30.78125 Z M 13.265625 -22.9375 C 13.265625 -21.46875 12.53125 -20.734375 11.0625 -20.734375 C 9.5625 -20.734375 8.8125 -21.46875 8.8125 -22.9375 C 8.8125 -24.40625 9.5625 -25.140625 11.0625 -25.140625 C 12.53125 -25.140625 13.265625 -24.40625 13.265625 -22.9375 Z M 33.671875 -2.53125 C 33.671875 -0.988281 32.957031 -0.21875 31.53125 -0.21875 C 30.0625 -0.21875 29.328125 -0.988281 29.328125 -2.53125 C 29.328125 -4 30.0625 -4.734375 31.53125 -4.734375 C 32.957031 -4.734375 33.671875 -4 33.671875 -2.53125 Z M 25.9375 -4.1875 C 25.9375 -2.644531 25.1875 -1.875 23.6875 -1.875 C 22.21875 -1.875 21.484375 -2.609375 21.484375 -4.078125 C 21.484375 -5.585938 22.21875 -6.34375 23.6875 -6.34375 C 25.1875 -6.34375 25.9375 -5.625 25.9375 -4.1875 Z M 14.828125 -15.09375 C 14.828125 -13.625 14.09375 -12.890625 12.625 -12.890625 C 11.1875 -12.890625 10.46875 -13.625 10.46875 -15.09375 C 10.46875 -16.632812 11.1875 -17.40625 12.625 -17.40625 C 14.09375 -17.40625 14.828125 -16.632812 14.828125 -15.09375 Z M 19.28125 -8.4375 C 19.28125 -6.96875 18.566406 -6.234375 17.140625 -6.234375 C 15.597656 -6.234375 14.828125 -6.96875 14.828125 -8.4375 C 14.828125 -9.976562 15.5625 -10.75 17.03125 -10.75 C 18.53125 -10.75 19.28125 -9.976562 19.28125 -8.4375 Z M 19.28125 -8.4375 "/>
</symbol>
<symbol overflow="visible" id="syriac-mark:id0:glyph0-3">
<path style="stroke:none;" d="M 77.78125 -16.59375 C 77.78125 -11.363281 76.289062 -7.226562 73.3125 -4.1875 C 70.5625 -1.394531 67.070312 0 62.84375 0 L 21.75 0 C 17.664062 0 14.410156 -0.84375 11.984375 -2.53125 C 9.367188 -4.3125 8.0625 -6.867188 8.0625 -10.203125 C 8.0625 -13.242188 9.007812 -16.679688 10.90625 -20.515625 C 11.625 -16.148438 12.679688 -13.144531 14.078125 -11.5 C 15.898438 -9.28125 19.015625 -8.171875 23.421875 -8.171875 L 30.1875 -8.171875 C 27.71875 -10.460938 26.484375 -13.46875 26.484375 -17.1875 C 26.484375 -21.375 27.878906 -24.578125 30.671875 -26.796875 C 32.960938 -28.628906 35.71875 -29.546875 38.9375 -29.546875 C 42.125 -29.546875 45.0625 -28.5625 47.75 -26.59375 C 49.039062 -25.40625 50.347656 -24.222656 51.671875 -23.046875 C 55.679688 -27.378906 60.265625 -29.546875 65.421875 -29.546875 C 69.503906 -29.546875 72.65625 -28.164062 74.875 -25.40625 C 76.8125 -23.039062 77.78125 -20.101562 77.78125 -16.59375 Z M 70.09375 -13.421875 C 70.09375 -15.785156 69.195312 -17.703125 67.40625 -19.171875 C 65.613281 -20.640625 63.394531 -21.375 60.75 -21.375 C 59.28125 -21.375 57.785156 -20.710938 56.265625 -19.390625 C 54.742188 -18.066406 53.984375 -16.722656 53.984375 -15.359375 C 53.984375 -13.242188 54.910156 -11.453125 56.765625 -9.984375 C 58.304688 -8.773438 59.867188 -8.171875 61.453125 -8.171875 C 67.210938 -8.171875 70.09375 -9.921875 70.09375 -13.421875 Z M 50.59375 -11.609375 C 50.59375 -13.429688 49.484375 -15.414062 47.265625 -17.5625 C 44.648438 -20.101562 41.625 -21.375 38.1875 -21.375 C 34.394531 -21.375 32.5 -19.890625 32.5 -16.921875 C 32.5 -14.410156 33.75 -12.296875 36.25 -10.578125 C 38.539062 -8.972656 41.140625 -8.171875 44.046875 -8.171875 C 45.222656 -8.171875 46.546875 -8.488281 48.015625 -9.125 C 49.734375 -9.882812 50.59375 -10.710938 50.59375 -11.609375 Z M 50.59375 -11.609375 "/>
</symbol>
</g>
<g>
<symbol overflow="visible" id="syriac-mark:id1:glyph0-0">
<path style="stroke:none;" d="M 5.375 -96.6875 L 69.828125 -96.6875 L 69.828125 0 L 5.375 0 Z M 8.0625 -2.6875 L 67.140625 -2.6875 L 67.140625 -94 L 8.0625 -94 Z M 8.0625 -2.6875 "/>
</symbol>
<symbol overflow="visible" id="syriac-mark:id1:glyph0-1">
<path style="stroke:none;" d="M 68.15625 -13.75 L 66.28125 -18.640625 L 88.09375 -27.390625 L 6.984375 -27.390625 L 6.984375 -34 L 88.09375 -34 L 66.28125 -42.75 L 68.15625 -47.640625 L 99.09375 -34.265625 L 99.09375 -27.125 Z M 68.15625 -13.75 "/>
</symbol>
</g>
<g>
<symbol overflow="visible" id="syriac-mark:id2:glyph0-0">
<path style="stroke:none;" d=""/>
</symbol>
<symbol overflow="visible" id="syriac-mark:id2:glyph0-1">
<path style="stroke:none;" d="M 15.84375 -16.375 C 15.84375 -13.65625 14.113281 -10.503906 10.65625 -6.921875 C 7.207031 -3.347656 3.671875 -1.078125 0.046875 -0.109375 C 2.160156 -1.898438 4.5625 -4.207031 7.25 -7.03125 C 5.957031 -8.5 5.3125 -10.664062 5.3125 -13.53125 C 5.3125 -15.570312 5.867188 -17.4375 6.984375 -19.125 C 8.273438 -21.050781 9.972656 -22.015625 12.078125 -22.015625 C 14.585938 -22.015625 15.84375 -20.132812 15.84375 -16.375 Z M 13.046875 -16.375 C 13.046875 -18.03125 12.597656 -18.859375 11.703125 -18.859375 C 9.304688 -18.859375 8.109375 -17.082031 8.109375 -13.53125 C 8.109375 -11.632812 8.539062 -10.132812 9.40625 -9.03125 C 11.832031 -12.320312 13.046875 -14.769531 13.046875 -16.375 Z M 13.046875 -16.375 "/>
</symbol>
<symbol overflow="visible" id="syriac-mark:id2:glyph0-2">
<path style="stroke:none;" d="M 77.78125 -16.59375 C 77.78125 -11.363281 76.289062 -7.226562 73.3125 -4.1875 C 70.5625 -1.394531 67.070312 0 62.84375 0 L 21.75 0 C 17.664062 0 14.410156 -0.84375 11.984375 -2.53125 C 9.367188 -4.3125 8.0625 -6.867188 8.0625 -10.203125 C 8.0625 -13.242188 9.007812 -16.679688 10.90625 -20.515625 C 11.625 -16.148438 12.679688 -13.144531 14.078125 -11.5 C 15.898438 -9.28125 19.015625 -8.171875 23.421875 -8.171875 L 30.1875 -8.171875 C 27.71875 -10.460938 26.484375 -13.46875 26.484375 -17.1875 C 26.484375 -21.375 27.878906 -24.578125 30.671875 -26.796875 C 32.960938 -28.628906 35.71875 -29.546875 38.9375 -29.546875 C 42.125 -29.546875 45.0625 -28.5625 47.75 -26.59375 C 49.039062 -25.40625 50.347656 -24.222656 51.671875 -23.046875 C 55.679688 -27.378906 60.265625 -29.546875 65.421875 -29.546875 C 69.503906 -29.546875 72.65625 -28.164062 74.875 -25.40625 C 76.8125 -23.039062 77.78125 -20.101562 77.78125 -16.59375 Z M 70.09375 -13.421875 C 70.09375 -15.785156 69.195312 -17.703125 67.40625 -19.171875 C 65.613281 -20.640625 63.394531 -21.375 60.75 -21.375 C 59.28125 -21.375 57.785156 -20.710938 56.265625 -19.390625 C 54.742188 -18.066406 53.984375 -16.722656 53.984375 -15.359375 C 53.984375 -13.242188 54.910156 -11.453125 56.765625 -9.984375 C 58.304688 -8.773438 59.867188 -8.171875 61.453125 -8.171875 C 67.210938 -8.171875 70.09375 -9.921875 70.09375 -13.421875 Z M 50.59375 -11.609375 C 50.59375 -13.429688 49.484375 -15.414062 47.265625 -17.5625 C 44.648438 -20.101562 41.625 -21.375 38.1875 -21.375 C 34.394531 -21.375 32.5 -19.890625 32.5 -16.921875 C 32.5 -14.410156 33.75 -12.296875 36.25 -10.578125 C 38.539062 -8.972656 41.140625 -8.171875 44.046875 -8.171875 C 45.222656 -8.171875 46.546875 -8.488281 48.015625 -9.125 C 49.734375 -9.882812 50.59375 -10.710938 50.59375 -11.609375 Z M 50.59375 -11.609375 "/>
</symbol>
</g>
</defs>
  <g id="syriac-mark:id0:id0" transform="matrix(1.25,0,0,1.25,0.0,24.072265625)"><g id="syriac-mark:id0:surface1">
<g style="fill:rgb(0%,0%,0%);fill-opacity:1;">
  <use xlink:href="#syriac-mark:id0:glyph0-1" x="16" y="85.796875" class="c1"/>
  <use xlink:href="#syriac-mark:id0:glyph0-2" x="16" y="85.796875" class="dc"/>
  <use xlink:href="#syriac-mark:id0:glyph0-3" x="70.25" y="85.796875" class="c0"/>
</g>
</g>
</g>
  <g id="syriac-mark:id1:id1" transform="matrix(1.25,0,0,1.25,205.0390625,0.0)"><g id="syriac-mark:id1:surface1">
<g style="fill:rgb(0%,0%,0%);fill-opacity:1;">
  <use xlink:href="#syriac-mark:id1:glyph0-1" x="0" y="120.84375" class="arrow"/>
</g>
</g>
</g>
  <g id="syriac-mark:id2:id2" transform="matrix(1.25,0,0,1.25,337.63671875,24.072265625)"><g id="syriac-mark:id2:surface1">
<g style="fill:rgb(0%,0%,0%);fill-opacity:1;">
  <use xlink:href="#syriac-mark:id2:glyph0-1" x="65.140625" y="46.859375" class="c1"/>
  <use xlink:href="#syriac-mark:id2:glyph0-2" x="16" y="85.796875" class="c0"/>
</g>
</g>
</g>
</svg>
