<?xml version="1.0" standalone="no"?>
<!DOCTYPE svg PUBLIC "-//W3C//DTD SVG 1.1//EN"
 "http://www.w3.org/Graphics/SVG/1.1/DTD/svg11.dtd">
<!-- Created with svg_stack (http://github.com/astraw/svg_stack) -->
<svg xmlns="http://www.w3.org/2000/svg" xmlns:sodipodi="http://sodipodi.sourceforge.net/DTD/sodipodi-0.dtd" xmlns:xlink="http://www.w3.org/1999/xlink" version="1.1" width="456.25" height="201.40625">
  <defs><g>
<symbol overflow="visible" id="id0:glyph0-0">
<path style="stroke:none;" d="M 55.546875 -78.546875 L 55.546875 0 L 10.34375 0 L 10.34375 -78.546875 Z M 49.9375 -72.9375 L 15.953125 -72.9375 L 15.953125 -5.609375 L 49.9375 -5.609375 Z M 49.9375 -72.9375 "/>
</symbol>
<symbol overflow="visible" id="id0:glyph0-1">
<path style="stroke:none;" d="M 44.875 42.234375 C 43.039062 40.109375 40.710938 37.25 37.890625 33.65625 C 35.066406 30.0625 32.039062 26.101562 28.8125 21.78125 C 25.59375 17.457031 22.347656 13.019531 19.078125 8.46875 C 15.816406 3.925781 12.789062 -0.378906 10 -4.453125 C 7.21875 -8.523438 4.910156 -12.0625 3.078125 -15.0625 L 10.234375 -19.6875 C 16.097656 -10.882812 22.53125 -1.554688 29.53125 8.296875 C 36.539062 18.160156 43.859375 27.972656 51.484375 37.734375 Z M 44.875 42.234375 "/>
</symbol>
<symbol overflow="visible" id="id0:glyph0-2">
<path style="stroke:none;" d="M 32.671875 -59.40625 C 33.472656 -59.40625 34.148438 -59.128906 34.703125 -58.578125 C 35.253906 -58.023438 35.53125 -57.347656 35.53125 -56.546875 C 35.53125 -55.804688 35.253906 -55.144531 34.703125 -54.5625 C 34.148438 -53.976562 33.472656 -53.6875 32.671875 -53.6875 C 31.929688 -53.6875 31.269531 -53.976562 30.6875 -54.5625 C 30.101562 -55.144531 29.8125 -55.804688 29.8125 -56.546875 C 29.8125 -57.347656 30.101562 -58.023438 30.6875 -58.578125 C 31.269531 -59.128906 31.929688 -59.40625 32.671875 -59.40625 Z M 23.4375 -57.421875 C 24.238281 -57.421875 24.914062 -57.144531 25.46875 -56.59375 C 26.019531 -56.039062 26.296875 -55.363281 26.296875 -54.5625 C 26.296875 -53.820312 26.019531 -53.160156 25.46875 -52.578125 C 24.914062 -51.992188 24.238281 -51.703125 23.4375 -51.703125 C 22.695312 -51.703125 22.03125 -51.992188 21.4375 -52.578125 C 20.851562 -53.160156 20.5625 -53.820312 20.5625 -54.5625 C 20.5625 -55.363281 20.851562 -56.039062 21.4375 -56.59375 C 22.03125 -57.144531 22.695312 -57.421875 23.4375 -57.421875 Z M 41.90625 -57.421875 C 42.71875 -57.421875 43.394531 -57.144531 43.9375 -56.59375 C 44.488281 -56.039062 44.765625 -55.363281 44.765625 -54.5625 C 44.765625 -53.820312 44.488281 -53.160156 43.9375 -52.578125 C 43.394531 -51.992188 42.71875 -51.703125 41.90625 -51.703125 C 41.175781 -51.703125 40.515625 -51.992188 39.921875 -52.578125 C 39.335938 -53.160156 39.046875 -53.820312 39.046875 -54.5625 C 39.046875 -55.363281 39.335938 -56.039062 39.921875 -56.59375 C 40.515625 -57.144531 41.175781 -57.421875 41.90625 -57.421875 Z M 12.4375 -49.390625 C 12.4375 -50.191406 12.726562 -50.867188 13.3125 -51.421875 C 13.894531 -51.972656 14.554688 -52.25 15.296875 -52.25 C 16.097656 -52.25 16.773438 -51.972656 17.328125 -51.421875 C 17.878906 -50.867188 18.15625 -50.191406 18.15625 -49.390625 C 18.15625 -48.660156 17.878906 -48 17.328125 -47.40625 C 16.773438 -46.820312 16.097656 -46.53125 15.296875 -46.53125 C 14.554688 -46.53125 13.894531 -46.820312 13.3125 -47.40625 C 12.726562 -48 12.4375 -48.660156 12.4375 -49.390625 Z M 47.1875 -49.390625 C 47.1875 -50.191406 47.476562 -50.867188 48.0625 -51.421875 C 48.65625 -51.972656 49.316406 -52.25 50.046875 -52.25 C 50.859375 -52.25 51.535156 -51.972656 52.078125 -51.421875 C 52.628906 -50.867188 52.90625 -50.191406 52.90625 -49.390625 C 52.90625 -48.660156 52.628906 -48 52.078125 -47.40625 C 51.535156 -46.820312 50.859375 -46.53125 50.046875 -46.53125 C 49.316406 -46.53125 48.65625 -46.820312 48.0625 -47.40625 C 47.476562 -48 47.1875 -48.660156 47.1875 -49.390625 Z M 7.265625 -41.25 C 7.265625 -42.050781 7.554688 -42.726562 8.140625 -43.28125 C 8.722656 -43.832031 9.382812 -44.109375 10.125 -44.109375 C 10.925781 -44.109375 11.601562 -43.832031 12.15625 -43.28125 C 12.707031 -42.726562 12.984375 -42.050781 12.984375 -41.25 C 12.984375 -40.519531 12.707031 -39.859375 12.15625 -39.265625 C 11.601562 -38.679688 10.925781 -38.390625 10.125 -38.390625 C 9.382812 -38.390625 8.722656 -38.679688 8.140625 -39.265625 C 7.554688 -39.859375 7.265625 -40.519531 7.265625 -41.25 Z M 52.359375 -41.25 C 52.359375 -42.050781 52.648438 -42.726562 53.234375 -43.28125 C 53.828125 -43.832031 54.488281 -44.109375 55.21875 -44.109375 C 56.03125 -44.109375 56.707031 -43.832031 57.25 -43.28125 C 57.800781 -42.726562 58.078125 -42.050781 58.078125 -41.25 C 58.078125 -40.519531 57.800781 -39.859375 57.25 -39.265625 C 56.707031 -38.679688 56.03125 -38.390625 55.21875 -38.390625 C 54.488281 -38.390625 53.828125 -38.679688 53.234375 -39.265625 C 52.648438 -39.859375 52.359375 -40.519531 52.359375 -41.25 Z M 5.28125 -32.015625 C 5.28125 -32.816406 5.570312 -33.492188 6.15625 -34.046875 C 6.75 -34.597656 7.410156 -34.875 8.140625 -34.875 C 8.941406 -34.875 9.617188 -34.597656 10.171875 -34.046875 C 10.722656 -33.492188 11 -32.816406 11 -32.015625 C 11 -31.273438 10.722656 -30.613281 10.171875 -30.03125 C 9.617188 -29.445312 8.941406 -29.15625 8.140625 -29.15625 C 7.410156 -29.15625 6.75 -29.445312 6.15625 -30.03125 C 5.570312 -30.613281 5.28125 -31.273438 5.28125 -32.015625 Z M 54.34375 -32.015625 C 54.34375 -32.816406 54.632812 -33.492188 55.21875 -34.046875 C 55.800781 -34.597656 56.460938 -34.875 57.203125 -34.875 C 58.003906 -34.875 58.679688 -34.597656 59.234375 -34.046875 C 59.785156 -33.492188 60.0625 -32.816406 60.0625 -32.015625 C 60.0625 -31.273438 59.785156 -30.613281 59.234375 -30.03125 C 58.679688 -29.445312 58.003906 -29.15625 57.203125 -29.15625 C 56.460938 -29.15625 55.800781 -29.445312 55.21875 -30.03125 C 54.632812 -30.613281 54.34375 -31.273438 54.34375 -32.015625 Z M 7.265625 -22.765625 C 7.265625 -23.578125 7.554688 -24.253906 8.140625 -24.796875 C 8.722656 -25.347656 9.382812 -25.625 10.125 -25.625 C 10.925781 -25.625 11.601562 -25.347656 12.15625 -24.796875 C 12.707031 -24.253906 12.984375 -23.578125 12.984375 -22.765625 C 12.984375 -22.035156 12.707031 -21.375 12.15625 -20.78125 C 11.601562 -20.195312 10.925781 -19.90625 10.125 -19.90625 C 9.382812 -19.90625 8.722656 -20.195312 8.140625 -20.78125 C 7.554688 -21.375 7.265625 -22.035156 7.265625 -22.765625 Z M 52.359375 -22.765625 C 52.359375 -23.578125 52.648438 -24.253906 53.234375 -24.796875 C 53.828125 -25.347656 54.488281 -25.625 55.21875 -25.625 C 56.03125 -25.625 56.707031 -25.347656 57.25 -24.796875 C 57.800781 -24.253906 58.078125 -23.578125 58.078125 -22.765625 C 58.078125 -22.035156 57.800781 -21.375 57.25 -20.78125 C 56.707031 -20.195312 56.03125 -19.90625 55.21875 -19.90625 C 54.488281 -19.90625 53.828125 -20.195312 53.234375 -20.78125 C 52.648438 -21.375 52.359375 -22.035156 52.359375 -22.765625 Z M 12.4375 -14.625 C 12.4375 -15.4375 12.726562 -16.113281 13.3125 -16.65625 C 13.894531 -17.207031 14.554688 -17.484375 15.296875 -17.484375 C 16.097656 -17.484375 16.773438 -17.207031 17.328125 -16.65625 C 17.878906 -16.113281 18.15625 -15.4375 18.15625 -14.625 C 18.15625 -13.894531 17.878906 -13.234375 17.328125 -12.640625 C 16.773438 -12.054688 16.097656 -11.765625 15.296875 -11.765625 C 14.554688 -11.765625 13.894531 -12.054688 13.3125 -12.640625 C 12.726562 -13.234375 12.4375 -13.894531 12.4375 -14.625 Z M 47.1875 -14.625 C 47.1875 -15.4375 47.476562 -16.113281 48.0625 -16.65625 C 48.65625 -17.207031 49.316406 -17.484375 50.046875 -17.484375 C 50.859375 -17.484375 51.535156 -17.207031 52.078125 -16.65625 C 52.628906 -16.113281 52.90625 -15.4375 52.90625 -14.625 C 52.90625 -13.894531 52.628906 -13.234375 52.078125 -12.640625 C 51.535156 -12.054688 50.859375 -11.765625 50.046875 -11.765625 C 49.316406 -11.765625 48.65625 -12.054688 48.0625 -12.640625 C 47.476562 -13.234375 47.1875 -13.894531 47.1875 -14.625 Z M 23.4375 -12.3125 C 24.238281 -12.3125 24.914062 -12.035156 25.46875 -11.484375 C 26.019531 -10.941406 26.296875 -10.265625 26.296875 -9.453125 C 26.296875 -8.722656 26.019531 -8.0625 25.46875 -7.46875 C 24.914062 -6.882812 24.238281 -6.59375 23.4375 -6.59375 C 22.695312 -6.59375 22.03125 -6.882812 21.4375 -7.46875 C 20.851562 -8.0625 20.5625 -8.722656 20.5625 -9.453125 C 20.5625 -10.265625 20.851562 -10.941406 21.4375 -11.484375 C 22.03125 -12.035156 22.695312 -12.3125 23.4375 -12.3125 Z M 41.90625 -12.3125 C 42.71875 -12.3125 43.394531 -12.035156 43.9375 -11.484375 C 44.488281 -10.941406 44.765625 -10.265625 44.765625 -9.453125 C 44.765625 -8.722656 44.488281 -8.0625 43.9375 -7.46875 C 43.394531 -6.882812 42.71875 -6.59375 41.90625 -6.59375 C 41.175781 -6.59375 40.515625 -6.882812 39.921875 -7.46875 C 39.335938 -8.0625 39.046875 -8.722656 39.046875 -9.453125 C 39.046875 -10.265625 39.335938 -10.941406 39.921875 -11.484375 C 40.515625 -12.035156 41.175781 -12.3125 41.90625 -12.3125 Z M 32.671875 -10.34375 C 33.472656 -10.34375 34.148438 -10.066406 34.703125 -9.515625 C 35.253906 -8.960938 35.53125 -8.285156 35.53125 -7.484375 C 35.53125 -6.742188 35.253906 -6.082031 34.703125 -5.5 C 34.148438 -4.914062 33.472656 -4.625 32.671875 -4.625 C 31.929688 -4.625 31.269531 -4.914062 30.6875 -5.5 C 30.101562 -6.082031 29.8125 -6.742188 29.8125 -7.484375 C 29.8125 -8.285156 30.101562 -8.960938 30.6875 -9.515625 C 31.269531 -10.066406 31.929688 -10.34375 32.671875 -10.34375 Z M 32.671875 -10.34375 "/>
</symbol>
</g>
<g>
<symbol overflow="visible" id="id1:glyph0-0">
<path style="stroke:none;" d="M 5.375 -96.6875 L 69.828125 -96.6875 L 69.828125 0 L 5.375 0 Z M 8.0625 -2.6875 L 67.140625 -2.6875 L 67.140625 -94 L 8.0625 -94 Z M 8.0625 -2.6875 "/>
</symbol>
<symbol overflow="visible" id="id1:glyph0-1">
<path style="stroke:none;" d="M 68.15625 -13.75 L 66.28125 -18.640625 L 88.09375 -27.390625 L 6.984375 -27.390625 L 6.984375 -34 L 88.09375 -34 L 66.28125 -42.75 L 68.15625 -47.640625 L 99.09375 -34.265625 L 99.09375 -27.125 Z M 68.15625 -13.75 "/>
</symbol>
</g>
<g>
<symbol overflow="visible" id="id2:glyph0-0">
<path style="stroke:none;" d="M 55.546875 -78.546875 L 55.546875 0 L 10.34375 0 L 10.34375 -78.546875 Z M 49.9375 -72.9375 L 15.953125 -72.9375 L 15.953125 -5.609375 L 49.9375 -5.609375 Z M 49.9375 -72.9375 "/>
</symbol>
<symbol overflow="visible" id="id2:glyph0-1">
<path style="stroke:none;" d="M 38.609375 44.546875 C 36.046875 41.691406 33.257812 38.429688 30.25 34.765625 C 27.238281 31.097656 24.210938 27.316406 21.171875 23.421875 C 18.128906 19.535156 15.269531 15.773438 12.59375 12.140625 C 9.914062 8.515625 7.625 5.3125 5.71875 2.53125 C 4.613281 0.84375 3.75 -0.929688 3.125 -2.796875 C 2.507812 -4.671875 2.203125 -6.304688 2.203125 -7.703125 C 2.203125 -9.828125 2.640625 -11.695312 3.515625 -13.3125 C 4.398438 -14.925781 5.757812 -15.734375 7.59375 -15.734375 C 8.613281 -15.734375 9.523438 -15.566406 10.328125 -15.234375 C 11.140625 -14.898438 12.097656 -14.1875 13.203125 -13.09375 C 14.742188 -11.625 15.914062 -10.648438 16.71875 -10.171875 C 17.53125 -9.691406 18.191406 -9.378906 18.703125 -9.234375 C 19.578125 -8.941406 20.582031 -8.722656 21.71875 -8.578125 C 22.863281 -8.429688 24.5 -8.359375 26.625 -8.359375 L 27.71875 -8.359375 L 27.71875 0 L 26.734375 0 C 24.015625 0 21.390625 -0.179688 18.859375 -0.546875 C 16.328125 -0.910156 14.222656 -1.789062 12.546875 -3.1875 L 11.765625 -2.75 C 13.453125 -0.332031 15.578125 2.648438 18.140625 6.203125 C 20.710938 9.765625 23.519531 13.5625 26.5625 17.59375 C 29.601562 21.632812 32.679688 25.632812 35.796875 29.59375 C 38.921875 33.550781 41.875 37.144531 44.65625 40.375 Z M 38.609375 44.546875 "/>
</symbol>
<symbol overflow="visible" id="id2:glyph0-2">
<path style="stroke:none;" d="M 32.671875 -59.40625 C 33.472656 -59.40625 34.148438 -59.128906 34.703125 -58.578125 C 35.253906 -58.023438 35.53125 -57.347656 35.53125 -56.546875 C 35.53125 -55.804688 35.253906 -55.144531 34.703125 -54.5625 C 34.148438 -53.976562 33.472656 -53.6875 32.671875 -53.6875 C 31.929688 -53.6875 31.269531 -53.976562 30.6875 -54.5625 C 30.101562 -55.144531 29.8125 -55.804688 29.8125 -56.546875 C 29.8125 -57.347656 30.101562 -58.023438 30.6875 -58.578125 C 31.269531 -59.128906 31.929688 -59.40625 32.671875 -59.40625 Z M 23.4375 -57.421875 C 24.238281 -57.421875 24.914062 -57.144531 25.46875 -56.59375 C 26.019531 -56.039062 26.296875 -55.363281 26.296875 -54.5625 C 26.296875 -53.820312 26.019531 -53.160156 25.46875 -52.578125 C 24.914062 -51.992188 24.238281 -51.703125 23.4375 -51.703125 C 22.695312 -51.703125 22.03125 -51.992188 21.4375 -52.578125 C 20.851562 -53.160156 20.5625 -53.820312 20.5625 -54.5625 C 20.5625 -55.363281 20.851562 -56.039062 21.4375 -56.59375 C 22.03125 -57.144531 22.695312 -57.421875 23.4375 -57.421875 Z M 41.90625 -57.421875 C 42.71875 -57.421875 43.394531 -57.144531 43.9375 -56.59375 C 44.488281 -56.039062 44.765625 -55.363281 44.765625 -54.5625 C 44.765625 -53.820312 44.488281 -53.160156 43.9375 -52.578125 C 43.394531 -51.992188 42.71875 -51.703125 41.90625 -51.703125 C 41.175781 -51.703125 40.515625 -51.992188 39.921875 -52.578125 C 39.335938 -53.160156 39.046875 -53.820312 39.046875 -54.5625 C 39.046875 -55.363281 39.335938 -56.039062 39.921875 -56.59375 C 40.515625 -57.144531 41.175781 -57.421875 41.90625 -57.421875 Z M 12.4375 -49.390625 C 12.4375 -50.191406 12.726562 -50.867188 13.3125 -51.421875 C 13.894531 -51.972656 14.554688 -52.25 15.296875 -52.25 C 16.097656 -52.25 16.773438 -51.972656 17.328125 -51.421875 C 17.878906 -50.867188 18.15625 -50.191406 18.15625 -49.390625 C 18.15625 -48.660156 17.878906 -48 17.328125 -47.40625 C 16.773438 -46.820312 16.097656 -46.53125 15.296875 -46.53125 C 14.554688 -46.53125 13.894531 -46.820312 13.3125 -47.40625 C 12.726562 -48 12.4375 -48.660156 12.4375 -49.390625 Z M 47.1875 -49.390625 C 47.1875 -50.191406 47.476562 -50.867188 48.0625 -51.421875 C 48.65625 -51.972656 49.316406 -52.25 50.046875 -52.25 C 50.859375 -52.25 51.535156 -51.972656 52.078125 -51.421875 C 52.628906 -50.867188 52.90625 -50.191406 52.90625 -49.390625 C 52.90625 -48.660156 52.628906 -48 52.078125 -47.40625 C 51.535156 -46.820312 50.859375 -46.53125 50.046875 -46.53125 C 49.316406 -46.53125 48.65625 -46.820312 48.0625 -47.40625 C 47.476562 -48 47.1875 -48.660156 47.1875 -49.390625 Z M 7.265625 -41.25 C 7.265625 -42.050781 7.554688 -42.726562 8.140625 -43.28125 C 8.722656 -43.832031 9.382812 -44.109375 10.125 -44.109375 C 10.925781 -44.109375 11.601562 -43.832031 12.15625 -43.28125 C 12.707031 -42.726562 12.984375 -42.050781 12.984375 -41.25 C 12.984375 -40.519531 12.707031 -39.859375 12.15625 -39.265625 C 11.601562 -38.679688 10.925781 -38.390625 10.125 -38.390625 C 9.382812 -38.390625 8.722656 -38.679688 8.140625 -39.265625 C 7.554688 -39.859375 7.265625 -40.519531 7.265625 -41.25 Z M 52.359375 -41.25 C 52.359375 -42.050781 52.648438 -42.726562 53.234375 -43.28125 C 53.828125 -43.832031 54.488281 -44.109375 55.21875 -44.109375 C 56.03125 -44.109375 56.707031 -43.832031 57.25 -43.28125 C 57.800781 -42.726562 58.078125 -42.050781 58.078125 -41.25 C 58.078125 -40.519531 57.800781 -39.859375 57.25 -39.265625 C 56.707031 -38.679688 56.03125 -38.390625 55.21875 -38.390625 C 54.488281 -38.390625 53.828125 -38.679688 53.234375 -39.265625 C 52.648438 -39.859375 52.359375 -40.519531 52.359375 -41.25 Z M 5.28125 -32.015625 C 5.28125 -32.816406 5.570312 -33.492188 6.15625 -34.046875 C 6.75 -34.597656 7.410156 -34.875 8.140625 -34.875 C 8.941406 -34.875 9.617188 -34.597656 10.171875 -34.046875 C 10.722656 -33.492188 11 -32.816406 11 -32.015625 C 11 -31.273438 10.722656 -30.613281 10.171875 -30.03125 C 9.617188 -29.445312 8.941406 -29.15625 8.140625 -29.15625 C 7.410156 -29.15625 6.75 -29.445312 6.15625 -30.03125 C 5.570312 -30.613281 5.28125 -31.273438 5.28125 -32.015625 Z M 54.34375 -32.015625 C 54.34375 -32.816406 54.632812 -33.492188 55.21875 -34.046875 C 55.800781 -34.597656 56.460938 -34.875 57.203125 -34.875 C 58.003906 -34.875 58.679688 -34.597656 59.234375 -34.046875 C 59.785156 -33.492188 60.0625 -32.816406 60.0625 -32.015625 C 60.0625 -31.273438 59.785156 -30.613281 59.234375 -30.03125 C 58.679688 -29.445312 58.003906 -29.15625 57.203125 -29.15625 C 56.460938 -29.15625 55.800781 -29.445312 55.21875 -30.03125 C 54.632812 -30.613281 54.34375 -31.273438 54.34375 -32.015625 Z M 7.265625 -22.765625 C 7.265625 -23.578125 7.554688 -24.253906 8.140625 -24.796875 C 8.722656 -25.347656 9.382812 -25.625 10.125 -25.625 C 10.925781 -25.625 11.601562 -25.347656 12.15625 -24.796875 C 12.707031 -24.253906 12.984375 -23.578125 12.984375 -22.765625 C 12.984375 -22.035156 12.707031 -21.375 12.15625 -20.78125 C 11.601562 -20.195312 10.925781 -19.90625 10.125 -19.90625 C 9.382812 -19.90625 8.722656 -20.195312 8.140625 -20.78125 C 7.554688 -21.375 7.265625 -22.035156 7.265625 -22.765625 Z M 52.359375 -22.765625 C 52.359375 -23.578125 52.648438 -24.253906 53.234375 -24.796875 C 53.828125 -25.347656 54.488281 -25.625 55.21875 -25.625 C 56.03125 -25.625 56.707031 -25.347656 57.25 -24.796875 C 57.800781 -24.253906 58.078125 -23.578125 58.078125 -22.765625 C 58.078125 -22.035156 57.800781 -21.375 57.25 -20.78125 C 56.707031 -20.195312 56.03125 -19.90625 55.21875 -19.90625 C 54.488281 -19.90625 53.828125 -20.195312 53.234375 -20.78125 C 52.648438 -21.375 52.359375 -22.035156 52.359375 -22.765625 Z M 12.4375 -14.625 C 12.4375 -15.4375 12.726562 -16.113281 13.3125 -16.65625 C 13.894531 -17.207031 14.554688 -17.484375 15.296875 -17.484375 C 16.097656 -17.484375 16.773438 -17.207031 17.328125 -16.65625 C 17.878906 -16.113281 18.15625 -15.4375 18.15625 -14.625 C 18.15625 -13.894531 17.878906 -13.234375 17.328125 -12.640625 C 16.773438 -12.054688 16.097656 -11.765625 15.296875 -11.765625 C 14.554688 -11.765625 13.894531 -12.054688 13.3125 -12.640625 C 12.726562 -13.234375 12.4375 -13.894531 12.4375 -14.625 Z M 47.1875 -14.625 C 47.1875 -15.4375 47.476562 -16.113281 48.0625 -16.65625 C 48.65625 -17.207031 49.316406 -17.484375 50.046875 -17.484375 C 50.859375 -17.484375 51.535156 -17.207031 52.078125 -16.65625 C 52.628906 -16.113281 52.90625 -15.4375 52.90625 -14.625 C 52.90625 -13.894531 52.628906 -13.234375 52.078125 -12.640625 C 51.535156 -12.054688 50.859375 -11.765625 50.046875 -11.765625 C 49.316406 -11.765625 48.65625 -12.054688 48.0625 -12.640625 C 47.476562 -13.234375 47.1875 -13.894531 47.1875 -14.625 Z M 23.4375 -12.3125 C 24.238281 -12.3125 24.914062 -12.035156 25.46875 -11.484375 C 26.019531 -10.941406 26.296875 -10.265625 26.296875 -9.453125 C 26.296875 -8.722656 26.019531 -8.0625 25.46875 -7.46875 C 24.914062 -6.882812 24.238281 -6.59375 23.4375 -6.59375 C 22.695312 -6.59375 22.03125 -6.882812 21.4375 -7.46875 C 20.851562 -8.0625 20.5625 -8.722656 20.5625 -9.453125 C 20.5625 -10.265625 20.851562 -10.941406 21.4375 -11.484375 C 22.03125 -12.035156 22.695312 -12.3125 23.4375 -12.3125 Z M 41.90625 -12.3125 C 42.71875 -12.3125 43.394531 -12.035156 43.9375 -11.484375 C 44.488281 -10.941406 44.765625 -10.265625 44.765625 -9.453125 C 44.765625 -8.722656 44.488281 -8.0625 43.9375 -7.46875 C 43.394531 -6.882812 42.71875 -6.59375 41.90625 -6.59375 C 41.175781 -6.59375 40.515625 -6.882812 39.921875 -7.46875 C 39.335938 -8.0625 39.046875 -8.722656 39.046875 -9.453125 C 39.046875 -10.265625 39.335938 -10.941406 39.921875 -11.484375 C 40.515625 -12.035156 41.175781 -12.3125 41.90625 -12.3125 Z M 32.671875 -10.34375 C 33.472656 -10.34375 34.148438 -10.066406 34.703125 -9.515625 C 35.253906 -8.960938 35.53125 -8.285156 35.53125 -7.484375 C 35.53125 -6.742188 35.253906 -6.082031 34.703125 -5.5 C 34.148438 -4.914062 33.472656 -4.625 32.671875 -4.625 C 31.929688 -4.625 31.269531 -4.914062 30.6875 -5.5 C 30.101562 -6.082031 29.8125 -6.742188 29.8125 -7.484375 C 29.8125 -8.285156 30.101562 -8.960938 30.6875 -9.515625 C 31.269531 -10.066406 31.929688 -10.34375 32.671875 -10.34375 Z M 32.671875 -10.34375 "/>
</symbol>
</g>
</defs>
  <g id="id0:id0" transform="matrix(1.25,0,0,1.25,0.0,1.1328125)"><g id="id0:surface1">
<g style="fill:rgb(0%,0%,0%);fill-opacity:1;">
  <use xlink:href="#id0:glyph0-1" x="16" y="103.859375"/>
  <use xlink:href="#id0:glyph0-2" x="52.515625" y="103.859375"/>
</g>
</g>
</g>
  <g id="id1:id1" transform="matrix(1.25,0,0,1.25,167.32421875,0.0)"><g id="id1:surface1">
<g style="fill:rgb(0%,0%,0%);fill-opacity:1;">
  <use xlink:href="#id1:glyph0-1" x="0" y="120.84375"/>
</g>
</g>
</g>
  <g id="id2:id2" transform="matrix(1.25,0,0,1.25,299.921875,1.1328125)"><g id="id2:surface1">
<g style="fill:rgb(0%,0%,0%);fill-opacity:1;">
  <use xlink:href="#id2:glyph0-1" x="16" y="103.859375"/>
  <use xlink:href="#id2:glyph0-2" x="43.71875" y="103.859375"/>
</g>
</g>
</g>
</svg>
