<!DOCTYPE svg PUBLIC "-//W3C//DTD SVG 1.1//EN" "http://www.w3.org/Graphics/SVG/1.1/DTD/svg11.dtd">
<!-- Created with svg_stack (http://github.com/astraw/svg_stack) --><svg xmlns="http://www.w3.org/2000/svg" xmlns:sodipodi="http://sodipodi.sourceforge.net/DTD/sodipodi-0.dtd" xmlns:xlink="http://www.w3.org/1999/xlink" version="1.1" width="100%" id="telugu-abvs" viewBox="0 0 415.0 201.40625">
  <defs><g>
<symbol overflow="visible" id="telugu-abvs:id0:glyph0-0">
<path style="stroke:none;" d="M 10.34375 0 L 10.34375 -78.546875 L 55.546875 -78.546875 L 55.546875 0 Z M 15.953125 -5.609375 L 49.9375 -5.609375 L 49.9375 -72.9375 L 15.953125 -72.9375 Z M 15.953125 -5.609375 "/>
</symbol>
<symbol overflow="visible" id="telugu-abvs:id0:glyph0-1">
<path style="stroke:none;" d="M 57.640625 1.3125 C 53.972656 1.3125 50.632812 0.472656 47.625 -1.203125 C 44.625 -2.890625 41.765625 -5.203125 39.046875 -8.140625 C 36.921875 -5.203125 34.265625 -2.890625 31.078125 -1.203125 C 27.890625 0.472656 24.164062 1.3125 19.90625 1.3125 C 14.039062 1.3125 9.75 -0.113281 7.03125 -2.96875 C 4.320312 -5.832031 2.96875 -9.351562 2.96875 -13.53125 C 2.96875 -16.976562 4.125 -19.925781 6.4375 -22.375 C 8.75 -24.832031 12.503906 -26.0625 17.703125 -26.0625 C 21.296875 -26.0625 24.632812 -25.382812 27.71875 -24.03125 C 30.800781 -22.675781 33.957031 -20.71875 37.1875 -18.15625 C 38.789062 -21.226562 39.59375 -25.148438 39.59375 -29.921875 C 39.59375 -34.316406 38.691406 -37.960938 36.890625 -40.859375 C 35.097656 -43.753906 32.8125 -45.828125 30.03125 -47.078125 C 31.050781 -45.460938 31.5625 -43.484375 31.5625 -41.140625 C 31.5625 -36.890625 30.332031 -33.753906 27.875 -31.734375 C 25.425781 -29.710938 22.257812 -28.703125 18.375 -28.703125 C 14.257812 -28.703125 11.007812 -29.929688 8.625 -32.390625 C 6.25 -34.847656 5.0625 -37.910156 5.0625 -41.578125 C 5.0625 -45.535156 6.472656 -48.757812 9.296875 -51.25 C 12.117188 -53.75 15.988281 -55 20.90625 -55 C 28.675781 -55 34.59375 -52.707031 38.65625 -48.125 C 42.726562 -43.539062 44.765625 -37.144531 44.765625 -28.9375 C 44.765625 -23.582031 43.957031 -18.773438 42.34375 -14.515625 C 44.550781 -13.203125 46.734375 -12.25 48.890625 -11.65625 C 51.054688 -11.070312 53.53125 -10.78125 56.3125 -10.78125 C 61.738281 -10.78125 65.515625 -12.046875 67.640625 -14.578125 C 69.773438 -17.109375 70.84375 -20.644531 70.84375 -25.1875 C 70.84375 -31.269531 68.84375 -36.164062 64.84375 -39.875 C 60.84375 -43.582031 55.140625 -45.800781 47.734375 -46.53125 L 48.40625 -55.4375 C 54.125 -54.925781 59.035156 -53.257812 63.140625 -50.4375 C 67.242188 -47.613281 70.378906 -43.910156 72.546875 -39.328125 C 74.710938 -34.742188 75.796875 -29.519531 75.796875 -23.65625 C 75.796875 -18.8125 75.171875 -14.5 73.921875 -10.71875 C 72.671875 -6.945312 70.707031 -4 68.03125 -1.875 C 65.351562 0.25 61.890625 1.3125 57.640625 1.3125 Z M 11.546875 -40.921875 C 11.546875 -38.578125 12.1875 -36.742188 13.46875 -35.421875 C 14.757812 -34.097656 16.359375 -33.4375 18.265625 -33.4375 C 20.171875 -33.4375 21.835938 -33.984375 23.265625 -35.078125 C 24.691406 -36.179688 25.40625 -38.09375 25.40625 -40.8125 C 25.40625 -43.300781 24.765625 -45.148438 23.484375 -46.359375 C 22.203125 -47.578125 20.609375 -48.1875 18.703125 -48.1875 C 16.578125 -48.1875 14.851562 -47.539062 13.53125 -46.25 C 12.207031 -44.96875 11.546875 -43.191406 11.546875 -40.921875 Z M 9.5625 -15.734375 C 9.5625 -11.398438 12.863281 -9.234375 19.46875 -9.234375 C 25.78125 -9.234375 30.582031 -10.738281 33.875 -13.75 C 31.382812 -15.945312 28.765625 -17.757812 26.015625 -19.1875 C 23.265625 -20.625 20.3125 -21.34375 17.15625 -21.34375 C 14.8125 -21.34375 12.957031 -20.882812 11.59375 -19.96875 C 10.238281 -19.050781 9.5625 -17.640625 9.5625 -15.734375 Z M 33.109375 13.75 L 36.515625 -3.078125 L 41.46875 -3.078125 L 44.875 13.75 Z M 33.109375 13.75 "/>
</symbol>
<symbol overflow="visible" id="telugu-abvs:id0:glyph0-2">
<path style="stroke:none;" d="M -23.546875 -62.484375 C -25.816406 -61.378906 -29.003906 -60.828125 -33.109375 -60.828125 C -36.703125 -60.828125 -39.78125 -61.671875 -42.34375 -63.359375 C -44.914062 -65.046875 -46.203125 -67.722656 -46.203125 -71.390625 C -46.203125 -74.097656 -45.25 -76.367188 -43.34375 -78.203125 C -44.507812 -80.191406 -45.09375 -82.285156 -45.09375 -84.484375 C -45.09375 -87.929688 -43.882812 -90.644531 -41.46875 -92.625 C -39.050781 -94.601562 -35.898438 -95.59375 -32.015625 -95.59375 C -28.347656 -95.59375 -25.410156 -94.875 -23.203125 -93.4375 C -21.003906 -92.007812 -19.375 -90.25 -18.3125 -88.15625 C -17.25 -86.070312 -16.644531 -84.003906 -16.5 -81.953125 L -21.234375 -81.515625 C -21.671875 -83.492188 -22.660156 -85.269531 -24.203125 -86.84375 C -25.742188 -88.414062 -28.238281 -89.203125 -31.6875 -89.203125 C -34.613281 -89.203125 -36.738281 -88.597656 -38.0625 -87.390625 C -39.382812 -86.179688 -40.046875 -84.734375 -40.046875 -83.046875 C -40.046875 -82.171875 -39.894531 -81.363281 -39.59375 -80.625 C -37.320312 -81.65625 -34.644531 -82.171875 -31.5625 -82.171875 C -25.914062 -82.171875 -21.660156 -80.554688 -18.796875 -77.328125 C -15.941406 -74.097656 -14.515625 -70.175781 -14.515625 -65.5625 C -14.515625 -64.019531 -14.769531 -62.347656 -15.28125 -60.546875 C -15.800781 -58.753906 -16.679688 -57.066406 -17.921875 -55.484375 C -19.171875 -53.910156 -20.953125 -52.609375 -23.265625 -51.578125 C -25.578125 -50.554688 -28.492188 -50.046875 -32.015625 -50.046875 C -33.921875 -50.046875 -36.359375 -50.320312 -39.328125 -50.875 C -42.296875 -51.425781 -45.097656 -52.617188 -47.734375 -54.453125 L -44.765625 -59.40625 C -43.148438 -58.15625 -41.28125 -57.109375 -39.15625 -56.265625 C -37.03125 -55.421875 -34.648438 -55 -32.015625 -55 C -27.898438 -55 -24.925781 -55.953125 -23.09375 -57.859375 C -21.257812 -59.765625 -20.34375 -62.113281 -20.34375 -64.90625 C -20.34375 -68.269531 -21.296875 -70.925781 -23.203125 -72.875 C -25.109375 -74.820312 -28.046875 -75.796875 -32.015625 -75.796875 C -34.503906 -75.796875 -36.425781 -75.335938 -37.78125 -74.421875 C -39.132812 -73.503906 -39.8125 -72.273438 -39.8125 -70.734375 C -39.8125 -69.191406 -39.316406 -67.941406 -38.328125 -66.984375 C -37.335938 -66.035156 -35.523438 -65.5625 -32.890625 -65.5625 C -30.691406 -65.5625 -28.945312 -65.722656 -27.65625 -66.046875 C -26.375 -66.378906 -25.332031 -66.691406 -24.53125 -66.984375 Z M -23.546875 -62.484375 "/>
</symbol>
</g>
<g>
<symbol overflow="visible" id="telugu-abvs:id1:glyph0-0">
<path style="stroke:none;" d="M 5.375 -96.6875 L 69.828125 -96.6875 L 69.828125 0 L 5.375 0 Z M 8.0625 -2.6875 L 67.140625 -2.6875 L 67.140625 -94 L 8.0625 -94 Z M 8.0625 -2.6875 "/>
</symbol>
<symbol overflow="visible" id="telugu-abvs:id1:glyph0-1">
<path style="stroke:none;" d="M 68.15625 -13.75 L 66.28125 -18.640625 L 88.09375 -27.390625 L 6.984375 -27.390625 L 6.984375 -34 L 88.09375 -34 L 66.28125 -42.75 L 68.15625 -47.640625 L 99.09375 -34.265625 L 99.09375 -27.125 Z M 68.15625 -13.75 "/>
</symbol>
</g>
<g>
<symbol overflow="visible" id="telugu-abvs:id2:glyph0-0">
<path style="stroke:none;" d="M 10.34375 0 L 10.34375 -78.546875 L 55.546875 -78.546875 L 55.546875 0 Z M 15.953125 -5.609375 L 49.9375 -5.609375 L 49.9375 -72.9375 L 15.953125 -72.9375 Z M 15.953125 -5.609375 "/>
</symbol>
<symbol overflow="visible" id="telugu-abvs:id2:glyph0-1">
<path style="stroke:none;" d="M 77.875 -28.375 C 77.875 -22.65625 77.195312 -17.554688 75.84375 -13.078125 C 74.488281 -8.609375 72.34375 -5.09375 69.40625 -2.53125 C 66.476562 0.03125 62.628906 1.3125 57.859375 1.3125 C 54.117188 1.3125 50.726562 0.472656 47.6875 -1.203125 C 44.644531 -2.890625 41.765625 -5.203125 39.046875 -8.140625 C 36.921875 -5.203125 34.265625 -2.890625 31.078125 -1.203125 C 27.890625 0.472656 24.164062 1.3125 19.90625 1.3125 C 14.039062 1.3125 9.75 -0.113281 7.03125 -2.96875 C 4.320312 -5.832031 2.96875 -9.351562 2.96875 -13.53125 C 2.96875 -16.976562 4.125 -19.925781 6.4375 -22.375 C 8.75 -24.832031 12.503906 -26.0625 17.703125 -26.0625 C 21.296875 -26.0625 24.632812 -25.382812 27.71875 -24.03125 C 30.800781 -22.675781 33.957031 -20.71875 37.1875 -18.15625 C 38.789062 -21.300781 39.59375 -25.222656 39.59375 -29.921875 C 39.59375 -34.316406 38.691406 -37.960938 36.890625 -40.859375 C 35.097656 -43.753906 32.8125 -45.828125 30.03125 -47.078125 C 31.050781 -45.460938 31.5625 -43.484375 31.5625 -41.140625 C 31.5625 -36.890625 30.332031 -33.753906 27.875 -31.734375 C 25.425781 -29.710938 22.257812 -28.703125 18.375 -28.703125 C 14.257812 -28.703125 11.007812 -29.929688 8.625 -32.390625 C 6.25 -34.847656 5.0625 -37.910156 5.0625 -41.578125 C 5.0625 -45.535156 6.472656 -48.757812 9.296875 -51.25 C 12.117188 -53.75 15.988281 -55 20.90625 -55 C 23.757812 -55 26.359375 -54.671875 28.703125 -54.015625 C 25.191406 -56.210938 23.4375 -59.617188 23.4375 -64.234375 C 23.4375 -68.640625 25.15625 -72.015625 28.59375 -74.359375 C 27.71875 -75.390625 27.003906 -76.597656 26.453125 -77.984375 C 25.898438 -79.378906 25.625 -80.847656 25.625 -82.390625 C 25.625 -85.835938 26.851562 -88.550781 29.3125 -90.53125 C 31.769531 -92.507812 35.050781 -93.5 39.15625 -93.5 C 42.675781 -93.5 45.5 -92.800781 47.625 -91.40625 C 49.75 -90.007812 51.328125 -88.226562 52.359375 -86.0625 C 53.390625 -83.90625 54.015625 -81.582031 54.234375 -79.09375 L 49.609375 -78.875 C 49.097656 -81.21875 48.070312 -83.175781 46.53125 -84.75 C 44.988281 -86.332031 42.53125 -87.125 39.15625 -87.125 C 36.226562 -87.125 34.101562 -86.550781 32.78125 -85.40625 C 31.457031 -84.269531 30.796875 -82.785156 30.796875 -80.953125 C 30.796875 -79.117188 31.421875 -77.582031 32.671875 -76.34375 C 34.578125 -76.925781 36.738281 -77.21875 39.15625 -77.21875 C 45.019531 -77.21875 50.335938 -75.953125 55.109375 -73.421875 C 59.878906 -70.890625 63.96875 -67.40625 67.375 -62.96875 C 70.78125 -58.53125 73.378906 -53.359375 75.171875 -47.453125 C 76.972656 -41.554688 77.875 -35.195312 77.875 -28.375 Z M 29.921875 -63.578125 C 29.921875 -61.160156 30.523438 -59.398438 31.734375 -58.296875 C 32.941406 -57.203125 34.425781 -56.65625 36.1875 -56.65625 C 37.800781 -56.65625 39.320312 -57.113281 40.75 -58.03125 C 42.1875 -58.945312 42.90625 -60.757812 42.90625 -63.46875 C 42.90625 -65.738281 42.28125 -67.441406 41.03125 -68.578125 C 39.78125 -69.722656 38.3125 -70.296875 36.625 -70.296875 C 34.5 -70.296875 32.847656 -69.648438 31.671875 -68.359375 C 30.503906 -67.078125 29.921875 -65.484375 29.921875 -63.578125 Z M 44.765625 -28.9375 C 44.765625 -23.582031 43.957031 -18.773438 42.34375 -14.515625 C 44.550781 -13.203125 46.804688 -12.25 49.109375 -11.65625 C 51.421875 -11.070312 54.191406 -10.78125 57.421875 -10.78125 C 62.992188 -10.78125 66.929688 -12.429688 69.234375 -15.734375 C 71.546875 -19.035156 72.703125 -23.65625 72.703125 -29.59375 C 72.703125 -35.894531 71.710938 -41.773438 69.734375 -47.234375 C 67.753906 -52.703125 64.894531 -57.359375 61.15625 -61.203125 C 57.414062 -65.054688 52.941406 -67.71875 47.734375 -69.1875 C 48.617188 -67.5 49.0625 -65.554688 49.0625 -63.359375 C 49.0625 -59.398438 47.90625 -56.519531 45.59375 -54.71875 C 43.28125 -52.925781 40.179688 -52.03125 36.296875 -52.03125 C 35.203125 -52.03125 34.175781 -52.140625 33.21875 -52.359375 C 40.914062 -48.328125 44.765625 -40.519531 44.765625 -28.9375 Z M 11.546875 -40.921875 C 11.546875 -38.578125 12.1875 -36.742188 13.46875 -35.421875 C 14.757812 -34.097656 16.359375 -33.4375 18.265625 -33.4375 C 20.171875 -33.4375 21.835938 -33.984375 23.265625 -35.078125 C 24.691406 -36.179688 25.40625 -38.09375 25.40625 -40.8125 C 25.40625 -43.300781 24.765625 -45.148438 23.484375 -46.359375 C 22.203125 -47.578125 20.609375 -48.1875 18.703125 -48.1875 C 16.578125 -48.1875 14.851562 -47.539062 13.53125 -46.25 C 12.207031 -44.96875 11.546875 -43.191406 11.546875 -40.921875 Z M 9.5625 -15.734375 C 9.5625 -11.398438 12.863281 -9.234375 19.46875 -9.234375 C 25.695312 -9.234375 30.5 -10.773438 33.875 -13.859375 C 31.382812 -15.984375 28.765625 -17.757812 26.015625 -19.1875 C 23.265625 -20.625 20.3125 -21.34375 17.15625 -21.34375 C 14.8125 -21.34375 12.957031 -20.882812 11.59375 -19.96875 C 10.238281 -19.050781 9.5625 -17.640625 9.5625 -15.734375 Z M 33.109375 13.75 L 36.515625 -3.078125 L 41.46875 -3.078125 L 44.875 13.75 Z M 33.109375 13.75 "/>
</symbol>
</g>
</defs>
  <g id="telugu-abvs:id0:id0" transform="matrix(1.25,0,0,1.25,0.0,5.25390625)"><g id="telugu-abvs:id0:surface1">
<g style="fill:rgb(0%,0%,0%);fill-opacity:1;">
  <use xlink:href="#telugu-abvs:id0:glyph0-1" x="16" y="97.59375" class="c0"/>
  <use xlink:href="#telugu-abvs:id0:glyph0-2" x="95.640625" y="97.59375" class="c1"/>
</g>
</g>
</g>
  <g id="telugu-abvs:id1:id1" transform="matrix(1.25,0,0,1.25,139.55078125,0.0)"><g id="telugu-abvs:id1:surface1">
<g style="fill:rgb(0%,0%,0%);fill-opacity:1;">
  <use xlink:href="#telugu-abvs:id1:glyph0-1" x="0" y="120.84375" class="arrow"/>
</g>
</g>
</g>
  <g id="telugu-abvs:id2:id2" transform="matrix(1.25,0,0,1.25,272.1484375,5.25390625)"><g id="telugu-abvs:id2:surface1">
<g style="fill:rgb(0%,0%,0%);fill-opacity:1;">
  <use xlink:href="#telugu-abvs:id2:glyph0-1" x="16" y="97.59375" class="c2"/>
</g>
</g>
</g>
</svg>
