<!DOCTYPE svg PUBLIC "-//W3C//DTD SVG 1.1//EN" "http://www.w3.org/Graphics/SVG/1.1/DTD/svg11.dtd">
<!-- Created with svg_stack (http://github.com/astraw/svg_stack) --><svg xmlns="http://www.w3.org/2000/svg" xmlns:sodipodi="http://sodipodi.sourceforge.net/DTD/sodipodi-0.dtd" xmlns:xlink="http://www.w3.org/1999/xlink" version="1.1" width="100%" id="telugu-psts" viewBox="0 0 549.3359375 201.40625">
  <defs><g>
<symbol overflow="visible" id="telugu-psts:id0:glyph0-0">
<path style="stroke:none;" d="M 10.34375 0 L 10.34375 -78.546875 L 55.546875 -78.546875 L 55.546875 0 Z M 15.953125 -5.609375 L 49.9375 -5.609375 L 49.9375 -72.9375 L 15.953125 -72.9375 Z M 15.953125 -5.609375 "/>
</symbol>
<symbol overflow="visible" id="telugu-psts:id0:glyph0-1">
<path style="stroke:none;" d="M 16.9375 -69.078125 C 17.75 -66.441406 18.59375 -64.003906 19.46875 -61.765625 C 20.351562 -59.523438 21.488281 -57.125 22.875 -54.5625 C 24.632812 -55.8125 26.6875 -57.476562 29.03125 -59.5625 C 31.382812 -61.65625 33.84375 -63.910156 36.40625 -66.328125 C 38.976562 -68.742188 41.472656 -71.144531 43.890625 -73.53125 C 46.304688 -75.914062 48.429688 -78.097656 50.265625 -80.078125 L 55.4375 -75.125 C 48.25 -68.601562 41.90625 -63.160156 36.40625 -58.796875 C 30.90625 -54.429688 26.691406 -51.515625 23.765625 -50.046875 L 20.34375 -50.046875 C 18.738281 -51.003906 17 -52.4375 15.125 -54.34375 C 13.25 -56.25 11.453125 -58.425781 9.734375 -60.875 C 8.015625 -63.332031 6.566406 -65.882812 5.390625 -68.53125 Z M 69.84375 -23.65625 C 69.84375 -18.8125 69.21875 -14.5 67.96875 -10.71875 C 66.726562 -6.945312 64.820312 -4 62.25 -1.875 C 59.6875 0.25 56.425781 1.3125 52.46875 1.3125 C 48 1.3125 44.390625 0.0859375 41.640625 -2.359375 C 38.890625 -4.816406 36.5625 -7.695312 34.65625 -11 C 33.769531 -6.820312 31.914062 -3.722656 29.09375 -1.703125 C 26.269531 0.304688 22.988281 1.3125 19.25 1.3125 C 14.40625 1.3125 10.515625 -0.171875 7.578125 -3.140625 C 4.648438 -6.109375 3.1875 -10.160156 3.1875 -15.296875 C 3.1875 -18.296875 3.8125 -21.0625 5.0625 -23.59375 C 6.3125 -26.125 8.144531 -28.160156 10.5625 -29.703125 C 12.976562 -31.242188 15.910156 -32.015625 19.359375 -32.015625 C 22.953125 -32.015625 25.957031 -31.171875 28.375 -29.484375 C 30.800781 -27.796875 32.5625 -25.59375 33.65625 -22.875 C 36.375 -18.695312 39.085938 -15.632812 41.796875 -13.6875 C 44.515625 -11.75 47.816406 -10.78125 51.703125 -10.78125 C 56.023438 -10.78125 59.304688 -12.0625 61.546875 -14.625 C 63.785156 -17.195312 64.90625 -20.828125 64.90625 -25.515625 C 64.90625 -31.378906 62.832031 -36.253906 58.6875 -40.140625 C 54.539062 -44.035156 48.210938 -46.128906 39.703125 -46.421875 L 40.046875 -55.4375 C 46.566406 -55.289062 52.046875 -53.785156 56.484375 -50.921875 C 60.921875 -48.066406 64.253906 -44.273438 66.484375 -39.546875 C 68.722656 -34.816406 69.84375 -29.519531 69.84375 -23.65625 Z M 9.796875 -17.59375 C 9.796875 -14.882812 10.597656 -12.6875 12.203125 -11 C 13.816406 -9.3125 16.164062 -8.46875 19.25 -8.46875 C 22.257812 -8.46875 24.644531 -9.238281 26.40625 -10.78125 C 28.164062 -12.320312 29.046875 -14.628906 29.046875 -17.703125 C 29.046875 -20.566406 28.179688 -22.878906 26.453125 -24.640625 C 24.734375 -26.398438 22.367188 -27.28125 19.359375 -27.28125 C 16.421875 -27.28125 14.09375 -26.414062 12.375 -24.6875 C 10.65625 -22.96875 9.796875 -20.601562 9.796875 -17.59375 Z M 29.921875 13.75 L 33.328125 -3.40625 L 38.28125 -3.40625 L 41.6875 13.75 Z M 29.921875 13.75 "/>
</symbol>
<symbol overflow="visible" id="telugu-psts:id0:glyph0-2">
<path style="stroke:none;" d="M 13.859375 1.3125 C 8.722656 1.3125 4.453125 -0.476562 1.046875 -4.0625 C -2.359375 -7.65625 -5.382812 -13.34375 -8.03125 -21.125 L -4.734375 -22.21875 C -2.085938 -18.1875 0.550781 -15.269531 3.1875 -13.46875 C 5.832031 -11.675781 8.988281 -10.78125 12.65625 -10.78125 C 17.125 -10.78125 20.492188 -11.972656 22.765625 -14.359375 C 25.046875 -16.742188 26.1875 -19.988281 26.1875 -24.09375 C 26.1875 -30.175781 24.257812 -35.234375 20.40625 -39.265625 C 16.550781 -43.296875 11.03125 -45.898438 3.84375 -47.078125 L -0.21875 -47.078125 L 0.984375 -55 L 42.6875 -55 C 46.863281 -55 50.140625 -54.757812 52.515625 -54.28125 C 54.898438 -53.800781 56.972656 -52.976562 58.734375 -51.8125 C 62.328125 -49.394531 64.125 -45.910156 64.125 -41.359375 C 64.125 -37.546875 62.953125 -34.390625 60.609375 -31.890625 C 58.265625 -29.398438 55 -28.15625 50.8125 -28.15625 C 46.78125 -28.15625 43.59375 -29.3125 41.25 -31.625 C 38.90625 -33.9375 37.734375 -36.890625 37.734375 -40.484375 C 37.734375 -41.578125 37.878906 -42.710938 38.171875 -43.890625 C 38.460938 -45.066406 38.863281 -46.128906 39.375 -47.078125 L 28.59375 -47.078125 C 26.757812 -47.078125 25.054688 -47.113281 23.484375 -47.1875 C 21.910156 -47.257812 20.28125 -47.367188 18.59375 -47.515625 C 22.039062 -45.460938 25.023438 -42.269531 27.546875 -37.9375 C 30.078125 -33.613281 31.34375 -28.300781 31.34375 -22 C 31.34375 -15.101562 29.929688 -9.492188 27.109375 -5.171875 C 24.285156 -0.847656 19.867188 1.3125 13.859375 1.3125 Z M 57.640625 -40.265625 C 57.640625 -42.609375 57.015625 -44.382812 55.765625 -45.59375 C 54.523438 -46.800781 52.765625 -47.40625 50.484375 -47.40625 C 48.578125 -47.40625 46.984375 -46.835938 45.703125 -45.703125 C 44.421875 -44.566406 43.78125 -42.753906 43.78125 -40.265625 C 43.78125 -37.546875 44.492188 -35.632812 45.921875 -34.53125 C 47.347656 -33.4375 49.019531 -32.890625 50.9375 -32.890625 C 52.84375 -32.890625 54.4375 -33.546875 55.71875 -34.859375 C 57 -36.179688 57.640625 -37.984375 57.640625 -40.265625 Z M 57.640625 -40.265625 "/>
</symbol>
</g>
<g>
<symbol overflow="visible" id="telugu-psts:id1:glyph0-0">
<path style="stroke:none;" d="M 5.375 -96.6875 L 69.828125 -96.6875 L 69.828125 0 L 5.375 0 Z M 8.0625 -2.6875 L 67.140625 -2.6875 L 67.140625 -94 L 8.0625 -94 Z M 8.0625 -2.6875 "/>
</symbol>
<symbol overflow="visible" id="telugu-psts:id1:glyph0-1">
<path style="stroke:none;" d="M 68.15625 -13.75 L 66.28125 -18.640625 L 88.09375 -27.390625 L 6.984375 -27.390625 L 6.984375 -34 L 88.09375 -34 L 66.28125 -42.75 L 68.15625 -47.640625 L 99.09375 -34.265625 L 99.09375 -27.125 Z M 68.15625 -13.75 "/>
</symbol>
</g>
<g>
<symbol overflow="visible" id="telugu-psts:id2:glyph0-0">
<path style="stroke:none;" d="M 10.34375 0 L 10.34375 -78.546875 L 55.546875 -78.546875 L 55.546875 0 Z M 15.953125 -5.609375 L 49.9375 -5.609375 L 49.9375 -72.9375 L 15.953125 -72.9375 Z M 15.953125 -5.609375 "/>
</symbol>
<symbol overflow="visible" id="telugu-psts:id2:glyph0-1">
<path style="stroke:none;" d="M 16.9375 -69.078125 C 17.75 -66.441406 18.59375 -64.003906 19.46875 -61.765625 C 20.351562 -59.523438 21.488281 -57.125 22.875 -54.5625 C 24.632812 -55.8125 26.6875 -57.476562 29.03125 -59.5625 C 31.382812 -61.65625 33.84375 -63.910156 36.40625 -66.328125 C 38.976562 -68.742188 41.472656 -71.144531 43.890625 -73.53125 C 46.304688 -75.914062 48.429688 -78.097656 50.265625 -80.078125 L 55.4375 -75.125 C 48.25 -68.601562 41.90625 -63.160156 36.40625 -58.796875 C 30.90625 -54.429688 26.691406 -51.515625 23.765625 -50.046875 L 20.34375 -50.046875 C 18.738281 -51.003906 17 -52.4375 15.125 -54.34375 C 13.25 -56.25 11.453125 -58.425781 9.734375 -60.875 C 8.015625 -63.332031 6.566406 -65.882812 5.390625 -68.53125 Z M 70.84375 16.171875 C 66.582031 16.171875 62.859375 15.507812 59.671875 14.1875 C 56.484375 12.863281 53.457031 10.828125 50.59375 8.078125 C 47.738281 5.328125 44.695312 1.789062 41.46875 -2.53125 C 40.144531 -3.707031 38.914062 -5.007812 37.78125 -6.4375 C 36.644531 -7.863281 35.601562 -9.421875 34.65625 -11.109375 C 33.84375 -6.859375 32.003906 -3.722656 29.140625 -1.703125 C 26.285156 0.304688 22.988281 1.3125 19.25 1.3125 C 14.40625 1.3125 10.515625 -0.171875 7.578125 -3.140625 C 4.648438 -6.109375 3.1875 -10.160156 3.1875 -15.296875 C 3.1875 -18.296875 3.8125 -21.0625 5.0625 -23.59375 C 6.3125 -26.125 8.144531 -28.160156 10.5625 -29.703125 C 12.976562 -31.242188 15.910156 -32.015625 19.359375 -32.015625 C 22.953125 -32.015625 25.957031 -31.171875 28.375 -29.484375 C 30.800781 -27.796875 32.5625 -25.59375 33.65625 -22.875 C 36.375 -18.695312 39.085938 -15.632812 41.796875 -13.6875 C 44.515625 -11.75 47.816406 -10.78125 51.703125 -10.78125 C 56.023438 -10.78125 59.304688 -12.0625 61.546875 -14.625 C 63.785156 -17.195312 64.90625 -20.828125 64.90625 -25.515625 C 64.90625 -31.378906 62.832031 -36.253906 58.6875 -40.140625 C 54.539062 -44.035156 48.210938 -46.128906 39.703125 -46.421875 L 40.046875 -55.4375 C 46.566406 -55.289062 52.046875 -53.785156 56.484375 -50.921875 C 60.921875 -48.066406 64.253906 -44.273438 66.484375 -39.546875 C 68.722656 -34.816406 69.84375 -29.519531 69.84375 -23.65625 C 69.84375 -16.320312 68.46875 -10.453125 65.71875 -6.046875 C 62.96875 -1.648438 58.550781 0.546875 52.46875 0.546875 C 51.445312 0.546875 50.382812 0.4375 49.28125 0.21875 C 52.582031 2.78125 55.878906 4.5 59.171875 5.375 C 62.472656 6.257812 65.921875 6.703125 69.515625 6.703125 C 76.484375 6.703125 81.925781 4.703125 85.84375 0.703125 C 89.769531 -3.285156 91.734375 -9.164062 91.734375 -16.9375 C 91.734375 -24.851562 89.695312 -31.320312 85.625 -36.34375 C 81.5625 -41.375 76.191406 -44.953125 69.515625 -47.078125 L 68.3125 -47.078125 L 69.515625 -55 L 106.375 -55 C 110.550781 -55 113.832031 -54.757812 116.21875 -54.28125 C 118.601562 -53.800781 120.675781 -52.976562 122.4375 -51.8125 C 126.019531 -49.394531 127.8125 -45.910156 127.8125 -41.359375 C 127.8125 -37.546875 126.640625 -34.390625 124.296875 -31.890625 C 121.953125 -29.398438 118.691406 -28.15625 114.515625 -28.15625 C 110.472656 -28.15625 107.28125 -29.3125 104.9375 -31.625 C 102.59375 -33.9375 101.421875 -36.890625 101.421875 -40.484375 C 101.421875 -41.578125 101.566406 -42.710938 101.859375 -43.890625 C 102.148438 -45.066406 102.550781 -46.128906 103.0625 -47.078125 L 91.84375 -47.078125 C 89.9375 -47.078125 88.234375 -47.113281 86.734375 -47.1875 C 85.234375 -47.257812 83.640625 -47.332031 81.953125 -47.40625 C 86.347656 -44.40625 89.9375 -40.132812 92.71875 -34.59375 C 95.507812 -29.0625 96.90625 -22.773438 96.90625 -15.734375 C 96.90625 -8.472656 95.785156 -2.5 93.546875 2.1875 C 91.316406 6.882812 88.238281 10.390625 84.3125 12.703125 C 80.394531 15.015625 75.90625 16.171875 70.84375 16.171875 Z M 121.328125 -40.265625 C 121.328125 -42.609375 120.703125 -44.382812 119.453125 -45.59375 C 118.210938 -46.800781 116.457031 -47.40625 114.1875 -47.40625 C 112.269531 -47.40625 110.671875 -46.835938 109.390625 -45.703125 C 108.109375 -44.566406 107.46875 -42.753906 107.46875 -40.265625 C 107.46875 -37.546875 108.179688 -35.632812 109.609375 -34.53125 C 111.046875 -33.4375 112.71875 -32.890625 114.625 -32.890625 C 116.53125 -32.890625 118.125 -33.546875 119.40625 -34.859375 C 120.6875 -36.179688 121.328125 -37.984375 121.328125 -40.265625 Z M 9.796875 -17.59375 C 9.796875 -14.882812 10.597656 -12.6875 12.203125 -11 C 13.816406 -9.3125 16.164062 -8.46875 19.25 -8.46875 C 22.257812 -8.46875 24.644531 -9.238281 26.40625 -10.78125 C 28.164062 -12.320312 29.046875 -14.628906 29.046875 -17.703125 C 29.046875 -20.566406 28.179688 -22.878906 26.453125 -24.640625 C 24.734375 -26.398438 22.367188 -27.28125 19.359375 -27.28125 C 16.421875 -27.28125 14.09375 -26.414062 12.375 -24.6875 C 10.65625 -22.96875 9.796875 -20.601562 9.796875 -17.59375 Z M 29.921875 13.75 L 33.328125 -3.40625 L 38.28125 -3.40625 L 41.6875 13.75 Z M 29.921875 13.75 "/>
</symbol>
</g>
</defs>
  <g id="telugu-psts:id0:id0" transform="matrix(1.25,0,0,1.25,0.0,5.25390625)"><g id="telugu-psts:id0:surface1">
<g style="fill:rgb(0%,0%,0%);fill-opacity:1;">
  <use xlink:href="#telugu-psts:id0:glyph0-1" x="16" y="97.59375" class="c0"/>
  <use xlink:href="#telugu-psts:id0:glyph0-2" x="89.703125" y="97.59375" class="c1"/>
</g>
</g>
</g>
  <g id="telugu-psts:id1:id1" transform="matrix(1.25,0,0,1.25,214.62890625,0.0)"><g id="telugu-psts:id1:surface1">
<g style="fill:rgb(0%,0%,0%);fill-opacity:1;">
  <use xlink:href="#telugu-psts:id1:glyph0-1" x="0" y="120.84375" class="arrow"/>
</g>
</g>
</g>
  <g id="telugu-psts:id2:id2" transform="matrix(1.25,0,0,1.25,347.2265625,5.25390625)"><g id="telugu-psts:id2:surface1">
<g style="fill:rgb(0%,0%,0%);fill-opacity:1;">
  <use xlink:href="#telugu-psts:id2:glyph0-1" x="16" y="97.59375" class="c2"/>
</g>
</g>
</g>
</svg>
