<!DOCTYPE svg PUBLIC "-//W3C//DTD SVG 1.1//EN" "http://www.w3.org/Graphics/SVG/1.1/DTD/svg11.dtd">
<!-- Created with svg_stack (http://github.com/astraw/svg_stack) --><svg xmlns="http://www.w3.org/2000/svg" xmlns:sodipodi="http://sodipodi.sourceforge.net/DTD/sodipodi-0.dtd" xmlns:xlink="http://www.w3.org/1999/xlink" version="1.1" width="100%" id="telugu-half" viewBox="0 0 495.5859375 201.40625">
  <defs><g>
<symbol overflow="visible" id="telugu-half:id0:glyph0-0">
<path style="stroke:none;" d="M 10.34375 0 L 10.34375 -78.546875 L 55.546875 -78.546875 L 55.546875 0 Z M 15.953125 -5.609375 L 49.9375 -5.609375 L 49.9375 -72.9375 L 15.953125 -72.9375 Z M 15.953125 -5.609375 "/>
</symbol>
<symbol overflow="visible" id="telugu-half:id0:glyph0-1">
<path style="stroke:none;" d="M 60.0625 1.3125 C 54.34375 1.3125 49.832031 0.472656 46.53125 -1.203125 C 43.226562 -2.890625 40.625 -5.164062 38.71875 -8.03125 C 36.445312 -4.144531 33.878906 -1.613281 31.015625 -0.4375 C 28.160156 0.726562 25.082031 1.3125 21.78125 1.3125 C 16.425781 1.3125 12.097656 -0.703125 8.796875 -4.734375 C 5.492188 -8.765625 3.84375 -14.300781 3.84375 -21.34375 C 3.84375 -28.457031 5.398438 -34.503906 8.515625 -39.484375 C 11.640625 -44.472656 16.078125 -48.304688 21.828125 -50.984375 C 27.585938 -53.660156 34.351562 -55 42.125 -55 C 48 -55 53.207031 -54.242188 57.75 -52.734375 C 62.289062 -51.234375 66.582031 -49.203125 70.625 -46.640625 L 65.234375 -39.375 C 61.492188 -41.800781 57.804688 -43.632812 54.171875 -44.875 C 50.546875 -46.125 46.3125 -46.75 41.46875 -46.75 C 32.375 -46.75 25.351562 -44.582031 20.40625 -40.25 C 15.457031 -35.925781 12.984375 -29.734375 12.984375 -21.671875 C 12.984375 -16.535156 13.878906 -12.867188 15.671875 -10.671875 C 17.472656 -8.472656 19.945312 -7.375 23.09375 -7.375 C 26.539062 -7.375 29.234375 -8.5625 31.171875 -10.9375 C 33.117188 -13.320312 34.242188 -16.457031 34.546875 -20.34375 L 43.125 -20.34375 C 43.269531 -18 43.742188 -15.851562 44.546875 -13.90625 C 45.359375 -11.96875 46.644531 -10.484375 48.40625 -9.453125 C 48.03125 -10.335938 47.734375 -11.289062 47.515625 -12.3125 C 47.296875 -13.34375 47.1875 -14.410156 47.1875 -15.515625 C 47.1875 -19.617188 48.597656 -22.914062 51.421875 -25.40625 C 54.242188 -27.90625 57.96875 -29.15625 62.59375 -29.15625 C 67.207031 -29.15625 70.960938 -27.796875 73.859375 -25.078125 C 76.753906 -22.367188 78.203125 -18.957031 78.203125 -14.84375 C 78.203125 -9.269531 76.460938 -5.179688 72.984375 -2.578125 C 69.503906 0.015625 65.195312 1.3125 60.0625 1.3125 Z M 54.890625 -13.640625 C 54.890625 -12.390625 55.070312 -11.195312 55.4375 -10.0625 C 55.800781 -8.925781 56.28125 -7.921875 56.875 -7.046875 C 57.96875 -6.972656 59.175781 -6.9375 60.5 -6.9375 C 66.4375 -6.9375 69.40625 -9.351562 69.40625 -14.1875 C 69.40625 -16.457031 68.726562 -18.109375 67.375 -19.140625 C 66.019531 -20.171875 64.28125 -20.6875 62.15625 -20.6875 C 60.175781 -20.6875 58.46875 -20.148438 57.03125 -19.078125 C 55.601562 -18.015625 54.890625 -16.203125 54.890625 -13.640625 Z M 33.875 13.75 L 34.65625 -1.765625 L 42.90625 -1.765625 L 43.78125 13.75 Z M 37.84375 -46.75 C 35.71875 -46.75 33.679688 -47.148438 31.734375 -47.953125 C 29.796875 -48.765625 28.019531 -50.285156 26.40625 -52.515625 C 24.789062 -54.753906 23.394531 -57.929688 22.21875 -62.046875 L 31.34375 -65.015625 C 32.445312 -60.972656 33.507812 -58.289062 34.53125 -56.96875 C 35.5625 -55.65625 36.882812 -55 38.5 -55 C 39.96875 -55 41.34375 -55.457031 42.625 -56.375 C 43.90625 -57.289062 45.722656 -59.21875 48.078125 -62.15625 L 51.484375 -66.546875 C 53.972656 -69.773438 56.257812 -72.34375 58.34375 -74.25 C 60.4375 -76.15625 62.65625 -77.546875 65 -78.421875 C 67.351562 -79.304688 70.144531 -79.75 73.375 -79.75 L 74.03125 -71.28125 C 71.46875 -71.132812 69.320312 -70.726562 67.59375 -70.0625 C 65.875 -69.40625 64.296875 -68.363281 62.859375 -66.9375 C 61.429688 -65.507812 59.765625 -63.582031 57.859375 -61.15625 L 55.328125 -57.859375 C 52.253906 -53.898438 49.394531 -51.054688 46.75 -49.328125 C 44.113281 -47.609375 41.144531 -46.75 37.84375 -46.75 Z M 37.84375 -46.75 "/>
</symbol>
<symbol overflow="visible" id="telugu-half:id0:glyph0-2">
<path style="stroke:none;" d="M 34.984375 -39.484375 C 34.984375 -37.359375 33.921875 -36.296875 31.796875 -36.296875 C 29.660156 -36.296875 28.59375 -37.359375 28.59375 -39.484375 C 28.59375 -41.535156 29.660156 -42.5625 31.796875 -42.5625 C 33.921875 -42.5625 34.984375 -41.535156 34.984375 -39.484375 Z M 21.234375 -33.984375 C 21.234375 -31.859375 20.207031 -30.796875 18.15625 -30.796875 C 16.019531 -30.796875 14.953125 -31.859375 14.953125 -33.984375 C 14.953125 -36.117188 16.019531 -37.1875 18.15625 -37.1875 C 20.207031 -37.1875 21.234375 -36.117188 21.234375 -33.984375 Z M 48.625 -33.984375 C 48.625 -31.859375 47.597656 -30.796875 45.546875 -30.796875 C 43.410156 -30.796875 42.34375 -31.859375 42.34375 -33.984375 C 42.34375 -36.117188 43.410156 -37.1875 45.546875 -37.1875 C 47.597656 -37.1875 48.625 -36.117188 48.625 -33.984375 Z M 53.5625 -20.796875 C 53.5625 -18.734375 52.5 -17.703125 50.375 -17.703125 C 48.25 -17.703125 47.1875 -18.734375 47.1875 -20.796875 C 47.1875 -22.921875 48.25 -23.984375 50.375 -23.984375 C 52.5 -23.984375 53.5625 -22.921875 53.5625 -20.796875 Z M 16.28125 -20.796875 C 16.28125 -18.734375 15.253906 -17.703125 13.203125 -17.703125 C 11.078125 -17.703125 10.015625 -18.734375 10.015625 -20.796875 C 10.015625 -22.921875 11.078125 -23.984375 13.203125 -23.984375 C 15.253906 -23.984375 16.28125 -22.921875 16.28125 -20.796875 Z M 21.234375 -7.703125 C 21.234375 -5.578125 20.207031 -4.515625 18.15625 -4.515625 C 16.019531 -4.515625 14.953125 -5.578125 14.953125 -7.703125 C 14.953125 -9.828125 16.019531 -10.890625 18.15625 -10.890625 C 20.207031 -10.890625 21.234375 -9.828125 21.234375 -7.703125 Z M 48.625 -7.703125 C 48.625 -5.578125 47.597656 -4.515625 45.546875 -4.515625 C 43.410156 -4.515625 42.34375 -5.578125 42.34375 -7.703125 C 42.34375 -9.828125 43.410156 -10.890625 45.546875 -10.890625 C 47.597656 -10.890625 48.625 -9.828125 48.625 -7.703125 Z M 34.984375 -2.203125 C 34.984375 -0.078125 33.921875 0.984375 31.796875 0.984375 C 29.660156 0.984375 28.59375 -0.078125 28.59375 -2.203125 C 28.59375 -4.328125 29.660156 -5.390625 31.796875 -5.390625 C 33.921875 -5.390625 34.984375 -4.328125 34.984375 -2.203125 Z M 34.984375 -2.203125 "/>
</symbol>
<symbol overflow="visible" id="telugu-half:id0:glyph0-3">
<path style="stroke:none;" d="M -39.046875 -59.40625 C -39.046875 -63.21875 -37.285156 -66.40625 -33.765625 -68.96875 C -37.878906 -71.6875 -39.9375 -75.242188 -39.9375 -79.640625 C -39.9375 -81.617188 -39.566406 -83.34375 -38.828125 -84.8125 C -38.097656 -86.28125 -37.070312 -87.523438 -35.75 -88.546875 C -34.207031 -89.796875 -32.207031 -90.710938 -29.75 -91.296875 C -27.289062 -91.890625 -23.535156 -92.1875 -18.484375 -92.1875 L 13.09375 -92.1875 L 13.09375 -83.9375 L -20.234375 -83.9375 C -22.734375 -83.9375 -24.53125 -83.859375 -25.625 -83.703125 C -26.726562 -83.554688 -27.609375 -83.300781 -28.265625 -82.9375 C -29.953125 -82.132812 -30.796875 -80.78125 -30.796875 -78.875 C -30.796875 -76.820312 -30.023438 -75.390625 -28.484375 -74.578125 C -27.753906 -74.210938 -26.785156 -73.9375 -25.578125 -73.75 C -24.367188 -73.570312 -22.625 -73.484375 -20.34375 -73.484375 L -5.28125 -73.484375 L -5.28125 -65.234375 L -20.796875 -65.234375 C -22.847656 -65.234375 -24.441406 -65.101562 -25.578125 -64.84375 C -26.710938 -64.582031 -27.570312 -64.234375 -28.15625 -63.796875 C -29.332031 -62.921875 -29.921875 -61.675781 -29.921875 -60.0625 C -29.921875 -58.300781 -29.332031 -57.015625 -28.15625 -56.203125 C -27.5 -55.691406 -26.65625 -55.363281 -25.625 -55.21875 C -24.601562 -55.070312 -23.285156 -55 -21.671875 -55 L -17.59375 -55 L -17.59375 -46.75 L -21.78125 -46.75 C -26.988281 -46.75 -31.164062 -47.753906 -34.3125 -49.765625 C -37.46875 -51.785156 -39.046875 -55 -39.046875 -59.40625 Z M -39.046875 -59.40625 "/>
</symbol>
<symbol overflow="visible" id="telugu-half:id0:glyph0-4">
<path style="stroke:none;" d="M 11.984375 -86.6875 L 16.0625 -82.609375 L 3.953125 -71.0625 L 16.0625 -59.296875 L 11.984375 -55.328125 L 2.859375 -64.34375 L 2.859375 18.15625 L -2.859375 18.15625 L -2.859375 -64.34375 L -11.984375 -55.328125 L -16.0625 -59.296875 L -3.953125 -71.0625 L -16.0625 -82.71875 L -11.984375 -86.6875 L 0 -74.796875 Z M 11.984375 -86.6875 "/>
</symbol>
</g>
<g>
<symbol overflow="visible" id="telugu-half:id1:glyph0-0">
<path style="stroke:none;" d="M 5.375 -96.6875 L 69.828125 -96.6875 L 69.828125 0 L 5.375 0 Z M 8.0625 -2.6875 L 67.140625 -2.6875 L 67.140625 -94 L 8.0625 -94 Z M 8.0625 -2.6875 "/>
</symbol>
<symbol overflow="visible" id="telugu-half:id1:glyph0-1">
<path style="stroke:none;" d="M 68.15625 -13.75 L 66.28125 -18.640625 L 88.09375 -27.390625 L 6.984375 -27.390625 L 6.984375 -34 L 88.09375 -34 L 66.28125 -42.75 L 68.15625 -47.640625 L 99.09375 -34.265625 L 99.09375 -27.125 Z M 68.15625 -13.75 "/>
</symbol>
</g>
<g>
<symbol overflow="visible" id="telugu-half:id2:glyph0-0">
<path style="stroke:none;" d="M 10.34375 0 L 10.34375 -78.546875 L 55.546875 -78.546875 L 55.546875 0 Z M 15.953125 -5.609375 L 49.9375 -5.609375 L 49.9375 -72.9375 L 15.953125 -72.9375 Z M 15.953125 -5.609375 "/>
</symbol>
<symbol overflow="visible" id="telugu-half:id2:glyph0-1">
<path style="stroke:none;" d="M 60.0625 1.3125 C 54.34375 1.3125 49.832031 0.472656 46.53125 -1.203125 C 43.226562 -2.890625 40.625 -5.164062 38.71875 -8.03125 C 36.445312 -4.144531 33.878906 -1.613281 31.015625 -0.4375 C 28.160156 0.726562 25.082031 1.3125 21.78125 1.3125 C 16.425781 1.3125 12.097656 -0.703125 8.796875 -4.734375 C 5.492188 -8.765625 3.84375 -14.300781 3.84375 -21.34375 C 3.84375 -28.457031 5.398438 -34.503906 8.515625 -39.484375 C 11.640625 -44.472656 16.078125 -48.304688 21.828125 -50.984375 C 27.585938 -53.660156 34.351562 -55 42.125 -55 C 48 -55 53.207031 -54.242188 57.75 -52.734375 C 62.289062 -51.234375 66.582031 -49.203125 70.625 -46.640625 L 65.234375 -39.375 C 61.492188 -41.800781 57.804688 -43.632812 54.171875 -44.875 C 50.546875 -46.125 46.3125 -46.75 41.46875 -46.75 C 32.375 -46.75 25.351562 -44.582031 20.40625 -40.25 C 15.457031 -35.925781 12.984375 -29.734375 12.984375 -21.671875 C 12.984375 -16.535156 13.878906 -12.867188 15.671875 -10.671875 C 17.472656 -8.472656 19.945312 -7.375 23.09375 -7.375 C 26.539062 -7.375 29.234375 -8.5625 31.171875 -10.9375 C 33.117188 -13.320312 34.242188 -16.457031 34.546875 -20.34375 L 43.125 -20.34375 C 43.269531 -18 43.742188 -15.851562 44.546875 -13.90625 C 45.359375 -11.96875 46.644531 -10.484375 48.40625 -9.453125 C 48.03125 -10.335938 47.734375 -11.289062 47.515625 -12.3125 C 47.296875 -13.34375 47.1875 -14.410156 47.1875 -15.515625 C 47.1875 -19.617188 48.597656 -22.914062 51.421875 -25.40625 C 54.242188 -27.90625 57.96875 -29.15625 62.59375 -29.15625 C 67.207031 -29.15625 70.960938 -27.796875 73.859375 -25.078125 C 76.753906 -22.367188 78.203125 -18.957031 78.203125 -14.84375 C 78.203125 -9.269531 76.460938 -5.179688 72.984375 -2.578125 C 69.503906 0.015625 65.195312 1.3125 60.0625 1.3125 Z M 54.890625 -13.640625 C 54.890625 -12.390625 55.070312 -11.195312 55.4375 -10.0625 C 55.800781 -8.925781 56.28125 -7.921875 56.875 -7.046875 C 57.96875 -6.972656 59.175781 -6.9375 60.5 -6.9375 C 66.4375 -6.9375 69.40625 -9.351562 69.40625 -14.1875 C 69.40625 -16.457031 68.726562 -18.109375 67.375 -19.140625 C 66.019531 -20.171875 64.28125 -20.6875 62.15625 -20.6875 C 60.175781 -20.6875 58.46875 -20.148438 57.03125 -19.078125 C 55.601562 -18.015625 54.890625 -16.203125 54.890625 -13.640625 Z M 33.875 13.75 L 34.65625 -1.765625 L 42.90625 -1.765625 L 43.78125 13.75 Z M 21.453125 -59.40625 C 21.453125 -63.21875 23.210938 -66.40625 26.734375 -68.96875 C 22.617188 -71.6875 20.5625 -75.242188 20.5625 -79.640625 C 20.5625 -81.617188 20.925781 -83.34375 21.65625 -84.8125 C 22.394531 -86.28125 23.425781 -87.523438 24.75 -88.546875 C 26.289062 -89.796875 28.289062 -90.710938 30.75 -91.296875 C 33.207031 -91.890625 36.960938 -92.1875 42.015625 -92.1875 L 73.59375 -92.1875 L 73.59375 -83.9375 L 40.265625 -83.9375 C 37.765625 -83.9375 35.960938 -83.859375 34.859375 -83.703125 C 33.765625 -83.554688 32.890625 -83.300781 32.234375 -82.9375 C 30.546875 -82.132812 29.703125 -80.78125 29.703125 -78.875 C 29.703125 -76.820312 30.472656 -75.390625 32.015625 -74.578125 C 32.742188 -74.210938 33.710938 -73.9375 34.921875 -73.75 C 36.128906 -73.570312 37.875 -73.484375 40.15625 -73.484375 L 55.21875 -73.484375 L 55.21875 -65.234375 L 39.703125 -65.234375 C 37.648438 -65.234375 36.054688 -65.101562 34.921875 -64.84375 C 33.785156 -64.582031 32.925781 -64.234375 32.34375 -63.796875 C 31.164062 -62.921875 30.578125 -61.675781 30.578125 -60.0625 C 30.578125 -58.300781 31.164062 -57.015625 32.34375 -56.203125 C 33 -55.691406 33.835938 -55.363281 34.859375 -55.21875 C 35.890625 -55.070312 37.210938 -55 38.828125 -55 L 42.90625 -55 L 42.90625 -46.75 L 38.71875 -46.75 C 33.507812 -46.75 29.328125 -47.753906 26.171875 -49.765625 C 23.023438 -51.785156 21.453125 -55 21.453125 -59.40625 Z M 21.453125 -59.40625 "/>
</symbol>
<symbol overflow="visible" id="telugu-half:id2:glyph0-2">
<path style="stroke:none;" d=""/>
</symbol>
</g>
</defs>
  <g id="telugu-half:id0:id0" transform="matrix(1.25,0,0,1.25,0.0,5.25390625)"><g id="telugu-half:id0:surface1">
<g style="fill:rgb(0%,0%,0%);fill-opacity:1;">
  <use xlink:href="#telugu-half:id0:glyph0-1" x="16" y="97.59375" class="c0"/>
  <use xlink:href="#telugu-half:id0:glyph0-2" x="97.40625" y="97.59375" class="dc"/>
  <use xlink:href="#telugu-half:id0:glyph0-3" x="160.984375" y="97.59375" class="c1"/>
  <use xlink:href="#telugu-half:id0:glyph0-4" x="160.984375" y="97.59375" class="z"/>
</g>
</g>
</g>
  <g id="telugu-half:id1:id1" transform="matrix(1.25,0,0,1.25,221.23046875,0.0)"><g id="telugu-half:id1:surface1">
<g style="fill:rgb(0%,0%,0%);fill-opacity:1;">
  <use xlink:href="#telugu-half:id1:glyph0-1" x="0" y="120.84375" class="arrow"/>
</g>
</g>
</g>
  <g id="telugu-half:id2:id2" transform="matrix(1.25,0,0,1.25,353.828125,5.25390625)"><g id="telugu-half:id2:surface1">
<g style="fill:rgb(0%,0%,0%);fill-opacity:1;">
  <use xlink:href="#telugu-half:id2:glyph0-1" x="16" y="97.59375" class="c0"/>
  <use xlink:href="#telugu-half:id2:glyph0-2" x="97.40625" y="97.59375" class="c1"/>
</g>
</g>
</g>
</svg>