<!DOCTYPE svg PUBLIC "-//W3C//DTD SVG 1.1//EN" "http://www.w3.org/Graphics/SVG/1.1/DTD/svg11.dtd">
<!-- Created with svg_stack (http://github.com/astraw/svg_stack) --><svg xmlns="http://www.w3.org/2000/svg" xmlns:sodipodi="http://sodipodi.sourceforge.net/DTD/sodipodi-0.dtd" xmlns:xlink="http://www.w3.org/1999/xlink" version="1.1" width="517.01171875" height="201.40625" id="telugu-akhn-kssa">
  <defs><g>
<symbol overflow="visible" id="telugu-akhn-kssa:id0:glyph0-0">
<path style="stroke:none;" d="M 10.34375 0 L 10.34375 -78.546875 L 55.546875 -78.546875 L 55.546875 0 Z M 15.953125 -5.609375 L 49.9375 -5.609375 L 49.9375 -72.9375 L 15.953125 -72.9375 Z M 15.953125 -5.609375 "/>
</symbol>
<symbol overflow="visible" id="telugu-akhn-kssa:id0:glyph0-1">
<path style="stroke:none;" d="M 6.046875 -20.453125 C 7.296875 -17.304688 9.769531 -14.90625 13.46875 -13.25 C 17.175781 -11.601562 21.5625 -10.78125 26.625 -10.78125 C 37.25 -10.78125 42.5625 -13.53125 42.5625 -19.03125 C 42.5625 -21.15625 41.753906 -22.929688 40.140625 -24.359375 C 38.535156 -25.796875 35.238281 -26.695312 30.25 -27.0625 L 24.3125 -27.5 C 17.195312 -28.082031 12.15625 -29.546875 9.1875 -31.890625 C 6.21875 -34.242188 4.734375 -37.4375 4.734375 -41.46875 C 4.734375 -43.957031 5.648438 -46.394531 7.484375 -48.78125 C 9.316406 -51.164062 12.285156 -52.910156 16.390625 -54.015625 C 14.554688 -55.847656 12.722656 -58.046875 10.890625 -60.609375 C 9.054688 -63.171875 7.550781 -65.8125 6.375 -68.53125 L 17.9375 -69.078125 C 18.738281 -66.441406 19.578125 -64.019531 20.453125 -61.8125 C 21.335938 -59.613281 22.40625 -57.34375 23.65625 -55 C 24.164062 -55 24.421875 -55 24.421875 -55 C 26.179688 -56.320312 28.234375 -58.007812 30.578125 -60.0625 C 32.921875 -62.113281 35.335938 -64.332031 37.828125 -66.71875 C 40.328125 -69.101562 42.75 -71.445312 45.09375 -73.75 C 47.445312 -76.0625 49.503906 -78.171875 51.265625 -80.078125 L 56.4375 -75.125 C 51.445312 -70.65625 46.859375 -66.660156 42.671875 -63.140625 C 38.492188 -59.617188 34.867188 -56.757812 31.796875 -54.5625 C 35.609375 -53.976562 39 -53.003906 41.96875 -51.640625 C 44.9375 -50.285156 47.445312 -48.691406 49.5 -46.859375 L 43.125 -40.59375 C 40.550781 -43.519531 37.796875 -45.828125 34.859375 -47.515625 C 31.929688 -49.203125 28.160156 -50.046875 23.546875 -50.046875 C 19.066406 -50.046875 15.875 -49.164062 13.96875 -47.40625 C 12.0625 -45.644531 11.109375 -43.628906 11.109375 -41.359375 C 11.109375 -38.867188 12.097656 -36.90625 14.078125 -35.46875 C 16.054688 -34.039062 19.613281 -33.144531 24.75 -32.78125 L 30.796875 -32.34375 C 36.078125 -31.976562 40.09375 -30.96875 42.84375 -29.3125 C 45.59375 -27.664062 47.460938 -25.738281 48.453125 -23.53125 C 49.441406 -21.332031 49.9375 -19.097656 49.9375 -16.828125 C 49.9375 -13.597656 49.1875 -10.585938 47.6875 -7.796875 C 46.1875 -5.015625 43.820312 -2.800781 40.59375 -1.15625 C 37.363281 0.488281 33.144531 1.3125 27.9375 1.3125 C 21.78125 1.3125 16.882812 0.304688 13.25 -1.703125 C 9.625 -3.722656 6.929688 -6.289062 5.171875 -9.40625 C 3.410156 -12.519531 2.238281 -15.765625 1.65625 -19.140625 Z M 6.046875 -20.453125 "/>
</symbol>
<symbol overflow="visible" id="telugu-akhn-kssa:id0:glyph0-2">
<path style="stroke:none;" d="M 34.984375 -39.484375 C 34.984375 -37.359375 33.921875 -36.296875 31.796875 -36.296875 C 29.660156 -36.296875 28.59375 -37.359375 28.59375 -39.484375 C 28.59375 -41.535156 29.660156 -42.5625 31.796875 -42.5625 C 33.921875 -42.5625 34.984375 -41.535156 34.984375 -39.484375 Z M 21.234375 -33.984375 C 21.234375 -31.859375 20.207031 -30.796875 18.15625 -30.796875 C 16.019531 -30.796875 14.953125 -31.859375 14.953125 -33.984375 C 14.953125 -36.117188 16.019531 -37.1875 18.15625 -37.1875 C 20.207031 -37.1875 21.234375 -36.117188 21.234375 -33.984375 Z M 48.625 -33.984375 C 48.625 -31.859375 47.597656 -30.796875 45.546875 -30.796875 C 43.410156 -30.796875 42.34375 -31.859375 42.34375 -33.984375 C 42.34375 -36.117188 43.410156 -37.1875 45.546875 -37.1875 C 47.597656 -37.1875 48.625 -36.117188 48.625 -33.984375 Z M 53.5625 -20.796875 C 53.5625 -18.734375 52.5 -17.703125 50.375 -17.703125 C 48.25 -17.703125 47.1875 -18.734375 47.1875 -20.796875 C 47.1875 -22.921875 48.25 -23.984375 50.375 -23.984375 C 52.5 -23.984375 53.5625 -22.921875 53.5625 -20.796875 Z M 16.28125 -20.796875 C 16.28125 -18.734375 15.253906 -17.703125 13.203125 -17.703125 C 11.078125 -17.703125 10.015625 -18.734375 10.015625 -20.796875 C 10.015625 -22.921875 11.078125 -23.984375 13.203125 -23.984375 C 15.253906 -23.984375 16.28125 -22.921875 16.28125 -20.796875 Z M 21.234375 -7.703125 C 21.234375 -5.578125 20.207031 -4.515625 18.15625 -4.515625 C 16.019531 -4.515625 14.953125 -5.578125 14.953125 -7.703125 C 14.953125 -9.828125 16.019531 -10.890625 18.15625 -10.890625 C 20.207031 -10.890625 21.234375 -9.828125 21.234375 -7.703125 Z M 48.625 -7.703125 C 48.625 -5.578125 47.597656 -4.515625 45.546875 -4.515625 C 43.410156 -4.515625 42.34375 -5.578125 42.34375 -7.703125 C 42.34375 -9.828125 43.410156 -10.890625 45.546875 -10.890625 C 47.597656 -10.890625 48.625 -9.828125 48.625 -7.703125 Z M 34.984375 -2.203125 C 34.984375 -0.078125 33.921875 0.984375 31.796875 0.984375 C 29.660156 0.984375 28.59375 -0.078125 28.59375 -2.203125 C 28.59375 -4.328125 29.660156 -5.390625 31.796875 -5.390625 C 33.921875 -5.390625 34.984375 -4.328125 34.984375 -2.203125 Z M 34.984375 -2.203125 "/>
</symbol>
<symbol overflow="visible" id="telugu-akhn-kssa:id0:glyph0-3">
<path style="stroke:none;" d="M 4.625 -90.53125 L 3.84375 -82.71875 L -26.296875 -82.71875 C -29.734375 -82.71875 -32.332031 -82.332031 -34.09375 -81.5625 C -35.851562 -80.789062 -36.734375 -79.304688 -36.734375 -77.109375 C -36.734375 -74.835938 -35.78125 -73.316406 -33.875 -72.546875 C -31.96875 -71.773438 -29.40625 -71.390625 -26.1875 -71.390625 L -13.53125 -71.390625 L -13.859375 -66.21875 L -26.734375 -66.21875 C -33.035156 -66.21875 -36.1875 -64.382812 -36.1875 -60.71875 C -36.1875 -58.738281 -35.394531 -57.289062 -33.8125 -56.375 C -32.238281 -55.457031 -29.546875 -55 -25.734375 -55 L -21.453125 -55 L -21.78125 -50.046875 L -27.171875 -50.046875 C -32.671875 -50.046875 -36.554688 -51.109375 -38.828125 -53.234375 C -41.097656 -55.367188 -42.234375 -57.828125 -42.234375 -60.609375 C -42.234375 -64.273438 -40.363281 -66.914062 -36.625 -68.53125 C -41.03125 -70.582031 -43.234375 -73.882812 -43.234375 -78.4375 C -43.234375 -80.632812 -42.753906 -82.519531 -41.796875 -84.09375 C -40.847656 -85.664062 -39.53125 -86.929688 -37.84375 -87.890625 C -36.226562 -88.835938 -34.316406 -89.515625 -32.109375 -89.921875 C -29.910156 -90.328125 -26.6875 -90.53125 -22.4375 -90.53125 Z M 4.625 -90.53125 "/>
</symbol>
<symbol overflow="visible" id="telugu-akhn-kssa:id0:glyph0-4">
<path style="stroke:none;" d="M 16.9375 -69.078125 C 17.75 -66.441406 18.59375 -64.003906 19.46875 -61.765625 C 20.351562 -59.523438 21.488281 -57.125 22.875 -54.5625 C 24.632812 -55.8125 26.6875 -57.476562 29.03125 -59.5625 C 31.382812 -61.65625 33.84375 -63.910156 36.40625 -66.328125 C 38.976562 -68.742188 41.472656 -71.144531 43.890625 -73.53125 C 46.304688 -75.914062 48.429688 -78.097656 50.265625 -80.078125 L 55.4375 -75.125 C 48.25 -68.601562 41.90625 -63.160156 36.40625 -58.796875 C 30.90625 -54.429688 26.691406 -51.515625 23.765625 -50.046875 L 20.34375 -50.046875 C 18.738281 -51.003906 17 -52.4375 15.125 -54.34375 C 13.25 -56.25 11.453125 -58.425781 9.734375 -60.875 C 8.015625 -63.332031 6.566406 -65.882812 5.390625 -68.53125 Z M 67.875 15.1875 C 64.863281 15.1875 62.238281 14.191406 60 12.203125 C 57.769531 10.222656 56.65625 7.472656 56.65625 3.953125 C 56.65625 2.859375 56.765625 1.796875 56.984375 0.765625 C 55.660156 1.128906 54.265625 1.3125 52.796875 1.3125 C 48.253906 1.3125 44.570312 0.0859375 41.75 -2.359375 C 38.925781 -4.816406 36.5625 -7.734375 34.65625 -11.109375 C 33.769531 -6.859375 31.914062 -3.722656 29.09375 -1.703125 C 26.269531 0.304688 22.988281 1.3125 19.25 1.3125 C 14.40625 1.3125 10.515625 -0.171875 7.578125 -3.140625 C 4.648438 -6.109375 3.1875 -10.160156 3.1875 -15.296875 C 3.1875 -18.296875 3.8125 -21.0625 5.0625 -23.59375 C 6.3125 -26.125 8.144531 -28.160156 10.5625 -29.703125 C 12.976562 -31.242188 15.910156 -32.015625 19.359375 -32.015625 C 22.953125 -32.015625 25.957031 -31.171875 28.375 -29.484375 C 30.800781 -27.796875 32.5625 -25.59375 33.65625 -22.875 C 36.375 -18.695312 39.085938 -15.632812 41.796875 -13.6875 C 44.515625 -11.75 47.816406 -10.78125 51.703125 -10.78125 C 56.023438 -10.78125 59.304688 -12.0625 61.546875 -14.625 C 63.785156 -17.195312 64.90625 -20.828125 64.90625 -25.515625 C 64.90625 -31.378906 62.832031 -36.253906 58.6875 -40.140625 C 54.539062 -44.035156 48.210938 -46.128906 39.703125 -46.421875 L 40.046875 -55.4375 C 46.566406 -55.289062 52.046875 -53.785156 56.484375 -50.921875 C 60.921875 -48.066406 64.253906 -44.273438 66.484375 -39.546875 C 68.722656 -34.816406 69.84375 -29.519531 69.84375 -23.65625 C 69.84375 -19.101562 69.289062 -15.03125 68.1875 -11.4375 C 67.09375 -7.84375 65.445312 -4.984375 63.25 -2.859375 C 62.289062 -1.460938 61.8125 -0.144531 61.8125 1.09375 C 61.8125 3.882812 63.644531 5.28125 67.3125 5.28125 C 68.78125 5.28125 70.007812 5.078125 71 4.671875 C 71.988281 4.265625 73 3.695312 74.03125 2.96875 L 79.203125 11.984375 C 77.441406 13.015625 75.71875 13.804688 74.03125 14.359375 C 72.34375 14.910156 70.289062 15.1875 67.875 15.1875 Z M 9.796875 -17.59375 C 9.796875 -14.882812 10.597656 -12.6875 12.203125 -11 C 13.816406 -9.3125 16.164062 -8.46875 19.25 -8.46875 C 22.257812 -8.46875 24.644531 -9.238281 26.40625 -10.78125 C 28.164062 -12.320312 29.046875 -14.628906 29.046875 -17.703125 C 29.046875 -20.566406 28.179688 -22.878906 26.453125 -24.640625 C 24.734375 -26.398438 22.367188 -27.28125 19.359375 -27.28125 C 16.421875 -27.28125 14.09375 -26.414062 12.375 -24.6875 C 10.65625 -22.96875 9.796875 -20.601562 9.796875 -17.59375 Z M 9.796875 -17.59375 "/>
</symbol>
</g>
<g>
<symbol overflow="visible" id="telugu-akhn-kssa:id1:glyph0-0">
<path style="stroke:none;" d="M 5.375 -96.6875 L 69.828125 -96.6875 L 69.828125 0 L 5.375 0 Z M 8.0625 -2.6875 L 67.140625 -2.6875 L 67.140625 -94 L 8.0625 -94 Z M 8.0625 -2.6875 "/>
</symbol>
<symbol overflow="visible" id="telugu-akhn-kssa:id1:glyph0-1">
<path style="stroke:none;" d="M 68.15625 -13.75 L 66.28125 -18.640625 L 88.09375 -27.390625 L 6.984375 -27.390625 L 6.984375 -34 L 88.09375 -34 L 66.28125 -42.75 L 68.15625 -47.640625 L 99.09375 -34.265625 L 99.09375 -27.125 Z M 68.15625 -13.75 "/>
</symbol>
</g>
<g>
<symbol overflow="visible" id="telugu-akhn-kssa:id2:glyph0-0">
<path style="stroke:none;" d="M 10.34375 0 L 10.34375 -78.546875 L 55.546875 -78.546875 L 55.546875 0 Z M 15.953125 -5.609375 L 49.9375 -5.609375 L 49.9375 -72.9375 L 15.953125 -72.9375 Z M 15.953125 -5.609375 "/>
</symbol>
<symbol overflow="visible" id="telugu-akhn-kssa:id2:glyph0-1">
<path style="stroke:none;" d="M 6.046875 -20.453125 C 7.296875 -17.304688 9.769531 -14.90625 13.46875 -13.25 C 17.175781 -11.601562 21.5625 -10.78125 26.625 -10.78125 C 37.25 -10.78125 42.5625 -13.53125 42.5625 -19.03125 C 42.5625 -21.15625 41.753906 -22.929688 40.140625 -24.359375 C 38.535156 -25.796875 35.238281 -26.695312 30.25 -27.0625 L 24.3125 -27.5 C 17.195312 -28.082031 12.15625 -29.546875 9.1875 -31.890625 C 6.21875 -34.242188 4.734375 -37.4375 4.734375 -41.46875 C 4.734375 -43.957031 5.648438 -46.394531 7.484375 -48.78125 C 9.316406 -51.164062 12.285156 -52.910156 16.390625 -54.015625 C 14.554688 -55.847656 12.722656 -58.046875 10.890625 -60.609375 C 9.054688 -63.171875 7.550781 -65.8125 6.375 -68.53125 L 17.9375 -69.078125 C 18.738281 -66.441406 19.578125 -64.019531 20.453125 -61.8125 C 21.335938 -59.613281 22.40625 -57.34375 23.65625 -55 C 24.164062 -55 24.421875 -55 24.421875 -55 C 26.179688 -56.320312 28.234375 -58.007812 30.578125 -60.0625 C 32.921875 -62.113281 35.335938 -64.332031 37.828125 -66.71875 C 40.328125 -69.101562 42.75 -71.445312 45.09375 -73.75 C 47.445312 -76.0625 49.503906 -78.171875 51.265625 -80.078125 L 56.4375 -75.125 C 51.445312 -70.65625 46.859375 -66.660156 42.671875 -63.140625 C 38.492188 -59.617188 34.867188 -56.757812 31.796875 -54.5625 C 35.609375 -53.976562 39 -53.003906 41.96875 -51.640625 C 44.9375 -50.285156 47.445312 -48.691406 49.5 -46.859375 L 43.125 -40.59375 C 40.550781 -43.519531 37.796875 -45.828125 34.859375 -47.515625 C 31.929688 -49.203125 28.160156 -50.046875 23.546875 -50.046875 C 19.066406 -50.046875 15.875 -49.164062 13.96875 -47.40625 C 12.0625 -45.644531 11.109375 -43.628906 11.109375 -41.359375 C 11.109375 -38.867188 12.097656 -36.90625 14.078125 -35.46875 C 16.054688 -34.039062 19.613281 -33.144531 24.75 -32.78125 L 30.796875 -32.34375 C 36.078125 -31.976562 40.09375 -30.96875 42.84375 -29.3125 C 45.59375 -27.664062 47.460938 -25.738281 48.453125 -23.53125 C 49.441406 -21.332031 49.9375 -19.097656 49.9375 -16.828125 C 49.9375 -13.597656 49.1875 -10.585938 47.6875 -7.796875 C 46.1875 -5.015625 43.820312 -2.800781 40.59375 -1.15625 C 37.363281 0.488281 33.144531 1.3125 27.9375 1.3125 C 21.78125 1.3125 16.882812 0.304688 13.25 -1.703125 C 9.625 -3.722656 6.929688 -6.289062 5.171875 -9.40625 C 3.410156 -12.519531 2.238281 -15.765625 1.65625 -19.140625 Z M 37.953125 22.109375 C 35.679688 22.109375 33.5 21.539062 31.40625 20.40625 C 29.3125 19.269531 27.570312 17.125 26.1875 13.96875 C 24.789062 17.050781 23.046875 19.175781 20.953125 20.34375 C 18.859375 21.519531 16.601562 22.109375 14.1875 22.109375 C 11.476562 22.109375 8.96875 21.046875 6.65625 18.921875 C 4.34375 16.796875 3.1875 13.273438 3.1875 8.359375 C 3.1875 6.960938 3.3125 5.585938 3.5625 4.234375 C 3.820312 2.878906 4.210938 1.503906 4.734375 0.109375 L 9.234375 0.546875 C 8.867188 1.867188 8.613281 2.96875 8.46875 3.84375 C 8.320312 4.726562 8.25 5.679688 8.25 6.703125 C 8.25 9.203125 8.90625 10.960938 10.21875 11.984375 C 11.539062 13.015625 13.15625 13.53125 15.0625 13.53125 C 18 13.53125 20.164062 12.757812 21.5625 11.21875 C 22.957031 9.675781 23.945312 7.441406 24.53125 4.515625 L 27.71875 4.515625 C 28.300781 7.441406 29.304688 9.675781 30.734375 11.21875 C 32.171875 12.757812 34.359375 13.53125 37.296875 13.53125 C 39.203125 13.53125 40.8125 13 42.125 11.9375 C 43.445312 10.875 44.109375 9.09375 44.109375 6.59375 C 44.109375 4.757812 43.816406 2.890625 43.234375 0.984375 L 47.734375 0.546875 C 48.691406 2.890625 49.171875 5.492188 49.171875 8.359375 C 49.171875 11.878906 48.398438 14.847656 46.859375 17.265625 C 47.003906 18.660156 47.570312 19.578125 48.5625 20.015625 C 49.550781 20.460938 50.671875 20.6875 51.921875 20.6875 C 52.578125 20.6875 53.234375 20.609375 53.890625 20.453125 C 54.554688 20.304688 55.179688 20.085938 55.765625 19.796875 L 57.75 27.71875 C 57.238281 28.007812 56.46875 28.285156 55.4375 28.546875 C 54.414062 28.804688 53.242188 28.9375 51.921875 28.9375 C 49.941406 28.9375 47.976562 28.382812 46.03125 27.28125 C 44.09375 26.175781 42.976562 24.125 42.6875 21.125 C 41.289062 21.78125 39.710938 22.109375 37.953125 22.109375 Z M 37.953125 22.109375 "/>
</symbol>
</g>
</defs>
  <g id="telugu-akhn-kssa:id0:id0" transform="matrix(1.25,0,0,1.25,0.0,5.25390625)"><g id="telugu-akhn-kssa:id0:surface1">
<g style="fill:rgb(0%,0%,0%);fill-opacity:1;">
  <use xlink:href="#telugu-akhn-kssa:id0:glyph0-1" x="16" y="97.59375" class="c0"/>
  <use xlink:href="#telugu-akhn-kssa:id0:glyph0-2" x="68.90625" y="97.59375" class="dc"/>
  <use xlink:href="#telugu-akhn-kssa:id0:glyph0-3" x="132.484375" y="97.59375" class="c1"/>
  <use xlink:href="#telugu-akhn-kssa:id0:glyph0-4" x="132.484375" y="97.59375" class="c2"/>
</g>
</g>
</g>
  <g id="telugu-akhn-kssa:id1:id1" transform="matrix(1.25,0,0,1.25,278.28125,0.0)"><g id="telugu-akhn-kssa:id1:surface1">
<g style="fill:rgb(0%,0%,0%);fill-opacity:1;">
  <use xlink:href="#telugu-akhn-kssa:id1:glyph0-1" x="0" y="120.84375" class="arrow"/>
</g>
</g>
</g>
  <g id="telugu-akhn-kssa:id2:id2" transform="matrix(1.25,0,0,1.25,410.87890625,5.25390625)"><g id="telugu-akhn-kssa:id2:surface1">
<g style="fill:rgb(0%,0%,0%);fill-opacity:1;">
  <use xlink:href="#telugu-akhn-kssa:id2:glyph0-1" x="16" y="97.59375" class="c3"/>
</g>
</g>
</g>
</svg>
