<!DOCTYPE svg PUBLIC "-//W3C//DTD SVG 1.1//EN" "http://www.w3.org/Graphics/SVG/1.1/DTD/svg11.dtd">
<!-- Created with svg_stack (http://github.com/astraw/svg_stack) --><svg xmlns="http://www.w3.org/2000/svg" xmlns:sodipodi="http://sodipodi.sourceforge.net/DTD/sodipodi-0.dtd" xmlns:xlink="http://www.w3.org/1999/xlink" version="1.1" width="100%" id="telugu-rphf" viewBox="0 0 363.30078125 201.40625">
  <defs><g>
<symbol overflow="visible" id="telugu-rphf:id0:glyph0-0">
<path style="stroke:none;" d="M 10.34375 0 L 10.34375 -78.546875 L 55.546875 -78.546875 L 55.546875 0 Z M 15.953125 -5.609375 L 49.9375 -5.609375 L 49.9375 -72.9375 L 15.953125 -72.9375 Z M 15.953125 -5.609375 "/>
</symbol>
<symbol overflow="visible" id="telugu-rphf:id0:glyph0-1">
<path style="stroke:none;" d="M 3.84375 -26.734375 C 3.84375 -33.179688 5.492188 -38.878906 8.796875 -43.828125 C 12.097656 -48.785156 16.753906 -52.144531 22.765625 -53.90625 C 20.859375 -55.738281 18.96875 -57.9375 17.09375 -60.5 C 15.226562 -63.0625 13.710938 -65.738281 12.546875 -68.53125 L 24.09375 -69.078125 C 24.894531 -66.441406 25.734375 -64.019531 26.609375 -61.8125 C 27.492188 -59.613281 28.5625 -57.34375 29.8125 -55 C 30.03125 -55 30.226562 -55 30.40625 -55 C 30.59375 -55 30.648438 -55 30.578125 -55 C 32.335938 -56.320312 34.390625 -58.007812 36.734375 -60.0625 C 39.085938 -62.113281 41.507812 -64.3125 44 -66.65625 C 46.488281 -69.007812 48.90625 -71.359375 51.25 -73.703125 C 53.601562 -76.046875 55.660156 -78.171875 57.421875 -80.078125 L 62.59375 -75.125 C 57.53125 -70.582031 52.890625 -66.550781 48.671875 -63.03125 C 44.453125 -59.507812 40.804688 -56.613281 37.734375 -54.34375 C 42.054688 -53.457031 45.738281 -51.691406 48.78125 -49.046875 C 51.820312 -46.410156 54.148438 -43.164062 55.765625 -39.3125 C 57.378906 -35.46875 58.1875 -31.273438 58.1875 -26.734375 C 58.1875 -21.160156 57.085938 -16.265625 54.890625 -12.046875 C 52.691406 -7.828125 49.554688 -4.546875 45.484375 -2.203125 C 41.410156 0.140625 36.550781 1.3125 30.90625 1.3125 C 25.257812 1.3125 20.421875 0.125 16.390625 -2.25 C 12.359375 -4.632812 9.257812 -7.914062 7.09375 -12.09375 C 4.925781 -16.28125 3.84375 -21.160156 3.84375 -26.734375 Z M 10.890625 -30.140625 C 10.890625 -24.566406 12.554688 -19.984375 15.890625 -16.390625 C 19.234375 -12.796875 24.238281 -11 30.90625 -11 C 37.65625 -11 42.71875 -12.757812 46.09375 -16.28125 C 49.46875 -19.800781 51.15625 -24.421875 51.15625 -30.140625 C 51.15625 -36.003906 49.429688 -40.785156 45.984375 -44.484375 C 42.535156 -48.191406 37.617188 -50.046875 31.234375 -50.046875 C 25.003906 -50.046875 20.054688 -48.210938 16.390625 -44.546875 C 12.722656 -40.878906 10.890625 -36.078125 10.890625 -30.140625 Z M 10.890625 -30.140625 "/>
</symbol>
<symbol overflow="visible" id="telugu-rphf:id0:glyph0-2">
<path style="stroke:none;" d="M 4.625 -90.53125 L 3.84375 -82.71875 L -26.296875 -82.71875 C -29.734375 -82.71875 -32.332031 -82.332031 -34.09375 -81.5625 C -35.851562 -80.789062 -36.734375 -79.304688 -36.734375 -77.109375 C -36.734375 -74.835938 -35.78125 -73.316406 -33.875 -72.546875 C -31.96875 -71.773438 -29.40625 -71.390625 -26.1875 -71.390625 L -13.53125 -71.390625 L -13.859375 -66.21875 L -26.734375 -66.21875 C -33.035156 -66.21875 -36.1875 -64.382812 -36.1875 -60.71875 C -36.1875 -58.738281 -35.394531 -57.289062 -33.8125 -56.375 C -32.238281 -55.457031 -29.546875 -55 -25.734375 -55 L -21.453125 -55 L -21.78125 -50.046875 L -27.171875 -50.046875 C -32.671875 -50.046875 -36.554688 -51.109375 -38.828125 -53.234375 C -41.097656 -55.367188 -42.234375 -57.828125 -42.234375 -60.609375 C -42.234375 -64.273438 -40.363281 -66.914062 -36.625 -68.53125 C -41.03125 -70.582031 -43.234375 -73.882812 -43.234375 -78.4375 C -43.234375 -80.632812 -42.753906 -82.519531 -41.796875 -84.09375 C -40.847656 -85.664062 -39.53125 -86.929688 -37.84375 -87.890625 C -36.226562 -88.835938 -34.316406 -89.515625 -32.109375 -89.921875 C -29.910156 -90.328125 -26.6875 -90.53125 -22.4375 -90.53125 Z M 4.625 -90.53125 "/>
</symbol>
<symbol overflow="visible" id="telugu-rphf:id0:glyph0-3">
<path style="stroke:none;" d="M 11.984375 -86.6875 L 16.0625 -82.609375 L 3.953125 -71.0625 L 16.0625 -59.296875 L 11.984375 -55.328125 L 2.859375 -64.34375 L 2.859375 18.15625 L -2.859375 18.15625 L -2.859375 -64.34375 L -11.984375 -55.328125 L -16.0625 -59.296875 L -3.953125 -71.0625 L -16.0625 -82.71875 L -11.984375 -86.6875 L 0 -74.796875 Z M 11.984375 -86.6875 "/>
</symbol>
</g>
<g>
<symbol overflow="visible" id="telugu-rphf:id1:glyph0-0">
<path style="stroke:none;" d="M 5.375 -96.6875 L 69.828125 -96.6875 L 69.828125 0 L 5.375 0 Z M 8.0625 -2.6875 L 67.140625 -2.6875 L 67.140625 -94 L 8.0625 -94 Z M 8.0625 -2.6875 "/>
</symbol>
<symbol overflow="visible" id="telugu-rphf:id1:glyph0-1">
<path style="stroke:none;" d="M 68.15625 -13.75 L 66.28125 -18.640625 L 88.09375 -27.390625 L 6.984375 -27.390625 L 6.984375 -34 L 88.09375 -34 L 66.28125 -42.75 L 68.15625 -47.640625 L 99.09375 -34.265625 L 99.09375 -27.125 Z M 68.15625 -13.75 "/>
</symbol>
</g>
<g>
<symbol overflow="visible" id="telugu-rphf:id2:glyph0-0">
<path style="stroke:none;" d="M 10.34375 0 L 10.34375 -78.546875 L 55.546875 -78.546875 L 55.546875 0 Z M 15.953125 -5.609375 L 49.9375 -5.609375 L 49.9375 -72.9375 L 15.953125 -72.9375 Z M 15.953125 -5.609375 "/>
</symbol>
<symbol overflow="visible" id="telugu-rphf:id2:glyph0-1">
<path style="stroke:none;" d="M 4.40625 -13.203125 C 4.40625 -15.617188 5.082031 -17.867188 6.4375 -19.953125 C 7.789062 -22.046875 9.828125 -23.644531 12.546875 -24.75 C 9.753906 -25.707031 7.515625 -27.410156 5.828125 -29.859375 C 4.140625 -32.316406 3.296875 -35.234375 3.296875 -38.609375 C 3.296875 -43.742188 5.3125 -47.703125 9.34375 -50.484375 C 11.476562 -51.953125 14.117188 -53 17.265625 -53.625 C 20.421875 -54.25 24.566406 -54.5625 29.703125 -54.5625 L 56.875 -54.5625 L 55.875 -45.4375 L 27.0625 -45.4375 C 23.539062 -45.4375 20.734375 -45.25 18.640625 -44.875 C 16.554688 -44.507812 14.851562 -43.925781 13.53125 -43.125 C 11.257812 -41.65625 10.125 -39.523438 10.125 -36.734375 C 10.125 -33.515625 11.382812 -31.242188 13.90625 -29.921875 C 16.4375 -28.597656 19.941406 -27.9375 24.421875 -27.9375 L 37.953125 -27.9375 L 37.1875 -22.65625 L 24.421875 -22.65625 C 19.796875 -22.65625 16.4375 -21.882812 14.34375 -20.34375 C 12.257812 -18.8125 11.21875 -16.648438 11.21875 -13.859375 C 11.21875 -10.773438 12.257812 -8.664062 14.34375 -7.53125 C 16.4375 -6.394531 19.316406 -5.828125 22.984375 -5.828125 L 26.1875 -5.828125 L 25.40625 0 L 22.4375 0 C 19.0625 0 16 -0.421875 13.25 -1.265625 C 10.5 -2.109375 8.335938 -3.5 6.765625 -5.4375 C 5.191406 -7.382812 4.40625 -9.972656 4.40625 -13.203125 Z M 4.40625 -13.203125 "/>
</symbol>
</g>
</defs>
  <g id="telugu-rphf:id0:id0" transform="matrix(1.25,0,0,1.25,0.0,5.25390625)"><g id="telugu-rphf:id0:surface1">
<g style="fill:rgb(0%,0%,0%);fill-opacity:1;">
  <use xlink:href="#telugu-rphf:id0:glyph0-1" x="16" y="97.59375" class="c0"/>
  <use xlink:href="#telugu-rphf:id0:glyph0-2" x="78.046875" y="97.59375" class="c1"/>
  <use xlink:href="#telugu-rphf:id0:glyph0-3" x="78.046875" y="97.59375" class="dc"/>
</g>
</g>
</g>
  <g id="telugu-rphf:id1:id1" transform="matrix(1.25,0,0,1.25,117.55859375,0.0)"><g id="telugu-rphf:id1:surface1">
<g style="fill:rgb(0%,0%,0%);fill-opacity:1;">
  <use xlink:href="#telugu-rphf:id1:glyph0-1" x="0" y="120.84375" class="arrow"/>
</g>
</g>
</g>
  <g id="telugu-rphf:id2:id2" transform="matrix(1.25,0,0,1.25,250.15625,5.25390625)"><g id="telugu-rphf:id2:surface1">
<g style="fill:rgb(0%,0%,0%);fill-opacity:1;">
  <use xlink:href="#telugu-rphf:id2:glyph0-1" x="16" y="97.59375" class="c0"/>
</g>
</g>
</g>
</svg>
