<!DOCTYPE svg PUBLIC "-//W3C//DTD SVG 1.1//EN" "http://www.w3.org/Graphics/SVG/1.1/DTD/svg11.dtd">
<!-- Created with svg_stack (http://github.com/astraw/svg_stack) --><svg xmlns="http://www.w3.org/2000/svg" xmlns:sodipodi="http://sodipodi.sourceforge.net/DTD/sodipodi-0.dtd" xmlns:xlink="http://www.w3.org/1999/xlink" version="1.1" width="100%" id="telugu-blwf" viewBox="0 0 548.2421875 201.40625">
  <defs><g>
<symbol overflow="visible" id="telugu-blwf:id0:glyph0-0">
<path style="stroke:none;" d="M 10.34375 0 L 10.34375 -78.546875 L 55.546875 -78.546875 L 55.546875 0 Z M 15.953125 -5.609375 L 49.9375 -5.609375 L 49.9375 -72.9375 L 15.953125 -72.9375 Z M 15.953125 -5.609375 "/>
</symbol>
<symbol overflow="visible" id="telugu-blwf:id0:glyph0-1">
<path style="stroke:none;" d="M 41.578125 0 C 43.703125 -4.394531 45.550781 -8.921875 47.125 -13.578125 C 48.707031 -18.234375 49.5 -23.460938 49.5 -29.265625 C 49.5 -33.078125 48.894531 -36.554688 47.6875 -39.703125 C 46.476562 -42.859375 44.550781 -45.367188 41.90625 -47.234375 C 39.269531 -49.109375 35.820312 -50.046875 31.5625 -50.046875 C 27.238281 -50.046875 23.71875 -49.109375 21 -47.234375 C 18.289062 -45.367188 16.332031 -42.894531 15.125 -39.8125 C 13.914062 -36.738281 13.3125 -33.332031 13.3125 -29.59375 C 13.3125 -23.875 14.039062 -18.644531 15.5 -13.90625 C 16.96875 -9.175781 18.804688 -4.539062 21.015625 0 L 9.34375 0.546875 C 8.03125 -3.117188 6.953125 -7.09375 6.109375 -11.375 C 5.265625 -15.664062 4.84375 -19.941406 4.84375 -24.203125 C 4.84375 -31.753906 6.488281 -38.097656 9.78125 -43.234375 C 13.082031 -48.367188 17.484375 -51.851562 22.984375 -53.6875 C 21.078125 -55.519531 19.171875 -57.753906 17.265625 -60.390625 C 15.359375 -63.023438 13.820312 -65.738281 12.65625 -68.53125 L 24.203125 -69.078125 C 25.003906 -66.441406 25.84375 -64.019531 26.71875 -61.8125 C 27.601562 -59.613281 28.671875 -57.34375 29.921875 -55 C 30.210938 -55 30.46875 -55 30.6875 -55 C 32.445312 -56.320312 34.5 -58.007812 36.84375 -60.0625 C 39.195312 -62.113281 41.617188 -64.3125 44.109375 -66.65625 C 46.597656 -69.007812 49.015625 -71.359375 51.359375 -73.703125 C 53.710938 -76.046875 55.769531 -78.171875 57.53125 -80.078125 L 62.703125 -75.125 C 57.640625 -70.582031 53 -66.550781 48.78125 -63.03125 C 44.5625 -59.507812 40.878906 -56.613281 37.734375 -54.34375 C 43.816406 -52.945312 48.691406 -49.585938 52.359375 -44.265625 C 56.023438 -38.953125 57.859375 -32.191406 57.859375 -23.984375 C 57.859375 -19.796875 57.378906 -15.578125 56.421875 -11.328125 C 55.472656 -7.078125 54.375 -3.117188 53.125 0.546875 Z M 41.578125 0 "/>
</symbol>
<symbol overflow="visible" id="telugu-blwf:id0:glyph0-2">
<path style="stroke:none;" d="M 34.984375 -39.484375 C 34.984375 -37.359375 33.921875 -36.296875 31.796875 -36.296875 C 29.660156 -36.296875 28.59375 -37.359375 28.59375 -39.484375 C 28.59375 -41.535156 29.660156 -42.5625 31.796875 -42.5625 C 33.921875 -42.5625 34.984375 -41.535156 34.984375 -39.484375 Z M 21.234375 -33.984375 C 21.234375 -31.859375 20.207031 -30.796875 18.15625 -30.796875 C 16.019531 -30.796875 14.953125 -31.859375 14.953125 -33.984375 C 14.953125 -36.117188 16.019531 -37.1875 18.15625 -37.1875 C 20.207031 -37.1875 21.234375 -36.117188 21.234375 -33.984375 Z M 48.625 -33.984375 C 48.625 -31.859375 47.597656 -30.796875 45.546875 -30.796875 C 43.410156 -30.796875 42.34375 -31.859375 42.34375 -33.984375 C 42.34375 -36.117188 43.410156 -37.1875 45.546875 -37.1875 C 47.597656 -37.1875 48.625 -36.117188 48.625 -33.984375 Z M 53.5625 -20.796875 C 53.5625 -18.734375 52.5 -17.703125 50.375 -17.703125 C 48.25 -17.703125 47.1875 -18.734375 47.1875 -20.796875 C 47.1875 -22.921875 48.25 -23.984375 50.375 -23.984375 C 52.5 -23.984375 53.5625 -22.921875 53.5625 -20.796875 Z M 16.28125 -20.796875 C 16.28125 -18.734375 15.253906 -17.703125 13.203125 -17.703125 C 11.078125 -17.703125 10.015625 -18.734375 10.015625 -20.796875 C 10.015625 -22.921875 11.078125 -23.984375 13.203125 -23.984375 C 15.253906 -23.984375 16.28125 -22.921875 16.28125 -20.796875 Z M 21.234375 -7.703125 C 21.234375 -5.578125 20.207031 -4.515625 18.15625 -4.515625 C 16.019531 -4.515625 14.953125 -5.578125 14.953125 -7.703125 C 14.953125 -9.828125 16.019531 -10.890625 18.15625 -10.890625 C 20.207031 -10.890625 21.234375 -9.828125 21.234375 -7.703125 Z M 48.625 -7.703125 C 48.625 -5.578125 47.597656 -4.515625 45.546875 -4.515625 C 43.410156 -4.515625 42.34375 -5.578125 42.34375 -7.703125 C 42.34375 -9.828125 43.410156 -10.890625 45.546875 -10.890625 C 47.597656 -10.890625 48.625 -9.828125 48.625 -7.703125 Z M 34.984375 -2.203125 C 34.984375 -0.078125 33.921875 0.984375 31.796875 0.984375 C 29.660156 0.984375 28.59375 -0.078125 28.59375 -2.203125 C 28.59375 -4.328125 29.660156 -5.390625 31.796875 -5.390625 C 33.921875 -5.390625 34.984375 -4.328125 34.984375 -2.203125 Z M 34.984375 -2.203125 "/>
</symbol>
<symbol overflow="visible" id="telugu-blwf:id0:glyph0-3">
<path style="stroke:none;" d="M 4.625 -90.53125 L 3.84375 -82.71875 L -26.296875 -82.71875 C -29.734375 -82.71875 -32.332031 -82.332031 -34.09375 -81.5625 C -35.851562 -80.789062 -36.734375 -79.304688 -36.734375 -77.109375 C -36.734375 -74.835938 -35.78125 -73.316406 -33.875 -72.546875 C -31.96875 -71.773438 -29.40625 -71.390625 -26.1875 -71.390625 L -13.53125 -71.390625 L -13.859375 -66.21875 L -26.734375 -66.21875 C -33.035156 -66.21875 -36.1875 -64.382812 -36.1875 -60.71875 C -36.1875 -58.738281 -35.394531 -57.289062 -33.8125 -56.375 C -32.238281 -55.457031 -29.546875 -55 -25.734375 -55 L -21.453125 -55 L -21.78125 -50.046875 L -27.171875 -50.046875 C -32.671875 -50.046875 -36.554688 -51.109375 -38.828125 -53.234375 C -41.097656 -55.367188 -42.234375 -57.828125 -42.234375 -60.609375 C -42.234375 -64.273438 -40.363281 -66.914062 -36.625 -68.53125 C -41.03125 -70.582031 -43.234375 -73.882812 -43.234375 -78.4375 C -43.234375 -80.632812 -42.753906 -82.519531 -41.796875 -84.09375 C -40.847656 -85.664062 -39.53125 -86.929688 -37.84375 -87.890625 C -36.226562 -88.835938 -34.316406 -89.515625 -32.109375 -89.921875 C -29.910156 -90.328125 -26.6875 -90.53125 -22.4375 -90.53125 Z M 4.625 -90.53125 "/>
</symbol>
<symbol overflow="visible" id="telugu-blwf:id0:glyph0-4">
<path style="stroke:none;" d="M 39.59375 1.4375 C 32.78125 1.4375 26.660156 0.539062 21.234375 -1.25 C 15.804688 -3.050781 11.53125 -5.953125 8.40625 -9.953125 C 5.289062 -13.953125 3.734375 -19.210938 3.734375 -25.734375 C 3.734375 -29.617188 4.503906 -33.117188 6.046875 -36.234375 C 7.585938 -39.359375 9.804688 -41.816406 12.703125 -43.609375 C 15.597656 -45.410156 19.0625 -46.3125 23.09375 -46.3125 C 27.570312 -46.3125 30.960938 -45.082031 33.265625 -42.625 C 35.578125 -40.164062 36.734375 -37.101562 36.734375 -33.4375 C 36.734375 -29.625 35.578125 -26.46875 33.265625 -23.96875 C 30.960938 -21.476562 27.6875 -20.234375 23.4375 -20.234375 C 19.84375 -20.234375 16.90625 -21.316406 14.625 -23.484375 C 12.351562 -25.648438 11.21875 -28.820312 11.21875 -33 C 11.21875 -34.613281 11.507812 -36.15625 12.09375 -37.625 C 11.070312 -36.59375 10.25 -35.285156 9.625 -33.703125 C 9 -32.128906 8.6875 -30.28125 8.6875 -28.15625 C 8.6875 -16.570312 19.175781 -10.78125 40.15625 -10.78125 C 46.382812 -10.78125 51.789062 -11.347656 56.375 -12.484375 C 60.957031 -13.617188 64.515625 -15.429688 67.046875 -17.921875 C 69.578125 -20.421875 70.84375 -23.6875 70.84375 -27.71875 C 70.84375 -31.457031 69.816406 -34.390625 67.765625 -36.515625 C 67.984375 -35.421875 68.09375 -34.066406 68.09375 -32.453125 C 68.09375 -30.398438 67.722656 -28.4375 66.984375 -26.5625 C 66.253906 -24.695312 65.007812 -23.175781 63.25 -22 C 61.488281 -20.820312 59.03125 -20.234375 55.875 -20.234375 C 51.625 -20.234375 48.378906 -21.296875 46.140625 -23.421875 C 43.910156 -25.554688 42.796875 -28.457031 42.796875 -32.125 C 42.796875 -35.789062 44.078125 -38.796875 46.640625 -41.140625 C 49.203125 -43.484375 52.832031 -44.65625 57.53125 -44.65625 C 58.332031 -44.65625 59.03125 -44.617188 59.625 -44.546875 C 58.226562 -46.160156 56.226562 -47.476562 53.625 -48.5 C 51.019531 -49.53125 47.296875 -50.046875 42.453125 -50.046875 L 39.265625 -50.046875 C 37.648438 -51.003906 35.90625 -52.4375 34.03125 -54.34375 C 32.164062 -56.25 30.367188 -58.425781 28.640625 -60.875 C 26.921875 -63.332031 25.476562 -65.882812 24.3125 -68.53125 L 35.859375 -69.078125 C 36.660156 -66.441406 37.5 -64.003906 38.375 -61.765625 C 39.257812 -59.523438 40.398438 -57.125 41.796875 -54.5625 C 43.554688 -55.8125 45.609375 -57.476562 47.953125 -59.5625 C 50.304688 -61.65625 52.765625 -63.910156 55.328125 -66.328125 C 57.898438 -68.742188 60.394531 -71.144531 62.8125 -73.53125 C 65.226562 -75.914062 67.351562 -78.097656 69.1875 -80.078125 L 74.359375 -75.125 C 69.441406 -70.65625 64.910156 -66.695312 60.765625 -63.25 C 56.628906 -59.800781 52.984375 -56.941406 49.828125 -54.671875 C 53.710938 -54.015625 57.066406 -52.65625 59.890625 -50.59375 C 62.710938 -48.539062 64.75 -46.160156 66 -43.453125 C 68.863281 -42.128906 71.210938 -40.054688 73.046875 -37.234375 C 74.878906 -34.410156 75.796875 -30.578125 75.796875 -25.734375 C 75.796875 -17.015625 72.929688 -10.304688 67.203125 -5.609375 C 61.484375 -0.910156 52.28125 1.4375 39.59375 1.4375 Z M 49.71875 -32.015625 C 49.71875 -29.585938 50.359375 -27.84375 51.640625 -26.78125 C 52.921875 -25.71875 54.476562 -25.1875 56.3125 -25.1875 C 58.445312 -25.1875 60.132812 -25.8125 61.375 -27.0625 C 62.625 -28.3125 63.25 -30.328125 63.25 -33.109375 C 63.25 -35.742188 62.847656 -37.941406 62.046875 -39.703125 C 61.015625 -39.929688 59.875 -40.046875 58.625 -40.046875 C 56.5 -40.046875 54.484375 -39.4375 52.578125 -38.21875 C 50.671875 -37.007812 49.71875 -34.941406 49.71875 -32.015625 Z M 30.25 -32.34375 C 30.25 -34.6875 29.625 -36.5 28.375 -37.78125 C 27.132812 -39.0625 25.488281 -39.703125 23.4375 -39.703125 C 21.519531 -39.703125 19.863281 -39.078125 18.46875 -37.828125 C 17.082031 -36.585938 16.390625 -34.757812 16.390625 -32.34375 C 16.390625 -29.625 17.125 -27.710938 18.59375 -26.609375 C 20.0625 -25.515625 21.710938 -24.96875 23.546875 -24.96875 C 25.453125 -24.96875 27.046875 -25.628906 28.328125 -26.953125 C 29.609375 -28.273438 30.25 -30.070312 30.25 -32.34375 Z M 30.25 -32.34375 "/>
</symbol>
</g>
<g>
<symbol overflow="visible" id="telugu-blwf:id1:glyph0-0">
<path style="stroke:none;" d="M 5.375 -96.6875 L 69.828125 -96.6875 L 69.828125 0 L 5.375 0 Z M 8.0625 -2.6875 L 67.140625 -2.6875 L 67.140625 -94 L 8.0625 -94 Z M 8.0625 -2.6875 "/>
</symbol>
<symbol overflow="visible" id="telugu-blwf:id1:glyph0-1">
<path style="stroke:none;" d="M 68.15625 -13.75 L 66.28125 -18.640625 L 88.09375 -27.390625 L 6.984375 -27.390625 L 6.984375 -34 L 88.09375 -34 L 66.28125 -42.75 L 68.15625 -47.640625 L 99.09375 -34.265625 L 99.09375 -27.125 Z M 68.15625 -13.75 "/>
</symbol>
</g>
<g>
<symbol overflow="visible" id="telugu-blwf:id2:glyph0-0">
<path style="stroke:none;" d="M 10.34375 0 L 10.34375 -78.546875 L 55.546875 -78.546875 L 55.546875 0 Z M 15.953125 -5.609375 L 49.9375 -5.609375 L 49.9375 -72.9375 L 15.953125 -72.9375 Z M 15.953125 -5.609375 "/>
</symbol>
<symbol overflow="visible" id="telugu-blwf:id2:glyph0-1">
<path style="stroke:none;" d="M 41.578125 0 C 43.703125 -4.394531 45.550781 -8.921875 47.125 -13.578125 C 48.707031 -18.234375 49.5 -23.460938 49.5 -29.265625 C 49.5 -33.078125 48.894531 -36.554688 47.6875 -39.703125 C 46.476562 -42.859375 44.550781 -45.367188 41.90625 -47.234375 C 39.269531 -49.109375 35.820312 -50.046875 31.5625 -50.046875 C 27.238281 -50.046875 23.71875 -49.109375 21 -47.234375 C 18.289062 -45.367188 16.332031 -42.894531 15.125 -39.8125 C 13.914062 -36.738281 13.3125 -33.332031 13.3125 -29.59375 C 13.3125 -23.875 14.039062 -18.644531 15.5 -13.90625 C 16.96875 -9.175781 18.804688 -4.539062 21.015625 0 L 9.34375 0.546875 C 8.03125 -3.117188 6.953125 -7.09375 6.109375 -11.375 C 5.265625 -15.664062 4.84375 -19.941406 4.84375 -24.203125 C 4.84375 -31.753906 6.488281 -38.097656 9.78125 -43.234375 C 13.082031 -48.367188 17.484375 -51.851562 22.984375 -53.6875 C 21.078125 -55.519531 19.171875 -57.753906 17.265625 -60.390625 C 15.359375 -63.023438 13.820312 -65.738281 12.65625 -68.53125 L 24.203125 -69.078125 C 25.003906 -66.441406 25.84375 -64.019531 26.71875 -61.8125 C 27.601562 -59.613281 28.671875 -57.34375 29.921875 -55 C 30.210938 -55 30.46875 -55 30.6875 -55 C 32.445312 -56.320312 34.5 -58.007812 36.84375 -60.0625 C 39.195312 -62.113281 41.617188 -64.3125 44.109375 -66.65625 C 46.597656 -69.007812 49.015625 -71.359375 51.359375 -73.703125 C 53.710938 -76.046875 55.769531 -78.171875 57.53125 -80.078125 L 62.703125 -75.125 C 57.640625 -70.582031 53 -66.550781 48.78125 -63.03125 C 44.5625 -59.507812 40.878906 -56.613281 37.734375 -54.34375 C 43.816406 -52.945312 48.691406 -49.585938 52.359375 -44.265625 C 56.023438 -38.953125 57.859375 -32.191406 57.859375 -23.984375 C 57.859375 -19.796875 57.378906 -15.578125 56.421875 -11.328125 C 55.472656 -7.078125 54.375 -3.117188 53.125 0.546875 Z M 41.578125 0 "/>
</symbol>
<symbol overflow="visible" id="telugu-blwf:id2:glyph0-2">
<path style="stroke:none;" d="M -23.09375 33.984375 L -52.90625 33.984375 L -51.59375 25.734375 L -26.1875 25.734375 C -26.695312 24.785156 -27.078125 23.757812 -27.328125 22.65625 C -27.585938 21.5625 -27.71875 20.609375 -27.71875 19.796875 C -27.71875 16.273438 -26.597656 13.378906 -24.359375 11.109375 C -22.128906 8.835938 -18.882812 7.703125 -14.625 7.703125 C -10.519531 7.703125 -7.332031 8.890625 -5.0625 11.265625 C -2.789062 13.648438 -1.65625 16.675781 -1.65625 20.34375 C -1.65625 22.40625 -2.128906 24.367188 -3.078125 26.234375 C -4.035156 28.109375 -5.359375 29.628906 -7.046875 30.796875 C -8.804688 31.972656 -10.875 32.796875 -13.25 33.265625 C -15.632812 33.742188 -18.914062 33.984375 -23.09375 33.984375 Z M -8.140625 19.46875 C -8.140625 17.34375 -8.722656 15.640625 -9.890625 14.359375 C -11.066406 13.078125 -12.679688 12.4375 -14.734375 12.4375 C -16.566406 12.4375 -18.125 12.96875 -19.40625 14.03125 C -20.695312 15.09375 -21.34375 16.90625 -21.34375 19.46875 C -21.34375 21.8125 -20.71875 23.535156 -19.46875 24.640625 C -18.21875 25.742188 -16.710938 26.296875 -14.953125 26.296875 C -12.828125 26.296875 -11.160156 25.6875 -9.953125 24.46875 C -8.742188 23.257812 -8.140625 21.59375 -8.140625 19.46875 Z M -8.140625 19.46875 "/>
</symbol>
</g>
</defs>
  <g id="telugu-blwf:id0:id0" transform="matrix(1.25,0,0,1.25,0.0,5.25390625)"><g id="telugu-blwf:id0:surface1">
<g style="fill:rgb(0%,0%,0%);fill-opacity:1;">
  <use xlink:href="#telugu-blwf:id0:glyph0-1" x="16" y="97.59375" class="c0"/>
  <use xlink:href="#telugu-blwf:id0:glyph0-2" x="78.703125" y="97.59375" class="dc"/>
  <use xlink:href="#telugu-blwf:id0:glyph0-3" x="142.28125" y="97.59375" class="c1"/>
  <use xlink:href="#telugu-blwf:id0:glyph0-4" x="142.28125" y="97.59375" class="c2"/>
</g>
</g>
</g>
  <g id="telugu-blwf:id1:id1" transform="matrix(1.25,0,0,1.25,297.265625,0.0)"><g id="telugu-blwf:id1:surface1">
<g style="fill:rgb(0%,0%,0%);fill-opacity:1;">
  <use xlink:href="#telugu-blwf:id1:glyph0-1" x="0" y="120.84375" class="arrow"/>
</g>
</g>
</g>
  <g id="telugu-blwf:id2:id2" transform="matrix(1.25,0,0,1.25,429.86328125,5.25390625)"><g id="telugu-blwf:id2:surface1">
<g style="fill:rgb(0%,0%,0%);fill-opacity:1;">
  <use xlink:href="#telugu-blwf:id2:glyph0-1" x="16" y="97.59375" class="c0"/>
  <use xlink:href="#telugu-blwf:id2:glyph0-2" x="74.84375" y="97.59375" class="c2"/>
</g>
</g>
</g>
</svg>