<!DOCTYPE svg PUBLIC "-//W3C//DTD SVG 1.1//EN" "http://www.w3.org/Graphics/SVG/1.1/DTD/svg11.dtd">
<!-- Created with svg_stack (http://github.com/astraw/svg_stack) --><svg xmlns="http://www.w3.org/2000/svg" xmlns:sodipodi="http://sodipodi.sourceforge.net/DTD/sodipodi-0.dtd" xmlns:xlink="http://www.w3.org/1999/xlink" version="1.1" width="100%" id="telugu-nukt" viewBox="0 0 484.31640625 201.40625">
  <defs><g>
<symbol overflow="visible" id="telugu-nukt:id0:glyph0-0">
<path style="stroke:none;" d="M 10.34375 0 L 10.34375 -78.546875 L 55.546875 -78.546875 L 55.546875 0 Z M 15.953125 -5.609375 L 49.9375 -5.609375 L 49.9375 -72.9375 L 15.953125 -72.9375 Z M 15.953125 -5.609375 "/>
</symbol>
<symbol overflow="visible" id="telugu-nukt:id0:glyph0-1">
<path style="stroke:none;" d="M 17.046875 -69.078125 C 17.859375 -66.441406 18.703125 -64.003906 19.578125 -61.765625 C 20.460938 -59.523438 21.597656 -57.125 22.984375 -54.5625 C 24.742188 -55.8125 26.796875 -57.476562 29.140625 -59.5625 C 31.492188 -61.65625 33.953125 -63.910156 36.515625 -66.328125 C 39.085938 -68.742188 41.582031 -71.144531 44 -73.53125 C 46.414062 -75.914062 48.539062 -78.097656 50.375 -80.078125 L 55.546875 -75.125 C 48.359375 -68.601562 42.015625 -63.160156 36.515625 -58.796875 C 31.015625 -54.429688 26.800781 -51.515625 23.875 -50.046875 L 20.453125 -50.046875 C 18.847656 -51.003906 17.109375 -52.4375 15.234375 -54.34375 C 13.367188 -56.25 11.570312 -58.425781 9.84375 -60.875 C 8.125 -63.332031 6.675781 -65.882812 5.5 -68.53125 Z M 87.78125 1.3125 C 83.53125 1.3125 79.878906 0.140625 76.828125 -2.203125 C 73.785156 -4.546875 71.09375 -8.25 68.75 -13.3125 C 67.644531 -8.832031 65.753906 -5.273438 63.078125 -2.640625 C 60.398438 -0.00390625 56.863281 1.3125 52.46875 1.3125 C 48 1.3125 44.390625 0.0859375 41.640625 -2.359375 C 38.890625 -4.816406 36.5625 -7.695312 34.65625 -11 C 33.769531 -6.820312 31.914062 -3.722656 29.09375 -1.703125 C 26.269531 0.304688 22.988281 1.3125 19.25 1.3125 C 14.40625 1.3125 10.515625 -0.171875 7.578125 -3.140625 C 4.648438 -6.109375 3.1875 -10.160156 3.1875 -15.296875 C 3.1875 -18.296875 3.8125 -21.0625 5.0625 -23.59375 C 6.3125 -26.125 8.144531 -28.160156 10.5625 -29.703125 C 12.976562 -31.242188 15.910156 -32.015625 19.359375 -32.015625 C 22.953125 -32.015625 25.957031 -31.171875 28.375 -29.484375 C 30.800781 -27.796875 32.5625 -25.59375 33.65625 -22.875 C 36.375 -18.695312 39.085938 -15.632812 41.796875 -13.6875 C 44.515625 -11.75 47.816406 -10.78125 51.703125 -10.78125 C 56.023438 -10.78125 59.304688 -12.0625 61.546875 -14.625 C 63.785156 -17.195312 64.90625 -20.828125 64.90625 -25.515625 C 64.90625 -31.378906 62.832031 -36.253906 58.6875 -40.140625 C 54.539062 -44.035156 48.210938 -46.128906 39.703125 -46.421875 L 40.046875 -55.4375 C 46.566406 -55.289062 52.046875 -53.785156 56.484375 -50.921875 C 60.921875 -48.066406 64.253906 -44.273438 66.484375 -39.546875 C 68.722656 -34.816406 69.84375 -29.519531 69.84375 -23.65625 C 69.84375 -22.769531 69.804688 -21.890625 69.734375 -21.015625 C 72.234375 -17.421875 74.742188 -14.816406 77.265625 -13.203125 C 79.796875 -11.585938 82.820312 -10.78125 86.34375 -10.78125 C 95.363281 -10.78125 99.875 -15.65625 99.875 -25.40625 C 99.875 -31.34375 97.800781 -36.253906 93.65625 -40.140625 C 89.519531 -44.035156 83.195312 -46.128906 74.6875 -46.421875 L 75.015625 -55.4375 C 81.546875 -55.289062 87.03125 -53.785156 91.46875 -50.921875 C 95.90625 -48.066406 99.238281 -44.273438 101.46875 -39.546875 C 103.707031 -34.816406 104.828125 -29.519531 104.828125 -23.65625 C 104.828125 -18.8125 104.203125 -14.5 102.953125 -10.71875 C 101.710938 -6.945312 99.84375 -4 97.34375 -1.875 C 94.851562 0.25 91.664062 1.3125 87.78125 1.3125 Z M 9.796875 -17.59375 C 9.796875 -14.882812 10.597656 -12.6875 12.203125 -11 C 13.816406 -9.3125 16.164062 -8.46875 19.25 -8.46875 C 22.257812 -8.46875 24.644531 -9.238281 26.40625 -10.78125 C 28.164062 -12.320312 29.046875 -14.628906 29.046875 -17.703125 C 29.046875 -20.566406 28.179688 -22.878906 26.453125 -24.640625 C 24.734375 -26.398438 22.367188 -27.28125 19.359375 -27.28125 C 16.421875 -27.28125 14.09375 -26.414062 12.375 -24.6875 C 10.65625 -22.96875 9.796875 -20.601562 9.796875 -17.59375 Z M 29.921875 13.75 L 33.328125 -3.40625 L 38.28125 -3.40625 L 41.6875 13.75 Z M 29.921875 13.75 "/>
</symbol>
<symbol overflow="visible" id="telugu-nukt:id0:glyph0-2">
<path style="stroke:none;" d="M -13.203125 31.234375 C -13.203125 27.566406 -11.988281 24.503906 -9.5625 22.046875 C -7.144531 19.597656 -3.957031 18.375 0 18.375 C 3.957031 18.375 7.144531 19.597656 9.5625 22.046875 C 11.988281 24.503906 13.203125 27.566406 13.203125 31.234375 C 13.203125 35.046875 12.082031 38.160156 9.84375 40.578125 C 7.601562 43.003906 4.320312 44.21875 0 44.21875 C -4.25 44.21875 -7.507812 43.003906 -9.78125 40.578125 C -12.0625 38.160156 -13.203125 35.046875 -13.203125 31.234375 Z M -7.8125 29.8125 C -7.8125 31.9375 -7.1875 33.675781 -5.9375 35.03125 C -4.6875 36.382812 -2.707031 37.0625 0 37.0625 C 2.707031 37.0625 4.722656 36.382812 6.046875 35.03125 C 7.367188 33.675781 8.03125 31.9375 8.03125 29.8125 C 8.03125 27.832031 7.347656 26.179688 5.984375 24.859375 C 4.628906 23.535156 2.632812 22.875 0 22.875 C -2.488281 22.875 -4.410156 23.535156 -5.765625 24.859375 C -7.128906 26.179688 -7.8125 27.832031 -7.8125 29.8125 Z M -7.8125 29.8125 "/>
</symbol>
</g>
<g>
<symbol overflow="visible" id="telugu-nukt:id1:glyph0-0">
<path style="stroke:none;" d="M 5.375 -96.6875 L 69.828125 -96.6875 L 69.828125 0 L 5.375 0 Z M 8.0625 -2.6875 L 67.140625 -2.6875 L 67.140625 -94 L 8.0625 -94 Z M 8.0625 -2.6875 "/>
</symbol>
<symbol overflow="visible" id="telugu-nukt:id1:glyph0-1">
<path style="stroke:none;" d="M 68.15625 -13.75 L 66.28125 -18.640625 L 88.09375 -27.390625 L 6.984375 -27.390625 L 6.984375 -34 L 88.09375 -34 L 66.28125 -42.75 L 68.15625 -47.640625 L 99.09375 -34.265625 L 99.09375 -27.125 Z M 68.15625 -13.75 "/>
</symbol>
</g>
<g>
<symbol overflow="visible" id="telugu-nukt:id2:glyph0-0">
<path style="stroke:none;" d="M 10.34375 0 L 10.34375 -78.546875 L 55.546875 -78.546875 L 55.546875 0 Z M 15.953125 -5.609375 L 49.9375 -5.609375 L 49.9375 -72.9375 L 15.953125 -72.9375 Z M 15.953125 -5.609375 "/>
</symbol>
<symbol overflow="visible" id="telugu-nukt:id2:glyph0-1">
<path style="stroke:none;" d="M 17.046875 -69.078125 C 17.859375 -66.441406 18.703125 -64.003906 19.578125 -61.765625 C 20.460938 -59.523438 21.597656 -57.125 22.984375 -54.5625 C 24.742188 -55.8125 26.796875 -57.476562 29.140625 -59.5625 C 31.492188 -61.65625 33.953125 -63.910156 36.515625 -66.328125 C 39.085938 -68.742188 41.582031 -71.144531 44 -73.53125 C 46.414062 -75.914062 48.539062 -78.097656 50.375 -80.078125 L 55.546875 -75.125 C 48.359375 -68.601562 42.015625 -63.160156 36.515625 -58.796875 C 31.015625 -54.429688 26.800781 -51.515625 23.875 -50.046875 L 20.453125 -50.046875 C 18.847656 -51.003906 17.109375 -52.4375 15.234375 -54.34375 C 13.367188 -56.25 11.570312 -58.425781 9.84375 -60.875 C 8.125 -63.332031 6.675781 -65.882812 5.5 -68.53125 Z M 87.78125 1.3125 C 83.53125 1.3125 79.878906 0.140625 76.828125 -2.203125 C 73.785156 -4.546875 71.09375 -8.25 68.75 -13.3125 C 67.644531 -8.832031 65.753906 -5.273438 63.078125 -2.640625 C 60.398438 -0.00390625 56.863281 1.3125 52.46875 1.3125 C 48 1.3125 44.390625 0.0859375 41.640625 -2.359375 C 38.890625 -4.816406 36.5625 -7.695312 34.65625 -11 C 33.769531 -6.820312 31.914062 -3.722656 29.09375 -1.703125 C 26.269531 0.304688 22.988281 1.3125 19.25 1.3125 C 14.40625 1.3125 10.515625 -0.171875 7.578125 -3.140625 C 4.648438 -6.109375 3.1875 -10.160156 3.1875 -15.296875 C 3.1875 -18.296875 3.8125 -21.0625 5.0625 -23.59375 C 6.3125 -26.125 8.144531 -28.160156 10.5625 -29.703125 C 12.976562 -31.242188 15.910156 -32.015625 19.359375 -32.015625 C 22.953125 -32.015625 25.957031 -31.171875 28.375 -29.484375 C 30.800781 -27.796875 32.5625 -25.59375 33.65625 -22.875 C 36.375 -18.695312 39.085938 -15.632812 41.796875 -13.6875 C 44.515625 -11.75 47.816406 -10.78125 51.703125 -10.78125 C 56.023438 -10.78125 59.304688 -12.0625 61.546875 -14.625 C 63.785156 -17.195312 64.90625 -20.828125 64.90625 -25.515625 C 64.90625 -31.378906 62.832031 -36.253906 58.6875 -40.140625 C 54.539062 -44.035156 48.210938 -46.128906 39.703125 -46.421875 L 40.046875 -55.4375 C 46.566406 -55.289062 52.046875 -53.785156 56.484375 -50.921875 C 60.921875 -48.066406 64.253906 -44.273438 66.484375 -39.546875 C 68.722656 -34.816406 69.84375 -29.519531 69.84375 -23.65625 C 69.84375 -22.769531 69.804688 -21.890625 69.734375 -21.015625 C 72.234375 -17.421875 74.742188 -14.816406 77.265625 -13.203125 C 79.796875 -11.585938 82.820312 -10.78125 86.34375 -10.78125 C 95.363281 -10.78125 99.875 -15.65625 99.875 -25.40625 C 99.875 -31.34375 97.800781 -36.253906 93.65625 -40.140625 C 89.519531 -44.035156 83.195312 -46.128906 74.6875 -46.421875 L 75.015625 -55.4375 C 81.546875 -55.289062 87.03125 -53.785156 91.46875 -50.921875 C 95.90625 -48.066406 99.238281 -44.273438 101.46875 -39.546875 C 103.707031 -34.816406 104.828125 -29.519531 104.828125 -23.65625 C 104.828125 -18.8125 104.203125 -14.5 102.953125 -10.71875 C 101.710938 -6.945312 99.84375 -4 97.34375 -1.875 C 94.851562 0.25 91.664062 1.3125 87.78125 1.3125 Z M 9.796875 -17.59375 C 9.796875 -14.882812 10.597656 -12.6875 12.203125 -11 C 13.816406 -9.3125 16.164062 -8.46875 19.25 -8.46875 C 22.257812 -8.46875 24.644531 -9.238281 26.40625 -10.78125 C 28.164062 -12.320312 29.046875 -14.628906 29.046875 -17.703125 C 29.046875 -20.566406 28.179688 -22.878906 26.453125 -24.640625 C 24.734375 -26.398438 22.367188 -27.28125 19.359375 -27.28125 C 16.421875 -27.28125 14.09375 -26.414062 12.375 -24.6875 C 10.65625 -22.96875 9.796875 -20.601562 9.796875 -17.59375 Z M 29.921875 13.75 L 33.328125 -3.40625 L 38.28125 -3.40625 L 41.6875 13.75 Z M 29.921875 13.75 "/>
</symbol>
<symbol overflow="visible" id="telugu-nukt:id2:glyph0-2">
<path style="stroke:none;" d="M -13.203125 31.234375 C -13.203125 27.566406 -11.988281 24.503906 -9.5625 22.046875 C -7.144531 19.597656 -3.957031 18.375 0 18.375 C 3.957031 18.375 7.144531 19.597656 9.5625 22.046875 C 11.988281 24.503906 13.203125 27.566406 13.203125 31.234375 C 13.203125 35.046875 12.082031 38.160156 9.84375 40.578125 C 7.601562 43.003906 4.320312 44.21875 0 44.21875 C -4.25 44.21875 -7.507812 43.003906 -9.78125 40.578125 C -12.0625 38.160156 -13.203125 35.046875 -13.203125 31.234375 Z M -7.8125 29.8125 C -7.8125 31.9375 -7.1875 33.675781 -5.9375 35.03125 C -4.6875 36.382812 -2.707031 37.0625 0 37.0625 C 2.707031 37.0625 4.722656 36.382812 6.046875 35.03125 C 7.367188 33.675781 8.03125 31.9375 8.03125 29.8125 C 8.03125 27.832031 7.347656 26.179688 5.984375 24.859375 C 4.628906 23.535156 2.632812 22.875 0 22.875 C -2.488281 22.875 -4.410156 23.535156 -5.765625 24.859375 C -7.128906 26.179688 -7.8125 27.832031 -7.8125 29.8125 Z M -7.8125 29.8125 "/>
</symbol>
</g>
</defs>
  <g id="telugu-nukt:id0:id0" transform="matrix(1.25,0,0,1.25,0.0,5.25390625)"><g id="telugu-nukt:id0:surface1">
<g style="fill:rgb(0%,0%,0%);fill-opacity:1;">
  <use xlink:href="#telugu-nukt:id0:glyph0-1" x="16" y="97.59375" class="c0"/>
  <use xlink:href="#telugu-nukt:id0:glyph0-2" x="124.6875" y="97.59375" class="c1"/>
</g>
</g>
</g>
  <g id="telugu-nukt:id1:id1" transform="matrix(1.25,0,0,1.25,175.859375,0.0)"><g id="telugu-nukt:id1:surface1">
<g style="fill:rgb(0%,0%,0%);fill-opacity:1;">
  <use xlink:href="#telugu-nukt:id1:glyph0-1" x="0" y="120.84375" class="arrow"/>
</g>
</g>
</g>
  <g id="telugu-nukt:id2:id2" transform="matrix(1.25,0,0,1.25,308.45703125,5.25390625)"><g id="telugu-nukt:id2:surface1">
<g style="fill:rgb(0%,0%,0%);fill-opacity:1;">
  <use xlink:href="#telugu-nukt:id2:glyph0-1" x="16" y="97.59375" class="c2"/>
  <use xlink:href="#telugu-nukt:id2:glyph0-2" x="81.34375" y="97.59375" class="c2"/>
</g>
</g>
</g>
</svg>
