<!DOCTYPE svg PUBLIC "-//W3C//DTD SVG 1.1//EN" "http://www.w3.org/Graphics/SVG/1.1/DTD/svg11.dtd">
<!-- Created with svg_stack (http://github.com/astraw/svg_stack) --><svg xmlns="http://www.w3.org/2000/svg" xmlns:sodipodi="http://sodipodi.sourceforge.net/DTD/sodipodi-0.dtd" xmlns:xlink="http://www.w3.org/1999/xlink" version="1.1" width="100%" id="telugu-blws" viewBox="0 0 461.0546875 201.40625">
  <defs><g>
<symbol overflow="visible" id="telugu-blws:id0:glyph0-0">
<path style="stroke:none;" d="M 10.34375 0 L 10.34375 -78.546875 L 55.546875 -78.546875 L 55.546875 0 Z M 15.953125 -5.609375 L 49.9375 -5.609375 L 49.9375 -72.9375 L 15.953125 -72.9375 Z M 15.953125 -5.609375 "/>
</symbol>
<symbol overflow="visible" id="telugu-blws:id0:glyph0-1">
<path style="stroke:none;" d="M 57.640625 1.3125 C 53.972656 1.3125 50.632812 0.472656 47.625 -1.203125 C 44.625 -2.890625 41.765625 -5.203125 39.046875 -8.140625 C 36.921875 -5.203125 34.265625 -2.890625 31.078125 -1.203125 C 27.890625 0.472656 24.164062 1.3125 19.90625 1.3125 C 14.039062 1.3125 9.75 -0.113281 7.03125 -2.96875 C 4.320312 -5.832031 2.96875 -9.351562 2.96875 -13.53125 C 2.96875 -16.976562 4.125 -19.925781 6.4375 -22.375 C 8.75 -24.832031 12.503906 -26.0625 17.703125 -26.0625 C 21.296875 -26.0625 24.632812 -25.382812 27.71875 -24.03125 C 30.800781 -22.675781 33.957031 -20.71875 37.1875 -18.15625 C 38.789062 -21.226562 39.59375 -25.148438 39.59375 -29.921875 C 39.59375 -34.316406 38.691406 -37.960938 36.890625 -40.859375 C 35.097656 -43.753906 32.8125 -45.828125 30.03125 -47.078125 C 31.050781 -45.460938 31.5625 -43.484375 31.5625 -41.140625 C 31.5625 -36.890625 30.332031 -33.753906 27.875 -31.734375 C 25.425781 -29.710938 22.257812 -28.703125 18.375 -28.703125 C 14.257812 -28.703125 11.007812 -29.929688 8.625 -32.390625 C 6.25 -34.847656 5.0625 -37.910156 5.0625 -41.578125 C 5.0625 -45.535156 6.472656 -48.757812 9.296875 -51.25 C 12.117188 -53.75 15.988281 -55 20.90625 -55 C 28.675781 -55 34.59375 -52.707031 38.65625 -48.125 C 42.726562 -43.539062 44.765625 -37.144531 44.765625 -28.9375 C 44.765625 -23.582031 43.957031 -18.773438 42.34375 -14.515625 C 44.550781 -13.203125 46.734375 -12.25 48.890625 -11.65625 C 51.054688 -11.070312 53.53125 -10.78125 56.3125 -10.78125 C 61.738281 -10.78125 65.515625 -12.046875 67.640625 -14.578125 C 69.773438 -17.109375 70.84375 -20.644531 70.84375 -25.1875 C 70.84375 -31.269531 68.84375 -36.164062 64.84375 -39.875 C 60.84375 -43.582031 55.140625 -45.800781 47.734375 -46.53125 L 48.40625 -55.4375 C 54.125 -54.925781 59.035156 -53.257812 63.140625 -50.4375 C 67.242188 -47.613281 70.378906 -43.910156 72.546875 -39.328125 C 74.710938 -34.742188 75.796875 -29.519531 75.796875 -23.65625 C 75.796875 -18.8125 75.171875 -14.5 73.921875 -10.71875 C 72.671875 -6.945312 70.707031 -4 68.03125 -1.875 C 65.351562 0.25 61.890625 1.3125 57.640625 1.3125 Z M 11.546875 -40.921875 C 11.546875 -38.578125 12.1875 -36.742188 13.46875 -35.421875 C 14.757812 -34.097656 16.359375 -33.4375 18.265625 -33.4375 C 20.171875 -33.4375 21.835938 -33.984375 23.265625 -35.078125 C 24.691406 -36.179688 25.40625 -38.09375 25.40625 -40.8125 C 25.40625 -43.300781 24.765625 -45.148438 23.484375 -46.359375 C 22.203125 -47.578125 20.609375 -48.1875 18.703125 -48.1875 C 16.578125 -48.1875 14.851562 -47.539062 13.53125 -46.25 C 12.207031 -44.96875 11.546875 -43.191406 11.546875 -40.921875 Z M 9.5625 -15.734375 C 9.5625 -11.398438 12.863281 -9.234375 19.46875 -9.234375 C 25.78125 -9.234375 30.582031 -10.738281 33.875 -13.75 C 31.382812 -15.945312 28.765625 -17.757812 26.015625 -19.1875 C 23.265625 -20.625 20.3125 -21.34375 17.15625 -21.34375 C 14.8125 -21.34375 12.957031 -20.882812 11.59375 -19.96875 C 10.238281 -19.050781 9.5625 -17.640625 9.5625 -15.734375 Z M 33.109375 13.75 L 36.515625 -3.078125 L 41.46875 -3.078125 L 44.875 13.75 Z M 33.109375 13.75 "/>
</symbol>
<symbol overflow="visible" id="telugu-blws:id0:glyph0-2">
<path style="stroke:none;" d="M -23.09375 33.984375 L -61.375 33.984375 L -60.0625 25.734375 L -26.1875 25.734375 C -26.695312 24.785156 -27.078125 23.757812 -27.328125 22.65625 C -27.585938 21.5625 -27.71875 20.609375 -27.71875 19.796875 C -27.71875 16.273438 -26.597656 13.378906 -24.359375 11.109375 C -22.128906 8.835938 -18.882812 7.703125 -14.625 7.703125 C -10.519531 7.703125 -7.332031 8.890625 -5.0625 11.265625 C -2.789062 13.648438 -1.65625 16.675781 -1.65625 20.34375 C -1.65625 22.40625 -2.128906 24.367188 -3.078125 26.234375 C -4.035156 28.109375 -5.359375 29.628906 -7.046875 30.796875 C -8.804688 31.972656 -10.875 32.796875 -13.25 33.265625 C -15.632812 33.742188 -18.914062 33.984375 -23.09375 33.984375 Z M -8.140625 19.46875 C -8.140625 17.34375 -8.722656 15.640625 -9.890625 14.359375 C -11.066406 13.078125 -12.679688 12.4375 -14.734375 12.4375 C -16.566406 12.4375 -18.125 12.96875 -19.40625 14.03125 C -20.695312 15.09375 -21.34375 16.90625 -21.34375 19.46875 C -21.34375 21.8125 -20.71875 23.535156 -19.46875 24.640625 C -18.21875 25.742188 -16.710938 26.296875 -14.953125 26.296875 C -12.828125 26.296875 -11.160156 25.6875 -9.953125 24.46875 C -8.742188 23.257812 -8.140625 21.59375 -8.140625 19.46875 Z M -8.140625 19.46875 "/>
</symbol>
<symbol overflow="visible" id="telugu-blws:id0:glyph0-3">
<path style="stroke:none;" d="M 37.0625 -21.34375 C 37.0625 -11.289062 35.648438 -2.210938 32.828125 5.890625 C 30.003906 13.992188 26.171875 21.378906 21.328125 28.046875 C 16.492188 34.722656 11 40.957031 4.84375 46.75 L -0.328125 40.921875 C 5.972656 36.078125 11.546875 30.425781 16.390625 23.96875 C 21.234375 17.519531 25.03125 10.460938 27.78125 2.796875 C 30.53125 -4.859375 31.90625 -12.867188 31.90625 -21.234375 C 31.90625 -27.316406 31.390625 -32.207031 30.359375 -35.90625 C 29.328125 -39.613281 27.785156 -42.675781 25.734375 -45.09375 C 25.953125 -44.507812 26.097656 -43.941406 26.171875 -43.390625 C 26.253906 -42.835938 26.296875 -42.378906 26.296875 -42.015625 C 26.296875 -38.203125 25.210938 -35.285156 23.046875 -33.265625 C 20.878906 -31.253906 18 -30.25 14.40625 -30.25 C 10.15625 -30.25 6.835938 -31.40625 4.453125 -33.71875 C 2.066406 -36.03125 0.875 -38.941406 0.875 -42.453125 C 0.875 -45.828125 2.140625 -48.757812 4.671875 -51.25 C 7.203125 -53.75 10.707031 -55 15.1875 -55 C 17.75 -55 20.3125 -54.46875 22.875 -53.40625 C 25.445312 -52.34375 27.796875 -50.5625 29.921875 -48.0625 C 32.046875 -45.570312 33.765625 -42.144531 35.078125 -37.78125 C 36.398438 -33.414062 37.0625 -27.9375 37.0625 -21.34375 Z M 14.40625 -48.84375 C 12.425781 -48.84375 10.8125 -48.21875 9.5625 -46.96875 C 8.320312 -45.71875 7.703125 -44.03125 7.703125 -41.90625 C 7.703125 -39.78125 8.304688 -38.09375 9.515625 -36.84375 C 10.722656 -35.601562 12.242188 -34.984375 14.078125 -34.984375 C 15.984375 -34.984375 17.597656 -35.515625 18.921875 -36.578125 C 20.242188 -37.640625 20.90625 -39.414062 20.90625 -41.90625 C 20.90625 -44.257812 20.242188 -46.003906 18.921875 -47.140625 C 17.597656 -48.273438 16.09375 -48.84375 14.40625 -48.84375 Z M 14.40625 -48.84375 "/>
</symbol>
</g>
<g>
<symbol overflow="visible" id="telugu-blws:id1:glyph0-0">
<path style="stroke:none;" d="M 5.375 -96.6875 L 69.828125 -96.6875 L 69.828125 0 L 5.375 0 Z M 8.0625 -2.6875 L 67.140625 -2.6875 L 67.140625 -94 L 8.0625 -94 Z M 8.0625 -2.6875 "/>
</symbol>
<symbol overflow="visible" id="telugu-blws:id1:glyph0-1">
<path style="stroke:none;" d="M 68.15625 -13.75 L 66.28125 -18.640625 L 88.09375 -27.390625 L 6.984375 -27.390625 L 6.984375 -34 L 88.09375 -34 L 66.28125 -42.75 L 68.15625 -47.640625 L 99.09375 -34.265625 L 99.09375 -27.125 Z M 68.15625 -13.75 "/>
</symbol>
</g>
<g>
<symbol overflow="visible" id="telugu-blws:id2:glyph0-0">
<path style="stroke:none;" d="M 10.34375 0 L 10.34375 -78.546875 L 55.546875 -78.546875 L 55.546875 0 Z M 15.953125 -5.609375 L 49.9375 -5.609375 L 49.9375 -72.9375 L 15.953125 -72.9375 Z M 15.953125 -5.609375 "/>
</symbol>
<symbol overflow="visible" id="telugu-blws:id2:glyph0-1">
<path style="stroke:none;" d="M 57.640625 1.3125 C 53.972656 1.3125 50.632812 0.472656 47.625 -1.203125 C 44.625 -2.890625 41.765625 -5.203125 39.046875 -8.140625 C 36.921875 -5.203125 34.265625 -2.890625 31.078125 -1.203125 C 27.890625 0.472656 24.164062 1.3125 19.90625 1.3125 C 14.039062 1.3125 9.75 -0.113281 7.03125 -2.96875 C 4.320312 -5.832031 2.96875 -9.351562 2.96875 -13.53125 C 2.96875 -16.976562 4.125 -19.925781 6.4375 -22.375 C 8.75 -24.832031 12.503906 -26.0625 17.703125 -26.0625 C 21.296875 -26.0625 24.632812 -25.382812 27.71875 -24.03125 C 30.800781 -22.675781 33.957031 -20.71875 37.1875 -18.15625 C 38.789062 -21.226562 39.59375 -25.148438 39.59375 -29.921875 C 39.59375 -34.316406 38.691406 -37.960938 36.890625 -40.859375 C 35.097656 -43.753906 32.8125 -45.828125 30.03125 -47.078125 C 31.050781 -45.460938 31.5625 -43.484375 31.5625 -41.140625 C 31.5625 -36.890625 30.332031 -33.753906 27.875 -31.734375 C 25.425781 -29.710938 22.257812 -28.703125 18.375 -28.703125 C 14.257812 -28.703125 11.007812 -29.929688 8.625 -32.390625 C 6.25 -34.847656 5.0625 -37.910156 5.0625 -41.578125 C 5.0625 -45.535156 6.472656 -48.757812 9.296875 -51.25 C 12.117188 -53.75 15.988281 -55 20.90625 -55 C 28.675781 -55 34.59375 -52.707031 38.65625 -48.125 C 42.726562 -43.539062 44.765625 -37.144531 44.765625 -28.9375 C 44.765625 -23.582031 43.957031 -18.773438 42.34375 -14.515625 C 44.550781 -13.203125 46.734375 -12.25 48.890625 -11.65625 C 51.054688 -11.070312 53.53125 -10.78125 56.3125 -10.78125 C 61.738281 -10.78125 65.515625 -12.046875 67.640625 -14.578125 C 69.773438 -17.109375 70.84375 -20.644531 70.84375 -25.1875 C 70.84375 -31.269531 68.84375 -36.164062 64.84375 -39.875 C 60.84375 -43.582031 55.140625 -45.800781 47.734375 -46.53125 L 48.40625 -55.4375 C 54.125 -54.925781 59.035156 -53.257812 63.140625 -50.4375 C 67.242188 -47.613281 70.378906 -43.910156 72.546875 -39.328125 C 74.710938 -34.742188 75.796875 -29.519531 75.796875 -23.65625 C 75.796875 -18.8125 75.171875 -14.5 73.921875 -10.71875 C 72.671875 -6.945312 70.707031 -4 68.03125 -1.875 C 65.351562 0.25 61.890625 1.3125 57.640625 1.3125 Z M 11.546875 -40.921875 C 11.546875 -38.578125 12.1875 -36.742188 13.46875 -35.421875 C 14.757812 -34.097656 16.359375 -33.4375 18.265625 -33.4375 C 20.171875 -33.4375 21.835938 -33.984375 23.265625 -35.078125 C 24.691406 -36.179688 25.40625 -38.09375 25.40625 -40.8125 C 25.40625 -43.300781 24.765625 -45.148438 23.484375 -46.359375 C 22.203125 -47.578125 20.609375 -48.1875 18.703125 -48.1875 C 16.578125 -48.1875 14.851562 -47.539062 13.53125 -46.25 C 12.207031 -44.96875 11.546875 -43.191406 11.546875 -40.921875 Z M 9.5625 -15.734375 C 9.5625 -11.398438 12.863281 -9.234375 19.46875 -9.234375 C 25.78125 -9.234375 30.582031 -10.738281 33.875 -13.75 C 31.382812 -15.945312 28.765625 -17.757812 26.015625 -19.1875 C 23.265625 -20.625 20.3125 -21.34375 17.15625 -21.34375 C 14.8125 -21.34375 12.957031 -20.882812 11.59375 -19.96875 C 10.238281 -19.050781 9.5625 -17.640625 9.5625 -15.734375 Z M 33.109375 13.75 L 36.515625 -3.078125 L 41.46875 -3.078125 L 44.875 13.75 Z M 33.109375 13.75 "/>
</symbol>
<symbol overflow="visible" id="telugu-blws:id2:glyph0-2">
<path style="stroke:none;" d="M -28.375 31.234375 L -61.265625 31.234375 L -59.953125 23.09375 L -31.453125 23.09375 C -31.972656 22.144531 -32.359375 21.117188 -32.609375 20.015625 C -32.867188 18.921875 -33 17.96875 -33 17.15625 C -33 13.632812 -31.878906 10.738281 -29.640625 8.46875 C -27.410156 6.195312 -24.164062 5.0625 -19.90625 5.0625 C -15.800781 5.0625 -12.613281 6.25 -10.34375 8.625 C -8.070312 11.007812 -6.9375 14.035156 -6.9375 17.703125 C -6.9375 19.765625 -7.410156 21.726562 -8.359375 23.59375 C -9.316406 25.46875 -10.632812 26.988281 -12.3125 28.15625 C -14.070312 29.332031 -16.144531 30.140625 -18.53125 30.578125 C -20.914062 31.015625 -24.195312 31.234375 -28.375 31.234375 Z M -13.421875 16.828125 C -13.421875 14.703125 -14.003906 13 -15.171875 11.71875 C -16.347656 10.4375 -17.960938 9.796875 -20.015625 9.796875 C -21.847656 9.796875 -23.40625 10.328125 -24.6875 11.390625 C -25.976562 12.453125 -26.625 14.265625 -26.625 16.828125 C -26.625 19.171875 -26 20.894531 -24.75 22 C -23.5 23.101562 -21.992188 23.65625 -20.234375 23.65625 C -18.109375 23.65625 -16.441406 23.046875 -15.234375 21.828125 C -14.023438 20.617188 -13.421875 18.953125 -13.421875 16.828125 Z M -36.1875 52.03125 C -43.957031 52.03125 -50.191406 51.128906 -54.890625 49.328125 C -59.585938 47.535156 -63.179688 44.96875 -65.671875 41.625 C -68.160156 38.289062 -70.101562 34.28125 -71.5 29.59375 L -66.875 28.265625 C -65.5625 31.566406 -63.820312 34.296875 -61.65625 36.453125 C -59.488281 38.617188 -56.40625 40.234375 -52.40625 41.296875 C -48.414062 42.367188 -43.007812 42.90625 -36.1875 42.90625 C -29.363281 42.90625 -23.9375 42.367188 -19.90625 41.296875 C -15.875 40.234375 -12.757812 38.617188 -10.5625 36.453125 C -8.363281 34.296875 -6.640625 31.566406 -5.390625 28.265625 L -0.765625 29.59375 C -2.085938 34.28125 -4.015625 38.289062 -6.546875 41.625 C -9.078125 44.96875 -12.6875 47.535156 -17.375 49.328125 C -22.070312 51.128906 -28.34375 52.03125 -36.1875 52.03125 Z M -36.1875 52.03125 "/>
</symbol>
</g>
</defs>
  <g id="telugu-blws:id0:id0" transform="matrix(1.25,0,0,1.25,0.0,5.25390625)"><g id="telugu-blws:id0:surface1">
<g style="fill:rgb(0%,0%,0%);fill-opacity:1;">
  <use xlink:href="#telugu-blws:id0:glyph0-1" x="16" y="97.59375" class="c0"/>
  <use xlink:href="#telugu-blws:id0:glyph0-2" x="87.171875" y="97.59375" class="c1"/>
  <use xlink:href="#telugu-blws:id0:glyph0-3" x="93.984375" y="97.59375" class="c2"/>
</g>
</g>
</g>
  <g id="telugu-blws:id1:id1" transform="matrix(1.25,0,0,1.25,188.90625,0.0)"><g id="telugu-blws:id1:surface1">
<g style="fill:rgb(0%,0%,0%);fill-opacity:1;">
  <use xlink:href="#telugu-blws:id1:glyph0-1" x="0" y="120.84375" class="arrow"/>
</g>
</g>
</g>
  <g id="telugu-blws:id2:id2" transform="matrix(1.25,0,0,1.25,321.50390625,5.25390625)"><g id="telugu-blws:id2:surface1">
<g style="fill:rgb(0%,0%,0%);fill-opacity:1;">
  <use xlink:href="#telugu-blws:id2:glyph0-1" x="16" y="97.59375" class="c0"/>
  <use xlink:href="#telugu-blws:id2:glyph0-2" x="91.90625" y="97.59375" class="c3"/>
</g>
</g>
</g>
</svg>
