<?xml version="1.0" standalone="no"?>
<!DOCTYPE svg PUBLIC "-//W3C//DTD SVG 1.1//EN"
 "http://www.w3.org/Graphics/SVG/1.1/DTD/svg11.dtd">
<!-- Created with svg_stack (http://github.com/astraw/svg_stack) -->
<svg xmlns="http://www.w3.org/2000/svg" xmlns:sodipodi="http://sodipodi.sourceforge.net/DTD/sodipodi-0.dtd" xmlns:xlink="http://www.w3.org/1999/xlink" version="1.1" width="540.41015625" height="201.40625">
  <defs><g>
<symbol overflow="visible" id="id0:glyph0-0">
<path style="stroke:none;" d="M 10.34375 0 L 10.34375 -78.546875 L 55.546875 -78.546875 L 55.546875 0 Z M 15.953125 -5.609375 L 49.9375 -5.609375 L 49.9375 -72.9375 L 15.953125 -72.9375 Z M 15.953125 -5.609375 "/>
</symbol>
<symbol overflow="visible" id="id0:glyph0-1">
<path style="stroke:none;" d="M 3.84375 -26.734375 C 3.84375 -33.179688 5.492188 -38.878906 8.796875 -43.828125 C 12.097656 -48.785156 16.753906 -52.144531 22.765625 -53.90625 C 20.859375 -55.738281 18.96875 -57.9375 17.09375 -60.5 C 15.226562 -63.0625 13.710938 -65.738281 12.546875 -68.53125 L 24.09375 -69.078125 C 24.894531 -66.441406 25.734375 -64.019531 26.609375 -61.8125 C 27.492188 -59.613281 28.5625 -57.34375 29.8125 -55 C 30.03125 -55 30.226562 -55 30.40625 -55 C 30.59375 -55 30.648438 -55 30.578125 -55 C 32.335938 -56.320312 34.390625 -58.007812 36.734375 -60.0625 C 39.085938 -62.113281 41.507812 -64.3125 44 -66.65625 C 46.488281 -69.007812 48.90625 -71.359375 51.25 -73.703125 C 53.601562 -76.046875 55.660156 -78.171875 57.421875 -80.078125 L 62.59375 -75.125 C 57.53125 -70.582031 52.890625 -66.550781 48.671875 -63.03125 C 44.453125 -59.507812 40.804688 -56.613281 37.734375 -54.34375 C 42.054688 -53.457031 45.738281 -51.691406 48.78125 -49.046875 C 51.820312 -46.410156 54.148438 -43.164062 55.765625 -39.3125 C 57.378906 -35.46875 58.1875 -31.273438 58.1875 -26.734375 C 58.1875 -24.535156 58.003906 -22.441406 57.640625 -20.453125 C 60.054688 -17.085938 62.507812 -14.632812 65 -13.09375 C 67.5 -11.550781 70.4375 -10.78125 73.8125 -10.78125 C 82.832031 -10.78125 87.34375 -15.65625 87.34375 -25.40625 C 87.34375 -31.34375 85.269531 -36.253906 81.125 -40.140625 C 76.976562 -44.035156 70.65625 -46.128906 62.15625 -46.421875 L 62.484375 -55.4375 C 69.003906 -55.289062 74.484375 -53.785156 78.921875 -50.921875 C 83.359375 -48.066406 86.695312 -44.273438 88.9375 -39.546875 C 91.175781 -34.816406 92.296875 -29.519531 92.296875 -23.65625 C 92.296875 -22.769531 92.257812 -21.890625 92.1875 -21.015625 C 94.675781 -17.421875 97.1875 -14.816406 99.71875 -13.203125 C 102.25 -11.585938 105.273438 -10.78125 108.796875 -10.78125 C 117.804688 -10.78125 122.3125 -15.65625 122.3125 -25.40625 C 122.3125 -31.34375 120.238281 -36.253906 116.09375 -40.140625 C 111.957031 -44.035156 105.632812 -46.128906 97.125 -46.421875 L 97.453125 -55.4375 C 103.984375 -55.289062 109.46875 -53.785156 113.90625 -50.921875 C 118.34375 -48.066406 121.675781 -44.273438 123.90625 -39.546875 C 126.144531 -34.816406 127.265625 -29.519531 127.265625 -23.65625 C 127.265625 -18.8125 126.640625 -14.5 125.390625 -10.71875 C 124.148438 -6.945312 122.28125 -4 119.78125 -1.875 C 117.289062 0.25 114.101562 1.3125 110.21875 1.3125 C 105.96875 1.3125 102.316406 0.140625 99.265625 -2.203125 C 96.222656 -4.546875 93.53125 -8.25 91.1875 -13.3125 C 90.09375 -8.832031 88.222656 -5.273438 85.578125 -2.640625 C 82.941406 -0.00390625 79.492188 1.3125 75.234375 1.3125 C 70.910156 1.3125 67.171875 0.125 64.015625 -2.25 C 60.867188 -4.632812 58.082031 -8.46875 55.65625 -13.75 C 53.675781 -9.125 50.5625 -5.457031 46.3125 -2.75 C 42.0625 -0.0390625 36.925781 1.3125 30.90625 1.3125 C 25.257812 1.3125 20.421875 0.125 16.390625 -2.25 C 12.359375 -4.632812 9.257812 -7.914062 7.09375 -12.09375 C 4.925781 -16.28125 3.84375 -21.160156 3.84375 -26.734375 Z M 10.890625 -30.140625 C 10.890625 -24.566406 12.554688 -19.984375 15.890625 -16.390625 C 19.234375 -12.796875 24.238281 -11 30.90625 -11 C 37.65625 -11 42.71875 -12.757812 46.09375 -16.28125 C 49.46875 -19.800781 51.15625 -24.421875 51.15625 -30.140625 C 51.15625 -36.003906 49.429688 -40.785156 45.984375 -44.484375 C 42.535156 -48.191406 37.617188 -50.046875 31.234375 -50.046875 C 25.003906 -50.046875 20.054688 -48.210938 16.390625 -44.546875 C 12.722656 -40.878906 10.890625 -36.078125 10.890625 -30.140625 Z M 86.125 13.75 L 89.546875 -3.40625 L 94.484375 -3.40625 L 97.90625 13.75 Z M 86.125 13.75 "/>
</symbol>
<symbol overflow="visible" id="id0:glyph0-2">
<path style="stroke:none;" d="M -14.953125 42.34375 C -17.160156 42.34375 -19.269531 41.753906 -21.28125 40.578125 C -23.300781 39.410156 -25.046875 37.210938 -26.515625 33.984375 C -27.898438 37.210938 -29.617188 39.410156 -31.671875 40.578125 C -33.734375 41.753906 -35.753906 42.34375 -37.734375 42.34375 C -41.328125 42.34375 -44.148438 41.0625 -46.203125 38.5 C -48.253906 35.9375 -49.28125 32.34375 -49.28125 27.71875 C -49.28125 23.46875 -48.328125 19.78125 -46.421875 16.65625 C -44.515625 13.539062 -41.835938 11.101562 -38.390625 9.34375 C -34.941406 7.582031 -30.945312 6.703125 -26.40625 6.703125 C -19.582031 6.703125 -14.113281 8.59375 -10 12.375 C -5.894531 16.15625 -3.84375 21.269531 -3.84375 27.71875 C -3.84375 32.34375 -4.832031 35.9375 -6.8125 38.5 C -8.800781 41.0625 -11.515625 42.34375 -14.953125 42.34375 Z M -15.734375 33.546875 C -13.972656 33.546875 -12.445312 32.992188 -11.15625 31.890625 C -9.875 30.796875 -9.234375 28.851562 -9.234375 26.0625 C -9.234375 21.519531 -10.753906 17.925781 -13.796875 15.28125 C -16.847656 12.644531 -21.050781 11.328125 -26.40625 11.328125 C -31.757812 11.328125 -36.007812 12.644531 -39.15625 15.28125 C -42.3125 17.925781 -43.890625 21.519531 -43.890625 26.0625 C -43.890625 28.851562 -43.191406 30.796875 -41.796875 31.890625 C -40.398438 32.992188 -38.785156 33.546875 -36.953125 33.546875 C -34.460938 33.546875 -32.539062 32.796875 -31.1875 31.296875 C -29.832031 29.796875 -28.859375 27.613281 -28.265625 24.75 L -25.078125 24.75 C -23.828125 30.613281 -20.710938 33.546875 -15.734375 33.546875 Z M -15.734375 33.546875 "/>
</symbol>
</g>
<g>
<symbol overflow="visible" id="id1:glyph0-0">
<path style="stroke:none;" d="M 5.375 -96.6875 L 69.828125 -96.6875 L 69.828125 0 L 5.375 0 Z M 8.0625 -2.6875 L 67.140625 -2.6875 L 67.140625 -94 L 8.0625 -94 Z M 8.0625 -2.6875 "/>
</symbol>
<symbol overflow="visible" id="id1:glyph0-1">
<path style="stroke:none;" d="M 68.15625 -13.75 L 66.28125 -18.640625 L 88.09375 -27.390625 L 6.984375 -27.390625 L 6.984375 -34 L 88.09375 -34 L 66.28125 -42.75 L 68.15625 -47.640625 L 99.09375 -34.265625 L 99.09375 -27.125 Z M 68.15625 -13.75 "/>
</symbol>
</g>
<g>
<symbol overflow="visible" id="id2:glyph0-0">
<path style="stroke:none;" d="M 10.34375 0 L 10.34375 -78.546875 L 55.546875 -78.546875 L 55.546875 0 Z M 15.953125 -5.609375 L 49.9375 -5.609375 L 49.9375 -72.9375 L 15.953125 -72.9375 Z M 15.953125 -5.609375 "/>
</symbol>
<symbol overflow="visible" id="id2:glyph0-1">
<path style="stroke:none;" d="M 3.84375 -26.734375 C 3.84375 -33.179688 5.492188 -38.878906 8.796875 -43.828125 C 12.097656 -48.785156 16.753906 -52.144531 22.765625 -53.90625 C 20.859375 -55.738281 18.96875 -57.9375 17.09375 -60.5 C 15.226562 -63.0625 13.710938 -65.738281 12.546875 -68.53125 L 24.09375 -69.078125 C 24.894531 -66.441406 25.734375 -64.019531 26.609375 -61.8125 C 27.492188 -59.613281 28.5625 -57.34375 29.8125 -55 C 30.03125 -55 30.226562 -55 30.40625 -55 C 30.59375 -55 30.648438 -55 30.578125 -55 C 32.335938 -56.320312 34.390625 -58.007812 36.734375 -60.0625 C 39.085938 -62.113281 41.507812 -64.3125 44 -66.65625 C 46.488281 -69.007812 48.90625 -71.359375 51.25 -73.703125 C 53.601562 -76.046875 55.660156 -78.171875 57.421875 -80.078125 L 62.59375 -75.125 C 57.53125 -70.582031 52.890625 -66.550781 48.671875 -63.03125 C 44.453125 -59.507812 40.804688 -56.613281 37.734375 -54.34375 C 42.054688 -53.457031 45.738281 -51.691406 48.78125 -49.046875 C 51.820312 -46.410156 54.148438 -43.164062 55.765625 -39.3125 C 57.378906 -35.46875 58.1875 -31.273438 58.1875 -26.734375 C 58.1875 -24.535156 58.003906 -22.441406 57.640625 -20.453125 C 60.054688 -17.085938 62.507812 -14.632812 65 -13.09375 C 67.5 -11.550781 70.4375 -10.78125 73.8125 -10.78125 C 82.832031 -10.78125 87.34375 -15.65625 87.34375 -25.40625 C 87.34375 -31.34375 85.269531 -36.253906 81.125 -40.140625 C 76.976562 -44.035156 70.65625 -46.128906 62.15625 -46.421875 L 62.484375 -55.4375 C 69.003906 -55.289062 74.484375 -53.785156 78.921875 -50.921875 C 83.359375 -48.066406 86.695312 -44.273438 88.9375 -39.546875 C 91.175781 -34.816406 92.296875 -29.519531 92.296875 -23.65625 C 92.296875 -22.769531 92.257812 -21.890625 92.1875 -21.015625 C 94.675781 -17.421875 97.1875 -14.816406 99.71875 -13.203125 C 102.25 -11.585938 105.273438 -10.78125 108.796875 -10.78125 C 117.804688 -10.78125 122.3125 -15.65625 122.3125 -25.40625 C 122.3125 -31.34375 120.238281 -36.253906 116.09375 -40.140625 C 111.957031 -44.035156 105.632812 -46.128906 97.125 -46.421875 L 97.453125 -55.4375 C 103.984375 -55.289062 109.46875 -53.785156 113.90625 -50.921875 C 118.34375 -48.066406 121.675781 -44.273438 123.90625 -39.546875 C 126.144531 -34.816406 127.265625 -29.519531 127.265625 -23.65625 C 127.265625 -18.8125 126.640625 -14.5 125.390625 -10.71875 C 124.148438 -6.945312 122.28125 -4 119.78125 -1.875 C 117.289062 0.25 114.101562 1.3125 110.21875 1.3125 C 105.96875 1.3125 102.316406 0.140625 99.265625 -2.203125 C 96.222656 -4.546875 93.53125 -8.25 91.1875 -13.3125 C 90.09375 -8.832031 88.222656 -5.273438 85.578125 -2.640625 C 82.941406 -0.00390625 79.492188 1.3125 75.234375 1.3125 C 70.910156 1.3125 67.171875 0.125 64.015625 -2.25 C 60.867188 -4.632812 58.082031 -8.46875 55.65625 -13.75 C 53.675781 -9.125 50.5625 -5.457031 46.3125 -2.75 C 42.0625 -0.0390625 36.925781 1.3125 30.90625 1.3125 C 25.257812 1.3125 20.421875 0.125 16.390625 -2.25 C 12.359375 -4.632812 9.257812 -7.914062 7.09375 -12.09375 C 4.925781 -16.28125 3.84375 -21.160156 3.84375 -26.734375 Z M 10.890625 -30.140625 C 10.890625 -24.566406 12.554688 -19.984375 15.890625 -16.390625 C 19.234375 -12.796875 24.238281 -11 30.90625 -11 C 37.65625 -11 42.71875 -12.757812 46.09375 -16.28125 C 49.46875 -19.800781 51.15625 -24.421875 51.15625 -30.140625 C 51.15625 -36.003906 49.429688 -40.785156 45.984375 -44.484375 C 42.535156 -48.191406 37.617188 -50.046875 31.234375 -50.046875 C 25.003906 -50.046875 20.054688 -48.210938 16.390625 -44.546875 C 12.722656 -40.878906 10.890625 -36.078125 10.890625 -30.140625 Z M 86.125 13.75 L 89.546875 -3.40625 L 94.484375 -3.40625 L 97.90625 13.75 Z M 86.125 13.75 "/>
</symbol>
<symbol overflow="visible" id="id2:glyph0-2">
<path style="stroke:none;" d="M -14.953125 42.34375 C -17.160156 42.34375 -19.269531 41.753906 -21.28125 40.578125 C -23.300781 39.410156 -25.046875 37.210938 -26.515625 33.984375 C -27.898438 37.210938 -29.617188 39.410156 -31.671875 40.578125 C -33.734375 41.753906 -35.753906 42.34375 -37.734375 42.34375 C -41.328125 42.34375 -44.148438 41.0625 -46.203125 38.5 C -48.253906 35.9375 -49.28125 32.34375 -49.28125 27.71875 C -49.28125 23.46875 -48.328125 19.78125 -46.421875 16.65625 C -44.515625 13.539062 -41.835938 11.101562 -38.390625 9.34375 C -34.941406 7.582031 -30.945312 6.703125 -26.40625 6.703125 C -19.582031 6.703125 -14.113281 8.59375 -10 12.375 C -5.894531 16.15625 -3.84375 21.269531 -3.84375 27.71875 C -3.84375 32.34375 -4.832031 35.9375 -6.8125 38.5 C -8.800781 41.0625 -11.515625 42.34375 -14.953125 42.34375 Z M -15.734375 33.546875 C -13.972656 33.546875 -12.445312 32.992188 -11.15625 31.890625 C -9.875 30.796875 -9.234375 28.851562 -9.234375 26.0625 C -9.234375 21.519531 -10.753906 17.925781 -13.796875 15.28125 C -16.847656 12.644531 -21.050781 11.328125 -26.40625 11.328125 C -31.757812 11.328125 -36.007812 12.644531 -39.15625 15.28125 C -42.3125 17.925781 -43.890625 21.519531 -43.890625 26.0625 C -43.890625 28.851562 -43.191406 30.796875 -41.796875 31.890625 C -40.398438 32.992188 -38.785156 33.546875 -36.953125 33.546875 C -34.460938 33.546875 -32.539062 32.796875 -31.1875 31.296875 C -29.832031 29.796875 -28.859375 27.613281 -28.265625 24.75 L -25.078125 24.75 C -23.828125 30.613281 -20.710938 33.546875 -15.734375 33.546875 Z M -15.734375 33.546875 "/>
</symbol>
</g>
</defs>
  <g id="id0:id0" transform="matrix(1.25,0,0,1.25,0.0,5.25390625)"><g id="id0:surface1">
<g style="fill:rgb(0%,0%,0%);fill-opacity:1;">
  <use xlink:href="#id0:glyph0-1" x="16" y="97.59375"/>
  <use xlink:href="#id0:glyph0-2" x="147.125" y="97.59375"/>
</g>
</g>
</g>
  <g id="id1:id1" transform="matrix(1.25,0,0,1.25,203.90625,0.0)"><g id="id1:surface1">
<g style="fill:rgb(0%,0%,0%);fill-opacity:1;">
  <use xlink:href="#id1:glyph0-1" x="0" y="120.84375"/>
</g>
</g>
</g>
  <g id="id2:id2" transform="matrix(1.25,0,0,1.25,336.50390625,5.25390625)"><g id="id2:surface1">
<g style="fill:rgb(0%,0%,0%);fill-opacity:1;">
  <use xlink:href="#id2:glyph0-1" x="16" y="97.59375"/>
  <use xlink:href="#id2:glyph0-2" x="98.171875" y="97.59375"/>
</g>
</g>
</g>
</svg>
