<!DOCTYPE svg PUBLIC "-//W3C//DTD SVG 1.1//EN" "http://www.w3.org/Graphics/SVG/1.1/DTD/svg11.dtd">
<!-- Created with svg_stack (http://github.com/astraw/svg_stack) --><svg xmlns="http://www.w3.org/2000/svg" xmlns:sodipodi="http://sodipodi.sourceforge.net/DTD/sodipodi-0.dtd" xmlns:xlink="http://www.w3.org/1999/xlink" version="1.1" width="100%" id="telugu-haln" viewBox="0 0 538.73046875 201.40625">
  <defs><g>
<symbol overflow="visible" id="telugu-haln:id0:glyph0-0">
<path style="stroke:none;" d="M 10.34375 0 L 10.34375 -78.546875 L 55.546875 -78.546875 L 55.546875 0 Z M 15.953125 -5.609375 L 49.9375 -5.609375 L 49.9375 -72.9375 L 15.953125 -72.9375 Z M 15.953125 -5.609375 "/>
</symbol>
<symbol overflow="visible" id="telugu-haln:id0:glyph0-1">
<path style="stroke:none;" d="M 3.84375 -26.734375 C 3.84375 -32.015625 4.925781 -36.816406 7.09375 -41.140625 C 9.257812 -45.460938 12.394531 -48.90625 16.5 -51.46875 C 20.601562 -54.039062 25.515625 -55.328125 31.234375 -55.328125 C 36.953125 -55.328125 41.8125 -54.0625 45.8125 -51.53125 C 49.8125 -49 52.875 -45.570312 55 -41.25 C 57.125 -36.925781 58.1875 -32.085938 58.1875 -26.734375 C 58.1875 -24.535156 58.003906 -22.441406 57.640625 -20.453125 C 60.054688 -17.085938 62.492188 -14.632812 64.953125 -13.09375 C 67.410156 -11.550781 70.253906 -10.78125 73.484375 -10.78125 C 77.367188 -10.78125 80.5 -11.929688 82.875 -14.234375 C 85.257812 -16.546875 86.453125 -20.050781 86.453125 -24.75 C 86.453125 -32.007812 84.269531 -37.691406 79.90625 -41.796875 C 75.550781 -45.898438 69.78125 -48.648438 62.59375 -50.046875 L 61.375 -50.046875 C 59.757812 -51.003906 58.015625 -52.4375 56.140625 -54.34375 C 54.273438 -56.25 52.484375 -58.425781 50.765625 -60.875 C 49.046875 -63.332031 47.597656 -65.882812 46.421875 -68.53125 L 57.96875 -69.078125 C 58.78125 -66.441406 59.625 -64.003906 60.5 -61.765625 C 61.375 -59.523438 62.507812 -57.125 63.90625 -54.5625 C 65.664062 -55.8125 67.71875 -57.476562 70.0625 -59.5625 C 72.414062 -61.65625 74.875 -63.910156 77.4375 -66.328125 C 80.007812 -68.742188 82.503906 -71.144531 84.921875 -73.53125 C 87.335938 -75.914062 89.460938 -78.097656 91.296875 -80.078125 L 96.46875 -75.125 C 91.113281 -70.289062 86.234375 -66.039062 81.828125 -62.375 C 77.429688 -58.707031 73.660156 -55.769531 70.515625 -53.5625 C 74.253906 -52.394531 77.71875 -50.5625 80.90625 -48.0625 C 84.09375 -45.570312 86.675781 -42.273438 88.65625 -38.171875 C 90.632812 -34.066406 91.625 -28.929688 91.625 -22.765625 C 91.625 -22.109375 91.625 -21.523438 91.625 -21.015625 C 94.050781 -17.421875 96.523438 -14.816406 99.046875 -13.203125 C 101.578125 -11.585938 104.601562 -10.78125 108.125 -10.78125 C 117.144531 -10.78125 121.65625 -15.65625 121.65625 -25.40625 C 121.65625 -31.34375 119.582031 -36.253906 115.4375 -40.140625 C 111.300781 -44.035156 104.976562 -46.128906 96.46875 -46.421875 L 96.796875 -55.4375 C 103.328125 -55.289062 108.8125 -53.785156 113.25 -50.921875 C 117.6875 -48.066406 121.019531 -44.273438 123.25 -39.546875 C 125.488281 -34.816406 126.609375 -29.519531 126.609375 -23.65625 C 126.609375 -18.8125 125.984375 -14.5 124.734375 -10.71875 C 123.492188 -6.945312 121.625 -4 119.125 -1.875 C 116.632812 0.25 113.445312 1.3125 109.5625 1.3125 C 105.3125 1.3125 101.679688 0.160156 98.671875 -2.140625 C 95.660156 -4.453125 92.984375 -8.101562 90.640625 -13.09375 C 89.609375 -8.832031 87.773438 -5.363281 85.140625 -2.6875 C 82.503906 -0.0195312 78.835938 1.3125 74.140625 1.3125 C 69.816406 1.3125 66.222656 0.125 63.359375 -2.25 C 60.492188 -4.632812 57.890625 -8.394531 55.546875 -13.53125 C 53.566406 -8.90625 50.445312 -5.273438 46.1875 -2.640625 C 41.9375 -0.00390625 36.84375 1.3125 30.90625 1.3125 C 25.257812 1.3125 20.421875 0.125 16.390625 -2.25 C 12.359375 -4.632812 9.257812 -7.9375 7.09375 -12.15625 C 4.925781 -16.375 3.84375 -21.234375 3.84375 -26.734375 Z M 10.890625 -30.140625 C 10.890625 -24.566406 12.554688 -19.984375 15.890625 -16.390625 C 19.234375 -12.796875 24.238281 -11 30.90625 -11 C 37.65625 -11 42.71875 -12.757812 46.09375 -16.28125 C 49.46875 -19.800781 51.15625 -24.421875 51.15625 -30.140625 C 51.15625 -36.003906 49.429688 -40.785156 45.984375 -44.484375 C 42.535156 -48.191406 37.617188 -50.046875 31.234375 -50.046875 C 25.003906 -50.046875 20.054688 -48.210938 16.390625 -44.546875 C 12.722656 -40.878906 10.890625 -36.078125 10.890625 -30.140625 Z M 10.890625 -30.140625 "/>
</symbol>
<symbol overflow="visible" id="telugu-haln:id0:glyph0-2">
<path style="stroke:none;" d="M 4.625 -90.53125 L 3.84375 -82.71875 L -26.296875 -82.71875 C -29.734375 -82.71875 -32.332031 -82.332031 -34.09375 -81.5625 C -35.851562 -80.789062 -36.734375 -79.304688 -36.734375 -77.109375 C -36.734375 -74.835938 -35.78125 -73.316406 -33.875 -72.546875 C -31.96875 -71.773438 -29.40625 -71.390625 -26.1875 -71.390625 L -13.53125 -71.390625 L -13.859375 -66.21875 L -26.734375 -66.21875 C -33.035156 -66.21875 -36.1875 -64.382812 -36.1875 -60.71875 C -36.1875 -58.738281 -35.394531 -57.289062 -33.8125 -56.375 C -32.238281 -55.457031 -29.546875 -55 -25.734375 -55 L -21.453125 -55 L -21.78125 -50.046875 L -27.171875 -50.046875 C -32.671875 -50.046875 -36.554688 -51.109375 -38.828125 -53.234375 C -41.097656 -55.367188 -42.234375 -57.828125 -42.234375 -60.609375 C -42.234375 -64.273438 -40.363281 -66.914062 -36.625 -68.53125 C -41.03125 -70.582031 -43.234375 -73.882812 -43.234375 -78.4375 C -43.234375 -80.632812 -42.753906 -82.519531 -41.796875 -84.09375 C -40.847656 -85.664062 -39.53125 -86.929688 -37.84375 -87.890625 C -36.226562 -88.835938 -34.316406 -89.515625 -32.109375 -89.921875 C -29.910156 -90.328125 -26.6875 -90.53125 -22.4375 -90.53125 Z M 4.625 -90.53125 "/>
</symbol>
</g>
<g>
<symbol overflow="visible" id="telugu-haln:id1:glyph0-0">
<path style="stroke:none;" d="M 5.375 -96.6875 L 69.828125 -96.6875 L 69.828125 0 L 5.375 0 Z M 8.0625 -2.6875 L 67.140625 -2.6875 L 67.140625 -94 L 8.0625 -94 Z M 8.0625 -2.6875 "/>
</symbol>
<symbol overflow="visible" id="telugu-haln:id1:glyph0-1">
<path style="stroke:none;" d="M 68.15625 -13.75 L 66.28125 -18.640625 L 88.09375 -27.390625 L 6.984375 -27.390625 L 6.984375 -34 L 88.09375 -34 L 66.28125 -42.75 L 68.15625 -47.640625 L 99.09375 -34.265625 L 99.09375 -27.125 Z M 68.15625 -13.75 "/>
</symbol>
</g>
<g>
<symbol overflow="visible" id="telugu-haln:id2:glyph0-0">
<path style="stroke:none;" d="M 10.34375 0 L 10.34375 -78.546875 L 55.546875 -78.546875 L 55.546875 0 Z M 15.953125 -5.609375 L 49.9375 -5.609375 L 49.9375 -72.9375 L 15.953125 -72.9375 Z M 15.953125 -5.609375 "/>
</symbol>
<symbol overflow="visible" id="telugu-haln:id2:glyph0-1">
<path style="stroke:none;" d="M 3.84375 -26.734375 C 3.84375 -32.015625 4.925781 -36.816406 7.09375 -41.140625 C 9.257812 -45.460938 12.394531 -48.90625 16.5 -51.46875 C 20.601562 -54.039062 25.515625 -55.328125 31.234375 -55.328125 C 36.953125 -55.328125 41.8125 -54.0625 45.8125 -51.53125 C 49.8125 -49 52.875 -45.570312 55 -41.25 C 57.125 -36.925781 58.1875 -32.085938 58.1875 -26.734375 C 58.1875 -24.535156 58.003906 -22.441406 57.640625 -20.453125 C 60.054688 -17.085938 62.492188 -14.632812 64.953125 -13.09375 C 67.410156 -11.550781 70.253906 -10.78125 73.484375 -10.78125 C 77.367188 -10.78125 80.484375 -11.929688 82.828125 -14.234375 C 85.171875 -16.546875 86.34375 -20.160156 86.34375 -25.078125 C 86.34375 -30.578125 84.929688 -35.4375 82.109375 -39.65625 C 79.285156 -43.875 75.457031 -47.335938 70.625 -50.046875 L 69.84375 -50.046875 C 64.34375 -50.046875 60.457031 -51.109375 58.1875 -53.234375 C 55.914062 -55.367188 54.78125 -57.828125 54.78125 -60.609375 C 54.78125 -64.273438 56.648438 -66.914062 60.390625 -68.53125 C 55.992188 -70.582031 53.796875 -73.882812 53.796875 -78.4375 C 53.796875 -80.632812 54.269531 -82.519531 55.21875 -84.09375 C 56.175781 -85.664062 57.5 -86.929688 59.1875 -87.890625 C 60.789062 -88.835938 62.691406 -89.515625 64.890625 -89.921875 C 67.097656 -90.328125 70.328125 -90.53125 74.578125 -90.53125 L 101.640625 -90.53125 L 100.875 -82.71875 L 70.734375 -82.71875 C 67.285156 -82.71875 64.679688 -82.332031 62.921875 -81.5625 C 61.160156 -80.789062 60.28125 -79.304688 60.28125 -77.109375 C 60.28125 -74.835938 61.234375 -73.316406 63.140625 -72.546875 C 65.046875 -71.773438 67.613281 -71.390625 70.84375 -71.390625 L 83.484375 -71.390625 L 83.15625 -66.21875 L 70.296875 -66.21875 C 63.984375 -66.21875 60.828125 -64.382812 60.828125 -60.71875 C 60.828125 -58.738281 61.597656 -57.289062 63.140625 -56.375 C 64.679688 -55.457031 67.394531 -55 71.28125 -55 L 73.484375 -55 C 76.785156 -53.019531 79.8125 -50.523438 82.5625 -47.515625 C 85.3125 -44.515625 87.507812 -40.957031 89.15625 -36.84375 C 90.800781 -32.738281 91.625 -28.046875 91.625 -22.765625 C 91.625 -22.109375 91.625 -21.523438 91.625 -21.015625 C 94.050781 -17.421875 96.523438 -14.816406 99.046875 -13.203125 C 101.578125 -11.585938 104.601562 -10.78125 108.125 -10.78125 C 117.144531 -10.78125 121.65625 -15.65625 121.65625 -25.40625 C 121.65625 -31.34375 119.582031 -36.253906 115.4375 -40.140625 C 111.300781 -44.035156 104.976562 -46.128906 96.46875 -46.421875 L 96.796875 -55.4375 C 103.328125 -55.289062 108.8125 -53.785156 113.25 -50.921875 C 117.6875 -48.066406 121.019531 -44.273438 123.25 -39.546875 C 125.488281 -34.816406 126.609375 -29.519531 126.609375 -23.65625 C 126.609375 -18.8125 125.984375 -14.5 124.734375 -10.71875 C 123.492188 -6.945312 121.625 -4 119.125 -1.875 C 116.632812 0.25 113.445312 1.3125 109.5625 1.3125 C 105.3125 1.3125 101.679688 0.160156 98.671875 -2.140625 C 95.660156 -4.453125 92.984375 -8.101562 90.640625 -13.09375 C 89.609375 -8.832031 87.773438 -5.363281 85.140625 -2.6875 C 82.503906 -0.0195312 78.835938 1.3125 74.140625 1.3125 C 69.816406 1.3125 66.222656 0.125 63.359375 -2.25 C 60.492188 -4.632812 57.890625 -8.394531 55.546875 -13.53125 C 53.566406 -8.90625 50.445312 -5.273438 46.1875 -2.640625 C 41.9375 -0.00390625 36.84375 1.3125 30.90625 1.3125 C 25.257812 1.3125 20.421875 0.125 16.390625 -2.25 C 12.359375 -4.632812 9.257812 -7.9375 7.09375 -12.15625 C 4.925781 -16.375 3.84375 -21.234375 3.84375 -26.734375 Z M 10.890625 -30.140625 C 10.890625 -24.566406 12.554688 -19.984375 15.890625 -16.390625 C 19.234375 -12.796875 24.238281 -11 30.90625 -11 C 37.65625 -11 42.71875 -12.757812 46.09375 -16.28125 C 49.46875 -19.800781 51.15625 -24.421875 51.15625 -30.140625 C 51.15625 -36.003906 49.429688 -40.785156 45.984375 -44.484375 C 42.535156 -48.191406 37.617188 -50.046875 31.234375 -50.046875 C 25.003906 -50.046875 20.054688 -48.210938 16.390625 -44.546875 C 12.722656 -40.878906 10.890625 -36.078125 10.890625 -30.140625 Z M 10.890625 -30.140625 "/>
</symbol>
</g>
</defs>
  <g id="telugu-haln:id0:id0" transform="matrix(1.25,0,0,1.25,0.0,5.25390625)"><g id="telugu-haln:id0:surface1">
<g style="fill:rgb(0%,0%,0%);fill-opacity:1;">
  <use xlink:href="#telugu-haln:id0:glyph0-1" x="16" y="97.59375" class="c0"/>
  <use xlink:href="#telugu-haln:id0:glyph0-2" x="146.453125" y="97.59375" class="c1"/>
</g>
</g>
</g>
  <g id="telugu-haln:id1:id1" transform="matrix(1.25,0,0,1.25,203.06640625,0.0)"><g id="telugu-haln:id1:surface1">
<g style="fill:rgb(0%,0%,0%);fill-opacity:1;">
  <use xlink:href="#telugu-haln:id1:glyph0-1" x="0" y="120.84375" class="arrow"/>
</g>
</g>
</g>
  <g id="telugu-haln:id2:id2" transform="matrix(1.25,0,0,1.25,335.6640625,5.25390625)"><g id="telugu-haln:id2:surface1">
<g style="fill:rgb(0%,0%,0%);fill-opacity:1;">
  <use xlink:href="#telugu-haln:id2:glyph0-1" x="16" y="97.59375" class="c2"/>
</g>
</g>
</g>
</svg>