<!DOCTYPE svg PUBLIC "-//W3C//DTD SVG 1.1//EN" "http://www.w3.org/Graphics/SVG/1.1/DTD/svg11.dtd">
<!-- Created with svg_stack (http://github.com/astraw/svg_stack) --><svg xmlns="http://www.w3.org/2000/svg" xmlns:sodipodi="http://sodipodi.sourceforge.net/DTD/sodipodi-0.dtd" xmlns:xlink="http://www.w3.org/1999/xlink" version="1.1" width="100%" id="telugu-blws" viewBox="0 0 420.21484375 201.40625">
  <defs><g>
<symbol overflow="visible" id="telugu-blws:id0:glyph0-0">
<path style="stroke:none;" d="M 10.34375 0 L 10.34375 -78.546875 L 55.546875 -78.546875 L 55.546875 0 Z M 15.953125 -5.609375 L 49.9375 -5.609375 L 49.9375 -72.9375 L 15.953125 -72.9375 Z M 15.953125 -5.609375 "/>
</symbol>
<symbol overflow="visible" id="telugu-blws:id0:glyph0-1">
<path style="stroke:none;" d="M 56.984375 1.3125 C 53.242188 1.3125 49.867188 0.726562 46.859375 -0.4375 C 43.847656 -1.613281 40.660156 -3.335938 37.296875 -5.609375 C 34.941406 -3.410156 32.222656 -1.707031 29.140625 -0.5 C 26.066406 0.707031 22.769531 1.3125 19.25 1.3125 C 15.21875 1.3125 12.046875 0.707031 9.734375 -0.5 C 7.421875 -1.707031 5.75 -3.265625 4.71875 -5.171875 C 3.695312 -7.078125 3.1875 -9.054688 3.1875 -11.109375 C 3.1875 -14.484375 4.488281 -17.304688 7.09375 -19.578125 C 9.695312 -21.847656 13.382812 -22.984375 18.15625 -22.984375 C 21.082031 -22.984375 23.9375 -22.429688 26.71875 -21.328125 C 29.507812 -20.234375 32.484375 -18.660156 35.640625 -16.609375 C 36.816406 -19.472656 37.40625 -22.882812 37.40625 -26.84375 C 37.40625 -29.769531 37.128906 -32.515625 36.578125 -35.078125 C 36.023438 -37.648438 34.976562 -39.960938 33.4375 -42.015625 C 33.582031 -41.285156 33.65625 -40.515625 33.65625 -39.703125 C 33.65625 -35.671875 32.316406 -32.425781 29.640625 -29.96875 C 26.960938 -27.519531 23.390625 -26.296875 18.921875 -26.296875 C 16.273438 -26.296875 13.816406 -26.84375 11.546875 -27.9375 C 9.273438 -29.039062 7.441406 -30.65625 6.046875 -32.78125 C 4.648438 -34.90625 3.953125 -37.472656 3.953125 -40.484375 C 3.953125 -44.515625 5.472656 -47.941406 8.515625 -50.765625 C 11.566406 -53.585938 15.734375 -55 21.015625 -55 C 25.773438 -55 29.769531 -54.117188 33 -52.359375 C 36.226562 -50.597656 38.8125 -48.320312 40.75 -45.53125 C 42.695312 -42.75 44.109375 -39.742188 44.984375 -36.515625 C 45.867188 -33.296875 46.3125 -30.253906 46.3125 -27.390625 C 46.3125 -24.523438 45.976562 -21.8125 45.3125 -19.25 C 44.65625 -16.6875 43.703125 -14.300781 42.453125 -12.09375 C 44.804688 -10.5625 47.097656 -9.390625 49.328125 -8.578125 C 51.566406 -7.773438 54.191406 -7.375 57.203125 -7.375 C 61.523438 -7.375 64.75 -8.546875 66.875 -10.890625 C 69 -13.234375 70.0625 -16.644531 70.0625 -21.125 C 70.0625 -25.445312 69.203125 -29.222656 67.484375 -32.453125 C 65.765625 -35.679688 63.4375 -38.519531 60.5 -40.96875 C 57.5625 -43.425781 54.1875 -45.644531 50.375 -47.625 L 54.890625 -53.5625 C 59.503906 -51.726562 63.644531 -49.253906 67.3125 -46.140625 C 70.976562 -43.023438 73.875 -39.429688 76 -35.359375 C 78.132812 -31.296875 79.203125 -26.769531 79.203125 -21.78125 C 79.203125 -14.519531 77.179688 -8.851562 73.140625 -4.78125 C 69.109375 -0.71875 63.722656 1.3125 56.984375 1.3125 Z M 12.3125 -40.59375 C 12.3125 -38.613281 12.878906 -37 14.015625 -35.75 C 15.160156 -34.5 16.867188 -33.875 19.140625 -33.875 C 21.335938 -33.875 23.148438 -34.40625 24.578125 -35.46875 C 26.015625 -36.53125 26.734375 -38.3125 26.734375 -40.8125 C 26.734375 -43.007812 26.179688 -45.0625 25.078125 -46.96875 C 23.679688 -47.332031 22.21875 -47.515625 20.6875 -47.515625 C 17.96875 -47.515625 15.890625 -46.851562 14.453125 -45.53125 C 13.023438 -44.21875 12.3125 -42.570312 12.3125 -40.59375 Z M 11.546875 -11.21875 C 11.546875 -9.96875 12.171875 -8.941406 13.421875 -8.140625 C 14.671875 -7.335938 16.648438 -6.9375 19.359375 -6.9375 C 23.984375 -6.9375 27.757812 -8.035156 30.6875 -10.234375 C 28.488281 -11.847656 26.398438 -13.078125 24.421875 -13.921875 C 22.441406 -14.765625 20.316406 -15.1875 18.046875 -15.1875 C 15.691406 -15.1875 14.019531 -14.78125 13.03125 -13.96875 C 12.039062 -13.164062 11.546875 -12.25 11.546875 -11.21875 Z M 32.78125 13.75 L 33.546875 -1.765625 L 41.796875 -1.765625 L 42.6875 13.75 Z M 77.21875 -60.828125 C 77.21875 -58.410156 76.796875 -56.335938 75.953125 -54.609375 C 75.117188 -52.890625 74.113281 -51.550781 72.9375 -50.59375 C 71.25 -49.207031 69.210938 -48.21875 66.828125 -47.625 C 64.441406 -47.039062 61.160156 -46.75 56.984375 -46.75 L 45.984375 -46.75 L 45.984375 -55 L 58.3125 -55 C 60.65625 -55 62.429688 -55.125 63.640625 -55.375 C 64.847656 -55.632812 65.820312 -56.0625 66.5625 -56.65625 C 67.65625 -57.675781 68.203125 -59.03125 68.203125 -60.71875 C 68.203125 -62.695312 67.617188 -64.164062 66.453125 -65.125 C 65.710938 -65.707031 64.789062 -66.144531 63.6875 -66.4375 C 62.59375 -66.726562 60.765625 -66.875 58.203125 -66.875 L 15.40625 -66.875 L 15.40625 -75.125 L 57.53125 -75.125 C 61.5625 -75.125 64.734375 -74.832031 67.046875 -74.25 C 69.359375 -73.664062 71.359375 -72.640625 73.046875 -71.171875 C 74.296875 -70.066406 75.300781 -68.6875 76.0625 -67.03125 C 76.832031 -65.382812 77.21875 -63.316406 77.21875 -60.828125 Z M 77.21875 -60.828125 "/>
</symbol>
<symbol overflow="visible" id="telugu-blws:id0:glyph0-2">
<path style="stroke:none;" d="M -48.40625 6.703125 C -45.03125 6.703125 -42.296875 7.328125 -40.203125 8.578125 C -38.109375 9.828125 -36.582031 11.40625 -35.625 13.3125 C -34.675781 15.21875 -34.203125 17.125 -34.203125 19.03125 C -34.203125 20.570312 -34.40625 21.960938 -34.8125 23.203125 C -35.21875 24.453125 -35.75 25.628906 -36.40625 26.734375 L -0.21875 26.734375 L -0.21875 34.984375 L -39.484375 34.984375 C -44.179688 34.984375 -47.976562 34.6875 -50.875 34.09375 C -53.769531 33.507812 -56.171875 32.484375 -58.078125 31.015625 C -59.617188 29.847656 -60.847656 28.382812 -61.765625 26.625 C -62.679688 24.863281 -63.140625 22.625 -63.140625 19.90625 C -63.140625 15.945312 -61.78125 12.753906 -59.0625 10.328125 C -56.351562 7.910156 -52.800781 6.703125 -48.40625 6.703125 Z M -44.875 26.734375 L -44.328125 26.734375 C -42.640625 24.679688 -41.796875 22.515625 -41.796875 20.234375 C -41.796875 18.328125 -42.398438 16.804688 -43.609375 15.671875 C -44.828125 14.535156 -46.570312 13.96875 -48.84375 13.96875 C -51.113281 13.96875 -52.796875 14.535156 -53.890625 15.671875 C -54.992188 16.804688 -55.546875 18.179688 -55.546875 19.796875 C -55.546875 22.367188 -54.609375 24.164062 -52.734375 25.1875 C -50.867188 26.21875 -48.25 26.734375 -44.875 26.734375 Z M -44.875 26.734375 "/>
</symbol>
</g>
<g>
<symbol overflow="visible" id="telugu-blws:id1:glyph0-0">
<path style="stroke:none;" d="M 5.375 -96.6875 L 69.828125 -96.6875 L 69.828125 0 L 5.375 0 Z M 8.0625 -2.6875 L 67.140625 -2.6875 L 67.140625 -94 L 8.0625 -94 Z M 8.0625 -2.6875 "/>
</symbol>
<symbol overflow="visible" id="telugu-blws:id1:glyph0-1">
<path style="stroke:none;" d="M 68.15625 -13.75 L 66.28125 -18.640625 L 88.09375 -27.390625 L 6.984375 -27.390625 L 6.984375 -34 L 88.09375 -34 L 66.28125 -42.75 L 68.15625 -47.640625 L 99.09375 -34.265625 L 99.09375 -27.125 Z M 68.15625 -13.75 "/>
</symbol>
</g>
<g>
<symbol overflow="visible" id="telugu-blws:id2:glyph0-0">
<path style="stroke:none;" d="M 10.34375 0 L 10.34375 -78.546875 L 55.546875 -78.546875 L 55.546875 0 Z M 15.953125 -5.609375 L 49.9375 -5.609375 L 49.9375 -72.9375 L 15.953125 -72.9375 Z M 15.953125 -5.609375 "/>
</symbol>
<symbol overflow="visible" id="telugu-blws:id2:glyph0-1">
<path style="stroke:none;" d="M 56.984375 1.3125 C 53.242188 1.3125 49.867188 0.726562 46.859375 -0.4375 C 43.847656 -1.613281 40.660156 -3.335938 37.296875 -5.609375 C 34.941406 -3.410156 32.222656 -1.707031 29.140625 -0.5 C 26.066406 0.707031 22.769531 1.3125 19.25 1.3125 C 15.21875 1.3125 12.046875 0.707031 9.734375 -0.5 C 7.421875 -1.707031 5.75 -3.265625 4.71875 -5.171875 C 3.695312 -7.078125 3.1875 -9.054688 3.1875 -11.109375 C 3.1875 -14.484375 4.488281 -17.304688 7.09375 -19.578125 C 9.695312 -21.847656 13.382812 -22.984375 18.15625 -22.984375 C 21.082031 -22.984375 23.9375 -22.429688 26.71875 -21.328125 C 29.507812 -20.234375 32.484375 -18.660156 35.640625 -16.609375 C 36.816406 -19.472656 37.40625 -22.882812 37.40625 -26.84375 C 37.40625 -29.769531 37.128906 -32.515625 36.578125 -35.078125 C 36.023438 -37.648438 34.976562 -39.960938 33.4375 -42.015625 C 33.582031 -41.285156 33.65625 -40.515625 33.65625 -39.703125 C 33.65625 -35.671875 32.316406 -32.425781 29.640625 -29.96875 C 26.960938 -27.519531 23.390625 -26.296875 18.921875 -26.296875 C 16.273438 -26.296875 13.816406 -26.84375 11.546875 -27.9375 C 9.273438 -29.039062 7.441406 -30.65625 6.046875 -32.78125 C 4.648438 -34.90625 3.953125 -37.472656 3.953125 -40.484375 C 3.953125 -44.515625 5.472656 -47.941406 8.515625 -50.765625 C 11.566406 -53.585938 15.734375 -55 21.015625 -55 C 25.773438 -55 29.769531 -54.117188 33 -52.359375 C 36.226562 -50.597656 38.8125 -48.320312 40.75 -45.53125 C 42.695312 -42.75 44.109375 -39.742188 44.984375 -36.515625 C 45.867188 -33.296875 46.3125 -30.253906 46.3125 -27.390625 C 46.3125 -24.523438 45.976562 -21.8125 45.3125 -19.25 C 44.65625 -16.6875 43.703125 -14.300781 42.453125 -12.09375 C 44.804688 -10.5625 47.097656 -9.390625 49.328125 -8.578125 C 51.566406 -7.773438 54.191406 -7.375 57.203125 -7.375 C 61.523438 -7.375 64.75 -8.546875 66.875 -10.890625 C 69 -13.234375 70.0625 -16.644531 70.0625 -21.125 C 70.0625 -27.28125 68.359375 -32.351562 64.953125 -36.34375 C 61.546875 -40.34375 57.238281 -43.8125 52.03125 -46.75 L 45.984375 -46.75 L 45.984375 -55 L 58.296875 -55 C 60.640625 -55 62.414062 -55.125 63.625 -55.375 C 64.84375 -55.632812 65.816406 -56.0625 66.546875 -56.65625 C 67.648438 -57.675781 68.203125 -59.03125 68.203125 -60.71875 C 68.203125 -62.695312 67.613281 -64.164062 66.4375 -65.125 C 65.707031 -65.707031 64.789062 -66.144531 63.6875 -66.4375 C 62.59375 -66.726562 60.757812 -66.875 58.1875 -66.875 L 15.40625 -66.875 L 15.40625 -75.125 L 57.53125 -75.125 C 61.5625 -75.125 64.734375 -74.832031 67.046875 -74.25 C 69.359375 -73.664062 71.359375 -72.640625 73.046875 -71.171875 C 74.285156 -70.066406 75.289062 -68.6875 76.0625 -67.03125 C 76.832031 -65.382812 77.21875 -63.316406 77.21875 -60.828125 C 77.21875 -58.410156 76.796875 -56.335938 75.953125 -54.609375 C 75.109375 -52.890625 74.101562 -51.550781 72.9375 -50.59375 C 70.945312 -49.0625 68.5625 -48 65.78125 -47.40625 C 69.8125 -44.332031 73.054688 -40.613281 75.515625 -36.25 C 77.972656 -31.882812 79.203125 -27.0625 79.203125 -21.78125 C 79.203125 -14.519531 77.179688 -8.851562 73.140625 -4.78125 C 69.109375 -0.71875 63.722656 1.3125 56.984375 1.3125 Z M 12.3125 -40.59375 C 12.3125 -38.613281 12.878906 -37 14.015625 -35.75 C 15.160156 -34.5 16.867188 -33.875 19.140625 -33.875 C 21.335938 -33.875 23.148438 -34.40625 24.578125 -35.46875 C 26.015625 -36.53125 26.734375 -38.3125 26.734375 -40.8125 C 26.734375 -43.007812 26.179688 -45.0625 25.078125 -46.96875 C 23.679688 -47.332031 22.21875 -47.515625 20.6875 -47.515625 C 17.96875 -47.515625 15.890625 -46.851562 14.453125 -45.53125 C 13.023438 -44.21875 12.3125 -42.570312 12.3125 -40.59375 Z M 11.546875 -11.21875 C 11.546875 -9.96875 12.171875 -8.941406 13.421875 -8.140625 C 14.671875 -7.335938 16.648438 -6.9375 19.359375 -6.9375 C 23.984375 -6.9375 27.757812 -8.035156 30.6875 -10.234375 C 28.488281 -11.847656 26.398438 -13.078125 24.421875 -13.921875 C 22.441406 -14.765625 20.316406 -15.1875 18.046875 -15.1875 C 15.691406 -15.1875 14.019531 -14.78125 13.03125 -13.96875 C 12.039062 -13.164062 11.546875 -12.25 11.546875 -11.21875 Z M 32.78125 13.75 L 33.546875 -1.765625 L 41.796875 -1.765625 L 42.6875 13.75 Z M 20.015625 9.6875 C 23.390625 9.6875 26.117188 10.304688 28.203125 11.546875 C 30.296875 12.796875 31.816406 14.375 32.765625 16.28125 C 33.722656 18.1875 34.203125 20.09375 34.203125 22 C 34.203125 23.539062 34 24.929688 33.59375 26.171875 C 33.195312 27.421875 32.671875 28.597656 32.015625 29.703125 L 75.34375 29.703125 L 75.34375 37.953125 L 28.9375 37.953125 C 24.238281 37.953125 20.441406 37.65625 17.546875 37.0625 C 14.648438 36.476562 12.25 35.453125 10.34375 33.984375 C 8.800781 32.816406 7.570312 31.351562 6.65625 29.59375 C 5.738281 27.832031 5.28125 25.59375 5.28125 22.875 C 5.28125 18.914062 6.632812 15.726562 9.34375 13.3125 C 12.0625 10.894531 15.617188 9.6875 20.015625 9.6875 Z M 23.546875 29.703125 L 24.09375 29.703125 C 25.78125 27.648438 26.625 25.484375 26.625 23.203125 C 26.625 21.296875 26.015625 19.773438 24.796875 18.640625 C 23.585938 17.503906 21.847656 16.9375 19.578125 16.9375 C 17.304688 16.9375 15.617188 17.503906 14.515625 18.640625 C 13.421875 19.773438 12.875 21.148438 12.875 22.765625 C 12.875 25.335938 13.804688 27.132812 15.671875 28.15625 C 17.546875 29.1875 20.171875 29.703125 23.546875 29.703125 Z M 23.546875 29.703125 "/>
</symbol>
</g>
</defs>
  <g id="telugu-blws:id0:id0" transform="matrix(1.25,0,0,1.25,0.0,5.25390625)"><g id="telugu-blws:id0:surface1">
<g style="fill:rgb(0%,0%,0%);fill-opacity:1;">
  <use xlink:href="#telugu-blws:id0:glyph0-1" x="16" y="97.59375" class="c0"/>
  <use xlink:href="#telugu-blws:id0:glyph0-2" x="99.046875" y="97.59375" class="c1"/>
</g>
</g>
</g>
  <g id="telugu-blws:id1:id1" transform="matrix(1.25,0,0,1.25,143.80859375,0.0)"><g id="telugu-blws:id1:surface1">
<g style="fill:rgb(0%,0%,0%);fill-opacity:1;">
  <use xlink:href="#telugu-blws:id1:glyph0-1" x="0" y="120.84375" class="arrow"/>
</g>
</g>
</g>
  <g id="telugu-blws:id2:id2" transform="matrix(1.25,0,0,1.25,276.40625,5.25390625)"><g id="telugu-blws:id2:surface1">
<g style="fill:rgb(0%,0%,0%);fill-opacity:1;">
  <use xlink:href="#telugu-blws:id2:glyph0-1" x="16" y="97.59375" class="c2"/>
</g>
</g>
</g>
</svg>