<?xml version="1.0" standalone="no"?>
<!DOCTYPE svg PUBLIC "-//W3C//DTD SVG 1.1//EN"
 "http://www.w3.org/Graphics/SVG/1.1/DTD/svg11.dtd">
<!-- Created with svg_stack (http://github.com/astraw/svg_stack) -->
<svg xmlns="http://www.w3.org/2000/svg" xmlns:sodipodi="http://sodipodi.sourceforge.net/DTD/sodipodi-0.dtd" xmlns:xlink="http://www.w3.org/1999/xlink" version="1.1" width="458.30078125" height="201.40625">
  <defs><g>
<symbol overflow="visible" id="id0:glyph0-0">
<path style="stroke:none;" d="M 10.34375 0 L 10.34375 -78.546875 L 55.546875 -78.546875 L 55.546875 0 Z M 15.953125 -5.609375 L 49.9375 -5.609375 L 49.9375 -72.9375 L 15.953125 -72.9375 Z M 15.953125 -5.609375 "/>
</symbol>
<symbol overflow="visible" id="id0:glyph0-1">
<path style="stroke:none;" d="M 34.984375 -39.484375 C 34.984375 -37.359375 33.921875 -36.296875 31.796875 -36.296875 C 29.660156 -36.296875 28.59375 -37.359375 28.59375 -39.484375 C 28.59375 -41.535156 29.660156 -42.5625 31.796875 -42.5625 C 33.921875 -42.5625 34.984375 -41.535156 34.984375 -39.484375 Z M 21.234375 -33.984375 C 21.234375 -31.859375 20.207031 -30.796875 18.15625 -30.796875 C 16.019531 -30.796875 14.953125 -31.859375 14.953125 -33.984375 C 14.953125 -36.117188 16.019531 -37.1875 18.15625 -37.1875 C 20.207031 -37.1875 21.234375 -36.117188 21.234375 -33.984375 Z M 48.625 -33.984375 C 48.625 -31.859375 47.597656 -30.796875 45.546875 -30.796875 C 43.410156 -30.796875 42.34375 -31.859375 42.34375 -33.984375 C 42.34375 -36.117188 43.410156 -37.1875 45.546875 -37.1875 C 47.597656 -37.1875 48.625 -36.117188 48.625 -33.984375 Z M 53.5625 -20.796875 C 53.5625 -18.734375 52.5 -17.703125 50.375 -17.703125 C 48.25 -17.703125 47.1875 -18.734375 47.1875 -20.796875 C 47.1875 -22.921875 48.25 -23.984375 50.375 -23.984375 C 52.5 -23.984375 53.5625 -22.921875 53.5625 -20.796875 Z M 16.28125 -20.796875 C 16.28125 -18.734375 15.253906 -17.703125 13.203125 -17.703125 C 11.078125 -17.703125 10.015625 -18.734375 10.015625 -20.796875 C 10.015625 -22.921875 11.078125 -23.984375 13.203125 -23.984375 C 15.253906 -23.984375 16.28125 -22.921875 16.28125 -20.796875 Z M 21.234375 -7.703125 C 21.234375 -5.578125 20.207031 -4.515625 18.15625 -4.515625 C 16.019531 -4.515625 14.953125 -5.578125 14.953125 -7.703125 C 14.953125 -9.828125 16.019531 -10.890625 18.15625 -10.890625 C 20.207031 -10.890625 21.234375 -9.828125 21.234375 -7.703125 Z M 48.625 -7.703125 C 48.625 -5.578125 47.597656 -4.515625 45.546875 -4.515625 C 43.410156 -4.515625 42.34375 -5.578125 42.34375 -7.703125 C 42.34375 -9.828125 43.410156 -10.890625 45.546875 -10.890625 C 47.597656 -10.890625 48.625 -9.828125 48.625 -7.703125 Z M 34.984375 -2.203125 C 34.984375 -0.078125 33.921875 0.984375 31.796875 0.984375 C 29.660156 0.984375 28.59375 -0.078125 28.59375 -2.203125 C 28.59375 -4.328125 29.660156 -5.390625 31.796875 -5.390625 C 33.921875 -5.390625 34.984375 -4.328125 34.984375 -2.203125 Z M 34.984375 -2.203125 "/>
</symbol>
<symbol overflow="visible" id="id0:glyph0-2">
<path style="stroke:none;" d="M -17.046875 42.34375 C -19.546875 42.34375 -21.800781 41.789062 -23.8125 40.6875 C -25.832031 39.59375 -27.796875 38.128906 -29.703125 36.296875 C -31.316406 38.203125 -33.257812 39.6875 -35.53125 40.75 C -37.800781 41.8125 -40.367188 42.34375 -43.234375 42.34375 C -47.335938 42.34375 -50.34375 41.441406 -52.25 39.640625 C -54.15625 37.847656 -55.109375 35.5625 -55.109375 32.78125 C -55.109375 30.4375 -54.300781 28.472656 -52.6875 26.890625 C -51.070312 25.316406 -48.429688 24.53125 -44.765625 24.53125 C -42.273438 24.53125 -39.984375 24.929688 -37.890625 25.734375 C -35.804688 26.546875 -33.625 27.648438 -31.34375 29.046875 C -30.320312 27.285156 -29.8125 25.117188 -29.8125 22.546875 C -29.8125 18.003906 -31.609375 14.816406 -35.203125 12.984375 C -34.910156 13.710938 -34.765625 14.664062 -34.765625 15.84375 C -34.765625 18.914062 -35.644531 21.078125 -37.40625 22.328125 C -39.164062 23.578125 -41.4375 24.203125 -44.21875 24.203125 C -47.15625 24.203125 -49.484375 23.445312 -51.203125 21.9375 C -52.929688 20.4375 -53.796875 18.367188 -53.796875 15.734375 C -53.796875 12.941406 -52.765625 10.738281 -50.703125 9.125 C -48.648438 7.507812 -45.828125 6.703125 -42.234375 6.703125 C -37.035156 6.703125 -32.894531 8.148438 -29.8125 11.046875 C -26.726562 13.953125 -25.1875 18.003906 -25.1875 23.203125 C -25.1875 26.210938 -25.738281 29.039062 -26.84375 31.6875 C -24.050781 32.925781 -20.96875 33.546875 -17.59375 33.546875 C -14.375 33.546875 -12.007812 32.796875 -10.5 31.296875 C -9 29.796875 -8.25 27.867188 -8.25 25.515625 C -8.25 22.066406 -9.476562 19.222656 -11.9375 16.984375 C -14.394531 14.753906 -18.265625 13.421875 -23.546875 12.984375 L -23.09375 6.375 C -17.007812 6.894531 -12.28125 8.988281 -8.90625 12.65625 C -5.53125 16.320312 -3.84375 20.941406 -3.84375 26.515625 C -3.84375 31.128906 -4.851562 34.921875 -6.875 37.890625 C -8.894531 40.859375 -12.285156 42.34375 -17.046875 42.34375 Z M -48.625 15.953125 C -48.625 17.347656 -48.179688 18.410156 -47.296875 19.140625 C -46.421875 19.867188 -45.394531 20.234375 -44.21875 20.234375 C -43.039062 20.234375 -41.957031 19.921875 -40.96875 19.296875 C -39.976562 18.679688 -39.484375 17.566406 -39.484375 15.953125 C -39.484375 14.484375 -39.921875 13.414062 -40.796875 12.75 C -41.679688 12.09375 -42.710938 11.765625 -43.890625 11.765625 C -45.285156 11.765625 -46.421875 12.128906 -47.296875 12.859375 C -48.179688 13.597656 -48.625 14.628906 -48.625 15.953125 Z M -49.9375 31.234375 C -49.9375 32.410156 -49.367188 33.253906 -48.234375 33.765625 C -47.097656 34.285156 -45.503906 34.546875 -43.453125 34.546875 C -39.710938 34.546875 -36.742188 33.8125 -34.546875 32.34375 C -36.523438 31.019531 -38.316406 30.046875 -39.921875 29.421875 C -41.535156 28.796875 -43.257812 28.484375 -45.09375 28.484375 C -46.488281 28.484375 -47.644531 28.6875 -48.5625 29.09375 C -49.476562 29.5 -49.9375 30.210938 -49.9375 31.234375 Z M -34.203125 50.9375 L -31.796875 39.703125 L -27.5 39.703125 L -25.078125 50.9375 Z M -34.203125 50.9375 "/>
</symbol>
<symbol overflow="visible" id="id0:glyph0-3">
<path style="stroke:none;" d="M -28.375 31.234375 L -61.265625 31.234375 L -59.953125 23.09375 L -31.453125 23.09375 C -31.972656 22.144531 -32.359375 21.117188 -32.609375 20.015625 C -32.867188 18.921875 -33 17.96875 -33 17.15625 C -33 13.632812 -31.878906 10.738281 -29.640625 8.46875 C -27.410156 6.195312 -24.164062 5.0625 -19.90625 5.0625 C -15.800781 5.0625 -12.613281 6.25 -10.34375 8.625 C -8.070312 11.007812 -6.9375 14.035156 -6.9375 17.703125 C -6.9375 19.765625 -7.410156 21.726562 -8.359375 23.59375 C -9.316406 25.46875 -10.632812 26.988281 -12.3125 28.15625 C -14.070312 29.332031 -16.144531 30.140625 -18.53125 30.578125 C -20.914062 31.015625 -24.195312 31.234375 -28.375 31.234375 Z M -13.421875 16.828125 C -13.421875 14.703125 -14.003906 13 -15.171875 11.71875 C -16.347656 10.4375 -17.960938 9.796875 -20.015625 9.796875 C -21.847656 9.796875 -23.40625 10.328125 -24.6875 11.390625 C -25.976562 12.453125 -26.625 14.265625 -26.625 16.828125 C -26.625 19.171875 -26 20.894531 -24.75 22 C -23.5 23.101562 -21.992188 23.65625 -20.234375 23.65625 C -18.109375 23.65625 -16.441406 23.046875 -15.234375 21.828125 C -14.023438 20.617188 -13.421875 18.953125 -13.421875 16.828125 Z M -36.1875 52.03125 C -43.957031 52.03125 -50.191406 51.128906 -54.890625 49.328125 C -59.585938 47.535156 -63.179688 44.96875 -65.671875 41.625 C -68.160156 38.289062 -70.101562 34.28125 -71.5 29.59375 L -66.875 28.265625 C -65.5625 31.566406 -63.820312 34.296875 -61.65625 36.453125 C -59.488281 38.617188 -56.40625 40.234375 -52.40625 41.296875 C -48.414062 42.367188 -43.007812 42.90625 -36.1875 42.90625 C -29.363281 42.90625 -23.9375 42.367188 -19.90625 41.296875 C -15.875 40.234375 -12.757812 38.617188 -10.5625 36.453125 C -8.363281 34.296875 -6.640625 31.566406 -5.390625 28.265625 L -0.765625 29.59375 C -2.085938 34.28125 -4.015625 38.289062 -6.546875 41.625 C -9.078125 44.96875 -12.6875 47.535156 -17.375 49.328125 C -22.070312 51.128906 -28.34375 52.03125 -36.1875 52.03125 Z M -36.1875 52.03125 "/>
</symbol>
</g>
<g>
<symbol overflow="visible" id="id1:glyph0-0">
<path style="stroke:none;" d="M 5.375 -96.6875 L 69.828125 -96.6875 L 69.828125 0 L 5.375 0 Z M 8.0625 -2.6875 L 67.140625 -2.6875 L 67.140625 -94 L 8.0625 -94 Z M 8.0625 -2.6875 "/>
</symbol>
<symbol overflow="visible" id="id1:glyph0-1">
<path style="stroke:none;" d="M 68.15625 -13.75 L 66.28125 -18.640625 L 88.09375 -27.390625 L 6.984375 -27.390625 L 6.984375 -34 L 88.09375 -34 L 66.28125 -42.75 L 68.15625 -47.640625 L 99.09375 -34.265625 L 99.09375 -27.125 Z M 68.15625 -13.75 "/>
</symbol>
</g>
<g>
<symbol overflow="visible" id="id2:glyph0-0">
<path style="stroke:none;" d="M 10.34375 0 L 10.34375 -78.546875 L 55.546875 -78.546875 L 55.546875 0 Z M 15.953125 -5.609375 L 49.9375 -5.609375 L 49.9375 -72.9375 L 15.953125 -72.9375 Z M 15.953125 -5.609375 "/>
</symbol>
<symbol overflow="visible" id="id2:glyph0-1">
<path style="stroke:none;" d="M 34.984375 -39.484375 C 34.984375 -37.359375 33.921875 -36.296875 31.796875 -36.296875 C 29.660156 -36.296875 28.59375 -37.359375 28.59375 -39.484375 C 28.59375 -41.535156 29.660156 -42.5625 31.796875 -42.5625 C 33.921875 -42.5625 34.984375 -41.535156 34.984375 -39.484375 Z M 21.234375 -33.984375 C 21.234375 -31.859375 20.207031 -30.796875 18.15625 -30.796875 C 16.019531 -30.796875 14.953125 -31.859375 14.953125 -33.984375 C 14.953125 -36.117188 16.019531 -37.1875 18.15625 -37.1875 C 20.207031 -37.1875 21.234375 -36.117188 21.234375 -33.984375 Z M 48.625 -33.984375 C 48.625 -31.859375 47.597656 -30.796875 45.546875 -30.796875 C 43.410156 -30.796875 42.34375 -31.859375 42.34375 -33.984375 C 42.34375 -36.117188 43.410156 -37.1875 45.546875 -37.1875 C 47.597656 -37.1875 48.625 -36.117188 48.625 -33.984375 Z M 53.5625 -20.796875 C 53.5625 -18.734375 52.5 -17.703125 50.375 -17.703125 C 48.25 -17.703125 47.1875 -18.734375 47.1875 -20.796875 C 47.1875 -22.921875 48.25 -23.984375 50.375 -23.984375 C 52.5 -23.984375 53.5625 -22.921875 53.5625 -20.796875 Z M 16.28125 -20.796875 C 16.28125 -18.734375 15.253906 -17.703125 13.203125 -17.703125 C 11.078125 -17.703125 10.015625 -18.734375 10.015625 -20.796875 C 10.015625 -22.921875 11.078125 -23.984375 13.203125 -23.984375 C 15.253906 -23.984375 16.28125 -22.921875 16.28125 -20.796875 Z M 21.234375 -7.703125 C 21.234375 -5.578125 20.207031 -4.515625 18.15625 -4.515625 C 16.019531 -4.515625 14.953125 -5.578125 14.953125 -7.703125 C 14.953125 -9.828125 16.019531 -10.890625 18.15625 -10.890625 C 20.207031 -10.890625 21.234375 -9.828125 21.234375 -7.703125 Z M 48.625 -7.703125 C 48.625 -5.578125 47.597656 -4.515625 45.546875 -4.515625 C 43.410156 -4.515625 42.34375 -5.578125 42.34375 -7.703125 C 42.34375 -9.828125 43.410156 -10.890625 45.546875 -10.890625 C 47.597656 -10.890625 48.625 -9.828125 48.625 -7.703125 Z M 34.984375 -2.203125 C 34.984375 -0.078125 33.921875 0.984375 31.796875 0.984375 C 29.660156 0.984375 28.59375 -0.078125 28.59375 -2.203125 C 28.59375 -4.328125 29.660156 -5.390625 31.796875 -5.390625 C 33.921875 -5.390625 34.984375 -4.328125 34.984375 -2.203125 Z M 34.984375 -2.203125 "/>
</symbol>
<symbol overflow="visible" id="id2:glyph0-2">
<path style="stroke:none;" d="M -17.046875 42.34375 C -19.546875 42.34375 -21.800781 41.789062 -23.8125 40.6875 C -25.832031 39.59375 -27.796875 38.128906 -29.703125 36.296875 C -31.316406 38.203125 -33.257812 39.6875 -35.53125 40.75 C -37.800781 41.8125 -40.367188 42.34375 -43.234375 42.34375 C -47.335938 42.34375 -50.34375 41.441406 -52.25 39.640625 C -54.15625 37.847656 -55.109375 35.5625 -55.109375 32.78125 C -55.109375 30.4375 -54.300781 28.472656 -52.6875 26.890625 C -51.070312 25.316406 -48.429688 24.53125 -44.765625 24.53125 C -42.273438 24.53125 -39.984375 24.929688 -37.890625 25.734375 C -35.804688 26.546875 -33.625 27.648438 -31.34375 29.046875 C -30.320312 27.285156 -29.8125 25.117188 -29.8125 22.546875 C -29.8125 18.003906 -31.609375 14.816406 -35.203125 12.984375 C -34.910156 13.710938 -34.765625 14.664062 -34.765625 15.84375 C -34.765625 18.914062 -35.644531 21.078125 -37.40625 22.328125 C -39.164062 23.578125 -41.4375 24.203125 -44.21875 24.203125 C -47.15625 24.203125 -49.484375 23.445312 -51.203125 21.9375 C -52.929688 20.4375 -53.796875 18.367188 -53.796875 15.734375 C -53.796875 12.941406 -52.765625 10.738281 -50.703125 9.125 C -48.648438 7.507812 -45.828125 6.703125 -42.234375 6.703125 C -37.035156 6.703125 -32.894531 8.148438 -29.8125 11.046875 C -26.726562 13.953125 -25.1875 18.003906 -25.1875 23.203125 C -25.1875 26.210938 -25.738281 29.039062 -26.84375 31.6875 C -24.050781 32.925781 -20.96875 33.546875 -17.59375 33.546875 C -14.375 33.546875 -12.007812 32.796875 -10.5 31.296875 C -9 29.796875 -8.25 27.867188 -8.25 25.515625 C -8.25 22.066406 -9.476562 19.222656 -11.9375 16.984375 C -14.394531 14.753906 -18.265625 13.421875 -23.546875 12.984375 L -23.09375 6.375 C -17.007812 6.894531 -12.28125 8.988281 -8.90625 12.65625 C -5.53125 16.320312 -3.84375 20.941406 -3.84375 26.515625 C -3.84375 31.128906 -4.851562 34.921875 -6.875 37.890625 C -8.894531 40.859375 -12.285156 42.34375 -17.046875 42.34375 Z M -48.625 15.953125 C -48.625 17.347656 -48.179688 18.410156 -47.296875 19.140625 C -46.421875 19.867188 -45.394531 20.234375 -44.21875 20.234375 C -43.039062 20.234375 -41.957031 19.921875 -40.96875 19.296875 C -39.976562 18.679688 -39.484375 17.566406 -39.484375 15.953125 C -39.484375 14.484375 -39.921875 13.414062 -40.796875 12.75 C -41.679688 12.09375 -42.710938 11.765625 -43.890625 11.765625 C -45.285156 11.765625 -46.421875 12.128906 -47.296875 12.859375 C -48.179688 13.597656 -48.625 14.628906 -48.625 15.953125 Z M -49.9375 31.234375 C -49.9375 32.410156 -49.367188 33.253906 -48.234375 33.765625 C -47.097656 34.285156 -45.503906 34.546875 -43.453125 34.546875 C -39.710938 34.546875 -36.742188 33.8125 -34.546875 32.34375 C -36.523438 31.019531 -38.316406 30.046875 -39.921875 29.421875 C -41.535156 28.796875 -43.257812 28.484375 -45.09375 28.484375 C -46.488281 28.484375 -47.644531 28.6875 -48.5625 29.09375 C -49.476562 29.5 -49.9375 30.210938 -49.9375 31.234375 Z M -34.203125 50.9375 L -31.796875 39.703125 L -27.5 39.703125 L -25.078125 50.9375 Z M -34.203125 50.9375 "/>
</symbol>
<symbol overflow="visible" id="id2:glyph0-3">
<path style="stroke:none;" d="M 6.8125 51.484375 L -31.453125 51.484375 L -30.140625 43.234375 L 3.734375 43.234375 C 3.222656 42.273438 2.835938 41.242188 2.578125 40.140625 C 2.328125 39.046875 2.203125 38.097656 2.203125 37.296875 C 2.203125 33.773438 3.316406 30.875 5.546875 28.59375 C 7.785156 26.320312 11.035156 25.1875 15.296875 25.1875 C 19.398438 25.1875 22.585938 26.378906 24.859375 28.765625 C 27.128906 31.148438 28.265625 34.175781 28.265625 37.84375 C 28.265625 39.894531 27.785156 41.851562 26.828125 43.71875 C 25.878906 45.59375 24.5625 47.117188 22.875 48.296875 C 21.113281 49.460938 19.039062 50.285156 16.65625 50.765625 C 14.28125 51.242188 11 51.484375 6.8125 51.484375 Z M 21.78125 36.953125 C 21.78125 34.828125 21.191406 33.125 20.015625 31.84375 C 18.847656 30.5625 17.238281 29.921875 15.1875 29.921875 C 13.351562 29.921875 11.789062 30.453125 10.5 31.515625 C 9.21875 32.578125 8.578125 34.390625 8.578125 36.953125 C 8.578125 39.304688 9.195312 41.03125 10.4375 42.125 C 11.6875 43.226562 13.191406 43.78125 14.953125 43.78125 C 17.085938 43.78125 18.757812 43.175781 19.96875 41.96875 C 21.175781 40.757812 21.78125 39.085938 21.78125 36.953125 Z M 21.78125 36.953125 "/>
</symbol>
<symbol overflow="visible" id="id2:glyph0-4">
<path style="stroke:none;" d="M 37.0625 -21.34375 C 37.0625 -11.289062 35.648438 -2.210938 32.828125 5.890625 C 30.003906 13.992188 26.171875 21.378906 21.328125 28.046875 C 16.492188 34.722656 11 40.957031 4.84375 46.75 L -0.328125 40.921875 C 5.972656 36.078125 11.546875 30.425781 16.390625 23.96875 C 21.234375 17.519531 25.03125 10.460938 27.78125 2.796875 C 30.53125 -4.859375 31.90625 -12.867188 31.90625 -21.234375 C 31.90625 -27.316406 31.390625 -32.207031 30.359375 -35.90625 C 29.328125 -39.613281 27.785156 -42.675781 25.734375 -45.09375 C 25.953125 -44.507812 26.097656 -43.941406 26.171875 -43.390625 C 26.253906 -42.835938 26.296875 -42.378906 26.296875 -42.015625 C 26.296875 -38.203125 25.210938 -35.285156 23.046875 -33.265625 C 20.878906 -31.253906 18 -30.25 14.40625 -30.25 C 10.15625 -30.25 6.835938 -31.40625 4.453125 -33.71875 C 2.066406 -36.03125 0.875 -38.941406 0.875 -42.453125 C 0.875 -45.828125 2.140625 -48.757812 4.671875 -51.25 C 7.203125 -53.75 10.707031 -55 15.1875 -55 C 17.75 -55 20.3125 -54.46875 22.875 -53.40625 C 25.445312 -52.34375 27.796875 -50.5625 29.921875 -48.0625 C 32.046875 -45.570312 33.765625 -42.144531 35.078125 -37.78125 C 36.398438 -33.414062 37.0625 -27.9375 37.0625 -21.34375 Z M 14.40625 -48.84375 C 12.425781 -48.84375 10.8125 -48.21875 9.5625 -46.96875 C 8.320312 -45.71875 7.703125 -44.03125 7.703125 -41.90625 C 7.703125 -39.78125 8.304688 -38.09375 9.515625 -36.84375 C 10.722656 -35.601562 12.242188 -34.984375 14.078125 -34.984375 C 15.984375 -34.984375 17.597656 -35.515625 18.921875 -36.578125 C 20.242188 -37.640625 20.90625 -39.414062 20.90625 -41.90625 C 20.90625 -44.257812 20.242188 -46.003906 18.921875 -47.140625 C 17.597656 -48.273438 16.09375 -48.84375 14.40625 -48.84375 Z M 14.40625 -48.84375 "/>
</symbol>
</g>
</defs>
  <g id="id0:id0" transform="matrix(1.25,0,0,1.25,0.0,5.25390625)"><g id="id0:surface1">
<g style="fill:rgb(0%,0%,0%);fill-opacity:1;">
  <use xlink:href="#id0:glyph0-1" x="16" y="97.59375"/>
  <use xlink:href="#id0:glyph0-2" x="79.578125" y="97.59375"/>
  <use xlink:href="#id0:glyph0-3" x="79.578125" y="97.59375"/>
</g>
</g>
</g>
  <g id="id1:id1" transform="matrix(1.25,0,0,1.25,119.47265625,0.0)"><g id="id1:surface1">
<g style="fill:rgb(0%,0%,0%);fill-opacity:1;">
  <use xlink:href="#id1:glyph0-1" x="0" y="120.84375"/>
</g>
</g>
</g>
  <g id="id2:id2" transform="matrix(1.25,0,0,1.25,252.0703125,5.25390625)"><g id="id2:surface1">
<g style="fill:rgb(0%,0%,0%);fill-opacity:1;">
  <use xlink:href="#id2:glyph0-1" x="16" y="97.59375"/>
  <use xlink:href="#id2:glyph0-2" x="79.578125" y="97.59375"/>
  <use xlink:href="#id2:glyph0-3" x="79.578125" y="97.59375"/>
  <use xlink:href="#id2:glyph0-4" x="107.84375" y="97.59375"/>
</g>
</g>
</g>
</svg>
