<!DOCTYPE svg PUBLIC "-//W3C//DTD SVG 1.1//EN" "http://www.w3.org/Graphics/SVG/1.1/DTD/svg11.dtd">
<!-- Created with svg_stack (http://github.com/astraw/svg_stack) --><svg xmlns="http://www.w3.org/2000/svg" xmlns:sodipodi="http://sodipodi.sourceforge.net/DTD/sodipodi-0.dtd" xmlns:xlink="http://www.w3.org/1999/xlink" version="1.1" width="424.19921875" height="201.40625" id="telugu-abvs">
  <defs><g>
<symbol overflow="visible" id="telugu-abvs:id0:glyph0-0">
<path style="stroke:none;" d="M 10.34375 0 L 10.34375 -78.546875 L 55.546875 -78.546875 L 55.546875 0 Z M 15.953125 -5.609375 L 49.9375 -5.609375 L 49.9375 -72.9375 L 15.953125 -72.9375 Z M 15.953125 -5.609375 "/>
</symbol>
<symbol overflow="visible" id="telugu-abvs:id0:glyph0-1">
<path style="stroke:none;" d="M 56.984375 1.3125 C 53.242188 1.3125 49.867188 0.726562 46.859375 -0.4375 C 43.847656 -1.613281 40.660156 -3.335938 37.296875 -5.609375 C 34.941406 -3.410156 32.222656 -1.707031 29.140625 -0.5 C 26.066406 0.707031 22.769531 1.3125 19.25 1.3125 C 15.21875 1.3125 12.046875 0.707031 9.734375 -0.5 C 7.421875 -1.707031 5.75 -3.265625 4.71875 -5.171875 C 3.695312 -7.078125 3.1875 -9.054688 3.1875 -11.109375 C 3.1875 -14.484375 4.488281 -17.304688 7.09375 -19.578125 C 9.695312 -21.847656 13.382812 -22.984375 18.15625 -22.984375 C 21.082031 -22.984375 23.9375 -22.429688 26.71875 -21.328125 C 29.507812 -20.234375 32.484375 -18.660156 35.640625 -16.609375 C 36.816406 -19.472656 37.40625 -22.882812 37.40625 -26.84375 C 37.40625 -29.769531 37.128906 -32.515625 36.578125 -35.078125 C 36.023438 -37.648438 34.976562 -39.960938 33.4375 -42.015625 C 33.582031 -41.285156 33.65625 -40.515625 33.65625 -39.703125 C 33.65625 -35.671875 32.316406 -32.425781 29.640625 -29.96875 C 26.960938 -27.519531 23.390625 -26.296875 18.921875 -26.296875 C 16.273438 -26.296875 13.816406 -26.84375 11.546875 -27.9375 C 9.273438 -29.039062 7.441406 -30.65625 6.046875 -32.78125 C 4.648438 -34.90625 3.953125 -37.472656 3.953125 -40.484375 C 3.953125 -44.515625 5.472656 -47.941406 8.515625 -50.765625 C 11.566406 -53.585938 15.734375 -55 21.015625 -55 C 25.773438 -55 29.769531 -54.117188 33 -52.359375 C 36.226562 -50.597656 38.8125 -48.320312 40.75 -45.53125 C 42.695312 -42.75 44.109375 -39.742188 44.984375 -36.515625 C 45.867188 -33.296875 46.3125 -30.253906 46.3125 -27.390625 C 46.3125 -24.523438 45.976562 -21.8125 45.3125 -19.25 C 44.65625 -16.6875 43.703125 -14.300781 42.453125 -12.09375 C 44.804688 -10.5625 47.097656 -9.390625 49.328125 -8.578125 C 51.566406 -7.773438 54.191406 -7.375 57.203125 -7.375 C 61.523438 -7.375 64.75 -8.546875 66.875 -10.890625 C 69 -13.234375 70.0625 -16.644531 70.0625 -21.125 C 70.0625 -25.375 69.21875 -29.09375 67.53125 -32.28125 C 65.851562 -35.46875 63.546875 -38.234375 60.609375 -40.578125 C 57.671875 -42.929688 54.367188 -44.914062 50.703125 -46.53125 L 54.890625 -55 C 59.429688 -53.09375 63.535156 -50.523438 67.203125 -47.296875 C 70.867188 -44.066406 73.785156 -40.304688 75.953125 -36.015625 C 78.117188 -31.734375 79.203125 -26.988281 79.203125 -21.78125 C 79.203125 -14.519531 77.179688 -8.851562 73.140625 -4.78125 C 69.109375 -0.71875 63.722656 1.3125 56.984375 1.3125 Z M 12.3125 -40.59375 C 12.3125 -38.613281 12.878906 -37 14.015625 -35.75 C 15.160156 -34.5 16.867188 -33.875 19.140625 -33.875 C 21.335938 -33.875 23.148438 -34.40625 24.578125 -35.46875 C 26.015625 -36.53125 26.734375 -38.3125 26.734375 -40.8125 C 26.734375 -43.007812 26.179688 -45.0625 25.078125 -46.96875 C 23.679688 -47.332031 22.21875 -47.515625 20.6875 -47.515625 C 17.96875 -47.515625 15.890625 -46.851562 14.453125 -45.53125 C 13.023438 -44.21875 12.3125 -42.570312 12.3125 -40.59375 Z M 11.546875 -11.21875 C 11.546875 -9.96875 12.171875 -8.941406 13.421875 -8.140625 C 14.671875 -7.335938 16.648438 -6.9375 19.359375 -6.9375 C 23.984375 -6.9375 27.757812 -8.035156 30.6875 -10.234375 C 28.488281 -11.847656 26.398438 -13.078125 24.421875 -13.921875 C 22.441406 -14.765625 20.316406 -15.1875 18.046875 -15.1875 C 15.691406 -15.1875 14.019531 -14.78125 13.03125 -13.96875 C 12.039062 -13.164062 11.546875 -12.25 11.546875 -11.21875 Z M 32.78125 13.75 L 33.546875 -1.765625 L 41.796875 -1.765625 L 42.6875 13.75 Z M 32.78125 13.75 "/>
</symbol>
<symbol overflow="visible" id="telugu-abvs:id0:glyph0-2">
<path style="stroke:none;" d="M -30.578125 -47.515625 C -33.222656 -47.515625 -35.71875 -47.789062 -38.0625 -48.34375 C -40.40625 -48.894531 -42.640625 -49.570312 -44.765625 -50.375 L -41.796875 -57.421875 C -40.328125 -56.835938 -38.710938 -56.304688 -36.953125 -55.828125 C -35.191406 -55.347656 -33.210938 -55.109375 -31.015625 -55.109375 C -27.867188 -55.109375 -25.191406 -55.726562 -22.984375 -56.96875 C -20.785156 -58.21875 -19.6875 -60.75 -19.6875 -64.5625 L -19.6875 -64.6875 C -21.007812 -63.582031 -22.640625 -62.609375 -24.578125 -61.765625 C -26.523438 -60.921875 -28.929688 -60.5 -31.796875 -60.5 C -36.191406 -60.5 -39.617188 -61.320312 -42.078125 -62.96875 C -44.535156 -64.625 -45.765625 -67.210938 -45.765625 -70.734375 C -45.765625 -73.953125 -44.476562 -76.628906 -41.90625 -78.765625 C -42.425781 -80.222656 -42.6875 -81.722656 -42.6875 -83.265625 C -42.6875 -87.148438 -41.253906 -90.175781 -38.390625 -92.34375 C -35.523438 -94.507812 -31.785156 -95.59375 -27.171875 -95.59375 C -22.691406 -95.59375 -19.1875 -94.710938 -16.65625 -92.953125 C -14.132812 -91.191406 -12.210938 -88.695312 -10.890625 -85.46875 L -19.25 -83.265625 C -20.5 -86.710938 -23.140625 -88.4375 -27.171875 -88.4375 C -29.441406 -88.4375 -31.289062 -87.941406 -32.71875 -86.953125 C -34.15625 -85.960938 -34.875 -84.476562 -34.875 -82.5 C -34.875 -82.207031 -34.875 -81.988281 -34.875 -81.84375 C -33.476562 -82.0625 -32.046875 -82.171875 -30.578125 -82.171875 C -24.273438 -82.171875 -19.582031 -80.460938 -16.5 -77.046875 C -13.414062 -73.640625 -11.875 -69.332031 -11.875 -64.125 C -11.875 -58.84375 -13.46875 -54.753906 -16.65625 -51.859375 C -19.851562 -48.960938 -24.492188 -47.515625 -30.578125 -47.515625 Z M -37.953125 -71.28125 C -37.953125 -69.664062 -37.289062 -68.523438 -35.96875 -67.859375 C -34.644531 -67.203125 -33.101562 -66.875 -31.34375 -66.875 C -29.289062 -66.875 -27.515625 -67.296875 -26.015625 -68.140625 C -24.515625 -68.984375 -23.101562 -70.066406 -21.78125 -71.390625 C -22.800781 -72.640625 -24.117188 -73.628906 -25.734375 -74.359375 C -27.347656 -75.085938 -29.179688 -75.453125 -31.234375 -75.453125 C -33.066406 -75.453125 -34.644531 -75.125 -35.96875 -74.46875 C -37.289062 -73.8125 -37.953125 -72.75 -37.953125 -71.28125 Z M -37.953125 -71.28125 "/>
</symbol>
</g>
<g>
<symbol overflow="visible" id="telugu-abvs:id1:glyph0-0">
<path style="stroke:none;" d="M 5.375 -96.6875 L 69.828125 -96.6875 L 69.828125 0 L 5.375 0 Z M 8.0625 -2.6875 L 67.140625 -2.6875 L 67.140625 -94 L 8.0625 -94 Z M 8.0625 -2.6875 "/>
</symbol>
<symbol overflow="visible" id="telugu-abvs:id1:glyph0-1">
<path style="stroke:none;" d="M 68.15625 -13.75 L 66.28125 -18.640625 L 88.09375 -27.390625 L 6.984375 -27.390625 L 6.984375 -34 L 88.09375 -34 L 66.28125 -42.75 L 68.15625 -47.640625 L 99.09375 -34.265625 L 99.09375 -27.125 Z M 68.15625 -13.75 "/>
</symbol>
</g>
<g>
<symbol overflow="visible" id="telugu-abvs:id2:glyph0-0">
<path style="stroke:none;" d="M 10.34375 0 L 10.34375 -78.546875 L 55.546875 -78.546875 L 55.546875 0 Z M 15.953125 -5.609375 L 49.9375 -5.609375 L 49.9375 -72.9375 L 15.953125 -72.9375 Z M 15.953125 -5.609375 "/>
</symbol>
<symbol overflow="visible" id="telugu-abvs:id2:glyph0-1">
<path style="stroke:none;" d="M 56.546875 1.3125 C 52.953125 1.3125 49.6875 0.726562 46.75 -0.4375 C 43.8125 -1.613281 40.660156 -3.335938 37.296875 -5.609375 C 34.941406 -3.410156 32.222656 -1.707031 29.140625 -0.5 C 26.066406 0.707031 22.769531 1.3125 19.25 1.3125 C 15.21875 1.3125 12.046875 0.707031 9.734375 -0.5 C 7.421875 -1.707031 5.75 -3.265625 4.71875 -5.171875 C 3.695312 -7.078125 3.1875 -9.054688 3.1875 -11.109375 C 3.1875 -14.484375 4.488281 -17.304688 7.09375 -19.578125 C 9.695312 -21.847656 13.382812 -22.984375 18.15625 -22.984375 C 21.082031 -22.984375 23.9375 -22.429688 26.71875 -21.328125 C 29.507812 -20.234375 32.484375 -18.660156 35.640625 -16.609375 C 36.816406 -19.472656 37.40625 -22.882812 37.40625 -26.84375 C 37.40625 -29.769531 37.128906 -32.515625 36.578125 -35.078125 C 36.023438 -37.648438 34.976562 -39.960938 33.4375 -42.015625 C 33.582031 -41.285156 33.65625 -40.515625 33.65625 -39.703125 C 33.65625 -35.671875 32.316406 -32.425781 29.640625 -29.96875 C 26.960938 -27.519531 23.390625 -26.296875 18.921875 -26.296875 C 16.273438 -26.296875 13.816406 -26.84375 11.546875 -27.9375 C 9.273438 -29.039062 7.441406 -30.65625 6.046875 -32.78125 C 4.648438 -34.90625 3.953125 -37.472656 3.953125 -40.484375 C 3.953125 -44.515625 5.472656 -47.941406 8.515625 -50.765625 C 11.566406 -53.585938 15.734375 -55 21.015625 -55 C 22.179688 -55 23.316406 -54.925781 24.421875 -54.78125 C 23.460938 -56.03125 22.765625 -57.367188 22.328125 -58.796875 C 21.890625 -60.222656 21.671875 -61.597656 21.671875 -62.921875 C 21.671875 -67.460938 23.300781 -70.960938 26.5625 -73.421875 C 29.820312 -75.878906 34.019531 -77.109375 39.15625 -77.109375 C 45.539062 -77.109375 51.351562 -75.710938 56.59375 -72.921875 C 61.832031 -70.140625 66.378906 -66.328125 70.234375 -61.484375 C 74.085938 -56.648438 77.054688 -51.171875 79.140625 -45.046875 C 81.234375 -38.921875 82.28125 -32.484375 82.28125 -25.734375 C 82.28125 -18.921875 81.050781 -13.53125 78.59375 -9.5625 C 76.132812 -5.601562 72.960938 -2.800781 69.078125 -1.15625 C 65.191406 0.488281 61.015625 1.3125 56.546875 1.3125 Z M 29.8125 -63.359375 C 29.8125 -61.523438 30.320312 -60.054688 31.34375 -58.953125 C 32.375 -57.859375 33.953125 -57.3125 36.078125 -57.3125 C 38.054688 -57.3125 39.6875 -57.820312 40.96875 -58.84375 C 42.257812 -59.875 42.90625 -61.671875 42.90625 -64.234375 C 42.90625 -65.921875 42.535156 -67.570312 41.796875 -69.1875 C 40.628906 -69.40625 39.457031 -69.515625 38.28125 -69.515625 C 35.5625 -69.515625 33.46875 -68.925781 32 -67.75 C 30.539062 -66.582031 29.8125 -65.117188 29.8125 -63.359375 Z M 46.3125 -27.390625 C 46.3125 -24.523438 45.976562 -21.8125 45.3125 -19.25 C 44.65625 -16.6875 43.703125 -14.300781 42.453125 -12.09375 C 44.734375 -10.5625 47.023438 -9.390625 49.328125 -8.578125 C 51.640625 -7.773438 54.265625 -7.375 57.203125 -7.375 C 59.765625 -7.375 62.253906 -7.8125 64.671875 -8.6875 C 67.097656 -9.570312 69.117188 -11.332031 70.734375 -13.96875 C 72.347656 -16.613281 73.15625 -20.535156 73.15625 -25.734375 C 73.15625 -31.535156 72.21875 -37.128906 70.34375 -42.515625 C 68.476562 -47.898438 65.820312 -52.71875 62.375 -56.96875 C 58.925781 -61.226562 54.890625 -64.492188 50.265625 -66.765625 C 50.484375 -65.597656 50.59375 -64.425781 50.59375 -63.25 C 50.59375 -59.289062 49.421875 -56.082031 47.078125 -53.625 C 44.734375 -51.164062 41.320312 -49.863281 36.84375 -49.71875 C 40.289062 -46.863281 42.726562 -43.34375 44.15625 -39.15625 C 45.59375 -34.976562 46.3125 -31.054688 46.3125 -27.390625 Z M 12.3125 -40.59375 C 12.3125 -38.613281 12.878906 -37 14.015625 -35.75 C 15.160156 -34.5 16.867188 -33.875 19.140625 -33.875 C 21.335938 -33.875 23.148438 -34.40625 24.578125 -35.46875 C 26.015625 -36.53125 26.734375 -38.3125 26.734375 -40.8125 C 26.734375 -43.007812 26.179688 -45.0625 25.078125 -46.96875 C 23.679688 -47.332031 22.21875 -47.515625 20.6875 -47.515625 C 17.96875 -47.515625 15.890625 -46.851562 14.453125 -45.53125 C 13.023438 -44.21875 12.3125 -42.570312 12.3125 -40.59375 Z M 11.546875 -11.21875 C 11.546875 -9.96875 12.171875 -8.941406 13.421875 -8.140625 C 14.671875 -7.335938 16.648438 -6.9375 19.359375 -6.9375 C 23.984375 -6.9375 27.757812 -8.035156 30.6875 -10.234375 C 28.488281 -11.847656 26.398438 -13.078125 24.421875 -13.921875 C 22.441406 -14.765625 20.316406 -15.1875 18.046875 -15.1875 C 15.691406 -15.1875 14.019531 -14.78125 13.03125 -13.96875 C 12.039062 -13.164062 11.546875 -12.25 11.546875 -11.21875 Z M 32.78125 13.75 L 33.546875 -1.765625 L 41.796875 -1.765625 L 42.6875 13.75 Z M 41.578125 -93.828125 C 46.046875 -93.828125 49.546875 -92.890625 52.078125 -91.015625 C 54.609375 -89.148438 56.5 -86.566406 57.75 -83.265625 L 49.375 -81.078125 C 48.789062 -82.765625 47.894531 -84.101562 46.6875 -85.09375 C 45.476562 -86.082031 43.8125 -86.578125 41.6875 -86.578125 C 39.707031 -86.578125 37.984375 -86.0625 36.515625 -85.03125 C 35.046875 -84.007812 34.3125 -82.503906 34.3125 -80.515625 C 34.3125 -79.492188 34.660156 -78.335938 35.359375 -77.046875 C 36.054688 -75.765625 37.503906 -74.394531 39.703125 -72.9375 L 31.5625 -69.859375 C 29.582031 -71.691406 28.171875 -73.523438 27.328125 -75.359375 C 26.484375 -77.191406 26.0625 -79.207031 26.0625 -81.40625 C 26.0625 -85.289062 27.523438 -88.332031 30.453125 -90.53125 C 33.390625 -92.726562 37.097656 -93.828125 41.578125 -93.828125 Z M 41.578125 -93.828125 "/>
</symbol>
</g>
</defs>
  <g id="telugu-abvs:id0:id0" transform="matrix(1.25,0,0,1.25,0.0,5.25390625)"><g id="telugu-abvs:id0:surface1">
<g style="fill:rgb(0%,0%,0%);fill-opacity:1;">
  <use xlink:href="#telugu-abvs:id0:glyph0-1" x="16" y="97.59375" class="c0"/>
  <use xlink:href="#telugu-abvs:id0:glyph0-2" x="99.046875" y="97.59375" class="c1"/>
</g>
</g>
</g>
  <g id="telugu-abvs:id1:id1" transform="matrix(1.25,0,0,1.25,143.80859375,0.0)"><g id="telugu-abvs:id1:surface1">
<g style="fill:rgb(0%,0%,0%);fill-opacity:1;">
  <use xlink:href="#telugu-abvs:id1:glyph0-1" x="0" y="120.84375" class="arrow"/>
</g>
</g>
</g>
  <g id="telugu-abvs:id2:id2" transform="matrix(1.25,0,0,1.25,276.40625,5.25390625)"><g id="telugu-abvs:id2:surface1">
<g style="fill:rgb(0%,0%,0%);fill-opacity:1;">
  <use xlink:href="#telugu-abvs:id2:glyph0-1" x="16" y="97.59375" class="c2"/>
</g>
</g>
</g>
</svg>
