<?xml version="1.0" standalone="no"?>
<!DOCTYPE svg PUBLIC "-//W3C//DTD SVG 1.1//EN"
 "http://www.w3.org/Graphics/SVG/1.1/DTD/svg11.dtd">
<!-- Created with svg_stack (http://github.com/astraw/svg_stack) -->
<svg xmlns="http://www.w3.org/2000/svg" xmlns:sodipodi="http://sodipodi.sourceforge.net/DTD/sodipodi-0.dtd" xmlns:xlink="http://www.w3.org/1999/xlink" version="1.1" width="603.125" height="245.625">
  <defs><g>
<symbol overflow="visible" id="id0:glyph0-0">
<path style="stroke:none;" d="M 10.34375 0 L 10.34375 -78.546875 L 55.546875 -78.546875 L 55.546875 0 Z M 15.953125 -5.609375 L 49.9375 -5.609375 L 49.9375 -72.9375 L 15.953125 -72.9375 Z M 15.953125 -5.609375 "/>
</symbol>
<symbol overflow="visible" id="id0:glyph0-1">
<path style="stroke:none;" d="M 56.984375 29.046875 C 55.585938 26.765625 54.890625 23.9375 54.890625 20.5625 C 54.890625 16.457031 55.859375 12.5 57.796875 8.6875 C 59.742188 4.875 62.257812 0.953125 65.34375 -3.078125 C 68.789062 -7.703125 71.613281 -11.882812 73.8125 -15.625 C 76.007812 -19.363281 77.109375 -23.140625 77.109375 -26.953125 C 77.109375 -31.347656 75.75 -34.628906 73.03125 -36.796875 C 70.320312 -38.960938 66.035156 -40.046875 60.171875 -40.046875 L 48.953125 -40.046875 C 44.992188 -40.046875 41.910156 -39.566406 39.703125 -38.609375 C 37.503906 -37.660156 35.945312 -36.03125 35.03125 -33.71875 C 34.113281 -31.40625 33.507812 -28.195312 33.21875 -24.09375 L 32.125 -8.140625 L 24.859375 -8.140625 L 22 -48.0625 C 21.707031 -52.613281 20.972656 -56.28125 19.796875 -59.0625 C 18.628906 -61.851562 16.359375 -63.25 12.984375 -63.25 C 9.609375 -63.25 5.644531 -62.332031 1.09375 -60.5 L 1.09375 -68.53125 C 6.300781 -70.726562 11.035156 -71.828125 15.296875 -71.828125 C 19.328125 -71.828125 22.40625 -70.910156 24.53125 -69.078125 C 26.65625 -67.242188 28.15625 -64.617188 29.03125 -61.203125 C 29.914062 -57.796875 30.429688 -53.710938 30.578125 -48.953125 L 30.90625 -39.703125 L 31.34375 -39.703125 C 33.769531 -45.796875 39.601562 -48.84375 48.84375 -48.84375 L 60.28125 -48.84375 C 68.789062 -48.84375 75.148438 -46.953125 79.359375 -43.171875 C 83.578125 -39.398438 85.6875 -33.992188 85.6875 -26.953125 C 85.6875 -21.890625 84.289062 -16.921875 81.5 -12.046875 C 78.71875 -7.171875 75.238281 -2.019531 71.0625 3.40625 C 69.300781 5.675781 67.890625 7.671875 66.828125 9.390625 C 65.765625 11.117188 64.972656 12.828125 64.453125 14.515625 C 63.941406 16.203125 63.6875 18.21875 63.6875 20.5625 C 63.6875 23.570312 64.457031 26.398438 66 29.046875 Z M 56.984375 29.046875 "/>
</symbol>
<symbol overflow="visible" id="id0:glyph0-2">
<path style="stroke:none;" d="M 0 -40.046875 L 0 -48.84375 L 20.6875 -48.84375 L 20.6875 -40.046875 Z M 0 -40.046875 "/>
</symbol>
<symbol overflow="visible" id="id0:glyph0-3">
<path style="stroke:none;" d="M 32.671875 -53.5625 C 30.765625 -53.5625 29.8125 -54.554688 29.8125 -56.546875 C 29.8125 -58.453125 30.765625 -59.40625 32.671875 -59.40625 C 34.578125 -59.40625 35.53125 -58.453125 35.53125 -56.546875 C 35.53125 -54.554688 34.578125 -53.5625 32.671875 -53.5625 Z M 23.3125 -51.703125 C 21.40625 -51.703125 20.453125 -52.65625 20.453125 -54.5625 C 20.453125 -56.539062 21.40625 -57.53125 23.3125 -57.53125 C 25.300781 -57.53125 26.296875 -56.539062 26.296875 -54.5625 C 26.296875 -52.65625 25.300781 -51.703125 23.3125 -51.703125 Z M 42.125 -51.703125 C 40.070312 -51.703125 39.046875 -52.65625 39.046875 -54.5625 C 39.046875 -56.539062 40.070312 -57.53125 42.125 -57.53125 C 43.957031 -57.53125 44.875 -56.539062 44.875 -54.5625 C 44.875 -52.65625 43.957031 -51.703125 42.125 -51.703125 Z M 15.40625 -46.421875 C 13.5 -46.421875 12.546875 -47.335938 12.546875 -49.171875 C 12.546875 -51.222656 13.5 -52.25 15.40625 -52.25 C 17.382812 -52.25 18.375 -51.257812 18.375 -49.28125 C 18.375 -47.375 17.382812 -46.421875 15.40625 -46.421875 Z M 50.046875 -46.421875 C 48.066406 -46.421875 47.078125 -47.375 47.078125 -49.28125 C 47.078125 -51.257812 48.066406 -52.25 50.046875 -52.25 C 51.878906 -52.25 52.796875 -51.257812 52.796875 -49.28125 C 52.796875 -47.375 51.878906 -46.421875 50.046875 -46.421875 Z M 55.21875 -38.390625 C 53.3125 -38.390625 52.359375 -39.378906 52.359375 -41.359375 C 52.359375 -43.265625 53.347656 -44.21875 55.328125 -44.21875 C 57.234375 -44.21875 58.1875 -43.265625 58.1875 -41.359375 C 58.1875 -39.378906 57.195312 -38.390625 55.21875 -38.390625 Z M 10.234375 -38.390625 C 8.179688 -38.390625 7.15625 -39.378906 7.15625 -41.359375 C 7.15625 -43.265625 8.144531 -44.21875 10.125 -44.21875 C 12.03125 -44.21875 12.984375 -43.265625 12.984375 -41.359375 C 12.984375 -39.378906 12.066406 -38.390625 10.234375 -38.390625 Z M 8.25 -29.15625 C 6.269531 -29.15625 5.28125 -30.109375 5.28125 -32.015625 C 5.28125 -33.921875 6.269531 -34.875 8.25 -34.875 C 10.15625 -34.875 11.109375 -33.921875 11.109375 -32.015625 C 11.109375 -30.109375 10.15625 -29.15625 8.25 -29.15625 Z M 57.3125 -29.15625 C 55.332031 -29.15625 54.34375 -30.109375 54.34375 -32.015625 C 54.34375 -33.921875 55.332031 -34.875 57.3125 -34.875 C 59.144531 -34.875 60.0625 -33.921875 60.0625 -32.015625 C 60.0625 -30.109375 59.144531 -29.15625 57.3125 -29.15625 Z M 10.125 -19.796875 C 8.144531 -19.796875 7.15625 -20.75 7.15625 -22.65625 C 7.15625 -24.632812 8.144531 -25.625 10.125 -25.625 C 12.03125 -25.625 12.984375 -24.632812 12.984375 -22.65625 C 12.984375 -20.75 12.03125 -19.796875 10.125 -19.796875 Z M 55.21875 -19.796875 C 53.3125 -19.796875 52.359375 -20.75 52.359375 -22.65625 C 52.359375 -24.632812 53.3125 -25.625 55.21875 -25.625 C 57.195312 -25.625 58.1875 -24.632812 58.1875 -22.65625 C 58.1875 -20.75 57.195312 -19.796875 55.21875 -19.796875 Z M 15.40625 -11.765625 C 13.5 -11.765625 12.546875 -12.71875 12.546875 -14.625 C 12.546875 -16.601562 13.5 -17.59375 15.40625 -17.59375 C 17.382812 -17.59375 18.375 -16.601562 18.375 -14.625 C 18.375 -12.71875 17.382812 -11.765625 15.40625 -11.765625 Z M 50.046875 -11.765625 C 48.066406 -11.765625 47.078125 -12.71875 47.078125 -14.625 C 47.078125 -16.601562 48.066406 -17.59375 50.046875 -17.59375 C 51.878906 -17.59375 52.796875 -16.601562 52.796875 -14.625 C 52.796875 -12.71875 51.878906 -11.765625 50.046875 -11.765625 Z M 23.3125 -6.59375 C 21.40625 -6.59375 20.453125 -7.507812 20.453125 -9.34375 C 20.453125 -11.320312 21.40625 -12.3125 23.3125 -12.3125 C 25.300781 -12.3125 26.296875 -11.394531 26.296875 -9.5625 C 26.296875 -7.582031 25.300781 -6.59375 23.3125 -6.59375 Z M 42.125 -6.59375 C 40.070312 -6.59375 39.046875 -7.507812 39.046875 -9.34375 C 39.046875 -11.320312 40.070312 -12.3125 42.125 -12.3125 C 43.957031 -12.3125 44.875 -11.320312 44.875 -9.34375 C 44.875 -7.507812 43.957031 -6.59375 42.125 -6.59375 Z M 32.671875 -4.625 C 30.765625 -4.625 29.8125 -5.613281 29.8125 -7.59375 C 29.8125 -9.5 30.765625 -10.453125 32.671875 -10.453125 C 34.578125 -10.453125 35.53125 -9.5 35.53125 -7.59375 C 35.53125 -5.613281 34.578125 -4.625 32.671875 -4.625 Z M 32.671875 -4.625 "/>
</symbol>
</g>
<g>
<symbol overflow="visible" id="id1:glyph0-0">
<path style="stroke:none;" d="M 5.375 -96.6875 L 69.828125 -96.6875 L 69.828125 0 L 5.375 0 Z M 8.0625 -2.6875 L 67.140625 -2.6875 L 67.140625 -94 L 8.0625 -94 Z M 8.0625 -2.6875 "/>
</symbol>
<symbol overflow="visible" id="id1:glyph0-1">
<path style="stroke:none;" d="M 68.15625 -13.75 L 66.28125 -18.640625 L 88.09375 -27.390625 L 6.984375 -27.390625 L 6.984375 -34 L 88.09375 -34 L 66.28125 -42.75 L 68.15625 -47.640625 L 99.09375 -34.265625 L 99.09375 -27.125 Z M 68.15625 -13.75 "/>
</symbol>
</g>
<g>
<symbol overflow="visible" id="id2:glyph0-0">
<path style="stroke:none;" d="M 10.34375 0 L 10.34375 -78.546875 L 55.546875 -78.546875 L 55.546875 0 Z M 15.953125 -5.609375 L 49.9375 -5.609375 L 49.9375 -72.9375 L 15.953125 -72.9375 Z M 15.953125 -5.609375 "/>
</symbol>
<symbol overflow="visible" id="id2:glyph0-1">
<path style="stroke:none;" d="M 24.859375 -8.140625 L 22 -48.0625 C 21.707031 -52.757812 20.992188 -56.460938 19.859375 -59.171875 C 18.722656 -61.890625 16.429688 -63.25 12.984375 -63.25 C 9.609375 -63.25 5.644531 -62.332031 1.09375 -60.5 L 1.09375 -68.53125 C 6.300781 -70.726562 11.035156 -71.828125 15.296875 -71.828125 C 19.328125 -71.828125 22.40625 -70.910156 24.53125 -69.078125 C 26.65625 -67.242188 28.15625 -64.617188 29.03125 -61.203125 C 29.914062 -57.796875 30.429688 -53.710938 30.578125 -48.953125 L 30.90625 -39.703125 L 31.34375 -39.703125 C 33.769531 -45.796875 39.601562 -48.84375 48.84375 -48.84375 L 57.421875 -48.84375 L 57.421875 -40.046875 L 48.953125 -40.046875 C 44.992188 -40.046875 41.929688 -39.546875 39.765625 -38.546875 C 37.597656 -37.554688 36.035156 -35.90625 35.078125 -33.59375 C 34.128906 -31.289062 33.507812 -28.125 33.21875 -24.09375 L 32.125 -8.140625 Z M 24.859375 -8.140625 "/>
</symbol>
<symbol overflow="visible" id="id2:glyph0-2">
<path style="stroke:none;" d="M 0 -40.046875 L 0 -48.84375 L 20.6875 -48.84375 L 20.6875 -40.046875 Z M 0 -40.046875 "/>
</symbol>
<symbol overflow="visible" id="id2:glyph0-3">
<path style="stroke:none;" d="M 32.671875 -53.5625 C 30.765625 -53.5625 29.8125 -54.554688 29.8125 -56.546875 C 29.8125 -58.453125 30.765625 -59.40625 32.671875 -59.40625 C 34.578125 -59.40625 35.53125 -58.453125 35.53125 -56.546875 C 35.53125 -54.554688 34.578125 -53.5625 32.671875 -53.5625 Z M 23.3125 -51.703125 C 21.40625 -51.703125 20.453125 -52.65625 20.453125 -54.5625 C 20.453125 -56.539062 21.40625 -57.53125 23.3125 -57.53125 C 25.300781 -57.53125 26.296875 -56.539062 26.296875 -54.5625 C 26.296875 -52.65625 25.300781 -51.703125 23.3125 -51.703125 Z M 42.125 -51.703125 C 40.070312 -51.703125 39.046875 -52.65625 39.046875 -54.5625 C 39.046875 -56.539062 40.070312 -57.53125 42.125 -57.53125 C 43.957031 -57.53125 44.875 -56.539062 44.875 -54.5625 C 44.875 -52.65625 43.957031 -51.703125 42.125 -51.703125 Z M 15.40625 -46.421875 C 13.5 -46.421875 12.546875 -47.335938 12.546875 -49.171875 C 12.546875 -51.222656 13.5 -52.25 15.40625 -52.25 C 17.382812 -52.25 18.375 -51.257812 18.375 -49.28125 C 18.375 -47.375 17.382812 -46.421875 15.40625 -46.421875 Z M 50.046875 -46.421875 C 48.066406 -46.421875 47.078125 -47.375 47.078125 -49.28125 C 47.078125 -51.257812 48.066406 -52.25 50.046875 -52.25 C 51.878906 -52.25 52.796875 -51.257812 52.796875 -49.28125 C 52.796875 -47.375 51.878906 -46.421875 50.046875 -46.421875 Z M 55.21875 -38.390625 C 53.3125 -38.390625 52.359375 -39.378906 52.359375 -41.359375 C 52.359375 -43.265625 53.347656 -44.21875 55.328125 -44.21875 C 57.234375 -44.21875 58.1875 -43.265625 58.1875 -41.359375 C 58.1875 -39.378906 57.195312 -38.390625 55.21875 -38.390625 Z M 10.234375 -38.390625 C 8.179688 -38.390625 7.15625 -39.378906 7.15625 -41.359375 C 7.15625 -43.265625 8.144531 -44.21875 10.125 -44.21875 C 12.03125 -44.21875 12.984375 -43.265625 12.984375 -41.359375 C 12.984375 -39.378906 12.066406 -38.390625 10.234375 -38.390625 Z M 8.25 -29.15625 C 6.269531 -29.15625 5.28125 -30.109375 5.28125 -32.015625 C 5.28125 -33.921875 6.269531 -34.875 8.25 -34.875 C 10.15625 -34.875 11.109375 -33.921875 11.109375 -32.015625 C 11.109375 -30.109375 10.15625 -29.15625 8.25 -29.15625 Z M 57.3125 -29.15625 C 55.332031 -29.15625 54.34375 -30.109375 54.34375 -32.015625 C 54.34375 -33.921875 55.332031 -34.875 57.3125 -34.875 C 59.144531 -34.875 60.0625 -33.921875 60.0625 -32.015625 C 60.0625 -30.109375 59.144531 -29.15625 57.3125 -29.15625 Z M 10.125 -19.796875 C 8.144531 -19.796875 7.15625 -20.75 7.15625 -22.65625 C 7.15625 -24.632812 8.144531 -25.625 10.125 -25.625 C 12.03125 -25.625 12.984375 -24.632812 12.984375 -22.65625 C 12.984375 -20.75 12.03125 -19.796875 10.125 -19.796875 Z M 55.21875 -19.796875 C 53.3125 -19.796875 52.359375 -20.75 52.359375 -22.65625 C 52.359375 -24.632812 53.3125 -25.625 55.21875 -25.625 C 57.195312 -25.625 58.1875 -24.632812 58.1875 -22.65625 C 58.1875 -20.75 57.195312 -19.796875 55.21875 -19.796875 Z M 15.40625 -11.765625 C 13.5 -11.765625 12.546875 -12.71875 12.546875 -14.625 C 12.546875 -16.601562 13.5 -17.59375 15.40625 -17.59375 C 17.382812 -17.59375 18.375 -16.601562 18.375 -14.625 C 18.375 -12.71875 17.382812 -11.765625 15.40625 -11.765625 Z M 50.046875 -11.765625 C 48.066406 -11.765625 47.078125 -12.71875 47.078125 -14.625 C 47.078125 -16.601562 48.066406 -17.59375 50.046875 -17.59375 C 51.878906 -17.59375 52.796875 -16.601562 52.796875 -14.625 C 52.796875 -12.71875 51.878906 -11.765625 50.046875 -11.765625 Z M 23.3125 -6.59375 C 21.40625 -6.59375 20.453125 -7.507812 20.453125 -9.34375 C 20.453125 -11.320312 21.40625 -12.3125 23.3125 -12.3125 C 25.300781 -12.3125 26.296875 -11.394531 26.296875 -9.5625 C 26.296875 -7.582031 25.300781 -6.59375 23.3125 -6.59375 Z M 42.125 -6.59375 C 40.070312 -6.59375 39.046875 -7.507812 39.046875 -9.34375 C 39.046875 -11.320312 40.070312 -12.3125 42.125 -12.3125 C 43.957031 -12.3125 44.875 -11.320312 44.875 -9.34375 C 44.875 -7.507812 43.957031 -6.59375 42.125 -6.59375 Z M 32.671875 -4.625 C 30.765625 -4.625 29.8125 -5.613281 29.8125 -7.59375 C 29.8125 -9.5 30.765625 -10.453125 32.671875 -10.453125 C 34.578125 -10.453125 35.53125 -9.5 35.53125 -7.59375 C 35.53125 -5.613281 34.578125 -4.625 32.671875 -4.625 Z M 32.671875 -4.625 "/>
</symbol>
</g>
</defs>
  <g id="id0:id0" transform="matrix(1.25,0,0,1.25,0.0,0.0)"><g id="id0:surface1">
<g style="fill:rgb(0%,0%,0%);fill-opacity:1;">
  <use xlink:href="#id0:glyph0-1" x="16" y="162.265625"/>
  <use xlink:href="#id0:glyph0-2" x="106.640625" y="162.265625"/>
  <use xlink:href="#id0:glyph0-3" x="125.125" y="162.265625"/>
</g>
</g>
</g>
  <g id="id1:id1" transform="matrix(1.25,0,0,1.25,258.0859375,22.109375)"><g id="id1:surface1">
<g style="fill:rgb(0%,0%,0%);fill-opacity:1;">
  <use xlink:href="#id1:glyph0-1" x="0" y="120.84375"/>
</g>
</g>
</g>
  <g id="id2:id2" transform="matrix(1.25,0,0,1.25,390.68359375,0.0)"><g id="id2:surface1">
<g style="fill:rgb(0%,0%,0%);fill-opacity:1;">
  <use xlink:href="#id2:glyph0-1" x="16" y="162.265625"/>
  <use xlink:href="#id2:glyph0-2" x="70.125" y="162.265625"/>
  <use xlink:href="#id2:glyph0-3" x="88.609375" y="162.265625"/>
</g>
</g>
</g>
</svg>
