<!DOCTYPE svg PUBLIC "-//W3C//DTD SVG 1.1//EN" "http://www.w3.org/Graphics/SVG/1.1/DTD/svg11.dtd">
<!-- Created with svg_stack (http://github.com/astraw/svg_stack) --><svg xmlns="http://www.w3.org/2000/svg" xmlns:sodipodi="http://sodipodi.sourceforge.net/DTD/sodipodi-0.dtd" xmlns:xlink="http://www.w3.org/1999/xlink" version="1.1" width="100%" id="mongolian-fina" viewBox="0 0 620.29296875 245.625">
  <defs><g>
<symbol overflow="visible" id="mongolian-fina:id0:glyph0-0">
<path style="stroke:none;" d="M 10.34375 0 L 10.34375 -78.546875 L 55.546875 -78.546875 L 55.546875 0 Z M 15.953125 -5.609375 L 49.9375 -5.609375 L 49.9375 -72.9375 L 15.953125 -72.9375 Z M 15.953125 -5.609375 "/>
</symbol>
<symbol overflow="visible" id="mongolian-fina:id0:glyph0-1">
<path style="stroke:none;" d="M 32.671875 -53.5625 C 30.765625 -53.5625 29.8125 -54.554688 29.8125 -56.546875 C 29.8125 -58.453125 30.765625 -59.40625 32.671875 -59.40625 C 34.578125 -59.40625 35.53125 -58.453125 35.53125 -56.546875 C 35.53125 -54.554688 34.578125 -53.5625 32.671875 -53.5625 Z M 23.3125 -51.703125 C 21.40625 -51.703125 20.453125 -52.65625 20.453125 -54.5625 C 20.453125 -56.539062 21.40625 -57.53125 23.3125 -57.53125 C 25.300781 -57.53125 26.296875 -56.539062 26.296875 -54.5625 C 26.296875 -52.65625 25.300781 -51.703125 23.3125 -51.703125 Z M 42.125 -51.703125 C 40.070312 -51.703125 39.046875 -52.65625 39.046875 -54.5625 C 39.046875 -56.539062 40.070312 -57.53125 42.125 -57.53125 C 43.957031 -57.53125 44.875 -56.539062 44.875 -54.5625 C 44.875 -52.65625 43.957031 -51.703125 42.125 -51.703125 Z M 15.40625 -46.421875 C 13.5 -46.421875 12.546875 -47.335938 12.546875 -49.171875 C 12.546875 -51.222656 13.5 -52.25 15.40625 -52.25 C 17.382812 -52.25 18.375 -51.257812 18.375 -49.28125 C 18.375 -47.375 17.382812 -46.421875 15.40625 -46.421875 Z M 50.046875 -46.421875 C 48.066406 -46.421875 47.078125 -47.375 47.078125 -49.28125 C 47.078125 -51.257812 48.066406 -52.25 50.046875 -52.25 C 51.878906 -52.25 52.796875 -51.257812 52.796875 -49.28125 C 52.796875 -47.375 51.878906 -46.421875 50.046875 -46.421875 Z M 55.21875 -38.390625 C 53.3125 -38.390625 52.359375 -39.378906 52.359375 -41.359375 C 52.359375 -43.265625 53.347656 -44.21875 55.328125 -44.21875 C 57.234375 -44.21875 58.1875 -43.265625 58.1875 -41.359375 C 58.1875 -39.378906 57.195312 -38.390625 55.21875 -38.390625 Z M 10.234375 -38.390625 C 8.179688 -38.390625 7.15625 -39.378906 7.15625 -41.359375 C 7.15625 -43.265625 8.144531 -44.21875 10.125 -44.21875 C 12.03125 -44.21875 12.984375 -43.265625 12.984375 -41.359375 C 12.984375 -39.378906 12.066406 -38.390625 10.234375 -38.390625 Z M 8.25 -29.15625 C 6.269531 -29.15625 5.28125 -30.109375 5.28125 -32.015625 C 5.28125 -33.921875 6.269531 -34.875 8.25 -34.875 C 10.15625 -34.875 11.109375 -33.921875 11.109375 -32.015625 C 11.109375 -30.109375 10.15625 -29.15625 8.25 -29.15625 Z M 57.3125 -29.15625 C 55.332031 -29.15625 54.34375 -30.109375 54.34375 -32.015625 C 54.34375 -33.921875 55.332031 -34.875 57.3125 -34.875 C 59.144531 -34.875 60.0625 -33.921875 60.0625 -32.015625 C 60.0625 -30.109375 59.144531 -29.15625 57.3125 -29.15625 Z M 10.125 -19.796875 C 8.144531 -19.796875 7.15625 -20.75 7.15625 -22.65625 C 7.15625 -24.632812 8.144531 -25.625 10.125 -25.625 C 12.03125 -25.625 12.984375 -24.632812 12.984375 -22.65625 C 12.984375 -20.75 12.03125 -19.796875 10.125 -19.796875 Z M 55.21875 -19.796875 C 53.3125 -19.796875 52.359375 -20.75 52.359375 -22.65625 C 52.359375 -24.632812 53.3125 -25.625 55.21875 -25.625 C 57.195312 -25.625 58.1875 -24.632812 58.1875 -22.65625 C 58.1875 -20.75 57.195312 -19.796875 55.21875 -19.796875 Z M 15.40625 -11.765625 C 13.5 -11.765625 12.546875 -12.71875 12.546875 -14.625 C 12.546875 -16.601562 13.5 -17.59375 15.40625 -17.59375 C 17.382812 -17.59375 18.375 -16.601562 18.375 -14.625 C 18.375 -12.71875 17.382812 -11.765625 15.40625 -11.765625 Z M 50.046875 -11.765625 C 48.066406 -11.765625 47.078125 -12.71875 47.078125 -14.625 C 47.078125 -16.601562 48.066406 -17.59375 50.046875 -17.59375 C 51.878906 -17.59375 52.796875 -16.601562 52.796875 -14.625 C 52.796875 -12.71875 51.878906 -11.765625 50.046875 -11.765625 Z M 23.3125 -6.59375 C 21.40625 -6.59375 20.453125 -7.507812 20.453125 -9.34375 C 20.453125 -11.320312 21.40625 -12.3125 23.3125 -12.3125 C 25.300781 -12.3125 26.296875 -11.394531 26.296875 -9.5625 C 26.296875 -7.582031 25.300781 -6.59375 23.3125 -6.59375 Z M 42.125 -6.59375 C 40.070312 -6.59375 39.046875 -7.507812 39.046875 -9.34375 C 39.046875 -11.320312 40.070312 -12.3125 42.125 -12.3125 C 43.957031 -12.3125 44.875 -11.320312 44.875 -9.34375 C 44.875 -7.507812 43.957031 -6.59375 42.125 -6.59375 Z M 32.671875 -4.625 C 30.765625 -4.625 29.8125 -5.613281 29.8125 -7.59375 C 29.8125 -9.5 30.765625 -10.453125 32.671875 -10.453125 C 34.578125 -10.453125 35.53125 -9.5 35.53125 -7.59375 C 35.53125 -5.613281 34.578125 -4.625 32.671875 -4.625 Z M 32.671875 -4.625 "/>
</symbol>
<symbol overflow="visible" id="mongolian-fina:id0:glyph0-2">
<path style="stroke:none;" d="M 0 -40.046875 L 0 -48.84375 L 20.6875 -48.84375 L 20.6875 -40.046875 Z M 0 -40.046875 "/>
</symbol>
<symbol overflow="visible" id="mongolian-fina:id0:glyph0-3">
<path style="stroke:none;" d="M 48.734375 -8.03125 C 47.554688 -14.257812 46.328125 -20.253906 45.046875 -26.015625 C 43.765625 -31.773438 42.460938 -37.289062 41.140625 -42.5625 C 39.816406 -47.914062 38.53125 -52.738281 37.28125 -57.03125 C 36.039062 -61.320312 34.832031 -65.046875 33.65625 -68.203125 L 33.21875 -68.203125 C 32.925781 -65.929688 32.519531 -63.507812 32 -60.9375 C 31.488281 -58.375 30.832031 -55.660156 30.03125 -52.796875 C 28.707031 -48.109375 26.960938 -44.476562 24.796875 -41.90625 C 22.640625 -39.34375 19.320312 -38.0625 14.84375 -38.0625 C 11.40625 -38.0625 8.109375 -38.976562 4.953125 -40.8125 L 4.953125 -49.0625 C 8.253906 -47.664062 11.367188 -46.96875 14.296875 -46.96875 C 17.597656 -46.96875 20.128906 -49.128906 21.890625 -53.453125 C 23.722656 -57.859375 25.773438 -66.953125 28.046875 -80.734375 L 38.390625 -80.734375 C 40.003906 -75.679688 41.582031 -70.492188 43.125 -65.171875 C 44.664062 -59.859375 46.164062 -54.414062 47.625 -48.84375 L 78.203125 -48.84375 L 78.203125 -40.046875 L 49.9375 -40.046875 C 51.1875 -35.054688 52.394531 -29.921875 53.5625 -24.640625 C 54.738281 -19.359375 55.914062 -13.820312 57.09375 -8.03125 Z M 48.734375 -8.03125 "/>
</symbol>
</g>
<g>
<symbol overflow="visible" id="mongolian-fina:id1:glyph0-0">
<path style="stroke:none;" d="M 5.375 -96.6875 L 69.828125 -96.6875 L 69.828125 0 L 5.375 0 Z M 8.0625 -2.6875 L 67.140625 -2.6875 L 67.140625 -94 L 8.0625 -94 Z M 8.0625 -2.6875 "/>
</symbol>
<symbol overflow="visible" id="mongolian-fina:id1:glyph0-1">
<path style="stroke:none;" d="M 68.15625 -13.75 L 66.28125 -18.640625 L 88.09375 -27.390625 L 6.984375 -27.390625 L 6.984375 -34 L 88.09375 -34 L 66.28125 -42.75 L 68.15625 -47.640625 L 99.09375 -34.265625 L 99.09375 -27.125 Z M 68.15625 -13.75 "/>
</symbol>
</g>
<g>
<symbol overflow="visible" id="mongolian-fina:id2:glyph0-0">
<path style="stroke:none;" d="M 10.34375 0 L 10.34375 -78.546875 L 55.546875 -78.546875 L 55.546875 0 Z M 15.953125 -5.609375 L 49.9375 -5.609375 L 49.9375 -72.9375 L 15.953125 -72.9375 Z M 15.953125 -5.609375 "/>
</symbol>
<symbol overflow="visible" id="mongolian-fina:id2:glyph0-1">
<path style="stroke:none;" d="M 32.671875 -53.5625 C 30.765625 -53.5625 29.8125 -54.554688 29.8125 -56.546875 C 29.8125 -58.453125 30.765625 -59.40625 32.671875 -59.40625 C 34.578125 -59.40625 35.53125 -58.453125 35.53125 -56.546875 C 35.53125 -54.554688 34.578125 -53.5625 32.671875 -53.5625 Z M 23.3125 -51.703125 C 21.40625 -51.703125 20.453125 -52.65625 20.453125 -54.5625 C 20.453125 -56.539062 21.40625 -57.53125 23.3125 -57.53125 C 25.300781 -57.53125 26.296875 -56.539062 26.296875 -54.5625 C 26.296875 -52.65625 25.300781 -51.703125 23.3125 -51.703125 Z M 42.125 -51.703125 C 40.070312 -51.703125 39.046875 -52.65625 39.046875 -54.5625 C 39.046875 -56.539062 40.070312 -57.53125 42.125 -57.53125 C 43.957031 -57.53125 44.875 -56.539062 44.875 -54.5625 C 44.875 -52.65625 43.957031 -51.703125 42.125 -51.703125 Z M 15.40625 -46.421875 C 13.5 -46.421875 12.546875 -47.335938 12.546875 -49.171875 C 12.546875 -51.222656 13.5 -52.25 15.40625 -52.25 C 17.382812 -52.25 18.375 -51.257812 18.375 -49.28125 C 18.375 -47.375 17.382812 -46.421875 15.40625 -46.421875 Z M 50.046875 -46.421875 C 48.066406 -46.421875 47.078125 -47.375 47.078125 -49.28125 C 47.078125 -51.257812 48.066406 -52.25 50.046875 -52.25 C 51.878906 -52.25 52.796875 -51.257812 52.796875 -49.28125 C 52.796875 -47.375 51.878906 -46.421875 50.046875 -46.421875 Z M 55.21875 -38.390625 C 53.3125 -38.390625 52.359375 -39.378906 52.359375 -41.359375 C 52.359375 -43.265625 53.347656 -44.21875 55.328125 -44.21875 C 57.234375 -44.21875 58.1875 -43.265625 58.1875 -41.359375 C 58.1875 -39.378906 57.195312 -38.390625 55.21875 -38.390625 Z M 10.234375 -38.390625 C 8.179688 -38.390625 7.15625 -39.378906 7.15625 -41.359375 C 7.15625 -43.265625 8.144531 -44.21875 10.125 -44.21875 C 12.03125 -44.21875 12.984375 -43.265625 12.984375 -41.359375 C 12.984375 -39.378906 12.066406 -38.390625 10.234375 -38.390625 Z M 8.25 -29.15625 C 6.269531 -29.15625 5.28125 -30.109375 5.28125 -32.015625 C 5.28125 -33.921875 6.269531 -34.875 8.25 -34.875 C 10.15625 -34.875 11.109375 -33.921875 11.109375 -32.015625 C 11.109375 -30.109375 10.15625 -29.15625 8.25 -29.15625 Z M 57.3125 -29.15625 C 55.332031 -29.15625 54.34375 -30.109375 54.34375 -32.015625 C 54.34375 -33.921875 55.332031 -34.875 57.3125 -34.875 C 59.144531 -34.875 60.0625 -33.921875 60.0625 -32.015625 C 60.0625 -30.109375 59.144531 -29.15625 57.3125 -29.15625 Z M 10.125 -19.796875 C 8.144531 -19.796875 7.15625 -20.75 7.15625 -22.65625 C 7.15625 -24.632812 8.144531 -25.625 10.125 -25.625 C 12.03125 -25.625 12.984375 -24.632812 12.984375 -22.65625 C 12.984375 -20.75 12.03125 -19.796875 10.125 -19.796875 Z M 55.21875 -19.796875 C 53.3125 -19.796875 52.359375 -20.75 52.359375 -22.65625 C 52.359375 -24.632812 53.3125 -25.625 55.21875 -25.625 C 57.195312 -25.625 58.1875 -24.632812 58.1875 -22.65625 C 58.1875 -20.75 57.195312 -19.796875 55.21875 -19.796875 Z M 15.40625 -11.765625 C 13.5 -11.765625 12.546875 -12.71875 12.546875 -14.625 C 12.546875 -16.601562 13.5 -17.59375 15.40625 -17.59375 C 17.382812 -17.59375 18.375 -16.601562 18.375 -14.625 C 18.375 -12.71875 17.382812 -11.765625 15.40625 -11.765625 Z M 50.046875 -11.765625 C 48.066406 -11.765625 47.078125 -12.71875 47.078125 -14.625 C 47.078125 -16.601562 48.066406 -17.59375 50.046875 -17.59375 C 51.878906 -17.59375 52.796875 -16.601562 52.796875 -14.625 C 52.796875 -12.71875 51.878906 -11.765625 50.046875 -11.765625 Z M 23.3125 -6.59375 C 21.40625 -6.59375 20.453125 -7.507812 20.453125 -9.34375 C 20.453125 -11.320312 21.40625 -12.3125 23.3125 -12.3125 C 25.300781 -12.3125 26.296875 -11.394531 26.296875 -9.5625 C 26.296875 -7.582031 25.300781 -6.59375 23.3125 -6.59375 Z M 42.125 -6.59375 C 40.070312 -6.59375 39.046875 -7.507812 39.046875 -9.34375 C 39.046875 -11.320312 40.070312 -12.3125 42.125 -12.3125 C 43.957031 -12.3125 44.875 -11.320312 44.875 -9.34375 C 44.875 -7.507812 43.957031 -6.59375 42.125 -6.59375 Z M 32.671875 -4.625 C 30.765625 -4.625 29.8125 -5.613281 29.8125 -7.59375 C 29.8125 -9.5 30.765625 -10.453125 32.671875 -10.453125 C 34.578125 -10.453125 35.53125 -9.5 35.53125 -7.59375 C 35.53125 -5.613281 34.578125 -4.625 32.671875 -4.625 Z M 32.671875 -4.625 "/>
</symbol>
<symbol overflow="visible" id="mongolian-fina:id2:glyph0-2">
<path style="stroke:none;" d="M 0 -40.046875 L 0 -48.84375 L 20.6875 -48.84375 L 20.6875 -40.046875 Z M 0 -40.046875 "/>
</symbol>
<symbol overflow="visible" id="mongolian-fina:id2:glyph0-3">
<path style="stroke:none;" d="M 2.96875 -8.03125 C 2.09375 -13.238281 1.378906 -18.664062 0.828125 -24.3125 C 0.273438 -29.957031 0 -35.203125 0 -40.046875 L 0 -48.84375 L 3.515625 -48.84375 C 4.691406 -54.269531 6.414062 -59.660156 8.6875 -65.015625 C 10.957031 -70.367188 13.816406 -75.609375 17.265625 -80.734375 L 26.1875 -80.734375 C 26.1875 -70.910156 27.175781 -61.414062 29.15625 -52.25 C 31.132812 -43.226562 34.394531 -33.988281 38.9375 -24.53125 L 39.375 -24.53125 C 41.28125 -32.882812 43.972656 -40.984375 47.453125 -48.828125 C 50.941406 -56.679688 55.035156 -63.945312 59.734375 -70.625 L 70.40625 -70.625 C 63.800781 -61.601562 58.460938 -52.304688 54.390625 -42.734375 C 50.328125 -33.160156 47.15625 -22.800781 44.875 -11.65625 L 36.078125 -11.65625 C 33.585938 -16.132812 31.367188 -20.609375 29.421875 -25.078125 C 27.484375 -29.554688 25.816406 -34.03125 24.421875 -38.5 C 23.023438 -42.96875 21.847656 -47.625 20.890625 -52.46875 C 19.941406 -57.3125 19.210938 -62.300781 18.703125 -67.4375 L 18.265625 -67.4375 C 15.253906 -60.976562 13.03125 -54.816406 11.59375 -48.953125 C 10.164062 -43.085938 9.453125 -36.890625 9.453125 -30.359375 C 9.453125 -20.972656 10.148438 -13.53125 11.546875 -8.03125 Z M 2.96875 -8.03125 "/>
</symbol>
</g>
</defs>
  <g id="mongolian-fina:id0:id0" transform="matrix(1.25,0,0,1.25,0.0,0.0)"><g id="mongolian-fina:id0:surface1">
<g style="fill:rgb(0%,0%,0%);fill-opacity:1;">
  <use xlink:href="#mongolian-fina:id0:glyph0-1" x="16" y="162.265625" class="dc"/>
  <use xlink:href="#mongolian-fina:id0:glyph0-2" x="81.34375" y="162.265625" class="c0"/>
  <use xlink:href="#mongolian-fina:id0:glyph0-3" x="99.828125" y="162.265625" class="c1"/>
</g>
</g>
</g>
  <g id="mongolian-fina:id1:id1" transform="matrix(1.25,0,0,1.25,248.73046875,22.109375)"><g id="mongolian-fina:id1:surface1">
<g style="fill:rgb(0%,0%,0%);fill-opacity:1;">
  <use xlink:href="#mongolian-fina:id1:glyph0-1" x="0" y="120.84375" class="arrow"/>
</g>
</g>
</g>
  <g id="mongolian-fina:id2:id2" transform="matrix(1.25,0,0,1.25,381.328125,0.0)"><g id="mongolian-fina:id2:surface1">
<g style="fill:rgb(0%,0%,0%);fill-opacity:1;">
  <use xlink:href="#mongolian-fina:id2:glyph0-1" x="16" y="162.265625" class="dc"/>
  <use xlink:href="#mongolian-fina:id2:glyph0-2" x="81.34375" y="162.265625" class="c0"/>
  <use xlink:href="#mongolian-fina:id2:glyph0-3" x="99.828125" y="162.265625" class="c1"/>
</g>
</g>
</g>
</svg>