<?xml version="1.0" standalone="no"?>
<!DOCTYPE svg PUBLIC "-//W3C//DTD SVG 1.1//EN"
 "http://www.w3.org/Graphics/SVG/1.1/DTD/svg11.dtd">
<!-- Created with svg_stack (http://github.com/astraw/svg_stack) -->
<svg xmlns="http://www.w3.org/2000/svg" xmlns:sodipodi="http://sodipodi.sourceforge.net/DTD/sodipodi-0.dtd" xmlns:xlink="http://www.w3.org/1999/xlink" version="1.1" width="684.7265625" height="245.625">
  <defs><g>
<symbol overflow="visible" id="id0:glyph0-0">
<path style="stroke:none;" d="M 10.34375 0 L 10.34375 -78.546875 L 55.546875 -78.546875 L 55.546875 0 Z M 15.953125 -5.609375 L 49.9375 -5.609375 L 49.9375 -72.9375 L 15.953125 -72.9375 Z M 15.953125 -5.609375 "/>
</symbol>
<symbol overflow="visible" id="id0:glyph0-1">
<path style="stroke:none;" d="M 128.921875 7.375 C 124.597656 -0.695312 120.859375 -8.691406 117.703125 -16.609375 C 114.546875 -24.523438 111.941406 -32.335938 109.890625 -40.046875 L 95.15625 -40.046875 C 96.757812 -36.523438 97.5625 -32.304688 97.5625 -27.390625 C 97.5625 -20.492188 95.671875 -14.9375 91.890625 -10.71875 C 88.117188 -6.507812 82.753906 -4.40625 75.796875 -4.40625 C 68.828125 -4.40625 63.472656 -6.398438 59.734375 -10.390625 C 55.992188 -14.390625 54.125 -20.054688 54.125 -27.390625 C 54.125 -32.304688 54.851562 -36.523438 56.3125 -40.046875 L 48.953125 -40.046875 C 44.921875 -40.046875 41.820312 -39.53125 39.65625 -38.5 C 37.488281 -37.46875 35.945312 -35.796875 35.03125 -33.484375 C 34.113281 -31.179688 33.507812 -28.050781 33.21875 -24.09375 L 32.125 -8.140625 L 24.859375 -8.140625 L 22 -48.0625 C 21.707031 -52.613281 20.972656 -56.28125 19.796875 -59.0625 C 18.628906 -61.851562 16.359375 -63.25 12.984375 -63.25 C 9.609375 -63.25 5.644531 -62.332031 1.09375 -60.5 L 1.09375 -68.53125 C 6.300781 -70.726562 11.035156 -71.828125 15.296875 -71.828125 C 19.328125 -71.828125 22.40625 -70.910156 24.53125 -69.078125 C 26.65625 -67.242188 28.15625 -64.617188 29.03125 -61.203125 C 29.914062 -57.796875 30.429688 -53.710938 30.578125 -48.953125 L 30.90625 -39.703125 L 31.34375 -39.703125 C 33.769531 -45.796875 39.601562 -48.84375 48.84375 -48.84375 L 152.90625 -48.84375 L 152.90625 -40.046875 L 118.578125 -40.046875 C 120.703125 -32.710938 123.285156 -25.429688 126.328125 -18.203125 C 129.378906 -10.984375 132.921875 -3.78125 136.953125 3.40625 Z M 75.796875 -13.53125 C 79.898438 -13.53125 83.101562 -14.703125 85.40625 -17.046875 C 87.71875 -19.390625 88.875 -22.910156 88.875 -27.609375 C 88.875 -32.304688 88.144531 -36.453125 86.6875 -40.046875 L 65.015625 -40.046875 C 63.546875 -36.453125 62.8125 -32.304688 62.8125 -27.609375 C 62.8125 -18.222656 67.140625 -13.53125 75.796875 -13.53125 Z M 75.796875 -13.53125 "/>
</symbol>
<symbol overflow="visible" id="id0:glyph0-2">
<path style="stroke:none;" d=""/>
</symbol>
</g>
<g>
<symbol overflow="visible" id="id1:glyph0-0">
<path style="stroke:none;" d="M 5.375 -96.6875 L 69.828125 -96.6875 L 69.828125 0 L 5.375 0 Z M 8.0625 -2.6875 L 67.140625 -2.6875 L 67.140625 -94 L 8.0625 -94 Z M 8.0625 -2.6875 "/>
</symbol>
<symbol overflow="visible" id="id1:glyph0-1">
<path style="stroke:none;" d="M 68.15625 -13.75 L 66.28125 -18.640625 L 88.09375 -27.390625 L 6.984375 -27.390625 L 6.984375 -34 L 88.09375 -34 L 66.28125 -42.75 L 68.15625 -47.640625 L 99.09375 -34.265625 L 99.09375 -27.125 Z M 68.15625 -13.75 "/>
</symbol>
</g>
<g>
<symbol overflow="visible" id="id2:glyph0-0">
<path style="stroke:none;" d="M 10.34375 0 L 10.34375 -78.546875 L 55.546875 -78.546875 L 55.546875 0 Z M 15.953125 -5.609375 L 49.9375 -5.609375 L 49.9375 -72.9375 L 15.953125 -72.9375 Z M 15.953125 -5.609375 "/>
</symbol>
<symbol overflow="visible" id="id2:glyph0-1">
<path style="stroke:none;" d="M 78.875 -4.40625 C 71.164062 -4.40625 65.238281 -7.28125 61.09375 -13.03125 C 56.957031 -18.789062 54.597656 -27.796875 54.015625 -40.046875 L 48.953125 -40.046875 C 44.992188 -40.046875 41.929688 -39.546875 39.765625 -38.546875 C 37.597656 -37.554688 36.035156 -35.90625 35.078125 -33.59375 C 34.128906 -31.289062 33.507812 -28.125 33.21875 -24.09375 L 32.125 -8.140625 L 24.859375 -8.140625 L 22 -48.0625 C 21.707031 -52.613281 20.972656 -56.28125 19.796875 -59.0625 C 18.628906 -61.851562 16.359375 -63.25 12.984375 -63.25 C 9.609375 -63.25 5.644531 -62.332031 1.09375 -60.5 L 1.09375 -68.53125 C 6.300781 -70.726562 11.035156 -71.828125 15.296875 -71.828125 C 19.328125 -71.828125 22.40625 -70.910156 24.53125 -69.078125 C 26.65625 -67.242188 28.15625 -64.617188 29.03125 -61.203125 C 29.914062 -57.796875 30.429688 -53.710938 30.578125 -48.953125 L 30.90625 -39.703125 L 31.34375 -39.703125 C 33.769531 -45.796875 39.601562 -48.84375 48.84375 -48.84375 L 54.125 -48.84375 C 54.5625 -56.25 56.023438 -62.738281 58.515625 -68.3125 C 61.015625 -73.882812 64.554688 -78.226562 69.140625 -81.34375 C 73.722656 -84.457031 79.3125 -86.015625 85.90625 -86.015625 C 90.96875 -86.015625 95.476562 -84.914062 99.4375 -82.71875 C 103.394531 -80.519531 106.765625 -77.550781 109.546875 -73.8125 C 112.335938 -70.070312 114.519531 -65.816406 116.09375 -61.046875 C 117.675781 -56.285156 118.613281 -51.300781 118.90625 -46.09375 L 110.109375 -44.984375 C 109.742188 -50.785156 108.625 -56.085938 106.75 -60.890625 C 104.882812 -65.691406 102.226562 -69.554688 98.78125 -72.484375 C 95.332031 -75.421875 91.039062 -76.890625 85.90625 -76.890625 C 80.84375 -76.890625 76.609375 -75.660156 73.203125 -73.203125 C 69.796875 -70.742188 67.210938 -67.40625 65.453125 -63.1875 C 63.691406 -58.976562 62.773438 -54.195312 62.703125 -48.84375 L 96.140625 -48.84375 C 96.648438 -47.375 97.085938 -45.5 97.453125 -43.21875 C 97.828125 -40.945312 98.125 -38.640625 98.34375 -36.296875 C 98.5625 -33.953125 98.671875 -31.9375 98.671875 -30.25 C 98.671875 -25.257812 97.84375 -20.800781 96.1875 -16.875 C 94.539062 -12.957031 92.234375 -9.898438 89.265625 -7.703125 C 86.296875 -5.503906 82.832031 -4.40625 78.875 -4.40625 Z M 78.09375 -13.53125 C 82.132812 -13.53125 85.125 -15.140625 87.0625 -18.359375 C 89.007812 -21.585938 89.984375 -25.550781 89.984375 -30.25 C 89.984375 -32.375 89.890625 -34.257812 89.703125 -35.90625 C 89.523438 -37.5625 89.25 -38.941406 88.875 -40.046875 L 62.703125 -40.046875 C 62.992188 -22.367188 68.125 -13.53125 78.09375 -13.53125 Z M 78.09375 -13.53125 "/>
</symbol>
</g>
</defs>
  <g id="id0:id0" transform="matrix(1.25,0,0,1.25,0.0,0.0)"><g id="id0:surface1">
<g style="fill:rgb(0%,0%,0%);fill-opacity:1;">
  <use xlink:href="#id0:glyph0-1" x="16" y="162.265625"/>
  <use xlink:href="#id0:glyph0-2" x="173.84375" y="162.265625"/>
</g>
</g>
</g>
  <g id="id1:id1" transform="matrix(1.25,0,0,1.25,357.3046875,22.109375)"><g id="id1:surface1">
<g style="fill:rgb(0%,0%,0%);fill-opacity:1;">
  <use xlink:href="#id1:glyph0-1" x="0" y="120.84375"/>
</g>
</g>
</g>
  <g id="id2:id2" transform="matrix(1.25,0,0,1.25,489.90234375,0.0)"><g id="id2:surface1">
<g style="fill:rgb(0%,0%,0%);fill-opacity:1;">
  <use xlink:href="#id2:glyph0-1" x="16" y="162.265625"/>
</g>
</g>
</g>
</svg>
