<!DOCTYPE svg PUBLIC "-//W3C//DTD SVG 1.1//EN" "http://www.w3.org/Graphics/SVG/1.1/DTD/svg11.dtd">
<!-- Created with svg_stack (http://github.com/astraw/svg_stack) --><svg xmlns="http://www.w3.org/2000/svg" xmlns:sodipodi="http://sodipodi.sourceforge.net/DTD/sodipodi-0.dtd" xmlns:xlink="http://www.w3.org/1999/xlink" version="1.1" width="508.76953125" height="245.625" id="mongolian-rlig">
  <defs><g>
<symbol overflow="visible" id="mongolian-rlig:id0:glyph0-0">
<path style="stroke:none;" d="M 10.34375 0 L 10.34375 -78.546875 L 55.546875 -78.546875 L 55.546875 0 Z M 15.953125 -5.609375 L 49.9375 -5.609375 L 49.9375 -72.9375 L 15.953125 -72.9375 Z M 15.953125 -5.609375 "/>
</symbol>
<symbol overflow="visible" id="mongolian-rlig:id0:glyph0-1">
<path style="stroke:none;" d="M 30.03125 -4.40625 C 21.519531 -4.40625 15.210938 -7.773438 11.109375 -14.515625 C 7.003906 -21.265625 4.953125 -31.382812 4.953125 -44.875 C 4.953125 -52.800781 6.125 -59.859375 8.46875 -66.046875 C 10.8125 -72.242188 14.347656 -77.117188 19.078125 -80.671875 C 23.816406 -84.234375 29.738281 -86.015625 36.84375 -86.015625 C 42.269531 -86.015625 47 -84.785156 51.03125 -82.328125 C 55.070312 -79.878906 58.46875 -76.507812 61.21875 -72.21875 C 63.96875 -67.925781 66.019531 -63.007812 67.375 -57.46875 C 68.726562 -51.9375 69.40625 -46.128906 69.40625 -40.046875 L 61.265625 -40.046875 C 60.972656 -51.703125 58.644531 -60.753906 54.28125 -67.203125 C 49.914062 -73.660156 44.101562 -76.890625 36.84375 -76.890625 C 31.863281 -76.890625 27.648438 -75.660156 24.203125 -73.203125 C 20.753906 -70.742188 18.148438 -67.40625 16.390625 -63.1875 C 14.628906 -58.976562 13.710938 -54.195312 13.640625 -48.84375 L 47.078125 -48.84375 C 47.515625 -47.59375 47.9375 -45.753906 48.34375 -43.328125 C 48.75 -40.910156 49.0625 -38.472656 49.28125 -36.015625 C 49.5 -33.566406 49.609375 -31.644531 49.609375 -30.25 C 49.609375 -25.257812 48.765625 -20.800781 47.078125 -16.875 C 45.390625 -12.957031 43.078125 -9.898438 40.140625 -7.703125 C 37.210938 -5.503906 33.84375 -4.40625 30.03125 -4.40625 Z M 29.046875 -13.53125 C 33.078125 -13.53125 36.0625 -15.140625 38 -18.359375 C 39.945312 -21.585938 40.921875 -25.550781 40.921875 -30.25 C 40.921875 -34.789062 40.550781 -38.054688 39.8125 -40.046875 L 13.640625 -40.046875 C 13.859375 -22.367188 18.992188 -13.53125 29.046875 -13.53125 Z M 29.046875 -13.53125 "/>
</symbol>
<symbol overflow="visible" id="mongolian-rlig:id0:glyph0-2">
<path style="stroke:none;" d="M 25.078125 -5.828125 C 19.210938 -6.191406 14.113281 -8.003906 9.78125 -11.265625 C 5.457031 -14.535156 2.144531 -18.695312 -0.15625 -23.75 C -2.46875 -28.8125 -3.625 -34.242188 -3.625 -40.046875 L -3.625 -48.84375 L 4.515625 -48.84375 C 4.515625 -44 4.804688 -39.5625 5.390625 -35.53125 C 5.972656 -31.5 7.144531 -27.921875 8.90625 -24.796875 C 10.664062 -21.679688 13.234375 -19.132812 16.609375 -17.15625 C 16.609375 -33.21875 18.367188 -47.847656 21.890625 -61.046875 C 25.410156 -74.171875 30.03125 -84.472656 35.75 -91.953125 L 45.875 -91.953125 C 42.570312 -87.921875 39.617188 -83.242188 37.015625 -77.921875 C 34.410156 -72.609375 32.226562 -66.691406 30.46875 -60.171875 C 28.707031 -53.710938 27.367188 -46.890625 26.453125 -39.703125 C 25.535156 -32.523438 25.078125 -25.007812 25.078125 -17.15625 Z M 25.078125 -5.828125 "/>
</symbol>
</g>
<g>
<symbol overflow="visible" id="mongolian-rlig:id1:glyph0-0">
<path style="stroke:none;" d="M 5.375 -96.6875 L 69.828125 -96.6875 L 69.828125 0 L 5.375 0 Z M 8.0625 -2.6875 L 67.140625 -2.6875 L 67.140625 -94 L 8.0625 -94 Z M 8.0625 -2.6875 "/>
</symbol>
<symbol overflow="visible" id="mongolian-rlig:id1:glyph0-1">
<path style="stroke:none;" d="M 68.15625 -13.75 L 66.28125 -18.640625 L 88.09375 -27.390625 L 6.984375 -27.390625 L 6.984375 -34 L 88.09375 -34 L 66.28125 -42.75 L 68.15625 -47.640625 L 99.09375 -34.265625 L 99.09375 -27.125 Z M 68.15625 -13.75 "/>
</symbol>
</g>
<g>
<symbol overflow="visible" id="mongolian-rlig:id2:glyph0-0">
<path style="stroke:none;" d="M 10.34375 0 L 10.34375 -78.546875 L 55.546875 -78.546875 L 55.546875 0 Z M 15.953125 -5.609375 L 49.9375 -5.609375 L 49.9375 -72.9375 L 15.953125 -72.9375 Z M 15.953125 -5.609375 "/>
</symbol>
<symbol overflow="visible" id="mongolian-rlig:id2:glyph0-1">
<path style="stroke:none;" d="M 95.046875 29.046875 C 94.378906 27.796875 93.863281 26.472656 93.5 25.078125 C 93.132812 23.679688 92.953125 22.175781 92.953125 20.5625 C 92.953125 16.3125 93.941406 12.296875 95.921875 8.515625 C 97.898438 4.742188 100.394531 0.878906 103.40625 -3.078125 C 107.144531 -7.921875 110.039062 -12.175781 112.09375 -15.84375 C 114.144531 -19.507812 115.171875 -23.210938 115.171875 -26.953125 C 115.171875 -31.347656 113.8125 -34.628906 111.09375 -36.796875 C 108.382812 -38.960938 104.097656 -40.046875 98.234375 -40.046875 L 75.125 -40.046875 L 73.046875 -10.5625 L 65.78125 -10.5625 L 63.6875 -40.046875 C 62.8125 -52.285156 60.375 -61.484375 56.375 -67.640625 C 52.375 -73.804688 46.488281 -76.890625 38.71875 -76.890625 C 33.289062 -76.890625 28.722656 -75.675781 25.015625 -73.25 C 21.316406 -70.832031 18.515625 -67.515625 16.609375 -63.296875 C 14.703125 -59.085938 13.710938 -54.269531 13.640625 -48.84375 L 47.078125 -48.84375 C 47.515625 -47.59375 47.9375 -45.753906 48.34375 -43.328125 C 48.75 -40.910156 49.0625 -38.472656 49.28125 -36.015625 C 49.5 -33.566406 49.609375 -31.644531 49.609375 -30.25 C 49.609375 -25.1875 48.765625 -20.710938 47.078125 -16.828125 C 45.390625 -12.941406 43.039062 -9.898438 40.03125 -7.703125 C 37.03125 -5.503906 33.585938 -4.40625 29.703125 -4.40625 C 13.203125 -4.40625 4.953125 -17.894531 4.953125 -44.875 C 4.953125 -53.019531 6.21875 -60.171875 8.75 -66.328125 C 11.28125 -72.484375 15.054688 -77.300781 20.078125 -80.78125 C 25.097656 -84.269531 31.3125 -86.015625 38.71875 -86.015625 C 45.46875 -86.015625 51.097656 -84.382812 55.609375 -81.125 C 60.117188 -77.863281 63.691406 -73.445312 66.328125 -67.875 C 68.972656 -62.300781 70.769531 -55.957031 71.71875 -48.84375 L 98.34375 -48.84375 C 106.769531 -48.84375 113.109375 -46.953125 117.359375 -43.171875 C 121.617188 -39.398438 123.75 -33.992188 123.75 -26.953125 C 123.75 -22.035156 122.335938 -17.082031 119.515625 -12.09375 C 116.691406 -7.113281 113.226562 -1.945312 109.125 3.40625 C 107.363281 5.757812 105.929688 7.773438 104.828125 9.453125 C 103.734375 11.140625 102.945312 12.828125 102.46875 14.515625 C 101.988281 16.203125 101.75 18.21875 101.75 20.5625 C 101.75 23.351562 102.519531 26.179688 104.0625 29.046875 Z M 29.046875 -13.53125 C 33.078125 -13.53125 36.0625 -15.140625 38 -18.359375 C 39.945312 -21.585938 40.921875 -25.550781 40.921875 -30.25 C 40.921875 -34.789062 40.550781 -38.054688 39.8125 -40.046875 L 13.640625 -40.046875 C 13.859375 -22.367188 18.992188 -13.53125 29.046875 -13.53125 Z M 29.046875 -13.53125 "/>
</symbol>
</g>
</defs>
  <g id="mongolian-rlig:id0:id0" transform="matrix(1.25,0,0,1.25,0.0,0.0)"><g id="mongolian-rlig:id0:surface1">
<g style="fill:rgb(0%,0%,0%);fill-opacity:1;">
  <use xlink:href="#mongolian-rlig:id0:glyph0-1" x="16" y="162.265625" class="c0"/>
  <use xlink:href="#mongolian-rlig:id0:glyph0-2" x="77.265625" y="162.265625" class="c1"/>
</g>
</g>
</g>
  <g id="mongolian-rlig:id1:id1" transform="matrix(1.25,0,0,1.25,175.29296875,22.109375)"><g id="mongolian-rlig:id1:surface1">
<g style="fill:rgb(0%,0%,0%);fill-opacity:1;">
  <use xlink:href="#mongolian-rlig:id1:glyph0-1" x="0" y="120.84375" class="arrow"/>
</g>
</g>
</g>
  <g id="mongolian-rlig:id2:id2" transform="matrix(1.25,0,0,1.25,307.890625,0.0)"><g id="mongolian-rlig:id2:surface1">
<g style="fill:rgb(0%,0%,0%);fill-opacity:1;">
  <use xlink:href="#mongolian-rlig:id2:glyph0-1" x="16" y="162.265625" class="c2"/>
</g>
</g>
</g>
</svg>
