<!DOCTYPE svg PUBLIC "-//W3C//DTD SVG 1.1//EN" "http://www.w3.org/Graphics/SVG/1.1/DTD/svg11.dtd">
<!-- Created with svg_stack (http://github.com/astraw/svg_stack) --><svg xmlns="http://www.w3.org/2000/svg" xmlns:sodipodi="http://sodipodi.sourceforge.net/DTD/sodipodi-0.dtd" xmlns:xlink="http://www.w3.org/1999/xlink" version="1.1" width="100%" id="mongolian-isol" viewBox="0 0 579.70703125 245.625">
  <defs><g>
<symbol overflow="visible" id="mongolian-isol:id0:glyph0-0">
<path style="stroke:none;" d="M 10.34375 0 L 10.34375 -78.546875 L 55.546875 -78.546875 L 55.546875 0 Z M 15.953125 -5.609375 L 49.9375 -5.609375 L 49.9375 -72.9375 L 15.953125 -72.9375 Z M 15.953125 -5.609375 "/>
</symbol>
<symbol overflow="visible" id="mongolian-isol:id0:glyph0-1">
<path style="stroke:none;" d="M 128.921875 7.375 C 124.597656 -0.695312 120.859375 -8.691406 117.703125 -16.609375 C 114.546875 -24.523438 111.941406 -32.335938 109.890625 -40.046875 L 95.15625 -40.046875 C 96.757812 -36.523438 97.5625 -32.304688 97.5625 -27.390625 C 97.5625 -20.492188 95.671875 -14.9375 91.890625 -10.71875 C 88.117188 -6.507812 82.753906 -4.40625 75.796875 -4.40625 C 68.828125 -4.40625 63.472656 -6.398438 59.734375 -10.390625 C 55.992188 -14.390625 54.125 -20.054688 54.125 -27.390625 C 54.125 -32.304688 54.851562 -36.523438 56.3125 -40.046875 L 48.953125 -40.046875 C 44.921875 -40.046875 41.820312 -39.53125 39.65625 -38.5 C 37.488281 -37.46875 35.945312 -35.796875 35.03125 -33.484375 C 34.113281 -31.179688 33.507812 -28.050781 33.21875 -24.09375 L 32.125 -8.140625 L 24.859375 -8.140625 L 22 -48.0625 C 21.707031 -52.613281 20.972656 -56.28125 19.796875 -59.0625 C 18.628906 -61.851562 16.359375 -63.25 12.984375 -63.25 C 9.609375 -63.25 5.644531 -62.332031 1.09375 -60.5 L 1.09375 -68.53125 C 6.300781 -70.726562 11.035156 -71.828125 15.296875 -71.828125 C 19.328125 -71.828125 22.40625 -70.910156 24.53125 -69.078125 C 26.65625 -67.242188 28.15625 -64.617188 29.03125 -61.203125 C 29.914062 -57.796875 30.429688 -53.710938 30.578125 -48.953125 L 30.90625 -39.703125 L 31.34375 -39.703125 C 33.769531 -45.796875 39.601562 -48.84375 48.84375 -48.84375 L 152.90625 -48.84375 L 152.90625 -40.046875 L 118.578125 -40.046875 C 120.703125 -32.710938 123.285156 -25.429688 126.328125 -18.203125 C 129.378906 -10.984375 132.921875 -3.78125 136.953125 3.40625 Z M 75.796875 -13.53125 C 79.898438 -13.53125 83.101562 -14.703125 85.40625 -17.046875 C 87.71875 -19.390625 88.875 -22.910156 88.875 -27.609375 C 88.875 -32.304688 88.144531 -36.453125 86.6875 -40.046875 L 65.015625 -40.046875 C 63.546875 -36.453125 62.8125 -32.304688 62.8125 -27.609375 C 62.8125 -18.222656 67.140625 -13.53125 75.796875 -13.53125 Z M 75.796875 -13.53125 "/>
</symbol>
</g>
<g>
<symbol overflow="visible" id="mongolian-isol:id1:glyph0-0">
<path style="stroke:none;" d="M 5.375 -96.6875 L 69.828125 -96.6875 L 69.828125 0 L 5.375 0 Z M 8.0625 -2.6875 L 67.140625 -2.6875 L 67.140625 -94 L 8.0625 -94 Z M 8.0625 -2.6875 "/>
</symbol>
<symbol overflow="visible" id="mongolian-isol:id1:glyph0-1">
<path style="stroke:none;" d="M 68.15625 -13.75 L 66.28125 -18.640625 L 88.09375 -27.390625 L 6.984375 -27.390625 L 6.984375 -34 L 88.09375 -34 L 66.28125 -42.75 L 68.15625 -47.640625 L 99.09375 -34.265625 L 99.09375 -27.125 Z M 68.15625 -13.75 "/>
</symbol>
</g>
<g>
<symbol overflow="visible" id="mongolian-isol:id2:glyph0-0">
<path style="stroke:none;" d="M 10.34375 0 L 10.34375 -78.546875 L 55.546875 -78.546875 L 55.546875 0 Z M 15.953125 -5.609375 L 49.9375 -5.609375 L 49.9375 -72.9375 L 15.953125 -72.9375 Z M 15.953125 -5.609375 "/>
</symbol>
<symbol overflow="visible" id="mongolian-isol:id2:glyph0-1">
<path style="stroke:none;" d="M 75.796875 -4.40625 C 68.828125 -4.40625 63.472656 -6.398438 59.734375 -10.390625 C 55.992188 -14.390625 54.125 -20.054688 54.125 -27.390625 C 54.125 -32.304688 54.851562 -36.523438 56.3125 -40.046875 L 48.953125 -40.046875 C 44.992188 -40.046875 41.910156 -39.566406 39.703125 -38.609375 C 37.503906 -37.660156 35.945312 -36.03125 35.03125 -33.71875 C 34.113281 -31.40625 33.507812 -28.195312 33.21875 -24.09375 L 32.125 -8.140625 L 24.859375 -8.140625 L 22 -48.0625 C 21.707031 -52.613281 20.972656 -56.28125 19.796875 -59.0625 C 18.628906 -61.851562 16.359375 -63.25 12.984375 -63.25 C 9.609375 -63.25 5.644531 -62.332031 1.09375 -60.5 L 1.09375 -68.53125 C 6.300781 -70.726562 11.035156 -71.828125 15.296875 -71.828125 C 19.328125 -71.828125 22.40625 -70.910156 24.53125 -69.078125 C 26.65625 -67.242188 28.15625 -64.617188 29.03125 -61.203125 C 29.914062 -57.796875 30.429688 -53.710938 30.578125 -48.953125 L 30.90625 -39.703125 L 31.34375 -39.703125 C 33.769531 -45.796875 39.601562 -48.84375 48.84375 -48.84375 L 111.65625 -48.84375 C 124.488281 -48.84375 130.90625 -42.789062 130.90625 -30.6875 C 130.90625 -26.070312 129.988281 -21.78125 128.15625 -17.8125 L 120.015625 -17.8125 C 120.816406 -19.726562 121.421875 -21.75 121.828125 -23.875 C 122.234375 -26 122.4375 -28.269531 122.4375 -30.6875 C 122.4375 -33.695312 121.609375 -36.007812 119.953125 -37.625 C 118.304688 -39.238281 115.539062 -40.046875 111.65625 -40.046875 L 95.15625 -40.046875 C 96.757812 -36.523438 97.5625 -32.304688 97.5625 -27.390625 C 97.5625 -20.492188 95.671875 -14.9375 91.890625 -10.71875 C 88.117188 -6.507812 82.753906 -4.40625 75.796875 -4.40625 Z M 75.796875 -13.53125 C 79.898438 -13.53125 83.101562 -14.703125 85.40625 -17.046875 C 87.71875 -19.390625 88.875 -22.910156 88.875 -27.609375 C 88.875 -32.304688 88.144531 -36.453125 86.6875 -40.046875 L 65.015625 -40.046875 C 63.546875 -36.453125 62.8125 -32.304688 62.8125 -27.609375 C 62.8125 -18.222656 67.140625 -13.53125 75.796875 -13.53125 Z M 75.796875 -13.53125 "/>
</symbol>
</g>
</defs>
  <g id="mongolian-isol:id0:id0" transform="matrix(1.25,0,0,1.25,0.0,0.0)"><g id="mongolian-isol:id0:surface1">
<g style="fill:rgb(0%,0%,0%);fill-opacity:1;">
  <use xlink:href="#mongolian-isol:id0:glyph0-1" x="16" y="162.265625" class="c0"/>
</g>
</g>
</g>
  <g id="mongolian-isol:id1:id1" transform="matrix(1.25,0,0,1.25,237.3046875,22.109375)"><g id="mongolian-isol:id1:surface1">
<g style="fill:rgb(0%,0%,0%);fill-opacity:1;">
  <use xlink:href="#mongolian-isol:id1:glyph0-1" x="0" y="120.84375" class="arrow"/>
</g>
</g>
</g>
  <g id="mongolian-isol:id2:id2" transform="matrix(1.25,0,0,1.25,369.90234375,0.0)"><g id="mongolian-isol:id2:surface1">
<g style="fill:rgb(0%,0%,0%);fill-opacity:1;">
  <use xlink:href="#mongolian-isol:id2:glyph0-1" x="16" y="162.265625" class="c0"/>
</g>
</g>
</g>
</svg>