<!DOCTYPE svg PUBLIC "-//W3C//DTD SVG 1.1//EN" "http://www.w3.org/Graphics/SVG/1.1/DTD/svg11.dtd">
<!-- Created with svg_stack (http://github.com/astraw/svg_stack) --><svg xmlns="http://www.w3.org/2000/svg" xmlns:sodipodi="http://sodipodi.sourceforge.net/DTD/sodipodi-0.dtd" xmlns:xlink="http://www.w3.org/1999/xlink" version="1.1" width="100%" id="mongolian-medi" viewBox="0 0 815.56640625 245.625">
  <defs><g>
<symbol overflow="visible" id="mongolian-medi:id0:glyph0-0">
<path style="stroke:none;" d="M 10.34375 0 L 10.34375 -78.546875 L 55.546875 -78.546875 L 55.546875 0 Z M 15.953125 -5.609375 L 49.9375 -5.609375 L 49.9375 -72.9375 L 15.953125 -72.9375 Z M 15.953125 -5.609375 "/>
</symbol>
<symbol overflow="visible" id="mongolian-medi:id0:glyph0-1">
<path style="stroke:none;" d="M 32.671875 -53.5625 C 30.765625 -53.5625 29.8125 -54.554688 29.8125 -56.546875 C 29.8125 -58.453125 30.765625 -59.40625 32.671875 -59.40625 C 34.578125 -59.40625 35.53125 -58.453125 35.53125 -56.546875 C 35.53125 -54.554688 34.578125 -53.5625 32.671875 -53.5625 Z M 23.3125 -51.703125 C 21.40625 -51.703125 20.453125 -52.65625 20.453125 -54.5625 C 20.453125 -56.539062 21.40625 -57.53125 23.3125 -57.53125 C 25.300781 -57.53125 26.296875 -56.539062 26.296875 -54.5625 C 26.296875 -52.65625 25.300781 -51.703125 23.3125 -51.703125 Z M 42.125 -51.703125 C 40.070312 -51.703125 39.046875 -52.65625 39.046875 -54.5625 C 39.046875 -56.539062 40.070312 -57.53125 42.125 -57.53125 C 43.957031 -57.53125 44.875 -56.539062 44.875 -54.5625 C 44.875 -52.65625 43.957031 -51.703125 42.125 -51.703125 Z M 15.40625 -46.421875 C 13.5 -46.421875 12.546875 -47.335938 12.546875 -49.171875 C 12.546875 -51.222656 13.5 -52.25 15.40625 -52.25 C 17.382812 -52.25 18.375 -51.257812 18.375 -49.28125 C 18.375 -47.375 17.382812 -46.421875 15.40625 -46.421875 Z M 50.046875 -46.421875 C 48.066406 -46.421875 47.078125 -47.375 47.078125 -49.28125 C 47.078125 -51.257812 48.066406 -52.25 50.046875 -52.25 C 51.878906 -52.25 52.796875 -51.257812 52.796875 -49.28125 C 52.796875 -47.375 51.878906 -46.421875 50.046875 -46.421875 Z M 55.21875 -38.390625 C 53.3125 -38.390625 52.359375 -39.378906 52.359375 -41.359375 C 52.359375 -43.265625 53.347656 -44.21875 55.328125 -44.21875 C 57.234375 -44.21875 58.1875 -43.265625 58.1875 -41.359375 C 58.1875 -39.378906 57.195312 -38.390625 55.21875 -38.390625 Z M 10.234375 -38.390625 C 8.179688 -38.390625 7.15625 -39.378906 7.15625 -41.359375 C 7.15625 -43.265625 8.144531 -44.21875 10.125 -44.21875 C 12.03125 -44.21875 12.984375 -43.265625 12.984375 -41.359375 C 12.984375 -39.378906 12.066406 -38.390625 10.234375 -38.390625 Z M 8.25 -29.15625 C 6.269531 -29.15625 5.28125 -30.109375 5.28125 -32.015625 C 5.28125 -33.921875 6.269531 -34.875 8.25 -34.875 C 10.15625 -34.875 11.109375 -33.921875 11.109375 -32.015625 C 11.109375 -30.109375 10.15625 -29.15625 8.25 -29.15625 Z M 57.3125 -29.15625 C 55.332031 -29.15625 54.34375 -30.109375 54.34375 -32.015625 C 54.34375 -33.921875 55.332031 -34.875 57.3125 -34.875 C 59.144531 -34.875 60.0625 -33.921875 60.0625 -32.015625 C 60.0625 -30.109375 59.144531 -29.15625 57.3125 -29.15625 Z M 10.125 -19.796875 C 8.144531 -19.796875 7.15625 -20.75 7.15625 -22.65625 C 7.15625 -24.632812 8.144531 -25.625 10.125 -25.625 C 12.03125 -25.625 12.984375 -24.632812 12.984375 -22.65625 C 12.984375 -20.75 12.03125 -19.796875 10.125 -19.796875 Z M 55.21875 -19.796875 C 53.3125 -19.796875 52.359375 -20.75 52.359375 -22.65625 C 52.359375 -24.632812 53.3125 -25.625 55.21875 -25.625 C 57.195312 -25.625 58.1875 -24.632812 58.1875 -22.65625 C 58.1875 -20.75 57.195312 -19.796875 55.21875 -19.796875 Z M 15.40625 -11.765625 C 13.5 -11.765625 12.546875 -12.71875 12.546875 -14.625 C 12.546875 -16.601562 13.5 -17.59375 15.40625 -17.59375 C 17.382812 -17.59375 18.375 -16.601562 18.375 -14.625 C 18.375 -12.71875 17.382812 -11.765625 15.40625 -11.765625 Z M 50.046875 -11.765625 C 48.066406 -11.765625 47.078125 -12.71875 47.078125 -14.625 C 47.078125 -16.601562 48.066406 -17.59375 50.046875 -17.59375 C 51.878906 -17.59375 52.796875 -16.601562 52.796875 -14.625 C 52.796875 -12.71875 51.878906 -11.765625 50.046875 -11.765625 Z M 23.3125 -6.59375 C 21.40625 -6.59375 20.453125 -7.507812 20.453125 -9.34375 C 20.453125 -11.320312 21.40625 -12.3125 23.3125 -12.3125 C 25.300781 -12.3125 26.296875 -11.394531 26.296875 -9.5625 C 26.296875 -7.582031 25.300781 -6.59375 23.3125 -6.59375 Z M 42.125 -6.59375 C 40.070312 -6.59375 39.046875 -7.507812 39.046875 -9.34375 C 39.046875 -11.320312 40.070312 -12.3125 42.125 -12.3125 C 43.957031 -12.3125 44.875 -11.320312 44.875 -9.34375 C 44.875 -7.507812 43.957031 -6.59375 42.125 -6.59375 Z M 32.671875 -4.625 C 30.765625 -4.625 29.8125 -5.613281 29.8125 -7.59375 C 29.8125 -9.5 30.765625 -10.453125 32.671875 -10.453125 C 34.578125 -10.453125 35.53125 -9.5 35.53125 -7.59375 C 35.53125 -5.613281 34.578125 -4.625 32.671875 -4.625 Z M 32.671875 -4.625 "/>
</symbol>
<symbol overflow="visible" id="mongolian-medi:id0:glyph0-2">
<path style="stroke:none;" d="M 0 -40.046875 L 0 -48.84375 L 20.6875 -48.84375 L 20.6875 -40.046875 Z M 0 -40.046875 "/>
</symbol>
<symbol overflow="visible" id="mongolian-medi:id0:glyph0-3">
<path style="stroke:none;" d="M 48.734375 -8.03125 C 47.921875 -12.351562 46.925781 -17.0625 45.75 -22.15625 C 44.582031 -27.257812 43.335938 -32.394531 42.015625 -37.5625 C 40.703125 -42.726562 39.347656 -47.675781 37.953125 -52.40625 C 36.554688 -57.144531 35.195312 -61.3125 33.875 -64.90625 L 33.4375 -64.90625 C 32.414062 -59.769531 31.171875 -54.960938 29.703125 -50.484375 C 28.234375 -46.085938 26.398438 -42.914062 24.203125 -40.96875 C 22.003906 -39.03125 18.882812 -38.0625 14.84375 -38.0625 C 11.40625 -38.0625 8.109375 -38.976562 4.953125 -40.8125 L 4.953125 -49.0625 C 8.253906 -47.664062 11.367188 -46.96875 14.296875 -46.96875 C 17.304688 -46.96875 19.597656 -48.394531 21.171875 -51.25 C 22.753906 -54.113281 24.019531 -57.523438 24.96875 -61.484375 L 28.375 -76.34375 L 12.546875 -76.34375 L 12.546875 -83.15625 L 54.890625 -83.15625 L 54.890625 -76.34375 L 38.71875 -76.34375 C 40.257812 -71.71875 41.722656 -67.113281 43.109375 -62.53125 C 44.503906 -57.945312 45.828125 -53.382812 47.078125 -48.84375 L 78.203125 -48.84375 L 78.203125 -40.046875 L 49.5 -40.046875 C 51.40625 -32.410156 52.976562 -25.914062 54.21875 -20.5625 C 55.46875 -15.21875 56.425781 -11.039062 57.09375 -8.03125 Z M 48.734375 -8.03125 "/>
</symbol>
</g>
<g>
<symbol overflow="visible" id="mongolian-medi:id1:glyph0-0">
<path style="stroke:none;" d="M 5.375 -96.6875 L 69.828125 -96.6875 L 69.828125 0 L 5.375 0 Z M 8.0625 -2.6875 L 67.140625 -2.6875 L 67.140625 -94 L 8.0625 -94 Z M 8.0625 -2.6875 "/>
</symbol>
<symbol overflow="visible" id="mongolian-medi:id1:glyph0-1">
<path style="stroke:none;" d="M 68.15625 -13.75 L 66.28125 -18.640625 L 88.09375 -27.390625 L 6.984375 -27.390625 L 6.984375 -34 L 88.09375 -34 L 66.28125 -42.75 L 68.15625 -47.640625 L 99.09375 -34.265625 L 99.09375 -27.125 Z M 68.15625 -13.75 "/>
</symbol>
</g>
<g>
<symbol overflow="visible" id="mongolian-medi:id2:glyph0-0">
<path style="stroke:none;" d="M 10.34375 0 L 10.34375 -78.546875 L 55.546875 -78.546875 L 55.546875 0 Z M 15.953125 -5.609375 L 49.9375 -5.609375 L 49.9375 -72.9375 L 15.953125 -72.9375 Z M 15.953125 -5.609375 "/>
</symbol>
<symbol overflow="visible" id="mongolian-medi:id2:glyph0-1">
<path style="stroke:none;" d="M 32.671875 -53.5625 C 30.765625 -53.5625 29.8125 -54.554688 29.8125 -56.546875 C 29.8125 -58.453125 30.765625 -59.40625 32.671875 -59.40625 C 34.578125 -59.40625 35.53125 -58.453125 35.53125 -56.546875 C 35.53125 -54.554688 34.578125 -53.5625 32.671875 -53.5625 Z M 23.3125 -51.703125 C 21.40625 -51.703125 20.453125 -52.65625 20.453125 -54.5625 C 20.453125 -56.539062 21.40625 -57.53125 23.3125 -57.53125 C 25.300781 -57.53125 26.296875 -56.539062 26.296875 -54.5625 C 26.296875 -52.65625 25.300781 -51.703125 23.3125 -51.703125 Z M 42.125 -51.703125 C 40.070312 -51.703125 39.046875 -52.65625 39.046875 -54.5625 C 39.046875 -56.539062 40.070312 -57.53125 42.125 -57.53125 C 43.957031 -57.53125 44.875 -56.539062 44.875 -54.5625 C 44.875 -52.65625 43.957031 -51.703125 42.125 -51.703125 Z M 15.40625 -46.421875 C 13.5 -46.421875 12.546875 -47.335938 12.546875 -49.171875 C 12.546875 -51.222656 13.5 -52.25 15.40625 -52.25 C 17.382812 -52.25 18.375 -51.257812 18.375 -49.28125 C 18.375 -47.375 17.382812 -46.421875 15.40625 -46.421875 Z M 50.046875 -46.421875 C 48.066406 -46.421875 47.078125 -47.375 47.078125 -49.28125 C 47.078125 -51.257812 48.066406 -52.25 50.046875 -52.25 C 51.878906 -52.25 52.796875 -51.257812 52.796875 -49.28125 C 52.796875 -47.375 51.878906 -46.421875 50.046875 -46.421875 Z M 55.21875 -38.390625 C 53.3125 -38.390625 52.359375 -39.378906 52.359375 -41.359375 C 52.359375 -43.265625 53.347656 -44.21875 55.328125 -44.21875 C 57.234375 -44.21875 58.1875 -43.265625 58.1875 -41.359375 C 58.1875 -39.378906 57.195312 -38.390625 55.21875 -38.390625 Z M 10.234375 -38.390625 C 8.179688 -38.390625 7.15625 -39.378906 7.15625 -41.359375 C 7.15625 -43.265625 8.144531 -44.21875 10.125 -44.21875 C 12.03125 -44.21875 12.984375 -43.265625 12.984375 -41.359375 C 12.984375 -39.378906 12.066406 -38.390625 10.234375 -38.390625 Z M 8.25 -29.15625 C 6.269531 -29.15625 5.28125 -30.109375 5.28125 -32.015625 C 5.28125 -33.921875 6.269531 -34.875 8.25 -34.875 C 10.15625 -34.875 11.109375 -33.921875 11.109375 -32.015625 C 11.109375 -30.109375 10.15625 -29.15625 8.25 -29.15625 Z M 57.3125 -29.15625 C 55.332031 -29.15625 54.34375 -30.109375 54.34375 -32.015625 C 54.34375 -33.921875 55.332031 -34.875 57.3125 -34.875 C 59.144531 -34.875 60.0625 -33.921875 60.0625 -32.015625 C 60.0625 -30.109375 59.144531 -29.15625 57.3125 -29.15625 Z M 10.125 -19.796875 C 8.144531 -19.796875 7.15625 -20.75 7.15625 -22.65625 C 7.15625 -24.632812 8.144531 -25.625 10.125 -25.625 C 12.03125 -25.625 12.984375 -24.632812 12.984375 -22.65625 C 12.984375 -20.75 12.03125 -19.796875 10.125 -19.796875 Z M 55.21875 -19.796875 C 53.3125 -19.796875 52.359375 -20.75 52.359375 -22.65625 C 52.359375 -24.632812 53.3125 -25.625 55.21875 -25.625 C 57.195312 -25.625 58.1875 -24.632812 58.1875 -22.65625 C 58.1875 -20.75 57.195312 -19.796875 55.21875 -19.796875 Z M 15.40625 -11.765625 C 13.5 -11.765625 12.546875 -12.71875 12.546875 -14.625 C 12.546875 -16.601562 13.5 -17.59375 15.40625 -17.59375 C 17.382812 -17.59375 18.375 -16.601562 18.375 -14.625 C 18.375 -12.71875 17.382812 -11.765625 15.40625 -11.765625 Z M 50.046875 -11.765625 C 48.066406 -11.765625 47.078125 -12.71875 47.078125 -14.625 C 47.078125 -16.601562 48.066406 -17.59375 50.046875 -17.59375 C 51.878906 -17.59375 52.796875 -16.601562 52.796875 -14.625 C 52.796875 -12.71875 51.878906 -11.765625 50.046875 -11.765625 Z M 23.3125 -6.59375 C 21.40625 -6.59375 20.453125 -7.507812 20.453125 -9.34375 C 20.453125 -11.320312 21.40625 -12.3125 23.3125 -12.3125 C 25.300781 -12.3125 26.296875 -11.394531 26.296875 -9.5625 C 26.296875 -7.582031 25.300781 -6.59375 23.3125 -6.59375 Z M 42.125 -6.59375 C 40.070312 -6.59375 39.046875 -7.507812 39.046875 -9.34375 C 39.046875 -11.320312 40.070312 -12.3125 42.125 -12.3125 C 43.957031 -12.3125 44.875 -11.320312 44.875 -9.34375 C 44.875 -7.507812 43.957031 -6.59375 42.125 -6.59375 Z M 32.671875 -4.625 C 30.765625 -4.625 29.8125 -5.613281 29.8125 -7.59375 C 29.8125 -9.5 30.765625 -10.453125 32.671875 -10.453125 C 34.578125 -10.453125 35.53125 -9.5 35.53125 -7.59375 C 35.53125 -5.613281 34.578125 -4.625 32.671875 -4.625 Z M 32.671875 -4.625 "/>
</symbol>
<symbol overflow="visible" id="mongolian-medi:id2:glyph0-2">
<path style="stroke:none;" d="M 0 -40.046875 L 0 -48.84375 L 20.6875 -48.84375 L 20.6875 -40.046875 Z M 0 -40.046875 "/>
</symbol>
<symbol overflow="visible" id="mongolian-medi:id2:glyph0-3">
<path style="stroke:none;" d="M 3.078125 -8.03125 C 2.492188 -11.1875 1.960938 -14.632812 1.484375 -18.375 C 1.003906 -22.113281 0.632812 -25.851562 0.375 -29.59375 C 0.125 -33.332031 0 -36.816406 0 -40.046875 L 0 -48.84375 L 5.5 -48.84375 C 8.0625 -58.226562 12.164062 -67.394531 17.8125 -76.34375 L 4.1875 -76.34375 L 4.1875 -83.15625 L 46.53125 -83.15625 L 46.53125 -76.34375 L 28.9375 -76.34375 C 29.15625 -66.582031 30.144531 -57.414062 31.90625 -48.84375 L 67.203125 -48.84375 L 67.203125 -40.046875 L 33.875 -40.046875 C 36.664062 -29.484375 40.738281 -18.8125 46.09375 -8.03125 L 36.734375 -8.03125 C 33.734375 -14.550781 31.222656 -20.910156 29.203125 -27.109375 C 27.191406 -33.304688 25.597656 -39.628906 24.421875 -46.078125 C 23.242188 -52.535156 22.289062 -59.429688 21.5625 -66.765625 L 21.125 -66.765625 C 17.164062 -59.359375 14.359375 -52.078125 12.703125 -44.921875 C 11.054688 -37.773438 10.234375 -30.097656 10.234375 -21.890625 C 10.234375 -16.316406 10.671875 -11.695312 11.546875 -8.03125 Z M 3.078125 -8.03125 "/>
</symbol>
</g>
</defs>
  <g id="mongolian-medi:id0:id0" transform="matrix(1.25,0,0,1.25,0.0,0.0)"><g id="mongolian-medi:id0:surface1">
<g style="fill:rgb(0%,0%,0%);fill-opacity:1;">
  <use xlink:href="#mongolian-medi:id0:glyph0-1" x="16" y="162.265625" class="dc"/>
  <use xlink:href="#mongolian-medi:id0:glyph0-2" x="81.34375" y="162.265625" class="c0"/>
  <use xlink:href="#mongolian-medi:id0:glyph0-3" x="99.828125" y="162.265625" class="c1"/>
  <use xlink:href="#mongolian-medi:id0:glyph0-2" x="182.984375" y="162.265625" class="c2"/>
  <use xlink:href="#mongolian-medi:id0:glyph0-1" x="201.46875" y="162.265625" class="dc"/>
</g>
</g>
</g>
  <g id="mongolian-medi:id1:id1" transform="matrix(1.25,0,0,1.25,353.515625,22.109375)"><g id="mongolian-medi:id1:surface1">
<g style="fill:rgb(0%,0%,0%);fill-opacity:1;">
  <use xlink:href="#mongolian-medi:id1:glyph0-1" x="0" y="120.84375" class="arrow"/>
</g>
</g>
</g>
  <g id="mongolian-medi:id2:id2" transform="matrix(1.25,0,0,1.25,486.11328125,0.0)"><g id="mongolian-medi:id2:surface1">
<g style="fill:rgb(0%,0%,0%);fill-opacity:1;">
  <use xlink:href="#mongolian-medi:id2:glyph0-1" x="16" y="162.265625" class="dc"/>
  <use xlink:href="#mongolian-medi:id2:glyph0-2" x="81.34375" y="162.265625" class="c0"/>
  <use xlink:href="#mongolian-medi:id2:glyph0-3" x="99.828125" y="162.265625" class="c1"/>
  <use xlink:href="#mongolian-medi:id2:glyph0-2" x="163.734375" y="162.265625" class="c2"/>
  <use xlink:href="#mongolian-medi:id2:glyph0-1" x="182.21875" y="162.265625" class="dc"/>
</g>
</g>
</g>
</svg>