<!DOCTYPE svg PUBLIC "-//W3C//DTD SVG 1.1//EN" "http://www.w3.org/Graphics/SVG/1.1/DTD/svg11.dtd">
<!-- Created with svg_stack (http://github.com/astraw/svg_stack) --><svg xmlns="http://www.w3.org/2000/svg" xmlns:sodipodi="http://sodipodi.sourceforge.net/DTD/sodipodi-0.dtd" xmlns:xlink="http://www.w3.org/1999/xlink" version="1.1" width="477.44140625" height="201.40625" id="tamil-abvs">
  <defs><g>
<symbol overflow="visible" id="tamil-abvs:id0:glyph0-0">
<path style="stroke:none;" d="M 10.34375 0 L 10.34375 -78.546875 L 55.546875 -78.546875 L 55.546875 0 Z M 15.953125 -5.609375 L 49.9375 -5.609375 L 49.9375 -72.9375 L 15.953125 -72.9375 Z M 15.953125 -5.609375 "/>
</symbol>
<symbol overflow="visible" id="tamil-abvs:id0:glyph0-1">
<path style="stroke:none;" d="M 26.40625 1.203125 C 21.125 1.203125 17.050781 -0.515625 14.1875 -3.953125 C 13.382812 -5.054688 12.632812 -6.304688 11.9375 -7.703125 C 11.238281 -9.097656 10.6875 -10.929688 10.28125 -13.203125 C 9.882812 -15.472656 9.6875 -18.476562 9.6875 -22.21875 L 9.6875 -60.9375 L 19.140625 -60.9375 L 19.140625 -24.53125 C 19.140625 -21.15625 19.285156 -18.09375 19.578125 -15.34375 C 19.867188 -12.59375 20.75 -10.484375 22.21875 -9.015625 C 22.945312 -8.285156 23.804688 -7.71875 24.796875 -7.3125 C 25.796875 -6.90625 26.988281 -6.703125 28.375 -6.703125 C 30.351562 -6.703125 32.222656 -7.175781 33.984375 -8.125 C 35.742188 -9.082031 37.394531 -10.628906 38.9375 -12.765625 L 38.9375 -60.9375 L 48.40625 -60.9375 L 48.40625 -7.921875 L 86.796875 -7.921875 L 86.796875 -60.9375 L 96.25 -60.9375 L 96.25 0 L 38.9375 0 L 38.9375 -3.84375 C 37.539062 -2.53125 35.816406 -1.359375 33.765625 -0.328125 C 31.710938 0.691406 29.257812 1.203125 26.40625 1.203125 Z M 26.40625 1.203125 "/>
</symbol>
<symbol overflow="visible" id="tamil-abvs:id0:glyph0-2">
<path style="stroke:none;" d="M -18.484375 -92.734375 C -12.171875 -92.734375 -7.363281 -91.46875 -4.0625 -88.9375 C -0.769531 -86.40625 0.875 -83.085938 0.875 -78.984375 C 0.875 -74.359375 -0.515625 -70.925781 -3.296875 -68.6875 C -6.085938 -66.457031 -9.5 -65.34375 -13.53125 -65.34375 C -17.78125 -65.34375 -21.1875 -66.421875 -23.75 -68.578125 C -26.320312 -70.742188 -27.609375 -73.734375 -27.609375 -77.546875 C -27.609375 -78.578125 -27.5 -79.734375 -27.28125 -81.015625 C -27.0625 -82.296875 -26.65625 -83.597656 -26.0625 -84.921875 C -30.320312 -83.742188 -33.457031 -81.707031 -35.46875 -78.8125 C -37.488281 -75.914062 -38.5 -72.597656 -38.5 -68.859375 C -38.5 -66.804688 -38.238281 -64.953125 -37.71875 -63.296875 C -37.207031 -61.648438 -36.515625 -60.164062 -35.640625 -58.84375 L -44.875 -58.1875 C -45.539062 -59.65625 -46.054688 -61.269531 -46.421875 -63.03125 C -46.785156 -64.789062 -46.96875 -66.660156 -46.96875 -68.640625 C -46.96875 -72.960938 -45.957031 -76.9375 -43.9375 -80.5625 C -41.925781 -84.195312 -38.8125 -87.132812 -34.59375 -89.375 C -30.375 -91.613281 -25.003906 -92.734375 -18.484375 -92.734375 Z M -20.34375 -79.09375 C -20.34375 -76.59375 -19.703125 -74.8125 -18.421875 -73.75 C -17.140625 -72.6875 -15.507812 -72.15625 -13.53125 -72.15625 C -11.40625 -72.15625 -9.753906 -72.742188 -8.578125 -73.921875 C -7.398438 -75.097656 -6.8125 -76.601562 -6.8125 -78.4375 C -6.8125 -81 -7.835938 -82.863281 -9.890625 -84.03125 C -11.953125 -85.207031 -14.59375 -85.796875 -17.8125 -85.796875 C -17.96875 -85.796875 -18.117188 -85.796875 -18.265625 -85.796875 C -18.992188 -84.703125 -19.519531 -83.582031 -19.84375 -82.4375 C -20.175781 -81.300781 -20.34375 -80.1875 -20.34375 -79.09375 Z M -20.34375 -79.09375 "/>
</symbol>
</g>
<g>
<symbol overflow="visible" id="tamil-abvs:id1:glyph0-0">
<path style="stroke:none;" d="M 5.375 -96.6875 L 69.828125 -96.6875 L 69.828125 0 L 5.375 0 Z M 8.0625 -2.6875 L 67.140625 -2.6875 L 67.140625 -94 L 8.0625 -94 Z M 8.0625 -2.6875 "/>
</symbol>
<symbol overflow="visible" id="tamil-abvs:id1:glyph0-1">
<path style="stroke:none;" d="M 68.15625 -13.75 L 66.28125 -18.640625 L 88.09375 -27.390625 L 6.984375 -27.390625 L 6.984375 -34 L 88.09375 -34 L 66.28125 -42.75 L 68.15625 -47.640625 L 99.09375 -34.265625 L 99.09375 -27.125 Z M 68.15625 -13.75 "/>
</symbol>
</g>
<g>
<symbol overflow="visible" id="tamil-abvs:id2:glyph0-0">
<path style="stroke:none;" d="M 10.34375 0 L 10.34375 -78.546875 L 55.546875 -78.546875 L 55.546875 0 Z M 15.953125 -5.609375 L 49.9375 -5.609375 L 49.9375 -72.9375 L 15.953125 -72.9375 Z M 15.953125 -5.609375 "/>
</symbol>
<symbol overflow="visible" id="tamil-abvs:id2:glyph0-1">
<path style="stroke:none;" d="M 26.40625 1.203125 C 21.125 1.203125 17.050781 -0.515625 14.1875 -3.953125 C 13.382812 -5.054688 12.632812 -6.304688 11.9375 -7.703125 C 11.238281 -9.097656 10.6875 -10.929688 10.28125 -13.203125 C 9.882812 -15.472656 9.6875 -18.476562 9.6875 -22.21875 L 9.6875 -60.9375 L 19.140625 -60.9375 L 19.140625 -24.53125 C 19.140625 -21.15625 19.285156 -18.09375 19.578125 -15.34375 C 19.867188 -12.59375 20.75 -10.484375 22.21875 -9.015625 C 22.945312 -8.285156 23.804688 -7.71875 24.796875 -7.3125 C 25.796875 -6.90625 26.988281 -6.703125 28.375 -6.703125 C 30.351562 -6.703125 32.222656 -7.175781 33.984375 -8.125 C 35.742188 -9.082031 37.394531 -10.628906 38.9375 -12.765625 L 38.9375 -60.9375 L 48.40625 -60.9375 L 48.40625 -7.921875 L 86.796875 -7.921875 L 86.796875 -42.90625 C 81.660156 -43.414062 76.984375 -44.675781 72.765625 -46.6875 C 68.546875 -48.707031 65.171875 -51.515625 62.640625 -55.109375 C 60.109375 -58.703125 58.84375 -63.175781 58.84375 -68.53125 C 58.84375 -72.851562 59.832031 -76.847656 61.8125 -80.515625 C 63.800781 -84.179688 66.882812 -87.132812 71.0625 -89.375 C 75.238281 -91.613281 80.554688 -92.734375 87.015625 -92.734375 C 93.242188 -92.734375 97.988281 -91.46875 101.25 -88.9375 C 104.519531 -86.40625 106.15625 -83.085938 106.15625 -78.984375 C 106.15625 -74.359375 104.742188 -70.925781 101.921875 -68.6875 C 99.097656 -66.457031 95.703125 -65.34375 91.734375 -65.34375 C 87.484375 -65.34375 84.070312 -66.421875 81.5 -68.578125 C 78.9375 -70.742188 77.65625 -73.734375 77.65625 -77.546875 C 77.65625 -78.578125 77.765625 -79.710938 77.984375 -80.953125 C 78.203125 -82.203125 78.609375 -83.453125 79.203125 -84.703125 C 75.171875 -83.523438 72.179688 -81.503906 70.234375 -78.640625 C 68.285156 -75.785156 67.3125 -72.523438 67.3125 -68.859375 C 67.3125 -64.535156 68.300781 -61.109375 70.28125 -58.578125 C 72.269531 -56.046875 74.765625 -54.191406 77.765625 -53.015625 C 80.773438 -51.847656 83.785156 -51.078125 86.796875 -50.703125 L 86.796875 -60.9375 L 96.25 -60.9375 L 96.25 0 L 38.9375 0 L 38.9375 -3.84375 C 37.539062 -2.53125 35.816406 -1.359375 33.765625 -0.328125 C 31.710938 0.691406 29.257812 1.203125 26.40625 1.203125 Z M 84.921875 -79.09375 C 84.921875 -76.59375 85.5625 -74.8125 86.84375 -73.75 C 88.125 -72.6875 89.753906 -72.15625 91.734375 -72.15625 C 93.867188 -72.15625 95.519531 -72.742188 96.6875 -73.921875 C 97.863281 -75.097656 98.453125 -76.601562 98.453125 -78.4375 C 98.453125 -81 97.425781 -82.863281 95.375 -84.03125 C 93.320312 -85.207031 90.679688 -85.796875 87.453125 -85.796875 C 87.304688 -85.796875 87.160156 -85.796875 87.015625 -85.796875 C 86.273438 -84.703125 85.738281 -83.582031 85.40625 -82.4375 C 85.082031 -81.300781 84.921875 -80.1875 84.921875 -79.09375 Z M 84.921875 -79.09375 "/>
</symbol>
</g>
</defs>
  <g id="tamil-abvs:id0:id0" transform="matrix(1.25,0,0,1.25,0.0,12.94921875)"><g id="tamil-abvs:id0:surface1">
<g style="fill:rgb(0%,0%,0%);fill-opacity:1;">
  <use xlink:href="#tamil-abvs:id0:glyph0-1" x="16" y="97.703125" class="c0"/>
  <use xlink:href="#tamil-abvs:id0:glyph0-2" x="121.9375" y="97.703125" class="c1"/>
</g>
</g>
</g>
  <g id="tamil-abvs:id1:id1" transform="matrix(1.25,0,0,1.25,172.421875,0.0)"><g id="tamil-abvs:id1:surface1">
<g style="fill:rgb(0%,0%,0%);fill-opacity:1;">
  <use xlink:href="#tamil-abvs:id1:glyph0-1" x="0" y="120.84375" class="arrow"/>
</g>
</g>
</g>
  <g id="tamil-abvs:id2:id2" transform="matrix(1.25,0,0,1.25,305.01953125,12.94921875)"><g id="tamil-abvs:id2:surface1">
<g style="fill:rgb(0%,0%,0%);fill-opacity:1;">
  <use xlink:href="#tamil-abvs:id2:glyph0-1" x="16" y="97.703125" class="c2"/>
</g>
</g>
</g>
</svg>
