<!DOCTYPE svg PUBLIC "-//W3C//DTD SVG 1.1//EN" "http://www.w3.org/Graphics/SVG/1.1/DTD/svg11.dtd">
<!-- Created with svg_stack (http://github.com/astraw/svg_stack) --><svg xmlns="http://www.w3.org/2000/svg" xmlns:sodipodi="http://sodipodi.sourceforge.net/DTD/sodipodi-0.dtd" xmlns:xlink="http://www.w3.org/1999/xlink" version="1.1" width="100%" id="tamil-akhn-kssa" viewBox="0 0 784.31640625 219.6484375">
  <defs><g>
<symbol overflow="visible" id="tamil-akhn-kssa:id0:glyph0-0">
<path style="stroke:none;" d="M 10.34375 -0.546875 L 10.34375 -79.09375 L 55.546875 -79.09375 L 55.546875 -0.546875 Z M 15.953125 -6.15625 L 49.9375 -6.15625 L 49.9375 -73.484375 L 15.953125 -73.484375 Z M 15.953125 -6.15625 "/>
</symbol>
<symbol overflow="visible" id="tamil-akhn-kssa:id0:glyph0-1">
<path style="stroke:none;" d="M 30.578125 0.4375 C 26.253906 0.4375 22.296875 -0.289062 18.703125 -1.75 C 15.109375 -3.21875 12.25 -5.304688 10.125 -8.015625 C 8 -10.734375 6.9375 -14 6.9375 -17.8125 C 6.9375 -22.070312 8.21875 -25.648438 10.78125 -28.546875 C 13.34375 -31.441406 16.898438 -33.363281 21.453125 -34.3125 L 21.453125 -60.9375 L 75.796875 -60.9375 L 75.796875 -55 L 56.546875 -55 L 56.546875 -34.875 L 61.484375 -34.875 C 69.484375 -34.875 75.8125 -33.3125 80.46875 -30.1875 C 85.125 -27.070312 87.453125 -22.546875 87.453125 -16.609375 C 87.453125 -13.015625 86.550781 -9.953125 84.75 -7.421875 C 82.957031 -4.890625 80.539062 -2.984375 77.5 -1.703125 C 74.457031 -0.421875 71.023438 0.21875 67.203125 0.21875 L 61.046875 0.21875 L 61.046875 -5.609375 L 65.234375 -5.609375 C 68.828125 -5.609375 71.6875 -6.6875 73.8125 -8.84375 C 75.9375 -11.007812 77 -13.707031 77 -16.9375 C 77 -21.039062 75.566406 -24.066406 72.703125 -26.015625 C 69.847656 -27.960938 66.144531 -28.9375 61.59375 -28.9375 L 56.546875 -28.9375 L 56.546875 -22 C 56.546875 -17.601562 55.515625 -13.71875 53.453125 -10.34375 C 51.398438 -6.96875 48.445312 -4.328125 44.59375 -2.421875 C 40.75 -0.515625 36.078125 0.4375 30.578125 0.4375 Z M 46.09375 -55 L 28.15625 -55 L 28.15625 -34.875 L 46.09375 -34.875 Z M 29.703125 -5.390625 C 32.703125 -5.390625 35.429688 -5.9375 37.890625 -7.03125 C 40.347656 -8.132812 42.328125 -9.820312 43.828125 -12.09375 C 45.335938 -14.375 46.09375 -17.273438 46.09375 -20.796875 L 46.09375 -28.9375 L 28.484375 -28.9375 C 24.015625 -28.9375 20.492188 -27.90625 17.921875 -25.84375 C 15.359375 -23.789062 14.078125 -21.039062 14.078125 -17.59375 C 14.078125 -13.5625 15.613281 -10.519531 18.6875 -8.46875 C 21.769531 -6.414062 25.441406 -5.390625 29.703125 -5.390625 Z M 29.703125 -5.390625 "/>
</symbol>
<symbol overflow="visible" id="tamil-akhn-kssa:id0:glyph0-2">
<path style="stroke:none;" d="M 0 -70.0625 C -1.832031 -70.0625 -3.40625 -70.722656 -4.71875 -72.046875 C -6.039062 -73.367188 -6.703125 -74.910156 -6.703125 -76.671875 C -6.703125 -78.429688 -6.039062 -79.96875 -4.71875 -81.28125 C -3.40625 -82.601562 -1.832031 -83.265625 0 -83.265625 C 1.90625 -83.265625 3.5 -82.601562 4.78125 -81.28125 C 6.0625 -79.96875 6.703125 -78.429688 6.703125 -76.671875 C 6.703125 -74.910156 6.0625 -73.367188 4.78125 -72.046875 C 3.5 -70.722656 1.90625 -70.0625 0 -70.0625 Z M 0 -70.0625 "/>
</symbol>
<symbol overflow="visible" id="tamil-akhn-kssa:id0:glyph0-3">
<path style="stroke:none;" d="M 30.6875 0.4375 C 26.582031 0.4375 22.675781 -0.550781 18.96875 -2.53125 C 15.269531 -4.507812 12.265625 -7.441406 9.953125 -11.328125 C 7.640625 -15.210938 6.484375 -20.015625 6.484375 -25.734375 C 6.484375 -33.285156 8.1875 -39.71875 11.59375 -45.03125 C 15.007812 -50.351562 19.6875 -54.425781 25.625 -57.25 C 31.570312 -60.070312 38.320312 -61.484375 45.875 -61.484375 C 51.15625 -61.484375 56.101562 -60.710938 60.71875 -59.171875 C 65.34375 -57.640625 69.394531 -55.425781 72.875 -52.53125 C 76.351562 -49.632812 79.082031 -46.1875 81.0625 -42.1875 C 83.050781 -38.1875 84.046875 -33.691406 84.046875 -28.703125 C 84.046875 -23.359375 83.015625 -18.8125 80.953125 -15.0625 C 78.898438 -11.320312 76.703125 -8.28125 74.359375 -5.9375 L 114.1875 -5.9375 L 114.1875 -24.203125 C 108.09375 -24.929688 103.082031 -27.109375 99.15625 -30.734375 C 95.238281 -34.367188 93.28125 -39.34375 93.28125 -45.65625 C 93.28125 -50.488281 94.691406 -54.332031 97.515625 -57.1875 C 100.335938 -60.050781 104.425781 -61.484375 109.78125 -61.484375 C 114.25 -61.484375 117.835938 -60.125 120.546875 -57.40625 C 123.265625 -54.695312 124.625 -51.398438 124.625 -47.515625 L 124.625 -30.140625 C 128.882812 -30.722656 132.753906 -31.910156 136.234375 -33.703125 C 139.710938 -35.503906 143.175781 -38.128906 146.625 -41.578125 L 151.140625 -38.609375 L 151.140625 0 L 124.625 0 L 124.625 32.5625 L 114.1875 32.5625 L 114.1875 0 L 66.546875 0 L 64.5625 -4.734375 C 66.914062 -6.929688 68.988281 -9.9375 70.78125 -13.75 C 72.582031 -17.5625 73.484375 -22.398438 73.484375 -28.265625 C 73.484375 -33.617188 72.195312 -38.332031 69.625 -42.40625 C 67.0625 -46.476562 63.597656 -49.6875 59.234375 -52.03125 C 54.867188 -54.375 49.9375 -55.546875 44.4375 -55.546875 C 38.132812 -55.546875 32.617188 -54.351562 27.890625 -51.96875 C 23.160156 -49.59375 19.472656 -46.148438 16.828125 -41.640625 C 14.191406 -37.128906 12.875 -31.71875 12.875 -25.40625 C 12.875 -22.550781 13.238281 -19.945312 13.96875 -17.59375 C 15.144531 -22.289062 17.566406 -26.101562 21.234375 -29.03125 C 24.898438 -31.96875 29.078125 -33.4375 33.765625 -33.4375 C 38.972656 -33.4375 43.0625 -31.878906 46.03125 -28.765625 C 49 -25.648438 50.484375 -21.5625 50.484375 -16.5 C 50.484375 -11.582031 48.664062 -7.53125 45.03125 -4.34375 C 41.40625 -1.15625 36.625 0.4375 30.6875 0.4375 Z M 99.328125 -45.546875 C 99.328125 -40.410156 100.679688 -36.648438 103.390625 -34.265625 C 106.109375 -31.878906 109.707031 -30.46875 114.1875 -30.03125 L 114.1875 -48.953125 C 114.1875 -51.078125 113.597656 -52.707031 112.421875 -53.84375 C 111.242188 -54.976562 109.628906 -55.546875 107.578125 -55.546875 C 104.867188 -55.546875 102.816406 -54.609375 101.421875 -52.734375 C 100.023438 -50.867188 99.328125 -48.472656 99.328125 -45.546875 Z M 140.578125 -5.9375 L 140.578125 -29.046875 C 137.867188 -27.429688 135.191406 -26.273438 132.546875 -25.578125 C 129.910156 -24.878906 127.269531 -24.421875 124.625 -24.203125 L 124.625 -5.9375 Z M 29.703125 -25.953125 C 26.328125 -25.953125 23.445312 -24.722656 21.0625 -22.265625 C 18.675781 -19.816406 17.226562 -16.316406 16.71875 -11.765625 C 18.257812 -9.640625 20.09375 -8.046875 22.21875 -6.984375 C 24.34375 -5.921875 26.539062 -5.390625 28.8125 -5.390625 C 32.476562 -5.390625 35.320312 -6.429688 37.34375 -8.515625 C 39.363281 -10.609375 40.375 -13.125 40.375 -16.0625 C 40.375 -18.550781 39.53125 -20.820312 37.84375 -22.875 C 36.15625 -24.925781 33.441406 -25.953125 29.703125 -25.953125 Z M 29.703125 -25.953125 "/>
</symbol>
</g>
<g>
<symbol overflow="visible" id="tamil-akhn-kssa:id1:glyph0-0">
<path style="stroke:none;" d="M 5.375 -96.6875 L 69.828125 -96.6875 L 69.828125 0 L 5.375 0 Z M 8.0625 -2.6875 L 67.140625 -2.6875 L 67.140625 -94 L 8.0625 -94 Z M 8.0625 -2.6875 "/>
</symbol>
<symbol overflow="visible" id="tamil-akhn-kssa:id1:glyph0-1">
<path style="stroke:none;" d="M 68.15625 -13.75 L 66.28125 -18.640625 L 88.09375 -27.390625 L 6.984375 -27.390625 L 6.984375 -34 L 88.09375 -34 L 66.28125 -42.75 L 68.15625 -47.640625 L 99.09375 -34.265625 L 99.09375 -27.125 Z M 68.15625 -13.75 "/>
</symbol>
</g>
<g>
<symbol overflow="visible" id="tamil-akhn-kssa:id2:glyph0-0">
<path style="stroke:none;" d="M 10.34375 -0.546875 L 10.34375 -79.09375 L 55.546875 -79.09375 L 55.546875 -0.546875 Z M 15.953125 -6.15625 L 49.9375 -6.15625 L 49.9375 -73.484375 L 15.953125 -73.484375 Z M 15.953125 -6.15625 "/>
</symbol>
<symbol overflow="visible" id="tamil-akhn-kssa:id2:glyph0-1">
<path style="stroke:none;" d="M 88.546875 0.546875 C 84.078125 0.546875 80.335938 -0.367188 77.328125 -2.203125 C 74.316406 -4.035156 72.078125 -6.472656 70.609375 -9.515625 C 69.148438 -12.554688 68.421875 -15.945312 68.421875 -19.6875 C 68.421875 -22.988281 69.007812 -26.070312 70.1875 -28.9375 L 56.546875 -28.9375 L 56.546875 -22 C 56.546875 -17.601562 55.515625 -13.71875 53.453125 -10.34375 C 51.398438 -6.96875 48.445312 -4.328125 44.59375 -2.421875 C 40.75 -0.515625 36.078125 0.4375 30.578125 0.4375 C 26.253906 0.4375 22.296875 -0.289062 18.703125 -1.75 C 15.109375 -3.21875 12.25 -5.304688 10.125 -8.015625 C 8 -10.734375 6.9375 -14 6.9375 -17.8125 C 6.9375 -22.070312 8.21875 -25.648438 10.78125 -28.546875 C 13.34375 -31.441406 16.898438 -33.363281 21.453125 -34.3125 L 21.453125 -60.9375 L 75.796875 -60.9375 L 75.796875 -55 L 56.546875 -55 L 56.546875 -34.875 L 73.59375 -34.875 C 76.519531 -38.613281 80.382812 -41.488281 85.1875 -43.5 C 90 -45.519531 95.226562 -46.53125 100.875 -46.53125 C 105.195312 -46.53125 109.316406 -45.90625 113.234375 -44.65625 C 117.160156 -43.414062 120.644531 -41.65625 123.6875 -39.375 C 126.738281 -37.101562 129.160156 -34.410156 130.953125 -31.296875 C 132.753906 -28.179688 133.65625 -24.753906 133.65625 -21.015625 C 133.65625 -18.148438 133.140625 -15.46875 132.109375 -12.96875 C 131.078125 -10.476562 129.460938 -8.132812 127.265625 -5.9375 L 161.484375 -5.9375 L 161.484375 -24.203125 C 155.390625 -24.929688 150.378906 -27.109375 146.453125 -30.734375 C 142.535156 -34.367188 140.578125 -39.34375 140.578125 -45.65625 C 140.578125 -50.488281 141.988281 -54.332031 144.8125 -57.1875 C 147.632812 -60.050781 151.722656 -61.484375 157.078125 -61.484375 C 161.554688 -61.484375 165.148438 -60.125 167.859375 -57.40625 C 170.578125 -54.695312 171.9375 -51.398438 171.9375 -47.515625 L 171.9375 -30.140625 C 176.1875 -30.722656 180.050781 -31.910156 183.53125 -33.703125 C 187.019531 -35.503906 190.488281 -38.128906 193.9375 -41.578125 L 198.4375 -38.609375 L 198.4375 0 L 171.9375 0 L 171.9375 32.5625 L 161.484375 32.5625 L 161.484375 0 L 118.6875 0 L 116.703125 -4.734375 C 118.984375 -6.859375 120.65625 -9.257812 121.71875 -11.9375 C 122.78125 -14.613281 123.3125 -17.414062 123.3125 -20.34375 C 123.3125 -26.726562 121.09375 -31.71875 116.65625 -35.3125 C 112.21875 -38.90625 106.441406 -40.703125 99.328125 -40.703125 C 92.140625 -40.703125 86.3125 -38.757812 81.84375 -34.875 C 86.75 -34.726562 91.109375 -33.957031 94.921875 -32.5625 C 98.742188 -31.164062 101.734375 -29.09375 103.890625 -26.34375 C 106.054688 -23.59375 107.140625 -20.09375 107.140625 -15.84375 C 107.140625 -12.757812 106.332031 -9.96875 104.71875 -7.46875 C 103.101562 -4.976562 100.898438 -3.019531 98.109375 -1.59375 C 95.328125 -0.164062 92.140625 0.546875 88.546875 0.546875 Z M 146.625 -45.546875 C 146.625 -40.410156 147.976562 -36.648438 150.6875 -34.265625 C 153.40625 -31.878906 157.003906 -30.46875 161.484375 -30.03125 L 161.484375 -48.953125 C 161.484375 -51.078125 160.894531 -52.707031 159.71875 -53.84375 C 158.539062 -54.976562 156.925781 -55.546875 154.875 -55.546875 C 152.164062 -55.546875 150.113281 -54.609375 148.71875 -52.734375 C 147.320312 -50.867188 146.625 -48.472656 146.625 -45.546875 Z M 46.09375 -55 L 28.15625 -55 L 28.15625 -34.875 L 46.09375 -34.875 Z M 187.875 -5.9375 L 187.875 -28.9375 C 185.164062 -27.394531 182.488281 -26.273438 179.84375 -25.578125 C 177.207031 -24.878906 174.570312 -24.421875 171.9375 -24.203125 L 171.9375 -5.9375 Z M 29.703125 -5.390625 C 32.703125 -5.390625 35.429688 -5.921875 37.890625 -6.984375 C 40.347656 -8.046875 42.328125 -9.710938 43.828125 -11.984375 C 45.335938 -14.265625 46.09375 -17.203125 46.09375 -20.796875 L 46.09375 -28.9375 L 28.484375 -28.9375 C 23.796875 -28.9375 20.164062 -27.90625 17.59375 -25.84375 C 15.03125 -23.789062 13.75 -21.039062 13.75 -17.59375 C 13.75 -13.414062 15.285156 -10.335938 18.359375 -8.359375 C 21.441406 -6.378906 25.222656 -5.390625 29.703125 -5.390625 Z M 75.125 -18.921875 C 75.125 -15.328125 76.078125 -12.171875 77.984375 -9.453125 C 79.890625 -6.742188 82.75 -5.390625 86.5625 -5.390625 C 89.789062 -5.390625 92.320312 -6.269531 94.15625 -8.03125 C 95.988281 -9.789062 96.90625 -12.132812 96.90625 -15.0625 C 96.90625 -19.613281 95.382812 -23.0625 92.34375 -25.40625 C 89.300781 -27.757812 85.394531 -28.9375 80.625 -28.9375 L 77.328125 -28.9375 C 75.859375 -26 75.125 -22.660156 75.125 -18.921875 Z M 75.125 -18.921875 "/>
</symbol>
</g>
</defs>
  <g id="tamil-akhn-kssa:id0:id0" transform="matrix(1.25,0,0,1.25,0.0,0.0)"><g id="tamil-akhn-kssa:id0:surface1">
<g style="fill:rgb(0%,0%,0%);fill-opacity:1;">
  <use xlink:href="#tamil-akhn-kssa:id0:glyph0-1" x="16" y="119.59375" class="c0"/>
  <use xlink:href="#tamil-akhn-kssa:id0:glyph0-2" x="65.171875" y="119.59375" class="c1"/>
  <use xlink:href="#tamil-akhn-kssa:id0:glyph0-3" x="109.9375" y="119.59375" class="c2"/>
</g>
</g>
</g>
  <g id="tamil-akhn-kssa:id1:id1" transform="matrix(1.25,0,0,1.25,355.0,9.12109375)"><g id="tamil-akhn-kssa:id1:surface1">
<g style="fill:rgb(0%,0%,0%);fill-opacity:1;">
  <use xlink:href="#tamil-akhn-kssa:id1:glyph0-1" x="0" y="120.84375" class="arrow"/>
</g>
</g>
</g>
  <g id="tamil-akhn-kssa:id2:id2" transform="matrix(1.25,0,0,1.25,487.59765625,0.0)"><g id="tamil-akhn-kssa:id2:surface1">
<g style="fill:rgb(0%,0%,0%);fill-opacity:1;">
  <use xlink:href="#tamil-akhn-kssa:id2:glyph0-1" x="16" y="119.59375" class="c3"/>
</g>
</g>
</g>
</svg>