<?xml version="1.0" standalone="no"?>
<!DOCTYPE svg PUBLIC "-//W3C//DTD SVG 1.1//EN"
 "http://www.w3.org/Graphics/SVG/1.1/DTD/svg11.dtd">
<!-- Created with svg_stack (http://github.com/astraw/svg_stack) -->
<svg xmlns="http://www.w3.org/2000/svg" xmlns:sodipodi="http://sodipodi.sourceforge.net/DTD/sodipodi-0.dtd" xmlns:xlink="http://www.w3.org/1999/xlink" version="1.1" width="650.8203125" height="219.6484375">
  <defs><g>
<symbol overflow="visible" id="id0:glyph0-0">
<path style="stroke:none;" d="M 10.34375 -0.546875 L 10.34375 -79.09375 L 55.546875 -79.09375 L 55.546875 -0.546875 Z M 15.953125 -6.15625 L 49.9375 -6.15625 L 49.9375 -73.484375 L 15.953125 -73.484375 Z M 15.953125 -6.15625 "/>
</symbol>
<symbol overflow="visible" id="id0:glyph0-1">
<path style="stroke:none;" d="M 10.78125 0 L 10.78125 -60.9375 L 21.125 -60.9375 L 21.125 -5.9375 L 49.5 -5.9375 L 49.5 -41.90625 C 49.5 -48.289062 51.40625 -53.148438 55.21875 -56.484375 C 59.03125 -59.816406 63.757812 -61.484375 69.40625 -61.484375 C 74.101562 -61.484375 78.335938 -60.144531 82.109375 -57.46875 C 85.890625 -54.789062 88.914062 -50.867188 91.1875 -45.703125 C 93.457031 -40.535156 94.59375 -34.25 94.59375 -26.84375 C 94.59375 -21.195312 94.039062 -16.375 92.9375 -12.375 C 91.84375 -8.375 89.9375 -5.3125 87.21875 -3.1875 C 84.507812 -1.0625 80.738281 0 75.90625 0 L 60.0625 0 C 60.28125 4.175781 61.707031 7.363281 64.34375 9.5625 C 66.988281 11.769531 70.988281 12.875 76.34375 12.875 L 85.796875 12.875 L 85.796875 18.8125 L 77.875 18.8125 C 74.945312 18.8125 72.378906 19.320312 70.171875 20.34375 C 67.972656 21.375 65.972656 22.675781 64.171875 24.25 C 62.378906 25.832031 60.601562 27.539062 58.84375 29.375 C 57.082031 31.207031 55.117188 32.910156 52.953125 34.484375 C 50.796875 36.054688 48.285156 37.359375 45.421875 38.390625 C 42.566406 39.421875 39.125 39.9375 35.09375 39.9375 C 31.28125 39.9375 27.867188 39.238281 24.859375 37.84375 C 21.847656 36.445312 19.484375 34.460938 17.765625 31.890625 C 16.046875 29.328125 15.1875 26.359375 15.1875 22.984375 C 15.1875 19.984375 15.878906 17.328125 17.265625 15.015625 C 18.660156 12.703125 20.566406 10.882812 22.984375 9.5625 C 25.410156 8.25 28.085938 7.59375 31.015625 7.59375 C 33.585938 7.59375 36.023438 8.050781 38.328125 8.96875 C 40.640625 9.882812 42.820312 11.476562 44.875 13.75 L 41.140625 17.8125 C 38.503906 14.957031 35.3125 13.53125 31.5625 13.53125 C 28.632812 13.53125 26.234375 14.425781 24.359375 16.21875 C 22.492188 18.019531 21.5625 20.382812 21.5625 23.3125 C 21.5625 26.03125 22.566406 28.429688 24.578125 30.515625 C 26.597656 32.609375 29.585938 33.65625 33.546875 33.65625 C 36.554688 33.65625 39.085938 33.085938 41.140625 31.953125 C 43.191406 30.816406 45.023438 29.40625 46.640625 27.71875 C 48.253906 26.03125 49.90625 24.320312 51.59375 22.59375 C 53.28125 20.875 55.203125 19.375 57.359375 18.09375 C 59.523438 16.8125 62.1875 16.0625 65.34375 15.84375 L 65.34375 15.296875 C 62.695312 15.140625 60.21875 14.382812 57.90625 13.03125 C 55.601562 11.675781 53.695312 9.878906 52.1875 7.640625 C 50.6875 5.410156 49.828125 2.863281 49.609375 0 Z M 59.953125 -5.9375 L 74.90625 -5.9375 C 78.9375 -5.9375 81.847656 -6.832031 83.640625 -8.625 C 85.441406 -10.425781 86.597656 -12.882812 87.109375 -16 C 87.628906 -19.125 87.890625 -22.664062 87.890625 -26.625 C 87.890625 -33.144531 87.007812 -38.492188 85.25 -42.671875 C 83.488281 -46.859375 81.320312 -49.957031 78.75 -51.96875 C 76.1875 -53.988281 73.625 -55 71.0625 -55 C 67.90625 -55 65.265625 -53.988281 63.140625 -51.96875 C 61.015625 -49.957031 59.953125 -46.640625 59.953125 -42.015625 Z M 59.953125 -5.9375 "/>
</symbol>
<symbol overflow="visible" id="id0:glyph0-2">
<path style="stroke:none;" d="M 44.984375 0 C 36.773438 0 29.257812 -1.757812 22.4375 -5.28125 C 15.613281 -8.800781 9.820312 -13.859375 5.0625 -20.453125 L 9.34375 -23.875 C 13.820312 -17.414062 19.234375 -12.8125 25.578125 -10.0625 C 31.921875 -7.3125 38.425781 -5.9375 45.09375 -5.9375 C 52.351562 -5.9375 58.492188 -6.976562 63.515625 -9.0625 C 68.546875 -11.15625 72.617188 -14.050781 75.734375 -17.75 C 78.847656 -21.457031 81.117188 -25.785156 82.546875 -30.734375 C 83.984375 -35.691406 84.703125 -41.03125 84.703125 -46.75 C 84.703125 -50.707031 84.148438 -54.644531 83.046875 -58.5625 C 81.953125 -62.488281 80.175781 -66.066406 77.71875 -69.296875 C 75.257812 -72.523438 71.992188 -75.109375 67.921875 -77.046875 C 63.847656 -78.992188 58.878906 -79.96875 53.015625 -79.96875 C 47.960938 -79.96875 43.601562 -79.101562 39.9375 -77.375 C 36.269531 -75.65625 33.351562 -73.347656 31.1875 -70.453125 C 29.019531 -67.554688 27.644531 -64.382812 27.0625 -60.9375 L 60.390625 -60.9375 L 60.390625 -42.125 C 60.390625 -38.3125 59.523438 -35.007812 57.796875 -32.21875 C 56.078125 -29.4375 53.734375 -27.296875 50.765625 -25.796875 C 47.796875 -24.296875 44.441406 -23.546875 40.703125 -23.546875 C 34.316406 -23.546875 29.289062 -25.378906 25.625 -29.046875 C 21.957031 -32.710938 20.125 -37.804688 20.125 -44.328125 L 20.125 -55 L -24.859375 -55 L -29.15625 -60.9375 L 20.34375 -60.9375 C 20.9375 -65.113281 22.550781 -69.109375 25.1875 -72.921875 C 27.832031 -76.742188 31.628906 -79.84375 36.578125 -82.21875 C 41.523438 -84.601562 47.664062 -85.796875 55 -85.796875 C 61.300781 -85.796875 66.925781 -84.625 71.875 -82.28125 C 76.832031 -79.9375 81.035156 -76.800781 84.484375 -72.875 C 87.929688 -68.945312 90.570312 -64.582031 92.40625 -59.78125 C 94.238281 -54.976562 95.15625 -50.117188 95.15625 -45.203125 C 95.15625 -36.335938 93.171875 -28.507812 89.203125 -21.71875 C 85.242188 -14.9375 79.523438 -9.617188 72.046875 -5.765625 C 64.566406 -1.921875 55.546875 0 44.984375 0 Z M 26.84375 -43.78125 C 26.84375 -39.382812 27.8125 -35.898438 29.75 -33.328125 C 31.695312 -30.765625 34.648438 -29.484375 38.609375 -29.484375 C 41.984375 -29.484375 44.734375 -30.582031 46.859375 -32.78125 C 48.984375 -34.976562 50.046875 -37.765625 50.046875 -41.140625 L 50.046875 -55 L 26.84375 -55 Z M 26.84375 -43.78125 "/>
</symbol>
</g>
<g>
<symbol overflow="visible" id="id1:glyph0-0">
<path style="stroke:none;" d="M 5.375 -96.6875 L 69.828125 -96.6875 L 69.828125 0 L 5.375 0 Z M 8.0625 -2.6875 L 67.140625 -2.6875 L 67.140625 -94 L 8.0625 -94 Z M 8.0625 -2.6875 "/>
</symbol>
<symbol overflow="visible" id="id1:glyph0-1">
<path style="stroke:none;" d="M 68.15625 -13.75 L 66.28125 -18.640625 L 88.09375 -27.390625 L 6.984375 -27.390625 L 6.984375 -34 L 88.09375 -34 L 66.28125 -42.75 L 68.15625 -47.640625 L 99.09375 -34.265625 L 99.09375 -27.125 Z M 68.15625 -13.75 "/>
</symbol>
</g>
<g>
<symbol overflow="visible" id="id2:glyph0-0">
<path style="stroke:none;" d="M 10.34375 -0.546875 L 10.34375 -79.09375 L 55.546875 -79.09375 L 55.546875 -0.546875 Z M 15.953125 -6.15625 L 49.9375 -6.15625 L 49.9375 -73.484375 L 15.953125 -73.484375 Z M 15.953125 -6.15625 "/>
</symbol>
<symbol overflow="visible" id="id2:glyph0-1">
<path style="stroke:none;" d="M 57.421875 0 L 57.421875 -60.9375 L 67.875 -60.9375 L 67.875 -5.9375 L 96.25 -5.9375 L 96.25 -41.90625 C 96.25 -48.289062 98.15625 -53.148438 101.96875 -56.484375 C 105.78125 -59.816406 110.507812 -61.484375 116.15625 -61.484375 C 120.851562 -61.484375 125.085938 -60.144531 128.859375 -57.46875 C 132.640625 -54.789062 135.664062 -50.867188 137.9375 -45.703125 C 140.207031 -40.535156 141.34375 -34.25 141.34375 -26.84375 C 141.34375 -21.195312 140.789062 -16.375 139.6875 -12.375 C 138.59375 -8.375 136.6875 -5.3125 133.96875 -3.1875 C 131.257812 -1.0625 127.488281 0 122.65625 0 L 106.703125 0 L 106.703125 9.5625 C 107.796875 8.25 109.148438 7.207031 110.765625 6.4375 C 112.378906 5.664062 114.25 5.28125 116.375 5.28125 C 119.601562 5.28125 122.222656 6.195312 124.234375 8.03125 C 126.253906 9.863281 127.265625 12.539062 127.265625 16.0625 C 127.265625 19.507812 126.070312 22.515625 123.6875 25.078125 C 121.3125 27.648438 118.050781 29.796875 113.90625 31.515625 C 109.757812 33.234375 105.007812 34.515625 99.65625 35.359375 C 94.300781 36.203125 88.65625 36.625 82.71875 36.625 C 74.507812 36.625 66.644531 35.6875 59.125 33.8125 C 51.601562 31.945312 44.671875 29.253906 38.328125 25.734375 C 31.984375 22.210938 26.460938 17.957031 21.765625 12.96875 C 17.078125 7.988281 13.429688 2.363281 10.828125 -3.90625 C 8.234375 -10.175781 6.9375 -16.941406 6.9375 -24.203125 C 6.9375 -31.242188 7.976562 -37.566406 10.0625 -43.171875 C 12.15625 -48.785156 15.160156 -53.238281 19.078125 -56.53125 C 23.003906 -59.832031 27.644531 -61.484375 33 -61.484375 C 37.539062 -61.484375 41.316406 -60.160156 44.328125 -57.515625 C 47.335938 -54.878906 48.84375 -51.289062 48.84375 -46.75 C 48.84375 -43.007812 47.832031 -39.78125 45.8125 -37.0625 C 43.800781 -34.351562 41.144531 -32.28125 37.84375 -30.84375 C 34.539062 -29.414062 30.875 -28.703125 26.84375 -28.703125 C 22.65625 -28.703125 18.472656 -29.472656 14.296875 -31.015625 C 13.929688 -28.453125 13.75 -25.925781 13.75 -23.4375 C 13.75 -17.050781 14.957031 -11.085938 17.375 -5.546875 C 19.800781 -0.015625 23.15625 4.96875 27.4375 9.40625 C 31.726562 13.84375 36.695312 17.65625 42.34375 20.84375 C 47.988281 24.03125 54.019531 26.46875 60.4375 28.15625 C 66.851562 29.84375 73.398438 30.6875 80.078125 30.6875 C 85.066406 30.6875 89.78125 30.410156 94.21875 29.859375 C 98.65625 29.316406 102.613281 28.492188 106.09375 27.390625 C 109.570312 26.285156 112.300781 24.867188 114.28125 23.140625 C 116.269531 21.421875 117.265625 19.390625 117.265625 17.046875 C 117.265625 13.597656 115.648438 11.875 112.421875 11.875 C 111.023438 11.875 109.90625 12.273438 109.0625 13.078125 C 108.21875 13.890625 107.613281 14.804688 107.25 15.828125 C 106.882812 16.859375 106.703125 17.707031 106.703125 18.375 L 106.703125 20.6875 L 96.25 20.6875 L 96.25 0 Z M 106.703125 -42.015625 L 106.703125 -5.9375 L 121.65625 -5.9375 C 125.6875 -5.9375 128.597656 -6.832031 130.390625 -8.625 C 132.191406 -10.425781 133.347656 -12.882812 133.859375 -16 C 134.378906 -19.125 134.640625 -22.664062 134.640625 -26.625 C 134.640625 -33.144531 133.757812 -38.492188 132 -42.671875 C 130.238281 -46.859375 128.070312 -49.957031 125.5 -51.96875 C 122.9375 -53.988281 120.375 -55 117.8125 -55 C 114.65625 -55 112.015625 -53.988281 109.890625 -51.96875 C 107.765625 -49.957031 106.703125 -46.640625 106.703125 -42.015625 Z M 30.6875 -53.5625 C 27.90625 -53.5625 25.503906 -52.738281 23.484375 -51.09375 C 21.460938 -49.445312 19.753906 -47.265625 18.359375 -44.546875 C 16.972656 -41.835938 15.914062 -38.941406 15.1875 -35.859375 C 17.96875 -34.984375 20.71875 -34.546875 23.4375 -34.546875 C 27.539062 -34.546875 31.019531 -35.570312 33.875 -37.625 C 36.738281 -39.675781 38.171875 -42.71875 38.171875 -46.75 C 38.171875 -48.800781 37.507812 -50.445312 36.1875 -51.6875 C 34.863281 -52.9375 33.03125 -53.5625 30.6875 -53.5625 Z M 30.6875 -53.5625 "/>
</symbol>
</g>
</defs>
  <g id="id0:id0" transform="matrix(1.25,0,0,1.25,0.0,0.0)"><g id="id0:surface1">
<g style="fill:rgb(0%,0%,0%);fill-opacity:1;">
  <use xlink:href="#id0:glyph0-1" x="16" y="119.59375"/>
  <use xlink:href="#id0:glyph0-2" x="117.640625" y="119.59375"/>
</g>
</g>
</g>
  <g id="id1:id1" transform="matrix(1.25,0,0,1.25,292.734375,9.12109375)"><g id="id1:surface1">
<g style="fill:rgb(0%,0%,0%);fill-opacity:1;">
  <use xlink:href="#id1:glyph0-1" x="0" y="120.84375"/>
</g>
</g>
</g>
  <g id="id2:id2" transform="matrix(1.25,0,0,1.25,425.33203125,0.0)"><g id="id2:surface1">
<g style="fill:rgb(0%,0%,0%);fill-opacity:1;">
  <use xlink:href="#id2:glyph0-1" x="16" y="119.59375"/>
</g>
</g>
</g>
</svg>
