<!DOCTYPE svg PUBLIC "-//W3C//DTD SVG 1.1//EN" "http://www.w3.org/Graphics/SVG/1.1/DTD/svg11.dtd">
<!-- Created with svg_stack (http://github.com/astraw/svg_stack) --><svg xmlns="http://www.w3.org/2000/svg" xmlns:sodipodi="http://sodipodi.sourceforge.net/DTD/sodipodi-0.dtd" xmlns:xlink="http://www.w3.org/1999/xlink" version="1.1" width="664.84375" height="219.6484375" id="tamil-pres">
  <defs><g>
<symbol overflow="visible" id="tamil-pres:id0:glyph0-0">
<path style="stroke:none;" d="M 10.34375 -0.546875 L 10.34375 -79.09375 L 55.546875 -79.09375 L 55.546875 -0.546875 Z M 15.953125 -6.15625 L 49.9375 -6.15625 L 49.9375 -73.484375 L 15.953125 -73.484375 Z M 15.953125 -6.15625 "/>
</symbol>
<symbol overflow="visible" id="tamil-pres:id0:glyph0-1">
<path style="stroke:none;" d="M 33.328125 0.546875 C 29.148438 0.546875 25.316406 -0.179688 21.828125 -1.640625 C 18.347656 -3.109375 15.546875 -5.4375 13.421875 -8.625 C 11.296875 -11.820312 10.234375 -16.097656 10.234375 -21.453125 L 10.234375 -60.9375 L 20.6875 -60.9375 L 20.6875 -21.5625 C 20.6875 -17.601562 21.328125 -14.484375 22.609375 -12.203125 C 23.890625 -9.929688 25.570312 -8.316406 27.65625 -7.359375 C 29.75 -6.410156 32.007812 -5.9375 34.4375 -5.9375 C 37 -5.9375 39.378906 -6.335938 41.578125 -7.140625 C 43.773438 -7.953125 45.535156 -9.585938 46.859375 -12.046875 C 48.179688 -14.503906 48.84375 -18.1875 48.84375 -23.09375 L 48.84375 -60.9375 L 98.890625 -60.9375 C 106.148438 -60.9375 111.171875 -58.789062 113.953125 -54.5 C 116.742188 -50.207031 118.140625 -43.921875 118.140625 -35.640625 C 118.140625 -30.066406 117.382812 -25.0625 115.875 -20.625 C 114.375 -16.1875 112.320312 -12.390625 109.71875 -9.234375 C 107.113281 -6.085938 104.179688 -3.671875 100.921875 -1.984375 C 97.660156 -0.296875 94.269531 0.546875 90.75 0.546875 C 87.15625 0.546875 83.890625 -0.144531 80.953125 -1.53125 C 78.023438 -2.925781 75.695312 -5 73.96875 -7.75 C 72.25 -10.5 71.390625 -13.894531 71.390625 -17.9375 L 71.390625 -55 L 55.328125 -55 L 55.328125 -23.09375 C 55.328125 -17.15625 54.351562 -12.460938 52.40625 -9.015625 C 50.46875 -5.566406 47.828125 -3.109375 44.484375 -1.640625 C 41.148438 -0.179688 37.429688 0.546875 33.328125 0.546875 Z M 91.953125 -5.9375 C 94.742188 -5.9375 97.640625 -7.035156 100.640625 -9.234375 C 103.648438 -11.441406 106.203125 -14.757812 108.296875 -19.1875 C 110.390625 -23.625 111.4375 -29.179688 111.4375 -35.859375 C 111.4375 -39.671875 111.140625 -43.003906 110.546875 -45.859375 C 109.960938 -48.722656 108.71875 -50.960938 106.8125 -52.578125 C 104.90625 -54.191406 101.9375 -55 97.90625 -55 L 81.84375 -55 L 81.84375 -17.8125 C 81.84375 -13.488281 82.832031 -10.425781 84.8125 -8.625 C 86.789062 -6.832031 89.171875 -5.9375 91.953125 -5.9375 Z M 91.953125 -5.9375 "/>
</symbol>
<symbol overflow="visible" id="tamil-pres:id0:glyph0-2">
<path style="stroke:none;" d="M 0 -70.0625 C -1.832031 -70.0625 -3.40625 -70.722656 -4.71875 -72.046875 C -6.039062 -73.367188 -6.703125 -74.910156 -6.703125 -76.671875 C -6.703125 -78.429688 -6.039062 -79.96875 -4.71875 -81.28125 C -3.40625 -82.601562 -1.832031 -83.265625 0 -83.265625 C 1.90625 -83.265625 3.5 -82.601562 4.78125 -81.28125 C 6.0625 -79.96875 6.703125 -78.429688 6.703125 -76.671875 C 6.703125 -74.910156 6.0625 -73.367188 4.78125 -72.046875 C 3.5 -70.722656 1.90625 -70.0625 0 -70.0625 Z M 0 -70.0625 "/>
</symbol>
<symbol overflow="visible" id="tamil-pres:id0:glyph0-3">
<path style="stroke:none;" d="M 24.96875 26.40625 L 20.34375 21.890625 L 40.59375 0.21875 L 40.59375 -55 L 17.484375 -55 L 17.484375 0 L 10.78125 0 L 10.78125 -60.9375 L 45.875 -60.9375 C 43.894531 -62.695312 42.332031 -64.785156 41.1875 -67.203125 C 40.050781 -69.628906 39.484375 -72.34375 39.484375 -75.34375 C 39.484375 -79.601562 40.53125 -83.34375 42.625 -86.5625 C 44.71875 -89.789062 47.648438 -92.335938 51.421875 -94.203125 C 55.203125 -96.078125 59.582031 -97.015625 64.5625 -97.015625 C 71.53125 -97.015625 77.03125 -95.421875 81.0625 -92.234375 C 85.101562 -89.046875 87.125 -84.882812 87.125 -79.75 C 87.125 -75.9375 85.617188 -72.726562 82.609375 -70.125 C 79.597656 -67.519531 75.710938 -66.21875 70.953125 -66.21875 C 65.378906 -66.21875 61.125 -67.703125 58.1875 -70.671875 C 55.257812 -73.640625 53.796875 -77.328125 53.796875 -81.734375 C 53.796875 -84.367188 54.304688 -87.007812 55.328125 -89.65625 C 52.171875 -88.40625 49.804688 -86.53125 48.234375 -84.03125 C 46.660156 -81.539062 45.875 -78.609375 45.875 -75.234375 C 45.875 -72.304688 46.550781 -69.773438 47.90625 -67.640625 C 49.257812 -65.515625 51.054688 -63.863281 53.296875 -62.6875 C 55.535156 -61.519531 57.972656 -60.9375 60.609375 -60.9375 L 70.296875 -60.9375 L 70.296875 -55 L 50.9375 -55 L 50.9375 -1.546875 Z M 59.1875 -82.9375 C 59.1875 -79.851562 60.046875 -77.285156 61.765625 -75.234375 C 63.484375 -73.179688 66.03125 -72.15625 69.40625 -72.15625 C 71.90625 -72.15625 73.957031 -72.925781 75.5625 -74.46875 C 77.175781 -76.007812 77.984375 -77.953125 77.984375 -80.296875 C 77.984375 -83.742188 76.703125 -86.398438 74.140625 -88.265625 C 71.578125 -90.140625 68.238281 -91.078125 64.125 -91.078125 C 62.957031 -91.078125 61.859375 -91.003906 60.828125 -90.859375 C 59.734375 -88.148438 59.1875 -85.507812 59.1875 -82.9375 Z M 59.1875 -82.9375 "/>
</symbol>
</g>
<g>
<symbol overflow="visible" id="tamil-pres:id1:glyph0-0">
<path style="stroke:none;" d="M 5.375 -96.6875 L 69.828125 -96.6875 L 69.828125 0 L 5.375 0 Z M 8.0625 -2.6875 L 67.140625 -2.6875 L 67.140625 -94 L 8.0625 -94 Z M 8.0625 -2.6875 "/>
</symbol>
<symbol overflow="visible" id="tamil-pres:id1:glyph0-1">
<path style="stroke:none;" d="M 68.15625 -13.75 L 66.28125 -18.640625 L 88.09375 -27.390625 L 6.984375 -27.390625 L 6.984375 -34 L 88.09375 -34 L 66.28125 -42.75 L 68.15625 -47.640625 L 99.09375 -34.265625 L 99.09375 -27.125 Z M 68.15625 -13.75 "/>
</symbol>
</g>
<g>
<symbol overflow="visible" id="tamil-pres:id2:glyph0-0">
<path style="stroke:none;" d="M 10.34375 -0.546875 L 10.34375 -79.09375 L 55.546875 -79.09375 L 55.546875 -0.546875 Z M 15.953125 -6.15625 L 49.9375 -6.15625 L 49.9375 -73.484375 L 15.953125 -73.484375 Z M 15.953125 -6.15625 "/>
</symbol>
<symbol overflow="visible" id="tamil-pres:id2:glyph0-1">
<path style="stroke:none;" d="M 11.328125 0 L 11.328125 -60.9375 L 21.671875 -60.9375 L 21.671875 -5.9375 L 55.984375 -5.9375 L 55.984375 -43.5625 C 55.984375 -49.132812 57.394531 -53.515625 60.21875 -56.703125 C 63.039062 -59.890625 67.28125 -61.484375 72.9375 -61.484375 C 76.226562 -61.484375 79.046875 -60.820312 81.390625 -59.5 C 83.742188 -58.1875 85.65625 -56.46875 87.125 -54.34375 L 87.125 -60.9375 L 125.625 -60.9375 C 123.644531 -62.695312 122.082031 -64.785156 120.9375 -67.203125 C 119.800781 -69.628906 119.234375 -72.34375 119.234375 -75.34375 C 119.234375 -79.601562 120.28125 -83.34375 122.375 -86.5625 C 124.46875 -89.789062 127.398438 -92.335938 131.171875 -94.203125 C 134.953125 -96.078125 139.332031 -97.015625 144.3125 -97.015625 C 151.28125 -97.015625 156.78125 -95.421875 160.8125 -92.234375 C 164.851562 -89.046875 166.875 -84.882812 166.875 -79.75 C 166.875 -75.9375 165.367188 -72.726562 162.359375 -70.125 C 159.347656 -67.519531 155.460938 -66.21875 150.703125 -66.21875 C 145.128906 -66.21875 140.875 -67.703125 137.9375 -70.671875 C 135.007812 -73.640625 133.546875 -77.328125 133.546875 -81.734375 C 133.546875 -84.367188 134.054688 -87.007812 135.078125 -89.65625 C 131.921875 -88.40625 129.554688 -86.53125 127.984375 -84.03125 C 126.410156 -81.539062 125.625 -78.609375 125.625 -75.234375 C 125.625 -72.304688 126.300781 -69.773438 127.65625 -67.640625 C 129.007812 -65.515625 130.804688 -63.863281 133.046875 -62.6875 C 135.285156 -61.519531 137.722656 -60.9375 140.359375 -60.9375 L 144.4375 -60.9375 L 144.4375 -55 L 125.1875 -55 L 125.1875 -29.921875 C 125.476562 -31.015625 126.15625 -32.1875 127.21875 -33.4375 C 128.28125 -34.6875 129.726562 -35.75 131.5625 -36.625 C 133.394531 -37.507812 135.628906 -37.953125 138.265625 -37.953125 C 141.859375 -37.953125 145.117188 -37.070312 148.046875 -35.3125 C 150.984375 -33.550781 153.3125 -30.945312 155.03125 -27.5 C 156.757812 -24.050781 157.625 -19.757812 157.625 -14.625 C 157.625 -6.78125 156.117188 0.238281 153.109375 6.4375 C 150.109375 12.632812 145.894531 18.023438 140.46875 22.609375 C 135.039062 27.191406 128.625 30.984375 121.21875 33.984375 C 113.8125 36.992188 105.707031 39.25 96.90625 40.75 C 88.101562 42.257812 78.863281 43.015625 69.1875 43.015625 C 63.6875 43.015625 58.148438 42.773438 52.578125 42.296875 C 47.003906 41.816406 41.722656 41.0625 36.734375 40.03125 C 31.753906 39.007812 27.316406 37.65625 23.421875 35.96875 C 19.535156 34.28125 16.457031 32.226562 14.1875 29.8125 C 11.914062 27.394531 10.78125 24.570312 10.78125 21.34375 C 10.78125 17.75 12.242188 14.847656 15.171875 12.640625 C 18.109375 10.441406 21.976562 8.828125 26.78125 7.796875 C 31.582031 6.773438 36.804688 6.265625 42.453125 6.265625 C 48.691406 6.265625 54.984375 6.796875 61.328125 7.859375 C 67.671875 8.921875 73.222656 10.367188 77.984375 12.203125 L 75.796875 17.8125 C 71.171875 15.90625 65.847656 14.4375 59.828125 13.40625 C 53.816406 12.382812 47.914062 11.875 42.125 11.875 C 37.65625 11.875 33.550781 12.222656 29.8125 12.921875 C 26.070312 13.617188 23.082031 14.703125 20.84375 16.171875 C 18.601562 17.640625 17.484375 19.582031 17.484375 22 C 17.484375 24.195312 18.472656 26.117188 20.453125 27.765625 C 22.441406 29.421875 25.117188 30.832031 28.484375 32 C 31.859375 33.175781 35.632812 34.148438 39.8125 34.921875 C 44 35.691406 48.347656 36.238281 52.859375 36.5625 C 57.367188 36.894531 61.75 37.0625 66 37.0625 C 74.582031 37.0625 82.867188 36.382812 90.859375 35.03125 C 98.847656 33.675781 106.269531 31.660156 113.125 28.984375 C 119.988281 26.304688 125.984375 22.929688 131.109375 18.859375 C 136.242188 14.796875 140.242188 10.050781 143.109375 4.625 C 145.972656 -0.800781 147.40625 -6.890625 147.40625 -13.640625 C 147.40625 -19.796875 146.285156 -24.300781 144.046875 -27.15625 C 141.804688 -30.019531 138.925781 -31.453125 135.40625 -31.453125 C 132.101562 -31.453125 129.570312 -30.296875 127.8125 -27.984375 C 126.0625 -25.679688 125.1875 -23.0625 125.1875 -20.125 L 125.1875 0 L 114.734375 0 L 114.734375 -55 L 93.828125 -55 L 93.828125 0 L 87.125 0 L 87.125 -39.15625 C 87.125 -43.707031 86.113281 -47.484375 84.09375 -50.484375 C 82.070312 -53.492188 79.191406 -55 75.453125 -55 C 72.378906 -55 70.109375 -53.988281 68.640625 -51.96875 C 67.171875 -49.957031 66.4375 -47.191406 66.4375 -43.671875 L 66.4375 0 Z M 138.9375 -82.9375 C 138.9375 -79.851562 139.796875 -77.285156 141.515625 -75.234375 C 143.234375 -73.179688 145.78125 -72.15625 149.15625 -72.15625 C 151.65625 -72.15625 153.707031 -72.925781 155.3125 -74.46875 C 156.925781 -76.007812 157.734375 -77.953125 157.734375 -80.296875 C 157.734375 -83.742188 156.453125 -86.398438 153.890625 -88.265625 C 151.328125 -90.140625 147.988281 -91.078125 143.875 -91.078125 C 142.707031 -91.078125 141.609375 -91.003906 140.578125 -90.859375 C 139.484375 -88.148438 138.9375 -85.507812 138.9375 -82.9375 Z M 138.9375 -82.9375 "/>
</symbol>
</g>
</defs>
  <g id="tamil-pres:id0:id0" transform="matrix(1.25,0,0,1.25,0.0,0.0)"><g id="tamil-pres:id0:surface1">
<g style="fill:rgb(0%,0%,0%);fill-opacity:1;">
  <use xlink:href="#tamil-pres:id0:glyph0-1" x="16" y="119.59375" class="c0"/>
  <use xlink:href="#tamil-pres:id0:glyph0-2" x="79.6875" y="119.59375" class="c1"/>
  <use xlink:href="#tamil-pres:id0:glyph0-3" x="141.1875" y="119.59375" class="c2"/>
</g>
</g>
</g>
  <g id="tamil-pres:id1:id1" transform="matrix(1.25,0,0,1.25,287.08984375,9.12109375)"><g id="tamil-pres:id1:surface1">
<g style="fill:rgb(0%,0%,0%);fill-opacity:1;">
  <use xlink:href="#tamil-pres:id1:glyph0-1" x="0" y="120.84375" class="arrow"/>
</g>
</g>
</g>
  <g id="tamil-pres:id2:id2" transform="matrix(1.25,0,0,1.25,419.6875,0.0)"><g id="tamil-pres:id2:surface1">
<g style="fill:rgb(0%,0%,0%);fill-opacity:1;">
  <use xlink:href="#tamil-pres:id2:glyph0-1" x="16" y="119.59375" class="c3"/>
</g>
</g>
</g>
</svg>
