<?xml version="1.0" standalone="no"?>
<!DOCTYPE svg PUBLIC "-//W3C//DTD SVG 1.1//EN"
 "http://www.w3.org/Graphics/SVG/1.1/DTD/svg11.dtd">
<!-- Created with svg_stack (http://github.com/astraw/svg_stack) -->
<svg xmlns="http://www.w3.org/2000/svg" xmlns:sodipodi="http://sodipodi.sourceforge.net/DTD/sodipodi-0.dtd" xmlns:xlink="http://www.w3.org/1999/xlink" version="1.1" width="576.97265625" height="201.40625">
  <defs><g>
<symbol overflow="visible" id="id0:glyph0-0">
<path style="stroke:none;" d="M 10.34375 0 L 10.34375 -78.546875 L 55.546875 -78.546875 L 55.546875 0 Z M 15.953125 -5.609375 L 49.9375 -5.609375 L 49.9375 -72.9375 L 15.953125 -72.9375 Z M 15.953125 -5.609375 "/>
</symbol>
<symbol overflow="visible" id="id0:glyph0-1">
<path style="stroke:none;" d="M 9.6875 0 L 9.6875 -60.9375 L 66.4375 -60.9375 L 66.4375 -53.015625 L 47.296875 -53.015625 L 47.296875 -35.640625 C 48.765625 -36.515625 50.671875 -37.425781 53.015625 -38.375 C 55.367188 -39.332031 58.15625 -39.8125 61.375 -39.8125 C 66.875 -39.8125 71.179688 -38.253906 74.296875 -35.140625 C 77.421875 -32.023438 78.984375 -27.679688 78.984375 -22.109375 C 78.984375 -19.472656 78.613281 -16.941406 77.875 -14.515625 C 77.144531 -12.097656 76.191406 -9.898438 75.015625 -7.921875 L 95.703125 -7.921875 L 95.703125 -60.9375 L 105.15625 -60.9375 L 105.15625 0 L 37.84375 0 L 37.84375 -7.921875 L 65.453125 -7.921875 C 66.691406 -9.753906 67.675781 -11.785156 68.40625 -14.015625 C 69.144531 -16.253906 69.515625 -18.625 69.515625 -21.125 C 69.515625 -25.007812 68.597656 -27.757812 66.765625 -29.375 C 64.929688 -30.988281 62.585938 -31.796875 59.734375 -31.796875 C 57.378906 -31.796875 55.117188 -31.316406 52.953125 -30.359375 C 50.796875 -29.410156 48.910156 -28.3125 47.296875 -27.0625 L 47.296875 -15.84375 L 37.84375 -15.84375 L 37.84375 -53.015625 L 19.140625 -53.015625 L 19.140625 0 Z M 9.6875 0 "/>
</symbol>
<symbol overflow="visible" id="id0:glyph0-2">
<path style="stroke:none;" d="M 30.90625 -46.640625 C 28.5625 -46.640625 27.390625 -47.8125 27.390625 -50.15625 C 27.390625 -52.425781 28.5625 -53.5625 30.90625 -53.5625 C 33.175781 -53.5625 34.3125 -52.425781 34.3125 -50.15625 C 34.3125 -47.8125 33.175781 -46.640625 30.90625 -46.640625 Z M 15.1875 -40.59375 C 12.832031 -40.59375 11.65625 -41.765625 11.65625 -44.109375 C 11.65625 -46.378906 12.832031 -47.515625 15.1875 -47.515625 C 17.457031 -47.515625 18.59375 -46.378906 18.59375 -44.109375 C 18.59375 -41.765625 17.457031 -40.59375 15.1875 -40.59375 Z M 46.53125 -40.59375 C 44.1875 -40.59375 43.015625 -41.765625 43.015625 -44.109375 C 43.015625 -46.378906 44.1875 -47.515625 46.53125 -47.515625 C 48.875 -47.515625 50.046875 -46.378906 50.046875 -44.109375 C 50.046875 -41.765625 48.875 -40.59375 46.53125 -40.59375 Z M 9.796875 -25.40625 C 7.441406 -25.40625 6.265625 -26.617188 6.265625 -29.046875 C 6.265625 -31.316406 7.441406 -32.453125 9.796875 -32.453125 C 12.140625 -32.453125 13.3125 -31.316406 13.3125 -29.046875 C 13.3125 -26.617188 12.140625 -25.40625 9.796875 -25.40625 Z M 51.921875 -25.40625 C 49.648438 -25.40625 48.515625 -26.617188 48.515625 -29.046875 C 48.515625 -31.316406 49.648438 -32.453125 51.921875 -32.453125 C 54.265625 -32.453125 55.4375 -31.316406 55.4375 -29.046875 C 55.4375 -26.617188 54.265625 -25.40625 51.921875 -25.40625 Z M 15.1875 -10.453125 C 12.832031 -10.453125 11.65625 -11.625 11.65625 -13.96875 C 11.65625 -16.238281 12.832031 -17.375 15.1875 -17.375 C 17.457031 -17.375 18.59375 -16.238281 18.59375 -13.96875 C 18.59375 -11.625 17.457031 -10.453125 15.1875 -10.453125 Z M 46.53125 -10.453125 C 44.1875 -10.453125 43.015625 -11.625 43.015625 -13.96875 C 43.015625 -16.238281 44.1875 -17.375 46.53125 -17.375 C 48.875 -17.375 50.046875 -16.238281 50.046875 -13.96875 C 50.046875 -11.625 48.875 -10.453125 46.53125 -10.453125 Z M 30.90625 -4.40625 C 28.5625 -4.40625 27.390625 -5.578125 27.390625 -7.921875 C 27.390625 -10.265625 28.5625 -11.4375 30.90625 -11.4375 C 33.175781 -11.4375 34.3125 -10.265625 34.3125 -7.921875 C 34.3125 -5.578125 33.175781 -4.40625 30.90625 -4.40625 Z M 30.90625 -4.40625 "/>
</symbol>
<symbol overflow="visible" id="id0:glyph0-3">
<path style="stroke:none;" d="M -30.578125 -74.578125 C -32.703125 -74.578125 -34.460938 -75.253906 -35.859375 -76.609375 C -37.253906 -77.972656 -37.953125 -79.753906 -37.953125 -81.953125 C -37.953125 -84.078125 -37.253906 -85.832031 -35.859375 -87.21875 C -34.460938 -88.613281 -32.703125 -89.3125 -30.578125 -89.3125 C -28.453125 -89.3125 -26.691406 -88.613281 -25.296875 -87.21875 C -23.898438 -85.832031 -23.203125 -84.078125 -23.203125 -81.953125 C -23.203125 -79.753906 -23.898438 -77.972656 -25.296875 -76.609375 C -26.691406 -75.253906 -28.453125 -74.578125 -30.578125 -74.578125 Z M -30.578125 -74.578125 "/>
</symbol>
</g>
<g>
<symbol overflow="visible" id="id1:glyph0-0">
<path style="stroke:none;" d="M 5.375 -96.6875 L 69.828125 -96.6875 L 69.828125 0 L 5.375 0 Z M 8.0625 -2.6875 L 67.140625 -2.6875 L 67.140625 -94 L 8.0625 -94 Z M 8.0625 -2.6875 "/>
</symbol>
<symbol overflow="visible" id="id1:glyph0-1">
<path style="stroke:none;" d="M 68.15625 -13.75 L 66.28125 -18.640625 L 88.09375 -27.390625 L 6.984375 -27.390625 L 6.984375 -34 L 88.09375 -34 L 66.28125 -42.75 L 68.15625 -47.640625 L 99.09375 -34.265625 L 99.09375 -27.125 Z M 68.15625 -13.75 "/>
</symbol>
</g>
<g>
<symbol overflow="visible" id="id2:glyph0-0">
<path style="stroke:none;" d="M 10.34375 0 L 10.34375 -78.546875 L 55.546875 -78.546875 L 55.546875 0 Z M 15.953125 -5.609375 L 49.9375 -5.609375 L 49.9375 -72.9375 L 15.953125 -72.9375 Z M 15.953125 -5.609375 "/>
</symbol>
<symbol overflow="visible" id="id2:glyph0-1">
<path style="stroke:none;" d="M 9.6875 0 L 9.6875 -60.9375 L 66.4375 -60.9375 L 66.4375 -53.015625 L 47.296875 -53.015625 L 47.296875 -35.640625 C 48.765625 -36.515625 50.671875 -37.425781 53.015625 -38.375 C 55.367188 -39.332031 58.15625 -39.8125 61.375 -39.8125 C 66.875 -39.8125 71.179688 -38.253906 74.296875 -35.140625 C 77.421875 -32.023438 78.984375 -27.679688 78.984375 -22.109375 C 78.984375 -19.472656 78.613281 -16.941406 77.875 -14.515625 C 77.144531 -12.097656 76.191406 -9.898438 75.015625 -7.921875 L 95.703125 -7.921875 L 95.703125 -60.9375 L 105.15625 -60.9375 L 105.15625 0 L 37.84375 0 L 37.84375 -7.921875 L 65.453125 -7.921875 C 66.691406 -9.753906 67.675781 -11.785156 68.40625 -14.015625 C 69.144531 -16.253906 69.515625 -18.625 69.515625 -21.125 C 69.515625 -25.007812 68.597656 -27.757812 66.765625 -29.375 C 64.929688 -30.988281 62.585938 -31.796875 59.734375 -31.796875 C 57.378906 -31.796875 55.117188 -31.316406 52.953125 -30.359375 C 50.796875 -29.410156 48.910156 -28.3125 47.296875 -27.0625 L 47.296875 -15.84375 L 37.84375 -15.84375 L 37.84375 -53.015625 L 19.140625 -53.015625 L 19.140625 0 Z M 57.421875 -74.578125 C 55.296875 -74.578125 53.535156 -75.253906 52.140625 -76.609375 C 50.742188 -77.972656 50.046875 -79.753906 50.046875 -81.953125 C 50.046875 -84.078125 50.742188 -85.832031 52.140625 -87.21875 C 53.535156 -88.613281 55.296875 -89.3125 57.421875 -89.3125 C 59.546875 -89.3125 61.304688 -88.613281 62.703125 -87.21875 C 64.097656 -85.832031 64.796875 -84.078125 64.796875 -81.953125 C 64.796875 -79.753906 64.097656 -77.972656 62.703125 -76.609375 C 61.304688 -75.253906 59.546875 -74.578125 57.421875 -74.578125 Z M 57.421875 -74.578125 "/>
</symbol>
</g>
</defs>
  <g id="id0:id0" transform="matrix(1.25,0,0,1.25,0.0,12.94921875)"><g id="id0:surface1">
<g style="fill:rgb(0%,0%,0%);fill-opacity:1;">
  <use xlink:href="#id0:glyph0-1" x="16" y="97.703125"/>
  <use xlink:href="#id0:glyph0-2" x="130.84375" y="97.703125"/>
  <use xlink:href="#id0:glyph0-3" x="192.65625" y="97.703125"/>
</g>
</g>
</g>
  <g id="id1:id1" transform="matrix(1.25,0,0,1.25,260.8203125,0.0)"><g id="id1:surface1">
<g style="fill:rgb(0%,0%,0%);fill-opacity:1;">
  <use xlink:href="#id1:glyph0-1" x="0" y="120.84375"/>
</g>
</g>
</g>
  <g id="id2:id2" transform="matrix(1.25,0,0,1.25,393.41796875,12.94921875)"><g id="id2:surface1">
<g style="fill:rgb(0%,0%,0%);fill-opacity:1;">
  <use xlink:href="#id2:glyph0-1" x="16" y="97.703125"/>
</g>
</g>
</g>
</svg>
