<!DOCTYPE svg PUBLIC "-//W3C//DTD SVG 1.1//EN" "http://www.w3.org/Graphics/SVG/1.1/DTD/svg11.dtd">
<!-- Created with svg_stack (http://github.com/astraw/svg_stack) --><svg xmlns="http://www.w3.org/2000/svg" xmlns:sodipodi="http://sodipodi.sourceforge.net/DTD/sodipodi-0.dtd" xmlns:xlink="http://www.w3.org/1999/xlink" version="1.1" width="100%" id="tamil-haln" viewBox="0 0 545.33203125 201.40625">
  <defs><g>
<symbol overflow="visible" id="tamil-haln:id0:glyph0-0">
<path style="stroke:none;" d="M 10.34375 0 L 10.34375 -78.546875 L 55.546875 -78.546875 L 55.546875 0 Z M 15.953125 -5.609375 L 49.9375 -5.609375 L 49.9375 -72.9375 L 15.953125 -72.9375 Z M 15.953125 -5.609375 "/>
</symbol>
<symbol overflow="visible" id="tamil-haln:id0:glyph0-1">
<path style="stroke:none;" d="M 55.328125 1.3125 C 51.441406 1.3125 47.90625 0.359375 44.71875 -1.546875 C 41.53125 -3.453125 38.976562 -6.4375 37.0625 -10.5 C 35.15625 -14.570312 34.203125 -19.835938 34.203125 -26.296875 C 34.203125 -31.941406 35.117188 -36.851562 36.953125 -41.03125 C 38.785156 -45.207031 41.28125 -48.691406 44.4375 -51.484375 C 47.882812 -54.628906 52.210938 -56.988281 57.421875 -58.5625 C 62.628906 -60.144531 69.335938 -60.9375 77.546875 -60.9375 L 114.1875 -60.9375 L 114.1875 -53.015625 L 95.484375 -53.015625 L 95.484375 -31.234375 C 96.867188 -32.191406 98.609375 -33.070312 100.703125 -33.875 C 102.796875 -34.6875 105.160156 -35.09375 107.796875 -35.09375 C 113.734375 -35.09375 118.550781 -32.835938 122.25 -28.328125 C 125.957031 -23.816406 127.8125 -17.414062 127.8125 -9.125 C 127.8125 -0.988281 126.234375 5.914062 123.078125 11.59375 C 119.929688 17.28125 115.644531 21.863281 110.21875 25.34375 C 104.789062 28.832031 98.648438 31.363281 91.796875 32.9375 C 84.941406 34.519531 77.8125 35.3125 70.40625 35.3125 L 67.4375 35.3125 C 58.34375 35.3125 50.4375 34.359375 43.71875 32.453125 C 37.007812 30.546875 31.328125 27.90625 26.671875 24.53125 C 22.015625 21.15625 18.289062 17.265625 15.5 12.859375 C 12.71875 8.460938 10.6875 3.773438 9.40625 -1.203125 C 8.125 -6.191406 7.484375 -11.253906 7.484375 -16.390625 L 7.484375 -18.703125 C 7.484375 -23.765625 8.160156 -28.84375 9.515625 -33.9375 C 10.867188 -39.03125 12.644531 -43.882812 14.84375 -48.5 C 17.050781 -53.125 19.398438 -57.269531 21.890625 -60.9375 L 30.03125 -56.09375 C 25.851562 -49.863281 22.625 -43.539062 20.34375 -37.125 C 18.070312 -30.707031 16.9375 -24.3125 16.9375 -17.9375 L 16.9375 -16.5 C 16.9375 -10.34375 17.925781 -4.644531 19.90625 0.59375 C 21.882812 5.84375 24.945312 10.425781 29.09375 14.34375 C 33.238281 18.269531 38.554688 21.332031 45.046875 23.53125 C 51.535156 25.738281 59.328125 26.84375 68.421875 26.84375 L 69.84375 26.84375 C 79.238281 26.84375 87.5625 25.554688 94.8125 22.984375 C 102.070312 20.421875 107.773438 16.476562 111.921875 11.15625 C 116.066406 5.84375 118.140625 -0.953125 118.140625 -9.234375 C 118.140625 -15.109375 117.09375 -19.566406 115 -22.609375 C 112.914062 -25.648438 109.929688 -27.171875 106.046875 -27.171875 C 103.984375 -27.171875 102.070312 -26.765625 100.3125 -25.953125 C 98.5625 -25.148438 96.953125 -24.234375 95.484375 -23.203125 L 95.484375 0 L 86.015625 0 L 86.015625 -53.015625 L 76.234375 -53.015625 C 71.535156 -53.015625 67.609375 -52.738281 64.453125 -52.1875 C 61.304688 -51.644531 58.722656 -50.894531 56.703125 -49.9375 C 54.691406 -48.988281 52.953125 -47.851562 51.484375 -46.53125 C 47.222656 -42.789062 44.546875 -37.953125 43.453125 -32.015625 C 45.359375 -33.253906 47.425781 -34.238281 49.65625 -34.96875 C 51.894531 -35.707031 54.191406 -36.078125 56.546875 -36.078125 C 61.890625 -36.078125 66.191406 -34.460938 69.453125 -31.234375 C 72.722656 -28.015625 74.359375 -23.65625 74.359375 -18.15625 C 74.359375 -12.0625 72.648438 -7.289062 69.234375 -3.84375 C 65.828125 -0.40625 61.191406 1.3125 55.328125 1.3125 Z M 55 -28.375 C 52.800781 -28.375 50.691406 -27.914062 48.671875 -27 C 46.660156 -26.082031 44.738281 -24.851562 42.90625 -23.3125 C 43.195312 -17.226562 44.53125 -12.847656 46.90625 -10.171875 C 49.289062 -7.492188 52.28125 -6.15625 55.875 -6.15625 C 58.664062 -6.15625 60.941406 -7.085938 62.703125 -8.953125 C 64.460938 -10.828125 65.34375 -13.523438 65.34375 -17.046875 C 65.34375 -20.710938 64.367188 -23.515625 62.421875 -25.453125 C 60.484375 -27.398438 58.007812 -28.375 55 -28.375 Z M 55 -28.375 "/>
</symbol>
<symbol overflow="visible" id="tamil-haln:id0:glyph0-2">
<path style="stroke:none;" d="M -30.578125 -74.578125 C -32.703125 -74.578125 -34.460938 -75.253906 -35.859375 -76.609375 C -37.253906 -77.972656 -37.953125 -79.753906 -37.953125 -81.953125 C -37.953125 -84.078125 -37.253906 -85.832031 -35.859375 -87.21875 C -34.460938 -88.613281 -32.703125 -89.3125 -30.578125 -89.3125 C -28.453125 -89.3125 -26.691406 -88.613281 -25.296875 -87.21875 C -23.898438 -85.832031 -23.203125 -84.078125 -23.203125 -81.953125 C -23.203125 -79.753906 -23.898438 -77.972656 -25.296875 -76.609375 C -26.691406 -75.253906 -28.453125 -74.578125 -30.578125 -74.578125 Z M -30.578125 -74.578125 "/>
</symbol>
</g>
<g>
<symbol overflow="visible" id="tamil-haln:id1:glyph0-0">
<path style="stroke:none;" d="M 5.375 -96.6875 L 69.828125 -96.6875 L 69.828125 0 L 5.375 0 Z M 8.0625 -2.6875 L 67.140625 -2.6875 L 67.140625 -94 L 8.0625 -94 Z M 8.0625 -2.6875 "/>
</symbol>
<symbol overflow="visible" id="tamil-haln:id1:glyph0-1">
<path style="stroke:none;" d="M 68.15625 -13.75 L 66.28125 -18.640625 L 88.09375 -27.390625 L 6.984375 -27.390625 L 6.984375 -34 L 88.09375 -34 L 66.28125 -42.75 L 68.15625 -47.640625 L 99.09375 -34.265625 L 99.09375 -27.125 Z M 68.15625 -13.75 "/>
</symbol>
</g>
<g>
<symbol overflow="visible" id="tamil-haln:id2:glyph0-0">
<path style="stroke:none;" d="M 10.34375 0 L 10.34375 -78.546875 L 55.546875 -78.546875 L 55.546875 0 Z M 15.953125 -5.609375 L 49.9375 -5.609375 L 49.9375 -72.9375 L 15.953125 -72.9375 Z M 15.953125 -5.609375 "/>
</symbol>
<symbol overflow="visible" id="tamil-haln:id2:glyph0-1">
<path style="stroke:none;" d="M 55.328125 1.3125 C 51.441406 1.3125 47.90625 0.359375 44.71875 -1.546875 C 41.53125 -3.453125 38.976562 -6.4375 37.0625 -10.5 C 35.15625 -14.570312 34.203125 -19.835938 34.203125 -26.296875 C 34.203125 -31.941406 35.117188 -36.851562 36.953125 -41.03125 C 38.785156 -45.207031 41.28125 -48.691406 44.4375 -51.484375 C 47.882812 -54.628906 52.210938 -56.988281 57.421875 -58.5625 C 62.628906 -60.144531 69.335938 -60.9375 77.546875 -60.9375 L 114.1875 -60.9375 L 114.1875 -53.015625 L 95.484375 -53.015625 L 95.484375 -31.234375 C 96.867188 -32.191406 98.609375 -33.070312 100.703125 -33.875 C 102.796875 -34.6875 105.160156 -35.09375 107.796875 -35.09375 C 113.734375 -35.09375 118.550781 -32.835938 122.25 -28.328125 C 125.957031 -23.816406 127.8125 -17.414062 127.8125 -9.125 C 127.8125 -0.988281 126.234375 5.914062 123.078125 11.59375 C 119.929688 17.28125 115.644531 21.863281 110.21875 25.34375 C 104.789062 28.832031 98.648438 31.363281 91.796875 32.9375 C 84.941406 34.519531 77.8125 35.3125 70.40625 35.3125 L 67.4375 35.3125 C 58.34375 35.3125 50.4375 34.359375 43.71875 32.453125 C 37.007812 30.546875 31.328125 27.90625 26.671875 24.53125 C 22.015625 21.15625 18.289062 17.265625 15.5 12.859375 C 12.71875 8.460938 10.6875 3.773438 9.40625 -1.203125 C 8.125 -6.191406 7.484375 -11.253906 7.484375 -16.390625 L 7.484375 -18.703125 C 7.484375 -23.765625 8.160156 -28.84375 9.515625 -33.9375 C 10.867188 -39.03125 12.644531 -43.882812 14.84375 -48.5 C 17.050781 -53.125 19.398438 -57.269531 21.890625 -60.9375 L 30.03125 -56.09375 C 25.851562 -49.863281 22.625 -43.539062 20.34375 -37.125 C 18.070312 -30.707031 16.9375 -24.3125 16.9375 -17.9375 L 16.9375 -16.5 C 16.9375 -10.34375 17.925781 -4.644531 19.90625 0.59375 C 21.882812 5.84375 24.945312 10.425781 29.09375 14.34375 C 33.238281 18.269531 38.554688 21.332031 45.046875 23.53125 C 51.535156 25.738281 59.328125 26.84375 68.421875 26.84375 L 69.84375 26.84375 C 79.238281 26.84375 87.5625 25.554688 94.8125 22.984375 C 102.070312 20.421875 107.773438 16.476562 111.921875 11.15625 C 116.066406 5.84375 118.140625 -0.953125 118.140625 -9.234375 C 118.140625 -15.109375 117.09375 -19.566406 115 -22.609375 C 112.914062 -25.648438 109.929688 -27.171875 106.046875 -27.171875 C 103.984375 -27.171875 102.070312 -26.765625 100.3125 -25.953125 C 98.5625 -25.148438 96.953125 -24.234375 95.484375 -23.203125 L 95.484375 0 L 86.015625 0 L 86.015625 -53.015625 L 76.234375 -53.015625 C 71.535156 -53.015625 67.609375 -52.738281 64.453125 -52.1875 C 61.304688 -51.644531 58.722656 -50.894531 56.703125 -49.9375 C 54.691406 -48.988281 52.953125 -47.851562 51.484375 -46.53125 C 47.222656 -42.789062 44.546875 -37.953125 43.453125 -32.015625 C 45.359375 -33.253906 47.425781 -34.238281 49.65625 -34.96875 C 51.894531 -35.707031 54.191406 -36.078125 56.546875 -36.078125 C 61.890625 -36.078125 66.191406 -34.460938 69.453125 -31.234375 C 72.722656 -28.015625 74.359375 -23.65625 74.359375 -18.15625 C 74.359375 -12.0625 72.648438 -7.289062 69.234375 -3.84375 C 65.828125 -0.40625 61.191406 1.3125 55.328125 1.3125 Z M 55 -28.375 C 52.800781 -28.375 50.691406 -27.914062 48.671875 -27 C 46.660156 -26.082031 44.738281 -24.851562 42.90625 -23.3125 C 43.195312 -17.226562 44.53125 -12.847656 46.90625 -10.171875 C 49.289062 -7.492188 52.28125 -6.15625 55.875 -6.15625 C 58.664062 -6.15625 60.941406 -7.085938 62.703125 -8.953125 C 64.460938 -10.828125 65.34375 -13.523438 65.34375 -17.046875 C 65.34375 -20.710938 64.367188 -23.515625 62.421875 -25.453125 C 60.484375 -27.398438 58.007812 -28.375 55 -28.375 Z M 66.65625 -74.578125 C 64.53125 -74.578125 62.769531 -75.253906 61.375 -76.609375 C 59.976562 -77.972656 59.28125 -79.753906 59.28125 -81.953125 C 59.28125 -84.078125 59.976562 -85.832031 61.375 -87.21875 C 62.769531 -88.613281 64.53125 -89.3125 66.65625 -89.3125 C 68.78125 -89.3125 70.539062 -88.613281 71.9375 -87.21875 C 73.332031 -85.832031 74.03125 -84.078125 74.03125 -81.953125 C 74.03125 -79.753906 73.332031 -77.972656 71.9375 -76.609375 C 70.539062 -75.253906 68.78125 -74.578125 66.65625 -74.578125 Z M 66.65625 -74.578125 "/>
</symbol>
</g>
</defs>
  <g id="tamil-haln:id0:id0" transform="matrix(1.25,0,0,1.25,0.0,12.94921875)"><g id="tamil-haln:id0:surface1">
<g style="fill:rgb(0%,0%,0%);fill-opacity:1;">
  <use xlink:href="#tamil-haln:id0:glyph0-1" x="16" y="97.703125" class="c0"/>
  <use xlink:href="#tamil-haln:id0:glyph0-2" x="149.09375" y="97.703125" class="c1"/>
</g>
</g>
</g>
  <g id="tamil-haln:id1:id1" transform="matrix(1.25,0,0,1.25,206.3671875,0.0)"><g id="tamil-haln:id1:surface1">
<g style="fill:rgb(0%,0%,0%);fill-opacity:1;">
  <use xlink:href="#tamil-haln:id1:glyph0-1" x="0" y="120.84375" class="arrow"/>
</g>
</g>
</g>
  <g id="tamil-haln:id2:id2" transform="matrix(1.25,0,0,1.25,338.96484375,12.94921875)"><g id="tamil-haln:id2:surface1">
<g style="fill:rgb(0%,0%,0%);fill-opacity:1;">
  <use xlink:href="#tamil-haln:id2:glyph0-1" x="16" y="97.703125" class="c2"/>
</g>
</g>
</g>
</svg>