<!DOCTYPE svg PUBLIC "-//W3C//DTD SVG 1.1//EN" "http://www.w3.org/Graphics/SVG/1.1/DTD/svg11.dtd">
<!-- Created with svg_stack (http://github.com/astraw/svg_stack) --><svg xmlns="http://www.w3.org/2000/svg" xmlns:sodipodi="http://sodipodi.sourceforge.net/DTD/sodipodi-0.dtd" xmlns:xlink="http://www.w3.org/1999/xlink" version="1.1" width="100%" id="tamil-abvm" viewBox="0 0 669.94140625 219.6484375">
  <defs><g>
<symbol overflow="visible" id="tamil-abvm:id0:glyph0-0">
<path style="stroke:none;" d="M 10.34375 -0.546875 L 10.34375 -79.09375 L 55.546875 -79.09375 L 55.546875 -0.546875 Z M 15.953125 -6.15625 L 49.9375 -6.15625 L 49.9375 -73.484375 L 15.953125 -73.484375 Z M 15.953125 -6.15625 "/>
</symbol>
<symbol overflow="visible" id="tamil-abvm:id0:glyph0-1">
<path style="stroke:none;" d="M 24.3125 28.375 C 21.15625 28.375 18.734375 27.769531 17.046875 26.5625 C 15.359375 25.351562 14.515625 23.394531 14.515625 20.6875 C 14.515625 18.039062 15.375 16.003906 17.09375 14.578125 C 18.820312 13.148438 21.097656 12.160156 23.921875 11.609375 C 26.742188 11.054688 29.769531 10.78125 33 10.78125 L 118.578125 10.78125 C 129.210938 10.78125 137.972656 9.679688 144.859375 7.484375 C 151.753906 5.285156 156.90625 1.457031 160.3125 -4 C 163.726562 -9.46875 165.4375 -17.007812 165.4375 -26.625 C 165.4375 -34.175781 164.644531 -40.039062 163.0625 -44.21875 C 161.488281 -48.394531 159.4375 -51.328125 156.90625 -53.015625 C 154.382812 -54.703125 151.726562 -55.546875 148.9375 -55.546875 C 145.414062 -55.546875 142.351562 -54.425781 139.75 -52.1875 C 137.144531 -49.957031 135.84375 -46.828125 135.84375 -42.796875 L 135.84375 0 L 125.40625 0 L 125.40625 -42.90625 C 125.40625 -46.644531 124.523438 -49.664062 122.765625 -51.96875 C 121.003906 -54.28125 118.4375 -55.4375 115.0625 -55.4375 C 112.125 -55.4375 109.71875 -54.5 107.84375 -52.625 C 105.976562 -50.757812 105.046875 -47.992188 105.046875 -44.328125 L 105.046875 0 L 66.546875 0 L 64.5625 -4.734375 C 66.914062 -6.929688 68.988281 -9.9375 70.78125 -13.75 C 72.582031 -17.5625 73.484375 -22.398438 73.484375 -28.265625 C 73.484375 -33.617188 72.195312 -38.332031 69.625 -42.40625 C 67.0625 -46.476562 63.597656 -49.6875 59.234375 -52.03125 C 54.867188 -54.375 49.9375 -55.546875 44.4375 -55.546875 C 38.132812 -55.546875 32.617188 -54.351562 27.890625 -51.96875 C 23.160156 -49.59375 19.472656 -46.148438 16.828125 -41.640625 C 14.191406 -37.128906 12.875 -31.71875 12.875 -25.40625 C 12.875 -22.550781 13.238281 -19.945312 13.96875 -17.59375 C 15.144531 -22.289062 17.566406 -26.101562 21.234375 -29.03125 C 24.898438 -31.96875 29.078125 -33.4375 33.765625 -33.4375 C 38.972656 -33.4375 43.0625 -31.878906 46.03125 -28.765625 C 49 -25.648438 50.484375 -21.5625 50.484375 -16.5 C 50.484375 -11.582031 48.664062 -7.53125 45.03125 -4.34375 C 41.40625 -1.15625 36.625 0.4375 30.6875 0.4375 C 26.582031 0.4375 22.675781 -0.550781 18.96875 -2.53125 C 15.269531 -4.507812 12.265625 -7.441406 9.953125 -11.328125 C 7.640625 -15.210938 6.484375 -20.015625 6.484375 -25.734375 C 6.484375 -33.285156 8.1875 -39.71875 11.59375 -45.03125 C 15.007812 -50.351562 19.6875 -54.425781 25.625 -57.25 C 31.570312 -60.070312 38.320312 -61.484375 45.875 -61.484375 C 51.15625 -61.484375 56.101562 -60.710938 60.71875 -59.171875 C 65.34375 -57.640625 69.394531 -55.425781 72.875 -52.53125 C 76.351562 -49.632812 79.082031 -46.1875 81.0625 -42.1875 C 83.050781 -38.1875 84.046875 -33.691406 84.046875 -28.703125 C 84.046875 -23.359375 83.015625 -18.8125 80.953125 -15.0625 C 78.898438 -11.320312 76.703125 -8.28125 74.359375 -5.9375 L 98.34375 -5.9375 L 98.34375 -44.328125 C 98.34375 -48.066406 99.109375 -51.203125 100.640625 -53.734375 C 102.179688 -56.265625 104.234375 -58.171875 106.796875 -59.453125 C 109.367188 -60.734375 112.160156 -61.375 115.171875 -61.375 C 118.179688 -61.375 120.691406 -60.84375 122.703125 -59.78125 C 124.722656 -58.71875 126.316406 -57.4375 127.484375 -55.9375 C 128.660156 -54.4375 129.46875 -53.0625 129.90625 -51.8125 C 130.644531 -53.132812 131.875 -54.546875 133.59375 -56.046875 C 135.320312 -57.546875 137.503906 -58.828125 140.140625 -59.890625 C 142.773438 -60.953125 145.742188 -61.484375 149.046875 -61.484375 C 154.253906 -61.484375 158.597656 -60.4375 162.078125 -58.34375 C 165.566406 -56.257812 168.316406 -53.472656 170.328125 -49.984375 C 172.347656 -46.503906 173.796875 -42.617188 174.671875 -38.328125 C 175.554688 -34.046875 176 -29.738281 176 -25.40625 C 176 -15.144531 173.742188 -6.914062 169.234375 -0.71875 C 164.722656 5.476562 158.320312 9.929688 150.03125 12.640625 C 141.75 15.359375 131.851562 16.71875 120.34375 16.71875 L 36.734375 16.71875 C 33.367188 16.71875 30.785156 17.175781 28.984375 18.09375 C 27.191406 19.007812 25.960938 20.328125 25.296875 22.046875 C 24.640625 23.773438 24.3125 25.882812 24.3125 28.375 Z M 29.703125 -25.953125 C 26.328125 -25.953125 23.445312 -24.722656 21.0625 -22.265625 C 18.675781 -19.816406 17.226562 -16.316406 16.71875 -11.765625 C 18.257812 -9.640625 20.09375 -8.046875 22.21875 -6.984375 C 24.34375 -5.921875 26.539062 -5.390625 28.8125 -5.390625 C 32.476562 -5.390625 35.320312 -6.429688 37.34375 -8.515625 C 39.363281 -10.609375 40.375 -13.125 40.375 -16.0625 C 40.375 -18.550781 39.53125 -20.820312 37.84375 -22.875 C 36.15625 -24.925781 33.441406 -25.953125 29.703125 -25.953125 Z M 29.703125 -25.953125 "/>
</symbol>
<symbol overflow="visible" id="tamil-abvm:id0:glyph0-2">
<path style="stroke:none;" d="M 0 -70.0625 C -1.832031 -70.0625 -3.40625 -70.722656 -4.71875 -72.046875 C -6.039062 -73.367188 -6.703125 -74.910156 -6.703125 -76.671875 C -6.703125 -78.429688 -6.039062 -79.96875 -4.71875 -81.28125 C -3.40625 -82.601562 -1.832031 -83.265625 0 -83.265625 C 1.90625 -83.265625 3.5 -82.601562 4.78125 -81.28125 C 6.0625 -79.96875 6.703125 -78.429688 6.703125 -76.671875 C 6.703125 -74.910156 6.0625 -73.367188 4.78125 -72.046875 C 3.5 -70.722656 1.90625 -70.0625 0 -70.0625 Z M 0 -70.0625 "/>
</symbol>
</g>
<g>
<symbol overflow="visible" id="tamil-abvm:id1:glyph0-0">
<path style="stroke:none;" d="M 5.375 -96.6875 L 69.828125 -96.6875 L 69.828125 0 L 5.375 0 Z M 8.0625 -2.6875 L 67.140625 -2.6875 L 67.140625 -94 L 8.0625 -94 Z M 8.0625 -2.6875 "/>
</symbol>
<symbol overflow="visible" id="tamil-abvm:id1:glyph0-1">
<path style="stroke:none;" d="M 68.15625 -13.75 L 66.28125 -18.640625 L 88.09375 -27.390625 L 6.984375 -27.390625 L 6.984375 -34 L 88.09375 -34 L 66.28125 -42.75 L 68.15625 -47.640625 L 99.09375 -34.265625 L 99.09375 -27.125 Z M 68.15625 -13.75 "/>
</symbol>
</g>
<g>
<symbol overflow="visible" id="tamil-abvm:id2:glyph0-0">
<path style="stroke:none;" d="M 10.34375 -0.546875 L 10.34375 -79.09375 L 55.546875 -79.09375 L 55.546875 -0.546875 Z M 15.953125 -6.15625 L 49.9375 -6.15625 L 49.9375 -73.484375 L 15.953125 -73.484375 Z M 15.953125 -6.15625 "/>
</symbol>
<symbol overflow="visible" id="tamil-abvm:id2:glyph0-1">
<path style="stroke:none;" d="M 24.3125 28.375 C 21.15625 28.375 18.734375 27.769531 17.046875 26.5625 C 15.359375 25.351562 14.515625 23.394531 14.515625 20.6875 C 14.515625 18.039062 15.375 16.003906 17.09375 14.578125 C 18.820312 13.148438 21.097656 12.160156 23.921875 11.609375 C 26.742188 11.054688 29.769531 10.78125 33 10.78125 L 118.578125 10.78125 C 129.210938 10.78125 137.972656 9.679688 144.859375 7.484375 C 151.753906 5.285156 156.90625 1.457031 160.3125 -4 C 163.726562 -9.46875 165.4375 -17.007812 165.4375 -26.625 C 165.4375 -34.175781 164.644531 -40.039062 163.0625 -44.21875 C 161.488281 -48.394531 159.4375 -51.328125 156.90625 -53.015625 C 154.382812 -54.703125 151.726562 -55.546875 148.9375 -55.546875 C 145.414062 -55.546875 142.351562 -54.425781 139.75 -52.1875 C 137.144531 -49.957031 135.84375 -46.828125 135.84375 -42.796875 L 135.84375 0 L 125.40625 0 L 125.40625 -42.90625 C 125.40625 -46.644531 124.523438 -49.664062 122.765625 -51.96875 C 121.003906 -54.28125 118.4375 -55.4375 115.0625 -55.4375 C 112.125 -55.4375 109.71875 -54.5 107.84375 -52.625 C 105.976562 -50.757812 105.046875 -47.992188 105.046875 -44.328125 L 105.046875 0 L 66.546875 0 L 64.5625 -4.734375 C 66.914062 -6.929688 68.988281 -9.9375 70.78125 -13.75 C 72.582031 -17.5625 73.484375 -22.398438 73.484375 -28.265625 C 73.484375 -33.617188 72.195312 -38.332031 69.625 -42.40625 C 67.0625 -46.476562 63.597656 -49.6875 59.234375 -52.03125 C 54.867188 -54.375 49.9375 -55.546875 44.4375 -55.546875 C 38.132812 -55.546875 32.617188 -54.351562 27.890625 -51.96875 C 23.160156 -49.59375 19.472656 -46.148438 16.828125 -41.640625 C 14.191406 -37.128906 12.875 -31.71875 12.875 -25.40625 C 12.875 -22.550781 13.238281 -19.945312 13.96875 -17.59375 C 15.144531 -22.289062 17.566406 -26.101562 21.234375 -29.03125 C 24.898438 -31.96875 29.078125 -33.4375 33.765625 -33.4375 C 38.972656 -33.4375 43.0625 -31.878906 46.03125 -28.765625 C 49 -25.648438 50.484375 -21.5625 50.484375 -16.5 C 50.484375 -11.582031 48.664062 -7.53125 45.03125 -4.34375 C 41.40625 -1.15625 36.625 0.4375 30.6875 0.4375 C 26.582031 0.4375 22.675781 -0.550781 18.96875 -2.53125 C 15.269531 -4.507812 12.265625 -7.441406 9.953125 -11.328125 C 7.640625 -15.210938 6.484375 -20.015625 6.484375 -25.734375 C 6.484375 -33.285156 8.1875 -39.71875 11.59375 -45.03125 C 15.007812 -50.351562 19.6875 -54.425781 25.625 -57.25 C 31.570312 -60.070312 38.320312 -61.484375 45.875 -61.484375 C 51.15625 -61.484375 56.101562 -60.710938 60.71875 -59.171875 C 65.34375 -57.640625 69.394531 -55.425781 72.875 -52.53125 C 76.351562 -49.632812 79.082031 -46.1875 81.0625 -42.1875 C 83.050781 -38.1875 84.046875 -33.691406 84.046875 -28.703125 C 84.046875 -23.359375 83.015625 -18.8125 80.953125 -15.0625 C 78.898438 -11.320312 76.703125 -8.28125 74.359375 -5.9375 L 98.34375 -5.9375 L 98.34375 -44.328125 C 98.34375 -48.066406 99.109375 -51.203125 100.640625 -53.734375 C 102.179688 -56.265625 104.234375 -58.171875 106.796875 -59.453125 C 109.367188 -60.734375 112.160156 -61.375 115.171875 -61.375 C 118.179688 -61.375 120.691406 -60.84375 122.703125 -59.78125 C 124.722656 -58.71875 126.316406 -57.4375 127.484375 -55.9375 C 128.660156 -54.4375 129.46875 -53.0625 129.90625 -51.8125 C 130.644531 -53.132812 131.875 -54.546875 133.59375 -56.046875 C 135.320312 -57.546875 137.503906 -58.828125 140.140625 -59.890625 C 142.773438 -60.953125 145.742188 -61.484375 149.046875 -61.484375 C 154.253906 -61.484375 158.597656 -60.4375 162.078125 -58.34375 C 165.566406 -56.257812 168.316406 -53.472656 170.328125 -49.984375 C 172.347656 -46.503906 173.796875 -42.617188 174.671875 -38.328125 C 175.554688 -34.046875 176 -29.738281 176 -25.40625 C 176 -15.144531 173.742188 -6.914062 169.234375 -0.71875 C 164.722656 5.476562 158.320312 9.929688 150.03125 12.640625 C 141.75 15.359375 131.851562 16.71875 120.34375 16.71875 L 36.734375 16.71875 C 33.367188 16.71875 30.785156 17.175781 28.984375 18.09375 C 27.191406 19.007812 25.960938 20.328125 25.296875 22.046875 C 24.640625 23.773438 24.3125 25.882812 24.3125 28.375 Z M 29.703125 -25.953125 C 26.328125 -25.953125 23.445312 -24.722656 21.0625 -22.265625 C 18.675781 -19.816406 17.226562 -16.316406 16.71875 -11.765625 C 18.257812 -9.640625 20.09375 -8.046875 22.21875 -6.984375 C 24.34375 -5.921875 26.539062 -5.390625 28.8125 -5.390625 C 32.476562 -5.390625 35.320312 -6.429688 37.34375 -8.515625 C 39.363281 -10.609375 40.375 -13.125 40.375 -16.0625 C 40.375 -18.550781 39.53125 -20.820312 37.84375 -22.875 C 36.15625 -24.925781 33.441406 -25.953125 29.703125 -25.953125 Z M 29.703125 -25.953125 "/>
</symbol>
<symbol overflow="visible" id="tamil-abvm:id2:glyph0-2">
<path style="stroke:none;" d="M 0 -70.0625 C -1.832031 -70.0625 -3.40625 -70.722656 -4.71875 -72.046875 C -6.039062 -73.367188 -6.703125 -74.910156 -6.703125 -76.671875 C -6.703125 -78.429688 -6.039062 -79.96875 -4.71875 -81.28125 C -3.40625 -82.601562 -1.832031 -83.265625 0 -83.265625 C 1.90625 -83.265625 3.5 -82.601562 4.78125 -81.28125 C 6.0625 -79.96875 6.703125 -78.429688 6.703125 -76.671875 C 6.703125 -74.910156 6.0625 -73.367188 4.78125 -72.046875 C 3.5 -70.722656 1.90625 -70.0625 0 -70.0625 Z M 0 -70.0625 "/>
</symbol>
</g>
</defs>
  <g id="tamil-abvm:id0:id0" transform="matrix(1.25,0,0,1.25,0.0,0.0)"><g id="tamil-abvm:id0:surface1">
<g style="fill:rgb(0%,0%,0%);fill-opacity:1;">
  <use xlink:href="#tamil-abvm:id0:glyph0-1" x="16" y="119.59375" class="c0"/>
  <use xlink:href="#tamil-abvm:id0:glyph0-2" x="198.9375" y="119.59375" class="c1"/>
</g>
</g>
</g>
  <g id="tamil-abvm:id1:id1" transform="matrix(1.25,0,0,1.25,268.671875,9.12109375)"><g id="tamil-abvm:id1:surface1">
<g style="fill:rgb(0%,0%,0%);fill-opacity:1;">
  <use xlink:href="#tamil-abvm:id1:glyph0-1" x="0" y="120.84375" class="arrow"/>
</g>
</g>
</g>
  <g id="tamil-abvm:id2:id2" transform="matrix(1.25,0,0,1.25,401.26953125,0.0)"><g id="tamil-abvm:id2:surface1">
<g style="fill:rgb(0%,0%,0%);fill-opacity:1;">
  <use xlink:href="#tamil-abvm:id2:glyph0-1" x="16" y="119.59375" class="c0"/>
  <use xlink:href="#tamil-abvm:id2:glyph0-2" x="109.28125" y="119.59375" class="c1"/>
</g>
</g>
</g>
</svg>