<?xml version="1.0" standalone="no"?>
<!DOCTYPE svg PUBLIC "-//W3C//DTD SVG 1.1//EN"
 "http://www.w3.org/Graphics/SVG/1.1/DTD/svg11.dtd">
<!-- Created with svg_stack (http://github.com/astraw/svg_stack) -->
<svg xmlns="http://www.w3.org/2000/svg" xmlns:sodipodi="http://sodipodi.sourceforge.net/DTD/sodipodi-0.dtd" xmlns:xlink="http://www.w3.org/1999/xlink" version="1.1" width="497.2265625" height="305.29296875">
  <defs><g>
<symbol overflow="visible" id="id0:glyph0-0">
<path style="stroke:none;" d="M 10.34375 0 L 10.34375 -78.546875 L 55.546875 -78.546875 L 55.546875 0 Z M 15.953125 -72.9375 L 15.953125 -5.609375 L 49.9375 -5.609375 L 49.9375 -72.9375 Z M 15.953125 -72.9375 "/>
</symbol>
<symbol overflow="visible" id="id0:glyph0-1">
<path style="stroke:none;" d="M 36.734375 1.09375 C 30.503906 1.09375 25.097656 -0.242188 20.515625 -2.921875 C 15.929688 -5.597656 12.375 -9.242188 9.84375 -13.859375 C 7.3125 -18.484375 6.046875 -23.691406 6.046875 -29.484375 C 6.046875 -35.273438 7.3125 -40.476562 9.84375 -45.09375 C 12.375 -49.71875 15.96875 -53.367188 20.625 -56.046875 C 25.28125 -58.722656 30.757812 -60.0625 37.0625 -60.0625 C 43.375 -60.0625 48.859375 -58.703125 53.515625 -55.984375 C 58.171875 -53.273438 61.765625 -49.609375 64.296875 -44.984375 C 66.828125 -40.367188 68.09375 -35.203125 68.09375 -29.484375 C 68.09375 -23.535156 66.769531 -18.25 64.125 -13.625 C 61.488281 -9.007812 57.804688 -5.398438 53.078125 -2.796875 C 48.347656 -0.203125 42.898438 1.09375 36.734375 1.09375 Z M 37.0625 -7.046875 C 41.320312 -7.046875 45.007812 -7.976562 48.125 -9.84375 C 51.238281 -11.71875 53.65625 -14.320312 55.375 -17.65625 C 57.101562 -20.988281 57.96875 -24.859375 57.96875 -29.265625 C 57.96875 -36.003906 56.113281 -41.460938 52.40625 -45.640625 C 48.707031 -49.828125 43.632812 -51.921875 37.1875 -51.921875 C 30.726562 -51.921875 25.59375 -49.863281 21.78125 -45.75 C 17.96875 -41.644531 16.0625 -36.148438 16.0625 -29.265625 C 16.0625 -24.785156 16.957031 -20.878906 18.75 -17.546875 C 20.550781 -14.210938 23.046875 -11.628906 26.234375 -9.796875 C 29.421875 -7.960938 33.03125 -7.046875 37.0625 -7.046875 Z M 37.0625 -7.046875 "/>
</symbol>
<symbol overflow="visible" id="id0:glyph0-2">
<path style="stroke:none;" d="M 16.0625 1.09375 C 12.757812 1.09375 9.914062 0.875 7.53125 0.4375 C 5.144531 0 2.925781 -0.734375 0.875 -1.765625 L 4.40625 -9.015625 C 7.1875 -7.703125 10.554688 -7.046875 14.515625 -7.046875 C 20.609375 -7.046875 25.375 -9.113281 28.8125 -13.25 C 32.257812 -17.394531 33.984375 -22.914062 33.984375 -29.8125 C 33.984375 -34.132812 33.101562 -37.960938 31.34375 -41.296875 C 29.582031 -44.640625 27.070312 -47.265625 23.8125 -49.171875 C 20.550781 -51.078125 16.71875 -52.03125 12.3125 -52.03125 C 8.0625 -52.03125 3.867188 -50.984375 -0.265625 -48.890625 C -4.410156 -46.804688 -8.46875 -43.453125 -12.4375 -38.828125 L -18.15625 -44.875 C -14.1875 -49.5 -9.78125 -53.1875 -4.9375 -55.9375 C -0.101562 -58.6875 5.609375 -60.0625 12.203125 -60.0625 C 18.367188 -60.0625 23.851562 -58.722656 28.65625 -56.046875 C 33.457031 -53.367188 37.234375 -49.753906 39.984375 -45.203125 C 42.734375 -40.660156 44.109375 -35.492188 44.109375 -29.703125 C 44.109375 -23.765625 42.859375 -18.460938 40.359375 -13.796875 C 37.867188 -9.140625 34.515625 -5.492188 30.296875 -2.859375 C 26.085938 -0.222656 21.34375 1.09375 16.0625 1.09375 Z M 16.0625 1.09375 "/>
</symbol>
</g>
<g>
<symbol overflow="visible" id="id1:glyph0-0">
<path style="stroke:none;" d="M 5.375 -96.6875 L 69.828125 -96.6875 L 69.828125 0 L 5.375 0 Z M 8.0625 -2.6875 L 67.140625 -2.6875 L 67.140625 -94 L 8.0625 -94 Z M 8.0625 -2.6875 "/>
</symbol>
<symbol overflow="visible" id="id1:glyph0-1">
<path style="stroke:none;" d="M 68.15625 -13.75 L 66.28125 -18.640625 L 88.09375 -27.390625 L 6.984375 -27.390625 L 6.984375 -34 L 88.09375 -34 L 66.28125 -42.75 L 68.15625 -47.640625 L 99.09375 -34.265625 L 99.09375 -27.125 Z M 68.15625 -13.75 "/>
</symbol>
</g>
<g>
<symbol overflow="visible" id="id2:glyph0-0">
<path style="stroke:none;" d="M 10.34375 0 L 10.34375 -78.546875 L 55.546875 -78.546875 L 55.546875 0 Z M 15.953125 -72.9375 L 15.953125 -5.609375 L 49.9375 -5.609375 L 49.9375 -72.9375 Z M 15.953125 -72.9375 "/>
</symbol>
<symbol overflow="visible" id="id2:glyph0-1">
<path style="stroke:none;" d="M 36.734375 1.09375 C 30.503906 1.09375 25.097656 -0.242188 20.515625 -2.921875 C 15.929688 -5.597656 12.375 -9.242188 9.84375 -13.859375 C 7.3125 -18.484375 6.046875 -23.691406 6.046875 -29.484375 C 6.046875 -35.273438 7.3125 -40.476562 9.84375 -45.09375 C 12.375 -49.71875 15.96875 -53.367188 20.625 -56.046875 C 25.28125 -58.722656 30.757812 -60.0625 37.0625 -60.0625 C 43.375 -60.0625 48.859375 -58.703125 53.515625 -55.984375 C 58.171875 -53.273438 61.765625 -49.609375 64.296875 -44.984375 C 66.828125 -40.367188 68.09375 -35.203125 68.09375 -29.484375 C 68.09375 -23.535156 66.769531 -18.25 64.125 -13.625 C 61.488281 -9.007812 57.804688 -5.398438 53.078125 -2.796875 C 48.347656 -0.203125 42.898438 1.09375 36.734375 1.09375 Z M 37.0625 -7.046875 C 41.320312 -7.046875 45.007812 -7.976562 48.125 -9.84375 C 51.238281 -11.71875 53.65625 -14.320312 55.375 -17.65625 C 57.101562 -20.988281 57.96875 -24.859375 57.96875 -29.265625 C 57.96875 -36.003906 56.113281 -41.460938 52.40625 -45.640625 C 48.707031 -49.828125 43.632812 -51.921875 37.1875 -51.921875 C 30.726562 -51.921875 25.59375 -49.863281 21.78125 -45.75 C 17.96875 -41.644531 16.0625 -36.148438 16.0625 -29.265625 C 16.0625 -24.785156 16.957031 -20.878906 18.75 -17.546875 C 20.550781 -14.210938 23.046875 -11.628906 26.234375 -9.796875 C 29.421875 -7.960938 33.03125 -7.046875 37.0625 -7.046875 Z M 37.0625 -7.046875 "/>
</symbol>
<symbol overflow="visible" id="id2:glyph0-2">
<path style="stroke:none;" d="M 10.015625 0 L 10.015625 -85.796875 C 10.015625 -91.003906 8.945312 -95.164062 6.8125 -98.28125 C 4.6875 -101.394531 1.351562 -102.953125 -3.1875 -102.953125 C -7.144531 -102.953125 -10.332031 -101.59375 -12.75 -98.875 C -15.175781 -96.164062 -16.390625 -92.0625 -16.390625 -86.5625 L -16.390625 -84.8125 L -25.734375 -84.8125 L -25.734375 -86.34375 C -25.734375 -91.257812 -24.796875 -95.492188 -22.921875 -99.046875 C -21.054688 -102.609375 -18.421875 -105.378906 -15.015625 -107.359375 C -11.609375 -109.335938 -7.664062 -110.328125 -3.1875 -110.328125 C 4 -110.328125 9.550781 -108.015625 13.46875 -103.390625 C 17.394531 -98.773438 19.359375 -92.398438 19.359375 -84.265625 L 19.359375 0 Z M 10.015625 0 "/>
</symbol>
</g>
</defs>
  <g id="id0:id0" transform="matrix(1.25,0,0,1.25,0.0,0.0)"><g id="id0:surface1">
<g style="fill:rgb(0%,0%,0%);fill-opacity:1;">
  <use xlink:href="#id0:glyph0-1" x="16" y="147.640625"/>
  <use xlink:href="#id0:glyph0-2" x="90.140625" y="147.640625"/>
</g>
</g>
</g>
  <g id="id1:id1" transform="matrix(1.25,0,0,1.25,195.234375,51.943359375)"><g id="id1:surface1">
<g style="fill:rgb(0%,0%,0%);fill-opacity:1;">
  <use xlink:href="#id1:glyph0-1" x="0" y="120.84375"/>
</g>
</g>
</g>
  <g id="id2:id2" transform="matrix(1.25,0,0,1.25,327.83203125,0.0)"><g id="id2:surface1">
<g style="fill:rgb(0%,0%,0%);fill-opacity:1;">
  <use xlink:href="#id2:glyph0-1" x="16" y="147.640625"/>
  <use xlink:href="#id2:glyph0-2" x="90.140625" y="147.640625"/>
</g>
</g>
</g>
</svg>
