<!DOCTYPE svg PUBLIC "-//W3C//DTD SVG 1.1//EN" "http://www.w3.org/Graphics/SVG/1.1/DTD/svg11.dtd">
<!-- Created with svg_stack (http://github.com/astraw/svg_stack) --><svg xmlns="http://www.w3.org/2000/svg" xmlns:sodipodi="http://sodipodi.sourceforge.net/DTD/sodipodi-0.dtd" xmlns:xlink="http://www.w3.org/1999/xlink" version="1.1" width="459.27734375" height="305.29296875" id="myanmar-blws">
  <defs><g>
<symbol overflow="visible" id="myanmar-blws:id0:glyph0-0">
<path style="stroke:none;" d="M 10.34375 0 L 10.34375 -78.546875 L 55.546875 -78.546875 L 55.546875 0 Z M 15.953125 -72.9375 L 15.953125 -5.609375 L 49.9375 -5.609375 L 49.9375 -72.9375 Z M 15.953125 -72.9375 "/>
</symbol>
<symbol overflow="visible" id="myanmar-blws:id0:glyph0-1">
<path style="stroke:none;" d="M 32.5625 51.265625 C 17.53125 51.265625 10.015625 43.414062 10.015625 27.71875 L 10.015625 -86.796875 C 10.015625 -102.484375 17.53125 -110.328125 32.5625 -110.328125 L 67.984375 -110.328125 C 83.085938 -110.328125 90.640625 -102.484375 90.640625 -86.796875 L 90.640625 -83.59375 L 80.84375 -83.59375 L 80.84375 -88.65625 C 80.84375 -92.988281 79.832031 -96.363281 77.8125 -98.78125 C 75.800781 -101.195312 72.707031 -102.40625 68.53125 -102.40625 L 32.125 -102.40625 C 27.863281 -102.40625 24.757812 -101.195312 22.8125 -98.78125 C 20.875 -96.363281 19.90625 -92.988281 19.90625 -88.65625 L 19.90625 29.484375 C 19.90625 33.878906 20.875 37.285156 22.8125 39.703125 C 24.757812 42.128906 27.863281 43.34375 32.125 43.34375 L 68.53125 43.34375 C 72.707031 43.34375 75.800781 42.128906 77.8125 39.703125 C 79.832031 37.285156 80.84375 33.878906 80.84375 29.484375 L 80.84375 -16.828125 L 90.640625 -16.828125 L 90.640625 27.71875 C 90.640625 43.414062 83.085938 51.265625 67.984375 51.265625 Z M 32.5625 51.265625 "/>
</symbol>
<symbol overflow="visible" id="myanmar-blws:id0:glyph0-2">
<path style="stroke:none;" d="M 25.078125 1.09375 C 22.367188 -0.363281 19.835938 -2.5625 17.484375 -5.5 C 15.140625 -8.4375 13.253906 -11.847656 11.828125 -15.734375 C 10.398438 -19.617188 9.6875 -23.6875 9.6875 -27.9375 C 9.6875 -29.695312 9.796875 -31.382812 10.015625 -33 C 6.421875 -35.195312 3.78125 -38.019531 2.09375 -41.46875 C 0.40625 -44.914062 -0.4375 -48.546875 -0.4375 -52.359375 C -0.4375 -53.609375 -0.363281 -54.78125 -0.21875 -55.875 C -0.0703125 -56.976562 0.0351562 -58.003906 0.109375 -58.953125 L 9.234375 -58.953125 C 9.015625 -57.347656 8.867188 -56.085938 8.796875 -55.171875 C 8.722656 -54.253906 8.6875 -53.425781 8.6875 -52.6875 C 8.6875 -50.707031 9.015625 -48.726562 9.671875 -46.75 C 10.335938 -44.769531 11.21875 -43.226562 12.3125 -42.125 C 14.519531 -47.40625 17.914062 -51.710938 22.5 -55.046875 C 27.082031 -58.390625 32.671875 -60.0625 39.265625 -60.0625 C 44.691406 -60.0625 49.515625 -58.703125 53.734375 -55.984375 C 57.953125 -53.273438 61.289062 -49.554688 63.75 -44.828125 C 66.207031 -40.097656 67.4375 -34.613281 67.4375 -28.375 C 67.4375 -24.414062 66.847656 -20.546875 65.671875 -16.765625 C 64.492188 -12.992188 62.84375 -9.566406 60.71875 -6.484375 C 58.59375 -3.410156 56.097656 -0.882812 53.234375 1.09375 L 47.625 -5.9375 C 50.78125 -8.507812 53.203125 -11.628906 54.890625 -15.296875 C 56.578125 -18.960938 57.421875 -23.25 57.421875 -28.15625 C 57.421875 -35.34375 55.734375 -41.097656 52.359375 -45.421875 C 48.984375 -49.753906 44.472656 -51.921875 38.828125 -51.921875 C 34.210938 -51.921875 30.328125 -50.582031 27.171875 -47.90625 C 24.015625 -45.226562 21.703125 -41.945312 20.234375 -38.0625 C 26.253906 -35.644531 30.488281 -32.800781 32.9375 -29.53125 C 35.394531 -26.269531 36.625 -22.695312 36.625 -18.8125 C 36.625 -15 35.5625 -11.203125 33.4375 -7.421875 C 31.3125 -3.648438 28.523438 -0.8125 25.078125 1.09375 Z M 18.484375 -28.15625 C 18.484375 -23.976562 19.101562 -20.289062 20.34375 -17.09375 C 21.59375 -13.90625 23.132812 -11.472656 24.96875 -9.796875 C 26.21875 -11.035156 27.039062 -12.476562 27.4375 -14.125 C 27.84375 -15.78125 28.046875 -17.304688 28.046875 -18.703125 C 28.046875 -20.753906 27.3125 -22.785156 25.84375 -24.796875 C 24.382812 -26.816406 21.929688 -28.488281 18.484375 -29.8125 C 18.484375 -29.300781 18.484375 -28.75 18.484375 -28.15625 Z M 18.484375 -28.15625 "/>
</symbol>
<symbol overflow="visible" id="myanmar-blws:id0:glyph0-3">
<path style="stroke:none;" d="M -53.015625 51.375 L -53.015625 43.890625 L -39.265625 43.890625 L -39.265625 5.390625 L -29.59375 5.390625 L -29.59375 51.375 Z M -53.015625 51.375 "/>
</symbol>
</g>
<g>
<symbol overflow="visible" id="myanmar-blws:id1:glyph0-0">
<path style="stroke:none;" d="M 5.375 -96.6875 L 69.828125 -96.6875 L 69.828125 0 L 5.375 0 Z M 8.0625 -2.6875 L 67.140625 -2.6875 L 67.140625 -94 L 8.0625 -94 Z M 8.0625 -2.6875 "/>
</symbol>
<symbol overflow="visible" id="myanmar-blws:id1:glyph0-1">
<path style="stroke:none;" d="M 68.15625 -13.75 L 66.28125 -18.640625 L 88.09375 -27.390625 L 6.984375 -27.390625 L 6.984375 -34 L 88.09375 -34 L 66.28125 -42.75 L 68.15625 -47.640625 L 99.09375 -34.265625 L 99.09375 -27.125 Z M 68.15625 -13.75 "/>
</symbol>
</g>
<g>
<symbol overflow="visible" id="myanmar-blws:id2:glyph0-0">
<path style="stroke:none;" d="M 10.34375 0 L 10.34375 -78.546875 L 55.546875 -78.546875 L 55.546875 0 Z M 15.953125 -72.9375 L 15.953125 -5.609375 L 49.9375 -5.609375 L 49.9375 -72.9375 Z M 15.953125 -72.9375 "/>
</symbol>
<symbol overflow="visible" id="myanmar-blws:id2:glyph0-1">
<path style="stroke:none;" d="M 32.5625 51.265625 C 17.53125 51.265625 10.015625 43.414062 10.015625 27.71875 L 10.015625 -86.796875 C 10.015625 -102.484375 17.53125 -110.328125 32.5625 -110.328125 L 67.984375 -110.328125 C 83.085938 -110.328125 90.640625 -102.484375 90.640625 -86.796875 L 90.640625 -83.59375 L 80.84375 -83.59375 L 80.84375 -88.65625 C 80.84375 -92.988281 79.832031 -96.363281 77.8125 -98.78125 C 75.800781 -101.195312 72.707031 -102.40625 68.53125 -102.40625 L 32.125 -102.40625 C 27.863281 -102.40625 24.757812 -101.195312 22.8125 -98.78125 C 20.875 -96.363281 19.90625 -92.988281 19.90625 -88.65625 L 19.90625 29.484375 C 19.90625 33.878906 20.875 37.285156 22.8125 39.703125 C 24.757812 42.128906 27.863281 43.34375 32.125 43.34375 L 68.53125 43.34375 C 72.707031 43.34375 75.800781 42.128906 77.8125 39.703125 C 79.832031 37.285156 80.84375 33.878906 80.84375 29.484375 L 80.84375 -16.828125 L 90.640625 -16.828125 L 90.640625 27.71875 C 90.640625 43.414062 83.085938 51.265625 67.984375 51.265625 Z M 32.5625 51.265625 "/>
</symbol>
<symbol overflow="visible" id="myanmar-blws:id2:glyph0-2">
<path style="stroke:none;" d="M 25.078125 1.09375 C 22.367188 -0.363281 19.835938 -2.5625 17.484375 -5.5 C 15.140625 -8.4375 13.253906 -11.847656 11.828125 -15.734375 C 10.398438 -19.617188 9.6875 -23.6875 9.6875 -27.9375 C 9.6875 -29.695312 9.796875 -31.382812 10.015625 -33 C 6.421875 -35.195312 3.78125 -38.019531 2.09375 -41.46875 C 0.40625 -44.914062 -0.4375 -48.546875 -0.4375 -52.359375 C -0.4375 -53.609375 -0.363281 -54.78125 -0.21875 -55.875 C -0.0703125 -56.976562 0.0351562 -58.003906 0.109375 -58.953125 L 9.234375 -58.953125 C 9.015625 -57.347656 8.867188 -56.085938 8.796875 -55.171875 C 8.722656 -54.253906 8.6875 -53.425781 8.6875 -52.6875 C 8.6875 -50.707031 9.015625 -48.726562 9.671875 -46.75 C 10.335938 -44.769531 11.21875 -43.226562 12.3125 -42.125 C 14.519531 -47.40625 17.914062 -51.710938 22.5 -55.046875 C 27.082031 -58.390625 32.671875 -60.0625 39.265625 -60.0625 C 44.691406 -60.0625 49.515625 -58.703125 53.734375 -55.984375 C 57.953125 -53.273438 61.289062 -49.554688 63.75 -44.828125 C 66.207031 -40.097656 67.4375 -34.613281 67.4375 -28.375 C 67.4375 -24.414062 66.847656 -20.546875 65.671875 -16.765625 C 64.492188 -12.992188 62.84375 -9.566406 60.71875 -6.484375 C 58.59375 -3.410156 56.097656 -0.882812 53.234375 1.09375 L 47.625 -5.9375 C 50.78125 -8.507812 53.203125 -11.628906 54.890625 -15.296875 C 56.578125 -18.960938 57.421875 -23.25 57.421875 -28.15625 C 57.421875 -35.34375 55.734375 -41.097656 52.359375 -45.421875 C 48.984375 -49.753906 44.472656 -51.921875 38.828125 -51.921875 C 34.210938 -51.921875 30.328125 -50.582031 27.171875 -47.90625 C 24.015625 -45.226562 21.703125 -41.945312 20.234375 -38.0625 C 26.253906 -35.644531 30.488281 -32.800781 32.9375 -29.53125 C 35.394531 -26.269531 36.625 -22.695312 36.625 -18.8125 C 36.625 -15 35.5625 -11.203125 33.4375 -7.421875 C 31.3125 -3.648438 28.523438 -0.8125 25.078125 1.09375 Z M 18.484375 -28.15625 C 18.484375 -23.976562 19.101562 -20.289062 20.34375 -17.09375 C 21.59375 -13.90625 23.132812 -11.472656 24.96875 -9.796875 C 26.21875 -11.035156 27.039062 -12.476562 27.4375 -14.125 C 27.84375 -15.78125 28.046875 -17.304688 28.046875 -18.703125 C 28.046875 -20.753906 27.3125 -22.785156 25.84375 -24.796875 C 24.382812 -26.816406 21.929688 -28.488281 18.484375 -29.8125 C 18.484375 -29.300781 18.484375 -28.75 18.484375 -28.15625 Z M 18.484375 -28.15625 "/>
</symbol>
<symbol overflow="visible" id="myanmar-blws:id2:glyph0-3">
<path style="stroke:none;" d="M -48.953125 28.9375 L -48.953125 22.21875 L -40.15625 22.21875 L -40.15625 2.203125 L -32.125 2.203125 L -32.125 28.9375 Z M -48.953125 28.9375 "/>
</symbol>
</g>
</defs>
  <g id="myanmar-blws:id0:id0" transform="matrix(1.25,0,0,1.25,0.0,0.0)"><g id="myanmar-blws:id0:surface1">
<g style="fill:rgb(0%,0%,0%);fill-opacity:1;">
  <use xlink:href="#myanmar-blws:id0:glyph0-1" x="16" y="147.640625" class="c0"/>
  <use xlink:href="#myanmar-blws:id0:glyph0-2" x="41.1875" y="147.640625" class="c1"/>
  <use xlink:href="#myanmar-blws:id0:glyph0-3" x="114.234375" y="147.640625" class="c2"/>
</g>
</g>
</g>
  <g id="myanmar-blws:id1:id1" transform="matrix(1.25,0,0,1.25,163.33984375,51.943359375)"><g id="myanmar-blws:id1:surface1">
<g style="fill:rgb(0%,0%,0%);fill-opacity:1;">
  <use xlink:href="#myanmar-blws:id1:glyph0-1" x="0" y="120.84375" class="arrow"/>
</g>
</g>
</g>
  <g id="myanmar-blws:id2:id2" transform="matrix(1.25,0,0,1.25,295.9375,0.0)"><g id="myanmar-blws:id2:surface1">
<g style="fill:rgb(0%,0%,0%);fill-opacity:1;">
  <use xlink:href="#myanmar-blws:id2:glyph0-1" x="16" y="147.640625" class="c0"/>
  <use xlink:href="#myanmar-blws:id2:glyph0-2" x="41.1875" y="147.640625" class="c1"/>
  <use xlink:href="#myanmar-blws:id2:glyph0-3" x="116.53125" y="150.28125" class="c2"/>
</g>
</g>
</g>
</svg>
