<!DOCTYPE svg PUBLIC "-//W3C//DTD SVG 1.1//EN" "http://www.w3.org/Graphics/SVG/1.1/DTD/svg11.dtd">
<!-- Created with svg_stack (http://github.com/astraw/svg_stack) --><svg xmlns="http://www.w3.org/2000/svg" xmlns:sodipodi="http://sodipodi.sourceforge.net/DTD/sodipodi-0.dtd" xmlns:xlink="http://www.w3.org/1999/xlink" version="1.1" width="792.83203125" height="305.29296875" id="myanmar-pref">
  <defs><g>
<symbol overflow="visible" id="myanmar-pref:id0:glyph0-0">
<path style="stroke:none;" d="M 10.34375 0 L 10.34375 -78.546875 L 55.546875 -78.546875 L 55.546875 0 Z M 15.953125 -72.9375 L 15.953125 -5.609375 L 49.9375 -5.609375 L 49.9375 -72.9375 Z M 15.953125 -72.9375 "/>
</symbol>
<symbol overflow="visible" id="myanmar-pref:id0:glyph0-1">
<path style="stroke:none;" d="M 32.5625 51.265625 C 17.53125 51.265625 10.015625 43.414062 10.015625 27.71875 L 10.015625 -86.796875 C 10.015625 -102.484375 17.53125 -110.328125 32.5625 -110.328125 L 67.984375 -110.328125 C 83.085938 -110.328125 90.640625 -102.484375 90.640625 -86.796875 L 90.640625 -83.59375 L 80.84375 -83.59375 L 80.84375 -88.65625 C 80.84375 -92.988281 79.832031 -96.363281 77.8125 -98.78125 C 75.800781 -101.195312 72.707031 -102.40625 68.53125 -102.40625 L 32.125 -102.40625 C 27.863281 -102.40625 24.757812 -101.195312 22.8125 -98.78125 C 20.875 -96.363281 19.90625 -92.988281 19.90625 -88.65625 L 19.90625 29.484375 C 19.90625 33.878906 20.875 37.285156 22.8125 39.703125 C 24.757812 42.128906 27.863281 43.34375 32.125 43.34375 L 68.53125 43.34375 C 72.707031 43.34375 75.800781 42.128906 77.8125 39.703125 C 79.832031 37.285156 80.84375 33.878906 80.84375 29.484375 L 80.84375 -16.828125 L 90.640625 -16.828125 L 90.640625 27.71875 C 90.640625 43.414062 83.085938 51.265625 67.984375 51.265625 Z M 32.5625 51.265625 "/>
</symbol>
<symbol overflow="visible" id="myanmar-pref:id0:glyph0-2">
<path style="stroke:none;" d="M 32.671875 -53.5625 C 30.765625 -53.5625 29.8125 -54.554688 29.8125 -56.546875 C 29.8125 -58.453125 30.765625 -59.40625 32.671875 -59.40625 C 34.578125 -59.40625 35.53125 -58.453125 35.53125 -56.546875 C 35.53125 -54.554688 34.578125 -53.5625 32.671875 -53.5625 Z M 42.125 -51.703125 C 40.070312 -51.703125 39.046875 -52.65625 39.046875 -54.5625 C 39.046875 -56.539062 40.070312 -57.53125 42.125 -57.53125 C 43.957031 -57.53125 44.875 -56.539062 44.875 -54.5625 C 44.875 -52.65625 43.957031 -51.703125 42.125 -51.703125 Z M 23.3125 -51.703125 C 21.40625 -51.703125 20.453125 -52.65625 20.453125 -54.5625 C 20.453125 -56.539062 21.40625 -57.53125 23.3125 -57.53125 C 25.300781 -57.53125 26.296875 -56.539062 26.296875 -54.5625 C 26.296875 -52.65625 25.300781 -51.703125 23.3125 -51.703125 Z M 50.046875 -46.421875 C 48.066406 -46.421875 47.078125 -47.375 47.078125 -49.28125 C 47.078125 -51.257812 48.066406 -52.25 50.046875 -52.25 C 51.878906 -52.25 52.796875 -51.257812 52.796875 -49.28125 C 52.796875 -47.375 51.878906 -46.421875 50.046875 -46.421875 Z M 15.40625 -46.421875 C 13.5 -46.421875 12.546875 -47.335938 12.546875 -49.171875 C 12.546875 -51.222656 13.5 -52.25 15.40625 -52.25 C 17.382812 -52.25 18.375 -51.257812 18.375 -49.28125 C 18.375 -47.375 17.382812 -46.421875 15.40625 -46.421875 Z M 55.21875 -38.390625 C 53.3125 -38.390625 52.359375 -39.378906 52.359375 -41.359375 C 52.359375 -43.265625 53.347656 -44.21875 55.328125 -44.21875 C 57.234375 -44.21875 58.1875 -43.265625 58.1875 -41.359375 C 58.1875 -39.378906 57.195312 -38.390625 55.21875 -38.390625 Z M 10.234375 -38.390625 C 8.179688 -38.390625 7.15625 -39.378906 7.15625 -41.359375 C 7.15625 -43.265625 8.144531 -44.21875 10.125 -44.21875 C 12.03125 -44.21875 12.984375 -43.265625 12.984375 -41.359375 C 12.984375 -39.378906 12.066406 -38.390625 10.234375 -38.390625 Z M 57.3125 -29.15625 C 55.332031 -29.15625 54.34375 -30.109375 54.34375 -32.015625 C 54.34375 -33.921875 55.332031 -34.875 57.3125 -34.875 C 59.144531 -34.875 60.0625 -33.921875 60.0625 -32.015625 C 60.0625 -30.109375 59.144531 -29.15625 57.3125 -29.15625 Z M 8.25 -29.15625 C 6.269531 -29.15625 5.28125 -30.109375 5.28125 -32.015625 C 5.28125 -33.921875 6.269531 -34.875 8.25 -34.875 C 10.15625 -34.875 11.109375 -33.921875 11.109375 -32.015625 C 11.109375 -30.109375 10.15625 -29.15625 8.25 -29.15625 Z M 55.21875 -19.796875 C 53.3125 -19.796875 52.359375 -20.75 52.359375 -22.65625 C 52.359375 -24.632812 53.3125 -25.625 55.21875 -25.625 C 57.195312 -25.625 58.1875 -24.632812 58.1875 -22.65625 C 58.1875 -20.75 57.195312 -19.796875 55.21875 -19.796875 Z M 10.125 -19.796875 C 8.144531 -19.796875 7.15625 -20.75 7.15625 -22.65625 C 7.15625 -24.632812 8.144531 -25.625 10.125 -25.625 C 12.03125 -25.625 12.984375 -24.632812 12.984375 -22.65625 C 12.984375 -20.75 12.03125 -19.796875 10.125 -19.796875 Z M 50.046875 -11.765625 C 48.066406 -11.765625 47.078125 -12.71875 47.078125 -14.625 C 47.078125 -16.601562 48.066406 -17.59375 50.046875 -17.59375 C 51.878906 -17.59375 52.796875 -16.601562 52.796875 -14.625 C 52.796875 -12.71875 51.878906 -11.765625 50.046875 -11.765625 Z M 15.40625 -11.765625 C 13.5 -11.765625 12.546875 -12.71875 12.546875 -14.625 C 12.546875 -16.601562 13.5 -17.59375 15.40625 -17.59375 C 17.382812 -17.59375 18.375 -16.601562 18.375 -14.625 C 18.375 -12.71875 17.382812 -11.765625 15.40625 -11.765625 Z M 42.125 -6.59375 C 40.070312 -6.59375 39.046875 -7.507812 39.046875 -9.34375 C 39.046875 -11.320312 40.070312 -12.3125 42.125 -12.3125 C 43.957031 -12.3125 44.875 -11.320312 44.875 -9.34375 C 44.875 -7.507812 43.957031 -6.59375 42.125 -6.59375 Z M 23.3125 -6.59375 C 21.40625 -6.59375 20.453125 -7.507812 20.453125 -9.34375 C 20.453125 -11.320312 21.40625 -12.3125 23.3125 -12.3125 C 25.300781 -12.3125 26.296875 -11.394531 26.296875 -9.5625 C 26.296875 -7.582031 25.300781 -6.59375 23.3125 -6.59375 Z M 32.671875 -4.625 C 30.765625 -4.625 29.8125 -5.613281 29.8125 -7.59375 C 29.8125 -9.5 30.765625 -10.453125 32.671875 -10.453125 C 34.578125 -10.453125 35.53125 -9.5 35.53125 -7.59375 C 35.53125 -5.613281 34.578125 -4.625 32.671875 -4.625 Z M 32.671875 -4.625 "/>
</symbol>
<symbol overflow="visible" id="myanmar-pref:id0:glyph0-3">
<path style="stroke:none;" d="M 33.546875 1.09375 C 27.023438 1.09375 21.234375 -0.550781 16.171875 -3.84375 C 11.109375 -7.144531 7.550781 -11.472656 5.5 -16.828125 L 13.203125 -20.796875 C 15.179688 -16.242188 17.929688 -12.8125 21.453125 -10.5 C 24.972656 -8.195312 29.039062 -7.046875 33.65625 -7.046875 C 37.988281 -7.046875 41.726562 -8.050781 44.875 -10.0625 C 48.03125 -12.082031 50.46875 -14.796875 52.1875 -18.203125 C 53.914062 -21.609375 54.78125 -25.441406 54.78125 -29.703125 C 54.78125 -34.171875 53.898438 -38.054688 52.140625 -41.359375 C 50.378906 -44.660156 47.921875 -47.242188 44.765625 -49.109375 C 41.617188 -50.984375 37.914062 -51.921875 33.65625 -51.921875 C 29.039062 -51.921875 24.972656 -50.765625 21.453125 -48.453125 C 17.929688 -46.140625 15.179688 -42.710938 13.203125 -38.171875 L 5.5 -42.125 C 7.550781 -47.550781 11.109375 -51.894531 16.171875 -55.15625 C 21.234375 -58.425781 26.988281 -60.0625 33.4375 -60.0625 C 39.894531 -60.0625 45.453125 -58.738281 50.109375 -56.09375 C 54.765625 -53.457031 58.375 -49.882812 60.9375 -45.375 C 63.507812 -40.863281 64.796875 -35.75 64.796875 -30.03125 C 64.796875 -26.507812 64.316406 -23.132812 63.359375 -19.90625 C 65.847656 -16.238281 68.816406 -13.195312 72.265625 -10.78125 C 75.710938 -8.363281 79.929688 -7.15625 84.921875 -7.15625 C 89.316406 -7.15625 93.128906 -8.109375 96.359375 -10.015625 C 99.585938 -11.921875 102.0625 -14.578125 103.78125 -17.984375 C 105.507812 -21.390625 106.375 -25.296875 106.375 -29.703125 C 106.375 -36.441406 104.46875 -41.828125 100.65625 -45.859375 C 96.84375 -49.898438 91.742188 -51.921875 85.359375 -51.921875 C 81.035156 -51.921875 77.367188 -51.257812 74.359375 -49.9375 L 70.84375 -57.203125 C 72.96875 -58.222656 75.3125 -58.953125 77.875 -59.390625 C 80.445312 -59.835938 83.457031 -60.0625 86.90625 -60.0625 C 92.625 -60.0625 97.703125 -58.796875 102.140625 -56.265625 C 106.578125 -53.734375 110.054688 -50.191406 112.578125 -45.640625 C 115.109375 -41.097656 116.375 -35.710938 116.375 -29.484375 C 116.375 -26.179688 115.9375 -23.023438 115.0625 -20.015625 C 117.625 -16.347656 120.609375 -13.285156 124.015625 -10.828125 C 127.429688 -8.378906 131.671875 -7.15625 136.734375 -7.15625 C 141.128906 -7.15625 144.941406 -8.109375 148.171875 -10.015625 C 151.398438 -11.921875 153.875 -14.578125 155.59375 -17.984375 C 157.320312 -21.390625 158.1875 -25.296875 158.1875 -29.703125 C 158.1875 -36.441406 156.273438 -41.828125 152.453125 -45.859375 C 148.640625 -49.898438 143.546875 -51.921875 137.171875 -51.921875 C 132.847656 -51.921875 129.179688 -51.257812 126.171875 -49.9375 L 122.65625 -57.203125 C 124.78125 -58.222656 127.125 -58.953125 129.6875 -59.390625 C 132.257812 -59.835938 135.265625 -60.0625 138.703125 -60.0625 C 144.429688 -60.0625 149.507812 -58.796875 153.9375 -56.265625 C 158.375 -53.734375 161.859375 -50.191406 164.390625 -45.640625 C 166.921875 -41.097656 168.1875 -35.710938 168.1875 -29.484375 C 168.1875 -23.460938 166.828125 -18.160156 164.109375 -13.578125 C 161.398438 -8.992188 157.660156 -5.398438 152.890625 -2.796875 C 148.128906 -0.203125 142.632812 1.09375 136.40625 1.09375 C 131.050781 1.09375 126.171875 0.0664062 121.765625 -1.984375 C 117.367188 -4.035156 113.664062 -7.039062 110.65625 -11 C 107.875 -7.257812 104.242188 -4.304688 99.765625 -2.140625 C 95.296875 0.015625 90.238281 1.09375 84.59375 1.09375 C 79.238281 1.09375 74.359375 0.0859375 69.953125 -1.921875 C 65.554688 -3.941406 61.851562 -6.929688 58.84375 -10.890625 C 56.28125 -7.296875 52.867188 -4.398438 48.609375 -2.203125 C 44.359375 -0.00390625 39.335938 1.09375 33.546875 1.09375 Z M 33.546875 1.09375 "/>
</symbol>
</g>
<g>
<symbol overflow="visible" id="myanmar-pref:id1:glyph0-0">
<path style="stroke:none;" d="M 5.375 -96.6875 L 69.828125 -96.6875 L 69.828125 0 L 5.375 0 Z M 8.0625 -2.6875 L 67.140625 -2.6875 L 67.140625 -94 L 8.0625 -94 Z M 8.0625 -2.6875 "/>
</symbol>
<symbol overflow="visible" id="myanmar-pref:id1:glyph0-1">
<path style="stroke:none;" d="M 68.15625 -13.75 L 66.28125 -18.640625 L 88.09375 -27.390625 L 6.984375 -27.390625 L 6.984375 -34 L 88.09375 -34 L 66.28125 -42.75 L 68.15625 -47.640625 L 99.09375 -34.265625 L 99.09375 -27.125 Z M 68.15625 -13.75 "/>
</symbol>
</g>
<g>
<symbol overflow="visible" id="myanmar-pref:id2:glyph0-0">
<path style="stroke:none;" d="M 10.34375 0 L 10.34375 -78.546875 L 55.546875 -78.546875 L 55.546875 0 Z M 15.953125 -72.9375 L 15.953125 -5.609375 L 49.9375 -5.609375 L 49.9375 -72.9375 Z M 15.953125 -72.9375 "/>
</symbol>
<symbol overflow="visible" id="myanmar-pref:id2:glyph0-1">
<path style="stroke:none;" d="M 32.5625 51.265625 C 17.53125 51.265625 10.015625 43.414062 10.015625 27.71875 L 10.015625 -86.796875 C 10.015625 -102.484375 17.53125 -110.328125 32.5625 -110.328125 L 167.75 -110.328125 C 182.851562 -110.328125 190.40625 -102.484375 190.40625 -86.796875 L 190.40625 -83.59375 L 180.625 -83.59375 L 180.625 -88.65625 C 180.625 -92.988281 179.613281 -96.363281 177.59375 -98.78125 C 175.570312 -101.195312 172.472656 -102.40625 168.296875 -102.40625 L 32.125 -102.40625 C 27.863281 -102.40625 24.757812 -101.195312 22.8125 -98.78125 C 20.875 -96.363281 19.90625 -92.988281 19.90625 -88.65625 L 19.90625 29.484375 C 19.90625 33.878906 20.875 37.285156 22.8125 39.703125 C 24.757812 42.128906 27.863281 43.34375 32.125 43.34375 L 168.296875 43.34375 C 172.472656 43.34375 175.570312 42.128906 177.59375 39.703125 C 179.613281 37.285156 180.625 33.878906 180.625 29.484375 L 180.625 -16.828125 L 190.40625 -16.828125 L 190.40625 27.71875 C 190.40625 43.414062 182.851562 51.265625 167.75 51.265625 Z M 32.5625 51.265625 "/>
</symbol>
<symbol overflow="visible" id="myanmar-pref:id2:glyph0-2">
<path style="stroke:none;" d="M 33.546875 1.09375 C 27.023438 1.09375 21.234375 -0.550781 16.171875 -3.84375 C 11.109375 -7.144531 7.550781 -11.472656 5.5 -16.828125 L 13.203125 -20.796875 C 15.179688 -16.242188 17.929688 -12.8125 21.453125 -10.5 C 24.972656 -8.195312 29.039062 -7.046875 33.65625 -7.046875 C 37.988281 -7.046875 41.726562 -8.050781 44.875 -10.0625 C 48.03125 -12.082031 50.46875 -14.796875 52.1875 -18.203125 C 53.914062 -21.609375 54.78125 -25.441406 54.78125 -29.703125 C 54.78125 -34.171875 53.898438 -38.054688 52.140625 -41.359375 C 50.378906 -44.660156 47.921875 -47.242188 44.765625 -49.109375 C 41.617188 -50.984375 37.914062 -51.921875 33.65625 -51.921875 C 29.039062 -51.921875 24.972656 -50.765625 21.453125 -48.453125 C 17.929688 -46.140625 15.179688 -42.710938 13.203125 -38.171875 L 5.5 -42.125 C 7.550781 -47.550781 11.109375 -51.894531 16.171875 -55.15625 C 21.234375 -58.425781 26.988281 -60.0625 33.4375 -60.0625 C 39.894531 -60.0625 45.453125 -58.738281 50.109375 -56.09375 C 54.765625 -53.457031 58.375 -49.882812 60.9375 -45.375 C 63.507812 -40.863281 64.796875 -35.75 64.796875 -30.03125 C 64.796875 -26.507812 64.316406 -23.132812 63.359375 -19.90625 C 65.847656 -16.238281 68.816406 -13.195312 72.265625 -10.78125 C 75.710938 -8.363281 79.929688 -7.15625 84.921875 -7.15625 C 89.316406 -7.15625 93.128906 -8.109375 96.359375 -10.015625 C 99.585938 -11.921875 102.0625 -14.578125 103.78125 -17.984375 C 105.507812 -21.390625 106.375 -25.296875 106.375 -29.703125 C 106.375 -36.441406 104.46875 -41.828125 100.65625 -45.859375 C 96.84375 -49.898438 91.742188 -51.921875 85.359375 -51.921875 C 81.035156 -51.921875 77.367188 -51.257812 74.359375 -49.9375 L 70.84375 -57.203125 C 72.96875 -58.222656 75.3125 -58.953125 77.875 -59.390625 C 80.445312 -59.835938 83.457031 -60.0625 86.90625 -60.0625 C 92.625 -60.0625 97.703125 -58.796875 102.140625 -56.265625 C 106.578125 -53.734375 110.054688 -50.191406 112.578125 -45.640625 C 115.109375 -41.097656 116.375 -35.710938 116.375 -29.484375 C 116.375 -26.179688 115.9375 -23.023438 115.0625 -20.015625 C 117.625 -16.347656 120.609375 -13.285156 124.015625 -10.828125 C 127.429688 -8.378906 131.671875 -7.15625 136.734375 -7.15625 C 141.128906 -7.15625 144.941406 -8.109375 148.171875 -10.015625 C 151.398438 -11.921875 153.875 -14.578125 155.59375 -17.984375 C 157.320312 -21.390625 158.1875 -25.296875 158.1875 -29.703125 C 158.1875 -36.441406 156.273438 -41.828125 152.453125 -45.859375 C 148.640625 -49.898438 143.546875 -51.921875 137.171875 -51.921875 C 132.847656 -51.921875 129.179688 -51.257812 126.171875 -49.9375 L 122.65625 -57.203125 C 124.78125 -58.222656 127.125 -58.953125 129.6875 -59.390625 C 132.257812 -59.835938 135.265625 -60.0625 138.703125 -60.0625 C 144.429688 -60.0625 149.507812 -58.796875 153.9375 -56.265625 C 158.375 -53.734375 161.859375 -50.191406 164.390625 -45.640625 C 166.921875 -41.097656 168.1875 -35.710938 168.1875 -29.484375 C 168.1875 -23.460938 166.828125 -18.160156 164.109375 -13.578125 C 161.398438 -8.992188 157.660156 -5.398438 152.890625 -2.796875 C 148.128906 -0.203125 142.632812 1.09375 136.40625 1.09375 C 131.050781 1.09375 126.171875 0.0664062 121.765625 -1.984375 C 117.367188 -4.035156 113.664062 -7.039062 110.65625 -11 C 107.875 -7.257812 104.242188 -4.304688 99.765625 -2.140625 C 95.296875 0.015625 90.238281 1.09375 84.59375 1.09375 C 79.238281 1.09375 74.359375 0.0859375 69.953125 -1.921875 C 65.554688 -3.941406 61.851562 -6.929688 58.84375 -10.890625 C 56.28125 -7.296875 52.867188 -4.398438 48.609375 -2.203125 C 44.359375 -0.00390625 39.335938 1.09375 33.546875 1.09375 Z M 33.546875 1.09375 "/>
</symbol>
</g>
</defs>
  <g id="myanmar-pref:id0:id0" transform="matrix(1.25,0,0,1.25,0.0,0.0)"><g id="myanmar-pref:id0:surface1">
<g style="fill:rgb(0%,0%,0%);fill-opacity:1;">
  <use xlink:href="#myanmar-pref:id0:glyph0-1" x="16" y="147.640625" class="c0"/>
  <use xlink:href="#myanmar-pref:id0:glyph0-2" x="41.1875" y="147.640625" class="dc"/>
  <use xlink:href="#myanmar-pref:id0:glyph0-3" x="106.53125" y="147.640625" class="c1"/>
</g>
</g>
</g>
  <g id="myanmar-pref:id1:id1" transform="matrix(1.25,0,0,1.25,370.95703125,51.943359375)"><g id="myanmar-pref:id1:surface1">
<g style="fill:rgb(0%,0%,0%);fill-opacity:1;">
  <use xlink:href="#myanmar-pref:id1:glyph0-1" x="0" y="120.84375" class="arrow"/>
</g>
</g>
</g>
  <g id="myanmar-pref:id2:id2" transform="matrix(1.25,0,0,1.25,503.5546875,0.0)"><g id="myanmar-pref:id2:surface1">
<g style="fill:rgb(0%,0%,0%);fill-opacity:1;">
  <use xlink:href="#myanmar-pref:id2:glyph0-1" x="16" y="147.640625" class="c0"/>
  <use xlink:href="#myanmar-pref:id2:glyph0-2" x="41.1875" y="147.640625" class="c1"/>
</g>
</g>
</g>
</svg>
