<?xml version="1.0" standalone="no"?>
<!DOCTYPE svg PUBLIC "-//W3C//DTD SVG 1.1//EN"
 "http://www.w3.org/Graphics/SVG/1.1/DTD/svg11.dtd">
<!-- Created with svg_stack (http://github.com/astraw/svg_stack) -->
<svg xmlns="http://www.w3.org/2000/svg" xmlns:sodipodi="http://sodipodi.sourceforge.net/DTD/sodipodi-0.dtd" xmlns:xlink="http://www.w3.org/1999/xlink" version="1.1" width="922.109375" height="305.29296875">
  <defs><g>
<symbol overflow="visible" id="id0:glyph0-0">
<path style="stroke:none;" d="M 10.34375 0 L 10.34375 -78.546875 L 55.546875 -78.546875 L 55.546875 0 Z M 15.953125 -72.9375 L 15.953125 -5.609375 L 49.9375 -5.609375 L 49.9375 -72.9375 Z M 15.953125 -72.9375 "/>
</symbol>
<symbol overflow="visible" id="id0:glyph0-1">
<path style="stroke:none;" d="M 55.984375 51.375 L 55.984375 -29.265625 C 55.984375 -33.734375 55.160156 -37.65625 53.515625 -41.03125 C 51.867188 -44.40625 49.554688 -47.0625 46.578125 -49 C 43.609375 -50.945312 40.070312 -51.921875 35.96875 -51.921875 C 31.125 -51.921875 27.050781 -50.597656 23.75 -47.953125 C 20.457031 -45.316406 18.1875 -41.648438 16.9375 -36.953125 C 26.46875 -36.078125 33.945312 -32.539062 39.375 -26.34375 C 44.800781 -20.144531 47.515625 -11.691406 47.515625 -0.984375 C 45.828125 -0.472656 43.957031 0 41.90625 0.4375 C 39.851562 0.875 37.726562 1.09375 35.53125 1.09375 C 29.59375 1.09375 24.421875 -0.222656 20.015625 -2.859375 C 15.617188 -5.492188 12.191406 -9.125 9.734375 -13.75 C 7.273438 -18.375 6.046875 -23.617188 6.046875 -29.484375 C 6.046875 -35.421875 7.289062 -40.679688 9.78125 -45.265625 C 12.28125 -49.847656 15.765625 -53.457031 20.234375 -56.09375 C 24.710938 -58.738281 29.921875 -60.0625 35.859375 -60.0625 C 42.015625 -60.0625 47.3125 -58.722656 51.75 -56.046875 C 56.1875 -53.367188 59.613281 -49.738281 62.03125 -45.15625 C 64.457031 -40.570312 65.671875 -35.347656 65.671875 -29.484375 L 65.671875 43.890625 L 79.421875 43.890625 L 79.421875 51.375 Z M 35.859375 -7.046875 C 36.742188 -7.046875 37.625 -7.082031 38.5 -7.15625 C 37.84375 -13.820312 35.53125 -19.023438 31.5625 -22.765625 C 27.601562 -26.503906 22.4375 -28.632812 16.0625 -29.15625 C 16.0625 -22.625 17.800781 -17.304688 21.28125 -13.203125 C 24.769531 -9.097656 29.628906 -7.046875 35.859375 -7.046875 Z M 35.859375 -7.046875 "/>
</symbol>
<symbol overflow="visible" id="id0:glyph0-2">
<path style="stroke:none;" d="M 10.015625 0 L 10.015625 -86.5625 C 10.015625 -91.332031 8.675781 -95.253906 6 -98.328125 C 3.320312 -101.410156 -0.726562 -102.953125 -6.15625 -102.953125 C -11 -102.953125 -14.90625 -101.578125 -17.875 -98.828125 C -20.84375 -96.078125 -22.328125 -91.988281 -22.328125 -86.5625 L -22.328125 -84.8125 L -31.6875 -84.8125 L -31.6875 -86.34375 C -31.6875 -91.1875 -30.617188 -95.40625 -28.484375 -99 C -26.359375 -102.59375 -23.390625 -105.378906 -19.578125 -107.359375 C -15.765625 -109.335938 -11.328125 -110.328125 -6.265625 -110.328125 C 3.265625 -110.328125 10.265625 -106.988281 14.734375 -100.3125 C 16.785156 -103.394531 19.550781 -105.832031 23.03125 -107.625 C 26.519531 -109.425781 30.722656 -110.328125 35.640625 -110.328125 C 40.773438 -110.328125 45.226562 -109.335938 49 -107.359375 C 52.78125 -105.378906 55.734375 -102.59375 57.859375 -99 C 59.984375 -95.40625 61.046875 -91.1875 61.046875 -86.34375 L 61.046875 -84.8125 L 51.703125 -84.8125 L 51.703125 -86.5625 C 51.703125 -91.988281 50.21875 -96.078125 47.25 -98.828125 C 44.28125 -101.578125 40.375 -102.953125 35.53125 -102.953125 C 30.175781 -102.953125 26.140625 -101.410156 23.421875 -98.328125 C 20.710938 -95.253906 19.359375 -91.332031 19.359375 -86.5625 L 19.359375 0 Z M 10.015625 0 "/>
</symbol>
<symbol overflow="visible" id="id0:glyph0-3">
<path style="stroke:none;" d="M 32.5625 51.265625 C 17.53125 51.265625 10.015625 43.414062 10.015625 27.71875 L 10.015625 -86.796875 C 10.015625 -102.484375 17.53125 -110.328125 32.5625 -110.328125 L 132.328125 -110.328125 C 147.359375 -110.328125 154.875 -102.484375 154.875 -86.796875 L 154.875 -83.59375 L 145.09375 -83.59375 L 145.09375 -88.65625 C 145.09375 -92.988281 144.101562 -96.363281 142.125 -98.78125 C 140.144531 -101.195312 137.0625 -102.40625 132.875 -102.40625 L 32.125 -102.40625 C 27.863281 -102.40625 24.757812 -101.195312 22.8125 -98.78125 C 20.875 -96.363281 19.90625 -92.988281 19.90625 -88.65625 L 19.90625 29.484375 C 19.90625 33.878906 20.875 37.285156 22.8125 39.703125 C 24.757812 42.128906 27.863281 43.34375 32.125 43.34375 L 132.875 43.34375 C 137.0625 43.34375 140.144531 42.128906 142.125 39.703125 C 144.101562 37.285156 145.09375 33.878906 145.09375 29.484375 L 145.09375 -16.828125 L 154.875 -16.828125 L 154.875 27.71875 C 154.875 43.414062 147.359375 51.265625 132.328125 51.265625 Z M 32.5625 51.265625 "/>
</symbol>
<symbol overflow="visible" id="id0:glyph0-4">
<path style="stroke:none;" d="M 68.96875 1.09375 C 63.613281 1.09375 59.414062 -0.1875 56.375 -2.75 C 53.332031 -5.3125 51.8125 -8.832031 51.8125 -13.3125 C 51.8125 -15.289062 51.992188 -17.050781 52.359375 -18.59375 C 52.722656 -20.132812 53.085938 -21.691406 53.453125 -23.265625 C 53.828125 -24.835938 54.015625 -26.726562 54.015625 -28.9375 C 54.015625 -36.113281 52.289062 -41.753906 48.84375 -45.859375 C 45.394531 -49.972656 40.847656 -52.03125 35.203125 -52.03125 C 29.554688 -52.03125 24.953125 -49.972656 21.390625 -45.859375 C 17.835938 -41.753906 16.0625 -36.222656 16.0625 -29.265625 C 16.0625 -24.785156 16.90625 -20.878906 18.59375 -17.546875 C 20.28125 -14.210938 22.585938 -11.628906 25.515625 -9.796875 C 28.453125 -7.960938 31.789062 -7.046875 35.53125 -7.046875 C 36.632812 -7.046875 37.679688 -7.082031 38.671875 -7.15625 C 39.660156 -7.226562 40.628906 -7.410156 41.578125 -7.703125 L 43.890625 0 C 42.421875 0.4375 40.9375 0.726562 39.4375 0.875 C 37.9375 1.019531 36.15625 1.09375 34.09375 1.09375 C 28.820312 1.09375 24.078125 -0.222656 19.859375 -2.859375 C 15.640625 -5.492188 12.28125 -9.125 9.78125 -13.75 C 7.289062 -18.375 6.046875 -23.65625 6.046875 -29.59375 C 6.046875 -35.457031 7.253906 -40.679688 9.671875 -45.265625 C 12.097656 -49.847656 15.492188 -53.457031 19.859375 -56.09375 C 24.222656 -58.738281 29.375 -60.0625 35.3125 -60.0625 C 39.34375 -60.0625 42.988281 -59.457031 46.25 -58.25 C 49.519531 -57.039062 52.363281 -55.367188 54.78125 -53.234375 C 56.6875 -55.210938 58.703125 -56.84375 60.828125 -58.125 C 62.953125 -59.414062 65.703125 -60.0625 69.078125 -60.0625 C 72.378906 -60.0625 75.164062 -59.378906 77.4375 -58.015625 C 79.707031 -56.660156 81.6875 -55.03125 83.375 -53.125 C 85.726562 -55.332031 88.535156 -57.039062 91.796875 -58.25 C 95.054688 -59.457031 98.703125 -60.0625 102.734375 -60.0625 C 108.753906 -60.0625 113.941406 -58.722656 118.296875 -56.046875 C 122.660156 -53.367188 126.035156 -49.738281 128.421875 -45.15625 C 130.804688 -40.570312 132 -35.382812 132 -29.59375 C 132 -23.726562 130.769531 -18.484375 128.3125 -13.859375 C 125.851562 -9.242188 122.5 -5.597656 118.25 -2.921875 C 114 -0.242188 109.234375 1.09375 103.953125 1.09375 C 101.828125 1.09375 100.007812 1.019531 98.5 0.875 C 97 0.726562 95.515625 0.4375 94.046875 0 L 96.25 -7.703125 C 97.28125 -7.410156 98.289062 -7.226562 99.28125 -7.15625 C 100.269531 -7.082031 101.3125 -7.046875 102.40625 -7.046875 C 106.144531 -7.046875 109.476562 -7.941406 112.40625 -9.734375 C 115.34375 -11.535156 117.65625 -14.082031 119.34375 -17.375 C 121.03125 -20.675781 121.875 -24.640625 121.875 -29.265625 C 121.875 -36.148438 120.171875 -41.664062 116.765625 -45.8125 C 113.359375 -49.957031 108.832031 -52.03125 103.1875 -52.03125 C 97.382812 -52.03125 92.742188 -49.972656 89.265625 -45.859375 C 85.785156 -41.753906 84.046875 -36.113281 84.046875 -28.9375 C 84.046875 -26.726562 84.226562 -24.835938 84.59375 -23.265625 C 84.957031 -21.691406 85.320312 -20.132812 85.6875 -18.59375 C 86.050781 -17.050781 86.234375 -15.289062 86.234375 -13.3125 C 86.234375 -8.46875 84.640625 -4.851562 81.453125 -2.46875 C 78.265625 -0.09375 74.101562 1.09375 68.96875 1.09375 Z M 61.8125 -14.1875 C 61.8125 -12.28125 62.414062 -10.628906 63.625 -9.234375 C 64.84375 -7.847656 66.660156 -7.15625 69.078125 -7.15625 C 71.421875 -7.15625 73.195312 -7.847656 74.40625 -9.234375 C 75.625 -10.628906 76.234375 -12.28125 76.234375 -14.1875 C 76.234375 -16.3125 76.046875 -18.050781 75.671875 -19.40625 C 75.304688 -20.769531 74.941406 -22.21875 74.578125 -23.75 C 74.210938 -25.289062 74.03125 -27.421875 74.03125 -30.140625 C 74.03125 -36.515625 75.457031 -42.160156 78.3125 -47.078125 C 76.925781 -48.546875 75.535156 -49.738281 74.140625 -50.65625 C 72.742188 -51.570312 71.09375 -52.03125 69.1875 -52.03125 C 66.84375 -52.03125 64.972656 -51.535156 63.578125 -50.546875 C 62.179688 -49.554688 60.898438 -48.398438 59.734375 -47.078125 C 62.660156 -42.234375 64.125 -36.625 64.125 -30.25 C 64.125 -28.050781 64.015625 -26.289062 63.796875 -24.96875 C 63.578125 -23.644531 63.300781 -22.488281 62.96875 -21.5 C 62.644531 -20.507812 62.367188 -19.460938 62.140625 -18.359375 C 61.921875 -17.265625 61.8125 -15.875 61.8125 -14.1875 Z M 61.8125 -14.1875 "/>
</symbol>
</g>
<g>
<symbol overflow="visible" id="id1:glyph0-0">
<path style="stroke:none;" d="M 5.375 -96.6875 L 69.828125 -96.6875 L 69.828125 0 L 5.375 0 Z M 8.0625 -2.6875 L 67.140625 -2.6875 L 67.140625 -94 L 8.0625 -94 Z M 8.0625 -2.6875 "/>
</symbol>
<symbol overflow="visible" id="id1:glyph0-1">
<path style="stroke:none;" d="M 68.15625 -13.75 L 66.28125 -18.640625 L 88.09375 -27.390625 L 6.984375 -27.390625 L 6.984375 -34 L 88.09375 -34 L 66.28125 -42.75 L 68.15625 -47.640625 L 99.09375 -34.265625 L 99.09375 -27.125 Z M 68.15625 -13.75 "/>
</symbol>
</g>
<g>
<symbol overflow="visible" id="id2:glyph0-0">
<path style="stroke:none;" d="M 10.34375 0 L 10.34375 -78.546875 L 55.546875 -78.546875 L 55.546875 0 Z M 15.953125 -72.9375 L 15.953125 -5.609375 L 49.9375 -5.609375 L 49.9375 -72.9375 Z M 15.953125 -72.9375 "/>
</symbol>
<symbol overflow="visible" id="id2:glyph0-1">
<path style="stroke:none;" d="M 55.984375 51.375 L 55.984375 -29.265625 C 55.984375 -33.734375 55.160156 -37.65625 53.515625 -41.03125 C 51.867188 -44.40625 49.554688 -47.0625 46.578125 -49 C 43.609375 -50.945312 40.070312 -51.921875 35.96875 -51.921875 C 31.125 -51.921875 27.050781 -50.597656 23.75 -47.953125 C 20.457031 -45.316406 18.1875 -41.648438 16.9375 -36.953125 C 26.46875 -36.078125 33.945312 -32.539062 39.375 -26.34375 C 44.800781 -20.144531 47.515625 -11.691406 47.515625 -0.984375 C 45.828125 -0.472656 43.957031 0 41.90625 0.4375 C 39.851562 0.875 37.726562 1.09375 35.53125 1.09375 C 29.59375 1.09375 24.421875 -0.222656 20.015625 -2.859375 C 15.617188 -5.492188 12.191406 -9.125 9.734375 -13.75 C 7.273438 -18.375 6.046875 -23.617188 6.046875 -29.484375 C 6.046875 -35.421875 7.289062 -40.679688 9.78125 -45.265625 C 12.28125 -49.847656 15.765625 -53.457031 20.234375 -56.09375 C 24.710938 -58.738281 29.921875 -60.0625 35.859375 -60.0625 C 42.015625 -60.0625 47.3125 -58.722656 51.75 -56.046875 C 56.1875 -53.367188 59.613281 -49.738281 62.03125 -45.15625 C 64.457031 -40.570312 65.671875 -35.347656 65.671875 -29.484375 L 65.671875 43.890625 L 79.421875 43.890625 L 79.421875 51.375 Z M 35.859375 -7.046875 C 36.742188 -7.046875 37.625 -7.082031 38.5 -7.15625 C 37.84375 -13.820312 35.53125 -19.023438 31.5625 -22.765625 C 27.601562 -26.503906 22.4375 -28.632812 16.0625 -29.15625 C 16.0625 -22.625 17.800781 -17.304688 21.28125 -13.203125 C 24.769531 -9.097656 29.628906 -7.046875 35.859375 -7.046875 Z M 35.859375 -7.046875 "/>
</symbol>
<symbol overflow="visible" id="id2:glyph0-2">
<path style="stroke:none;" d="M 10.015625 0 L 10.015625 -86.5625 C 10.015625 -91.332031 8.675781 -95.253906 6 -98.328125 C 3.320312 -101.410156 -0.726562 -102.953125 -6.15625 -102.953125 C -11 -102.953125 -14.90625 -101.578125 -17.875 -98.828125 C -20.84375 -96.078125 -22.328125 -91.988281 -22.328125 -86.5625 L -22.328125 -84.8125 L -31.6875 -84.8125 L -31.6875 -86.34375 C -31.6875 -91.1875 -30.617188 -95.40625 -28.484375 -99 C -26.359375 -102.59375 -23.390625 -105.378906 -19.578125 -107.359375 C -15.765625 -109.335938 -11.328125 -110.328125 -6.265625 -110.328125 C 3.265625 -110.328125 10.265625 -106.988281 14.734375 -100.3125 C 16.785156 -103.394531 19.550781 -105.832031 23.03125 -107.625 C 26.519531 -109.425781 30.722656 -110.328125 35.640625 -110.328125 C 40.773438 -110.328125 45.226562 -109.335938 49 -107.359375 C 52.78125 -105.378906 55.734375 -102.59375 57.859375 -99 C 59.984375 -95.40625 61.046875 -91.1875 61.046875 -86.34375 L 61.046875 -84.8125 L 51.703125 -84.8125 L 51.703125 -86.5625 C 51.703125 -91.988281 50.21875 -96.078125 47.25 -98.828125 C 44.28125 -101.578125 40.375 -102.953125 35.53125 -102.953125 C 30.175781 -102.953125 26.140625 -101.410156 23.421875 -98.328125 C 20.710938 -95.253906 19.359375 -91.332031 19.359375 -86.5625 L 19.359375 0 Z M 10.015625 0 "/>
</symbol>
<symbol overflow="visible" id="id2:glyph0-3">
<path style="stroke:none;" d="M 32.5625 51.265625 C 17.53125 51.265625 10.015625 43.414062 10.015625 27.71875 L 10.015625 -86.796875 C 10.015625 -102.484375 17.53125 -110.328125 32.5625 -110.328125 L 132.328125 -110.328125 C 147.359375 -110.328125 154.875 -102.484375 154.875 -86.796875 L 154.875 -83.59375 L 145.09375 -83.59375 L 145.09375 -88.65625 C 145.09375 -92.988281 144.101562 -96.363281 142.125 -98.78125 C 140.144531 -101.195312 137.0625 -102.40625 132.875 -102.40625 L 32.125 -102.40625 C 27.863281 -102.40625 24.757812 -101.195312 22.8125 -98.78125 C 20.875 -96.363281 19.90625 -92.988281 19.90625 -88.65625 L 19.90625 29.484375 C 19.90625 33.878906 20.875 37.285156 22.8125 39.703125 C 24.757812 42.128906 27.863281 43.34375 32.125 43.34375 L 132.875 43.34375 C 137.0625 43.34375 140.144531 42.128906 142.125 39.703125 C 144.101562 37.285156 145.09375 33.878906 145.09375 29.484375 L 145.09375 -16.828125 L 154.875 -16.828125 L 154.875 27.71875 C 154.875 43.414062 147.359375 51.265625 132.328125 51.265625 Z M 32.5625 51.265625 "/>
</symbol>
<symbol overflow="visible" id="id2:glyph0-4">
<path style="stroke:none;" d="M 68.96875 1.09375 C 63.613281 1.09375 59.414062 -0.1875 56.375 -2.75 C 53.332031 -5.3125 51.8125 -8.832031 51.8125 -13.3125 C 51.8125 -15.289062 51.992188 -17.050781 52.359375 -18.59375 C 52.722656 -20.132812 53.085938 -21.691406 53.453125 -23.265625 C 53.828125 -24.835938 54.015625 -26.726562 54.015625 -28.9375 C 54.015625 -36.113281 52.289062 -41.753906 48.84375 -45.859375 C 45.394531 -49.972656 40.847656 -52.03125 35.203125 -52.03125 C 29.554688 -52.03125 24.953125 -49.972656 21.390625 -45.859375 C 17.835938 -41.753906 16.0625 -36.222656 16.0625 -29.265625 C 16.0625 -24.785156 16.90625 -20.878906 18.59375 -17.546875 C 20.28125 -14.210938 22.585938 -11.628906 25.515625 -9.796875 C 28.453125 -7.960938 31.789062 -7.046875 35.53125 -7.046875 C 36.632812 -7.046875 37.679688 -7.082031 38.671875 -7.15625 C 39.660156 -7.226562 40.628906 -7.410156 41.578125 -7.703125 L 43.890625 0 C 42.421875 0.4375 40.9375 0.726562 39.4375 0.875 C 37.9375 1.019531 36.15625 1.09375 34.09375 1.09375 C 28.820312 1.09375 24.078125 -0.222656 19.859375 -2.859375 C 15.640625 -5.492188 12.28125 -9.125 9.78125 -13.75 C 7.289062 -18.375 6.046875 -23.65625 6.046875 -29.59375 C 6.046875 -35.457031 7.253906 -40.679688 9.671875 -45.265625 C 12.097656 -49.847656 15.492188 -53.457031 19.859375 -56.09375 C 24.222656 -58.738281 29.375 -60.0625 35.3125 -60.0625 C 39.34375 -60.0625 42.988281 -59.457031 46.25 -58.25 C 49.519531 -57.039062 52.363281 -55.367188 54.78125 -53.234375 C 56.6875 -55.210938 58.703125 -56.84375 60.828125 -58.125 C 62.953125 -59.414062 65.703125 -60.0625 69.078125 -60.0625 C 72.378906 -60.0625 75.164062 -59.378906 77.4375 -58.015625 C 79.707031 -56.660156 81.6875 -55.03125 83.375 -53.125 C 85.726562 -55.332031 88.535156 -57.039062 91.796875 -58.25 C 95.054688 -59.457031 98.703125 -60.0625 102.734375 -60.0625 C 108.753906 -60.0625 113.941406 -58.722656 118.296875 -56.046875 C 122.660156 -53.367188 126.035156 -49.738281 128.421875 -45.15625 C 130.804688 -40.570312 132 -35.382812 132 -29.59375 C 132 -23.726562 130.769531 -18.484375 128.3125 -13.859375 C 125.851562 -9.242188 122.5 -5.597656 118.25 -2.921875 C 114 -0.242188 109.234375 1.09375 103.953125 1.09375 C 101.828125 1.09375 100.007812 1.019531 98.5 0.875 C 97 0.726562 95.515625 0.4375 94.046875 0 L 96.25 -7.703125 C 97.28125 -7.410156 98.289062 -7.226562 99.28125 -7.15625 C 100.269531 -7.082031 101.3125 -7.046875 102.40625 -7.046875 C 106.144531 -7.046875 109.476562 -7.941406 112.40625 -9.734375 C 115.34375 -11.535156 117.65625 -14.082031 119.34375 -17.375 C 121.03125 -20.675781 121.875 -24.640625 121.875 -29.265625 C 121.875 -36.148438 120.171875 -41.664062 116.765625 -45.8125 C 113.359375 -49.957031 108.832031 -52.03125 103.1875 -52.03125 C 97.382812 -52.03125 92.742188 -49.972656 89.265625 -45.859375 C 85.785156 -41.753906 84.046875 -36.113281 84.046875 -28.9375 C 84.046875 -26.726562 84.226562 -24.835938 84.59375 -23.265625 C 84.957031 -21.691406 85.320312 -20.132812 85.6875 -18.59375 C 86.050781 -17.050781 86.234375 -15.289062 86.234375 -13.3125 C 86.234375 -8.46875 84.640625 -4.851562 81.453125 -2.46875 C 78.265625 -0.09375 74.101562 1.09375 68.96875 1.09375 Z M 61.8125 -14.1875 C 61.8125 -12.28125 62.414062 -10.628906 63.625 -9.234375 C 64.84375 -7.847656 66.660156 -7.15625 69.078125 -7.15625 C 71.421875 -7.15625 73.195312 -7.847656 74.40625 -9.234375 C 75.625 -10.628906 76.234375 -12.28125 76.234375 -14.1875 C 76.234375 -16.3125 76.046875 -18.050781 75.671875 -19.40625 C 75.304688 -20.769531 74.941406 -22.21875 74.578125 -23.75 C 74.210938 -25.289062 74.03125 -27.421875 74.03125 -30.140625 C 74.03125 -36.515625 75.457031 -42.160156 78.3125 -47.078125 C 76.925781 -48.546875 75.535156 -49.738281 74.140625 -50.65625 C 72.742188 -51.570312 71.09375 -52.03125 69.1875 -52.03125 C 66.84375 -52.03125 64.972656 -51.535156 63.578125 -50.546875 C 62.179688 -49.554688 60.898438 -48.398438 59.734375 -47.078125 C 62.660156 -42.234375 64.125 -36.625 64.125 -30.25 C 64.125 -28.050781 64.015625 -26.289062 63.796875 -24.96875 C 63.578125 -23.644531 63.300781 -22.488281 62.96875 -21.5 C 62.644531 -20.507812 62.367188 -19.460938 62.140625 -18.359375 C 61.921875 -17.265625 61.8125 -15.875 61.8125 -14.1875 Z M 61.8125 -14.1875 "/>
</symbol>
</g>
</defs>
  <g id="id0:id0" transform="matrix(1.25,0,0,1.25,0.0,0.0)"><g id="id0:surface1">
<g style="fill:rgb(0%,0%,0%);fill-opacity:1;">
  <use xlink:href="#id0:glyph0-1" x="16" y="147.640625"/>
  <use xlink:href="#id0:glyph0-2" x="91.796875" y="147.640625"/>
  <use xlink:href="#id0:glyph0-3" x="121.171875" y="147.640625"/>
  <use xlink:href="#id0:glyph0-4" x="146.359375" y="147.640625"/>
</g>
</g>
</g>
  <g id="id1:id1" transform="matrix(1.25,0,0,1.25,375.5078125,51.943359375)"><g id="id1:surface1">
<g style="fill:rgb(0%,0%,0%);fill-opacity:1;">
  <use xlink:href="#id1:glyph0-1" x="0" y="120.84375"/>
</g>
</g>
</g>
  <g id="id2:id2" transform="matrix(1.25,0,0,1.25,508.10546875,0.0)"><g id="id2:surface1">
<g style="fill:rgb(0%,0%,0%);fill-opacity:1;">
  <use xlink:href="#id2:glyph0-1" x="16" y="147.640625"/>
  <use xlink:href="#id2:glyph0-2" x="91.796875" y="147.640625"/>
  <use xlink:href="#id2:glyph0-3" x="151.96875" y="147.640625"/>
  <use xlink:href="#id2:glyph0-4" x="177.15625" y="147.640625"/>
</g>
</g>
</g>
</svg>
