<?xml version="1.0" standalone="no"?>
<!DOCTYPE svg PUBLIC "-//W3C//DTD SVG 1.1//EN"
 "http://www.w3.org/Graphics/SVG/1.1/DTD/svg11.dtd">
<!-- Created with svg_stack (http://github.com/astraw/svg_stack) -->
<svg xmlns="http://www.w3.org/2000/svg" xmlns:sodipodi="http://sodipodi.sourceforge.net/DTD/sodipodi-0.dtd" xmlns:xlink="http://www.w3.org/1999/xlink" version="1.1" width="626.62109375" height="348.61328125">
  <defs><g>
<symbol overflow="visible" id="id0:glyph0-0">
<path style="stroke:none;" d="M 10.34375 0 L 10.34375 -78.546875 L 55.546875 -78.546875 L 55.546875 0 Z M 15.953125 -72.9375 L 15.953125 -5.609375 L 49.9375 -5.609375 L 49.9375 -72.9375 Z M 15.953125 -72.9375 "/>
</symbol>
<symbol overflow="visible" id="id0:glyph0-1">
<path style="stroke:none;" d="M 63.25 -29.484375 L 63.25 32.78125 C 63.25 37.25 64.070312 40.453125 65.71875 42.390625 C 67.375 44.335938 70.4375 45.3125 74.90625 45.3125 L 76.5625 45.3125 L 76.5625 59.40625 C 76.050781 59.476562 75.554688 59.515625 75.078125 59.515625 C 74.597656 59.515625 74.101562 59.515625 73.59375 59.515625 C 67.800781 59.515625 63.269531 57.753906 60 54.234375 C 56.738281 50.710938 55.109375 44.734375 55.109375 36.296875 L 55.109375 -30.03125 C 55.109375 -33.988281 54.226562 -37.125 52.46875 -39.4375 C 50.707031 -41.75 48.285156 -43.414062 45.203125 -44.4375 C 42.128906 -45.46875 38.578125 -45.984375 34.546875 -45.984375 C 28.304688 -45.984375 23.207031 -44.789062 19.25 -42.40625 C 15.289062 -40.019531 13.3125 -35.894531 13.3125 -30.03125 L 13.3125 -27.390625 C 13.3125 -26.285156 13.347656 -25.296875 13.421875 -24.421875 C 14.515625 -26.617188 16.304688 -28.101562 18.796875 -28.875 C 21.296875 -29.644531 24.5625 -30.03125 28.59375 -30.03125 C 35.125 -30.03125 39.816406 -28.835938 42.671875 -26.453125 C 45.535156 -24.066406 46.96875 -20.3125 46.96875 -15.1875 C 46.96875 -11 46.253906 -7.734375 44.828125 -5.390625 C 43.398438 -3.046875 41.472656 -1.378906 39.046875 -0.390625 C 36.628906 0.597656 33.914062 1.09375 30.90625 1.09375 C 26.65625 1.09375 22.929688 0.253906 19.734375 -1.421875 C 16.546875 -3.109375 13.890625 -5.421875 11.765625 -8.359375 C 9.859375 -11.078125 8.425781 -14.15625 7.46875 -17.59375 C 6.519531 -21.039062 6.046875 -25.078125 6.046875 -29.703125 C 6.046875 -34.023438 6.484375 -37.925781 7.359375 -41.40625 C 8.242188 -44.894531 9.710938 -47.957031 11.765625 -50.59375 C 14.046875 -53.457031 17.019531 -55.75 20.6875 -57.46875 C 24.351562 -59.195312 28.640625 -60.0625 33.546875 -60.0625 L 35.75 -60.0625 C 40.664062 -60.0625 44.957031 -59.195312 48.625 -57.46875 C 52.289062 -55.75 55.257812 -53.421875 57.53125 -50.484375 C 59.582031 -47.921875 61.046875 -44.914062 61.921875 -41.46875 C 62.804688 -38.019531 63.25 -34.023438 63.25 -29.484375 Z M 27.9375 -12.984375 L 31.796875 -12.984375 C 34.578125 -12.984375 36.738281 -13.367188 38.28125 -14.140625 C 39.820312 -14.910156 40.59375 -16.175781 40.59375 -17.9375 C 40.59375 -19.613281 39.65625 -20.800781 37.78125 -21.5 C 35.914062 -22.195312 33.367188 -22.546875 30.140625 -22.546875 L 26.40625 -22.546875 C 23.25 -22.546875 20.804688 -22.175781 19.078125 -21.4375 C 17.359375 -20.707031 16.5 -19.0625 16.5 -16.5 L 16.5 -16.0625 C 18.695312 -14.007812 22.507812 -12.984375 27.9375 -12.984375 Z M 27.9375 -12.984375 "/>
</symbol>
<symbol overflow="visible" id="id0:glyph0-2">
<path style="stroke:none;" d=""/>
</symbol>
<symbol overflow="visible" id="id0:glyph0-3">
<path style="stroke:none;" d="M 32.671875 -51.046875 C 31.859375 -51.046875 31.175781 -51.316406 30.625 -51.859375 C 30.082031 -52.410156 29.8125 -53.128906 29.8125 -54.015625 C 29.8125 -54.816406 30.082031 -55.492188 30.625 -56.046875 C 31.175781 -56.597656 31.859375 -56.875 32.671875 -56.875 C 33.472656 -56.875 34.148438 -56.597656 34.703125 -56.046875 C 35.253906 -55.492188 35.53125 -54.816406 35.53125 -54.015625 C 35.53125 -53.128906 35.253906 -52.410156 34.703125 -51.859375 C 34.148438 -51.316406 33.472656 -51.046875 32.671875 -51.046875 Z M 42.125 -49.171875 C 41.175781 -49.171875 40.425781 -49.441406 39.875 -49.984375 C 39.320312 -50.535156 39.046875 -51.21875 39.046875 -52.03125 C 39.046875 -54.007812 40.070312 -55 42.125 -55 C 43.957031 -55 44.875 -54.007812 44.875 -52.03125 C 44.875 -51.21875 44.617188 -50.535156 44.109375 -49.984375 C 43.597656 -49.441406 42.9375 -49.171875 42.125 -49.171875 Z M 23.3125 -49.171875 C 22.507812 -49.171875 21.832031 -49.441406 21.28125 -49.984375 C 20.726562 -50.535156 20.453125 -51.21875 20.453125 -52.03125 C 20.453125 -52.90625 20.726562 -53.617188 21.28125 -54.171875 C 21.832031 -54.722656 22.507812 -55 23.3125 -55 C 24.195312 -55 24.914062 -54.722656 25.46875 -54.171875 C 26.019531 -53.617188 26.296875 -52.90625 26.296875 -52.03125 C 26.296875 -51.21875 26.019531 -50.535156 25.46875 -49.984375 C 24.914062 -49.441406 24.195312 -49.171875 23.3125 -49.171875 Z M 50.046875 -43.890625 C 49.171875 -43.890625 48.457031 -44.164062 47.90625 -44.71875 C 47.351562 -45.269531 47.078125 -45.945312 47.078125 -46.75 C 47.078125 -47.625 47.351562 -48.335938 47.90625 -48.890625 C 48.457031 -49.441406 49.171875 -49.71875 50.046875 -49.71875 C 51.878906 -49.71875 52.796875 -48.726562 52.796875 -46.75 C 52.796875 -45.945312 52.539062 -45.269531 52.03125 -44.71875 C 51.519531 -44.164062 50.859375 -43.890625 50.046875 -43.890625 Z M 15.40625 -43.890625 C 14.59375 -43.890625 13.910156 -44.144531 13.359375 -44.65625 C 12.816406 -45.175781 12.546875 -45.835938 12.546875 -46.640625 C 12.546875 -47.585938 12.816406 -48.335938 13.359375 -48.890625 C 13.910156 -49.441406 14.59375 -49.71875 15.40625 -49.71875 C 16.28125 -49.71875 16.992188 -49.441406 17.546875 -48.890625 C 18.097656 -48.335938 18.375 -47.625 18.375 -46.75 C 18.375 -45.945312 18.097656 -45.269531 17.546875 -44.71875 C 16.992188 -44.164062 16.28125 -43.890625 15.40625 -43.890625 Z M 55.21875 -35.859375 C 54.414062 -35.859375 53.738281 -36.132812 53.1875 -36.6875 C 52.632812 -37.238281 52.359375 -37.953125 52.359375 -38.828125 C 52.359375 -39.640625 52.632812 -40.316406 53.1875 -40.859375 C 53.738281 -41.410156 54.453125 -41.6875 55.328125 -41.6875 C 56.140625 -41.6875 56.816406 -41.410156 57.359375 -40.859375 C 57.910156 -40.316406 58.1875 -39.640625 58.1875 -38.828125 C 58.1875 -37.953125 57.910156 -37.238281 57.359375 -36.6875 C 56.816406 -36.132812 56.101562 -35.859375 55.21875 -35.859375 Z M 10.234375 -35.859375 C 8.179688 -35.859375 7.15625 -36.847656 7.15625 -38.828125 C 7.15625 -39.640625 7.425781 -40.316406 7.96875 -40.859375 C 8.519531 -41.410156 9.238281 -41.6875 10.125 -41.6875 C 10.925781 -41.6875 11.601562 -41.410156 12.15625 -40.859375 C 12.707031 -40.316406 12.984375 -39.640625 12.984375 -38.828125 C 12.984375 -36.847656 12.066406 -35.859375 10.234375 -35.859375 Z M 57.3125 -26.625 C 56.425781 -26.625 55.707031 -26.894531 55.15625 -27.4375 C 54.613281 -27.988281 54.34375 -28.671875 54.34375 -29.484375 C 54.34375 -30.285156 54.613281 -30.960938 55.15625 -31.515625 C 55.707031 -32.066406 56.425781 -32.34375 57.3125 -32.34375 C 58.113281 -32.34375 58.769531 -32.066406 59.28125 -31.515625 C 59.800781 -30.960938 60.0625 -30.285156 60.0625 -29.484375 C 60.0625 -28.671875 59.800781 -27.988281 59.28125 -27.4375 C 58.769531 -26.894531 58.113281 -26.625 57.3125 -26.625 Z M 8.25 -26.625 C 7.375 -26.625 6.660156 -26.894531 6.109375 -27.4375 C 5.554688 -27.988281 5.28125 -28.671875 5.28125 -29.484375 C 5.28125 -30.285156 5.554688 -30.960938 6.109375 -31.515625 C 6.660156 -32.066406 7.375 -32.34375 8.25 -32.34375 C 9.050781 -32.34375 9.726562 -32.066406 10.28125 -31.515625 C 10.832031 -30.960938 11.109375 -30.285156 11.109375 -29.484375 C 11.109375 -28.671875 10.832031 -27.988281 10.28125 -27.4375 C 9.726562 -26.894531 9.050781 -26.625 8.25 -26.625 Z M 55.21875 -17.265625 C 54.414062 -17.265625 53.738281 -17.539062 53.1875 -18.09375 C 52.632812 -18.644531 52.359375 -19.320312 52.359375 -20.125 C 52.359375 -21.007812 52.632812 -21.722656 53.1875 -22.265625 C 53.738281 -22.816406 54.414062 -23.09375 55.21875 -23.09375 C 56.101562 -23.09375 56.816406 -22.816406 57.359375 -22.265625 C 57.910156 -21.722656 58.1875 -21.007812 58.1875 -20.125 C 58.1875 -19.320312 57.910156 -18.644531 57.359375 -18.09375 C 56.816406 -17.539062 56.101562 -17.265625 55.21875 -17.265625 Z M 10.125 -17.265625 C 9.238281 -17.265625 8.519531 -17.539062 7.96875 -18.09375 C 7.425781 -18.644531 7.15625 -19.320312 7.15625 -20.125 C 7.15625 -21.007812 7.425781 -21.722656 7.96875 -22.265625 C 8.519531 -22.816406 9.238281 -23.09375 10.125 -23.09375 C 10.925781 -23.09375 11.601562 -22.816406 12.15625 -22.265625 C 12.707031 -21.722656 12.984375 -21.007812 12.984375 -20.125 C 12.984375 -19.320312 12.707031 -18.644531 12.15625 -18.09375 C 11.601562 -17.539062 10.925781 -17.265625 10.125 -17.265625 Z M 50.046875 -9.234375 C 49.171875 -9.234375 48.457031 -9.507812 47.90625 -10.0625 C 47.351562 -10.613281 47.078125 -11.289062 47.078125 -12.09375 C 47.078125 -12.976562 47.351562 -13.691406 47.90625 -14.234375 C 48.457031 -14.785156 49.171875 -15.0625 50.046875 -15.0625 C 51.878906 -15.0625 52.796875 -14.070312 52.796875 -12.09375 C 52.796875 -11.289062 52.539062 -10.613281 52.03125 -10.0625 C 51.519531 -9.507812 50.859375 -9.234375 50.046875 -9.234375 Z M 15.40625 -9.234375 C 14.59375 -9.234375 13.910156 -9.507812 13.359375 -10.0625 C 12.816406 -10.613281 12.546875 -11.289062 12.546875 -12.09375 C 12.546875 -12.976562 12.816406 -13.691406 13.359375 -14.234375 C 13.910156 -14.785156 14.59375 -15.0625 15.40625 -15.0625 C 16.28125 -15.0625 16.992188 -14.785156 17.546875 -14.234375 C 18.097656 -13.691406 18.375 -12.976562 18.375 -12.09375 C 18.375 -11.289062 18.097656 -10.613281 17.546875 -10.0625 C 16.992188 -9.507812 16.28125 -9.234375 15.40625 -9.234375 Z M 42.125 -4.0625 C 40.070312 -4.0625 39.046875 -4.976562 39.046875 -6.8125 C 39.046875 -8.800781 40.070312 -9.796875 42.125 -9.796875 C 43.957031 -9.796875 44.875 -8.800781 44.875 -6.8125 C 44.875 -4.976562 43.957031 -4.0625 42.125 -4.0625 Z M 23.3125 -4.0625 C 22.507812 -4.0625 21.832031 -4.316406 21.28125 -4.828125 C 20.726562 -5.347656 20.453125 -6.007812 20.453125 -6.8125 C 20.453125 -7.695312 20.726562 -8.414062 21.28125 -8.96875 C 21.832031 -9.519531 22.507812 -9.796875 23.3125 -9.796875 C 25.300781 -9.796875 26.296875 -8.878906 26.296875 -7.046875 C 26.296875 -6.160156 26.019531 -5.441406 25.46875 -4.890625 C 24.914062 -4.335938 24.195312 -4.0625 23.3125 -4.0625 Z M 32.671875 -2.09375 C 31.859375 -2.09375 31.175781 -2.363281 30.625 -2.90625 C 30.082031 -3.457031 29.8125 -4.175781 29.8125 -5.0625 C 29.8125 -5.863281 30.082031 -6.539062 30.625 -7.09375 C 31.175781 -7.644531 31.859375 -7.921875 32.671875 -7.921875 C 33.472656 -7.921875 34.148438 -7.644531 34.703125 -7.09375 C 35.253906 -6.539062 35.53125 -5.863281 35.53125 -5.0625 C 35.53125 -4.175781 35.253906 -3.457031 34.703125 -2.90625 C 34.148438 -2.363281 33.472656 -2.09375 32.671875 -2.09375 Z M 32.671875 -2.09375 "/>
</symbol>
<symbol overflow="visible" id="id0:glyph0-4">
<path style="stroke:none;" d="M -33.109375 -73.8125 L -33.109375 -65.671875 L -34.203125 -66.328125 C -38.898438 -69.046875 -43.117188 -71.796875 -46.859375 -74.578125 C -50.597656 -77.367188 -53.566406 -80.503906 -55.765625 -83.984375 C -57.960938 -87.460938 -59.0625 -91.550781 -59.0625 -96.25 C -59.0625 -100.644531 -58.085938 -104.507812 -56.140625 -107.84375 C -54.203125 -111.1875 -51.363281 -113.8125 -47.625 -115.71875 C -43.882812 -117.625 -39.410156 -118.578125 -34.203125 -118.578125 C -26.359375 -118.578125 -20.363281 -116.46875 -16.21875 -112.25 C -12.082031 -108.039062 -10.015625 -102.226562 -10.015625 -94.8125 C -10.015625 -94.007812 -10.03125 -93.3125 -10.0625 -92.71875 C -10.101562 -92.132812 -10.160156 -91.660156 -10.234375 -91.296875 L -16.390625 -91.296875 L -16.390625 -92.1875 C -16.390625 -97.164062 -18.039062 -100.660156 -21.34375 -102.671875 C -24.644531 -104.691406 -28.785156 -105.703125 -33.765625 -105.703125 C -39.335938 -105.703125 -43.570312 -104.640625 -46.46875 -102.515625 C -49.363281 -100.390625 -50.8125 -97.421875 -50.8125 -93.609375 C -50.8125 -89.648438 -49.269531 -86.109375 -46.1875 -82.984375 C -43.113281 -79.867188 -38.753906 -76.8125 -33.109375 -73.8125 Z M -33.109375 -73.8125 "/>
</symbol>
<symbol overflow="visible" id="id0:glyph0-5">
<path style="stroke:none;" d="M -8.90625 36.40625 L -31.90625 36.40625 L -29.921875 58.515625 L -39.265625 58.515625 L -37.296875 36.40625 L -60.390625 36.40625 L -60.390625 29.046875 L -37.296875 29.046875 L -39.265625 6.9375 L -29.921875 6.9375 L -31.90625 29.046875 L -8.90625 29.046875 Z M -8.90625 36.40625 "/>
</symbol>
</g>
<g>
<symbol overflow="visible" id="id1:glyph0-0">
<path style="stroke:none;" d="M 5.375 -96.6875 L 69.828125 -96.6875 L 69.828125 0 L 5.375 0 Z M 8.0625 -2.6875 L 67.140625 -2.6875 L 67.140625 -94 L 8.0625 -94 Z M 8.0625 -2.6875 "/>
</symbol>
<symbol overflow="visible" id="id1:glyph0-1">
<path style="stroke:none;" d="M 68.15625 -13.75 L 66.28125 -18.640625 L 88.09375 -27.390625 L 6.984375 -27.390625 L 6.984375 -34 L 88.09375 -34 L 66.28125 -42.75 L 68.15625 -47.640625 L 99.09375 -34.265625 L 99.09375 -27.125 Z M 68.15625 -13.75 "/>
</symbol>
</g>
<g>
<symbol overflow="visible" id="id2:glyph0-0">
<path style="stroke:none;" d="M 10.34375 0 L 10.34375 -78.546875 L 55.546875 -78.546875 L 55.546875 0 Z M 15.953125 -72.9375 L 15.953125 -5.609375 L 49.9375 -5.609375 L 49.9375 -72.9375 Z M 15.953125 -72.9375 "/>
</symbol>
<symbol overflow="visible" id="id2:glyph0-1">
<path style="stroke:none;" d="M 32.671875 -51.046875 C 31.859375 -51.046875 31.175781 -51.316406 30.625 -51.859375 C 30.082031 -52.410156 29.8125 -53.128906 29.8125 -54.015625 C 29.8125 -54.816406 30.082031 -55.492188 30.625 -56.046875 C 31.175781 -56.597656 31.859375 -56.875 32.671875 -56.875 C 33.472656 -56.875 34.148438 -56.597656 34.703125 -56.046875 C 35.253906 -55.492188 35.53125 -54.816406 35.53125 -54.015625 C 35.53125 -53.128906 35.253906 -52.410156 34.703125 -51.859375 C 34.148438 -51.316406 33.472656 -51.046875 32.671875 -51.046875 Z M 42.125 -49.171875 C 41.175781 -49.171875 40.425781 -49.441406 39.875 -49.984375 C 39.320312 -50.535156 39.046875 -51.21875 39.046875 -52.03125 C 39.046875 -54.007812 40.070312 -55 42.125 -55 C 43.957031 -55 44.875 -54.007812 44.875 -52.03125 C 44.875 -51.21875 44.617188 -50.535156 44.109375 -49.984375 C 43.597656 -49.441406 42.9375 -49.171875 42.125 -49.171875 Z M 23.3125 -49.171875 C 22.507812 -49.171875 21.832031 -49.441406 21.28125 -49.984375 C 20.726562 -50.535156 20.453125 -51.21875 20.453125 -52.03125 C 20.453125 -52.90625 20.726562 -53.617188 21.28125 -54.171875 C 21.832031 -54.722656 22.507812 -55 23.3125 -55 C 24.195312 -55 24.914062 -54.722656 25.46875 -54.171875 C 26.019531 -53.617188 26.296875 -52.90625 26.296875 -52.03125 C 26.296875 -51.21875 26.019531 -50.535156 25.46875 -49.984375 C 24.914062 -49.441406 24.195312 -49.171875 23.3125 -49.171875 Z M 50.046875 -43.890625 C 49.171875 -43.890625 48.457031 -44.164062 47.90625 -44.71875 C 47.351562 -45.269531 47.078125 -45.945312 47.078125 -46.75 C 47.078125 -47.625 47.351562 -48.335938 47.90625 -48.890625 C 48.457031 -49.441406 49.171875 -49.71875 50.046875 -49.71875 C 51.878906 -49.71875 52.796875 -48.726562 52.796875 -46.75 C 52.796875 -45.945312 52.539062 -45.269531 52.03125 -44.71875 C 51.519531 -44.164062 50.859375 -43.890625 50.046875 -43.890625 Z M 15.40625 -43.890625 C 14.59375 -43.890625 13.910156 -44.144531 13.359375 -44.65625 C 12.816406 -45.175781 12.546875 -45.835938 12.546875 -46.640625 C 12.546875 -47.585938 12.816406 -48.335938 13.359375 -48.890625 C 13.910156 -49.441406 14.59375 -49.71875 15.40625 -49.71875 C 16.28125 -49.71875 16.992188 -49.441406 17.546875 -48.890625 C 18.097656 -48.335938 18.375 -47.625 18.375 -46.75 C 18.375 -45.945312 18.097656 -45.269531 17.546875 -44.71875 C 16.992188 -44.164062 16.28125 -43.890625 15.40625 -43.890625 Z M 55.21875 -35.859375 C 54.414062 -35.859375 53.738281 -36.132812 53.1875 -36.6875 C 52.632812 -37.238281 52.359375 -37.953125 52.359375 -38.828125 C 52.359375 -39.640625 52.632812 -40.316406 53.1875 -40.859375 C 53.738281 -41.410156 54.453125 -41.6875 55.328125 -41.6875 C 56.140625 -41.6875 56.816406 -41.410156 57.359375 -40.859375 C 57.910156 -40.316406 58.1875 -39.640625 58.1875 -38.828125 C 58.1875 -37.953125 57.910156 -37.238281 57.359375 -36.6875 C 56.816406 -36.132812 56.101562 -35.859375 55.21875 -35.859375 Z M 10.234375 -35.859375 C 8.179688 -35.859375 7.15625 -36.847656 7.15625 -38.828125 C 7.15625 -39.640625 7.425781 -40.316406 7.96875 -40.859375 C 8.519531 -41.410156 9.238281 -41.6875 10.125 -41.6875 C 10.925781 -41.6875 11.601562 -41.410156 12.15625 -40.859375 C 12.707031 -40.316406 12.984375 -39.640625 12.984375 -38.828125 C 12.984375 -36.847656 12.066406 -35.859375 10.234375 -35.859375 Z M 57.3125 -26.625 C 56.425781 -26.625 55.707031 -26.894531 55.15625 -27.4375 C 54.613281 -27.988281 54.34375 -28.671875 54.34375 -29.484375 C 54.34375 -30.285156 54.613281 -30.960938 55.15625 -31.515625 C 55.707031 -32.066406 56.425781 -32.34375 57.3125 -32.34375 C 58.113281 -32.34375 58.769531 -32.066406 59.28125 -31.515625 C 59.800781 -30.960938 60.0625 -30.285156 60.0625 -29.484375 C 60.0625 -28.671875 59.800781 -27.988281 59.28125 -27.4375 C 58.769531 -26.894531 58.113281 -26.625 57.3125 -26.625 Z M 8.25 -26.625 C 7.375 -26.625 6.660156 -26.894531 6.109375 -27.4375 C 5.554688 -27.988281 5.28125 -28.671875 5.28125 -29.484375 C 5.28125 -30.285156 5.554688 -30.960938 6.109375 -31.515625 C 6.660156 -32.066406 7.375 -32.34375 8.25 -32.34375 C 9.050781 -32.34375 9.726562 -32.066406 10.28125 -31.515625 C 10.832031 -30.960938 11.109375 -30.285156 11.109375 -29.484375 C 11.109375 -28.671875 10.832031 -27.988281 10.28125 -27.4375 C 9.726562 -26.894531 9.050781 -26.625 8.25 -26.625 Z M 55.21875 -17.265625 C 54.414062 -17.265625 53.738281 -17.539062 53.1875 -18.09375 C 52.632812 -18.644531 52.359375 -19.320312 52.359375 -20.125 C 52.359375 -21.007812 52.632812 -21.722656 53.1875 -22.265625 C 53.738281 -22.816406 54.414062 -23.09375 55.21875 -23.09375 C 56.101562 -23.09375 56.816406 -22.816406 57.359375 -22.265625 C 57.910156 -21.722656 58.1875 -21.007812 58.1875 -20.125 C 58.1875 -19.320312 57.910156 -18.644531 57.359375 -18.09375 C 56.816406 -17.539062 56.101562 -17.265625 55.21875 -17.265625 Z M 10.125 -17.265625 C 9.238281 -17.265625 8.519531 -17.539062 7.96875 -18.09375 C 7.425781 -18.644531 7.15625 -19.320312 7.15625 -20.125 C 7.15625 -21.007812 7.425781 -21.722656 7.96875 -22.265625 C 8.519531 -22.816406 9.238281 -23.09375 10.125 -23.09375 C 10.925781 -23.09375 11.601562 -22.816406 12.15625 -22.265625 C 12.707031 -21.722656 12.984375 -21.007812 12.984375 -20.125 C 12.984375 -19.320312 12.707031 -18.644531 12.15625 -18.09375 C 11.601562 -17.539062 10.925781 -17.265625 10.125 -17.265625 Z M 50.046875 -9.234375 C 49.171875 -9.234375 48.457031 -9.507812 47.90625 -10.0625 C 47.351562 -10.613281 47.078125 -11.289062 47.078125 -12.09375 C 47.078125 -12.976562 47.351562 -13.691406 47.90625 -14.234375 C 48.457031 -14.785156 49.171875 -15.0625 50.046875 -15.0625 C 51.878906 -15.0625 52.796875 -14.070312 52.796875 -12.09375 C 52.796875 -11.289062 52.539062 -10.613281 52.03125 -10.0625 C 51.519531 -9.507812 50.859375 -9.234375 50.046875 -9.234375 Z M 15.40625 -9.234375 C 14.59375 -9.234375 13.910156 -9.507812 13.359375 -10.0625 C 12.816406 -10.613281 12.546875 -11.289062 12.546875 -12.09375 C 12.546875 -12.976562 12.816406 -13.691406 13.359375 -14.234375 C 13.910156 -14.785156 14.59375 -15.0625 15.40625 -15.0625 C 16.28125 -15.0625 16.992188 -14.785156 17.546875 -14.234375 C 18.097656 -13.691406 18.375 -12.976562 18.375 -12.09375 C 18.375 -11.289062 18.097656 -10.613281 17.546875 -10.0625 C 16.992188 -9.507812 16.28125 -9.234375 15.40625 -9.234375 Z M 42.125 -4.0625 C 40.070312 -4.0625 39.046875 -4.976562 39.046875 -6.8125 C 39.046875 -8.800781 40.070312 -9.796875 42.125 -9.796875 C 43.957031 -9.796875 44.875 -8.800781 44.875 -6.8125 C 44.875 -4.976562 43.957031 -4.0625 42.125 -4.0625 Z M 23.3125 -4.0625 C 22.507812 -4.0625 21.832031 -4.316406 21.28125 -4.828125 C 20.726562 -5.347656 20.453125 -6.007812 20.453125 -6.8125 C 20.453125 -7.695312 20.726562 -8.414062 21.28125 -8.96875 C 21.832031 -9.519531 22.507812 -9.796875 23.3125 -9.796875 C 25.300781 -9.796875 26.296875 -8.878906 26.296875 -7.046875 C 26.296875 -6.160156 26.019531 -5.441406 25.46875 -4.890625 C 24.914062 -4.335938 24.195312 -4.0625 23.3125 -4.0625 Z M 32.671875 -2.09375 C 31.859375 -2.09375 31.175781 -2.363281 30.625 -2.90625 C 30.082031 -3.457031 29.8125 -4.175781 29.8125 -5.0625 C 29.8125 -5.863281 30.082031 -6.539062 30.625 -7.09375 C 31.175781 -7.644531 31.859375 -7.921875 32.671875 -7.921875 C 33.472656 -7.921875 34.148438 -7.644531 34.703125 -7.09375 C 35.253906 -6.539062 35.53125 -5.863281 35.53125 -5.0625 C 35.53125 -4.175781 35.253906 -3.457031 34.703125 -2.90625 C 34.148438 -2.363281 33.472656 -2.09375 32.671875 -2.09375 Z M 32.671875 -2.09375 "/>
</symbol>
<symbol overflow="visible" id="id2:glyph0-2">
<path style="stroke:none;" d="M -22.65625 -118.578125 L -21.5625 -105.8125 C -26.550781 -105.59375 -30.96875 -104.96875 -34.8125 -103.9375 C -38.664062 -102.914062 -41.65625 -101.34375 -43.78125 -99.21875 C -45.90625 -97.09375 -46.96875 -94.125 -46.96875 -90.3125 L -46.96875 -89.3125 C -46.96875 -87.40625 -46.75 -85.648438 -46.3125 -84.046875 C -44.84375 -89.097656 -40.585938 -91.625 -33.546875 -91.625 C -29.078125 -91.625 -25.738281 -90.523438 -23.53125 -88.328125 C -21.332031 -86.128906 -20.234375 -83.015625 -20.234375 -78.984375 C -20.234375 -74.578125 -21.441406 -71.289062 -23.859375 -69.125 C -26.285156 -66.96875 -29.550781 -65.890625 -33.65625 -65.890625 C -37.988281 -65.890625 -41.65625 -66.953125 -44.65625 -69.078125 C -47.664062 -71.203125 -49.941406 -74.132812 -51.484375 -77.875 C -53.023438 -81.613281 -53.796875 -85.867188 -53.796875 -90.640625 C -53.796875 -99.585938 -51.082031 -106.40625 -45.65625 -111.09375 C -40.226562 -115.789062 -32.5625 -118.285156 -22.65625 -118.578125 Z M -33.546875 -75.453125 C -28.410156 -75.453125 -25.84375 -76.957031 -25.84375 -79.96875 C -25.84375 -82.976562 -28.410156 -84.484375 -33.546875 -84.484375 C -38.679688 -84.484375 -41.25 -82.976562 -41.25 -79.96875 C -41.25 -76.957031 -38.679688 -75.453125 -33.546875 -75.453125 Z M -33.546875 -75.453125 "/>
</symbol>
</g>
</defs>
  <g id="id0:id0" transform="matrix(1.25,0,0,1.25,0.0,0.0)"><g id="id0:surface1">
<g style="fill:rgb(0%,0%,0%);fill-opacity:1;">
  <use xlink:href="#id0:glyph0-1" x="16" y="138.296875"/>
  <use xlink:href="#id0:glyph0-2" x="85.84375" y="138.296875"/>
  <use xlink:href="#id0:glyph0-3" x="85.84375" y="138.296875"/>
  <use xlink:href="#id0:glyph0-4" x="153.15625" y="138.296875"/>
  <use xlink:href="#id0:glyph0-3" x="151.1875" y="138.296875"/>
  <use xlink:href="#id0:glyph0-5" x="218.5" y="138.296875"/>
  <use xlink:href="#id0:glyph0-3" x="216.53125" y="138.296875"/>
</g>
</g>
</g>
  <g id="id1:id1" transform="matrix(1.25,0,0,1.25,372.34375,73.603515625)"><g id="id1:surface1">
<g style="fill:rgb(0%,0%,0%);fill-opacity:1;">
  <use xlink:href="#id1:glyph0-1" x="0" y="120.84375"/>
</g>
</g>
</g>
  <g id="id2:id2" transform="matrix(1.25,0,0,1.25,504.94140625,0.0)"><g id="id2:surface1">
<g style="fill:rgb(0%,0%,0%);fill-opacity:1;">
  <use xlink:href="#id2:glyph0-1" x="16" y="138.296875"/>
  <use xlink:href="#id2:glyph0-2" x="83.3125" y="138.296875"/>
</g>
</g>
</g>
</svg>
