<?xml version="1.0" standalone="no"?>
<!DOCTYPE svg PUBLIC "-//W3C//DTD SVG 1.1//EN"
 "http://www.w3.org/Graphics/SVG/1.1/DTD/svg11.dtd">
<!-- Created with svg_stack (http://github.com/astraw/svg_stack) -->
<svg xmlns="http://www.w3.org/2000/svg" xmlns:sodipodi="http://sodipodi.sourceforge.net/DTD/sodipodi-0.dtd" xmlns:xlink="http://www.w3.org/1999/xlink" version="1.1" width="385.83984375" height="348.61328125">
  <defs><g>
<symbol overflow="visible" id="id0:glyph0-0">
<path style="stroke:none;" d="M 10.34375 0 L 10.34375 -78.546875 L 55.546875 -78.546875 L 55.546875 0 Z M 15.953125 -72.9375 L 15.953125 -5.609375 L 49.9375 -5.609375 L 49.9375 -72.9375 Z M 15.953125 -72.9375 "/>
</symbol>
<symbol overflow="visible" id="id0:glyph0-1">
<path style="stroke:none;" d="M 13.640625 -35.53125 L 6.375 -35.53125 C 6.59375 -40.445312 7.835938 -44.738281 10.109375 -48.40625 C 12.390625 -52.070312 15.507812 -54.929688 19.46875 -56.984375 C 23.425781 -59.035156 28.007812 -60.0625 33.21875 -60.0625 L 35.75 -60.0625 C 40.664062 -60.0625 44.957031 -59.195312 48.625 -57.46875 C 52.289062 -55.75 55.257812 -53.421875 57.53125 -50.484375 C 59.582031 -47.921875 61.046875 -44.914062 61.921875 -41.46875 C 62.804688 -38.019531 63.25 -34.023438 63.25 -29.484375 C 63.25 -24.929688 62.804688 -20.929688 61.921875 -17.484375 C 61.046875 -14.035156 59.582031 -11.03125 57.53125 -8.46875 C 55.257812 -5.53125 52.289062 -3.203125 48.625 -1.484375 C 44.957031 0.234375 40.664062 1.09375 35.75 1.09375 L 33.546875 1.09375 C 29.222656 1.09375 25.5 0.488281 22.375 -0.71875 C 19.257812 -1.925781 16.640625 -3.484375 14.515625 -5.390625 L 14.515625 32.34375 C 14.515625 36.8125 15.15625 40.015625 16.4375 41.953125 C 17.726562 43.898438 20.0625 44.875 23.4375 44.875 L 23.984375 44.875 L 23.984375 58.953125 C 23.617188 59.023438 23.210938 59.0625 22.765625 59.0625 C 22.328125 59.0625 22 59.0625 21.78125 59.0625 C 16.71875 59.0625 12.882812 57.300781 10.28125 53.78125 C 7.675781 50.269531 6.375 44.296875 6.375 35.859375 L 6.375 -23.4375 L 13.640625 -23.4375 C 14.078125 -20.28125 16.128906 -17.75 19.796875 -15.84375 C 23.460938 -13.9375 28.414062 -12.984375 34.65625 -12.984375 C 38.832031 -12.984375 42.53125 -13.492188 45.75 -14.515625 C 48.976562 -15.546875 51.488281 -17.234375 53.28125 -19.578125 C 55.082031 -21.921875 55.984375 -25.039062 55.984375 -28.9375 L 55.984375 -30.03125 C 55.984375 -33.988281 55.082031 -37.125 53.28125 -39.4375 C 51.488281 -41.75 48.976562 -43.414062 45.75 -44.4375 C 42.53125 -45.46875 38.832031 -45.984375 34.65625 -45.984375 C 28.414062 -45.984375 23.460938 -45.046875 19.796875 -43.171875 C 16.128906 -41.304688 14.078125 -38.757812 13.640625 -35.53125 Z M 13.640625 -35.53125 "/>
</symbol>
<symbol overflow="visible" id="id0:glyph0-2">
<path style="stroke:none;" d="M -9.453125 33.328125 L -9.453125 69.953125 C -9.453125 73.773438 -8.738281 76.523438 -7.3125 78.203125 C -5.882812 79.890625 -3.191406 80.734375 0.765625 80.734375 L 2.203125 80.734375 L 2.203125 92.84375 C 1.835938 92.914062 1.429688 92.953125 0.984375 92.953125 C 0.546875 92.953125 0.109375 92.953125 -0.328125 92.953125 C -5.535156 92.953125 -9.601562 91.425781 -12.53125 88.375 C -15.46875 85.332031 -16.9375 80.1875 -16.9375 72.9375 L -16.9375 32.78125 C -16.9375 27.9375 -18.601562 24.539062 -21.9375 22.59375 C -25.28125 20.65625 -29.554688 19.6875 -34.765625 19.6875 C -40.117188 19.6875 -44.515625 20.65625 -47.953125 22.59375 C -51.398438 24.539062 -53.125 27.9375 -53.125 32.78125 L -53.125 35.09375 C -53.125 35.820312 -53.085938 36.519531 -53.015625 37.1875 C -51.992188 35.425781 -50.414062 34.25 -48.28125 33.65625 C -46.15625 33.070312 -43.375 32.78125 -39.9375 32.78125 C -34.0625 32.78125 -29.859375 33.804688 -27.328125 35.859375 C -24.804688 37.910156 -23.546875 41.140625 -23.546875 45.546875 C -23.546875 49.140625 -24.1875 51.960938 -25.46875 54.015625 C -26.75 56.066406 -28.46875 57.515625 -30.625 58.359375 C -32.789062 59.203125 -35.234375 59.625 -37.953125 59.625 C -41.617188 59.625 -44.863281 58.890625 -47.6875 57.421875 C -50.507812 55.953125 -52.875 53.972656 -54.78125 51.484375 C -56.46875 49.128906 -57.734375 46.46875 -58.578125 43.5 C -59.421875 40.53125 -59.84375 37.066406 -59.84375 33.109375 C -59.84375 29.367188 -59.4375 25.992188 -58.625 22.984375 C -57.820312 19.984375 -56.539062 17.34375 -54.78125 15.0625 C -52.800781 12.644531 -50.175781 10.6875 -46.90625 9.1875 C -43.644531 7.6875 -39.890625 6.9375 -35.640625 6.9375 L -33.65625 6.9375 C -29.332031 6.9375 -25.554688 7.6875 -22.328125 9.1875 C -19.097656 10.6875 -16.492188 12.6875 -14.515625 15.1875 C -12.679688 17.457031 -11.378906 20.054688 -10.609375 22.984375 C -9.835938 25.921875 -9.453125 29.367188 -9.453125 33.328125 Z M -40.484375 46.859375 L -37.1875 46.859375 C -34.832031 46.859375 -32.976562 46.5625 -31.625 45.96875 C -30.269531 45.382812 -29.59375 44.472656 -29.59375 43.234375 C -29.59375 41.765625 -30.398438 40.734375 -32.015625 40.140625 C -33.628906 39.554688 -35.828125 39.265625 -38.609375 39.265625 L -41.90625 39.265625 C -44.695312 39.265625 -46.84375 39.554688 -48.34375 40.140625 C -49.84375 40.734375 -50.59375 42.054688 -50.59375 44.109375 C -48.757812 45.941406 -45.390625 46.859375 -40.484375 46.859375 Z M -40.484375 46.859375 "/>
</symbol>
</g>
<g>
<symbol overflow="visible" id="id1:glyph0-0">
<path style="stroke:none;" d="M 5.375 -96.6875 L 69.828125 -96.6875 L 69.828125 0 L 5.375 0 Z M 8.0625 -2.6875 L 67.140625 -2.6875 L 67.140625 -94 L 8.0625 -94 Z M 8.0625 -2.6875 "/>
</symbol>
<symbol overflow="visible" id="id1:glyph0-1">
<path style="stroke:none;" d="M 68.15625 -13.75 L 66.28125 -18.640625 L 88.09375 -27.390625 L 6.984375 -27.390625 L 6.984375 -34 L 88.09375 -34 L 66.28125 -42.75 L 68.15625 -47.640625 L 99.09375 -34.265625 L 99.09375 -27.125 Z M 68.15625 -13.75 "/>
</symbol>
</g>
<g>
<symbol overflow="visible" id="id2:glyph0-0">
<path style="stroke:none;" d="M 10.34375 0 L 10.34375 -78.546875 L 55.546875 -78.546875 L 55.546875 0 Z M 15.953125 -72.9375 L 15.953125 -5.609375 L 49.9375 -5.609375 L 49.9375 -72.9375 Z M 15.953125 -72.9375 "/>
</symbol>
<symbol overflow="visible" id="id2:glyph0-1">
<path style="stroke:none;" d="M 13.640625 -35.53125 L 6.375 -35.53125 C 6.59375 -40.445312 7.835938 -44.738281 10.109375 -48.40625 C 12.390625 -52.070312 15.507812 -54.929688 19.46875 -56.984375 C 23.425781 -59.035156 28.007812 -60.0625 33.21875 -60.0625 L 35.75 -60.0625 C 40.664062 -60.0625 44.957031 -59.195312 48.625 -57.46875 C 52.289062 -55.75 55.257812 -53.421875 57.53125 -50.484375 C 59.582031 -47.921875 61.046875 -44.914062 61.921875 -41.46875 C 62.804688 -38.019531 63.25 -34.023438 63.25 -29.484375 C 63.25 -24.929688 62.804688 -20.929688 61.921875 -17.484375 C 61.046875 -14.035156 59.582031 -11.03125 57.53125 -8.46875 C 55.257812 -5.53125 52.289062 -3.203125 48.625 -1.484375 C 44.957031 0.234375 40.664062 1.09375 35.75 1.09375 L 33.546875 1.09375 C 29.222656 1.09375 25.5 0.488281 22.375 -0.71875 C 19.257812 -1.925781 16.640625 -3.484375 14.515625 -5.390625 L 14.515625 32.34375 C 14.515625 36.8125 15.15625 40.015625 16.4375 41.953125 C 17.726562 43.898438 20.0625 44.875 23.4375 44.875 L 23.984375 44.875 L 23.984375 58.953125 C 23.617188 59.023438 23.210938 59.0625 22.765625 59.0625 C 22.328125 59.0625 22 59.0625 21.78125 59.0625 C 16.71875 59.0625 12.882812 57.300781 10.28125 53.78125 C 7.675781 50.269531 6.375 44.296875 6.375 35.859375 L 6.375 -23.4375 L 13.640625 -23.4375 C 14.078125 -20.28125 16.128906 -17.75 19.796875 -15.84375 C 23.460938 -13.9375 28.414062 -12.984375 34.65625 -12.984375 C 38.832031 -12.984375 42.53125 -13.492188 45.75 -14.515625 C 48.976562 -15.546875 51.488281 -17.234375 53.28125 -19.578125 C 55.082031 -21.921875 55.984375 -25.039062 55.984375 -28.9375 L 55.984375 -30.03125 C 55.984375 -33.988281 55.082031 -37.125 53.28125 -39.4375 C 51.488281 -41.75 48.976562 -43.414062 45.75 -44.4375 C 42.53125 -45.46875 38.832031 -45.984375 34.65625 -45.984375 C 28.414062 -45.984375 23.460938 -45.046875 19.796875 -43.171875 C 16.128906 -41.304688 14.078125 -38.757812 13.640625 -35.53125 Z M 13.640625 -35.53125 "/>
</symbol>
<symbol overflow="visible" id="id2:glyph0-2">
<path style="stroke:none;" d="M -9.453125 33.328125 L -9.453125 69.953125 C -9.453125 73.773438 -8.738281 76.523438 -7.3125 78.203125 C -5.882812 79.890625 -3.191406 80.734375 0.765625 80.734375 L 2.203125 80.734375 L 2.203125 92.84375 C 1.835938 92.914062 1.429688 92.953125 0.984375 92.953125 C 0.546875 92.953125 0.109375 92.953125 -0.328125 92.953125 C -5.535156 92.953125 -9.601562 91.425781 -12.53125 88.375 C -15.46875 85.332031 -16.9375 80.1875 -16.9375 72.9375 L -16.9375 32.78125 C -16.9375 27.9375 -18.601562 24.539062 -21.9375 22.59375 C -25.28125 20.65625 -29.554688 19.6875 -34.765625 19.6875 C -40.117188 19.6875 -44.515625 20.65625 -47.953125 22.59375 C -51.398438 24.539062 -53.125 27.9375 -53.125 32.78125 L -53.125 35.09375 C -53.125 35.820312 -53.085938 36.519531 -53.015625 37.1875 C -51.992188 35.425781 -50.414062 34.25 -48.28125 33.65625 C -46.15625 33.070312 -43.375 32.78125 -39.9375 32.78125 C -34.0625 32.78125 -29.859375 33.804688 -27.328125 35.859375 C -24.804688 37.910156 -23.546875 41.140625 -23.546875 45.546875 C -23.546875 49.140625 -24.1875 51.960938 -25.46875 54.015625 C -26.75 56.066406 -28.46875 57.515625 -30.625 58.359375 C -32.789062 59.203125 -35.234375 59.625 -37.953125 59.625 C -41.617188 59.625 -44.863281 58.890625 -47.6875 57.421875 C -50.507812 55.953125 -52.875 53.972656 -54.78125 51.484375 C -56.46875 49.128906 -57.734375 46.46875 -58.578125 43.5 C -59.421875 40.53125 -59.84375 37.066406 -59.84375 33.109375 C -59.84375 29.367188 -59.4375 25.992188 -58.625 22.984375 C -57.820312 19.984375 -56.539062 17.34375 -54.78125 15.0625 C -52.800781 12.644531 -50.175781 10.6875 -46.90625 9.1875 C -43.644531 7.6875 -39.890625 6.9375 -35.640625 6.9375 L -33.65625 6.9375 C -29.332031 6.9375 -25.554688 7.6875 -22.328125 9.1875 C -19.097656 10.6875 -16.492188 12.6875 -14.515625 15.1875 C -12.679688 17.457031 -11.378906 20.054688 -10.609375 22.984375 C -9.835938 25.921875 -9.453125 29.367188 -9.453125 33.328125 Z M -40.484375 46.859375 L -37.1875 46.859375 C -34.832031 46.859375 -32.976562 46.5625 -31.625 45.96875 C -30.269531 45.382812 -29.59375 44.472656 -29.59375 43.234375 C -29.59375 41.765625 -30.398438 40.734375 -32.015625 40.140625 C -33.628906 39.554688 -35.828125 39.265625 -38.609375 39.265625 L -41.90625 39.265625 C -44.695312 39.265625 -46.84375 39.554688 -48.34375 40.140625 C -49.84375 40.734375 -50.59375 42.054688 -50.59375 44.109375 C -48.757812 45.941406 -45.390625 46.859375 -40.484375 46.859375 Z M -40.484375 46.859375 "/>
</symbol>
</g>
</defs>
  <g id="id0:id0" transform="matrix(1.25,0,0,1.25,0.0,0.0)"><g id="id0:surface1">
<g style="fill:rgb(0%,0%,0%);fill-opacity:1;">
  <use xlink:href="#id0:glyph0-1" x="16" y="138.296875"/>
  <use xlink:href="#id0:glyph0-2" x="85.296875" y="138.296875"/>
</g>
</g>
</g>
  <g id="id1:id1" transform="matrix(1.25,0,0,1.25,126.62109375,73.603515625)"><g id="id1:surface1">
<g style="fill:rgb(0%,0%,0%);fill-opacity:1;">
  <use xlink:href="#id1:glyph0-1" x="0" y="120.84375"/>
</g>
</g>
</g>
  <g id="id2:id2" transform="matrix(1.25,0,0,1.25,259.21875,0.0)"><g id="id2:surface1">
<g style="fill:rgb(0%,0%,0%);fill-opacity:1;">
  <use xlink:href="#id2:glyph0-1" x="16" y="138.296875"/>
  <use xlink:href="#id2:glyph0-2" x="85.296875" y="138.296875"/>
</g>
</g>
</g>
</svg>
