<?xml version="1.0" standalone="no"?>
<!DOCTYPE svg PUBLIC "-//W3C//DTD SVG 1.1//EN"
 "http://www.w3.org/Graphics/SVG/1.1/DTD/svg11.dtd">
<!-- Created with svg_stack (http://github.com/astraw/svg_stack) -->
<svg xmlns="http://www.w3.org/2000/svg" xmlns:sodipodi="http://sodipodi.sourceforge.net/DTD/sodipodi-0.dtd" xmlns:xlink="http://www.w3.org/1999/xlink" version="1.1" width="914.66796875" height="348.61328125">
  <defs><g>
<symbol overflow="visible" id="id0:glyph0-0">
<path style="stroke:none;" d="M 10.34375 0 L 10.34375 -78.546875 L 55.546875 -78.546875 L 55.546875 0 Z M 15.953125 -72.9375 L 15.953125 -5.609375 L 49.9375 -5.609375 L 49.9375 -72.9375 Z M 15.953125 -72.9375 "/>
</symbol>
<symbol overflow="visible" id="id0:glyph0-1">
<path style="stroke:none;" d="M 63.25 -29.484375 L 63.25 32.78125 C 63.25 37.25 64.070312 40.453125 65.71875 42.390625 C 67.375 44.335938 70.4375 45.3125 74.90625 45.3125 L 76.5625 45.3125 L 76.5625 59.40625 C 76.050781 59.476562 75.554688 59.515625 75.078125 59.515625 C 74.597656 59.515625 74.101562 59.515625 73.59375 59.515625 C 67.800781 59.515625 63.269531 57.753906 60 54.234375 C 56.738281 50.710938 55.109375 44.734375 55.109375 36.296875 L 55.109375 -30.03125 C 55.109375 -33.988281 54.226562 -37.125 52.46875 -39.4375 C 50.707031 -41.75 48.285156 -43.414062 45.203125 -44.4375 C 42.128906 -45.46875 38.578125 -45.984375 34.546875 -45.984375 C 28.304688 -45.984375 23.207031 -44.789062 19.25 -42.40625 C 15.289062 -40.019531 13.3125 -35.894531 13.3125 -30.03125 L 13.3125 -27.390625 C 13.3125 -26.285156 13.347656 -25.296875 13.421875 -24.421875 C 14.515625 -26.617188 16.304688 -28.101562 18.796875 -28.875 C 21.296875 -29.644531 24.5625 -30.03125 28.59375 -30.03125 C 35.125 -30.03125 39.816406 -28.835938 42.671875 -26.453125 C 45.535156 -24.066406 46.96875 -20.3125 46.96875 -15.1875 C 46.96875 -11 46.253906 -7.734375 44.828125 -5.390625 C 43.398438 -3.046875 41.472656 -1.378906 39.046875 -0.390625 C 36.628906 0.597656 33.914062 1.09375 30.90625 1.09375 C 26.65625 1.09375 22.929688 0.253906 19.734375 -1.421875 C 16.546875 -3.109375 13.890625 -5.421875 11.765625 -8.359375 C 9.859375 -11.078125 8.425781 -14.15625 7.46875 -17.59375 C 6.519531 -21.039062 6.046875 -25.078125 6.046875 -29.703125 C 6.046875 -34.023438 6.484375 -37.925781 7.359375 -41.40625 C 8.242188 -44.894531 9.710938 -47.957031 11.765625 -50.59375 C 14.046875 -53.457031 17.019531 -55.75 20.6875 -57.46875 C 24.351562 -59.195312 28.640625 -60.0625 33.546875 -60.0625 L 35.75 -60.0625 C 40.664062 -60.0625 44.957031 -59.195312 48.625 -57.46875 C 52.289062 -55.75 55.257812 -53.421875 57.53125 -50.484375 C 59.582031 -47.921875 61.046875 -44.914062 61.921875 -41.46875 C 62.804688 -38.019531 63.25 -34.023438 63.25 -29.484375 Z M 27.9375 -12.984375 L 31.796875 -12.984375 C 34.578125 -12.984375 36.738281 -13.367188 38.28125 -14.140625 C 39.820312 -14.910156 40.59375 -16.175781 40.59375 -17.9375 C 40.59375 -19.613281 39.65625 -20.800781 37.78125 -21.5 C 35.914062 -22.195312 33.367188 -22.546875 30.140625 -22.546875 L 26.40625 -22.546875 C 23.25 -22.546875 20.804688 -22.175781 19.078125 -21.4375 C 17.359375 -20.707031 16.5 -19.0625 16.5 -16.5 L 16.5 -16.0625 C 18.695312 -14.007812 22.507812 -12.984375 27.9375 -12.984375 Z M 27.9375 -12.984375 "/>
</symbol>
<symbol overflow="visible" id="id0:glyph0-2">
<path style="stroke:none;" d="M 14.953125 -85.359375 L 14.953125 0 L 6.59375 0 L 6.59375 -85.359375 C 6.59375 -90.273438 5.878906 -94.109375 4.453125 -96.859375 C 3.023438 -99.609375 0.992188 -101.566406 -1.640625 -102.734375 C -4.285156 -103.910156 -7.367188 -104.5 -10.890625 -104.5 C -16.242188 -104.5 -20.515625 -103.234375 -23.703125 -100.703125 C -26.890625 -98.171875 -28.484375 -93.753906 -28.484375 -87.453125 L -28.484375 -86.6875 L -34.875 -86.6875 C -34.945312 -87.269531 -35.019531 -88.09375 -35.09375 -89.15625 C -35.164062 -90.21875 -35.203125 -91.1875 -35.203125 -92.0625 C -35.203125 -97.195312 -34.285156 -101.742188 -32.453125 -105.703125 C -30.617188 -109.671875 -27.832031 -112.804688 -24.09375 -115.109375 C -20.351562 -117.421875 -15.695312 -118.578125 -10.125 -118.578125 C -0.289062 -118.578125 6.675781 -114.910156 10.78125 -107.578125 C 14.882812 -114.910156 21.851562 -118.578125 31.6875 -118.578125 C 37.332031 -118.578125 42.003906 -117.421875 45.703125 -115.109375 C 49.410156 -112.804688 52.179688 -109.671875 54.015625 -105.703125 C 55.847656 -101.742188 56.765625 -97.195312 56.765625 -92.0625 C 56.765625 -91.1875 56.742188 -90.21875 56.703125 -89.15625 C 56.671875 -88.09375 56.582031 -87.269531 56.4375 -86.6875 L 50.046875 -86.6875 L 50.046875 -87.453125 C 50.046875 -93.753906 48.453125 -98.171875 45.265625 -100.703125 C 42.078125 -103.234375 37.804688 -104.5 32.453125 -104.5 C 28.929688 -104.5 25.847656 -103.910156 23.203125 -102.734375 C 20.566406 -101.566406 18.53125 -99.609375 17.09375 -96.859375 C 15.664062 -94.109375 14.953125 -90.273438 14.953125 -85.359375 Z M 14.953125 -85.359375 "/>
</symbol>
<symbol overflow="visible" id="id0:glyph0-3">
<path style="stroke:none;" d="M 136.625 -7.59375 L 136.625 35.859375 C 136.625 41.648438 135.78125 45.972656 134.09375 48.828125 C 132.40625 51.691406 130.3125 53.820312 127.8125 55.21875 C 125.539062 56.539062 122.242188 57.507812 117.921875 58.125 C 113.597656 58.75 107.710938 59.15625 100.265625 59.34375 C 92.816406 59.53125 83.265625 59.625 71.609375 59.625 C 62.878906 59.625 55.359375 59.585938 49.046875 59.515625 C 42.742188 59.441406 37.429688 59.253906 33.109375 58.953125 C 28.785156 58.660156 25.226562 58.222656 22.4375 57.640625 C 19.65625 57.054688 17.382812 56.25 15.625 55.21875 C 13.125 53.820312 10.992188 51.691406 9.234375 48.828125 C 7.472656 45.972656 6.59375 41.648438 6.59375 35.859375 L 6.59375 -94.9375 C 6.59375 -100.726562 7.472656 -105.035156 9.234375 -107.859375 C 10.992188 -110.679688 13.125 -112.789062 15.625 -114.1875 C 17.382812 -115.207031 19.65625 -116.007812 22.4375 -116.59375 C 25.226562 -117.1875 28.785156 -117.628906 33.109375 -117.921875 C 37.429688 -118.210938 42.742188 -118.394531 49.046875 -118.46875 C 55.359375 -118.539062 62.878906 -118.578125 71.609375 -118.578125 C 83.265625 -118.578125 92.816406 -118.484375 100.265625 -118.296875 C 107.710938 -118.117188 113.597656 -117.734375 117.921875 -117.140625 C 122.242188 -116.554688 125.539062 -115.570312 127.8125 -114.1875 C 130.3125 -112.789062 132.40625 -110.679688 134.09375 -107.859375 C 135.78125 -105.035156 136.625 -100.726562 136.625 -94.9375 L 136.625 -86.34375 L 128.265625 -86.34375 L 128.265625 -90.859375 C 128.265625 -93.941406 127.65625 -96.414062 126.4375 -98.28125 C 125.226562 -100.15625 123.269531 -101.492188 120.5625 -102.296875 C 118.4375 -102.890625 115.503906 -103.332031 111.765625 -103.625 C 108.023438 -103.914062 102.945312 -104.097656 96.53125 -104.171875 C 90.113281 -104.242188 81.804688 -104.28125 71.609375 -104.28125 C 61.492188 -104.28125 53.226562 -104.242188 46.8125 -104.171875 C 40.394531 -104.097656 35.3125 -103.914062 31.5625 -103.625 C 27.820312 -103.332031 24.890625 -102.890625 22.765625 -102.296875 C 17.554688 -100.679688 14.953125 -96.867188 14.953125 -90.859375 L 14.953125 31.6875 C 14.953125 37.769531 17.59375 41.617188 22.875 43.234375 C 24.925781 43.816406 27.800781 44.253906 31.5 44.546875 C 35.207031 44.835938 40.289062 45.035156 46.75 45.140625 C 53.207031 45.253906 61.492188 45.3125 71.609375 45.3125 C 81.804688 45.3125 90.113281 45.253906 96.53125 45.140625 C 102.945312 45.035156 108.023438 44.816406 111.765625 44.484375 C 115.503906 44.160156 118.398438 43.707031 120.453125 43.125 C 123.234375 42.3125 125.226562 40.96875 126.4375 39.09375 C 127.65625 37.226562 128.265625 34.757812 128.265625 31.6875 L 128.265625 -7.59375 Z M 136.625 -7.59375 "/>
</symbol>
<symbol overflow="visible" id="id0:glyph0-4">
<path style="stroke:none;" d="M 66.328125 -60.171875 C 69.484375 -60.171875 72.175781 -59.566406 74.40625 -58.359375 C 76.644531 -57.148438 78.316406 -55.703125 79.421875 -54.015625 C 81.691406 -55.847656 84.3125 -57.3125 87.28125 -58.40625 C 90.25 -59.507812 93.457031 -60.0625 96.90625 -60.0625 L 99.109375 -60.0625 C 104.023438 -60.0625 108.316406 -59.195312 111.984375 -57.46875 C 115.648438 -55.75 118.617188 -53.421875 120.890625 -50.484375 C 122.941406 -47.921875 124.40625 -44.914062 125.28125 -41.46875 C 126.164062 -38.019531 126.609375 -34.023438 126.609375 -29.484375 C 126.609375 -24.929688 126.164062 -20.929688 125.28125 -17.484375 C 124.40625 -14.035156 122.941406 -11.03125 120.890625 -8.46875 C 118.617188 -5.53125 115.648438 -3.203125 111.984375 -1.484375 C 108.316406 0.234375 104.023438 1.09375 99.109375 1.09375 C 97.054688 1.09375 95.296875 0.984375 93.828125 0.765625 L 93.828125 -12.984375 L 98.015625 -12.984375 C 102.191406 -12.984375 105.890625 -13.492188 109.109375 -14.515625 C 112.335938 -15.546875 114.847656 -17.234375 116.640625 -19.578125 C 118.441406 -21.921875 119.34375 -25.039062 119.34375 -28.9375 L 119.34375 -30.03125 C 119.34375 -35.894531 117.34375 -40.019531 113.34375 -42.40625 C 109.351562 -44.789062 104.171875 -45.984375 97.796875 -45.984375 C 94.566406 -45.984375 91.59375 -45.539062 88.875 -44.65625 C 86.164062 -43.78125 83.984375 -42.40625 82.328125 -40.53125 C 80.679688 -38.664062 79.859375 -36.15625 79.859375 -33 C 79.859375 -30.875 80.078125 -28.984375 80.515625 -27.328125 C 80.960938 -25.679688 81.382812 -23.976562 81.78125 -22.21875 C 82.1875 -20.457031 82.390625 -18.332031 82.390625 -15.84375 C 82.390625 -10.851562 81.015625 -6.765625 78.265625 -3.578125 C 75.515625 -0.390625 71.609375 1.203125 66.546875 1.203125 L 66.109375 1.203125 C 61.046875 1.203125 57.140625 -0.390625 54.390625 -3.578125 C 51.640625 -6.765625 50.265625 -10.851562 50.265625 -15.84375 C 50.265625 -18.332031 50.484375 -20.457031 50.921875 -22.21875 C 51.367188 -23.976562 51.789062 -25.679688 52.1875 -27.328125 C 52.59375 -28.984375 52.796875 -30.875 52.796875 -33 C 52.796875 -36.15625 51.96875 -38.664062 50.3125 -40.53125 C 48.664062 -42.40625 46.484375 -43.78125 43.765625 -44.65625 C 41.054688 -45.539062 38.09375 -45.984375 34.875 -45.984375 C 28.488281 -45.984375 23.296875 -44.789062 19.296875 -42.40625 C 15.304688 -40.019531 13.3125 -35.894531 13.3125 -30.03125 L 13.3125 -28.9375 C 13.3125 -25.039062 14.226562 -21.921875 16.0625 -19.578125 C 17.894531 -17.234375 20.40625 -15.546875 23.59375 -14.515625 C 26.78125 -13.492188 30.46875 -12.984375 34.65625 -12.984375 L 38.828125 -12.984375 L 38.828125 0.765625 C 37.429688 0.984375 35.671875 1.09375 33.546875 1.09375 C 28.640625 1.09375 24.351562 0.234375 20.6875 -1.484375 C 17.019531 -3.203125 14.046875 -5.53125 11.765625 -8.46875 C 9.710938 -11.03125 8.242188 -14.035156 7.359375 -17.484375 C 6.484375 -20.929688 6.046875 -24.929688 6.046875 -29.484375 C 6.046875 -34.023438 6.484375 -38.019531 7.359375 -41.46875 C 8.242188 -44.914062 9.710938 -47.921875 11.765625 -50.484375 C 14.046875 -53.421875 17.019531 -55.75 20.6875 -57.46875 C 24.351562 -59.195312 28.640625 -60.0625 33.546875 -60.0625 L 35.75 -60.0625 C 39.195312 -60.0625 42.40625 -59.507812 45.375 -58.40625 C 48.34375 -57.3125 50.960938 -55.847656 53.234375 -54.015625 C 54.335938 -55.703125 56.003906 -57.148438 58.234375 -58.359375 C 60.472656 -59.566406 63.171875 -60.171875 66.328125 -60.171875 Z M 59.1875 -19.46875 C 59.1875 -16.976562 59.71875 -14.867188 60.78125 -13.140625 C 61.84375 -11.421875 63.691406 -10.5625 66.328125 -10.5625 C 68.972656 -10.5625 70.828125 -11.421875 71.890625 -13.140625 C 72.953125 -14.867188 73.484375 -16.976562 73.484375 -19.46875 C 73.484375 -22.769531 73.097656 -25.773438 72.328125 -28.484375 C 71.554688 -31.203125 71.171875 -34.175781 71.171875 -37.40625 C 71.171875 -40.476562 71.867188 -43.445312 73.265625 -46.3125 C 71.648438 -48.070312 69.335938 -48.953125 66.328125 -48.953125 C 63.316406 -48.953125 61.007812 -48.070312 59.40625 -46.3125 C 60.789062 -43.445312 61.484375 -40.476562 61.484375 -37.40625 C 61.484375 -34.175781 61.097656 -31.203125 60.328125 -28.484375 C 59.566406 -25.773438 59.1875 -22.769531 59.1875 -19.46875 Z M 59.1875 -19.46875 "/>
</symbol>
</g>
<g>
<symbol overflow="visible" id="id1:glyph0-0">
<path style="stroke:none;" d="M 5.375 -96.6875 L 69.828125 -96.6875 L 69.828125 0 L 5.375 0 Z M 8.0625 -2.6875 L 67.140625 -2.6875 L 67.140625 -94 L 8.0625 -94 Z M 8.0625 -2.6875 "/>
</symbol>
<symbol overflow="visible" id="id1:glyph0-1">
<path style="stroke:none;" d="M 68.15625 -13.75 L 66.28125 -18.640625 L 88.09375 -27.390625 L 6.984375 -27.390625 L 6.984375 -34 L 88.09375 -34 L 66.28125 -42.75 L 68.15625 -47.640625 L 99.09375 -34.265625 L 99.09375 -27.125 Z M 68.15625 -13.75 "/>
</symbol>
</g>
<g>
<symbol overflow="visible" id="id2:glyph0-0">
<path style="stroke:none;" d="M 10.34375 0 L 10.34375 -78.546875 L 55.546875 -78.546875 L 55.546875 0 Z M 15.953125 -72.9375 L 15.953125 -5.609375 L 49.9375 -5.609375 L 49.9375 -72.9375 Z M 15.953125 -72.9375 "/>
</symbol>
<symbol overflow="visible" id="id2:glyph0-1">
<path style="stroke:none;" d="M 63.25 -29.484375 L 63.25 32.78125 C 63.25 37.25 64.070312 40.453125 65.71875 42.390625 C 67.375 44.335938 70.4375 45.3125 74.90625 45.3125 L 76.5625 45.3125 L 76.5625 59.40625 C 76.050781 59.476562 75.554688 59.515625 75.078125 59.515625 C 74.597656 59.515625 74.101562 59.515625 73.59375 59.515625 C 67.800781 59.515625 63.269531 57.753906 60 54.234375 C 56.738281 50.710938 55.109375 44.734375 55.109375 36.296875 L 55.109375 -30.03125 C 55.109375 -33.988281 54.226562 -37.125 52.46875 -39.4375 C 50.707031 -41.75 48.285156 -43.414062 45.203125 -44.4375 C 42.128906 -45.46875 38.578125 -45.984375 34.546875 -45.984375 C 28.304688 -45.984375 23.207031 -44.789062 19.25 -42.40625 C 15.289062 -40.019531 13.3125 -35.894531 13.3125 -30.03125 L 13.3125 -27.390625 C 13.3125 -26.285156 13.347656 -25.296875 13.421875 -24.421875 C 14.515625 -26.617188 16.304688 -28.101562 18.796875 -28.875 C 21.296875 -29.644531 24.5625 -30.03125 28.59375 -30.03125 C 35.125 -30.03125 39.816406 -28.835938 42.671875 -26.453125 C 45.535156 -24.066406 46.96875 -20.3125 46.96875 -15.1875 C 46.96875 -11 46.253906 -7.734375 44.828125 -5.390625 C 43.398438 -3.046875 41.472656 -1.378906 39.046875 -0.390625 C 36.628906 0.597656 33.914062 1.09375 30.90625 1.09375 C 26.65625 1.09375 22.929688 0.253906 19.734375 -1.421875 C 16.546875 -3.109375 13.890625 -5.421875 11.765625 -8.359375 C 9.859375 -11.078125 8.425781 -14.15625 7.46875 -17.59375 C 6.519531 -21.039062 6.046875 -25.078125 6.046875 -29.703125 C 6.046875 -34.023438 6.484375 -37.925781 7.359375 -41.40625 C 8.242188 -44.894531 9.710938 -47.957031 11.765625 -50.59375 C 14.046875 -53.457031 17.019531 -55.75 20.6875 -57.46875 C 24.351562 -59.195312 28.640625 -60.0625 33.546875 -60.0625 L 35.75 -60.0625 C 40.664062 -60.0625 44.957031 -59.195312 48.625 -57.46875 C 52.289062 -55.75 55.257812 -53.421875 57.53125 -50.484375 C 59.582031 -47.921875 61.046875 -44.914062 61.921875 -41.46875 C 62.804688 -38.019531 63.25 -34.023438 63.25 -29.484375 Z M 27.9375 -12.984375 L 31.796875 -12.984375 C 34.578125 -12.984375 36.738281 -13.367188 38.28125 -14.140625 C 39.820312 -14.910156 40.59375 -16.175781 40.59375 -17.9375 C 40.59375 -19.613281 39.65625 -20.800781 37.78125 -21.5 C 35.914062 -22.195312 33.367188 -22.546875 30.140625 -22.546875 L 26.40625 -22.546875 C 23.25 -22.546875 20.804688 -22.175781 19.078125 -21.4375 C 17.359375 -20.707031 16.5 -19.0625 16.5 -16.5 L 16.5 -16.0625 C 18.695312 -14.007812 22.507812 -12.984375 27.9375 -12.984375 Z M 27.9375 -12.984375 "/>
</symbol>
<symbol overflow="visible" id="id2:glyph0-2">
<path style="stroke:none;" d="M 14.953125 -85.359375 L 14.953125 0 L 6.59375 0 L 6.59375 -85.359375 C 6.59375 -90.273438 5.878906 -94.109375 4.453125 -96.859375 C 3.023438 -99.609375 0.992188 -101.566406 -1.640625 -102.734375 C -4.285156 -103.910156 -7.367188 -104.5 -10.890625 -104.5 C -16.242188 -104.5 -20.515625 -103.234375 -23.703125 -100.703125 C -26.890625 -98.171875 -28.484375 -93.753906 -28.484375 -87.453125 L -28.484375 -86.6875 L -34.875 -86.6875 C -34.945312 -87.269531 -35.019531 -88.09375 -35.09375 -89.15625 C -35.164062 -90.21875 -35.203125 -91.1875 -35.203125 -92.0625 C -35.203125 -97.195312 -34.285156 -101.742188 -32.453125 -105.703125 C -30.617188 -109.671875 -27.832031 -112.804688 -24.09375 -115.109375 C -20.351562 -117.421875 -15.695312 -118.578125 -10.125 -118.578125 C -0.289062 -118.578125 6.675781 -114.910156 10.78125 -107.578125 C 14.882812 -114.910156 21.851562 -118.578125 31.6875 -118.578125 C 37.332031 -118.578125 42.003906 -117.421875 45.703125 -115.109375 C 49.410156 -112.804688 52.179688 -109.671875 54.015625 -105.703125 C 55.847656 -101.742188 56.765625 -97.195312 56.765625 -92.0625 C 56.765625 -91.1875 56.742188 -90.21875 56.703125 -89.15625 C 56.671875 -88.09375 56.582031 -87.269531 56.4375 -86.6875 L 50.046875 -86.6875 L 50.046875 -87.453125 C 50.046875 -93.753906 48.453125 -98.171875 45.265625 -100.703125 C 42.078125 -103.234375 37.804688 -104.5 32.453125 -104.5 C 28.929688 -104.5 25.847656 -103.910156 23.203125 -102.734375 C 20.566406 -101.566406 18.53125 -99.609375 17.09375 -96.859375 C 15.664062 -94.109375 14.953125 -90.273438 14.953125 -85.359375 Z M 14.953125 -85.359375 "/>
</symbol>
<symbol overflow="visible" id="id2:glyph0-3">
<path style="stroke:none;" d="M 136.625 -7.59375 L 136.625 35.859375 C 136.625 41.648438 135.78125 45.972656 134.09375 48.828125 C 132.40625 51.691406 130.3125 53.820312 127.8125 55.21875 C 125.539062 56.539062 122.242188 57.507812 117.921875 58.125 C 113.597656 58.75 107.710938 59.15625 100.265625 59.34375 C 92.816406 59.53125 83.265625 59.625 71.609375 59.625 C 62.878906 59.625 55.359375 59.585938 49.046875 59.515625 C 42.742188 59.441406 37.429688 59.253906 33.109375 58.953125 C 28.785156 58.660156 25.226562 58.222656 22.4375 57.640625 C 19.65625 57.054688 17.382812 56.25 15.625 55.21875 C 13.125 53.820312 10.992188 51.691406 9.234375 48.828125 C 7.472656 45.972656 6.59375 41.648438 6.59375 35.859375 L 6.59375 -94.9375 C 6.59375 -100.726562 7.472656 -105.035156 9.234375 -107.859375 C 10.992188 -110.679688 13.125 -112.789062 15.625 -114.1875 C 17.382812 -115.207031 19.65625 -116.007812 22.4375 -116.59375 C 25.226562 -117.1875 28.785156 -117.628906 33.109375 -117.921875 C 37.429688 -118.210938 42.742188 -118.394531 49.046875 -118.46875 C 55.359375 -118.539062 62.878906 -118.578125 71.609375 -118.578125 C 83.265625 -118.578125 92.816406 -118.484375 100.265625 -118.296875 C 107.710938 -118.117188 113.597656 -117.734375 117.921875 -117.140625 C 122.242188 -116.554688 125.539062 -115.570312 127.8125 -114.1875 C 130.3125 -112.789062 132.40625 -110.679688 134.09375 -107.859375 C 135.78125 -105.035156 136.625 -100.726562 136.625 -94.9375 L 136.625 -86.34375 L 128.265625 -86.34375 L 128.265625 -90.859375 C 128.265625 -93.941406 127.65625 -96.414062 126.4375 -98.28125 C 125.226562 -100.15625 123.269531 -101.492188 120.5625 -102.296875 C 118.4375 -102.890625 115.503906 -103.332031 111.765625 -103.625 C 108.023438 -103.914062 102.945312 -104.097656 96.53125 -104.171875 C 90.113281 -104.242188 81.804688 -104.28125 71.609375 -104.28125 C 61.492188 -104.28125 53.226562 -104.242188 46.8125 -104.171875 C 40.394531 -104.097656 35.3125 -103.914062 31.5625 -103.625 C 27.820312 -103.332031 24.890625 -102.890625 22.765625 -102.296875 C 17.554688 -100.679688 14.953125 -96.867188 14.953125 -90.859375 L 14.953125 31.6875 C 14.953125 37.769531 17.59375 41.617188 22.875 43.234375 C 24.925781 43.816406 27.800781 44.253906 31.5 44.546875 C 35.207031 44.835938 40.289062 45.035156 46.75 45.140625 C 53.207031 45.253906 61.492188 45.3125 71.609375 45.3125 C 81.804688 45.3125 90.113281 45.253906 96.53125 45.140625 C 102.945312 45.035156 108.023438 44.816406 111.765625 44.484375 C 115.503906 44.160156 118.398438 43.707031 120.453125 43.125 C 123.234375 42.3125 125.226562 40.96875 126.4375 39.09375 C 127.65625 37.226562 128.265625 34.757812 128.265625 31.6875 L 128.265625 -7.59375 Z M 136.625 -7.59375 "/>
</symbol>
<symbol overflow="visible" id="id2:glyph0-4">
<path style="stroke:none;" d="M 66.328125 -60.171875 C 69.484375 -60.171875 72.175781 -59.566406 74.40625 -58.359375 C 76.644531 -57.148438 78.316406 -55.703125 79.421875 -54.015625 C 81.691406 -55.847656 84.3125 -57.3125 87.28125 -58.40625 C 90.25 -59.507812 93.457031 -60.0625 96.90625 -60.0625 L 99.109375 -60.0625 C 104.023438 -60.0625 108.316406 -59.195312 111.984375 -57.46875 C 115.648438 -55.75 118.617188 -53.421875 120.890625 -50.484375 C 122.941406 -47.921875 124.40625 -44.914062 125.28125 -41.46875 C 126.164062 -38.019531 126.609375 -34.023438 126.609375 -29.484375 C 126.609375 -24.929688 126.164062 -20.929688 125.28125 -17.484375 C 124.40625 -14.035156 122.941406 -11.03125 120.890625 -8.46875 C 118.617188 -5.53125 115.648438 -3.203125 111.984375 -1.484375 C 108.316406 0.234375 104.023438 1.09375 99.109375 1.09375 C 97.054688 1.09375 95.296875 0.984375 93.828125 0.765625 L 93.828125 -12.984375 L 98.015625 -12.984375 C 102.191406 -12.984375 105.890625 -13.492188 109.109375 -14.515625 C 112.335938 -15.546875 114.847656 -17.234375 116.640625 -19.578125 C 118.441406 -21.921875 119.34375 -25.039062 119.34375 -28.9375 L 119.34375 -30.03125 C 119.34375 -35.894531 117.34375 -40.019531 113.34375 -42.40625 C 109.351562 -44.789062 104.171875 -45.984375 97.796875 -45.984375 C 94.566406 -45.984375 91.59375 -45.539062 88.875 -44.65625 C 86.164062 -43.78125 83.984375 -42.40625 82.328125 -40.53125 C 80.679688 -38.664062 79.859375 -36.15625 79.859375 -33 C 79.859375 -30.875 80.078125 -28.984375 80.515625 -27.328125 C 80.960938 -25.679688 81.382812 -23.976562 81.78125 -22.21875 C 82.1875 -20.457031 82.390625 -18.332031 82.390625 -15.84375 C 82.390625 -10.851562 81.015625 -6.765625 78.265625 -3.578125 C 75.515625 -0.390625 71.609375 1.203125 66.546875 1.203125 L 66.109375 1.203125 C 61.046875 1.203125 57.140625 -0.390625 54.390625 -3.578125 C 51.640625 -6.765625 50.265625 -10.851562 50.265625 -15.84375 C 50.265625 -18.332031 50.484375 -20.457031 50.921875 -22.21875 C 51.367188 -23.976562 51.789062 -25.679688 52.1875 -27.328125 C 52.59375 -28.984375 52.796875 -30.875 52.796875 -33 C 52.796875 -36.15625 51.96875 -38.664062 50.3125 -40.53125 C 48.664062 -42.40625 46.484375 -43.78125 43.765625 -44.65625 C 41.054688 -45.539062 38.09375 -45.984375 34.875 -45.984375 C 28.488281 -45.984375 23.296875 -44.789062 19.296875 -42.40625 C 15.304688 -40.019531 13.3125 -35.894531 13.3125 -30.03125 L 13.3125 -28.9375 C 13.3125 -25.039062 14.226562 -21.921875 16.0625 -19.578125 C 17.894531 -17.234375 20.40625 -15.546875 23.59375 -14.515625 C 26.78125 -13.492188 30.46875 -12.984375 34.65625 -12.984375 L 38.828125 -12.984375 L 38.828125 0.765625 C 37.429688 0.984375 35.671875 1.09375 33.546875 1.09375 C 28.640625 1.09375 24.351562 0.234375 20.6875 -1.484375 C 17.019531 -3.203125 14.046875 -5.53125 11.765625 -8.46875 C 9.710938 -11.03125 8.242188 -14.035156 7.359375 -17.484375 C 6.484375 -20.929688 6.046875 -24.929688 6.046875 -29.484375 C 6.046875 -34.023438 6.484375 -38.019531 7.359375 -41.46875 C 8.242188 -44.914062 9.710938 -47.921875 11.765625 -50.484375 C 14.046875 -53.421875 17.019531 -55.75 20.6875 -57.46875 C 24.351562 -59.195312 28.640625 -60.0625 33.546875 -60.0625 L 35.75 -60.0625 C 39.195312 -60.0625 42.40625 -59.507812 45.375 -58.40625 C 48.34375 -57.3125 50.960938 -55.847656 53.234375 -54.015625 C 54.335938 -55.703125 56.003906 -57.148438 58.234375 -58.359375 C 60.472656 -59.566406 63.171875 -60.171875 66.328125 -60.171875 Z M 59.1875 -19.46875 C 59.1875 -16.976562 59.71875 -14.867188 60.78125 -13.140625 C 61.84375 -11.421875 63.691406 -10.5625 66.328125 -10.5625 C 68.972656 -10.5625 70.828125 -11.421875 71.890625 -13.140625 C 72.953125 -14.867188 73.484375 -16.976562 73.484375 -19.46875 C 73.484375 -22.769531 73.097656 -25.773438 72.328125 -28.484375 C 71.554688 -31.203125 71.171875 -34.175781 71.171875 -37.40625 C 71.171875 -40.476562 71.867188 -43.445312 73.265625 -46.3125 C 71.648438 -48.070312 69.335938 -48.953125 66.328125 -48.953125 C 63.316406 -48.953125 61.007812 -48.070312 59.40625 -46.3125 C 60.789062 -43.445312 61.484375 -40.476562 61.484375 -37.40625 C 61.484375 -34.175781 61.097656 -31.203125 60.328125 -28.484375 C 59.566406 -25.773438 59.1875 -22.769531 59.1875 -19.46875 Z M 59.1875 -19.46875 "/>
</symbol>
</g>
</defs>
  <g id="id0:id0" transform="matrix(1.25,0,0,1.25,0.0,0.0)"><g id="id0:surface1">
<g style="fill:rgb(0%,0%,0%);fill-opacity:1;">
  <use xlink:href="#id0:glyph0-1" x="16" y="138.296875"/>
  <use xlink:href="#id0:glyph0-2" x="85.84375" y="138.296875"/>
  <use xlink:href="#id0:glyph0-3" x="142.609375" y="138.296875"/>
  <use xlink:href="#id0:glyph0-4" x="164.171875" y="138.296875"/>
</g>
</g>
</g>
  <g id="id1:id1" transform="matrix(1.25,0,0,1.25,391.03515625,73.603515625)"><g id="id1:surface1">
<g style="fill:rgb(0%,0%,0%);fill-opacity:1;">
  <use xlink:href="#id1:glyph0-1" x="0" y="120.84375"/>
</g>
</g>
</g>
  <g id="id2:id2" transform="matrix(1.25,0,0,1.25,523.6328125,0.0)"><g id="id2:surface1">
<g style="fill:rgb(0%,0%,0%);fill-opacity:1;">
  <use xlink:href="#id2:glyph0-1" x="16" y="138.296875"/>
  <use xlink:href="#id2:glyph0-2" x="85.84375" y="138.296875"/>
  <use xlink:href="#id2:glyph0-3" x="142.609375" y="138.296875"/>
  <use xlink:href="#id2:glyph0-4" x="164.171875" y="138.296875"/>
</g>
</g>
</g>
</svg>
