<?xml version="1.0" standalone="no"?>
<!DOCTYPE svg PUBLIC "-//W3C//DTD SVG 1.1//EN"
 "http://www.w3.org/Graphics/SVG/1.1/DTD/svg11.dtd">
<!-- Created with svg_stack (http://github.com/astraw/svg_stack) -->
<svg xmlns="http://www.w3.org/2000/svg" xmlns:sodipodi="http://sodipodi.sourceforge.net/DTD/sodipodi-0.dtd" xmlns:xlink="http://www.w3.org/1999/xlink" version="1.1" width="439.74609375" height="348.61328125">
  <defs><g>
<symbol overflow="visible" id="id0:glyph0-0">
<path style="stroke:none;" d="M 10.34375 0 L 10.34375 -78.546875 L 55.546875 -78.546875 L 55.546875 0 Z M 15.953125 -72.9375 L 15.953125 -5.609375 L 49.9375 -5.609375 L 49.9375 -72.9375 Z M 15.953125 -72.9375 "/>
</symbol>
<symbol overflow="visible" id="id0:glyph0-1">
<path style="stroke:none;" d="M 73.265625 -7.59375 L 73.265625 36.078125 C 73.265625 41.867188 72.617188 46.140625 71.328125 48.890625 C 70.046875 51.640625 68.5625 53.640625 66.875 54.890625 C 64.09375 56.941406 60.351562 58.242188 55.65625 58.796875 C 50.96875 59.347656 45.726562 59.625 39.9375 59.625 C 34.207031 59.625 28.992188 59.347656 24.296875 58.796875 C 19.609375 58.242188 15.875 56.941406 13.09375 54.890625 C 11.332031 53.640625 9.804688 51.640625 8.515625 48.890625 C 7.234375 46.140625 6.59375 41.867188 6.59375 36.078125 L 6.59375 -95.046875 C 6.59375 -100.835938 7.234375 -105.109375 8.515625 -107.859375 C 9.804688 -110.609375 11.332031 -112.601562 13.09375 -113.84375 C 15.875 -115.976562 19.609375 -117.300781 24.296875 -117.8125 C 28.992188 -118.320312 34.207031 -118.578125 39.9375 -118.578125 C 45.726562 -118.578125 50.96875 -118.320312 55.65625 -117.8125 C 60.351562 -117.300781 64.09375 -115.976562 66.875 -113.84375 C 68.5625 -112.601562 70.046875 -110.609375 71.328125 -107.859375 C 72.617188 -105.109375 73.265625 -100.835938 73.265625 -95.046875 L 73.265625 -86.5625 L 64.90625 -86.5625 L 64.90625 -91.625 C 64.90625 -97.34375 63.179688 -101.007812 59.734375 -102.625 C 57.679688 -103.4375 54.820312 -103.953125 51.15625 -104.171875 C 47.488281 -104.390625 43.75 -104.5 39.9375 -104.5 C 36.113281 -104.5 32.367188 -104.390625 28.703125 -104.171875 C 25.035156 -103.953125 22.210938 -103.4375 20.234375 -102.625 C 16.710938 -101.007812 14.953125 -97.34375 14.953125 -91.625 L 14.953125 32.5625 C 14.953125 38.28125 16.75 41.945312 20.34375 43.5625 C 22.25 44.363281 25.035156 44.894531 28.703125 45.15625 C 32.367188 45.414062 36.113281 45.546875 39.9375 45.546875 C 43.75 45.546875 47.488281 45.414062 51.15625 45.15625 C 54.820312 44.894531 57.644531 44.328125 59.625 43.453125 C 63.144531 41.984375 64.90625 38.351562 64.90625 32.5625 L 64.90625 -7.59375 Z M 73.265625 -7.59375 "/>
</symbol>
<symbol overflow="visible" id="id0:glyph0-2">
<path style="stroke:none;" d="M 55.65625 -23.4375 L 62.921875 -23.4375 L 62.921875 36.078125 C 62.921875 41.867188 62.332031 46.140625 61.15625 48.890625 C 59.988281 51.640625 58.632812 53.640625 57.09375 54.890625 C 54.738281 56.941406 51.582031 58.242188 47.625 58.796875 C 43.664062 59.347656 39.269531 59.625 34.4375 59.625 C 29.664062 59.625 25.300781 59.347656 21.34375 58.796875 C 17.382812 58.242188 14.226562 56.941406 11.875 54.890625 C 10.332031 53.640625 8.972656 51.929688 7.796875 49.765625 C 6.628906 47.609375 6.046875 44.695312 6.046875 41.03125 C 6.046875 37.582031 6.851562 34.484375 8.46875 31.734375 C 10.082031 28.984375 12.425781 26.800781 15.5 25.1875 C 18.582031 23.570312 22.363281 22.765625 26.84375 22.765625 C 33.144531 22.765625 38.253906 24.15625 42.171875 26.9375 C 46.097656 29.726562 48.140625 33.507812 48.296875 38.28125 L 35.75 38.28125 C 35.53125 35.9375 34.519531 34.101562 32.71875 32.78125 C 30.925781 31.457031 28.050781 30.796875 24.09375 30.796875 C 20.5 30.796875 17.800781 31.4375 16 32.71875 C 14.207031 34.007812 13.3125 35.679688 13.3125 37.734375 C 13.3125 40.148438 14.171875 41.960938 15.890625 43.171875 C 17.617188 44.378906 20.039062 45.1875 23.15625 45.59375 C 26.269531 46 29.878906 46.203125 33.984375 46.203125 C 36.992188 46.203125 40.019531 46.09375 43.0625 45.875 C 46.101562 45.65625 48.394531 45.140625 49.9375 44.328125 C 53.164062 42.710938 54.78125 39.046875 54.78125 33.328125 L 54.78125 -5.28125 C 52.4375 -3.226562 49.6875 -1.648438 46.53125 -0.546875 C 43.375 0.546875 39.890625 1.09375 36.078125 1.09375 L 33.546875 1.09375 C 28.640625 1.09375 24.351562 0.234375 20.6875 -1.484375 C 17.019531 -3.203125 14.046875 -5.53125 11.765625 -8.46875 C 9.710938 -11.03125 8.242188 -14.035156 7.359375 -17.484375 C 6.484375 -20.929688 6.046875 -24.929688 6.046875 -29.484375 C 6.046875 -34.023438 6.484375 -38.019531 7.359375 -41.46875 C 8.242188 -44.914062 9.710938 -47.921875 11.765625 -50.484375 C 14.046875 -53.421875 17.019531 -55.75 20.6875 -57.46875 C 24.351562 -59.195312 28.640625 -60.0625 33.546875 -60.0625 L 35.75 -60.0625 C 40.957031 -60.0625 45.300781 -59.234375 48.78125 -57.578125 C 52.269531 -55.929688 55.039062 -53.820312 57.09375 -51.25 C 59.144531 -48.6875 60.628906 -45.992188 61.546875 -43.171875 C 62.460938 -40.347656 62.921875 -37.800781 62.921875 -35.53125 L 55.65625 -35.53125 C 55.21875 -38.757812 53.179688 -41.304688 49.546875 -43.171875 C 45.921875 -45.046875 40.957031 -45.984375 34.65625 -45.984375 C 30.46875 -45.984375 26.78125 -45.46875 23.59375 -44.4375 C 20.40625 -43.414062 17.894531 -41.75 16.0625 -39.4375 C 14.226562 -37.125 13.3125 -33.988281 13.3125 -30.03125 L 13.3125 -28.9375 C 13.3125 -25.039062 14.226562 -21.921875 16.0625 -19.578125 C 17.894531 -17.234375 20.40625 -15.546875 23.59375 -14.515625 C 26.78125 -13.492188 30.46875 -12.984375 34.65625 -12.984375 C 40.957031 -12.984375 45.921875 -13.9375 49.546875 -15.84375 C 53.179688 -17.75 55.21875 -20.28125 55.65625 -23.4375 Z M 55.65625 -23.4375 "/>
</symbol>
</g>
<g>
<symbol overflow="visible" id="id1:glyph0-0">
<path style="stroke:none;" d="M 5.375 -96.6875 L 69.828125 -96.6875 L 69.828125 0 L 5.375 0 Z M 8.0625 -2.6875 L 67.140625 -2.6875 L 67.140625 -94 L 8.0625 -94 Z M 8.0625 -2.6875 "/>
</symbol>
<symbol overflow="visible" id="id1:glyph0-1">
<path style="stroke:none;" d="M 68.15625 -13.75 L 66.28125 -18.640625 L 88.09375 -27.390625 L 6.984375 -27.390625 L 6.984375 -34 L 88.09375 -34 L 66.28125 -42.75 L 68.15625 -47.640625 L 99.09375 -34.265625 L 99.09375 -27.125 Z M 68.15625 -13.75 "/>
</symbol>
</g>
<g>
<symbol overflow="visible" id="id2:glyph0-0">
<path style="stroke:none;" d="M 10.34375 0 L 10.34375 -78.546875 L 55.546875 -78.546875 L 55.546875 0 Z M 15.953125 -72.9375 L 15.953125 -5.609375 L 49.9375 -5.609375 L 49.9375 -72.9375 Z M 15.953125 -72.9375 "/>
</symbol>
<symbol overflow="visible" id="id2:glyph0-1">
<path style="stroke:none;" d="M 26.734375 59.625 C 24.015625 59.625 21.316406 59.421875 18.640625 59.015625 C 15.960938 58.609375 13.742188 57.523438 11.984375 55.765625 C 10.453125 54.222656 9.171875 52.003906 8.140625 49.109375 C 7.109375 46.210938 6.59375 41.867188 6.59375 36.078125 L 6.59375 -95.046875 C 6.59375 -100.835938 7.234375 -105.109375 8.515625 -107.859375 C 9.804688 -110.609375 11.332031 -112.601562 13.09375 -113.84375 C 15.875 -115.976562 19.609375 -117.300781 24.296875 -117.8125 C 28.992188 -118.320312 34.207031 -118.578125 39.9375 -118.578125 C 45.726562 -118.578125 50.96875 -118.320312 55.65625 -117.8125 C 60.351562 -117.300781 64.09375 -115.976562 66.875 -113.84375 C 68.5625 -112.601562 70.046875 -110.609375 71.328125 -107.859375 C 72.617188 -105.109375 73.265625 -100.835938 73.265625 -95.046875 L 73.265625 -86.5625 L 64.90625 -86.5625 L 64.90625 -91.625 C 64.90625 -97.34375 63.179688 -101.007812 59.734375 -102.625 C 57.679688 -103.4375 54.820312 -103.953125 51.15625 -104.171875 C 47.488281 -104.390625 43.75 -104.5 39.9375 -104.5 C 36.113281 -104.5 32.367188 -104.390625 28.703125 -104.171875 C 25.035156 -103.953125 22.210938 -103.4375 20.234375 -102.625 C 16.710938 -101.007812 14.953125 -97.34375 14.953125 -91.625 L 14.953125 32.5625 C 14.953125 38.207031 16.421875 41.945312 19.359375 43.78125 C 20.316406 44.507812 21.507812 44.984375 22.9375 45.203125 C 24.363281 45.429688 25.628906 45.546875 26.734375 45.546875 Z M 26.734375 59.625 "/>
</symbol>
<symbol overflow="visible" id="id2:glyph0-2">
<path style="stroke:none;" d="M 55.65625 -23.4375 L 62.921875 -23.4375 L 62.921875 36.078125 C 62.921875 41.867188 62.332031 46.140625 61.15625 48.890625 C 59.988281 51.640625 58.632812 53.640625 57.09375 54.890625 C 54.738281 56.941406 51.582031 58.242188 47.625 58.796875 C 43.664062 59.347656 39.269531 59.625 34.4375 59.625 C 29.664062 59.625 25.300781 59.347656 21.34375 58.796875 C 17.382812 58.242188 14.226562 56.941406 11.875 54.890625 C 10.332031 53.640625 8.972656 51.929688 7.796875 49.765625 C 6.628906 47.609375 6.046875 44.695312 6.046875 41.03125 C 6.046875 37.582031 6.851562 34.484375 8.46875 31.734375 C 10.082031 28.984375 12.425781 26.800781 15.5 25.1875 C 18.582031 23.570312 22.363281 22.765625 26.84375 22.765625 C 33.144531 22.765625 38.253906 24.15625 42.171875 26.9375 C 46.097656 29.726562 48.140625 33.507812 48.296875 38.28125 L 35.75 38.28125 C 35.53125 35.9375 34.519531 34.101562 32.71875 32.78125 C 30.925781 31.457031 28.050781 30.796875 24.09375 30.796875 C 20.5 30.796875 17.800781 31.4375 16 32.71875 C 14.207031 34.007812 13.3125 35.679688 13.3125 37.734375 C 13.3125 40.148438 14.171875 41.960938 15.890625 43.171875 C 17.617188 44.378906 20.039062 45.1875 23.15625 45.59375 C 26.269531 46 29.878906 46.203125 33.984375 46.203125 C 36.992188 46.203125 40.019531 46.09375 43.0625 45.875 C 46.101562 45.65625 48.394531 45.140625 49.9375 44.328125 C 53.164062 42.710938 54.78125 39.046875 54.78125 33.328125 L 54.78125 -5.28125 C 52.4375 -3.226562 49.6875 -1.648438 46.53125 -0.546875 C 43.375 0.546875 39.890625 1.09375 36.078125 1.09375 L 33.546875 1.09375 C 28.640625 1.09375 24.351562 0.234375 20.6875 -1.484375 C 17.019531 -3.203125 14.046875 -5.53125 11.765625 -8.46875 C 9.710938 -11.03125 8.242188 -14.035156 7.359375 -17.484375 C 6.484375 -20.929688 6.046875 -24.929688 6.046875 -29.484375 C 6.046875 -34.023438 6.484375 -38.019531 7.359375 -41.46875 C 8.242188 -44.914062 9.710938 -47.921875 11.765625 -50.484375 C 14.046875 -53.421875 17.019531 -55.75 20.6875 -57.46875 C 24.351562 -59.195312 28.640625 -60.0625 33.546875 -60.0625 L 35.75 -60.0625 C 40.957031 -60.0625 45.300781 -59.234375 48.78125 -57.578125 C 52.269531 -55.929688 55.039062 -53.820312 57.09375 -51.25 C 59.144531 -48.6875 60.628906 -45.992188 61.546875 -43.171875 C 62.460938 -40.347656 62.921875 -37.800781 62.921875 -35.53125 L 55.65625 -35.53125 C 55.21875 -38.757812 53.179688 -41.304688 49.546875 -43.171875 C 45.921875 -45.046875 40.957031 -45.984375 34.65625 -45.984375 C 30.46875 -45.984375 26.78125 -45.46875 23.59375 -44.4375 C 20.40625 -43.414062 17.894531 -41.75 16.0625 -39.4375 C 14.226562 -37.125 13.3125 -33.988281 13.3125 -30.03125 L 13.3125 -28.9375 C 13.3125 -25.039062 14.226562 -21.921875 16.0625 -19.578125 C 17.894531 -17.234375 20.40625 -15.546875 23.59375 -14.515625 C 26.78125 -13.492188 30.46875 -12.984375 34.65625 -12.984375 C 40.957031 -12.984375 45.921875 -13.9375 49.546875 -15.84375 C 53.179688 -17.75 55.21875 -20.28125 55.65625 -23.4375 Z M 55.65625 -23.4375 "/>
</symbol>
</g>
</defs>
  <g id="id0:id0" transform="matrix(1.25,0,0,1.25,0.0,0.0)"><g id="id0:surface1">
<g style="fill:rgb(0%,0%,0%);fill-opacity:1;">
  <use xlink:href="#id0:glyph0-1" x="16" y="138.296875"/>
  <use xlink:href="#id0:glyph0-2" x="37.5625" y="138.296875"/>
</g>
</g>
</g>
  <g id="id1:id1" transform="matrix(1.25,0,0,1.25,153.57421875,73.603515625)"><g id="id1:surface1">
<g style="fill:rgb(0%,0%,0%);fill-opacity:1;">
  <use xlink:href="#id1:glyph0-1" x="0" y="120.84375"/>
</g>
</g>
</g>
  <g id="id2:id2" transform="matrix(1.25,0,0,1.25,286.171875,0.0)"><g id="id2:surface1">
<g style="fill:rgb(0%,0%,0%);fill-opacity:1;">
  <use xlink:href="#id2:glyph0-1" x="16" y="138.296875"/>
  <use xlink:href="#id2:glyph0-2" x="37.5625" y="138.296875"/>
</g>
</g>
</g>
</svg>
