<?xml version="1.0" standalone="no"?>
<!DOCTYPE svg PUBLIC "-//W3C//DTD SVG 1.1//EN"
 "http://www.w3.org/Graphics/SVG/1.1/DTD/svg11.dtd">
<!-- Created with svg_stack (http://github.com/astraw/svg_stack) -->
<svg xmlns="http://www.w3.org/2000/svg" xmlns:sodipodi="http://sodipodi.sourceforge.net/DTD/sodipodi-0.dtd" xmlns:xlink="http://www.w3.org/1999/xlink" version="1.1" width="451.58203125" height="305.29296875">
  <defs><g>
<symbol overflow="visible" id="id0:glyph0-0">
<path style="stroke:none;" d="M 10.34375 0 L 10.34375 -78.546875 L 55.546875 -78.546875 L 55.546875 0 Z M 15.953125 -72.9375 L 15.953125 -5.609375 L 49.9375 -5.609375 L 49.9375 -72.9375 Z M 15.953125 -72.9375 "/>
</symbol>
<symbol overflow="visible" id="id0:glyph0-1">
<path style="stroke:none;" d="M 35.640625 1.09375 C 29.773438 1.09375 24.625 -0.242188 20.1875 -2.921875 C 15.75 -5.597656 12.28125 -9.242188 9.78125 -13.859375 C 7.289062 -18.484375 6.046875 -23.691406 6.046875 -29.484375 C 6.046875 -35.273438 7.289062 -40.476562 9.78125 -45.09375 C 12.28125 -49.71875 15.785156 -53.367188 20.296875 -56.046875 C 24.804688 -58.722656 30.03125 -60.0625 35.96875 -60.0625 C 42.125 -60.0625 47.421875 -58.738281 51.859375 -56.09375 C 56.296875 -53.457031 59.707031 -49.847656 62.09375 -45.265625 C 64.476562 -40.679688 65.671875 -35.421875 65.671875 -29.484375 C 65.671875 -24.128906 64.644531 -19.285156 62.59375 -14.953125 C 60.539062 -10.628906 57.679688 -7.148438 54.015625 -4.515625 L 54.015625 23.875 C 54.015625 30.101562 54.894531 34.90625 56.65625 38.28125 C 58.414062 41.65625 61.164062 43.34375 64.90625 43.34375 C 68.644531 43.34375 71.375 41.65625 73.09375 38.28125 C 74.820312 34.90625 75.6875 30.101562 75.6875 23.875 L 75.6875 -58.953125 L 85.46875 -58.953125 L 85.46875 22.984375 C 85.46875 41.910156 78.578125 51.375 64.796875 51.375 C 51.078125 51.375 44.21875 41.875 44.21875 22.875 L 44.21875 0.109375 C 41.507812 0.765625 38.648438 1.09375 35.640625 1.09375 Z M 35.640625 -6.9375 C 41.941406 -6.9375 46.851562 -8.988281 50.375 -13.09375 C 53.894531 -17.195312 55.65625 -22.585938 55.65625 -29.265625 C 55.65625 -36.078125 53.910156 -41.554688 50.421875 -45.703125 C 46.941406 -49.847656 42.050781 -51.921875 35.75 -51.921875 C 32.882812 -51.921875 30.132812 -51.332031 27.5 -50.15625 C 30.0625 -47.519531 32.1875 -44.476562 33.875 -41.03125 C 35.5625 -37.582031 36.40625 -33.625 36.40625 -29.15625 C 36.40625 -24.894531 35.632812 -21.0625 34.09375 -17.65625 C 32.5625 -14.25 30.507812 -11.222656 27.9375 -8.578125 C 30.4375 -7.484375 33.003906 -6.9375 35.640625 -6.9375 Z M 14.953125 -29.265625 C 14.953125 -26.035156 15.503906 -23.0625 16.609375 -20.34375 C 17.710938 -17.632812 19.21875 -15.289062 21.125 -13.3125 C 25.375 -17.5625 27.5 -22.84375 27.5 -29.15625 C 27.5 -32.15625 26.96875 -35.007812 25.90625 -37.71875 C 24.84375 -40.4375 23.175781 -42.96875 20.90625 -45.3125 C 19.070312 -43.332031 17.617188 -40.96875 16.546875 -38.21875 C 15.484375 -35.46875 14.953125 -32.484375 14.953125 -29.265625 Z M 14.953125 -29.265625 "/>
</symbol>
<symbol overflow="visible" id="id0:glyph0-2">
<path style="stroke:none;" d="M -36.515625 -68.859375 C -40.109375 -68.859375 -43.0625 -69.898438 -45.375 -71.984375 C -47.6875 -74.078125 -48.84375 -76.992188 -48.84375 -80.734375 C -48.84375 -82.710938 -48.507812 -84.4375 -47.84375 -85.90625 C -47.1875 -87.375 -46.304688 -88.585938 -45.203125 -89.546875 C -47.554688 -92.109375 -48.734375 -95.113281 -48.734375 -98.5625 C -48.734375 -102.300781 -47.59375 -105.195312 -45.3125 -107.25 C -43.039062 -109.300781 -40.109375 -110.328125 -36.515625 -110.328125 C -32.046875 -110.328125 -28.601562 -108.785156 -26.1875 -105.703125 L -31.34375 -101.09375 C -32.082031 -101.75 -32.851562 -102.257812 -33.65625 -102.625 C -34.46875 -103 -35.382812 -103.1875 -36.40625 -103.1875 C -37.800781 -103.1875 -38.921875 -102.78125 -39.765625 -101.96875 C -40.609375 -101.164062 -41.03125 -100.03125 -41.03125 -98.5625 C -41.03125 -96.507812 -40.003906 -94.53125 -37.953125 -92.625 C -37.515625 -92.695312 -37.035156 -92.734375 -36.515625 -92.734375 C -34.023438 -92.734375 -31.734375 -92.160156 -29.640625 -91.015625 C -27.554688 -89.878906 -26.035156 -88.25 -25.078125 -86.125 L -31.34375 -82.9375 C -32.300781 -84.695312 -33.914062 -85.578125 -36.1875 -85.578125 C -37.65625 -85.578125 -38.828125 -85.132812 -39.703125 -84.25 C -40.585938 -83.375 -41.03125 -82.203125 -41.03125 -80.734375 C -41.03125 -77.660156 -39.453125 -76.125 -36.296875 -76.125 C -34.023438 -76.125 -32.335938 -76.96875 -31.234375 -78.65625 L -25.078125 -75.453125 C -26.035156 -73.328125 -27.519531 -71.695312 -29.53125 -70.5625 C -31.550781 -69.425781 -33.878906 -68.859375 -36.515625 -68.859375 Z M -36.515625 -68.859375 "/>
</symbol>
</g>
<g>
<symbol overflow="visible" id="id1:glyph0-0">
<path style="stroke:none;" d="M 5.375 -96.6875 L 69.828125 -96.6875 L 69.828125 0 L 5.375 0 Z M 8.0625 -2.6875 L 67.140625 -2.6875 L 67.140625 -94 L 8.0625 -94 Z M 8.0625 -2.6875 "/>
</symbol>
<symbol overflow="visible" id="id1:glyph0-1">
<path style="stroke:none;" d="M 68.15625 -13.75 L 66.28125 -18.640625 L 88.09375 -27.390625 L 6.984375 -27.390625 L 6.984375 -34 L 88.09375 -34 L 66.28125 -42.75 L 68.15625 -47.640625 L 99.09375 -34.265625 L 99.09375 -27.125 Z M 68.15625 -13.75 "/>
</symbol>
</g>
<g>
<symbol overflow="visible" id="id2:glyph0-0">
<path style="stroke:none;" d="M 10.34375 0 L 10.34375 -78.546875 L 55.546875 -78.546875 L 55.546875 0 Z M 15.953125 -72.9375 L 15.953125 -5.609375 L 49.9375 -5.609375 L 49.9375 -72.9375 Z M 15.953125 -72.9375 "/>
</symbol>
<symbol overflow="visible" id="id2:glyph0-1">
<path style="stroke:none;" d="M 35.640625 1.09375 C 29.773438 1.09375 24.625 -0.242188 20.1875 -2.921875 C 15.75 -5.597656 12.28125 -9.242188 9.78125 -13.859375 C 7.289062 -18.484375 6.046875 -23.691406 6.046875 -29.484375 C 6.046875 -35.273438 7.289062 -40.476562 9.78125 -45.09375 C 12.28125 -49.71875 15.785156 -53.367188 20.296875 -56.046875 C 24.804688 -58.722656 30.03125 -60.0625 35.96875 -60.0625 C 42.125 -60.0625 47.421875 -58.738281 51.859375 -56.09375 C 56.296875 -53.457031 59.707031 -49.847656 62.09375 -45.265625 C 64.476562 -40.679688 65.671875 -35.421875 65.671875 -29.484375 C 65.671875 -24.128906 64.644531 -19.285156 62.59375 -14.953125 C 60.539062 -10.628906 57.679688 -7.148438 54.015625 -4.515625 L 54.015625 23.875 C 54.015625 30.101562 54.894531 34.90625 56.65625 38.28125 C 58.414062 41.65625 61.164062 43.34375 64.90625 43.34375 C 68.644531 43.34375 71.375 41.65625 73.09375 38.28125 C 74.820312 34.90625 75.6875 30.101562 75.6875 23.875 L 75.6875 -58.953125 L 85.46875 -58.953125 L 85.46875 22.984375 C 85.46875 41.910156 78.578125 51.375 64.796875 51.375 C 51.078125 51.375 44.21875 41.875 44.21875 22.875 L 44.21875 0.109375 C 41.507812 0.765625 38.648438 1.09375 35.640625 1.09375 Z M 35.640625 -6.9375 C 41.941406 -6.9375 46.851562 -8.988281 50.375 -13.09375 C 53.894531 -17.195312 55.65625 -22.585938 55.65625 -29.265625 C 55.65625 -36.078125 53.910156 -41.554688 50.421875 -45.703125 C 46.941406 -49.847656 42.050781 -51.921875 35.75 -51.921875 C 32.882812 -51.921875 30.132812 -51.332031 27.5 -50.15625 C 30.0625 -47.519531 32.1875 -44.476562 33.875 -41.03125 C 35.5625 -37.582031 36.40625 -33.625 36.40625 -29.15625 C 36.40625 -24.894531 35.632812 -21.0625 34.09375 -17.65625 C 32.5625 -14.25 30.507812 -11.222656 27.9375 -8.578125 C 30.4375 -7.484375 33.003906 -6.9375 35.640625 -6.9375 Z M 14.953125 -29.265625 C 14.953125 -26.035156 15.503906 -23.0625 16.609375 -20.34375 C 17.710938 -17.632812 19.21875 -15.289062 21.125 -13.3125 C 25.375 -17.5625 27.5 -22.84375 27.5 -29.15625 C 27.5 -32.15625 26.96875 -35.007812 25.90625 -37.71875 C 24.84375 -40.4375 23.175781 -42.96875 20.90625 -45.3125 C 19.070312 -43.332031 17.617188 -40.96875 16.546875 -38.21875 C 15.484375 -35.46875 14.953125 -32.484375 14.953125 -29.265625 Z M 14.953125 -29.265625 "/>
</symbol>
<symbol overflow="visible" id="id2:glyph0-2">
<path style="stroke:none;" d="M -36.515625 -68.859375 C -40.109375 -68.859375 -43.0625 -69.898438 -45.375 -71.984375 C -47.6875 -74.078125 -48.84375 -76.992188 -48.84375 -80.734375 C -48.84375 -82.710938 -48.507812 -84.4375 -47.84375 -85.90625 C -47.1875 -87.375 -46.304688 -88.585938 -45.203125 -89.546875 C -47.554688 -92.109375 -48.734375 -95.113281 -48.734375 -98.5625 C -48.734375 -102.300781 -47.59375 -105.195312 -45.3125 -107.25 C -43.039062 -109.300781 -40.109375 -110.328125 -36.515625 -110.328125 C -32.046875 -110.328125 -28.601562 -108.785156 -26.1875 -105.703125 L -31.34375 -101.09375 C -32.082031 -101.75 -32.851562 -102.257812 -33.65625 -102.625 C -34.46875 -103 -35.382812 -103.1875 -36.40625 -103.1875 C -37.800781 -103.1875 -38.921875 -102.78125 -39.765625 -101.96875 C -40.609375 -101.164062 -41.03125 -100.03125 -41.03125 -98.5625 C -41.03125 -96.507812 -40.003906 -94.53125 -37.953125 -92.625 C -37.515625 -92.695312 -37.035156 -92.734375 -36.515625 -92.734375 C -34.023438 -92.734375 -31.734375 -92.160156 -29.640625 -91.015625 C -27.554688 -89.878906 -26.035156 -88.25 -25.078125 -86.125 L -31.34375 -82.9375 C -32.300781 -84.695312 -33.914062 -85.578125 -36.1875 -85.578125 C -37.65625 -85.578125 -38.828125 -85.132812 -39.703125 -84.25 C -40.585938 -83.375 -41.03125 -82.203125 -41.03125 -80.734375 C -41.03125 -77.660156 -39.453125 -76.125 -36.296875 -76.125 C -34.023438 -76.125 -32.335938 -76.96875 -31.234375 -78.65625 L -25.078125 -75.453125 C -26.035156 -73.328125 -27.519531 -71.695312 -29.53125 -70.5625 C -31.550781 -69.425781 -33.878906 -68.859375 -36.515625 -68.859375 Z M -36.515625 -68.859375 "/>
</symbol>
</g>
</defs>
  <g id="id0:id0" transform="matrix(1.25,0,0,1.25,0.0,0.0)"><g id="id0:surface1">
<g style="fill:rgb(0%,0%,0%);fill-opacity:1;">
  <use xlink:href="#id0:glyph0-1" x="16" y="147.640625"/>
  <use xlink:href="#id0:glyph0-2" x="111.59375" y="147.640625"/>
</g>
</g>
</g>
  <g id="id1:id1" transform="matrix(1.25,0,0,1.25,159.4921875,51.943359375)"><g id="id1:surface1">
<g style="fill:rgb(0%,0%,0%);fill-opacity:1;">
  <use xlink:href="#id1:glyph0-1" x="0" y="120.84375"/>
</g>
</g>
</g>
  <g id="id2:id2" transform="matrix(1.25,0,0,1.25,292.08984375,0.0)"><g id="id2:surface1">
<g style="fill:rgb(0%,0%,0%);fill-opacity:1;">
  <use xlink:href="#id2:glyph0-1" x="16" y="147.640625"/>
  <use xlink:href="#id2:glyph0-2" x="88.484375" y="147.640625"/>
</g>
</g>
</g>
</svg>
