<?xml version="1.0" standalone="no"?>
<!DOCTYPE svg PUBLIC "-//W3C//DTD SVG 1.1//EN"
 "http://www.w3.org/Graphics/SVG/1.1/DTD/svg11.dtd">
<!-- Created with svg_stack (http://github.com/astraw/svg_stack) -->
<svg xmlns="http://www.w3.org/2000/svg" xmlns:sodipodi="http://sodipodi.sourceforge.net/DTD/sodipodi-0.dtd" xmlns:xlink="http://www.w3.org/1999/xlink" version="1.1" width="497.5" height="348.61328125">
  <defs><g>
<symbol overflow="visible" id="id0:glyph0-0">
<path style="stroke:none;" d="M 10.34375 0 L 10.34375 -78.546875 L 55.546875 -78.546875 L 55.546875 0 Z M 15.953125 -72.9375 L 15.953125 -5.609375 L 49.9375 -5.609375 L 49.9375 -72.9375 Z M 15.953125 -72.9375 "/>
</symbol>
<symbol overflow="visible" id="id0:glyph0-1">
<path style="stroke:none;" d="M 32.5625 -60.0625 L 34.875 -60.0625 C 39.851562 -60.0625 44.117188 -59.304688 47.671875 -57.796875 C 51.234375 -56.296875 54.15625 -54.335938 56.4375 -51.921875 C 58.5625 -54.335938 61.382812 -56.296875 64.90625 -57.796875 C 68.425781 -59.304688 72.492188 -60.0625 77.109375 -60.0625 L 79.3125 -60.0625 C 84.226562 -60.0625 88.519531 -59.195312 92.1875 -57.46875 C 95.851562 -55.75 98.820312 -53.421875 101.09375 -50.484375 C 103.144531 -47.921875 104.609375 -44.914062 105.484375 -41.46875 C 106.367188 -38.019531 106.8125 -34.023438 106.8125 -29.484375 C 106.8125 -24.929688 106.367188 -20.929688 105.484375 -17.484375 C 104.609375 -14.035156 103.144531 -11.03125 101.09375 -8.46875 C 98.820312 -5.53125 95.8125 -3.203125 92.0625 -1.484375 C 88.320312 0.234375 83.851562 1.09375 78.65625 1.09375 C 76.226562 1.09375 74.132812 0.984375 72.375 0.765625 L 72.375 -12.984375 L 78.203125 -12.984375 C 82.390625 -12.984375 86.09375 -13.492188 89.3125 -14.515625 C 92.539062 -15.546875 95.050781 -17.234375 96.84375 -19.578125 C 98.644531 -21.921875 99.546875 -25.039062 99.546875 -28.9375 L 99.546875 -30.03125 C 99.546875 -33.988281 98.644531 -37.125 96.84375 -39.4375 C 95.050781 -41.75 92.539062 -43.414062 89.3125 -44.4375 C 86.09375 -45.46875 82.390625 -45.984375 78.203125 -45.984375 C 74.835938 -45.984375 71.757812 -45.648438 68.96875 -44.984375 C 66.1875 -44.328125 63.84375 -43.226562 61.9375 -41.6875 C 62.445312 -39.851562 62.8125 -37.925781 63.03125 -35.90625 C 63.25 -33.894531 63.359375 -31.789062 63.359375 -29.59375 C 63.359375 -25.257812 62.914062 -21.273438 62.03125 -17.640625 C 61.15625 -14.015625 59.546875 -10.703125 57.203125 -7.703125 C 55.148438 -5.054688 52.691406 -2.984375 49.828125 -1.484375 C 46.972656 0.015625 43.523438 0.875 39.484375 1.09375 L 39.484375 -12.984375 C 42.710938 -13.273438 45.570312 -13.953125 48.0625 -15.015625 C 50.5625 -16.078125 52.523438 -17.722656 53.953125 -19.953125 C 55.378906 -22.191406 56.09375 -25.1875 56.09375 -28.9375 L 56.09375 -30.03125 C 56.09375 -33.988281 55.191406 -37.125 53.390625 -39.4375 C 51.597656 -41.75 49.085938 -43.414062 45.859375 -44.4375 C 42.640625 -45.46875 38.941406 -45.984375 34.765625 -45.984375 C 29.265625 -45.984375 24.804688 -45.117188 21.390625 -43.390625 C 17.984375 -41.671875 16.28125 -38.976562 16.28125 -35.3125 C 16.28125 -33.257812 16.753906 -31.5 17.703125 -30.03125 C 18.660156 -28.5625 19.832031 -27.1875 21.21875 -25.90625 C 22.613281 -24.625 24.007812 -23.300781 25.40625 -21.9375 C 26.800781 -20.582031 27.972656 -19.039062 28.921875 -17.3125 C 29.878906 -15.59375 30.359375 -13.523438 30.359375 -11.109375 C 30.359375 -7.441406 29.144531 -4.488281 26.71875 -2.25 C 24.300781 -0.0195312 21.257812 1.09375 17.59375 1.09375 C 15.101562 1.09375 12.8125 0.507812 10.71875 -0.65625 C 8.632812 -1.832031 7.003906 -3.59375 5.828125 -5.9375 C 4.648438 -8.28125 4.25 -11.210938 4.625 -14.734375 L 9.125 -14.734375 C 9.644531 -13.785156 10.304688 -12.90625 11.109375 -12.09375 C 11.910156 -11.289062 13.046875 -10.890625 14.515625 -10.890625 C 15.910156 -10.890625 17.066406 -11.3125 17.984375 -12.15625 C 18.898438 -13 19.359375 -14.191406 19.359375 -15.734375 C 19.359375 -17.203125 18.914062 -18.554688 18.03125 -19.796875 C 17.15625 -21.046875 16.054688 -22.289062 14.734375 -23.53125 C 13.421875 -24.78125 12.101562 -26.15625 10.78125 -27.65625 C 9.457031 -29.164062 8.351562 -30.925781 7.46875 -32.9375 C 6.59375 -34.957031 6.15625 -37.328125 6.15625 -40.046875 C 6.15625 -45.984375 8.5 -50.800781 13.1875 -54.5 C 17.882812 -58.207031 24.34375 -60.0625 32.5625 -60.0625 Z M 32.5625 -60.0625 "/>
</symbol>
</g>
<g>
<symbol overflow="visible" id="id1:glyph0-0">
<path style="stroke:none;" d="M 5.375 -96.6875 L 69.828125 -96.6875 L 69.828125 0 L 5.375 0 Z M 8.0625 -2.6875 L 67.140625 -2.6875 L 67.140625 -94 L 8.0625 -94 Z M 8.0625 -2.6875 "/>
</symbol>
<symbol overflow="visible" id="id1:glyph0-1">
<path style="stroke:none;" d="M 68.15625 -13.75 L 66.28125 -18.640625 L 88.09375 -27.390625 L 6.984375 -27.390625 L 6.984375 -34 L 88.09375 -34 L 66.28125 -42.75 L 68.15625 -47.640625 L 99.09375 -34.265625 L 99.09375 -27.125 Z M 68.15625 -13.75 "/>
</symbol>
</g>
<g>
<symbol overflow="visible" id="id2:glyph0-0">
<path style="stroke:none;" d="M 10.34375 0 L 10.34375 -78.546875 L 55.546875 -78.546875 L 55.546875 0 Z M 15.953125 -72.9375 L 15.953125 -5.609375 L 49.9375 -5.609375 L 49.9375 -72.9375 Z M 15.953125 -72.9375 "/>
</symbol>
<symbol overflow="visible" id="id2:glyph0-1">
<path style="stroke:none;" d="M 41.6875 -12.984375 C 44.914062 -13.273438 47.773438 -13.953125 50.265625 -15.015625 C 52.765625 -16.078125 54.726562 -17.722656 56.15625 -19.953125 C 57.582031 -22.191406 58.296875 -25.1875 58.296875 -28.9375 L 58.296875 -30.03125 C 58.296875 -33.988281 57.378906 -37.125 55.546875 -39.4375 C 53.710938 -41.75 51.203125 -43.414062 48.015625 -44.4375 C 44.828125 -45.46875 41.101562 -45.984375 36.84375 -45.984375 C 31.269531 -45.984375 26.960938 -45.25 23.921875 -43.78125 C 20.878906 -42.3125 19.359375 -40.148438 19.359375 -37.296875 C 19.359375 -35.234375 19.890625 -33.265625 20.953125 -31.390625 C 22.015625 -29.523438 23.222656 -27.640625 24.578125 -25.734375 C 25.941406 -23.828125 27.15625 -21.738281 28.21875 -19.46875 C 29.28125 -17.195312 29.8125 -14.59375 29.8125 -11.65625 C 29.8125 -7.695312 28.707031 -4.582031 26.5 -2.3125 C 24.300781 -0.0390625 21.1875 1.09375 17.15625 1.09375 C 13.632812 1.09375 10.789062 0.0859375 8.625 -1.921875 C 6.46875 -3.941406 5.390625 -6.53125 5.390625 -9.6875 C 5.390625 -12.90625 6.359375 -15.503906 8.296875 -17.484375 C 10.242188 -19.460938 12.722656 -20.453125 15.734375 -20.453125 C 17.859375 -20.453125 19.726562 -19.941406 21.34375 -18.921875 C 20.53125 -20.535156 19.425781 -22.09375 18.03125 -23.59375 C 16.644531 -25.09375 15.234375 -26.6875 13.796875 -28.375 C 12.367188 -30.0625 11.160156 -31.96875 10.171875 -34.09375 C 9.179688 -36.226562 8.6875 -38.722656 8.6875 -41.578125 C 8.6875 -47.003906 11.015625 -51.441406 15.671875 -54.890625 C 20.328125 -58.335938 26.65625 -60.0625 34.65625 -60.0625 L 37.0625 -60.0625 C 42.488281 -60.0625 47.015625 -59.21875 50.640625 -57.53125 C 54.273438 -55.84375 57.195312 -53.679688 59.40625 -51.046875 C 61.75 -48.253906 63.359375 -45.0625 64.234375 -41.46875 C 65.117188 -37.875 65.5625 -33.914062 65.5625 -29.59375 C 65.5625 -25.257812 65.117188 -21.273438 64.234375 -17.640625 C 63.359375 -14.015625 61.75 -10.703125 59.40625 -7.703125 C 57.34375 -5.054688 54.878906 -2.984375 52.015625 -1.484375 C 49.160156 0.015625 45.71875 0.875 41.6875 1.09375 Z M 57.96875 -51.046875 C 60.019531 -53.679688 62.859375 -55.84375 66.484375 -57.53125 C 70.117188 -59.21875 74.394531 -60.0625 79.3125 -60.0625 L 81.515625 -60.0625 C 86.421875 -60.0625 90.707031 -59.195312 94.375 -57.46875 C 98.039062 -55.75 101.015625 -53.421875 103.296875 -50.484375 C 105.347656 -47.921875 106.8125 -44.914062 107.6875 -41.46875 C 108.570312 -38.019531 109.015625 -34.023438 109.015625 -29.484375 C 109.015625 -24.929688 108.570312 -20.929688 107.6875 -17.484375 C 106.8125 -14.035156 105.347656 -11.03125 103.296875 -8.46875 C 101.015625 -5.53125 98.003906 -3.203125 94.265625 -1.484375 C 90.523438 0.234375 86.050781 1.09375 80.84375 1.09375 C 78.425781 1.09375 76.335938 0.984375 74.578125 0.765625 L 74.578125 -12.984375 L 80.40625 -12.984375 C 84.582031 -12.984375 88.285156 -13.492188 91.515625 -14.515625 C 94.742188 -15.546875 97.253906 -17.234375 99.046875 -19.578125 C 100.847656 -21.921875 101.75 -25.039062 101.75 -28.9375 L 101.75 -30.03125 C 101.75 -33.988281 100.847656 -37.125 99.046875 -39.4375 C 97.253906 -41.75 94.742188 -43.414062 91.515625 -44.4375 C 88.285156 -45.46875 84.582031 -45.984375 80.40625 -45.984375 C 76.738281 -45.984375 73.4375 -45.597656 70.5 -44.828125 C 67.570312 -44.054688 65.15625 -42.753906 63.25 -40.921875 Z M 57.96875 -51.046875 "/>
</symbol>
</g>
</defs>
  <g id="id0:id0" transform="matrix(1.25,0,0,1.25,0.0,0.0)"><g id="id0:surface1">
<g style="fill:rgb(0%,0%,0%);fill-opacity:1;">
  <use xlink:href="#id0:glyph0-1" x="16" y="138.296875"/>
</g>
</g>
</g>
  <g id="id1:id1" transform="matrix(1.25,0,0,1.25,181.07421875,73.603515625)"><g id="id1:surface1">
<g style="fill:rgb(0%,0%,0%);fill-opacity:1;">
  <use xlink:href="#id1:glyph0-1" x="0" y="120.84375"/>
</g>
</g>
</g>
  <g id="id2:id2" transform="matrix(1.25,0,0,1.25,313.671875,0.0)"><g id="id2:surface1">
<g style="fill:rgb(0%,0%,0%);fill-opacity:1;">
  <use xlink:href="#id2:glyph0-1" x="16" y="138.296875"/>
</g>
</g>
</g>
</svg>
