<!DOCTYPE svg PUBLIC "-//W3C//DTD SVG 1.1//EN" "http://www.w3.org/Graphics/SVG/1.1/DTD/svg11.dtd">
<!-- Created with svg_stack (http://github.com/astraw/svg_stack) --><svg xmlns="http://www.w3.org/2000/svg" xmlns:sodipodi="http://sodipodi.sourceforge.net/DTD/sodipodi-0.dtd" xmlns:xlink="http://www.w3.org/1999/xlink" version="1.1" width="478.046875" height="207.7734375" id="myanmar-dotted">
  <defs><g>
<symbol overflow="visible" id="myanmar-dotted:id0:glyph0-0">
<path style="stroke:none;" d="M 56.390625 -49.515625 L 56.390625 0.328125 L 5.90625 0.328125 L 5.90625 -49.515625 Z M 11.5 -44.046875 L 11.5 -5.265625 L 51.03125 -5.265625 L 51.03125 -44.046875 Z M 11.5 -44.046875 "/>
</symbol>
<symbol overflow="visible" id="myanmar-dotted:id0:glyph0-1">
<path style="stroke:none;" d="M 92.8125 -41.9375 C 97.820312 -36.894531 100.328125 -30.863281 100.328125 -23.84375 C 100.328125 -16.832031 97.820312 -10.78125 92.8125 -5.6875 C 87.800781 -0.601562 81.820312 1.9375 74.875 1.9375 C 71.863281 1.9375 69.359375 1.4375 67.359375 0.4375 L 70.359375 -6.65625 C 71.578125 -6.082031 73.082031 -5.796875 74.875 -5.796875 C 79.738281 -5.796875 83.90625 -7.566406 87.375 -11.109375 C 90.851562 -14.660156 92.59375 -18.90625 92.59375 -23.84375 C 92.59375 -28.789062 90.851562 -33.035156 87.375 -36.578125 C 83.90625 -40.117188 79.738281 -41.890625 74.875 -41.890625 C 70.363281 -41.890625 66.191406 -39.707031 62.359375 -35.34375 C 58.523438 -30.976562 56.609375 -26.503906 56.609375 -21.921875 C 56.609375 -11.535156 53.207031 -3.65625 46.40625 1.71875 L 41.890625 -4.734375 C 46.546875 -8.804688 48.875 -14.28125 48.875 -21.15625 C 48.875 -27.320312 47.132812 -32.316406 43.65625 -36.140625 C 40.1875 -39.972656 35.910156 -41.890625 30.828125 -41.890625 C 25.597656 -41.890625 21.425781 -40.421875 18.3125 -37.484375 C 15.195312 -34.554688 13.640625 -31.976562 13.640625 -29.75 C 13.640625 -28.175781 14.140625 -26.796875 15.140625 -25.609375 C 16.148438 -24.429688 17.351562 -23.429688 18.75 -22.609375 C 20.144531 -21.785156 21.554688 -20.925781 22.984375 -20.03125 C 24.421875 -19.132812 25.640625 -17.878906 26.640625 -16.265625 C 27.640625 -14.660156 28.140625 -12.75 28.140625 -10.53125 C 28.140625 -6.800781 26.957031 -3.84375 24.59375 -1.65625 C 22.238281 0.519531 19.34375 1.609375 15.90625 1.609375 C 13.894531 1.609375 11.847656 1 9.765625 -0.21875 C 7.691406 -1.4375 6.40625 -2.832031 5.90625 -4.40625 L 12.03125 -8.0625 C 12.894531 -6.414062 14.21875 -5.59375 16 -5.59375 C 17.363281 -5.59375 18.492188 -6.019531 19.390625 -6.875 C 20.285156 -7.738281 20.734375 -8.957031 20.734375 -10.53125 C 20.734375 -11.75 20.226562 -12.804688 19.21875 -13.703125 C 18.21875 -14.597656 16.984375 -15.398438 15.515625 -16.109375 C 14.054688 -16.828125 12.59375 -17.671875 11.125 -18.640625 C 9.65625 -19.609375 8.414062 -21.039062 7.40625 -22.9375 C 6.40625 -24.832031 5.90625 -27.101562 5.90625 -29.75 C 5.90625 -34.550781 8.269531 -39.0625 13 -43.28125 C 17.726562 -47.507812 23.671875 -49.625 30.828125 -49.625 C 35.628906 -49.625 40.015625 -48.367188 43.984375 -45.859375 C 47.960938 -43.359375 51.023438 -39.925781 53.171875 -35.5625 C 55.460938 -39.707031 58.523438 -43.066406 62.359375 -45.640625 C 66.191406 -48.222656 70.363281 -49.515625 74.875 -49.515625 C 81.820312 -49.515625 87.800781 -46.988281 92.8125 -41.9375 Z M 92.8125 -41.9375 "/>
</symbol>
</g>
<g>
<symbol overflow="visible" id="myanmar-dotted:id1:glyph0-0">
<path style="stroke:none;" d="M 5.375 -96.6875 L 69.828125 -96.6875 L 69.828125 0 L 5.375 0 Z M 8.0625 -2.6875 L 67.140625 -2.6875 L 67.140625 -94 L 8.0625 -94 Z M 8.0625 -2.6875 "/>
</symbol>
<symbol overflow="visible" id="myanmar-dotted:id1:glyph0-1">
<path style="stroke:none;" d="M 68.15625 -13.75 L 66.28125 -18.640625 L 88.09375 -27.390625 L 6.984375 -27.390625 L 6.984375 -34 L 88.09375 -34 L 66.28125 -42.75 L 68.15625 -47.640625 L 99.09375 -34.265625 L 99.09375 -27.125 Z M 68.15625 -13.75 "/>
</symbol>
</g>
<g>
<symbol overflow="visible" id="myanmar-dotted:id2:glyph0-0">
<path style="stroke:none;" d="M 56.390625 -49.515625 L 56.390625 0.328125 L 5.90625 0.328125 L 5.90625 -49.515625 Z M 11.5 -44.046875 L 11.5 -5.265625 L 51.03125 -5.265625 L 51.03125 -44.046875 Z M 11.5 -44.046875 "/>
</symbol>
<symbol overflow="visible" id="myanmar-dotted:id2:glyph0-1">
<path style="stroke:none;" d="M 100.21875 -23.84375 C 100.21875 -16.757812 97.726562 -10.691406 92.75 -5.640625 C 87.78125 -0.585938 81.785156 1.9375 74.765625 1.9375 C 72.117188 1.9375 69.613281 1.4375 67.25 0.4375 L 70.25 -6.65625 C 71.613281 -6.082031 73.117188 -5.796875 74.765625 -5.796875 C 79.703125 -5.796875 83.890625 -7.566406 87.328125 -11.109375 C 90.765625 -14.660156 92.484375 -18.90625 92.484375 -23.84375 C 92.484375 -28.789062 90.765625 -33.035156 87.328125 -36.578125 C 83.890625 -40.117188 79.703125 -41.890625 74.765625 -41.890625 C 70.398438 -41.890625 66.460938 -39.921875 62.953125 -35.984375 C 59.441406 -32.046875 57.4375 -27.785156 56.9375 -23.203125 C 56.9375 -23.054688 56.953125 -22.769531 56.984375 -22.34375 C 57.023438 -21.914062 57.046875 -21.628906 57.046875 -21.484375 C 56.828125 -11.097656 53.425781 -3.289062 46.84375 1.9375 L 42.328125 -4.515625 C 46.984375 -9.023438 49.3125 -14.789062 49.3125 -21.8125 C 49.3125 -27.820312 47.484375 -32.632812 43.828125 -36.25 C 40.171875 -39.875 35.984375 -41.6875 31.265625 -41.6875 C 26.679688 -41.6875 22.796875 -40.410156 19.609375 -37.859375 C 16.421875 -35.316406 14.828125 -33.082031 14.828125 -31.15625 C 14.828125 -30.082031 15.078125 -29.3125 15.578125 -28.84375 C 16.078125 -28.375 17.257812 -28 19.125 -27.71875 C 22.34375 -27.144531 24.988281 -25.53125 27.0625 -22.875 C 29.144531 -20.226562 30.1875 -17.078125 30.1875 -13.421875 C 30.1875 -8.910156 28.628906 -5.222656 25.515625 -2.359375 C 22.398438 0.503906 18.976562 1.9375 15.25 1.9375 C 12.820312 1.9375 10.675781 1.128906 8.8125 -0.484375 C 6.945312 -2.097656 6.015625 -4.15625 6.015625 -6.65625 C 6.015625 -8.945312 6.816406 -10.929688 8.421875 -12.609375 C 10.035156 -14.296875 11.988281 -15.140625 14.28125 -15.140625 C 15.570312 -15.140625 16.914062 -14.742188 18.3125 -13.953125 C 19.707031 -13.171875 20.765625 -12.03125 21.484375 -10.53125 C 22.410156 -11.175781 22.875 -12.285156 22.875 -13.859375 C 22.875 -15.503906 22.316406 -17.203125 21.203125 -18.953125 C 20.097656 -20.710938 18.398438 -21.804688 16.109375 -22.234375 C 12.890625 -23.023438 10.5625 -24.046875 9.125 -25.296875 C 7.695312 -26.546875 6.984375 -28.5 6.984375 -31.15625 C 6.984375 -35.445312 9.253906 -39.5625 13.796875 -43.5 C 18.347656 -47.445312 24.171875 -49.421875 31.265625 -49.421875 C 35.984375 -49.421875 40.3125 -48.21875 44.25 -45.8125 C 48.195312 -43.414062 51.242188 -40.066406 53.390625 -35.765625 C 56.035156 -39.992188 59.21875 -43.34375 62.9375 -45.8125 C 66.664062 -48.28125 70.609375 -49.515625 74.765625 -49.515625 C 81.710938 -49.515625 87.691406 -46.988281 92.703125 -41.9375 C 97.710938 -36.894531 100.21875 -30.863281 100.21875 -23.84375 Z M 100.21875 -23.84375 "/>
</symbol>
<symbol overflow="visible" id="myanmar-dotted:id2:glyph0-2">
<path style="stroke:none;" d=""/>
</symbol>
</g>
</defs>
  <g id="myanmar-dotted:id0:id0" transform="matrix(1.25,0,0,1.25,0.0,0.0)"><g id="myanmar-dotted:id0:surface1">
<g style="fill:rgb(0%,0%,0%);fill-opacity:1;">
  <use xlink:href="#myanmar-dotted:id0:glyph0-1" x="16" y="110.5" class="c0"/>
</g>
</g>
</g>
  <g id="myanmar-dotted:id1:id1" transform="matrix(1.25,0,0,1.25,172.79296875,3.18359375)"><g id="myanmar-dotted:id1:surface1">
<g style="fill:rgb(0%,0%,0%);fill-opacity:1;">
  <use xlink:href="#myanmar-dotted:id1:glyph0-1" x="0" y="120.84375" class="arrow"/>
</g>
</g>
</g>
  <g id="myanmar-dotted:id2:id2" transform="matrix(1.25,0,0,1.25,305.390625,0.0)"><g id="myanmar-dotted:id2:surface1">
<g style="fill:rgb(0%,0%,0%);fill-opacity:1;">
  <use xlink:href="#myanmar-dotted:id2:glyph0-1" x="16" y="110.5" class="c0"/>
  <use xlink:href="#myanmar-dotted:id2:glyph0-2" x="122.125" y="110.5" class="c1"/>
</g>
</g>
</g>
</svg>
