<?xml version="1.0" standalone="no"?>
<!DOCTYPE svg PUBLIC "-//W3C//DTD SVG 1.1//EN"
 "http://www.w3.org/Graphics/SVG/1.1/DTD/svg11.dtd">
<!-- Created with svg_stack (http://github.com/astraw/svg_stack) -->
<svg xmlns="http://www.w3.org/2000/svg" xmlns:sodipodi="http://sodipodi.sourceforge.net/DTD/sodipodi-0.dtd" xmlns:xlink="http://www.w3.org/1999/xlink" version="1.1" width="710.1953125" height="305.29296875">
  <defs><g>
<symbol overflow="visible" id="id0:glyph0-0">
<path style="stroke:none;" d="M 10.34375 0 L 10.34375 -78.546875 L 55.546875 -78.546875 L 55.546875 0 Z M 15.953125 -72.9375 L 15.953125 -5.609375 L 49.9375 -5.609375 L 49.9375 -72.9375 Z M 15.953125 -72.9375 "/>
</symbol>
<symbol overflow="visible" id="id0:glyph0-1">
<path style="stroke:none;" d="M 68.96875 1.09375 C 63.613281 1.09375 59.414062 -0.1875 56.375 -2.75 C 53.332031 -5.3125 51.8125 -8.832031 51.8125 -13.3125 C 51.8125 -15.289062 51.992188 -17.050781 52.359375 -18.59375 C 52.722656 -20.132812 53.085938 -21.691406 53.453125 -23.265625 C 53.828125 -24.835938 54.015625 -26.726562 54.015625 -28.9375 C 54.015625 -36.113281 52.289062 -41.753906 48.84375 -45.859375 C 45.394531 -49.972656 40.847656 -52.03125 35.203125 -52.03125 C 29.554688 -52.03125 24.953125 -49.972656 21.390625 -45.859375 C 17.835938 -41.753906 16.0625 -36.222656 16.0625 -29.265625 C 16.0625 -24.785156 16.90625 -20.878906 18.59375 -17.546875 C 20.28125 -14.210938 22.585938 -11.628906 25.515625 -9.796875 C 28.453125 -7.960938 31.789062 -7.046875 35.53125 -7.046875 C 36.632812 -7.046875 37.679688 -7.082031 38.671875 -7.15625 C 39.660156 -7.226562 40.628906 -7.410156 41.578125 -7.703125 L 43.890625 0 C 42.421875 0.4375 40.9375 0.726562 39.4375 0.875 C 37.9375 1.019531 36.15625 1.09375 34.09375 1.09375 C 28.820312 1.09375 24.078125 -0.222656 19.859375 -2.859375 C 15.640625 -5.492188 12.28125 -9.125 9.78125 -13.75 C 7.289062 -18.375 6.046875 -23.65625 6.046875 -29.59375 C 6.046875 -35.457031 7.253906 -40.679688 9.671875 -45.265625 C 12.097656 -49.847656 15.492188 -53.457031 19.859375 -56.09375 C 24.222656 -58.738281 29.375 -60.0625 35.3125 -60.0625 C 39.34375 -60.0625 42.988281 -59.457031 46.25 -58.25 C 49.519531 -57.039062 52.363281 -55.367188 54.78125 -53.234375 C 56.6875 -55.210938 58.703125 -56.84375 60.828125 -58.125 C 62.953125 -59.414062 65.703125 -60.0625 69.078125 -60.0625 C 72.378906 -60.0625 75.164062 -59.378906 77.4375 -58.015625 C 79.707031 -56.660156 81.6875 -55.03125 83.375 -53.125 C 85.726562 -55.332031 88.535156 -57.039062 91.796875 -58.25 C 95.054688 -59.457031 98.703125 -60.0625 102.734375 -60.0625 C 108.753906 -60.0625 113.941406 -58.722656 118.296875 -56.046875 C 122.660156 -53.367188 126.035156 -49.738281 128.421875 -45.15625 C 130.804688 -40.570312 132 -35.382812 132 -29.59375 C 132 -23.726562 130.769531 -18.484375 128.3125 -13.859375 C 125.851562 -9.242188 122.5 -5.597656 118.25 -2.921875 C 114 -0.242188 109.234375 1.09375 103.953125 1.09375 C 101.828125 1.09375 100.007812 1.019531 98.5 0.875 C 97 0.726562 95.515625 0.4375 94.046875 0 L 96.25 -7.703125 C 97.28125 -7.410156 98.289062 -7.226562 99.28125 -7.15625 C 100.269531 -7.082031 101.3125 -7.046875 102.40625 -7.046875 C 106.144531 -7.046875 109.476562 -7.941406 112.40625 -9.734375 C 115.34375 -11.535156 117.65625 -14.082031 119.34375 -17.375 C 121.03125 -20.675781 121.875 -24.640625 121.875 -29.265625 C 121.875 -36.148438 120.171875 -41.664062 116.765625 -45.8125 C 113.359375 -49.957031 108.832031 -52.03125 103.1875 -52.03125 C 97.382812 -52.03125 92.742188 -49.972656 89.265625 -45.859375 C 85.785156 -41.753906 84.046875 -36.113281 84.046875 -28.9375 C 84.046875 -26.726562 84.226562 -24.835938 84.59375 -23.265625 C 84.957031 -21.691406 85.320312 -20.132812 85.6875 -18.59375 C 86.050781 -17.050781 86.234375 -15.289062 86.234375 -13.3125 C 86.234375 -8.46875 84.640625 -4.851562 81.453125 -2.46875 C 78.265625 -0.09375 74.101562 1.09375 68.96875 1.09375 Z M 61.8125 -14.1875 C 61.8125 -12.28125 62.414062 -10.628906 63.625 -9.234375 C 64.84375 -7.847656 66.660156 -7.15625 69.078125 -7.15625 C 71.421875 -7.15625 73.195312 -7.847656 74.40625 -9.234375 C 75.625 -10.628906 76.234375 -12.28125 76.234375 -14.1875 C 76.234375 -16.3125 76.046875 -18.050781 75.671875 -19.40625 C 75.304688 -20.769531 74.941406 -22.21875 74.578125 -23.75 C 74.210938 -25.289062 74.03125 -27.421875 74.03125 -30.140625 C 74.03125 -36.515625 75.457031 -42.160156 78.3125 -47.078125 C 76.925781 -48.546875 75.535156 -49.738281 74.140625 -50.65625 C 72.742188 -51.570312 71.09375 -52.03125 69.1875 -52.03125 C 66.84375 -52.03125 64.972656 -51.535156 63.578125 -50.546875 C 62.179688 -49.554688 60.898438 -48.398438 59.734375 -47.078125 C 62.660156 -42.234375 64.125 -36.625 64.125 -30.25 C 64.125 -28.050781 64.015625 -26.289062 63.796875 -24.96875 C 63.578125 -23.644531 63.300781 -22.488281 62.96875 -21.5 C 62.644531 -20.507812 62.367188 -19.460938 62.140625 -18.359375 C 61.921875 -17.265625 61.8125 -15.875 61.8125 -14.1875 Z M 61.8125 -14.1875 "/>
</symbol>
<symbol overflow="visible" id="id0:glyph0-2">
<path style="stroke:none;" d="M -38.828125 45.765625 L -38.828125 32.015625 L -52.578125 32.015625 L -52.578125 24.53125 L -38.828125 24.53125 L -38.828125 10.78125 L -30.6875 10.78125 L -30.6875 24.53125 L -16.9375 24.53125 L -16.9375 32.015625 L -30.6875 32.015625 L -30.6875 45.765625 Z M -38.828125 45.765625 "/>
</symbol>
<symbol overflow="visible" id="id0:glyph0-3">
<path style="stroke:none;" d="M 36.625 1.09375 C 33.550781 1.09375 30.582031 0.617188 27.71875 -0.328125 C 24.863281 -1.285156 22.222656 -2.609375 19.796875 -4.296875 L 19.796875 29.59375 C 19.796875 33.988281 20.785156 37.378906 22.765625 39.765625 C 24.742188 42.148438 27.863281 43.34375 32.125 43.34375 L 93.609375 43.34375 C 97.929688 43.34375 101.066406 42.148438 103.015625 39.765625 C 104.960938 37.378906 105.9375 33.988281 105.9375 29.59375 L 105.9375 27.828125 L 115.71875 27.828125 L 115.71875 28.15625 C 115.71875 43.632812 108.203125 51.375 93.171875 51.375 L 32.5625 51.375 C 17.53125 51.375 10.015625 43.523438 10.015625 27.828125 L 10.015625 -16.828125 L 17.703125 -20.796875 C 19.609375 -16.242188 22.300781 -12.8125 25.78125 -10.5 C 29.269531 -8.195312 32.957031 -7.046875 36.84375 -7.046875 C 40.8125 -7.046875 44.257812 -8.015625 47.1875 -9.953125 C 50.125 -11.898438 52.398438 -14.59375 54.015625 -18.03125 C 55.628906 -21.476562 56.4375 -25.367188 56.4375 -29.703125 C 56.4375 -36.296875 54.726562 -41.644531 51.3125 -45.75 C 47.90625 -49.863281 43.082031 -51.921875 36.84375 -51.921875 C 32.957031 -51.921875 29.269531 -50.765625 25.78125 -48.453125 C 22.300781 -46.140625 19.609375 -42.710938 17.703125 -38.171875 L 10.015625 -42.125 C 11.328125 -45.71875 13.320312 -48.851562 16 -51.53125 C 18.675781 -54.207031 21.8125 -56.296875 25.40625 -57.796875 C 29 -59.304688 32.738281 -60.0625 36.625 -60.0625 C 42.863281 -60.0625 48.203125 -58.722656 52.640625 -56.046875 C 57.078125 -53.367188 60.484375 -49.738281 62.859375 -45.15625 C 65.242188 -40.570312 66.4375 -35.382812 66.4375 -29.59375 C 66.4375 -26.65625 66.144531 -23.867188 65.5625 -21.234375 C 67.832031 -16.535156 70.617188 -12.992188 73.921875 -10.609375 C 77.222656 -8.234375 81.328125 -7.046875 86.234375 -7.046875 C 92.328125 -7.046875 97.132812 -9.132812 100.65625 -13.3125 C 104.175781 -17.488281 105.9375 -22.953125 105.9375 -29.703125 C 105.9375 -36.523438 104.15625 -41.929688 100.59375 -45.921875 C 97.039062 -49.921875 92.328125 -51.921875 86.453125 -51.921875 C 82.492188 -51.921875 79.125 -51.257812 76.34375 -49.9375 L 72.8125 -57.203125 C 74.875 -58.222656 77.09375 -58.953125 79.46875 -59.390625 C 81.851562 -59.835938 84.695312 -60.0625 88 -60.0625 C 93.425781 -60.0625 98.25 -58.8125 102.46875 -56.3125 C 106.6875 -53.820312 109.984375 -50.285156 112.359375 -45.703125 C 114.742188 -41.117188 115.9375 -35.710938 115.9375 -29.484375 C 115.9375 -23.617188 114.6875 -18.375 112.1875 -13.75 C 109.695312 -9.125 106.234375 -5.492188 101.796875 -2.859375 C 97.367188 -0.222656 92.144531 1.09375 86.125 1.09375 C 81.144531 1.09375 76.523438 0.0507812 72.265625 -2.03125 C 68.015625 -4.125 64.492188 -7.257812 61.703125 -11.4375 C 59.210938 -7.550781 55.859375 -4.488281 51.640625 -2.25 C 47.421875 -0.0195312 42.414062 1.09375 36.625 1.09375 Z M 36.625 1.09375 "/>
</symbol>
</g>
<g>
<symbol overflow="visible" id="id1:glyph0-0">
<path style="stroke:none;" d="M 5.375 -96.6875 L 69.828125 -96.6875 L 69.828125 0 L 5.375 0 Z M 8.0625 -2.6875 L 67.140625 -2.6875 L 67.140625 -94 L 8.0625 -94 Z M 8.0625 -2.6875 "/>
</symbol>
<symbol overflow="visible" id="id1:glyph0-1">
<path style="stroke:none;" d="M 68.15625 -13.75 L 66.28125 -18.640625 L 88.09375 -27.390625 L 6.984375 -27.390625 L 6.984375 -34 L 88.09375 -34 L 66.28125 -42.75 L 68.15625 -47.640625 L 99.09375 -34.265625 L 99.09375 -27.125 Z M 68.15625 -13.75 "/>
</symbol>
</g>
<g>
<symbol overflow="visible" id="id2:glyph0-0">
<path style="stroke:none;" d="M 10.34375 0 L 10.34375 -78.546875 L 55.546875 -78.546875 L 55.546875 0 Z M 15.953125 -72.9375 L 15.953125 -5.609375 L 49.9375 -5.609375 L 49.9375 -72.9375 Z M 15.953125 -72.9375 "/>
</symbol>
<symbol overflow="visible" id="id2:glyph0-1">
<path style="stroke:none;" d="M 68.96875 1.09375 C 63.613281 1.09375 59.414062 -0.1875 56.375 -2.75 C 53.332031 -5.3125 51.8125 -8.832031 51.8125 -13.3125 C 51.8125 -15.289062 51.992188 -17.050781 52.359375 -18.59375 C 52.722656 -20.132812 53.085938 -21.691406 53.453125 -23.265625 C 53.828125 -24.835938 54.015625 -26.726562 54.015625 -28.9375 C 54.015625 -36.113281 52.289062 -41.753906 48.84375 -45.859375 C 45.394531 -49.972656 40.847656 -52.03125 35.203125 -52.03125 C 29.554688 -52.03125 24.953125 -49.972656 21.390625 -45.859375 C 17.835938 -41.753906 16.0625 -36.222656 16.0625 -29.265625 C 16.0625 -24.785156 16.90625 -20.878906 18.59375 -17.546875 C 20.28125 -14.210938 22.585938 -11.628906 25.515625 -9.796875 C 28.453125 -7.960938 31.789062 -7.046875 35.53125 -7.046875 C 36.632812 -7.046875 37.679688 -7.082031 38.671875 -7.15625 C 39.660156 -7.226562 40.628906 -7.410156 41.578125 -7.703125 L 43.890625 0 C 42.421875 0.4375 40.9375 0.726562 39.4375 0.875 C 37.9375 1.019531 36.15625 1.09375 34.09375 1.09375 C 28.820312 1.09375 24.078125 -0.222656 19.859375 -2.859375 C 15.640625 -5.492188 12.28125 -9.125 9.78125 -13.75 C 7.289062 -18.375 6.046875 -23.65625 6.046875 -29.59375 C 6.046875 -35.457031 7.253906 -40.679688 9.671875 -45.265625 C 12.097656 -49.847656 15.492188 -53.457031 19.859375 -56.09375 C 24.222656 -58.738281 29.375 -60.0625 35.3125 -60.0625 C 39.34375 -60.0625 42.988281 -59.457031 46.25 -58.25 C 49.519531 -57.039062 52.363281 -55.367188 54.78125 -53.234375 C 56.6875 -55.210938 58.703125 -56.84375 60.828125 -58.125 C 62.953125 -59.414062 65.703125 -60.0625 69.078125 -60.0625 C 72.378906 -60.0625 75.164062 -59.378906 77.4375 -58.015625 C 79.707031 -56.660156 81.6875 -55.03125 83.375 -53.125 C 85.726562 -55.332031 88.535156 -57.039062 91.796875 -58.25 C 95.054688 -59.457031 98.703125 -60.0625 102.734375 -60.0625 C 108.753906 -60.0625 113.941406 -58.722656 118.296875 -56.046875 C 122.660156 -53.367188 126.035156 -49.738281 128.421875 -45.15625 C 130.804688 -40.570312 132 -35.382812 132 -29.59375 C 132 -23.726562 130.769531 -18.484375 128.3125 -13.859375 C 125.851562 -9.242188 122.5 -5.597656 118.25 -2.921875 C 114 -0.242188 109.234375 1.09375 103.953125 1.09375 C 101.828125 1.09375 100.007812 1.019531 98.5 0.875 C 97 0.726562 95.515625 0.4375 94.046875 0 L 96.25 -7.703125 C 97.28125 -7.410156 98.289062 -7.226562 99.28125 -7.15625 C 100.269531 -7.082031 101.3125 -7.046875 102.40625 -7.046875 C 106.144531 -7.046875 109.476562 -7.941406 112.40625 -9.734375 C 115.34375 -11.535156 117.65625 -14.082031 119.34375 -17.375 C 121.03125 -20.675781 121.875 -24.640625 121.875 -29.265625 C 121.875 -36.148438 120.171875 -41.664062 116.765625 -45.8125 C 113.359375 -49.957031 108.832031 -52.03125 103.1875 -52.03125 C 97.382812 -52.03125 92.742188 -49.972656 89.265625 -45.859375 C 85.785156 -41.753906 84.046875 -36.113281 84.046875 -28.9375 C 84.046875 -26.726562 84.226562 -24.835938 84.59375 -23.265625 C 84.957031 -21.691406 85.320312 -20.132812 85.6875 -18.59375 C 86.050781 -17.050781 86.234375 -15.289062 86.234375 -13.3125 C 86.234375 -8.46875 84.640625 -4.851562 81.453125 -2.46875 C 78.265625 -0.09375 74.101562 1.09375 68.96875 1.09375 Z M 61.8125 -14.1875 C 61.8125 -12.28125 62.414062 -10.628906 63.625 -9.234375 C 64.84375 -7.847656 66.660156 -7.15625 69.078125 -7.15625 C 71.421875 -7.15625 73.195312 -7.847656 74.40625 -9.234375 C 75.625 -10.628906 76.234375 -12.28125 76.234375 -14.1875 C 76.234375 -16.3125 76.046875 -18.050781 75.671875 -19.40625 C 75.304688 -20.769531 74.941406 -22.21875 74.578125 -23.75 C 74.210938 -25.289062 74.03125 -27.421875 74.03125 -30.140625 C 74.03125 -36.515625 75.457031 -42.160156 78.3125 -47.078125 C 76.925781 -48.546875 75.535156 -49.738281 74.140625 -50.65625 C 72.742188 -51.570312 71.09375 -52.03125 69.1875 -52.03125 C 66.84375 -52.03125 64.972656 -51.535156 63.578125 -50.546875 C 62.179688 -49.554688 60.898438 -48.398438 59.734375 -47.078125 C 62.660156 -42.234375 64.125 -36.625 64.125 -30.25 C 64.125 -28.050781 64.015625 -26.289062 63.796875 -24.96875 C 63.578125 -23.644531 63.300781 -22.488281 62.96875 -21.5 C 62.644531 -20.507812 62.367188 -19.460938 62.140625 -18.359375 C 61.921875 -17.265625 61.8125 -15.875 61.8125 -14.1875 Z M 61.8125 -14.1875 "/>
</symbol>
<symbol overflow="visible" id="id2:glyph0-2">
<path style="stroke:none;" d="M -17.265625 33.984375 C -24.742188 33.984375 -30.648438 31.929688 -34.984375 27.828125 C -36.960938 29.660156 -39.5625 31.144531 -42.78125 32.28125 C -46.007812 33.414062 -49.71875 33.984375 -53.90625 33.984375 C -56.175781 33.984375 -58.265625 33.78125 -60.171875 33.375 C -62.078125 32.976562 -63.835938 32.414062 -65.453125 31.6875 L -65.453125 37.40625 C -65.453125 41.4375 -62.703125 43.453125 -57.203125 43.453125 L -12.09375 43.453125 C -6.59375 43.453125 -3.84375 41.582031 -3.84375 37.84375 L -3.84375 37.0625 L 5.0625 37.0625 L 5.0625 38.28125 C 5.0625 47.15625 -0.582031 51.59375 -11.875 51.59375 L -57.421875 51.59375 C -63.722656 51.59375 -68.117188 50.546875 -70.609375 48.453125 C -73.109375 46.359375 -74.359375 42.894531 -74.359375 38.0625 L -74.359375 24.640625 L -67.09375 22.4375 C -65.851562 23.832031 -64.054688 24.84375 -61.703125 25.46875 C -59.359375 26.09375 -56.644531 26.40625 -53.5625 26.40625 C -49.164062 26.40625 -45.773438 25.78125 -43.390625 24.53125 C -41.003906 23.28125 -39.8125 21.703125 -39.8125 19.796875 C -39.8125 17.742188 -41.09375 16.078125 -43.65625 14.796875 C -46.226562 13.515625 -49.421875 12.875 -53.234375 12.875 C -56.316406 12.875 -59.050781 13.164062 -61.4375 13.75 C -63.820312 14.332031 -65.632812 15.175781 -66.875 16.28125 L -74.359375 14.078125 C -72.890625 11.515625 -70.375 9.425781 -66.8125 7.8125 C -63.257812 6.195312 -58.804688 5.390625 -53.453125 5.390625 C -46.492188 5.390625 -41.015625 6.617188 -37.015625 9.078125 C -33.015625 11.535156 -31.015625 14.851562 -31.015625 19.03125 C -31.015625 19.6875 -31.085938 20.347656 -31.234375 21.015625 C -29.617188 22.628906 -27.566406 23.910156 -25.078125 24.859375 C -22.585938 25.816406 -19.910156 26.296875 -17.046875 26.296875 C -13.085938 26.296875 -9.878906 25.6875 -7.421875 24.46875 C -4.960938 23.257812 -3.734375 21.703125 -3.734375 19.796875 C -3.734375 17.890625 -4.890625 16.296875 -7.203125 15.015625 C -9.515625 13.734375 -12.394531 13.09375 -15.84375 13.09375 C -17.675781 13.09375 -19.195312 13.21875 -20.40625 13.46875 C -21.613281 13.726562 -22.734375 14.078125 -23.765625 14.515625 L -27.171875 7.484375 C -25.628906 6.742188 -23.976562 6.207031 -22.21875 5.875 C -20.457031 5.550781 -18.332031 5.390625 -15.84375 5.390625 C -11.8125 5.390625 -8.21875 5.898438 -5.0625 6.921875 C -1.90625 7.953125 0.585938 9.507812 2.421875 11.59375 C 4.253906 13.6875 5.171875 16.3125 5.171875 19.46875 C 5.171875 21.957031 4.304688 24.300781 2.578125 26.5 C 0.859375 28.707031 -1.648438 30.503906 -4.953125 31.890625 C -8.253906 33.285156 -12.359375 33.984375 -17.265625 33.984375 Z M -17.265625 33.984375 "/>
</symbol>
</g>
</defs>
  <g id="id0:id0" transform="matrix(1.25,0,0,1.25,0.0,0.0)"><g id="id0:surface1">
<g style="fill:rgb(0%,0%,0%);fill-opacity:1;">
  <use xlink:href="#id0:glyph0-1" x="16" y="147.640625"/>
  <use xlink:href="#id0:glyph0-2" x="153.9375" y="150.28125"/>
  <use xlink:href="#id0:glyph0-3" x="154.046875" y="147.640625"/>
</g>
</g>
</g>
  <g id="id1:id1" transform="matrix(1.25,0,0,1.25,365.0390625,51.943359375)"><g id="id1:surface1">
<g style="fill:rgb(0%,0%,0%);fill-opacity:1;">
  <use xlink:href="#id1:glyph0-1" x="0" y="120.84375"/>
</g>
</g>
</g>
  <g id="id2:id2" transform="matrix(1.25,0,0,1.25,497.63671875,0.0)"><g id="id2:surface1">
<g style="fill:rgb(0%,0%,0%);fill-opacity:1;">
  <use xlink:href="#id2:glyph0-1" x="16" y="147.640625"/>
  <use xlink:href="#id2:glyph0-2" x="119.625" y="147.640625"/>
</g>
</g>
</g>
</svg>
