<?xml version="1.0" standalone="no"?>
<!DOCTYPE svg PUBLIC "-//W3C//DTD SVG 1.1//EN"
 "http://www.w3.org/Graphics/SVG/1.1/DTD/svg11.dtd">
<!-- Created with svg_stack (http://github.com/astraw/svg_stack) -->
<svg xmlns="http://www.w3.org/2000/svg" xmlns:sodipodi="http://sodipodi.sourceforge.net/DTD/sodipodi-0.dtd" xmlns:xlink="http://www.w3.org/1999/xlink" version="1.1" width="494.47265625" height="366.11328125">
  <defs><g>
<symbol overflow="visible" id="id0:glyph0-0">
<path style="stroke:none;" d="M 10.34375 0 L 10.34375 -78.546875 L 55.546875 -78.546875 L 55.546875 0 Z M 15.953125 -72.9375 L 15.953125 -5.609375 L 49.9375 -5.609375 L 49.9375 -72.9375 Z M 15.953125 -72.9375 "/>
</symbol>
<symbol overflow="visible" id="id0:glyph0-1">
<path style="stroke:none;" d="M 39.375 1.09375 L 39.375 -12.984375 C 42.601562 -13.273438 45.460938 -13.953125 47.953125 -15.015625 C 50.453125 -16.078125 52.414062 -17.722656 53.84375 -19.953125 C 55.269531 -22.191406 55.984375 -25.1875 55.984375 -28.9375 L 55.984375 -30.03125 C 55.984375 -33.988281 55.082031 -37.125 53.28125 -39.4375 C 51.488281 -41.75 48.976562 -43.414062 45.75 -44.4375 C 42.53125 -45.46875 38.832031 -45.984375 34.65625 -45.984375 C 30.46875 -45.984375 26.78125 -45.46875 23.59375 -44.4375 C 20.40625 -43.414062 17.894531 -41.75 16.0625 -39.4375 C 14.226562 -37.125 13.3125 -33.988281 13.3125 -30.03125 L 13.3125 -28.9375 C 13.3125 -25.1875 14.023438 -22.191406 15.453125 -19.953125 C 16.878906 -17.722656 18.859375 -16.078125 21.390625 -15.015625 C 23.921875 -13.953125 26.765625 -13.273438 29.921875 -12.984375 L 29.921875 1.09375 C 25.890625 0.875 22.441406 0.015625 19.578125 -1.484375 C 16.722656 -2.984375 14.265625 -5.054688 12.203125 -7.703125 C 9.929688 -10.703125 8.335938 -14.015625 7.421875 -17.640625 C 6.503906 -21.273438 6.046875 -25.257812 6.046875 -29.59375 C 6.046875 -33.914062 6.503906 -37.875 7.421875 -41.46875 C 8.335938 -45.0625 9.929688 -48.253906 12.203125 -51.046875 C 14.335938 -53.679688 17.160156 -55.84375 20.671875 -57.53125 C 24.191406 -59.21875 28.484375 -60.0625 33.546875 -60.0625 L 35.75 -60.0625 C 40.519531 -60.0625 44.609375 -59.304688 48.015625 -57.796875 C 51.421875 -56.296875 54.1875 -54.335938 56.3125 -51.921875 C 58.445312 -54.335938 61.269531 -56.296875 64.78125 -57.796875 C 68.300781 -59.304688 72.375 -60.0625 77 -60.0625 L 79.203125 -60.0625 C 84.109375 -60.0625 88.394531 -59.195312 92.0625 -57.46875 C 95.726562 -55.75 98.703125 -53.421875 100.984375 -50.484375 C 103.035156 -47.921875 104.5 -44.914062 105.375 -41.46875 C 106.257812 -38.019531 106.703125 -34.023438 106.703125 -29.484375 C 106.703125 -24.929688 106.257812 -20.929688 105.375 -17.484375 C 104.5 -14.035156 103.035156 -11.03125 100.984375 -8.46875 C 98.703125 -5.53125 95.691406 -3.203125 91.953125 -1.484375 C 88.210938 0.234375 83.742188 1.09375 78.546875 1.09375 C 76.117188 1.09375 74.023438 0.984375 72.265625 0.765625 L 72.265625 -12.984375 L 78.09375 -12.984375 C 82.28125 -12.984375 85.984375 -13.492188 89.203125 -14.515625 C 92.429688 -15.546875 94.941406 -17.234375 96.734375 -19.578125 C 98.535156 -21.921875 99.4375 -25.039062 99.4375 -28.9375 L 99.4375 -30.03125 C 99.4375 -33.988281 98.535156 -37.125 96.734375 -39.4375 C 94.941406 -41.75 92.429688 -43.414062 89.203125 -44.4375 C 85.984375 -45.46875 82.28125 -45.984375 78.09375 -45.984375 C 74.726562 -45.984375 71.648438 -45.648438 68.859375 -44.984375 C 66.078125 -44.328125 63.726562 -43.226562 61.8125 -41.6875 C 62.332031 -39.851562 62.703125 -37.925781 62.921875 -35.90625 C 63.140625 -33.894531 63.25 -31.789062 63.25 -29.59375 C 63.25 -25.257812 62.804688 -21.273438 61.921875 -17.640625 C 61.046875 -14.015625 59.4375 -10.703125 57.09375 -7.703125 C 55.039062 -5.054688 52.582031 -2.984375 49.71875 -1.484375 C 46.863281 0.015625 43.414062 0.875 39.375 1.09375 Z M 39.375 1.09375 "/>
</symbol>
<symbol overflow="visible" id="id0:glyph0-2">
<path style="stroke:none;" d="M -30.46875 6.9375 C -26.945312 7.15625 -23.921875 7.90625 -21.390625 9.1875 C -18.859375 10.46875 -16.675781 12.242188 -14.84375 14.515625 C -12.789062 17.085938 -11.378906 19.929688 -10.609375 23.046875 C -9.835938 26.160156 -9.453125 29.585938 -9.453125 33.328125 C -9.453125 36.992188 -9.835938 40.382812 -10.609375 43.5 C -11.378906 46.625 -12.789062 49.394531 -14.84375 51.8125 C -15.945312 53.132812 -17.195312 54.269531 -18.59375 55.21875 L -18.59375 74.359375 C -18.59375 79.566406 -19.25 83.546875 -20.5625 86.296875 C -21.882812 89.046875 -24.066406 90.914062 -27.109375 91.90625 C -30.160156 92.894531 -34.210938 93.390625 -39.265625 93.390625 C -45.648438 93.390625 -50.675781 92.363281 -54.34375 90.3125 C -58.007812 88.257812 -59.84375 84.484375 -59.84375 78.984375 C -59.84375 74.578125 -58.46875 70.976562 -55.71875 68.1875 C -52.96875 65.40625 -48.988281 64.015625 -43.78125 64.015625 C -38.863281 64.015625 -34.921875 65.148438 -31.953125 67.421875 C -28.984375 69.703125 -27.425781 72.75 -27.28125 76.5625 L -37.84375 76.5625 C -37.988281 74.726562 -38.703125 73.257812 -39.984375 72.15625 C -41.265625 71.0625 -43.335938 70.515625 -46.203125 70.515625 C -48.691406 70.515625 -50.597656 70.988281 -51.921875 71.9375 C -53.242188 72.894531 -53.90625 74.144531 -53.90625 75.6875 C -53.90625 78.539062 -52.582031 80.332031 -49.9375 81.0625 C -47.300781 81.800781 -43.816406 82.171875 -39.484375 82.171875 C -36.117188 82.171875 -33.367188 81.929688 -31.234375 81.453125 C -29.109375 80.972656 -27.550781 79.960938 -26.5625 78.421875 C -25.570312 76.890625 -25.078125 74.582031 -25.078125 71.5 L -25.078125 58.40625 C -27.722656 59.21875 -30.582031 59.625 -33.65625 59.625 L -35.640625 59.625 C -40.109375 59.625 -43.863281 58.890625 -46.90625 57.421875 C -49.957031 55.953125 -52.4375 54.082031 -54.34375 51.8125 C -56.394531 49.394531 -57.820312 46.625 -58.625 43.5 C -59.4375 40.382812 -59.84375 36.992188 -59.84375 33.328125 C -59.84375 29.585938 -59.4375 26.160156 -58.625 23.046875 C -57.820312 19.929688 -56.394531 17.085938 -54.34375 14.515625 C -52.582031 12.242188 -50.4375 10.46875 -47.90625 9.1875 C -45.375 7.90625 -42.347656 7.15625 -38.828125 6.9375 L -38.828125 19.6875 C -42.859375 19.976562 -46.25 21.078125 -49 22.984375 C -51.75 24.890625 -53.125 28.15625 -53.125 32.78125 L -53.125 33.765625 C -53.125 35.890625 -52.773438 37.722656 -52.078125 39.265625 C -51.390625 40.804688 -50.421875 42.09375 -49.171875 43.125 C -49.023438 36.226562 -44.1875 32.78125 -34.65625 32.78125 C -24.96875 32.78125 -20.125 36.226562 -20.125 43.125 C -17.488281 40.914062 -16.171875 37.796875 -16.171875 33.765625 L -16.171875 32.78125 C -16.171875 28.15625 -17.523438 24.890625 -20.234375 22.984375 C -22.953125 21.078125 -26.363281 19.976562 -30.46875 19.6875 Z M -44.21875 44.765625 L -44.21875 45.65625 C -41.582031 46.53125 -38.394531 46.96875 -34.65625 46.96875 C -30.914062 46.96875 -27.722656 46.566406 -25.078125 45.765625 L -25.078125 44.765625 C -25.078125 42.273438 -25.863281 40.734375 -27.4375 40.140625 C -29.019531 39.554688 -31.019531 39.265625 -33.4375 39.265625 L -35.859375 39.265625 C -38.273438 39.265625 -40.269531 39.554688 -41.84375 40.140625 C -43.425781 40.734375 -44.21875 42.273438 -44.21875 44.765625 Z M -44.21875 44.765625 "/>
</symbol>
<symbol overflow="visible" id="id0:glyph0-3">
<path style="stroke:none;" d="M -17.59375 -8.03125 L -17.59375 16.9375 C -11.144531 18.039062 -5.207031 19.910156 0.21875 22.546875 L -3.1875 33.765625 C -5.09375 32.890625 -7.273438 32.046875 -9.734375 31.234375 C -12.191406 30.429688 -14.8125 29.773438 -17.59375 29.265625 L -17.59375 44.109375 C -17.59375 46.304688 -18.03125 48.613281 -18.90625 51.03125 C -19.789062 53.457031 -21.257812 55.492188 -23.3125 57.140625 C -25.375 58.796875 -28.238281 59.625 -31.90625 59.625 C -34.976562 59.625 -38.144531 59 -41.40625 57.75 C -44.675781 56.5 -47.703125 54.753906 -50.484375 52.515625 C -53.273438 50.285156 -55.53125 47.703125 -57.25 44.765625 C -58.976562 41.835938 -59.84375 38.6875 -59.84375 35.3125 C -59.84375 29 -57.238281 24.191406 -52.03125 20.890625 C -46.820312 17.597656 -39.5625 15.953125 -30.25 15.953125 C -28.632812 15.953125 -27.019531 15.988281 -25.40625 16.0625 L -25.40625 -8.03125 Z M -53.125 35.640625 C -53.125 37.253906 -52.445312 38.738281 -51.09375 40.09375 C -49.738281 41.445312 -47.976562 42.632812 -45.8125 43.65625 C -43.644531 44.6875 -41.351562 45.476562 -38.9375 46.03125 C -36.519531 46.582031 -34.25 46.859375 -32.125 46.859375 C -29.695312 46.859375 -27.96875 46.269531 -26.9375 45.09375 C -25.914062 43.925781 -25.40625 42.207031 -25.40625 39.9375 L -25.40625 28.265625 C -26.945312 28.117188 -28.453125 28.046875 -29.921875 28.046875 C -34.171875 28.046875 -38.054688 28.300781 -41.578125 28.8125 C -45.097656 29.332031 -47.898438 30.140625 -49.984375 31.234375 C -52.078125 32.335938 -53.125 33.804688 -53.125 35.640625 Z M -53.125 35.640625 "/>
</symbol>
</g>
<g>
<symbol overflow="visible" id="id1:glyph0-0">
<path style="stroke:none;" d="M 5.375 -96.6875 L 69.828125 -96.6875 L 69.828125 0 L 5.375 0 Z M 8.0625 -2.6875 L 67.140625 -2.6875 L 67.140625 -94 L 8.0625 -94 Z M 8.0625 -2.6875 "/>
</symbol>
<symbol overflow="visible" id="id1:glyph0-1">
<path style="stroke:none;" d="M 68.15625 -13.75 L 66.28125 -18.640625 L 88.09375 -27.390625 L 6.984375 -27.390625 L 6.984375 -34 L 88.09375 -34 L 66.28125 -42.75 L 68.15625 -47.640625 L 99.09375 -34.265625 L 99.09375 -27.125 Z M 68.15625 -13.75 "/>
</symbol>
</g>
<g>
<symbol overflow="visible" id="id2:glyph0-0">
<path style="stroke:none;" d="M 10.34375 0 L 10.34375 -78.546875 L 55.546875 -78.546875 L 55.546875 0 Z M 15.953125 -72.9375 L 15.953125 -5.609375 L 49.9375 -5.609375 L 49.9375 -72.9375 Z M 15.953125 -72.9375 "/>
</symbol>
<symbol overflow="visible" id="id2:glyph0-1">
<path style="stroke:none;" d="M 39.375 1.09375 L 39.375 -12.984375 C 42.601562 -13.273438 45.460938 -13.953125 47.953125 -15.015625 C 50.453125 -16.078125 52.414062 -17.722656 53.84375 -19.953125 C 55.269531 -22.191406 55.984375 -25.1875 55.984375 -28.9375 L 55.984375 -30.03125 C 55.984375 -33.988281 55.082031 -37.125 53.28125 -39.4375 C 51.488281 -41.75 48.976562 -43.414062 45.75 -44.4375 C 42.53125 -45.46875 38.832031 -45.984375 34.65625 -45.984375 C 30.46875 -45.984375 26.78125 -45.46875 23.59375 -44.4375 C 20.40625 -43.414062 17.894531 -41.75 16.0625 -39.4375 C 14.226562 -37.125 13.3125 -33.988281 13.3125 -30.03125 L 13.3125 -28.9375 C 13.3125 -25.1875 14.023438 -22.191406 15.453125 -19.953125 C 16.878906 -17.722656 18.859375 -16.078125 21.390625 -15.015625 C 23.921875 -13.953125 26.765625 -13.273438 29.921875 -12.984375 L 29.921875 1.09375 C 25.890625 0.875 22.441406 0.015625 19.578125 -1.484375 C 16.722656 -2.984375 14.265625 -5.054688 12.203125 -7.703125 C 9.929688 -10.703125 8.335938 -14.015625 7.421875 -17.640625 C 6.503906 -21.273438 6.046875 -25.257812 6.046875 -29.59375 C 6.046875 -33.914062 6.503906 -37.875 7.421875 -41.46875 C 8.335938 -45.0625 9.929688 -48.253906 12.203125 -51.046875 C 14.335938 -53.679688 17.160156 -55.84375 20.671875 -57.53125 C 24.191406 -59.21875 28.484375 -60.0625 33.546875 -60.0625 L 35.75 -60.0625 C 40.519531 -60.0625 44.609375 -59.304688 48.015625 -57.796875 C 51.421875 -56.296875 54.1875 -54.335938 56.3125 -51.921875 C 58.445312 -54.335938 61.269531 -56.296875 64.78125 -57.796875 C 68.300781 -59.304688 72.375 -60.0625 77 -60.0625 L 79.203125 -60.0625 C 84.109375 -60.0625 88.394531 -59.195312 92.0625 -57.46875 C 95.726562 -55.75 98.703125 -53.421875 100.984375 -50.484375 C 103.035156 -47.921875 104.5 -44.914062 105.375 -41.46875 C 106.257812 -38.019531 106.703125 -34.023438 106.703125 -29.484375 C 106.703125 -24.929688 106.257812 -20.929688 105.375 -17.484375 C 104.5 -14.035156 103.035156 -11.03125 100.984375 -8.46875 C 98.703125 -5.53125 95.691406 -3.203125 91.953125 -1.484375 C 88.210938 0.234375 83.742188 1.09375 78.546875 1.09375 C 76.117188 1.09375 74.023438 0.984375 72.265625 0.765625 L 72.265625 -12.984375 L 78.09375 -12.984375 C 82.28125 -12.984375 85.984375 -13.492188 89.203125 -14.515625 C 92.429688 -15.546875 94.941406 -17.234375 96.734375 -19.578125 C 98.535156 -21.921875 99.4375 -25.039062 99.4375 -28.9375 L 99.4375 -30.03125 C 99.4375 -33.988281 98.535156 -37.125 96.734375 -39.4375 C 94.941406 -41.75 92.429688 -43.414062 89.203125 -44.4375 C 85.984375 -45.46875 82.28125 -45.984375 78.09375 -45.984375 C 74.726562 -45.984375 71.648438 -45.648438 68.859375 -44.984375 C 66.078125 -44.328125 63.726562 -43.226562 61.8125 -41.6875 C 62.332031 -39.851562 62.703125 -37.925781 62.921875 -35.90625 C 63.140625 -33.894531 63.25 -31.789062 63.25 -29.59375 C 63.25 -25.257812 62.804688 -21.273438 61.921875 -17.640625 C 61.046875 -14.015625 59.4375 -10.703125 57.09375 -7.703125 C 55.039062 -5.054688 52.582031 -2.984375 49.71875 -1.484375 C 46.863281 0.015625 43.414062 0.875 39.375 1.09375 Z M 39.375 1.09375 "/>
</symbol>
<symbol overflow="visible" id="id2:glyph0-2">
<path style="stroke:none;" d="M -30.46875 6.9375 C -26.945312 7.15625 -23.921875 7.90625 -21.390625 9.1875 C -18.859375 10.46875 -16.675781 12.242188 -14.84375 14.515625 C -12.789062 17.085938 -11.378906 19.929688 -10.609375 23.046875 C -9.835938 26.160156 -9.453125 29.585938 -9.453125 33.328125 C -9.453125 36.992188 -9.835938 40.382812 -10.609375 43.5 C -11.378906 46.625 -12.789062 49.394531 -14.84375 51.8125 C -15.945312 53.132812 -17.195312 54.269531 -18.59375 55.21875 L -18.59375 74.359375 C -18.59375 79.566406 -19.25 83.546875 -20.5625 86.296875 C -21.882812 89.046875 -24.066406 90.914062 -27.109375 91.90625 C -30.160156 92.894531 -34.210938 93.390625 -39.265625 93.390625 C -45.648438 93.390625 -50.675781 92.363281 -54.34375 90.3125 C -58.007812 88.257812 -59.84375 84.484375 -59.84375 78.984375 C -59.84375 74.578125 -58.46875 70.976562 -55.71875 68.1875 C -52.96875 65.40625 -48.988281 64.015625 -43.78125 64.015625 C -38.863281 64.015625 -34.921875 65.148438 -31.953125 67.421875 C -28.984375 69.703125 -27.425781 72.75 -27.28125 76.5625 L -37.84375 76.5625 C -37.988281 74.726562 -38.703125 73.257812 -39.984375 72.15625 C -41.265625 71.0625 -43.335938 70.515625 -46.203125 70.515625 C -48.691406 70.515625 -50.597656 70.988281 -51.921875 71.9375 C -53.242188 72.894531 -53.90625 74.144531 -53.90625 75.6875 C -53.90625 78.539062 -52.582031 80.332031 -49.9375 81.0625 C -47.300781 81.800781 -43.816406 82.171875 -39.484375 82.171875 C -36.117188 82.171875 -33.367188 81.929688 -31.234375 81.453125 C -29.109375 80.972656 -27.550781 79.960938 -26.5625 78.421875 C -25.570312 76.890625 -25.078125 74.582031 -25.078125 71.5 L -25.078125 58.40625 C -27.722656 59.21875 -30.582031 59.625 -33.65625 59.625 L -35.640625 59.625 C -40.109375 59.625 -43.863281 58.890625 -46.90625 57.421875 C -49.957031 55.953125 -52.4375 54.082031 -54.34375 51.8125 C -56.394531 49.394531 -57.820312 46.625 -58.625 43.5 C -59.4375 40.382812 -59.84375 36.992188 -59.84375 33.328125 C -59.84375 29.585938 -59.4375 26.160156 -58.625 23.046875 C -57.820312 19.929688 -56.394531 17.085938 -54.34375 14.515625 C -52.582031 12.242188 -50.4375 10.46875 -47.90625 9.1875 C -45.375 7.90625 -42.347656 7.15625 -38.828125 6.9375 L -38.828125 19.6875 C -42.859375 19.976562 -46.25 21.078125 -49 22.984375 C -51.75 24.890625 -53.125 28.15625 -53.125 32.78125 L -53.125 33.765625 C -53.125 35.890625 -52.773438 37.722656 -52.078125 39.265625 C -51.390625 40.804688 -50.421875 42.09375 -49.171875 43.125 C -49.023438 36.226562 -44.1875 32.78125 -34.65625 32.78125 C -24.96875 32.78125 -20.125 36.226562 -20.125 43.125 C -17.488281 40.914062 -16.171875 37.796875 -16.171875 33.765625 L -16.171875 32.78125 C -16.171875 28.15625 -17.523438 24.890625 -20.234375 22.984375 C -22.953125 21.078125 -26.363281 19.976562 -30.46875 19.6875 Z M -44.21875 44.765625 L -44.21875 45.65625 C -41.582031 46.53125 -38.394531 46.96875 -34.65625 46.96875 C -30.914062 46.96875 -27.722656 46.566406 -25.078125 45.765625 L -25.078125 44.765625 C -25.078125 42.273438 -25.863281 40.734375 -27.4375 40.140625 C -29.019531 39.554688 -31.019531 39.265625 -33.4375 39.265625 L -35.859375 39.265625 C -38.273438 39.265625 -40.269531 39.554688 -41.84375 40.140625 C -43.425781 40.734375 -44.21875 42.273438 -44.21875 44.765625 Z M -44.21875 44.765625 "/>
</symbol>
<symbol overflow="visible" id="id2:glyph0-3">
<path style="stroke:none;" d="M -17.59375 -8.03125 L -17.59375 16.9375 C -11.144531 18.039062 -5.207031 19.910156 0.21875 22.546875 L -3.1875 33.765625 C -5.09375 32.890625 -7.273438 32.046875 -9.734375 31.234375 C -12.191406 30.429688 -14.8125 29.773438 -17.59375 29.265625 L -17.59375 44.109375 C -17.59375 46.304688 -18.03125 48.613281 -18.90625 51.03125 C -19.789062 53.457031 -21.257812 55.492188 -23.3125 57.140625 C -25.375 58.796875 -28.238281 59.625 -31.90625 59.625 C -34.976562 59.625 -38.144531 59 -41.40625 57.75 C -44.675781 56.5 -47.703125 54.753906 -50.484375 52.515625 C -53.273438 50.285156 -55.53125 47.703125 -57.25 44.765625 C -58.976562 41.835938 -59.84375 38.6875 -59.84375 35.3125 C -59.84375 29 -57.238281 24.191406 -52.03125 20.890625 C -46.820312 17.597656 -39.5625 15.953125 -30.25 15.953125 C -28.632812 15.953125 -27.019531 15.988281 -25.40625 16.0625 L -25.40625 -8.03125 Z M -53.125 35.640625 C -53.125 37.253906 -52.445312 38.738281 -51.09375 40.09375 C -49.738281 41.445312 -47.976562 42.632812 -45.8125 43.65625 C -43.644531 44.6875 -41.351562 45.476562 -38.9375 46.03125 C -36.519531 46.582031 -34.25 46.859375 -32.125 46.859375 C -29.695312 46.859375 -27.96875 46.269531 -26.9375 45.09375 C -25.914062 43.925781 -25.40625 42.207031 -25.40625 39.9375 L -25.40625 28.265625 C -26.945312 28.117188 -28.453125 28.046875 -29.921875 28.046875 C -34.171875 28.046875 -38.054688 28.300781 -41.578125 28.8125 C -45.097656 29.332031 -47.898438 30.140625 -49.984375 31.234375 C -52.078125 32.335938 -53.125 33.804688 -53.125 35.640625 Z M -53.125 35.640625 "/>
</symbol>
</g>
</defs>
  <g id="id0:id0" transform="matrix(1.25,0,0,1.25,0.0,8.75)"><g id="id0:surface1">
<g style="fill:rgb(0%,0%,0%);fill-opacity:1;">
  <use xlink:href="#id0:glyph0-1" x="16" y="138.296875"/>
  <use xlink:href="#id0:glyph0-2" x="128.75" y="138.296875"/>
  <use xlink:href="#id0:glyph0-3" x="106.96875" y="138.296875"/>
</g>
</g>
</g>
  <g id="id1:id1" transform="matrix(1.25,0,0,1.25,180.9375,82.353515625)"><g id="id1:surface1">
<g style="fill:rgb(0%,0%,0%);fill-opacity:1;">
  <use xlink:href="#id1:glyph0-1" x="0" y="120.84375"/>
</g>
</g>
</g>
  <g id="id2:id2" transform="matrix(1.25,0,0,1.25,313.53515625,0.0)"><g id="id2:surface1">
<g style="fill:rgb(0%,0%,0%);fill-opacity:1;">
  <use xlink:href="#id2:glyph0-1" x="16" y="138.296875"/>
  <use xlink:href="#id2:glyph0-2" x="128.75" y="138.296875"/>
  <use xlink:href="#id2:glyph0-3" x="128.75" y="229.8125"/>
</g>
</g>
</g>
</svg>
