<?xml version="1.0" standalone="no"?>
<!DOCTYPE svg PUBLIC "-//W3C//DTD SVG 1.1//EN"
 "http://www.w3.org/Graphics/SVG/1.1/DTD/svg11.dtd">
<!-- Created with svg_stack (http://github.com/astraw/svg_stack) -->
<svg xmlns="http://www.w3.org/2000/svg" xmlns:sodipodi="http://sodipodi.sourceforge.net/DTD/sodipodi-0.dtd" xmlns:xlink="http://www.w3.org/1999/xlink" version="1.1" width="685.859375" height="348.61328125">
  <defs><g>
<symbol overflow="visible" id="id0:glyph0-0">
<path style="stroke:none;" d="M 10.34375 0 L 10.34375 -78.546875 L 55.546875 -78.546875 L 55.546875 0 Z M 15.953125 -72.9375 L 15.953125 -5.609375 L 49.9375 -5.609375 L 49.9375 -72.9375 Z M 15.953125 -72.9375 "/>
</symbol>
<symbol overflow="visible" id="id0:glyph0-1">
<path style="stroke:none;" d="M 66.328125 -60.171875 C 69.484375 -60.171875 72.175781 -59.566406 74.40625 -58.359375 C 76.644531 -57.148438 78.316406 -55.703125 79.421875 -54.015625 C 81.691406 -55.847656 84.3125 -57.3125 87.28125 -58.40625 C 90.25 -59.507812 93.457031 -60.0625 96.90625 -60.0625 L 99.109375 -60.0625 C 104.023438 -60.0625 108.316406 -59.195312 111.984375 -57.46875 C 115.648438 -55.75 118.617188 -53.421875 120.890625 -50.484375 C 122.941406 -47.921875 124.40625 -44.914062 125.28125 -41.46875 C 126.164062 -38.019531 126.609375 -34.023438 126.609375 -29.484375 C 126.609375 -24.929688 126.164062 -20.929688 125.28125 -17.484375 C 124.40625 -14.035156 122.941406 -11.03125 120.890625 -8.46875 C 118.617188 -5.53125 115.648438 -3.203125 111.984375 -1.484375 C 108.316406 0.234375 104.023438 1.09375 99.109375 1.09375 C 97.054688 1.09375 95.296875 0.984375 93.828125 0.765625 L 93.828125 -12.984375 L 98.015625 -12.984375 C 102.191406 -12.984375 105.890625 -13.492188 109.109375 -14.515625 C 112.335938 -15.546875 114.847656 -17.234375 116.640625 -19.578125 C 118.441406 -21.921875 119.34375 -25.039062 119.34375 -28.9375 L 119.34375 -30.03125 C 119.34375 -35.894531 117.34375 -40.019531 113.34375 -42.40625 C 109.351562 -44.789062 104.171875 -45.984375 97.796875 -45.984375 C 94.566406 -45.984375 91.59375 -45.539062 88.875 -44.65625 C 86.164062 -43.78125 83.984375 -42.40625 82.328125 -40.53125 C 80.679688 -38.664062 79.859375 -36.15625 79.859375 -33 C 79.859375 -30.875 80.078125 -28.984375 80.515625 -27.328125 C 80.960938 -25.679688 81.382812 -23.976562 81.78125 -22.21875 C 82.1875 -20.457031 82.390625 -18.332031 82.390625 -15.84375 C 82.390625 -10.851562 81.015625 -6.765625 78.265625 -3.578125 C 75.515625 -0.390625 71.609375 1.203125 66.546875 1.203125 L 66.109375 1.203125 C 61.046875 1.203125 57.140625 -0.390625 54.390625 -3.578125 C 51.640625 -6.765625 50.265625 -10.851562 50.265625 -15.84375 C 50.265625 -18.332031 50.484375 -20.457031 50.921875 -22.21875 C 51.367188 -23.976562 51.789062 -25.679688 52.1875 -27.328125 C 52.59375 -28.984375 52.796875 -30.875 52.796875 -33 C 52.796875 -36.15625 51.96875 -38.664062 50.3125 -40.53125 C 48.664062 -42.40625 46.484375 -43.78125 43.765625 -44.65625 C 41.054688 -45.539062 38.09375 -45.984375 34.875 -45.984375 C 28.488281 -45.984375 23.296875 -44.789062 19.296875 -42.40625 C 15.304688 -40.019531 13.3125 -35.894531 13.3125 -30.03125 L 13.3125 -28.9375 C 13.3125 -25.039062 14.226562 -21.921875 16.0625 -19.578125 C 17.894531 -17.234375 20.40625 -15.546875 23.59375 -14.515625 C 26.78125 -13.492188 30.46875 -12.984375 34.65625 -12.984375 L 38.828125 -12.984375 L 38.828125 0.765625 C 37.429688 0.984375 35.671875 1.09375 33.546875 1.09375 C 28.640625 1.09375 24.351562 0.234375 20.6875 -1.484375 C 17.019531 -3.203125 14.046875 -5.53125 11.765625 -8.46875 C 9.710938 -11.03125 8.242188 -14.035156 7.359375 -17.484375 C 6.484375 -20.929688 6.046875 -24.929688 6.046875 -29.484375 C 6.046875 -34.023438 6.484375 -38.019531 7.359375 -41.46875 C 8.242188 -44.914062 9.710938 -47.921875 11.765625 -50.484375 C 14.046875 -53.421875 17.019531 -55.75 20.6875 -57.46875 C 24.351562 -59.195312 28.640625 -60.0625 33.546875 -60.0625 L 35.75 -60.0625 C 39.195312 -60.0625 42.40625 -59.507812 45.375 -58.40625 C 48.34375 -57.3125 50.960938 -55.847656 53.234375 -54.015625 C 54.335938 -55.703125 56.003906 -57.148438 58.234375 -58.359375 C 60.472656 -59.566406 63.171875 -60.171875 66.328125 -60.171875 Z M 59.1875 -19.46875 C 59.1875 -16.976562 59.71875 -14.867188 60.78125 -13.140625 C 61.84375 -11.421875 63.691406 -10.5625 66.328125 -10.5625 C 68.972656 -10.5625 70.828125 -11.421875 71.890625 -13.140625 C 72.953125 -14.867188 73.484375 -16.976562 73.484375 -19.46875 C 73.484375 -22.769531 73.097656 -25.773438 72.328125 -28.484375 C 71.554688 -31.203125 71.171875 -34.175781 71.171875 -37.40625 C 71.171875 -40.476562 71.867188 -43.445312 73.265625 -46.3125 C 71.648438 -48.070312 69.335938 -48.953125 66.328125 -48.953125 C 63.316406 -48.953125 61.007812 -48.070312 59.40625 -46.3125 C 60.789062 -43.445312 61.484375 -40.476562 61.484375 -37.40625 C 61.484375 -34.175781 61.097656 -31.203125 60.328125 -28.484375 C 59.566406 -25.773438 59.1875 -22.769531 59.1875 -19.46875 Z M 59.1875 -19.46875 "/>
</symbol>
<symbol overflow="visible" id="id0:glyph0-2">
<path style="stroke:none;" d="M -8.90625 36.40625 L -31.90625 36.40625 L -29.921875 58.515625 L -39.265625 58.515625 L -37.296875 36.40625 L -60.390625 36.40625 L -60.390625 29.046875 L -37.296875 29.046875 L -39.265625 6.9375 L -29.921875 6.9375 L -31.90625 29.046875 L -8.90625 29.046875 Z M -8.90625 36.40625 "/>
</symbol>
<symbol overflow="visible" id="id0:glyph0-3">
<path style="stroke:none;" d="M 13.640625 -35.53125 L 6.375 -35.53125 C 6.59375 -40.445312 7.835938 -44.738281 10.109375 -48.40625 C 12.390625 -52.070312 15.507812 -54.929688 19.46875 -56.984375 C 23.425781 -59.035156 28.007812 -60.0625 33.21875 -60.0625 L 35.75 -60.0625 C 40.664062 -60.0625 44.957031 -59.195312 48.625 -57.46875 C 52.289062 -55.75 55.257812 -53.421875 57.53125 -50.484375 C 59.582031 -47.921875 61.046875 -44.914062 61.921875 -41.46875 C 62.804688 -38.019531 63.25 -34.023438 63.25 -29.484375 C 63.25 -24.859375 62.8125 -20.894531 61.9375 -17.59375 C 63.84375 -15.988281 66.222656 -14.816406 69.078125 -14.078125 C 71.941406 -13.347656 75.132812 -12.984375 78.65625 -12.984375 C 82.832031 -12.984375 86.53125 -13.492188 89.75 -14.515625 C 92.976562 -15.546875 95.488281 -17.234375 97.28125 -19.578125 C 99.082031 -21.921875 99.984375 -25.039062 99.984375 -28.9375 L 99.984375 -30.03125 C 99.984375 -33.988281 99.082031 -37.125 97.28125 -39.4375 C 95.488281 -41.75 92.976562 -43.414062 89.75 -44.4375 C 86.53125 -45.46875 82.832031 -45.984375 78.65625 -45.984375 L 72.8125 -45.984375 L 72.8125 -59.734375 C 74.570312 -59.953125 76.664062 -60.0625 79.09375 -60.0625 C 84.300781 -60.0625 88.773438 -59.195312 92.515625 -57.46875 C 96.253906 -55.75 99.257812 -53.421875 101.53125 -50.484375 C 103.582031 -47.921875 105.046875 -44.914062 105.921875 -41.46875 C 106.804688 -38.019531 107.25 -34.023438 107.25 -29.484375 C 107.25 -24.929688 106.804688 -20.929688 105.921875 -17.484375 C 105.046875 -14.035156 103.582031 -11.03125 101.53125 -8.46875 C 99.257812 -5.53125 96.289062 -3.203125 92.625 -1.484375 C 88.957031 0.234375 84.664062 1.09375 79.75 1.09375 L 77.546875 1.09375 C 72.859375 1.09375 68.71875 0.304688 65.125 -1.265625 C 61.53125 -2.835938 58.707031 -4.875 56.65625 -7.375 C 54.375 -4.800781 51.472656 -2.742188 47.953125 -1.203125 C 44.441406 0.328125 40.375 1.09375 35.75 1.09375 L 33.546875 1.09375 C 29.222656 1.09375 25.5 0.488281 22.375 -0.71875 C 19.257812 -1.925781 16.640625 -3.484375 14.515625 -5.390625 L 14.515625 31.90625 C 14.515625 37.914062 17.007812 41.726562 22 43.34375 C 24.863281 44.289062 29.207031 44.894531 35.03125 45.15625 C 40.863281 45.414062 48.253906 45.546875 57.203125 45.546875 C 66.148438 45.546875 73.519531 45.394531 79.3125 45.09375 C 85.101562 44.800781 89.46875 44.179688 92.40625 43.234375 C 94.96875 42.421875 96.832031 41.078125 98 39.203125 C 99.175781 37.335938 99.765625 34.90625 99.765625 31.90625 L 99.765625 29.59375 L 107.25 29.59375 L 107.25 35.859375 C 107.25 41.648438 106.441406 45.972656 104.828125 48.828125 C 103.210938 51.691406 101.234375 53.785156 98.890625 55.109375 C 95.515625 57.160156 90.4375 58.425781 83.65625 58.90625 C 76.875 59.382812 67.945312 59.625 56.875 59.625 C 45.800781 59.625 36.867188 59.382812 30.078125 58.90625 C 23.296875 58.425781 18.21875 57.160156 14.84375 55.109375 C 12.570312 53.785156 10.59375 51.691406 8.90625 48.828125 C 7.21875 45.972656 6.375 41.648438 6.375 35.859375 L 6.375 -23.4375 L 13.640625 -23.4375 C 14.078125 -20.28125 16.128906 -17.75 19.796875 -15.84375 C 23.460938 -13.9375 28.414062 -12.984375 34.65625 -12.984375 C 38.832031 -12.984375 42.53125 -13.492188 45.75 -14.515625 C 48.976562 -15.546875 51.488281 -17.234375 53.28125 -19.578125 C 55.082031 -21.921875 55.984375 -25.039062 55.984375 -28.9375 L 55.984375 -30.03125 C 55.984375 -33.988281 55.082031 -37.125 53.28125 -39.4375 C 51.488281 -41.75 48.976562 -43.414062 45.75 -44.4375 C 42.53125 -45.46875 38.832031 -45.984375 34.65625 -45.984375 C 28.414062 -45.984375 23.460938 -45.046875 19.796875 -43.171875 C 16.128906 -41.304688 14.078125 -38.757812 13.640625 -35.53125 Z M 13.640625 -35.53125 "/>
</symbol>
</g>
<g>
<symbol overflow="visible" id="id1:glyph0-0">
<path style="stroke:none;" d="M 5.375 -96.6875 L 69.828125 -96.6875 L 69.828125 0 L 5.375 0 Z M 8.0625 -2.6875 L 67.140625 -2.6875 L 67.140625 -94 L 8.0625 -94 Z M 8.0625 -2.6875 "/>
</symbol>
<symbol overflow="visible" id="id1:glyph0-1">
<path style="stroke:none;" d="M 68.15625 -13.75 L 66.28125 -18.640625 L 88.09375 -27.390625 L 6.984375 -27.390625 L 6.984375 -34 L 88.09375 -34 L 66.28125 -42.75 L 68.15625 -47.640625 L 99.09375 -34.265625 L 99.09375 -27.125 Z M 68.15625 -13.75 "/>
</symbol>
</g>
<g>
<symbol overflow="visible" id="id2:glyph0-0">
<path style="stroke:none;" d="M 10.34375 0 L 10.34375 -78.546875 L 55.546875 -78.546875 L 55.546875 0 Z M 15.953125 -72.9375 L 15.953125 -5.609375 L 49.9375 -5.609375 L 49.9375 -72.9375 Z M 15.953125 -72.9375 "/>
</symbol>
<symbol overflow="visible" id="id2:glyph0-1">
<path style="stroke:none;" d="M 66.328125 -60.171875 C 69.484375 -60.171875 72.175781 -59.566406 74.40625 -58.359375 C 76.644531 -57.148438 78.316406 -55.703125 79.421875 -54.015625 C 81.691406 -55.847656 84.3125 -57.3125 87.28125 -58.40625 C 90.25 -59.507812 93.457031 -60.0625 96.90625 -60.0625 L 99.109375 -60.0625 C 104.023438 -60.0625 108.316406 -59.195312 111.984375 -57.46875 C 115.648438 -55.75 118.617188 -53.421875 120.890625 -50.484375 C 122.941406 -47.921875 124.40625 -44.914062 125.28125 -41.46875 C 126.164062 -38.019531 126.609375 -34.023438 126.609375 -29.484375 C 126.609375 -24.929688 126.164062 -20.929688 125.28125 -17.484375 C 124.40625 -14.035156 122.941406 -11.03125 120.890625 -8.46875 C 118.617188 -5.53125 115.648438 -3.203125 111.984375 -1.484375 C 108.316406 0.234375 104.023438 1.09375 99.109375 1.09375 C 97.054688 1.09375 95.296875 0.984375 93.828125 0.765625 L 93.828125 -12.984375 L 98.015625 -12.984375 C 102.191406 -12.984375 105.890625 -13.492188 109.109375 -14.515625 C 112.335938 -15.546875 114.847656 -17.234375 116.640625 -19.578125 C 118.441406 -21.921875 119.34375 -25.039062 119.34375 -28.9375 L 119.34375 -30.03125 C 119.34375 -35.894531 117.34375 -40.019531 113.34375 -42.40625 C 109.351562 -44.789062 104.171875 -45.984375 97.796875 -45.984375 C 94.566406 -45.984375 91.59375 -45.539062 88.875 -44.65625 C 86.164062 -43.78125 83.984375 -42.40625 82.328125 -40.53125 C 80.679688 -38.664062 79.859375 -36.15625 79.859375 -33 C 79.859375 -30.875 80.078125 -28.984375 80.515625 -27.328125 C 80.960938 -25.679688 81.382812 -23.976562 81.78125 -22.21875 C 82.1875 -20.457031 82.390625 -18.332031 82.390625 -15.84375 C 82.390625 -10.851562 81.015625 -6.765625 78.265625 -3.578125 C 75.515625 -0.390625 71.609375 1.203125 66.546875 1.203125 L 66.109375 1.203125 C 61.046875 1.203125 57.140625 -0.390625 54.390625 -3.578125 C 51.640625 -6.765625 50.265625 -10.851562 50.265625 -15.84375 C 50.265625 -18.332031 50.484375 -20.457031 50.921875 -22.21875 C 51.367188 -23.976562 51.789062 -25.679688 52.1875 -27.328125 C 52.59375 -28.984375 52.796875 -30.875 52.796875 -33 C 52.796875 -36.15625 51.96875 -38.664062 50.3125 -40.53125 C 48.664062 -42.40625 46.484375 -43.78125 43.765625 -44.65625 C 41.054688 -45.539062 38.09375 -45.984375 34.875 -45.984375 C 28.488281 -45.984375 23.296875 -44.789062 19.296875 -42.40625 C 15.304688 -40.019531 13.3125 -35.894531 13.3125 -30.03125 L 13.3125 -28.9375 C 13.3125 -25.039062 14.226562 -21.921875 16.0625 -19.578125 C 17.894531 -17.234375 20.40625 -15.546875 23.59375 -14.515625 C 26.78125 -13.492188 30.46875 -12.984375 34.65625 -12.984375 L 38.828125 -12.984375 L 38.828125 0.765625 C 37.429688 0.984375 35.671875 1.09375 33.546875 1.09375 C 28.640625 1.09375 24.351562 0.234375 20.6875 -1.484375 C 17.019531 -3.203125 14.046875 -5.53125 11.765625 -8.46875 C 9.710938 -11.03125 8.242188 -14.035156 7.359375 -17.484375 C 6.484375 -20.929688 6.046875 -24.929688 6.046875 -29.484375 C 6.046875 -34.023438 6.484375 -38.019531 7.359375 -41.46875 C 8.242188 -44.914062 9.710938 -47.921875 11.765625 -50.484375 C 14.046875 -53.421875 17.019531 -55.75 20.6875 -57.46875 C 24.351562 -59.195312 28.640625 -60.0625 33.546875 -60.0625 L 35.75 -60.0625 C 39.195312 -60.0625 42.40625 -59.507812 45.375 -58.40625 C 48.34375 -57.3125 50.960938 -55.847656 53.234375 -54.015625 C 54.335938 -55.703125 56.003906 -57.148438 58.234375 -58.359375 C 60.472656 -59.566406 63.171875 -60.171875 66.328125 -60.171875 Z M 59.1875 -19.46875 C 59.1875 -16.976562 59.71875 -14.867188 60.78125 -13.140625 C 61.84375 -11.421875 63.691406 -10.5625 66.328125 -10.5625 C 68.972656 -10.5625 70.828125 -11.421875 71.890625 -13.140625 C 72.953125 -14.867188 73.484375 -16.976562 73.484375 -19.46875 C 73.484375 -22.769531 73.097656 -25.773438 72.328125 -28.484375 C 71.554688 -31.203125 71.171875 -34.175781 71.171875 -37.40625 C 71.171875 -40.476562 71.867188 -43.445312 73.265625 -46.3125 C 71.648438 -48.070312 69.335938 -48.953125 66.328125 -48.953125 C 63.316406 -48.953125 61.007812 -48.070312 59.40625 -46.3125 C 60.789062 -43.445312 61.484375 -40.476562 61.484375 -37.40625 C 61.484375 -34.175781 61.097656 -31.203125 60.328125 -28.484375 C 59.566406 -25.773438 59.1875 -22.769531 59.1875 -19.46875 Z M 59.1875 -19.46875 "/>
</symbol>
<symbol overflow="visible" id="id2:glyph0-2">
<path style="stroke:none;" d="M 9.6875 67.546875 L 9.6875 70.625 C 9.6875 76.050781 9.0625 80.300781 7.8125 83.375 C 6.5625 86.457031 4.613281 88.675781 1.96875 90.03125 C -0.664062 91.382812 -4.109375 92.210938 -8.359375 92.515625 C -16.867188 93.097656 -25.648438 93.390625 -34.703125 93.390625 C -43.765625 93.390625 -52.546875 93.097656 -61.046875 92.515625 C -65.304688 92.210938 -68.753906 91.398438 -71.390625 90.078125 C -74.023438 88.765625 -75.96875 86.566406 -77.21875 83.484375 C -78.46875 80.410156 -79.09375 76.125 -79.09375 70.625 L -79.09375 38.5 L -71.9375 38.5 C -71.570312 40.988281 -69.832031 43.003906 -66.71875 44.546875 C -63.601562 46.085938 -59.296875 46.859375 -53.796875 46.859375 C -48.367188 46.859375 -43.929688 45.867188 -40.484375 43.890625 C -37.035156 41.910156 -35.3125 38.535156 -35.3125 33.765625 L -35.3125 32.78125 C -35.3125 27.9375 -37.035156 24.539062 -40.484375 22.59375 C -43.929688 20.65625 -48.367188 19.6875 -53.796875 19.6875 C -59.296875 19.6875 -63.601562 20.4375 -66.71875 21.9375 C -69.832031 23.445312 -71.570312 25.484375 -71.9375 28.046875 L -78.65625 28.046875 C -78.65625 26.066406 -78.25 23.882812 -77.4375 21.5 C -76.632812 19.125 -75.316406 16.816406 -73.484375 14.578125 C -71.648438 12.335938 -69.207031 10.503906 -66.15625 9.078125 C -63.113281 7.648438 -59.320312 6.9375 -54.78125 6.9375 L -52.796875 6.9375 C -48.691406 6.9375 -45.0625 7.648438 -41.90625 9.078125 C -38.757812 10.503906 -36.15625 12.5 -34.09375 15.0625 C -30.425781 19.757812 -28.59375 25.847656 -28.59375 33.328125 C -28.59375 36.992188 -29 40.332031 -29.8125 43.34375 C -28.195312 44.65625 -26.160156 45.585938 -23.703125 46.140625 C -21.242188 46.691406 -18.515625 46.96875 -15.515625 46.96875 C -10.085938 46.96875 -5.648438 45.992188 -2.203125 44.046875 C 1.242188 42.109375 2.96875 38.679688 2.96875 33.765625 L 2.96875 32.78125 C 2.96875 28.007812 1.242188 24.632812 -2.203125 22.65625 C -5.648438 20.675781 -10.085938 19.6875 -15.515625 19.6875 L -20.6875 19.6875 L -20.6875 7.265625 C -19.144531 7.046875 -17.3125 6.9375 -15.1875 6.9375 C -10.5625 6.9375 -6.597656 7.6875 -3.296875 9.1875 C 0.00390625 10.6875 2.644531 12.6875 4.625 15.1875 C 8 19.507812 9.6875 25.519531 9.6875 33.21875 C 9.6875 40.988281 8 47.039062 4.625 51.375 C 2.644531 53.863281 0.0390625 55.859375 -3.1875 57.359375 C -6.414062 58.867188 -10.191406 59.625 -14.515625 59.625 L -16.5 59.625 C -20.601562 59.625 -24.195312 58.941406 -27.28125 57.578125 C -30.363281 56.222656 -32.859375 54.519531 -34.765625 52.46875 C -38.941406 57.238281 -45.0625 59.625 -53.125 59.625 L -55.109375 59.625 C -58.773438 59.625 -62.109375 59.035156 -65.109375 57.859375 C -68.117188 56.679688 -70.648438 55.066406 -72.703125 53.015625 L -72.703125 67.546875 C -72.703125 70.691406 -72.375 73.160156 -71.71875 74.953125 C -71.0625 76.753906 -69.867188 78.039062 -68.140625 78.8125 C -66.421875 79.582031 -63.945312 80.078125 -60.71875 80.296875 C -52.363281 80.890625 -43.691406 81.1875 -34.703125 81.1875 C -25.722656 81.1875 -17.050781 80.890625 -8.6875 80.296875 C -5.457031 80.078125 -2.984375 79.582031 -1.265625 78.8125 C 0.453125 78.039062 1.640625 76.753906 2.296875 74.953125 C 2.960938 73.160156 3.296875 70.691406 3.296875 67.546875 Z M 9.6875 67.546875 "/>
</symbol>
</g>
</defs>
  <g id="id0:id0" transform="matrix(1.25,0,0,1.25,0.0,0.0)"><g id="id0:surface1">
<g style="fill:rgb(0%,0%,0%);fill-opacity:1;">
  <use xlink:href="#id0:glyph0-1" x="16" y="138.296875"/>
  <use xlink:href="#id0:glyph0-2" x="149.765625" y="138.296875"/>
  <use xlink:href="#id0:glyph0-3" x="148.65625" y="138.296875"/>
</g>
</g>
</g>
  <g id="id1:id1" transform="matrix(1.25,0,0,1.25,347.44140625,73.603515625)"><g id="id1:surface1">
<g style="fill:rgb(0%,0%,0%);fill-opacity:1;">
  <use xlink:href="#id1:glyph0-1" x="0" y="120.84375"/>
</g>
</g>
</g>
  <g id="id2:id2" transform="matrix(1.25,0,0,1.25,480.0390625,0.0)"><g id="id2:surface1">
<g style="fill:rgb(0%,0%,0%);fill-opacity:1;">
  <use xlink:href="#id2:glyph0-1" x="16" y="138.296875"/>
  <use xlink:href="#id2:glyph0-2" x="116.984375" y="138.296875"/>
</g>
</g>
</g>
</svg>
