<?xml version="1.0" standalone="no"?>
<!DOCTYPE svg PUBLIC "-//W3C//DTD SVG 1.1//EN"
 "http://www.w3.org/Graphics/SVG/1.1/DTD/svg11.dtd">
<!-- Created with svg_stack (http://github.com/astraw/svg_stack) -->
<svg xmlns="http://www.w3.org/2000/svg" xmlns:sodipodi="http://sodipodi.sourceforge.net/DTD/sodipodi-0.dtd" xmlns:xlink="http://www.w3.org/1999/xlink" version="1.1" width="738.69140625" height="348.61328125">
  <defs><g>
<symbol overflow="visible" id="id0:glyph0-0">
<path style="stroke:none;" d="M 10.34375 0 L 10.34375 -78.546875 L 55.546875 -78.546875 L 55.546875 0 Z M 15.953125 -72.9375 L 15.953125 -5.609375 L 49.9375 -5.609375 L 49.9375 -72.9375 Z M 15.953125 -72.9375 "/>
</symbol>
<symbol overflow="visible" id="id0:glyph0-1">
<path style="stroke:none;" d="M 73.265625 -7.59375 L 73.265625 36.078125 C 73.265625 41.867188 72.617188 46.140625 71.328125 48.890625 C 70.046875 51.640625 68.5625 53.640625 66.875 54.890625 C 64.09375 56.941406 60.351562 58.242188 55.65625 58.796875 C 50.96875 59.347656 45.726562 59.625 39.9375 59.625 C 34.207031 59.625 28.992188 59.347656 24.296875 58.796875 C 19.609375 58.242188 15.875 56.941406 13.09375 54.890625 C 11.332031 53.640625 9.804688 51.640625 8.515625 48.890625 C 7.234375 46.140625 6.59375 41.867188 6.59375 36.078125 L 6.59375 -95.046875 C 6.59375 -100.835938 7.234375 -105.109375 8.515625 -107.859375 C 9.804688 -110.609375 11.332031 -112.601562 13.09375 -113.84375 C 15.875 -115.976562 19.609375 -117.300781 24.296875 -117.8125 C 28.992188 -118.320312 34.207031 -118.578125 39.9375 -118.578125 C 45.726562 -118.578125 50.96875 -118.320312 55.65625 -117.8125 C 60.351562 -117.300781 64.09375 -115.976562 66.875 -113.84375 C 68.5625 -112.601562 70.046875 -110.609375 71.328125 -107.859375 C 72.617188 -105.109375 73.265625 -100.835938 73.265625 -95.046875 L 73.265625 -86.5625 L 64.90625 -86.5625 L 64.90625 -91.625 C 64.90625 -97.34375 63.179688 -101.007812 59.734375 -102.625 C 57.679688 -103.4375 54.820312 -103.953125 51.15625 -104.171875 C 47.488281 -104.390625 43.75 -104.5 39.9375 -104.5 C 36.113281 -104.5 32.367188 -104.390625 28.703125 -104.171875 C 25.035156 -103.953125 22.210938 -103.4375 20.234375 -102.625 C 16.710938 -101.007812 14.953125 -97.34375 14.953125 -91.625 L 14.953125 32.5625 C 14.953125 38.28125 16.75 41.945312 20.34375 43.5625 C 22.25 44.363281 25.035156 44.894531 28.703125 45.15625 C 32.367188 45.414062 36.113281 45.546875 39.9375 45.546875 C 43.75 45.546875 47.488281 45.414062 51.15625 45.15625 C 54.820312 44.894531 57.644531 44.328125 59.625 43.453125 C 63.144531 41.984375 64.90625 38.351562 64.90625 32.5625 L 64.90625 -7.59375 Z M 73.265625 -7.59375 "/>
</symbol>
<symbol overflow="visible" id="id0:glyph0-2">
<path style="stroke:none;" d="M 32.671875 -51.046875 C 31.859375 -51.046875 31.175781 -51.316406 30.625 -51.859375 C 30.082031 -52.410156 29.8125 -53.128906 29.8125 -54.015625 C 29.8125 -54.816406 30.082031 -55.492188 30.625 -56.046875 C 31.175781 -56.597656 31.859375 -56.875 32.671875 -56.875 C 33.472656 -56.875 34.148438 -56.597656 34.703125 -56.046875 C 35.253906 -55.492188 35.53125 -54.816406 35.53125 -54.015625 C 35.53125 -53.128906 35.253906 -52.410156 34.703125 -51.859375 C 34.148438 -51.316406 33.472656 -51.046875 32.671875 -51.046875 Z M 42.125 -49.171875 C 41.175781 -49.171875 40.425781 -49.441406 39.875 -49.984375 C 39.320312 -50.535156 39.046875 -51.21875 39.046875 -52.03125 C 39.046875 -54.007812 40.070312 -55 42.125 -55 C 43.957031 -55 44.875 -54.007812 44.875 -52.03125 C 44.875 -51.21875 44.617188 -50.535156 44.109375 -49.984375 C 43.597656 -49.441406 42.9375 -49.171875 42.125 -49.171875 Z M 23.3125 -49.171875 C 22.507812 -49.171875 21.832031 -49.441406 21.28125 -49.984375 C 20.726562 -50.535156 20.453125 -51.21875 20.453125 -52.03125 C 20.453125 -52.90625 20.726562 -53.617188 21.28125 -54.171875 C 21.832031 -54.722656 22.507812 -55 23.3125 -55 C 24.195312 -55 24.914062 -54.722656 25.46875 -54.171875 C 26.019531 -53.617188 26.296875 -52.90625 26.296875 -52.03125 C 26.296875 -51.21875 26.019531 -50.535156 25.46875 -49.984375 C 24.914062 -49.441406 24.195312 -49.171875 23.3125 -49.171875 Z M 50.046875 -43.890625 C 49.171875 -43.890625 48.457031 -44.164062 47.90625 -44.71875 C 47.351562 -45.269531 47.078125 -45.945312 47.078125 -46.75 C 47.078125 -47.625 47.351562 -48.335938 47.90625 -48.890625 C 48.457031 -49.441406 49.171875 -49.71875 50.046875 -49.71875 C 51.878906 -49.71875 52.796875 -48.726562 52.796875 -46.75 C 52.796875 -45.945312 52.539062 -45.269531 52.03125 -44.71875 C 51.519531 -44.164062 50.859375 -43.890625 50.046875 -43.890625 Z M 15.40625 -43.890625 C 14.59375 -43.890625 13.910156 -44.144531 13.359375 -44.65625 C 12.816406 -45.175781 12.546875 -45.835938 12.546875 -46.640625 C 12.546875 -47.585938 12.816406 -48.335938 13.359375 -48.890625 C 13.910156 -49.441406 14.59375 -49.71875 15.40625 -49.71875 C 16.28125 -49.71875 16.992188 -49.441406 17.546875 -48.890625 C 18.097656 -48.335938 18.375 -47.625 18.375 -46.75 C 18.375 -45.945312 18.097656 -45.269531 17.546875 -44.71875 C 16.992188 -44.164062 16.28125 -43.890625 15.40625 -43.890625 Z M 55.21875 -35.859375 C 54.414062 -35.859375 53.738281 -36.132812 53.1875 -36.6875 C 52.632812 -37.238281 52.359375 -37.953125 52.359375 -38.828125 C 52.359375 -39.640625 52.632812 -40.316406 53.1875 -40.859375 C 53.738281 -41.410156 54.453125 -41.6875 55.328125 -41.6875 C 56.140625 -41.6875 56.816406 -41.410156 57.359375 -40.859375 C 57.910156 -40.316406 58.1875 -39.640625 58.1875 -38.828125 C 58.1875 -37.953125 57.910156 -37.238281 57.359375 -36.6875 C 56.816406 -36.132812 56.101562 -35.859375 55.21875 -35.859375 Z M 10.234375 -35.859375 C 8.179688 -35.859375 7.15625 -36.847656 7.15625 -38.828125 C 7.15625 -39.640625 7.425781 -40.316406 7.96875 -40.859375 C 8.519531 -41.410156 9.238281 -41.6875 10.125 -41.6875 C 10.925781 -41.6875 11.601562 -41.410156 12.15625 -40.859375 C 12.707031 -40.316406 12.984375 -39.640625 12.984375 -38.828125 C 12.984375 -36.847656 12.066406 -35.859375 10.234375 -35.859375 Z M 57.3125 -26.625 C 56.425781 -26.625 55.707031 -26.894531 55.15625 -27.4375 C 54.613281 -27.988281 54.34375 -28.671875 54.34375 -29.484375 C 54.34375 -30.285156 54.613281 -30.960938 55.15625 -31.515625 C 55.707031 -32.066406 56.425781 -32.34375 57.3125 -32.34375 C 58.113281 -32.34375 58.769531 -32.066406 59.28125 -31.515625 C 59.800781 -30.960938 60.0625 -30.285156 60.0625 -29.484375 C 60.0625 -28.671875 59.800781 -27.988281 59.28125 -27.4375 C 58.769531 -26.894531 58.113281 -26.625 57.3125 -26.625 Z M 8.25 -26.625 C 7.375 -26.625 6.660156 -26.894531 6.109375 -27.4375 C 5.554688 -27.988281 5.28125 -28.671875 5.28125 -29.484375 C 5.28125 -30.285156 5.554688 -30.960938 6.109375 -31.515625 C 6.660156 -32.066406 7.375 -32.34375 8.25 -32.34375 C 9.050781 -32.34375 9.726562 -32.066406 10.28125 -31.515625 C 10.832031 -30.960938 11.109375 -30.285156 11.109375 -29.484375 C 11.109375 -28.671875 10.832031 -27.988281 10.28125 -27.4375 C 9.726562 -26.894531 9.050781 -26.625 8.25 -26.625 Z M 55.21875 -17.265625 C 54.414062 -17.265625 53.738281 -17.539062 53.1875 -18.09375 C 52.632812 -18.644531 52.359375 -19.320312 52.359375 -20.125 C 52.359375 -21.007812 52.632812 -21.722656 53.1875 -22.265625 C 53.738281 -22.816406 54.414062 -23.09375 55.21875 -23.09375 C 56.101562 -23.09375 56.816406 -22.816406 57.359375 -22.265625 C 57.910156 -21.722656 58.1875 -21.007812 58.1875 -20.125 C 58.1875 -19.320312 57.910156 -18.644531 57.359375 -18.09375 C 56.816406 -17.539062 56.101562 -17.265625 55.21875 -17.265625 Z M 10.125 -17.265625 C 9.238281 -17.265625 8.519531 -17.539062 7.96875 -18.09375 C 7.425781 -18.644531 7.15625 -19.320312 7.15625 -20.125 C 7.15625 -21.007812 7.425781 -21.722656 7.96875 -22.265625 C 8.519531 -22.816406 9.238281 -23.09375 10.125 -23.09375 C 10.925781 -23.09375 11.601562 -22.816406 12.15625 -22.265625 C 12.707031 -21.722656 12.984375 -21.007812 12.984375 -20.125 C 12.984375 -19.320312 12.707031 -18.644531 12.15625 -18.09375 C 11.601562 -17.539062 10.925781 -17.265625 10.125 -17.265625 Z M 50.046875 -9.234375 C 49.171875 -9.234375 48.457031 -9.507812 47.90625 -10.0625 C 47.351562 -10.613281 47.078125 -11.289062 47.078125 -12.09375 C 47.078125 -12.976562 47.351562 -13.691406 47.90625 -14.234375 C 48.457031 -14.785156 49.171875 -15.0625 50.046875 -15.0625 C 51.878906 -15.0625 52.796875 -14.070312 52.796875 -12.09375 C 52.796875 -11.289062 52.539062 -10.613281 52.03125 -10.0625 C 51.519531 -9.507812 50.859375 -9.234375 50.046875 -9.234375 Z M 15.40625 -9.234375 C 14.59375 -9.234375 13.910156 -9.507812 13.359375 -10.0625 C 12.816406 -10.613281 12.546875 -11.289062 12.546875 -12.09375 C 12.546875 -12.976562 12.816406 -13.691406 13.359375 -14.234375 C 13.910156 -14.785156 14.59375 -15.0625 15.40625 -15.0625 C 16.28125 -15.0625 16.992188 -14.785156 17.546875 -14.234375 C 18.097656 -13.691406 18.375 -12.976562 18.375 -12.09375 C 18.375 -11.289062 18.097656 -10.613281 17.546875 -10.0625 C 16.992188 -9.507812 16.28125 -9.234375 15.40625 -9.234375 Z M 42.125 -4.0625 C 40.070312 -4.0625 39.046875 -4.976562 39.046875 -6.8125 C 39.046875 -8.800781 40.070312 -9.796875 42.125 -9.796875 C 43.957031 -9.796875 44.875 -8.800781 44.875 -6.8125 C 44.875 -4.976562 43.957031 -4.0625 42.125 -4.0625 Z M 23.3125 -4.0625 C 22.507812 -4.0625 21.832031 -4.316406 21.28125 -4.828125 C 20.726562 -5.347656 20.453125 -6.007812 20.453125 -6.8125 C 20.453125 -7.695312 20.726562 -8.414062 21.28125 -8.96875 C 21.832031 -9.519531 22.507812 -9.796875 23.3125 -9.796875 C 25.300781 -9.796875 26.296875 -8.878906 26.296875 -7.046875 C 26.296875 -6.160156 26.019531 -5.441406 25.46875 -4.890625 C 24.914062 -4.335938 24.195312 -4.0625 23.3125 -4.0625 Z M 32.671875 -2.09375 C 31.859375 -2.09375 31.175781 -2.363281 30.625 -2.90625 C 30.082031 -3.457031 29.8125 -4.175781 29.8125 -5.0625 C 29.8125 -5.863281 30.082031 -6.539062 30.625 -7.09375 C 31.175781 -7.644531 31.859375 -7.921875 32.671875 -7.921875 C 33.472656 -7.921875 34.148438 -7.644531 34.703125 -7.09375 C 35.253906 -6.539062 35.53125 -5.863281 35.53125 -5.0625 C 35.53125 -4.175781 35.253906 -3.457031 34.703125 -2.90625 C 34.148438 -2.363281 33.472656 -2.09375 32.671875 -2.09375 Z M 32.671875 -2.09375 "/>
</symbol>
<symbol overflow="visible" id="id0:glyph0-3">
<path style="stroke:none;" d="M 13.640625 -35.53125 L 6.375 -35.53125 C 6.59375 -40.445312 7.835938 -44.738281 10.109375 -48.40625 C 12.390625 -52.070312 15.507812 -54.929688 19.46875 -56.984375 C 23.425781 -59.035156 28.007812 -60.0625 33.21875 -60.0625 L 35.75 -60.0625 C 40.664062 -60.0625 44.957031 -59.195312 48.625 -57.46875 C 52.289062 -55.75 55.257812 -53.421875 57.53125 -50.484375 C 59.582031 -47.921875 61.046875 -44.914062 61.921875 -41.46875 C 62.804688 -38.019531 63.25 -34.023438 63.25 -29.484375 C 63.25 -24.710938 62.769531 -20.640625 61.8125 -17.265625 C 63.726562 -15.722656 66.078125 -14.625 68.859375 -13.96875 C 71.648438 -13.3125 74.726562 -12.984375 78.09375 -12.984375 C 82.28125 -12.984375 85.984375 -13.492188 89.203125 -14.515625 C 92.429688 -15.546875 94.941406 -17.234375 96.734375 -19.578125 C 98.535156 -21.921875 99.4375 -25.039062 99.4375 -28.9375 L 99.4375 -30.03125 C 99.4375 -33.988281 98.535156 -37.125 96.734375 -39.4375 C 94.941406 -41.75 92.429688 -43.414062 89.203125 -44.4375 C 85.984375 -45.46875 82.28125 -45.984375 78.09375 -45.984375 L 72.265625 -45.984375 L 72.265625 -59.734375 C 74.023438 -59.953125 76.117188 -60.0625 78.546875 -60.0625 C 83.742188 -60.0625 88.210938 -59.195312 91.953125 -57.46875 C 95.691406 -55.75 98.703125 -53.421875 100.984375 -50.484375 C 103.035156 -47.921875 104.5 -44.914062 105.375 -41.46875 C 106.257812 -38.019531 106.703125 -34.023438 106.703125 -29.484375 C 106.703125 -24.710938 106.222656 -20.640625 105.265625 -17.265625 C 107.171875 -15.722656 109.515625 -14.625 112.296875 -13.96875 C 115.085938 -13.3125 118.171875 -12.984375 121.546875 -12.984375 C 125.722656 -12.984375 129.40625 -13.492188 132.59375 -14.515625 C 135.789062 -15.546875 138.304688 -17.234375 140.140625 -19.578125 C 141.972656 -21.921875 142.890625 -25.039062 142.890625 -28.9375 L 142.890625 -30.03125 C 142.890625 -33.988281 141.972656 -37.125 140.140625 -39.4375 C 138.304688 -41.75 135.789062 -43.414062 132.59375 -44.4375 C 129.40625 -45.46875 125.722656 -45.984375 121.546875 -45.984375 L 115.71875 -45.984375 L 115.71875 -59.734375 C 117.476562 -59.953125 119.566406 -60.0625 121.984375 -60.0625 C 127.191406 -60.0625 131.664062 -59.195312 135.40625 -57.46875 C 139.144531 -55.75 142.15625 -53.421875 144.4375 -50.484375 C 146.488281 -47.921875 147.953125 -44.914062 148.828125 -41.46875 C 149.710938 -38.019531 150.15625 -34.023438 150.15625 -29.484375 C 150.15625 -24.929688 149.710938 -20.929688 148.828125 -17.484375 C 147.953125 -14.035156 146.488281 -11.03125 144.4375 -8.46875 C 142.15625 -5.53125 139.179688 -3.203125 135.515625 -1.484375 C 131.847656 0.234375 127.5625 1.09375 122.65625 1.09375 L 120.453125 1.09375 C 115.828125 1.09375 111.753906 0.34375 108.234375 -1.15625 C 104.710938 -2.65625 101.890625 -4.617188 99.765625 -7.046875 C 97.492188 -4.546875 94.613281 -2.5625 91.125 -1.09375 C 87.644531 0.363281 83.671875 1.09375 79.203125 1.09375 L 77 1.09375 C 72.375 1.09375 68.300781 0.34375 64.78125 -1.15625 C 61.269531 -2.65625 58.445312 -4.617188 56.3125 -7.046875 C 54.039062 -4.546875 51.160156 -2.5625 47.671875 -1.09375 C 44.191406 0.363281 40.21875 1.09375 35.75 1.09375 L 33.546875 1.09375 C 28.410156 1.09375 24.082031 0.269531 20.5625 -1.375 C 17.050781 -3.019531 14.265625 -5.125 12.203125 -7.6875 C 10.148438 -10.257812 8.664062 -12.957031 7.75 -15.78125 C 6.832031 -18.601562 6.375 -21.15625 6.375 -23.4375 L 13.640625 -23.4375 C 14.078125 -20.28125 16.128906 -17.75 19.796875 -15.84375 C 23.460938 -13.9375 28.414062 -12.984375 34.65625 -12.984375 C 38.832031 -12.984375 42.53125 -13.492188 45.75 -14.515625 C 48.976562 -15.546875 51.488281 -17.234375 53.28125 -19.578125 C 55.082031 -21.921875 55.984375 -25.039062 55.984375 -28.9375 L 55.984375 -30.03125 C 55.984375 -33.988281 55.082031 -37.125 53.28125 -39.4375 C 51.488281 -41.75 48.976562 -43.414062 45.75 -44.4375 C 42.53125 -45.46875 38.832031 -45.984375 34.65625 -45.984375 C 28.414062 -45.984375 23.460938 -45.046875 19.796875 -43.171875 C 16.128906 -41.304688 14.078125 -38.757812 13.640625 -35.53125 Z M 13.640625 -35.53125 "/>
</symbol>
</g>
<g>
<symbol overflow="visible" id="id1:glyph0-0">
<path style="stroke:none;" d="M 5.375 -96.6875 L 69.828125 -96.6875 L 69.828125 0 L 5.375 0 Z M 8.0625 -2.6875 L 67.140625 -2.6875 L 67.140625 -94 L 8.0625 -94 Z M 8.0625 -2.6875 "/>
</symbol>
<symbol overflow="visible" id="id1:glyph0-1">
<path style="stroke:none;" d="M 68.15625 -13.75 L 66.28125 -18.640625 L 88.09375 -27.390625 L 6.984375 -27.390625 L 6.984375 -34 L 88.09375 -34 L 66.28125 -42.75 L 68.15625 -47.640625 L 99.09375 -34.265625 L 99.09375 -27.125 Z M 68.15625 -13.75 "/>
</symbol>
</g>
<g>
<symbol overflow="visible" id="id2:glyph0-0">
<path style="stroke:none;" d="M 10.34375 0 L 10.34375 -78.546875 L 55.546875 -78.546875 L 55.546875 0 Z M 15.953125 -72.9375 L 15.953125 -5.609375 L 49.9375 -5.609375 L 49.9375 -72.9375 Z M 15.953125 -72.9375 "/>
</symbol>
<symbol overflow="visible" id="id2:glyph0-1">
<path style="stroke:none;" d="M 160.15625 -7.59375 L 160.15625 35.859375 C 160.15625 41.648438 159.3125 45.972656 157.625 48.828125 C 155.9375 51.691406 153.847656 53.820312 151.359375 55.21875 C 149.597656 56.25 147.269531 57.054688 144.375 57.640625 C 141.476562 58.222656 137.5 58.660156 132.4375 58.953125 C 127.375 59.253906 120.882812 59.441406 112.96875 59.515625 C 105.050781 59.585938 95.222656 59.625 83.484375 59.625 C 71.753906 59.625 61.925781 59.585938 54 59.515625 C 46.082031 59.441406 39.613281 59.253906 34.59375 58.953125 C 29.570312 58.660156 25.59375 58.222656 22.65625 57.640625 C 19.726562 57.054688 17.382812 56.25 15.625 55.21875 C 13.125 53.820312 10.992188 51.691406 9.234375 48.828125 C 7.472656 45.972656 6.59375 41.648438 6.59375 35.859375 L 6.59375 -94.9375 C 6.59375 -100.726562 7.472656 -105.035156 9.234375 -107.859375 C 10.992188 -110.679688 13.125 -112.789062 15.625 -114.1875 C 17.382812 -115.207031 19.726562 -116.007812 22.65625 -116.59375 C 25.59375 -117.1875 29.570312 -117.628906 34.59375 -117.921875 C 39.613281 -118.210938 46.082031 -118.394531 54 -118.46875 C 61.925781 -118.539062 71.753906 -118.578125 83.484375 -118.578125 C 95.222656 -118.578125 105.050781 -118.539062 112.96875 -118.46875 C 120.882812 -118.394531 127.375 -118.210938 132.4375 -117.921875 C 137.5 -117.628906 141.476562 -117.1875 144.375 -116.59375 C 147.269531 -116.007812 149.597656 -115.207031 151.359375 -114.1875 C 153.847656 -112.789062 155.9375 -110.679688 157.625 -107.859375 C 159.3125 -105.035156 160.15625 -100.726562 160.15625 -94.9375 L 160.15625 -86.34375 L 151.796875 -86.34375 L 151.796875 -90.859375 C 151.796875 -93.941406 151.191406 -96.414062 149.984375 -98.28125 C 148.773438 -100.15625 146.8125 -101.492188 144.09375 -102.296875 C 142.488281 -102.734375 140.398438 -103.082031 137.828125 -103.34375 C 135.265625 -103.601562 131.765625 -103.804688 127.328125 -103.953125 C 122.890625 -104.097656 117.113281 -104.1875 110 -104.21875 C 102.882812 -104.257812 94.046875 -104.28125 83.484375 -104.28125 C 72.929688 -104.28125 64.097656 -104.257812 56.984375 -104.21875 C 49.867188 -104.1875 44.09375 -104.097656 39.65625 -103.953125 C 35.21875 -103.804688 31.695312 -103.601562 29.09375 -103.34375 C 26.488281 -103.082031 24.378906 -102.734375 22.765625 -102.296875 C 17.554688 -100.679688 14.953125 -96.867188 14.953125 -90.859375 L 14.953125 31.6875 C 14.953125 37.769531 17.59375 41.617188 22.875 43.234375 C 24.414062 43.671875 26.46875 44.015625 29.03125 44.265625 C 31.601562 44.523438 35.125 44.742188 39.59375 44.921875 C 44.070312 45.109375 49.867188 45.21875 56.984375 45.25 C 64.097656 45.289062 72.929688 45.3125 83.484375 45.3125 C 94.046875 45.3125 102.882812 45.273438 110 45.203125 C 117.113281 45.128906 122.890625 45.019531 127.328125 44.875 C 131.765625 44.726562 135.265625 44.507812 137.828125 44.21875 C 140.398438 43.925781 142.453125 43.5625 143.984375 43.125 C 146.773438 42.3125 148.773438 40.96875 149.984375 39.09375 C 151.191406 37.226562 151.796875 34.757812 151.796875 31.6875 L 151.796875 -7.59375 Z M 160.15625 -7.59375 "/>
</symbol>
<symbol overflow="visible" id="id2:glyph0-2">
<path style="stroke:none;" d="M 13.640625 -35.53125 L 6.375 -35.53125 C 6.59375 -40.445312 7.835938 -44.738281 10.109375 -48.40625 C 12.390625 -52.070312 15.507812 -54.929688 19.46875 -56.984375 C 23.425781 -59.035156 28.007812 -60.0625 33.21875 -60.0625 L 35.75 -60.0625 C 40.664062 -60.0625 44.957031 -59.195312 48.625 -57.46875 C 52.289062 -55.75 55.257812 -53.421875 57.53125 -50.484375 C 59.582031 -47.921875 61.046875 -44.914062 61.921875 -41.46875 C 62.804688 -38.019531 63.25 -34.023438 63.25 -29.484375 C 63.25 -24.710938 62.769531 -20.640625 61.8125 -17.265625 C 63.726562 -15.722656 66.078125 -14.625 68.859375 -13.96875 C 71.648438 -13.3125 74.726562 -12.984375 78.09375 -12.984375 C 82.28125 -12.984375 85.984375 -13.492188 89.203125 -14.515625 C 92.429688 -15.546875 94.941406 -17.234375 96.734375 -19.578125 C 98.535156 -21.921875 99.4375 -25.039062 99.4375 -28.9375 L 99.4375 -30.03125 C 99.4375 -33.988281 98.535156 -37.125 96.734375 -39.4375 C 94.941406 -41.75 92.429688 -43.414062 89.203125 -44.4375 C 85.984375 -45.46875 82.28125 -45.984375 78.09375 -45.984375 L 72.265625 -45.984375 L 72.265625 -59.734375 C 74.023438 -59.953125 76.117188 -60.0625 78.546875 -60.0625 C 83.742188 -60.0625 88.210938 -59.195312 91.953125 -57.46875 C 95.691406 -55.75 98.703125 -53.421875 100.984375 -50.484375 C 103.035156 -47.921875 104.5 -44.914062 105.375 -41.46875 C 106.257812 -38.019531 106.703125 -34.023438 106.703125 -29.484375 C 106.703125 -24.710938 106.222656 -20.640625 105.265625 -17.265625 C 107.171875 -15.722656 109.515625 -14.625 112.296875 -13.96875 C 115.085938 -13.3125 118.171875 -12.984375 121.546875 -12.984375 C 125.722656 -12.984375 129.40625 -13.492188 132.59375 -14.515625 C 135.789062 -15.546875 138.304688 -17.234375 140.140625 -19.578125 C 141.972656 -21.921875 142.890625 -25.039062 142.890625 -28.9375 L 142.890625 -30.03125 C 142.890625 -33.988281 141.972656 -37.125 140.140625 -39.4375 C 138.304688 -41.75 135.789062 -43.414062 132.59375 -44.4375 C 129.40625 -45.46875 125.722656 -45.984375 121.546875 -45.984375 L 115.71875 -45.984375 L 115.71875 -59.734375 C 117.476562 -59.953125 119.566406 -60.0625 121.984375 -60.0625 C 127.191406 -60.0625 131.664062 -59.195312 135.40625 -57.46875 C 139.144531 -55.75 142.15625 -53.421875 144.4375 -50.484375 C 146.488281 -47.921875 147.953125 -44.914062 148.828125 -41.46875 C 149.710938 -38.019531 150.15625 -34.023438 150.15625 -29.484375 C 150.15625 -24.929688 149.710938 -20.929688 148.828125 -17.484375 C 147.953125 -14.035156 146.488281 -11.03125 144.4375 -8.46875 C 142.15625 -5.53125 139.179688 -3.203125 135.515625 -1.484375 C 131.847656 0.234375 127.5625 1.09375 122.65625 1.09375 L 120.453125 1.09375 C 115.828125 1.09375 111.753906 0.34375 108.234375 -1.15625 C 104.710938 -2.65625 101.890625 -4.617188 99.765625 -7.046875 C 97.492188 -4.546875 94.613281 -2.5625 91.125 -1.09375 C 87.644531 0.363281 83.671875 1.09375 79.203125 1.09375 L 77 1.09375 C 72.375 1.09375 68.300781 0.34375 64.78125 -1.15625 C 61.269531 -2.65625 58.445312 -4.617188 56.3125 -7.046875 C 54.039062 -4.546875 51.160156 -2.5625 47.671875 -1.09375 C 44.191406 0.363281 40.21875 1.09375 35.75 1.09375 L 33.546875 1.09375 C 28.410156 1.09375 24.082031 0.269531 20.5625 -1.375 C 17.050781 -3.019531 14.265625 -5.125 12.203125 -7.6875 C 10.148438 -10.257812 8.664062 -12.957031 7.75 -15.78125 C 6.832031 -18.601562 6.375 -21.15625 6.375 -23.4375 L 13.640625 -23.4375 C 14.078125 -20.28125 16.128906 -17.75 19.796875 -15.84375 C 23.460938 -13.9375 28.414062 -12.984375 34.65625 -12.984375 C 38.832031 -12.984375 42.53125 -13.492188 45.75 -14.515625 C 48.976562 -15.546875 51.488281 -17.234375 53.28125 -19.578125 C 55.082031 -21.921875 55.984375 -25.039062 55.984375 -28.9375 L 55.984375 -30.03125 C 55.984375 -33.988281 55.082031 -37.125 53.28125 -39.4375 C 51.488281 -41.75 48.976562 -43.414062 45.75 -44.4375 C 42.53125 -45.46875 38.832031 -45.984375 34.65625 -45.984375 C 28.414062 -45.984375 23.460938 -45.046875 19.796875 -43.171875 C 16.128906 -41.304688 14.078125 -38.757812 13.640625 -35.53125 Z M 13.640625 -35.53125 "/>
</symbol>
</g>
</defs>
  <g id="id0:id0" transform="matrix(1.25,0,0,1.25,0.0,0.0)"><g id="id0:surface1">
<g style="fill:rgb(0%,0%,0%);fill-opacity:1;">
  <use xlink:href="#id0:glyph0-1" x="16" y="138.296875"/>
  <use xlink:href="#id0:glyph0-2" x="37.5625" y="138.296875"/>
  <use xlink:href="#id0:glyph0-3" x="102.90625" y="138.296875"/>
</g>
</g>
</g>
  <g id="id1:id1" transform="matrix(1.25,0,0,1.25,343.88671875,73.603515625)"><g id="id1:surface1">
<g style="fill:rgb(0%,0%,0%);fill-opacity:1;">
  <use xlink:href="#id1:glyph0-1" x="0" y="120.84375"/>
</g>
</g>
</g>
  <g id="id2:id2" transform="matrix(1.25,0,0,1.25,476.484375,0.0)"><g id="id2:surface1">
<g style="fill:rgb(0%,0%,0%);fill-opacity:1;">
  <use xlink:href="#id2:glyph0-1" x="16" y="138.296875"/>
  <use xlink:href="#id2:glyph0-2" x="37.5625" y="138.296875"/>
</g>
</g>
</g>
</svg>
