<!DOCTYPE svg PUBLIC "-//W3C//DTD SVG 1.1//EN" "http://www.w3.org/Graphics/SVG/1.1/DTD/svg11.dtd">
<!-- Created with svg_stack (http://github.com/astraw/svg_stack) --><svg xmlns="http://www.w3.org/2000/svg" xmlns:sodipodi="http://sodipodi.sourceforge.net/DTD/sodipodi-0.dtd" xmlns:xlink="http://www.w3.org/1999/xlink" version="1.1" width="543.14453125" height="305.29296875" id="myanmar-medial-ra">
  <defs><g>
<symbol overflow="visible" id="myanmar-medial-ra:id0:glyph0-0">
<path style="stroke:none;" d="M 10.34375 0 L 10.34375 -78.546875 L 55.546875 -78.546875 L 55.546875 0 Z M 15.953125 -72.9375 L 15.953125 -5.609375 L 49.9375 -5.609375 L 49.9375 -72.9375 Z M 15.953125 -72.9375 "/>
</symbol>
<symbol overflow="visible" id="myanmar-medial-ra:id0:glyph0-1">
<path style="stroke:none;" d="M 37.1875 1.09375 C 31.164062 1.09375 25.804688 -0.257812 21.109375 -2.96875 C 16.421875 -5.6875 12.738281 -9.425781 10.0625 -14.1875 C 7.382812 -18.957031 6.046875 -24.421875 6.046875 -30.578125 C 6.046875 -36.660156 7.3125 -42.320312 9.84375 -47.5625 C 12.375 -52.8125 15.765625 -56.976562 20.015625 -60.0625 L 26.40625 -54.453125 C 25.957031 -53.273438 25.734375 -52.023438 25.734375 -50.703125 C 25.734375 -47.628906 26.816406 -45.007812 28.984375 -42.84375 C 31.148438 -40.675781 33.769531 -39.59375 36.84375 -39.59375 C 39.851562 -39.59375 42.4375 -40.675781 44.59375 -42.84375 C 46.757812 -45.007812 47.84375 -47.628906 47.84375 -50.703125 C 47.84375 -52.171875 47.585938 -53.457031 47.078125 -54.5625 L 53.453125 -60.28125 C 56.460938 -58.300781 59.085938 -55.734375 61.328125 -52.578125 C 63.566406 -49.421875 65.289062 -45.953125 66.5 -42.171875 C 67.707031 -38.398438 68.3125 -34.535156 68.3125 -30.578125 C 68.3125 -24.347656 66.953125 -18.847656 64.234375 -14.078125 C 61.523438 -9.316406 57.820312 -5.597656 53.125 -2.921875 C 48.4375 -0.242188 43.125 1.09375 37.1875 1.09375 Z M 36.84375 -31.453125 C 32.664062 -31.453125 28.945312 -32.644531 25.6875 -35.03125 C 22.425781 -37.414062 20.097656 -40.441406 18.703125 -44.109375 C 16.941406 -40.296875 16.0625 -35.859375 16.0625 -30.796875 C 16.0625 -23.460938 18.003906 -17.671875 21.890625 -13.421875 C 25.773438 -9.171875 30.875 -7.046875 37.1875 -7.046875 C 43.488281 -7.046875 48.5625 -9.1875 52.40625 -13.46875 C 56.257812 -17.757812 58.1875 -23.535156 58.1875 -30.796875 C 58.1875 -36.148438 57.160156 -40.804688 55.109375 -44.765625 C 53.859375 -40.953125 51.566406 -37.78125 48.234375 -35.25 C 44.898438 -32.71875 41.101562 -31.453125 36.84375 -31.453125 Z M 36.84375 -31.453125 "/>
</symbol>
<symbol overflow="visible" id="myanmar-medial-ra:id0:glyph0-2">
<path style="stroke:none;" d=""/>
</symbol>
<symbol overflow="visible" id="myanmar-medial-ra:id0:glyph0-3">
<path style="stroke:none;" d="M 32.5625 51.265625 C 17.53125 51.265625 10.015625 43.414062 10.015625 27.71875 L 10.015625 -86.796875 C 10.015625 -102.484375 17.53125 -110.328125 32.5625 -110.328125 L 67.984375 -110.328125 C 83.085938 -110.328125 90.640625 -102.484375 90.640625 -86.796875 L 90.640625 -83.59375 L 80.84375 -83.59375 L 80.84375 -88.65625 C 80.84375 -92.988281 79.832031 -96.363281 77.8125 -98.78125 C 75.800781 -101.195312 72.707031 -102.40625 68.53125 -102.40625 L 32.125 -102.40625 C 27.863281 -102.40625 24.757812 -101.195312 22.8125 -98.78125 C 20.875 -96.363281 19.90625 -92.988281 19.90625 -88.65625 L 19.90625 29.484375 C 19.90625 33.878906 20.875 37.285156 22.8125 39.703125 C 24.757812 42.128906 27.863281 43.34375 32.125 43.34375 L 68.53125 43.34375 C 72.707031 43.34375 75.800781 42.128906 77.8125 39.703125 C 79.832031 37.285156 80.84375 33.878906 80.84375 29.484375 L 80.84375 -16.828125 L 90.640625 -16.828125 L 90.640625 27.71875 C 90.640625 43.414062 83.085938 51.265625 67.984375 51.265625 Z M 32.5625 51.265625 "/>
</symbol>
<symbol overflow="visible" id="myanmar-medial-ra:id0:glyph0-4">
<path style="stroke:none;" d="M 32.671875 -53.5625 C 30.765625 -53.5625 29.8125 -54.554688 29.8125 -56.546875 C 29.8125 -58.453125 30.765625 -59.40625 32.671875 -59.40625 C 34.578125 -59.40625 35.53125 -58.453125 35.53125 -56.546875 C 35.53125 -54.554688 34.578125 -53.5625 32.671875 -53.5625 Z M 42.125 -51.703125 C 40.070312 -51.703125 39.046875 -52.65625 39.046875 -54.5625 C 39.046875 -56.539062 40.070312 -57.53125 42.125 -57.53125 C 43.957031 -57.53125 44.875 -56.539062 44.875 -54.5625 C 44.875 -52.65625 43.957031 -51.703125 42.125 -51.703125 Z M 23.3125 -51.703125 C 21.40625 -51.703125 20.453125 -52.65625 20.453125 -54.5625 C 20.453125 -56.539062 21.40625 -57.53125 23.3125 -57.53125 C 25.300781 -57.53125 26.296875 -56.539062 26.296875 -54.5625 C 26.296875 -52.65625 25.300781 -51.703125 23.3125 -51.703125 Z M 50.046875 -46.421875 C 48.066406 -46.421875 47.078125 -47.375 47.078125 -49.28125 C 47.078125 -51.257812 48.066406 -52.25 50.046875 -52.25 C 51.878906 -52.25 52.796875 -51.257812 52.796875 -49.28125 C 52.796875 -47.375 51.878906 -46.421875 50.046875 -46.421875 Z M 15.40625 -46.421875 C 13.5 -46.421875 12.546875 -47.335938 12.546875 -49.171875 C 12.546875 -51.222656 13.5 -52.25 15.40625 -52.25 C 17.382812 -52.25 18.375 -51.257812 18.375 -49.28125 C 18.375 -47.375 17.382812 -46.421875 15.40625 -46.421875 Z M 55.21875 -38.390625 C 53.3125 -38.390625 52.359375 -39.378906 52.359375 -41.359375 C 52.359375 -43.265625 53.347656 -44.21875 55.328125 -44.21875 C 57.234375 -44.21875 58.1875 -43.265625 58.1875 -41.359375 C 58.1875 -39.378906 57.195312 -38.390625 55.21875 -38.390625 Z M 10.234375 -38.390625 C 8.179688 -38.390625 7.15625 -39.378906 7.15625 -41.359375 C 7.15625 -43.265625 8.144531 -44.21875 10.125 -44.21875 C 12.03125 -44.21875 12.984375 -43.265625 12.984375 -41.359375 C 12.984375 -39.378906 12.066406 -38.390625 10.234375 -38.390625 Z M 57.3125 -29.15625 C 55.332031 -29.15625 54.34375 -30.109375 54.34375 -32.015625 C 54.34375 -33.921875 55.332031 -34.875 57.3125 -34.875 C 59.144531 -34.875 60.0625 -33.921875 60.0625 -32.015625 C 60.0625 -30.109375 59.144531 -29.15625 57.3125 -29.15625 Z M 8.25 -29.15625 C 6.269531 -29.15625 5.28125 -30.109375 5.28125 -32.015625 C 5.28125 -33.921875 6.269531 -34.875 8.25 -34.875 C 10.15625 -34.875 11.109375 -33.921875 11.109375 -32.015625 C 11.109375 -30.109375 10.15625 -29.15625 8.25 -29.15625 Z M 55.21875 -19.796875 C 53.3125 -19.796875 52.359375 -20.75 52.359375 -22.65625 C 52.359375 -24.632812 53.3125 -25.625 55.21875 -25.625 C 57.195312 -25.625 58.1875 -24.632812 58.1875 -22.65625 C 58.1875 -20.75 57.195312 -19.796875 55.21875 -19.796875 Z M 10.125 -19.796875 C 8.144531 -19.796875 7.15625 -20.75 7.15625 -22.65625 C 7.15625 -24.632812 8.144531 -25.625 10.125 -25.625 C 12.03125 -25.625 12.984375 -24.632812 12.984375 -22.65625 C 12.984375 -20.75 12.03125 -19.796875 10.125 -19.796875 Z M 50.046875 -11.765625 C 48.066406 -11.765625 47.078125 -12.71875 47.078125 -14.625 C 47.078125 -16.601562 48.066406 -17.59375 50.046875 -17.59375 C 51.878906 -17.59375 52.796875 -16.601562 52.796875 -14.625 C 52.796875 -12.71875 51.878906 -11.765625 50.046875 -11.765625 Z M 15.40625 -11.765625 C 13.5 -11.765625 12.546875 -12.71875 12.546875 -14.625 C 12.546875 -16.601562 13.5 -17.59375 15.40625 -17.59375 C 17.382812 -17.59375 18.375 -16.601562 18.375 -14.625 C 18.375 -12.71875 17.382812 -11.765625 15.40625 -11.765625 Z M 42.125 -6.59375 C 40.070312 -6.59375 39.046875 -7.507812 39.046875 -9.34375 C 39.046875 -11.320312 40.070312 -12.3125 42.125 -12.3125 C 43.957031 -12.3125 44.875 -11.320312 44.875 -9.34375 C 44.875 -7.507812 43.957031 -6.59375 42.125 -6.59375 Z M 23.3125 -6.59375 C 21.40625 -6.59375 20.453125 -7.507812 20.453125 -9.34375 C 20.453125 -11.320312 21.40625 -12.3125 23.3125 -12.3125 C 25.300781 -12.3125 26.296875 -11.394531 26.296875 -9.5625 C 26.296875 -7.582031 25.300781 -6.59375 23.3125 -6.59375 Z M 32.671875 -4.625 C 30.765625 -4.625 29.8125 -5.613281 29.8125 -7.59375 C 29.8125 -9.5 30.765625 -10.453125 32.671875 -10.453125 C 34.578125 -10.453125 35.53125 -9.5 35.53125 -7.59375 C 35.53125 -5.613281 34.578125 -4.625 32.671875 -4.625 Z M 32.671875 -4.625 "/>
</symbol>
</g>
<g>
<symbol overflow="visible" id="myanmar-medial-ra:id1:glyph0-0">
<path style="stroke:none;" d="M 5.375 -96.6875 L 69.828125 -96.6875 L 69.828125 0 L 5.375 0 Z M 8.0625 -2.6875 L 67.140625 -2.6875 L 67.140625 -94 L 8.0625 -94 Z M 8.0625 -2.6875 "/>
</symbol>
<symbol overflow="visible" id="myanmar-medial-ra:id1:glyph0-1">
<path style="stroke:none;" d="M 68.15625 -13.75 L 66.28125 -18.640625 L 88.09375 -27.390625 L 6.984375 -27.390625 L 6.984375 -34 L 88.09375 -34 L 66.28125 -42.75 L 68.15625 -47.640625 L 99.09375 -34.265625 L 99.09375 -27.125 Z M 68.15625 -13.75 "/>
</symbol>
</g>
<g>
<symbol overflow="visible" id="myanmar-medial-ra:id2:glyph0-0">
<path style="stroke:none;" d="M 10.34375 0 L 10.34375 -78.546875 L 55.546875 -78.546875 L 55.546875 0 Z M 15.953125 -72.9375 L 15.953125 -5.609375 L 49.9375 -5.609375 L 49.9375 -72.9375 Z M 15.953125 -72.9375 "/>
</symbol>
<symbol overflow="visible" id="myanmar-medial-ra:id2:glyph0-1">
<path style="stroke:none;" d="M 32.5625 51.265625 C 17.53125 51.265625 10.015625 43.414062 10.015625 27.71875 L 10.015625 -86.796875 C 10.015625 -102.484375 17.53125 -110.328125 32.5625 -110.328125 L 67.984375 -110.328125 C 83.085938 -110.328125 90.640625 -102.484375 90.640625 -86.796875 L 90.640625 -83.59375 L 80.84375 -83.59375 L 80.84375 -88.65625 C 80.84375 -92.988281 79.832031 -96.363281 77.8125 -98.78125 C 75.800781 -101.195312 72.707031 -102.40625 68.53125 -102.40625 L 32.125 -102.40625 C 27.863281 -102.40625 24.757812 -101.195312 22.8125 -98.78125 C 20.875 -96.363281 19.90625 -92.988281 19.90625 -88.65625 L 19.90625 29.484375 C 19.90625 33.878906 20.875 37.285156 22.8125 39.703125 C 24.757812 42.128906 27.863281 43.34375 32.125 43.34375 L 68.53125 43.34375 C 72.707031 43.34375 75.800781 42.128906 77.8125 39.703125 C 79.832031 37.285156 80.84375 33.878906 80.84375 29.484375 L 80.84375 -16.828125 L 90.640625 -16.828125 L 90.640625 27.71875 C 90.640625 43.414062 83.085938 51.265625 67.984375 51.265625 Z M 32.5625 51.265625 "/>
</symbol>
<symbol overflow="visible" id="myanmar-medial-ra:id2:glyph0-2">
<path style="stroke:none;" d="M 37.1875 1.09375 C 31.164062 1.09375 25.804688 -0.257812 21.109375 -2.96875 C 16.421875 -5.6875 12.738281 -9.425781 10.0625 -14.1875 C 7.382812 -18.957031 6.046875 -24.421875 6.046875 -30.578125 C 6.046875 -36.660156 7.3125 -42.320312 9.84375 -47.5625 C 12.375 -52.8125 15.765625 -56.976562 20.015625 -60.0625 L 26.40625 -54.453125 C 25.957031 -53.273438 25.734375 -52.023438 25.734375 -50.703125 C 25.734375 -47.628906 26.816406 -45.007812 28.984375 -42.84375 C 31.148438 -40.675781 33.769531 -39.59375 36.84375 -39.59375 C 39.851562 -39.59375 42.4375 -40.675781 44.59375 -42.84375 C 46.757812 -45.007812 47.84375 -47.628906 47.84375 -50.703125 C 47.84375 -52.171875 47.585938 -53.457031 47.078125 -54.5625 L 53.453125 -60.28125 C 56.460938 -58.300781 59.085938 -55.734375 61.328125 -52.578125 C 63.566406 -49.421875 65.289062 -45.953125 66.5 -42.171875 C 67.707031 -38.398438 68.3125 -34.535156 68.3125 -30.578125 C 68.3125 -24.347656 66.953125 -18.847656 64.234375 -14.078125 C 61.523438 -9.316406 57.820312 -5.597656 53.125 -2.921875 C 48.4375 -0.242188 43.125 1.09375 37.1875 1.09375 Z M 36.84375 -31.453125 C 32.664062 -31.453125 28.945312 -32.644531 25.6875 -35.03125 C 22.425781 -37.414062 20.097656 -40.441406 18.703125 -44.109375 C 16.941406 -40.296875 16.0625 -35.859375 16.0625 -30.796875 C 16.0625 -23.460938 18.003906 -17.671875 21.890625 -13.421875 C 25.773438 -9.171875 30.875 -7.046875 37.1875 -7.046875 C 43.488281 -7.046875 48.5625 -9.1875 52.40625 -13.46875 C 56.257812 -17.757812 58.1875 -23.535156 58.1875 -30.796875 C 58.1875 -36.148438 57.160156 -40.804688 55.109375 -44.765625 C 53.859375 -40.953125 51.566406 -37.78125 48.234375 -35.25 C 44.898438 -32.71875 41.101562 -31.453125 36.84375 -31.453125 Z M 36.84375 -31.453125 "/>
</symbol>
</g>
</defs>
  <g id="myanmar-medial-ra:id0:id0" transform="matrix(1.25,0,0,1.25,0.0,0.0)"><g id="myanmar-medial-ra:id0:surface1">
<g style="fill:rgb(0%,0%,0%);fill-opacity:1;">
  <use xlink:href="#myanmar-medial-ra:id0:glyph0-1" x="16" y="147.640625" class="c0"/>
  <use xlink:href="#myanmar-medial-ra:id0:glyph0-2" x="90.359375" y="147.640625" class="z"/>
  <use xlink:href="#myanmar-medial-ra:id0:glyph0-3" x="90.359375" y="147.640625" class="c1"/>
  <use xlink:href="#myanmar-medial-ra:id0:glyph0-4" x="115.546875" y="147.640625" class="dc"/>
</g>
</g>
</g>
  <g id="myanmar-medial-ra:id1:id1" transform="matrix(1.25,0,0,1.25,246.11328125,51.943359375)"><g id="myanmar-medial-ra:id1:surface1">
<g style="fill:rgb(0%,0%,0%);fill-opacity:1;">
  <use xlink:href="#myanmar-medial-ra:id1:glyph0-1" x="0" y="120.84375" class="arrow"/>
</g>
</g>
</g>
  <g id="myanmar-medial-ra:id2:id2" transform="matrix(1.25,0,0,1.25,378.7109375,0.0)"><g id="myanmar-medial-ra:id2:surface1">
<g style="fill:rgb(0%,0%,0%);fill-opacity:1;">
  <use xlink:href="#myanmar-medial-ra:id2:glyph0-1" x="16" y="147.640625" class="c1"/>
  <use xlink:href="#myanmar-medial-ra:id2:glyph0-2" x="41.1875" y="147.640625" class="c0"/>
</g>
</g>
</g>
</svg>
