<!DOCTYPE svg PUBLIC "-//W3C//DTD SVG 1.1//EN" "http://www.w3.org/Graphics/SVG/1.1/DTD/svg11.dtd">
<!-- Created with svg_stack (http://github.com/astraw/svg_stack) --><svg xmlns="http://www.w3.org/2000/svg" xmlns:sodipodi="http://sodipodi.sourceforge.net/DTD/sodipodi-0.dtd" xmlns:xlink="http://www.w3.org/1999/xlink" version="1.1" width="100%" id="myanmar-kinzi-monnga" viewBox="0 0 624.296875 305.29296875">
  <defs><g>
<symbol overflow="visible" id="myanmar-kinzi-monnga:id0:glyph0-0">
<path style="stroke:none;" d="M 10.34375 0 L 10.34375 -78.546875 L 55.546875 -78.546875 L 55.546875 0 Z M 15.953125 -72.9375 L 15.953125 -5.609375 L 49.9375 -5.609375 L 49.9375 -72.9375 Z M 15.953125 -72.9375 "/>
</symbol>
<symbol overflow="visible" id="myanmar-kinzi-monnga:id0:glyph0-1">
<path style="stroke:none;" d="M 35.859375 1.09375 C 29.847656 1.09375 24.601562 -0.257812 20.125 -2.96875 C 15.65625 -5.6875 12.191406 -9.351562 9.734375 -13.96875 C 7.273438 -18.59375 6.046875 -23.800781 6.046875 -29.59375 C 6.046875 -35.53125 7.273438 -40.789062 9.734375 -45.375 C 12.191406 -49.957031 15.65625 -53.550781 20.125 -56.15625 C 24.601562 -58.757812 29.847656 -60.0625 35.859375 -60.0625 C 42.160156 -60.0625 47.695312 -58.410156 52.46875 -55.109375 C 57.238281 -51.804688 60.578125 -47.476562 62.484375 -42.125 L 54.78125 -38.171875 C 52.945312 -42.710938 50.378906 -46.140625 47.078125 -48.453125 C 43.773438 -50.765625 40 -51.921875 35.75 -51.921875 C 29.738281 -51.921875 24.953125 -49.882812 21.390625 -45.8125 C 17.835938 -41.738281 16.0625 -36.367188 16.0625 -29.703125 C 16.0625 -22.804688 17.820312 -17.304688 21.34375 -13.203125 C 24.863281 -9.097656 29.664062 -7.046875 35.75 -7.046875 C 40 -7.046875 43.773438 -8.195312 47.078125 -10.5 C 50.378906 -12.8125 52.945312 -16.242188 54.78125 -20.796875 L 62.484375 -16.828125 C 60.578125 -11.472656 57.238281 -7.144531 52.46875 -3.84375 C 47.695312 -0.550781 42.160156 1.09375 35.859375 1.09375 Z M 43.671875 51.375 C 39.859375 51.375 36.90625 50.34375 34.8125 48.28125 C 32.726562 46.226562 31.6875 43.8125 31.6875 41.03125 C 31.6875 38.6875 32.328125 36.46875 33.609375 34.375 C 34.890625 32.28125 36.882812 29.988281 39.59375 27.5 C 42.3125 25.007812 43.671875 22.367188 43.671875 19.578125 C 43.671875 17.523438 42.9375 15.859375 41.46875 14.578125 C 40 13.296875 38.238281 12.65625 36.1875 12.65625 C 33.84375 12.65625 31.953125 13.367188 30.515625 14.796875 C 29.085938 16.222656 28.191406 18.035156 27.828125 20.234375 L 19.03125 20.234375 C 19.175781 15.910156 20.769531 12.335938 23.8125 9.515625 C 26.851562 6.691406 30.90625 5.28125 35.96875 5.28125 C 40.8125 5.28125 44.769531 6.671875 47.84375 9.453125 C 50.925781 12.242188 52.46875 15.726562 52.46875 19.90625 C 52.46875 22.332031 51.863281 24.570312 50.65625 26.625 C 49.445312 28.675781 47.445312 31.019531 44.65625 33.65625 C 41.875 36.445312 40.484375 38.796875 40.484375 40.703125 C 40.484375 42.023438 40.957031 42.941406 41.90625 43.453125 C 42.863281 43.960938 43.851562 44.21875 44.875 44.21875 C 46.195312 44.21875 47.410156 43.890625 48.515625 43.234375 L 52.03125 49.5 C 50.925781 50.226562 49.601562 50.722656 48.0625 50.984375 C 46.53125 51.242188 45.066406 51.375 43.671875 51.375 Z M 43.671875 51.375 "/>
</symbol>
<symbol overflow="visible" id="myanmar-kinzi-monnga:id0:glyph0-2">
<path style="stroke:none;" d=""/>
</symbol>
<symbol overflow="visible" id="myanmar-kinzi-monnga:id0:glyph0-3">
<path style="stroke:none;" d="M 32.671875 -53.5625 C 30.765625 -53.5625 29.8125 -54.554688 29.8125 -56.546875 C 29.8125 -58.453125 30.765625 -59.40625 32.671875 -59.40625 C 34.578125 -59.40625 35.53125 -58.453125 35.53125 -56.546875 C 35.53125 -54.554688 34.578125 -53.5625 32.671875 -53.5625 Z M 42.125 -51.703125 C 40.070312 -51.703125 39.046875 -52.65625 39.046875 -54.5625 C 39.046875 -56.539062 40.070312 -57.53125 42.125 -57.53125 C 43.957031 -57.53125 44.875 -56.539062 44.875 -54.5625 C 44.875 -52.65625 43.957031 -51.703125 42.125 -51.703125 Z M 23.3125 -51.703125 C 21.40625 -51.703125 20.453125 -52.65625 20.453125 -54.5625 C 20.453125 -56.539062 21.40625 -57.53125 23.3125 -57.53125 C 25.300781 -57.53125 26.296875 -56.539062 26.296875 -54.5625 C 26.296875 -52.65625 25.300781 -51.703125 23.3125 -51.703125 Z M 50.046875 -46.421875 C 48.066406 -46.421875 47.078125 -47.375 47.078125 -49.28125 C 47.078125 -51.257812 48.066406 -52.25 50.046875 -52.25 C 51.878906 -52.25 52.796875 -51.257812 52.796875 -49.28125 C 52.796875 -47.375 51.878906 -46.421875 50.046875 -46.421875 Z M 15.40625 -46.421875 C 13.5 -46.421875 12.546875 -47.335938 12.546875 -49.171875 C 12.546875 -51.222656 13.5 -52.25 15.40625 -52.25 C 17.382812 -52.25 18.375 -51.257812 18.375 -49.28125 C 18.375 -47.375 17.382812 -46.421875 15.40625 -46.421875 Z M 55.21875 -38.390625 C 53.3125 -38.390625 52.359375 -39.378906 52.359375 -41.359375 C 52.359375 -43.265625 53.347656 -44.21875 55.328125 -44.21875 C 57.234375 -44.21875 58.1875 -43.265625 58.1875 -41.359375 C 58.1875 -39.378906 57.195312 -38.390625 55.21875 -38.390625 Z M 10.234375 -38.390625 C 8.179688 -38.390625 7.15625 -39.378906 7.15625 -41.359375 C 7.15625 -43.265625 8.144531 -44.21875 10.125 -44.21875 C 12.03125 -44.21875 12.984375 -43.265625 12.984375 -41.359375 C 12.984375 -39.378906 12.066406 -38.390625 10.234375 -38.390625 Z M 57.3125 -29.15625 C 55.332031 -29.15625 54.34375 -30.109375 54.34375 -32.015625 C 54.34375 -33.921875 55.332031 -34.875 57.3125 -34.875 C 59.144531 -34.875 60.0625 -33.921875 60.0625 -32.015625 C 60.0625 -30.109375 59.144531 -29.15625 57.3125 -29.15625 Z M 8.25 -29.15625 C 6.269531 -29.15625 5.28125 -30.109375 5.28125 -32.015625 C 5.28125 -33.921875 6.269531 -34.875 8.25 -34.875 C 10.15625 -34.875 11.109375 -33.921875 11.109375 -32.015625 C 11.109375 -30.109375 10.15625 -29.15625 8.25 -29.15625 Z M 55.21875 -19.796875 C 53.3125 -19.796875 52.359375 -20.75 52.359375 -22.65625 C 52.359375 -24.632812 53.3125 -25.625 55.21875 -25.625 C 57.195312 -25.625 58.1875 -24.632812 58.1875 -22.65625 C 58.1875 -20.75 57.195312 -19.796875 55.21875 -19.796875 Z M 10.125 -19.796875 C 8.144531 -19.796875 7.15625 -20.75 7.15625 -22.65625 C 7.15625 -24.632812 8.144531 -25.625 10.125 -25.625 C 12.03125 -25.625 12.984375 -24.632812 12.984375 -22.65625 C 12.984375 -20.75 12.03125 -19.796875 10.125 -19.796875 Z M 50.046875 -11.765625 C 48.066406 -11.765625 47.078125 -12.71875 47.078125 -14.625 C 47.078125 -16.601562 48.066406 -17.59375 50.046875 -17.59375 C 51.878906 -17.59375 52.796875 -16.601562 52.796875 -14.625 C 52.796875 -12.71875 51.878906 -11.765625 50.046875 -11.765625 Z M 15.40625 -11.765625 C 13.5 -11.765625 12.546875 -12.71875 12.546875 -14.625 C 12.546875 -16.601562 13.5 -17.59375 15.40625 -17.59375 C 17.382812 -17.59375 18.375 -16.601562 18.375 -14.625 C 18.375 -12.71875 17.382812 -11.765625 15.40625 -11.765625 Z M 42.125 -6.59375 C 40.070312 -6.59375 39.046875 -7.507812 39.046875 -9.34375 C 39.046875 -11.320312 40.070312 -12.3125 42.125 -12.3125 C 43.957031 -12.3125 44.875 -11.320312 44.875 -9.34375 C 44.875 -7.507812 43.957031 -6.59375 42.125 -6.59375 Z M 23.3125 -6.59375 C 21.40625 -6.59375 20.453125 -7.507812 20.453125 -9.34375 C 20.453125 -11.320312 21.40625 -12.3125 23.3125 -12.3125 C 25.300781 -12.3125 26.296875 -11.394531 26.296875 -9.5625 C 26.296875 -7.582031 25.300781 -6.59375 23.3125 -6.59375 Z M 32.671875 -4.625 C 30.765625 -4.625 29.8125 -5.613281 29.8125 -7.59375 C 29.8125 -9.5 30.765625 -10.453125 32.671875 -10.453125 C 34.578125 -10.453125 35.53125 -9.5 35.53125 -7.59375 C 35.53125 -5.613281 34.578125 -4.625 32.671875 -4.625 Z M 32.671875 -4.625 "/>
</symbol>
<symbol overflow="visible" id="myanmar-kinzi-monnga:id0:glyph0-4">
<path style="stroke:none;" d="M -40.8125 -68.859375 C -44.550781 -70.910156 -47.59375 -73.75 -49.9375 -77.375 C -52.28125 -81.007812 -53.453125 -85.25 -53.453125 -90.09375 C -53.453125 -94.269531 -52.570312 -97.859375 -50.8125 -100.859375 C -49.0625 -103.867188 -46.679688 -106.179688 -43.671875 -107.796875 C -40.660156 -109.410156 -37.25 -110.21875 -33.4375 -110.21875 C -29.695312 -110.21875 -26.34375 -109.445312 -23.375 -107.90625 C -20.40625 -106.363281 -18.078125 -104.164062 -16.390625 -101.3125 L -22.65625 -96.46875 C -23.832031 -98.445312 -25.335938 -100.003906 -27.171875 -101.140625 C -29.003906 -102.273438 -31.054688 -102.84375 -33.328125 -102.84375 C -36.921875 -102.84375 -39.707031 -101.597656 -41.6875 -99.109375 C -43.664062 -96.617188 -44.65625 -93.613281 -44.65625 -90.09375 C -44.65625 -86.28125 -43.753906 -83.109375 -41.953125 -80.578125 C -40.160156 -78.046875 -38.164062 -76.046875 -35.96875 -74.578125 Z M -40.8125 -68.859375 "/>
</symbol>
<symbol overflow="visible" id="myanmar-kinzi-monnga:id0:glyph0-5">
<path style="stroke:none;" d="M -38.828125 45.765625 L -38.828125 32.015625 L -52.578125 32.015625 L -52.578125 24.53125 L -38.828125 24.53125 L -38.828125 10.78125 L -30.6875 10.78125 L -30.6875 24.53125 L -16.9375 24.53125 L -16.9375 32.015625 L -30.6875 32.015625 L -30.6875 45.765625 Z M -38.828125 45.765625 "/>
</symbol>
</g>
<g>
<symbol overflow="visible" id="myanmar-kinzi-monnga:id1:glyph0-0">
<path style="stroke:none;" d="M 5.375 -96.6875 L 69.828125 -96.6875 L 69.828125 0 L 5.375 0 Z M 8.0625 -2.6875 L 67.140625 -2.6875 L 67.140625 -94 L 8.0625 -94 Z M 8.0625 -2.6875 "/>
</symbol>
<symbol overflow="visible" id="myanmar-kinzi-monnga:id1:glyph0-1">
<path style="stroke:none;" d="M 68.15625 -13.75 L 66.28125 -18.640625 L 88.09375 -27.390625 L 6.984375 -27.390625 L 6.984375 -34 L 88.09375 -34 L 66.28125 -42.75 L 68.15625 -47.640625 L 99.09375 -34.265625 L 99.09375 -27.125 Z M 68.15625 -13.75 "/>
</symbol>
</g>
<g>
<symbol overflow="visible" id="myanmar-kinzi-monnga:id2:glyph0-0">
<path style="stroke:none;" d="M 10.34375 0 L 10.34375 -78.546875 L 55.546875 -78.546875 L 55.546875 0 Z M 15.953125 -72.9375 L 15.953125 -5.609375 L 49.9375 -5.609375 L 49.9375 -72.9375 Z M 15.953125 -72.9375 "/>
</symbol>
<symbol overflow="visible" id="myanmar-kinzi-monnga:id2:glyph0-1">
<path style="stroke:none;" d="M 32.671875 -53.5625 C 30.765625 -53.5625 29.8125 -54.554688 29.8125 -56.546875 C 29.8125 -58.453125 30.765625 -59.40625 32.671875 -59.40625 C 34.578125 -59.40625 35.53125 -58.453125 35.53125 -56.546875 C 35.53125 -54.554688 34.578125 -53.5625 32.671875 -53.5625 Z M 42.125 -51.703125 C 40.070312 -51.703125 39.046875 -52.65625 39.046875 -54.5625 C 39.046875 -56.539062 40.070312 -57.53125 42.125 -57.53125 C 43.957031 -57.53125 44.875 -56.539062 44.875 -54.5625 C 44.875 -52.65625 43.957031 -51.703125 42.125 -51.703125 Z M 23.3125 -51.703125 C 21.40625 -51.703125 20.453125 -52.65625 20.453125 -54.5625 C 20.453125 -56.539062 21.40625 -57.53125 23.3125 -57.53125 C 25.300781 -57.53125 26.296875 -56.539062 26.296875 -54.5625 C 26.296875 -52.65625 25.300781 -51.703125 23.3125 -51.703125 Z M 50.046875 -46.421875 C 48.066406 -46.421875 47.078125 -47.375 47.078125 -49.28125 C 47.078125 -51.257812 48.066406 -52.25 50.046875 -52.25 C 51.878906 -52.25 52.796875 -51.257812 52.796875 -49.28125 C 52.796875 -47.375 51.878906 -46.421875 50.046875 -46.421875 Z M 15.40625 -46.421875 C 13.5 -46.421875 12.546875 -47.335938 12.546875 -49.171875 C 12.546875 -51.222656 13.5 -52.25 15.40625 -52.25 C 17.382812 -52.25 18.375 -51.257812 18.375 -49.28125 C 18.375 -47.375 17.382812 -46.421875 15.40625 -46.421875 Z M 55.21875 -38.390625 C 53.3125 -38.390625 52.359375 -39.378906 52.359375 -41.359375 C 52.359375 -43.265625 53.347656 -44.21875 55.328125 -44.21875 C 57.234375 -44.21875 58.1875 -43.265625 58.1875 -41.359375 C 58.1875 -39.378906 57.195312 -38.390625 55.21875 -38.390625 Z M 10.234375 -38.390625 C 8.179688 -38.390625 7.15625 -39.378906 7.15625 -41.359375 C 7.15625 -43.265625 8.144531 -44.21875 10.125 -44.21875 C 12.03125 -44.21875 12.984375 -43.265625 12.984375 -41.359375 C 12.984375 -39.378906 12.066406 -38.390625 10.234375 -38.390625 Z M 57.3125 -29.15625 C 55.332031 -29.15625 54.34375 -30.109375 54.34375 -32.015625 C 54.34375 -33.921875 55.332031 -34.875 57.3125 -34.875 C 59.144531 -34.875 60.0625 -33.921875 60.0625 -32.015625 C 60.0625 -30.109375 59.144531 -29.15625 57.3125 -29.15625 Z M 8.25 -29.15625 C 6.269531 -29.15625 5.28125 -30.109375 5.28125 -32.015625 C 5.28125 -33.921875 6.269531 -34.875 8.25 -34.875 C 10.15625 -34.875 11.109375 -33.921875 11.109375 -32.015625 C 11.109375 -30.109375 10.15625 -29.15625 8.25 -29.15625 Z M 55.21875 -19.796875 C 53.3125 -19.796875 52.359375 -20.75 52.359375 -22.65625 C 52.359375 -24.632812 53.3125 -25.625 55.21875 -25.625 C 57.195312 -25.625 58.1875 -24.632812 58.1875 -22.65625 C 58.1875 -20.75 57.195312 -19.796875 55.21875 -19.796875 Z M 10.125 -19.796875 C 8.144531 -19.796875 7.15625 -20.75 7.15625 -22.65625 C 7.15625 -24.632812 8.144531 -25.625 10.125 -25.625 C 12.03125 -25.625 12.984375 -24.632812 12.984375 -22.65625 C 12.984375 -20.75 12.03125 -19.796875 10.125 -19.796875 Z M 50.046875 -11.765625 C 48.066406 -11.765625 47.078125 -12.71875 47.078125 -14.625 C 47.078125 -16.601562 48.066406 -17.59375 50.046875 -17.59375 C 51.878906 -17.59375 52.796875 -16.601562 52.796875 -14.625 C 52.796875 -12.71875 51.878906 -11.765625 50.046875 -11.765625 Z M 15.40625 -11.765625 C 13.5 -11.765625 12.546875 -12.71875 12.546875 -14.625 C 12.546875 -16.601562 13.5 -17.59375 15.40625 -17.59375 C 17.382812 -17.59375 18.375 -16.601562 18.375 -14.625 C 18.375 -12.71875 17.382812 -11.765625 15.40625 -11.765625 Z M 42.125 -6.59375 C 40.070312 -6.59375 39.046875 -7.507812 39.046875 -9.34375 C 39.046875 -11.320312 40.070312 -12.3125 42.125 -12.3125 C 43.957031 -12.3125 44.875 -11.320312 44.875 -9.34375 C 44.875 -7.507812 43.957031 -6.59375 42.125 -6.59375 Z M 23.3125 -6.59375 C 21.40625 -6.59375 20.453125 -7.507812 20.453125 -9.34375 C 20.453125 -11.320312 21.40625 -12.3125 23.3125 -12.3125 C 25.300781 -12.3125 26.296875 -11.394531 26.296875 -9.5625 C 26.296875 -7.582031 25.300781 -6.59375 23.3125 -6.59375 Z M 32.671875 -4.625 C 30.765625 -4.625 29.8125 -5.613281 29.8125 -7.59375 C 29.8125 -9.5 30.765625 -10.453125 32.671875 -10.453125 C 34.578125 -10.453125 35.53125 -9.5 35.53125 -7.59375 C 35.53125 -5.613281 34.578125 -4.625 32.671875 -4.625 Z M 32.671875 -4.625 "/>
</symbol>
<symbol overflow="visible" id="myanmar-kinzi-monnga:id2:glyph0-2">
<path style="stroke:none;" d="M -36.515625 -68.859375 C -40.109375 -68.859375 -43.0625 -69.898438 -45.375 -71.984375 C -47.6875 -74.078125 -48.84375 -76.992188 -48.84375 -80.734375 C -48.84375 -82.710938 -48.507812 -84.4375 -47.84375 -85.90625 C -47.1875 -87.375 -46.304688 -88.585938 -45.203125 -89.546875 C -47.554688 -92.109375 -48.734375 -95.113281 -48.734375 -98.5625 C -48.734375 -102.300781 -47.59375 -105.195312 -45.3125 -107.25 C -43.039062 -109.300781 -40.109375 -110.328125 -36.515625 -110.328125 C -32.046875 -110.328125 -28.601562 -108.785156 -26.1875 -105.703125 L -31.34375 -101.09375 C -32.082031 -101.75 -32.851562 -102.257812 -33.65625 -102.625 C -34.46875 -103 -35.382812 -103.1875 -36.40625 -103.1875 C -37.800781 -103.1875 -38.921875 -102.78125 -39.765625 -101.96875 C -40.609375 -101.164062 -41.03125 -100.03125 -41.03125 -98.5625 C -41.03125 -96.507812 -40.003906 -94.53125 -37.953125 -92.625 C -37.515625 -92.695312 -37.035156 -92.734375 -36.515625 -92.734375 C -34.023438 -92.734375 -31.734375 -92.160156 -29.640625 -91.015625 C -27.554688 -89.878906 -26.035156 -88.25 -25.078125 -86.125 L -31.34375 -82.9375 C -32.300781 -84.695312 -33.914062 -85.578125 -36.1875 -85.578125 C -37.65625 -85.578125 -38.828125 -85.132812 -39.703125 -84.25 C -40.585938 -83.375 -41.03125 -82.203125 -41.03125 -80.734375 C -41.03125 -77.660156 -39.453125 -76.125 -36.296875 -76.125 C -34.023438 -76.125 -32.335938 -76.96875 -31.234375 -78.65625 L -25.078125 -75.453125 C -26.035156 -73.328125 -27.519531 -71.695312 -29.53125 -70.5625 C -31.550781 -69.425781 -33.878906 -68.859375 -36.515625 -68.859375 Z M -36.515625 -68.859375 "/>
</symbol>
</g>
</defs>
  <g id="myanmar-kinzi-monnga:id0:id0" transform="matrix(1.25,0,0,1.25,0.0,0.0)"><g id="myanmar-kinzi-monnga:id0:surface1">
<g style="fill:rgb(0%,0%,0%);fill-opacity:1;">
  <use xlink:href="#myanmar-kinzi-monnga:id0:glyph0-1" x="16" y="147.640625" class="c0"/>
  <use xlink:href="#myanmar-kinzi-monnga:id0:glyph0-2" x="83.984375" y="147.640625" class="z"/>
  <use xlink:href="#myanmar-kinzi-monnga:id0:glyph0-3" x="83.984375" y="147.640625" class="dc"/>
  <use xlink:href="#myanmar-kinzi-monnga:id0:glyph0-4" x="150.3125" y="152.265625" class="c1"/>
  <use xlink:href="#myanmar-kinzi-monnga:id0:glyph0-3" x="149.328125" y="147.640625" class="dc"/>
  <use xlink:href="#myanmar-kinzi-monnga:id0:glyph0-5" x="216.875" y="150.28125" class="c2"/>
  <use xlink:href="#myanmar-kinzi-monnga:id0:glyph0-3" x="214.671875" y="147.640625" class="dc"/>
</g>
</g>
</g>
  <g id="myanmar-kinzi-monnga:id1:id1" transform="matrix(1.25,0,0,1.25,370.01953125,51.943359375)"><g id="myanmar-kinzi-monnga:id1:surface1">
<g style="fill:rgb(0%,0%,0%);fill-opacity:1;">
  <use xlink:href="#myanmar-kinzi-monnga:id1:glyph0-1" x="0" y="120.84375" class="arrow"/>
</g>
</g>
</g>
  <g id="myanmar-kinzi-monnga:id2:id2" transform="matrix(1.25,0,0,1.25,502.6171875,0.0)"><g id="myanmar-kinzi-monnga:id2:surface1">
<g style="fill:rgb(0%,0%,0%);fill-opacity:1;">
  <use xlink:href="#myanmar-kinzi-monnga:id2:glyph0-1" x="16" y="147.640625" class="dc"/>
  <use xlink:href="#myanmar-kinzi-monnga:id2:glyph0-2" x="85.1875" y="152.265625" class="c0"/>
</g>
</g>
</g>
</svg>