<!DOCTYPE svg PUBLIC "-//W3C//DTD SVG 1.1//EN" "http://www.w3.org/Graphics/SVG/1.1/DTD/svg11.dtd">
<!-- Created with svg_stack (http://github.com/astraw/svg_stack) --><svg xmlns="http://www.w3.org/2000/svg" xmlns:sodipodi="http://sodipodi.sourceforge.net/DTD/sodipodi-0.dtd" xmlns:xlink="http://www.w3.org/1999/xlink" version="1.1" width="395.76171875" height="305.29296875" id="myanmar-abvs">
  <defs><g>
<symbol overflow="visible" id="myanmar-abvs:id0:glyph0-0">
<path style="stroke:none;" d="M 10.34375 0 L 10.34375 -78.546875 L 55.546875 -78.546875 L 55.546875 0 Z M 15.953125 -72.9375 L 15.953125 -5.609375 L 49.9375 -5.609375 L 49.9375 -72.9375 Z M 15.953125 -72.9375 "/>
</symbol>
<symbol overflow="visible" id="myanmar-abvs:id0:glyph0-1">
<path style="stroke:none;" d="M 36.625 1.09375 C 30.613281 1.09375 25.367188 -0.257812 20.890625 -2.96875 C 16.421875 -5.6875 12.957031 -9.351562 10.5 -13.96875 C 8.039062 -18.59375 6.8125 -23.800781 6.8125 -29.59375 C 6.8125 -35.53125 8.039062 -40.789062 10.5 -45.375 C 12.957031 -49.957031 16.421875 -53.550781 20.890625 -56.15625 C 25.367188 -58.757812 30.613281 -60.0625 36.625 -60.0625 C 42.863281 -60.0625 48.363281 -58.445312 53.125 -55.21875 C 57.894531 -51.988281 61.269531 -47.625 63.25 -42.125 L 55.546875 -38.171875 C 53.710938 -42.710938 51.164062 -46.140625 47.90625 -48.453125 C 44.644531 -50.765625 40.847656 -51.921875 36.515625 -51.921875 C 30.578125 -51.921875 25.8125 -49.882812 22.21875 -45.8125 C 18.625 -41.738281 16.828125 -36.367188 16.828125 -29.703125 C 16.828125 -22.734375 18.601562 -17.210938 22.15625 -13.140625 C 25.71875 -9.078125 30.503906 -7.046875 36.515625 -7.046875 C 40.847656 -7.046875 44.644531 -8.195312 47.90625 -10.5 C 51.164062 -12.8125 53.710938 -16.242188 55.546875 -20.796875 L 63.25 -16.828125 L 63.25 9.125 C 59.65625 11.769531 55.53125 13.914062 50.875 15.5625 C 46.21875 17.21875 41.429688 18.046875 36.515625 18.046875 C 33.367188 18.046875 30.289062 17.734375 27.28125 17.109375 C 24.269531 16.484375 21.375 15.617188 18.59375 14.515625 L 18.59375 23.984375 C 21.15625 24.929688 23.847656 25.644531 26.671875 26.125 C 29.492188 26.601562 32.773438 26.84375 36.515625 26.84375 C 41.285156 26.84375 45.890625 26.234375 50.328125 25.015625 C 54.765625 23.804688 59.070312 22.101562 63.25 19.90625 L 63.25 43.890625 L 77 43.890625 L 77 51.375 L 53.5625 51.375 L 53.5625 32.5625 C 48.21875 34.175781 42.535156 34.984375 36.515625 34.984375 C 27.203125 34.984375 18.367188 33.039062 10.015625 29.15625 L 10.015625 0 C 13.679688 2.9375 17.84375 5.320312 22.5 7.15625 C 27.15625 8.988281 31.828125 9.90625 36.515625 9.90625 C 42.679688 9.90625 48.363281 8.398438 53.5625 5.390625 L 53.5625 -4.625 C 51.363281 -2.644531 48.925781 -1.195312 46.25 -0.28125 C 43.570312 0.632812 40.363281 1.09375 36.625 1.09375 Z M 36.625 1.09375 "/>
</symbol>
<symbol overflow="visible" id="myanmar-abvs:id0:glyph0-2">
<path style="stroke:none;" d="M -33.65625 -68.859375 C -37.613281 -68.859375 -41.097656 -69.773438 -44.109375 -71.609375 C -47.117188 -73.441406 -49.445312 -75.914062 -51.09375 -79.03125 C -52.738281 -82.144531 -53.5625 -85.648438 -53.5625 -89.546875 C -53.5625 -93.359375 -52.738281 -96.820312 -51.09375 -99.9375 C -49.445312 -103.050781 -47.117188 -105.539062 -44.109375 -107.40625 C -41.097656 -109.28125 -37.539062 -110.21875 -33.4375 -110.21875 C -29.257812 -110.21875 -25.648438 -109.265625 -22.609375 -107.359375 C -19.566406 -105.453125 -17.238281 -102.90625 -15.625 -99.71875 C -14.007812 -96.53125 -13.203125 -92.988281 -13.203125 -89.09375 C -13.203125 -85.28125 -14.046875 -81.851562 -15.734375 -78.8125 C -17.421875 -75.769531 -19.785156 -73.347656 -22.828125 -71.546875 C -25.867188 -69.753906 -29.476562 -68.859375 -33.65625 -68.859375 Z M -33.328125 -76.234375 C -30.023438 -76.234375 -27.3125 -77.441406 -25.1875 -79.859375 C -23.0625 -82.273438 -22 -85.28125 -22 -88.875 C -22 -92.832031 -23.003906 -96.148438 -25.015625 -98.828125 C -27.035156 -101.503906 -29.804688 -102.84375 -33.328125 -102.84375 C -36.921875 -102.84375 -39.722656 -101.5625 -41.734375 -99 C -43.753906 -96.4375 -44.765625 -93.207031 -44.765625 -89.3125 C -44.765625 -85.570312 -43.738281 -82.457031 -41.6875 -79.96875 C -39.632812 -77.476562 -36.847656 -76.234375 -33.328125 -76.234375 Z M -33.328125 -76.234375 "/>
</symbol>
<symbol overflow="visible" id="myanmar-abvs:id0:glyph0-3">
<path style="stroke:none;" d="M -21.5625 -66.765625 L -43.5625 -88.328125 L -37.953125 -94.375 L -16.171875 -73.046875 Z M -21.5625 -66.765625 "/>
</symbol>
</g>
<g>
<symbol overflow="visible" id="myanmar-abvs:id1:glyph0-0">
<path style="stroke:none;" d="M 5.375 -96.6875 L 69.828125 -96.6875 L 69.828125 0 L 5.375 0 Z M 8.0625 -2.6875 L 67.140625 -2.6875 L 67.140625 -94 L 8.0625 -94 Z M 8.0625 -2.6875 "/>
</symbol>
<symbol overflow="visible" id="myanmar-abvs:id1:glyph0-1">
<path style="stroke:none;" d="M 68.15625 -13.75 L 66.28125 -18.640625 L 88.09375 -27.390625 L 6.984375 -27.390625 L 6.984375 -34 L 88.09375 -34 L 66.28125 -42.75 L 68.15625 -47.640625 L 99.09375 -34.265625 L 99.09375 -27.125 Z M 68.15625 -13.75 "/>
</symbol>
</g>
<g>
<symbol overflow="visible" id="myanmar-abvs:id2:glyph0-0">
<path style="stroke:none;" d="M 10.34375 0 L 10.34375 -78.546875 L 55.546875 -78.546875 L 55.546875 0 Z M 15.953125 -72.9375 L 15.953125 -5.609375 L 49.9375 -5.609375 L 49.9375 -72.9375 Z M 15.953125 -72.9375 "/>
</symbol>
<symbol overflow="visible" id="myanmar-abvs:id2:glyph0-1">
<path style="stroke:none;" d="M 36.625 1.09375 C 30.613281 1.09375 25.367188 -0.257812 20.890625 -2.96875 C 16.421875 -5.6875 12.957031 -9.351562 10.5 -13.96875 C 8.039062 -18.59375 6.8125 -23.800781 6.8125 -29.59375 C 6.8125 -35.53125 8.039062 -40.789062 10.5 -45.375 C 12.957031 -49.957031 16.421875 -53.550781 20.890625 -56.15625 C 25.367188 -58.757812 30.613281 -60.0625 36.625 -60.0625 C 42.863281 -60.0625 48.363281 -58.445312 53.125 -55.21875 C 57.894531 -51.988281 61.269531 -47.625 63.25 -42.125 L 55.546875 -38.171875 C 53.710938 -42.710938 51.164062 -46.140625 47.90625 -48.453125 C 44.644531 -50.765625 40.847656 -51.921875 36.515625 -51.921875 C 30.578125 -51.921875 25.8125 -49.882812 22.21875 -45.8125 C 18.625 -41.738281 16.828125 -36.367188 16.828125 -29.703125 C 16.828125 -22.734375 18.601562 -17.210938 22.15625 -13.140625 C 25.71875 -9.078125 30.503906 -7.046875 36.515625 -7.046875 C 40.847656 -7.046875 44.644531 -8.195312 47.90625 -10.5 C 51.164062 -12.8125 53.710938 -16.242188 55.546875 -20.796875 L 63.25 -16.828125 L 63.25 9.125 C 59.65625 11.769531 55.53125 13.914062 50.875 15.5625 C 46.21875 17.21875 41.429688 18.046875 36.515625 18.046875 C 33.367188 18.046875 30.289062 17.734375 27.28125 17.109375 C 24.269531 16.484375 21.375 15.617188 18.59375 14.515625 L 18.59375 23.984375 C 21.15625 24.929688 23.847656 25.644531 26.671875 26.125 C 29.492188 26.601562 32.773438 26.84375 36.515625 26.84375 C 41.285156 26.84375 45.890625 26.234375 50.328125 25.015625 C 54.765625 23.804688 59.070312 22.101562 63.25 19.90625 L 63.25 43.890625 L 77 43.890625 L 77 51.375 L 53.5625 51.375 L 53.5625 32.5625 C 48.21875 34.175781 42.535156 34.984375 36.515625 34.984375 C 27.203125 34.984375 18.367188 33.039062 10.015625 29.15625 L 10.015625 0 C 13.679688 2.9375 17.84375 5.320312 22.5 7.15625 C 27.15625 8.988281 31.828125 9.90625 36.515625 9.90625 C 42.679688 9.90625 48.363281 8.398438 53.5625 5.390625 L 53.5625 -4.625 C 51.363281 -2.644531 48.925781 -1.195312 46.25 -0.28125 C 43.570312 0.632812 40.363281 1.09375 36.625 1.09375 Z M 36.625 1.09375 "/>
</symbol>
<symbol overflow="visible" id="myanmar-abvs:id2:glyph0-2">
<path style="stroke:none;" d="M -63.359375 -68.3125 L -79.859375 -107.578125 L -72.375 -111.09375 L -55.875 -71.828125 Z M -35.859375 -68.859375 C -39.453125 -68.859375 -42.566406 -69.773438 -45.203125 -71.609375 C -47.847656 -73.441406 -49.898438 -75.914062 -51.359375 -79.03125 C -52.828125 -82.144531 -53.5625 -85.648438 -53.5625 -89.546875 C -53.5625 -93.578125 -52.789062 -97.128906 -51.25 -100.203125 C -49.71875 -103.285156 -47.613281 -105.722656 -44.9375 -107.515625 C -42.257812 -109.316406 -39.160156 -110.21875 -35.640625 -110.21875 C -31.972656 -110.21875 -28.800781 -109.28125 -26.125 -107.40625 C -23.445312 -105.539062 -21.375 -103.03125 -19.90625 -99.875 C -18.4375 -96.726562 -17.703125 -93.132812 -17.703125 -89.09375 C -17.703125 -85.351562 -18.4375 -81.960938 -19.90625 -78.921875 C -21.375 -75.878906 -23.460938 -73.441406 -26.171875 -71.609375 C -28.890625 -69.773438 -32.117188 -68.859375 -35.859375 -68.859375 Z M -35.640625 -76.234375 C -33.003906 -76.234375 -30.820312 -77.40625 -29.09375 -79.75 C -27.375 -82.09375 -26.515625 -85.132812 -26.515625 -88.875 C -26.515625 -92.832031 -27.316406 -96.148438 -28.921875 -98.828125 C -30.535156 -101.503906 -32.773438 -102.84375 -35.640625 -102.84375 C -38.421875 -102.84375 -40.632812 -101.5625 -42.28125 -99 C -43.9375 -96.4375 -44.765625 -93.207031 -44.765625 -89.3125 C -44.765625 -85.570312 -43.9375 -82.457031 -42.28125 -79.96875 C -40.632812 -77.476562 -38.421875 -76.234375 -35.640625 -76.234375 Z M -35.640625 -76.234375 "/>
</symbol>
</g>
</defs>
  <g id="myanmar-abvs:id0:id0" transform="matrix(1.25,0,0,1.25,0.0,0.0)"><g id="myanmar-abvs:id0:surface1">
<g style="fill:rgb(0%,0%,0%);fill-opacity:1;">
  <use xlink:href="#myanmar-abvs:id0:glyph0-1" x="16" y="147.640625" class="c0"/>
  <use xlink:href="#myanmar-abvs:id0:glyph0-2" x="85.625" y="147.640625" class="c1"/>
  <use xlink:href="#myanmar-abvs:id0:glyph0-3" x="85.625" y="145.4375" class="c2"/>
</g>
</g>
</g>
  <g id="myanmar-abvs:id1:id1" transform="matrix(1.25,0,0,1.25,131.58203125,51.943359375)"><g id="myanmar-abvs:id1:surface1">
<g style="fill:rgb(0%,0%,0%);fill-opacity:1;">
  <use xlink:href="#myanmar-abvs:id1:glyph0-1" x="0" y="120.84375" class="arrow"/>
</g>
</g>
</g>
  <g id="myanmar-abvs:id2:id2" transform="matrix(1.25,0,0,1.25,264.1796875,0.0)"><g id="myanmar-abvs:id2:surface1">
<g style="fill:rgb(0%,0%,0%);fill-opacity:1;">
  <use xlink:href="#myanmar-abvs:id2:glyph0-1" x="16" y="147.640625" class="c0"/>
  <use xlink:href="#myanmar-abvs:id2:glyph0-2" x="101.25" y="147.640625" class="c3"/>
</g>
</g>
</g>
</svg>
