<?xml version="1.0" standalone="no"?>
<!DOCTYPE svg PUBLIC "-//W3C//DTD SVG 1.1//EN"
 "http://www.w3.org/Graphics/SVG/1.1/DTD/svg11.dtd">
<!-- Created with svg_stack (http://github.com/astraw/svg_stack) -->
<svg xmlns="http://www.w3.org/2000/svg" xmlns:sodipodi="http://sodipodi.sourceforge.net/DTD/sodipodi-0.dtd" xmlns:xlink="http://www.w3.org/1999/xlink" version="1.1" width="521.42578125" height="348.61328125">
  <defs><g>
<symbol overflow="visible" id="id0:glyph0-0">
<path style="stroke:none;" d="M 10.34375 0 L 10.34375 -78.546875 L 55.546875 -78.546875 L 55.546875 0 Z M 15.953125 -72.9375 L 15.953125 -5.609375 L 49.9375 -5.609375 L 49.9375 -72.9375 Z M 15.953125 -72.9375 "/>
</symbol>
<symbol overflow="visible" id="id0:glyph0-1">
<path style="stroke:none;" d="M 40.921875 -60.0625 C 44.296875 -59.84375 47.320312 -58.960938 50 -57.421875 C 52.675781 -55.878906 55.039062 -53.828125 57.09375 -51.265625 C 59.4375 -48.328125 61.046875 -45.023438 61.921875 -41.359375 C 62.804688 -37.691406 63.25 -33.695312 63.25 -29.375 C 63.25 -25.113281 62.804688 -21.164062 61.921875 -17.53125 C 61.046875 -13.90625 59.4375 -10.703125 57.09375 -7.921875 C 54.96875 -5.273438 52.144531 -3.109375 48.625 -1.421875 C 45.101562 0.253906 40.8125 1.09375 35.75 1.09375 L 33.546875 1.09375 C 28.484375 1.09375 24.191406 0.253906 20.671875 -1.421875 C 17.160156 -3.109375 14.335938 -5.273438 12.203125 -7.921875 C 9.929688 -10.703125 8.335938 -13.90625 7.421875 -17.53125 C 6.503906 -21.164062 6.046875 -25.113281 6.046875 -29.375 C 6.046875 -33.695312 6.503906 -37.671875 7.421875 -41.296875 C 8.335938 -44.929688 9.929688 -48.253906 12.203125 -51.265625 C 16.316406 -56.691406 21.707031 -59.625 28.375 -60.0625 C 28.15625 -58.519531 27.9375 -56.921875 27.71875 -55.265625 C 27.5 -53.617188 27.390625 -51.878906 27.390625 -50.046875 C 27.390625 -47.046875 27.972656 -44.847656 29.140625 -43.453125 C 30.316406 -42.054688 32.15625 -41.359375 34.65625 -41.359375 C 37 -41.359375 38.789062 -42.015625 40.03125 -43.328125 C 41.28125 -44.648438 41.90625 -46.890625 41.90625 -50.046875 C 41.90625 -51.878906 41.796875 -53.617188 41.578125 -55.265625 C 41.359375 -56.921875 41.140625 -58.519531 40.921875 -60.0625 Z M 34.65625 -28.046875 C 30.175781 -28.046875 26.910156 -29.4375 24.859375 -32.21875 C 22.804688 -35.007812 21.78125 -38.238281 21.78125 -41.90625 C 21.78125 -42.863281 21.796875 -43.800781 21.828125 -44.71875 C 21.867188 -45.632812 21.960938 -46.53125 22.109375 -47.40625 C 19.765625 -46.3125 17.710938 -44.441406 15.953125 -41.796875 C 14.191406 -39.160156 13.3125 -35.828125 13.3125 -31.796875 L 13.3125 -30.6875 C 13.3125 -26.363281 14.226562 -22.898438 16.0625 -20.296875 C 17.894531 -17.691406 20.40625 -15.820312 23.59375 -14.6875 C 26.78125 -13.550781 30.46875 -12.984375 34.65625 -12.984375 C 38.832031 -12.984375 42.53125 -13.550781 45.75 -14.6875 C 48.976562 -15.820312 51.488281 -17.691406 53.28125 -20.296875 C 55.082031 -22.898438 55.984375 -26.363281 55.984375 -30.6875 L 55.984375 -31.796875 C 55.984375 -35.828125 55.101562 -39.144531 53.34375 -41.75 C 51.582031 -44.351562 49.53125 -46.238281 47.1875 -47.40625 C 47.332031 -46.457031 47.421875 -45.539062 47.453125 -44.65625 C 47.492188 -43.78125 47.515625 -42.863281 47.515625 -41.90625 C 47.515625 -38.238281 46.503906 -35.007812 44.484375 -32.21875 C 42.472656 -29.4375 39.195312 -28.046875 34.65625 -28.046875 Z M 34.65625 -28.046875 "/>
</symbol>
<symbol overflow="visible" id="id0:glyph0-2">
<path style="stroke:none;" d=""/>
</symbol>
<symbol overflow="visible" id="id0:glyph0-3">
<path style="stroke:none;" d="M 73.265625 -7.59375 L 73.265625 36.078125 C 73.265625 41.867188 72.617188 46.140625 71.328125 48.890625 C 70.046875 51.640625 68.5625 53.640625 66.875 54.890625 C 64.09375 56.941406 60.351562 58.242188 55.65625 58.796875 C 50.96875 59.347656 45.726562 59.625 39.9375 59.625 C 34.207031 59.625 28.992188 59.347656 24.296875 58.796875 C 19.609375 58.242188 15.875 56.941406 13.09375 54.890625 C 11.332031 53.640625 9.804688 51.640625 8.515625 48.890625 C 7.234375 46.140625 6.59375 41.867188 6.59375 36.078125 L 6.59375 -95.046875 C 6.59375 -100.835938 7.234375 -105.109375 8.515625 -107.859375 C 9.804688 -110.609375 11.332031 -112.601562 13.09375 -113.84375 C 15.875 -115.976562 19.609375 -117.300781 24.296875 -117.8125 C 28.992188 -118.320312 34.207031 -118.578125 39.9375 -118.578125 C 45.726562 -118.578125 50.96875 -118.320312 55.65625 -117.8125 C 60.351562 -117.300781 64.09375 -115.976562 66.875 -113.84375 C 68.5625 -112.601562 70.046875 -110.609375 71.328125 -107.859375 C 72.617188 -105.109375 73.265625 -100.835938 73.265625 -95.046875 L 73.265625 -86.5625 L 64.90625 -86.5625 L 64.90625 -91.625 C 64.90625 -97.34375 63.179688 -101.007812 59.734375 -102.625 C 57.679688 -103.4375 54.820312 -103.953125 51.15625 -104.171875 C 47.488281 -104.390625 43.75 -104.5 39.9375 -104.5 C 36.113281 -104.5 32.367188 -104.390625 28.703125 -104.171875 C 25.035156 -103.953125 22.210938 -103.4375 20.234375 -102.625 C 16.710938 -101.007812 14.953125 -97.34375 14.953125 -91.625 L 14.953125 32.5625 C 14.953125 38.28125 16.75 41.945312 20.34375 43.5625 C 22.25 44.363281 25.035156 44.894531 28.703125 45.15625 C 32.367188 45.414062 36.113281 45.546875 39.9375 45.546875 C 43.75 45.546875 47.488281 45.414062 51.15625 45.15625 C 54.820312 44.894531 57.644531 44.328125 59.625 43.453125 C 63.144531 41.984375 64.90625 38.351562 64.90625 32.5625 L 64.90625 -7.59375 Z M 73.265625 -7.59375 "/>
</symbol>
<symbol overflow="visible" id="id0:glyph0-4">
<path style="stroke:none;" d="M 32.671875 -51.046875 C 31.859375 -51.046875 31.175781 -51.316406 30.625 -51.859375 C 30.082031 -52.410156 29.8125 -53.128906 29.8125 -54.015625 C 29.8125 -54.816406 30.082031 -55.492188 30.625 -56.046875 C 31.175781 -56.597656 31.859375 -56.875 32.671875 -56.875 C 33.472656 -56.875 34.148438 -56.597656 34.703125 -56.046875 C 35.253906 -55.492188 35.53125 -54.816406 35.53125 -54.015625 C 35.53125 -53.128906 35.253906 -52.410156 34.703125 -51.859375 C 34.148438 -51.316406 33.472656 -51.046875 32.671875 -51.046875 Z M 42.125 -49.171875 C 41.175781 -49.171875 40.425781 -49.441406 39.875 -49.984375 C 39.320312 -50.535156 39.046875 -51.21875 39.046875 -52.03125 C 39.046875 -54.007812 40.070312 -55 42.125 -55 C 43.957031 -55 44.875 -54.007812 44.875 -52.03125 C 44.875 -51.21875 44.617188 -50.535156 44.109375 -49.984375 C 43.597656 -49.441406 42.9375 -49.171875 42.125 -49.171875 Z M 23.3125 -49.171875 C 22.507812 -49.171875 21.832031 -49.441406 21.28125 -49.984375 C 20.726562 -50.535156 20.453125 -51.21875 20.453125 -52.03125 C 20.453125 -52.90625 20.726562 -53.617188 21.28125 -54.171875 C 21.832031 -54.722656 22.507812 -55 23.3125 -55 C 24.195312 -55 24.914062 -54.722656 25.46875 -54.171875 C 26.019531 -53.617188 26.296875 -52.90625 26.296875 -52.03125 C 26.296875 -51.21875 26.019531 -50.535156 25.46875 -49.984375 C 24.914062 -49.441406 24.195312 -49.171875 23.3125 -49.171875 Z M 50.046875 -43.890625 C 49.171875 -43.890625 48.457031 -44.164062 47.90625 -44.71875 C 47.351562 -45.269531 47.078125 -45.945312 47.078125 -46.75 C 47.078125 -47.625 47.351562 -48.335938 47.90625 -48.890625 C 48.457031 -49.441406 49.171875 -49.71875 50.046875 -49.71875 C 51.878906 -49.71875 52.796875 -48.726562 52.796875 -46.75 C 52.796875 -45.945312 52.539062 -45.269531 52.03125 -44.71875 C 51.519531 -44.164062 50.859375 -43.890625 50.046875 -43.890625 Z M 15.40625 -43.890625 C 14.59375 -43.890625 13.910156 -44.144531 13.359375 -44.65625 C 12.816406 -45.175781 12.546875 -45.835938 12.546875 -46.640625 C 12.546875 -47.585938 12.816406 -48.335938 13.359375 -48.890625 C 13.910156 -49.441406 14.59375 -49.71875 15.40625 -49.71875 C 16.28125 -49.71875 16.992188 -49.441406 17.546875 -48.890625 C 18.097656 -48.335938 18.375 -47.625 18.375 -46.75 C 18.375 -45.945312 18.097656 -45.269531 17.546875 -44.71875 C 16.992188 -44.164062 16.28125 -43.890625 15.40625 -43.890625 Z M 55.21875 -35.859375 C 54.414062 -35.859375 53.738281 -36.132812 53.1875 -36.6875 C 52.632812 -37.238281 52.359375 -37.953125 52.359375 -38.828125 C 52.359375 -39.640625 52.632812 -40.316406 53.1875 -40.859375 C 53.738281 -41.410156 54.453125 -41.6875 55.328125 -41.6875 C 56.140625 -41.6875 56.816406 -41.410156 57.359375 -40.859375 C 57.910156 -40.316406 58.1875 -39.640625 58.1875 -38.828125 C 58.1875 -37.953125 57.910156 -37.238281 57.359375 -36.6875 C 56.816406 -36.132812 56.101562 -35.859375 55.21875 -35.859375 Z M 10.234375 -35.859375 C 8.179688 -35.859375 7.15625 -36.847656 7.15625 -38.828125 C 7.15625 -39.640625 7.425781 -40.316406 7.96875 -40.859375 C 8.519531 -41.410156 9.238281 -41.6875 10.125 -41.6875 C 10.925781 -41.6875 11.601562 -41.410156 12.15625 -40.859375 C 12.707031 -40.316406 12.984375 -39.640625 12.984375 -38.828125 C 12.984375 -36.847656 12.066406 -35.859375 10.234375 -35.859375 Z M 57.3125 -26.625 C 56.425781 -26.625 55.707031 -26.894531 55.15625 -27.4375 C 54.613281 -27.988281 54.34375 -28.671875 54.34375 -29.484375 C 54.34375 -30.285156 54.613281 -30.960938 55.15625 -31.515625 C 55.707031 -32.066406 56.425781 -32.34375 57.3125 -32.34375 C 58.113281 -32.34375 58.769531 -32.066406 59.28125 -31.515625 C 59.800781 -30.960938 60.0625 -30.285156 60.0625 -29.484375 C 60.0625 -28.671875 59.800781 -27.988281 59.28125 -27.4375 C 58.769531 -26.894531 58.113281 -26.625 57.3125 -26.625 Z M 8.25 -26.625 C 7.375 -26.625 6.660156 -26.894531 6.109375 -27.4375 C 5.554688 -27.988281 5.28125 -28.671875 5.28125 -29.484375 C 5.28125 -30.285156 5.554688 -30.960938 6.109375 -31.515625 C 6.660156 -32.066406 7.375 -32.34375 8.25 -32.34375 C 9.050781 -32.34375 9.726562 -32.066406 10.28125 -31.515625 C 10.832031 -30.960938 11.109375 -30.285156 11.109375 -29.484375 C 11.109375 -28.671875 10.832031 -27.988281 10.28125 -27.4375 C 9.726562 -26.894531 9.050781 -26.625 8.25 -26.625 Z M 55.21875 -17.265625 C 54.414062 -17.265625 53.738281 -17.539062 53.1875 -18.09375 C 52.632812 -18.644531 52.359375 -19.320312 52.359375 -20.125 C 52.359375 -21.007812 52.632812 -21.722656 53.1875 -22.265625 C 53.738281 -22.816406 54.414062 -23.09375 55.21875 -23.09375 C 56.101562 -23.09375 56.816406 -22.816406 57.359375 -22.265625 C 57.910156 -21.722656 58.1875 -21.007812 58.1875 -20.125 C 58.1875 -19.320312 57.910156 -18.644531 57.359375 -18.09375 C 56.816406 -17.539062 56.101562 -17.265625 55.21875 -17.265625 Z M 10.125 -17.265625 C 9.238281 -17.265625 8.519531 -17.539062 7.96875 -18.09375 C 7.425781 -18.644531 7.15625 -19.320312 7.15625 -20.125 C 7.15625 -21.007812 7.425781 -21.722656 7.96875 -22.265625 C 8.519531 -22.816406 9.238281 -23.09375 10.125 -23.09375 C 10.925781 -23.09375 11.601562 -22.816406 12.15625 -22.265625 C 12.707031 -21.722656 12.984375 -21.007812 12.984375 -20.125 C 12.984375 -19.320312 12.707031 -18.644531 12.15625 -18.09375 C 11.601562 -17.539062 10.925781 -17.265625 10.125 -17.265625 Z M 50.046875 -9.234375 C 49.171875 -9.234375 48.457031 -9.507812 47.90625 -10.0625 C 47.351562 -10.613281 47.078125 -11.289062 47.078125 -12.09375 C 47.078125 -12.976562 47.351562 -13.691406 47.90625 -14.234375 C 48.457031 -14.785156 49.171875 -15.0625 50.046875 -15.0625 C 51.878906 -15.0625 52.796875 -14.070312 52.796875 -12.09375 C 52.796875 -11.289062 52.539062 -10.613281 52.03125 -10.0625 C 51.519531 -9.507812 50.859375 -9.234375 50.046875 -9.234375 Z M 15.40625 -9.234375 C 14.59375 -9.234375 13.910156 -9.507812 13.359375 -10.0625 C 12.816406 -10.613281 12.546875 -11.289062 12.546875 -12.09375 C 12.546875 -12.976562 12.816406 -13.691406 13.359375 -14.234375 C 13.910156 -14.785156 14.59375 -15.0625 15.40625 -15.0625 C 16.28125 -15.0625 16.992188 -14.785156 17.546875 -14.234375 C 18.097656 -13.691406 18.375 -12.976562 18.375 -12.09375 C 18.375 -11.289062 18.097656 -10.613281 17.546875 -10.0625 C 16.992188 -9.507812 16.28125 -9.234375 15.40625 -9.234375 Z M 42.125 -4.0625 C 40.070312 -4.0625 39.046875 -4.976562 39.046875 -6.8125 C 39.046875 -8.800781 40.070312 -9.796875 42.125 -9.796875 C 43.957031 -9.796875 44.875 -8.800781 44.875 -6.8125 C 44.875 -4.976562 43.957031 -4.0625 42.125 -4.0625 Z M 23.3125 -4.0625 C 22.507812 -4.0625 21.832031 -4.316406 21.28125 -4.828125 C 20.726562 -5.347656 20.453125 -6.007812 20.453125 -6.8125 C 20.453125 -7.695312 20.726562 -8.414062 21.28125 -8.96875 C 21.832031 -9.519531 22.507812 -9.796875 23.3125 -9.796875 C 25.300781 -9.796875 26.296875 -8.878906 26.296875 -7.046875 C 26.296875 -6.160156 26.019531 -5.441406 25.46875 -4.890625 C 24.914062 -4.335938 24.195312 -4.0625 23.3125 -4.0625 Z M 32.671875 -2.09375 C 31.859375 -2.09375 31.175781 -2.363281 30.625 -2.90625 C 30.082031 -3.457031 29.8125 -4.175781 29.8125 -5.0625 C 29.8125 -5.863281 30.082031 -6.539062 30.625 -7.09375 C 31.175781 -7.644531 31.859375 -7.921875 32.671875 -7.921875 C 33.472656 -7.921875 34.148438 -7.644531 34.703125 -7.09375 C 35.253906 -6.539062 35.53125 -5.863281 35.53125 -5.0625 C 35.53125 -4.175781 35.253906 -3.457031 34.703125 -2.90625 C 34.148438 -2.363281 33.472656 -2.09375 32.671875 -2.09375 Z M 32.671875 -2.09375 "/>
</symbol>
</g>
<g>
<symbol overflow="visible" id="id1:glyph0-0">
<path style="stroke:none;" d="M 5.375 -96.6875 L 69.828125 -96.6875 L 69.828125 0 L 5.375 0 Z M 8.0625 -2.6875 L 67.140625 -2.6875 L 67.140625 -94 L 8.0625 -94 Z M 8.0625 -2.6875 "/>
</symbol>
<symbol overflow="visible" id="id1:glyph0-1">
<path style="stroke:none;" d="M 68.15625 -13.75 L 66.28125 -18.640625 L 88.09375 -27.390625 L 6.984375 -27.390625 L 6.984375 -34 L 88.09375 -34 L 66.28125 -42.75 L 68.15625 -47.640625 L 99.09375 -34.265625 L 99.09375 -27.125 Z M 68.15625 -13.75 "/>
</symbol>
</g>
<g>
<symbol overflow="visible" id="id2:glyph0-0">
<path style="stroke:none;" d="M 10.34375 0 L 10.34375 -78.546875 L 55.546875 -78.546875 L 55.546875 0 Z M 15.953125 -72.9375 L 15.953125 -5.609375 L 49.9375 -5.609375 L 49.9375 -72.9375 Z M 15.953125 -72.9375 "/>
</symbol>
<symbol overflow="visible" id="id2:glyph0-1">
<path style="stroke:none;" d="M 73.265625 -7.59375 L 73.265625 36.078125 C 73.265625 41.867188 72.617188 46.140625 71.328125 48.890625 C 70.046875 51.640625 68.5625 53.640625 66.875 54.890625 C 64.09375 56.941406 60.351562 58.242188 55.65625 58.796875 C 50.96875 59.347656 45.726562 59.625 39.9375 59.625 C 34.207031 59.625 28.992188 59.347656 24.296875 58.796875 C 19.609375 58.242188 15.875 56.941406 13.09375 54.890625 C 11.332031 53.640625 9.804688 51.640625 8.515625 48.890625 C 7.234375 46.140625 6.59375 41.867188 6.59375 36.078125 L 6.59375 -95.046875 C 6.59375 -100.835938 7.234375 -105.109375 8.515625 -107.859375 C 9.804688 -110.609375 11.332031 -112.601562 13.09375 -113.84375 C 15.875 -115.976562 19.609375 -117.300781 24.296875 -117.8125 C 28.992188 -118.320312 34.207031 -118.578125 39.9375 -118.578125 C 45.726562 -118.578125 50.96875 -118.320312 55.65625 -117.8125 C 60.351562 -117.300781 64.09375 -115.976562 66.875 -113.84375 C 68.5625 -112.601562 70.046875 -110.609375 71.328125 -107.859375 C 72.617188 -105.109375 73.265625 -100.835938 73.265625 -95.046875 L 73.265625 -86.5625 L 64.90625 -86.5625 L 64.90625 -91.625 C 64.90625 -97.34375 63.179688 -101.007812 59.734375 -102.625 C 57.679688 -103.4375 54.820312 -103.953125 51.15625 -104.171875 C 47.488281 -104.390625 43.75 -104.5 39.9375 -104.5 C 36.113281 -104.5 32.367188 -104.390625 28.703125 -104.171875 C 25.035156 -103.953125 22.210938 -103.4375 20.234375 -102.625 C 16.710938 -101.007812 14.953125 -97.34375 14.953125 -91.625 L 14.953125 32.5625 C 14.953125 38.28125 16.75 41.945312 20.34375 43.5625 C 22.25 44.363281 25.035156 44.894531 28.703125 45.15625 C 32.367188 45.414062 36.113281 45.546875 39.9375 45.546875 C 43.75 45.546875 47.488281 45.414062 51.15625 45.15625 C 54.820312 44.894531 57.644531 44.328125 59.625 43.453125 C 63.144531 41.984375 64.90625 38.351562 64.90625 32.5625 L 64.90625 -7.59375 Z M 73.265625 -7.59375 "/>
</symbol>
<symbol overflow="visible" id="id2:glyph0-2">
<path style="stroke:none;" d="M 40.921875 -60.0625 C 44.296875 -59.84375 47.320312 -58.960938 50 -57.421875 C 52.675781 -55.878906 55.039062 -53.828125 57.09375 -51.265625 C 59.4375 -48.328125 61.046875 -45.023438 61.921875 -41.359375 C 62.804688 -37.691406 63.25 -33.695312 63.25 -29.375 C 63.25 -25.113281 62.804688 -21.164062 61.921875 -17.53125 C 61.046875 -13.90625 59.4375 -10.703125 57.09375 -7.921875 C 54.96875 -5.273438 52.144531 -3.109375 48.625 -1.421875 C 45.101562 0.253906 40.8125 1.09375 35.75 1.09375 L 33.546875 1.09375 C 28.484375 1.09375 24.191406 0.253906 20.671875 -1.421875 C 17.160156 -3.109375 14.335938 -5.273438 12.203125 -7.921875 C 9.929688 -10.703125 8.335938 -13.90625 7.421875 -17.53125 C 6.503906 -21.164062 6.046875 -25.113281 6.046875 -29.375 C 6.046875 -33.695312 6.503906 -37.671875 7.421875 -41.296875 C 8.335938 -44.929688 9.929688 -48.253906 12.203125 -51.265625 C 16.316406 -56.691406 21.707031 -59.625 28.375 -60.0625 C 28.15625 -58.519531 27.9375 -56.921875 27.71875 -55.265625 C 27.5 -53.617188 27.390625 -51.878906 27.390625 -50.046875 C 27.390625 -47.046875 27.972656 -44.847656 29.140625 -43.453125 C 30.316406 -42.054688 32.15625 -41.359375 34.65625 -41.359375 C 37 -41.359375 38.789062 -42.015625 40.03125 -43.328125 C 41.28125 -44.648438 41.90625 -46.890625 41.90625 -50.046875 C 41.90625 -51.878906 41.796875 -53.617188 41.578125 -55.265625 C 41.359375 -56.921875 41.140625 -58.519531 40.921875 -60.0625 Z M 34.65625 -28.046875 C 30.175781 -28.046875 26.910156 -29.4375 24.859375 -32.21875 C 22.804688 -35.007812 21.78125 -38.238281 21.78125 -41.90625 C 21.78125 -42.863281 21.796875 -43.800781 21.828125 -44.71875 C 21.867188 -45.632812 21.960938 -46.53125 22.109375 -47.40625 C 19.765625 -46.3125 17.710938 -44.441406 15.953125 -41.796875 C 14.191406 -39.160156 13.3125 -35.828125 13.3125 -31.796875 L 13.3125 -30.6875 C 13.3125 -26.363281 14.226562 -22.898438 16.0625 -20.296875 C 17.894531 -17.691406 20.40625 -15.820312 23.59375 -14.6875 C 26.78125 -13.550781 30.46875 -12.984375 34.65625 -12.984375 C 38.832031 -12.984375 42.53125 -13.550781 45.75 -14.6875 C 48.976562 -15.820312 51.488281 -17.691406 53.28125 -20.296875 C 55.082031 -22.898438 55.984375 -26.363281 55.984375 -30.6875 L 55.984375 -31.796875 C 55.984375 -35.828125 55.101562 -39.144531 53.34375 -41.75 C 51.582031 -44.351562 49.53125 -46.238281 47.1875 -47.40625 C 47.332031 -46.457031 47.421875 -45.539062 47.453125 -44.65625 C 47.492188 -43.78125 47.515625 -42.863281 47.515625 -41.90625 C 47.515625 -38.238281 46.503906 -35.007812 44.484375 -32.21875 C 42.472656 -29.4375 39.195312 -28.046875 34.65625 -28.046875 Z M 34.65625 -28.046875 "/>
</symbol>
</g>
</defs>
  <g id="id0:id0" transform="matrix(1.25,0,0,1.25,0.0,0.0)"><g id="id0:surface1">
<g style="fill:rgb(0%,0%,0%);fill-opacity:1;">
  <use xlink:href="#id0:glyph0-1" x="16" y="138.296875"/>
  <use xlink:href="#id0:glyph0-2" x="85.296875" y="138.296875"/>
  <use xlink:href="#id0:glyph0-3" x="85.296875" y="138.296875"/>
  <use xlink:href="#id0:glyph0-4" x="106.859375" y="138.296875"/>
</g>
</g>
</g>
  <g id="id1:id1" transform="matrix(1.25,0,0,1.25,235.25390625,73.603515625)"><g id="id1:surface1">
<g style="fill:rgb(0%,0%,0%);fill-opacity:1;">
  <use xlink:href="#id1:glyph0-1" x="0" y="120.84375"/>
</g>
</g>
</g>
  <g id="id2:id2" transform="matrix(1.25,0,0,1.25,367.8515625,0.0)"><g id="id2:surface1">
<g style="fill:rgb(0%,0%,0%);fill-opacity:1;">
  <use xlink:href="#id2:glyph0-1" x="16" y="138.296875"/>
  <use xlink:href="#id2:glyph0-2" x="37.5625" y="138.296875"/>
</g>
</g>
</g>
</svg>
