<!DOCTYPE svg PUBLIC "-//W3C//DTD SVG 1.1//EN" "http://www.w3.org/Graphics/SVG/1.1/DTD/svg11.dtd">
<!-- Created with svg_stack (http://github.com/astraw/svg_stack) --><svg xmlns="http://www.w3.org/2000/svg" xmlns:sodipodi="http://sodipodi.sourceforge.net/DTD/sodipodi-0.dtd" xmlns:xlink="http://www.w3.org/1999/xlink" version="1.1" width="100%" id="myanmar-blwm" viewBox="0 0 394.35546875 305.29296875">
  <defs><g>
<symbol overflow="visible" id="myanmar-blwm:id0:glyph0-0">
<path style="stroke:none;" d="M 10.34375 0 L 10.34375 -78.546875 L 55.546875 -78.546875 L 55.546875 0 Z M 15.953125 -72.9375 L 15.953125 -5.609375 L 49.9375 -5.609375 L 49.9375 -72.9375 Z M 15.953125 -72.9375 "/>
</symbol>
<symbol overflow="visible" id="myanmar-blwm:id0:glyph0-1">
<path style="stroke:none;" d="M 36.625 1.09375 C 33.914062 1.09375 31.09375 0.710938 28.15625 -0.046875 C 25.226562 -0.816406 22.441406 -2.117188 19.796875 -3.953125 L 19.796875 36.515625 C 19.796875 38.640625 20.179688 40.304688 20.953125 41.515625 C 21.722656 42.734375 22.953125 43.34375 24.640625 43.34375 L 24.640625 51.375 C 19.210938 51.375 15.414062 50.195312 13.25 47.84375 C 11.09375 45.5 10.015625 41.757812 10.015625 36.625 L 10.015625 -16.828125 L 17.703125 -20.796875 C 19.535156 -16.242188 22.101562 -12.8125 25.40625 -10.5 C 28.707031 -8.195312 32.484375 -7.046875 36.734375 -7.046875 C 42.828125 -7.046875 47.632812 -9.113281 51.15625 -13.25 C 54.675781 -17.394531 56.4375 -22.878906 56.4375 -29.703125 C 56.4375 -34.097656 55.628906 -37.960938 54.015625 -41.296875 C 52.398438 -44.640625 50.125 -47.242188 47.1875 -49.109375 C 44.257812 -50.984375 40.773438 -51.921875 36.734375 -51.921875 C 32.484375 -51.921875 28.707031 -50.765625 25.40625 -48.453125 C 22.101562 -46.140625 19.535156 -42.710938 17.703125 -38.171875 L 10.015625 -42.125 C 11.992188 -47.625 15.363281 -51.988281 20.125 -55.21875 C 24.894531 -58.445312 30.394531 -60.0625 36.625 -60.0625 C 42.71875 -60.0625 47.976562 -58.722656 52.40625 -56.046875 C 56.84375 -53.367188 60.289062 -49.738281 62.75 -45.15625 C 65.207031 -40.570312 66.4375 -35.382812 66.4375 -29.59375 C 66.4375 -23.65625 65.207031 -18.375 62.75 -13.75 C 60.289062 -9.125 56.828125 -5.492188 52.359375 -2.859375 C 47.890625 -0.222656 42.644531 1.09375 36.625 1.09375 Z M 36.625 1.09375 "/>
</symbol>
<symbol overflow="visible" id="myanmar-blwm:id0:glyph0-2">
<path style="stroke:none;" d="M -25.296875 39.9375 L -25.296875 20.453125 C -25.296875 17.160156 -26.359375 14.707031 -28.484375 13.09375 C -30.617188 11.476562 -33.40625 10.671875 -36.84375 10.671875 C -41.101562 10.671875 -44.113281 11.914062 -45.875 14.40625 C -40.519531 15.289062 -36.628906 16.976562 -34.203125 19.46875 C -31.785156 21.957031 -30.578125 25.441406 -30.578125 29.921875 C -31.316406 30.140625 -32.414062 30.359375 -33.875 30.578125 C -35.34375 30.796875 -36.445312 30.90625 -37.1875 30.90625 C -42.164062 30.90625 -46.269531 29.785156 -49.5 27.546875 C -52.726562 25.316406 -54.34375 22.441406 -54.34375 18.921875 C -54.34375 14.742188 -52.765625 11.441406 -49.609375 9.015625 C -46.453125 6.597656 -42.195312 5.390625 -36.84375 5.390625 C -30.976562 5.390625 -26.335938 6.671875 -22.921875 9.234375 C -19.515625 11.804688 -17.8125 15.546875 -17.8125 20.453125 L -17.8125 34.4375 L -10.015625 34.4375 L -10.015625 39.9375 Z M -47.1875 18.921875 C -47.1875 20.898438 -46.34375 22.492188 -44.65625 23.703125 C -42.96875 24.910156 -40.585938 25.515625 -37.515625 25.515625 C -37.953125 23.460938 -38.992188 21.941406 -40.640625 20.953125 C -42.296875 19.960938 -44.476562 19.210938 -47.1875 18.703125 Z M -47.1875 18.921875 "/>
</symbol>
</g>
<g>
<symbol overflow="visible" id="myanmar-blwm:id1:glyph0-0">
<path style="stroke:none;" d="M 5.375 -96.6875 L 69.828125 -96.6875 L 69.828125 0 L 5.375 0 Z M 8.0625 -2.6875 L 67.140625 -2.6875 L 67.140625 -94 L 8.0625 -94 Z M 8.0625 -2.6875 "/>
</symbol>
<symbol overflow="visible" id="myanmar-blwm:id1:glyph0-1">
<path style="stroke:none;" d="M 68.15625 -13.75 L 66.28125 -18.640625 L 88.09375 -27.390625 L 6.984375 -27.390625 L 6.984375 -34 L 88.09375 -34 L 66.28125 -42.75 L 68.15625 -47.640625 L 99.09375 -34.265625 L 99.09375 -27.125 Z M 68.15625 -13.75 "/>
</symbol>
</g>
<g>
<symbol overflow="visible" id="myanmar-blwm:id2:glyph0-0">
<path style="stroke:none;" d="M 10.34375 0 L 10.34375 -78.546875 L 55.546875 -78.546875 L 55.546875 0 Z M 15.953125 -72.9375 L 15.953125 -5.609375 L 49.9375 -5.609375 L 49.9375 -72.9375 Z M 15.953125 -72.9375 "/>
</symbol>
<symbol overflow="visible" id="myanmar-blwm:id2:glyph0-1">
<path style="stroke:none;" d="M 36.625 1.09375 C 33.914062 1.09375 31.09375 0.710938 28.15625 -0.046875 C 25.226562 -0.816406 22.441406 -2.117188 19.796875 -3.953125 L 19.796875 36.515625 C 19.796875 38.640625 20.179688 40.304688 20.953125 41.515625 C 21.722656 42.734375 22.953125 43.34375 24.640625 43.34375 L 24.640625 51.375 C 19.210938 51.375 15.414062 50.195312 13.25 47.84375 C 11.09375 45.5 10.015625 41.757812 10.015625 36.625 L 10.015625 -16.828125 L 17.703125 -20.796875 C 19.535156 -16.242188 22.101562 -12.8125 25.40625 -10.5 C 28.707031 -8.195312 32.484375 -7.046875 36.734375 -7.046875 C 42.828125 -7.046875 47.632812 -9.113281 51.15625 -13.25 C 54.675781 -17.394531 56.4375 -22.878906 56.4375 -29.703125 C 56.4375 -34.097656 55.628906 -37.960938 54.015625 -41.296875 C 52.398438 -44.640625 50.125 -47.242188 47.1875 -49.109375 C 44.257812 -50.984375 40.773438 -51.921875 36.734375 -51.921875 C 32.484375 -51.921875 28.707031 -50.765625 25.40625 -48.453125 C 22.101562 -46.140625 19.535156 -42.710938 17.703125 -38.171875 L 10.015625 -42.125 C 11.992188 -47.625 15.363281 -51.988281 20.125 -55.21875 C 24.894531 -58.445312 30.394531 -60.0625 36.625 -60.0625 C 42.71875 -60.0625 47.976562 -58.722656 52.40625 -56.046875 C 56.84375 -53.367188 60.289062 -49.738281 62.75 -45.15625 C 65.207031 -40.570312 66.4375 -35.382812 66.4375 -29.59375 C 66.4375 -23.65625 65.207031 -18.375 62.75 -13.75 C 60.289062 -9.125 56.828125 -5.492188 52.359375 -2.859375 C 47.890625 -0.222656 42.644531 1.09375 36.625 1.09375 Z M 36.625 1.09375 "/>
</symbol>
<symbol overflow="visible" id="myanmar-blwm:id2:glyph0-2">
<path style="stroke:none;" d="M -25.296875 39.9375 L -25.296875 20.453125 C -25.296875 17.160156 -26.359375 14.707031 -28.484375 13.09375 C -30.617188 11.476562 -33.40625 10.671875 -36.84375 10.671875 C -41.101562 10.671875 -44.113281 11.914062 -45.875 14.40625 C -40.519531 15.289062 -36.628906 16.976562 -34.203125 19.46875 C -31.785156 21.957031 -30.578125 25.441406 -30.578125 29.921875 C -31.316406 30.140625 -32.414062 30.359375 -33.875 30.578125 C -35.34375 30.796875 -36.445312 30.90625 -37.1875 30.90625 C -42.164062 30.90625 -46.269531 29.785156 -49.5 27.546875 C -52.726562 25.316406 -54.34375 22.441406 -54.34375 18.921875 C -54.34375 14.742188 -52.765625 11.441406 -49.609375 9.015625 C -46.453125 6.597656 -42.195312 5.390625 -36.84375 5.390625 C -30.976562 5.390625 -26.335938 6.671875 -22.921875 9.234375 C -19.515625 11.804688 -17.8125 15.546875 -17.8125 20.453125 L -17.8125 34.4375 L -10.015625 34.4375 L -10.015625 39.9375 Z M -47.1875 18.921875 C -47.1875 20.898438 -46.34375 22.492188 -44.65625 23.703125 C -42.96875 24.910156 -40.585938 25.515625 -37.515625 25.515625 C -37.953125 23.460938 -38.992188 21.941406 -40.640625 20.953125 C -42.296875 19.960938 -44.476562 19.210938 -47.1875 18.703125 Z M -47.1875 18.921875 "/>
</symbol>
</g>
</defs>
  <g id="myanmar-blwm:id0:id0" transform="matrix(1.25,0,0,1.25,0.0,0.0)"><g id="myanmar-blwm:id0:surface1">
<g style="fill:rgb(0%,0%,0%);fill-opacity:1;">
  <use xlink:href="#myanmar-blwm:id0:glyph0-1" x="16" y="147.640625" class="c0"/>
  <use xlink:href="#myanmar-blwm:id0:glyph0-2" x="88.703125" y="147.640625" class="c1"/>
</g>
</g>
</g>
  <g id="myanmar-blwm:id1:id1" transform="matrix(1.25,0,0,1.25,130.87890625,51.943359375)"><g id="myanmar-blwm:id1:surface1">
<g style="fill:rgb(0%,0%,0%);fill-opacity:1;">
  <use xlink:href="#myanmar-blwm:id1:glyph0-1" x="0" y="120.84375" class="arrow"/>
</g>
</g>
</g>
  <g id="myanmar-blwm:id2:id2" transform="matrix(1.25,0,0,1.25,263.4765625,0.0)"><g id="myanmar-blwm:id2:surface1">
<g style="fill:rgb(0%,0%,0%);fill-opacity:1;">
  <use xlink:href="#myanmar-blwm:id2:glyph0-1" x="16" y="147.640625" class="c0"/>
  <use xlink:href="#myanmar-blwm:id2:glyph0-2" x="96.734375" y="150.28125" class="c1"/>
</g>
</g>
</g>
</svg>