<?xml version="1.0" standalone="no"?>
<!DOCTYPE svg PUBLIC "-//W3C//DTD SVG 1.1//EN"
 "http://www.w3.org/Graphics/SVG/1.1/DTD/svg11.dtd">
<!-- Created with svg_stack (http://github.com/astraw/svg_stack) -->
<svg xmlns="http://www.w3.org/2000/svg" xmlns:sodipodi="http://sodipodi.sourceforge.net/DTD/sodipodi-0.dtd" xmlns:xlink="http://www.w3.org/1999/xlink" version="1.1" width="467.109375" height="348.61328125">
  <defs><g>
<symbol overflow="visible" id="id0:glyph0-0">
<path style="stroke:none;" d="M 10.34375 0 L 10.34375 -78.546875 L 55.546875 -78.546875 L 55.546875 0 Z M 15.953125 -72.9375 L 15.953125 -5.609375 L 49.9375 -5.609375 L 49.9375 -72.9375 Z M 15.953125 -72.9375 "/>
</symbol>
<symbol overflow="visible" id="id0:glyph0-1">
<path style="stroke:none;" d="M 33.546875 -60.0625 L 35.75 -60.0625 C 40.664062 -60.0625 44.957031 -59.195312 48.625 -57.46875 C 52.289062 -55.75 55.257812 -53.421875 57.53125 -50.484375 C 59.582031 -47.921875 61.046875 -44.914062 61.921875 -41.46875 C 62.804688 -38.019531 63.25 -34.023438 63.25 -29.484375 C 63.25 -24.929688 62.804688 -20.929688 61.921875 -17.484375 C 61.046875 -14.035156 59.582031 -11.03125 57.53125 -8.46875 C 55.257812 -5.53125 52.289062 -3.203125 48.625 -1.484375 C 44.957031 0.234375 40.664062 1.09375 35.75 1.09375 L 33.546875 1.09375 C 28.640625 1.09375 24.351562 0.234375 20.6875 -1.484375 C 17.019531 -3.203125 14.046875 -5.53125 11.765625 -8.46875 C 9.710938 -11.03125 8.242188 -14.035156 7.359375 -17.484375 C 6.484375 -20.929688 6.046875 -24.929688 6.046875 -29.484375 C 6.046875 -34.023438 6.484375 -38.019531 7.359375 -41.46875 C 8.242188 -44.914062 9.710938 -47.921875 11.765625 -50.484375 C 14.046875 -53.421875 17.019531 -55.75 20.6875 -57.46875 C 24.351562 -59.195312 28.640625 -60.0625 33.546875 -60.0625 Z M 34.65625 -12.984375 C 38.832031 -12.984375 42.53125 -13.492188 45.75 -14.515625 C 48.976562 -15.546875 51.488281 -17.234375 53.28125 -19.578125 C 55.082031 -21.921875 55.984375 -25.039062 55.984375 -28.9375 L 55.984375 -30.03125 C 55.984375 -33.988281 55.082031 -37.125 53.28125 -39.4375 C 51.488281 -41.75 48.976562 -43.414062 45.75 -44.4375 C 42.53125 -45.46875 38.832031 -45.984375 34.65625 -45.984375 C 30.46875 -45.984375 26.78125 -45.46875 23.59375 -44.4375 C 20.40625 -43.414062 17.894531 -41.75 16.0625 -39.4375 C 14.226562 -37.125 13.3125 -33.988281 13.3125 -30.03125 L 13.3125 -28.9375 C 13.3125 -25.039062 14.226562 -21.921875 16.0625 -19.578125 C 17.894531 -17.234375 20.40625 -15.546875 23.59375 -14.515625 C 26.78125 -13.492188 30.46875 -12.984375 34.65625 -12.984375 Z M 34.65625 -12.984375 "/>
</symbol>
<symbol overflow="visible" id="id0:glyph0-2">
<path style="stroke:none;" d="M -13.640625 -51.046875 C -11.585938 -53.679688 -8.742188 -55.84375 -5.109375 -57.53125 C -1.484375 -59.21875 2.785156 -60.0625 7.703125 -60.0625 L 9.90625 -60.0625 C 14.8125 -60.0625 19.097656 -59.195312 22.765625 -57.46875 C 26.429688 -55.75 29.40625 -53.421875 31.6875 -50.484375 C 33.738281 -47.921875 35.203125 -44.914062 36.078125 -41.46875 C 36.960938 -38.019531 37.40625 -34.023438 37.40625 -29.484375 C 37.40625 -24.929688 36.960938 -20.929688 36.078125 -17.484375 C 35.203125 -14.035156 33.738281 -11.03125 31.6875 -8.46875 C 29.40625 -5.53125 26.394531 -3.203125 22.65625 -1.484375 C 18.914062 0.234375 14.441406 1.09375 9.234375 1.09375 C 6.816406 1.09375 4.726562 0.984375 2.96875 0.765625 L 2.96875 -12.984375 L 8.796875 -12.984375 C 12.972656 -12.984375 16.675781 -13.492188 19.90625 -14.515625 C 23.132812 -15.546875 25.644531 -17.234375 27.4375 -19.578125 C 29.238281 -21.921875 30.140625 -25.039062 30.140625 -28.9375 L 30.140625 -30.03125 C 30.140625 -33.988281 29.238281 -37.125 27.4375 -39.4375 C 25.644531 -41.75 23.132812 -43.414062 19.90625 -44.4375 C 16.675781 -45.46875 12.972656 -45.984375 8.796875 -45.984375 C 5.128906 -45.984375 1.832031 -45.597656 -1.09375 -44.828125 C -4.03125 -44.054688 -6.453125 -42.753906 -8.359375 -40.921875 Z M -13.640625 -51.046875 "/>
</symbol>
</g>
<g>
<symbol overflow="visible" id="id1:glyph0-0">
<path style="stroke:none;" d="M 5.375 -96.6875 L 69.828125 -96.6875 L 69.828125 0 L 5.375 0 Z M 8.0625 -2.6875 L 67.140625 -2.6875 L 67.140625 -94 L 8.0625 -94 Z M 8.0625 -2.6875 "/>
</symbol>
<symbol overflow="visible" id="id1:glyph0-1">
<path style="stroke:none;" d="M 68.15625 -13.75 L 66.28125 -18.640625 L 88.09375 -27.390625 L 6.984375 -27.390625 L 6.984375 -34 L 88.09375 -34 L 66.28125 -42.75 L 68.15625 -47.640625 L 99.09375 -34.265625 L 99.09375 -27.125 Z M 68.15625 -13.75 "/>
</symbol>
</g>
<g>
<symbol overflow="visible" id="id2:glyph0-0">
<path style="stroke:none;" d="M 10.34375 0 L 10.34375 -78.546875 L 55.546875 -78.546875 L 55.546875 0 Z M 15.953125 -72.9375 L 15.953125 -5.609375 L 49.9375 -5.609375 L 49.9375 -72.9375 Z M 15.953125 -72.9375 "/>
</symbol>
<symbol overflow="visible" id="id2:glyph0-1">
<path style="stroke:none;" d="M 33.546875 -60.0625 L 35.75 -60.0625 C 40.664062 -60.0625 44.957031 -59.195312 48.625 -57.46875 C 52.289062 -55.75 55.257812 -53.421875 57.53125 -50.484375 C 59.582031 -47.921875 61.046875 -44.914062 61.921875 -41.46875 C 62.804688 -38.019531 63.25 -34.023438 63.25 -29.484375 C 63.25 -24.929688 62.804688 -20.929688 61.921875 -17.484375 C 61.046875 -14.035156 59.582031 -11.03125 57.53125 -8.46875 C 55.257812 -5.53125 52.289062 -3.203125 48.625 -1.484375 C 44.957031 0.234375 40.664062 1.09375 35.75 1.09375 L 33.546875 1.09375 C 28.640625 1.09375 24.351562 0.234375 20.6875 -1.484375 C 17.019531 -3.203125 14.046875 -5.53125 11.765625 -8.46875 C 9.710938 -11.03125 8.242188 -14.035156 7.359375 -17.484375 C 6.484375 -20.929688 6.046875 -24.929688 6.046875 -29.484375 C 6.046875 -34.023438 6.484375 -38.019531 7.359375 -41.46875 C 8.242188 -44.914062 9.710938 -47.921875 11.765625 -50.484375 C 14.046875 -53.421875 17.019531 -55.75 20.6875 -57.46875 C 24.351562 -59.195312 28.640625 -60.0625 33.546875 -60.0625 Z M 34.65625 -12.984375 C 38.832031 -12.984375 42.53125 -13.492188 45.75 -14.515625 C 48.976562 -15.546875 51.488281 -17.234375 53.28125 -19.578125 C 55.082031 -21.921875 55.984375 -25.039062 55.984375 -28.9375 L 55.984375 -30.03125 C 55.984375 -33.988281 55.082031 -37.125 53.28125 -39.4375 C 51.488281 -41.75 48.976562 -43.414062 45.75 -44.4375 C 42.53125 -45.46875 38.832031 -45.984375 34.65625 -45.984375 C 30.46875 -45.984375 26.78125 -45.46875 23.59375 -44.4375 C 20.40625 -43.414062 17.894531 -41.75 16.0625 -39.4375 C 14.226562 -37.125 13.3125 -33.988281 13.3125 -30.03125 L 13.3125 -28.9375 C 13.3125 -25.039062 14.226562 -21.921875 16.0625 -19.578125 C 17.894531 -17.234375 20.40625 -15.546875 23.59375 -14.515625 C 26.78125 -13.492188 30.46875 -12.984375 34.65625 -12.984375 Z M 34.65625 -12.984375 "/>
</symbol>
<symbol overflow="visible" id="id2:glyph0-2">
<path style="stroke:none;" d="M 14.953125 -88 L 14.953125 0 L 6.59375 0 L 6.59375 -85.359375 C 6.59375 -90.273438 5.878906 -94.109375 4.453125 -96.859375 C 3.023438 -99.609375 0.992188 -101.566406 -1.640625 -102.734375 C -4.285156 -103.910156 -7.367188 -104.5 -10.890625 -104.5 C -16.242188 -104.5 -20.515625 -103.234375 -23.703125 -100.703125 C -26.890625 -98.171875 -28.484375 -93.753906 -28.484375 -87.453125 L -28.484375 -86.6875 L -34.875 -86.6875 C -34.945312 -87.269531 -35.019531 -88.09375 -35.09375 -89.15625 C -35.164062 -90.21875 -35.203125 -91.1875 -35.203125 -92.0625 C -35.203125 -97.195312 -34.285156 -101.742188 -32.453125 -105.703125 C -30.617188 -109.671875 -27.832031 -112.804688 -24.09375 -115.109375 C -20.351562 -117.421875 -15.695312 -118.578125 -10.125 -118.578125 C -1.6875 -118.578125 4.597656 -115.9375 8.734375 -110.65625 C 12.878906 -105.375 14.953125 -97.820312 14.953125 -88 Z M 14.953125 -88 "/>
</symbol>
</g>
</defs>
  <g id="id0:id0" transform="matrix(1.25,0,0,1.25,0.0,0.0)"><g id="id0:surface1">
<g style="fill:rgb(0%,0%,0%);fill-opacity:1;">
  <use xlink:href="#id0:glyph0-1" x="16" y="138.296875"/>
  <use xlink:href="#id0:glyph0-2" x="85.296875" y="138.296875"/>
</g>
</g>
</g>
  <g id="id1:id1" transform="matrix(1.25,0,0,1.25,180.9375,73.603515625)"><g id="id1:surface1">
<g style="fill:rgb(0%,0%,0%);fill-opacity:1;">
  <use xlink:href="#id1:glyph0-1" x="0" y="120.84375"/>
</g>
</g>
</g>
  <g id="id2:id2" transform="matrix(1.25,0,0,1.25,313.53515625,0.0)"><g id="id2:surface1">
<g style="fill:rgb(0%,0%,0%);fill-opacity:1;">
  <use xlink:href="#id2:glyph0-1" x="16" y="138.296875"/>
  <use xlink:href="#id2:glyph0-2" x="85.296875" y="138.296875"/>
</g>
</g>
</g>
</svg>
