<?xml version="1.0" standalone="no"?>
<!DOCTYPE svg PUBLIC "-//W3C//DTD SVG 1.1//EN"
 "http://www.w3.org/Graphics/SVG/1.1/DTD/svg11.dtd">
<!-- Created with svg_stack (http://github.com/astraw/svg_stack) -->
<svg xmlns="http://www.w3.org/2000/svg" xmlns:sodipodi="http://sodipodi.sourceforge.net/DTD/sodipodi-0.dtd" xmlns:xlink="http://www.w3.org/1999/xlink" version="1.1" width="557.71484375" height="305.29296875">
  <defs><g>
<symbol overflow="visible" id="id0:glyph0-0">
<path style="stroke:none;" d="M 10.34375 0 L 10.34375 -78.546875 L 55.546875 -78.546875 L 55.546875 0 Z M 15.953125 -72.9375 L 15.953125 -5.609375 L 49.9375 -5.609375 L 49.9375 -72.9375 Z M 15.953125 -72.9375 "/>
</symbol>
<symbol overflow="visible" id="id0:glyph0-1">
<path style="stroke:none;" d="M 68.96875 1.09375 C 63.613281 1.09375 59.414062 -0.1875 56.375 -2.75 C 53.332031 -5.3125 51.8125 -8.832031 51.8125 -13.3125 C 51.8125 -15.289062 51.992188 -17.050781 52.359375 -18.59375 C 52.722656 -20.132812 53.085938 -21.691406 53.453125 -23.265625 C 53.828125 -24.835938 54.015625 -26.726562 54.015625 -28.9375 C 54.015625 -36.113281 52.289062 -41.753906 48.84375 -45.859375 C 45.394531 -49.972656 40.847656 -52.03125 35.203125 -52.03125 C 29.554688 -52.03125 24.953125 -49.972656 21.390625 -45.859375 C 17.835938 -41.753906 16.0625 -36.222656 16.0625 -29.265625 C 16.0625 -24.785156 16.90625 -20.878906 18.59375 -17.546875 C 20.28125 -14.210938 22.585938 -11.628906 25.515625 -9.796875 C 28.453125 -7.960938 31.789062 -7.046875 35.53125 -7.046875 C 36.632812 -7.046875 37.679688 -7.082031 38.671875 -7.15625 C 39.660156 -7.226562 40.628906 -7.410156 41.578125 -7.703125 L 43.890625 0 C 42.421875 0.4375 40.9375 0.726562 39.4375 0.875 C 37.9375 1.019531 36.15625 1.09375 34.09375 1.09375 C 28.820312 1.09375 24.078125 -0.222656 19.859375 -2.859375 C 15.640625 -5.492188 12.28125 -9.125 9.78125 -13.75 C 7.289062 -18.375 6.046875 -23.65625 6.046875 -29.59375 C 6.046875 -35.457031 7.253906 -40.679688 9.671875 -45.265625 C 12.097656 -49.847656 15.492188 -53.457031 19.859375 -56.09375 C 24.222656 -58.738281 29.375 -60.0625 35.3125 -60.0625 C 39.34375 -60.0625 42.988281 -59.457031 46.25 -58.25 C 49.519531 -57.039062 52.363281 -55.367188 54.78125 -53.234375 C 56.6875 -55.210938 58.703125 -56.84375 60.828125 -58.125 C 62.953125 -59.414062 65.703125 -60.0625 69.078125 -60.0625 C 72.378906 -60.0625 75.164062 -59.378906 77.4375 -58.015625 C 79.707031 -56.660156 81.6875 -55.03125 83.375 -53.125 C 85.726562 -55.332031 88.535156 -57.039062 91.796875 -58.25 C 95.054688 -59.457031 98.703125 -60.0625 102.734375 -60.0625 C 108.753906 -60.0625 113.941406 -58.722656 118.296875 -56.046875 C 122.660156 -53.367188 126.035156 -49.738281 128.421875 -45.15625 C 130.804688 -40.570312 132 -35.382812 132 -29.59375 C 132 -23.726562 130.769531 -18.484375 128.3125 -13.859375 C 125.851562 -9.242188 122.5 -5.597656 118.25 -2.921875 C 114 -0.242188 109.234375 1.09375 103.953125 1.09375 C 101.828125 1.09375 100.007812 1.019531 98.5 0.875 C 97 0.726562 95.515625 0.4375 94.046875 0 L 96.25 -7.703125 C 97.28125 -7.410156 98.289062 -7.226562 99.28125 -7.15625 C 100.269531 -7.082031 101.3125 -7.046875 102.40625 -7.046875 C 106.144531 -7.046875 109.476562 -7.941406 112.40625 -9.734375 C 115.34375 -11.535156 117.65625 -14.082031 119.34375 -17.375 C 121.03125 -20.675781 121.875 -24.640625 121.875 -29.265625 C 121.875 -36.148438 120.171875 -41.664062 116.765625 -45.8125 C 113.359375 -49.957031 108.832031 -52.03125 103.1875 -52.03125 C 97.382812 -52.03125 92.742188 -49.972656 89.265625 -45.859375 C 85.785156 -41.753906 84.046875 -36.113281 84.046875 -28.9375 C 84.046875 -26.726562 84.226562 -24.835938 84.59375 -23.265625 C 84.957031 -21.691406 85.320312 -20.132812 85.6875 -18.59375 C 86.050781 -17.050781 86.234375 -15.289062 86.234375 -13.3125 C 86.234375 -8.46875 84.640625 -4.851562 81.453125 -2.46875 C 78.265625 -0.09375 74.101562 1.09375 68.96875 1.09375 Z M 61.8125 -14.1875 C 61.8125 -12.28125 62.414062 -10.628906 63.625 -9.234375 C 64.84375 -7.847656 66.660156 -7.15625 69.078125 -7.15625 C 71.421875 -7.15625 73.195312 -7.847656 74.40625 -9.234375 C 75.625 -10.628906 76.234375 -12.28125 76.234375 -14.1875 C 76.234375 -16.3125 76.046875 -18.050781 75.671875 -19.40625 C 75.304688 -20.769531 74.941406 -22.21875 74.578125 -23.75 C 74.210938 -25.289062 74.03125 -27.421875 74.03125 -30.140625 C 74.03125 -36.515625 75.457031 -42.160156 78.3125 -47.078125 C 76.925781 -48.546875 75.535156 -49.738281 74.140625 -50.65625 C 72.742188 -51.570312 71.09375 -52.03125 69.1875 -52.03125 C 66.84375 -52.03125 64.972656 -51.535156 63.578125 -50.546875 C 62.179688 -49.554688 60.898438 -48.398438 59.734375 -47.078125 C 62.660156 -42.234375 64.125 -36.625 64.125 -30.25 C 64.125 -28.050781 64.015625 -26.289062 63.796875 -24.96875 C 63.578125 -23.644531 63.300781 -22.488281 62.96875 -21.5 C 62.644531 -20.507812 62.367188 -19.460938 62.140625 -18.359375 C 61.921875 -17.265625 61.8125 -15.875 61.8125 -14.1875 Z M 61.8125 -14.1875 "/>
</symbol>
<symbol overflow="visible" id="id0:glyph0-2">
<path style="stroke:none;" d="M -35.96875 46.75 C -39.414062 46.75 -42.515625 46.015625 -45.265625 44.546875 C -48.015625 43.078125 -50.269531 41.113281 -52.03125 38.65625 C -53.789062 36.207031 -54.925781 33.550781 -55.4375 30.6875 C -57.632812 33.332031 -60.898438 34.65625 -65.234375 34.65625 C -68.160156 34.65625 -70.976562 33.9375 -73.6875 32.5 C -76.40625 31.070312 -78.5 28.632812 -79.96875 25.1875 L -73.375 21.890625 C -72.34375 23.941406 -71.148438 25.390625 -69.796875 26.234375 C -68.441406 27.078125 -66.8125 27.5 -64.90625 27.5 C -62.84375 27.5 -60.929688 26.742188 -59.171875 25.234375 C -57.421875 23.734375 -55.847656 21.1875 -54.453125 17.59375 C -53.054688 14 -50.765625 11.066406 -47.578125 8.796875 C -44.390625 6.523438 -40.484375 5.390625 -35.859375 5.390625 C -31.535156 5.390625 -27.867188 6.34375 -24.859375 8.25 C -21.847656 10.15625 -19.535156 12.703125 -17.921875 15.890625 C -16.316406 19.085938 -15.515625 22.628906 -15.515625 26.515625 C -15.515625 30.109375 -16.335938 33.441406 -17.984375 36.515625 C -19.628906 39.597656 -21.972656 42.070312 -25.015625 43.9375 C -28.066406 45.8125 -31.71875 46.75 -35.96875 46.75 Z M -35.640625 39.265625 C -32.335938 39.265625 -29.625 38.070312 -27.5 35.6875 C -25.375 33.3125 -24.3125 30.289062 -24.3125 26.625 C -24.3125 22.582031 -25.375 19.28125 -27.5 16.71875 C -29.625 14.15625 -32.375 12.875 -35.75 12.875 C -39.195312 12.875 -41.960938 14.117188 -44.046875 16.609375 C -46.140625 19.097656 -47.1875 22.328125 -47.1875 26.296875 C -47.1875 30.109375 -46.125 33.222656 -44 35.640625 C -41.875 38.054688 -39.085938 39.265625 -35.640625 39.265625 Z M -35.640625 39.265625 "/>
</symbol>
</g>
<g>
<symbol overflow="visible" id="id1:glyph0-0">
<path style="stroke:none;" d="M 5.375 -96.6875 L 69.828125 -96.6875 L 69.828125 0 L 5.375 0 Z M 8.0625 -2.6875 L 67.140625 -2.6875 L 67.140625 -94 L 8.0625 -94 Z M 8.0625 -2.6875 "/>
</symbol>
<symbol overflow="visible" id="id1:glyph0-1">
<path style="stroke:none;" d="M 68.15625 -13.75 L 66.28125 -18.640625 L 88.09375 -27.390625 L 6.984375 -27.390625 L 6.984375 -34 L 88.09375 -34 L 66.28125 -42.75 L 68.15625 -47.640625 L 99.09375 -34.265625 L 99.09375 -27.125 Z M 68.15625 -13.75 "/>
</symbol>
</g>
<g>
<symbol overflow="visible" id="id2:glyph0-0">
<path style="stroke:none;" d="M 10.34375 0 L 10.34375 -78.546875 L 55.546875 -78.546875 L 55.546875 0 Z M 15.953125 -72.9375 L 15.953125 -5.609375 L 49.9375 -5.609375 L 49.9375 -72.9375 Z M 15.953125 -72.9375 "/>
</symbol>
<symbol overflow="visible" id="id2:glyph0-1">
<path style="stroke:none;" d="M 68.96875 1.09375 C 63.613281 1.09375 59.414062 -0.1875 56.375 -2.75 C 53.332031 -5.3125 51.8125 -8.832031 51.8125 -13.3125 C 51.8125 -15.289062 51.992188 -17.050781 52.359375 -18.59375 C 52.722656 -20.132812 53.085938 -21.691406 53.453125 -23.265625 C 53.828125 -24.835938 54.015625 -26.726562 54.015625 -28.9375 C 54.015625 -36.113281 52.289062 -41.753906 48.84375 -45.859375 C 45.394531 -49.972656 40.847656 -52.03125 35.203125 -52.03125 C 29.554688 -52.03125 24.953125 -49.972656 21.390625 -45.859375 C 17.835938 -41.753906 16.0625 -36.222656 16.0625 -29.265625 C 16.0625 -24.785156 16.90625 -20.878906 18.59375 -17.546875 C 20.28125 -14.210938 22.585938 -11.628906 25.515625 -9.796875 C 28.453125 -7.960938 31.789062 -7.046875 35.53125 -7.046875 C 36.632812 -7.046875 37.679688 -7.082031 38.671875 -7.15625 C 39.660156 -7.226562 40.628906 -7.410156 41.578125 -7.703125 L 43.890625 0 C 42.421875 0.4375 40.9375 0.726562 39.4375 0.875 C 37.9375 1.019531 36.15625 1.09375 34.09375 1.09375 C 28.820312 1.09375 24.078125 -0.222656 19.859375 -2.859375 C 15.640625 -5.492188 12.28125 -9.125 9.78125 -13.75 C 7.289062 -18.375 6.046875 -23.65625 6.046875 -29.59375 C 6.046875 -35.457031 7.253906 -40.679688 9.671875 -45.265625 C 12.097656 -49.847656 15.492188 -53.457031 19.859375 -56.09375 C 24.222656 -58.738281 29.375 -60.0625 35.3125 -60.0625 C 39.34375 -60.0625 42.988281 -59.457031 46.25 -58.25 C 49.519531 -57.039062 52.363281 -55.367188 54.78125 -53.234375 C 56.6875 -55.210938 58.703125 -56.84375 60.828125 -58.125 C 62.953125 -59.414062 65.703125 -60.0625 69.078125 -60.0625 C 72.378906 -60.0625 75.164062 -59.378906 77.4375 -58.015625 C 79.707031 -56.660156 81.6875 -55.03125 83.375 -53.125 C 85.726562 -55.332031 88.535156 -57.039062 91.796875 -58.25 C 95.054688 -59.457031 98.703125 -60.0625 102.734375 -60.0625 C 108.753906 -60.0625 113.941406 -58.722656 118.296875 -56.046875 C 122.660156 -53.367188 126.035156 -49.738281 128.421875 -45.15625 C 130.804688 -40.570312 132 -35.382812 132 -29.59375 C 132 -23.726562 130.769531 -18.484375 128.3125 -13.859375 C 125.851562 -9.242188 122.5 -5.597656 118.25 -2.921875 C 114 -0.242188 109.234375 1.09375 103.953125 1.09375 C 101.828125 1.09375 100.007812 1.019531 98.5 0.875 C 97 0.726562 95.515625 0.4375 94.046875 0 L 96.25 -7.703125 C 97.28125 -7.410156 98.289062 -7.226562 99.28125 -7.15625 C 100.269531 -7.082031 101.3125 -7.046875 102.40625 -7.046875 C 106.144531 -7.046875 109.476562 -7.941406 112.40625 -9.734375 C 115.34375 -11.535156 117.65625 -14.082031 119.34375 -17.375 C 121.03125 -20.675781 121.875 -24.640625 121.875 -29.265625 C 121.875 -36.148438 120.171875 -41.664062 116.765625 -45.8125 C 113.359375 -49.957031 108.832031 -52.03125 103.1875 -52.03125 C 97.382812 -52.03125 92.742188 -49.972656 89.265625 -45.859375 C 85.785156 -41.753906 84.046875 -36.113281 84.046875 -28.9375 C 84.046875 -26.726562 84.226562 -24.835938 84.59375 -23.265625 C 84.957031 -21.691406 85.320312 -20.132812 85.6875 -18.59375 C 86.050781 -17.050781 86.234375 -15.289062 86.234375 -13.3125 C 86.234375 -8.46875 84.640625 -4.851562 81.453125 -2.46875 C 78.265625 -0.09375 74.101562 1.09375 68.96875 1.09375 Z M 61.8125 -14.1875 C 61.8125 -12.28125 62.414062 -10.628906 63.625 -9.234375 C 64.84375 -7.847656 66.660156 -7.15625 69.078125 -7.15625 C 71.421875 -7.15625 73.195312 -7.847656 74.40625 -9.234375 C 75.625 -10.628906 76.234375 -12.28125 76.234375 -14.1875 C 76.234375 -16.3125 76.046875 -18.050781 75.671875 -19.40625 C 75.304688 -20.769531 74.941406 -22.21875 74.578125 -23.75 C 74.210938 -25.289062 74.03125 -27.421875 74.03125 -30.140625 C 74.03125 -36.515625 75.457031 -42.160156 78.3125 -47.078125 C 76.925781 -48.546875 75.535156 -49.738281 74.140625 -50.65625 C 72.742188 -51.570312 71.09375 -52.03125 69.1875 -52.03125 C 66.84375 -52.03125 64.972656 -51.535156 63.578125 -50.546875 C 62.179688 -49.554688 60.898438 -48.398438 59.734375 -47.078125 C 62.660156 -42.234375 64.125 -36.625 64.125 -30.25 C 64.125 -28.050781 64.015625 -26.289062 63.796875 -24.96875 C 63.578125 -23.644531 63.300781 -22.488281 62.96875 -21.5 C 62.644531 -20.507812 62.367188 -19.460938 62.140625 -18.359375 C 61.921875 -17.265625 61.8125 -15.875 61.8125 -14.1875 Z M 61.8125 -14.1875 "/>
</symbol>
<symbol overflow="visible" id="id2:glyph0-2">
<path style="stroke:none;" d="M -35.96875 51.921875 C -41.03125 51.921875 -45.265625 50.671875 -48.671875 48.171875 C -52.085938 45.679688 -54.304688 42.566406 -55.328125 38.828125 L -70.734375 46.640625 L -79.859375 30.03125 L -73.375 26.40625 L -67.65625 36.734375 L -55.65625 30.46875 C -54.851562 25.925781 -52.285156 21.453125 -47.953125 17.046875 L -35.75 4.40625 L -23.546875 16.828125 C -20.609375 19.765625 -18.515625 22.644531 -17.265625 25.46875 C -16.023438 28.289062 -15.40625 31.203125 -15.40625 34.203125 C -15.40625 37.359375 -16.226562 40.289062 -17.875 43 C -19.519531 45.71875 -21.863281 47.882812 -24.90625 49.5 C -27.957031 51.113281 -31.644531 51.921875 -35.96875 51.921875 Z M -35.640625 44.546875 C -31.972656 44.546875 -29.148438 43.5 -27.171875 41.40625 C -25.191406 39.320312 -24.203125 36.882812 -24.203125 34.09375 C -24.203125 31.53125 -24.710938 29.238281 -25.734375 27.21875 C -26.765625 25.207031 -27.90625 23.429688 -29.15625 21.890625 L -35.75 14.078125 L -42.234375 21.890625 C -43.335938 23.285156 -44.4375 25.023438 -45.53125 27.109375 C -46.632812 29.203125 -47.1875 31.53125 -47.1875 34.09375 C -47.1875 36.8125 -46.175781 39.234375 -44.15625 41.359375 C -42.144531 43.484375 -39.304688 44.546875 -35.640625 44.546875 Z M -35.640625 44.546875 "/>
</symbol>
</g>
</defs>
  <g id="id0:id0" transform="matrix(1.25,0,0,1.25,0.0,0.0)"><g id="id0:surface1">
<g style="fill:rgb(0%,0%,0%);fill-opacity:1;">
  <use xlink:href="#id0:glyph0-1" x="16" y="147.640625"/>
  <use xlink:href="#id0:glyph0-2" x="155.046875" y="147.640625"/>
</g>
</g>
</g>
  <g id="id1:id1" transform="matrix(1.25,0,0,1.25,212.55859375,51.943359375)"><g id="id1:surface1">
<g style="fill:rgb(0%,0%,0%);fill-opacity:1;">
  <use xlink:href="#id1:glyph0-1" x="0" y="120.84375"/>
</g>
</g>
</g>
  <g id="id2:id2" transform="matrix(1.25,0,0,1.25,345.15625,0.0)"><g id="id2:surface1">
<g style="fill:rgb(0%,0%,0%);fill-opacity:1;">
  <use xlink:href="#id2:glyph0-1" x="16" y="147.640625"/>
  <use xlink:href="#id2:glyph0-2" x="154.8125" y="147.640625"/>
</g>
</g>
</g>
</svg>
