<!DOCTYPE svg PUBLIC "-//W3C//DTD SVG 1.1//EN" "http://www.w3.org/Graphics/SVG/1.1/DTD/svg11.dtd">
<!-- Created with svg_stack (http://github.com/astraw/svg_stack) --><svg xmlns="http://www.w3.org/2000/svg" xmlns:sodipodi="http://sodipodi.sourceforge.net/DTD/sodipodi-0.dtd" xmlns:xlink="http://www.w3.org/1999/xlink" version="1.1" width="100%" id="myanmar-mark" viewBox="0 0 514.82421875 305.29296875">
  <defs><g>
<symbol overflow="visible" id="myanmar-mark:id0:glyph0-0">
<path style="stroke:none;" d="M 10.34375 0 L 10.34375 -78.546875 L 55.546875 -78.546875 L 55.546875 0 Z M 15.953125 -72.9375 L 15.953125 -5.609375 L 49.9375 -5.609375 L 49.9375 -72.9375 Z M 15.953125 -72.9375 "/>
</symbol>
<symbol overflow="visible" id="myanmar-mark:id0:glyph0-1">
<path style="stroke:none;" d="M 33.875 1.09375 C 28.445312 1.09375 23.71875 0.125 19.6875 -1.8125 C 15.65625 -3.757812 12.519531 -6.472656 10.28125 -9.953125 C 8.050781 -13.441406 6.9375 -17.457031 6.9375 -22 C 6.9375 -25.882812 7.722656 -29.3125 9.296875 -32.28125 C 10.867188 -35.25 13.234375 -37.910156 16.390625 -40.265625 C 18.148438 -41.578125 19.539062 -42.835938 20.5625 -44.046875 C 21.59375 -45.265625 22.109375 -46.601562 22.109375 -48.0625 C 22.109375 -49.09375 21.738281 -49.992188 21 -50.765625 C 20.269531 -51.535156 19.25 -51.921875 17.9375 -51.921875 C 16.832031 -51.921875 15.765625 -51.609375 14.734375 -50.984375 C 13.710938 -50.359375 12.578125 -49.3125 11.328125 -47.84375 L 5.828125 -53.453125 C 8.023438 -55.804688 10.019531 -57.492188 11.8125 -58.515625 C 13.613281 -59.546875 15.910156 -60.0625 18.703125 -60.0625 C 21.484375 -60.0625 23.828125 -59.472656 25.734375 -58.296875 C 27.640625 -57.128906 29.085938 -55.679688 30.078125 -53.953125 C 31.066406 -52.234375 31.5625 -50.457031 31.5625 -48.625 C 31.5625 -46.125 31.101562 -43.972656 30.1875 -42.171875 C 29.269531 -40.378906 27.273438 -38.164062 24.203125 -35.53125 C 21.191406 -32.882812 19.207031 -30.550781 18.25 -28.53125 C 17.300781 -26.519531 16.828125 -24.34375 16.828125 -22 C 16.828125 -17.75 18.347656 -14.191406 21.390625 -11.328125 C 24.429688 -8.472656 28.851562 -7.046875 34.65625 -7.046875 C 40.957031 -7.046875 46.015625 -9.171875 49.828125 -13.421875 C 53.640625 -17.671875 55.546875 -23.460938 55.546875 -30.796875 C 55.546875 -35.785156 54.664062 -40.09375 52.90625 -43.71875 C 51.144531 -47.351562 48.65625 -50.453125 45.4375 -53.015625 L 51.046875 -60.0625 C 53.390625 -58.445312 55.421875 -56.5 57.140625 -54.21875 C 58.867188 -51.945312 60.316406 -49.492188 61.484375 -46.859375 C 63.984375 -50.890625 67.359375 -54.097656 71.609375 -56.484375 C 75.859375 -58.867188 80.625 -60.0625 85.90625 -60.0625 C 92.4375 -60.0625 97.992188 -58.410156 102.578125 -55.109375 C 107.160156 -51.804688 110.40625 -47.476562 112.3125 -42.125 L 104.609375 -38.171875 C 100.867188 -47.335938 94.5625 -51.921875 85.6875 -51.921875 C 81.945312 -51.921875 78.570312 -51.003906 75.5625 -49.171875 C 72.5625 -47.335938 70.179688 -44.785156 68.421875 -41.515625 C 66.660156 -38.253906 65.78125 -34.390625 65.78125 -29.921875 C 65.78125 -27.941406 65.960938 -26.035156 66.328125 -24.203125 C 69.046875 -25.890625 72.109375 -27.207031 75.515625 -28.15625 C 78.921875 -29.113281 82.601562 -29.59375 86.5625 -29.59375 C 91.113281 -29.59375 95.5 -28.835938 99.71875 -27.328125 C 103.9375 -25.828125 108.425781 -23.390625 113.1875 -20.015625 C 111.789062 -14.296875 109.128906 -9.617188 105.203125 -5.984375 C 101.285156 -2.359375 96.503906 -0.109375 90.859375 0.765625 L 90.859375 51.375 L 67.4375 51.375 L 67.4375 43.890625 L 81.1875 43.890625 L 81.1875 0.765625 C 76.707031 0.0351562 72.707031 -1.59375 69.1875 -4.125 C 65.664062 -6.65625 62.84375 -9.828125 60.71875 -13.640625 C 58.300781 -9.171875 54.835938 -5.597656 50.328125 -2.921875 C 45.816406 -0.242188 40.332031 1.09375 33.875 1.09375 Z M 86.90625 -21.5625 C 83.164062 -21.5625 79.828125 -21.101562 76.890625 -20.1875 C 73.953125 -19.269531 71.347656 -18.078125 69.078125 -16.609375 C 70.617188 -13.828125 72.765625 -11.535156 75.515625 -9.734375 C 78.265625 -7.941406 81.617188 -7.046875 85.578125 -7.046875 C 93.054688 -7.046875 98.773438 -10.34375 102.734375 -16.9375 C 100.460938 -18.1875 98.003906 -19.269531 95.359375 -20.1875 C 92.722656 -21.101562 89.90625 -21.5625 86.90625 -21.5625 Z M 86.90625 -21.5625 "/>
</symbol>
<symbol overflow="visible" id="myanmar-mark:id0:glyph0-2">
<path style="stroke:none;" d="M -62.921875 19.25 L -62.921875 11.765625 L -10.890625 11.765625 L -10.890625 19.25 Z M -62.921875 19.25 "/>
</symbol>
</g>
<g>
<symbol overflow="visible" id="myanmar-mark:id1:glyph0-0">
<path style="stroke:none;" d="M 5.375 -96.6875 L 69.828125 -96.6875 L 69.828125 0 L 5.375 0 Z M 8.0625 -2.6875 L 67.140625 -2.6875 L 67.140625 -94 L 8.0625 -94 Z M 8.0625 -2.6875 "/>
</symbol>
<symbol overflow="visible" id="myanmar-mark:id1:glyph0-1">
<path style="stroke:none;" d="M 68.15625 -13.75 L 66.28125 -18.640625 L 88.09375 -27.390625 L 6.984375 -27.390625 L 6.984375 -34 L 88.09375 -34 L 66.28125 -42.75 L 68.15625 -47.640625 L 99.09375 -34.265625 L 99.09375 -27.125 Z M 68.15625 -13.75 "/>
</symbol>
</g>
<g>
<symbol overflow="visible" id="myanmar-mark:id2:glyph0-0">
<path style="stroke:none;" d="M 10.34375 0 L 10.34375 -78.546875 L 55.546875 -78.546875 L 55.546875 0 Z M 15.953125 -72.9375 L 15.953125 -5.609375 L 49.9375 -5.609375 L 49.9375 -72.9375 Z M 15.953125 -72.9375 "/>
</symbol>
<symbol overflow="visible" id="myanmar-mark:id2:glyph0-1">
<path style="stroke:none;" d="M 33.875 1.09375 C 28.445312 1.09375 23.71875 0.125 19.6875 -1.8125 C 15.65625 -3.757812 12.519531 -6.472656 10.28125 -9.953125 C 8.050781 -13.441406 6.9375 -17.457031 6.9375 -22 C 6.9375 -25.882812 7.722656 -29.3125 9.296875 -32.28125 C 10.867188 -35.25 13.234375 -37.910156 16.390625 -40.265625 C 18.148438 -41.578125 19.539062 -42.835938 20.5625 -44.046875 C 21.59375 -45.265625 22.109375 -46.601562 22.109375 -48.0625 C 22.109375 -49.09375 21.738281 -49.992188 21 -50.765625 C 20.269531 -51.535156 19.25 -51.921875 17.9375 -51.921875 C 16.832031 -51.921875 15.765625 -51.609375 14.734375 -50.984375 C 13.710938 -50.359375 12.578125 -49.3125 11.328125 -47.84375 L 5.828125 -53.453125 C 8.023438 -55.804688 10.019531 -57.492188 11.8125 -58.515625 C 13.613281 -59.546875 15.910156 -60.0625 18.703125 -60.0625 C 21.484375 -60.0625 23.828125 -59.472656 25.734375 -58.296875 C 27.640625 -57.128906 29.085938 -55.679688 30.078125 -53.953125 C 31.066406 -52.234375 31.5625 -50.457031 31.5625 -48.625 C 31.5625 -46.125 31.101562 -43.972656 30.1875 -42.171875 C 29.269531 -40.378906 27.273438 -38.164062 24.203125 -35.53125 C 21.191406 -32.882812 19.207031 -30.550781 18.25 -28.53125 C 17.300781 -26.519531 16.828125 -24.34375 16.828125 -22 C 16.828125 -17.75 18.347656 -14.191406 21.390625 -11.328125 C 24.429688 -8.472656 28.851562 -7.046875 34.65625 -7.046875 C 40.957031 -7.046875 46.015625 -9.171875 49.828125 -13.421875 C 53.640625 -17.671875 55.546875 -23.460938 55.546875 -30.796875 C 55.546875 -35.785156 54.664062 -40.09375 52.90625 -43.71875 C 51.144531 -47.351562 48.65625 -50.453125 45.4375 -53.015625 L 51.046875 -60.0625 C 53.390625 -58.445312 55.421875 -56.5 57.140625 -54.21875 C 58.867188 -51.945312 60.316406 -49.492188 61.484375 -46.859375 C 63.984375 -50.890625 67.359375 -54.097656 71.609375 -56.484375 C 75.859375 -58.867188 80.625 -60.0625 85.90625 -60.0625 C 92.4375 -60.0625 97.992188 -58.410156 102.578125 -55.109375 C 107.160156 -51.804688 110.40625 -47.476562 112.3125 -42.125 L 104.609375 -38.171875 C 100.867188 -47.335938 94.5625 -51.921875 85.6875 -51.921875 C 81.945312 -51.921875 78.570312 -51.003906 75.5625 -49.171875 C 72.5625 -47.335938 70.179688 -44.785156 68.421875 -41.515625 C 66.660156 -38.253906 65.78125 -34.390625 65.78125 -29.921875 C 65.78125 -27.941406 65.960938 -26.035156 66.328125 -24.203125 C 69.046875 -25.890625 72.109375 -27.207031 75.515625 -28.15625 C 78.921875 -29.113281 82.601562 -29.59375 86.5625 -29.59375 C 91.113281 -29.59375 95.5 -28.835938 99.71875 -27.328125 C 103.9375 -25.828125 108.425781 -23.390625 113.1875 -20.015625 C 111.789062 -14.296875 109.128906 -9.617188 105.203125 -5.984375 C 101.285156 -2.359375 96.503906 -0.109375 90.859375 0.765625 L 90.859375 51.375 L 67.4375 51.375 L 67.4375 43.890625 L 81.1875 43.890625 L 81.1875 0.765625 C 76.707031 0.0351562 72.707031 -1.59375 69.1875 -4.125 C 65.664062 -6.65625 62.84375 -9.828125 60.71875 -13.640625 C 58.300781 -9.171875 54.835938 -5.597656 50.328125 -2.921875 C 45.816406 -0.242188 40.332031 1.09375 33.875 1.09375 Z M 86.90625 -21.5625 C 83.164062 -21.5625 79.828125 -21.101562 76.890625 -20.1875 C 73.953125 -19.269531 71.347656 -18.078125 69.078125 -16.609375 C 70.617188 -13.828125 72.765625 -11.535156 75.515625 -9.734375 C 78.265625 -7.941406 81.617188 -7.046875 85.578125 -7.046875 C 93.054688 -7.046875 98.773438 -10.34375 102.734375 -16.9375 C 100.460938 -18.1875 98.003906 -19.269531 95.359375 -20.1875 C 92.722656 -21.101562 89.90625 -21.5625 86.90625 -21.5625 Z M 86.90625 -21.5625 "/>
</symbol>
<symbol overflow="visible" id="myanmar-mark:id2:glyph0-2">
<path style="stroke:none;" d="M -62.921875 19.25 L -62.921875 11.765625 L -10.890625 11.765625 L -10.890625 19.25 Z M -62.921875 19.25 "/>
</symbol>
</g>
</defs>
  <g id="myanmar-mark:id0:id0" transform="matrix(1.25,0,0,1.25,0.0,0.0)"><g id="myanmar-mark:id0:surface1">
<g style="fill:rgb(0%,0%,0%);fill-opacity:1;">
  <use xlink:href="#myanmar-mark:id0:glyph0-1" x="16" y="147.640625" class="c0"/>
  <use xlink:href="#myanmar-mark:id0:glyph0-2" x="136.890625" y="147.640625" class="c1"/>
</g>
</g>
</g>
  <g id="myanmar-mark:id1:id1" transform="matrix(1.25,0,0,1.25,191.11328125,51.943359375)"><g id="myanmar-mark:id1:surface1">
<g style="fill:rgb(0%,0%,0%);fill-opacity:1;">
  <use xlink:href="#myanmar-mark:id1:glyph0-1" x="0" y="120.84375" class="arrow"/>
</g>
</g>
</g>
  <g id="myanmar-mark:id2:id2" transform="matrix(1.25,0,0,1.25,323.7109375,0.0)"><g id="myanmar-mark:id2:surface1">
<g style="fill:rgb(0%,0%,0%);fill-opacity:1;">
  <use xlink:href="#myanmar-mark:id2:glyph0-1" x="16" y="147.640625" class="c0"/>
  <use xlink:href="#myanmar-mark:id2:glyph0-2" x="82.984375" y="147.640625" class="c1"/>
</g>
</g>
</g>
</svg>