<!DOCTYPE svg PUBLIC "-//W3C//DTD SVG 1.1//EN" "http://www.w3.org/Graphics/SVG/1.1/DTD/svg11.dtd">
<!-- Created with svg_stack (http://github.com/astraw/svg_stack) --><svg xmlns="http://www.w3.org/2000/svg" xmlns:sodipodi="http://sodipodi.sourceforge.net/DTD/sodipodi-0.dtd" xmlns:xlink="http://www.w3.org/1999/xlink" version="1.1" width="461.19140625" height="305.29296875" id="myanmar-liga">
  <defs><g>
<symbol overflow="visible" id="myanmar-liga:id0:glyph0-0">
<path style="stroke:none;" d="M 10.34375 0 L 10.34375 -78.546875 L 55.546875 -78.546875 L 55.546875 0 Z M 15.953125 -72.9375 L 15.953125 -5.609375 L 49.9375 -5.609375 L 49.9375 -72.9375 Z M 15.953125 -72.9375 "/>
</symbol>
<symbol overflow="visible" id="myanmar-liga:id0:glyph0-1">
<path style="stroke:none;" d="M 32.5625 51.265625 C 17.53125 51.265625 10.015625 43.414062 10.015625 27.71875 L 10.015625 -86.796875 C 10.015625 -102.484375 17.53125 -110.328125 32.5625 -110.328125 L 67.984375 -110.328125 C 83.085938 -110.328125 90.640625 -102.484375 90.640625 -86.796875 L 90.640625 -83.59375 L 80.84375 -83.59375 L 80.84375 -88.65625 C 80.84375 -92.988281 79.832031 -96.363281 77.8125 -98.78125 C 75.800781 -101.195312 72.707031 -102.40625 68.53125 -102.40625 L 32.125 -102.40625 C 27.863281 -102.40625 24.757812 -101.195312 22.8125 -98.78125 C 20.875 -96.363281 19.90625 -92.988281 19.90625 -88.65625 L 19.90625 29.484375 C 19.90625 33.878906 20.875 37.285156 22.8125 39.703125 C 24.757812 42.128906 27.863281 43.34375 32.125 43.34375 L 68.53125 43.34375 C 72.707031 43.34375 75.800781 42.128906 77.8125 39.703125 C 79.832031 37.285156 80.84375 33.878906 80.84375 29.484375 L 80.84375 -16.828125 L 90.640625 -16.828125 L 90.640625 27.71875 C 90.640625 43.414062 83.085938 51.265625 67.984375 51.265625 Z M 32.5625 51.265625 "/>
</symbol>
<symbol overflow="visible" id="myanmar-liga:id0:glyph0-2">
<path style="stroke:none;" d="M 37.0625 1.09375 C 31.050781 1.09375 25.71875 -0.257812 21.0625 -2.96875 C 16.40625 -5.6875 12.738281 -9.425781 10.0625 -14.1875 C 7.382812 -18.957031 6.046875 -24.421875 6.046875 -30.578125 C 6.046875 -36.660156 7.328125 -42.320312 9.890625 -47.5625 C 12.460938 -52.8125 15.910156 -56.976562 20.234375 -60.0625 L 25.84375 -53.015625 C 22.695312 -50.453125 20.28125 -47.351562 18.59375 -43.71875 C 16.90625 -40.09375 16.0625 -35.785156 16.0625 -30.796875 C 16.0625 -25.960938 16.941406 -21.765625 18.703125 -18.203125 C 20.460938 -14.648438 22.9375 -11.898438 26.125 -9.953125 C 29.3125 -8.015625 32.957031 -7.046875 37.0625 -7.046875 C 39.925781 -7.046875 42.640625 -7.519531 45.203125 -8.46875 C 42.785156 -11.1875 40.734375 -14.488281 39.046875 -18.375 C 37.359375 -22.257812 36.515625 -26.65625 36.515625 -31.5625 C 36.515625 -37.875 37.816406 -43.359375 40.421875 -48.015625 C 43.023438 -52.671875 46.894531 -56.648438 52.03125 -59.953125 C 57.3125 -56.503906 61.328125 -52.191406 64.078125 -47.015625 C 66.828125 -41.847656 68.203125 -36.367188 68.203125 -30.578125 C 68.203125 -24.347656 66.84375 -18.847656 64.125 -14.078125 C 61.414062 -9.316406 57.734375 -5.597656 53.078125 -2.921875 C 48.421875 -0.242188 43.082031 1.09375 37.0625 1.09375 Z M 45.3125 -31.5625 C 45.3125 -28.050781 45.898438 -24.679688 47.078125 -21.453125 C 48.253906 -18.222656 50.015625 -15.4375 52.359375 -13.09375 C 54.484375 -15.144531 56.171875 -17.671875 57.421875 -20.671875 C 58.671875 -23.679688 59.296875 -27.054688 59.296875 -30.796875 C 59.296875 -34.460938 58.632812 -37.78125 57.3125 -40.75 C 55.988281 -43.71875 54.265625 -46.378906 52.140625 -48.734375 C 49.648438 -46.378906 47.890625 -43.882812 46.859375 -41.25 C 45.828125 -38.613281 45.3125 -35.382812 45.3125 -31.5625 Z M 45.3125 -31.5625 "/>
</symbol>
<symbol overflow="visible" id="myanmar-liga:id0:glyph0-3">
<path style="stroke:none;" d="M -36.078125 46.75 C -40.109375 46.75 -43.609375 45.847656 -46.578125 44.046875 C -49.554688 42.253906 -51.867188 39.78125 -53.515625 36.625 C -55.160156 33.476562 -55.984375 29.957031 -55.984375 26.0625 C -55.984375 22.101562 -55.160156 18.566406 -53.515625 15.453125 C -51.867188 12.335938 -49.539062 9.878906 -46.53125 8.078125 C -43.519531 6.285156 -39.960938 5.390625 -35.859375 5.390625 C -31.609375 5.390625 -27.976562 6.34375 -24.96875 8.25 C -21.957031 10.15625 -19.644531 12.703125 -18.03125 15.890625 C -16.425781 19.085938 -15.625 22.628906 -15.625 26.515625 C -15.625 30.109375 -16.445312 33.441406 -18.09375 36.515625 C -19.738281 39.597656 -22.082031 42.070312 -25.125 43.9375 C -28.175781 45.8125 -31.828125 46.75 -36.078125 46.75 Z M -35.75 39.265625 C -32.445312 39.265625 -29.734375 38.070312 -27.609375 35.6875 C -25.484375 33.3125 -24.421875 30.289062 -24.421875 26.625 C -24.421875 22.664062 -25.425781 19.382812 -27.4375 16.78125 C -29.457031 14.175781 -32.226562 12.875 -35.75 12.875 C -39.34375 12.875 -42.164062 14.132812 -44.21875 16.65625 C -46.269531 19.1875 -47.296875 22.4375 -47.296875 26.40625 C -47.296875 30.070312 -46.25 33.128906 -44.15625 35.578125 C -42.070312 38.035156 -39.269531 39.265625 -35.75 39.265625 Z M -35.75 39.265625 "/>
</symbol>
<symbol overflow="visible" id="myanmar-liga:id0:glyph0-4">
<path style="stroke:none;" d="M -53.015625 51.375 L -53.015625 43.890625 L -39.265625 43.890625 L -39.265625 5.390625 L -29.59375 5.390625 L -29.59375 51.375 Z M -53.015625 51.375 "/>
</symbol>
</g>
<g>
<symbol overflow="visible" id="myanmar-liga:id1:glyph0-0">
<path style="stroke:none;" d="M 5.375 -96.6875 L 69.828125 -96.6875 L 69.828125 0 L 5.375 0 Z M 8.0625 -2.6875 L 67.140625 -2.6875 L 67.140625 -94 L 8.0625 -94 Z M 8.0625 -2.6875 "/>
</symbol>
<symbol overflow="visible" id="myanmar-liga:id1:glyph0-1">
<path style="stroke:none;" d="M 68.15625 -13.75 L 66.28125 -18.640625 L 88.09375 -27.390625 L 6.984375 -27.390625 L 6.984375 -34 L 88.09375 -34 L 66.28125 -42.75 L 68.15625 -47.640625 L 99.09375 -34.265625 L 99.09375 -27.125 Z M 68.15625 -13.75 "/>
</symbol>
</g>
<g>
<symbol overflow="visible" id="myanmar-liga:id2:glyph0-0">
<path style="stroke:none;" d="M 10.34375 0 L 10.34375 -78.546875 L 55.546875 -78.546875 L 55.546875 0 Z M 15.953125 -72.9375 L 15.953125 -5.609375 L 49.9375 -5.609375 L 49.9375 -72.9375 Z M 15.953125 -72.9375 "/>
</symbol>
<symbol overflow="visible" id="myanmar-liga:id2:glyph0-1">
<path style="stroke:none;" d="M 42.015625 32.015625 C 37.984375 32.015625 34.445312 30.910156 31.40625 28.703125 C 28.363281 26.503906 26.253906 23.5 25.078125 19.6875 L 31.6875 16.390625 C 32.78125 19.472656 34.332031 21.671875 36.34375 22.984375 C 38.363281 24.304688 40.515625 24.96875 42.796875 24.96875 C 46.898438 24.96875 50.414062 22.953125 53.34375 18.921875 L 53.34375 19.140625 C 55.03125 16.421875 57.300781 14.21875 60.15625 12.53125 C 63.019531 10.851562 66.398438 10.015625 70.296875 10.015625 C 74.546875 10.015625 78.171875 10.984375 81.171875 12.921875 C 84.179688 14.867188 86.492188 17.4375 88.109375 20.625 C 89.722656 23.8125 90.53125 27.3125 90.53125 31.125 C 90.53125 34.789062 89.703125 38.164062 88.046875 41.25 C 86.398438 44.332031 84.054688 46.789062 81.015625 48.625 C 77.972656 50.457031 74.320312 51.375 70.0625 51.375 L 32.5625 51.375 C 17.53125 51.375 10.015625 43.523438 10.015625 27.828125 L 10.015625 -86.796875 C 10.015625 -102.484375 17.53125 -110.328125 32.5625 -110.328125 L 68.203125 -110.328125 C 83.234375 -110.328125 90.75 -102.484375 90.75 -86.796875 L 90.75 -83.59375 L 80.953125 -83.59375 L 80.953125 -88.65625 C 80.953125 -92.988281 79.960938 -96.363281 77.984375 -98.78125 C 76.003906 -101.195312 72.925781 -102.40625 68.75 -102.40625 L 32.125 -102.40625 C 27.863281 -102.40625 24.757812 -101.195312 22.8125 -98.78125 C 20.875 -96.363281 19.90625 -92.988281 19.90625 -88.65625 L 19.90625 29.59375 C 19.90625 33.988281 20.875 37.394531 22.8125 39.8125 C 24.757812 42.238281 27.863281 43.453125 32.125 43.453125 L 53.90625 43.453125 C 51.40625 39.929688 50.15625 35.820312 50.15625 31.125 C 50.15625 30.757812 50.15625 30.429688 50.15625 30.140625 C 47.738281 31.390625 45.023438 32.015625 42.015625 32.015625 Z M 70.40625 44 C 73.769531 44 76.5 42.785156 78.59375 40.359375 C 80.6875 37.941406 81.734375 34.9375 81.734375 31.34375 C 81.734375 27.382812 80.722656 24.066406 78.703125 21.390625 C 76.691406 18.710938 73.925781 17.375 70.40625 17.375 C 66.8125 17.375 64.003906 18.65625 61.984375 21.21875 C 59.960938 23.789062 58.953125 27.019531 58.953125 30.90625 C 58.953125 34.644531 59.976562 37.757812 62.03125 40.25 C 64.09375 42.75 66.882812 44 70.40625 44 Z M 70.40625 44 "/>
</symbol>
<symbol overflow="visible" id="myanmar-liga:id2:glyph0-2">
<path style="stroke:none;" d="M 37.0625 1.09375 C 31.050781 1.09375 25.71875 -0.257812 21.0625 -2.96875 C 16.40625 -5.6875 12.738281 -9.425781 10.0625 -14.1875 C 7.382812 -18.957031 6.046875 -24.421875 6.046875 -30.578125 C 6.046875 -36.660156 7.328125 -42.320312 9.890625 -47.5625 C 12.460938 -52.8125 15.910156 -56.976562 20.234375 -60.0625 L 25.84375 -53.015625 C 22.695312 -50.453125 20.28125 -47.351562 18.59375 -43.71875 C 16.90625 -40.09375 16.0625 -35.785156 16.0625 -30.796875 C 16.0625 -25.960938 16.941406 -21.765625 18.703125 -18.203125 C 20.460938 -14.648438 22.9375 -11.898438 26.125 -9.953125 C 29.3125 -8.015625 32.957031 -7.046875 37.0625 -7.046875 C 39.925781 -7.046875 42.640625 -7.519531 45.203125 -8.46875 C 42.785156 -11.1875 40.734375 -14.488281 39.046875 -18.375 C 37.359375 -22.257812 36.515625 -26.65625 36.515625 -31.5625 C 36.515625 -37.875 37.816406 -43.359375 40.421875 -48.015625 C 43.023438 -52.671875 46.894531 -56.648438 52.03125 -59.953125 C 57.3125 -56.503906 61.328125 -52.191406 64.078125 -47.015625 C 66.828125 -41.847656 68.203125 -36.367188 68.203125 -30.578125 C 68.203125 -24.347656 66.84375 -18.847656 64.125 -14.078125 C 61.414062 -9.316406 57.734375 -5.597656 53.078125 -2.921875 C 48.421875 -0.242188 43.082031 1.09375 37.0625 1.09375 Z M 45.3125 -31.5625 C 45.3125 -28.050781 45.898438 -24.679688 47.078125 -21.453125 C 48.253906 -18.222656 50.015625 -15.4375 52.359375 -13.09375 C 54.484375 -15.144531 56.171875 -17.671875 57.421875 -20.671875 C 58.671875 -23.679688 59.296875 -27.054688 59.296875 -30.796875 C 59.296875 -34.460938 58.632812 -37.78125 57.3125 -40.75 C 55.988281 -43.71875 54.265625 -46.378906 52.140625 -48.734375 C 49.648438 -46.378906 47.890625 -43.882812 46.859375 -41.25 C 45.828125 -38.613281 45.3125 -35.382812 45.3125 -31.5625 Z M 45.3125 -31.5625 "/>
</symbol>
</g>
</defs>
  <g id="myanmar-liga:id0:id0" transform="matrix(1.25,0,0,1.25,0.0,0.0)"><g id="myanmar-liga:id0:surface1">
<g style="fill:rgb(0%,0%,0%);fill-opacity:1;">
  <use xlink:href="#myanmar-liga:id0:glyph0-1" x="16" y="147.640625" class="c0"/>
  <use xlink:href="#myanmar-liga:id0:glyph0-2" x="41.1875" y="147.640625" class="c1"/>
  <use xlink:href="#myanmar-liga:id0:glyph0-3" x="113.671875" y="147.640625" class="c2"/>
  <use xlink:href="#myanmar-liga:id0:glyph0-4" x="112.796875" y="147.640625" class="c3"/>
</g>
</g>
</g>
  <g id="myanmar-liga:id1:id1" transform="matrix(1.25,0,0,1.25,164.296875,51.943359375)"><g id="myanmar-liga:id1:surface1">
<g style="fill:rgb(0%,0%,0%);fill-opacity:1;">
  <use xlink:href="#myanmar-liga:id1:glyph0-1" x="0" y="120.84375" class="arrow"/>
</g>
</g>
</g>
  <g id="myanmar-liga:id2:id2" transform="matrix(1.25,0,0,1.25,296.89453125,0.0)"><g id="myanmar-liga:id2:surface1">
<g style="fill:rgb(0%,0%,0%);fill-opacity:1;">
  <use xlink:href="#myanmar-liga:id2:glyph0-1" x="16" y="147.640625" class="c4"/>
  <use xlink:href="#myanmar-liga:id2:glyph0-2" x="41.1875" y="147.640625" class="c1"/>
</g>
</g>
</g>
</svg>
