<?xml version="1.0" standalone="no"?>
<!DOCTYPE svg PUBLIC "-//W3C//DTD SVG 1.1//EN"
 "http://www.w3.org/Graphics/SVG/1.1/DTD/svg11.dtd">
<!-- Created with svg_stack (http://github.com/astraw/svg_stack) -->
<svg xmlns="http://www.w3.org/2000/svg" xmlns:sodipodi="http://sodipodi.sourceforge.net/DTD/sodipodi-0.dtd" xmlns:xlink="http://www.w3.org/1999/xlink" version="1.1" width="614.47265625" height="348.61328125">
  <defs><g>
<symbol overflow="visible" id="id0:glyph0-0">
<path style="stroke:none;" d="M 10.34375 0 L 10.34375 -78.546875 L 55.546875 -78.546875 L 55.546875 0 Z M 15.953125 -72.9375 L 15.953125 -5.609375 L 49.9375 -5.609375 L 49.9375 -72.9375 Z M 15.953125 -72.9375 "/>
</symbol>
<symbol overflow="visible" id="id0:glyph0-1">
<path style="stroke:none;" d="M 33.546875 -60.0625 L 35.75 -60.0625 C 40.21875 -60.0625 44.191406 -59.328125 47.671875 -57.859375 C 51.160156 -56.390625 54.039062 -54.410156 56.3125 -51.921875 C 58.445312 -54.335938 61.269531 -56.296875 64.78125 -57.796875 C 68.300781 -59.304688 72.375 -60.0625 77 -60.0625 L 79.203125 -60.0625 C 84.109375 -60.0625 88.394531 -59.195312 92.0625 -57.46875 C 95.726562 -55.75 98.703125 -53.421875 100.984375 -50.484375 C 103.035156 -47.921875 104.5 -44.914062 105.375 -41.46875 C 106.257812 -38.019531 106.703125 -34.023438 106.703125 -29.484375 C 106.703125 -24.929688 106.257812 -20.929688 105.375 -17.484375 C 104.5 -14.035156 103.035156 -11.03125 100.984375 -8.46875 C 98.703125 -5.53125 95.691406 -3.203125 91.953125 -1.484375 C 88.210938 0.234375 83.742188 1.09375 78.546875 1.09375 C 76.117188 1.09375 74.023438 0.984375 72.265625 0.765625 L 72.265625 -12.984375 L 78.09375 -12.984375 C 82.28125 -12.984375 85.984375 -13.492188 89.203125 -14.515625 C 92.429688 -15.546875 94.941406 -17.234375 96.734375 -19.578125 C 98.535156 -21.921875 99.4375 -25.039062 99.4375 -28.9375 L 99.4375 -30.03125 C 99.4375 -33.988281 98.535156 -37.125 96.734375 -39.4375 C 94.941406 -41.75 92.429688 -43.414062 89.203125 -44.4375 C 85.984375 -45.46875 82.28125 -45.984375 78.09375 -45.984375 C 74.726562 -45.984375 71.648438 -45.648438 68.859375 -44.984375 C 66.078125 -44.328125 63.726562 -43.226562 61.8125 -41.6875 C 62.769531 -38.3125 63.25 -34.242188 63.25 -29.484375 C 63.25 -24.929688 62.804688 -20.929688 61.921875 -17.484375 C 61.046875 -14.035156 59.582031 -11.03125 57.53125 -8.46875 C 55.257812 -5.53125 52.289062 -3.203125 48.625 -1.484375 C 44.957031 0.234375 40.664062 1.09375 35.75 1.09375 L 33.546875 1.09375 C 28.640625 1.09375 24.351562 0.234375 20.6875 -1.484375 C 17.019531 -3.203125 14.046875 -5.53125 11.765625 -8.46875 C 9.710938 -11.03125 8.242188 -14.035156 7.359375 -17.484375 C 6.484375 -20.929688 6.046875 -24.929688 6.046875 -29.484375 C 6.046875 -34.023438 6.484375 -38.019531 7.359375 -41.46875 C 8.242188 -44.914062 9.710938 -47.921875 11.765625 -50.484375 C 14.046875 -53.421875 17.019531 -55.75 20.6875 -57.46875 C 24.351562 -59.195312 28.640625 -60.0625 33.546875 -60.0625 Z M 34.65625 -12.984375 C 38.832031 -12.984375 42.53125 -13.492188 45.75 -14.515625 C 48.976562 -15.546875 51.488281 -17.234375 53.28125 -19.578125 C 55.082031 -21.921875 55.984375 -25.039062 55.984375 -28.9375 L 55.984375 -30.03125 C 55.984375 -33.988281 55.082031 -37.125 53.28125 -39.4375 C 51.488281 -41.75 48.976562 -43.414062 45.75 -44.4375 C 42.53125 -45.46875 38.832031 -45.984375 34.65625 -45.984375 C 30.46875 -45.984375 26.78125 -45.46875 23.59375 -44.4375 C 20.40625 -43.414062 17.894531 -41.75 16.0625 -39.4375 C 14.226562 -37.125 13.3125 -33.988281 13.3125 -30.03125 L 13.3125 -28.9375 C 13.3125 -25.039062 14.226562 -21.921875 16.0625 -19.578125 C 17.894531 -17.234375 20.40625 -15.546875 23.59375 -14.515625 C 26.78125 -13.492188 30.46875 -12.984375 34.65625 -12.984375 Z M 34.65625 -12.984375 "/>
</symbol>
<symbol overflow="visible" id="id0:glyph0-2">
<path style="stroke:none;" d="M -49.609375 6.9375 C -46.234375 7.15625 -43.316406 7.847656 -40.859375 9.015625 C -38.410156 10.191406 -36.304688 11.804688 -34.546875 13.859375 C -32.640625 11.804688 -30.160156 10.140625 -27.109375 8.859375 C -24.066406 7.578125 -20.53125 6.9375 -16.5 6.9375 L -14.515625 6.9375 C -10.191406 6.9375 -6.414062 7.6875 -3.1875 9.1875 C 0.0390625 10.6875 2.644531 12.6875 4.625 15.1875 C 8 19.507812 9.6875 25.554688 9.6875 33.328125 C 9.6875 41.023438 8 47.039062 4.625 51.375 C 2.644531 53.863281 0.00390625 55.859375 -3.296875 57.359375 C -6.597656 58.867188 -10.5625 59.625 -15.1875 59.625 C -17.3125 59.625 -19.144531 59.515625 -20.6875 59.296875 L -20.6875 46.859375 L -15.515625 46.859375 C -10.085938 46.859375 -5.648438 45.867188 -2.203125 43.890625 C 1.242188 41.910156 2.96875 38.535156 2.96875 33.765625 L 2.96875 32.78125 C 2.96875 27.863281 1.242188 24.429688 -2.203125 22.484375 C -5.648438 20.546875 -10.085938 19.578125 -15.515625 19.578125 C -18.515625 19.578125 -21.222656 19.851562 -23.640625 20.40625 C -26.066406 20.957031 -28.085938 21.851562 -29.703125 23.09375 C -29.335938 24.707031 -29.0625 26.359375 -28.875 28.046875 C -28.6875 29.734375 -28.59375 31.492188 -28.59375 33.328125 C -28.59375 36.992188 -28.976562 40.382812 -29.75 43.5 C -30.519531 46.625 -31.929688 49.394531 -33.984375 51.8125 C -35.890625 54.082031 -38.382812 55.953125 -41.46875 57.421875 C -44.550781 58.890625 -48.328125 59.625 -52.796875 59.625 L -54.78125 59.625 C -59.25 59.625 -63.003906 58.890625 -66.046875 57.421875 C -69.097656 55.953125 -71.578125 54.082031 -73.484375 51.8125 C -75.535156 49.394531 -76.960938 46.625 -77.765625 43.5 C -78.578125 40.382812 -78.984375 36.992188 -78.984375 33.328125 C -78.984375 29.585938 -78.578125 26.160156 -77.765625 23.046875 C -76.960938 19.929688 -75.535156 17.085938 -73.484375 14.515625 C -71.722656 12.242188 -69.578125 10.46875 -67.046875 9.1875 C -64.515625 7.90625 -61.488281 7.15625 -57.96875 6.9375 L -57.96875 19.6875 C -62 19.976562 -65.390625 21.078125 -68.140625 22.984375 C -70.890625 24.890625 -72.265625 28.15625 -72.265625 32.78125 L -72.265625 33.765625 C -72.265625 38.609375 -70.519531 42.019531 -67.03125 44 C -63.550781 45.976562 -59.140625 46.96875 -53.796875 46.96875 C -48.367188 46.96875 -43.929688 45.976562 -40.484375 44 C -37.035156 42.019531 -35.3125 38.609375 -35.3125 33.765625 L -35.3125 32.78125 C -35.3125 28.15625 -36.664062 24.890625 -39.375 22.984375 C -42.09375 21.078125 -45.503906 19.976562 -49.609375 19.6875 Z M -49.609375 6.9375 "/>
</symbol>
</g>
<g>
<symbol overflow="visible" id="id1:glyph0-0">
<path style="stroke:none;" d="M 5.375 -96.6875 L 69.828125 -96.6875 L 69.828125 0 L 5.375 0 Z M 8.0625 -2.6875 L 67.140625 -2.6875 L 67.140625 -94 L 8.0625 -94 Z M 8.0625 -2.6875 "/>
</symbol>
<symbol overflow="visible" id="id1:glyph0-1">
<path style="stroke:none;" d="M 68.15625 -13.75 L 66.28125 -18.640625 L 88.09375 -27.390625 L 6.984375 -27.390625 L 6.984375 -34 L 88.09375 -34 L 66.28125 -42.75 L 68.15625 -47.640625 L 99.09375 -34.265625 L 99.09375 -27.125 Z M 68.15625 -13.75 "/>
</symbol>
</g>
<g>
<symbol overflow="visible" id="id2:glyph0-0">
<path style="stroke:none;" d="M 10.34375 0 L 10.34375 -78.546875 L 55.546875 -78.546875 L 55.546875 0 Z M 15.953125 -72.9375 L 15.953125 -5.609375 L 49.9375 -5.609375 L 49.9375 -72.9375 Z M 15.953125 -72.9375 "/>
</symbol>
<symbol overflow="visible" id="id2:glyph0-1">
<path style="stroke:none;" d="M 33.546875 -60.0625 L 35.75 -60.0625 C 40.21875 -60.0625 44.191406 -59.328125 47.671875 -57.859375 C 51.160156 -56.390625 54.039062 -54.410156 56.3125 -51.921875 C 58.445312 -54.335938 61.269531 -56.296875 64.78125 -57.796875 C 68.300781 -59.304688 72.375 -60.0625 77 -60.0625 L 79.203125 -60.0625 C 84.109375 -60.0625 88.394531 -59.195312 92.0625 -57.46875 C 95.726562 -55.75 98.703125 -53.421875 100.984375 -50.484375 C 103.035156 -47.921875 104.5 -44.914062 105.375 -41.46875 C 106.257812 -38.019531 106.703125 -34.023438 106.703125 -29.484375 C 106.703125 -24.929688 106.257812 -20.929688 105.375 -17.484375 C 104.5 -14.035156 103.035156 -11.03125 100.984375 -8.46875 C 98.703125 -5.53125 95.691406 -3.203125 91.953125 -1.484375 C 88.210938 0.234375 83.742188 1.09375 78.546875 1.09375 C 76.117188 1.09375 74.023438 0.984375 72.265625 0.765625 L 72.265625 -12.984375 L 78.09375 -12.984375 C 82.28125 -12.984375 85.984375 -13.492188 89.203125 -14.515625 C 92.429688 -15.546875 94.941406 -17.234375 96.734375 -19.578125 C 98.535156 -21.921875 99.4375 -25.039062 99.4375 -28.9375 L 99.4375 -30.03125 C 99.4375 -33.988281 98.535156 -37.125 96.734375 -39.4375 C 94.941406 -41.75 92.429688 -43.414062 89.203125 -44.4375 C 85.984375 -45.46875 82.28125 -45.984375 78.09375 -45.984375 C 74.726562 -45.984375 71.648438 -45.648438 68.859375 -44.984375 C 66.078125 -44.328125 63.726562 -43.226562 61.8125 -41.6875 C 62.769531 -38.3125 63.25 -34.242188 63.25 -29.484375 C 63.25 -24.929688 62.804688 -20.929688 61.921875 -17.484375 C 61.046875 -14.035156 59.582031 -11.03125 57.53125 -8.46875 C 55.257812 -5.53125 52.289062 -3.203125 48.625 -1.484375 C 44.957031 0.234375 40.664062 1.09375 35.75 1.09375 L 33.546875 1.09375 C 28.640625 1.09375 24.351562 0.234375 20.6875 -1.484375 C 17.019531 -3.203125 14.046875 -5.53125 11.765625 -8.46875 C 9.710938 -11.03125 8.242188 -14.035156 7.359375 -17.484375 C 6.484375 -20.929688 6.046875 -24.929688 6.046875 -29.484375 C 6.046875 -34.023438 6.484375 -38.019531 7.359375 -41.46875 C 8.242188 -44.914062 9.710938 -47.921875 11.765625 -50.484375 C 14.046875 -53.421875 17.019531 -55.75 20.6875 -57.46875 C 24.351562 -59.195312 28.640625 -60.0625 33.546875 -60.0625 Z M 34.65625 -12.984375 C 38.832031 -12.984375 42.53125 -13.492188 45.75 -14.515625 C 48.976562 -15.546875 51.488281 -17.234375 53.28125 -19.578125 C 55.082031 -21.921875 55.984375 -25.039062 55.984375 -28.9375 L 55.984375 -30.03125 C 55.984375 -33.988281 55.082031 -37.125 53.28125 -39.4375 C 51.488281 -41.75 48.976562 -43.414062 45.75 -44.4375 C 42.53125 -45.46875 38.832031 -45.984375 34.65625 -45.984375 C 30.46875 -45.984375 26.78125 -45.46875 23.59375 -44.4375 C 20.40625 -43.414062 17.894531 -41.75 16.0625 -39.4375 C 14.226562 -37.125 13.3125 -33.988281 13.3125 -30.03125 L 13.3125 -28.9375 C 13.3125 -25.039062 14.226562 -21.921875 16.0625 -19.578125 C 17.894531 -17.234375 20.40625 -15.546875 23.59375 -14.515625 C 26.78125 -13.492188 30.46875 -12.984375 34.65625 -12.984375 Z M 34.65625 -12.984375 "/>
</symbol>
<symbol overflow="visible" id="id2:glyph0-2">
<path style="stroke:none;" d="M -49.609375 6.9375 C -46.234375 7.15625 -43.316406 7.847656 -40.859375 9.015625 C -38.410156 10.191406 -36.304688 11.804688 -34.546875 13.859375 C -32.640625 11.804688 -30.160156 10.140625 -27.109375 8.859375 C -24.066406 7.578125 -20.53125 6.9375 -16.5 6.9375 L -14.515625 6.9375 C -10.191406 6.9375 -6.414062 7.6875 -3.1875 9.1875 C 0.0390625 10.6875 2.644531 12.6875 4.625 15.1875 C 8 19.507812 9.6875 25.554688 9.6875 33.328125 C 9.6875 41.023438 8 47.039062 4.625 51.375 C 2.644531 53.863281 0.00390625 55.859375 -3.296875 57.359375 C -6.597656 58.867188 -10.5625 59.625 -15.1875 59.625 C -17.3125 59.625 -19.144531 59.515625 -20.6875 59.296875 L -20.6875 46.859375 L -15.515625 46.859375 C -10.085938 46.859375 -5.648438 45.867188 -2.203125 43.890625 C 1.242188 41.910156 2.96875 38.535156 2.96875 33.765625 L 2.96875 32.78125 C 2.96875 27.863281 1.242188 24.429688 -2.203125 22.484375 C -5.648438 20.546875 -10.085938 19.578125 -15.515625 19.578125 C -18.515625 19.578125 -21.222656 19.851562 -23.640625 20.40625 C -26.066406 20.957031 -28.085938 21.851562 -29.703125 23.09375 C -29.335938 24.707031 -29.0625 26.359375 -28.875 28.046875 C -28.6875 29.734375 -28.59375 31.492188 -28.59375 33.328125 C -28.59375 36.992188 -28.976562 40.382812 -29.75 43.5 C -30.519531 46.625 -31.929688 49.394531 -33.984375 51.8125 C -35.890625 54.082031 -38.382812 55.953125 -41.46875 57.421875 C -44.550781 58.890625 -48.328125 59.625 -52.796875 59.625 L -54.78125 59.625 C -59.25 59.625 -63.003906 58.890625 -66.046875 57.421875 C -69.097656 55.953125 -71.578125 54.082031 -73.484375 51.8125 C -75.535156 49.394531 -76.960938 46.625 -77.765625 43.5 C -78.578125 40.382812 -78.984375 36.992188 -78.984375 33.328125 C -78.984375 29.585938 -78.578125 26.160156 -77.765625 23.046875 C -76.960938 19.929688 -75.535156 17.085938 -73.484375 14.515625 C -71.722656 12.242188 -69.578125 10.46875 -67.046875 9.1875 C -64.515625 7.90625 -61.488281 7.15625 -57.96875 6.9375 L -57.96875 19.6875 C -62 19.976562 -65.390625 21.078125 -68.140625 22.984375 C -70.890625 24.890625 -72.265625 28.15625 -72.265625 32.78125 L -72.265625 33.765625 C -72.265625 38.609375 -70.519531 42.019531 -67.03125 44 C -63.550781 45.976562 -59.140625 46.96875 -53.796875 46.96875 C -48.367188 46.96875 -43.929688 45.976562 -40.484375 44 C -37.035156 42.019531 -35.3125 38.609375 -35.3125 33.765625 L -35.3125 32.78125 C -35.3125 28.15625 -36.664062 24.890625 -39.375 22.984375 C -42.09375 21.078125 -45.503906 19.976562 -49.609375 19.6875 Z M -49.609375 6.9375 "/>
</symbol>
</g>
</defs>
  <g id="id0:id0" transform="matrix(1.25,0,0,1.25,0.0,0.0)"><g id="id0:surface1">
<g style="fill:rgb(0%,0%,0%);fill-opacity:1;">
  <use xlink:href="#id0:glyph0-1" x="16" y="138.296875"/>
  <use xlink:href="#id0:glyph0-2" x="128.75" y="138.296875"/>
</g>
</g>
</g>
  <g id="id1:id1" transform="matrix(1.25,0,0,1.25,240.9375,73.603515625)"><g id="id1:surface1">
<g style="fill:rgb(0%,0%,0%);fill-opacity:1;">
  <use xlink:href="#id1:glyph0-1" x="0" y="120.84375"/>
</g>
</g>
</g>
  <g id="id2:id2" transform="matrix(1.25,0,0,1.25,373.53515625,0.0)"><g id="id2:surface1">
<g style="fill:rgb(0%,0%,0%);fill-opacity:1;">
  <use xlink:href="#id2:glyph0-1" x="16" y="138.296875"/>
  <use xlink:href="#id2:glyph0-2" x="107.078125" y="138.296875"/>
</g>
</g>
</g>
</svg>
