<?xml version="1.0" standalone="no"?>
<!DOCTYPE svg PUBLIC "-//W3C//DTD SVG 1.1//EN"
 "http://www.w3.org/Graphics/SVG/1.1/DTD/svg11.dtd">
<!-- Created with svg_stack (http://github.com/astraw/svg_stack) -->
<svg xmlns="http://www.w3.org/2000/svg" xmlns:sodipodi="http://sodipodi.sourceforge.net/DTD/sodipodi-0.dtd" xmlns:xlink="http://www.w3.org/1999/xlink" version="1.1" width="544.23828125" height="348.61328125">
  <defs><g>
<symbol overflow="visible" id="id0:glyph0-0">
<path style="stroke:none;" d="M 10.34375 0 L 10.34375 -78.546875 L 55.546875 -78.546875 L 55.546875 0 Z M 15.953125 -72.9375 L 15.953125 -5.609375 L 49.9375 -5.609375 L 49.9375 -72.9375 Z M 15.953125 -72.9375 "/>
</symbol>
<symbol overflow="visible" id="id0:glyph0-1">
<path style="stroke:none;" d="M 66.328125 -60.171875 C 69.484375 -60.171875 72.175781 -59.566406 74.40625 -58.359375 C 76.644531 -57.148438 78.316406 -55.703125 79.421875 -54.015625 C 81.691406 -55.847656 84.3125 -57.3125 87.28125 -58.40625 C 90.25 -59.507812 93.457031 -60.0625 96.90625 -60.0625 L 99.109375 -60.0625 C 104.023438 -60.0625 108.316406 -59.195312 111.984375 -57.46875 C 115.648438 -55.75 118.617188 -53.421875 120.890625 -50.484375 C 122.941406 -47.921875 124.40625 -44.914062 125.28125 -41.46875 C 126.164062 -38.019531 126.609375 -34.023438 126.609375 -29.484375 C 126.609375 -24.929688 126.164062 -20.929688 125.28125 -17.484375 C 124.40625 -14.035156 122.941406 -11.03125 120.890625 -8.46875 C 118.617188 -5.53125 115.648438 -3.203125 111.984375 -1.484375 C 108.316406 0.234375 104.023438 1.09375 99.109375 1.09375 C 97.054688 1.09375 95.296875 0.984375 93.828125 0.765625 L 93.828125 -12.984375 L 98.015625 -12.984375 C 102.191406 -12.984375 105.890625 -13.492188 109.109375 -14.515625 C 112.335938 -15.546875 114.847656 -17.234375 116.640625 -19.578125 C 118.441406 -21.921875 119.34375 -25.039062 119.34375 -28.9375 L 119.34375 -30.03125 C 119.34375 -35.894531 117.34375 -40.019531 113.34375 -42.40625 C 109.351562 -44.789062 104.171875 -45.984375 97.796875 -45.984375 C 94.566406 -45.984375 91.59375 -45.539062 88.875 -44.65625 C 86.164062 -43.78125 83.984375 -42.40625 82.328125 -40.53125 C 80.679688 -38.664062 79.859375 -36.15625 79.859375 -33 C 79.859375 -30.875 80.078125 -28.984375 80.515625 -27.328125 C 80.960938 -25.679688 81.382812 -23.976562 81.78125 -22.21875 C 82.1875 -20.457031 82.390625 -18.332031 82.390625 -15.84375 C 82.390625 -10.851562 81.015625 -6.765625 78.265625 -3.578125 C 75.515625 -0.390625 71.609375 1.203125 66.546875 1.203125 L 66.109375 1.203125 C 61.046875 1.203125 57.140625 -0.390625 54.390625 -3.578125 C 51.640625 -6.765625 50.265625 -10.851562 50.265625 -15.84375 C 50.265625 -18.332031 50.484375 -20.457031 50.921875 -22.21875 C 51.367188 -23.976562 51.789062 -25.679688 52.1875 -27.328125 C 52.59375 -28.984375 52.796875 -30.875 52.796875 -33 C 52.796875 -36.15625 51.96875 -38.664062 50.3125 -40.53125 C 48.664062 -42.40625 46.484375 -43.78125 43.765625 -44.65625 C 41.054688 -45.539062 38.09375 -45.984375 34.875 -45.984375 C 28.488281 -45.984375 23.296875 -44.789062 19.296875 -42.40625 C 15.304688 -40.019531 13.3125 -35.894531 13.3125 -30.03125 L 13.3125 -28.9375 C 13.3125 -25.039062 14.226562 -21.921875 16.0625 -19.578125 C 17.894531 -17.234375 20.40625 -15.546875 23.59375 -14.515625 C 26.78125 -13.492188 30.46875 -12.984375 34.65625 -12.984375 L 38.828125 -12.984375 L 38.828125 0.765625 C 37.429688 0.984375 35.671875 1.09375 33.546875 1.09375 C 28.640625 1.09375 24.351562 0.234375 20.6875 -1.484375 C 17.019531 -3.203125 14.046875 -5.53125 11.765625 -8.46875 C 9.710938 -11.03125 8.242188 -14.035156 7.359375 -17.484375 C 6.484375 -20.929688 6.046875 -24.929688 6.046875 -29.484375 C 6.046875 -34.023438 6.484375 -38.019531 7.359375 -41.46875 C 8.242188 -44.914062 9.710938 -47.921875 11.765625 -50.484375 C 14.046875 -53.421875 17.019531 -55.75 20.6875 -57.46875 C 24.351562 -59.195312 28.640625 -60.0625 33.546875 -60.0625 L 35.75 -60.0625 C 39.195312 -60.0625 42.40625 -59.507812 45.375 -58.40625 C 48.34375 -57.3125 50.960938 -55.847656 53.234375 -54.015625 C 54.335938 -55.703125 56.003906 -57.148438 58.234375 -58.359375 C 60.472656 -59.566406 63.171875 -60.171875 66.328125 -60.171875 Z M 59.1875 -19.46875 C 59.1875 -16.976562 59.71875 -14.867188 60.78125 -13.140625 C 61.84375 -11.421875 63.691406 -10.5625 66.328125 -10.5625 C 68.972656 -10.5625 70.828125 -11.421875 71.890625 -13.140625 C 72.953125 -14.867188 73.484375 -16.976562 73.484375 -19.46875 C 73.484375 -22.769531 73.097656 -25.773438 72.328125 -28.484375 C 71.554688 -31.203125 71.171875 -34.175781 71.171875 -37.40625 C 71.171875 -40.476562 71.867188 -43.445312 73.265625 -46.3125 C 71.648438 -48.070312 69.335938 -48.953125 66.328125 -48.953125 C 63.316406 -48.953125 61.007812 -48.070312 59.40625 -46.3125 C 60.789062 -43.445312 61.484375 -40.476562 61.484375 -37.40625 C 61.484375 -34.175781 61.097656 -31.203125 60.328125 -28.484375 C 59.566406 -25.773438 59.1875 -22.769531 59.1875 -19.46875 Z M 59.1875 -19.46875 "/>
</symbol>
<symbol overflow="visible" id="id0:glyph0-2">
<path style="stroke:none;" d="M -77.984375 44.875 C -75.785156 45.757812 -73.804688 46.203125 -72.046875 46.203125 C -69.554688 46.203125 -67.59375 45.539062 -66.15625 44.21875 C -64.726562 42.894531 -63.46875 40.398438 -62.375 36.734375 C -61.195312 32.921875 -60.3125 29.75 -59.71875 27.21875 C -59.132812 24.695312 -58.515625 22.476562 -57.859375 20.5625 C -57.203125 18.65625 -56.175781 16.820312 -54.78125 15.0625 C -52.800781 12.5 -50.175781 10.503906 -46.90625 9.078125 C -43.644531 7.648438 -39.890625 6.9375 -35.640625 6.9375 L -33.65625 6.9375 C -29.332031 6.9375 -25.535156 7.648438 -22.265625 9.078125 C -19.003906 10.503906 -16.382812 12.5 -14.40625 15.0625 C -12.644531 17.34375 -11.378906 19.96875 -10.609375 22.9375 C -9.835938 25.90625 -9.453125 29.332031 -9.453125 33.21875 C -9.453125 37.175781 -9.835938 40.617188 -10.609375 43.546875 C -11.378906 46.484375 -12.644531 49.09375 -14.40625 51.375 C -16.457031 53.863281 -19.097656 55.859375 -22.328125 57.359375 C -25.554688 58.867188 -29.332031 59.625 -33.65625 59.625 L -35.640625 59.625 C -39.890625 59.625 -43.644531 58.867188 -46.90625 57.359375 C -50.175781 55.859375 -52.800781 53.863281 -54.78125 51.375 C -55.800781 50.125 -56.644531 48.726562 -57.3125 47.1875 C -59.289062 51.59375 -61.597656 54.765625 -64.234375 56.703125 C -66.878906 58.648438 -69.960938 59.625 -73.484375 59.625 C -75.316406 59.625 -76.960938 59.421875 -78.421875 59.015625 C -79.890625 58.609375 -81.101562 58.148438 -82.0625 57.640625 Z M -34.65625 46.859375 C -29.226562 46.859375 -24.789062 45.882812 -21.34375 43.9375 C -17.894531 42 -16.171875 38.570312 -16.171875 33.65625 L -16.171875 32.78125 C -16.171875 27.863281 -17.894531 24.429688 -21.34375 22.484375 C -24.789062 20.546875 -29.226562 19.578125 -34.65625 19.578125 C -40.082031 19.578125 -44.515625 20.546875 -47.953125 22.484375 C -51.398438 24.429688 -53.125 27.863281 -53.125 32.78125 L -53.125 33.65625 C -53.125 38.570312 -51.398438 42 -47.953125 43.9375 C -44.515625 45.882812 -40.082031 46.859375 -34.65625 46.859375 Z M -34.65625 46.859375 "/>
</symbol>
</g>
<g>
<symbol overflow="visible" id="id1:glyph0-0">
<path style="stroke:none;" d="M 5.375 -96.6875 L 69.828125 -96.6875 L 69.828125 0 L 5.375 0 Z M 8.0625 -2.6875 L 67.140625 -2.6875 L 67.140625 -94 L 8.0625 -94 Z M 8.0625 -2.6875 "/>
</symbol>
<symbol overflow="visible" id="id1:glyph0-1">
<path style="stroke:none;" d="M 68.15625 -13.75 L 66.28125 -18.640625 L 88.09375 -27.390625 L 6.984375 -27.390625 L 6.984375 -34 L 88.09375 -34 L 66.28125 -42.75 L 68.15625 -47.640625 L 99.09375 -34.265625 L 99.09375 -27.125 Z M 68.15625 -13.75 "/>
</symbol>
</g>
<g>
<symbol overflow="visible" id="id2:glyph0-0">
<path style="stroke:none;" d="M 10.34375 0 L 10.34375 -78.546875 L 55.546875 -78.546875 L 55.546875 0 Z M 15.953125 -72.9375 L 15.953125 -5.609375 L 49.9375 -5.609375 L 49.9375 -72.9375 Z M 15.953125 -72.9375 "/>
</symbol>
<symbol overflow="visible" id="id2:glyph0-1">
<path style="stroke:none;" d="M 66.328125 -60.171875 C 69.484375 -60.171875 72.175781 -59.566406 74.40625 -58.359375 C 76.644531 -57.148438 78.316406 -55.703125 79.421875 -54.015625 C 81.691406 -55.847656 84.3125 -57.3125 87.28125 -58.40625 C 90.25 -59.507812 93.457031 -60.0625 96.90625 -60.0625 L 99.109375 -60.0625 C 104.023438 -60.0625 108.316406 -59.195312 111.984375 -57.46875 C 115.648438 -55.75 118.617188 -53.421875 120.890625 -50.484375 C 122.941406 -47.921875 124.40625 -44.914062 125.28125 -41.46875 C 126.164062 -38.019531 126.609375 -34.023438 126.609375 -29.484375 C 126.609375 -24.929688 126.164062 -20.929688 125.28125 -17.484375 C 124.40625 -14.035156 122.941406 -11.03125 120.890625 -8.46875 C 118.617188 -5.53125 115.648438 -3.203125 111.984375 -1.484375 C 108.316406 0.234375 104.023438 1.09375 99.109375 1.09375 C 97.054688 1.09375 95.296875 0.984375 93.828125 0.765625 L 93.828125 -12.984375 L 98.015625 -12.984375 C 102.191406 -12.984375 105.890625 -13.492188 109.109375 -14.515625 C 112.335938 -15.546875 114.847656 -17.234375 116.640625 -19.578125 C 118.441406 -21.921875 119.34375 -25.039062 119.34375 -28.9375 L 119.34375 -30.03125 C 119.34375 -35.894531 117.34375 -40.019531 113.34375 -42.40625 C 109.351562 -44.789062 104.171875 -45.984375 97.796875 -45.984375 C 94.566406 -45.984375 91.59375 -45.539062 88.875 -44.65625 C 86.164062 -43.78125 83.984375 -42.40625 82.328125 -40.53125 C 80.679688 -38.664062 79.859375 -36.15625 79.859375 -33 C 79.859375 -30.875 80.078125 -28.984375 80.515625 -27.328125 C 80.960938 -25.679688 81.382812 -23.976562 81.78125 -22.21875 C 82.1875 -20.457031 82.390625 -18.332031 82.390625 -15.84375 C 82.390625 -10.851562 81.015625 -6.765625 78.265625 -3.578125 C 75.515625 -0.390625 71.609375 1.203125 66.546875 1.203125 L 66.109375 1.203125 C 61.046875 1.203125 57.140625 -0.390625 54.390625 -3.578125 C 51.640625 -6.765625 50.265625 -10.851562 50.265625 -15.84375 C 50.265625 -18.332031 50.484375 -20.457031 50.921875 -22.21875 C 51.367188 -23.976562 51.789062 -25.679688 52.1875 -27.328125 C 52.59375 -28.984375 52.796875 -30.875 52.796875 -33 C 52.796875 -36.15625 51.96875 -38.664062 50.3125 -40.53125 C 48.664062 -42.40625 46.484375 -43.78125 43.765625 -44.65625 C 41.054688 -45.539062 38.09375 -45.984375 34.875 -45.984375 C 28.488281 -45.984375 23.296875 -44.789062 19.296875 -42.40625 C 15.304688 -40.019531 13.3125 -35.894531 13.3125 -30.03125 L 13.3125 -28.9375 C 13.3125 -25.039062 14.226562 -21.921875 16.0625 -19.578125 C 17.894531 -17.234375 20.40625 -15.546875 23.59375 -14.515625 C 26.78125 -13.492188 30.46875 -12.984375 34.65625 -12.984375 L 38.828125 -12.984375 L 38.828125 0.765625 C 37.429688 0.984375 35.671875 1.09375 33.546875 1.09375 C 28.640625 1.09375 24.351562 0.234375 20.6875 -1.484375 C 17.019531 -3.203125 14.046875 -5.53125 11.765625 -8.46875 C 9.710938 -11.03125 8.242188 -14.035156 7.359375 -17.484375 C 6.484375 -20.929688 6.046875 -24.929688 6.046875 -29.484375 C 6.046875 -34.023438 6.484375 -38.019531 7.359375 -41.46875 C 8.242188 -44.914062 9.710938 -47.921875 11.765625 -50.484375 C 14.046875 -53.421875 17.019531 -55.75 20.6875 -57.46875 C 24.351562 -59.195312 28.640625 -60.0625 33.546875 -60.0625 L 35.75 -60.0625 C 39.195312 -60.0625 42.40625 -59.507812 45.375 -58.40625 C 48.34375 -57.3125 50.960938 -55.847656 53.234375 -54.015625 C 54.335938 -55.703125 56.003906 -57.148438 58.234375 -58.359375 C 60.472656 -59.566406 63.171875 -60.171875 66.328125 -60.171875 Z M 59.1875 -19.46875 C 59.1875 -16.976562 59.71875 -14.867188 60.78125 -13.140625 C 61.84375 -11.421875 63.691406 -10.5625 66.328125 -10.5625 C 68.972656 -10.5625 70.828125 -11.421875 71.890625 -13.140625 C 72.953125 -14.867188 73.484375 -16.976562 73.484375 -19.46875 C 73.484375 -22.769531 73.097656 -25.773438 72.328125 -28.484375 C 71.554688 -31.203125 71.171875 -34.175781 71.171875 -37.40625 C 71.171875 -40.476562 71.867188 -43.445312 73.265625 -46.3125 C 71.648438 -48.070312 69.335938 -48.953125 66.328125 -48.953125 C 63.316406 -48.953125 61.007812 -48.070312 59.40625 -46.3125 C 60.789062 -43.445312 61.484375 -40.476562 61.484375 -37.40625 C 61.484375 -34.175781 61.097656 -31.203125 60.328125 -28.484375 C 59.566406 -25.773438 59.1875 -22.769531 59.1875 -19.46875 Z M 59.1875 -19.46875 "/>
</symbol>
<symbol overflow="visible" id="id2:glyph0-2">
<path style="stroke:none;" d="M -10.015625 37.1875 C -10.015625 44.070312 -12.082031 49.53125 -16.21875 53.5625 C -20.363281 57.601562 -26.359375 59.625 -34.203125 59.625 L -34.875 59.625 C -40 59.625 -44.335938 58.742188 -47.890625 56.984375 C -51.453125 55.222656 -54.1875 52.726562 -56.09375 49.5 C -58 53.238281 -60.144531 55.859375 -62.53125 57.359375 C -64.914062 58.867188 -67.6875 59.625 -70.84375 59.625 C -72.75 59.625 -74.394531 59.421875 -75.78125 59.015625 C -77.175781 58.609375 -78.316406 58.148438 -79.203125 57.640625 L -74.90625 44.4375 C -73.882812 44.875 -72.929688 45.164062 -72.046875 45.3125 C -71.171875 45.46875 -70.363281 45.546875 -69.625 45.546875 C -67.132812 45.546875 -65.191406 44.882812 -63.796875 43.5625 C -62.398438 42.238281 -61.117188 39.742188 -59.953125 36.078125 C -58.847656 32.703125 -58.003906 30.207031 -57.421875 28.59375 C -56.835938 26.988281 -56.066406 25.488281 -55.109375 24.09375 C -53.054688 20.9375 -50.378906 18.019531 -47.078125 15.34375 C -43.773438 12.664062 -40.21875 10.15625 -36.40625 7.8125 L -34.546875 6.703125 L -32.671875 7.8125 C -28.492188 10.300781 -24.679688 13.007812 -21.234375 15.9375 C -17.785156 18.875 -15.050781 22.082031 -13.03125 25.5625 C -11.019531 29.050781 -10.015625 32.925781 -10.015625 37.1875 Z M -34.546875 14.84375 C -39.742188 17.925781 -43.753906 21.046875 -46.578125 24.203125 C -49.398438 27.359375 -50.8125 30.84375 -50.8125 34.65625 C -50.8125 38.46875 -49.507812 41.453125 -46.90625 43.609375 C -44.3125 45.773438 -40.335938 46.859375 -34.984375 46.859375 L -34.09375 46.859375 C -28.664062 46.859375 -24.671875 45.773438 -22.109375 43.609375 C -19.546875 41.453125 -18.265625 38.46875 -18.265625 34.65625 C -18.265625 30.84375 -19.675781 27.359375 -22.5 24.203125 C -25.320312 21.046875 -29.335938 17.925781 -34.546875 14.84375 Z M -34.546875 14.84375 "/>
</symbol>
</g>
</defs>
  <g id="id0:id0" transform="matrix(1.25,0,0,1.25,0.0,0.0)"><g id="id0:surface1">
<g style="fill:rgb(0%,0%,0%);fill-opacity:1;">
  <use xlink:href="#id0:glyph0-1" x="16" y="138.296875"/>
  <use xlink:href="#id0:glyph0-2" x="149.765625" y="138.296875"/>
</g>
</g>
</g>
  <g id="id1:id1" transform="matrix(1.25,0,0,1.25,205.8203125,73.603515625)"><g id="id1:surface1">
<g style="fill:rgb(0%,0%,0%);fill-opacity:1;">
  <use xlink:href="#id1:glyph0-1" x="0" y="120.84375"/>
</g>
</g>
</g>
  <g id="id2:id2" transform="matrix(1.25,0,0,1.25,338.41796875,0.0)"><g id="id2:surface1">
<g style="fill:rgb(0%,0%,0%);fill-opacity:1;">
  <use xlink:href="#id2:glyph0-1" x="16" y="138.296875"/>
  <use xlink:href="#id2:glyph0-2" x="149.765625" y="138.296875"/>
</g>
</g>
</g>
</svg>
