<!DOCTYPE svg PUBLIC "-//W3C//DTD SVG 1.1//EN" "http://www.w3.org/Graphics/SVG/1.1/DTD/svg11.dtd">
<!-- Created with svg_stack (http://github.com/astraw/svg_stack) --><svg xmlns="http://www.w3.org/2000/svg" xmlns:sodipodi="http://sodipodi.sourceforge.net/DTD/sodipodi-0.dtd" xmlns:xlink="http://www.w3.org/1999/xlink" version="1.1" width="679.94140625" height="201.40625" id="malayalam-akhn-nntta">
  <defs><g>
<symbol overflow="visible" id="malayalam-akhn-nntta:id0:glyph0-0">
<path style="stroke:none;" d="M 10.34375 0 L 10.34375 -78.546875 L 55.546875 -78.546875 L 55.546875 0 Z M 15.953125 -5.609375 L 49.9375 -5.609375 L 49.9375 -72.9375 L 15.953125 -72.9375 Z M 15.953125 -5.609375 "/>
</symbol>
<symbol overflow="visible" id="malayalam-akhn-nntta:id0:glyph0-1">
<path style="stroke:none;" d="M 27.71875 0.65625 C 23.832031 0.65625 20.441406 -0.148438 17.546875 -1.765625 C 14.648438 -3.378906 12.25 -5.519531 10.34375 -8.1875 C 8.4375 -10.863281 7.003906 -13.890625 6.046875 -17.265625 C 5.097656 -20.640625 4.625 -24.085938 4.625 -27.609375 C 4.625 -33.253906 5.539062 -38.203125 7.375 -42.453125 C 9.207031 -46.710938 11.695312 -50.253906 14.84375 -53.078125 C 18 -55.898438 21.519531 -58.023438 25.40625 -59.453125 C 29.289062 -60.878906 33.328125 -61.59375 37.515625 -61.59375 C 42.054688 -61.59375 46.671875 -60.710938 51.359375 -58.953125 C 56.054688 -57.191406 59.945312 -54.1875 63.03125 -49.9375 C 66.988281 -57.707031 73.441406 -61.59375 82.390625 -61.59375 C 86.566406 -61.59375 90.304688 -60.691406 93.609375 -58.890625 C 96.910156 -57.097656 99.585938 -54.628906 101.640625 -51.484375 C 103.835938 -55.003906 106.585938 -57.566406 109.890625 -59.171875 C 113.191406 -60.785156 116.710938 -61.59375 120.453125 -61.59375 C 125.210938 -61.59375 129.570312 -60.382812 133.53125 -57.96875 C 137.5 -55.550781 140.671875 -51.941406 143.046875 -47.140625 C 145.429688 -42.335938 146.625 -36.34375 146.625 -29.15625 C 146.625 -24.3125 146.019531 -20.019531 144.8125 -16.28125 C 143.601562 -12.539062 142.023438 -9.382812 140.078125 -6.8125 C 138.140625 -4.25 136.050781 -2.328125 133.8125 -1.046875 C 131.570312 0.234375 129.425781 0.875 127.375 0.875 C 126.425781 0.875 125.566406 0.78125 124.796875 0.59375 C 124.023438 0.414062 123.421875 0.21875 122.984375 0 C 125.765625 -2.050781 128.109375 -4.613281 130.015625 -7.6875 C 131.921875 -10.769531 133.367188 -14.164062 134.359375 -17.875 C 135.347656 -21.582031 135.84375 -25.269531 135.84375 -28.9375 C 135.84375 -34.875 135.070312 -39.765625 133.53125 -43.609375 C 132 -47.460938 129.96875 -50.320312 127.4375 -52.1875 C 124.90625 -54.0625 122.132812 -55 119.125 -55 C 114.65625 -55 111.117188 -53.457031 108.515625 -50.375 C 105.910156 -47.300781 104.609375 -43.523438 104.609375 -39.046875 L 104.609375 0 L 94.15625 0 L 94.15625 -39.9375 C 94.15625 -44.476562 93.144531 -48.125 91.125 -50.875 C 89.113281 -53.625 85.835938 -55 81.296875 -55 C 77.035156 -55 73.769531 -53.695312 71.5 -51.09375 C 69.226562 -48.488281 68.09375 -44.691406 68.09375 -39.703125 L 68.09375 0 L 57.640625 0 L 57.640625 -32.125 C 57.640625 -39.601562 55.660156 -45.285156 51.703125 -49.171875 C 47.742188 -53.054688 42.570312 -55 36.1875 -55 C 31.9375 -55 27.867188 -53.988281 23.984375 -51.96875 C 20.097656 -49.957031 16.90625 -46.914062 14.40625 -42.84375 C 11.914062 -38.769531 10.671875 -33.65625 10.671875 -27.5 C 10.671875 -26.539062 10.707031 -25.660156 10.78125 -24.859375 C 12.832031 -27.941406 15.34375 -30.472656 18.3125 -32.453125 C 21.28125 -34.429688 24.671875 -35.421875 28.484375 -35.421875 C 32.078125 -35.421875 35.210938 -34.628906 37.890625 -33.046875 C 40.566406 -31.472656 42.65625 -29.347656 44.15625 -26.671875 C 45.664062 -23.992188 46.421875 -20.929688 46.421875 -17.484375 C 46.421875 -12.285156 44.769531 -7.960938 41.46875 -4.515625 C 38.164062 -1.066406 33.582031 0.65625 27.71875 0.65625 Z M 25.84375 -28.703125 C 22.84375 -28.703125 20.164062 -27.691406 17.8125 -25.671875 C 15.46875 -23.660156 13.488281 -21.300781 11.875 -18.59375 C 13.195312 -14.257812 15.195312 -11.066406 17.875 -9.015625 C 20.550781 -6.960938 23.171875 -5.9375 25.734375 -5.9375 C 29.253906 -5.9375 31.910156 -7.054688 33.703125 -9.296875 C 35.503906 -11.535156 36.40625 -14.265625 36.40625 -17.484375 C 36.40625 -21.148438 35.378906 -23.9375 33.328125 -25.84375 C 31.273438 -27.75 28.78125 -28.703125 25.84375 -28.703125 Z M 25.84375 -28.703125 "/>
</symbol>
<symbol overflow="visible" id="malayalam-akhn-nntta:id0:glyph0-2">
<path style="stroke:none;" d="M -10.234375 -66.546875 C -15.441406 -66.546875 -19.457031 -67.222656 -22.28125 -68.578125 C -25.101562 -69.941406 -27.0625 -71.648438 -28.15625 -73.703125 C -29.257812 -75.753906 -29.8125 -77.84375 -29.8125 -79.96875 C -29.8125 -82.53125 -28.945312 -84.507812 -27.21875 -85.90625 C -25.5 -87.300781 -23.613281 -88 -21.5625 -88 C -20.675781 -88 -19.832031 -87.851562 -19.03125 -87.5625 C -19.539062 -86.09375 -19.796875 -84.585938 -19.796875 -83.046875 C -19.796875 -79.816406 -18.878906 -77.320312 -17.046875 -75.5625 C -15.210938 -73.8125 -12.71875 -72.9375 -9.5625 -72.9375 C -6.488281 -72.9375 -4.050781 -73.722656 -2.25 -75.296875 C -0.457031 -76.867188 0.4375 -79.304688 0.4375 -82.609375 C 0.4375 -84.441406 0.0703125 -86.09375 -0.65625 -87.5625 C 0 -87.78125 0.695312 -87.890625 1.4375 -87.890625 C 3.34375 -87.890625 4.753906 -87.132812 5.671875 -85.625 C 6.585938 -84.125 7.046875 -82.457031 7.046875 -80.625 C 7.046875 -76.59375 5.578125 -73.238281 2.640625 -70.5625 C -0.296875 -67.882812 -4.585938 -66.546875 -10.234375 -66.546875 Z M -10.234375 -66.546875 "/>
</symbol>
<symbol overflow="visible" id="malayalam-akhn-nntta:id0:glyph0-3">
<path style="stroke:none;" d="M 30.6875 0.65625 C 25.695312 0.65625 21.148438 0.144531 17.046875 -0.875 C 12.941406 -1.90625 9.675781 -3.242188 7.25 -4.890625 C 4.832031 -6.546875 3.625 -8.253906 3.625 -10.015625 C 3.625 -10.378906 3.734375 -10.890625 3.953125 -11.546875 C 4.179688 -12.210938 4.441406 -12.691406 4.734375 -12.984375 C 5.972656 -12.171875 7.875 -11.175781 10.4375 -10 C 13.007812 -8.832031 16.019531 -7.804688 19.46875 -6.921875 C 22.914062 -6.046875 26.617188 -5.609375 30.578125 -5.609375 C 36.222656 -5.609375 40.675781 -6.359375 43.9375 -7.859375 C 47.207031 -9.367188 48.84375 -12.03125 48.84375 -15.84375 C 48.84375 -18.988281 47.484375 -21.515625 44.765625 -23.421875 C 42.054688 -25.335938 37.21875 -26.476562 30.25 -26.84375 C 22.476562 -27.28125 16.242188 -28.800781 11.546875 -31.40625 C 6.859375 -34.007812 4.515625 -38.171875 4.515625 -43.890625 C 4.515625 -48.066406 5.722656 -51.457031 8.140625 -54.0625 C 10.554688 -56.664062 13.707031 -58.570312 17.59375 -59.78125 C 21.488281 -60.988281 25.597656 -61.59375 29.921875 -61.59375 C 34.765625 -61.59375 39.109375 -61.171875 42.953125 -60.328125 C 46.804688 -59.484375 49.847656 -58.347656 52.078125 -56.921875 C 54.316406 -55.492188 55.4375 -53.9375 55.4375 -52.25 C 55.4375 -51.664062 55.34375 -51.113281 55.15625 -50.59375 C 54.976562 -50.082031 54.742188 -49.609375 54.453125 -49.171875 C 51.660156 -50.710938 48.300781 -52.125 44.375 -53.40625 C 40.457031 -54.6875 35.96875 -55.328125 30.90625 -55.328125 C 24.457031 -55.328125 19.945312 -54.390625 17.375 -52.515625 C 14.8125 -50.648438 13.53125 -48.289062 13.53125 -45.4375 C 13.53125 -43.675781 14.0625 -42.097656 15.125 -40.703125 C 16.1875 -39.304688 18.054688 -38.164062 20.734375 -37.28125 C 23.410156 -36.40625 27.132812 -35.820312 31.90625 -35.53125 C 40.332031 -35.09375 46.800781 -33.382812 51.3125 -30.40625 C 55.820312 -27.4375 58.078125 -22.945312 58.078125 -16.9375 C 58.078125 -12.832031 56.921875 -9.476562 54.609375 -6.875 C 52.304688 -4.269531 49.097656 -2.363281 44.984375 -1.15625 C 40.878906 0.0507812 36.113281 0.65625 30.6875 0.65625 Z M 30.6875 0.65625 "/>
</symbol>
</g>
<g>
<symbol overflow="visible" id="malayalam-akhn-nntta:id1:glyph0-0">
<path style="stroke:none;" d="M 5.375 -96.6875 L 69.828125 -96.6875 L 69.828125 0 L 5.375 0 Z M 8.0625 -2.6875 L 67.140625 -2.6875 L 67.140625 -94 L 8.0625 -94 Z M 8.0625 -2.6875 "/>
</symbol>
<symbol overflow="visible" id="malayalam-akhn-nntta:id1:glyph0-1">
<path style="stroke:none;" d="M 68.15625 -13.75 L 66.28125 -18.640625 L 88.09375 -27.390625 L 6.984375 -27.390625 L 6.984375 -34 L 88.09375 -34 L 66.28125 -42.75 L 68.15625 -47.640625 L 99.09375 -34.265625 L 99.09375 -27.125 Z M 68.15625 -13.75 "/>
</symbol>
</g>
<g>
<symbol overflow="visible" id="malayalam-akhn-nntta:id2:glyph0-0">
<path style="stroke:none;" d="M 10.34375 0 L 10.34375 -78.546875 L 55.546875 -78.546875 L 55.546875 0 Z M 15.953125 -5.609375 L 49.9375 -5.609375 L 49.9375 -72.9375 L 15.953125 -72.9375 Z M 15.953125 -5.609375 "/>
</symbol>
<symbol overflow="visible" id="malayalam-akhn-nntta:id2:glyph0-1">
<path style="stroke:none;" d="M 131.015625 -55 C 124.484375 -55 119.273438 -53.734375 115.390625 -51.203125 C 111.503906 -48.671875 108.734375 -45.332031 107.078125 -41.1875 C 105.429688 -37.050781 104.609375 -32.597656 104.609375 -27.828125 L 104.609375 0 L 94.15625 0 L 94.15625 -39.9375 C 94.15625 -44.476562 93.144531 -48.125 91.125 -50.875 C 89.113281 -53.625 85.835938 -55 81.296875 -55 C 77.035156 -55 73.769531 -53.695312 71.5 -51.09375 C 69.226562 -48.488281 68.09375 -44.691406 68.09375 -39.703125 L 68.09375 0 L 57.640625 0 L 57.640625 -32.125 C 57.640625 -39.601562 55.660156 -45.285156 51.703125 -49.171875 C 47.742188 -53.054688 42.570312 -55 36.1875 -55 C 31.9375 -55 27.867188 -53.988281 23.984375 -51.96875 C 20.097656 -49.957031 16.90625 -46.914062 14.40625 -42.84375 C 11.914062 -38.769531 10.671875 -33.65625 10.671875 -27.5 C 10.671875 -26.539062 10.707031 -25.660156 10.78125 -24.859375 C 12.832031 -27.941406 15.34375 -30.472656 18.3125 -32.453125 C 21.28125 -34.429688 24.671875 -35.421875 28.484375 -35.421875 C 32.078125 -35.421875 35.210938 -34.628906 37.890625 -33.046875 C 40.566406 -31.472656 42.65625 -29.347656 44.15625 -26.671875 C 45.664062 -23.992188 46.421875 -20.929688 46.421875 -17.484375 C 46.421875 -12.285156 44.769531 -7.960938 41.46875 -4.515625 C 38.164062 -1.066406 33.582031 0.65625 27.71875 0.65625 C 23.832031 0.65625 20.441406 -0.148438 17.546875 -1.765625 C 14.648438 -3.378906 12.25 -5.519531 10.34375 -8.1875 C 8.4375 -10.863281 7.003906 -13.890625 6.046875 -17.265625 C 5.097656 -20.640625 4.625 -24.085938 4.625 -27.609375 C 4.625 -33.253906 5.539062 -38.203125 7.375 -42.453125 C 9.207031 -46.710938 11.695312 -50.253906 14.84375 -53.078125 C 18 -55.898438 21.519531 -58.023438 25.40625 -59.453125 C 29.289062 -60.878906 33.328125 -61.59375 37.515625 -61.59375 C 42.054688 -61.59375 46.671875 -60.710938 51.359375 -58.953125 C 56.054688 -57.191406 59.945312 -54.1875 63.03125 -49.9375 C 64.9375 -53.675781 67.554688 -56.550781 70.890625 -58.5625 C 74.234375 -60.582031 78.285156 -61.59375 83.046875 -61.59375 C 87.816406 -61.59375 92.050781 -60.273438 95.75 -57.640625 C 99.457031 -55.003906 102.007812 -51.628906 103.40625 -47.515625 C 105.96875 -51.847656 109.554688 -55.273438 114.171875 -57.796875 C 118.796875 -60.328125 124.738281 -61.59375 132 -61.59375 C 139.988281 -61.59375 146.144531 -60.050781 150.46875 -56.96875 C 154.800781 -53.894531 156.96875 -50.085938 156.96875 -45.546875 C 156.96875 -42.460938 156.050781 -39.859375 154.21875 -37.734375 C 152.382812 -35.609375 149.234375 -34.546875 144.765625 -34.546875 C 143.367188 -34.546875 141.953125 -34.582031 140.515625 -34.65625 C 139.085938 -34.726562 137.71875 -34.765625 136.40625 -34.765625 C 133.976562 -34.765625 132.085938 -34.378906 130.734375 -33.609375 C 129.378906 -32.835938 128.703125 -31.535156 128.703125 -29.703125 C 128.703125 -27.578125 129.582031 -26.070312 131.34375 -25.1875 C 133.101562 -24.3125 135.410156 -23.875 138.265625 -23.875 L 140.359375 -23.875 C 145.347656 -23.875 149.21875 -22.898438 151.96875 -20.953125 C 154.71875 -19.015625 156.09375 -16.175781 156.09375 -12.4375 C 156.09375 -8.394531 154.347656 -5.203125 150.859375 -2.859375 C 147.378906 -0.515625 142.375 0.65625 135.84375 0.65625 C 131.738281 0.65625 128.421875 0.21875 125.890625 -0.65625 C 123.359375 -1.539062 121.523438 -2.625 120.390625 -3.90625 C 119.253906 -5.1875 118.6875 -6.414062 118.6875 -7.59375 C 118.6875 -8.320312 118.867188 -9.054688 119.234375 -9.796875 C 121.210938 -8.691406 123.503906 -7.695312 126.109375 -6.8125 C 128.710938 -5.9375 131.664062 -5.5 134.96875 -5.5 C 139.070312 -5.5 141.945312 -6.046875 143.59375 -7.140625 C 145.25 -8.242188 146.078125 -9.929688 146.078125 -12.203125 C 146.078125 -14.335938 145.210938 -15.878906 143.484375 -16.828125 C 141.765625 -17.785156 139.367188 -18.265625 136.296875 -18.265625 L 134.96875 -18.265625 C 130.050781 -18.265625 126.109375 -19.160156 123.140625 -20.953125 C 120.171875 -22.753906 118.6875 -25.523438 118.6875 -29.265625 C 118.6875 -32.785156 119.929688 -35.441406 122.421875 -37.234375 C 124.921875 -39.035156 128.476562 -39.9375 133.09375 -39.9375 C 134.34375 -39.9375 135.5 -39.894531 136.5625 -39.8125 C 137.625 -39.738281 138.851562 -39.703125 140.25 -39.703125 C 142.664062 -39.703125 144.347656 -40.195312 145.296875 -41.1875 C 146.253906 -42.1875 146.734375 -43.601562 146.734375 -45.4375 C 146.734375 -48.4375 145.359375 -50.78125 142.609375 -52.46875 C 139.859375 -54.15625 135.992188 -55 131.015625 -55 Z M 25.84375 -28.703125 C 22.84375 -28.703125 20.164062 -27.691406 17.8125 -25.671875 C 15.46875 -23.660156 13.488281 -21.300781 11.875 -18.59375 C 13.195312 -14.257812 15.195312 -11.066406 17.875 -9.015625 C 20.550781 -6.960938 23.171875 -5.9375 25.734375 -5.9375 C 29.253906 -5.9375 31.910156 -7.054688 33.703125 -9.296875 C 35.503906 -11.535156 36.40625 -14.265625 36.40625 -17.484375 C 36.40625 -21.148438 35.378906 -23.9375 33.328125 -25.84375 C 31.273438 -27.75 28.78125 -28.703125 25.84375 -28.703125 Z M 25.84375 -28.703125 "/>
</symbol>
</g>
</defs>
  <g id="malayalam-akhn-nntta:id0:id0" transform="matrix(1.25,0,0,1.25,0.0,12.470703125)"><g id="malayalam-akhn-nntta:id0:surface1">
<g style="fill:rgb(0%,0%,0%);fill-opacity:1;">
  <use xlink:href="#malayalam-akhn-nntta:id0:glyph0-1" x="16" y="97.046875" class="c0"/>
  <use xlink:href="#malayalam-akhn-nntta:id0:glyph0-2" x="167.25" y="97.046875" class="c1"/>
  <use xlink:href="#malayalam-akhn-nntta:id0:glyph0-3" x="167.25" y="97.046875" class="c2"/>
</g>
</g>
</g>
  <g id="malayalam-akhn-nntta:id1:id1" transform="matrix(1.25,0,0,1.25,306.328125,0.0)"><g id="malayalam-akhn-nntta:id1:surface1">
<g style="fill:rgb(0%,0%,0%);fill-opacity:1;">
  <use xlink:href="#malayalam-akhn-nntta:id1:glyph0-1" x="0" y="120.84375" class="arrow"/>
</g>
</g>
</g>
  <g id="malayalam-akhn-nntta:id2:id2" transform="matrix(1.25,0,0,1.25,438.92578125,12.470703125)"><g id="malayalam-akhn-nntta:id2:surface1">
<g style="fill:rgb(0%,0%,0%);fill-opacity:1;">
  <use xlink:href="#malayalam-akhn-nntta:id2:glyph0-1" x="16" y="97.046875" class="c3"/>
</g>
</g>
</g>
</svg>
