<?xml version="1.0" standalone="no"?>
<!DOCTYPE svg PUBLIC "-//W3C//DTD SVG 1.1//EN"
 "http://www.w3.org/Graphics/SVG/1.1/DTD/svg11.dtd">
<!-- Created with svg_stack (http://github.com/astraw/svg_stack) -->
<svg xmlns="http://www.w3.org/2000/svg" xmlns:sodipodi="http://sodipodi.sourceforge.net/DTD/sodipodi-0.dtd" xmlns:xlink="http://www.w3.org/1999/xlink" version="1.1" width="620.05859375" height="201.40625">
  <defs><g>
<symbol overflow="visible" id="id0:glyph0-0">
<path style="stroke:none;" d="M 10.34375 0 L 10.34375 -78.546875 L 55.546875 -78.546875 L 55.546875 0 Z M 15.953125 -5.609375 L 49.9375 -5.609375 L 49.9375 -72.9375 L 15.953125 -72.9375 Z M 15.953125 -5.609375 "/>
</symbol>
<symbol overflow="visible" id="id0:glyph0-1">
<path style="stroke:none;" d="M 25.40625 21.671875 C 18.738281 21.671875 13.789062 20.421875 10.5625 17.921875 C 7.332031 15.429688 5.71875 11.988281 5.71875 7.59375 C 5.71875 3.039062 7.332031 -0.347656 10.5625 -2.578125 C 13.789062 -4.816406 18.082031 -5.9375 23.4375 -5.9375 L 30.359375 -5.9375 C 36.003906 -5.9375 40.914062 -6.757812 45.09375 -8.40625 C 49.28125 -10.0625 52.507812 -12.757812 54.78125 -16.5 C 57.050781 -20.238281 58.1875 -25.148438 58.1875 -31.234375 C 58.1875 -38.785156 56.003906 -44.632812 51.640625 -48.78125 C 47.273438 -52.925781 41.613281 -55 34.65625 -55 C 27.394531 -55 21.726562 -53.238281 17.65625 -49.71875 C 13.582031 -46.195312 11.253906 -41.6875 10.671875 -36.1875 C 12.503906 -38.53125 14.664062 -40.4375 17.15625 -41.90625 C 19.65625 -43.375 22.332031 -44.109375 25.1875 -44.109375 C 28.925781 -44.109375 32.023438 -43.351562 34.484375 -41.84375 C 36.941406 -40.34375 38.773438 -38.382812 39.984375 -35.96875 C 41.191406 -33.550781 41.796875 -30.910156 41.796875 -28.046875 C 41.796875 -22.910156 40.144531 -18.929688 36.84375 -16.109375 C 33.550781 -13.285156 29.082031 -11.875 23.4375 -11.875 C 20.28125 -11.875 17.289062 -12.644531 14.46875 -14.1875 C 11.644531 -15.726562 9.332031 -18.070312 7.53125 -21.21875 C 5.738281 -24.375 4.84375 -28.375 4.84375 -33.21875 C 4.84375 -38.9375 6.160156 -43.921875 8.796875 -48.171875 C 11.441406 -52.429688 15.109375 -55.734375 19.796875 -58.078125 C 24.492188 -60.421875 29.882812 -61.59375 35.96875 -61.59375 C 42.789062 -61.59375 48.691406 -60.289062 53.671875 -57.6875 C 58.660156 -55.09375 62.492188 -51.539062 65.171875 -47.03125 C 67.847656 -42.519531 69.1875 -37.40625 69.1875 -31.6875 C 69.1875 -21.050781 66.015625 -13.109375 59.671875 -7.859375 C 53.328125 -2.617188 44.546875 0 33.328125 0 L 24.203125 0 C 20.171875 0 17.421875 0.601562 15.953125 1.8125 C 14.484375 3.019531 13.75 4.648438 13.75 6.703125 C 13.75 8.535156 14.519531 10.09375 16.0625 11.375 C 17.601562 12.664062 20.390625 13.3125 24.421875 13.3125 L 67.984375 13.3125 L 67.984375 21.671875 Z M 23.09375 -37.734375 C 20.75 -37.734375 18.566406 -37.015625 16.546875 -35.578125 C 14.535156 -34.148438 12.6875 -31.894531 11 -28.8125 C 11.875 -25.070312 13.484375 -22.378906 15.828125 -20.734375 C 18.179688 -19.085938 20.421875 -18.265625 22.546875 -18.265625 C 25.628906 -18.265625 27.976562 -19.144531 29.59375 -20.90625 C 31.207031 -22.664062 32.015625 -25.007812 32.015625 -27.9375 C 32.015625 -30.726562 31.207031 -33.054688 29.59375 -34.921875 C 27.976562 -36.796875 25.8125 -37.734375 23.09375 -37.734375 Z M 117.921875 0.65625 C 112.929688 0.65625 108.988281 0.21875 106.09375 -0.65625 C 103.195312 -1.539062 101.125 -2.625 99.875 -3.90625 C 98.632812 -5.1875 98.015625 -6.34375 98.015625 -7.375 C 98.015625 -7.8125 98.066406 -8.304688 98.171875 -8.859375 C 98.285156 -9.410156 98.414062 -9.832031 98.5625 -10.125 C 101.351562 -8.875 104.160156 -7.863281 106.984375 -7.09375 C 109.804688 -6.320312 113.234375 -5.9375 117.265625 -5.9375 C 124.671875 -5.9375 130.222656 -8.097656 133.921875 -12.421875 C 137.628906 -16.753906 139.484375 -23.867188 139.484375 -33.765625 C 139.484375 -40.078125 138.546875 -45.191406 136.671875 -49.109375 C 134.804688 -53.035156 131.632812 -55 127.15625 -55 C 124.15625 -55 121.515625 -53.863281 119.234375 -51.59375 C 116.960938 -49.320312 115.828125 -45.691406 115.828125 -40.703125 L 115.828125 -25.625 L 105.375 -25.625 L 105.375 -40.265625 C 105.375 -45.242188 104.457031 -48.941406 102.625 -51.359375 C 100.789062 -53.785156 98.15625 -55 94.71875 -55 C 91.195312 -55 88.40625 -53.75 86.34375 -51.25 C 84.289062 -48.757812 83.265625 -45.789062 83.265625 -42.34375 C 83.265625 -38.976562 83.796875 -36.046875 84.859375 -33.546875 C 85.929688 -31.054688 87.601562 -28.5625 89.875 -26.0625 C 89.363281 -25.695312 88.847656 -25.441406 88.328125 -25.296875 C 87.816406 -25.148438 87.304688 -25.078125 86.796875 -25.078125 C 85.253906 -25.078125 83.726562 -25.789062 82.21875 -27.21875 C 80.71875 -28.65625 79.472656 -30.691406 78.484375 -33.328125 C 77.492188 -35.972656 77 -39.09375 77 -42.6875 C 77 -46.195312 77.785156 -49.382812 79.359375 -52.25 C 80.941406 -55.113281 83.160156 -57.382812 86.015625 -59.0625 C 88.878906 -60.75 92.21875 -61.59375 96.03125 -61.59375 C 99.476562 -61.59375 102.628906 -60.769531 105.484375 -59.125 C 108.347656 -57.476562 110.585938 -55.148438 112.203125 -52.140625 C 114.398438 -55.515625 116.910156 -57.929688 119.734375 -59.390625 C 122.554688 -60.859375 125.582031 -61.59375 128.8125 -61.59375 C 133.875 -61.59375 137.960938 -60.382812 141.078125 -57.96875 C 144.191406 -55.550781 146.484375 -52.234375 147.953125 -48.015625 C 149.421875 -43.796875 150.15625 -38.9375 150.15625 -33.4375 C 150.15625 -26.613281 149.109375 -20.65625 147.015625 -15.5625 C 144.921875 -10.46875 141.523438 -6.488281 136.828125 -3.625 C 132.140625 -0.769531 125.835938 0.65625 117.921875 0.65625 Z M 117.921875 0.65625 "/>
</symbol>
<symbol overflow="visible" id="id0:glyph0-2">
<path style="stroke:none;" d="M -30.25 -83.484375 C -31.863281 -83.484375 -33.179688 -83.992188 -34.203125 -85.015625 C -35.234375 -86.046875 -35.75 -87.40625 -35.75 -89.09375 C -35.75 -90.632812 -35.234375 -91.9375 -34.203125 -93 C -33.179688 -94.0625 -31.863281 -94.59375 -30.25 -94.59375 C -28.632812 -94.59375 -27.296875 -94.0625 -26.234375 -93 C -25.171875 -91.9375 -24.640625 -90.632812 -24.640625 -89.09375 C -24.640625 -87.40625 -25.171875 -86.046875 -26.234375 -85.015625 C -27.296875 -83.992188 -28.632812 -83.484375 -30.25 -83.484375 Z M -29.59375 -71.9375 C -35.09375 -71.9375 -39.363281 -72.613281 -42.40625 -73.96875 C -45.445312 -75.332031 -47.550781 -77.039062 -48.71875 -79.09375 C -49.894531 -81.144531 -50.484375 -83.234375 -50.484375 -85.359375 C -50.484375 -87.921875 -49.769531 -89.898438 -48.34375 -91.296875 C -46.914062 -92.691406 -45.320312 -93.390625 -43.5625 -93.390625 C -42.820312 -93.390625 -42.050781 -93.242188 -41.25 -92.953125 C -41.757812 -91.484375 -42.015625 -89.976562 -42.015625 -88.4375 C -42.015625 -85.207031 -41.003906 -82.710938 -38.984375 -80.953125 C -36.972656 -79.191406 -33.878906 -78.3125 -29.703125 -78.3125 C -25.960938 -78.3125 -23.007812 -79.097656 -20.84375 -80.671875 C -18.675781 -82.253906 -17.59375 -84.695312 -17.59375 -88 C -17.59375 -89.832031 -17.960938 -91.484375 -18.703125 -92.953125 C -18.035156 -93.171875 -17.335938 -93.28125 -16.609375 -93.28125 C -14.703125 -93.28125 -13.289062 -92.523438 -12.375 -91.015625 C -11.457031 -89.515625 -11 -87.847656 -11 -86.015625 C -11 -81.984375 -12.59375 -78.628906 -15.78125 -75.953125 C -18.96875 -73.273438 -23.570312 -71.9375 -29.59375 -71.9375 Z M -29.59375 -71.9375 "/>
</symbol>
</g>
<g>
<symbol overflow="visible" id="id1:glyph0-0">
<path style="stroke:none;" d="M 5.375 -96.6875 L 69.828125 -96.6875 L 69.828125 0 L 5.375 0 Z M 8.0625 -2.6875 L 67.140625 -2.6875 L 67.140625 -94 L 8.0625 -94 Z M 8.0625 -2.6875 "/>
</symbol>
<symbol overflow="visible" id="id1:glyph0-1">
<path style="stroke:none;" d="M 68.15625 -13.75 L 66.28125 -18.640625 L 88.09375 -27.390625 L 6.984375 -27.390625 L 6.984375 -34 L 88.09375 -34 L 66.28125 -42.75 L 68.15625 -47.640625 L 99.09375 -34.265625 L 99.09375 -27.125 Z M 68.15625 -13.75 "/>
</symbol>
</g>
<g>
<symbol overflow="visible" id="id2:glyph0-0">
<path style="stroke:none;" d="M 10.34375 0 L 10.34375 -78.546875 L 55.546875 -78.546875 L 55.546875 0 Z M 15.953125 -5.609375 L 49.9375 -5.609375 L 49.9375 -72.9375 L 15.953125 -72.9375 Z M 15.953125 -5.609375 "/>
</symbol>
<symbol overflow="visible" id="id2:glyph0-1">
<path style="stroke:none;" d="M 25.40625 21.671875 C 18.738281 21.671875 13.789062 20.421875 10.5625 17.921875 C 7.332031 15.429688 5.71875 11.988281 5.71875 7.59375 C 5.71875 3.039062 7.332031 -0.347656 10.5625 -2.578125 C 13.789062 -4.816406 18.082031 -5.9375 23.4375 -5.9375 L 30.359375 -5.9375 C 36.003906 -5.9375 40.914062 -6.757812 45.09375 -8.40625 C 49.28125 -10.0625 52.507812 -12.757812 54.78125 -16.5 C 57.050781 -20.238281 58.1875 -25.148438 58.1875 -31.234375 C 58.1875 -38.785156 56.003906 -44.632812 51.640625 -48.78125 C 47.273438 -52.925781 41.613281 -55 34.65625 -55 C 27.394531 -55 21.726562 -53.238281 17.65625 -49.71875 C 13.582031 -46.195312 11.253906 -41.6875 10.671875 -36.1875 C 12.503906 -38.53125 14.664062 -40.4375 17.15625 -41.90625 C 19.65625 -43.375 22.332031 -44.109375 25.1875 -44.109375 C 28.925781 -44.109375 32.023438 -43.351562 34.484375 -41.84375 C 36.941406 -40.34375 38.773438 -38.382812 39.984375 -35.96875 C 41.191406 -33.550781 41.796875 -30.910156 41.796875 -28.046875 C 41.796875 -22.910156 40.144531 -18.929688 36.84375 -16.109375 C 33.550781 -13.285156 29.082031 -11.875 23.4375 -11.875 C 20.28125 -11.875 17.289062 -12.644531 14.46875 -14.1875 C 11.644531 -15.726562 9.332031 -18.070312 7.53125 -21.21875 C 5.738281 -24.375 4.84375 -28.375 4.84375 -33.21875 C 4.84375 -38.9375 6.160156 -43.921875 8.796875 -48.171875 C 11.441406 -52.429688 15.109375 -55.734375 19.796875 -58.078125 C 24.492188 -60.421875 29.882812 -61.59375 35.96875 -61.59375 C 42.789062 -61.59375 48.691406 -60.289062 53.671875 -57.6875 C 58.660156 -55.09375 62.492188 -51.539062 65.171875 -47.03125 C 67.847656 -42.519531 69.1875 -37.40625 69.1875 -31.6875 C 69.1875 -21.050781 66.015625 -13.109375 59.671875 -7.859375 C 53.328125 -2.617188 44.546875 0 33.328125 0 L 24.203125 0 C 20.171875 0 17.421875 0.601562 15.953125 1.8125 C 14.484375 3.019531 13.75 4.648438 13.75 6.703125 C 13.75 8.535156 14.519531 10.09375 16.0625 11.375 C 17.601562 12.664062 20.390625 13.3125 24.421875 13.3125 L 67.984375 13.3125 L 67.984375 21.671875 Z M 23.09375 -37.734375 C 20.75 -37.734375 18.566406 -37.015625 16.546875 -35.578125 C 14.535156 -34.148438 12.6875 -31.894531 11 -28.8125 C 11.875 -25.070312 13.484375 -22.378906 15.828125 -20.734375 C 18.179688 -19.085938 20.421875 -18.265625 22.546875 -18.265625 C 25.628906 -18.265625 27.976562 -19.144531 29.59375 -20.90625 C 31.207031 -22.664062 32.015625 -25.007812 32.015625 -27.9375 C 32.015625 -30.726562 31.207031 -33.054688 29.59375 -34.921875 C 27.976562 -36.796875 25.8125 -37.734375 23.09375 -37.734375 Z M 117.921875 0.65625 C 112.929688 0.65625 108.988281 0.21875 106.09375 -0.65625 C 103.195312 -1.539062 101.125 -2.625 99.875 -3.90625 C 98.632812 -5.1875 98.015625 -6.34375 98.015625 -7.375 C 98.015625 -7.8125 98.066406 -8.304688 98.171875 -8.859375 C 98.285156 -9.410156 98.414062 -9.832031 98.5625 -10.125 C 101.351562 -8.875 104.160156 -7.863281 106.984375 -7.09375 C 109.804688 -6.320312 113.234375 -5.9375 117.265625 -5.9375 C 124.671875 -5.9375 130.222656 -8.097656 133.921875 -12.421875 C 137.628906 -16.753906 139.484375 -23.867188 139.484375 -33.765625 C 139.484375 -40.078125 138.546875 -45.191406 136.671875 -49.109375 C 134.804688 -53.035156 131.632812 -55 127.15625 -55 C 124.15625 -55 121.515625 -53.863281 119.234375 -51.59375 C 116.960938 -49.320312 115.828125 -45.691406 115.828125 -40.703125 L 115.828125 -25.625 L 105.375 -25.625 L 105.375 -40.265625 C 105.375 -45.242188 104.457031 -48.941406 102.625 -51.359375 C 100.789062 -53.785156 98.15625 -55 94.71875 -55 C 91.195312 -55 88.40625 -53.75 86.34375 -51.25 C 84.289062 -48.757812 83.265625 -45.789062 83.265625 -42.34375 C 83.265625 -38.976562 83.796875 -36.046875 84.859375 -33.546875 C 85.929688 -31.054688 87.601562 -28.5625 89.875 -26.0625 C 89.363281 -25.695312 88.847656 -25.441406 88.328125 -25.296875 C 87.816406 -25.148438 87.304688 -25.078125 86.796875 -25.078125 C 85.253906 -25.078125 83.726562 -25.789062 82.21875 -27.21875 C 80.71875 -28.65625 79.472656 -30.691406 78.484375 -33.328125 C 77.492188 -35.972656 77 -39.09375 77 -42.6875 C 77 -46.195312 77.785156 -49.382812 79.359375 -52.25 C 80.941406 -55.113281 83.160156 -57.382812 86.015625 -59.0625 C 88.878906 -60.75 92.21875 -61.59375 96.03125 -61.59375 C 99.476562 -61.59375 102.628906 -60.769531 105.484375 -59.125 C 108.347656 -57.476562 110.585938 -55.148438 112.203125 -52.140625 C 114.398438 -55.515625 116.910156 -57.929688 119.734375 -59.390625 C 122.554688 -60.859375 125.582031 -61.59375 128.8125 -61.59375 C 133.875 -61.59375 137.960938 -60.382812 141.078125 -57.96875 C 144.191406 -55.550781 146.484375 -52.234375 147.953125 -48.015625 C 149.421875 -43.796875 150.15625 -38.9375 150.15625 -33.4375 C 150.15625 -26.613281 149.109375 -20.65625 147.015625 -15.5625 C 144.921875 -10.46875 141.523438 -6.488281 136.828125 -3.625 C 132.140625 -0.769531 125.835938 0.65625 117.921875 0.65625 Z M 117.921875 0.65625 "/>
</symbol>
<symbol overflow="visible" id="id2:glyph0-2">
<path style="stroke:none;" d="M -30.25 -83.484375 C -31.863281 -83.484375 -33.179688 -83.992188 -34.203125 -85.015625 C -35.234375 -86.046875 -35.75 -87.40625 -35.75 -89.09375 C -35.75 -90.632812 -35.234375 -91.9375 -34.203125 -93 C -33.179688 -94.0625 -31.863281 -94.59375 -30.25 -94.59375 C -28.632812 -94.59375 -27.296875 -94.0625 -26.234375 -93 C -25.171875 -91.9375 -24.640625 -90.632812 -24.640625 -89.09375 C -24.640625 -87.40625 -25.171875 -86.046875 -26.234375 -85.015625 C -27.296875 -83.992188 -28.632812 -83.484375 -30.25 -83.484375 Z M -29.59375 -71.9375 C -35.09375 -71.9375 -39.363281 -72.613281 -42.40625 -73.96875 C -45.445312 -75.332031 -47.550781 -77.039062 -48.71875 -79.09375 C -49.894531 -81.144531 -50.484375 -83.234375 -50.484375 -85.359375 C -50.484375 -87.921875 -49.769531 -89.898438 -48.34375 -91.296875 C -46.914062 -92.691406 -45.320312 -93.390625 -43.5625 -93.390625 C -42.820312 -93.390625 -42.050781 -93.242188 -41.25 -92.953125 C -41.757812 -91.484375 -42.015625 -89.976562 -42.015625 -88.4375 C -42.015625 -85.207031 -41.003906 -82.710938 -38.984375 -80.953125 C -36.972656 -79.191406 -33.878906 -78.3125 -29.703125 -78.3125 C -25.960938 -78.3125 -23.007812 -79.097656 -20.84375 -80.671875 C -18.675781 -82.253906 -17.59375 -84.695312 -17.59375 -88 C -17.59375 -89.832031 -17.960938 -91.484375 -18.703125 -92.953125 C -18.035156 -93.171875 -17.335938 -93.28125 -16.609375 -93.28125 C -14.703125 -93.28125 -13.289062 -92.523438 -12.375 -91.015625 C -11.457031 -89.515625 -11 -87.847656 -11 -86.015625 C -11 -81.984375 -12.59375 -78.628906 -15.78125 -75.953125 C -18.96875 -73.273438 -23.570312 -71.9375 -29.59375 -71.9375 Z M -29.59375 -71.9375 "/>
</symbol>
</g>
</defs>
  <g id="id0:id0" transform="matrix(1.25,0,0,1.25,0.0,12.470703125)"><g id="id0:surface1">
<g style="fill:rgb(0%,0%,0%);fill-opacity:1;">
  <use xlink:href="#id0:glyph0-1" x="16" y="97.046875"/>
  <use xlink:href="#id0:glyph0-2" x="170.984375" y="97.046875"/>
</g>
</g>
</g>
  <g id="id1:id1" transform="matrix(1.25,0,0,1.25,253.73046875,0.0)"><g id="id1:surface1">
<g style="fill:rgb(0%,0%,0%);fill-opacity:1;">
  <use xlink:href="#id1:glyph0-1" x="0" y="120.84375"/>
</g>
</g>
</g>
  <g id="id2:id2" transform="matrix(1.25,0,0,1.25,386.328125,12.470703125)"><g id="id2:surface1">
<g style="fill:rgb(0%,0%,0%);fill-opacity:1;">
  <use xlink:href="#id2:glyph0-1" x="16" y="97.046875"/>
  <use xlink:href="#id2:glyph0-2" x="124.34375" y="73.5"/>
</g>
</g>
</g>
</svg>
