<!DOCTYPE svg PUBLIC "-//W3C//DTD SVG 1.1//EN" "http://www.w3.org/Graphics/SVG/1.1/DTD/svg11.dtd">
<!-- Created with svg_stack (http://github.com/astraw/svg_stack) --><svg xmlns="http://www.w3.org/2000/svg" xmlns:sodipodi="http://sodipodi.sourceforge.net/DTD/sodipodi-0.dtd" xmlns:xlink="http://www.w3.org/1999/xlink" version="1.1" width="100%" id="malayalam-haln" viewBox="0 0 490.078125 201.40625">
  <defs><g>
<symbol overflow="visible" id="malayalam-haln:id0:glyph0-0">
<path style="stroke:none;" d="M 10.34375 0 L 10.34375 -78.546875 L 55.546875 -78.546875 L 55.546875 0 Z M 15.953125 -5.609375 L 49.9375 -5.609375 L 49.9375 -72.9375 L 15.953125 -72.9375 Z M 15.953125 -5.609375 "/>
</symbol>
<symbol overflow="visible" id="malayalam-haln:id0:glyph0-1">
<path style="stroke:none;" d="M 43.78125 -54.5625 C 36.082031 -54.5625 29.8125 -53.40625 24.96875 -51.09375 C 20.125 -48.78125 16.640625 -45.976562 14.515625 -42.6875 C 16.054688 -43.5625 17.707031 -44.289062 19.46875 -44.875 C 21.226562 -45.46875 23.132812 -45.765625 25.1875 -45.765625 C 29 -45.765625 32.113281 -45.007812 34.53125 -43.5 C 36.957031 -42 38.738281 -40.035156 39.875 -37.609375 C 41.007812 -35.191406 41.578125 -32.554688 41.578125 -29.703125 C 41.578125 -26.765625 40.914062 -23.992188 39.59375 -21.390625 C 38.28125 -18.785156 36.265625 -16.675781 33.546875 -15.0625 C 30.835938 -13.457031 27.351562 -12.65625 23.09375 -12.65625 C 17.445312 -12.65625 12.921875 -14.539062 9.515625 -18.3125 C 6.109375 -22.09375 4.40625 -27.46875 4.40625 -34.4375 C 4.40625 -39.78125 5.941406 -44.539062 9.015625 -48.71875 C 12.097656 -52.90625 16.570312 -56.207031 22.4375 -58.625 C 28.300781 -61.050781 35.453125 -62.265625 43.890625 -62.265625 C 54.304688 -62.265625 61.929688 -60.738281 66.765625 -57.6875 C 71.609375 -54.644531 74.03125 -50.15625 74.03125 -44.21875 C 74.03125 -41.132812 73.257812 -38.421875 71.71875 -36.078125 C 70.175781 -33.734375 67.679688 -31.863281 64.234375 -30.46875 C 68.046875 -29.21875 70.847656 -27.289062 72.640625 -24.6875 C 74.441406 -22.09375 75.34375 -19.144531 75.34375 -15.84375 C 75.34375 -11.144531 73.734375 -7.40625 70.515625 -4.625 C 68.753906 -3.082031 66.535156 -1.925781 63.859375 -1.15625 C 61.179688 -0.382812 57.238281 0 52.03125 0 L 28.703125 0 C 25.703125 0 23.429688 0.109375 21.890625 0.328125 C 20.347656 0.546875 19.140625 0.914062 18.265625 1.4375 C 17.085938 1.945312 16.238281 2.675781 15.71875 3.625 C 15.207031 4.582031 14.953125 5.644531 14.953125 6.8125 C 14.953125 7.914062 15.132812 8.925781 15.5 9.84375 C 15.875 10.757812 16.535156 11.507812 17.484375 12.09375 C 18.441406 12.757812 19.742188 13.273438 21.390625 13.640625 C 23.046875 14.003906 25.410156 14.1875 28.484375 14.1875 L 73.375 14.1875 L 73.375 22.109375 L 28.046875 22.109375 C 24.234375 22.109375 21.003906 21.8125 18.359375 21.21875 C 15.722656 20.632812 13.488281 19.796875 11.65625 18.703125 C 7.550781 16.128906 5.5 12.390625 5.5 7.484375 C 5.5 4.910156 5.957031 2.613281 6.875 0.59375 C 7.789062 -1.414062 9.273438 -3.082031 11.328125 -4.40625 C 12.867188 -5.425781 14.773438 -6.226562 17.046875 -6.8125 C 19.316406 -7.40625 22.363281 -7.703125 26.1875 -7.703125 L 51.15625 -7.703125 C 54.15625 -7.703125 56.625 -7.882812 58.5625 -8.25 C 60.507812 -8.613281 62.035156 -9.273438 63.140625 -10.234375 C 64.015625 -10.960938 64.671875 -11.859375 65.109375 -12.921875 C 65.554688 -13.984375 65.78125 -15.320312 65.78125 -16.9375 C 65.78125 -19.875 64.570312 -22.222656 62.15625 -23.984375 C 61.050781 -24.710938 59.671875 -25.296875 58.015625 -25.734375 C 56.367188 -26.179688 54.117188 -26.40625 51.265625 -26.40625 L 49.171875 -26.40625 L 49.171875 -34.09375 L 49.9375 -34.09375 C 52.507812 -34.09375 54.671875 -34.238281 56.421875 -34.53125 C 58.179688 -34.832031 59.6875 -35.457031 60.9375 -36.40625 C 62.257812 -37.4375 63.175781 -38.5 63.6875 -39.59375 C 64.195312 -40.695312 64.453125 -42.019531 64.453125 -43.5625 C 64.453125 -46.9375 62.894531 -49.613281 59.78125 -51.59375 C 56.664062 -53.570312 51.332031 -54.5625 43.78125 -54.5625 Z M 23.546875 -38.5 C 21.191406 -38.5 19.148438 -38.003906 17.421875 -37.015625 C 15.703125 -36.023438 14.1875 -34.867188 12.875 -33.546875 C 12.945312 -29.222656 13.804688 -25.90625 15.453125 -23.59375 C 17.109375 -21.28125 19.617188 -20.125 22.984375 -20.125 C 26.285156 -20.125 28.6875 -21.078125 30.1875 -22.984375 C 31.695312 -24.890625 32.453125 -27.128906 32.453125 -29.703125 C 32.453125 -32.117188 31.769531 -34.1875 30.40625 -35.90625 C 29.050781 -37.632812 26.765625 -38.5 23.546875 -38.5 Z M 23.546875 -38.5 "/>
</symbol>
<symbol overflow="visible" id="malayalam-haln:id0:glyph0-2">
<path style="stroke:none;" d="M -12.203125 -65.015625 C -18.585938 -65.015625 -23.503906 -66.644531 -26.953125 -69.90625 C -30.398438 -73.164062 -32.125 -77.4375 -32.125 -82.71875 C -32.125 -84.039062 -32.007812 -85.359375 -31.78125 -86.671875 C -31.5625 -87.992188 -31.304688 -89.097656 -31.015625 -89.984375 L -22.875 -88.4375 C -23.09375 -87.707031 -23.257812 -86.847656 -23.375 -85.859375 C -23.488281 -84.867188 -23.546875 -83.929688 -23.546875 -83.046875 C -23.546875 -79.160156 -22.441406 -76.425781 -20.234375 -74.84375 C -18.035156 -73.269531 -15.359375 -72.484375 -12.203125 -72.484375 C -8.984375 -72.484375 -6.289062 -73.269531 -4.125 -74.84375 C -1.957031 -76.425781 -0.875 -79.160156 -0.875 -83.046875 C -0.875 -83.929688 -0.925781 -84.867188 -1.03125 -85.859375 C -1.144531 -86.847656 -1.316406 -87.707031 -1.546875 -88.4375 L 6.59375 -89.984375 C 6.894531 -89.097656 7.15625 -87.992188 7.375 -86.671875 C 7.59375 -85.359375 7.703125 -84.039062 7.703125 -82.71875 C 7.703125 -77.4375 5.976562 -73.164062 2.53125 -69.90625 C -0.914062 -66.644531 -5.828125 -65.015625 -12.203125 -65.015625 Z M -12.203125 -65.015625 "/>
</symbol>
<symbol overflow="visible" id="malayalam-haln:id0:glyph0-3">
<path style="stroke:none;" d=""/>
</symbol>
<symbol overflow="visible" id="malayalam-haln:id0:glyph0-4">
<path style="stroke:none;" d="M -3.1875 26.84375 L -3.1875 -62.15625 L -13.3125 -52.140625 L -17.703125 -56.546875 L -4.40625 -69.40625 L -17.703125 -82.28125 L -13.3125 -86.6875 L 0 -73.59375 L 13.3125 -86.6875 L 17.703125 -82.28125 L 4.40625 -69.40625 L 17.703125 -56.546875 L 13.3125 -52.140625 L 3.1875 -62.15625 L 3.1875 26.84375 Z M -3.1875 26.84375 "/>
</symbol>
</g>
<g>
<symbol overflow="visible" id="malayalam-haln:id1:glyph0-0">
<path style="stroke:none;" d="M 5.375 -96.6875 L 69.828125 -96.6875 L 69.828125 0 L 5.375 0 Z M 8.0625 -2.6875 L 67.140625 -2.6875 L 67.140625 -94 L 8.0625 -94 Z M 8.0625 -2.6875 "/>
</symbol>
<symbol overflow="visible" id="malayalam-haln:id1:glyph0-1">
<path style="stroke:none;" d="M 68.15625 -13.75 L 66.28125 -18.640625 L 88.09375 -27.390625 L 6.984375 -27.390625 L 6.984375 -34 L 88.09375 -34 L 66.28125 -42.75 L 68.15625 -47.640625 L 99.09375 -34.265625 L 99.09375 -27.125 Z M 68.15625 -13.75 "/>
</symbol>
</g>
<g>
<symbol overflow="visible" id="malayalam-haln:id2:glyph0-0">
<path style="stroke:none;" d="M 10.34375 0 L 10.34375 -78.546875 L 55.546875 -78.546875 L 55.546875 0 Z M 15.953125 -5.609375 L 49.9375 -5.609375 L 49.9375 -72.9375 L 15.953125 -72.9375 Z M 15.953125 -5.609375 "/>
</symbol>
<symbol overflow="visible" id="malayalam-haln:id2:glyph0-1">
<path style="stroke:none;" d="M 86.125 -87.125 C 90.53125 -87.125 93.941406 -86.332031 96.359375 -84.75 C 98.773438 -83.175781 100.457031 -81.328125 101.40625 -79.203125 C 102.363281 -77.078125 102.84375 -75.171875 102.84375 -73.484375 C 102.84375 -70.109375 102.070312 -67.0625 100.53125 -64.34375 C 99 -61.632812 96.875 -58.921875 94.15625 -56.203125 C 99.507812 -52.535156 103.578125 -47.84375 106.359375 -42.125 C 109.148438 -36.40625 110.546875 -30.429688 110.546875 -24.203125 C 110.546875 -16.273438 108.65625 -10.039062 104.875 -5.5 C 101.101562 -0.957031 95.625 1.3125 88.4375 1.3125 C 81.394531 1.3125 75.984375 -0.863281 72.203125 -5.21875 C 68.429688 -9.582031 66.546875 -15.800781 66.546875 -23.875 C 66.546875 -29.882812 67.863281 -35.328125 70.5 -40.203125 C 73.144531 -45.078125 76.59375 -49.609375 80.84375 -53.796875 C 78.9375 -54.234375 76.992188 -54.453125 75.015625 -54.453125 C 72.304688 -54.453125 69.757812 -54.101562 67.375 -53.40625 C 64.988281 -52.707031 63.023438 -51.734375 61.484375 -50.484375 C 58.847656 -48.429688 56.960938 -45.585938 55.828125 -41.953125 C 54.691406 -38.328125 54.125 -33.988281 54.125 -28.9375 L 54.125 -27.0625 C 54.125 -21.707031 53.679688 -17.394531 52.796875 -14.125 C 51.921875 -10.863281 50.421875 -8.023438 48.296875 -5.609375 C 46.390625 -3.410156 44.003906 -1.707031 41.140625 -0.5 C 38.273438 0.707031 34.753906 1.3125 30.578125 1.3125 C 22.515625 1.3125 16.117188 -1.34375 11.390625 -6.65625 C 6.660156 -11.96875 4.296875 -19.394531 4.296875 -28.9375 C 4.296875 -36.34375 5.742188 -42.664062 8.640625 -47.90625 C 11.535156 -53.144531 15.769531 -57.929688 21.34375 -62.265625 L 27.28125 -55.4375 C 23.394531 -52.726562 20.203125 -49.242188 17.703125 -44.984375 C 15.210938 -40.734375 13.96875 -35.457031 13.96875 -29.15625 C 13.96875 -22.332031 15.429688 -16.863281 18.359375 -12.75 C 21.296875 -8.644531 25.222656 -6.59375 30.140625 -6.59375 C 33.222656 -6.59375 35.625 -7.050781 37.34375 -7.96875 C 39.070312 -8.882812 40.445312 -10.113281 41.46875 -11.65625 C 42.71875 -13.5625 43.523438 -16.164062 43.890625 -19.46875 C 44.253906 -22.769531 44.4375 -26 44.4375 -29.15625 L 44.4375 -30.796875 C 44.4375 -37.179688 45.242188 -42.316406 46.859375 -46.203125 C 48.472656 -50.085938 50.75 -53.273438 53.6875 -55.765625 C 56.46875 -58.117188 59.582031 -59.789062 63.03125 -60.78125 C 66.476562 -61.769531 70.289062 -62.265625 74.46875 -62.265625 C 76.738281 -62.265625 78.921875 -62.0625 81.015625 -61.65625 C 83.109375 -61.25 85.109375 -60.679688 87.015625 -59.953125 C 88.773438 -61.710938 90.257812 -63.523438 91.46875 -65.390625 C 92.675781 -67.265625 93.28125 -69.335938 93.28125 -71.609375 C 93.28125 -73.585938 92.640625 -75.347656 91.359375 -76.890625 C 90.078125 -78.429688 87.859375 -79.203125 84.703125 -79.203125 C 83.085938 -79.203125 81.546875 -79.09375 80.078125 -78.875 C 78.609375 -78.65625 77.398438 -78.359375 76.453125 -77.984375 L 74.359375 -85.578125 C 75.609375 -85.941406 77.296875 -86.289062 79.421875 -86.625 C 81.546875 -86.957031 83.78125 -87.125 86.125 -87.125 Z M 76.234375 -23.65625 C 76.234375 -19.175781 76.800781 -15.6875 77.9375 -13.1875 C 79.070312 -10.695312 80.570312 -8.9375 82.4375 -7.90625 C 84.3125 -6.882812 86.3125 -6.375 88.4375 -6.375 C 96.65625 -6.375 100.765625 -12.132812 100.765625 -23.65625 C 100.765625 -28.707031 99.753906 -33.617188 97.734375 -38.390625 C 95.710938 -43.160156 92.648438 -47.046875 88.546875 -50.046875 C 84.296875 -46.234375 81.179688 -42.070312 79.203125 -37.5625 C 77.222656 -33.050781 76.234375 -28.414062 76.234375 -23.65625 Z M 76.234375 -23.65625 "/>
</symbol>
</g>
</defs>
  <g id="malayalam-haln:id0:id0" transform="matrix(1.25,0,0,1.25,0.0,12.470703125)"><g id="malayalam-haln:id0:surface1">
<g style="fill:rgb(0%,0%,0%);fill-opacity:1;">
  <use xlink:href="#malayalam-haln:id0:glyph0-1" x="16" y="97.046875" class="c0"/>
  <use xlink:href="#malayalam-haln:id0:glyph0-2" x="95.640625" y="97.046875" class="c1"/>
  <use xlink:href="#malayalam-haln:id0:glyph0-3" x="95.640625" y="97.046875" class="c2"/>
  <use xlink:href="#malayalam-haln:id0:glyph0-4" x="123.140625" y="97.046875" class="z"/>
</g>
</g>
</g>
  <g id="malayalam-haln:id1:id1" transform="matrix(1.25,0,0,1.25,173.92578125,0.0)"><g id="malayalam-haln:id1:surface1">
<g style="fill:rgb(0%,0%,0%);fill-opacity:1;">
  <use xlink:href="#malayalam-haln:id1:glyph0-1" x="0" y="120.84375" class="arrow"/>
</g>
</g>
</g>
  <g id="malayalam-haln:id2:id2" transform="matrix(1.25,0,0,1.25,306.5234375,12.470703125)"><g id="malayalam-haln:id2:surface1">
<g style="fill:rgb(0%,0%,0%);fill-opacity:1;">
  <use xlink:href="#malayalam-haln:id2:glyph0-1" x="16" y="97.046875" class="c0"/>
</g>
</g>
</g>
</svg>