<!DOCTYPE svg PUBLIC "-//W3C//DTD SVG 1.1//EN" "http://www.w3.org/Graphics/SVG/1.1/DTD/svg11.dtd">
<!-- Created with svg_stack (http://github.com/astraw/svg_stack) --><svg xmlns="http://www.w3.org/2000/svg" xmlns:sodipodi="http://sodipodi.sourceforge.net/DTD/sodipodi-0.dtd" xmlns:xlink="http://www.w3.org/1999/xlink" version="1.1" width="1408.1640625" height="201.40625" id="malayalam-matra-position">
  <defs><g>
<symbol overflow="visible" id="malayalam-matra-position:id0:glyph0-0">
<path style="stroke:none;" d="M 10.34375 0 L 10.34375 -78.546875 L 55.546875 -78.546875 L 55.546875 0 Z M 15.953125 -5.609375 L 49.9375 -5.609375 L 49.9375 -72.9375 L 15.953125 -72.9375 Z M 15.953125 -5.609375 "/>
</symbol>
<symbol overflow="visible" id="malayalam-matra-position:id0:glyph0-1">
<path style="stroke:none;" d="M 37.1875 0.65625 C 31.601562 0.65625 26.757812 -0.222656 22.65625 -1.984375 C 18.550781 -3.742188 15.160156 -6.109375 12.484375 -9.078125 C 9.804688 -12.046875 7.804688 -15.363281 6.484375 -19.03125 C 5.171875 -22.695312 4.515625 -26.472656 4.515625 -30.359375 C 4.515625 -34.242188 5.15625 -38.035156 6.4375 -41.734375 C 7.71875 -45.441406 9.660156 -48.796875 12.265625 -51.796875 C 14.867188 -54.804688 18.1875 -57.191406 22.21875 -58.953125 C 26.25 -60.710938 30.976562 -61.59375 36.40625 -61.59375 C 41.539062 -61.59375 45.703125 -60.769531 48.890625 -59.125 C 52.085938 -57.476562 54.453125 -55.40625 55.984375 -52.90625 C 57.523438 -50.414062 58.296875 -47.847656 58.296875 -45.203125 C 58.296875 -41.910156 57.160156 -38.960938 54.890625 -36.359375 C 52.617188 -33.753906 49.316406 -32.453125 44.984375 -32.453125 C 40.878906 -32.453125 37.707031 -33.625 35.46875 -35.96875 C 33.238281 -38.3125 32.125 -41.023438 32.125 -44.109375 C 32.125 -46.085938 32.765625 -48.140625 34.046875 -50.265625 C 35.328125 -52.390625 37.210938 -54.113281 39.703125 -55.4375 C 39.410156 -55.4375 39.117188 -55.4375 38.828125 -55.4375 C 33.035156 -55.4375 28.378906 -54.226562 24.859375 -51.8125 C 21.335938 -49.394531 18.804688 -46.257812 17.265625 -42.40625 C 15.722656 -38.550781 14.953125 -34.535156 14.953125 -30.359375 C 14.953125 -27.273438 15.351562 -24.25 16.15625 -21.28125 C 16.96875 -18.3125 18.289062 -15.65625 20.125 -13.3125 C 21.957031 -10.96875 24.394531 -9.078125 27.4375 -7.640625 C 30.488281 -6.210938 34.25 -5.5 38.71875 -5.5 C 39.007812 -5.5 39.265625 -5.5 39.484375 -5.5 C 37.066406 -6.75 35.234375 -8.4375 33.984375 -10.5625 C 32.742188 -12.6875 32.125 -14.738281 32.125 -16.71875 C 32.125 -19.800781 33.238281 -22.492188 35.46875 -24.796875 C 37.707031 -27.109375 40.878906 -28.265625 44.984375 -28.265625 C 49.316406 -28.265625 52.617188 -26.976562 54.890625 -24.40625 C 57.160156 -21.84375 58.296875 -18.953125 58.296875 -15.734375 C 58.296875 -13.160156 57.582031 -10.609375 56.15625 -8.078125 C 54.726562 -5.554688 52.453125 -3.46875 49.328125 -1.8125 C 46.210938 -0.164062 42.164062 0.65625 37.1875 0.65625 Z M 38.609375 -45.203125 C 38.609375 -43.367188 39.191406 -41.773438 40.359375 -40.421875 C 41.535156 -39.066406 43.148438 -38.390625 45.203125 -38.390625 C 47.265625 -38.390625 48.863281 -39.066406 50 -40.421875 C 51.132812 -41.773438 51.703125 -43.367188 51.703125 -45.203125 C 51.703125 -47.265625 51.09375 -49.097656 49.875 -50.703125 C 48.664062 -52.316406 47.035156 -53.53125 44.984375 -54.34375 C 42.640625 -53.019531 40.988281 -51.53125 40.03125 -49.875 C 39.082031 -48.226562 38.609375 -46.671875 38.609375 -45.203125 Z M 38.609375 -15.625 C 38.609375 -11.882812 40.695312 -8.835938 44.875 -6.484375 C 47.15625 -7.296875 48.863281 -8.523438 50 -10.171875 C 51.132812 -11.828125 51.703125 -13.644531 51.703125 -15.625 C 51.703125 -17.382812 51.132812 -18.957031 50 -20.34375 C 48.863281 -21.738281 47.265625 -22.4375 45.203125 -22.4375 C 43.148438 -22.4375 41.535156 -21.757812 40.359375 -20.40625 C 39.191406 -19.050781 38.609375 -17.457031 38.609375 -15.625 Z M 38.609375 -15.625 "/>
</symbol>
<symbol overflow="visible" id="malayalam-matra-position:id0:glyph0-2">
<path style="stroke:none;" d="M 30.90625 -46.640625 C 28.5625 -46.640625 27.390625 -47.8125 27.390625 -50.15625 C 27.390625 -52.425781 28.5625 -53.5625 30.90625 -53.5625 C 33.175781 -53.5625 34.3125 -52.425781 34.3125 -50.15625 C 34.3125 -47.8125 33.175781 -46.640625 30.90625 -46.640625 Z M 15.1875 -40.59375 C 12.832031 -40.59375 11.65625 -41.765625 11.65625 -44.109375 C 11.65625 -46.378906 12.832031 -47.515625 15.1875 -47.515625 C 17.457031 -47.515625 18.59375 -46.378906 18.59375 -44.109375 C 18.59375 -41.765625 17.457031 -40.59375 15.1875 -40.59375 Z M 46.53125 -40.59375 C 44.1875 -40.59375 43.015625 -41.765625 43.015625 -44.109375 C 43.015625 -46.378906 44.1875 -47.515625 46.53125 -47.515625 C 48.875 -47.515625 50.046875 -46.378906 50.046875 -44.109375 C 50.046875 -41.765625 48.875 -40.59375 46.53125 -40.59375 Z M 9.796875 -25.40625 C 7.441406 -25.40625 6.265625 -26.617188 6.265625 -29.046875 C 6.265625 -31.316406 7.441406 -32.453125 9.796875 -32.453125 C 12.140625 -32.453125 13.3125 -31.316406 13.3125 -29.046875 C 13.3125 -26.617188 12.140625 -25.40625 9.796875 -25.40625 Z M 51.921875 -25.40625 C 49.648438 -25.40625 48.515625 -26.617188 48.515625 -29.046875 C 48.515625 -31.316406 49.648438 -32.453125 51.921875 -32.453125 C 54.265625 -32.453125 55.4375 -31.316406 55.4375 -29.046875 C 55.4375 -26.617188 54.265625 -25.40625 51.921875 -25.40625 Z M 15.1875 -10.453125 C 12.832031 -10.453125 11.65625 -11.625 11.65625 -13.96875 C 11.65625 -16.238281 12.832031 -17.375 15.1875 -17.375 C 17.457031 -17.375 18.59375 -16.238281 18.59375 -13.96875 C 18.59375 -11.625 17.457031 -10.453125 15.1875 -10.453125 Z M 46.53125 -10.453125 C 44.1875 -10.453125 43.015625 -11.625 43.015625 -13.96875 C 43.015625 -16.238281 44.1875 -17.375 46.53125 -17.375 C 48.875 -17.375 50.046875 -16.238281 50.046875 -13.96875 C 50.046875 -11.625 48.875 -10.453125 46.53125 -10.453125 Z M 30.90625 -4.40625 C 28.5625 -4.40625 27.390625 -5.578125 27.390625 -7.921875 C 27.390625 -10.265625 28.5625 -11.4375 30.90625 -11.4375 C 33.175781 -11.4375 34.3125 -10.265625 34.3125 -7.921875 C 34.3125 -5.578125 33.175781 -4.40625 30.90625 -4.40625 Z M 30.90625 -4.40625 "/>
</symbol>
<symbol overflow="visible" id="malayalam-matra-position:id0:glyph0-3">
<path style="stroke:none;" d="M 27.71875 0.65625 C 23.832031 0.65625 20.441406 -0.148438 17.546875 -1.765625 C 14.648438 -3.378906 12.25 -5.519531 10.34375 -8.1875 C 8.4375 -10.863281 7.003906 -13.890625 6.046875 -17.265625 C 5.097656 -20.640625 4.625 -24.085938 4.625 -27.609375 C 4.625 -33.253906 5.539062 -38.203125 7.375 -42.453125 C 9.207031 -46.710938 11.695312 -50.253906 14.84375 -53.078125 C 18 -55.898438 21.519531 -58.023438 25.40625 -59.453125 C 29.289062 -60.878906 33.328125 -61.59375 37.515625 -61.59375 C 42.347656 -61.59375 47.128906 -60.640625 51.859375 -58.734375 C 56.585938 -56.828125 60.53125 -53.601562 63.6875 -49.0625 C 66.40625 -54.050781 69.539062 -57.382812 73.09375 -59.0625 C 76.65625 -60.75 80.269531 -61.59375 83.9375 -61.59375 C 88.695312 -61.59375 93.054688 -60.398438 97.015625 -58.015625 C 100.972656 -55.640625 104.144531 -52.066406 106.53125 -47.296875 C 108.914062 -42.535156 110.109375 -36.632812 110.109375 -29.59375 C 110.109375 -24.894531 109.375 -20.53125 107.90625 -16.5 C 106.4375 -12.46875 104.492188 -8.945312 102.078125 -5.9375 L 129.140625 -5.9375 L 129.140625 -60.9375 L 139.703125 -60.9375 L 139.703125 0 L 91.953125 0 L 90.53125 -3.078125 C 93.09375 -6.304688 95.195312 -10.101562 96.84375 -14.46875 C 98.5 -18.832031 99.328125 -23.726562 99.328125 -29.15625 C 99.328125 -35.019531 98.554688 -39.859375 97.015625 -43.671875 C 95.472656 -47.484375 93.4375 -50.320312 90.90625 -52.1875 C 88.382812 -54.0625 85.617188 -55 82.609375 -55 C 78.140625 -55 74.601562 -53.457031 72 -50.375 C 69.394531 -47.300781 68.09375 -43.523438 68.09375 -39.046875 L 68.09375 0 L 57.640625 0 L 57.640625 -32.125 C 57.640625 -39.601562 55.660156 -45.285156 51.703125 -49.171875 C 47.742188 -53.054688 42.570312 -55 36.1875 -55 C 31.9375 -55 27.867188 -53.988281 23.984375 -51.96875 C 20.097656 -49.957031 16.90625 -46.914062 14.40625 -42.84375 C 11.914062 -38.769531 10.671875 -33.65625 10.671875 -27.5 C 10.671875 -26.539062 10.707031 -25.660156 10.78125 -24.859375 C 12.832031 -27.941406 15.34375 -30.472656 18.3125 -32.453125 C 21.28125 -34.429688 24.671875 -35.421875 28.484375 -35.421875 C 32.078125 -35.421875 35.210938 -34.628906 37.890625 -33.046875 C 40.566406 -31.472656 42.65625 -29.347656 44.15625 -26.671875 C 45.664062 -23.992188 46.421875 -20.929688 46.421875 -17.484375 C 46.421875 -12.285156 44.769531 -7.960938 41.46875 -4.515625 C 38.164062 -1.066406 33.582031 0.65625 27.71875 0.65625 Z M 25.84375 -28.703125 C 22.84375 -28.703125 20.164062 -27.691406 17.8125 -25.671875 C 15.46875 -23.660156 13.488281 -21.300781 11.875 -18.59375 C 13.195312 -14.257812 15.195312 -11.066406 17.875 -9.015625 C 20.550781 -6.960938 23.171875 -5.9375 25.734375 -5.9375 C 29.253906 -5.9375 31.910156 -7.054688 33.703125 -9.296875 C 35.503906 -11.535156 36.40625 -14.265625 36.40625 -17.484375 C 36.40625 -21.148438 35.378906 -23.9375 33.328125 -25.84375 C 31.273438 -27.75 28.78125 -28.703125 25.84375 -28.703125 Z M 25.84375 -28.703125 "/>
</symbol>
<symbol overflow="visible" id="malayalam-matra-position:id0:glyph0-4">
<path style="stroke:none;" d="M -10.234375 -66.546875 C -15.441406 -66.546875 -19.457031 -67.222656 -22.28125 -68.578125 C -25.101562 -69.941406 -27.0625 -71.648438 -28.15625 -73.703125 C -29.257812 -75.753906 -29.8125 -77.84375 -29.8125 -79.96875 C -29.8125 -82.53125 -28.945312 -84.507812 -27.21875 -85.90625 C -25.5 -87.300781 -23.613281 -88 -21.5625 -88 C -20.675781 -88 -19.832031 -87.851562 -19.03125 -87.5625 C -19.539062 -86.09375 -19.796875 -84.585938 -19.796875 -83.046875 C -19.796875 -79.816406 -18.878906 -77.320312 -17.046875 -75.5625 C -15.210938 -73.8125 -12.71875 -72.9375 -9.5625 -72.9375 C -6.488281 -72.9375 -4.050781 -73.722656 -2.25 -75.296875 C -0.457031 -76.867188 0.4375 -79.304688 0.4375 -82.609375 C 0.4375 -84.441406 0.0703125 -86.09375 -0.65625 -87.5625 C 0 -87.78125 0.695312 -87.890625 1.4375 -87.890625 C 3.34375 -87.890625 4.753906 -87.132812 5.671875 -85.625 C 6.585938 -84.125 7.046875 -82.457031 7.046875 -80.625 C 7.046875 -76.59375 5.578125 -73.238281 2.640625 -70.5625 C -0.296875 -67.882812 -4.585938 -66.546875 -10.234375 -66.546875 Z M -10.234375 -66.546875 "/>
</symbol>
<symbol overflow="visible" id="malayalam-matra-position:id0:glyph0-5">
<path style="stroke:none;" d="M 27.71875 0.65625 C 23.832031 0.65625 20.441406 -0.148438 17.546875 -1.765625 C 14.648438 -3.378906 12.25 -5.519531 10.34375 -8.1875 C 8.4375 -10.863281 7.003906 -13.890625 6.046875 -17.265625 C 5.097656 -20.640625 4.625 -24.085938 4.625 -27.609375 C 4.625 -33.253906 5.539062 -38.203125 7.375 -42.453125 C 9.207031 -46.710938 11.695312 -50.253906 14.84375 -53.078125 C 18 -55.898438 21.519531 -58.023438 25.40625 -59.453125 C 29.289062 -60.878906 33.328125 -61.59375 37.515625 -61.59375 C 42.640625 -61.59375 47.695312 -60.507812 52.6875 -58.34375 C 57.675781 -56.1875 61.675781 -52.578125 64.6875 -47.515625 C 66.957031 -51.628906 70.253906 -55.003906 74.578125 -57.640625 C 78.898438 -60.273438 84.109375 -61.59375 90.203125 -61.59375 C 93.359375 -61.59375 96.4375 -61.15625 99.4375 -60.28125 C 102.59375 -61.15625 105.859375 -61.59375 109.234375 -61.59375 C 114.210938 -61.59375 118.957031 -60.769531 123.46875 -59.125 C 127.976562 -57.476562 131.8125 -54.488281 134.96875 -50.15625 C 136.945312 -53.53125 139.710938 -56.28125 143.265625 -58.40625 C 146.828125 -60.53125 151.03125 -61.59375 155.875 -61.59375 C 160.34375 -61.59375 164.242188 -60.675781 167.578125 -58.84375 C 170.921875 -57.007812 173.523438 -54.570312 175.390625 -51.53125 C 177.265625 -48.488281 178.203125 -45.097656 178.203125 -41.359375 C 178.203125 -37.035156 177.132812 -33.128906 175 -29.640625 C 172.875 -26.160156 169.285156 -23.613281 164.234375 -22 C 168.703125 -21.851562 171.925781 -20.640625 173.90625 -18.359375 C 175.882812 -16.085938 176.875 -13.671875 176.875 -11.109375 C 176.875 -7.734375 175.609375 -4.875 173.078125 -2.53125 C 170.554688 -0.1875 166.726562 0.984375 161.59375 0.984375 C 158.144531 0.984375 155.265625 0.378906 152.953125 -0.828125 C 150.640625 -2.035156 148.769531 -3.59375 147.34375 -5.5 C 145.914062 -7.40625 144.832031 -9.382812 144.09375 -11.4375 C 139.914062 -9.3125 135.390625 -7.332031 130.515625 -5.5 C 125.640625 -3.664062 120.578125 -2.179688 115.328125 -1.046875 C 110.085938 0.0859375 104.753906 0.65625 99.328125 0.65625 C 92.878906 0.65625 88.222656 -0.332031 85.359375 -2.3125 C 82.492188 -4.289062 81.0625 -7.367188 81.0625 -11.546875 C 81.0625 -15.285156 82.53125 -18.070312 85.46875 -19.90625 C 88.40625 -21.738281 92.4375 -22.65625 97.5625 -22.65625 L 141.453125 -22.65625 C 146.296875 -22.65625 150.238281 -22.910156 153.28125 -23.421875 C 156.320312 -23.941406 158.722656 -24.710938 160.484375 -25.734375 C 163.054688 -27.203125 164.851562 -29.128906 165.875 -31.515625 C 166.90625 -33.898438 167.421875 -36.851562 167.421875 -40.375 C 167.421875 -44.988281 166.117188 -48.578125 163.515625 -51.140625 C 160.910156 -53.710938 157.554688 -55 153.453125 -55 C 151.109375 -55 148.816406 -54.503906 146.578125 -53.515625 C 144.335938 -52.523438 142.519531 -50.816406 141.125 -48.390625 C 139.738281 -45.972656 139.046875 -42.566406 139.046875 -38.171875 L 139.046875 -26.84375 L 128.59375 -26.84375 L 128.59375 -36.953125 C 128.59375 -41.359375 127.675781 -44.878906 125.84375 -47.515625 C 124.007812 -50.160156 121.585938 -52.101562 118.578125 -53.34375 C 115.566406 -54.59375 112.226562 -55.289062 108.5625 -55.4375 C 110.914062 -53.53125 112.75 -51.3125 114.0625 -48.78125 C 115.382812 -46.25 116.046875 -43.554688 116.046875 -40.703125 C 116.046875 -36.523438 115.128906 -33.28125 113.296875 -30.96875 C 111.460938 -28.65625 109.1875 -27.054688 106.46875 -26.171875 C 103.757812 -25.296875 101.050781 -24.859375 98.34375 -24.859375 C 93.207031 -24.859375 89.171875 -26.25 86.234375 -29.03125 C 83.304688 -31.820312 81.84375 -35.640625 81.84375 -40.484375 C 81.84375 -43.628906 82.535156 -46.445312 83.921875 -48.9375 C 85.316406 -51.4375 87.191406 -53.601562 89.546875 -55.4375 C 84.484375 -55.363281 80.375 -54.265625 77.21875 -52.140625 C 74.0625 -50.015625 71.75 -47.207031 70.28125 -43.71875 C 68.820312 -40.238281 68.09375 -36.519531 68.09375 -32.5625 L 68.09375 0 L 57.640625 0 L 57.640625 -32.125 C 57.640625 -39.601562 55.660156 -45.285156 51.703125 -49.171875 C 47.742188 -53.054688 42.570312 -55 36.1875 -55 C 31.9375 -55 27.867188 -53.988281 23.984375 -51.96875 C 20.097656 -49.957031 16.90625 -46.914062 14.40625 -42.84375 C 11.914062 -38.769531 10.671875 -33.65625 10.671875 -27.5 C 10.671875 -26.539062 10.707031 -25.660156 10.78125 -24.859375 C 12.832031 -27.941406 15.34375 -30.472656 18.3125 -32.453125 C 21.28125 -34.429688 24.671875 -35.421875 28.484375 -35.421875 C 32.078125 -35.421875 35.210938 -34.628906 37.890625 -33.046875 C 40.566406 -31.472656 42.65625 -29.347656 44.15625 -26.671875 C 45.664062 -23.992188 46.421875 -20.929688 46.421875 -17.484375 C 46.421875 -12.285156 44.769531 -7.960938 41.46875 -4.515625 C 38.164062 -1.066406 33.582031 0.65625 27.71875 0.65625 Z M 88.21875 -40.15625 C 88.21875 -37.800781 88.953125 -35.648438 90.421875 -33.703125 C 91.890625 -31.765625 94.269531 -30.796875 97.5625 -30.796875 C 100.351562 -30.796875 102.628906 -31.53125 104.390625 -33 C 106.148438 -34.46875 107.03125 -36.960938 107.03125 -40.484375 C 107.03125 -43.785156 106.222656 -46.570312 104.609375 -48.84375 C 102.992188 -51.113281 100.832031 -52.800781 98.125 -53.90625 C 95.039062 -52.800781 92.617188 -51.054688 90.859375 -48.671875 C 89.097656 -46.285156 88.21875 -43.445312 88.21875 -40.15625 Z M 25.84375 -28.703125 C 22.84375 -28.703125 20.164062 -27.691406 17.8125 -25.671875 C 15.46875 -23.660156 13.488281 -21.300781 11.875 -18.59375 C 13.195312 -14.257812 15.195312 -11.066406 17.875 -9.015625 C 20.550781 -6.960938 23.171875 -5.9375 25.734375 -5.9375 C 29.253906 -5.9375 31.910156 -7.054688 33.703125 -9.296875 C 35.503906 -11.535156 36.40625 -14.265625 36.40625 -17.484375 C 36.40625 -21.148438 35.378906 -23.9375 33.328125 -25.84375 C 31.273438 -27.75 28.78125 -28.703125 25.84375 -28.703125 Z M 160.484375 -18.046875 C 158.867188 -18.046875 157.085938 -17.695312 155.140625 -17 C 153.203125 -16.300781 151.207031 -15.363281 149.15625 -14.1875 C 150.625 -11.101562 152.144531 -8.847656 153.71875 -7.421875 C 155.300781 -5.992188 157.554688 -5.28125 160.484375 -5.28125 C 162.691406 -5.28125 164.472656 -5.847656 165.828125 -6.984375 C 167.179688 -8.117188 167.859375 -9.601562 167.859375 -11.4375 C 167.859375 -13.34375 167.269531 -14.921875 166.09375 -16.171875 C 164.925781 -17.421875 163.054688 -18.046875 160.484375 -18.046875 Z M 90.09375 -11.21875 C 90.09375 -9.164062 91.082031 -7.695312 93.0625 -6.8125 C 95.039062 -5.9375 97.9375 -5.5 101.75 -5.5 C 105.78125 -5.5 109.957031 -5.957031 114.28125 -6.875 C 118.613281 -7.789062 123.304688 -9.164062 128.359375 -11 C 133.421875 -12.832031 139.144531 -15.101562 145.53125 -17.8125 C 143.625 -17.59375 141.1875 -17.390625 138.21875 -17.203125 C 135.25 -17.023438 131.820312 -16.9375 127.9375 -16.9375 L 97.5625 -16.9375 C 95.289062 -16.9375 93.476562 -16.476562 92.125 -15.5625 C 90.769531 -14.644531 90.09375 -13.195312 90.09375 -11.21875 Z M 90.09375 -11.21875 "/>
</symbol>
<symbol overflow="visible" id="malayalam-matra-position:id0:glyph0-6">
<path style="stroke:none;" d="M 25.296875 0.65625 C 21.628906 0.65625 18.421875 0.0507812 15.671875 -1.15625 C 12.921875 -2.363281 10.628906 -3.921875 8.796875 -5.828125 C 6.960938 -7.734375 5.585938 -9.726562 4.671875 -11.8125 C 3.753906 -13.90625 3.296875 -15.867188 3.296875 -17.703125 C 3.296875 -18.878906 3.609375 -19.890625 4.234375 -20.734375 C 4.859375 -21.578125 5.757812 -22 6.9375 -22 C 7.519531 -19.207031 8.503906 -16.582031 9.890625 -14.125 C 11.285156 -11.675781 13.140625 -9.695312 15.453125 -8.1875 C 17.765625 -6.6875 20.535156 -5.9375 23.765625 -5.9375 C 27.796875 -5.9375 30.984375 -7.144531 33.328125 -9.5625 C 35.671875 -11.988281 37.335938 -15.085938 38.328125 -18.859375 C 39.316406 -22.640625 39.8125 -26.507812 39.8125 -30.46875 C 39.8125 -33.40625 39.535156 -36.320312 38.984375 -39.21875 C 38.441406 -42.113281 37.546875 -44.75 36.296875 -47.125 C 35.054688 -49.507812 33.40625 -51.414062 31.34375 -52.84375 C 29.289062 -54.28125 26.765625 -55 23.765625 -55 C 20.535156 -55 17.765625 -54.242188 15.453125 -52.734375 C 13.140625 -51.234375 11.285156 -49.253906 9.890625 -46.796875 C 8.503906 -44.347656 7.519531 -41.726562 6.9375 -38.9375 C 5.757812 -38.9375 4.859375 -39.359375 4.234375 -40.203125 C 3.609375 -41.046875 3.296875 -42.019531 3.296875 -43.125 C 3.296875 -44.957031 3.753906 -46.9375 4.671875 -49.0625 C 5.585938 -51.1875 6.960938 -53.203125 8.796875 -55.109375 C 10.628906 -57.015625 12.921875 -58.570312 15.671875 -59.78125 C 18.421875 -60.988281 21.628906 -61.59375 25.296875 -61.59375 C 29.703125 -61.59375 33.5 -60.691406 36.6875 -58.890625 C 39.875 -57.097656 42.457031 -54.695312 44.4375 -51.6875 C 46.414062 -48.6875 47.878906 -45.351562 48.828125 -41.6875 C 49.785156 -38.019531 50.265625 -34.28125 50.265625 -30.46875 C 50.265625 -26.65625 49.785156 -22.914062 48.828125 -19.25 C 47.878906 -15.582031 46.414062 -12.242188 44.4375 -9.234375 C 42.457031 -6.234375 39.875 -3.832031 36.6875 -2.03125 C 33.5 -0.238281 29.703125 0.65625 25.296875 0.65625 Z M 25.296875 0.65625 "/>
</symbol>
</g>
<g>
<symbol overflow="visible" id="malayalam-matra-position:id1:glyph0-0">
<path style="stroke:none;" d="M 5.375 -96.6875 L 69.828125 -96.6875 L 69.828125 0 L 5.375 0 Z M 8.0625 -2.6875 L 67.140625 -2.6875 L 67.140625 -94 L 8.0625 -94 Z M 8.0625 -2.6875 "/>
</symbol>
<symbol overflow="visible" id="malayalam-matra-position:id1:glyph0-1">
<path style="stroke:none;" d="M 68.15625 -13.75 L 66.28125 -18.640625 L 88.09375 -27.390625 L 6.984375 -27.390625 L 6.984375 -34 L 88.09375 -34 L 66.28125 -42.75 L 68.15625 -47.640625 L 99.09375 -34.265625 L 99.09375 -27.125 Z M 68.15625 -13.75 "/>
</symbol>
</g>
<g>
<symbol overflow="visible" id="malayalam-matra-position:id2:glyph0-0">
<path style="stroke:none;" d="M 10.34375 0 L 10.34375 -78.546875 L 55.546875 -78.546875 L 55.546875 0 Z M 15.953125 -5.609375 L 49.9375 -5.609375 L 49.9375 -72.9375 L 15.953125 -72.9375 Z M 15.953125 -5.609375 "/>
</symbol>
<symbol overflow="visible" id="malayalam-matra-position:id2:glyph0-1">
<path style="stroke:none;" d="M 27.71875 0.65625 C 23.832031 0.65625 20.441406 -0.148438 17.546875 -1.765625 C 14.648438 -3.378906 12.25 -5.519531 10.34375 -8.1875 C 8.4375 -10.863281 7.003906 -13.890625 6.046875 -17.265625 C 5.097656 -20.640625 4.625 -24.085938 4.625 -27.609375 C 4.625 -33.253906 5.539062 -38.203125 7.375 -42.453125 C 9.207031 -46.710938 11.695312 -50.253906 14.84375 -53.078125 C 18 -55.898438 21.519531 -58.023438 25.40625 -59.453125 C 29.289062 -60.878906 33.328125 -61.59375 37.515625 -61.59375 C 42.347656 -61.59375 47.128906 -60.640625 51.859375 -58.734375 C 56.585938 -56.828125 60.53125 -53.601562 63.6875 -49.0625 C 66.40625 -54.050781 69.539062 -57.382812 73.09375 -59.0625 C 76.65625 -60.75 80.269531 -61.59375 83.9375 -61.59375 C 88.695312 -61.59375 93.054688 -60.398438 97.015625 -58.015625 C 100.972656 -55.640625 104.144531 -52.066406 106.53125 -47.296875 C 108.914062 -42.535156 110.109375 -36.632812 110.109375 -29.59375 C 110.109375 -24.894531 109.375 -20.53125 107.90625 -16.5 C 106.4375 -12.46875 104.492188 -8.945312 102.078125 -5.9375 L 129.140625 -5.9375 L 129.140625 -60.9375 L 139.703125 -60.9375 L 139.703125 0 L 91.953125 0 L 90.53125 -3.078125 C 93.09375 -6.304688 95.195312 -10.101562 96.84375 -14.46875 C 98.5 -18.832031 99.328125 -23.726562 99.328125 -29.15625 C 99.328125 -35.019531 98.554688 -39.859375 97.015625 -43.671875 C 95.472656 -47.484375 93.4375 -50.320312 90.90625 -52.1875 C 88.382812 -54.0625 85.617188 -55 82.609375 -55 C 78.140625 -55 74.601562 -53.457031 72 -50.375 C 69.394531 -47.300781 68.09375 -43.523438 68.09375 -39.046875 L 68.09375 0 L 57.640625 0 L 57.640625 -32.125 C 57.640625 -39.601562 55.660156 -45.285156 51.703125 -49.171875 C 47.742188 -53.054688 42.570312 -55 36.1875 -55 C 31.9375 -55 27.867188 -53.988281 23.984375 -51.96875 C 20.097656 -49.957031 16.90625 -46.914062 14.40625 -42.84375 C 11.914062 -38.769531 10.671875 -33.65625 10.671875 -27.5 C 10.671875 -26.539062 10.707031 -25.660156 10.78125 -24.859375 C 12.832031 -27.941406 15.34375 -30.472656 18.3125 -32.453125 C 21.28125 -34.429688 24.671875 -35.421875 28.484375 -35.421875 C 32.078125 -35.421875 35.210938 -34.628906 37.890625 -33.046875 C 40.566406 -31.472656 42.65625 -29.347656 44.15625 -26.671875 C 45.664062 -23.992188 46.421875 -20.929688 46.421875 -17.484375 C 46.421875 -12.285156 44.769531 -7.960938 41.46875 -4.515625 C 38.164062 -1.066406 33.582031 0.65625 27.71875 0.65625 Z M 25.84375 -28.703125 C 22.84375 -28.703125 20.164062 -27.691406 17.8125 -25.671875 C 15.46875 -23.660156 13.488281 -21.300781 11.875 -18.59375 C 13.195312 -14.257812 15.195312 -11.066406 17.875 -9.015625 C 20.550781 -6.960938 23.171875 -5.9375 25.734375 -5.9375 C 29.253906 -5.9375 31.910156 -7.054688 33.703125 -9.296875 C 35.503906 -11.535156 36.40625 -14.265625 36.40625 -17.484375 C 36.40625 -21.148438 35.378906 -23.9375 33.328125 -25.84375 C 31.273438 -27.75 28.78125 -28.703125 25.84375 -28.703125 Z M 25.84375 -28.703125 "/>
</symbol>
<symbol overflow="visible" id="malayalam-matra-position:id2:glyph0-2">
<path style="stroke:none;" d="M -10.234375 -66.546875 C -15.441406 -66.546875 -19.457031 -67.222656 -22.28125 -68.578125 C -25.101562 -69.941406 -27.0625 -71.648438 -28.15625 -73.703125 C -29.257812 -75.753906 -29.8125 -77.84375 -29.8125 -79.96875 C -29.8125 -82.53125 -28.945312 -84.507812 -27.21875 -85.90625 C -25.5 -87.300781 -23.613281 -88 -21.5625 -88 C -20.675781 -88 -19.832031 -87.851562 -19.03125 -87.5625 C -19.539062 -86.09375 -19.796875 -84.585938 -19.796875 -83.046875 C -19.796875 -79.816406 -18.878906 -77.320312 -17.046875 -75.5625 C -15.210938 -73.8125 -12.71875 -72.9375 -9.5625 -72.9375 C -6.488281 -72.9375 -4.050781 -73.722656 -2.25 -75.296875 C -0.457031 -76.867188 0.4375 -79.304688 0.4375 -82.609375 C 0.4375 -84.441406 0.0703125 -86.09375 -0.65625 -87.5625 C 0 -87.78125 0.695312 -87.890625 1.4375 -87.890625 C 3.34375 -87.890625 4.753906 -87.132812 5.671875 -85.625 C 6.585938 -84.125 7.046875 -82.457031 7.046875 -80.625 C 7.046875 -76.59375 5.578125 -73.238281 2.640625 -70.5625 C -0.296875 -67.882812 -4.585938 -66.546875 -10.234375 -66.546875 Z M -10.234375 -66.546875 "/>
</symbol>
<symbol overflow="visible" id="malayalam-matra-position:id2:glyph0-3">
<path style="stroke:none;" d="M 37.1875 0.65625 C 31.601562 0.65625 26.757812 -0.222656 22.65625 -1.984375 C 18.550781 -3.742188 15.160156 -6.109375 12.484375 -9.078125 C 9.804688 -12.046875 7.804688 -15.363281 6.484375 -19.03125 C 5.171875 -22.695312 4.515625 -26.472656 4.515625 -30.359375 C 4.515625 -34.242188 5.15625 -38.035156 6.4375 -41.734375 C 7.71875 -45.441406 9.660156 -48.796875 12.265625 -51.796875 C 14.867188 -54.804688 18.1875 -57.191406 22.21875 -58.953125 C 26.25 -60.710938 30.976562 -61.59375 36.40625 -61.59375 C 41.539062 -61.59375 45.703125 -60.769531 48.890625 -59.125 C 52.085938 -57.476562 54.453125 -55.40625 55.984375 -52.90625 C 57.523438 -50.414062 58.296875 -47.847656 58.296875 -45.203125 C 58.296875 -41.910156 57.160156 -38.960938 54.890625 -36.359375 C 52.617188 -33.753906 49.316406 -32.453125 44.984375 -32.453125 C 40.878906 -32.453125 37.707031 -33.625 35.46875 -35.96875 C 33.238281 -38.3125 32.125 -41.023438 32.125 -44.109375 C 32.125 -46.085938 32.765625 -48.140625 34.046875 -50.265625 C 35.328125 -52.390625 37.210938 -54.113281 39.703125 -55.4375 C 39.410156 -55.4375 39.117188 -55.4375 38.828125 -55.4375 C 33.035156 -55.4375 28.378906 -54.226562 24.859375 -51.8125 C 21.335938 -49.394531 18.804688 -46.257812 17.265625 -42.40625 C 15.722656 -38.550781 14.953125 -34.535156 14.953125 -30.359375 C 14.953125 -27.273438 15.351562 -24.25 16.15625 -21.28125 C 16.96875 -18.3125 18.289062 -15.65625 20.125 -13.3125 C 21.957031 -10.96875 24.394531 -9.078125 27.4375 -7.640625 C 30.488281 -6.210938 34.25 -5.5 38.71875 -5.5 C 39.007812 -5.5 39.265625 -5.5 39.484375 -5.5 C 37.066406 -6.75 35.234375 -8.4375 33.984375 -10.5625 C 32.742188 -12.6875 32.125 -14.738281 32.125 -16.71875 C 32.125 -19.800781 33.238281 -22.492188 35.46875 -24.796875 C 37.707031 -27.109375 40.878906 -28.265625 44.984375 -28.265625 C 49.316406 -28.265625 52.617188 -26.976562 54.890625 -24.40625 C 57.160156 -21.84375 58.296875 -18.953125 58.296875 -15.734375 C 58.296875 -13.160156 57.582031 -10.609375 56.15625 -8.078125 C 54.726562 -5.554688 52.453125 -3.46875 49.328125 -1.8125 C 46.210938 -0.164062 42.164062 0.65625 37.1875 0.65625 Z M 38.609375 -45.203125 C 38.609375 -43.367188 39.191406 -41.773438 40.359375 -40.421875 C 41.535156 -39.066406 43.148438 -38.390625 45.203125 -38.390625 C 47.265625 -38.390625 48.863281 -39.066406 50 -40.421875 C 51.132812 -41.773438 51.703125 -43.367188 51.703125 -45.203125 C 51.703125 -47.265625 51.09375 -49.097656 49.875 -50.703125 C 48.664062 -52.316406 47.035156 -53.53125 44.984375 -54.34375 C 42.640625 -53.019531 40.988281 -51.53125 40.03125 -49.875 C 39.082031 -48.226562 38.609375 -46.671875 38.609375 -45.203125 Z M 38.609375 -15.625 C 38.609375 -11.882812 40.695312 -8.835938 44.875 -6.484375 C 47.15625 -7.296875 48.863281 -8.523438 50 -10.171875 C 51.132812 -11.828125 51.703125 -13.644531 51.703125 -15.625 C 51.703125 -17.382812 51.132812 -18.957031 50 -20.34375 C 48.863281 -21.738281 47.265625 -22.4375 45.203125 -22.4375 C 43.148438 -22.4375 41.535156 -21.757812 40.359375 -20.40625 C 39.191406 -19.050781 38.609375 -17.457031 38.609375 -15.625 Z M 38.609375 -15.625 "/>
</symbol>
<symbol overflow="visible" id="malayalam-matra-position:id2:glyph0-4">
<path style="stroke:none;" d="M 27.71875 0.65625 C 23.832031 0.65625 20.441406 -0.148438 17.546875 -1.765625 C 14.648438 -3.378906 12.25 -5.519531 10.34375 -8.1875 C 8.4375 -10.863281 7.003906 -13.890625 6.046875 -17.265625 C 5.097656 -20.640625 4.625 -24.085938 4.625 -27.609375 C 4.625 -33.253906 5.539062 -38.203125 7.375 -42.453125 C 9.207031 -46.710938 11.695312 -50.253906 14.84375 -53.078125 C 18 -55.898438 21.519531 -58.023438 25.40625 -59.453125 C 29.289062 -60.878906 33.328125 -61.59375 37.515625 -61.59375 C 42.640625 -61.59375 47.695312 -60.507812 52.6875 -58.34375 C 57.675781 -56.1875 61.675781 -52.578125 64.6875 -47.515625 C 66.957031 -51.628906 70.253906 -55.003906 74.578125 -57.640625 C 78.898438 -60.273438 84.109375 -61.59375 90.203125 -61.59375 C 93.359375 -61.59375 96.4375 -61.15625 99.4375 -60.28125 C 102.59375 -61.15625 105.859375 -61.59375 109.234375 -61.59375 C 114.210938 -61.59375 118.957031 -60.769531 123.46875 -59.125 C 127.976562 -57.476562 131.8125 -54.488281 134.96875 -50.15625 C 136.945312 -53.53125 139.710938 -56.28125 143.265625 -58.40625 C 146.828125 -60.53125 151.03125 -61.59375 155.875 -61.59375 C 160.34375 -61.59375 164.242188 -60.675781 167.578125 -58.84375 C 170.921875 -57.007812 173.523438 -54.570312 175.390625 -51.53125 C 177.265625 -48.488281 178.203125 -45.097656 178.203125 -41.359375 C 178.203125 -37.035156 177.132812 -33.128906 175 -29.640625 C 172.875 -26.160156 169.285156 -23.613281 164.234375 -22 C 168.703125 -21.851562 171.925781 -20.640625 173.90625 -18.359375 C 175.882812 -16.085938 176.875 -13.671875 176.875 -11.109375 C 176.875 -7.734375 175.609375 -4.875 173.078125 -2.53125 C 170.554688 -0.1875 166.726562 0.984375 161.59375 0.984375 C 158.144531 0.984375 155.265625 0.378906 152.953125 -0.828125 C 150.640625 -2.035156 148.769531 -3.59375 147.34375 -5.5 C 145.914062 -7.40625 144.832031 -9.382812 144.09375 -11.4375 C 139.914062 -9.3125 135.390625 -7.332031 130.515625 -5.5 C 125.640625 -3.664062 120.578125 -2.179688 115.328125 -1.046875 C 110.085938 0.0859375 104.753906 0.65625 99.328125 0.65625 C 92.878906 0.65625 88.222656 -0.332031 85.359375 -2.3125 C 82.492188 -4.289062 81.0625 -7.367188 81.0625 -11.546875 C 81.0625 -15.285156 82.53125 -18.070312 85.46875 -19.90625 C 88.40625 -21.738281 92.4375 -22.65625 97.5625 -22.65625 L 141.453125 -22.65625 C 146.296875 -22.65625 150.238281 -22.910156 153.28125 -23.421875 C 156.320312 -23.941406 158.722656 -24.710938 160.484375 -25.734375 C 163.054688 -27.203125 164.851562 -29.128906 165.875 -31.515625 C 166.90625 -33.898438 167.421875 -36.851562 167.421875 -40.375 C 167.421875 -44.988281 166.117188 -48.578125 163.515625 -51.140625 C 160.910156 -53.710938 157.554688 -55 153.453125 -55 C 151.109375 -55 148.816406 -54.503906 146.578125 -53.515625 C 144.335938 -52.523438 142.519531 -50.816406 141.125 -48.390625 C 139.738281 -45.972656 139.046875 -42.566406 139.046875 -38.171875 L 139.046875 -26.84375 L 128.59375 -26.84375 L 128.59375 -36.953125 C 128.59375 -41.359375 127.675781 -44.878906 125.84375 -47.515625 C 124.007812 -50.160156 121.585938 -52.101562 118.578125 -53.34375 C 115.566406 -54.59375 112.226562 -55.289062 108.5625 -55.4375 C 110.914062 -53.53125 112.75 -51.3125 114.0625 -48.78125 C 115.382812 -46.25 116.046875 -43.554688 116.046875 -40.703125 C 116.046875 -36.523438 115.128906 -33.28125 113.296875 -30.96875 C 111.460938 -28.65625 109.1875 -27.054688 106.46875 -26.171875 C 103.757812 -25.296875 101.050781 -24.859375 98.34375 -24.859375 C 93.207031 -24.859375 89.171875 -26.25 86.234375 -29.03125 C 83.304688 -31.820312 81.84375 -35.640625 81.84375 -40.484375 C 81.84375 -43.628906 82.535156 -46.445312 83.921875 -48.9375 C 85.316406 -51.4375 87.191406 -53.601562 89.546875 -55.4375 C 84.484375 -55.363281 80.375 -54.265625 77.21875 -52.140625 C 74.0625 -50.015625 71.75 -47.207031 70.28125 -43.71875 C 68.820312 -40.238281 68.09375 -36.519531 68.09375 -32.5625 L 68.09375 0 L 57.640625 0 L 57.640625 -32.125 C 57.640625 -39.601562 55.660156 -45.285156 51.703125 -49.171875 C 47.742188 -53.054688 42.570312 -55 36.1875 -55 C 31.9375 -55 27.867188 -53.988281 23.984375 -51.96875 C 20.097656 -49.957031 16.90625 -46.914062 14.40625 -42.84375 C 11.914062 -38.769531 10.671875 -33.65625 10.671875 -27.5 C 10.671875 -26.539062 10.707031 -25.660156 10.78125 -24.859375 C 12.832031 -27.941406 15.34375 -30.472656 18.3125 -32.453125 C 21.28125 -34.429688 24.671875 -35.421875 28.484375 -35.421875 C 32.078125 -35.421875 35.210938 -34.628906 37.890625 -33.046875 C 40.566406 -31.472656 42.65625 -29.347656 44.15625 -26.671875 C 45.664062 -23.992188 46.421875 -20.929688 46.421875 -17.484375 C 46.421875 -12.285156 44.769531 -7.960938 41.46875 -4.515625 C 38.164062 -1.066406 33.582031 0.65625 27.71875 0.65625 Z M 88.21875 -40.15625 C 88.21875 -37.800781 88.953125 -35.648438 90.421875 -33.703125 C 91.890625 -31.765625 94.269531 -30.796875 97.5625 -30.796875 C 100.351562 -30.796875 102.628906 -31.53125 104.390625 -33 C 106.148438 -34.46875 107.03125 -36.960938 107.03125 -40.484375 C 107.03125 -43.785156 106.222656 -46.570312 104.609375 -48.84375 C 102.992188 -51.113281 100.832031 -52.800781 98.125 -53.90625 C 95.039062 -52.800781 92.617188 -51.054688 90.859375 -48.671875 C 89.097656 -46.285156 88.21875 -43.445312 88.21875 -40.15625 Z M 25.84375 -28.703125 C 22.84375 -28.703125 20.164062 -27.691406 17.8125 -25.671875 C 15.46875 -23.660156 13.488281 -21.300781 11.875 -18.59375 C 13.195312 -14.257812 15.195312 -11.066406 17.875 -9.015625 C 20.550781 -6.960938 23.171875 -5.9375 25.734375 -5.9375 C 29.253906 -5.9375 31.910156 -7.054688 33.703125 -9.296875 C 35.503906 -11.535156 36.40625 -14.265625 36.40625 -17.484375 C 36.40625 -21.148438 35.378906 -23.9375 33.328125 -25.84375 C 31.273438 -27.75 28.78125 -28.703125 25.84375 -28.703125 Z M 160.484375 -18.046875 C 158.867188 -18.046875 157.085938 -17.695312 155.140625 -17 C 153.203125 -16.300781 151.207031 -15.363281 149.15625 -14.1875 C 150.625 -11.101562 152.144531 -8.847656 153.71875 -7.421875 C 155.300781 -5.992188 157.554688 -5.28125 160.484375 -5.28125 C 162.691406 -5.28125 164.472656 -5.847656 165.828125 -6.984375 C 167.179688 -8.117188 167.859375 -9.601562 167.859375 -11.4375 C 167.859375 -13.34375 167.269531 -14.921875 166.09375 -16.171875 C 164.925781 -17.421875 163.054688 -18.046875 160.484375 -18.046875 Z M 90.09375 -11.21875 C 90.09375 -9.164062 91.082031 -7.695312 93.0625 -6.8125 C 95.039062 -5.9375 97.9375 -5.5 101.75 -5.5 C 105.78125 -5.5 109.957031 -5.957031 114.28125 -6.875 C 118.613281 -7.789062 123.304688 -9.164062 128.359375 -11 C 133.421875 -12.832031 139.144531 -15.101562 145.53125 -17.8125 C 143.625 -17.59375 141.1875 -17.390625 138.21875 -17.203125 C 135.25 -17.023438 131.820312 -16.9375 127.9375 -16.9375 L 97.5625 -16.9375 C 95.289062 -16.9375 93.476562 -16.476562 92.125 -15.5625 C 90.769531 -14.644531 90.09375 -13.195312 90.09375 -11.21875 Z M 90.09375 -11.21875 "/>
</symbol>
<symbol overflow="visible" id="malayalam-matra-position:id2:glyph0-5">
<path style="stroke:none;" d="M 25.296875 0.65625 C 21.628906 0.65625 18.421875 0.0507812 15.671875 -1.15625 C 12.921875 -2.363281 10.628906 -3.921875 8.796875 -5.828125 C 6.960938 -7.734375 5.585938 -9.726562 4.671875 -11.8125 C 3.753906 -13.90625 3.296875 -15.867188 3.296875 -17.703125 C 3.296875 -18.878906 3.609375 -19.890625 4.234375 -20.734375 C 4.859375 -21.578125 5.757812 -22 6.9375 -22 C 7.519531 -19.207031 8.503906 -16.582031 9.890625 -14.125 C 11.285156 -11.675781 13.140625 -9.695312 15.453125 -8.1875 C 17.765625 -6.6875 20.535156 -5.9375 23.765625 -5.9375 C 27.796875 -5.9375 30.984375 -7.144531 33.328125 -9.5625 C 35.671875 -11.988281 37.335938 -15.085938 38.328125 -18.859375 C 39.316406 -22.640625 39.8125 -26.507812 39.8125 -30.46875 C 39.8125 -33.40625 39.535156 -36.320312 38.984375 -39.21875 C 38.441406 -42.113281 37.546875 -44.75 36.296875 -47.125 C 35.054688 -49.507812 33.40625 -51.414062 31.34375 -52.84375 C 29.289062 -54.28125 26.765625 -55 23.765625 -55 C 20.535156 -55 17.765625 -54.242188 15.453125 -52.734375 C 13.140625 -51.234375 11.285156 -49.253906 9.890625 -46.796875 C 8.503906 -44.347656 7.519531 -41.726562 6.9375 -38.9375 C 5.757812 -38.9375 4.859375 -39.359375 4.234375 -40.203125 C 3.609375 -41.046875 3.296875 -42.019531 3.296875 -43.125 C 3.296875 -44.957031 3.753906 -46.9375 4.671875 -49.0625 C 5.585938 -51.1875 6.960938 -53.203125 8.796875 -55.109375 C 10.628906 -57.015625 12.921875 -58.570312 15.671875 -59.78125 C 18.421875 -60.988281 21.628906 -61.59375 25.296875 -61.59375 C 29.703125 -61.59375 33.5 -60.691406 36.6875 -58.890625 C 39.875 -57.097656 42.457031 -54.695312 44.4375 -51.6875 C 46.414062 -48.6875 47.878906 -45.351562 48.828125 -41.6875 C 49.785156 -38.019531 50.265625 -34.28125 50.265625 -30.46875 C 50.265625 -26.65625 49.785156 -22.914062 48.828125 -19.25 C 47.878906 -15.582031 46.414062 -12.242188 44.4375 -9.234375 C 42.457031 -6.234375 39.875 -3.832031 36.6875 -2.03125 C 33.5 -0.238281 29.703125 0.65625 25.296875 0.65625 Z M 25.296875 0.65625 "/>
</symbol>
</g>
</defs>
  <g id="malayalam-matra-position:id0:id0" transform="matrix(1.25,0,0,1.25,0.0,12.470703125)"><g id="malayalam-matra-position:id0:surface1">
<g style="fill:rgb(0%,0%,0%);fill-opacity:1;">
  <use xlink:href="#malayalam-matra-position:id0:glyph0-1" x="16" y="97.046875" class="c0"/>
  <use xlink:href="#malayalam-matra-position:id0:glyph0-2" x="78.046875" y="97.046875" class="dc"/>
  <use xlink:href="#malayalam-matra-position:id0:glyph0-3" x="139.75" y="97.046875" class="c1"/>
  <use xlink:href="#malayalam-matra-position:id0:glyph0-4" x="287.375" y="97.046875" class="c2"/>
  <use xlink:href="#malayalam-matra-position:id0:glyph0-5" x="287.375" y="97.046875" class="c3"/>
  <use xlink:href="#malayalam-matra-position:id0:glyph0-6" x="470.1875" y="97.046875" class="c4"/>
</g>
</g>
</g>
  <g id="malayalam-matra-position:id1:id1" transform="matrix(1.25,0,0,1.25,676.34765625,0.0)"><g id="malayalam-matra-position:id1:surface1">
<g style="fill:rgb(0%,0%,0%);fill-opacity:1;">
  <use xlink:href="#malayalam-matra-position:id1:glyph0-1" x="0" y="120.84375" class="arrow"/>
</g>
</g>
</g>
  <g id="malayalam-matra-position:id2:id2" transform="matrix(1.25,0,0,1.25,808.9453125,12.470703125)"><g id="malayalam-matra-position:id2:surface1">
<g style="fill:rgb(0%,0%,0%);fill-opacity:1;">
  <use xlink:href="#malayalam-matra-position:id2:glyph0-1" x="16" y="97.046875" class="c1"/>
  <use xlink:href="#malayalam-matra-position:id2:glyph0-2" x="163.625" y="97.046875" class="c2"/>
  <use xlink:href="#malayalam-matra-position:id2:glyph0-3" x="163.625" y="97.046875" class="c0"/>
  <use xlink:href="#malayalam-matra-position:id2:glyph0-4" x="225.671875" y="97.046875" class="c3"/>
  <use xlink:href="#malayalam-matra-position:id2:glyph0-5" x="408.484375" y="97.046875" class="c4"/>
</g>
</g>
</g>
</svg>
