<!DOCTYPE svg PUBLIC "-//W3C//DTD SVG 1.1//EN" "http://www.w3.org/Graphics/SVG/1.1/DTD/svg11.dtd">
<!-- Created with svg_stack (http://github.com/astraw/svg_stack) --><svg xmlns="http://www.w3.org/2000/svg" xmlns:sodipodi="http://sodipodi.sourceforge.net/DTD/sodipodi-0.dtd" xmlns:xlink="http://www.w3.org/1999/xlink" version="1.1" width="100%" id="malayalam-akhn-chillu-r-1" viewBox="0 0 400.95703125 201.40625">
  <defs><g>
<symbol overflow="visible" id="malayalam-akhn-chillu-r-1:id0:glyph0-0">
<path style="stroke:none;" d="M 10.34375 0 L 10.34375 -78.546875 L 55.546875 -78.546875 L 55.546875 0 Z M 15.953125 -5.609375 L 49.9375 -5.609375 L 49.9375 -72.9375 L 15.953125 -72.9375 Z M 15.953125 -5.609375 "/>
</symbol>
<symbol overflow="visible" id="malayalam-akhn-chillu-r-1:id0:glyph0-1">
<path style="stroke:none;" d="M 22.109375 0.65625 C 20.347656 0.65625 18.457031 -0.0546875 16.4375 -1.484375 C 14.425781 -2.910156 12.519531 -4.90625 10.71875 -7.46875 C 8.925781 -10.039062 7.460938 -13.085938 6.328125 -16.609375 C 5.191406 -20.128906 4.625 -23.976562 4.625 -28.15625 C 4.625 -35.269531 6.125 -41.320312 9.125 -46.3125 C 12.132812 -51.300781 16.113281 -55.09375 21.0625 -57.6875 C 26.007812 -60.289062 31.304688 -61.59375 36.953125 -61.59375 C 43.921875 -61.59375 49.9375 -60.035156 55 -56.921875 C 60.0625 -53.804688 63.945312 -49.535156 66.65625 -44.109375 C 69.375 -38.679688 70.734375 -32.554688 70.734375 -25.734375 C 70.734375 -21.046875 69.890625 -16.703125 68.203125 -12.703125 C 66.515625 -8.703125 64.035156 -5.472656 60.765625 -3.015625 C 57.503906 -0.566406 53.53125 0.65625 48.84375 0.65625 C 42.457031 0.65625 37.578125 -1.484375 34.203125 -5.765625 C 30.835938 -10.054688 29.15625 -15.613281 29.15625 -22.4375 C 29.15625 -28.675781 30.378906 -34.394531 32.828125 -39.59375 C 35.285156 -44.800781 38.679688 -49.535156 43.015625 -53.796875 C 40.804688 -54.453125 38.492188 -54.78125 36.078125 -54.78125 C 31.160156 -54.78125 26.832031 -53.679688 23.09375 -51.484375 C 19.351562 -49.285156 16.421875 -46.164062 14.296875 -42.125 C 12.171875 -38.09375 11.109375 -33.363281 11.109375 -27.9375 C 11.109375 -21.925781 12.535156 -16.664062 15.390625 -12.15625 C 18.253906 -7.644531 21.851562 -3.992188 26.1875 -1.203125 C 25.738281 -0.617188 25.144531 -0.164062 24.40625 0.15625 C 23.675781 0.488281 22.910156 0.65625 22.109375 0.65625 Z M 35.53125 -21.890625 C 35.53125 -16.753906 36.664062 -12.8125 38.9375 -10.0625 C 41.207031 -7.3125 44.140625 -5.9375 47.734375 -5.9375 C 50.015625 -5.9375 52.085938 -6.519531 53.953125 -7.6875 C 55.828125 -8.863281 57.3125 -10.882812 58.40625 -13.75 C 59.507812 -16.613281 60.0625 -20.535156 60.0625 -25.515625 C 60.0625 -30.578125 59.085938 -35.472656 57.140625 -40.203125 C 55.203125 -44.929688 52.289062 -48.582031 48.40625 -51.15625 C 44.289062 -47.257812 41.113281 -42.765625 38.875 -37.671875 C 36.644531 -32.578125 35.53125 -27.316406 35.53125 -21.890625 Z M 35.53125 -21.890625 "/>
</symbol>
<symbol overflow="visible" id="malayalam-akhn-chillu-r-1:id0:glyph0-2">
<path style="stroke:none;" d="M -10.234375 -66.546875 C -15.441406 -66.546875 -19.457031 -67.222656 -22.28125 -68.578125 C -25.101562 -69.941406 -27.0625 -71.648438 -28.15625 -73.703125 C -29.257812 -75.753906 -29.8125 -77.84375 -29.8125 -79.96875 C -29.8125 -82.53125 -28.945312 -84.507812 -27.21875 -85.90625 C -25.5 -87.300781 -23.613281 -88 -21.5625 -88 C -20.675781 -88 -19.832031 -87.851562 -19.03125 -87.5625 C -19.539062 -86.09375 -19.796875 -84.585938 -19.796875 -83.046875 C -19.796875 -79.816406 -18.878906 -77.320312 -17.046875 -75.5625 C -15.210938 -73.8125 -12.71875 -72.9375 -9.5625 -72.9375 C -6.488281 -72.9375 -4.050781 -73.722656 -2.25 -75.296875 C -0.457031 -76.867188 0.4375 -79.304688 0.4375 -82.609375 C 0.4375 -84.441406 0.0703125 -86.09375 -0.65625 -87.5625 C 0 -87.78125 0.695312 -87.890625 1.4375 -87.890625 C 3.34375 -87.890625 4.753906 -87.132812 5.671875 -85.625 C 6.585938 -84.125 7.046875 -82.457031 7.046875 -80.625 C 7.046875 -76.59375 5.578125 -73.238281 2.640625 -70.5625 C -0.296875 -67.882812 -4.585938 -66.546875 -10.234375 -66.546875 Z M -10.234375 -66.546875 "/>
</symbol>
</g>
<g>
<symbol overflow="visible" id="malayalam-akhn-chillu-r-1:id1:glyph0-0">
<path style="stroke:none;" d="M 5.375 -96.6875 L 69.828125 -96.6875 L 69.828125 0 L 5.375 0 Z M 8.0625 -2.6875 L 67.140625 -2.6875 L 67.140625 -94 L 8.0625 -94 Z M 8.0625 -2.6875 "/>
</symbol>
<symbol overflow="visible" id="malayalam-akhn-chillu-r-1:id1:glyph0-1">
<path style="stroke:none;" d="M 68.15625 -13.75 L 66.28125 -18.640625 L 88.09375 -27.390625 L 6.984375 -27.390625 L 6.984375 -34 L 88.09375 -34 L 66.28125 -42.75 L 68.15625 -47.640625 L 99.09375 -34.265625 L 99.09375 -27.125 Z M 68.15625 -13.75 "/>
</symbol>
</g>
<g>
<symbol overflow="visible" id="malayalam-akhn-chillu-r-1:id2:glyph0-0">
<path style="stroke:none;" d="M 10.34375 0 L 10.34375 -78.546875 L 55.546875 -78.546875 L 55.546875 0 Z M 15.953125 -5.609375 L 49.9375 -5.609375 L 49.9375 -72.9375 L 15.953125 -72.9375 Z M 15.953125 -5.609375 "/>
</symbol>
<symbol overflow="visible" id="malayalam-akhn-chillu-r-1:id2:glyph0-1">
<path style="stroke:none;" d="M 22.109375 0.65625 C 20.347656 0.65625 18.457031 -0.0546875 16.4375 -1.484375 C 14.425781 -2.910156 12.519531 -4.90625 10.71875 -7.46875 C 8.925781 -10.039062 7.460938 -13.085938 6.328125 -16.609375 C 5.191406 -20.128906 4.625 -23.976562 4.625 -28.15625 C 4.625 -35.050781 6.085938 -40.988281 9.015625 -45.96875 C 11.953125 -50.957031 15.859375 -54.804688 20.734375 -57.515625 C 25.609375 -60.234375 30.976562 -61.59375 36.84375 -61.59375 C 41.175781 -61.59375 45.175781 -60.972656 48.84375 -59.734375 C 50.007812 -61.203125 51.015625 -62.832031 51.859375 -64.625 C 52.703125 -66.414062 53.125 -68.5625 53.125 -71.0625 C 53.125 -74.0625 52.222656 -76.441406 50.421875 -78.203125 C 48.628906 -79.960938 46.125 -80.84375 42.90625 -80.84375 C 41.875 -80.84375 40.898438 -80.785156 39.984375 -80.671875 C 39.066406 -80.566406 38.09375 -80.332031 37.0625 -79.96875 C 36.988281 -80.332031 36.953125 -80.660156 36.953125 -80.953125 C 36.953125 -81.253906 36.953125 -81.476562 36.953125 -81.625 C 36.953125 -83.382812 37.847656 -84.976562 39.640625 -86.40625 C 41.441406 -87.832031 43.921875 -88.546875 47.078125 -88.546875 C 50.234375 -88.546875 52.835938 -87.867188 54.890625 -86.515625 C 56.941406 -85.160156 58.5 -83.414062 59.5625 -81.28125 C 60.625 -79.15625 61.15625 -76.847656 61.15625 -74.359375 C 61.15625 -70.617188 60.492188 -67.390625 59.171875 -64.671875 C 57.859375 -61.960938 56.285156 -59.472656 54.453125 -57.203125 C 59.734375 -54.117188 63.765625 -49.804688 66.546875 -44.265625 C 69.335938 -38.734375 70.734375 -32.554688 70.734375 -25.734375 C 70.734375 -21.046875 69.890625 -16.703125 68.203125 -12.703125 C 66.515625 -8.703125 64.054688 -5.472656 60.828125 -3.015625 C 57.597656 -0.566406 53.640625 0.65625 48.953125 0.65625 C 42.566406 0.65625 37.671875 -1.523438 34.265625 -5.890625 C 30.859375 -10.253906 29.15625 -16.023438 29.15625 -23.203125 C 29.15625 -27.609375 29.847656 -31.660156 31.234375 -35.359375 C 32.628906 -39.066406 34.445312 -42.441406 36.6875 -45.484375 C 38.925781 -48.523438 41.289062 -51.257812 43.78125 -53.6875 C 41.4375 -54.5625 38.867188 -55 36.078125 -55 C 31.160156 -55 26.832031 -53.84375 23.09375 -51.53125 C 19.351562 -49.21875 16.421875 -46.023438 14.296875 -41.953125 C 12.171875 -37.890625 11.109375 -33.21875 11.109375 -27.9375 C 11.109375 -21.925781 12.535156 -16.664062 15.390625 -12.15625 C 18.253906 -7.644531 21.851562 -3.992188 26.1875 -1.203125 C 25.738281 -0.617188 25.144531 -0.164062 24.40625 0.15625 C 23.675781 0.488281 22.910156 0.65625 22.109375 0.65625 Z M 35.53125 -22.875 C 35.53125 -17.226562 36.664062 -12.992188 38.9375 -10.171875 C 41.207031 -7.347656 44.175781 -5.9375 47.84375 -5.9375 C 51.289062 -5.9375 54.1875 -7.382812 56.53125 -10.28125 C 58.882812 -13.175781 60.0625 -18.21875 60.0625 -25.40625 C 60.0625 -30.46875 59.160156 -35.304688 57.359375 -39.921875 C 55.566406 -44.546875 52.835938 -48.21875 49.171875 -50.9375 C 45.429688 -47.34375 42.222656 -43.140625 39.546875 -38.328125 C 36.867188 -33.523438 35.53125 -28.375 35.53125 -22.875 Z M 35.53125 -22.875 "/>
</symbol>
</g>
</defs>
  <g id="malayalam-akhn-chillu-r-1:id0:id0" transform="matrix(1.25,0,0,1.25,0.0,12.470703125)"><g id="malayalam-akhn-chillu-r-1:id0:surface1">
<g style="fill:rgb(0%,0%,0%);fill-opacity:1;">
  <use xlink:href="#malayalam-akhn-chillu-r-1:id0:glyph0-1" x="16" y="97.046875" class="c0"/>
  <use xlink:href="#malayalam-akhn-chillu-r-1:id0:glyph0-2" x="91.34375" y="97.046875" class="c1"/>
</g>
</g>
</g>
  <g id="malayalam-akhn-chillu-r-1:id1:id1" transform="matrix(1.25,0,0,1.25,134.1796875,0.0)"><g id="malayalam-akhn-chillu-r-1:id1:surface1">
<g style="fill:rgb(0%,0%,0%);fill-opacity:1;">
  <use xlink:href="#malayalam-akhn-chillu-r-1:id1:glyph0-1" x="0" y="120.84375" class="arrow"/>
</g>
</g>
</g>
  <g id="malayalam-akhn-chillu-r-1:id2:id2" transform="matrix(1.25,0,0,1.25,266.77734375,12.470703125)"><g id="malayalam-akhn-chillu-r-1:id2:surface1">
<g style="fill:rgb(0%,0%,0%);fill-opacity:1;">
  <use xlink:href="#malayalam-akhn-chillu-r-1:id2:glyph0-1" x="16" y="97.046875" class="c0"/>
</g>
</g>
</g>
</svg>