<!DOCTYPE svg PUBLIC "-//W3C//DTD SVG 1.1//EN" "http://www.w3.org/Graphics/SVG/1.1/DTD/svg11.dtd">
<!-- Created with svg_stack (http://github.com/astraw/svg_stack) --><svg xmlns="http://www.w3.org/2000/svg" xmlns:sodipodi="http://sodipodi.sourceforge.net/DTD/sodipodi-0.dtd" xmlns:xlink="http://www.w3.org/1999/xlink" version="1.1" width="100%" id="malayalam-cjct" viewBox="0 0 717.20703125 201.40625">
  <defs><g>
<symbol overflow="visible" id="malayalam-cjct:id0:glyph0-0">
<path style="stroke:none;" d="M 10.34375 0 L 10.34375 -78.546875 L 55.546875 -78.546875 L 55.546875 0 Z M 15.953125 -5.609375 L 49.9375 -5.609375 L 49.9375 -72.9375 L 15.953125 -72.9375 Z M 15.953125 -5.609375 "/>
</symbol>
<symbol overflow="visible" id="malayalam-cjct:id0:glyph0-1">
<path style="stroke:none;" d="M 107.796875 -61.59375 C 109.484375 -61.59375 111.316406 -60.859375 113.296875 -59.390625 C 115.273438 -57.929688 117.195312 -55.828125 119.0625 -53.078125 C 120.9375 -50.328125 122.460938 -47.023438 123.640625 -43.171875 C 124.816406 -39.328125 125.40625 -35.019531 125.40625 -30.25 C 125.40625 -20.351562 123.273438 -12.726562 119.015625 -7.375 C 114.765625 -2.019531 109.046875 0.65625 101.859375 0.65625 C 93.941406 0.65625 87.984375 -1.648438 83.984375 -6.265625 C 79.984375 -10.890625 77.984375 -17.601562 77.984375 -26.40625 L 77.984375 -36.515625 C 77.984375 -43.265625 76.972656 -48.03125 74.953125 -50.8125 C 72.941406 -53.601562 69.992188 -55 66.109375 -55 C 64.128906 -55 62.164062 -54.445312 60.21875 -53.34375 C 58.28125 -52.25 56.648438 -50.523438 55.328125 -48.171875 C 54.003906 -45.828125 53.34375 -42.785156 53.34375 -39.046875 L 53.34375 0 L 42.90625 0 L 42.90625 -38.9375 C 42.90625 -43.851562 41.640625 -47.757812 39.109375 -50.65625 C 36.578125 -53.550781 33.257812 -55 29.15625 -55 C 25.1875 -55 21.863281 -53.863281 19.1875 -51.59375 C 16.519531 -49.320312 14.503906 -46.367188 13.140625 -42.734375 C 11.785156 -39.109375 11.109375 -35.238281 11.109375 -31.125 C 11.109375 -26.070312 11.765625 -21.726562 13.078125 -18.09375 C 14.398438 -14.46875 16.195312 -11.296875 18.46875 -8.578125 C 20.75 -5.867188 23.359375 -3.410156 26.296875 -1.203125 C 25.773438 -0.546875 25.164062 -0.0703125 24.46875 0.21875 C 23.78125 0.507812 23.03125 0.65625 22.21875 0.65625 C 20.601562 0.65625 18.785156 -0.0703125 16.765625 -1.53125 C 14.753906 -3 12.8125 -5.109375 10.9375 -7.859375 C 9.070312 -10.609375 7.550781 -13.910156 6.375 -17.765625 C 5.207031 -21.617188 4.625 -25.925781 4.625 -30.6875 C 4.625 -36.1875 5.613281 -41.28125 7.59375 -45.96875 C 9.570312 -50.664062 12.445312 -54.441406 16.21875 -57.296875 C 20 -60.160156 24.53125 -61.59375 29.8125 -61.59375 C 34.570312 -61.59375 38.582031 -60.582031 41.84375 -58.5625 C 45.113281 -56.550781 47.664062 -53.894531 49.5 -50.59375 C 51.695312 -54.488281 54.390625 -57.296875 57.578125 -59.015625 C 60.773438 -60.734375 64.171875 -61.59375 67.765625 -61.59375 C 71.722656 -61.59375 75.296875 -60.675781 78.484375 -58.84375 C 81.671875 -57.007812 84.195312 -54.164062 86.0625 -50.3125 C 87.9375 -46.46875 88.875 -41.46875 88.875 -35.3125 L 88.875 -24.75 C 88.875 -19.976562 89.425781 -16.21875 90.53125 -13.46875 C 91.632812 -10.71875 93.226562 -8.789062 95.3125 -7.6875 C 97.40625 -6.59375 99.878906 -6.046875 102.734375 -6.046875 C 108.234375 -6.046875 112.300781 -8.171875 114.9375 -12.421875 C 117.582031 -16.679688 118.90625 -22.476562 118.90625 -29.8125 C 118.90625 -34.875 118.242188 -39.238281 116.921875 -42.90625 C 115.609375 -46.570312 113.8125 -49.757812 111.53125 -52.46875 C 109.257812 -55.1875 106.660156 -57.609375 103.734375 -59.734375 C 104.753906 -60.972656 106.109375 -61.59375 107.796875 -61.59375 Z M 107.796875 -61.59375 "/>
</symbol>
<symbol overflow="visible" id="malayalam-cjct:id0:glyph0-2">
<path style="stroke:none;" d="M -10.234375 -66.546875 C -15.441406 -66.546875 -19.457031 -67.222656 -22.28125 -68.578125 C -25.101562 -69.941406 -27.0625 -71.648438 -28.15625 -73.703125 C -29.257812 -75.753906 -29.8125 -77.84375 -29.8125 -79.96875 C -29.8125 -82.53125 -28.945312 -84.507812 -27.21875 -85.90625 C -25.5 -87.300781 -23.613281 -88 -21.5625 -88 C -20.675781 -88 -19.832031 -87.851562 -19.03125 -87.5625 C -19.539062 -86.09375 -19.796875 -84.585938 -19.796875 -83.046875 C -19.796875 -79.816406 -18.878906 -77.320312 -17.046875 -75.5625 C -15.210938 -73.8125 -12.71875 -72.9375 -9.5625 -72.9375 C -6.488281 -72.9375 -4.050781 -73.722656 -2.25 -75.296875 C -0.457031 -76.867188 0.4375 -79.304688 0.4375 -82.609375 C 0.4375 -84.441406 0.0703125 -86.09375 -0.65625 -87.5625 C 0 -87.78125 0.695312 -87.890625 1.4375 -87.890625 C 3.34375 -87.890625 4.753906 -87.132812 5.671875 -85.625 C 6.585938 -84.125 7.046875 -82.457031 7.046875 -80.625 C 7.046875 -76.59375 5.578125 -73.238281 2.640625 -70.5625 C -0.296875 -67.882812 -4.585938 -66.546875 -10.234375 -66.546875 Z M -10.234375 -66.546875 "/>
</symbol>
<symbol overflow="visible" id="malayalam-cjct:id0:glyph0-3">
<path style="stroke:none;" d="M 21.890625 0.65625 C 20.128906 0.65625 18.257812 -0.0703125 16.28125 -1.53125 C 14.300781 -3 12.429688 -5.050781 10.671875 -7.6875 C 8.910156 -10.332031 7.460938 -13.46875 6.328125 -17.09375 C 5.191406 -20.726562 4.625 -24.675781 4.625 -28.9375 C 4.625 -35.96875 6.070312 -41.90625 8.96875 -46.75 C 11.863281 -51.59375 15.640625 -55.273438 20.296875 -57.796875 C 24.953125 -60.328125 29.957031 -61.59375 35.3125 -61.59375 C 41.613281 -61.59375 47.164062 -60.144531 51.96875 -57.25 C 56.78125 -54.351562 60.519531 -50.394531 63.1875 -45.375 C 65.863281 -40.351562 67.203125 -34.578125 67.203125 -28.046875 C 67.203125 -23.429688 66.578125 -19.328125 65.328125 -15.734375 C 64.085938 -12.140625 62.457031 -9.128906 60.4375 -6.703125 C 58.425781 -4.285156 56.28125 -2.453125 54 -1.203125 C 51.726562 0.0351562 49.53125 0.65625 47.40625 0.65625 C 46.457031 0.65625 45.597656 0.5625 44.828125 0.375 C 44.054688 0.195312 43.453125 0 43.015625 -0.21875 C 47.265625 -3.226562 50.5625 -7.222656 52.90625 -12.203125 C 55.257812 -17.191406 56.4375 -22.617188 56.4375 -28.484375 C 56.4375 -33.835938 55.441406 -38.457031 53.453125 -42.34375 C 51.472656 -46.238281 48.816406 -49.25 45.484375 -51.375 C 42.148438 -53.5 38.351562 -54.5625 34.09375 -54.5625 C 30.0625 -54.5625 26.300781 -53.625 22.8125 -51.75 C 19.332031 -49.882812 16.507812 -47.0625 14.34375 -43.28125 C 12.1875 -39.507812 11.109375 -34.726562 11.109375 -28.9375 C 11.109375 -22.476562 12.5 -16.957031 15.28125 -12.375 C 18.070312 -7.789062 21.59375 -4.066406 25.84375 -1.203125 C 25.476562 -0.617188 24.925781 -0.164062 24.1875 0.15625 C 23.457031 0.488281 22.691406 0.65625 21.890625 0.65625 Z M 21.890625 0.65625 "/>
</symbol>
</g>
<g>
<symbol overflow="visible" id="malayalam-cjct:id1:glyph0-0">
<path style="stroke:none;" d="M 5.375 -96.6875 L 69.828125 -96.6875 L 69.828125 0 L 5.375 0 Z M 8.0625 -2.6875 L 67.140625 -2.6875 L 67.140625 -94 L 8.0625 -94 Z M 8.0625 -2.6875 "/>
</symbol>
<symbol overflow="visible" id="malayalam-cjct:id1:glyph0-1">
<path style="stroke:none;" d="M 68.15625 -13.75 L 66.28125 -18.640625 L 88.09375 -27.390625 L 6.984375 -27.390625 L 6.984375 -34 L 88.09375 -34 L 66.28125 -42.75 L 68.15625 -47.640625 L 99.09375 -34.265625 L 99.09375 -27.125 Z M 68.15625 -13.75 "/>
</symbol>
</g>
<g>
<symbol overflow="visible" id="malayalam-cjct:id2:glyph0-0">
<path style="stroke:none;" d="M 10.34375 0 L 10.34375 -78.546875 L 55.546875 -78.546875 L 55.546875 0 Z M 15.953125 -5.609375 L 49.9375 -5.609375 L 49.9375 -72.9375 L 15.953125 -72.9375 Z M 15.953125 -5.609375 "/>
</symbol>
<symbol overflow="visible" id="malayalam-cjct:id2:glyph0-1">
<path style="stroke:none;" d="M 39.15625 36.625 C 37.46875 36.625 35.671875 35.816406 33.765625 34.203125 C 31.859375 32.597656 30.226562 30.304688 28.875 27.328125 C 27.519531 24.359375 26.84375 20.929688 26.84375 17.046875 C 26.84375 11.035156 28.398438 6.234375 31.515625 2.640625 C 34.628906 -0.953125 38.425781 -3.335938 42.90625 -4.515625 L 42.90625 -38.9375 C 42.90625 -43.851562 41.640625 -47.757812 39.109375 -50.65625 C 36.578125 -53.550781 33.257812 -55 29.15625 -55 C 25.1875 -55 21.863281 -53.863281 19.1875 -51.59375 C 16.519531 -49.320312 14.503906 -46.367188 13.140625 -42.734375 C 11.785156 -39.109375 11.109375 -35.238281 11.109375 -31.125 C 11.109375 -26.070312 11.765625 -21.726562 13.078125 -18.09375 C 14.398438 -14.46875 16.195312 -11.296875 18.46875 -8.578125 C 20.75 -5.867188 23.359375 -3.410156 26.296875 -1.203125 C 25.773438 -0.546875 25.164062 -0.0703125 24.46875 0.21875 C 23.78125 0.507812 23.03125 0.65625 22.21875 0.65625 C 20.601562 0.65625 18.785156 -0.0703125 16.765625 -1.53125 C 14.753906 -3 12.8125 -5.109375 10.9375 -7.859375 C 9.070312 -10.609375 7.550781 -13.910156 6.375 -17.765625 C 5.207031 -21.617188 4.625 -25.925781 4.625 -30.6875 C 4.625 -36.1875 5.613281 -41.28125 7.59375 -45.96875 C 9.570312 -50.664062 12.445312 -54.441406 16.21875 -57.296875 C 20 -60.160156 24.53125 -61.59375 29.8125 -61.59375 C 34.570312 -61.59375 38.582031 -60.582031 41.84375 -58.5625 C 45.113281 -56.550781 47.664062 -53.894531 49.5 -50.59375 C 51.695312 -54.488281 54.390625 -57.296875 57.578125 -59.015625 C 60.773438 -60.734375 64.171875 -61.59375 67.765625 -61.59375 C 71.722656 -61.59375 75.296875 -60.675781 78.484375 -58.84375 C 81.671875 -57.007812 84.195312 -54.164062 86.0625 -50.3125 C 87.9375 -46.46875 88.875 -41.46875 88.875 -35.3125 L 88.875 -24.75 C 88.875 -19.976562 89.425781 -16.21875 90.53125 -13.46875 C 91.632812 -10.71875 93.226562 -8.789062 95.3125 -7.6875 C 97.40625 -6.59375 99.878906 -6.046875 102.734375 -6.046875 C 108.234375 -6.046875 112.300781 -8.171875 114.9375 -12.421875 C 117.582031 -16.679688 118.90625 -22.476562 118.90625 -29.8125 C 118.90625 -34.875 118.242188 -39.238281 116.921875 -42.90625 C 115.609375 -46.570312 113.8125 -49.757812 111.53125 -52.46875 C 109.257812 -55.1875 106.660156 -57.609375 103.734375 -59.734375 C 104.753906 -60.972656 106.109375 -61.59375 107.796875 -61.59375 C 109.484375 -61.59375 111.316406 -60.859375 113.296875 -59.390625 C 115.273438 -57.929688 117.195312 -55.828125 119.0625 -53.078125 C 120.9375 -50.328125 122.460938 -47.023438 123.640625 -43.171875 C 124.816406 -39.328125 125.40625 -35.019531 125.40625 -30.25 C 125.40625 -22.988281 124.265625 -17.03125 121.984375 -12.375 C 119.710938 -7.71875 116.5625 -4.363281 112.53125 -2.3125 C 115.90625 -0.40625 118.5625 2.25 120.5 5.65625 C 122.445312 9.070312 123.421875 13.085938 123.421875 17.703125 C 123.421875 21.597656 122.703125 24.972656 121.265625 27.828125 C 119.835938 30.691406 117.988281 32.890625 115.71875 34.421875 C 113.445312 35.960938 111.101562 36.734375 108.6875 36.734375 C 107.726562 36.734375 106.9375 36.585938 106.3125 36.296875 C 105.6875 36.003906 105.226562 35.710938 104.9375 35.421875 C 107.726562 33.367188 109.890625 30.945312 111.421875 28.15625 C 112.960938 25.375 113.734375 21.707031 113.734375 17.15625 C 113.734375 12.175781 112.335938 8.179688 109.546875 5.171875 C 106.765625 2.160156 103.359375 0.65625 99.328125 0.65625 C 96.617188 0.65625 94.085938 1.257812 91.734375 2.46875 C 89.390625 3.6875 87.503906 5.503906 86.078125 7.921875 C 84.648438 10.335938 83.9375 13.378906 83.9375 17.046875 C 83.9375 21.453125 84.925781 25.082031 86.90625 27.9375 C 88.882812 30.800781 91.375 33.1875 94.375 35.09375 C 94.082031 35.601562 93.601562 35.984375 92.9375 36.234375 C 92.28125 36.492188 91.332031 36.625 90.09375 36.625 C 88.40625 36.625 86.609375 35.816406 84.703125 34.203125 C 82.796875 32.597656 81.160156 30.304688 79.796875 27.328125 C 78.441406 24.359375 77.765625 20.929688 77.765625 17.046875 C 77.765625 12.285156 78.828125 8.234375 80.953125 4.890625 C 83.085938 1.554688 85.765625 -0.953125 88.984375 -2.640625 C 81.648438 -6.453125 77.984375 -14.375 77.984375 -26.40625 L 77.984375 -36.515625 C 77.984375 -43.265625 76.972656 -48.03125 74.953125 -50.8125 C 72.941406 -53.601562 69.992188 -55 66.109375 -55 C 64.128906 -55 62.164062 -54.445312 60.21875 -53.34375 C 58.28125 -52.25 56.648438 -50.523438 55.328125 -48.171875 C 54.003906 -45.828125 53.34375 -42.785156 53.34375 -39.046875 L 53.34375 -4.953125 C 58.988281 -4.210938 63.585938 -1.847656 67.140625 2.140625 C 70.703125 6.140625 72.484375 11.328125 72.484375 17.703125 C 72.484375 21.597656 71.769531 24.972656 70.34375 27.828125 C 68.914062 30.691406 67.0625 32.890625 64.78125 34.421875 C 62.507812 35.960938 60.164062 36.734375 57.75 36.734375 C 56.789062 36.734375 56 36.585938 55.375 36.296875 C 54.757812 36.003906 54.304688 35.710938 54.015625 35.421875 C 56.796875 33.367188 58.957031 30.945312 60.5 28.15625 C 62.039062 25.375 62.8125 21.707031 62.8125 17.15625 C 62.8125 12.175781 61.414062 8.179688 58.625 5.171875 C 55.84375 2.160156 52.4375 0.65625 48.40625 0.65625 C 45.6875 0.65625 43.15625 1.257812 40.8125 2.46875 C 38.46875 3.6875 36.578125 5.503906 35.140625 7.921875 C 33.710938 10.335938 33 13.378906 33 17.046875 C 33 21.453125 33.988281 25.082031 35.96875 27.9375 C 37.945312 30.800781 40.441406 33.1875 43.453125 35.09375 C 43.160156 35.601562 42.679688 35.984375 42.015625 36.234375 C 41.359375 36.492188 40.40625 36.625 39.15625 36.625 Z M 39.15625 36.625 "/>
</symbol>
</g>
</defs>
  <g id="malayalam-cjct:id0:id0" transform="matrix(1.25,0,0,1.25,0.0,12.470703125)"><g id="malayalam-cjct:id0:surface1">
<g style="fill:rgb(0%,0%,0%);fill-opacity:1;">
  <use xlink:href="#malayalam-cjct:id0:glyph0-1" x="16" y="97.046875" class="c0"/>
  <use xlink:href="#malayalam-cjct:id0:glyph0-2" x="146.015625" y="97.046875" class="c1"/>
  <use xlink:href="#malayalam-cjct:id0:glyph0-3" x="146.015625" y="97.046875" class="c2"/>
  <use xlink:href="#malayalam-cjct:id0:glyph0-2" x="217.84375" y="97.046875" class="c3"/>
  <use xlink:href="#malayalam-cjct:id0:glyph0-3" x="217.84375" y="97.046875" class="c4"/>
</g>
</g>
</g>
  <g id="malayalam-cjct:id1:id1" transform="matrix(1.25,0,0,1.25,382.08984375,0.0)"><g id="malayalam-cjct:id1:surface1">
<g style="fill:rgb(0%,0%,0%);fill-opacity:1;">
  <use xlink:href="#malayalam-cjct:id1:glyph0-1" x="0" y="120.84375" class="arrow"/>
</g>
</g>
</g>
  <g id="malayalam-cjct:id2:id2" transform="matrix(1.25,0,0,1.25,514.6875,12.470703125)"><g id="malayalam-cjct:id2:surface1">
<g style="fill:rgb(0%,0%,0%);fill-opacity:1;">
  <use xlink:href="#malayalam-cjct:id2:glyph0-1" x="16" y="97.046875" class="c5"/>
</g>
</g>
</g>
</svg>