<?xml version="1.0" standalone="no"?>
<!DOCTYPE svg PUBLIC "-//W3C//DTD SVG 1.1//EN"
 "http://www.w3.org/Graphics/SVG/1.1/DTD/svg11.dtd">
<!-- Created with svg_stack (http://github.com/astraw/svg_stack) -->
<svg xmlns="http://www.w3.org/2000/svg" xmlns:sodipodi="http://sodipodi.sourceforge.net/DTD/sodipodi-0.dtd" xmlns:xlink="http://www.w3.org/1999/xlink" version="1.1" width="480.72265625" height="201.40625">
  <defs><g>
<symbol overflow="visible" id="id0:glyph0-0">
<path style="stroke:none;" d="M 10.34375 0 L 10.34375 -78.546875 L 55.546875 -78.546875 L 55.546875 0 Z M 15.953125 -5.609375 L 49.9375 -5.609375 L 49.9375 -72.9375 L 15.953125 -72.9375 Z M 15.953125 -5.609375 "/>
</symbol>
<symbol overflow="visible" id="id0:glyph0-1">
<path style="stroke:none;" d="M 25.296875 21.671875 C 18.628906 21.671875 13.695312 20.40625 10.5 17.875 C 7.3125 15.34375 5.71875 11.953125 5.71875 7.703125 C 5.71875 3.078125 7.332031 -0.347656 10.5625 -2.578125 C 13.789062 -4.816406 18.082031 -5.9375 23.4375 -5.9375 L 46.96875 -5.9375 C 52.832031 -5.9375 56.769531 -6.90625 58.78125 -8.84375 C 60.800781 -10.789062 61.8125 -13.453125 61.8125 -16.828125 C 61.8125 -20.492188 60.582031 -23.222656 58.125 -25.015625 C 55.675781 -26.816406 52.210938 -27.753906 47.734375 -27.828125 L 47.734375 -33.328125 C 51.472656 -33.472656 54.570312 -34.390625 57.03125 -36.078125 C 59.488281 -37.765625 60.71875 -40.148438 60.71875 -43.234375 C 60.71875 -46.378906 59.78125 -48.796875 57.90625 -50.484375 C 56.039062 -52.171875 53.550781 -53.34375 50.4375 -54 C 47.320312 -54.664062 43.894531 -55 40.15625 -55 C 31.570312 -55 24.75 -53.289062 19.6875 -49.875 C 14.625 -46.46875 11.65625 -41.976562 10.78125 -36.40625 C 12.613281 -38.675781 14.773438 -40.523438 17.265625 -41.953125 C 19.765625 -43.390625 22.40625 -44.109375 25.1875 -44.109375 C 28.925781 -44.109375 32.023438 -43.351562 34.484375 -41.84375 C 36.941406 -40.34375 38.773438 -38.382812 39.984375 -35.96875 C 41.191406 -33.550781 41.796875 -30.910156 41.796875 -28.046875 C 41.796875 -22.910156 40.144531 -18.929688 36.84375 -16.109375 C 33.550781 -13.285156 29.082031 -11.875 23.4375 -11.875 C 20.351562 -11.875 17.398438 -12.625 14.578125 -14.125 C 11.753906 -15.632812 9.425781 -17.945312 7.59375 -21.0625 C 5.757812 -24.175781 4.84375 -28.117188 4.84375 -32.890625 C 4.84375 -38.679688 6.363281 -43.722656 9.40625 -48.015625 C 12.445312 -52.304688 16.769531 -55.640625 22.375 -58.015625 C 27.988281 -60.398438 34.609375 -61.59375 42.234375 -61.59375 C 50.960938 -61.59375 57.945312 -60.160156 63.1875 -57.296875 C 68.4375 -54.441406 71.0625 -49.972656 71.0625 -43.890625 C 71.0625 -41.097656 70.015625 -38.457031 67.921875 -35.96875 C 65.835938 -33.476562 62.554688 -31.753906 58.078125 -30.796875 L 58.1875 -30.359375 C 62.59375 -29.628906 66.039062 -27.832031 68.53125 -24.96875 C 71.019531 -22.113281 72.265625 -18.960938 72.265625 -15.515625 C 72.265625 -9.867188 70.226562 -5.867188 66.15625 -3.515625 C 62.09375 -1.171875 56.394531 0 49.0625 0 L 24.203125 0 C 20.171875 0 17.421875 0.601562 15.953125 1.8125 C 14.484375 3.019531 13.75 4.648438 13.75 6.703125 C 13.75 8.535156 14.519531 10.09375 16.0625 11.375 C 17.601562 12.664062 20.390625 13.3125 24.421875 13.3125 L 70.953125 13.3125 L 70.953125 21.671875 Z M 23.09375 -37.734375 C 20.75 -37.734375 18.550781 -37 16.5 -35.53125 C 14.445312 -34.0625 12.613281 -31.785156 11 -28.703125 C 11.800781 -25.035156 13.394531 -22.378906 15.78125 -20.734375 C 18.164062 -19.085938 20.492188 -18.265625 22.765625 -18.265625 C 25.773438 -18.265625 28.066406 -19.195312 29.640625 -21.0625 C 31.222656 -22.9375 32.015625 -25.226562 32.015625 -27.9375 C 32.015625 -30.726562 31.207031 -33.054688 29.59375 -34.921875 C 27.976562 -36.796875 25.8125 -37.734375 23.09375 -37.734375 Z M 23.09375 -37.734375 "/>
</symbol>
<symbol overflow="visible" id="id0:glyph0-2">
<path style="stroke:none;" d="M -10.234375 -66.546875 C -15.441406 -66.546875 -19.457031 -67.222656 -22.28125 -68.578125 C -25.101562 -69.941406 -27.0625 -71.648438 -28.15625 -73.703125 C -29.257812 -75.753906 -29.8125 -77.84375 -29.8125 -79.96875 C -29.8125 -82.53125 -28.945312 -84.507812 -27.21875 -85.90625 C -25.5 -87.300781 -23.613281 -88 -21.5625 -88 C -20.675781 -88 -19.832031 -87.851562 -19.03125 -87.5625 C -19.539062 -86.09375 -19.796875 -84.585938 -19.796875 -83.046875 C -19.796875 -79.816406 -18.878906 -77.320312 -17.046875 -75.5625 C -15.210938 -73.8125 -12.71875 -72.9375 -9.5625 -72.9375 C -6.488281 -72.9375 -4.050781 -73.722656 -2.25 -75.296875 C -0.457031 -76.867188 0.4375 -79.304688 0.4375 -82.609375 C 0.4375 -84.441406 0.0703125 -86.09375 -0.65625 -87.5625 C 0 -87.78125 0.695312 -87.890625 1.4375 -87.890625 C 3.34375 -87.890625 4.753906 -87.132812 5.671875 -85.625 C 6.585938 -84.125 7.046875 -82.457031 7.046875 -80.625 C 7.046875 -76.59375 5.578125 -73.238281 2.640625 -70.5625 C -0.296875 -67.882812 -4.585938 -66.546875 -10.234375 -66.546875 Z M -10.234375 -66.546875 "/>
</symbol>
<symbol overflow="visible" id="id0:glyph0-3">
<path style="stroke:none;" d=""/>
</symbol>
<symbol overflow="visible" id="id0:glyph0-4">
<path style="stroke:none;" d="M -2.3125 14.625 L -2.3125 -58.84375 L -9.125 -52.03125 L -11.984375 -55 L -2.96875 -64.015625 L -11.984375 -72.9375 L -9.125 -75.90625 L 0 -66.765625 L 9.125 -75.90625 L 11.984375 -72.9375 L 2.96875 -64.015625 L 11.984375 -55 L 9.125 -52.03125 L 2.3125 -58.84375 L 2.3125 14.625 Z M -2.3125 14.625 "/>
</symbol>
</g>
<g>
<symbol overflow="visible" id="id1:glyph0-0">
<path style="stroke:none;" d="M 5.375 -96.6875 L 69.828125 -96.6875 L 69.828125 0 L 5.375 0 Z M 8.0625 -2.6875 L 67.140625 -2.6875 L 67.140625 -94 L 8.0625 -94 Z M 8.0625 -2.6875 "/>
</symbol>
<symbol overflow="visible" id="id1:glyph0-1">
<path style="stroke:none;" d="M 68.15625 -13.75 L 66.28125 -18.640625 L 88.09375 -27.390625 L 6.984375 -27.390625 L 6.984375 -34 L 88.09375 -34 L 66.28125 -42.75 L 68.15625 -47.640625 L 99.09375 -34.265625 L 99.09375 -27.125 Z M 68.15625 -13.75 "/>
</symbol>
</g>
<g>
<symbol overflow="visible" id="id2:glyph0-0">
<path style="stroke:none;" d="M 10.34375 0 L 10.34375 -78.546875 L 55.546875 -78.546875 L 55.546875 0 Z M 15.953125 -5.609375 L 49.9375 -5.609375 L 49.9375 -72.9375 L 15.953125 -72.9375 Z M 15.953125 -5.609375 "/>
</symbol>
<symbol overflow="visible" id="id2:glyph0-1">
<path style="stroke:none;" d="M 28.046875 0.65625 C 20.859375 0.65625 15.15625 -2.019531 10.9375 -7.375 C 6.726562 -12.726562 4.625 -20.351562 4.625 -30.25 C 4.625 -35.019531 5.207031 -39.328125 6.375 -43.171875 C 7.550781 -47.023438 9.070312 -50.328125 10.9375 -53.078125 C 12.8125 -55.828125 14.753906 -57.929688 16.765625 -59.390625 C 18.785156 -60.859375 20.601562 -61.59375 22.21875 -61.59375 C 23.90625 -61.59375 25.265625 -60.972656 26.296875 -59.734375 C 23.429688 -57.609375 20.84375 -55.1875 18.53125 -52.46875 C 16.21875 -49.757812 14.398438 -46.570312 13.078125 -42.90625 C 11.765625 -39.238281 11.109375 -34.875 11.109375 -29.8125 C 11.109375 -22.476562 12.460938 -16.664062 15.171875 -12.375 C 17.890625 -8.082031 21.925781 -5.9375 27.28125 -5.9375 C 31.601562 -5.9375 34.992188 -7.273438 37.453125 -9.953125 C 39.910156 -12.628906 41.140625 -17.5625 41.140625 -24.75 L 41.140625 -32.125 C 41.140625 -38.71875 42.492188 -44.195312 45.203125 -48.5625 C 47.921875 -52.925781 51.570312 -56.1875 56.15625 -58.34375 C 60.738281 -60.507812 65.851562 -61.59375 71.5 -61.59375 C 75.96875 -61.59375 80.113281 -60.9375 83.9375 -59.625 C 85.175781 -61.082031 86.21875 -62.726562 87.0625 -64.5625 C 87.90625 -66.394531 88.328125 -68.5625 88.328125 -71.0625 C 88.328125 -74.0625 87.425781 -76.441406 85.625 -78.203125 C 83.832031 -79.960938 81.320312 -80.84375 78.09375 -80.84375 C 77.070312 -80.84375 76.101562 -80.785156 75.1875 -80.671875 C 74.269531 -80.566406 73.296875 -80.332031 72.265625 -79.96875 C 72.191406 -80.332031 72.15625 -80.660156 72.15625 -80.953125 C 72.15625 -81.253906 72.15625 -81.476562 72.15625 -81.625 C 72.15625 -83.382812 73.050781 -84.976562 74.84375 -86.40625 C 76.644531 -87.832031 79.125 -88.546875 82.28125 -88.546875 C 85.4375 -88.546875 88.039062 -87.867188 90.09375 -86.515625 C 92.144531 -85.160156 93.703125 -83.414062 94.765625 -81.28125 C 95.828125 -79.15625 96.359375 -76.847656 96.359375 -74.359375 C 96.359375 -70.546875 95.695312 -67.28125 94.375 -64.5625 C 93.0625 -61.851562 91.453125 -59.363281 89.546875 -57.09375 C 94.742188 -54.007812 98.773438 -49.734375 101.640625 -44.265625 C 104.503906 -38.804688 105.9375 -32.628906 105.9375 -25.734375 C 105.9375 -21.046875 105.09375 -16.703125 103.40625 -12.703125 C 101.71875 -8.703125 99.238281 -5.472656 95.96875 -3.015625 C 92.707031 -0.566406 88.734375 0.65625 84.046875 0.65625 C 77.660156 0.65625 72.78125 -1.503906 69.40625 -5.828125 C 66.03125 -10.148438 64.34375 -15.941406 64.34375 -23.203125 C 64.34375 -27.753906 65.078125 -31.914062 66.546875 -35.6875 C 68.015625 -39.46875 69.921875 -42.894531 72.265625 -45.96875 C 74.617188 -49.050781 77.078125 -51.84375 79.640625 -54.34375 C 77.078125 -55.289062 74.328125 -55.765625 71.390625 -55.765625 C 65.816406 -55.765625 61.195312 -53.929688 57.53125 -50.265625 C 53.863281 -46.597656 52.03125 -40.804688 52.03125 -32.890625 L 52.03125 -26.40625 C 52.03125 -17.601562 50.03125 -10.890625 46.03125 -6.265625 C 42.039062 -1.648438 36.046875 0.65625 28.046875 0.65625 Z M 70.734375 -22.875 C 70.734375 -17.226562 71.867188 -12.992188 74.140625 -10.171875 C 76.410156 -7.347656 79.34375 -5.9375 82.9375 -5.9375 C 85.207031 -5.9375 87.273438 -6.519531 89.140625 -7.6875 C 91.015625 -8.863281 92.503906 -10.882812 93.609375 -13.75 C 94.710938 -16.613281 95.265625 -20.535156 95.265625 -25.515625 C 95.265625 -30.503906 94.398438 -35.34375 92.671875 -40.03125 C 90.953125 -44.726562 88.332031 -48.507812 84.8125 -51.375 C 81 -47.78125 77.695312 -43.539062 74.90625 -38.65625 C 72.125 -33.78125 70.734375 -28.519531 70.734375 -22.875 Z M 70.734375 -22.875 "/>
</symbol>
</g>
</defs>
  <g id="id0:id0" transform="matrix(1.25,0,0,1.25,0.0,12.470703125)"><g id="id0:surface1">
<g style="fill:rgb(0%,0%,0%);fill-opacity:1;">
  <use xlink:href="#id0:glyph0-1" x="16" y="97.046875"/>
  <use xlink:href="#id0:glyph0-2" x="92.453125" y="97.046875"/>
  <use xlink:href="#id0:glyph0-3" x="92.453125" y="97.046875"/>
  <use xlink:href="#id0:glyph0-4" x="119.953125" y="97.046875"/>
</g>
</g>
</g>
  <g id="id1:id1" transform="matrix(1.25,0,0,1.25,169.94140625,0.0)"><g id="id1:surface1">
<g style="fill:rgb(0%,0%,0%);fill-opacity:1;">
  <use xlink:href="#id1:glyph0-1" x="0" y="120.84375"/>
</g>
</g>
</g>
  <g id="id2:id2" transform="matrix(1.25,0,0,1.25,302.5390625,12.470703125)"><g id="id2:surface1">
<g style="fill:rgb(0%,0%,0%);fill-opacity:1;">
  <use xlink:href="#id2:glyph0-1" x="16" y="97.046875"/>
</g>
</g>
</g>
</svg>
