<?xml version="1.0" standalone="no"?>
<!DOCTYPE svg PUBLIC "-//W3C//DTD SVG 1.1//EN"
 "http://www.w3.org/Graphics/SVG/1.1/DTD/svg11.dtd">
<!-- Created with svg_stack (http://github.com/astraw/svg_stack) -->
<svg xmlns="http://www.w3.org/2000/svg" xmlns:sodipodi="http://sodipodi.sourceforge.net/DTD/sodipodi-0.dtd" xmlns:xlink="http://www.w3.org/1999/xlink" version="1.1" width="512.0703125" height="201.40625">
  <defs><g>
<symbol overflow="visible" id="id0:glyph0-0">
<path style="stroke:none;" d="M 10.34375 0 L 10.34375 -78.546875 L 55.546875 -78.546875 L 55.546875 0 Z M 15.953125 -5.609375 L 49.9375 -5.609375 L 49.9375 -72.9375 L 15.953125 -72.9375 Z M 15.953125 -5.609375 "/>
</symbol>
<symbol overflow="visible" id="id0:glyph0-1">
<path style="stroke:none;" d="M 22.21875 0.65625 C 20.601562 0.65625 18.785156 -0.0703125 16.765625 -1.53125 C 14.753906 -3 12.8125 -5.109375 10.9375 -7.859375 C 9.070312 -10.609375 7.550781 -13.910156 6.375 -17.765625 C 5.207031 -21.617188 4.625 -25.925781 4.625 -30.6875 C 4.625 -36.1875 5.628906 -41.28125 7.640625 -45.96875 C 9.660156 -50.664062 12.578125 -54.441406 16.390625 -57.296875 C 20.203125 -60.160156 24.785156 -61.59375 30.140625 -61.59375 C 34.753906 -61.59375 38.691406 -60.566406 41.953125 -58.515625 C 45.222656 -56.460938 47.773438 -53.710938 49.609375 -50.265625 C 52.328125 -54.816406 55.390625 -57.84375 58.796875 -59.34375 C 62.203125 -60.84375 65.664062 -61.59375 69.1875 -61.59375 C 73.957031 -61.59375 78.320312 -60.382812 82.28125 -57.96875 C 86.238281 -55.550781 89.410156 -51.941406 91.796875 -47.140625 C 94.179688 -42.335938 95.375 -36.34375 95.375 -29.15625 C 95.375 -24.3125 94.765625 -20.019531 93.546875 -16.28125 C 92.335938 -12.539062 90.757812 -9.382812 88.8125 -6.8125 C 86.875 -4.25 84.785156 -2.328125 82.546875 -1.046875 C 80.316406 0.234375 78.175781 0.875 76.125 0.875 C 75.164062 0.875 74.28125 0.78125 73.46875 0.59375 C 72.664062 0.414062 72.082031 0.21875 71.71875 0 C 74.507812 -2.050781 76.859375 -4.613281 78.765625 -7.6875 C 80.671875 -10.769531 82.117188 -14.164062 83.109375 -17.875 C 84.097656 -21.582031 84.59375 -25.269531 84.59375 -28.9375 C 84.59375 -34.875 83.820312 -39.765625 82.28125 -43.609375 C 80.738281 -47.460938 78.703125 -50.320312 76.171875 -52.1875 C 73.640625 -54.0625 70.875 -55 67.875 -55 C 63.394531 -55 59.851562 -53.457031 57.25 -50.375 C 54.644531 -47.300781 53.34375 -43.523438 53.34375 -39.046875 L 53.34375 0 L 42.90625 0 L 42.90625 -38.9375 C 42.90625 -43.851562 41.640625 -47.757812 39.109375 -50.65625 C 36.578125 -53.550781 33.257812 -55 29.15625 -55 C 25.1875 -55 21.863281 -53.863281 19.1875 -51.59375 C 16.519531 -49.320312 14.503906 -46.367188 13.140625 -42.734375 C 11.785156 -39.109375 11.109375 -35.238281 11.109375 -31.125 C 11.109375 -26.070312 11.765625 -21.726562 13.078125 -18.09375 C 14.398438 -14.46875 16.195312 -11.296875 18.46875 -8.578125 C 20.75 -5.867188 23.359375 -3.410156 26.296875 -1.203125 C 25.265625 0.0351562 23.90625 0.65625 22.21875 0.65625 Z M 22.21875 0.65625 "/>
</symbol>
<symbol overflow="visible" id="id0:glyph0-2">
<path style="stroke:none;" d="M -10.234375 -66.546875 C -15.441406 -66.546875 -19.457031 -67.222656 -22.28125 -68.578125 C -25.101562 -69.941406 -27.0625 -71.648438 -28.15625 -73.703125 C -29.257812 -75.753906 -29.8125 -77.84375 -29.8125 -79.96875 C -29.8125 -82.53125 -28.945312 -84.507812 -27.21875 -85.90625 C -25.5 -87.300781 -23.613281 -88 -21.5625 -88 C -20.675781 -88 -19.832031 -87.851562 -19.03125 -87.5625 C -19.539062 -86.09375 -19.796875 -84.585938 -19.796875 -83.046875 C -19.796875 -79.816406 -18.878906 -77.320312 -17.046875 -75.5625 C -15.210938 -73.8125 -12.71875 -72.9375 -9.5625 -72.9375 C -6.488281 -72.9375 -4.050781 -73.722656 -2.25 -75.296875 C -0.457031 -76.867188 0.4375 -79.304688 0.4375 -82.609375 C 0.4375 -84.441406 0.0703125 -86.09375 -0.65625 -87.5625 C 0 -87.78125 0.695312 -87.890625 1.4375 -87.890625 C 3.34375 -87.890625 4.753906 -87.132812 5.671875 -85.625 C 6.585938 -84.125 7.046875 -82.457031 7.046875 -80.625 C 7.046875 -76.59375 5.578125 -73.238281 2.640625 -70.5625 C -0.296875 -67.882812 -4.585938 -66.546875 -10.234375 -66.546875 Z M -10.234375 -66.546875 "/>
</symbol>
<symbol overflow="visible" id="id0:glyph0-3">
<path style="stroke:none;" d=""/>
</symbol>
<symbol overflow="visible" id="id0:glyph0-4">
<path style="stroke:none;" d="M -2.3125 14.625 L -2.3125 -58.84375 L -9.125 -52.03125 L -11.984375 -55 L -2.96875 -64.015625 L -11.984375 -72.9375 L -9.125 -75.90625 L 0 -66.765625 L 9.125 -75.90625 L 11.984375 -72.9375 L 2.96875 -64.015625 L 11.984375 -55 L 9.125 -52.03125 L 2.3125 -58.84375 L 2.3125 14.625 Z M -2.3125 14.625 "/>
</symbol>
</g>
<g>
<symbol overflow="visible" id="id1:glyph0-0">
<path style="stroke:none;" d="M 5.375 -96.6875 L 69.828125 -96.6875 L 69.828125 0 L 5.375 0 Z M 8.0625 -2.6875 L 67.140625 -2.6875 L 67.140625 -94 L 8.0625 -94 Z M 8.0625 -2.6875 "/>
</symbol>
<symbol overflow="visible" id="id1:glyph0-1">
<path style="stroke:none;" d="M 68.15625 -13.75 L 66.28125 -18.640625 L 88.09375 -27.390625 L 6.984375 -27.390625 L 6.984375 -34 L 88.09375 -34 L 66.28125 -42.75 L 68.15625 -47.640625 L 99.09375 -34.265625 L 99.09375 -27.125 Z M 68.15625 -13.75 "/>
</symbol>
</g>
<g>
<symbol overflow="visible" id="id2:glyph0-0">
<path style="stroke:none;" d="M 10.34375 0 L 10.34375 -78.546875 L 55.546875 -78.546875 L 55.546875 0 Z M 15.953125 -5.609375 L 49.9375 -5.609375 L 49.9375 -72.9375 L 15.953125 -72.9375 Z M 15.953125 -5.609375 "/>
</symbol>
<symbol overflow="visible" id="id2:glyph0-1">
<path style="stroke:none;" d="M 53.34375 -32.5625 L 53.34375 0 L 42.90625 0 L 42.90625 -38.9375 C 42.90625 -43.851562 41.640625 -47.757812 39.109375 -50.65625 C 36.578125 -53.550781 33.257812 -55 29.15625 -55 C 25.1875 -55 21.863281 -53.863281 19.1875 -51.59375 C 16.519531 -49.320312 14.503906 -46.367188 13.140625 -42.734375 C 11.785156 -39.109375 11.109375 -35.238281 11.109375 -31.125 C 11.109375 -26.070312 11.765625 -21.726562 13.078125 -18.09375 C 14.398438 -14.46875 16.195312 -11.296875 18.46875 -8.578125 C 20.75 -5.867188 23.359375 -3.410156 26.296875 -1.203125 C 25.265625 0.0351562 23.90625 0.65625 22.21875 0.65625 C 20.601562 0.65625 18.785156 -0.0703125 16.765625 -1.53125 C 14.753906 -3 12.8125 -5.109375 10.9375 -7.859375 C 9.070312 -10.609375 7.550781 -13.910156 6.375 -17.765625 C 5.207031 -21.617188 4.625 -25.925781 4.625 -30.6875 C 4.625 -36.1875 5.628906 -41.28125 7.640625 -45.96875 C 9.660156 -50.664062 12.578125 -54.441406 16.390625 -57.296875 C 20.203125 -60.160156 24.785156 -61.59375 30.140625 -61.59375 C 35.203125 -61.59375 39.4375 -60.398438 42.84375 -58.015625 C 46.25 -55.640625 48.796875 -52.472656 50.484375 -48.515625 C 52.835938 -52.328125 56.101562 -55.457031 60.28125 -57.90625 C 64.457031 -60.363281 69.222656 -61.59375 74.578125 -61.59375 C 78.535156 -61.59375 82.3125 -60.972656 85.90625 -59.734375 C 87.082031 -61.203125 88.09375 -62.832031 88.9375 -64.625 C 89.78125 -66.414062 90.203125 -68.5625 90.203125 -71.0625 C 90.203125 -74.0625 89.300781 -76.441406 87.5 -78.203125 C 85.707031 -79.960938 83.195312 -80.84375 79.96875 -80.84375 C 78.945312 -80.84375 77.976562 -80.785156 77.0625 -80.671875 C 76.144531 -80.566406 75.171875 -80.332031 74.140625 -79.96875 C 74.066406 -80.332031 74.03125 -80.660156 74.03125 -80.953125 C 74.03125 -81.253906 74.03125 -81.476562 74.03125 -81.625 C 74.03125 -83.382812 74.925781 -84.976562 76.71875 -86.40625 C 78.519531 -87.832031 81 -88.546875 84.15625 -88.546875 C 87.300781 -88.546875 89.898438 -87.867188 91.953125 -86.515625 C 94.015625 -85.160156 95.578125 -83.414062 96.640625 -81.28125 C 97.703125 -79.15625 98.234375 -76.847656 98.234375 -74.359375 C 98.234375 -70.546875 97.550781 -67.28125 96.1875 -64.5625 C 94.832031 -61.851562 93.238281 -59.328125 91.40625 -56.984375 C 96.46875 -53.972656 100.410156 -49.695312 103.234375 -44.15625 C 106.054688 -38.625 107.46875 -32.484375 107.46875 -25.734375 C 107.46875 -21.046875 106.625 -16.703125 104.9375 -12.703125 C 103.25 -8.703125 100.789062 -5.472656 97.5625 -3.015625 C 94.34375 -0.566406 90.347656 0.65625 85.578125 0.65625 C 79.273438 0.65625 74.414062 -1.523438 71 -5.890625 C 67.59375 -10.253906 65.890625 -16.023438 65.890625 -23.203125 C 65.890625 -27.679688 66.601562 -31.753906 68.03125 -35.421875 C 69.46875 -39.085938 71.300781 -42.441406 73.53125 -45.484375 C 75.769531 -48.523438 78.132812 -51.296875 80.625 -53.796875 C 78.351562 -54.597656 75.9375 -55 73.375 -55 C 68.820312 -55 65.0625 -53.953125 62.09375 -51.859375 C 59.125 -49.773438 56.921875 -47.046875 55.484375 -43.671875 C 54.054688 -40.296875 53.34375 -36.59375 53.34375 -32.5625 Z M 72.265625 -22.875 C 72.265625 -17.226562 73.398438 -12.992188 75.671875 -10.171875 C 77.953125 -7.347656 80.890625 -5.9375 84.484375 -5.9375 C 87.929688 -5.9375 90.84375 -7.382812 93.21875 -10.28125 C 95.601562 -13.175781 96.796875 -18.253906 96.796875 -25.515625 C 96.796875 -30.578125 95.894531 -35.414062 94.09375 -40.03125 C 92.300781 -44.65625 89.570312 -48.328125 85.90625 -51.046875 C 82.164062 -47.453125 78.957031 -43.25 76.28125 -38.4375 C 73.601562 -33.632812 72.265625 -28.445312 72.265625 -22.875 Z M 72.265625 -22.875 "/>
</symbol>
</g>
</defs>
  <g id="id0:id0" transform="matrix(1.25,0,0,1.25,0.0,12.470703125)"><g id="id0:surface1">
<g style="fill:rgb(0%,0%,0%);fill-opacity:1;">
  <use xlink:href="#id0:glyph0-1" x="16" y="97.046875"/>
  <use xlink:href="#id0:glyph0-2" x="115.984375" y="97.046875"/>
  <use xlink:href="#id0:glyph0-3" x="115.984375" y="97.046875"/>
  <use xlink:href="#id0:glyph0-4" x="143.484375" y="97.046875"/>
</g>
</g>
</g>
  <g id="id1:id1" transform="matrix(1.25,0,0,1.25,199.35546875,0.0)"><g id="id1:surface1">
<g style="fill:rgb(0%,0%,0%);fill-opacity:1;">
  <use xlink:href="#id1:glyph0-1" x="0" y="120.84375"/>
</g>
</g>
</g>
  <g id="id2:id2" transform="matrix(1.25,0,0,1.25,331.953125,12.470703125)"><g id="id2:surface1">
<g style="fill:rgb(0%,0%,0%);fill-opacity:1;">
  <use xlink:href="#id2:glyph0-1" x="16" y="97.046875"/>
</g>
</g>
</g>
</svg>
