<!DOCTYPE svg PUBLIC "-//W3C//DTD SVG 1.1//EN" "http://www.w3.org/Graphics/SVG/1.1/DTD/svg11.dtd">
<!-- Created with svg_stack (http://github.com/astraw/svg_stack) --><svg xmlns="http://www.w3.org/2000/svg" xmlns:sodipodi="http://sodipodi.sourceforge.net/DTD/sodipodi-0.dtd" xmlns:xlink="http://www.w3.org/1999/xlink" version="1.1" width="645.3125" height="201.40625" id="malayalam-nukt">
  <defs><g>
<symbol overflow="visible" id="malayalam-nukt:id0:glyph0-0">
<path style="stroke:none;" d="M 10.34375 0 L 10.34375 -78.546875 L 55.546875 -78.546875 L 55.546875 0 Z M 15.953125 -5.609375 L 49.9375 -5.609375 L 49.9375 -72.9375 L 15.953125 -72.9375 Z M 15.953125 -5.609375 "/>
</symbol>
<symbol overflow="visible" id="malayalam-nukt:id0:glyph0-1">
<path style="stroke:none;" d="M 15.734375 -23.65625 C 14.265625 -23.65625 12.578125 -24.382812 10.671875 -25.84375 C 8.765625 -27.3125 7.128906 -29.398438 5.765625 -32.109375 C 4.410156 -34.828125 3.734375 -38.019531 3.734375 -41.6875 C 3.734375 -45.0625 4.503906 -48.25 6.046875 -51.25 C 7.585938 -54.257812 9.894531 -56.734375 12.96875 -58.671875 C 16.050781 -60.617188 19.941406 -61.59375 24.640625 -61.59375 C 28.816406 -61.59375 32.445312 -60.75 35.53125 -59.0625 C 38.613281 -57.382812 40.992188 -55.148438 42.671875 -52.359375 C 44.359375 -49.578125 45.203125 -46.535156 45.203125 -43.234375 C 45.203125 -41.035156 44.800781 -38.796875 44 -36.515625 C 43.195312 -34.242188 41.800781 -32.117188 39.8125 -30.140625 L 58.515625 -30.140625 L 58.515625 -36.078125 C 58.515625 -42.160156 59.648438 -47.070312 61.921875 -50.8125 C 64.203125 -54.5625 67.191406 -57.296875 70.890625 -59.015625 C 74.597656 -60.734375 78.503906 -61.59375 82.609375 -61.59375 C 89.722656 -61.59375 95.3125 -59.519531 99.375 -55.375 C 103.445312 -51.238281 105.484375 -44.804688 105.484375 -36.078125 L 105.484375 -24.3125 L 68.859375 -24.3125 L 68.859375 -5.9375 L 123.859375 -5.9375 L 123.859375 -60.9375 L 134.3125 -60.9375 L 134.3125 0 L 58.515625 0 L 58.515625 -24.3125 L 28.703125 -24.3125 L 27.609375 -26.1875 C 30.328125 -28.457031 32.269531 -30.945312 33.4375 -33.65625 C 34.613281 -36.375 35.203125 -39.382812 35.203125 -42.6875 C 35.203125 -44.664062 34.742188 -46.585938 33.828125 -48.453125 C 32.910156 -50.328125 31.550781 -51.882812 29.75 -53.125 C 27.957031 -54.375 25.738281 -55 23.09375 -55 C 19.0625 -55 15.875 -53.734375 13.53125 -51.203125 C 11.1875 -48.671875 10.015625 -45.5 10.015625 -41.6875 C 10.015625 -38.09375 10.96875 -34.9375 12.875 -32.21875 C 14.78125 -29.507812 16.90625 -27.382812 19.25 -25.84375 C 18.957031 -25.257812 18.535156 -24.75 17.984375 -24.3125 C 17.429688 -23.875 16.679688 -23.65625 15.734375 -23.65625 Z M 84.375 -55 C 79.894531 -55 76.1875 -53.660156 73.25 -50.984375 C 70.320312 -48.304688 68.859375 -43.78125 68.859375 -37.40625 L 68.859375 -30.140625 L 99 -30.140625 L 99 -37.1875 C 99 -42.6875 97.863281 -47.03125 95.59375 -50.21875 C 93.320312 -53.40625 89.582031 -55 84.375 -55 Z M 84.375 -55 "/>
</symbol>
<symbol overflow="visible" id="malayalam-nukt:id0:glyph0-2">
<path style="stroke:none;" d="M 30.90625 -46.640625 C 28.5625 -46.640625 27.390625 -47.8125 27.390625 -50.15625 C 27.390625 -52.425781 28.5625 -53.5625 30.90625 -53.5625 C 33.175781 -53.5625 34.3125 -52.425781 34.3125 -50.15625 C 34.3125 -47.8125 33.175781 -46.640625 30.90625 -46.640625 Z M 15.1875 -40.59375 C 12.832031 -40.59375 11.65625 -41.765625 11.65625 -44.109375 C 11.65625 -46.378906 12.832031 -47.515625 15.1875 -47.515625 C 17.457031 -47.515625 18.59375 -46.378906 18.59375 -44.109375 C 18.59375 -41.765625 17.457031 -40.59375 15.1875 -40.59375 Z M 46.53125 -40.59375 C 44.1875 -40.59375 43.015625 -41.765625 43.015625 -44.109375 C 43.015625 -46.378906 44.1875 -47.515625 46.53125 -47.515625 C 48.875 -47.515625 50.046875 -46.378906 50.046875 -44.109375 C 50.046875 -41.765625 48.875 -40.59375 46.53125 -40.59375 Z M 9.796875 -25.40625 C 7.441406 -25.40625 6.265625 -26.617188 6.265625 -29.046875 C 6.265625 -31.316406 7.441406 -32.453125 9.796875 -32.453125 C 12.140625 -32.453125 13.3125 -31.316406 13.3125 -29.046875 C 13.3125 -26.617188 12.140625 -25.40625 9.796875 -25.40625 Z M 51.921875 -25.40625 C 49.648438 -25.40625 48.515625 -26.617188 48.515625 -29.046875 C 48.515625 -31.316406 49.648438 -32.453125 51.921875 -32.453125 C 54.265625 -32.453125 55.4375 -31.316406 55.4375 -29.046875 C 55.4375 -26.617188 54.265625 -25.40625 51.921875 -25.40625 Z M 15.1875 -10.453125 C 12.832031 -10.453125 11.65625 -11.625 11.65625 -13.96875 C 11.65625 -16.238281 12.832031 -17.375 15.1875 -17.375 C 17.457031 -17.375 18.59375 -16.238281 18.59375 -13.96875 C 18.59375 -11.625 17.457031 -10.453125 15.1875 -10.453125 Z M 46.53125 -10.453125 C 44.1875 -10.453125 43.015625 -11.625 43.015625 -13.96875 C 43.015625 -16.238281 44.1875 -17.375 46.53125 -17.375 C 48.875 -17.375 50.046875 -16.238281 50.046875 -13.96875 C 50.046875 -11.625 48.875 -10.453125 46.53125 -10.453125 Z M 30.90625 -4.40625 C 28.5625 -4.40625 27.390625 -5.578125 27.390625 -7.921875 C 27.390625 -10.265625 28.5625 -11.4375 30.90625 -11.4375 C 33.175781 -11.4375 34.3125 -10.265625 34.3125 -7.921875 C 34.3125 -5.578125 33.175781 -4.40625 30.90625 -4.40625 Z M 30.90625 -4.40625 "/>
</symbol>
<symbol overflow="visible" id="malayalam-nukt:id0:glyph0-3">
<path style="stroke:none;" d="M -30.796875 23.3125 C -32.554688 23.3125 -34.039062 22.796875 -35.25 21.765625 C -36.457031 20.742188 -37.0625 18.988281 -37.0625 16.5 C -37.0625 13.9375 -36.457031 12.160156 -35.25 11.171875 C -34.039062 10.179688 -32.554688 9.6875 -30.796875 9.6875 C -29.109375 9.6875 -27.640625 10.179688 -26.390625 11.171875 C -25.148438 12.160156 -24.53125 13.9375 -24.53125 16.5 C -24.53125 18.988281 -25.148438 20.742188 -26.390625 21.765625 C -27.640625 22.796875 -29.109375 23.3125 -30.796875 23.3125 Z M -30.796875 23.3125 "/>
</symbol>
</g>
<g>
<symbol overflow="visible" id="malayalam-nukt:id1:glyph0-0">
<path style="stroke:none;" d="M 5.375 -96.6875 L 69.828125 -96.6875 L 69.828125 0 L 5.375 0 Z M 8.0625 -2.6875 L 67.140625 -2.6875 L 67.140625 -94 L 8.0625 -94 Z M 8.0625 -2.6875 "/>
</symbol>
<symbol overflow="visible" id="malayalam-nukt:id1:glyph0-1">
<path style="stroke:none;" d="M 68.15625 -13.75 L 66.28125 -18.640625 L 88.09375 -27.390625 L 6.984375 -27.390625 L 6.984375 -34 L 88.09375 -34 L 66.28125 -42.75 L 68.15625 -47.640625 L 99.09375 -34.265625 L 99.09375 -27.125 Z M 68.15625 -13.75 "/>
</symbol>
</g>
<g>
<symbol overflow="visible" id="malayalam-nukt:id2:glyph0-0">
<path style="stroke:none;" d="M 10.34375 0 L 10.34375 -78.546875 L 55.546875 -78.546875 L 55.546875 0 Z M 15.953125 -5.609375 L 49.9375 -5.609375 L 49.9375 -72.9375 L 15.953125 -72.9375 Z M 15.953125 -5.609375 "/>
</symbol>
<symbol overflow="visible" id="malayalam-nukt:id2:glyph0-1">
<path style="stroke:none;" d="M 15.734375 -23.65625 C 14.265625 -23.65625 12.578125 -24.382812 10.671875 -25.84375 C 8.765625 -27.3125 7.128906 -29.398438 5.765625 -32.109375 C 4.410156 -34.828125 3.734375 -38.019531 3.734375 -41.6875 C 3.734375 -45.0625 4.503906 -48.25 6.046875 -51.25 C 7.585938 -54.257812 9.894531 -56.734375 12.96875 -58.671875 C 16.050781 -60.617188 19.941406 -61.59375 24.640625 -61.59375 C 28.816406 -61.59375 32.445312 -60.75 35.53125 -59.0625 C 38.613281 -57.382812 40.992188 -55.148438 42.671875 -52.359375 C 44.359375 -49.578125 45.203125 -46.535156 45.203125 -43.234375 C 45.203125 -41.035156 44.800781 -38.796875 44 -36.515625 C 43.195312 -34.242188 41.800781 -32.117188 39.8125 -30.140625 L 58.515625 -30.140625 L 58.515625 -36.078125 C 58.515625 -42.160156 59.648438 -47.070312 61.921875 -50.8125 C 64.203125 -54.5625 67.191406 -57.296875 70.890625 -59.015625 C 74.597656 -60.734375 78.503906 -61.59375 82.609375 -61.59375 C 89.722656 -61.59375 95.3125 -59.519531 99.375 -55.375 C 103.445312 -51.238281 105.484375 -44.804688 105.484375 -36.078125 L 105.484375 -24.3125 L 68.859375 -24.3125 L 68.859375 -5.9375 L 123.859375 -5.9375 L 123.859375 -60.9375 L 134.3125 -60.9375 L 134.3125 0 L 58.515625 0 L 58.515625 -24.3125 L 28.703125 -24.3125 L 27.609375 -26.1875 C 30.328125 -28.457031 32.269531 -30.945312 33.4375 -33.65625 C 34.613281 -36.375 35.203125 -39.382812 35.203125 -42.6875 C 35.203125 -44.664062 34.742188 -46.585938 33.828125 -48.453125 C 32.910156 -50.328125 31.550781 -51.882812 29.75 -53.125 C 27.957031 -54.375 25.738281 -55 23.09375 -55 C 19.0625 -55 15.875 -53.734375 13.53125 -51.203125 C 11.1875 -48.671875 10.015625 -45.5 10.015625 -41.6875 C 10.015625 -38.09375 10.96875 -34.9375 12.875 -32.21875 C 14.78125 -29.507812 16.90625 -27.382812 19.25 -25.84375 C 18.957031 -25.257812 18.535156 -24.75 17.984375 -24.3125 C 17.429688 -23.875 16.679688 -23.65625 15.734375 -23.65625 Z M 84.375 -55 C 79.894531 -55 76.1875 -53.660156 73.25 -50.984375 C 70.320312 -48.304688 68.859375 -43.78125 68.859375 -37.40625 L 68.859375 -30.140625 L 99 -30.140625 L 99 -37.1875 C 99 -42.6875 97.863281 -47.03125 95.59375 -50.21875 C 93.320312 -53.40625 89.582031 -55 84.375 -55 Z M 84.375 -55 "/>
</symbol>
<symbol overflow="visible" id="malayalam-nukt:id2:glyph0-2">
<path style="stroke:none;" d="M -30.796875 23.3125 C -32.554688 23.3125 -34.039062 22.796875 -35.25 21.765625 C -36.457031 20.742188 -37.0625 18.988281 -37.0625 16.5 C -37.0625 13.9375 -36.457031 12.160156 -35.25 11.171875 C -34.039062 10.179688 -32.554688 9.6875 -30.796875 9.6875 C -29.109375 9.6875 -27.640625 10.179688 -26.390625 11.171875 C -25.148438 12.160156 -24.53125 13.9375 -24.53125 16.5 C -24.53125 18.988281 -25.148438 20.742188 -26.390625 21.765625 C -27.640625 22.796875 -29.109375 23.3125 -30.796875 23.3125 Z M -30.796875 23.3125 "/>
</symbol>
</g>
</defs>
  <g id="malayalam-nukt:id0:id0" transform="matrix(1.25,0,0,1.25,0.0,12.470703125)"><g id="malayalam-nukt:id0:surface1">
<g style="fill:rgb(0%,0%,0%);fill-opacity:1;">
  <use xlink:href="#malayalam-nukt:id0:glyph0-1" x="16" y="97.046875" class="c0"/>
  <use xlink:href="#malayalam-nukt:id0:glyph0-2" x="158.234375" y="97.046875" class="dc"/>
  <use xlink:href="#malayalam-nukt:id0:glyph0-3" x="219.9375" y="97.046875" class="c1"/>
</g>
</g>
</g>
  <g id="malayalam-nukt:id1:id1" transform="matrix(1.25,0,0,1.25,294.921875,0.0)"><g id="malayalam-nukt:id1:surface1">
<g style="fill:rgb(0%,0%,0%);fill-opacity:1;">
  <use xlink:href="#malayalam-nukt:id1:glyph0-1" x="0" y="120.84375" class="arrow"/>
</g>
</g>
</g>
  <g id="malayalam-nukt:id2:id2" transform="matrix(1.25,0,0,1.25,427.51953125,12.470703125)"><g id="malayalam-nukt:id2:surface1">
<g style="fill:rgb(0%,0%,0%);fill-opacity:1;">
  <use xlink:href="#malayalam-nukt:id2:glyph0-1" x="16" y="97.046875" class="c2"/>
  <use xlink:href="#malayalam-nukt:id2:glyph0-2" x="158.234375" y="97.046875" class="c2"/>
</g>
</g>
</g>
</svg>
