<!DOCTYPE svg PUBLIC "-//W3C//DTD SVG 1.1//EN" "http://www.w3.org/Graphics/SVG/1.1/DTD/svg11.dtd">
<!-- Created with svg_stack (http://github.com/astraw/svg_stack) --><svg xmlns="http://www.w3.org/2000/svg" xmlns:sodipodi="http://sodipodi.sourceforge.net/DTD/sodipodi-0.dtd" xmlns:xlink="http://www.w3.org/1999/xlink" version="1.1" width="837.8125" height="201.40625" id="malayalam-matra-decompose">
  <defs><g>
<symbol overflow="visible" id="malayalam-matra-decompose:id0:glyph0-0">
<path style="stroke:none;" d="M 10.34375 0 L 10.34375 -78.546875 L 55.546875 -78.546875 L 55.546875 0 Z M 15.953125 -5.609375 L 49.9375 -5.609375 L 49.9375 -72.9375 L 15.953125 -72.9375 Z M 15.953125 -5.609375 "/>
</symbol>
<symbol overflow="visible" id="malayalam-matra-decompose:id0:glyph0-1">
<path style="stroke:none;" d="M 27.71875 0.65625 C 23.757812 0.65625 20.3125 -0.128906 17.375 -1.703125 C 14.445312 -3.273438 12.046875 -5.414062 10.171875 -8.125 C 8.304688 -10.84375 6.914062 -13.851562 6 -17.15625 C 5.082031 -20.457031 4.625 -23.796875 4.625 -27.171875 C 4.625 -34.867188 6.179688 -41.265625 9.296875 -46.359375 C 12.410156 -51.460938 16.535156 -55.273438 21.671875 -57.796875 C 26.804688 -60.328125 32.34375 -61.59375 38.28125 -61.59375 C 45.101562 -61.59375 51.023438 -60.144531 56.046875 -57.25 C 61.066406 -54.351562 64.929688 -50.394531 67.640625 -45.375 C 70.359375 -40.351562 71.71875 -34.578125 71.71875 -28.046875 C 71.71875 -23.285156 71.113281 -19.085938 69.90625 -15.453125 C 68.695312 -11.828125 67.117188 -8.800781 65.171875 -6.375 C 63.234375 -3.957031 61.144531 -2.144531 58.90625 -0.9375 C 56.664062 0.269531 54.519531 0.875 52.46875 0.875 C 51.519531 0.875 50.710938 0.78125 50.046875 0.59375 C 49.390625 0.414062 48.84375 0.21875 48.40625 0 C 52.289062 -3.082031 55.347656 -6.894531 57.578125 -11.4375 C 59.816406 -15.988281 60.9375 -21.5625 60.9375 -28.15625 C 60.9375 -36.519531 58.71875 -43.007812 54.28125 -47.625 C 49.84375 -52.25 44.03125 -54.5625 36.84375 -54.5625 C 32.226562 -54.5625 27.921875 -53.570312 23.921875 -51.59375 C 19.929688 -49.613281 16.722656 -46.601562 14.296875 -42.5625 C 11.878906 -38.53125 10.671875 -33.363281 10.671875 -27.0625 C 10.671875 -26.25 10.707031 -25.476562 10.78125 -24.75 C 12.757812 -27.90625 15.25 -30.472656 18.25 -32.453125 C 21.257812 -34.429688 24.671875 -35.421875 28.484375 -35.421875 C 32.078125 -35.421875 35.210938 -34.628906 37.890625 -33.046875 C 40.566406 -31.472656 42.65625 -29.347656 44.15625 -26.671875 C 45.664062 -23.992188 46.421875 -20.929688 46.421875 -17.484375 C 46.421875 -12.285156 44.769531 -7.960938 41.46875 -4.515625 C 38.164062 -1.066406 33.582031 0.65625 27.71875 0.65625 Z M 25.84375 -28.703125 C 22.84375 -28.703125 20.148438 -27.675781 17.765625 -25.625 C 15.378906 -23.570312 13.378906 -21.15625 11.765625 -18.375 C 13.015625 -14.1875 14.957031 -11.066406 17.59375 -9.015625 C 20.238281 -6.960938 22.953125 -5.9375 25.734375 -5.9375 C 29.253906 -5.9375 31.910156 -7.054688 33.703125 -9.296875 C 35.503906 -11.535156 36.40625 -14.265625 36.40625 -17.484375 C 36.40625 -21.148438 35.378906 -23.9375 33.328125 -25.84375 C 31.273438 -27.75 28.78125 -28.703125 25.84375 -28.703125 Z M 25.84375 -28.703125 "/>
</symbol>
<symbol overflow="visible" id="malayalam-matra-decompose:id0:glyph0-2">
<path style="stroke:none;" d="M 30.90625 -46.640625 C 28.5625 -46.640625 27.390625 -47.8125 27.390625 -50.15625 C 27.390625 -52.425781 28.5625 -53.5625 30.90625 -53.5625 C 33.175781 -53.5625 34.3125 -52.425781 34.3125 -50.15625 C 34.3125 -47.8125 33.175781 -46.640625 30.90625 -46.640625 Z M 15.1875 -40.59375 C 12.832031 -40.59375 11.65625 -41.765625 11.65625 -44.109375 C 11.65625 -46.378906 12.832031 -47.515625 15.1875 -47.515625 C 17.457031 -47.515625 18.59375 -46.378906 18.59375 -44.109375 C 18.59375 -41.765625 17.457031 -40.59375 15.1875 -40.59375 Z M 46.53125 -40.59375 C 44.1875 -40.59375 43.015625 -41.765625 43.015625 -44.109375 C 43.015625 -46.378906 44.1875 -47.515625 46.53125 -47.515625 C 48.875 -47.515625 50.046875 -46.378906 50.046875 -44.109375 C 50.046875 -41.765625 48.875 -40.59375 46.53125 -40.59375 Z M 9.796875 -25.40625 C 7.441406 -25.40625 6.265625 -26.617188 6.265625 -29.046875 C 6.265625 -31.316406 7.441406 -32.453125 9.796875 -32.453125 C 12.140625 -32.453125 13.3125 -31.316406 13.3125 -29.046875 C 13.3125 -26.617188 12.140625 -25.40625 9.796875 -25.40625 Z M 51.921875 -25.40625 C 49.648438 -25.40625 48.515625 -26.617188 48.515625 -29.046875 C 48.515625 -31.316406 49.648438 -32.453125 51.921875 -32.453125 C 54.265625 -32.453125 55.4375 -31.316406 55.4375 -29.046875 C 55.4375 -26.617188 54.265625 -25.40625 51.921875 -25.40625 Z M 15.1875 -10.453125 C 12.832031 -10.453125 11.65625 -11.625 11.65625 -13.96875 C 11.65625 -16.238281 12.832031 -17.375 15.1875 -17.375 C 17.457031 -17.375 18.59375 -16.238281 18.59375 -13.96875 C 18.59375 -11.625 17.457031 -10.453125 15.1875 -10.453125 Z M 46.53125 -10.453125 C 44.1875 -10.453125 43.015625 -11.625 43.015625 -13.96875 C 43.015625 -16.238281 44.1875 -17.375 46.53125 -17.375 C 48.875 -17.375 50.046875 -16.238281 50.046875 -13.96875 C 50.046875 -11.625 48.875 -10.453125 46.53125 -10.453125 Z M 30.90625 -4.40625 C 28.5625 -4.40625 27.390625 -5.578125 27.390625 -7.921875 C 27.390625 -10.265625 28.5625 -11.4375 30.90625 -11.4375 C 33.175781 -11.4375 34.3125 -10.265625 34.3125 -7.921875 C 34.3125 -5.578125 33.175781 -4.40625 30.90625 -4.40625 Z M 30.90625 -4.40625 "/>
</symbol>
<symbol overflow="visible" id="malayalam-matra-decompose:id0:glyph0-3">
<path style="stroke:none;" d="M 44.109375 0.65625 C 39.117188 0.65625 35.175781 0.21875 32.28125 -0.65625 C 29.382812 -1.539062 27.3125 -2.625 26.0625 -3.90625 C 24.820312 -5.1875 24.203125 -6.34375 24.203125 -7.375 C 24.203125 -7.8125 24.253906 -8.304688 24.359375 -8.859375 C 24.472656 -9.410156 24.601562 -9.832031 24.75 -10.125 C 27.539062 -8.875 30.347656 -7.863281 33.171875 -7.09375 C 35.992188 -6.320312 39.421875 -5.9375 43.453125 -5.9375 C 50.859375 -5.9375 56.410156 -8.097656 60.109375 -12.421875 C 63.816406 -16.753906 65.671875 -23.867188 65.671875 -33.765625 C 65.671875 -40.078125 64.734375 -45.191406 62.859375 -49.109375 C 60.992188 -53.035156 57.820312 -55 53.34375 -55 C 50.34375 -55 47.703125 -53.863281 45.421875 -51.59375 C 43.148438 -49.320312 42.015625 -45.691406 42.015625 -40.703125 L 42.015625 -25.625 L 31.5625 -25.625 L 31.5625 -40.265625 C 31.5625 -45.242188 30.644531 -48.941406 28.8125 -51.359375 C 26.976562 -53.785156 24.34375 -55 20.90625 -55 C 17.382812 -55 14.59375 -53.75 12.53125 -51.25 C 10.476562 -48.757812 9.453125 -45.789062 9.453125 -42.34375 C 9.453125 -38.976562 9.984375 -36.046875 11.046875 -33.546875 C 12.117188 -31.054688 13.789062 -28.5625 16.0625 -26.0625 C 15.550781 -25.695312 15.035156 -25.441406 14.515625 -25.296875 C 14.003906 -25.148438 13.492188 -25.078125 12.984375 -25.078125 C 11.441406 -25.078125 9.914062 -25.789062 8.40625 -27.21875 C 6.90625 -28.65625 5.660156 -30.691406 4.671875 -33.328125 C 3.679688 -35.972656 3.1875 -39.09375 3.1875 -42.6875 C 3.1875 -46.195312 3.972656 -49.382812 5.546875 -52.25 C 7.128906 -55.113281 9.347656 -57.382812 12.203125 -59.0625 C 15.066406 -60.75 18.40625 -61.59375 22.21875 -61.59375 C 25.664062 -61.59375 28.816406 -60.769531 31.671875 -59.125 C 34.535156 -57.476562 36.773438 -55.148438 38.390625 -52.140625 C 40.585938 -55.515625 43.097656 -57.929688 45.921875 -59.390625 C 48.742188 -60.859375 51.769531 -61.59375 55 -61.59375 C 60.0625 -61.59375 64.148438 -60.382812 67.265625 -57.96875 C 70.378906 -55.550781 72.671875 -52.234375 74.140625 -48.015625 C 75.609375 -43.796875 76.34375 -38.9375 76.34375 -33.4375 C 76.34375 -26.613281 75.296875 -20.65625 73.203125 -15.5625 C 71.109375 -10.46875 67.710938 -6.488281 63.015625 -3.625 C 58.328125 -0.769531 52.023438 0.65625 44.109375 0.65625 Z M 44.109375 0.65625 "/>
</symbol>
</g>
<g>
<symbol overflow="visible" id="malayalam-matra-decompose:id1:glyph0-0">
<path style="stroke:none;" d="M 5.375 -96.6875 L 69.828125 -96.6875 L 69.828125 0 L 5.375 0 Z M 8.0625 -2.6875 L 67.140625 -2.6875 L 67.140625 -94 L 8.0625 -94 Z M 8.0625 -2.6875 "/>
</symbol>
<symbol overflow="visible" id="malayalam-matra-decompose:id1:glyph0-1">
<path style="stroke:none;" d="M 68.15625 -13.75 L 66.28125 -18.640625 L 88.09375 -27.390625 L 6.984375 -27.390625 L 6.984375 -34 L 88.09375 -34 L 66.28125 -42.75 L 68.15625 -47.640625 L 99.09375 -34.265625 L 99.09375 -27.125 Z M 68.15625 -13.75 "/>
</symbol>
</g>
<g>
<symbol overflow="visible" id="malayalam-matra-decompose:id2:glyph0-0">
<path style="stroke:none;" d="M 10.34375 0 L 10.34375 -78.546875 L 55.546875 -78.546875 L 55.546875 0 Z M 15.953125 -5.609375 L 49.9375 -5.609375 L 49.9375 -72.9375 L 15.953125 -72.9375 Z M 15.953125 -5.609375 "/>
</symbol>
<symbol overflow="visible" id="malayalam-matra-decompose:id2:glyph0-1">
<path style="stroke:none;" d="M 27.71875 0.65625 C 23.757812 0.65625 20.3125 -0.128906 17.375 -1.703125 C 14.445312 -3.273438 12.046875 -5.414062 10.171875 -8.125 C 8.304688 -10.84375 6.914062 -13.851562 6 -17.15625 C 5.082031 -20.457031 4.625 -23.796875 4.625 -27.171875 C 4.625 -34.867188 6.179688 -41.265625 9.296875 -46.359375 C 12.410156 -51.460938 16.535156 -55.273438 21.671875 -57.796875 C 26.804688 -60.328125 32.34375 -61.59375 38.28125 -61.59375 C 45.101562 -61.59375 51.023438 -60.144531 56.046875 -57.25 C 61.066406 -54.351562 64.929688 -50.394531 67.640625 -45.375 C 70.359375 -40.351562 71.71875 -34.578125 71.71875 -28.046875 C 71.71875 -23.285156 71.113281 -19.085938 69.90625 -15.453125 C 68.695312 -11.828125 67.117188 -8.800781 65.171875 -6.375 C 63.234375 -3.957031 61.144531 -2.144531 58.90625 -0.9375 C 56.664062 0.269531 54.519531 0.875 52.46875 0.875 C 51.519531 0.875 50.710938 0.78125 50.046875 0.59375 C 49.390625 0.414062 48.84375 0.21875 48.40625 0 C 52.289062 -3.082031 55.347656 -6.894531 57.578125 -11.4375 C 59.816406 -15.988281 60.9375 -21.5625 60.9375 -28.15625 C 60.9375 -36.519531 58.71875 -43.007812 54.28125 -47.625 C 49.84375 -52.25 44.03125 -54.5625 36.84375 -54.5625 C 32.226562 -54.5625 27.921875 -53.570312 23.921875 -51.59375 C 19.929688 -49.613281 16.722656 -46.601562 14.296875 -42.5625 C 11.878906 -38.53125 10.671875 -33.363281 10.671875 -27.0625 C 10.671875 -26.25 10.707031 -25.476562 10.78125 -24.75 C 12.757812 -27.90625 15.25 -30.472656 18.25 -32.453125 C 21.257812 -34.429688 24.671875 -35.421875 28.484375 -35.421875 C 32.078125 -35.421875 35.210938 -34.628906 37.890625 -33.046875 C 40.566406 -31.472656 42.65625 -29.347656 44.15625 -26.671875 C 45.664062 -23.992188 46.421875 -20.929688 46.421875 -17.484375 C 46.421875 -12.285156 44.769531 -7.960938 41.46875 -4.515625 C 38.164062 -1.066406 33.582031 0.65625 27.71875 0.65625 Z M 25.84375 -28.703125 C 22.84375 -28.703125 20.148438 -27.675781 17.765625 -25.625 C 15.378906 -23.570312 13.378906 -21.15625 11.765625 -18.375 C 13.015625 -14.1875 14.957031 -11.066406 17.59375 -9.015625 C 20.238281 -6.960938 22.953125 -5.9375 25.734375 -5.9375 C 29.253906 -5.9375 31.910156 -7.054688 33.703125 -9.296875 C 35.503906 -11.535156 36.40625 -14.265625 36.40625 -17.484375 C 36.40625 -21.148438 35.378906 -23.9375 33.328125 -25.84375 C 31.273438 -27.75 28.78125 -28.703125 25.84375 -28.703125 Z M 25.84375 -28.703125 "/>
</symbol>
<symbol overflow="visible" id="malayalam-matra-decompose:id2:glyph0-2">
<path style="stroke:none;" d="M 30.90625 -46.640625 C 28.5625 -46.640625 27.390625 -47.8125 27.390625 -50.15625 C 27.390625 -52.425781 28.5625 -53.5625 30.90625 -53.5625 C 33.175781 -53.5625 34.3125 -52.425781 34.3125 -50.15625 C 34.3125 -47.8125 33.175781 -46.640625 30.90625 -46.640625 Z M 15.1875 -40.59375 C 12.832031 -40.59375 11.65625 -41.765625 11.65625 -44.109375 C 11.65625 -46.378906 12.832031 -47.515625 15.1875 -47.515625 C 17.457031 -47.515625 18.59375 -46.378906 18.59375 -44.109375 C 18.59375 -41.765625 17.457031 -40.59375 15.1875 -40.59375 Z M 46.53125 -40.59375 C 44.1875 -40.59375 43.015625 -41.765625 43.015625 -44.109375 C 43.015625 -46.378906 44.1875 -47.515625 46.53125 -47.515625 C 48.875 -47.515625 50.046875 -46.378906 50.046875 -44.109375 C 50.046875 -41.765625 48.875 -40.59375 46.53125 -40.59375 Z M 9.796875 -25.40625 C 7.441406 -25.40625 6.265625 -26.617188 6.265625 -29.046875 C 6.265625 -31.316406 7.441406 -32.453125 9.796875 -32.453125 C 12.140625 -32.453125 13.3125 -31.316406 13.3125 -29.046875 C 13.3125 -26.617188 12.140625 -25.40625 9.796875 -25.40625 Z M 51.921875 -25.40625 C 49.648438 -25.40625 48.515625 -26.617188 48.515625 -29.046875 C 48.515625 -31.316406 49.648438 -32.453125 51.921875 -32.453125 C 54.265625 -32.453125 55.4375 -31.316406 55.4375 -29.046875 C 55.4375 -26.617188 54.265625 -25.40625 51.921875 -25.40625 Z M 15.1875 -10.453125 C 12.832031 -10.453125 11.65625 -11.625 11.65625 -13.96875 C 11.65625 -16.238281 12.832031 -17.375 15.1875 -17.375 C 17.457031 -17.375 18.59375 -16.238281 18.59375 -13.96875 C 18.59375 -11.625 17.457031 -10.453125 15.1875 -10.453125 Z M 46.53125 -10.453125 C 44.1875 -10.453125 43.015625 -11.625 43.015625 -13.96875 C 43.015625 -16.238281 44.1875 -17.375 46.53125 -17.375 C 48.875 -17.375 50.046875 -16.238281 50.046875 -13.96875 C 50.046875 -11.625 48.875 -10.453125 46.53125 -10.453125 Z M 30.90625 -4.40625 C 28.5625 -4.40625 27.390625 -5.578125 27.390625 -7.921875 C 27.390625 -10.265625 28.5625 -11.4375 30.90625 -11.4375 C 33.175781 -11.4375 34.3125 -10.265625 34.3125 -7.921875 C 34.3125 -5.578125 33.175781 -4.40625 30.90625 -4.40625 Z M 30.90625 -4.40625 "/>
</symbol>
<symbol overflow="visible" id="malayalam-matra-decompose:id2:glyph0-3">
<path style="stroke:none;" d="M 44.109375 0.65625 C 39.117188 0.65625 35.175781 0.21875 32.28125 -0.65625 C 29.382812 -1.539062 27.3125 -2.625 26.0625 -3.90625 C 24.820312 -5.1875 24.203125 -6.34375 24.203125 -7.375 C 24.203125 -7.8125 24.253906 -8.304688 24.359375 -8.859375 C 24.472656 -9.410156 24.601562 -9.832031 24.75 -10.125 C 27.539062 -8.875 30.347656 -7.863281 33.171875 -7.09375 C 35.992188 -6.320312 39.421875 -5.9375 43.453125 -5.9375 C 50.859375 -5.9375 56.410156 -8.097656 60.109375 -12.421875 C 63.816406 -16.753906 65.671875 -23.867188 65.671875 -33.765625 C 65.671875 -40.078125 64.734375 -45.191406 62.859375 -49.109375 C 60.992188 -53.035156 57.820312 -55 53.34375 -55 C 50.34375 -55 47.703125 -53.863281 45.421875 -51.59375 C 43.148438 -49.320312 42.015625 -45.691406 42.015625 -40.703125 L 42.015625 -25.625 L 31.5625 -25.625 L 31.5625 -40.265625 C 31.5625 -45.242188 30.644531 -48.941406 28.8125 -51.359375 C 26.976562 -53.785156 24.34375 -55 20.90625 -55 C 17.382812 -55 14.59375 -53.75 12.53125 -51.25 C 10.476562 -48.757812 9.453125 -45.789062 9.453125 -42.34375 C 9.453125 -38.976562 9.984375 -36.046875 11.046875 -33.546875 C 12.117188 -31.054688 13.789062 -28.5625 16.0625 -26.0625 C 15.550781 -25.695312 15.035156 -25.441406 14.515625 -25.296875 C 14.003906 -25.148438 13.492188 -25.078125 12.984375 -25.078125 C 11.441406 -25.078125 9.914062 -25.789062 8.40625 -27.21875 C 6.90625 -28.65625 5.660156 -30.691406 4.671875 -33.328125 C 3.679688 -35.972656 3.1875 -39.09375 3.1875 -42.6875 C 3.1875 -46.195312 3.972656 -49.382812 5.546875 -52.25 C 7.128906 -55.113281 9.347656 -57.382812 12.203125 -59.0625 C 15.066406 -60.75 18.40625 -61.59375 22.21875 -61.59375 C 25.664062 -61.59375 28.816406 -60.769531 31.671875 -59.125 C 34.535156 -57.476562 36.773438 -55.148438 38.390625 -52.140625 C 40.585938 -55.515625 43.097656 -57.929688 45.921875 -59.390625 C 48.742188 -60.859375 51.769531 -61.59375 55 -61.59375 C 60.0625 -61.59375 64.148438 -60.382812 67.265625 -57.96875 C 70.378906 -55.550781 72.671875 -52.234375 74.140625 -48.015625 C 75.609375 -43.796875 76.34375 -38.9375 76.34375 -33.4375 C 76.34375 -26.613281 75.296875 -20.65625 73.203125 -15.5625 C 71.109375 -10.46875 67.710938 -6.488281 63.015625 -3.625 C 58.328125 -0.769531 52.023438 0.65625 44.109375 0.65625 Z M 44.109375 0.65625 "/>
</symbol>
</g>
</defs>
  <g id="malayalam-matra-decompose:id0:id0" transform="matrix(1.25,0,0,1.25,0.0,12.470703125)"><g id="malayalam-matra-decompose:id0:surface1">
<g style="fill:rgb(0%,0%,0%);fill-opacity:1;">
  <use xlink:href="#malayalam-matra-decompose:id0:glyph0-1" x="16" y="97.046875" class="c0"/>
  <use xlink:href="#malayalam-matra-decompose:id0:glyph0-2" x="92.34375" y="97.046875" class="dc"/>
  <use xlink:href="#malayalam-matra-decompose:id0:glyph0-3" x="154.046875" y="97.046875" class="c0"/>
</g>
</g>
</g>
  <g id="malayalam-matra-decompose:id1:id1" transform="matrix(1.25,0,0,1.25,314.04296875,0.0)"><g id="malayalam-matra-decompose:id1:surface1">
<g style="fill:rgb(0%,0%,0%);fill-opacity:1;">
  <use xlink:href="#malayalam-matra-decompose:id1:glyph0-1" x="0" y="120.84375" class="arrow"/>
</g>
</g>
</g>
  <g id="malayalam-matra-decompose:id2:id2" transform="matrix(1.25,0,0,1.25,446.640625,12.470703125)"><g id="malayalam-matra-decompose:id2:surface1">
<g style="fill:rgb(0%,0%,0%);fill-opacity:1;">
  <use xlink:href="#malayalam-matra-decompose:id2:glyph0-1" x="16" y="97.046875" class="c1"/>
  <use xlink:href="#malayalam-matra-decompose:id2:glyph0-2" x="92.34375" y="97.046875" class="dc"/>
  <use xlink:href="#malayalam-matra-decompose:id2:glyph0-2" x="154.046875" y="97.046875" class="dc"/>
  <use xlink:href="#malayalam-matra-decompose:id2:glyph0-3" x="215.75" y="97.046875" class="c2"/>
</g>
</g>
</g>
</svg>
