<!DOCTYPE svg PUBLIC "-//W3C//DTD SVG 1.1//EN" "http://www.w3.org/Graphics/SVG/1.1/DTD/svg11.dtd">
<!-- Created with svg_stack (http://github.com/astraw/svg_stack) --><svg xmlns="http://www.w3.org/2000/svg" xmlns:sodipodi="http://sodipodi.sourceforge.net/DTD/sodipodi-0.dtd" xmlns:xlink="http://www.w3.org/1999/xlink" version="1.1" width="100%" id="malayalam-pref-position" viewBox="0 0 1611.34765625 201.40625">
  <defs><g>
<symbol overflow="visible" id="malayalam-pref-position:id0:glyph0-0">
<path style="stroke:none;" d="M 10.34375 0 L 10.34375 -78.546875 L 55.546875 -78.546875 L 55.546875 0 Z M 15.953125 -5.609375 L 49.9375 -5.609375 L 49.9375 -72.9375 L 15.953125 -72.9375 Z M 15.953125 -5.609375 "/>
</symbol>
<symbol overflow="visible" id="malayalam-pref-position:id0:glyph0-1">
<path style="stroke:none;" d="M 32.234375 20.125 C 26.441406 20.125 21.546875 18.65625 17.546875 15.71875 C 13.546875 12.789062 10.5 8.722656 8.40625 3.515625 C 6.320312 -1.691406 5.28125 -7.703125 5.28125 -14.515625 C 5.28125 -20.828125 6.03125 -26.820312 7.53125 -32.5 C 9.039062 -38.1875 10.929688 -43.226562 13.203125 -47.625 C 15.472656 -52.03125 17.78125 -55.515625 20.125 -58.078125 C 22.476562 -60.648438 24.535156 -61.9375 26.296875 -61.9375 C 27.535156 -61.9375 28.414062 -61.492188 28.9375 -60.609375 C 25.925781 -57.453125 23.410156 -53.96875 21.390625 -50.15625 C 19.378906 -46.34375 17.785156 -42.457031 16.609375 -38.5 C 15.429688 -34.539062 14.585938 -30.671875 14.078125 -26.890625 C 13.566406 -23.117188 13.3125 -19.726562 13.3125 -16.71875 C 13.3125 -7.257812 15.304688 0 19.296875 5.0625 C 23.296875 10.125 28.816406 12.65625 35.859375 12.65625 C 37.546875 12.65625 39.359375 12.503906 41.296875 12.203125 C 43.242188 11.910156 45.132812 11.398438 46.96875 10.671875 L 46.96875 11 C 46.96875 13.488281 45.628906 15.628906 42.953125 17.421875 C 40.273438 19.222656 36.703125 20.125 32.234375 20.125 Z M 32.234375 20.125 "/>
</symbol>
<symbol overflow="visible" id="malayalam-pref-position:id0:glyph0-2">
<path style="stroke:none;" d="M 30.90625 -46.640625 C 28.5625 -46.640625 27.390625 -47.8125 27.390625 -50.15625 C 27.390625 -52.425781 28.5625 -53.5625 30.90625 -53.5625 C 33.175781 -53.5625 34.3125 -52.425781 34.3125 -50.15625 C 34.3125 -47.8125 33.175781 -46.640625 30.90625 -46.640625 Z M 15.1875 -40.59375 C 12.832031 -40.59375 11.65625 -41.765625 11.65625 -44.109375 C 11.65625 -46.378906 12.832031 -47.515625 15.1875 -47.515625 C 17.457031 -47.515625 18.59375 -46.378906 18.59375 -44.109375 C 18.59375 -41.765625 17.457031 -40.59375 15.1875 -40.59375 Z M 46.53125 -40.59375 C 44.1875 -40.59375 43.015625 -41.765625 43.015625 -44.109375 C 43.015625 -46.378906 44.1875 -47.515625 46.53125 -47.515625 C 48.875 -47.515625 50.046875 -46.378906 50.046875 -44.109375 C 50.046875 -41.765625 48.875 -40.59375 46.53125 -40.59375 Z M 9.796875 -25.40625 C 7.441406 -25.40625 6.265625 -26.617188 6.265625 -29.046875 C 6.265625 -31.316406 7.441406 -32.453125 9.796875 -32.453125 C 12.140625 -32.453125 13.3125 -31.316406 13.3125 -29.046875 C 13.3125 -26.617188 12.140625 -25.40625 9.796875 -25.40625 Z M 51.921875 -25.40625 C 49.648438 -25.40625 48.515625 -26.617188 48.515625 -29.046875 C 48.515625 -31.316406 49.648438 -32.453125 51.921875 -32.453125 C 54.265625 -32.453125 55.4375 -31.316406 55.4375 -29.046875 C 55.4375 -26.617188 54.265625 -25.40625 51.921875 -25.40625 Z M 15.1875 -10.453125 C 12.832031 -10.453125 11.65625 -11.625 11.65625 -13.96875 C 11.65625 -16.238281 12.832031 -17.375 15.1875 -17.375 C 17.457031 -17.375 18.59375 -16.238281 18.59375 -13.96875 C 18.59375 -11.625 17.457031 -10.453125 15.1875 -10.453125 Z M 46.53125 -10.453125 C 44.1875 -10.453125 43.015625 -11.625 43.015625 -13.96875 C 43.015625 -16.238281 44.1875 -17.375 46.53125 -17.375 C 48.875 -17.375 50.046875 -16.238281 50.046875 -13.96875 C 50.046875 -11.625 48.875 -10.453125 46.53125 -10.453125 Z M 30.90625 -4.40625 C 28.5625 -4.40625 27.390625 -5.578125 27.390625 -7.921875 C 27.390625 -10.265625 28.5625 -11.4375 30.90625 -11.4375 C 33.175781 -11.4375 34.3125 -10.265625 34.3125 -7.921875 C 34.3125 -5.578125 33.175781 -4.40625 30.90625 -4.40625 Z M 30.90625 -4.40625 "/>
</symbol>
<symbol overflow="visible" id="malayalam-pref-position:id0:glyph0-3">
<path style="stroke:none;" d="M 103.40625 0.875 C 102.375 0.875 101.488281 0.78125 100.75 0.59375 C 100.019531 0.414062 99.472656 0.21875 99.109375 0 C 103.210938 -3.007812 106.457031 -7.003906 108.84375 -11.984375 C 111.226562 -16.972656 112.421875 -22.472656 112.421875 -28.484375 C 112.421875 -33.398438 111.59375 -37.816406 109.9375 -41.734375 C 108.289062 -45.660156 105.851562 -48.78125 102.625 -51.09375 C 99.40625 -53.40625 95.484375 -54.5625 90.859375 -54.5625 C 86.753906 -54.5625 82.992188 -53.570312 79.578125 -51.59375 C 76.171875 -49.613281 73.457031 -46.71875 71.4375 -42.90625 C 69.425781 -39.09375 68.421875 -34.4375 68.421875 -28.9375 C 68.421875 -22.988281 69.484375 -18.070312 71.609375 -14.1875 C 73.734375 -10.300781 76.265625 -6.96875 79.203125 -4.1875 L 76.5625 0 L 29.15625 0 L 28.046875 -1.875 C 29.003906 -2.675781 30.140625 -3.828125 31.453125 -5.328125 C 32.773438 -6.835938 33.96875 -8.765625 35.03125 -11.109375 C 36.09375 -13.453125 36.625 -16.238281 36.625 -19.46875 C 36.625 -23.207031 35.453125 -26.378906 33.109375 -28.984375 C 30.765625 -31.585938 27.648438 -32.890625 23.765625 -32.890625 C 19.503906 -32.890625 16.144531 -31.457031 13.6875 -28.59375 C 11.238281 -25.738281 10.015625 -22.332031 10.015625 -18.375 C 10.015625 -14.1875 11.054688 -10.71875 13.140625 -7.96875 C 15.234375 -5.21875 17.453125 -3.078125 19.796875 -1.546875 C 19.359375 -0.804688 18.898438 -0.253906 18.421875 0.109375 C 17.941406 0.472656 17.226562 0.65625 16.28125 0.65625 C 14.445312 0.65625 12.554688 -0.164062 10.609375 -1.8125 C 8.671875 -3.46875 7.039062 -5.742188 5.71875 -8.640625 C 4.394531 -11.535156 3.734375 -14.78125 3.734375 -18.375 C 3.734375 -22.625 4.664062 -26.320312 6.53125 -29.46875 C 8.40625 -32.625 10.957031 -35.082031 14.1875 -36.84375 C 17.414062 -38.601562 21.046875 -39.484375 25.078125 -39.484375 C 28.960938 -39.484375 32.535156 -38.695312 35.796875 -37.125 C 39.066406 -35.550781 41.691406 -33.3125 43.671875 -30.40625 C 45.648438 -27.507812 46.640625 -24.046875 46.640625 -20.015625 C 46.640625 -17.523438 46.125 -15.03125 45.09375 -12.53125 C 44.070312 -10.039062 42.5 -7.84375 40.375 -5.9375 L 69.734375 -5.9375 C 67.316406 -9.09375 65.410156 -12.554688 64.015625 -16.328125 C 62.628906 -20.109375 61.9375 -24.234375 61.9375 -28.703125 C 61.9375 -36.035156 63.363281 -42.125 66.21875 -46.96875 C 69.082031 -51.8125 72.820312 -55.457031 77.4375 -57.90625 C 82.0625 -60.363281 86.9375 -61.59375 92.0625 -61.59375 C 98.59375 -61.59375 104.1875 -60.125 108.84375 -57.1875 C 113.5 -54.257812 117.054688 -50.265625 119.515625 -45.203125 C 121.972656 -40.148438 123.203125 -34.429688 123.203125 -28.046875 C 123.203125 -23.359375 122.578125 -19.21875 121.328125 -15.625 C 120.078125 -12.03125 118.441406 -9.003906 116.421875 -6.546875 C 114.410156 -4.085938 112.269531 -2.234375 110 -0.984375 C 107.726562 0.253906 105.53125 0.875 103.40625 0.875 Z M 103.40625 0.875 "/>
</symbol>
<symbol overflow="visible" id="malayalam-pref-position:id0:glyph0-4">
<path style="stroke:none;" d="M -10.234375 -66.546875 C -15.441406 -66.546875 -19.457031 -67.222656 -22.28125 -68.578125 C -25.101562 -69.941406 -27.0625 -71.648438 -28.15625 -73.703125 C -29.257812 -75.753906 -29.8125 -77.84375 -29.8125 -79.96875 C -29.8125 -82.53125 -28.945312 -84.507812 -27.21875 -85.90625 C -25.5 -87.300781 -23.613281 -88 -21.5625 -88 C -20.675781 -88 -19.832031 -87.851562 -19.03125 -87.5625 C -19.539062 -86.09375 -19.796875 -84.585938 -19.796875 -83.046875 C -19.796875 -79.816406 -18.878906 -77.320312 -17.046875 -75.5625 C -15.210938 -73.8125 -12.71875 -72.9375 -9.5625 -72.9375 C -6.488281 -72.9375 -4.050781 -73.722656 -2.25 -75.296875 C -0.457031 -76.867188 0.4375 -79.304688 0.4375 -82.609375 C 0.4375 -84.441406 0.0703125 -86.09375 -0.65625 -87.5625 C 0 -87.78125 0.695312 -87.890625 1.4375 -87.890625 C 3.34375 -87.890625 4.753906 -87.132812 5.671875 -85.625 C 6.585938 -84.125 7.046875 -82.457031 7.046875 -80.625 C 7.046875 -76.59375 5.578125 -73.238281 2.640625 -70.5625 C -0.296875 -67.882812 -4.585938 -66.546875 -10.234375 -66.546875 Z M -10.234375 -66.546875 "/>
</symbol>
<symbol overflow="visible" id="malayalam-pref-position:id0:glyph0-5">
<path style="stroke:none;" d="M 27.71875 0.65625 C 23.757812 0.65625 20.3125 -0.128906 17.375 -1.703125 C 14.445312 -3.273438 12.046875 -5.414062 10.171875 -8.125 C 8.304688 -10.84375 6.914062 -13.851562 6 -17.15625 C 5.082031 -20.457031 4.625 -23.796875 4.625 -27.171875 C 4.625 -34.867188 6.179688 -41.265625 9.296875 -46.359375 C 12.410156 -51.460938 16.535156 -55.273438 21.671875 -57.796875 C 26.804688 -60.328125 32.34375 -61.59375 38.28125 -61.59375 C 45.101562 -61.59375 51.023438 -60.144531 56.046875 -57.25 C 61.066406 -54.351562 64.929688 -50.394531 67.640625 -45.375 C 70.359375 -40.351562 71.71875 -34.578125 71.71875 -28.046875 C 71.71875 -23.285156 71.113281 -19.085938 69.90625 -15.453125 C 68.695312 -11.828125 67.117188 -8.800781 65.171875 -6.375 C 63.234375 -3.957031 61.144531 -2.144531 58.90625 -0.9375 C 56.664062 0.269531 54.519531 0.875 52.46875 0.875 C 51.519531 0.875 50.710938 0.78125 50.046875 0.59375 C 49.390625 0.414062 48.84375 0.21875 48.40625 0 C 52.289062 -3.082031 55.347656 -6.894531 57.578125 -11.4375 C 59.816406 -15.988281 60.9375 -21.5625 60.9375 -28.15625 C 60.9375 -36.519531 58.71875 -43.007812 54.28125 -47.625 C 49.84375 -52.25 44.03125 -54.5625 36.84375 -54.5625 C 32.226562 -54.5625 27.921875 -53.570312 23.921875 -51.59375 C 19.929688 -49.613281 16.722656 -46.601562 14.296875 -42.5625 C 11.878906 -38.53125 10.671875 -33.363281 10.671875 -27.0625 C 10.671875 -26.25 10.707031 -25.476562 10.78125 -24.75 C 12.757812 -27.90625 15.25 -30.472656 18.25 -32.453125 C 21.257812 -34.429688 24.671875 -35.421875 28.484375 -35.421875 C 32.078125 -35.421875 35.210938 -34.628906 37.890625 -33.046875 C 40.566406 -31.472656 42.65625 -29.347656 44.15625 -26.671875 C 45.664062 -23.992188 46.421875 -20.929688 46.421875 -17.484375 C 46.421875 -12.285156 44.769531 -7.960938 41.46875 -4.515625 C 38.164062 -1.066406 33.582031 0.65625 27.71875 0.65625 Z M 25.84375 -28.703125 C 22.84375 -28.703125 20.148438 -27.675781 17.765625 -25.625 C 15.378906 -23.570312 13.378906 -21.15625 11.765625 -18.375 C 13.015625 -14.1875 14.957031 -11.066406 17.59375 -9.015625 C 20.238281 -6.960938 22.953125 -5.9375 25.734375 -5.9375 C 29.253906 -5.9375 31.910156 -7.054688 33.703125 -9.296875 C 35.503906 -11.535156 36.40625 -14.265625 36.40625 -17.484375 C 36.40625 -21.148438 35.378906 -23.9375 33.328125 -25.84375 C 31.273438 -27.75 28.78125 -28.703125 25.84375 -28.703125 Z M 25.84375 -28.703125 "/>
</symbol>
<symbol overflow="visible" id="malayalam-pref-position:id0:glyph0-6">
<path style="stroke:none;" d="M 117.375 -55 C 115.394531 -55 113.429688 -54.445312 111.484375 -53.34375 C 109.535156 -52.25 107.898438 -50.523438 106.578125 -48.171875 C 105.265625 -45.828125 104.609375 -42.785156 104.609375 -39.046875 L 104.609375 0 L 94.15625 0 L 94.15625 -39.9375 C 94.15625 -44.476562 93.144531 -48.125 91.125 -50.875 C 89.113281 -53.625 85.835938 -55 81.296875 -55 C 77.035156 -55 73.769531 -53.695312 71.5 -51.09375 C 69.226562 -48.488281 68.09375 -44.691406 68.09375 -39.703125 L 68.09375 0 L 57.640625 0 L 57.640625 -32.125 C 57.640625 -39.601562 55.660156 -45.285156 51.703125 -49.171875 C 47.742188 -53.054688 42.570312 -55 36.1875 -55 C 31.9375 -55 27.867188 -53.988281 23.984375 -51.96875 C 20.097656 -49.957031 16.90625 -46.914062 14.40625 -42.84375 C 11.914062 -38.769531 10.671875 -33.65625 10.671875 -27.5 C 10.671875 -26.539062 10.707031 -25.660156 10.78125 -24.859375 C 12.832031 -27.941406 15.34375 -30.472656 18.3125 -32.453125 C 21.28125 -34.429688 24.671875 -35.421875 28.484375 -35.421875 C 32.078125 -35.421875 35.210938 -34.628906 37.890625 -33.046875 C 40.566406 -31.472656 42.65625 -29.347656 44.15625 -26.671875 C 45.664062 -23.992188 46.421875 -20.929688 46.421875 -17.484375 C 46.421875 -12.285156 44.769531 -7.960938 41.46875 -4.515625 C 38.164062 -1.066406 33.582031 0.65625 27.71875 0.65625 C 23.832031 0.65625 20.441406 -0.148438 17.546875 -1.765625 C 14.648438 -3.378906 12.25 -5.519531 10.34375 -8.1875 C 8.4375 -10.863281 7.003906 -13.890625 6.046875 -17.265625 C 5.097656 -20.640625 4.625 -24.085938 4.625 -27.609375 C 4.625 -33.253906 5.539062 -38.203125 7.375 -42.453125 C 9.207031 -46.710938 11.695312 -50.253906 14.84375 -53.078125 C 18 -55.898438 21.519531 -58.023438 25.40625 -59.453125 C 29.289062 -60.878906 33.328125 -61.59375 37.515625 -61.59375 C 42.054688 -61.59375 46.671875 -60.710938 51.359375 -58.953125 C 56.054688 -57.191406 59.945312 -54.1875 63.03125 -49.9375 C 66.988281 -57.707031 73.441406 -61.59375 82.390625 -61.59375 C 86.492188 -61.59375 90.175781 -60.710938 93.4375 -58.953125 C 96.707031 -57.191406 99.367188 -54.8125 101.421875 -51.8125 C 103.617188 -55.257812 106.253906 -57.75 109.328125 -59.28125 C 112.410156 -60.820312 115.640625 -61.59375 119.015625 -61.59375 C 122.972656 -61.59375 126.546875 -60.691406 129.734375 -58.890625 C 132.929688 -57.097656 135.460938 -54.382812 137.328125 -50.75 C 139.203125 -47.125 140.140625 -42.523438 140.140625 -36.953125 L 140.140625 -22.328125 C 140.140625 -16.679688 141.144531 -12.535156 143.15625 -9.890625 C 145.175781 -7.253906 148.128906 -5.9375 152.015625 -5.9375 C 155.460938 -5.9375 158.453125 -7.203125 160.984375 -9.734375 C 163.515625 -12.265625 164.78125 -16.316406 164.78125 -21.890625 L 164.78125 -60.9375 L 175.234375 -60.9375 L 175.234375 -22 C 175.234375 -17.082031 176.492188 -13.175781 179.015625 -10.28125 C 181.546875 -7.382812 184.867188 -5.9375 188.984375 -5.9375 C 192.941406 -5.9375 196.257812 -7.070312 198.9375 -9.34375 C 201.613281 -11.625 203.628906 -14.597656 204.984375 -18.265625 C 206.335938 -21.929688 207.015625 -25.78125 207.015625 -29.8125 C 207.015625 -34.875 206.351562 -39.21875 205.03125 -42.84375 C 203.71875 -46.476562 201.921875 -49.648438 199.640625 -52.359375 C 197.367188 -55.078125 194.769531 -57.535156 191.84375 -59.734375 C 192.351562 -60.390625 192.972656 -60.863281 193.703125 -61.15625 C 194.441406 -61.445312 195.175781 -61.59375 195.90625 -61.59375 C 197.59375 -61.59375 199.425781 -60.859375 201.40625 -59.390625 C 203.382812 -57.929688 205.304688 -55.828125 207.171875 -53.078125 C 209.046875 -50.328125 210.570312 -47.023438 211.75 -43.171875 C 212.925781 -39.328125 213.515625 -35.019531 213.515625 -30.25 C 213.515625 -24.820312 212.519531 -19.742188 210.53125 -15.015625 C 208.550781 -10.285156 205.671875 -6.488281 201.890625 -3.625 C 198.117188 -0.769531 193.59375 0.65625 188.3125 0.65625 C 183.625 0.65625 179.628906 -0.332031 176.328125 -2.3125 C 173.023438 -4.289062 170.457031 -6.929688 168.625 -10.234375 C 166.570312 -6.421875 164.003906 -3.648438 160.921875 -1.921875 C 157.847656 -0.203125 154.332031 0.65625 150.375 0.65625 C 146.414062 0.65625 142.835938 -0.1875 139.640625 -1.875 C 136.453125 -3.5625 133.921875 -6.203125 132.046875 -9.796875 C 130.179688 -13.390625 129.25 -18.007812 129.25 -23.65625 L 129.25 -36.515625 C 129.25 -43.265625 128.238281 -48.03125 126.21875 -50.8125 C 124.207031 -53.601562 121.257812 -55 117.375 -55 Z M 25.84375 -28.703125 C 22.84375 -28.703125 20.164062 -27.691406 17.8125 -25.671875 C 15.46875 -23.660156 13.488281 -21.300781 11.875 -18.59375 C 13.195312 -14.257812 15.195312 -11.066406 17.875 -9.015625 C 20.550781 -6.960938 23.171875 -5.9375 25.734375 -5.9375 C 29.253906 -5.9375 31.910156 -7.054688 33.703125 -9.296875 C 35.503906 -11.535156 36.40625 -14.265625 36.40625 -17.484375 C 36.40625 -21.148438 35.378906 -23.9375 33.328125 -25.84375 C 31.273438 -27.75 28.78125 -28.703125 25.84375 -28.703125 Z M 25.84375 -28.703125 "/>
</symbol>
<symbol overflow="visible" id="malayalam-pref-position:id0:glyph0-7">
<path style="stroke:none;" d="M 44.109375 0.65625 C 39.117188 0.65625 35.175781 0.21875 32.28125 -0.65625 C 29.382812 -1.539062 27.3125 -2.625 26.0625 -3.90625 C 24.820312 -5.1875 24.203125 -6.34375 24.203125 -7.375 C 24.203125 -7.8125 24.253906 -8.304688 24.359375 -8.859375 C 24.472656 -9.410156 24.601562 -9.832031 24.75 -10.125 C 27.539062 -8.875 30.347656 -7.863281 33.171875 -7.09375 C 35.992188 -6.320312 39.421875 -5.9375 43.453125 -5.9375 C 50.859375 -5.9375 56.410156 -8.097656 60.109375 -12.421875 C 63.816406 -16.753906 65.671875 -23.867188 65.671875 -33.765625 C 65.671875 -40.078125 64.734375 -45.191406 62.859375 -49.109375 C 60.992188 -53.035156 57.820312 -55 53.34375 -55 C 50.34375 -55 47.703125 -53.863281 45.421875 -51.59375 C 43.148438 -49.320312 42.015625 -45.691406 42.015625 -40.703125 L 42.015625 -25.625 L 31.5625 -25.625 L 31.5625 -40.265625 C 31.5625 -45.242188 30.644531 -48.941406 28.8125 -51.359375 C 26.976562 -53.785156 24.34375 -55 20.90625 -55 C 17.382812 -55 14.59375 -53.75 12.53125 -51.25 C 10.476562 -48.757812 9.453125 -45.789062 9.453125 -42.34375 C 9.453125 -38.976562 9.984375 -36.046875 11.046875 -33.546875 C 12.117188 -31.054688 13.789062 -28.5625 16.0625 -26.0625 C 15.550781 -25.695312 15.035156 -25.441406 14.515625 -25.296875 C 14.003906 -25.148438 13.492188 -25.078125 12.984375 -25.078125 C 11.441406 -25.078125 9.914062 -25.789062 8.40625 -27.21875 C 6.90625 -28.65625 5.660156 -30.691406 4.671875 -33.328125 C 3.679688 -35.972656 3.1875 -39.09375 3.1875 -42.6875 C 3.1875 -46.195312 3.972656 -49.382812 5.546875 -52.25 C 7.128906 -55.113281 9.347656 -57.382812 12.203125 -59.0625 C 15.066406 -60.75 18.40625 -61.59375 22.21875 -61.59375 C 25.664062 -61.59375 28.816406 -60.769531 31.671875 -59.125 C 34.535156 -57.476562 36.773438 -55.148438 38.390625 -52.140625 C 40.585938 -55.515625 43.097656 -57.929688 45.921875 -59.390625 C 48.742188 -60.859375 51.769531 -61.59375 55 -61.59375 C 60.0625 -61.59375 64.148438 -60.382812 67.265625 -57.96875 C 70.378906 -55.550781 72.671875 -52.234375 74.140625 -48.015625 C 75.609375 -43.796875 76.34375 -38.9375 76.34375 -33.4375 C 76.34375 -26.613281 75.296875 -20.65625 73.203125 -15.5625 C 71.109375 -10.46875 67.710938 -6.488281 63.015625 -3.625 C 58.328125 -0.769531 52.023438 0.65625 44.109375 0.65625 Z M 44.109375 0.65625 "/>
</symbol>
</g>
<g>
<symbol overflow="visible" id="malayalam-pref-position:id1:glyph0-0">
<path style="stroke:none;" d="M 5.375 -96.6875 L 69.828125 -96.6875 L 69.828125 0 L 5.375 0 Z M 8.0625 -2.6875 L 67.140625 -2.6875 L 67.140625 -94 L 8.0625 -94 Z M 8.0625 -2.6875 "/>
</symbol>
<symbol overflow="visible" id="malayalam-pref-position:id1:glyph0-1">
<path style="stroke:none;" d="M 68.15625 -13.75 L 66.28125 -18.640625 L 88.09375 -27.390625 L 6.984375 -27.390625 L 6.984375 -34 L 88.09375 -34 L 66.28125 -42.75 L 68.15625 -47.640625 L 99.09375 -34.265625 L 99.09375 -27.125 Z M 68.15625 -13.75 "/>
</symbol>
</g>
<g>
<symbol overflow="visible" id="malayalam-pref-position:id2:glyph0-0">
<path style="stroke:none;" d="M 10.34375 0 L 10.34375 -78.546875 L 55.546875 -78.546875 L 55.546875 0 Z M 15.953125 -5.609375 L 49.9375 -5.609375 L 49.9375 -72.9375 L 15.953125 -72.9375 Z M 15.953125 -5.609375 "/>
</symbol>
<symbol overflow="visible" id="malayalam-pref-position:id2:glyph0-1">
<path style="stroke:none;" d="M 103.40625 0.875 C 102.375 0.875 101.488281 0.78125 100.75 0.59375 C 100.019531 0.414062 99.472656 0.21875 99.109375 0 C 103.210938 -3.007812 106.457031 -7.003906 108.84375 -11.984375 C 111.226562 -16.972656 112.421875 -22.472656 112.421875 -28.484375 C 112.421875 -33.398438 111.59375 -37.816406 109.9375 -41.734375 C 108.289062 -45.660156 105.851562 -48.78125 102.625 -51.09375 C 99.40625 -53.40625 95.484375 -54.5625 90.859375 -54.5625 C 86.753906 -54.5625 82.992188 -53.570312 79.578125 -51.59375 C 76.171875 -49.613281 73.457031 -46.71875 71.4375 -42.90625 C 69.425781 -39.09375 68.421875 -34.4375 68.421875 -28.9375 C 68.421875 -22.988281 69.484375 -18.070312 71.609375 -14.1875 C 73.734375 -10.300781 76.265625 -6.96875 79.203125 -4.1875 L 76.5625 0 L 29.15625 0 L 28.046875 -1.875 C 29.003906 -2.675781 30.140625 -3.828125 31.453125 -5.328125 C 32.773438 -6.835938 33.96875 -8.765625 35.03125 -11.109375 C 36.09375 -13.453125 36.625 -16.238281 36.625 -19.46875 C 36.625 -23.207031 35.453125 -26.378906 33.109375 -28.984375 C 30.765625 -31.585938 27.648438 -32.890625 23.765625 -32.890625 C 19.503906 -32.890625 16.144531 -31.457031 13.6875 -28.59375 C 11.238281 -25.738281 10.015625 -22.332031 10.015625 -18.375 C 10.015625 -14.1875 11.054688 -10.71875 13.140625 -7.96875 C 15.234375 -5.21875 17.453125 -3.078125 19.796875 -1.546875 C 19.359375 -0.804688 18.898438 -0.253906 18.421875 0.109375 C 17.941406 0.472656 17.226562 0.65625 16.28125 0.65625 C 14.445312 0.65625 12.554688 -0.164062 10.609375 -1.8125 C 8.671875 -3.46875 7.039062 -5.742188 5.71875 -8.640625 C 4.394531 -11.535156 3.734375 -14.78125 3.734375 -18.375 C 3.734375 -22.625 4.664062 -26.320312 6.53125 -29.46875 C 8.40625 -32.625 10.957031 -35.082031 14.1875 -36.84375 C 17.414062 -38.601562 21.046875 -39.484375 25.078125 -39.484375 C 28.960938 -39.484375 32.535156 -38.695312 35.796875 -37.125 C 39.066406 -35.550781 41.691406 -33.3125 43.671875 -30.40625 C 45.648438 -27.507812 46.640625 -24.046875 46.640625 -20.015625 C 46.640625 -17.523438 46.125 -15.03125 45.09375 -12.53125 C 44.070312 -10.039062 42.5 -7.84375 40.375 -5.9375 L 69.734375 -5.9375 C 67.316406 -9.09375 65.410156 -12.554688 64.015625 -16.328125 C 62.628906 -20.109375 61.9375 -24.234375 61.9375 -28.703125 C 61.9375 -36.035156 63.363281 -42.125 66.21875 -46.96875 C 69.082031 -51.8125 72.820312 -55.457031 77.4375 -57.90625 C 82.0625 -60.363281 86.9375 -61.59375 92.0625 -61.59375 C 98.59375 -61.59375 104.1875 -60.125 108.84375 -57.1875 C 113.5 -54.257812 117.054688 -50.265625 119.515625 -45.203125 C 121.972656 -40.148438 123.203125 -34.429688 123.203125 -28.046875 C 123.203125 -23.359375 122.578125 -19.21875 121.328125 -15.625 C 120.078125 -12.03125 118.441406 -9.003906 116.421875 -6.546875 C 114.410156 -4.085938 112.269531 -2.234375 110 -0.984375 C 107.726562 0.253906 105.53125 0.875 103.40625 0.875 Z M 103.40625 0.875 "/>
</symbol>
<symbol overflow="visible" id="malayalam-pref-position:id2:glyph0-2">
<path style="stroke:none;" d="M -10.234375 -66.546875 C -15.441406 -66.546875 -19.457031 -67.222656 -22.28125 -68.578125 C -25.101562 -69.941406 -27.0625 -71.648438 -28.15625 -73.703125 C -29.257812 -75.753906 -29.8125 -77.84375 -29.8125 -79.96875 C -29.8125 -82.53125 -28.945312 -84.507812 -27.21875 -85.90625 C -25.5 -87.300781 -23.613281 -88 -21.5625 -88 C -20.675781 -88 -19.832031 -87.851562 -19.03125 -87.5625 C -19.539062 -86.09375 -19.796875 -84.585938 -19.796875 -83.046875 C -19.796875 -79.816406 -18.878906 -77.320312 -17.046875 -75.5625 C -15.210938 -73.8125 -12.71875 -72.9375 -9.5625 -72.9375 C -6.488281 -72.9375 -4.050781 -73.722656 -2.25 -75.296875 C -0.457031 -76.867188 0.4375 -79.304688 0.4375 -82.609375 C 0.4375 -84.441406 0.0703125 -86.09375 -0.65625 -87.5625 C 0 -87.78125 0.695312 -87.890625 1.4375 -87.890625 C 3.34375 -87.890625 4.753906 -87.132812 5.671875 -85.625 C 6.585938 -84.125 7.046875 -82.457031 7.046875 -80.625 C 7.046875 -76.59375 5.578125 -73.238281 2.640625 -70.5625 C -0.296875 -67.882812 -4.585938 -66.546875 -10.234375 -66.546875 Z M -10.234375 -66.546875 "/>
</symbol>
<symbol overflow="visible" id="malayalam-pref-position:id2:glyph0-3">
<path style="stroke:none;" d="M 27.71875 0.65625 C 23.757812 0.65625 20.3125 -0.128906 17.375 -1.703125 C 14.445312 -3.273438 12.046875 -5.414062 10.171875 -8.125 C 8.304688 -10.84375 6.914062 -13.851562 6 -17.15625 C 5.082031 -20.457031 4.625 -23.796875 4.625 -27.171875 C 4.625 -34.867188 6.179688 -41.265625 9.296875 -46.359375 C 12.410156 -51.460938 16.535156 -55.273438 21.671875 -57.796875 C 26.804688 -60.328125 32.34375 -61.59375 38.28125 -61.59375 C 45.101562 -61.59375 51.023438 -60.144531 56.046875 -57.25 C 61.066406 -54.351562 64.929688 -50.394531 67.640625 -45.375 C 70.359375 -40.351562 71.71875 -34.578125 71.71875 -28.046875 C 71.71875 -23.285156 71.113281 -19.085938 69.90625 -15.453125 C 68.695312 -11.828125 67.117188 -8.800781 65.171875 -6.375 C 63.234375 -3.957031 61.144531 -2.144531 58.90625 -0.9375 C 56.664062 0.269531 54.519531 0.875 52.46875 0.875 C 51.519531 0.875 50.710938 0.78125 50.046875 0.59375 C 49.390625 0.414062 48.84375 0.21875 48.40625 0 C 52.289062 -3.082031 55.347656 -6.894531 57.578125 -11.4375 C 59.816406 -15.988281 60.9375 -21.5625 60.9375 -28.15625 C 60.9375 -36.519531 58.71875 -43.007812 54.28125 -47.625 C 49.84375 -52.25 44.03125 -54.5625 36.84375 -54.5625 C 32.226562 -54.5625 27.921875 -53.570312 23.921875 -51.59375 C 19.929688 -49.613281 16.722656 -46.601562 14.296875 -42.5625 C 11.878906 -38.53125 10.671875 -33.363281 10.671875 -27.0625 C 10.671875 -26.25 10.707031 -25.476562 10.78125 -24.75 C 12.757812 -27.90625 15.25 -30.472656 18.25 -32.453125 C 21.257812 -34.429688 24.671875 -35.421875 28.484375 -35.421875 C 32.078125 -35.421875 35.210938 -34.628906 37.890625 -33.046875 C 40.566406 -31.472656 42.65625 -29.347656 44.15625 -26.671875 C 45.664062 -23.992188 46.421875 -20.929688 46.421875 -17.484375 C 46.421875 -12.285156 44.769531 -7.960938 41.46875 -4.515625 C 38.164062 -1.066406 33.582031 0.65625 27.71875 0.65625 Z M 25.84375 -28.703125 C 22.84375 -28.703125 20.148438 -27.675781 17.765625 -25.625 C 15.378906 -23.570312 13.378906 -21.15625 11.765625 -18.375 C 13.015625 -14.1875 14.957031 -11.066406 17.59375 -9.015625 C 20.238281 -6.960938 22.953125 -5.9375 25.734375 -5.9375 C 29.253906 -5.9375 31.910156 -7.054688 33.703125 -9.296875 C 35.503906 -11.535156 36.40625 -14.265625 36.40625 -17.484375 C 36.40625 -21.148438 35.378906 -23.9375 33.328125 -25.84375 C 31.273438 -27.75 28.78125 -28.703125 25.84375 -28.703125 Z M 25.84375 -28.703125 "/>
</symbol>
<symbol overflow="visible" id="malayalam-pref-position:id2:glyph0-4">
<path style="stroke:none;" d="M 32.234375 20.125 C 26.441406 20.125 21.546875 18.65625 17.546875 15.71875 C 13.546875 12.789062 10.5 8.722656 8.40625 3.515625 C 6.320312 -1.691406 5.28125 -7.703125 5.28125 -14.515625 C 5.28125 -20.828125 6.03125 -26.820312 7.53125 -32.5 C 9.039062 -38.1875 10.929688 -43.226562 13.203125 -47.625 C 15.472656 -52.03125 17.78125 -55.515625 20.125 -58.078125 C 22.476562 -60.648438 24.535156 -61.9375 26.296875 -61.9375 C 27.535156 -61.9375 28.414062 -61.492188 28.9375 -60.609375 C 25.925781 -57.453125 23.410156 -53.96875 21.390625 -50.15625 C 19.378906 -46.34375 17.785156 -42.457031 16.609375 -38.5 C 15.429688 -34.539062 14.585938 -30.671875 14.078125 -26.890625 C 13.566406 -23.117188 13.3125 -19.726562 13.3125 -16.71875 C 13.3125 -7.257812 15.304688 0 19.296875 5.0625 C 23.296875 10.125 28.816406 12.65625 35.859375 12.65625 C 37.546875 12.65625 39.359375 12.503906 41.296875 12.203125 C 43.242188 11.910156 45.132812 11.398438 46.96875 10.671875 L 46.96875 11 C 46.96875 13.488281 45.628906 15.628906 42.953125 17.421875 C 40.273438 19.222656 36.703125 20.125 32.234375 20.125 Z M 32.234375 20.125 "/>
</symbol>
<symbol overflow="visible" id="malayalam-pref-position:id2:glyph0-5">
<path style="stroke:none;" d="M 117.375 -55 C 115.394531 -55 113.429688 -54.445312 111.484375 -53.34375 C 109.535156 -52.25 107.898438 -50.523438 106.578125 -48.171875 C 105.265625 -45.828125 104.609375 -42.785156 104.609375 -39.046875 L 104.609375 0 L 94.15625 0 L 94.15625 -39.9375 C 94.15625 -44.476562 93.144531 -48.125 91.125 -50.875 C 89.113281 -53.625 85.835938 -55 81.296875 -55 C 77.035156 -55 73.769531 -53.695312 71.5 -51.09375 C 69.226562 -48.488281 68.09375 -44.691406 68.09375 -39.703125 L 68.09375 0 L 57.640625 0 L 57.640625 -32.125 C 57.640625 -39.601562 55.660156 -45.285156 51.703125 -49.171875 C 47.742188 -53.054688 42.570312 -55 36.1875 -55 C 31.9375 -55 27.867188 -53.988281 23.984375 -51.96875 C 20.097656 -49.957031 16.90625 -46.914062 14.40625 -42.84375 C 11.914062 -38.769531 10.671875 -33.65625 10.671875 -27.5 C 10.671875 -26.539062 10.707031 -25.660156 10.78125 -24.859375 C 12.832031 -27.941406 15.34375 -30.472656 18.3125 -32.453125 C 21.28125 -34.429688 24.671875 -35.421875 28.484375 -35.421875 C 32.078125 -35.421875 35.210938 -34.628906 37.890625 -33.046875 C 40.566406 -31.472656 42.65625 -29.347656 44.15625 -26.671875 C 45.664062 -23.992188 46.421875 -20.929688 46.421875 -17.484375 C 46.421875 -12.285156 44.769531 -7.960938 41.46875 -4.515625 C 38.164062 -1.066406 33.582031 0.65625 27.71875 0.65625 C 23.832031 0.65625 20.441406 -0.148438 17.546875 -1.765625 C 14.648438 -3.378906 12.25 -5.519531 10.34375 -8.1875 C 8.4375 -10.863281 7.003906 -13.890625 6.046875 -17.265625 C 5.097656 -20.640625 4.625 -24.085938 4.625 -27.609375 C 4.625 -33.253906 5.539062 -38.203125 7.375 -42.453125 C 9.207031 -46.710938 11.695312 -50.253906 14.84375 -53.078125 C 18 -55.898438 21.519531 -58.023438 25.40625 -59.453125 C 29.289062 -60.878906 33.328125 -61.59375 37.515625 -61.59375 C 42.054688 -61.59375 46.671875 -60.710938 51.359375 -58.953125 C 56.054688 -57.191406 59.945312 -54.1875 63.03125 -49.9375 C 66.988281 -57.707031 73.441406 -61.59375 82.390625 -61.59375 C 86.492188 -61.59375 90.175781 -60.710938 93.4375 -58.953125 C 96.707031 -57.191406 99.367188 -54.8125 101.421875 -51.8125 C 103.617188 -55.257812 106.253906 -57.75 109.328125 -59.28125 C 112.410156 -60.820312 115.640625 -61.59375 119.015625 -61.59375 C 122.972656 -61.59375 126.546875 -60.691406 129.734375 -58.890625 C 132.929688 -57.097656 135.460938 -54.382812 137.328125 -50.75 C 139.203125 -47.125 140.140625 -42.523438 140.140625 -36.953125 L 140.140625 -22.328125 C 140.140625 -16.679688 141.144531 -12.535156 143.15625 -9.890625 C 145.175781 -7.253906 148.128906 -5.9375 152.015625 -5.9375 C 155.460938 -5.9375 158.453125 -7.203125 160.984375 -9.734375 C 163.515625 -12.265625 164.78125 -16.316406 164.78125 -21.890625 L 164.78125 -60.9375 L 175.234375 -60.9375 L 175.234375 -22 C 175.234375 -17.082031 176.492188 -13.175781 179.015625 -10.28125 C 181.546875 -7.382812 184.867188 -5.9375 188.984375 -5.9375 C 192.941406 -5.9375 196.257812 -7.070312 198.9375 -9.34375 C 201.613281 -11.625 203.628906 -14.597656 204.984375 -18.265625 C 206.335938 -21.929688 207.015625 -25.78125 207.015625 -29.8125 C 207.015625 -34.875 206.351562 -39.21875 205.03125 -42.84375 C 203.71875 -46.476562 201.921875 -49.648438 199.640625 -52.359375 C 197.367188 -55.078125 194.769531 -57.535156 191.84375 -59.734375 C 192.351562 -60.390625 192.972656 -60.863281 193.703125 -61.15625 C 194.441406 -61.445312 195.175781 -61.59375 195.90625 -61.59375 C 197.59375 -61.59375 199.425781 -60.859375 201.40625 -59.390625 C 203.382812 -57.929688 205.304688 -55.828125 207.171875 -53.078125 C 209.046875 -50.328125 210.570312 -47.023438 211.75 -43.171875 C 212.925781 -39.328125 213.515625 -35.019531 213.515625 -30.25 C 213.515625 -24.820312 212.519531 -19.742188 210.53125 -15.015625 C 208.550781 -10.285156 205.671875 -6.488281 201.890625 -3.625 C 198.117188 -0.769531 193.59375 0.65625 188.3125 0.65625 C 183.625 0.65625 179.628906 -0.332031 176.328125 -2.3125 C 173.023438 -4.289062 170.457031 -6.929688 168.625 -10.234375 C 166.570312 -6.421875 164.003906 -3.648438 160.921875 -1.921875 C 157.847656 -0.203125 154.332031 0.65625 150.375 0.65625 C 146.414062 0.65625 142.835938 -0.1875 139.640625 -1.875 C 136.453125 -3.5625 133.921875 -6.203125 132.046875 -9.796875 C 130.179688 -13.390625 129.25 -18.007812 129.25 -23.65625 L 129.25 -36.515625 C 129.25 -43.265625 128.238281 -48.03125 126.21875 -50.8125 C 124.207031 -53.601562 121.257812 -55 117.375 -55 Z M 25.84375 -28.703125 C 22.84375 -28.703125 20.164062 -27.691406 17.8125 -25.671875 C 15.46875 -23.660156 13.488281 -21.300781 11.875 -18.59375 C 13.195312 -14.257812 15.195312 -11.066406 17.875 -9.015625 C 20.550781 -6.960938 23.171875 -5.9375 25.734375 -5.9375 C 29.253906 -5.9375 31.910156 -7.054688 33.703125 -9.296875 C 35.503906 -11.535156 36.40625 -14.265625 36.40625 -17.484375 C 36.40625 -21.148438 35.378906 -23.9375 33.328125 -25.84375 C 31.273438 -27.75 28.78125 -28.703125 25.84375 -28.703125 Z M 25.84375 -28.703125 "/>
</symbol>
<symbol overflow="visible" id="malayalam-pref-position:id2:glyph0-6">
<path style="stroke:none;" d="M 44.109375 0.65625 C 39.117188 0.65625 35.175781 0.21875 32.28125 -0.65625 C 29.382812 -1.539062 27.3125 -2.625 26.0625 -3.90625 C 24.820312 -5.1875 24.203125 -6.34375 24.203125 -7.375 C 24.203125 -7.8125 24.253906 -8.304688 24.359375 -8.859375 C 24.472656 -9.410156 24.601562 -9.832031 24.75 -10.125 C 27.539062 -8.875 30.347656 -7.863281 33.171875 -7.09375 C 35.992188 -6.320312 39.421875 -5.9375 43.453125 -5.9375 C 50.859375 -5.9375 56.410156 -8.097656 60.109375 -12.421875 C 63.816406 -16.753906 65.671875 -23.867188 65.671875 -33.765625 C 65.671875 -40.078125 64.734375 -45.191406 62.859375 -49.109375 C 60.992188 -53.035156 57.820312 -55 53.34375 -55 C 50.34375 -55 47.703125 -53.863281 45.421875 -51.59375 C 43.148438 -49.320312 42.015625 -45.691406 42.015625 -40.703125 L 42.015625 -25.625 L 31.5625 -25.625 L 31.5625 -40.265625 C 31.5625 -45.242188 30.644531 -48.941406 28.8125 -51.359375 C 26.976562 -53.785156 24.34375 -55 20.90625 -55 C 17.382812 -55 14.59375 -53.75 12.53125 -51.25 C 10.476562 -48.757812 9.453125 -45.789062 9.453125 -42.34375 C 9.453125 -38.976562 9.984375 -36.046875 11.046875 -33.546875 C 12.117188 -31.054688 13.789062 -28.5625 16.0625 -26.0625 C 15.550781 -25.695312 15.035156 -25.441406 14.515625 -25.296875 C 14.003906 -25.148438 13.492188 -25.078125 12.984375 -25.078125 C 11.441406 -25.078125 9.914062 -25.789062 8.40625 -27.21875 C 6.90625 -28.65625 5.660156 -30.691406 4.671875 -33.328125 C 3.679688 -35.972656 3.1875 -39.09375 3.1875 -42.6875 C 3.1875 -46.195312 3.972656 -49.382812 5.546875 -52.25 C 7.128906 -55.113281 9.347656 -57.382812 12.203125 -59.0625 C 15.066406 -60.75 18.40625 -61.59375 22.21875 -61.59375 C 25.664062 -61.59375 28.816406 -60.769531 31.671875 -59.125 C 34.535156 -57.476562 36.773438 -55.148438 38.390625 -52.140625 C 40.585938 -55.515625 43.097656 -57.929688 45.921875 -59.390625 C 48.742188 -60.859375 51.769531 -61.59375 55 -61.59375 C 60.0625 -61.59375 64.148438 -60.382812 67.265625 -57.96875 C 70.378906 -55.550781 72.671875 -52.234375 74.140625 -48.015625 C 75.609375 -43.796875 76.34375 -38.9375 76.34375 -33.4375 C 76.34375 -26.613281 75.296875 -20.65625 73.203125 -15.5625 C 71.109375 -10.46875 67.710938 -6.488281 63.015625 -3.625 C 58.328125 -0.769531 52.023438 0.65625 44.109375 0.65625 Z M 44.109375 0.65625 "/>
</symbol>
</g>
</defs>
  <g id="malayalam-pref-position:id0:id0" transform="matrix(1.25,0,0,1.25,0.0,12.470703125)"><g id="malayalam-pref-position:id0:surface1">
<g style="fill:rgb(0%,0%,0%);fill-opacity:1;">
  <use xlink:href="#malayalam-pref-position:id0:glyph0-1" x="16" y="97.046875" class="c0"/>
  <use xlink:href="#malayalam-pref-position:id0:glyph0-2" x="41.953125" y="97.046875" class="dc"/>
  <use xlink:href="#malayalam-pref-position:id0:glyph0-3" x="103.65625" y="97.046875" class="c1"/>
  <use xlink:href="#malayalam-pref-position:id0:glyph0-4" x="231.46875" y="97.046875" class="c2"/>
  <use xlink:href="#malayalam-pref-position:id0:glyph0-5" x="231.46875" y="97.046875" class="c3"/>
  <use xlink:href="#malayalam-pref-position:id0:glyph0-6" x="307.8125" y="97.046875" class="c4"/>
  <use xlink:href="#malayalam-pref-position:id0:glyph0-7" x="525.9375" y="97.046875" class="c5"/>
</g>
</g>
</g>
  <g id="malayalam-pref-position:id1:id1" transform="matrix(1.25,0,0,1.25,778.90625,0.0)"><g id="malayalam-pref-position:id1:surface1">
<g style="fill:rgb(0%,0%,0%);fill-opacity:1;">
  <use xlink:href="#malayalam-pref-position:id1:glyph0-1" x="0" y="120.84375" class="arrow"/>
</g>
</g>
</g>
  <g id="malayalam-pref-position:id2:id2" transform="matrix(1.25,0,0,1.25,911.50390625,12.470703125)"><g id="malayalam-pref-position:id2:surface1">
<g style="fill:rgb(0%,0%,0%);fill-opacity:1;">
  <use xlink:href="#malayalam-pref-position:id2:glyph0-1" x="16" y="97.046875" class="c1"/>
  <use xlink:href="#malayalam-pref-position:id2:glyph0-2" x="143.8125" y="97.046875" class="c2"/>
  <use xlink:href="#malayalam-pref-position:id2:glyph0-3" x="143.8125" y="97.046875" class="c3"/>
  <use xlink:href="#malayalam-pref-position:id2:glyph0-4" x="220.15625" y="97.046875" class="c0"/>
  <use xlink:href="#malayalam-pref-position:id2:glyph0-5" x="244.5625" y="97.046875" class="c4"/>
  <use xlink:href="#malayalam-pref-position:id2:glyph0-6" x="462.6875" y="97.046875" class="c5"/>
</g>
</g>
</g>
</svg>