<?xml version="1.0" standalone="no"?>
<!DOCTYPE svg PUBLIC "-//W3C//DTD SVG 1.1//EN"
 "http://www.w3.org/Graphics/SVG/1.1/DTD/svg11.dtd">
<!-- Created with svg_stack (http://github.com/astraw/svg_stack) -->
<svg xmlns="http://www.w3.org/2000/svg" xmlns:sodipodi="http://sodipodi.sourceforge.net/DTD/sodipodi-0.dtd" xmlns:xlink="http://www.w3.org/1999/xlink" version="1.1" width="534.8828125" height="201.40625">
  <defs><g>
<symbol overflow="visible" id="id0:glyph0-0">
<path style="stroke:none;" d="M 10.34375 0 L 10.34375 -78.546875 L 55.546875 -78.546875 L 55.546875 0 Z M 15.953125 -5.609375 L 49.9375 -5.609375 L 49.9375 -72.9375 L 15.953125 -72.9375 Z M 15.953125 -5.609375 "/>
</symbol>
<symbol overflow="visible" id="id0:glyph0-1">
<path style="stroke:none;" d="M 30.90625 -46.640625 C 28.5625 -46.640625 27.390625 -47.8125 27.390625 -50.15625 C 27.390625 -52.425781 28.5625 -53.5625 30.90625 -53.5625 C 33.175781 -53.5625 34.3125 -52.425781 34.3125 -50.15625 C 34.3125 -47.8125 33.175781 -46.640625 30.90625 -46.640625 Z M 15.1875 -40.59375 C 12.832031 -40.59375 11.65625 -41.765625 11.65625 -44.109375 C 11.65625 -46.378906 12.832031 -47.515625 15.1875 -47.515625 C 17.457031 -47.515625 18.59375 -46.378906 18.59375 -44.109375 C 18.59375 -41.765625 17.457031 -40.59375 15.1875 -40.59375 Z M 46.53125 -40.59375 C 44.1875 -40.59375 43.015625 -41.765625 43.015625 -44.109375 C 43.015625 -46.378906 44.1875 -47.515625 46.53125 -47.515625 C 48.875 -47.515625 50.046875 -46.378906 50.046875 -44.109375 C 50.046875 -41.765625 48.875 -40.59375 46.53125 -40.59375 Z M 9.796875 -25.40625 C 7.441406 -25.40625 6.265625 -26.617188 6.265625 -29.046875 C 6.265625 -31.316406 7.441406 -32.453125 9.796875 -32.453125 C 12.140625 -32.453125 13.3125 -31.316406 13.3125 -29.046875 C 13.3125 -26.617188 12.140625 -25.40625 9.796875 -25.40625 Z M 51.921875 -25.40625 C 49.648438 -25.40625 48.515625 -26.617188 48.515625 -29.046875 C 48.515625 -31.316406 49.648438 -32.453125 51.921875 -32.453125 C 54.265625 -32.453125 55.4375 -31.316406 55.4375 -29.046875 C 55.4375 -26.617188 54.265625 -25.40625 51.921875 -25.40625 Z M 15.1875 -10.453125 C 12.832031 -10.453125 11.65625 -11.625 11.65625 -13.96875 C 11.65625 -16.238281 12.832031 -17.375 15.1875 -17.375 C 17.457031 -17.375 18.59375 -16.238281 18.59375 -13.96875 C 18.59375 -11.625 17.457031 -10.453125 15.1875 -10.453125 Z M 46.53125 -10.453125 C 44.1875 -10.453125 43.015625 -11.625 43.015625 -13.96875 C 43.015625 -16.238281 44.1875 -17.375 46.53125 -17.375 C 48.875 -17.375 50.046875 -16.238281 50.046875 -13.96875 C 50.046875 -11.625 48.875 -10.453125 46.53125 -10.453125 Z M 30.90625 -4.40625 C 28.5625 -4.40625 27.390625 -5.578125 27.390625 -7.921875 C 27.390625 -10.265625 28.5625 -11.4375 30.90625 -11.4375 C 33.175781 -11.4375 34.3125 -10.265625 34.3125 -7.921875 C 34.3125 -5.578125 33.175781 -4.40625 30.90625 -4.40625 Z M 30.90625 -4.40625 "/>
</symbol>
<symbol overflow="visible" id="id0:glyph0-2">
<path style="stroke:none;" d="M -10.234375 -66.546875 C -15.441406 -66.546875 -19.457031 -67.222656 -22.28125 -68.578125 C -25.101562 -69.941406 -27.0625 -71.648438 -28.15625 -73.703125 C -29.257812 -75.753906 -29.8125 -77.84375 -29.8125 -79.96875 C -29.8125 -82.53125 -28.945312 -84.507812 -27.21875 -85.90625 C -25.5 -87.300781 -23.613281 -88 -21.5625 -88 C -20.675781 -88 -19.832031 -87.851562 -19.03125 -87.5625 C -19.539062 -86.09375 -19.796875 -84.585938 -19.796875 -83.046875 C -19.796875 -79.816406 -18.878906 -77.320312 -17.046875 -75.5625 C -15.210938 -73.8125 -12.71875 -72.9375 -9.5625 -72.9375 C -6.488281 -72.9375 -4.050781 -73.722656 -2.25 -75.296875 C -0.457031 -76.867188 0.4375 -79.304688 0.4375 -82.609375 C 0.4375 -84.441406 0.0703125 -86.09375 -0.65625 -87.5625 C 0 -87.78125 0.695312 -87.890625 1.4375 -87.890625 C 3.34375 -87.890625 4.753906 -87.132812 5.671875 -85.625 C 6.585938 -84.125 7.046875 -82.457031 7.046875 -80.625 C 7.046875 -76.59375 5.578125 -73.238281 2.640625 -70.5625 C -0.296875 -67.882812 -4.585938 -66.546875 -10.234375 -66.546875 Z M -10.234375 -66.546875 "/>
</symbol>
<symbol overflow="visible" id="id0:glyph0-3">
<path style="stroke:none;" d="M 37.0625 0.65625 C 30.394531 0.65625 24.640625 -0.898438 19.796875 -4.015625 C 14.960938 -7.128906 11.222656 -11.34375 8.578125 -16.65625 C 5.941406 -21.976562 4.625 -27.941406 4.625 -34.546875 C 4.625 -39.890625 5.578125 -44.597656 7.484375 -48.671875 C 9.390625 -52.742188 12.082031 -55.914062 15.5625 -58.1875 C 19.050781 -60.457031 23.210938 -61.59375 28.046875 -61.59375 C 30.617188 -61.59375 32.875 -61.316406 34.8125 -60.765625 C 36.757812 -60.222656 38.613281 -59.398438 40.375 -58.296875 C 43.75 -60.492188 47.597656 -61.59375 51.921875 -61.59375 C 55.441406 -61.59375 58.882812 -60.691406 62.25 -58.890625 C 65.625 -57.097656 68.429688 -54.296875 70.671875 -50.484375 C 72.910156 -46.671875 74.03125 -41.648438 74.03125 -35.421875 C 74.03125 -29.703125 72.816406 -24.3125 70.390625 -19.25 C 67.972656 -14.1875 64.566406 -10.003906 60.171875 -6.703125 C 62.515625 -6.191406 64.9375 -5.9375 67.4375 -5.9375 C 71.757812 -5.9375 75.789062 -6.925781 79.53125 -8.90625 C 83.269531 -10.882812 86.273438 -13.890625 88.546875 -17.921875 C 90.816406 -21.960938 91.953125 -27.0625 91.953125 -33.21875 C 91.953125 -39.375 90.851562 -44.722656 88.65625 -49.265625 C 86.457031 -53.816406 83.5625 -57.597656 79.96875 -60.609375 C 80.550781 -60.972656 81.207031 -61.226562 81.9375 -61.375 C 82.675781 -61.519531 83.34375 -61.59375 83.9375 -61.59375 C 87.082031 -61.59375 90.082031 -60.398438 92.9375 -58.015625 C 95.800781 -55.640625 98.164062 -52.304688 100.03125 -48.015625 C 101.90625 -43.722656 102.84375 -38.71875 102.84375 -33 C 102.84375 -25.882812 101.375 -19.816406 98.4375 -14.796875 C 95.507812 -9.773438 91.535156 -5.941406 86.515625 -3.296875 C 81.492188 -0.660156 75.863281 0.65625 69.625 0.65625 C 63.6875 0.65625 58.148438 -0.40625 53.015625 -2.53125 C 50.671875 -1.5 48.160156 -0.707031 45.484375 -0.15625 C 42.804688 0.382812 40 0.65625 37.0625 0.65625 Z M 37.0625 -37.84375 C 37.0625 -31.53125 38.34375 -25.953125 40.90625 -21.109375 C 43.476562 -16.273438 47.039062 -12.578125 51.59375 -10.015625 C 54.445312 -11.921875 56.769531 -14.320312 58.5625 -17.21875 C 60.363281 -20.113281 61.6875 -23.226562 62.53125 -26.5625 C 63.375 -29.894531 63.796875 -33.140625 63.796875 -36.296875 C 63.796875 -40.773438 63.15625 -44.367188 61.875 -47.078125 C 60.59375 -49.796875 58.925781 -51.796875 56.875 -53.078125 C 54.820312 -54.359375 52.617188 -55 50.265625 -55 C 47.992188 -55 45.847656 -54.375 43.828125 -53.125 C 41.816406 -51.882812 40.1875 -50 38.9375 -47.46875 C 37.6875 -44.9375 37.0625 -41.726562 37.0625 -37.84375 Z M 11.109375 -34.65625 C 11.109375 -29.375 12.113281 -24.566406 14.125 -20.234375 C 16.144531 -15.910156 19.117188 -12.445312 23.046875 -9.84375 C 26.972656 -7.238281 31.757812 -5.9375 37.40625 -5.9375 C 40.113281 -5.9375 42.675781 -6.269531 45.09375 -6.9375 C 40.695312 -10.226562 37.175781 -14.476562 34.53125 -19.6875 C 31.894531 -24.894531 30.578125 -30.945312 30.578125 -37.84375 C 30.578125 -41.070312 30.976562 -43.96875 31.78125 -46.53125 C 32.59375 -49.09375 33.660156 -51.328125 34.984375 -53.234375 C 32.929688 -54.410156 30.507812 -55 27.71875 -55 C 23.90625 -55 20.769531 -54.082031 18.3125 -52.25 C 15.851562 -50.414062 14.035156 -47.957031 12.859375 -44.875 C 11.691406 -41.800781 11.109375 -38.394531 11.109375 -34.65625 Z M 11.109375 -34.65625 "/>
</symbol>
</g>
<g>
<symbol overflow="visible" id="id1:glyph0-0">
<path style="stroke:none;" d="M 5.375 -96.6875 L 69.828125 -96.6875 L 69.828125 0 L 5.375 0 Z M 8.0625 -2.6875 L 67.140625 -2.6875 L 67.140625 -94 L 8.0625 -94 Z M 8.0625 -2.6875 "/>
</symbol>
<symbol overflow="visible" id="id1:glyph0-1">
<path style="stroke:none;" d="M 68.15625 -13.75 L 66.28125 -18.640625 L 88.09375 -27.390625 L 6.984375 -27.390625 L 6.984375 -34 L 88.09375 -34 L 66.28125 -42.75 L 68.15625 -47.640625 L 99.09375 -34.265625 L 99.09375 -27.125 Z M 68.15625 -13.75 "/>
</symbol>
</g>
<g>
<symbol overflow="visible" id="id2:glyph0-0">
<path style="stroke:none;" d="M 10.34375 0 L 10.34375 -78.546875 L 55.546875 -78.546875 L 55.546875 0 Z M 15.953125 -5.609375 L 49.9375 -5.609375 L 49.9375 -72.9375 L 15.953125 -72.9375 Z M 15.953125 -5.609375 "/>
</symbol>
<symbol overflow="visible" id="id2:glyph0-1">
<path style="stroke:none;" d="M 30.90625 -46.640625 C 28.5625 -46.640625 27.390625 -47.8125 27.390625 -50.15625 C 27.390625 -52.425781 28.5625 -53.5625 30.90625 -53.5625 C 33.175781 -53.5625 34.3125 -52.425781 34.3125 -50.15625 C 34.3125 -47.8125 33.175781 -46.640625 30.90625 -46.640625 Z M 15.1875 -40.59375 C 12.832031 -40.59375 11.65625 -41.765625 11.65625 -44.109375 C 11.65625 -46.378906 12.832031 -47.515625 15.1875 -47.515625 C 17.457031 -47.515625 18.59375 -46.378906 18.59375 -44.109375 C 18.59375 -41.765625 17.457031 -40.59375 15.1875 -40.59375 Z M 46.53125 -40.59375 C 44.1875 -40.59375 43.015625 -41.765625 43.015625 -44.109375 C 43.015625 -46.378906 44.1875 -47.515625 46.53125 -47.515625 C 48.875 -47.515625 50.046875 -46.378906 50.046875 -44.109375 C 50.046875 -41.765625 48.875 -40.59375 46.53125 -40.59375 Z M 9.796875 -25.40625 C 7.441406 -25.40625 6.265625 -26.617188 6.265625 -29.046875 C 6.265625 -31.316406 7.441406 -32.453125 9.796875 -32.453125 C 12.140625 -32.453125 13.3125 -31.316406 13.3125 -29.046875 C 13.3125 -26.617188 12.140625 -25.40625 9.796875 -25.40625 Z M 51.921875 -25.40625 C 49.648438 -25.40625 48.515625 -26.617188 48.515625 -29.046875 C 48.515625 -31.316406 49.648438 -32.453125 51.921875 -32.453125 C 54.265625 -32.453125 55.4375 -31.316406 55.4375 -29.046875 C 55.4375 -26.617188 54.265625 -25.40625 51.921875 -25.40625 Z M 15.1875 -10.453125 C 12.832031 -10.453125 11.65625 -11.625 11.65625 -13.96875 C 11.65625 -16.238281 12.832031 -17.375 15.1875 -17.375 C 17.457031 -17.375 18.59375 -16.238281 18.59375 -13.96875 C 18.59375 -11.625 17.457031 -10.453125 15.1875 -10.453125 Z M 46.53125 -10.453125 C 44.1875 -10.453125 43.015625 -11.625 43.015625 -13.96875 C 43.015625 -16.238281 44.1875 -17.375 46.53125 -17.375 C 48.875 -17.375 50.046875 -16.238281 50.046875 -13.96875 C 50.046875 -11.625 48.875 -10.453125 46.53125 -10.453125 Z M 30.90625 -4.40625 C 28.5625 -4.40625 27.390625 -5.578125 27.390625 -7.921875 C 27.390625 -10.265625 28.5625 -11.4375 30.90625 -11.4375 C 33.175781 -11.4375 34.3125 -10.265625 34.3125 -7.921875 C 34.3125 -5.578125 33.175781 -4.40625 30.90625 -4.40625 Z M 30.90625 -4.40625 "/>
</symbol>
<symbol overflow="visible" id="id2:glyph0-2">
<path style="stroke:none;" d="M 7.921875 30.90625 C 3.515625 30.90625 -0.0625 30.226562 -2.8125 28.875 C -5.5625 27.519531 -7.578125 25.773438 -8.859375 23.640625 C -10.140625 21.515625 -10.78125 19.316406 -10.78125 17.046875 C -10.78125 14.410156 -9.878906 12.320312 -8.078125 10.78125 C -6.285156 9.238281 -4.03125 8.46875 -1.3125 8.46875 C -2.050781 10.007812 -2.421875 11.953125 -2.421875 14.296875 C -2.421875 17.523438 -1.394531 19.960938 0.65625 21.609375 C 2.707031 23.265625 5.382812 24.09375 8.6875 24.09375 C 12.71875 24.09375 15.832031 22.9375 18.03125 20.625 C 20.238281 18.3125 21.34375 14.992188 21.34375 10.671875 C 21.34375 6.566406 20.625 2.585938 19.1875 -1.265625 C 17.757812 -5.117188 15.691406 -9.71875 12.984375 -15.0625 C 10.335938 -20.34375 8.039062 -25.53125 6.09375 -30.625 C 4.15625 -35.726562 3.1875 -40.847656 3.1875 -45.984375 C 3.1875 -49.867188 3.828125 -52.945312 5.109375 -55.21875 C 6.398438 -57.488281 8.035156 -59.117188 10.015625 -60.109375 C 11.992188 -61.097656 14.082031 -61.59375 16.28125 -61.59375 C 17.15625 -61.59375 18.035156 -61.519531 18.921875 -61.375 C 17.816406 -59.613281 16.785156 -57.285156 15.828125 -54.390625 C 14.878906 -51.492188 14.40625 -47.703125 14.40625 -43.015625 C 14.40625 -38.390625 15.066406 -33.65625 16.390625 -28.8125 C 17.710938 -23.976562 19.398438 -18.957031 21.453125 -13.75 C 23.359375 -9.050781 24.894531 -4.738281 26.0625 -0.8125 C 27.238281 3.101562 27.828125 6.785156 27.828125 10.234375 C 27.828125 14.117188 27.113281 17.617188 25.6875 20.734375 C 24.257812 23.847656 22.078125 26.320312 19.140625 28.15625 C 16.203125 29.988281 12.460938 30.90625 7.921875 30.90625 Z M 7.921875 30.90625 "/>
</symbol>
</g>
</defs>
  <g id="id0:id0" transform="matrix(1.25,0,0,1.25,0.0,12.470703125)"><g id="id0:surface1">
<g style="fill:rgb(0%,0%,0%);fill-opacity:1;">
  <use xlink:href="#id0:glyph0-1" x="16" y="97.046875"/>
  <use xlink:href="#id0:glyph0-2" x="77.703125" y="97.046875"/>
  <use xlink:href="#id0:glyph0-3" x="77.703125" y="97.046875"/>
</g>
</g>
</g>
  <g id="id1:id1" transform="matrix(1.25,0,0,1.25,251.46484375,0.0)"><g id="id1:surface1">
<g style="fill:rgb(0%,0%,0%);fill-opacity:1;">
  <use xlink:href="#id1:glyph0-1" x="0" y="120.84375"/>
</g>
</g>
</g>
  <g id="id2:id2" transform="matrix(1.25,0,0,1.25,384.0625,12.470703125)"><g id="id2:surface1">
<g style="fill:rgb(0%,0%,0%);fill-opacity:1;">
  <use xlink:href="#id2:glyph0-1" x="16" y="97.046875"/>
  <use xlink:href="#id2:glyph0-2" x="77.703125" y="97.046875"/>
</g>
</g>
</g>
</svg>
