<?xml version="1.0" standalone="no"?>
<!DOCTYPE svg PUBLIC "-//W3C//DTD SVG 1.1//EN"
 "http://www.w3.org/Graphics/SVG/1.1/DTD/svg11.dtd">
<!-- Created with svg_stack (http://github.com/astraw/svg_stack) -->
<svg xmlns="http://www.w3.org/2000/svg" xmlns:sodipodi="http://sodipodi.sourceforge.net/DTD/sodipodi-0.dtd" xmlns:xlink="http://www.w3.org/1999/xlink" version="1.1" width="493.4765625" height="201.40625">
  <defs><g>
<symbol overflow="visible" id="id0:glyph0-0">
<path style="stroke:none;" d="M 10.34375 0 L 10.34375 -78.546875 L 55.546875 -78.546875 L 55.546875 0 Z M 15.953125 -5.609375 L 49.9375 -5.609375 L 49.9375 -72.9375 L 15.953125 -72.9375 Z M 15.953125 -5.609375 "/>
</symbol>
<symbol overflow="visible" id="id0:glyph0-1">
<path style="stroke:none;" d="M 30.90625 -46.640625 C 28.5625 -46.640625 27.390625 -47.8125 27.390625 -50.15625 C 27.390625 -52.425781 28.5625 -53.5625 30.90625 -53.5625 C 33.175781 -53.5625 34.3125 -52.425781 34.3125 -50.15625 C 34.3125 -47.8125 33.175781 -46.640625 30.90625 -46.640625 Z M 15.1875 -40.59375 C 12.832031 -40.59375 11.65625 -41.765625 11.65625 -44.109375 C 11.65625 -46.378906 12.832031 -47.515625 15.1875 -47.515625 C 17.457031 -47.515625 18.59375 -46.378906 18.59375 -44.109375 C 18.59375 -41.765625 17.457031 -40.59375 15.1875 -40.59375 Z M 46.53125 -40.59375 C 44.1875 -40.59375 43.015625 -41.765625 43.015625 -44.109375 C 43.015625 -46.378906 44.1875 -47.515625 46.53125 -47.515625 C 48.875 -47.515625 50.046875 -46.378906 50.046875 -44.109375 C 50.046875 -41.765625 48.875 -40.59375 46.53125 -40.59375 Z M 9.796875 -25.40625 C 7.441406 -25.40625 6.265625 -26.617188 6.265625 -29.046875 C 6.265625 -31.316406 7.441406 -32.453125 9.796875 -32.453125 C 12.140625 -32.453125 13.3125 -31.316406 13.3125 -29.046875 C 13.3125 -26.617188 12.140625 -25.40625 9.796875 -25.40625 Z M 51.921875 -25.40625 C 49.648438 -25.40625 48.515625 -26.617188 48.515625 -29.046875 C 48.515625 -31.316406 49.648438 -32.453125 51.921875 -32.453125 C 54.265625 -32.453125 55.4375 -31.316406 55.4375 -29.046875 C 55.4375 -26.617188 54.265625 -25.40625 51.921875 -25.40625 Z M 15.1875 -10.453125 C 12.832031 -10.453125 11.65625 -11.625 11.65625 -13.96875 C 11.65625 -16.238281 12.832031 -17.375 15.1875 -17.375 C 17.457031 -17.375 18.59375 -16.238281 18.59375 -13.96875 C 18.59375 -11.625 17.457031 -10.453125 15.1875 -10.453125 Z M 46.53125 -10.453125 C 44.1875 -10.453125 43.015625 -11.625 43.015625 -13.96875 C 43.015625 -16.238281 44.1875 -17.375 46.53125 -17.375 C 48.875 -17.375 50.046875 -16.238281 50.046875 -13.96875 C 50.046875 -11.625 48.875 -10.453125 46.53125 -10.453125 Z M 30.90625 -4.40625 C 28.5625 -4.40625 27.390625 -5.578125 27.390625 -7.921875 C 27.390625 -10.265625 28.5625 -11.4375 30.90625 -11.4375 C 33.175781 -11.4375 34.3125 -10.265625 34.3125 -7.921875 C 34.3125 -5.578125 33.175781 -4.40625 30.90625 -4.40625 Z M 30.90625 -4.40625 "/>
</symbol>
<symbol overflow="visible" id="id0:glyph0-2">
<path style="stroke:none;" d="M -10.234375 -66.546875 C -15.441406 -66.546875 -19.457031 -67.222656 -22.28125 -68.578125 C -25.101562 -69.941406 -27.0625 -71.648438 -28.15625 -73.703125 C -29.257812 -75.753906 -29.8125 -77.84375 -29.8125 -79.96875 C -29.8125 -82.53125 -28.945312 -84.507812 -27.21875 -85.90625 C -25.5 -87.300781 -23.613281 -88 -21.5625 -88 C -20.675781 -88 -19.832031 -87.851562 -19.03125 -87.5625 C -19.539062 -86.09375 -19.796875 -84.585938 -19.796875 -83.046875 C -19.796875 -79.816406 -18.878906 -77.320312 -17.046875 -75.5625 C -15.210938 -73.8125 -12.71875 -72.9375 -9.5625 -72.9375 C -6.488281 -72.9375 -4.050781 -73.722656 -2.25 -75.296875 C -0.457031 -76.867188 0.4375 -79.304688 0.4375 -82.609375 C 0.4375 -84.441406 0.0703125 -86.09375 -0.65625 -87.5625 C 0 -87.78125 0.695312 -87.890625 1.4375 -87.890625 C 3.34375 -87.890625 4.753906 -87.132812 5.671875 -85.625 C 6.585938 -84.125 7.046875 -82.457031 7.046875 -80.625 C 7.046875 -76.59375 5.578125 -73.238281 2.640625 -70.5625 C -0.296875 -67.882812 -4.585938 -66.546875 -10.234375 -66.546875 Z M -10.234375 -66.546875 "/>
</symbol>
<symbol overflow="visible" id="id0:glyph0-3">
<path style="stroke:none;" d="M 22.109375 0.65625 C 20.347656 0.65625 18.457031 -0.0546875 16.4375 -1.484375 C 14.425781 -2.910156 12.519531 -4.90625 10.71875 -7.46875 C 8.925781 -10.039062 7.460938 -13.085938 6.328125 -16.609375 C 5.191406 -20.128906 4.625 -23.976562 4.625 -28.15625 C 4.625 -35.269531 6.125 -41.320312 9.125 -46.3125 C 12.132812 -51.300781 16.113281 -55.09375 21.0625 -57.6875 C 26.007812 -60.289062 31.304688 -61.59375 36.953125 -61.59375 C 43.921875 -61.59375 49.9375 -60.035156 55 -56.921875 C 60.0625 -53.804688 63.945312 -49.535156 66.65625 -44.109375 C 69.375 -38.679688 70.734375 -32.554688 70.734375 -25.734375 C 70.734375 -21.046875 69.890625 -16.703125 68.203125 -12.703125 C 66.515625 -8.703125 64.035156 -5.472656 60.765625 -3.015625 C 57.503906 -0.566406 53.53125 0.65625 48.84375 0.65625 C 42.457031 0.65625 37.578125 -1.484375 34.203125 -5.765625 C 30.835938 -10.054688 29.15625 -15.613281 29.15625 -22.4375 C 29.15625 -28.675781 30.378906 -34.394531 32.828125 -39.59375 C 35.285156 -44.800781 38.679688 -49.535156 43.015625 -53.796875 C 40.804688 -54.453125 38.492188 -54.78125 36.078125 -54.78125 C 31.160156 -54.78125 26.832031 -53.679688 23.09375 -51.484375 C 19.351562 -49.285156 16.421875 -46.164062 14.296875 -42.125 C 12.171875 -38.09375 11.109375 -33.363281 11.109375 -27.9375 C 11.109375 -21.925781 12.535156 -16.664062 15.390625 -12.15625 C 18.253906 -7.644531 21.851562 -3.992188 26.1875 -1.203125 C 25.738281 -0.617188 25.144531 -0.164062 24.40625 0.15625 C 23.675781 0.488281 22.910156 0.65625 22.109375 0.65625 Z M 35.53125 -21.890625 C 35.53125 -16.753906 36.664062 -12.8125 38.9375 -10.0625 C 41.207031 -7.3125 44.140625 -5.9375 47.734375 -5.9375 C 50.015625 -5.9375 52.085938 -6.519531 53.953125 -7.6875 C 55.828125 -8.863281 57.3125 -10.882812 58.40625 -13.75 C 59.507812 -16.613281 60.0625 -20.535156 60.0625 -25.515625 C 60.0625 -30.578125 59.085938 -35.472656 57.140625 -40.203125 C 55.203125 -44.929688 52.289062 -48.582031 48.40625 -51.15625 C 44.289062 -47.257812 41.113281 -42.765625 38.875 -37.671875 C 36.644531 -32.578125 35.53125 -27.316406 35.53125 -21.890625 Z M 35.53125 -21.890625 "/>
</symbol>
</g>
<g>
<symbol overflow="visible" id="id1:glyph0-0">
<path style="stroke:none;" d="M 5.375 -96.6875 L 69.828125 -96.6875 L 69.828125 0 L 5.375 0 Z M 8.0625 -2.6875 L 67.140625 -2.6875 L 67.140625 -94 L 8.0625 -94 Z M 8.0625 -2.6875 "/>
</symbol>
<symbol overflow="visible" id="id1:glyph0-1">
<path style="stroke:none;" d="M 68.15625 -13.75 L 66.28125 -18.640625 L 88.09375 -27.390625 L 6.984375 -27.390625 L 6.984375 -34 L 88.09375 -34 L 66.28125 -42.75 L 68.15625 -47.640625 L 99.09375 -34.265625 L 99.09375 -27.125 Z M 68.15625 -13.75 "/>
</symbol>
</g>
<g>
<symbol overflow="visible" id="id2:glyph0-0">
<path style="stroke:none;" d="M 10.34375 0 L 10.34375 -78.546875 L 55.546875 -78.546875 L 55.546875 0 Z M 15.953125 -5.609375 L 49.9375 -5.609375 L 49.9375 -72.9375 L 15.953125 -72.9375 Z M 15.953125 -5.609375 "/>
</symbol>
<symbol overflow="visible" id="id2:glyph0-1">
<path style="stroke:none;" d="M 32.234375 20.125 C 26.441406 20.125 21.546875 18.65625 17.546875 15.71875 C 13.546875 12.789062 10.5 8.722656 8.40625 3.515625 C 6.320312 -1.691406 5.28125 -7.703125 5.28125 -14.515625 C 5.28125 -20.828125 6.03125 -26.820312 7.53125 -32.5 C 9.039062 -38.1875 10.929688 -43.226562 13.203125 -47.625 C 15.472656 -52.03125 17.78125 -55.515625 20.125 -58.078125 C 22.476562 -60.648438 24.535156 -61.9375 26.296875 -61.9375 C 27.535156 -61.9375 28.414062 -61.492188 28.9375 -60.609375 C 25.925781 -57.453125 23.410156 -53.96875 21.390625 -50.15625 C 19.378906 -46.34375 17.785156 -42.457031 16.609375 -38.5 C 15.429688 -34.539062 14.585938 -30.671875 14.078125 -26.890625 C 13.566406 -23.117188 13.3125 -19.726562 13.3125 -16.71875 C 13.3125 -7.257812 15.304688 0 19.296875 5.0625 C 23.296875 10.125 28.816406 12.65625 35.859375 12.65625 C 37.546875 12.65625 39.359375 12.503906 41.296875 12.203125 C 43.242188 11.910156 45.132812 11.398438 46.96875 10.671875 L 46.96875 11 C 46.96875 13.488281 45.628906 15.628906 42.953125 17.421875 C 40.273438 19.222656 36.703125 20.125 32.234375 20.125 Z M 32.234375 20.125 "/>
</symbol>
<symbol overflow="visible" id="id2:glyph0-2">
<path style="stroke:none;" d="M 30.90625 -46.640625 C 28.5625 -46.640625 27.390625 -47.8125 27.390625 -50.15625 C 27.390625 -52.425781 28.5625 -53.5625 30.90625 -53.5625 C 33.175781 -53.5625 34.3125 -52.425781 34.3125 -50.15625 C 34.3125 -47.8125 33.175781 -46.640625 30.90625 -46.640625 Z M 15.1875 -40.59375 C 12.832031 -40.59375 11.65625 -41.765625 11.65625 -44.109375 C 11.65625 -46.378906 12.832031 -47.515625 15.1875 -47.515625 C 17.457031 -47.515625 18.59375 -46.378906 18.59375 -44.109375 C 18.59375 -41.765625 17.457031 -40.59375 15.1875 -40.59375 Z M 46.53125 -40.59375 C 44.1875 -40.59375 43.015625 -41.765625 43.015625 -44.109375 C 43.015625 -46.378906 44.1875 -47.515625 46.53125 -47.515625 C 48.875 -47.515625 50.046875 -46.378906 50.046875 -44.109375 C 50.046875 -41.765625 48.875 -40.59375 46.53125 -40.59375 Z M 9.796875 -25.40625 C 7.441406 -25.40625 6.265625 -26.617188 6.265625 -29.046875 C 6.265625 -31.316406 7.441406 -32.453125 9.796875 -32.453125 C 12.140625 -32.453125 13.3125 -31.316406 13.3125 -29.046875 C 13.3125 -26.617188 12.140625 -25.40625 9.796875 -25.40625 Z M 51.921875 -25.40625 C 49.648438 -25.40625 48.515625 -26.617188 48.515625 -29.046875 C 48.515625 -31.316406 49.648438 -32.453125 51.921875 -32.453125 C 54.265625 -32.453125 55.4375 -31.316406 55.4375 -29.046875 C 55.4375 -26.617188 54.265625 -25.40625 51.921875 -25.40625 Z M 15.1875 -10.453125 C 12.832031 -10.453125 11.65625 -11.625 11.65625 -13.96875 C 11.65625 -16.238281 12.832031 -17.375 15.1875 -17.375 C 17.457031 -17.375 18.59375 -16.238281 18.59375 -13.96875 C 18.59375 -11.625 17.457031 -10.453125 15.1875 -10.453125 Z M 46.53125 -10.453125 C 44.1875 -10.453125 43.015625 -11.625 43.015625 -13.96875 C 43.015625 -16.238281 44.1875 -17.375 46.53125 -17.375 C 48.875 -17.375 50.046875 -16.238281 50.046875 -13.96875 C 50.046875 -11.625 48.875 -10.453125 46.53125 -10.453125 Z M 30.90625 -4.40625 C 28.5625 -4.40625 27.390625 -5.578125 27.390625 -7.921875 C 27.390625 -10.265625 28.5625 -11.4375 30.90625 -11.4375 C 33.175781 -11.4375 34.3125 -10.265625 34.3125 -7.921875 C 34.3125 -5.578125 33.175781 -4.40625 30.90625 -4.40625 Z M 30.90625 -4.40625 "/>
</symbol>
</g>
</defs>
  <g id="id0:id0" transform="matrix(1.25,0,0,1.25,0.0,12.470703125)"><g id="id0:surface1">
<g style="fill:rgb(0%,0%,0%);fill-opacity:1;">
  <use xlink:href="#id0:glyph0-1" x="16" y="97.046875"/>
  <use xlink:href="#id0:glyph0-2" x="77.703125" y="97.046875"/>
  <use xlink:href="#id0:glyph0-3" x="77.703125" y="97.046875"/>
</g>
</g>
</g>
  <g id="id1:id1" transform="matrix(1.25,0,0,1.25,211.30859375,0.0)"><g id="id1:surface1">
<g style="fill:rgb(0%,0%,0%);fill-opacity:1;">
  <use xlink:href="#id1:glyph0-1" x="0" y="120.84375"/>
</g>
</g>
</g>
  <g id="id2:id2" transform="matrix(1.25,0,0,1.25,343.90625,12.470703125)"><g id="id2:surface1">
<g style="fill:rgb(0%,0%,0%);fill-opacity:1;">
  <use xlink:href="#id2:glyph0-1" x="16" y="97.046875"/>
  <use xlink:href="#id2:glyph0-2" x="41.953125" y="97.046875"/>
</g>
</g>
</g>
</svg>
