<!DOCTYPE svg PUBLIC "-//W3C//DTD SVG 1.1//EN" "http://www.w3.org/Graphics/SVG/1.1/DTD/svg11.dtd">
<!-- Created with svg_stack (http://github.com/astraw/svg_stack) --><svg xmlns="http://www.w3.org/2000/svg" xmlns:sodipodi="http://sodipodi.sourceforge.net/DTD/sodipodi-0.dtd" xmlns:xlink="http://www.w3.org/1999/xlink" version="1.1" width="100%" id="malayalam-blwm" viewBox="0 0 417.75390625 201.40625">
  <defs><g>
<symbol overflow="visible" id="malayalam-blwm:id0:glyph0-0">
<path style="stroke:none;" d="M 10.34375 0 L 10.34375 -78.546875 L 55.546875 -78.546875 L 55.546875 0 Z M 15.953125 -5.609375 L 49.9375 -5.609375 L 49.9375 -72.9375 L 15.953125 -72.9375 Z M 15.953125 -5.609375 "/>
</symbol>
<symbol overflow="visible" id="malayalam-blwm:id0:glyph0-1">
<path style="stroke:none;" d="M 16.390625 39.8125 C 12.867188 39.8125 9.972656 38.988281 7.703125 37.34375 C 5.429688 35.695312 3.757812 33.570312 2.6875 30.96875 C 1.625 28.363281 1.09375 25.664062 1.09375 22.875 C 1.09375 18.332031 2.140625 14.519531 4.234375 11.4375 C 6.328125 8.351562 9.039062 6.039062 12.375 4.5 C 15.707031 2.96875 19.28125 2.203125 23.09375 2.203125 C 27.132812 2.203125 30.726562 2.894531 33.875 4.28125 C 37.03125 5.675781 39.671875 7.953125 41.796875 11.109375 C 43.335938 8.472656 45.554688 6.328125 48.453125 4.671875 C 51.347656 3.023438 54.8125 2.203125 58.84375 2.203125 C 63.539062 2.203125 67.519531 3.171875 70.78125 5.109375 C 74.050781 7.054688 76.5625 9.660156 78.3125 12.921875 C 80.070312 16.179688 80.953125 19.832031 80.953125 23.875 C 80.953125 28.5625 79.707031 32.390625 77.21875 35.359375 C 74.726562 38.328125 71.097656 39.8125 66.328125 39.8125 C 62.296875 39.8125 59.050781 38.617188 56.59375 36.234375 C 54.132812 33.859375 52.90625 30.394531 52.90625 25.84375 C 52.90625 22.625 53.640625 19.507812 55.109375 16.5 C 56.578125 13.488281 58.59375 10.664062 61.15625 8.03125 C 60.132812 7.8125 59.070312 7.703125 57.96875 7.703125 C 53.351562 7.703125 50.035156 9.054688 48.015625 11.765625 C 45.992188 14.484375 44.984375 18.003906 44.984375 22.328125 L 44.984375 39.375 L 36.296875 39.375 L 36.296875 22.21875 C 36.296875 17.820312 35.101562 14.300781 32.71875 11.65625 C 30.34375 9.019531 26.878906 7.703125 22.328125 7.703125 C 18.222656 7.703125 14.703125 8.765625 11.765625 10.890625 C 8.835938 13.015625 7.148438 16.238281 6.703125 20.5625 C 8.097656 18.957031 9.726562 17.675781 11.59375 16.71875 C 13.46875 15.769531 15.617188 15.296875 18.046875 15.296875 C 21.265625 15.296875 24.082031 16.300781 26.5 18.3125 C 28.925781 20.332031 30.140625 23.25 30.140625 27.0625 C 30.140625 31.09375 28.910156 34.222656 26.453125 36.453125 C 23.992188 38.691406 20.640625 39.8125 16.390625 39.8125 Z M 58.625 26.1875 C 58.625 28.675781 59.25 30.632812 60.5 32.0625 C 61.75 33.488281 63.363281 34.203125 65.34375 34.203125 C 67.25 34.203125 68.84375 33.394531 70.125 31.78125 C 71.40625 30.175781 72.046875 27.578125 72.046875 23.984375 C 72.046875 21.859375 71.625 19.398438 70.78125 16.609375 C 69.9375 13.828125 68.304688 11.59375 65.890625 9.90625 C 63.617188 12.46875 61.835938 15.101562 60.546875 17.8125 C 59.265625 20.53125 58.625 23.320312 58.625 26.1875 Z M 15.625 20.796875 C 13.863281 20.796875 12.285156 21.269531 10.890625 22.21875 C 9.492188 23.175781 8.175781 24.570312 6.9375 26.40625 C 7.445312 29.039062 8.488281 31.015625 10.0625 32.328125 C 11.644531 33.648438 13.5 34.3125 15.625 34.3125 C 17.675781 34.3125 19.269531 33.6875 20.40625 32.4375 C 21.539062 31.195312 22.109375 29.550781 22.109375 27.5 C 22.109375 25.445312 21.539062 23.816406 20.40625 22.609375 C 19.269531 21.398438 17.675781 20.796875 15.625 20.796875 Z M 37.84375 0.65625 C 34.25 0.65625 31.492188 0.21875 29.578125 -0.65625 C 27.671875 -1.539062 26.390625 -2.585938 25.734375 -3.796875 C 25.078125 -5.003906 24.75 -6.160156 24.75 -7.265625 C 24.75 -7.484375 24.765625 -7.71875 24.796875 -7.96875 C 24.835938 -8.226562 24.894531 -8.539062 24.96875 -8.90625 C 28.34375 -7.4375 31.601562 -6.703125 34.75 -6.703125 C 38.71875 -6.703125 41.503906 -7.453125 43.109375 -8.953125 C 44.722656 -10.460938 45.53125 -12.5 45.53125 -15.0625 C 45.53125 -17.125 45.054688 -19.253906 44.109375 -21.453125 C 43.296875 -21.378906 42.453125 -21.34375 41.578125 -21.34375 C 30.648438 -21.34375 22.691406 -23.46875 17.703125 -27.71875 C 12.710938 -31.96875 10.21875 -37.539062 10.21875 -44.4375 C 10.21875 -47.8125 10.878906 -50.742188 12.203125 -53.234375 C 13.523438 -55.734375 15.226562 -57.695312 17.3125 -59.125 C 19.40625 -60.550781 21.585938 -61.265625 23.859375 -61.265625 C 24.960938 -61.265625 25.84375 -61.15625 26.5 -60.9375 C 24.445312 -58.882812 22.960938 -56.5 22.046875 -53.78125 C 21.128906 -51.070312 20.671875 -48.4375 20.671875 -45.875 C 20.671875 -40.519531 22.226562 -36.132812 25.34375 -32.71875 C 28.46875 -29.3125 33.695312 -27.425781 41.03125 -27.0625 C 40.882812 -27.28125 40.738281 -27.5 40.59375 -27.71875 C 39.125 -29.988281 37.765625 -32.515625 36.515625 -35.296875 C 35.265625 -38.085938 34.640625 -41.171875 34.640625 -44.546875 C 34.640625 -48.285156 35.535156 -51.421875 37.328125 -53.953125 C 39.128906 -56.484375 41.476562 -58.390625 44.375 -59.671875 C 47.269531 -60.953125 50.296875 -61.59375 53.453125 -61.59375 C 58.878906 -61.59375 63.351562 -60.015625 66.875 -56.859375 C 70.394531 -53.710938 72.15625 -49.460938 72.15625 -44.109375 C 72.15625 -38.609375 70.394531 -34.078125 66.875 -30.515625 C 63.351562 -26.960938 58.914062 -24.414062 53.5625 -22.875 C 54.082031 -21.632812 54.523438 -20.332031 54.890625 -18.96875 C 55.253906 -17.613281 55.4375 -16.203125 55.4375 -14.734375 C 55.4375 -9.828125 53.75 -6.035156 50.375 -3.359375 C 47 -0.679688 42.820312 0.65625 37.84375 0.65625 Z M 50.046875 -29.265625 C 50.191406 -29.046875 50.335938 -28.804688 50.484375 -28.546875 C 50.628906 -28.285156 50.773438 -28.046875 50.921875 -27.828125 C 55.109375 -28.785156 58.648438 -30.640625 61.546875 -33.390625 C 64.441406 -36.140625 65.890625 -39.785156 65.890625 -44.328125 C 65.890625 -47.921875 64.84375 -50.632812 62.75 -52.46875 C 60.65625 -54.300781 58.144531 -55.21875 55.21875 -55.21875 C 52.132812 -55.21875 49.582031 -54.335938 47.5625 -52.578125 C 45.550781 -50.816406 44.546875 -48.175781 44.546875 -44.65625 C 44.546875 -41.726562 45.113281 -39.015625 46.25 -36.515625 C 47.382812 -34.023438 48.648438 -31.609375 50.046875 -29.265625 Z M 50.046875 -29.265625 "/>
</symbol>
</g>
<g>
<symbol overflow="visible" id="malayalam-blwm:id1:glyph0-0">
<path style="stroke:none;" d="M 5.375 -96.6875 L 69.828125 -96.6875 L 69.828125 0 L 5.375 0 Z M 8.0625 -2.6875 L 67.140625 -2.6875 L 67.140625 -94 L 8.0625 -94 Z M 8.0625 -2.6875 "/>
</symbol>
<symbol overflow="visible" id="malayalam-blwm:id1:glyph0-1">
<path style="stroke:none;" d="M 68.15625 -13.75 L 66.28125 -18.640625 L 88.09375 -27.390625 L 6.984375 -27.390625 L 6.984375 -34 L 88.09375 -34 L 66.28125 -42.75 L 68.15625 -47.640625 L 99.09375 -34.265625 L 99.09375 -27.125 Z M 68.15625 -13.75 "/>
</symbol>
</g>
<g>
<symbol overflow="visible" id="malayalam-blwm:id2:glyph0-0">
<path style="stroke:none;" d="M 10.34375 0 L 10.34375 -78.546875 L 55.546875 -78.546875 L 55.546875 0 Z M 15.953125 -5.609375 L 49.9375 -5.609375 L 49.9375 -72.9375 L 15.953125 -72.9375 Z M 15.953125 -5.609375 "/>
</symbol>
<symbol overflow="visible" id="malayalam-blwm:id2:glyph0-1">
<path style="stroke:none;" d="M 16.390625 39.8125 C 12.867188 39.8125 9.972656 38.988281 7.703125 37.34375 C 5.429688 35.695312 3.757812 33.570312 2.6875 30.96875 C 1.625 28.363281 1.09375 25.664062 1.09375 22.875 C 1.09375 18.332031 2.140625 14.519531 4.234375 11.4375 C 6.328125 8.351562 9.039062 6.039062 12.375 4.5 C 15.707031 2.96875 19.28125 2.203125 23.09375 2.203125 C 27.132812 2.203125 30.726562 2.894531 33.875 4.28125 C 37.03125 5.675781 39.671875 7.953125 41.796875 11.109375 C 43.335938 8.472656 45.554688 6.328125 48.453125 4.671875 C 51.347656 3.023438 54.8125 2.203125 58.84375 2.203125 C 63.539062 2.203125 67.519531 3.171875 70.78125 5.109375 C 74.050781 7.054688 76.5625 9.660156 78.3125 12.921875 C 80.070312 16.179688 80.953125 19.832031 80.953125 23.875 C 80.953125 28.5625 79.707031 32.390625 77.21875 35.359375 C 74.726562 38.328125 71.097656 39.8125 66.328125 39.8125 C 62.296875 39.8125 59.050781 38.617188 56.59375 36.234375 C 54.132812 33.859375 52.90625 30.394531 52.90625 25.84375 C 52.90625 22.625 53.640625 19.507812 55.109375 16.5 C 56.578125 13.488281 58.59375 10.664062 61.15625 8.03125 C 60.132812 7.8125 59.070312 7.703125 57.96875 7.703125 C 53.351562 7.703125 50.035156 9.054688 48.015625 11.765625 C 45.992188 14.484375 44.984375 18.003906 44.984375 22.328125 L 44.984375 39.375 L 36.296875 39.375 L 36.296875 22.21875 C 36.296875 17.820312 35.101562 14.300781 32.71875 11.65625 C 30.34375 9.019531 26.878906 7.703125 22.328125 7.703125 C 18.222656 7.703125 14.703125 8.765625 11.765625 10.890625 C 8.835938 13.015625 7.148438 16.238281 6.703125 20.5625 C 8.097656 18.957031 9.726562 17.675781 11.59375 16.71875 C 13.46875 15.769531 15.617188 15.296875 18.046875 15.296875 C 21.265625 15.296875 24.082031 16.300781 26.5 18.3125 C 28.925781 20.332031 30.140625 23.25 30.140625 27.0625 C 30.140625 31.09375 28.910156 34.222656 26.453125 36.453125 C 23.992188 38.691406 20.640625 39.8125 16.390625 39.8125 Z M 58.625 26.1875 C 58.625 28.675781 59.25 30.632812 60.5 32.0625 C 61.75 33.488281 63.363281 34.203125 65.34375 34.203125 C 67.25 34.203125 68.84375 33.394531 70.125 31.78125 C 71.40625 30.175781 72.046875 27.578125 72.046875 23.984375 C 72.046875 21.859375 71.625 19.398438 70.78125 16.609375 C 69.9375 13.828125 68.304688 11.59375 65.890625 9.90625 C 63.617188 12.46875 61.835938 15.101562 60.546875 17.8125 C 59.265625 20.53125 58.625 23.320312 58.625 26.1875 Z M 15.625 20.796875 C 13.863281 20.796875 12.285156 21.269531 10.890625 22.21875 C 9.492188 23.175781 8.175781 24.570312 6.9375 26.40625 C 7.445312 29.039062 8.488281 31.015625 10.0625 32.328125 C 11.644531 33.648438 13.5 34.3125 15.625 34.3125 C 17.675781 34.3125 19.269531 33.6875 20.40625 32.4375 C 21.539062 31.195312 22.109375 29.550781 22.109375 27.5 C 22.109375 25.445312 21.539062 23.816406 20.40625 22.609375 C 19.269531 21.398438 17.675781 20.796875 15.625 20.796875 Z M 37.84375 0.65625 C 34.25 0.65625 31.492188 0.21875 29.578125 -0.65625 C 27.671875 -1.539062 26.390625 -2.585938 25.734375 -3.796875 C 25.078125 -5.003906 24.75 -6.160156 24.75 -7.265625 C 24.75 -7.484375 24.765625 -7.71875 24.796875 -7.96875 C 24.835938 -8.226562 24.894531 -8.539062 24.96875 -8.90625 C 28.34375 -7.4375 31.601562 -6.703125 34.75 -6.703125 C 38.71875 -6.703125 41.503906 -7.453125 43.109375 -8.953125 C 44.722656 -10.460938 45.53125 -12.5 45.53125 -15.0625 C 45.53125 -17.125 45.054688 -19.253906 44.109375 -21.453125 C 43.296875 -21.378906 42.453125 -21.34375 41.578125 -21.34375 C 30.648438 -21.34375 22.691406 -23.46875 17.703125 -27.71875 C 12.710938 -31.96875 10.21875 -37.539062 10.21875 -44.4375 C 10.21875 -47.8125 10.878906 -50.742188 12.203125 -53.234375 C 13.523438 -55.734375 15.226562 -57.695312 17.3125 -59.125 C 19.40625 -60.550781 21.585938 -61.265625 23.859375 -61.265625 C 24.960938 -61.265625 25.84375 -61.15625 26.5 -60.9375 C 24.445312 -58.882812 22.960938 -56.5 22.046875 -53.78125 C 21.128906 -51.070312 20.671875 -48.4375 20.671875 -45.875 C 20.671875 -40.519531 22.226562 -36.132812 25.34375 -32.71875 C 28.46875 -29.3125 33.695312 -27.425781 41.03125 -27.0625 C 40.882812 -27.28125 40.738281 -27.5 40.59375 -27.71875 C 39.125 -29.988281 37.765625 -32.515625 36.515625 -35.296875 C 35.265625 -38.085938 34.640625 -41.171875 34.640625 -44.546875 C 34.640625 -48.285156 35.535156 -51.421875 37.328125 -53.953125 C 39.128906 -56.484375 41.476562 -58.390625 44.375 -59.671875 C 47.269531 -60.953125 50.296875 -61.59375 53.453125 -61.59375 C 58.878906 -61.59375 63.351562 -60.015625 66.875 -56.859375 C 70.394531 -53.710938 72.15625 -49.460938 72.15625 -44.109375 C 72.15625 -38.609375 70.394531 -34.078125 66.875 -30.515625 C 63.351562 -26.960938 58.914062 -24.414062 53.5625 -22.875 C 54.082031 -21.632812 54.523438 -20.332031 54.890625 -18.96875 C 55.253906 -17.613281 55.4375 -16.203125 55.4375 -14.734375 C 55.4375 -9.828125 53.75 -6.035156 50.375 -3.359375 C 47 -0.679688 42.820312 0.65625 37.84375 0.65625 Z M 50.046875 -29.265625 C 50.191406 -29.046875 50.335938 -28.804688 50.484375 -28.546875 C 50.628906 -28.285156 50.773438 -28.046875 50.921875 -27.828125 C 55.109375 -28.785156 58.648438 -30.640625 61.546875 -33.390625 C 64.441406 -36.140625 65.890625 -39.785156 65.890625 -44.328125 C 65.890625 -47.921875 64.84375 -50.632812 62.75 -52.46875 C 60.65625 -54.300781 58.144531 -55.21875 55.21875 -55.21875 C 52.132812 -55.21875 49.582031 -54.335938 47.5625 -52.578125 C 45.550781 -50.816406 44.546875 -48.175781 44.546875 -44.65625 C 44.546875 -41.726562 45.113281 -39.015625 46.25 -36.515625 C 47.382812 -34.023438 48.648438 -31.609375 50.046875 -29.265625 Z M 50.046875 -29.265625 "/>
</symbol>
</g>
</defs>
  <g id="malayalam-blwm:id0:id0" transform="matrix(1.25,0,0,1.25,0.0,12.470703125)"><g id="malayalam-blwm:id0:surface1">
<g style="fill:rgb(0%,0%,0%);fill-opacity:1;">
  <use xlink:href="#malayalam-blwm:id0:glyph0-1" x="16" y="97.046875" class="c0"/>
</g>
</g>
</g>
  <g id="malayalam-blwm:id1:id1" transform="matrix(1.25,0,0,1.25,142.578125,0.0)"><g id="malayalam-blwm:id1:surface1">
<g style="fill:rgb(0%,0%,0%);fill-opacity:1;">
  <use xlink:href="#malayalam-blwm:id1:glyph0-1" x="0" y="120.84375" class="arrow"/>
</g>
</g>
</g>
  <g id="malayalam-blwm:id2:id2" transform="matrix(1.25,0,0,1.25,275.17578125,12.470703125)"><g id="malayalam-blwm:id2:surface1">
<g style="fill:rgb(0%,0%,0%);fill-opacity:1;">
  <use xlink:href="#malayalam-blwm:id2:glyph0-1" x="16" y="97.046875" class="c0"/>
</g>
</g>
</g>
</svg>