<?xml version="1.0" standalone="no"?>
<!DOCTYPE svg PUBLIC "-//W3C//DTD SVG 1.1//EN"
 "http://www.w3.org/Graphics/SVG/1.1/DTD/svg11.dtd">
<!-- Created with svg_stack (http://github.com/astraw/svg_stack) -->
<svg xmlns="http://www.w3.org/2000/svg" xmlns:sodipodi="http://sodipodi.sourceforge.net/DTD/sodipodi-0.dtd" xmlns:xlink="http://www.w3.org/1999/xlink" version="1.1" width="727.94921875" height="201.40625">
  <defs><g>
<symbol overflow="visible" id="id0:glyph0-0">
<path style="stroke:none;" d="M 10.34375 0 L 10.34375 -78.546875 L 55.546875 -78.546875 L 55.546875 0 Z M 15.953125 -5.609375 L 49.9375 -5.609375 L 49.9375 -72.9375 L 15.953125 -72.9375 Z M 15.953125 -5.609375 "/>
</symbol>
<symbol overflow="visible" id="id0:glyph0-1">
<path style="stroke:none;" d="M 21.453125 0.65625 C 16.023438 0.65625 11.734375 -0.828125 8.578125 -3.796875 C 5.421875 -6.765625 3.84375 -10.671875 3.84375 -15.515625 C 3.84375 -21.304688 6.28125 -25.8125 11.15625 -29.03125 C 16.039062 -32.257812 22.882812 -33.945312 31.6875 -34.09375 C 32.050781 -39.082031 33.113281 -43.664062 34.875 -47.84375 C 36.632812 -52.03125 39.179688 -55.367188 42.515625 -57.859375 C 45.847656 -60.347656 50.046875 -61.59375 55.109375 -61.59375 C 60.535156 -61.59375 64.972656 -60.382812 68.421875 -57.96875 C 71.867188 -55.550781 74.488281 -52.25 76.28125 -48.0625 C 78.082031 -43.882812 79.128906 -39.226562 79.421875 -34.09375 L 80.1875 -34.09375 C 88.332031 -34.09375 94.640625 -32.441406 99.109375 -29.140625 C 103.578125 -25.847656 105.8125 -21.414062 105.8125 -15.84375 C 105.8125 -12.320312 105.097656 -9.332031 103.671875 -6.875 C 102.242188 -4.414062 100.351562 -2.546875 98 -1.265625 C 95.65625 0.015625 93.09375 0.65625 90.3125 0.65625 C 88.039062 0.65625 86.132812 0.0859375 84.59375 -1.046875 C 83.050781 -2.179688 82.28125 -3.738281 82.28125 -5.71875 C 82.644531 -5.644531 83.03125 -5.609375 83.4375 -5.609375 C 83.84375 -5.609375 84.191406 -5.609375 84.484375 -5.609375 C 87.703125 -5.609375 90.320312 -6.523438 92.34375 -8.359375 C 94.363281 -10.191406 95.375 -12.722656 95.375 -15.953125 C 95.375 -20.421875 94.015625 -23.625 91.296875 -25.5625 C 88.585938 -27.507812 84.664062 -28.484375 79.53125 -28.484375 C 79.3125 -23.054688 78.359375 -18.144531 76.671875 -13.75 C 74.984375 -9.351562 72.359375 -5.851562 68.796875 -3.25 C 65.242188 -0.644531 60.679688 0.65625 55.109375 0.65625 C 51.148438 0.65625 47.722656 -0.128906 44.828125 -1.703125 C 41.929688 -3.273438 39.53125 -5.421875 37.625 -8.140625 C 33.957031 -2.273438 28.566406 0.65625 21.453125 0.65625 Z M 54.34375 -55 C 50.894531 -55 47.992188 -54.023438 45.640625 -52.078125 C 43.296875 -50.140625 41.5 -47.59375 40.25 -44.4375 C 39.007812 -41.28125 38.242188 -37.832031 37.953125 -34.09375 L 68.859375 -34.09375 C 68.640625 -40.476562 67.46875 -45.554688 65.34375 -49.328125 C 63.21875 -53.109375 59.550781 -55 54.34375 -55 Z M 53.796875 -5.9375 C 57.609375 -5.9375 60.59375 -6.851562 62.75 -8.6875 C 64.914062 -10.519531 66.457031 -13.140625 67.375 -16.546875 C 68.289062 -19.960938 68.820312 -23.941406 68.96875 -28.484375 L 37.84375 -28.484375 C 38.0625 -24.523438 38.753906 -20.820312 39.921875 -17.375 C 41.097656 -13.925781 42.84375 -11.15625 45.15625 -9.0625 C 47.46875 -6.976562 50.347656 -5.9375 53.796875 -5.9375 Z M 14.078125 -15.296875 C 14.078125 -12.722656 14.550781 -10.703125 15.5 -9.234375 C 16.457031 -7.773438 17.648438 -6.769531 19.078125 -6.21875 C 20.515625 -5.664062 21.96875 -5.390625 23.4375 -5.390625 C 28.632812 -5.390625 32.335938 -8.175781 34.546875 -13.75 C 32.785156 -18 31.789062 -22.910156 31.5625 -28.484375 C 26.363281 -28.335938 22.148438 -27.253906 18.921875 -25.234375 C 15.691406 -23.222656 14.078125 -19.910156 14.078125 -15.296875 Z M 14.078125 -15.296875 "/>
</symbol>
<symbol overflow="visible" id="id0:glyph0-2">
<path style="stroke:none;" d="M -10.234375 -66.546875 C -15.441406 -66.546875 -19.457031 -67.222656 -22.28125 -68.578125 C -25.101562 -69.941406 -27.0625 -71.648438 -28.15625 -73.703125 C -29.257812 -75.753906 -29.8125 -77.84375 -29.8125 -79.96875 C -29.8125 -82.53125 -28.945312 -84.507812 -27.21875 -85.90625 C -25.5 -87.300781 -23.613281 -88 -21.5625 -88 C -20.675781 -88 -19.832031 -87.851562 -19.03125 -87.5625 C -19.539062 -86.09375 -19.796875 -84.585938 -19.796875 -83.046875 C -19.796875 -79.816406 -18.878906 -77.320312 -17.046875 -75.5625 C -15.210938 -73.8125 -12.71875 -72.9375 -9.5625 -72.9375 C -6.488281 -72.9375 -4.050781 -73.722656 -2.25 -75.296875 C -0.457031 -76.867188 0.4375 -79.304688 0.4375 -82.609375 C 0.4375 -84.441406 0.0703125 -86.09375 -0.65625 -87.5625 C 0 -87.78125 0.695312 -87.890625 1.4375 -87.890625 C 3.34375 -87.890625 4.753906 -87.132812 5.671875 -85.625 C 6.585938 -84.125 7.046875 -82.457031 7.046875 -80.625 C 7.046875 -76.59375 5.578125 -73.238281 2.640625 -70.5625 C -0.296875 -67.882812 -4.585938 -66.546875 -10.234375 -66.546875 Z M -10.234375 -66.546875 "/>
</symbol>
<symbol overflow="visible" id="id0:glyph0-3">
<path style="stroke:none;" d="M 16.28125 0.65625 C 14.445312 0.65625 12.554688 -0.164062 10.609375 -1.8125 C 8.671875 -3.46875 7.039062 -5.742188 5.71875 -8.640625 C 4.394531 -11.535156 3.734375 -14.78125 3.734375 -18.375 C 3.734375 -22.625 4.664062 -26.320312 6.53125 -29.46875 C 8.40625 -32.625 10.957031 -35.082031 14.1875 -36.84375 C 17.414062 -38.601562 21.046875 -39.484375 25.078125 -39.484375 C 28.960938 -39.484375 32.535156 -38.695312 35.796875 -37.125 C 39.066406 -35.550781 41.691406 -33.3125 43.671875 -30.40625 C 45.648438 -27.507812 46.640625 -24.046875 46.640625 -20.015625 C 46.640625 -17.523438 46.125 -15.03125 45.09375 -12.53125 C 44.070312 -10.039062 42.5 -7.84375 40.375 -5.9375 L 71.9375 -5.9375 L 71.9375 -25.1875 C 65.632812 -25.925781 60.445312 -28.015625 56.375 -31.453125 C 52.300781 -34.898438 50.265625 -39.671875 50.265625 -45.765625 C 50.265625 -49.285156 51.015625 -52.21875 52.515625 -54.5625 C 54.023438 -56.90625 56.007812 -58.660156 58.46875 -59.828125 C 60.925781 -61.003906 63.546875 -61.59375 66.328125 -61.59375 C 68.972656 -61.59375 71.503906 -61.023438 73.921875 -59.890625 C 76.335938 -58.753906 78.316406 -56.882812 79.859375 -54.28125 C 81.398438 -51.675781 82.171875 -48.210938 82.171875 -43.890625 L 82.171875 -31.125 C 88.847656 -32.15625 94.734375 -35.179688 99.828125 -40.203125 C 104.921875 -45.222656 108.601562 -52.132812 110.875 -60.9375 L 115.5 -60.609375 L 115.5 0 L 29.15625 0 L 28.046875 -1.875 C 29.078125 -2.75 30.269531 -3.957031 31.625 -5.5 C 32.976562 -7.039062 34.148438 -8.960938 35.140625 -11.265625 C 36.128906 -13.578125 36.625 -16.3125 36.625 -19.46875 C 36.625 -23.207031 35.453125 -26.378906 33.109375 -28.984375 C 30.765625 -31.585938 27.648438 -32.890625 23.765625 -32.890625 C 19.429688 -32.890625 16.054688 -31.457031 13.640625 -28.59375 C 11.222656 -25.738281 10.015625 -22.332031 10.015625 -18.375 C 10.015625 -14.1875 11.054688 -10.71875 13.140625 -7.96875 C 15.234375 -5.21875 17.453125 -3.078125 19.796875 -1.546875 C 19.359375 -0.804688 18.898438 -0.253906 18.421875 0.109375 C 17.941406 0.472656 17.226562 0.65625 16.28125 0.65625 Z M 56.4375 -45.984375 C 56.4375 -41.722656 57.828125 -38.347656 60.609375 -35.859375 C 63.398438 -33.367188 67.175781 -31.789062 71.9375 -31.125 L 71.9375 -43.78125 C 71.9375 -51.257812 69.476562 -55 64.5625 -55 C 62 -55 60.003906 -54.15625 58.578125 -52.46875 C 57.148438 -50.78125 56.4375 -48.617188 56.4375 -45.984375 Z M 82.171875 -5.9375 L 105.265625 -5.9375 L 105.265625 -24.53125 C 105.265625 -26.363281 105.28125 -28.488281 105.3125 -30.90625 C 105.351562 -33.332031 105.445312 -35.609375 105.59375 -37.734375 C 102.664062 -34.359375 99.203125 -31.585938 95.203125 -29.421875 C 91.203125 -27.265625 86.859375 -25.890625 82.171875 -25.296875 Z M 82.171875 -5.9375 "/>
</symbol>
</g>
<g>
<symbol overflow="visible" id="id1:glyph0-0">
<path style="stroke:none;" d="M 5.375 -96.6875 L 69.828125 -96.6875 L 69.828125 0 L 5.375 0 Z M 8.0625 -2.6875 L 67.140625 -2.6875 L 67.140625 -94 L 8.0625 -94 Z M 8.0625 -2.6875 "/>
</symbol>
<symbol overflow="visible" id="id1:glyph0-1">
<path style="stroke:none;" d="M 68.15625 -13.75 L 66.28125 -18.640625 L 88.09375 -27.390625 L 6.984375 -27.390625 L 6.984375 -34 L 88.09375 -34 L 66.28125 -42.75 L 68.15625 -47.640625 L 99.09375 -34.265625 L 99.09375 -27.125 Z M 68.15625 -13.75 "/>
</symbol>
</g>
<g>
<symbol overflow="visible" id="id2:glyph0-0">
<path style="stroke:none;" d="M 10.34375 0 L 10.34375 -78.546875 L 55.546875 -78.546875 L 55.546875 0 Z M 15.953125 -5.609375 L 49.9375 -5.609375 L 49.9375 -72.9375 L 15.953125 -72.9375 Z M 15.953125 -5.609375 "/>
</symbol>
<symbol overflow="visible" id="id2:glyph0-1">
<path style="stroke:none;" d="M 21.453125 0.65625 C 16.023438 0.65625 11.734375 -0.828125 8.578125 -3.796875 C 5.421875 -6.765625 3.84375 -10.671875 3.84375 -15.515625 C 3.84375 -21.304688 6.28125 -25.8125 11.15625 -29.03125 C 16.039062 -32.257812 22.882812 -33.945312 31.6875 -34.09375 C 32.050781 -39.082031 33.113281 -43.664062 34.875 -47.84375 C 36.632812 -52.03125 39.179688 -55.367188 42.515625 -57.859375 C 45.847656 -60.347656 50.046875 -61.59375 55.109375 -61.59375 C 60.535156 -61.59375 64.972656 -60.382812 68.421875 -57.96875 C 71.867188 -55.550781 74.488281 -52.25 76.28125 -48.0625 C 78.082031 -43.882812 79.128906 -39.226562 79.421875 -34.09375 L 80.1875 -34.09375 C 88.332031 -34.09375 94.640625 -32.476562 99.109375 -29.25 C 103.578125 -26.03125 105.8125 -21.851562 105.8125 -16.71875 C 105.8125 -14.300781 105.332031 -12.210938 104.375 -10.453125 C 103.425781 -8.691406 102.1875 -7.1875 100.65625 -5.9375 L 127.703125 -5.9375 L 127.703125 -25.1875 C 121.398438 -25.925781 116.210938 -28.015625 112.140625 -31.453125 C 108.078125 -34.898438 106.046875 -39.671875 106.046875 -45.765625 C 106.046875 -49.285156 106.796875 -52.21875 108.296875 -54.5625 C 109.796875 -56.90625 111.773438 -58.660156 114.234375 -59.828125 C 116.691406 -61.003906 119.3125 -61.59375 122.09375 -61.59375 C 124.738281 -61.59375 127.269531 -61.023438 129.6875 -59.890625 C 132.101562 -58.753906 134.082031 -56.882812 135.625 -54.28125 C 137.164062 -51.675781 137.9375 -48.210938 137.9375 -43.890625 L 137.9375 -31.125 C 144.539062 -32.15625 150.40625 -35.179688 155.53125 -40.203125 C 160.664062 -45.222656 164.375 -52.132812 166.65625 -60.9375 L 171.265625 -60.609375 L 171.265625 0 L 87.125 0 L 86.234375 -2.203125 C 89.460938 -4.109375 91.789062 -6.160156 93.21875 -8.359375 C 94.65625 -10.554688 95.375 -13.085938 95.375 -15.953125 C 95.375 -20.347656 94.015625 -23.535156 91.296875 -25.515625 C 88.585938 -27.492188 84.664062 -28.484375 79.53125 -28.484375 C 79.3125 -23.054688 78.359375 -18.144531 76.671875 -13.75 C 74.984375 -9.351562 72.359375 -5.851562 68.796875 -3.25 C 65.242188 -0.644531 60.679688 0.65625 55.109375 0.65625 C 51.148438 0.65625 47.722656 -0.128906 44.828125 -1.703125 C 41.929688 -3.273438 39.53125 -5.421875 37.625 -8.140625 C 33.957031 -2.273438 28.566406 0.65625 21.453125 0.65625 Z M 54.34375 -55 C 50.894531 -55 47.992188 -54.023438 45.640625 -52.078125 C 43.296875 -50.140625 41.5 -47.59375 40.25 -44.4375 C 39.007812 -41.28125 38.242188 -37.832031 37.953125 -34.09375 L 68.859375 -34.09375 C 68.640625 -40.476562 67.46875 -45.554688 65.34375 -49.328125 C 63.21875 -53.109375 59.550781 -55 54.34375 -55 Z M 112.203125 -45.984375 C 112.203125 -41.722656 113.59375 -38.347656 116.375 -35.859375 C 119.164062 -33.367188 122.941406 -31.789062 127.703125 -31.125 L 127.703125 -43.78125 C 127.703125 -51.257812 125.25 -55 120.34375 -55 C 117.769531 -55 115.769531 -54.15625 114.34375 -52.46875 C 112.914062 -50.78125 112.203125 -48.617188 112.203125 -45.984375 Z M 137.9375 -5.9375 L 161.046875 -5.9375 L 161.046875 -24.53125 C 161.046875 -26.363281 161.0625 -28.488281 161.09375 -30.90625 C 161.132812 -33.332031 161.226562 -35.609375 161.375 -37.734375 C 158.4375 -34.359375 154.96875 -31.585938 150.96875 -29.421875 C 146.976562 -27.265625 142.632812 -25.890625 137.9375 -25.296875 Z M 53.796875 -5.9375 C 57.609375 -5.9375 60.59375 -6.851562 62.75 -8.6875 C 64.914062 -10.519531 66.457031 -13.140625 67.375 -16.546875 C 68.289062 -19.960938 68.820312 -23.941406 68.96875 -28.484375 L 37.84375 -28.484375 C 38.0625 -24.523438 38.753906 -20.820312 39.921875 -17.375 C 41.097656 -13.925781 42.84375 -11.15625 45.15625 -9.0625 C 47.46875 -6.976562 50.347656 -5.9375 53.796875 -5.9375 Z M 14.078125 -15.296875 C 14.078125 -12.722656 14.550781 -10.703125 15.5 -9.234375 C 16.457031 -7.773438 17.648438 -6.769531 19.078125 -6.21875 C 20.515625 -5.664062 21.96875 -5.390625 23.4375 -5.390625 C 28.632812 -5.390625 32.335938 -8.175781 34.546875 -13.75 C 32.785156 -18 31.789062 -22.910156 31.5625 -28.484375 C 26.363281 -28.335938 22.148438 -27.253906 18.921875 -25.234375 C 15.691406 -23.222656 14.078125 -19.910156 14.078125 -15.296875 Z M 14.078125 -15.296875 "/>
</symbol>
</g>
</defs>
  <g id="id0:id0" transform="matrix(1.25,0,0,1.25,0.0,12.470703125)"><g id="id0:surface1">
<g style="fill:rgb(0%,0%,0%);fill-opacity:1;">
  <use xlink:href="#id0:glyph0-1" x="16" y="97.046875"/>
  <use xlink:href="#id0:glyph0-2" x="125.671875" y="97.046875"/>
  <use xlink:href="#id0:glyph0-3" x="125.671875" y="97.046875"/>
</g>
</g>
</g>
  <g id="id1:id1" transform="matrix(1.25,0,0,1.25,331.3671875,0.0)"><g id="id1:surface1">
<g style="fill:rgb(0%,0%,0%);fill-opacity:1;">
  <use xlink:href="#id1:glyph0-1" x="0" y="120.84375"/>
</g>
</g>
</g>
  <g id="id2:id2" transform="matrix(1.25,0,0,1.25,463.96484375,12.470703125)"><g id="id2:surface1">
<g style="fill:rgb(0%,0%,0%);fill-opacity:1;">
  <use xlink:href="#id2:glyph0-1" x="16" y="97.046875"/>
</g>
</g>
</g>
</svg>
