<?xml version="1.0" standalone="no"?>
<!DOCTYPE svg PUBLIC "-//W3C//DTD SVG 1.1//EN"
 "http://www.w3.org/Graphics/SVG/1.1/DTD/svg11.dtd">
<!-- Created with svg_stack (http://github.com/astraw/svg_stack) -->
<svg xmlns="http://www.w3.org/2000/svg" xmlns:sodipodi="http://sodipodi.sourceforge.net/DTD/sodipodi-0.dtd" xmlns:xlink="http://www.w3.org/1999/xlink" version="1.1" width="514.94140625" height="213.96484375">
  <defs><g>
<symbol overflow="visible" id="id0:glyph0-0">
<path style="stroke:none;" d="M 10.34375 0 L 10.34375 -78.546875 L 55.546875 -78.546875 L 55.546875 0 Z M 15.953125 -5.609375 L 49.9375 -5.609375 L 49.9375 -72.9375 L 15.953125 -72.9375 Z M 15.953125 -5.609375 "/>
</symbol>
<symbol overflow="visible" id="id0:glyph0-1">
<path style="stroke:none;" d="M 7.046875 0 L 7.046875 -32.5625 C 7.046875 -39.3125 8.492188 -44.828125 11.390625 -49.109375 C 14.285156 -53.398438 18.097656 -56.550781 22.828125 -58.5625 C 27.554688 -60.582031 32.671875 -61.59375 38.171875 -61.59375 C 43.890625 -61.59375 49.019531 -60.507812 53.5625 -58.34375 C 58.113281 -56.1875 61.726562 -53 64.40625 -48.78125 C 67.082031 -44.5625 68.421875 -39.410156 68.421875 -33.328125 L 68.421875 0 Z M 48.734375 -36.40625 C 48.734375 -31.195312 46.804688 -25.9375 42.953125 -20.625 C 39.109375 -15.3125 32.820312 -10.414062 24.09375 -5.9375 L 58.953125 -5.9375 L 58.953125 -32.78125 C 58.953125 -40.769531 56.914062 -46.5625 52.84375 -50.15625 C 48.78125 -53.75 43.226562 -55.546875 36.1875 -55.546875 C 33.769531 -55.546875 31.609375 -55.378906 29.703125 -55.046875 C 27.796875 -54.722656 26.070312 -54.304688 24.53125 -53.796875 C 26.144531 -54.160156 27.722656 -54.34375 29.265625 -54.34375 C 35.273438 -54.34375 40.019531 -52.707031 43.5 -49.4375 C 46.988281 -46.175781 48.734375 -41.832031 48.734375 -36.40625 Z M 13.53125 -32.015625 L 13.53125 -5.9375 C 18.144531 -8.65625 22.285156 -11.660156 25.953125 -14.953125 C 29.617188 -18.253906 32.515625 -21.8125 34.640625 -25.625 C 36.773438 -29.4375 37.84375 -33.363281 37.84375 -37.40625 C 37.84375 -40.84375 36.960938 -43.84375 35.203125 -46.40625 C 33.441406 -48.976562 30.507812 -50.265625 26.40625 -50.265625 C 24.050781 -50.265625 21.898438 -49.710938 19.953125 -48.609375 C 18.015625 -47.515625 16.457031 -45.644531 15.28125 -43 C 14.113281 -40.363281 13.53125 -36.703125 13.53125 -32.015625 Z M 13.53125 -32.015625 "/>
</symbol>
<symbol overflow="visible" id="id0:glyph0-2">
<path style="stroke:none;" d="M -10.234375 -66.546875 C -15.441406 -66.546875 -19.457031 -67.222656 -22.28125 -68.578125 C -25.101562 -69.941406 -27.0625 -71.648438 -28.15625 -73.703125 C -29.257812 -75.753906 -29.8125 -77.84375 -29.8125 -79.96875 C -29.8125 -82.53125 -28.945312 -84.507812 -27.21875 -85.90625 C -25.5 -87.300781 -23.613281 -88 -21.5625 -88 C -20.675781 -88 -19.832031 -87.851562 -19.03125 -87.5625 C -19.539062 -86.09375 -19.796875 -84.585938 -19.796875 -83.046875 C -19.796875 -79.816406 -18.878906 -77.320312 -17.046875 -75.5625 C -15.210938 -73.8125 -12.71875 -72.9375 -9.5625 -72.9375 C -6.488281 -72.9375 -4.050781 -73.722656 -2.25 -75.296875 C -0.457031 -76.867188 0.4375 -79.304688 0.4375 -82.609375 C 0.4375 -84.441406 0.0703125 -86.09375 -0.65625 -87.5625 C 0 -87.78125 0.695312 -87.890625 1.4375 -87.890625 C 3.34375 -87.890625 4.753906 -87.132812 5.671875 -85.625 C 6.585938 -84.125 7.046875 -82.457031 7.046875 -80.625 C 7.046875 -76.59375 5.578125 -73.238281 2.640625 -70.5625 C -0.296875 -67.882812 -4.585938 -66.546875 -10.234375 -66.546875 Z M -10.234375 -66.546875 "/>
</symbol>
<symbol overflow="visible" id="id0:glyph0-3">
<path style="stroke:none;" d="M 7.265625 0 L 7.265625 -36.078125 C 7.265625 -42.160156 8.398438 -47.070312 10.671875 -50.8125 C 12.941406 -54.5625 15.925781 -57.296875 19.625 -59.015625 C 23.332031 -60.734375 27.238281 -61.59375 31.34375 -61.59375 C 38.457031 -61.59375 44.050781 -59.519531 48.125 -55.375 C 52.195312 -51.238281 54.234375 -44.804688 54.234375 -36.078125 L 54.234375 -24.3125 L 17.59375 -24.3125 L 17.59375 -5.9375 L 72.59375 -5.9375 L 72.59375 -60.9375 L 83.046875 -60.9375 L 83.046875 0 Z M 33.109375 -55 C 28.640625 -55 24.9375 -53.660156 22 -50.984375 C 19.0625 -48.304688 17.59375 -43.78125 17.59375 -37.40625 L 17.59375 -30.140625 L 47.734375 -30.140625 L 47.734375 -37.1875 C 47.734375 -42.6875 46.597656 -47.03125 44.328125 -50.21875 C 42.054688 -53.40625 38.316406 -55 33.109375 -55 Z M 33.109375 -55 "/>
</symbol>
</g>
<g>
<symbol overflow="visible" id="id1:glyph0-0">
<path style="stroke:none;" d="M 5.375 -96.6875 L 69.828125 -96.6875 L 69.828125 0 L 5.375 0 Z M 8.0625 -2.6875 L 67.140625 -2.6875 L 67.140625 -94 L 8.0625 -94 Z M 8.0625 -2.6875 "/>
</symbol>
<symbol overflow="visible" id="id1:glyph0-1">
<path style="stroke:none;" d="M 68.15625 -13.75 L 66.28125 -18.640625 L 88.09375 -27.390625 L 6.984375 -27.390625 L 6.984375 -34 L 88.09375 -34 L 66.28125 -42.75 L 68.15625 -47.640625 L 99.09375 -34.265625 L 99.09375 -27.125 Z M 68.15625 -13.75 "/>
</symbol>
</g>
<g>
<symbol overflow="visible" id="id2:glyph0-0">
<path style="stroke:none;" d="M 10.34375 0 L 10.34375 -78.546875 L 55.546875 -78.546875 L 55.546875 0 Z M 15.953125 -5.609375 L 49.9375 -5.609375 L 49.9375 -72.9375 L 15.953125 -72.9375 Z M 15.953125 -5.609375 "/>
</symbol>
<symbol overflow="visible" id="id2:glyph0-1">
<path style="stroke:none;" d="M 7.046875 0 L 7.046875 -32.5625 C 7.046875 -39.3125 8.492188 -44.828125 11.390625 -49.109375 C 14.285156 -53.398438 18.097656 -56.550781 22.828125 -58.5625 C 27.554688 -60.582031 32.671875 -61.59375 38.171875 -61.59375 C 43.890625 -61.59375 49.019531 -60.507812 53.5625 -58.34375 C 58.113281 -56.1875 61.726562 -53 64.40625 -48.78125 C 67.082031 -44.5625 68.421875 -39.410156 68.421875 -33.328125 L 68.421875 0 L 67.546875 0 C 68.929688 2.269531 70.0625 4.945312 70.9375 8.03125 C 71.820312 11.113281 72.265625 14.414062 72.265625 17.9375 C 72.265625 23.65625 71.054688 28.195312 68.640625 31.5625 C 66.222656 34.9375 62.738281 36.625 58.1875 36.625 C 55.40625 36.625 52.800781 36.109375 50.375 35.078125 C 47.957031 34.054688 45.8125 32.1875 43.9375 29.46875 C 42.070312 26.757812 40.476562 22.875 39.15625 17.8125 C 37.988281 13.125 36.722656 9.492188 35.359375 6.921875 C 34.003906 4.359375 32.410156 2.5625 30.578125 1.53125 C 28.742188 0.507812 26.507812 0 23.875 0 C 20.425781 0 17.4375 1.425781 14.90625 4.28125 C 12.375 7.144531 11 11.144531 10.78125 16.28125 C 12.101562 14.59375 13.71875 13.160156 15.625 11.984375 C 17.53125 10.816406 19.875 10.234375 22.65625 10.234375 C 25.8125 10.234375 28.359375 10.890625 30.296875 12.203125 C 32.242188 13.523438 33.691406 15.210938 34.640625 17.265625 C 35.597656 19.316406 36.078125 21.445312 36.078125 23.65625 C 36.078125 27.6875 34.738281 30.851562 32.0625 33.15625 C 29.382812 35.46875 25.882812 36.625 21.5625 36.625 C 17.96875 36.625 14.921875 35.707031 12.421875 33.875 C 9.929688 32.039062 8.046875 29.640625 6.765625 26.671875 C 5.484375 23.703125 4.84375 20.53125 4.84375 17.15625 C 4.84375 13.195312 5.460938 9.804688 6.703125 6.984375 C 7.953125 4.160156 9.601562 1.832031 11.65625 0 Z M 48.734375 -36.40625 C 48.734375 -31.195312 46.804688 -25.9375 42.953125 -20.625 C 39.109375 -15.3125 32.820312 -10.414062 24.09375 -5.9375 L 58.953125 -5.9375 L 58.953125 -32.78125 C 58.953125 -40.769531 56.914062 -46.5625 52.84375 -50.15625 C 48.78125 -53.75 43.226562 -55.546875 36.1875 -55.546875 C 33.769531 -55.546875 31.609375 -55.378906 29.703125 -55.046875 C 27.796875 -54.722656 26.070312 -54.304688 24.53125 -53.796875 C 26.144531 -54.160156 27.722656 -54.34375 29.265625 -54.34375 C 35.273438 -54.34375 40.019531 -52.707031 43.5 -49.4375 C 46.988281 -46.175781 48.734375 -41.832031 48.734375 -36.40625 Z M 13.53125 -32.015625 L 13.53125 -5.9375 C 18.144531 -8.65625 22.285156 -11.660156 25.953125 -14.953125 C 29.617188 -18.253906 32.515625 -21.8125 34.640625 -25.625 C 36.773438 -29.4375 37.84375 -33.363281 37.84375 -37.40625 C 37.84375 -40.84375 36.960938 -43.84375 35.203125 -46.40625 C 33.441406 -48.976562 30.507812 -50.265625 26.40625 -50.265625 C 24.050781 -50.265625 21.898438 -49.710938 19.953125 -48.609375 C 18.015625 -47.515625 16.457031 -45.644531 15.28125 -43 C 14.113281 -40.363281 13.53125 -36.703125 13.53125 -32.015625 Z M 48.0625 14.84375 C 49.019531 19.175781 49.972656 22.421875 50.921875 24.578125 C 51.878906 26.742188 52.976562 28.191406 54.21875 28.921875 C 55.46875 29.660156 56.9375 30.03125 58.625 30.03125 C 59.800781 30.03125 60.9375 29.734375 62.03125 29.140625 C 63.132812 28.554688 64.070312 27.421875 64.84375 25.734375 C 65.613281 24.046875 66 21.554688 66 18.265625 C 66 14.523438 65.46875 11.113281 64.40625 8.03125 C 63.34375 4.945312 61.96875 2.269531 60.28125 0 L 40.484375 0 C 42.390625 1.6875 43.960938 3.773438 45.203125 6.265625 C 46.453125 8.765625 47.40625 11.625 48.0625 14.84375 Z M 20.5625 15.953125 C 18.507812 15.953125 16.769531 16.535156 15.34375 17.703125 C 13.914062 18.878906 12.578125 20.421875 11.328125 22.328125 C 11.984375 25.046875 13.15625 27.15625 14.84375 28.65625 C 16.53125 30.15625 18.515625 30.90625 20.796875 30.90625 C 23.359375 30.90625 25.257812 30.191406 26.5 28.765625 C 27.75 27.335938 28.375 25.597656 28.375 23.546875 C 28.375 21.554688 27.710938 19.789062 26.390625 18.25 C 25.078125 16.71875 23.132812 15.953125 20.5625 15.953125 Z M 20.5625 15.953125 "/>
</symbol>
</g>
</defs>
  <g id="id0:id0" transform="matrix(1.25,0,0,1.25,0.0,0.0)"><g id="id0:surface1">
<g style="fill:rgb(0%,0%,0%);fill-opacity:1;">
  <use xlink:href="#id0:glyph0-1" x="16" y="127.046875"/>
  <use xlink:href="#id0:glyph0-2" x="91.453125" y="127.046875"/>
  <use xlink:href="#id0:glyph0-3" x="91.453125" y="127.046875"/>
</g>
</g>
</g>
  <g id="id1:id1" transform="matrix(1.25,0,0,1.25,248.02734375,6.279296875)"><g id="id1:surface1">
<g style="fill:rgb(0%,0%,0%);fill-opacity:1;">
  <use xlink:href="#id1:glyph0-1" x="0" y="120.84375"/>
</g>
</g>
</g>
  <g id="id2:id2" transform="matrix(1.25,0,0,1.25,380.625,0.0)"><g id="id2:surface1">
<g style="fill:rgb(0%,0%,0%);fill-opacity:1;">
  <use xlink:href="#id2:glyph0-1" x="16" y="127.046875"/>
</g>
</g>
</g>
</svg>
